<?xml version="1.0" standalone="no"?><!DOCTYPE svg PUBLIC "-//W3C//DTD SVG 1.1//EN" "http://www.w3.org/Graphics/SVG/1.1/DTD/svg11.dtd" ><svg xmlns="http://www.w3.org/2000/svg"><metadata></metadata><defs><font id="Co Headline Corp Regular Version 1.012" horiz-adv-x="1375"><font-face font-family="Co Headline Corp" font-weight="400" font-stretch="normal" units-per-em="1000" panose-1="2 11 5 3 6 2 2 2 2 4" ascent="950" descent="-253" x-height="4" bbox="-234 -253 1346 950" underline-thickness="50" underline-position="-75" unicode-range="U+0000-fb04" /><missing-glyph horiz-adv-x="500" d="M50 0 l0 750 l400 0 l0 -750 l-400 0 ZM400 50 l0 650 l-300 0 l0 -650 l300 0 Z" /><glyph glyph-name=".null" unicode="" d="" /><glyph glyph-name="nonmarkingreturn" unicode="" d="" /><glyph glyph-name="space" unicode=" " d="" /><glyph glyph-name="exclam" unicode="!" d="M62 633 q0 27 16.5 40 q16.5 13 43.5 13 q18 0 33.5 -5 q15.5 -5 20.5 -7 l0 -454 l-114 0 l0 413 ZM120 134 q31 0 53.5 -22 q22.5 -22 22.5 -53 q0 -30 -22.5 -52.5 q-22.5 -22.5 -53.5 -22.5 q-31 0 -54 22.5 q-23 22.5 -23 52.5 q0 31 23 53 q23 22 54 22 Z" /><glyph glyph-name="quotedbl" unicode="&quot;" d="M88 684 q0 26 16.5 39.5 q16.5 13.5 43.5 13.5 q18 0 33.5 -5 q15.5 -5 21.5 -8 l0 -266 l-115 0 l0 226 ZM313 684 q0 26 16 39.5 q16 13.5 43 13.5 q18 0 33.5 -5 q15.5 -5 21.5 -8 l0 -266 l-114 0 l0 226 Z" /><glyph glyph-name="numbersign" unicode="#" d="M162 161 l-68 0 q-30 0 -43 13 q-13 13 -13 36 q0 16 5 29.5 q5 13.5 9 18.5 l127 0 l31 183 l-68 0 q-30 0 -43 12.5 q-13 12.5 -13 35.5 q0 17 5 30.5 q5 13.5 9 18.5 l127 0 l20 117 q5 26 20 37.5 q15 11.5 40 11.5 q15 0 27 -4 q12 -4 17 -6 l-27 -156 l178 0 l20 117 q5 26 20 37.5 q15 11.5 39 11.5 q16 0 28 -4 q12 -4 17 -6 l-27 -156 l69 0 q29 0 41.5 -12.5 q12.5 -12.5 12.5 -36.5 q0 -16 -4.5 -29.5 q-4.5 -13.5 -7.5 -18.5 l-127 0 l-32 -183 l69 0 q29 0 41.5 -12.5 q12.5 -12.5 12.5 -35.5 q0 -17 -4.5 -30.5 q-4.5 -13.5 -7.5 -18.5 l-127 0 l-28 -161 l-97 0 l27 161 l-178 0 l-27 -161 l-97 0 l27 161 ZM454 258 l31 183 l-178 0 l-31 -183 l178 0 Z" /><glyph glyph-name="dollar" unicode="$" d="M79 162 q8 -6 25 -15.5 q17 -9.5 42.5 -19.5 q25.5 -10 59 -18.5 q33.5 -8.5 74.5 -11.5 l0 199 l-32 7 q-39 8 -75.5 22 q-36.5 14 -65.5 36 q-29 22 -46.5 54.5 q-17.5 32.5 -17.5 77.5 q0 39 13.5 73 q13.5 34 42 60.5 q28.5 26.5 73.5 44 q45 17.5 108 22.5 l0 74 q0 31 36 31 q12 0 21.5 -3 q9.5 -3 11.5 -4 l0 -99 q39 -3 69 -9 q30 -6 52 -13 q22 -7 36 -13.5 q14 -6.5 20 -10.5 q16 -10 25 -23.5 q9 -13.5 9 -29.5 q0 -22 -12.5 -41.5 q-12.5 -19.5 -26.5 -27.5 q-7 8 -22 19 q-15 11 -37 21 q-22 10 -50.5 18 q-28.5 8 -62.5 11 l0 -198 l36 -7 q103 -20 155 -64 q52 -44 53 -125 q0 -86 -61 -139.5 q-61 -53.5 -183 -63.5 l0 -106 l-69 0 l0 106 q-50 3 -91.5 12.5 q-41.5 9.5 -73.5 21.5 q-32 12 -54 24 q-22 12 -32 19 l50 89 ZM280 594 q-65 -5 -93.5 -30 q-28.5 -25 -28.5 -63 q0 -37 29.5 -58.5 q29.5 -21.5 92.5 -34.5 l0 186 ZM349 96 q63 7 92.5 30 q29.5 23 29.5 64 q0 43 -31.5 63 q-31.5 20 -90.5 31 l0 -188 Z" /><glyph glyph-name="percent" unicode="%" d="M743 374 q42 0 78.5 -15 q36.5 -15 64 -41 q27.5 -26 43 -61.5 q15.5 -35.5 15.5 -76.5 q0 -41 -15.5 -76.5 q-15.5 -35.5 -43 -61.5 q-27.5 -26 -64 -41 q-36.5 -15 -78.5 -15 q-42 0 -78.5 15 q-36.5 15 -64 41 q-27.5 26 -43 61.5 q-15.5 35.5 -15.5 76.5 q0 41 15.5 76.5 q15.5 35.5 43 61.5 q27.5 26 64 41 q36.5 15 78.5 15 ZM624 698 q9 16 20.5 27.5 q11.5 11.5 38.5 11.5 q23 0 38 -8 q15 -8 19 -12 l-408 -717 l-107 0 l399 698 ZM847 180 q0 22 -8 41.5 q-8 19.5 -22 33.5 q-14 14 -33 22.5 q-19 8.5 -41 8.5 q-22 0 -41 -8.5 q-19 -8.5 -33 -22.5 q-14 -14 -22 -33.5 q-8 -19.5 -8 -41.5 q0 -22 8 -41.5 q8 -19.5 22 -33.5 q14 -14 33 -22.5 q19 -8.5 41 -8.5 q22 0 41 8.5 q19 8.5 33 22.5 q14 14 22 33.5 q8 19.5 8 41.5 ZM29 543 q0 41 15.5 76.5 q15.5 35.5 43 61.5 q27.5 26 64 41 q36.5 15 78.5 15 q42 0 78.5 -15 q36.5 -15 64 -41 q27.5 -26 43 -61.5 q15.5 -35.5 15.5 -76.5 q0 -41 -15.5 -76.5 q-15.5 -35.5 -43 -61.5 q-27.5 -26 -64 -41 q-36.5 -15 -78.5 -15 q-42 0 -78.5 15 q-36.5 15 -64 41 q-27.5 26 -43 61.5 q-15.5 35.5 -15.5 76.5 ZM230 437 q22 0 41 8.5 q19 8.5 33 22.5 q14 14 22 33.5 q8 19.5 8 41.5 q0 22 -8 41.5 q-8 19.5 -22 33.5 q-14 14 -33 22.5 q-19 8.5 -41 8.5 q-22 0 -41 -8.5 q-19 -8.5 -33 -22.5 q-14 -14 -22 -33.5 q-8 -19.5 -8 -41.5 q0 -22 8 -41.5 q8 -19.5 22 -33.5 q14 -14 33 -22.5 q19 -8.5 41 -8.5 Z" /><glyph glyph-name="ampersand" unicode="&amp;" d="M516 300 l-198 0 q-68 0 -102 -29 q-34 -29 -34 -80 q0 -54 45.5 -81.5 q45.5 -27.5 148.5 -27.5 q68 0 100 3 q32 3 40 5 l0 210 ZM647 404 q32 0 45.5 -13.5 q13.5 -13.5 13.5 -38.5 q0 -17 -5 -31.5 q-5 -14.5 -8 -20.5 l-62 0 l0 -302 q-18 -4 -80 -9.5 q-62 -5.5 -167 -5.5 q-89 0 -150 14.5 q-61 14.5 -99 41.5 q-38 27 -55 64 q-17 37 -17 82 q0 59 30 101.5 q30 42.5 90 65.5 q-52 23 -78 64 q-26 41 -26 92 q0 91 67 143.5 q67 52.5 184 52.5 q76 0 117 -12.5 q41 -12.5 55 -20.5 q32 -19 32 -48 q0 -20 -11.5 -35.5 q-11.5 -15.5 -21.5 -22.5 q-15 14 -58 29 q-43 15 -104 15 q-145 0 -145 -106 q0 -54 39.5 -76.5 q39.5 -22.5 114.5 -22.5 l299 0 Z" /><glyph glyph-name="quotesingle" unicode="&#39;" d="M93 684 q0 26 16 39.5 q16 13.5 44 13.5 q18 0 33.5 -5 q15.5 -5 20.5 -8 l0 -266 l-114 0 l0 226 Z" /><glyph glyph-name="parenleft" unicode="(" d="M324 -132 q-62 12 -113 46.5 q-51 34.5 -87 90 q-36 55.5 -56 130.5 q-20 75 -20 168 q0 92 19.5 167 q19.5 75 55.5 130.5 q36 55.5 87 90 q51 34.5 114 46.5 l0 -106 q-78 -30 -119 -111 q-41 -81 -41 -217 q0 -136 41 -217.5 q41 -81.5 119 -111.5 l0 -106 Z" /><glyph glyph-name="parenright" unicode=")" d="M18 -26 q78 29 119 110.5 q41 81.5 41 218.5 q0 136 -41 217 q-41 81 -119 111 l0 106 q62 -12 113 -47 q51 -35 87 -90 q36 -55 55.5 -130 q19.5 -75 19.5 -167 q0 -93 -19.5 -167.5 q-19.5 -74.5 -55.5 -130 q-36 -55.5 -87 -90.5 q-51 -35 -113 -47 l0 106 Z" /><glyph glyph-name="asterisk" unicode="*" d="M192 480 l-159 47 q0 7 1 21.5 q1 14.5 5.5 29 q4.5 14.5 14.5 25.5 q10 11 28 11 q14 0 32 -8 l109 -46 l-7 131 q0 26 16 36 q16 10 40 10 q15 0 29.5 -4.5 q14.5 -4.5 19.5 -6.5 l-7 -165 l110 45 q18 8 32 8 q25 0 37.5 -21.5 q12.5 -21.5 12.5 -51.5 q0 -5 -0.5 -8.5 q-0.5 -3.5 -0.5 -5.5 l-160 -47 l111 -140 l-84 -57 l-103 151 l-103 -151 l-83 57 l109 140 Z" /><glyph glyph-name="plus" unicode="+" d="M261 286 l-153 0 q-29 0 -41 15.5 q-12 15.5 -12 41.5 q0 17 4.5 31 q4.5 14 6.5 19 l195 0 l0 158 q0 27 15.5 40 q15.5 13 43.5 13 q18 0 33 -4.5 q15 -4.5 20 -7.5 l0 -199 l152 0 q29 0 41 -15 q12 -15 12 -41 q0 -18 -4.5 -32 q-4.5 -14 -6.5 -19 l-194 0 l0 -204 l-112 0 l0 204 Z" /><glyph glyph-name="comma" unicode="," d="M89 88 q8 26 22 39 q14 13 40 13 q15 0 27 -4 q12 -4 21 -9 q9 -5 15 -10 q6 -5 8 -8 l-115 -268 l-83 32 l65 215 Z" /><glyph glyph-name="hyphen" unicode="-" d="M244 328 q29 0 41 -16.5 q12 -16.5 12 -41.5 q0 -16 -4 -30.5 q-4 -14.5 -7 -21.5 l-201 0 q-29 0 -40.5 16 q-11.5 16 -11.5 42 q0 17 4 31 q4 14 7 21 l200 0 Z" /><glyph glyph-name="period" unicode="." d="M73 63 q0 16 6 30 q6 14 16.5 24.5 q10.5 10.5 25 16.5 q14.5 6 30.5 6 q32 0 54.5 -22.5 q22.5 -22.5 22.5 -54.5 q0 -16 -6 -30.5 q-6 -14.5 -16.5 -25 q-10.5 -10.5 -24.5 -17 q-14 -6.5 -30 -6.5 q-32 0 -55 23.5 q-23 23.5 -23 55.5 Z" /><glyph glyph-name="slash" unicode="/" d="M230 690 q8 23 19.5 35 q11.5 12 37.5 12 q23 0 38.5 -9.5 q15.5 -9.5 20.5 -15.5 l-237 -721 l-109 0 l230 699 Z" /><glyph glyph-name="zero" unicode="0" d="M46 343 q0 84 19.5 151 q19.5 67 56.5 113.5 q37 46.5 90.5 71.5 q53.5 25 121.5 25 q67 0 120.5 -25 q53.5 -25 90.5 -71.5 q37 -46.5 56.5 -113.5 q19.5 -67 19.5 -151 q0 -84 -19.5 -151 q-19.5 -67 -56.5 -113.5 q-37 -46.5 -90.5 -71 q-53.5 -24.5 -120.5 -24.5 q-68 0 -121.5 24.5 q-53.5 24.5 -90.5 71 q-37 46.5 -56.5 113.5 q-19.5 67 -19.5 151 ZM334 88 q42 0 73 18.5 q31 18.5 51.5 52.5 q20.5 34 31 81 q10.5 47 10.5 103 q0 56 -10.5 103 q-10.5 47 -31 80.5 q-20.5 33.5 -51.5 52.5 q-31 19 -73 19 q-42 0 -73.5 -19 q-31.5 -19 -52 -52.5 q-20.5 -33.5 -31 -80.5 q-10.5 -47 -10.5 -103 q0 -56 10.5 -103 q10.5 -47 31 -81 q20.5 -34 52 -52.5 q31.5 -18.5 73.5 -18.5 Z" /><glyph glyph-name="one" unicode="1" d="M227 551 l-159 -115 q-6 3 -15 8 q-9 5 -17.5 13 q-8.5 8 -14 18 q-5.5 10 -5.5 22 q0 22 11 37 q11 15 36 32 l120 83 q24 17 44.5 27 q20.5 10 51.5 10 q24 0 42 -7.5 q18 -7.5 22 -10.5 l0 -668 l-116 0 l0 551 Z" /><glyph glyph-name="two" unicode="2" d="M16 101 q14 9 45 30.5 q31 21.5 67.5 48 q36.5 26.5 72.5 54 q36 27.5 60 49.5 q58 52 89 97.5 q31 45.5 31 101.5 q0 24 -8.5 45.5 q-8.5 21.5 -26 38.5 q-17.5 17 -45 27 q-27.5 10 -65.5 10 q-38 0 -65.5 -11 q-27.5 -11 -46 -26 q-18.5 -15 -29 -31 q-10.5 -16 -14.5 -25 q-9 2 -19.5 7 q-10.5 5 -20 13 q-9.5 8 -16 18.5 q-6.5 10.5 -6.5 23.5 q0 15 5.5 28.5 q5.5 13.5 13.5 24.5 q5 7 19.5 20.5 q14.5 13.5 40 26.5 q25.5 13 62 22.5 q36.5 9.5 86.5 9.5 q63 0 111 -16.5 q48 -16.5 80.5 -45 q32.5 -28.5 49 -67.5 q16.5 -39 16.5 -84 q0 -35 -8 -65 q-8 -30 -21 -55 q-13 -25 -29.5 -46.5 q-16.5 -21.5 -33.5 -40.5 q-17 -19 -47 -45.5 q-30 -26.5 -62 -52.5 q-32 -26 -61 -48 q-29 -22 -43 -32 l310 0 l0 -106 l-492 0 l0 101 Z" /><glyph glyph-name="three" unicode="3" d="M61 139 q12 -8 31 -17 q19 -9 44 -17 q25 -8 55.5 -13.5 q30.5 -5.5 65.5 -5.5 q74 0 113 28.5 q39 28.5 39 80.5 q0 52 -41.5 77 q-41.5 25 -114.5 25 l-63 0 q-3 5 -9 20.5 q-6 15.5 -6 34.5 q0 52 63 52 l20 0 q69 0 105 27.5 q36 27.5 36 73.5 q0 45 -35 72.5 q-35 27.5 -106 27.5 q-40 0 -69 -10 q-29 -10 -49 -24 q-20 -14 -31.5 -28.5 q-11.5 -14.5 -14.5 -22.5 q-25 4 -43.5 21 q-18.5 17 -18.5 40 q0 14 4.5 27 q4.5 13 17.5 27 q7 7 22.5 19 q15.5 12 41 23 q25.5 11 62 19 q36.5 8 84.5 8 q67 0 115 -16 q48 -16 79 -42 q31 -26 45.5 -59.5 q14.5 -33.5 14.5 -68.5 q0 -30 -9.5 -56 q-9.5 -26 -25.5 -46.5 q-16 -20.5 -36.5 -36 q-20.5 -15.5 -41.5 -25.5 q66 -22 95.5 -67 q29.5 -45 29.5 -98 q0 -45 -18.5 -83 q-18.5 -38 -52 -65.5 q-33.5 -27.5 -81.5 -42.5 q-48 -15 -107 -15 q-51 0 -94 8 q-43 8 -76 18.5 q-33 10.5 -56 22 q-23 11.5 -34 19.5 l50 88 Z" /><glyph glyph-name="four" unicode="4" d="M389 256 l0 316 q-35 -18 -76 -51.5 q-41 -33.5 -76 -73 q-35 -39.5 -58.5 -80.5 q-23.5 -41 -23.5 -73 q0 -25 18 -31.5 q18 -6.5 47 -6.5 l169 0 ZM389 151 l-192 0 q-78 0 -119.5 26 q-41.5 26 -41.5 85 q0 44 19 92 q19 48 50.5 95 q31.5 47 72.5 90 q41 43 85 75.5 q44 32.5 87 52 q43 19.5 80 19.5 q35 0 52.5 -7.5 q17.5 -7.5 21.5 -9.5 l0 -413 l33 0 q59 0 59 -51 q0 -19 -6 -34 q-6 -15 -9 -20 l-77 0 l0 -151 l-115 0 l0 151 Z" /><glyph glyph-name="five" unicode="5" d="M59 129 q26 -14 73.5 -29 q47.5 -15 108.5 -15 q86 0 125 34 q39 34 39 85 q0 26 -9.5 48.5 q-9.5 22.5 -30.5 39 q-21 16.5 -56 26 q-35 9.5 -86 9.5 q-22 0 -45 -2 q-23 -2 -45 -5 q-22 -3 -41.5 -7 q-19.5 -4 -33.5 -8 l10 313 q2 68 73 68 l295 0 q59 0 59 -51 q0 -19 -6 -34 q-6 -15 -9 -20 l-307 0 l-5 -163 q16 2 43.5 4.5 q27.5 2.5 59.5 2.5 q71 0 119.5 -18.5 q48.5 -18.5 78.5 -48.5 q30 -30 43 -69 q13 -39 13 -80 q0 -50 -18 -91.5 q-18 -41.5 -53 -71.5 q-35 -30 -86 -46.5 q-51 -16.5 -118 -16.5 q-49 0 -89.5 7 q-40.5 7 -70.5 16.5 q-30 9.5 -49.5 19 q-19.5 9.5 -26.5 14.5 l45 89 Z" /><glyph glyph-name="six" unicode="6" d="M294 670 q12 16 27 25 q15 9 39 9 q30 0 48.5 -12 q18.5 -12 22.5 -17 l-176 -233 q11 6 32.5 13 q21.5 7 56.5 7 q54 0 97 -18.5 q43 -18.5 73 -49.5 q30 -31 46 -72 q16 -41 16 -87 q0 -56 -20.5 -102 q-20.5 -46 -56.5 -79.5 q-36 -33.5 -85 -52 q-49 -18.5 -106 -18.5 q-58 0 -106.5 18 q-48.5 18 -84 50.5 q-35.5 32.5 -55.5 77 q-20 44.5 -20 98.5 q0 68 30 130.5 q30 62.5 81 128.5 l141 184 ZM307 82 q69 0 110.5 41 q41.5 41 41.5 106 q0 34 -11.5 61.5 q-11.5 27.5 -31.5 46.5 q-20 19 -48 29.5 q-28 10.5 -61 10.5 q-33 0 -61 -11 q-28 -11 -48 -30.5 q-20 -19.5 -31.5 -47 q-11.5 -27.5 -11.5 -59.5 q0 -32 11 -59 q11 -27 31.5 -46.5 q20.5 -19.5 48.5 -30.5 q28 -11 61 -11 Z" /><glyph glyph-name="seven" unicode="7" d="M130 0 q7 17 27 60.5 q20 43.5 45.5 100.5 q25.5 57 54 121 q28.5 64 54.5 122.5 q26 58.5 46 104.5 q20 46 29 68 l-322 0 q-60 0 -60 53 q0 19 5.5 35 q5.5 16 9.5 21 l423 0 q35 0 53 -16 q18 -16 18 -43 q0 -20 -6 -39.5 q-6 -19.5 -15 -42.5 q-10 -25 -28.5 -67.5 q-18.5 -42.5 -41.5 -94 q-23 -51.5 -48 -108 q-25 -56.5 -48.5 -109 q-23.5 -52.5 -43.5 -96.5 q-20 -44 -31 -70 l-121 0 Z" /><glyph glyph-name="eight" unicode="8" d="M176 349 q-56 29 -79 71.5 q-23 42.5 -23 86.5 q0 44 18.5 80 q18.5 36 52.5 62 q34 26 83 40.5 q49 14.5 110 14.5 q61 0 109.5 -14.5 q48.5 -14.5 82.5 -40.5 q34 -26 52.5 -62 q18.5 -36 18.5 -80 q0 -44 -23 -86.5 q-23 -42.5 -79 -71.5 q33 -14 55.5 -32.5 q22.5 -18.5 36.5 -40 q14 -21.5 20 -45 q6 -23.5 6 -45.5 q0 -46 -19 -83.5 q-19 -37.5 -54.5 -64 q-35.5 -26.5 -87.5 -41 q-52 -14.5 -118 -14.5 q-66 0 -118 14.5 q-52 14.5 -88 41 q-36 26.5 -55 64 q-19 37.5 -19 83.5 q0 22 6 45.5 q6 23.5 20 45 q14 21.5 36.5 40 q22.5 18.5 55.5 32.5 ZM338 395 q74 0 110.5 30.5 q36.5 30.5 36.5 76.5 q0 47 -36.5 78 q-36.5 31 -110.5 31 q-75 0 -111.5 -31 q-36.5 -31 -36.5 -78 q0 -46 36.5 -76.5 q36.5 -30.5 111.5 -30.5 ZM338 81 q78 0 119 29.5 q41 29.5 41 80.5 q0 50 -41 80 q-41 30 -119 30 q-78 0 -119.5 -30 q-41.5 -30 -41.5 -80 q0 -51 41.5 -80.5 q41.5 -29.5 119.5 -29.5 Z" /><glyph glyph-name="nine" unicode="9" d="M357 241 q-10 -6 -31 -12.5 q-21 -6.5 -45 -6.5 q-59 0 -105 18.5 q-46 18.5 -77 50 q-31 31.5 -47 73 q-16 41.5 -16 87.5 q0 55 20 101.5 q20 46.5 56 80.5 q36 34 85.5 52.5 q49.5 18.5 108.5 18.5 q58 0 107 -18 q49 -18 84.5 -50.5 q35.5 -32.5 55 -77.5 q19.5 -45 19.5 -99 q0 -71 -30.5 -131.5 q-30.5 -60.5 -73.5 -117.5 l-165 -218 l-134 0 l188 249 ZM152 456 q0 -35 11.5 -62.5 q11.5 -27.5 32 -46.5 q20.5 -19 48.5 -29.5 q28 -10.5 62 -10.5 q34 0 62.5 11 q28.5 11 49 31 q20.5 20 32 47 q11.5 27 11.5 60 q0 32 -11.5 59.5 q-11.5 27.5 -32 47.5 q-20.5 20 -49 31 q-28.5 11 -62.5 11 q-35 0 -63.5 -11 q-28.5 -11 -48.5 -31 q-20 -20 -31 -47 q-11 -27 -11 -60 Z" /><glyph glyph-name="colon" unicode=":" d="M73 425 q0 16 6 30 q6 14 16.5 24.5 q10.5 10.5 25 16.5 q14.5 6 30.5 6 q32 0 54.5 -22.5 q22.5 -22.5 22.5 -54.5 q0 -16 -6 -30.5 q-6 -14.5 -16.5 -25 q-10.5 -10.5 -24.5 -17 q-14 -6.5 -30 -6.5 q-32 0 -55 23.5 q-23 23.5 -23 55.5 ZM73 63 q0 16 6 30 q6 14 16.5 24.5 q10.5 10.5 25 16.5 q14.5 6 30.5 6 q32 0 54.5 -22.5 q22.5 -22.5 22.5 -54.5 q0 -16 -6 -30.5 q-6 -14.5 -16.5 -25 q-10.5 -10.5 -24.5 -17 q-14 -6.5 -30 -6.5 q-32 0 -55 23.5 q-23 23.5 -23 55.5 Z" /><glyph glyph-name="semicolon" unicode=";" d="M89 88 q8 26 22 39 q14 13 41 13 q29 0 47 -12.5 q18 -12.5 23 -18.5 l-115 -268 l-83 32 l65 215 ZM73 425 q0 16 6 30 q6 14 16.5 24.5 q10.5 10.5 25 16.5 q14.5 6 30.5 6 q32 0 54.5 -22.5 q22.5 -22.5 22.5 -54.5 q0 -16 -6 -30.5 q-6 -14.5 -16.5 -25 q-10.5 -10.5 -24.5 -17 q-14 -6.5 -30 -6.5 q-32 0 -55 23.5 q-23 23.5 -23 55.5 Z" /><glyph glyph-name="less" unicode="&lt;" d="M561 593 l0 -118 l-348 -132 l348 -132 l0 -117 l-440 180 q-28 11 -38.5 29 q-10.5 18 -10.5 40 q0 20 8 35.5 q8 15.5 17 23.5 l464 191 Z" /><glyph glyph-name="equal" unicode="=" d="M525 519 q29 0 41 -15 q12 -15 12 -41 q0 -18 -4.5 -32 q-4.5 -14 -6.5 -19 l-459 0 q-29 0 -41 15 q-12 15 -12 41 q0 18 4.5 32 q4.5 14 6.5 19 l459 0 ZM525 270 q29 0 41 -15 q12 -15 12 -41 q0 -18 -4.5 -32 q-4.5 -14 -6.5 -19 l-459 0 q-29 0 -41 15.5 q-12 15.5 -12 41.5 q0 18 4.5 31.5 q4.5 13.5 6.5 18.5 l459 0 Z" /><glyph glyph-name="greater" unicode="&gt;" d="M73 212 l349 131 l-349 132 l0 118 l440 -181 q27 -11 38 -29 q11 -18 11 -40 q0 -21 -7.5 -35.5 q-7.5 -14.5 -17.5 -23.5 l-464 -190 l0 118 Z" /><glyph glyph-name="question" unicode="?" d="M178 207 q0 31 3.5 54 q3.5 23 13.5 41.5 q10 18.5 26 33.5 q16 15 42 30 q58 33 86.5 62 q28.5 29 28.5 74 q0 43 -32 74 q-32 31 -104 31 q-33 0 -60 -8.5 q-27 -8.5 -47 -21.5 q-20 -13 -33 -28.5 q-13 -15.5 -20 -28.5 q-28 7 -42.5 24 q-14.5 17 -14.5 39 q0 20 13.5 41.5 q13.5 21.5 41.5 39 q28 17.5 70 29 q42 11.5 99 11.5 q66 0 113 -16.5 q47 -16.5 77 -43.5 q30 -27 43.5 -62 q13.5 -35 13.5 -72 q0 -39 -10.5 -69 q-10.5 -30 -27.5 -53 q-17 -23 -40 -41 q-23 -18 -47 -33 q-22 -14 -37 -25.5 q-15 -11.5 -24.5 -23.5 q-9.5 -12 -13.5 -25.5 q-4 -13.5 -4 -32.5 l-114 0 ZM158 59 q0 30 22.5 52.5 q22.5 22.5 54.5 22.5 q31 0 53.5 -22.5 q22.5 -22.5 22.5 -52.5 q0 -31 -22.5 -52.5 q-22.5 -21.5 -53.5 -21.5 q-32 0 -54.5 21.5 q-22.5 21.5 -22.5 52.5 Z" /><glyph glyph-name="at" unicode="@" d="M743 -166 q-9 -4 -28 -10 q-19 -6 -48.5 -12 q-29.5 -6 -68.5 -10.5 q-39 -4.5 -87 -4.5 q-104 0 -190.5 33.5 q-86.5 33.5 -148 93.5 q-61.5 60 -95.5 142.5 q-34 82.5 -34 180.5 q0 99 33.5 182.5 q33.5 83.5 94 144.5 q60.5 61 145.5 95.5 q85 34.5 187 34.5 q110 0 194 -34.5 q84 -34.5 140.5 -95 q56.5 -60.5 85.5 -142.5 q29 -82 29 -177 q0 -36 -4.5 -72 q-4.5 -36 -11 -67.5 q-6.5 -31.5 -14.5 -56 q-8 -24.5 -14 -37.5 q-44 -3 -130 -7 q-86 -4 -227 -4 q-60 0 -108.5 6 q-48.5 6 -83 22.5 q-34.5 16.5 -53 46 q-18.5 29.5 -18.5 75.5 q0 72 49.5 110.5 q49.5 38.5 158.5 38.5 q32 0 59 -3.5 q27 -3.5 41 -5.5 q0 55 -32.5 79.5 q-32.5 24.5 -97.5 24.5 q-45 0 -73 -9 q-28 -9 -46 -19 q-5 5 -13.5 18 q-8.5 13 -8.5 30 q0 31 35 48 q35 17 116 17 q107 0 163 -45.5 q56 -45.5 56 -134.5 l0 -216 q7 0 24.5 1 q17.5 1 38.5 2 q21 1 40 2 q19 1 29 2 q5 17 12 58.5 q7 41.5 7 95.5 q0 74 -24 138.5 q-24 64.5 -69 112 q-45 47.5 -109 75 q-64 27.5 -143 27.5 q-75 0 -139 -27 q-64 -27 -111 -75 q-47 -48 -73.5 -114.5 q-26.5 -66.5 -26.5 -144.5 q0 -78 26.5 -143 q26.5 -65 75.5 -111.5 q49 -46.5 117 -72.5 q68 -26 152 -26 q70 0 118.5 11 q48.5 11 66.5 18 l36 -89 ZM594 229 q-11 2 -34 5 q-23 3 -55 3 q-66 0 -91 -18 q-25 -18 -25 -56 q0 -38 30.5 -54.5 q30.5 -16.5 99.5 -16.5 q21 0 41 0.5 q20 0.5 34 1.5 l0 135 Z" /><glyph glyph-name="A" unicode="a" d="M5 0 q25 67 56 144.5 q31 77.5 65 159 q34 81.5 70.5 165.5 q36.5 84 72.5 164 q18 40 41 55.5 q23 15.5 58 15.5 q13 0 25.5 -3 q12.5 -3 22 -7 q9.5 -4 16 -7.5 q6.5 -3.5 7.5 -4.5 q16 -28 41.5 -83 q25.5 -55 55 -123.5 q29.5 -68.5 60.5 -143 q31 -74.5 57.5 -141 q26.5 -66.5 46.5 -118 q20 -51.5 28 -73.5 l-132 0 q-5 12 -13 34 q-8 22 -17.5 47.5 q-9.5 25.5 -19.5 51.5 q-10 26 -18 46 l-335 0 q-22 -55 -39.5 -101.5 q-17.5 -46.5 -28.5 -77.5 l-120 0 ZM488 284 q-14 37 -32 81.5 q-18 44.5 -35.5 87 q-17.5 42.5 -33 77.5 q-15.5 35 -24.5 53 q-13 -28 -29 -63.5 q-16 -35.5 -33 -75 q-17 -39.5 -34 -80.5 q-17 -41 -32 -80 l253 0 Z" /><glyph glyph-name="B" unicode="b" d="M73 621 q0 32 16 46.5 q16 14.5 37 18.5 q20 4 64.5 7 q44.5 3 128.5 3 q91 0 150 -16 q59 -16 92.5 -42.5 q33.5 -26.5 46.5 -61 q13 -34.5 13 -72.5 q0 -32 -8.5 -56.5 q-8.5 -24.5 -21 -42.5 q-12.5 -18 -28.5 -30.5 q-16 -12.5 -31 -19.5 q51 -17 82.5 -58.5 q31.5 -41.5 31.5 -104.5 q0 -42 -13 -79 q-13 -37 -48.5 -64.5 q-35.5 -27.5 -99 -43 q-63.5 -15.5 -163.5 -15.5 q-48 0 -91 1.5 q-43 1.5 -76 3 q-33 1.5 -54.5 3.5 q-21.5 2 -27.5 2 l0 621 ZM375 401 q35 0 59 7.5 q24 7.5 39 20 q15 12.5 21.5 30 q6.5 17.5 6.5 37.5 q0 21 -8.5 39.5 q-8.5 18.5 -28.5 31.5 q-20 13 -53 20.5 q-33 7.5 -81 7.5 q-58 0 -95 -3 q-37 -3 -46 -5 l0 -186 l186 0 ZM189 100 q9 -2 44.5 -5 q35.5 -3 101.5 -3 q53 0 89 6.5 q36 6.5 58.5 20 q22.5 13.5 32 33 q9.5 19.5 9.5 46.5 q0 21 -6.5 39 q-6.5 18 -22 31.5 q-15.5 13.5 -41 21.5 q-25.5 8 -63.5 8 l-202 0 l0 -198 Z" /><glyph glyph-name="C" unicode="c" d="M649 46 q-11 -8 -30.5 -19 q-19.5 -11 -49 -21 q-29.5 -10 -69.5 -17 q-40 -7 -91 -7 q-74 0 -140 23.5 q-66 23.5 -116.5 68.5 q-50.5 45 -80 112 q-29.5 67 -29.5 154 q0 86 28.5 154 q28.5 68 78 114.5 q49.5 46.5 115.5 71 q66 24.5 141 24.5 q72 0 118 -12 q46 -12 72.5 -29.5 q26.5 -17.5 37 -36 q10.5 -18.5 10.5 -30.5 q0 -13 -5.5 -25 q-5.5 -12 -13 -21.5 q-7.5 -9.5 -15.5 -16.5 q-8 -7 -14 -10 q-10 11 -27.5 24 q-17.5 13 -41.5 24 q-24 11 -54 18.5 q-30 7.5 -65 7.5 q-51 0 -95 -17.5 q-44 -17.5 -76 -51 q-32 -33.5 -50.5 -81 q-18.5 -47.5 -18.5 -107.5 q0 -61 19.5 -107.5 q19.5 -46.5 53.5 -78 q34 -31.5 80 -47.5 q46 -16 99 -16 q63 0 108.5 16 q45.5 16 66.5 30 l53 -91 l1 0 Z" /><glyph glyph-name="D" unicode="d" d="M192 104 q6 -2 32 -4.5 q26 -2.5 73 -2.5 q136 0 208 64.5 q72 64.5 72 182.5 q0 54 -16.5 99.5 q-16.5 45.5 -50.5 78 q-34 32.5 -87 51 q-53 18.5 -126 18.5 q-48 0 -74.5 -2.5 q-26.5 -2.5 -30.5 -3.5 l0 -481 ZM73 621 q0 26 10 41 q10 15 35.5 22.5 q25.5 7.5 68 9.5 q42.5 2 108.5 2 q95 0 170.5 -24.5 q75.5 -24.5 128 -70 q52.5 -45.5 80.5 -111 q28 -65.5 28 -146.5 q0 -82 -27 -147.5 q-27 -65.5 -79.5 -111.5 q-52.5 -46 -130 -70.5 q-77.5 -24.5 -178.5 -24.5 q-107 0 -158 4.5 q-51 4.5 -56 5.5 l0 621 Z" /><glyph glyph-name="E" unicode="e" d="M73 618 q0 68 73 68 l384 0 q60 0 60 -54 q0 -19 -6 -34.5 q-6 -15.5 -9 -20.5 l-381 0 l0 -172 l322 0 q59 0 59 -54 q0 -19 -5.5 -34.5 q-5.5 -15.5 -9.5 -20.5 l-366 0 l0 -187 l390 0 l0 -109 l-511 0 l0 618 Z" /><glyph glyph-name="F" unicode="f" d="M73 618 q0 68 73 68 l355 0 q60 0 60 -54 q0 -19 -6 -34.5 q-6 -15.5 -9 -20.5 l-352 0 l0 -182 l278 0 q60 0 60 -54 q0 -19 -6 -34.5 q-6 -15.5 -9 -20.5 l-323 0 l0 -286 l-121 0 l0 618 Z" /><glyph glyph-name="G" unicode="g" d="M543 276 l-117 0 q-59 0 -59 52 q0 20 5.5 35 q5.5 15 9.5 20 l207 0 q71 0 71 -68 l0 -316 q-8 -2 -29 -4.5 q-21 -2.5 -50.5 -5.5 q-29.5 -3 -65.5 -5 q-36 -2 -75 -2 q-87 0 -160 23 q-73 23 -125.5 68 q-52.5 45 -82 112.5 q-29.5 67.5 -29.5 156.5 q0 84 29 151 q29 67 80 114 q51 47 120.5 72 q69.5 25 150.5 25 q41 0 74 -5 q33 -5 58 -12.5 q25 -7.5 42.5 -15.5 q17.5 -8 27.5 -15 q18 -12 26.5 -25.5 q8.5 -13.5 8.5 -27.5 q0 -13 -5.5 -24.5 q-5.5 -11.5 -13 -21 q-7.5 -9.5 -15.5 -16.5 q-8 -7 -14 -11 q-11 11 -28.5 23 q-17.5 12 -42 21.5 q-24.5 9.5 -54.5 16 q-30 6.5 -66 6.5 q-56 0 -102 -17.5 q-46 -17.5 -80 -50.5 q-34 -33 -52.5 -80.5 q-18.5 -47.5 -18.5 -106.5 q0 -66 20 -114 q20 -48 57 -78.5 q37 -30.5 87.5 -45.5 q50.5 -15 112.5 -15 q37 0 64 2 q27 2 34 4 l0 181 Z" /><glyph glyph-name="H" unicode="h" d="M73 631 q0 28 17 41.5 q17 13.5 46 13.5 q19 0 35 -5 q16 -5 21 -7 l0 -263 l352 0 l0 220 q0 28 16.5 41.5 q16.5 13.5 45.5 13.5 q20 0 36 -5 q16 -5 21 -8 l0 -673 l-119 0 l0 302 l-352 0 l0 -302 l-119 0 l0 631 Z" /><glyph glyph-name="I" unicode="i" d="M73 631 q0 28 17 41.5 q17 13.5 46 13.5 q19 0 35 -5 q16 -5 21 -7 l0 -674 l-119 0 l0 631 Z" /><glyph glyph-name="J" unicode="j" d="M91 174 q6 -9 19 -24 q13 -15 33.5 -29.5 q20.5 -14.5 48.5 -25 q28 -10.5 64 -10.5 q32 0 59 8 q27 8 46.5 26 q19.5 18 30 48 q10.5 30 10.5 74 l0 390 q0 28 16.5 41.5 q16.5 13.5 45.5 13.5 q20 0 36 -5 q16 -5 21 -8 l0 -440 q0 -57 -16 -103.5 q-16 -46.5 -48.5 -79 q-32.5 -32.5 -81 -50.5 q-48.5 -18 -114.5 -18 q-59 0 -104 16.5 q-45 16.5 -76 37.5 q-31 21 -48.5 41 q-17.5 20 -21.5 28 l80 69 Z" /><glyph glyph-name="K" unicode="k" d="M73 631 q0 28 17 41.5 q17 13.5 46 13.5 q19 0 35 -5 q16 -5 21 -7 l0 -279 q25 24 63 59.5 q38 35.5 77.5 71.5 q39.5 36 74.5 67 q35 31 54 47 q25 20 45.5 33 q20.5 13 49.5 13 q32 0 52 -13.5 q20 -13.5 26 -21.5 q-5 -5 -26 -23.5 q-21 -18.5 -50 -44.5 q-29 -26 -64 -57 q-35 -31 -69 -61 q-34 -30 -63.5 -57 q-29.5 -27 -48.5 -44 q100 -88 187 -178 q87 -90 159 -186 l-147 0 q-26 31 -63 71.5 q-37 40.5 -79.5 83.5 q-42.5 43 -88.5 84.5 q-46 41.5 -89 75.5 l0 -315 l-119 0 l0 631 Z" /><glyph glyph-name="L" unicode="l" d="M73 631 q0 28 17 41.5 q17 13.5 46 13.5 q19 0 35 -5 q16 -5 21 -7 l0 -565 l353 0 l0 -109 l-472 0 l0 631 Z" /><glyph glyph-name="M" unicode="m" d="M68 0 q1 26 3.5 75 q2.5 49 6 109.5 q3.5 60.5 7 126 q3.5 65.5 7 126 q3.5 60.5 6.5 109 q3 48.5 5 74.5 q2 36 24 51 q22 15 50 15 q31 0 51 -9 q20 -9 28 -17 q12 -24 36.5 -73.5 q24.5 -49.5 53 -107 q28.5 -57.5 57 -113.5 q28.5 -56 47.5 -93 q17 34 42.5 84.5 q25.5 50.5 51 102 q25.5 51.5 48 97 q22.5 45.5 34.5 70.5 q14 29 35 44 q21 15 54 15 q29 0 49 -7.5 q20 -7.5 25 -12.5 q2 -28 5 -81 q3 -53 6.5 -117.5 q3.5 -64.5 7.5 -135 q4 -70.5 8 -135 q4 -64.5 6.5 -117 q2.5 -52.5 4.5 -80.5 l-117 0 q-1 16 -3 55.5 q-2 39.5 -5 91.5 q-3 52 -6 109.5 q-3 57.5 -6 109 q-3 51.5 -5.5 91 q-2.5 39.5 -3.5 54.5 q-9 -18 -24 -48 q-15 -30 -32.5 -65.5 q-17.5 -35.5 -36.5 -74.5 q-19 -39 -36.5 -74.5 q-17.5 -35.5 -32 -66 q-14.5 -30.5 -23.5 -48.5 l-98 0 q-12 27 -35 74.5 q-23 47.5 -49.5 101.5 q-26.5 54 -53 107 q-26.5 53 -47.5 92 q-1 -24 -3.5 -64 q-2.5 -40 -5 -89 q-2.5 -49 -5.5 -101.5 q-3 -52.5 -5.5 -101.5 q-2.5 -49 -4.5 -89 q-2 -40 -3 -64 l-118 0 Z" /><glyph glyph-name="N" unicode="n" d="M73 622 q0 35 21.5 49.5 q21.5 14.5 50.5 14.5 q28 0 46 -9 q18 -9 25 -14 q10 -12 32.5 -42.5 q22.5 -30.5 52 -72 q29.5 -41.5 63 -90 q33.5 -48.5 66.5 -96.5 q33 -48 62.5 -93 q29.5 -45 51.5 -79 l0 441 q0 28 16 41.5 q16 13.5 45 13.5 q20 0 35.5 -5 q15.5 -5 20.5 -8 l0 -673 l-120 0 q-18 28 -43 66.5 q-25 38.5 -55.5 84 q-30.5 45.5 -63.5 94.5 q-33 49 -66 97.5 q-33 48.5 -64.5 93 q-31.5 44.5 -57.5 80.5 l0 -516 l-118 0 l0 622 Z" /><glyph glyph-name="O" unicode="o" d="M409 704 q78 0 144.5 -27.5 q66.5 -27.5 116 -76 q49.5 -48.5 77.5 -114.5 q28 -66 28 -143 q0 -77 -28 -143 q-28 -66 -77.5 -114.5 q-49.5 -48.5 -116 -76 q-66.5 -27.5 -144.5 -27.5 q-78 0 -144.5 27.5 q-66.5 27.5 -116 76 q-49.5 48.5 -77.5 114.5 q-28 66 -28 143 q0 77 28 143 q28 66 77.5 114.5 q49.5 48.5 116 76 q66.5 27.5 144.5 27.5 ZM409 91 q52 0 96 19 q44 19 76 52.5 q32 33.5 50.5 79.5 q18.5 46 18.5 101 q0 55 -18.5 101.5 q-18.5 46.5 -50.5 80 q-32 33.5 -76 52 q-44 18.5 -96 18.5 q-52 0 -96 -18.5 q-44 -18.5 -76.5 -52 q-32.5 -33.5 -50.5 -80 q-18 -46.5 -18 -101.5 q0 -55 18 -101 q18 -46 50.5 -79.5 q32.5 -33.5 76.5 -52.5 q44 -19 96 -19 Z" /><glyph glyph-name="P" unicode="p" d="M189 345 q7 -1 39 -5.5 q32 -4.5 82 -4.5 q55 0 92 10 q37 10 58.5 28 q21.5 18 30.5 41.5 q9 23.5 9 50.5 q0 25 -8 48.5 q-8 23.5 -30 41.5 q-22 18 -60.5 29 q-38.5 11 -98.5 11 q-48 0 -77 -2 q-29 -2 -37 -4 l0 -244 ZM73 621 q0 32 16 46 q16 14 39 19 q16 3 58 6.5 q42 3.5 120 3.5 q160 0 238 -63 q78 -63 78 -168 q0 -49 -16.5 -91.5 q-16.5 -42.5 -52.5 -73.5 q-36 -31 -94 -48.5 q-58 -17.5 -141 -17.5 q-21 0 -42.5 1.5 q-21.5 1.5 -39.5 3 q-18 1.5 -31 3.5 q-13 2 -16 2 l0 -244 l-116 0 l0 621 Z" /><glyph glyph-name="Q" unicode="q" d="M567 18 q-33 -17 -74 -25.5 q-41 -8.5 -84 -8.5 q-78 0 -144.5 27.5 q-66.5 27.5 -116 75.5 q-49.5 48 -77.5 113.5 q-28 65.5 -28 142.5 q0 77 28 143 q28 66 77.5 114.5 q49.5 48.5 116 76 q66.5 27.5 144.5 27.5 q78 0 144.5 -27.5 q66.5 -27.5 116 -76 q49.5 -48.5 77.5 -114.5 q28 -66 28 -143 q0 -81 -31.5 -149.5 q-31.5 -68.5 -85.5 -115.5 l92 -115 l-88 -67 l-95 122 ZM442 176 q-11 14 -19 27.5 q-8 13.5 -8 26.5 q0 15 7.5 25.5 q7.5 10.5 19 17 q11.5 6.5 25.5 10 q14 3.5 28 4.5 l91 -119 q29 29 46.5 74.5 q17.5 45.5 17.5 100.5 q0 55 -18.5 101.5 q-18.5 46.5 -50.5 80 q-32 33.5 -76 52 q-44 18.5 -96 18.5 q-52 0 -96 -18.5 q-44 -18.5 -76.5 -52 q-32.5 -33.5 -50.5 -80 q-18 -46.5 -18 -101.5 q0 -55 18 -101.5 q18 -46.5 50.5 -80 q32.5 -33.5 76.5 -52.5 q44 -19 96 -19 q49 0 88 18 l-55 68 Z" /><glyph glyph-name="R" unicode="r" d="M73 621 q0 32 16 46 q16 14 39 19 q15 3 56 6.5 q41 3.5 119 3.5 q157 0 235 -60 q78 -60 78 -163 q0 -72 -34.5 -119 q-34.5 -47 -94.5 -73 q21 -29 42.5 -64 q21.5 -35 42.5 -72.5 q21 -37.5 40.5 -74.5 q19.5 -37 36.5 -70 l-138 0 q-8 17 -26 51.5 q-18 34.5 -39 73 q-21 38.5 -42 74 q-21 35.5 -35 54.5 q-17 -2 -35.5 -3 q-18.5 -1 -34.5 -1 q-35 0 -66 2.5 q-31 2.5 -44 4.5 l0 -256 l-116 0 l0 621 ZM189 358 q13 -2 39 -5 q26 -3 75 -3 q54 0 90.5 9 q36.5 9 59 25 q22.5 16 32 38.5 q9.5 22.5 9.5 49.5 q0 25 -9 47 q-9 22 -31 39 q-22 17 -59.5 27 q-37.5 10 -94.5 10 q-50 0 -76.5 -2 q-26.5 -2 -34.5 -4 l0 -231 Z" /><glyph glyph-name="S" unicode="s" d="M95 157 q11 -8 33 -19.5 q22 -11.5 54.5 -23 q32.5 -11.5 74 -19.5 q41.5 -8 90.5 -8 q87 0 124.5 25.5 q37.5 25.5 37.5 72.5 q0 23 -8.5 39 q-8.5 16 -25 27.5 q-16.5 11.5 -40 18.5 q-23.5 7 -53.5 12 l-110 20 q-42 7 -81 21 q-39 14 -69 37 q-30 23 -48 56.5 q-18 33.5 -18 80.5 q0 42 15.5 80 q15.5 38 49.5 66 q34 28 86 44.5 q52 16.5 126 16.5 q54 0 94 -6 q40 -6 68 -14.5 q28 -8.5 45 -17.5 q17 -9 25 -14 q16 -11 26 -24 q10 -13 10 -30 q0 -23 -14 -42.5 q-14 -19.5 -26 -27.5 q-9 10 -28.5 22.5 q-19.5 12.5 -48 23.5 q-28.5 11 -66.5 19 q-38 8 -83 8 q-45 0 -75.5 -7 q-30.5 -7 -48.5 -19.5 q-18 -12.5 -26 -30 q-8 -17.5 -8 -39.5 q0 -38 29.5 -59.5 q29.5 -21.5 98.5 -34.5 l112 -21 q109 -20 164 -65.5 q55 -45.5 55 -131.5 q0 -48 -19 -86.5 q-19 -38.5 -55.5 -66.5 q-36.5 -28 -91 -43 q-54.5 -15 -125.5 -15 q-60 0 -110 9.5 q-50 9.5 -89 23 q-39 13.5 -65 27.5 q-26 14 -38 22 l52 93 Z" /><glyph glyph-name="T" unicode="t" d="M264 577 l-200 0 q-59 0 -59 54 q0 19 6 34.5 q6 15.5 9 20.5 l571 0 q59 0 59 -54 q0 -19 -5.5 -34.5 q-5.5 -15.5 -9.5 -20.5 l-252 0 l0 -577 l-119 0 l0 577 Z" /><glyph glyph-name="U" unicode="u" d="M66 631 q0 28 16.5 41.5 q16.5 13.5 45.5 13.5 q20 0 36 -5 q16 -5 21 -8 l0 -355 q0 -57 10 -99.5 q10 -42.5 32.5 -71 q22.5 -28.5 59.5 -43 q37 -14.5 91 -14.5 q54 0 91 14.5 q37 14.5 59.5 43 q22.5 28.5 32.5 71 q10 42.5 10 99.5 l0 313 q0 28 16.5 41.5 q16.5 13.5 45.5 13.5 q20 0 36 -5 q16 -5 21 -8 l0 -365 q0 -158 -78 -242 q-78 -84 -234 -84 q-156 0 -234 84 q-78 84 -78 242 l0 323 Z" /><glyph glyph-name="V" unicode="v" d="M272 0 q-25 50 -51 105.5 q-26 55.5 -51 111 q-25 55.5 -47.5 108 q-22.5 52.5 -41 96.5 q-18.5 44 -31.5 75.5 q-13 31.5 -19 46.5 q-11 26 -18.5 48.5 q-7.5 22.5 -7.5 42.5 q0 24 14.5 38 q14.5 14 43.5 14 q23 0 38 -6 q15 -6 19 -8 q18 -53 44.5 -121.5 q26.5 -68.5 56 -142.5 q29.5 -74 60.5 -147.5 q31 -73.5 59 -136.5 q22 48 48.5 112 q26.5 64 53.5 132 q27 68 53 134.5 q26 66.5 47 119.5 q14 35 30 49.5 q16 14.5 49 14.5 q26 0 43.5 -9.5 q17.5 -9.5 22.5 -12.5 q-8 -21 -25.5 -65 q-17.5 -44 -41.5 -101.5 q-24 -57.5 -52 -124 q-28 -66.5 -57 -133.5 q-29 -67 -56.5 -129 q-27.5 -62 -50.5 -111 l-132 0 Z" /><glyph glyph-name="W" unicode="w" d="M225 0 q-14 34 -32 81 q-18 47 -37.5 98.5 q-19.5 51.5 -38.5 104.5 q-19 53 -35 99 q-16 46 -28.5 81.5 q-12.5 35.5 -17.5 52.5 q-11 36 -20 64 q-9 28 -9 48 q0 26 15.5 41.5 q15.5 15.5 45.5 15.5 q23 0 37.5 -6 q14.5 -6 18.5 -8 q7 -28 18.5 -67 q11.5 -39 26 -85 q14.5 -46 30.5 -96 q16 -50 32.5 -99.5 q16.5 -49.5 32 -96 q15.5 -46.5 29.5 -84.5 q18 60 38.5 132 q20.5 72 39.5 140 q19 68 34 124 q15 56 22 84 q8 28 23.5 45 q15.5 17 49.5 17 q23 0 41 -6 q18 -6 23 -9 q12 -52 28 -116.5 q16 -64.5 34 -134 q18 -69.5 37.5 -140.5 q19.5 -71 38.5 -135 q22 64 44 130.5 q22 66.5 41.5 129.5 q19.5 63 36 118.5 q16.5 55.5 28.5 97.5 q10 34 27 49.5 q17 15.5 49 15.5 q28 0 46 -8.5 q18 -8.5 22 -11.5 q-18 -66 -45 -147.5 q-27 -81.5 -57.5 -170 q-30.5 -88.5 -64 -178 q-33.5 -89.5 -65.5 -170.5 l-134 0 q-6 17 -16 48.5 q-10 31.5 -21.5 71.5 q-11.5 40 -25 86.5 q-13.5 46.5 -26 94 q-12.5 47.5 -24 92.5 q-11.5 45 -20.5 83 q-9 -37 -21 -82 q-12 -45 -25 -91.5 q-13 -46.5 -26.5 -92.5 q-13.5 -46 -26 -86.5 q-12.5 -40.5 -23 -72.5 q-10.5 -32 -17.5 -51 l-133 0 Z" /><glyph glyph-name="X" unicode="x" d="M12 0 q15 22 42 58 q27 36 61 81 q34 45 73 96 q39 51 78 102 q-57 68 -99.5 118 q-42.5 50 -71 86 q-28.5 36 -42.5 58.5 q-14 22.5 -14 36.5 q0 21 14.5 35.5 q14.5 14.5 40.5 14.5 q18 0 30 -4 q12 -4 18 -7 q13 -16 33 -41.5 q20 -25.5 45.5 -57.5 q25.5 -32 55.5 -69.5 q30 -37.5 62 -76.5 q43 56 73.5 97 q30.5 41 51.5 69.5 q21 28.5 36 46 q15 17.5 27 27 q12 9.5 24.5 13 q12.5 3.5 28.5 3.5 q15 0 27 -4 q12 -4 21.5 -9 q9.5 -5 15.5 -10 q6 -5 9 -8 q-12 -15 -36.5 -46 q-24.5 -31 -57 -72 q-32.5 -41 -71.5 -90 q-39 -49 -79 -101 q44 -54 86.5 -107 q42.5 -53 79.5 -99 q37 -46 65 -82.5 q28 -36.5 43 -57.5 l-145 0 q-14 18 -35 45.5 q-21 27.5 -47 61 q-26 33.5 -56.5 71 q-30.5 37.5 -62.5 76.5 q-30 -38 -58 -75.5 q-28 -37.5 -52.5 -70.5 q-24.5 -33 -45 -61 q-20.5 -28 -33.5 -47 l-135 0 Z" /><glyph glyph-name="Y" unicode="y" d="M268 258 q-24 28 -53.5 67 q-29.5 39 -59.5 78.5 q-30 39.5 -56 75 q-26 35.5 -42 58.5 q-18 25 -35 51.5 q-17 26.5 -17 47.5 q0 23 15 36.5 q15 13.5 40 13.5 q20 0 32.5 -5 q12.5 -5 17.5 -7 q15 -23 42 -62 q27 -39 58.5 -83.5 q31.5 -44.5 63.5 -88.5 q32 -44 57 -76 q24 32 49.5 68.5 q25.5 36.5 50 73 q24.5 36.5 47 71.5 q22.5 35 40.5 63 q11 17 28 31.5 q17 14.5 48 14.5 q27 0 45 -10.5 q18 -10.5 22 -14.5 q-9 -18 -27 -47.5 q-18 -29.5 -41.5 -65 q-23.5 -35.5 -50.5 -75 q-27 -39.5 -54.5 -78 q-27.5 -38.5 -53.5 -74 q-26 -35.5 -47 -63.5 l0 -258 l-119 0 l0 258 Z" /><glyph glyph-name="Z" unicode="z" d="M13 111 q59 58 121.5 120.5 q62.5 62.5 122 124 q59.5 61.5 113 118.5 q53.5 57 95.5 103 l-373 0 q-60 0 -60 54 q0 19 6 34.5 q6 15.5 10 20.5 l487 0 q81 0 81 -65 q0 -29 -19.5 -57 q-19.5 -28 -51.5 -64 q-39 -43 -87 -94.5 q-48 -51.5 -98.5 -104 q-50.5 -52.5 -100 -102.5 q-49.5 -50 -89.5 -90 l443 0 l0 -109 l-600 0 l0 111 Z" /><glyph glyph-name="bracketleft" unicode="[" d="M73 672 q0 64 67 64 l187 0 q5 -11 8.5 -26.5 q3.5 -15.5 3.5 -30.5 q0 -20 -9.5 -34 q-9.5 -14 -44.5 -14 l-103 0 l0 -655 l150 0 l0 -105 l-259 0 l0 801 Z" /><glyph glyph-name="backslash" unicode="\" d="M0 712 q5 7 20 16 q15 9 39 9 q25 0 37 -12.5 q12 -12.5 20 -34.5 l228 -699 l-109 0 l-235 721 Z" /><glyph glyph-name="bracketright" unicode="]" d="M18 -129 l0 105 l150 0 l0 655 l-103 0 q-35 0 -44.5 14 q-9.5 14 -9.5 34 q0 15 3.5 30.5 q3.5 15.5 8.5 26.5 l187 0 q67 0 67 -64 l0 -801 l-259 0 Z" /><glyph glyph-name="asciicircum" unicode="^" d="M169 627 q18 36 37.5 48 q19.5 12 42.5 12 q23 0 36.5 -7.5 q13.5 -7.5 20.5 -12.5 l166 -330 l-111 0 l-115 236 l-117 -236 l-106 0 l146 290 Z" /><glyph glyph-name="underscore" unicode="_" d="M0 -70 l500 0 l0 -59 l-500 0 l0 59 Z" /><glyph glyph-name="grave" unicode="`" d="M139 659 q0 4 3.5 14 q3.5 10 10 20.5 q6.5 10.5 17.5 18 q11 7.5 28 7.5 q23 0 54 -22 l109 -79 l-37 -52 l-185 93 Z" /><glyph glyph-name="a" unicode="a" d="M510 2 q-10 -2 -31.5 -4.5 q-21.5 -2.5 -50.5 -5 q-29 -2.5 -65 -4.5 q-36 -2 -75 -2 q-78 0 -127.5 13.5 q-49.5 13.5 -78 36 q-28.5 22.5 -39 52 q-10.5 29.5 -10.5 60.5 q0 41 12.5 72 q12.5 31 41 52 q28.5 21 74.5 31.5 q46 10.5 112 10.5 q38 0 72 -2.5 q34 -2.5 51 -4.5 q0 35 -11.5 58 q-11.5 23 -31.5 36 q-20 13 -48 18 q-28 5 -62 5 q-57 0 -91.5 -13 q-34.5 -13 -45.5 -22 q-6 5 -16.5 19 q-10.5 14 -10.5 34 q0 14 7.5 27.5 q7.5 13.5 26.5 24 q19 10.5 51 16.5 q32 6 81 6 q59 0 107.5 -11.5 q48.5 -11.5 83.5 -36.5 q35 -25 54.5 -66 q19.5 -41 19.5 -99 l0 -301 ZM397 224 q-10 2 -37.5 6 q-27.5 4 -82.5 4 q-68 0 -99 -20.5 q-31 -20.5 -31 -64.5 q0 -18 6.5 -33 q6.5 -15 22.5 -25.5 q16 -10.5 43.5 -16 q27.5 -5.5 68.5 -5.5 q46 0 73 3.5 q27 3.5 36 5.5 l0 146 Z" /><glyph glyph-name="b" unicode="b" d="M46 684 q0 27 16 40 q16 13 45 13 q18 0 33 -4.5 q15 -4.5 20 -6.5 l0 -287 q25 32 69 54.5 q44 22.5 101 22.5 q55 0 101.5 -19.5 q46.5 -19.5 81 -55 q34.5 -35.5 54 -84 q19.5 -48.5 19.5 -106.5 q0 -57 -20 -106 q-20 -49 -56 -84 q-36 -35 -85.5 -55 q-49.5 -20 -108.5 -20 q-59 0 -108.5 18 q-49.5 18 -85.5 54 q-36 36 -56 90 q-20 54 -20 127 l0 409 ZM314 89 q34 0 62.5 12.5 q28.5 12.5 49 34 q20.5 21.5 31.5 51 q11 29.5 11 64.5 q0 35 -11 65 q-11 30 -31.5 51.5 q-20.5 21.5 -49 34 q-28.5 12.5 -62.5 12.5 q-35 0 -63.5 -12.5 q-28.5 -12.5 -48.5 -34.5 q-20 -22 -31.5 -52 q-11.5 -30 -11.5 -64 q0 -36 11.5 -66 q11.5 -30 32 -51 q20.5 -21 49 -33 q28.5 -12 62.5 -12 Z" /><glyph glyph-name="c" unicode="c" d="M494 36 q-12 -8 -29.5 -16.5 q-17.5 -8.5 -40 -16 q-22.5 -7.5 -51 -12.5 q-28.5 -5 -64.5 -5 q-56 0 -105 17 q-49 17 -86 50.5 q-37 33.5 -58.5 82.5 q-21.5 49 -21.5 113 q0 64 21 114 q21 50 58 84 q37 34 87.5 51.5 q50.5 17.5 108.5 17.5 q49 0 83.5 -8 q34.5 -8 56 -20 q21.5 -12 31 -27 q9.5 -15 9.5 -30 q0 -20 -13.5 -37 q-13.5 -17 -25.5 -26 q-18 17 -52 32.5 q-34 15.5 -84 15.5 q-34 0 -63.5 -10 q-29.5 -10 -51 -30.5 q-21.5 -20.5 -34 -51 q-12.5 -30.5 -12.5 -72.5 q0 -44 13 -75 q13 -31 36 -51 q23 -20 53 -29.5 q30 -9.5 65 -9.5 q50 0 80.5 13.5 q30.5 13.5 41.5 20.5 l48 -85 Z" /><glyph glyph-name="d" unicode="d" d="M465 684 q0 27 15.5 40 q15.5 13 44.5 13 q18 0 33 -4.5 q15 -4.5 20 -6.5 l0 -451 q0 -73 -20.5 -127 q-20.5 -54 -56.5 -90 q-36 -36 -85 -54 q-49 -18 -107 -18 q-59 0 -108.5 20 q-49.5 20 -85.5 55 q-36 35 -56.5 84 q-20.5 49 -20.5 106 q0 58 19.5 106.5 q19.5 48.5 54 84 q34.5 35.5 81 55 q46.5 19.5 101.5 19.5 q58 0 102 -22.5 q44 -22.5 69 -54.5 l0 245 ZM465 251 q0 34 -11.5 64 q-11.5 30 -31.5 52 q-20 22 -48.5 34.5 q-28.5 12.5 -62.5 12.5 q-35 0 -63 -12.5 q-28 -12.5 -48.5 -34 q-20.5 -21.5 -31.5 -51.5 q-11 -30 -11 -65 q0 -35 11 -64.5 q11 -29.5 31.5 -51 q20.5 -21.5 48.5 -34 q28 -12.5 63 -12.5 q34 0 62.5 12 q28.5 12 48.5 33 q20 21 31.5 51 q11.5 30 11.5 66 Z" /><glyph glyph-name="e" unicode="e" d="M505 37 q-8 -5 -25 -14 q-17 -9 -42.5 -17 q-25.5 -8 -59 -14 q-33.5 -6 -73.5 -6 q-56 0 -104.5 17 q-48.5 17 -85 50.5 q-36.5 33.5 -57.5 82 q-21 48.5 -21 111.5 q0 60 20.5 109.5 q20.5 49.5 57 85 q36.5 35.5 86 55 q49.5 19.5 108.5 19.5 q52 0 92 -13.5 q40 -13.5 67.5 -36 q27.5 -22.5 41.5 -52.5 q14 -30 14 -64 q0 -35 -13 -63.5 q-13 -28.5 -46 -49 q-33 -20.5 -89 -32 q-56 -11.5 -142 -11.5 q-20 0 -37.5 0.5 q-17.5 0.5 -37.5 1.5 q8 -51 49.5 -82.5 q41.5 -31.5 118.5 -31.5 q26 0 48 4 q22 4 39.5 10 q17.5 6 30 12 q12.5 6 18.5 9 l42 -80 ZM154 274 q23 -1 44 -1 q21 0 42 0 q55 0 89 7 q34 7 53 18 q19 11 25 25 q6 14 6 29 q0 38 -30.5 57 q-30.5 19 -75.5 19 q-37 0 -65 -13 q-28 -13 -47 -34.5 q-19 -21.5 -29.5 -49.5 q-10.5 -28 -11.5 -57 Z" /><glyph glyph-name="f" unicode="f" d="M61 533 q0 54 15 93 q15 39 42.5 63.5 q27.5 24.5 65 36 q37.5 11.5 82.5 11.5 q82 0 116 -19.5 q34 -19.5 34 -49.5 q0 -17 -9.5 -30 q-9.5 -13 -20.5 -20 q-16 13 -43.5 21 q-27.5 8 -58.5 8 q-59 0 -84 -30 q-25 -30 -25 -85 l0 -30 l150 0 q33 0 46.5 -13.5 q13.5 -13.5 13.5 -39.5 q0 -17 -5 -31.5 q-5 -14.5 -8 -20.5 l-197 0 l0 -397 l-114 0 l0 533 Z" /><glyph glyph-name="g" unicode="g" d="M121 -86 q4 -2 17.5 -7.5 q13.5 -5.5 34 -11 q20.5 -5.5 48 -9.5 q27.5 -4 59.5 -4 q34 0 67 7.5 q33 7.5 59 27 q26 19.5 42.5 54.5 q16.5 35 16.5 90 l0 12 q-23 -27 -66.5 -51 q-43.5 -24 -104.5 -24 q-56 0 -103 18.5 q-47 18.5 -81 52 q-34 33.5 -53 80.5 q-19 47 -19 104 q0 57 20.5 105 q20.5 48 56.5 83 q36 35 86.5 55 q50.5 20 110.5 20 q57 0 105.5 -17 q48.5 -17 84.5 -52 q36 -35 56 -89 q20 -54 20 -127 l0 -144 q0 -79 -21.5 -135.5 q-21.5 -56.5 -59.5 -92.5 q-38 -36 -90.5 -52.5 q-52.5 -16.5 -114.5 -16.5 q-41 0 -74.5 4.5 q-33.5 4.5 -59.5 11 q-26 6.5 -43 13 q-17 6.5 -25 10.5 l31 85 ZM311 94 q34 0 62 12 q28 12 48 33 q20 21 31.5 50 q11.5 29 11.5 64 q0 34 -11.5 63.5 q-11.5 29.5 -31.5 51 q-20 21.5 -48 33.5 q-28 12 -62 12 q-35 0 -63.5 -12.5 q-28.5 -12.5 -48.5 -34.5 q-20 -22 -31 -51 q-11 -29 -11 -62 q0 -72 42 -115.5 q42 -43.5 112 -43.5 Z" /><glyph glyph-name="h" unicode="h" d="M58 684 q0 27 16 40 q16 13 45 13 q18 0 33 -4.5 q15 -4.5 20 -6.5 l0 -275 q20 24 60 45 q40 21 104 21 q46 0 84.5 -13 q38.5 -13 66.5 -38.5 q28 -25.5 43 -63.5 q15 -38 15 -89 l0 -313 l-114 0 l0 279 q0 66 -27.5 100 q-27.5 34 -94.5 34 q-68 0 -102.5 -39.5 q-34.5 -39.5 -34.5 -104.5 l0 -269 l-114 0 l0 684 Z" /><glyph glyph-name="i" unicode="i" d="M63 449 q0 28 16 40.5 q16 12.5 45 12.5 q18 0 33 -4.5 q15 -4.5 20 -6.5 l0 -491 l-114 0 l0 449 ZM120 727 q29 0 49 -20 q20 -20 20 -49 q0 -29 -20 -49 q-20 -20 -49 -20 q-29 0 -49 20 q-20 20 -20 49 q0 29 20 49 q20 20 49 20 Z" /><glyph glyph-name="j" unicode="j" d="M-100 -103 q12 -6 31.5 -10.5 q19.5 -4.5 41.5 -4.5 q17 0 33.5 3.5 q16.5 3.5 29 13.5 q12.5 10 20 27.5 q7.5 17.5 7.5 46.5 l0 476 q0 28 16 40.5 q16 12.5 45 12.5 q18 0 33 -4.5 q15 -4.5 20 -6.5 l0 -509 q0 -56 -15.5 -93 q-15.5 -37 -41.5 -59 q-26 -22 -59.5 -31 q-33.5 -9 -69.5 -9 q-20 0 -39 3 q-19 3 -35.5 6.5 q-16.5 3.5 -28.5 8 q-12 4.5 -18 7.5 l30 82 ZM120 727 q29 0 49 -20 q20 -20 20 -49 q0 -29 -20 -49 q-20 -20 -49 -20 q-29 0 -49 20 q-20 20 -20 49 q0 29 20 49 q20 20 49 20 Z" /><glyph glyph-name="k" unicode="k" d="M58 684 q0 27 16 40 q16 13 45 13 q18 0 33 -4.5 q15 -4.5 20 -6.5 l0 -409 q13 9 36.5 26.5 q23.5 17.5 52.5 38.5 q29 21 60 44 q31 23 59 43 q22 16 40 24.5 q18 8.5 47 8.5 q27 0 46 -14.5 q19 -14.5 24 -24.5 q-21 -19 -57.5 -46.5 q-36.5 -27.5 -74.5 -55 q-38 -27.5 -72 -51 q-34 -23.5 -49 -34.5 q85 -63 155 -136.5 q70 -73.5 118 -139.5 l-142 0 q-23 28 -51.5 58.5 q-28.5 30.5 -61 60 q-32.5 29.5 -66 57 q-33.5 27.5 -64.5 50.5 l0 -226 l-114 0 l0 684 Z" /><glyph glyph-name="l" unicode="l" d="M63 684 q0 27 16 40 q16 13 45 13 q18 0 33 -4.5 q15 -4.5 20 -6.5 l0 -726 l-114 0 l0 684 Z" /><glyph glyph-name="m" unicode="m" d="M58 323 q0 48 17 84 q17 36 46.5 60 q29.5 24 69.5 36.5 q40 12.5 87 12.5 q62 0 111 -23 q49 -23 78 -68 q29 45 77 68 q48 23 109 23 q46 0 86 -12 q40 -12 69 -36 q29 -24 46 -60 q17 -36 17 -84 l0 -324 l-114 0 l0 285 q0 69 -31 98.5 q-31 29.5 -84 29.5 q-51 0 -85.5 -33 q-34.5 -33 -34.5 -107 l0 -273 l-114 0 l0 273 q0 74 -34.5 107 q-34.5 33 -85.5 33 q-52 0 -84 -30 q-32 -30 -32 -99 l0 -284 l-114 0 l0 323 Z" /><glyph glyph-name="n" unicode="n" d="M58 303 q0 50 18.5 89.5 q18.5 39.5 51 67 q32.5 27.5 77 42 q44.5 14.5 97.5 14.5 q53 0 98 -14.5 q45 -14.5 77.5 -42 q32.5 -27.5 50.5 -67 q18 -39.5 18 -89.5 l0 -303 l-114 0 l0 274 q0 68 -33 103.5 q-33 35.5 -97 35.5 q-65 0 -97.5 -35.5 q-32.5 -35.5 -32.5 -103.5 l0 -274 l-114 0 l0 303 Z" /><glyph glyph-name="o" unicode="o" d="M313 516 q58 0 108.5 -20 q50.5 -20 87.5 -55.5 q37 -35.5 58 -84 q21 -48.5 21 -105.5 q0 -56 -21 -104.5 q-21 -48.5 -58 -84 q-37 -35.5 -87.5 -56 q-50.5 -20.5 -108.5 -20.5 q-58 0 -108.5 20.5 q-50.5 20.5 -87.5 56 q-37 35.5 -58 84 q-21 48.5 -21 104.5 q0 57 21 105.5 q21 48.5 58 84 q37 35.5 87.5 55.5 q50.5 20 108.5 20 ZM313 87 q34 0 63 12.5 q29 12.5 49.5 35 q20.5 22.5 32 52 q11.5 29.5 11.5 64.5 q0 35 -11.5 65.5 q-11.5 30.5 -32 52.5 q-20.5 22 -49.5 34.5 q-29 12.5 -63 12.5 q-35 0 -63.5 -12.5 q-28.5 -12.5 -49 -34.5 q-20.5 -22 -32 -52.5 q-11.5 -30.5 -11.5 -65.5 q0 -35 11.5 -64.5 q11.5 -29.5 32 -52 q20.5 -22.5 49 -35 q28.5 -12.5 63.5 -12.5 Z" /><glyph glyph-name="p" unicode="p" d="M46 228 q0 70 20 123.5 q20 53.5 56 90 q36 36.5 87 55.5 q51 19 113 19 q57 0 105 -20 q48 -20 83.5 -55 q35.5 -35 55.5 -84 q20 -49 20 -106 q0 -58 -19.5 -106.5 q-19.5 -48.5 -54 -83.5 q-34.5 -35 -81 -54.5 q-46.5 -19.5 -101.5 -19.5 q-57 0 -101 22 q-44 22 -69 54 l0 -263 l-114 0 l0 428 ZM314 88 q34 0 62.5 12.5 q28.5 12.5 49 34.5 q20.5 22 31.5 52 q11 30 11 65 q0 34 -11 63.5 q-11 29.5 -31.5 51 q-20.5 21.5 -49 34 q-28.5 12.5 -62.5 12.5 q-34 0 -62.5 -12 q-28.5 -12 -49 -33 q-20.5 -21 -32 -50.5 q-11.5 -29.5 -11.5 -65.5 q0 -35 11.5 -65 q11.5 -30 31.5 -52 q20 -22 48.5 -34.5 q28.5 -12.5 63.5 -12.5 Z" /><glyph glyph-name="q" unicode="q" d="M465 63 q-25 -32 -69 -54 q-44 -22 -102 -22 q-55 0 -101.5 19.5 q-46.5 19.5 -81 54.5 q-34.5 35 -54 83.5 q-19.5 48.5 -19.5 106.5 q0 57 20.5 106 q20.5 49 56.5 84 q36 35 85.5 55 q49.5 20 108.5 20 q61 0 111 -17.5 q50 -17.5 85 -53 q35 -35.5 54 -90 q19 -54.5 19 -127.5 l0 -428 l-113 0 l0 263 ZM465 252 q0 36 -11.5 65.5 q-11.5 29.5 -31.5 50.5 q-20 21 -48.5 33 q-28.5 12 -62.5 12 q-35 0 -63 -12.5 q-28 -12.5 -48.5 -34 q-20.5 -21.5 -31.5 -51 q-11 -29.5 -11 -63.5 q0 -35 11 -65 q11 -30 31.5 -52 q20.5 -22 48.5 -34.5 q28 -12.5 63 -12.5 q34 0 62.5 12.5 q28.5 12.5 48.5 34.5 q20 22 31.5 52 q11.5 30 11.5 65 Z" /><glyph glyph-name="r" unicode="r" d="M58 323 q0 92 56.5 142.5 q56.5 50.5 156.5 50.5 q63 0 102.5 -17.5 q39.5 -17.5 39.5 -53.5 q0 -17 -9.5 -33 q-9.5 -16 -15.5 -20 q-17 8 -42 15 q-25 7 -57 7 q-117 0 -117 -124 l0 -290 l-114 0 l0 323 Z" /><glyph glyph-name="s" unicode="s" d="M71 125 q7 -5 25 -13 q18 -8 44.5 -16.5 q26.5 -8.5 60.5 -14.5 q34 -6 74 -6 q52 0 85 13.5 q33 13.5 33 46.5 q0 28 -21 42.5 q-21 14.5 -75 20.5 l-78 9 q-40 4 -73.5 14.5 q-33.5 10.5 -57.5 28.5 q-24 18 -37.5 44.5 q-13.5 26.5 -13.5 63.5 q0 32 12.5 60.5 q12.5 28.5 39.5 50.5 q27 22 70.5 34.5 q43.5 12.5 105.5 12.5 q104 0 161.5 -23 q57.5 -23 57.5 -60 q0 -12 -4.5 -21 q-4.5 -9 -10 -16 q-5.5 -7 -11.5 -11.5 q-6 -4.5 -9 -5.5 q-4 4 -17.5 12.5 q-13.5 8.5 -36.5 17 q-23 8.5 -55 15 q-32 6.5 -74 6.5 q-116 0 -116 -61 q0 -26 22 -39.5 q22 -13.5 63 -18.5 l102 -13 q83 -11 129 -45.5 q46 -34.5 46 -101.5 q0 -75 -59.5 -120 q-59.5 -45 -171.5 -45 q-54 0 -98 8 q-44 8 -76.5 18.5 q-32.5 10.5 -52.5 20.5 q-20 10 -26 15 l43 77 Z" /><glyph glyph-name="t" unicode="t" d="M61 591 q0 28 16 40.5 q16 12.5 44 12.5 q18 0 33.5 -4.5 q15.5 -4.5 20.5 -6.5 l0 -131 l145 0 q33 0 46.5 -13.5 q13.5 -13.5 13.5 -39.5 q0 -17 -5 -31.5 q-5 -14.5 -8 -20.5 l-192 0 l0 -223 q0 -26 7 -42.5 q7 -16.5 19.5 -26.5 q12.5 -10 29 -14 q16.5 -4 34.5 -4 q29 0 54 9 q25 9 36 17 l46 -76 q-8 -6 -22.5 -15 q-14.5 -9 -35.5 -17 q-21 -8 -47 -13.5 q-26 -5.5 -57 -5.5 q-88 0 -133 45.5 q-45 45.5 -45 119.5 l0 440 Z" /><glyph glyph-name="u" unicode="u" d="M58 449 q0 28 16 40.5 q16 12.5 45 12.5 q18 0 33 -4.5 q15 -4.5 20 -6.5 l0 -263 q0 -68 32 -103.5 q32 -35.5 98 -35.5 q66 0 98 35.5 q32 35.5 32 103.5 l0 221 q0 28 16 40.5 q16 12.5 44 12.5 q19 0 34 -4.5 q15 -4.5 20 -6.5 l0 -288 q0 -51 -17.5 -91.5 q-17.5 -40.5 -50 -68.5 q-32.5 -28 -77.5 -42.5 q-45 -14.5 -99 -14.5 q-54 0 -99 14.5 q-45 14.5 -77 42.5 q-32 28 -50 68.5 q-18 40.5 -18 91.5 l0 246 Z" /><glyph glyph-name="v" unicode="v" d="M219 0 q-47 87 -86 163.5 q-39 76.5 -67 136.5 q-28 60 -43 100 q-15 40 -15 52 q0 21 14 35.5 q14 14.5 43 14.5 q21 0 34.5 -4 q13.5 -4 15.5 -6 q20 -54 43 -109.5 q23 -55.5 45.5 -105 q22.5 -49.5 42 -90 q19.5 -40.5 32.5 -66.5 q19 36 41 85 q22 49 42.5 97 q20.5 48 37 87.5 q16.5 39.5 23.5 57.5 q10 25 24 39.5 q14 14.5 44 14.5 q28 0 45.5 -9.5 q17.5 -9.5 19.5 -11.5 q-6 -21 -20.5 -57.5 q-14.5 -36.5 -35 -81.5 q-20.5 -45 -44 -94 q-23.5 -49 -46.5 -95.5 q-23 -46.5 -43.5 -86.5 q-20.5 -40 -34.5 -66 l-112 0 Z" /><glyph glyph-name="w" unicode="w" d="M173 0 q-49 115 -80.5 195 q-31.5 80 -50 132.5 q-18.5 52.5 -26 81 q-7.5 28.5 -7.5 40.5 q0 21 14 37 q14 16 43 16 q22 0 34.5 -4 q12.5 -4 16.5 -6 q12 -44 27 -93.5 q15 -49.5 31 -98.5 q16 -49 31.5 -93.5 q15.5 -44.5 27.5 -79.5 q11 31 23.5 71 q12.5 40 26 82.5 q13.5 42.5 26.5 86 q13 43.5 24 82.5 q8 26 22.5 39.5 q14.5 13.5 46.5 13.5 q20 0 36 -5.5 q16 -5.5 20 -7.5 q13 -45 28 -94.5 q15 -49.5 30 -97.5 q15 -48 29.5 -92 q14.5 -44 26.5 -78 q26 69 53.5 151 q27.5 82 50.5 164 q9 31 23.5 45.5 q14.5 14.5 44.5 14.5 q27 0 44 -9 q17 -9 19 -11 q-8 -33 -28 -91 q-20 -58 -45 -125.5 q-25 -67.5 -53 -138 q-28 -70.5 -53 -127.5 l-118 0 q-8 21 -21.5 61.5 q-13.5 40.5 -29.5 88.5 q-16 48 -31.5 98.5 q-15.5 50.5 -28.5 92.5 q-13 -42 -28.5 -92.5 q-15.5 -50.5 -31 -98.5 q-15.5 -48 -28.5 -88.5 q-13 -40.5 -21 -61.5 l-118 0 Z" /><glyph glyph-name="x" unicode="x" d="M5 0 q5 7 24 30.5 q19 23.5 46.5 57 q27.5 33.5 61 74 q33.5 40.5 68.5 81.5 q-47 51 -80.5 84.5 q-33.5 33.5 -54.5 56.5 q-21 23 -31 40 q-10 17 -10 34 q0 17 13 30.5 q13 13.5 43 13.5 q18 0 32 -4.5 q14 -4.5 18 -6.5 q4 -5 18.5 -21.5 q14.5 -16.5 35 -39.5 q20.5 -23 43.5 -50 q23 -27 46 -52 q19 24 38.5 47 q19.5 23 35.5 42.5 q16 19.5 27.5 33 q11.5 13.5 14.5 17.5 q16 17 32 25.5 q16 8.5 38 8.5 q28 0 48 -11.5 q20 -11.5 25 -18.5 q-8 -9 -26.5 -30.5 q-18.5 -21.5 -43.5 -51 q-25 -29.5 -55.5 -65.5 q-30.5 -36 -62.5 -74 q36 -42 71 -82 q35 -40 64.5 -74 q29.5 -34 51 -59 q21.5 -25 29.5 -36 l-141 0 q-23 27 -59.5 69.5 q-36.5 42.5 -87.5 99.5 q-45 -54 -82.5 -99.5 q-37.5 -45.5 -55.5 -69.5 l-134 0 Z" /><glyph glyph-name="y" unicode="y" d="M58 449 q0 27 16 40 q16 13 44 13 q18 0 33.5 -4.5 q15.5 -4.5 20.5 -6.5 l0 -267 q0 -59 31.5 -94 q31.5 -35 97.5 -35 q61 0 96 35.5 q35 35.5 35 104.5 l0 214 q0 27 16 40 q16 13 44 13 q18 0 33.5 -4.5 q15.5 -4.5 20.5 -6.5 l0 -438 q0 -71 -19 -120.5 q-19 -49.5 -54 -81.5 q-35 -32 -84 -46.5 q-49 -14.5 -109 -14.5 q-41 0 -75 4.5 q-34 4.5 -60.5 10.5 q-26.5 6 -43.5 11.5 q-17 5.5 -24 8.5 q8 21 15 42.5 q7 21.5 14 42.5 q7 -3 22 -8 q15 -5 36 -9.5 q21 -4.5 47.5 -7.5 q26.5 -3 56.5 -3 q39 0 70 8.5 q31 8.5 52.5 29.5 q21.5 21 33 55.5 q11.5 34.5 11.5 86.5 q-20 -29 -62.5 -46.5 q-42.5 -17.5 -93.5 -17.5 q-48 0 -89 13.5 q-41 13.5 -70 39 q-29 25.5 -45.5 63.5 q-16.5 38 -16.5 87 l0 248 Z" /><glyph glyph-name="z" unicode="z" d="M25 99 q33 28 77.5 68.5 q44.5 40.5 90.5 82.5 q46 42 88 81.5 q42 39.5 69 66.5 l-265 0 q-33 0 -46.5 13 q-13.5 13 -13.5 38 q0 17 5 32 q5 15 8 21 l407 0 q29 0 46 -13.5 q17 -13.5 17 -41.5 q0 -19 -9 -35.5 q-9 -16.5 -34 -41.5 q-16 -16 -39.5 -38.5 q-23.5 -22.5 -50.5 -47.5 q-27 -25 -56 -51.5 q-29 -26.5 -56 -51 q-27 -24.5 -51 -45.5 q-24 -21 -41 -36 l338 0 l0 -100 l-484 0 l0 99 Z" /><glyph glyph-name="braceleft" unicode="{" d="M127 152 q0 54 -25 75.5 q-25 21.5 -69 21.5 l-15 0 l0 108 l15 0 q44 0 69 21.5 q25 21.5 25 75.5 l0 108 q0 41 7.5 73 q7.5 32 24 54.5 q16.5 22.5 43.5 34.5 q27 12 67 12 l70 0 q5 -11 8.5 -26.5 q3.5 -15.5 3.5 -30.5 q0 -20 -8.5 -34 q-8.5 -14 -38.5 -14 l-7 0 q-34 0 -46 -17 q-12 -17 -12 -47 l0 -126 q0 -32 -5.5 -54 q-5.5 -22 -15 -38 q-9.5 -16 -23.5 -26.5 q-14 -10.5 -31 -18.5 q19 -10 33.5 -21.5 q14.5 -11.5 23.5 -29 q9 -17.5 13.5 -43 q4.5 -25.5 4.5 -63.5 l0 -107 q0 -28 11.5 -46 q11.5 -18 51.5 -18 l42 0 l0 -105 l-75 0 q-80 0 -111 44 q-31 44 -31 129 l0 108 Z" /><glyph glyph-name="bar" unicode="|" d="M73 689 q0 24 15 36 q15 12 41 12 q18 0 31 -4 q13 -4 18 -6 l0 -859 l-105 0 l0 821 Z" /><glyph glyph-name="braceright" unicode="}" d="M18 -129 l0 105 l42 0 q40 0 51.5 18 q11.5 18 11.5 46 l0 107 q0 38 4.5 63.5 q4.5 25.5 13.5 43 q9 17.5 23 29 q14 11.5 34 21.5 q-17 8 -31 18.5 q-14 10.5 -24 26.5 q-10 16 -15 38 q-5 22 -5 54 l0 126 q0 30 -12 47 q-12 17 -46 17 l-7 0 q-30 0 -38.5 14 q-8.5 14 -8.5 34 q0 15 3.5 30.5 q3.5 15.5 8.5 26.5 l70 0 q79 0 110.5 -46 q31.5 -46 31.5 -128 l0 -108 q0 -54 25 -75.5 q25 -21.5 69 -21.5 l15 0 l0 -108 l-15 0 q-44 0 -69 -21.5 q-25 -21.5 -25 -75.5 l0 -108 q0 -85 -31.5 -129 q-31.5 -44 -110.5 -44 l-75 0 Z" /><glyph glyph-name="asciitilde" unicode="~" d="M36 258 q1 42 13 73 q12 31 31.5 52 q19.5 21 45.5 31 q26 10 56 10 q29 0 51.5 -4.5 q22.5 -4.5 42.5 -11.5 l75 -26 q26 -9 43.5 -13.5 q17.5 -4.5 37.5 -4.5 q28 0 41.5 16.5 q13.5 16.5 18.5 46.5 l90 0 q-2 -36 -11 -67 q-9 -31 -25.5 -53.5 q-16.5 -22.5 -41 -35 q-24.5 -12.5 -56.5 -12.5 q-16 0 -35.5 2.5 q-19.5 2.5 -33.5 7.5 l-107 34 q-25 8 -46 13 q-21 5 -40 5 q-26 0 -41 -17 q-15 -17 -18 -46 l-91 0 Z" /><glyph glyph-name="Euro" unicode="&#x20ac;" d="M37 293 l72 0 q-1 11 -1 22 q0 11 0 22 q0 12 0 23.5 q0 11.5 2 22.5 l-73 0 l0 72 l83 0 q15 62 44 109 q29 47 69.5 78 q40.5 31 90.5 46.5 q50 15.5 105 15.5 q62 0 101 -10.5 q39 -10.5 61 -25 q22 -14.5 30 -30.5 q8 -16 8 -26 q0 -13 -5 -23.5 q-5 -10.5 -12.5 -19.5 q-7.5 -9 -16 -15 q-8.5 -6 -15.5 -10 q-7 8 -20 17.5 q-13 9.5 -31.5 17.5 q-18.5 8 -42.5 13.5 q-24 5.5 -54 5.5 q-63 0 -115 -32.5 q-52 -32.5 -75 -110.5 l235 0 q23 0 31 -10 q8 -10 8 -24 q0 -20 -10 -38 l-276 0 q-2 -11 -2 -22.5 q0 -11.5 0 -23.5 q0 -12 0 -22.5 q0 -10.5 1 -21.5 l209 0 q38 0 38 -32 q0 -15 -11 -39 l-219 0 q23 -69 75.5 -101 q52.5 -32 114.5 -32 q24 0 47.5 4 q23.5 4 44.5 10 q21 6 37 12.5 q16 6.5 24 11.5 l45 -86 q-8 -5 -25 -15 q-17 -10 -43 -20 q-26 -10 -60.5 -17 q-34.5 -7 -77.5 -7 q-48 0 -96 13 q-48 13 -90 41.5 q-42 28.5 -74 74 q-32 45.5 -48 111.5 l-83 0 l0 71 Z" /><glyph glyph-name="quotesinglbase" unicode="&#x201a;" d="M96 88 q8 26 22 39 q14 13 40 13 q15 0 27 -4 q12 -4 21 -9 q9 -5 15 -10 q6 -5 8 -8 l-115 -268 l-82 32 l64 215 Z" /><glyph glyph-name="florin" unicode="&#x192;" d="M-125 -104 q10 -5 28.5 -9.5 q18.5 -4.5 39.5 -4.5 q17 0 33 4 q16 4 29.5 15.5 q13.5 11.5 23.5 32.5 q10 21 15 56 l75 536 q8 58 28 98 q20 40 50 65 q30 25 69 36.5 q39 11.5 85 11.5 q40 0 66.5 -5.5 q26.5 -5.5 42.5 -14.5 q16 -9 22.5 -20.5 q6.5 -11.5 6.5 -23.5 q0 -20 -12.5 -34 q-12.5 -14 -24.5 -21 q-14 13 -40 21 q-26 8 -58 8 q-56 0 -85.5 -30.5 q-29.5 -30.5 -36.5 -88.5 l-3 -26 l140 0 q58 0 58 -49 q0 -17 -6 -33.5 q-6 -16.5 -10 -22.5 l-197 0 l-57 -403 q-9 -60 -28.5 -99.5 q-19.5 -39.5 -47 -63 q-27.5 -23.5 -60.5 -32.5 q-33 -9 -67 -9 q-44 0 -74.5 9.5 q-30.5 9.5 -41.5 14.5 l37 82 Z" /><glyph glyph-name="quotedblbase" unicode="&#x201e;" d="M128 88 q8 26 21.5 39 q13.5 13 40.5 13 q15 0 27 -4 q12 -4 21 -9 q9 -5 15 -10 q6 -5 8 -8 l-116 -268 l-82 32 l65 215 ZM343 88 q8 26 21.5 39 q13.5 13 40.5 13 q15 0 27 -4 q12 -4 21 -9 q9 -5 15 -10 q6 -5 8 -8 l-116 -268 l-82 32 l65 215 Z" /><glyph glyph-name="ellipsis" unicode="&#x2026;" d="M73 63 q0 16 6 30 q6 14 16.5 24.5 q10.5 10.5 25 16.5 q14.5 6 30.5 6 q32 0 54.5 -22.5 q22.5 -22.5 22.5 -54.5 q0 -16 -6 -30.5 q-6 -14.5 -16.5 -25 q-10.5 -10.5 -24.5 -17 q-14 -6.5 -30 -6.5 q-32 0 -55 23.5 q-23 23.5 -23 55.5 ZM372 63 q0 32 23 54.5 q23 22.5 55 22.5 q32 0 54.5 -22.5 q22.5 -22.5 22.5 -54.5 q0 -16 -6 -30.5 q-6 -14.5 -16.5 -25 q-10.5 -10.5 -24.5 -17 q-14 -6.5 -30 -6.5 q-16 0 -30 6.5 q-14 6.5 -24.5 17 q-10.5 10.5 -17 25 q-6.5 14.5 -6.5 30.5 ZM672 63 q0 16 6 30 q6 14 16.5 24.5 q10.5 10.5 25 16.5 q14.5 6 30.5 6 q32 0 54.5 -22.5 q22.5 -22.5 22.5 -54.5 q0 -16 -6 -30.5 q-6 -14.5 -16.5 -25 q-10.5 -10.5 -24.5 -17 q-14 -6.5 -30 -6.5 q-32 0 -55 23.5 q-23 23.5 -23 55.5 Z" /><glyph glyph-name="dagger" unicode="&#x2020;" d="M200 397 l-132 0 q-33 0 -47 13.5 q-14 13.5 -14 38.5 q0 17 5.5 32 q5.5 15 8.5 21 l179 0 l0 182 q0 27 16 40 q16 13 45 13 q18 0 33 -4.5 q15 -4.5 20 -6.5 l0 -224 l133 0 q33 0 46.5 -13.5 q13.5 -13.5 13.5 -39.5 q0 -17 -5 -31.5 q-5 -14.5 -8 -20.5 l-180 0 l0 -597 l-114 0 l0 597 Z" /><glyph glyph-name="daggerdbl" unicode="&#x2021;" d="M224 11 l-132 0 q-33 0 -47 13.5 q-14 13.5 -14 38.5 q0 17 5.5 32 q5.5 15 8.5 21 l179 0 l0 281 l-132 0 q-33 0 -47 13.5 q-14 13.5 -14 38.5 q0 17 5.5 32 q5.5 15 8.5 21 l179 0 l0 182 q0 27 16 40 q16 13 45 13 q18 0 33 -4.5 q15 -4.5 20 -6.5 l0 -224 l133 0 q33 0 46.5 -13.5 q13.5 -13.5 13.5 -39.5 q0 -17 -5 -31.5 q-5 -14.5 -8 -20.5 l-180 0 l0 -281 l133 0 q33 0 46.5 -13.5 q13.5 -13.5 13.5 -39.5 q0 -17 -5 -31.5 q-5 -14.5 -8 -20.5 l-180 0 l0 -211 l-114 0 l0 211 Z" /><glyph glyph-name="circumflex" unicode="&#x2c6;" d="M92 614 l94 75 q14 11 30 21.5 q16 10.5 34 10.5 q18 0 34.5 -10 q16.5 -10 30.5 -21 l93 -76 l-41 -48 l-117 72 l-117 -72 l-41 48 Z" /><glyph glyph-name="perthousand" unicode="&#x2030;" d="M602 698 q9 16 20.5 27.5 q11.5 11.5 38.5 11.5 q23 0 38 -8 q15 -8 19 -12 l-408 -717 l-107 0 l399 698 ZM219 349 q-42 0 -77 15 q-35 15 -60 41 q-25 26 -39 61.5 q-14 35.5 -14 76.5 q0 41 14 76.5 q14 35.5 39 61.5 q25 26 60 41 q35 15 77 15 q42 0 77 -15 q35 -15 60 -41 q25 -26 39 -61.5 q14 -35.5 14 -76.5 q0 -41 -14 -76.5 q-14 -35.5 -39 -61.5 q-25 -26 -60 -41 q-35 -15 -77 -15 ZM219 436 q44 0 68.5 31 q24.5 31 24.5 76 q0 45 -24.5 76 q-24.5 31 -68.5 31 q-44 0 -68.5 -31 q-24.5 -31 -24.5 -76 q0 -45 24.5 -76 q24.5 -31 68.5 -31 ZM710 -14 q-42 0 -77 15 q-35 15 -60 41 q-25 26 -39 61.5 q-14 35.5 -14 76.5 q0 41 14 76.5 q14 35.5 39 61.5 q25 26 60 41 q35 15 77 15 q42 0 77 -15 q35 -15 60 -41 q25 -26 39 -61.5 q14 -35.5 14 -76.5 q0 -41 -14 -76.5 q-14 -35.5 -39 -61.5 q-25 -26 -60 -41 q-35 -15 -77 -15 ZM710 73 q44 0 68.5 31 q24.5 31 24.5 76 q0 45 -24.5 76 q-24.5 31 -68.5 31 q-44 0 -68.5 -31 q-24.5 -31 -24.5 -76 q0 -45 24.5 -76 q24.5 -31 68.5 -31 ZM1156 -14 q-42 0 -77 15 q-35 15 -60 41 q-25 26 -39 61.5 q-14 35.5 -14 76.5 q0 41 14 76.5 q14 35.5 39 61.5 q25 26 60 41 q35 15 77 15 q42 0 77 -15 q35 -15 60 -41 q25 -26 39 -61.5 q14 -35.5 14 -76.5 q0 -41 -14 -76.5 q-14 -35.5 -39 -61.5 q-25 -26 -60 -41 q-35 -15 -77 -15 ZM1156 73 q44 0 68.5 31 q24.5 31 24.5 76 q0 45 -24.5 76 q-24.5 31 -68.5 31 q-44 0 -68.5 -31 q-24.5 -31 -24.5 -76 q0 -45 24.5 -76 q24.5 -31 68.5 -31 Z" /><glyph glyph-name="guilsinglleft" unicode="&#x2039;" d="M55 202 q-9 9 -16 21.5 q-7 12.5 -7 25.5 q0 12 5 21.5 q5 9.5 12 17.5 l170 186 l67 -60 l-139 -164 l139 -160 l-67 -60 l-164 172 Z" /><glyph glyph-name="OE" unicode="&#x152;" d="M644 103 q-16 -27 -42 -48.5 q-26 -21.5 -58 -37.5 q-32 -16 -69.5 -24.5 q-37.5 -8.5 -76.5 -8.5 q-74 0 -139 26.5 q-65 26.5 -113 74 q-48 47.5 -75.5 113.5 q-27.5 66 -27.5 145 q0 79 26.5 145 q26.5 66 73.5 113.5 q47 47.5 111.5 74 q64.5 26.5 141.5 26.5 q49 0 89.5 -11.5 q40.5 -11.5 72 -28.5 q31.5 -17 53.5 -37 q22 -20 34 -37 l0 41 q0 20 16 38.5 q16 18.5 50 18.5 l377 0 q59 0 59 -54 q0 -19 -5.5 -34.5 q-5.5 -15.5 -9.5 -20.5 l-371 0 l0 -173 l313 0 q59 0 59 -53 q0 -19 -6 -34.5 q-6 -15.5 -9 -20.5 l-357 0 l0 -188 l380 0 l0 -108 l-497 0 l0 103 ZM405 92 q51 0 95 18.5 q44 18.5 75.5 52 q31.5 33.5 49.5 79.5 q18 46 18 101 q0 55 -18 101 q-18 46 -49.5 79 q-31.5 33 -75.5 51.5 q-44 18.5 -95 18.5 q-51 0 -94.5 -18 q-43.5 -18 -75 -51 q-31.5 -33 -49.5 -79 q-18 -46 -18 -102 q0 -56 18 -102 q18 -46 49.5 -79 q31.5 -33 75 -51.5 q43.5 -18.5 94.5 -18.5 Z" /><glyph glyph-name="quoteleft" unicode="&#x2018;" d="M39 705 q5 6 23.5 19 q18.5 13 48.5 13 q26 0 40 -13 q14 -13 22 -39 l64 -216 l-82 -31 l-116 267 Z" /><glyph glyph-name="quoteright" unicode="&#x2019;" d="M127 685 q8 26 22 39 q14 13 40 13 q30 0 48 -13 q18 -13 23 -19 l-115 -267 l-83 31 l65 216 Z" /><glyph glyph-name="quotedblleft" unicode="&#x201c;" d="M255 705 q5 6 23 19 q18 13 48 13 q26 0 40 -13 q14 -13 22 -39 l64 -216 l-82 -31 l-115 267 ZM39 705 q5 6 23.5 19 q18.5 13 48.5 13 q26 0 40 -13 q14 -13 22 -39 l64 -216 l-82 -31 l-116 267 Z" /><glyph glyph-name="quotedblright" unicode="&#x201d;" d="M128 685 q8 26 21.5 39 q13.5 13 40.5 13 q29 0 47.5 -13 q18.5 -13 23.5 -19 l-116 -267 l-82 31 l65 216 ZM343 685 q8 26 21.5 39 q13.5 13 40.5 13 q29 0 47.5 -13 q18.5 -13 23.5 -19 l-116 -267 l-82 31 l65 216 Z" /><glyph glyph-name="bullet" unicode="&#x2022;" d="M102 342 q0 30 11 56 q11 26 30.5 45.5 q19.5 19.5 45.5 31 q26 11.5 57 11.5 q31 0 57 -11.5 q26 -11.5 45 -31 q19 -19.5 30 -45.5 q11 -26 11 -56 q0 -29 -11 -55 q-11 -26 -30 -45.5 q-19 -19.5 -45 -31 q-26 -11.5 -57 -11.5 q-31 0 -57 11.5 q-26 11.5 -45.5 31 q-19.5 19.5 -30.5 45.5 q-11 26 -11 55 Z" /><glyph glyph-name="endash" unicode="&#x2013;" d="M447 328 q29 0 41 -16.5 q12 -16.5 12 -41.5 q0 -16 -4 -30.5 q-4 -14.5 -7 -21.5 l-437 0 q-29 0 -40.5 16 q-11.5 16 -11.5 42 q0 17 4 31 q4 14 7 21 l436 0 Z" /><glyph glyph-name="emdash" unicode="&#x2014;" d="M947 328 q29 0 41 -16.5 q12 -16.5 12 -41.5 q0 -16 -4 -30.5 q-4 -14.5 -7 -21.5 l-937 0 q-29 0 -40.5 16 q-11.5 16 -11.5 42 q0 17 4 31 q4 14 7 21 l936 0 Z" /><glyph glyph-name="tilde" unicode="&#x2dc;" d="M75 587 q4 19 11.5 37 q7.5 18 20 32.5 q12.5 14.5 30.5 23.5 q18 9 43 9 q24 0 40.5 -4.5 q16.5 -4.5 30.5 -8.5 l24 -7 q10 -3 20.5 -6 q10.5 -3 22.5 -3 q15 0 23.5 8.5 q8.5 8.5 13.5 27.5 l70 -13 q-4 -19 -11.5 -37 q-7.5 -18 -20 -32.5 q-12.5 -14.5 -30.5 -23.5 q-18 -9 -43 -9 q-21 0 -38.5 4.5 q-17.5 4.5 -34.5 9.5 l-24 8 q-22 8 -41 8 q-15 0 -23 -9 q-8 -9 -13 -29 l-71 14 Z" /><glyph glyph-name="trademark" unicode="&#x2122;" d="M437 267 q5 94 9.5 186.5 q4.5 92.5 10.5 186.5 q3 44 47 44 q11 0 22.5 -3 q11.5 -3 17.5 -6 q35 -59 66 -123 q31 -64 60 -118 q25 51 52 106.5 q27 55.5 52 109.5 q16 36 54 36 q19 0 33 -6 q14 -6 19 -9 q0 -4 2 -33.5 q2 -29.5 4 -71.5 q2 -42 5 -91 q3 -49 5.5 -93 q2.5 -44 4 -75.5 q1.5 -31.5 2.5 -39.5 l-91 0 q-1 26 -2.5 60 q-1.5 34 -3.5 70 q-2 36 -4 71.5 q-2 35.5 -4 63.5 q-11 -21 -24 -48 q-13 -27 -26 -53 q-13 -26 -24.5 -49 q-11.5 -23 -17.5 -37 l-71 0 q-21 40 -45 87.5 q-24 47.5 -50 94.5 q-5 -66 -8 -130 q-3 -64 -5 -130 l-90 0 ZM159 604 l-112 0 q-21 0 -31.5 11 q-10.5 11 -10.5 30 q0 14 4.5 25 q4.5 11 7.5 16 l346 0 q41 0 41 -39 q0 -14 -4.5 -26 q-4.5 -12 -6.5 -17 l-143 0 l0 -337 l-91 0 l0 337 Z" /><glyph glyph-name="guilsinglright" unicode="&#x203a;" d="M173 255 l-140 159 l68 60 l164 -173 q8 -8 15 -20.5 q7 -12.5 7 -25.5 q0 -12 -5.5 -22.5 q-5.5 -10.5 -11.5 -17.5 l-169 -185 l-68 60 l140 165 Z" /><glyph glyph-name="oe" unicode="&#x153;" d="M935 37 q-8 -5 -25.5 -14 q-17.5 -9 -43 -17 q-25.5 -8 -58.5 -14 q-33 -6 -73 -6 q-66 0 -123.5 26 q-57.5 26 -89.5 77 q-34 -48 -89.5 -75.5 q-55.5 -27.5 -124.5 -27.5 q-56 0 -105.5 20 q-49.5 20 -86 55.5 q-36.5 35.5 -57.5 84 q-21 48.5 -21 105.5 q0 57 21 106 q21 49 58 84 q37 35 86.5 55 q49.5 20 106.5 20 q69 0 126 -29 q57 -29 89 -79 q42 55 97 80 q55 25 119 25 q46 0 85 -12 q39 -12 67.5 -33.5 q28.5 -21.5 44.5 -51.5 q16 -30 16 -66 q0 -35 -13.5 -63.5 q-13.5 -28.5 -46.5 -49 q-33 -20.5 -89 -32 q-56 -11.5 -142 -11.5 q-20 0 -37.5 0 q-17.5 0 -36.5 2 q8 -51 49 -82.5 q41 -31.5 119 -31.5 q26 0 48 4 q22 4 39.5 10 q17.5 6 29.5 12 q12 6 18 9 l43 -80 ZM313 86 q33 0 61.5 12 q28.5 12 49.5 34 q21 22 33 52.5 q12 30.5 12 66.5 q0 36 -12 66.5 q-12 30.5 -33 52.5 q-21 22 -49.5 34 q-28.5 12 -61.5 12 q-35 0 -64 -12.5 q-29 -12.5 -49.5 -34.5 q-20.5 -22 -32 -52.5 q-11.5 -30.5 -11.5 -65.5 q0 -35 11.5 -65 q11.5 -30 32.5 -52.5 q21 -22.5 49.5 -35 q28.5 -12.5 63.5 -12.5 ZM584 274 q23 -1 44 -1 q21 0 42 0 q55 0 89 7 q34 7 52.5 18 q18.5 11 25 25 q6.5 14 6.5 29 q0 38 -31 57 q-31 19 -76 19 q-35 0 -63 -12.5 q-28 -12.5 -47.5 -33.5 q-19.5 -21 -30 -49 q-10.5 -28 -11.5 -59 Z" /><glyph glyph-name="nonbreakingspace" unicode="" d="" /><glyph glyph-name="exclamdown" unicode="" d="M63 458 l114 0 l0 -413 q0 -27 -16 -40 q-16 -13 -44 -13 q-18 0 -33.5 5 q-15.5 5 -20.5 7 l0 454 ZM119 696 q32 0 54.5 -22 q22.5 -22 22.5 -53 q0 -30 -22.5 -52.5 q-22.5 -22.5 -54.5 -22.5 q-31 0 -53.5 22.5 q-22.5 22.5 -22.5 52.5 q0 31 22.5 53 q22.5 22 53.5 22 Z" /><glyph glyph-name="cent" unicode="" d="M272 80 q-48 6 -89.5 25.5 q-41.5 19.5 -72.5 52.5 q-31 33 -48.5 79 q-17.5 46 -17.5 104 q0 57 17 103 q17 46 47.5 79.5 q30.5 33.5 72 54 q41.5 20.5 91.5 26.5 l0 95 q0 15 9.5 23 q9.5 8 26.5 8 q13 0 22.5 -2.5 q9.5 -2.5 11.5 -4.5 l0 -116 q46 -3 76.5 -11.5 q30.5 -8.5 48 -20.5 q17.5 -12 24.5 -26 q7 -14 7 -26 q0 -20 -13.5 -37 q-13.5 -17 -25.5 -26 q-15 14 -43.5 29 q-28.5 15 -73.5 18 l0 -328 q33 2 61 12.5 q28 10.5 48 21.5 l48 -86 q-20 -15 -60 -29.5 q-40 -14.5 -97 -18.5 l0 -115 l-70 0 l0 116 ZM272 501 q-49 -13 -79.5 -51.5 q-30.5 -38.5 -30.5 -106.5 q0 -68 31 -106 q31 -38 79 -51 l0 315 Z" /><glyph glyph-name="sterling" unicode="" d="M90 446 q0 61 19 109 q19 48 54 81 q35 33 85 50.5 q50 17.5 113 17.5 q70 0 112.5 -12 q42.5 -12 65.5 -28 q23 -16 30.5 -33 q7.5 -17 7.5 -26 q0 -24 -16.5 -41.5 q-16.5 -17.5 -29.5 -25.5 q-22 21 -62 42 q-40 21 -102 21 q-42 0 -72.5 -12.5 q-30.5 -12.5 -50 -34 q-19.5 -21.5 -29 -51.5 q-9.5 -30 -9.5 -65 l0 -39 l239 0 q32 0 45.5 -13.5 q13.5 -13.5 13.5 -39.5 q0 -17 -5.5 -32.5 q-5.5 -15.5 -8.5 -21.5 l-284 0 l0 -186 l377 0 l0 -106 l-493 0 l0 446 Z" /><glyph glyph-name="currency" unicode="" d="M51 150 l64 65 q-19 28 -29.5 60 q-10.5 32 -10.5 68 q0 36 10.5 68 q10.5 32 29.5 60 l-64 65 l70 72 l66 -67 q27 16 57.5 25 q30.5 9 64.5 9 q33 0 63.5 -9.5 q30.5 -9.5 57.5 -25.5 l66 68 l70 -72 l-64 -65 q19 -28 29.5 -60 q10.5 -32 10.5 -68 q0 -35 -10.5 -67.5 q-10.5 -32.5 -29.5 -60.5 l64 -65 l-70 -72 l-65 68 q-27 -17 -57 -26 q-30 -9 -65 -9 q-34 0 -64.5 9 q-30.5 9 -57.5 26 l-66 -68 l-70 72 ZM309 199 q29 0 54.5 11 q25.5 11 44 30.5 q18.5 19.5 29.5 46 q11 26.5 11 56.5 q0 30 -11 56 q-11 26 -29.5 45.5 q-18.5 19.5 -44 31 q-25.5 11.5 -54.5 11.5 q-29 0 -54.5 -11.5 q-25.5 -11.5 -44.5 -31 q-19 -19.5 -30 -45.5 q-11 -26 -11 -56 q0 -30 11 -56.5 q11 -26.5 30 -46 q19 -19.5 44.5 -30.5 q25.5 -11 54.5 -11 Z" /><glyph glyph-name="yen" unicode="" d="M264 152 l-148 0 q-29 0 -39 11 q-10 11 -10 28 q0 15 5 37 l192 0 l0 32 l-31 46 l-117 0 q-29 0 -39 11 q-10 11 -10 28 q0 15 5 37 l115 0 q-31 38 -61 76.5 q-30 38.5 -53 72.5 q-23 34 -37.5 61.5 q-14.5 27.5 -14.5 42.5 q0 23 13 36.5 q13 13.5 41 13.5 q19 0 31 -3.5 q12 -3.5 16 -5.5 q20 -30 44 -67.5 q24 -37.5 50.5 -77 q26.5 -39.5 54 -79.5 q27.5 -40 54.5 -75 q17 24 37.5 55 q20.5 31 41 63.5 q20.5 32.5 40.5 64.5 q20 32 37 59 q16 26 38 45.5 q22 19.5 57 19.5 q25 0 41 -9.5 q16 -9.5 20 -13.5 q-15 -26 -35.5 -58.5 q-20.5 -32.5 -44.5 -69 q-24 -36.5 -50.5 -75 q-26.5 -38.5 -53.5 -76.5 l80 0 q29 0 39 -11 q10 -11 10 -28 q0 -15 -5 -37 l-163 0 l-31 -46 l0 -32 l150 0 q29 0 39 -11 q10 -11 10 -28 q0 -15 -5 -37 l-194 0 l0 -152 l-119 0 l0 152 Z" /><glyph glyph-name="brokenbar" unicode="" d="M73 157 l105 0 l0 -289 l-105 0 l0 289 ZM73 689 q0 24 15 36 q15 12 41 12 q18 0 31 -4 q13 -4 18 -6 l0 -281 l-105 0 l0 243 Z" /><glyph glyph-name="section" unicode="" d="M165 275 q0 -44 43.5 -73 q43.5 -29 147.5 -29 q22 0 42 7 q20 7 35 19.5 q15 12.5 24 30.5 q9 18 9 39 q0 21 -9 39.5 q-9 18.5 -31.5 32.5 q-22.5 14 -60 22 q-37.5 8 -93.5 8 q-46 0 -76.5 -27 q-30.5 -27 -30.5 -69 ZM244 87 q-88 12 -141.5 56.5 q-53.5 44.5 -53.5 116.5 q0 48 23.5 85 q23.5 37 66.5 58 q-45 21 -67.5 62 q-22.5 41 -22.5 85 q0 35 13 68.5 q13 33.5 42.5 60 q29.5 26.5 78 42.5 q48.5 16 120.5 16 q119 0 180.5 -28 q61.5 -28 61.5 -66 q0 -13 -4.5 -23 q-4.5 -10 -11 -17.5 q-6.5 -7.5 -13 -12 q-6.5 -4.5 -9.5 -5.5 q-4 4 -19 13.5 q-15 9.5 -40.5 19 q-25.5 9.5 -60.5 17 q-35 7.5 -79 7.5 q-65 0 -101 -22.5 q-36 -22.5 -36 -65.5 q0 -68 96 -80 l117 -16 q55 -8 92.5 -22.5 q37.5 -14.5 61 -36 q23.5 -21.5 33.5 -49 q10 -27.5 10 -59.5 q0 -30 -9.5 -55 q-9.5 -25 -23.5 -44 q-14 -19 -30.5 -32.5 q-16.5 -13.5 -31.5 -19.5 q42 -20 68.5 -55.5 q26.5 -35.5 26.5 -89.5 q0 -42 -16 -77.5 q-16 -35.5 -48.5 -62 q-32.5 -26.5 -81 -41 q-48.5 -14.5 -113.5 -14.5 q-63 0 -113 10 q-50 10 -85.5 22 q-35.5 12 -55.5 23 q-20 11 -22 13 q12 22 24 43.5 q12 21.5 23 43.5 q3 -2 20 -11.5 q17 -9.5 46.5 -20 q29.5 -10.5 69.5 -18.5 q40 -8 90 -8 q60 0 100.5 21 q40.5 21 40.5 67 q0 34 -24.5 57 q-24.5 23 -87.5 31 l-104 14 Z" /><glyph glyph-name="dieresis" unicode="" d="M89 634 q0 12 5 23 q5 11 14 19.5 q9 8.5 20.5 13.5 q11.5 5 24.5 5 q26 0 44.5 -19 q18.5 -19 18.5 -42 q0 -23 -18.5 -42 q-18.5 -19 -44.5 -19 q-13 0 -24.5 5 q-11.5 5 -20.5 13.5 q-9 8.5 -14 19.5 q-5 11 -5 23 ZM348 695 q26 0 44 -19 q18 -19 18 -42 q0 -23 -18 -42 q-18 -19 -44 -19 q-26 0 -45 19 q-19 19 -19 42 q0 23 19 42 q19 19 45 19 Z" /><glyph glyph-name="copyright" unicode="" d="M404 711 q76 0 143 -29 q67 -29 117 -79 q50 -50 79 -117 q29 -67 29 -143 q0 -76 -29 -143 q-29 -67 -79 -117 q-50 -50 -117 -79 q-67 -29 -143 -29 q-76 0 -143 29 q-67 29 -117 79 q-50 50 -79 117 q-29 67 -29 143 q0 76 29 143 q29 67 79 117 q50 50 117 79 q67 29 143 29 ZM683 343 q0 60 -22 112.5 q-22 52.5 -59.5 91.5 q-37.5 39 -88.5 61.5 q-51 22.5 -109 22.5 q-58 0 -108.5 -22.5 q-50.5 -22.5 -88 -61.5 q-37.5 -39 -59.5 -91.5 q-22 -52.5 -22 -112.5 q0 -60 22 -112.5 q22 -52.5 59.5 -91.5 q37.5 -39 88 -61.5 q50.5 -22.5 108.5 -22.5 q58 0 109 22.5 q51 22.5 88.5 61.5 q37.5 39 59.5 91.5 q22 52.5 22 112.5 ZM562 176 q-7 -5 -19 -12 q-12 -7 -30 -13.5 q-18 -6.5 -41.5 -11 q-23.5 -4.5 -53.5 -4.5 q-43 0 -81.5 13.5 q-38.5 13.5 -67.5 39.5 q-29 26 -46 64.5 q-17 38.5 -17 88.5 q0 50 17 89 q17 39 45.5 65.5 q28.5 26.5 67 40.5 q38.5 14 82.5 14 q63 0 101 -21 q38 -21 38 -46 q0 -18 -12 -33 q-12 -15 -21 -20 q-12 13 -41 26.5 q-29 13.5 -64 13.5 q-51 0 -84.5 -33.5 q-33.5 -33.5 -33.5 -95.5 q0 -31 9.5 -54.5 q9.5 -23.5 26.5 -39 q17 -15.5 40 -23.5 q23 -8 50 -8 q34 0 59 9.5 q25 9.5 39 18.5 l37 -68 Z" /><glyph glyph-name="ordfeminine" unicode="" d="M373 330 q-24 -4 -68.5 -8.5 q-44.5 -4.5 -93.5 -4.5 q-60 0 -97.5 11 q-37.5 11 -57.5 28.5 q-20 17.5 -27 39.5 q-7 22 -7 44 q0 27 8.5 49.5 q8.5 22.5 29.5 38 q21 15.5 55.5 24 q34.5 8.5 85.5 8.5 q22 0 46 -2 q24 -2 40 -4 q0 23 -8.5 38.5 q-8.5 15.5 -22.5 24.5 q-14 9 -33.5 13 q-19.5 4 -40.5 4 q-42 0 -68 -11 q-26 -11 -32 -16 q-5 3 -15 15 q-10 12 -10 24 q0 9 4 19 q4 10 17 18.5 q13 8.5 38 14.5 q25 6 66 6 q91 0 141 -37.5 q50 -37.5 50 -118.5 l0 -218 ZM287 492 q-8 2 -30 4 q-22 2 -56 2 q-43 0 -67.5 -12.5 q-24.5 -12.5 -24.5 -45.5 q0 -28 24 -41.5 q24 -13.5 81 -13.5 q30 0 47.5 1.5 q17.5 1.5 25.5 3.5 l0 102 Z" /><glyph glyph-name="guillemotleft" unicode="" d="M55 202 q-9 9 -16 21.5 q-7 12.5 -7 25.5 q0 12 5 21.5 q5 9.5 12 17.5 l170 186 l67 -60 l-139 -164 l139 -160 l-67 -60 l-164 172 ZM307 202 q-8 9 -14.5 21 q-6.5 12 -6.5 25 q0 12 4.5 22.5 q4.5 10.5 10.5 17.5 l170 186 l68 -60 l-140 -164 l140 -160 l-68 -60 l-164 172 Z" /><glyph glyph-name="logicalnot" unicode="" d="M519 475 q29 0 41 -14.5 q12 -14.5 12 -40.5 l0 -239 l-112 0 l0 188 l-358 0 q-29 0 -41 15 q-12 15 -12 41 q0 17 4.5 31 q4.5 14 6.5 19 l459 0 Z" /><glyph glyph-name="uni00AD" unicode="" d="M244 328 q29 0 41 -16.5 q12 -16.5 12 -41.5 q0 -16 -4 -30.5 q-4 -14.5 -7 -21.5 l-201 0 q-29 0 -40.5 16 q-11.5 16 -11.5 42 q0 17 4 31 q4 14 7 21 l200 0 Z" /><glyph glyph-name="registered" unicode="" d="M243 505 q0 15 5 24.5 q5 9.5 19 15 q14 5.5 40 7 q26 1.5 68 1.5 q95 0 141.5 -34 q46.5 -34 46.5 -96 q0 -41 -19 -67.5 q-19 -26.5 -51 -41.5 q12 -17 23.5 -37 q11.5 -20 23 -42 q11.5 -22 21.5 -43.5 q10 -21.5 19 -40.5 l-95 0 q-4 9 -13 28 q-9 19 -20 40 q-11 21 -22 41 q-11 20 -19 32 q-5 -1 -17 -1.5 q-12 -0.5 -23 -0.5 q-10 0 -24 0.5 q-14 0.5 -22 2.5 l0 -142 l-82 0 l0 354 ZM325 364 q7 -1 19 -1.5 q12 -0.5 38 -0.5 q49 0 70.5 16 q21.5 16 21.5 44 q0 25 -21 43 q-21 18 -77 18 q-23 0 -34.5 -1 q-11.5 -1 -16.5 -2 l0 -116 ZM404 711 q76 0 143 -29 q67 -29 117 -79 q50 -50 79 -117 q29 -67 29 -143 q0 -76 -29 -143 q-29 -67 -79 -117 q-50 -50 -117 -79 q-67 -29 -143 -29 q-76 0 -143 29 q-67 29 -117 79 q-50 50 -79 117 q-29 67 -29 143 q0 76 29 143 q29 67 79 117 q50 50 117 79 q67 29 143 29 ZM683 343 q0 60 -22 112.5 q-22 52.5 -59.5 91.5 q-37.5 39 -88.5 61.5 q-51 22.5 -109 22.5 q-58 0 -108.5 -22.5 q-50.5 -22.5 -88 -61.5 q-37.5 -39 -59.5 -91.5 q-22 -52.5 -22 -112.5 q0 -60 22 -112.5 q22 -52.5 59.5 -91.5 q37.5 -39 88 -61.5 q50.5 -22.5 108.5 -22.5 q58 0 109 22.5 q51 22.5 88.5 61.5 q37.5 39 59.5 91.5 q22 52.5 22 112.5 Z" /><glyph glyph-name="macron" unicode="" d="M371 676 q23 0 31.5 -11.5 q8.5 -11.5 8.5 -29.5 q0 -14 -3 -24.5 q-3 -10.5 -5 -13.5 l-276 0 q-22 0 -31 11 q-9 11 -9 30 q0 14 3 23.5 q3 9.5 5 14.5 l276 0 Z" /><glyph glyph-name="degree" unicode="" d="M204 737 q38 0 71.5 -14 q33.5 -14 58 -38 q24.5 -24 39 -57 q14.5 -33 14.5 -71 q0 -38 -14.5 -70.5 q-14.5 -32.5 -39 -56.5 q-24.5 -24 -58 -38 q-33.5 -14 -71.5 -14 q-38 0 -71.5 14 q-33.5 14 -58 38 q-24.5 24 -39 56.5 q-14.5 32.5 -14.5 70.5 q0 38 14.5 71 q14.5 33 39 57 q24.5 24 58 38 q33.5 14 71.5 14 ZM204 458 q21 0 39 8 q18 8 31.5 21.5 q13.5 13.5 21.5 31.5 q8 18 8 38 q0 21 -8 39.5 q-8 18.5 -21.5 32 q-13.5 13.5 -31.5 21.5 q-18 8 -39 8 q-20 0 -37.5 -8 q-17.5 -8 -31 -21.5 q-13.5 -13.5 -21.5 -32 q-8 -18.5 -8 -39.5 q0 -20 8 -38 q8 -18 21.5 -31.5 q13.5 -13.5 31 -21.5 q17.5 -8 37.5 -8 Z" /><glyph glyph-name="plusminus" unicode="" d="M261 107 l0 179 l-153 0 q-29 0 -41 15.5 q-12 15.5 -12 41.5 q0 17 4.5 31 q4.5 14 6.5 19 l195 0 l0 158 q0 27 15.5 40 q15.5 13 43.5 13 q18 0 33 -4.5 q15 -4.5 20 -7.5 l0 -199 l152 0 q29 0 41 -15 q12 -15 12 -41 q0 -18 -4.5 -32 q-4.5 -14 -6.5 -19 l-194 0 l0 -179 l152 0 q29 0 41 -15 q12 -15 12 -41 q0 -18 -4.5 -32 q-4.5 -14 -6.5 -19 l-459 0 q-29 0 -41 15.5 q-12 15.5 -12 41.5 q0 17 4.5 31 q4.5 14 6.5 19 l195 0 Z" /><glyph glyph-name="twosuperior" unicode="" d="M49 372 q16 9 40 23.5 q24 14.5 51 32 q27 17.5 53.5 38 q26.5 20.5 47.5 41.5 q21 21 34.5 42.5 q13.5 21.5 13.5 42.5 q0 29 -19 46 q-19 17 -58 17 q-24 0 -43 -8 q-19 -8 -32.5 -18.5 q-13.5 -10.5 -21 -20.5 q-7.5 -10 -8.5 -14 q-9 1 -18.5 5 q-9.5 4 -17.5 11 q-8 7 -13.5 16.5 q-5.5 9.5 -5.5 20.5 q0 10 8 25 q8 15 27.5 29.5 q19.5 14.5 51.5 25 q32 10.5 79 10.5 q83 0 130 -36 q47 -36 47 -101 q0 -41 -19 -74 q-19 -33 -47 -60 q-28 -27 -61 -47.5 q-33 -20.5 -60 -36.5 l192 0 l0 -84 l-351 0 l0 74 Z" /><glyph glyph-name="threesuperior" unicode="" d="M68 402 q6 -3 19 -9 q13 -6 32 -11.5 q19 -5.5 43 -9.5 q24 -4 50 -4 q43 0 66.5 14.5 q23.5 14.5 23.5 41.5 q0 26 -23 40 q-23 14 -71 14 l-42 0 q-3 3 -9.5 14.5 q-6.5 11.5 -6.5 26.5 q0 19 10.5 26.5 q10.5 7.5 30.5 7.5 l18 0 q43 0 64.5 14 q21.5 14 21.5 40 q0 23 -20.5 37 q-20.5 14 -64.5 14 q-27 0 -47.5 -6 q-20.5 -6 -34.5 -14.5 q-14 -8.5 -21.5 -16.5 q-7.5 -8 -8.5 -11 q-7 1 -15 4.5 q-8 3.5 -15.5 8.5 q-7.5 5 -12.5 13 q-5 8 -5 18 q0 11 4.5 20 q4.5 9 12.5 18 q5 5 16 13 q11 8 29.5 15 q18.5 7 44.5 12 q26 5 61 5 q51 0 85.5 -11 q34.5 -11 56.5 -28.5 q22 -17.5 31.5 -39 q9.5 -21.5 9.5 -41.5 q0 -35 -19 -60 q-19 -25 -49 -39 q40 -14 58 -40.5 q18 -26.5 18 -61.5 q0 -54 -47.5 -91.5 q-47.5 -37.5 -137.5 -37.5 q-37 0 -68.5 5 q-31.5 5 -56 12 q-24.5 7 -41 14 q-16.5 7 -22.5 10 l32 74 Z" /><glyph glyph-name="acute" unicode="" d="M140 618 l109 79 q15 11 27.5 16.5 q12.5 5.5 26.5 5.5 q16 0 27.5 -7.5 q11.5 -7.5 18 -18 q6.5 -10.5 10 -20.5 q3.5 -10 3.5 -14 l-185 -93 l-37 52 Z" /><glyph glyph-name="mu" unicode="" d="M58 449 q0 28 16 40.5 q16 12.5 45 12.5 q18 0 33 -4.5 q15 -4.5 20 -6.5 l0 -270 q0 -71 43.5 -105 q43.5 -34 124.5 -34 q31 0 55.5 3.5 q24.5 3.5 33.5 5.5 l0 358 q0 28 16 40.5 q16 12.5 44 12.5 q19 0 34 -4.5 q15 -4.5 20 -6.5 l0 -491 q-4 -1 -20 -3 q-16 -2 -41.5 -4.5 q-25.5 -2.5 -57.5 -4.5 q-32 -2 -68 -2 q-79 0 -123.5 20.5 q-44.5 20.5 -61.5 42.5 l0 -249 l-113 0 l0 649 Z" /><glyph glyph-name="paragraph" unicode="" d="M265 235 q-54 4 -94.5 23.5 q-40.5 19.5 -67.5 49.5 q-27 30 -40.5 70 q-13.5 40 -13.5 87 q0 52 19 95 q19 43 54.5 73 q35.5 30 86.5 46.5 q51 16.5 115 16.5 q72 0 113.5 -4 q41.5 -4 56.5 -6 q23 -4 38.5 -18.5 q15.5 -14.5 15.5 -46.5 l0 -821 l-88 0 l0 808 q-13 2 -44.5 3.5 q-31.5 1.5 -62.5 1.5 l0 -813 l-88 0 l0 435 Z" /><glyph glyph-name="periodcentered" unicode="" d="M73 343 q0 16 6 30 q6 14 16.5 24.5 q10.5 10.5 25 16.5 q14.5 6 30.5 6 q32 0 54.5 -22.5 q22.5 -22.5 22.5 -54.5 q0 -16 -6 -30.5 q-6 -14.5 -16.5 -25 q-10.5 -10.5 -24.5 -17 q-14 -6.5 -30 -6.5 q-32 0 -55 23.5 q-23 23.5 -23 55.5 Z" /><glyph glyph-name="cedilla" unicode="" d="M160 -132 q1 -1 8 -4 q7 -3 17.5 -6.5 q10.5 -3.5 23.5 -6 q13 -2.5 28 -2.5 q21 0 32.5 7 q11.5 7 11.5 24 q0 10 -5.5 16.5 q-5.5 6.5 -14 10.5 q-8.5 4 -18 6 q-9.5 2 -17.5 2 l15 52 q21 -1 42.5 -6 q21.5 -5 39.5 -15 q18 -10 29.5 -26 q11.5 -16 11.5 -38 q0 -43 -32 -68 q-32 -25 -86 -25 q-26 0 -46 3.5 q-20 3.5 -34 8 q-14 4.5 -21.5 8.5 q-7.5 4 -8.5 5 l24 54 Z" /><glyph glyph-name="onesuperior" unicode="" d="M209 624 l-95 -60 q-3 1 -11 4.5 q-8 3.5 -15.5 9.5 q-7.5 6 -13.5 14.5 q-6 8.5 -6 19.5 q0 15 8 25.5 q8 10.5 25 21.5 l107 64 q11 7 22.5 10.5 q11.5 3.5 25.5 3.5 q20 0 33 -7 q13 -7 19 -12 l0 -420 l-99 0 l0 326 Z" /><glyph glyph-name="ordmasculine" unicode="" d="M228 704 q43 0 79.5 -15 q36.5 -15 63.5 -41 q27 -26 42.5 -61.5 q15.5 -35.5 15.5 -76.5 q0 -40 -15.5 -75 q-15.5 -35 -42.5 -61.5 q-27 -26.5 -63.5 -41.5 q-36.5 -15 -79.5 -15 q-43 0 -80 15 q-37 15 -64 41.5 q-27 26.5 -42.5 61.5 q-15.5 35 -15.5 75 q0 41 15.5 76.5 q15.5 35.5 42.5 61.5 q27 26 64 41 q37 15 80 15 ZM228 399 q47 0 75.5 32.5 q28.5 32.5 28.5 78.5 q0 48 -28.5 80.5 q-28.5 32.5 -75.5 32.5 q-48 0 -76 -32.5 q-28 -32.5 -28 -80.5 q0 -46 28.5 -78.5 q28.5 -32.5 75.5 -32.5 Z" /><glyph glyph-name="guillemotright" unicode="" d="M426 255 l-140 159 l68 60 l164 -173 q8 -8 14.5 -20.5 q6.5 -12.5 6.5 -25.5 q0 -12 -4.5 -22.5 q-4.5 -10.5 -10.5 -17.5 l-170 -185 l-68 60 l140 165 ZM173 255 l-140 159 l68 60 l164 -173 q8 -8 14.5 -20 q6.5 -12 6.5 -25 q0 -12 -4.5 -22.5 q-4.5 -10.5 -10.5 -17.5 l-170 -186 l-68 60 l140 165 Z" /><glyph glyph-name="questiondown" unicode="" d="M363 474 q0 -31 -3.5 -54 q-3.5 -23 -13.5 -41.5 q-10 -18.5 -26.5 -33.5 q-16.5 -15 -41.5 -30 q-58 -33 -86.5 -62 q-28.5 -29 -28.5 -74 q0 -43 32 -74 q32 -31 104 -31 q33 0 60 8.5 q27 8.5 47 21.5 q20 13 33 28 q13 15 20 29 q28 -7 42.5 -24 q14.5 -17 14.5 -39 q0 -20 -13.5 -41.5 q-13.5 -21.5 -41.5 -39 q-28 -17.5 -70 -29 q-42 -11.5 -99 -11.5 q-66 0 -113 16.5 q-47 16.5 -77 43.5 q-30 27 -43.5 62 q-13.5 35 -13.5 72 q0 39 10.5 69 q10.5 30 27.5 53 q17 23 40 41 q23 18 47 33 q22 14 37 25.5 q15 11.5 24.5 23.5 q9.5 12 13.5 25.5 q4 13.5 4 32.5 l114 0 ZM230 622 q0 31 22.5 52.5 q22.5 21.5 53.5 21.5 q32 0 54.5 -21.5 q22.5 -21.5 22.5 -52.5 q0 -30 -22.5 -52.5 q-22.5 -22.5 -54.5 -22.5 q-31 0 -53.5 22.5 q-22.5 22.5 -22.5 52.5 Z" /><glyph glyph-name="Aring" unicode="" d="M5 0 q25 67 56 144.5 q31 77.5 65 159 q34 81.5 70.5 165.5 q36.5 84 72.5 164 q7 16 15 27.5 q8 11.5 17 19.5 q-17 14 -27.5 34 q-10.5 20 -10.5 43 q0 21 8 39 q8 18 22 32 q14 14 33 22 q19 8 40 8 q21 0 40 -8 q19 -8 33 -22 q14 -14 22 -32 q8 -18 8 -39 q0 -23 -9.5 -42.5 q-9.5 -19.5 -26.5 -33.5 q6 -6 11 -13.5 q5 -7.5 9 -15.5 q18 -35 43.5 -91 q25.5 -56 53.5 -121.5 q28 -65.5 56.5 -134.5 q28.5 -69 53 -130 q24.5 -61 42.5 -108 q18 -47 25 -67 l-131 0 q-5 12 -13 34 q-8 22 -17.5 47.5 q-9.5 25.5 -19.5 51.5 q-10 26 -18 46 l-335 0 q-22 -55 -39.5 -101.5 q-17.5 -46.5 -29.5 -77.5 l-119 0 ZM488 284 q-14 37 -32 81.5 q-18 44.5 -35.5 87 q-17.5 42.5 -33 77.5 q-15.5 35 -24.5 53 q-13 -28 -29 -63.5 q-16 -35.5 -33 -75 q-17 -39.5 -34 -80.5 q-17 -41 -32 -80 l253 0 ZM366 707 q23 0 36 14 q13 14 13 36 q0 22 -13 35.5 q-13 13.5 -36 13.5 q-21 0 -34 -13.5 q-13 -13.5 -13 -35.5 q0 -22 13 -36 q13 -14 34 -14 Z" /><glyph glyph-name="AE" unicode="" d="M-1 0 q49 86 101.5 172 q52.5 86 102.5 165.5 q50 79.5 94.5 148.5 q44.5 69 78.5 121 q15 24 29 39.5 q14 15.5 28 24 q14 8.5 29.5 12 q15.5 3.5 34.5 3.5 l482 0 q59 0 59 -54 q0 -19 -6 -34.5 q-6 -15.5 -9 -20.5 l-363 0 l0 -172 l304 0 q60 0 60 -54 q0 -19 -6 -34.5 q-6 -15.5 -10 -20.5 l-348 0 l0 -187 l372 0 l0 -109 l-493 0 l0 200 l-293 0 q-36 -60 -67.5 -112 q-31.5 -52 -52.5 -88 l-127 0 ZM539 307 l0 269 l-56 0 q-9 -13 -31 -47 q-22 -34 -48.5 -75 q-26.5 -41 -52 -81.5 q-25.5 -40.5 -42.5 -65.5 l230 0 Z" /><glyph glyph-name="Eth" unicode="" d="M105 304 l-44 0 q-25 0 -35.5 13.5 q-10.5 13.5 -10.5 36.5 q0 15 4 26.5 q4 11.5 6 16.5 l80 0 l0 224 q0 26 10 41 q10 15 35.5 22.5 q25.5 7.5 68 9.5 q42.5 2 108.5 2 q95 0 170.5 -24.5 q75.5 -24.5 128 -70 q52.5 -45.5 80.5 -111 q28 -65.5 28 -146.5 q0 -82 -27 -147.5 q-27 -65.5 -79.5 -111.5 q-52.5 -46 -130 -70.5 q-77.5 -24.5 -178.5 -24.5 q-107 0 -158 4.5 q-51 4.5 -56 5.5 l0 304 ZM224 104 q6 -2 32 -4.5 q26 -2.5 73 -2.5 q136 0 208 64.5 q72 64.5 72 182.5 q0 54 -16.5 99.5 q-16.5 45.5 -50.5 78 q-34 32.5 -87 51 q-53 18.5 -126 18.5 q-48 0 -74.5 -2.5 q-26.5 -2.5 -30.5 -3.5 l0 -188 l128 0 q26 0 36 -13 q10 -13 10 -36 q0 -16 -4 -27.5 q-4 -11.5 -6 -16.5 l-164 0 l0 -200 Z" /><glyph glyph-name="multiply" unicode="" d="M242 341 l-116 114 q-19 19 -19 36 q0 13 8.5 25 q8.5 12 20 21 q11.5 9 22 15 q10.5 6 14.5 8 l143 -146 l116 118 q18 18 37 18 q13 0 25 -8.5 q12 -8.5 21.5 -19.5 q9.5 -11 15.5 -22 q6 -11 8 -16 l-148 -145 l117 -114 q18 -17 18 -36 q0 -14 -8.5 -26 q-8.5 -12 -19.5 -21 q-11 -9 -21.5 -14.5 q-10.5 -5.5 -14.5 -7.5 l-144 146 l-115 -118 q-17 -17 -36 -17 q-14 0 -26.5 8.5 q-12.5 8.5 -22 19.5 q-9.5 11 -15.5 21.5 q-6 10.5 -7 15.5 l147 145 Z" /><glyph glyph-name="Oslash" unicode="" d="M198 44 q-73 48 -114 125.5 q-41 77.5 -41 173.5 q0 77 28 143 q28 66 77.5 114.5 q49.5 48.5 116 76 q66.5 27.5 144.5 27.5 q32 0 63 -5.5 q31 -5.5 60 -16.5 l27 52 q11 20 23 31 q12 11 38 11 q23 0 41 -9.5 q18 -9.5 22 -12.5 l-60 -115 q70 -49 111 -125.5 q41 -76.5 41 -170.5 q0 -77 -28 -143 q-28 -66 -77.5 -114.5 q-49.5 -48.5 -116 -76 q-66.5 -27.5 -144.5 -27.5 q-63 0 -120 20 l-47 -90 l-112 0 l68 132 ZM482 581 q-15 7 -34 10.5 q-19 3.5 -39 3.5 q-52 0 -96 -18.5 q-44 -18.5 -76.5 -52 q-32.5 -33.5 -50.5 -80 q-18 -46.5 -18 -101.5 q0 -60 22.5 -110 q22.5 -50 60.5 -84 l231 432 ZM340 103 q14 -6 33 -9 q19 -3 36 -3 q52 0 96 19 q44 19 76 52.5 q32 33.5 50.5 79.5 q18.5 46 18.5 101 q0 60 -21.5 109 q-21.5 49 -58.5 82 l-230 -431 Z" /><glyph glyph-name="Thorn" unicode="" d="M73 631 q0 28 16.5 41.5 q16.5 13.5 45.5 13.5 q19 0 34 -4.5 q15 -4.5 20 -6.5 l0 -104 q11 1 42.5 2.5 q31.5 1.5 74.5 1.5 q160 0 238 -63 q78 -63 78 -168 q0 -49 -16.5 -91.5 q-16.5 -42.5 -52.5 -73.5 q-36 -31 -94 -48.5 q-58 -17.5 -141 -17.5 q-21 0 -42.5 1.5 q-21.5 1.5 -39.5 3 q-18 1.5 -31 3.5 q-13 2 -16 2 l0 -123 l-116 0 l0 631 ZM189 224 q7 -1 39 -5.5 q32 -4.5 82 -4.5 q55 0 92 10 q37 10 58.5 28 q21.5 18 30.5 41.5 q9 23.5 9 50.5 q0 25 -8 48.5 q-8 23.5 -30 41.5 q-22 18 -60.5 29 q-38.5 11 -98.5 11 q-48 0 -77 -2 q-29 -2 -37 -4 l0 -244 Z" /><glyph glyph-name="germandbls" unicode="" d="M53 522 q0 46 13.5 85.5 q13.5 39.5 43 68 q29.5 28.5 74.5 45 q45 16.5 108 16.5 q63 0 107 -16.5 q44 -16.5 71 -42.5 q27 -26 39 -57 q12 -31 12 -61 q0 -26 -7 -48.5 q-7 -22.5 -18.5 -41.5 q-11.5 -19 -26.5 -32.5 q-15 -13.5 -31 -20.5 q32 -8 60 -23.5 q28 -15.5 49 -41 q21 -25.5 33 -60.5 q12 -35 12 -81 q0 -52 -18.5 -93.5 q-18.5 -41.5 -50.5 -71 q-32 -29.5 -75.5 -45 q-43.5 -15.5 -93.5 -15.5 q-50 0 -83 9 q-33 9 -40 13 l19 91 q3 -2 12 -4.5 q9 -2.5 21.5 -5 q12.5 -2.5 27 -4.5 q14.5 -2 29.5 -2 q34 0 59 10 q25 10 41.5 28 q16.5 18 24.5 42 q8 24 8 52 q0 35 -11.5 61 q-11.5 26 -31.5 43.5 q-20 17.5 -47.5 26 q-27.5 8.5 -59.5 8.5 l-58 0 l0 92 l34 0 q27 0 47.5 8.5 q20.5 8.5 34 22.5 q13.5 14 20 32.5 q6.5 18.5 6.5 39.5 q0 42 -30.5 71 q-30.5 29 -86.5 29 q-35 0 -58.5 -10 q-23.5 -10 -38 -27.5 q-14.5 -17.5 -21 -41 q-6.5 -23.5 -6.5 -51.5 l0 -519 l-113 0 l0 522 Z" /><glyph glyph-name="ae" unicode="" d="M426 110 q-8 14 -19.5 46 q-11.5 32 -12.5 69 q-10 2 -41 5.5 q-31 3.5 -76 3.5 q-68 0 -99 -20.5 q-31 -20.5 -31 -64.5 q0 -36 28 -58 q28 -22 102 -22 q32 0 58.5 6 q26.5 6 46 13 q19.5 7 31 13.5 q11.5 6.5 13.5 8.5 ZM861 37 q-8 -5 -25 -13.5 q-17 -8.5 -41 -16.5 q-24 -8 -55 -14 q-31 -6 -68 -6 q-64 0 -114.5 18.5 q-50.5 18.5 -75.5 38.5 q-2 -2 -17.5 -11.5 q-15.5 -9.5 -43 -20 q-27.5 -10.5 -66 -18.5 q-38.5 -8 -87.5 -8 q-70 0 -115.5 13.5 q-45.5 13.5 -72 36 q-26.5 22.5 -37 52 q-10.5 29.5 -10.5 60.5 q0 41 12.5 72 q12.5 31 40.5 52 q28 21 72.5 32 q44.5 11 108.5 11 q20 0 41.5 -1.5 q21.5 -1.5 39.5 -3 q18 -1.5 31.5 -3 q13.5 -1.5 17.5 -2.5 q0 34 -11.5 57 q-11.5 23 -31.5 37 q-20 14 -48.5 20 q-28.5 6 -62.5 6 q-60 0 -93 -13.5 q-33 -13.5 -44 -22.5 q-6 5 -16.5 19 q-10.5 14 -10.5 34 q0 15 8 28.5 q8 13.5 27 23.5 q19 10 51 16 q32 6 80 6 q95 0 149.5 -27.5 q54.5 -27.5 72.5 -64.5 q12 16 32 32.5 q20 16.5 46.5 30 q26.5 13.5 59 21.5 q32.5 8 68.5 8 q50 0 88.5 -13 q38.5 -13 65 -35.5 q26.5 -22.5 40 -52.5 q13.5 -30 13.5 -65 q0 -35 -13 -63 q-13 -28 -43.5 -48 q-30.5 -20 -81 -31 q-50.5 -11 -124.5 -11 q-33 0 -64 2 q-31 2 -40 4 q6 -55 48.5 -88 q42.5 -33 120.5 -33 q26 0 48 4 q22 4 39.5 10 q17.5 6 29.5 12 q12 6 18 9 l43 -80 ZM510 280 q8 -1 30.5 -2.5 q22.5 -1.5 41.5 -1.5 q60 0 97 6 q37 6 57 16.5 q20 10.5 26.5 24.5 q6.5 14 6.5 29 q0 38 -31 57 q-31 19 -76 19 q-36 0 -64.5 -12.5 q-28.5 -12.5 -48 -33.5 q-19.5 -21 -29.5 -47.5 q-10 -26.5 -10 -54.5 Z" /><glyph glyph-name="eth" unicode="" d="M154 569 l108 59 q-20 11 -40.5 20 q-20.5 9 -42.5 17 l33 72 q76 -24 140 -60 l110 60 l32 -59 l-81 -44 q82 -66 128.5 -157 q46.5 -91 46.5 -203 q0 -72 -20 -126 q-20 -54 -56 -90 q-36 -36 -87 -54 q-51 -18 -112 -18 q-61 0 -111.5 17.5 q-50.5 17.5 -87 50 q-36.5 32.5 -56.5 77.5 q-20 45 -20 100 q0 55 20 100 q20 45 53.5 76.5 q33.5 31.5 78.5 49 q45 17.5 96 17.5 q31 0 57.5 -5.5 q26.5 -5.5 47 -14.5 q20.5 -9 35 -19.5 q14.5 -10.5 22.5 -20.5 q-9 36 -39.5 83 q-30.5 47 -83.5 89 l-138 -76 l-33 59 ZM313 79 q35 0 64 11.5 q29 11.5 49.5 31.5 q20.5 20 31.5 48 q11 28 11 61 q0 33 -11 61 q-11 28 -31.5 48.5 q-20.5 20.5 -49.5 31.5 q-29 11 -64 11 q-35 0 -64 -11 q-29 -11 -49.5 -31.5 q-20.5 -20.5 -31.5 -48.5 q-11 -28 -11 -61 q0 -33 11.5 -61 q11.5 -28 32 -48 q20.5 -20 49 -31.5 q28.5 -11.5 63.5 -11.5 Z" /><glyph glyph-name="divide" unicode="" d="M525 393 q29 0 41 -15 q12 -15 12 -41 q0 -18 -4.5 -32 q-4.5 -14 -6.5 -19 l-459 0 q-29 0 -41 15.5 q-12 15.5 -12 41.5 q0 17 4.5 31 q4.5 14 6.5 19 l459 0 ZM318 607 q31 0 52.5 -21.5 q21.5 -21.5 21.5 -52.5 q0 -31 -21.5 -53 q-21.5 -22 -52.5 -22 q-32 0 -53.5 22 q-21.5 22 -21.5 53 q0 31 21.5 52.5 q21.5 21.5 53.5 21.5 ZM318 221 q31 0 52.5 -22 q21.5 -22 21.5 -53 q0 -31 -21.5 -52.5 q-21.5 -21.5 -52.5 -21.5 q-32 0 -53.5 21.5 q-21.5 21.5 -21.5 52.5 q0 31 21.5 53 q21.5 22 53.5 22 Z" /><glyph glyph-name="oslash" unicode="" d="M156 31 q-54 36 -86 93 q-32 57 -32 127 q0 57 21 105.5 q21 48.5 58 84 q37 35.5 87.5 55.5 q50.5 20 108.5 20 q47 0 93 -16 l20 40 q8 15 18 23.5 q10 8.5 27 8.5 q18 0 31.5 -7 q13.5 -7 16.5 -10 l-47 -86 q54 -36 85 -92.5 q31 -56.5 31 -125.5 q0 -56 -21 -104.5 q-21 -48.5 -58 -84 q-37 -35.5 -87.5 -56 q-50.5 -20.5 -108.5 -20.5 q-46 0 -90 14 l-37 -69 l-82 0 l52 100 ZM358 409 q-21 8 -45 8 q-35 0 -64 -12.5 q-29 -12.5 -50 -35 q-21 -22.5 -32.5 -53 q-11.5 -30.5 -11.5 -65.5 q0 -38 13 -69.5 q13 -31.5 38 -54.5 l152 282 ZM270 92 q9 -3 20.5 -5 q11.5 -2 22.5 -2 q35 0 64 13 q29 13 50 35.5 q21 22.5 32.5 52.5 q11.5 30 11.5 65 q0 37 -12.5 68 q-12.5 31 -35.5 53 l-153 -280 Z" /><glyph glyph-name="thorn" unicode="" d="M46 684 q0 27 16.5 40 q16.5 13 44.5 13 q18 0 33 -4.5 q15 -4.5 20 -6.5 l0 -287 q6 7 20 20 q14 13 35.5 26 q21.5 13 50 22 q28.5 9 64.5 9 q55 0 101.5 -19.5 q46.5 -19.5 81 -55 q34.5 -35.5 54 -84 q19.5 -48.5 19.5 -105.5 q0 -59 -19.5 -107.5 q-19.5 -48.5 -54 -83.5 q-34.5 -35 -81 -54.5 q-46.5 -19.5 -101.5 -19.5 q-57 0 -101 22 q-44 22 -69 54 l0 -263 l-114 0 l0 884 ZM314 88 q34 0 62.5 12.5 q28.5 12.5 49 34.5 q20.5 22 31.5 52 q11 30 11 65 q0 34 -11 63.5 q-11 29.5 -31.5 51 q-20.5 21.5 -49 34 q-28.5 12.5 -62.5 12.5 q-34 0 -62.5 -12 q-28.5 -12 -49 -33 q-20.5 -21 -32 -50.5 q-11.5 -29.5 -11.5 -65.5 q0 -35 11.5 -65 q11.5 -30 31.5 -52 q20 -22 48.5 -34.5 q28.5 -12.5 63.5 -12.5 Z" /><glyph glyph-name="Aogonek" unicode="&#x104;" d="M5 0 q25 67 56 144.5 q31 77.5 65 159 q34 81.5 70.5 165.5 q36.5 84 72.5 164 q18 40 41 55.5 q23 15.5 58 15.5 q13 0 25.5 -3 q12.5 -3 22 -7 q9.5 -4 16 -7.5 q6.5 -3.5 7.5 -4.5 q16 -28 41.5 -83 q25.5 -55 55 -123.5 q29.5 -68.5 60.5 -143 q31 -74.5 57.5 -141 q26.5 -66.5 46.5 -118 q20 -51.5 28 -73.5 l-47 0 q-15 -4 -29.5 -10.5 q-14.5 -6.5 -26 -15.5 q-11.5 -9 -18.5 -20.5 q-7 -11.5 -7 -25.5 q0 -19 13.5 -26.5 q13.5 -7.5 31.5 -7.5 q25 0 43 8 q18 8 21 10 l25 -57 q-11 -6 -38.5 -15.5 q-27.5 -9.5 -68.5 -9.5 q-49 0 -80 19 q-31 19 -31 63 q0 25 10 42 q10 17 23 28 q13 11 25.5 16.5 q12.5 5.5 18.5 7.5 q-5 14 -13 36 q-8 22 -17 46 q-9 24 -18.5 48 q-9.5 24 -16.5 43 l-335 0 q-22 -55 -39.5 -101.5 q-17.5 -46.5 -28.5 -77.5 l-120 0 ZM488 284 q-14 37 -32 81.5 q-18 44.5 -35.5 87 q-17.5 42.5 -33 77.5 q-15.5 35 -24.5 53 q-13 -28 -29 -63.5 q-16 -35.5 -33 -75 q-17 -39.5 -34 -80.5 q-17 -41 -32 -80 l253 0 Z" /><glyph glyph-name="aogonek" unicode="&#x105;" d="M510 2 q-8 -2 -22.5 -3.5 q-14.5 -1.5 -34.5 -3.5 q-29 -8 -53 -26 q-24 -18 -24 -46 q0 -21 14 -29 q14 -8 34 -8 q25 0 42.5 7.5 q17.5 7.5 20.5 9.5 l23 -53 q-11 -6 -37.5 -15 q-26.5 -9 -67.5 -9 q-48 0 -78.5 18.5 q-30.5 18.5 -30.5 61.5 q0 32 16 51.5 q16 19.5 33 29.5 q-14 0 -28 -0.5 q-14 -0.5 -29 -0.5 q-78 0 -127.5 13.5 q-49.5 13.5 -78 36 q-28.5 22.5 -39 52 q-10.5 29.5 -10.5 60.5 q0 41 12.5 72 q12.5 31 41 52 q28.5 21 74.5 31.5 q46 10.5 112 10.5 q38 0 72 -2.5 q34 -2.5 51 -4.5 q0 35 -11.5 58 q-11.5 23 -31.5 36 q-20 13 -48 18 q-28 5 -62 5 q-57 0 -91.5 -13 q-34.5 -13 -45.5 -22 q-6 5 -16.5 19 q-10.5 14 -10.5 34 q0 14 7.5 27.5 q7.5 13.5 26.5 24 q19 10.5 51 16.5 q32 6 81 6 q59 0 107.5 -11.5 q48.5 -11.5 83.5 -36.5 q35 -25 54.5 -66 q19.5 -41 19.5 -99 l0 -301 ZM397 224 q-10 2 -37.5 6 q-27.5 4 -82.5 4 q-68 0 -99 -20.5 q-31 -20.5 -31 -64.5 q0 -18 6.5 -33 q6.5 -15 22.5 -25.5 q16 -10.5 43.5 -16 q27.5 -5.5 68.5 -5.5 q46 0 73 3.5 q27 3.5 36 5.5 l0 146 Z" /><glyph glyph-name="dcroat" unicode="&#x111;" d="M465 560 l-123 0 q-25 0 -35.5 13 q-10.5 13 -10.5 34 q0 15 4 25 q4 10 6 15 l159 0 l0 37 q0 27 15.5 40 q15.5 13 44.5 13 q18 0 33 -4.5 q15 -4.5 20 -6.5 l0 -79 l45 0 q26 0 36 -13 q10 -13 10 -33 q0 -16 -4 -26 q-4 -10 -6 -15 l-81 0 l0 -285 q0 -73 -20.5 -127 q-20.5 -54 -56.5 -90 q-36 -36 -85 -54 q-49 -18 -107 -18 q-59 0 -108.5 19.5 q-49.5 19.5 -85.5 54 q-36 34.5 -56.5 83 q-20.5 48.5 -20.5 105.5 q0 58 19.5 105.5 q19.5 47.5 54 81.5 q34.5 34 81 52.5 q46.5 18.5 101.5 18.5 q58 0 102 -22.5 q44 -22.5 69 -54.5 l0 131 ZM311 89 q34 0 62.5 12 q28.5 12 48.5 33 q20 21 31.5 51 q11.5 30 11.5 66 q0 34 -11.5 62.5 q-11.5 28.5 -32.5 48.5 q-21 20 -49.5 31 q-28.5 11 -62.5 11 q-69 0 -110.5 -43 q-41.5 -43 -41.5 -113 q0 -35 11 -64 q11 -29 31.5 -50 q20.5 -21 48.5 -33 q28 -12 63 -12 Z" /><glyph glyph-name="Eogonek" unicode="&#x118;" d="M73 618 q0 68 73 68 l384 0 q60 0 60 -54 q0 -19 -6 -34.5 q-6 -15.5 -9 -20.5 l-381 0 l0 -172 l322 0 q59 0 59 -54 q0 -19 -5.5 -34.5 q-5.5 -15.5 -9.5 -20.5 l-366 0 l0 -187 l390 0 l0 -109 l-53 0 q-15 -4 -29.5 -10.5 q-14.5 -6.5 -26 -15.5 q-11.5 -9 -18.5 -20.5 q-7 -11.5 -7 -25.5 q0 -19 13.5 -26.5 q13.5 -7.5 31.5 -7.5 q25 0 43 8 q18 8 21 10 l25 -57 q-11 -6 -38.5 -15.5 q-27.5 -9.5 -68.5 -9.5 q-49 0 -80 19 q-31 19 -31 63 q0 19 6 33.5 q6 14.5 15.5 25.5 q9.5 11 20 18 q10.5 7 19.5 11 l-354 0 l0 618 Z" /><glyph glyph-name="eogonek" unicode="&#x119;" d="M505 37 q-11 -8 -38 -20.5 q-27 -12.5 -69 -20.5 q-27 -10 -48.5 -27 q-21.5 -17 -21.5 -43 q0 -21 14 -29 q14 -8 34 -8 q25 0 42.5 7.5 q17.5 7.5 20.5 9.5 l23 -53 q-11 -6 -37.5 -15 q-26.5 -9 -67.5 -9 q-48 0 -78.5 18.5 q-30.5 18.5 -30.5 61.5 q0 29 13.5 47.5 q13.5 18.5 29.5 29.5 q-53 2 -99.5 20.5 q-46.5 18.5 -81 51.5 q-34.5 33 -54 80.5 q-19.5 47.5 -19.5 108.5 q0 60 20.5 109.5 q20.5 49.5 57 85 q36.5 35.5 86 55 q49.5 19.5 108.5 19.5 q52 0 92 -13.5 q40 -13.5 67.5 -36 q27.5 -22.5 41.5 -52.5 q14 -30 14 -64 q0 -35 -13 -63.5 q-13 -28.5 -46 -49 q-33 -20.5 -89 -32 q-56 -11.5 -142 -11.5 q-20 0 -37.5 0.5 q-17.5 0.5 -37.5 1.5 q8 -51 49.5 -82.5 q41.5 -31.5 118.5 -31.5 q26 0 48 4 q22 4 39.5 10 q17.5 6 30 12 q12.5 6 18.5 9 l42 -80 ZM154 274 q23 -1 44 -1 q21 0 42 0 q55 0 89 7 q34 7 53 18 q19 11 25 25 q6 14 6 29 q0 38 -30.5 57 q-30.5 19 -75.5 19 q-37 0 -65 -13 q-28 -13 -47 -34.5 q-19 -21.5 -29.5 -49.5 q-10.5 -28 -11.5 -57 Z" /><glyph glyph-name="Hbar" unicode="&#x126;" d="M95 488 l-44 0 q-25 0 -35.5 13.5 q-10.5 13.5 -10.5 36.5 q0 15 4 26.5 q4 11.5 6 16.5 l80 0 l0 50 q0 28 17 41.5 q17 13.5 46 13.5 q19 0 35 -5 q16 -5 21 -7 l0 -93 l352 0 l0 50 q0 28 16.5 41.5 q16.5 13.5 45.5 13.5 q20 0 36 -5 q16 -5 21 -8 l0 -92 l44 0 q26 0 36 -13 q10 -13 10 -36 q0 -16 -4 -27.5 q-4 -11.5 -6 -16.5 l-80 0 l0 -488 l-119 0 l0 302 l-352 0 l0 -302 l-119 0 l0 488 ZM566 411 l0 77 l-352 0 l0 -77 l352 0 Z" /><glyph glyph-name="hbar" unicode="&#x127;" d="M58 564 l-34 0 q-25 0 -35.5 13 q-10.5 13 -10.5 34 q0 15 4 25 q4 10 6 15 l70 0 l0 33 q0 27 16 40 q16 13 45 13 q18 0 33 -4.5 q15 -4.5 20 -6.5 l0 -75 l128 0 q26 0 36 -13 q10 -13 10 -33 q0 -16 -4 -26 q-4 -10 -6 -15 l-164 0 l0 -133 q20 24 60 45 q40 21 104 21 q46 0 84.5 -13 q38.5 -13 66.5 -38.5 q28 -25.5 43 -63.5 q15 -38 15 -89 l0 -293 l-114 0 l0 259 q0 66 -27.5 100 q-27.5 34 -94.5 34 q-68 0 -102.5 -39.5 q-34.5 -39.5 -34.5 -104.5 l0 -249 l-114 0 l0 564 Z" /><glyph glyph-name="Iogonek" unicode="&#x12e;" d="M176 0 q-15 -4 -29.5 -10.5 q-14.5 -6.5 -26 -15.5 q-11.5 -9 -18.5 -20.5 q-7 -11.5 -7 -25.5 q0 -19 13.5 -26.5 q13.5 -7.5 31.5 -7.5 q25 0 43 8 q18 8 21 10 l25 -57 q-11 -6 -38.5 -15.5 q-27.5 -9.5 -68.5 -9.5 q-49 0 -80 19 q-31 19 -31 63 q0 19 6.5 34 q6.5 15 15.5 25.5 q9 10.5 20 17.5 q11 7 20 11 l0 631 q0 28 17 41.5 q17 13.5 46 13.5 q19 0 35 -5 q16 -5 21 -7 l0 -674 l-16 0 Z" /><glyph glyph-name="iogonek" unicode="&#x12f;" d="M63 449 q0 28 16 40.5 q16 12.5 45 12.5 q18 0 33 -4.5 q15 -4.5 20 -6.5 l0 -491 l-19 0 q-15 -4 -30 -10.5 q-15 -6.5 -27 -15.5 q-12 -9 -19.5 -21 q-7.5 -12 -7.5 -27 q0 -21 14 -29 q14 -8 34 -8 q25 0 42.5 7.5 q17.5 7.5 20.5 9.5 l23 -53 q-11 -6 -37.5 -15 q-26.5 -9 -67.5 -9 q-48 0 -78.5 18.5 q-30.5 18.5 -30.5 61.5 q0 21 7.5 37 q7.5 16 18.5 27 q11 11 23 17.5 q12 6.5 20 9.5 l0 449 ZM120 727 q29 0 49 -20 q20 -20 20 -49 q0 -29 -20 -49 q-20 -20 -49 -20 q-29 0 -49 20 q-20 20 -20 49 q0 29 20 49 q20 20 49 20 Z" /><glyph glyph-name="dotlessi" unicode="&#x131;" d="M63 449 q0 28 16 40.5 q16 12.5 45 12.5 q18 0 33 -4.5 q15 -4.5 20 -6.5 l0 -491 l-114 0 l0 449 Z" /><glyph glyph-name="kgreenlandic" unicode="&#x138;" d="M58 449 q0 27 16 40 q16 13 45 13 q18 0 33 -4.5 q15 -4.5 20 -6.5 l0 -196 q13 9 36.5 30 q23.5 21 52.5 46 q29 25 60 51.5 q31 26.5 59 46.5 q22 16 40 24.5 q18 8.5 47 8.5 q27 0 45 -12.5 q18 -12.5 23 -22.5 q-14 -13 -35.5 -31.5 q-21.5 -18.5 -46 -39 q-24.5 -20.5 -50.5 -42 q-26 -21.5 -49.5 -40.5 q-23.5 -19 -42.5 -34 q-19 -15 -29 -22 q40 -28 81.5 -62 q41.5 -34 78.5 -69 q37 -35 67 -68 q30 -33 48 -59 l-142 0 q-59 57 -119.5 109 q-60.5 52 -123.5 95 l0 -204 l-114 0 l0 449 Z" /><glyph glyph-name="Lslash" unicode="&#x141;" d="M73 0 l0 258 l-75 -48 l0 31 q0 23 4 48 q4 25 26 39 l45 29 l0 274 q0 28 17 41.5 q17 13.5 46 13.5 q19 0 35 -5 q16 -5 21 -7 l0 -248 l159 103 l0 -35 q0 -23 -4 -46 q-4 -23 -26 -37 l-129 -83 l0 -219 l353 0 l0 -109 l-472 0 Z" /><glyph glyph-name="lslash" unicode="&#x142;" d="M63 0 l0 297 l-64 -45 l0 61 q0 23 4 36.5 q4 13.5 26 28.5 l34 23 l0 283 q0 27 16 40 q16 13 45 13 q18 0 33 -4.5 q15 -4.5 20 -6.5 l0 -259 l64 45 l0 -61 q0 -23 -4 -36.5 q-4 -13.5 -26 -28.5 l-34 -23 l0 -363 l-114 0 Z" /><glyph glyph-name="Eng" unicode="&#x14a;" d="M73 622 q0 35 21.5 49.5 q21.5 14.5 50.5 14.5 q28 0 46 -9 q18 -9 25 -14 q10 -12 32.5 -42.5 q22.5 -30.5 52 -72 q29.5 -41.5 63 -90 q33.5 -48.5 66.5 -96.5 q33 -48 62.5 -93 q29.5 -45 51.5 -79 l0 441 q0 28 16 41.5 q16 13.5 45 13.5 q20 0 35.5 -5 q15.5 -5 20.5 -8 l0 -691 q0 -56 -15.5 -93 q-15.5 -37 -41.5 -59 q-26 -22 -59.5 -31 q-33.5 -9 -69.5 -9 q-20 0 -39.5 3 q-19.5 3 -36.5 6.5 q-17 3.5 -29.5 8 q-12.5 4.5 -18.5 7.5 l30 82 q12 -6 31.5 -10.5 q19.5 -4.5 41.5 -4.5 q17 0 33.5 3.5 q16.5 3.5 29 13.5 q12.5 10 20 27.5 q7.5 17.5 7.5 46.5 l0 34 q-17 28 -43 66 q-26 38 -56.5 82.5 q-30.5 44.5 -64 93 q-33.5 48.5 -67 96 q-33.5 47.5 -65 91.5 q-31.5 44 -57.5 80 l0 -516 l-118 0 l0 622 Z" /><glyph glyph-name="eng" unicode="&#x14b;" d="M269 -103 q12 -6 31.5 -10.5 q19.5 -4.5 41.5 -4.5 q17 0 33.5 3.5 q16.5 3.5 29 13.5 q12.5 10 20 27.5 q7.5 17.5 7.5 46.5 l0 301 q0 68 -33 103.5 q-33 35.5 -97 35.5 q-65 0 -97.5 -35.5 q-32.5 -35.5 -32.5 -103.5 l0 -274 l-114 0 l0 303 q0 50 18.5 89.5 q18.5 39.5 51 67 q32.5 27.5 77 42 q44.5 14.5 97.5 14.5 q53 0 98 -14.5 q45 -14.5 77.5 -42 q32.5 -27.5 50.5 -67 q18 -39.5 18 -89.5 l0 -321 q0 -56 -15.5 -93 q-15.5 -37 -41.5 -59 q-26 -22 -59.5 -31 q-33.5 -9 -69.5 -9 q-20 0 -39 3 q-19 3 -35.5 6.5 q-16.5 3.5 -28.5 8 q-12 4.5 -18 7.5 l30 82 Z" /><glyph glyph-name="tcaron" unicode="&#x165;" d="M61 591 q0 28 16 40.5 q16 12.5 44 12.5 q18 0 33.5 -4.5 q15.5 -4.5 20.5 -6.5 l0 -131 l145 0 q33 0 46.5 -13.5 q13.5 -13.5 13.5 -39.5 q0 -17 -5 -31.5 q-5 -14.5 -8 -20.5 l-192 0 l0 -223 q0 -26 7 -42.5 q7 -16.5 19.5 -26.5 q12.5 -10 29 -14 q16.5 -4 34.5 -4 q29 0 54 9 q25 9 36 17 l46 -76 q-8 -6 -22.5 -15 q-14.5 -9 -35.5 -17 q-21 -8 -47 -13.5 q-26 -5.5 -57 -5.5 q-88 0 -133 45.5 q-45 45.5 -45 119.5 l0 440 ZM257 549 l0 135 q0 25 14 39 q14 14 48 14 q20 0 27 -3 l-23 -185 l-66 0 Z" /><glyph glyph-name="Tbar" unicode="&#x166;" d="M264 292 l-137 0 q-25 0 -35.5 13.5 q-10.5 13.5 -10.5 36.5 q0 15 4 26.5 q4 11.5 6 16.5 l173 0 l0 192 l-200 0 q-59 0 -59 54 q0 19 6 34.5 q6 15.5 9 20.5 l571 0 q59 0 59 -54 q0 -19 -5.5 -34.5 q-5.5 -15.5 -9.5 -20.5 l-252 0 l0 -192 l142 0 q26 0 36 -13 q10 -13 10 -36 q0 -16 -4 -27.5 q-4 -11.5 -6 -16.5 l-178 0 l0 -292 l-119 0 l0 292 Z" /><glyph glyph-name="tbar" unicode="&#x167;" d="M61 591 q0 28 16 40.5 q16 12.5 44 12.5 q18 0 33.5 -4.5 q15.5 -4.5 20.5 -6.5 l0 -131 l145 0 q33 0 46.5 -13.5 q13.5 -13.5 13.5 -39.5 q0 -17 -5 -31.5 q-5 -14.5 -8 -20.5 l-192 0 l0 -86 l145 0 q33 0 46.5 -11.5 q13.5 -11.5 13.5 -37.5 q0 -15 -4 -27.5 q-4 -12.5 -7 -18.5 l-194 0 l0 -42 q0 -26 7 -42.5 q7 -16.5 19.5 -26.5 q12.5 -10 29 -14 q16.5 -4 34.5 -4 q29 0 54 9 q25 9 36 17 l46 -76 q-8 -6 -22.5 -15 q-14.5 -9 -35.5 -17 q-21 -8 -47 -13.5 q-26 -5.5 -57 -5.5 q-88 0 -133 45.5 q-45 45.5 -45 119.5 l0 440 Z" /><glyph glyph-name="Uogonek" unicode="&#x172;" d="M66 631 q0 28 16.5 41.5 q16.5 13.5 45.5 13.5 q20 0 36 -5 q16 -5 21 -8 l0 -355 q0 -57 10 -99.5 q10 -42.5 32.5 -71 q22.5 -28.5 59.5 -43 q37 -14.5 91 -14.5 q54 0 91 14.5 q37 14.5 59.5 43 q22.5 28.5 32.5 71 q10 42.5 10 99.5 l0 313 q0 28 16.5 41.5 q16.5 13.5 45.5 13.5 q20 0 36 -5 q16 -5 21 -8 l0 -365 q0 -134 -54.5 -214 q-54.5 -80 -166.5 -103 q-24 -9 -43 -25.5 q-19 -16.5 -19 -40.5 q0 -19 13.5 -26.5 q13.5 -7.5 31.5 -7.5 q25 0 43 8 q18 8 21 10 l25 -57 q-11 -6 -38 -15.5 q-27 -9.5 -69 -9.5 q-49 0 -80 18.5 q-31 18.5 -31 63.5 q0 27 11.5 44.5 q11.5 17.5 25.5 28.5 q-148 5 -221 88.5 q-73 83.5 -73 237.5 l0 323 Z" /><glyph glyph-name="uogonek" unicode="&#x173;" d="M58 449 q0 28 16 40.5 q16 12.5 45 12.5 q18 0 33 -4.5 q15 -4.5 20 -6.5 l0 -263 q0 -68 32 -103.5 q32 -35.5 98 -35.5 q66 0 98 35.5 q32 35.5 32 103.5 l0 221 q0 28 16 40.5 q16 12.5 44 12.5 q19 0 34 -4.5 q15 -4.5 20 -6.5 l0 -288 q0 -86 -47.5 -140 q-47.5 -54 -128.5 -70 q-26 -10 -47.5 -27 q-21.5 -17 -21.5 -43 q0 -21 14 -29 q14 -8 34 -8 q25 0 42.5 7.5 q17.5 7.5 20.5 9.5 l23 -53 q-11 -6 -37.5 -15 q-26.5 -9 -67.5 -9 q-48 0 -78.5 18.5 q-30.5 18.5 -30.5 61.5 q0 33 16.5 52.5 q16.5 19.5 33.5 29.5 q-48 4 -87 20 q-39 16 -67 43.5 q-28 27.5 -43.5 65.5 q-15.5 38 -15.5 86 l0 246 Z" /><glyph glyph-name="longs" unicode="&#x17f;" d="M61 533 q0 54 15 93 q15 39 42.5 63.5 q27.5 24.5 65 36 q37.5 11.5 82.5 11.5 q82 0 116 -19.5 q34 -19.5 34 -49.5 q0 -17 -9.5 -30 q-9.5 -13 -20.5 -20 q-16 13 -43.5 21 q-27.5 8 -58.5 8 q-59 0 -84 -30 q-25 -30 -25 -85 l0 -532 l-114 0 l0 533 Z" /><glyph glyph-name="dotlessj" unicode="&#x237;" d="M-100 -103 q12 -6 31.5 -10.5 q19.5 -4.5 41.5 -4.5 q17 0 33.5 3.5 q16.5 3.5 29 13.5 q12.5 10 20 27.5 q7.5 17.5 7.5 46.5 l0 476 q0 28 16 40.5 q16 12.5 45 12.5 q18 0 33 -4.5 q15 -4.5 20 -6.5 l0 -509 q0 -56 -15.5 -93 q-15.5 -37 -41.5 -59 q-26 -22 -59.5 -31 q-33.5 -9 -69.5 -9 q-20 0 -39 3 q-19 3 -35.5 6.5 q-16.5 3.5 -28.5 8 q-12 4.5 -18 7.5 l30 82 Z" /><glyph glyph-name="apostrophe" unicode="&#x2bc;" d="M44 679 q6 21 17.5 32 q11.5 11 33.5 11 q26 0 40.5 -10.5 q14.5 -10.5 18.5 -15.5 l-90 -209 l-69 26 l49 166 Z" /><glyph glyph-name="caron" unicode="&#x2c7;" d="M132 721 l118 -72 l118 72 l39 -48 l-93 -76 q-14 -11 -30 -21 q-16 -10 -34 -10 q-18 0 -34 10 q-16 10 -30 21 l-93 76 l39 48 Z" /><glyph glyph-name="breve" unicode="&#x2d8;" d="M163 715 q8 -34 30 -52.5 q22 -18.5 57 -18.5 q35 0 57.5 18.5 q22.5 18.5 30.5 52.5 l54 -7 q-1 -19 -8 -42.5 q-7 -23.5 -23 -44.5 q-16 -21 -43 -35.5 q-27 -14.5 -68 -14.5 q-41 0 -68 14.5 q-27 14.5 -43 35.5 q-16 21 -23 44.5 q-7 23.5 -8 42.5 l55 7 Z" /><glyph glyph-name="dotaccent" unicode="&#x2d9;" d="M251 695 q25 0 43.5 -19 q18.5 -19 18.5 -42 q0 -23 -18.5 -42 q-18.5 -19 -43.5 -19 q-13 0 -24.5 5 q-11.5 5 -20.5 13.5 q-9 8.5 -14 19.5 q-5 11 -5 23 q0 12 5 23 q5 11 14 19.5 q9 8.5 20.5 13.5 q11.5 5 24.5 5 Z" /><glyph glyph-name="ring" unicode="&#x2da;" d="M250 761 q21 0 40 -8 q19 -8 33 -22 q14 -14 22 -32 q8 -18 8 -39 q0 -21 -8 -39 q-8 -18 -22 -32 q-14 -14 -33 -22 q-19 -8 -40 -8 q-21 0 -40 8 q-19 8 -33 22 q-14 14 -22 32 q-8 18 -8 39 q0 21 8 39 q8 18 22 32 q14 14 33 22 q19 8 40 8 ZM299 660 q0 22 -13.5 36.5 q-13.5 14.5 -35.5 14.5 q-22 0 -35.5 -14.5 q-13.5 -14.5 -13.5 -36.5 q0 -23 13.5 -37.5 q13.5 -14.5 35.5 -14.5 q22 0 35.5 14.5 q13.5 14.5 13.5 37.5 Z" /><glyph glyph-name="ogonek" unicode="&#x2db;" d="M321 0 q-16 -3 -33.5 -9.5 q-17.5 -6.5 -31.5 -16 q-14 -9.5 -23.5 -22.5 q-9.5 -13 -9.5 -29 q0 -21 14 -29 q14 -8 34 -8 q25 0 42.5 7.5 q17.5 7.5 20.5 9.5 l23 -53 q-11 -6 -37.5 -15 q-26.5 -9 -67.5 -9 q-48 0 -78.5 18.5 q-30.5 18.5 -30.5 61.5 q0 25 10.5 42.5 q10.5 17.5 24 28.5 q13.5 11 26 16 q12.5 5 17.5 7 l100 0 Z" /><glyph glyph-name="hungarumlaut" unicode="&#x2dd;" d="M255 613 l82 75 q14 14 27.5 22 q13.5 8 30.5 8 q17 0 27 -8 q10 -8 15.5 -17.5 q5.5 -9.5 7.5 -18 q2 -8.5 2 -9.5 l-154 -99 l-38 47 ZM52 613 l82 75 q14 14 27.5 22 q13.5 8 30.5 8 q17 0 27 -8 q10 -8 15.5 -17.5 q5.5 -9.5 7.5 -18 q2 -8.5 2 -9.5 l-154 -99 l-38 47 Z" /><glyph glyph-name="fraction" unicode="&#x2044;" d="M165 698 q9 16 20.5 27.5 q11.5 11.5 38.5 11.5 q23 0 38 -8 q15 -8 19 -12 l-408 -717 l-107 0 l399 698 Z" /><glyph glyph-name="zerosuperior" unicode="&#x2070;" d="M237 287 q-98 0 -150 61 q-52 61 -52 164 q0 104 52 164.5 q52 60.5 150 60.5 q98 0 150 -60.5 q52 -60.5 52 -164.5 q0 -103 -52 -164 q-52 -61 -150 -61 ZM237 367 q25 0 43 11 q18 11 29.5 30.5 q11.5 19.5 17 46 q5.5 26.5 5.5 57.5 q0 31 -5.5 57.5 q-5.5 26.5 -17 45.5 q-11.5 19 -29.5 30 q-18 11 -43 11 q-26 0 -44 -11 q-18 -11 -29 -30 q-11 -19 -16.5 -45.5 q-5.5 -26.5 -5.5 -57.5 q0 -31 5.5 -57.5 q5.5 -26.5 16.5 -46 q11 -19.5 29 -30.5 q18 -11 44 -11 Z" /><glyph glyph-name="foursuperior" unicode="&#x2074;" d="M277 393 l-139 0 q-52 0 -76.5 16.5 q-24.5 16.5 -24.5 54.5 q0 31 15 63.5 q15 32.5 39 63 q24 30.5 54.5 57 q30.5 26.5 61 46.5 q30.5 20 58.5 31.5 q28 11.5 48 11.5 q25 0 39.5 -5 q14.5 -5 20.5 -9 l0 -255 l20 0 q36 0 36 -34 q0 -13 -4 -24 q-4 -11 -7 -17 l-45 0 l0 -95 l-96 0 l0 95 ZM277 469 l0 174 q-23 -11 -48 -30 q-25 -19 -45.5 -40.5 q-20.5 -21.5 -34 -44 q-13.5 -22.5 -13.5 -40.5 q0 -12 9.5 -15.5 q9.5 -3.5 24.5 -3.5 l107 0 Z" /><glyph glyph-name="fivesuperior" unicode="&#x2075;" d="M74 395 q17 -8 50 -17.5 q33 -9.5 85 -9.5 q29 0 47 5.5 q18 5.5 28.5 14 q10.5 8.5 14.5 19.5 q4 11 4 22 q0 14 -5 26 q-5 12 -17 20.5 q-12 8.5 -32 13 q-20 4.5 -51 4.5 q-32 0 -68 -5 q-36 -5 -56 -10 l8 185 q1 27 12 45 q11 18 46 18 l198 0 q32 0 41.5 -11 q9.5 -11 9.5 -28 q0 -15 -6.5 -25.5 q-6.5 -10.5 -10.5 -15.5 l-203 0 l-4 -87 q10 2 27.5 4 q17.5 2 35.5 2 q51 0 86 -10.5 q35 -10.5 56 -29 q21 -18.5 30 -43 q9 -24.5 9 -51.5 q0 -65 -49 -104.5 q-49 -39.5 -150 -39.5 q-35 0 -64 4.5 q-29 4.5 -50.5 11 q-21.5 6.5 -35.5 13 q-14 6.5 -20 9.5 l34 70 Z" /><glyph glyph-name="sixsuperior" unicode="&#x2076;" d="M216 704 q11 12 24 22.5 q13 10.5 37 10.5 q23 0 38 -11 q15 -11 21 -19 l-117 -133 q4 3 18.5 7 q14.5 4 36.5 4 q33 0 61 -9.5 q28 -9.5 48.5 -27.5 q20.5 -18 32 -43.5 q11.5 -25.5 11.5 -56.5 q0 -36 -13.5 -65.5 q-13.5 -29.5 -38.5 -51 q-25 -21.5 -60 -33 q-35 -11.5 -77 -11.5 q-42 0 -76.5 11.5 q-34.5 11.5 -59.5 31.5 q-25 20 -38.5 48.5 q-13.5 28.5 -13.5 63.5 q0 43 21 82 q21 39 53 75 l92 105 ZM148 443 q0 -36 24 -58.5 q24 -22.5 66 -22.5 q43 0 66.5 23.5 q23.5 23.5 23.5 58.5 q0 37 -24 58.5 q-24 21.5 -66 21.5 q-41 0 -65.5 -23 q-24.5 -23 -24.5 -58 Z" /><glyph glyph-name="sevensuperior" unicode="&#x2077;" d="M293 642 l-200 0 q-50 0 -50 43 q0 12 6 24 q6 12 10 17 l279 0 q64 0 64 -48 q0 -11 -5 -25 q-5 -14 -16 -37 l-161 -318 l-103 0 l176 344 Z" /><glyph glyph-name="eightsuperior" unicode="&#x2078;" d="M109 516 q-36 19 -49 44 q-13 25 -13 50 q0 57 49 92 q49 35 141 35 q92 0 141 -35 q49 -35 49 -92 q0 -25 -13 -50 q-13 -25 -49 -44 q42 -18 57 -44.5 q15 -26.5 15 -53.5 q0 -60 -50 -95.5 q-50 -35.5 -150 -35.5 q-100 0 -150 35.5 q-50 35.5 -50 95.5 q0 27 15 53.5 q15 26.5 57 44.5 ZM142 423 q0 -26 23 -42.5 q23 -16.5 72 -16.5 q49 0 72 16.5 q23 16.5 23 42.5 q0 26 -23 41.5 q-23 15.5 -72 15.5 q-49 0 -72 -15.5 q-23 -15.5 -23 -41.5 ZM149 607 q0 -25 21.5 -41 q21.5 -16 66.5 -16 q45 0 66.5 16 q21.5 16 21.5 41 q0 24 -21.5 40.5 q-21.5 16.5 -66.5 16.5 q-45 0 -66.5 -16.5 q-21.5 -16.5 -21.5 -40.5 Z" /><glyph glyph-name="ninesuperior" unicode="&#x2079;" d="M252 447 q-5 -3 -19 -6 q-14 -3 -33 -3 q-33 0 -61 10 q-28 10 -49 28 q-21 18 -32.5 43.5 q-11.5 25.5 -11.5 56.5 q0 36 13.5 65.5 q13.5 29.5 38.5 51 q25 21.5 60 33 q35 11.5 77 11.5 q42 0 76.5 -11.5 q34.5 -11.5 59 -32 q24.5 -20.5 38 -49 q13.5 -28.5 13.5 -62.5 q0 -43 -22.5 -84 q-22.5 -41 -64.5 -89 l-102 -116 l-117 0 l136 154 ZM145 580 q0 -37 24 -58.5 q24 -21.5 66 -21.5 q41 0 65.5 23 q24.5 23 24.5 58 q0 36 -24 58 q-24 22 -66 22 q-43 0 -66.5 -23 q-23.5 -23 -23.5 -58 Z" /><glyph glyph-name="afii61289" unicode="&#x2113;" d="M25 195 q23 18 45.5 34.5 q22.5 16.5 43.5 33.5 l0 235 q0 69 15 119.5 q15 50.5 41.5 83.5 q26.5 33 63 48.5 q36.5 15.5 79.5 15.5 q41 0 71.5 -14.5 q30.5 -14.5 50 -39.5 q19.5 -25 29 -58.5 q9.5 -33.5 9.5 -70.5 q0 -89 -57 -172 q-57 -83 -157 -171 l0 -36 q0 -45 27 -69 q27 -24 63 -24 q21 0 41 7.5 q20 7.5 37.5 20.5 q17.5 13 33 29.5 q15.5 16.5 27.5 33.5 l61 -63 q-46 -82 -108 -114.5 q-62 -32.5 -128 -32.5 q-46 0 -80 12 q-34 12 -58 33 q-24 21 -38 49.5 q-14 28.5 -20 61.5 q-1 3 -1 9 q-13 -9 -26 -18.5 q-13 -9.5 -27 -19.5 l-38 77 ZM259 369 q51 55 83 112 q32 57 32 105 q0 36 -12 56.5 q-12 20.5 -41 20.5 q-11 0 -22 -7 q-11 -7 -20 -24 q-9 -17 -14.5 -46 q-5.5 -29 -5.5 -72 l0 -145 Z" /><glyph glyph-name="estimated" unicode="&#x212e;" d="M181 138 q0 -13 9 -22 q48 -51 110 -79 q62 -28 135 -28 q79 0 145 32.5 q66 32.5 114 86.5 l57 0 q-26 -32 -60.5 -57.5 q-34.5 -25.5 -75.5 -43.5 q-41 -18 -87 -28 q-46 -10 -94 -10 q-83 0 -156 28.5 q-73 28.5 -127 77 q-54 48.5 -85.5 114 q-31.5 65.5 -31.5 140.5 q0 75 31.5 140.5 q31.5 65.5 85.5 114.5 q54 49 127 77.5 q73 28.5 156 28.5 q83 0 156.5 -28.5 q73.5 -28.5 128 -77.5 q54.5 -49 86 -114.5 q31.5 -65.5 31.5 -140.5 l0 -10 l-650 0 q-5 0 -5 -4 l0 -197 ZM684 358 q4 0 4 7 l0 197 q0 13 -9 24 q-48 48 -110 75 q-62 27 -134 27 q-71 0 -134 -29 q-63 -29 -110 -77 q-5 -4 -7.5 -10.5 q-2.5 -6.5 -2.5 -13.5 l0 -193 q0 -7 5 -7 l498 0 Z" /><glyph glyph-name="partialdiff" unicode="&#x2202;" d="M88 656 q6 9 21.5 23 q15.5 14 40 26.5 q24.5 12.5 59.5 22 q35 9.5 80 9.5 q60 0 105.5 -18.5 q45.5 -18.5 78 -50.5 q32.5 -32 54.5 -74 q22 -42 34.5 -89 q12.5 -47 18 -96 q5.5 -49 5.5 -94 q0 -84 -19.5 -146 q-19.5 -62 -55.5 -102.5 q-36 -40.5 -87 -60.5 q-51 -20 -114 -20 q-60 0 -109.5 18 q-49.5 18 -85.5 50.5 q-36 32.5 -56 78 q-20 45.5 -20 100.5 q0 56 19.5 101.5 q19.5 45.5 53.5 78 q34 32.5 78.5 50 q44.5 17.5 95.5 17.5 q33 0 61 -6.5 q28 -6.5 49.5 -16.5 q21.5 -10 37 -22 q15.5 -12 23.5 -22 q-3 40 -13.5 81 q-10.5 41 -31.5 75 q-21 34 -55 55.5 q-34 21.5 -83 21.5 q-25 0 -45.5 -7 q-20.5 -7 -35.5 -15.5 q-15 -8.5 -24 -17 q-9 -8.5 -12 -11.5 l-68 61 ZM312 79 q35 0 63.5 12 q28.5 12 48.5 33 q20 21 31 49.5 q11 28.5 11 61.5 q0 68 -41.5 111 q-41.5 43 -112.5 43 q-35 0 -64 -12 q-29 -12 -49 -33 q-20 -21 -31 -49.5 q-11 -28.5 -11 -61.5 q0 -33 11 -61 q11 -28 31.5 -49 q20.5 -21 49 -32.5 q28.5 -11.5 63.5 -11.5 Z" /><glyph glyph-name="Delta" unicode="&#x2206;" d="M558 104 l-194 465 l-196 -465 l390 0 ZM304 704 l127 0 l298 -704 l-724 0 l299 704 Z" /><glyph glyph-name="product" unicode="&#x220f;" d="M73 631 q0 28 17 41.5 q17 13.5 46 13.5 l464 0 q29 0 46 -13.5 q17 -13.5 17 -41.5 l0 -755 l-119 0 l0 701 l-352 0 l0 -701 l-119 0 l0 755 Z" /><glyph glyph-name="summation" unicode="&#x2211;" d="M15 -15 l318 301 l-235 222 q-37 35 -58 59.5 q-21 24.5 -21 53.5 q0 65 81 65 l444 0 q60 0 60 -53 q0 -19 -6 -34.5 q-6 -15.5 -9 -20.5 l-402 0 l308 -291 l-323 -303 l443 0 l0 -108 l-600 0 l0 109 Z" /><glyph glyph-name="Omega" unicode="&#x2126;" d="M57 99 l141 0 q-26 18 -50.5 44.5 q-24.5 26.5 -44 61 q-19.5 34.5 -31.5 76 q-12 41.5 -12 90.5 q0 64 21 124 q21 60 64 106.5 q43 46.5 109 74.5 q66 28 157 28 q91 0 157 -28 q66 -28 109 -74.5 q43 -46.5 64 -106.5 q21 -60 21 -124 q0 -49 -12 -90.5 q-12 -41.5 -31.5 -76 q-19.5 -34.5 -44 -61 q-24.5 -26.5 -50.5 -44.5 l141 0 l0 -99 l-291 0 l0 98 q81 45 122 107.5 q41 62.5 41 156.5 q0 51 -15 94.5 q-15 43.5 -43.5 75 q-28.5 31.5 -71 49.5 q-42.5 18 -96.5 18 q-54 0 -96.5 -18 q-42.5 -18 -71 -49.5 q-28.5 -31.5 -43.5 -75 q-15 -43.5 -15 -94.5 q0 -94 41 -156.5 q41 -62.5 122 -107.5 l0 -98 l-291 0 l0 99 Z" /><glyph glyph-name="minus" unicode="&#x2212;" d="M525 393 q29 0 41 -15 q12 -15 12 -41 q0 -18 -4.5 -32 q-4.5 -14 -6.5 -19 l-459 0 q-29 0 -41 15.5 q-12 15.5 -12 41.5 q0 17 4.5 31 q4.5 14 6.5 19 l459 0 Z" /><glyph glyph-name="radical" unicode="&#x221a;" d="M133 410 l-80 -42 l-30 67 l193 97 l121 -374 l238 735 l112 0 l-301 -906 l-110 0 l-143 423 Z" /><glyph glyph-name="infinity" unicode="&#x221e;" d="M450 338 q32 -45 61 -67 q29 -22 62 -22 q38 0 60 26.5 q22 26.5 22 68.5 q0 47 -23.5 71.5 q-23.5 24.5 -61.5 24.5 q-20 0 -36 -8.5 q-16 -8.5 -30.5 -22.5 q-14.5 -14 -27.5 -32.5 q-13 -18.5 -26 -38.5 ZM342 331 q-29 51 -57 79 q-28 28 -64 28 q-38 0 -61 -29 q-23 -29 -23 -68 q0 -49 25.5 -71.5 q25.5 -22.5 63.5 -22.5 q27 0 55.5 19.5 q28.5 19.5 60.5 64.5 ZM397 253 q-42 -48 -83.5 -73 q-41.5 -25 -94.5 -25 q-36 0 -68 12 q-32 12 -55.5 35 q-23.5 23 -37.5 58 q-14 35 -14 80 q0 37 11.5 72 q11.5 35 34.5 62 q23 27 57 43 q34 16 79 16 q31 0 54.5 -7.5 q23.5 -7.5 43.5 -21.5 q20 -14 38 -34.5 q18 -20.5 36 -46.5 q40 56 80.5 82 q40.5 26 94.5 26 q38 0 70 -14 q32 -14 55.5 -38 q23.5 -24 36.5 -57 q13 -33 13 -71 q0 -50 -13.5 -87 q-13.5 -37 -36.5 -61 q-23 -24 -55.5 -35.5 q-32.5 -11.5 -69.5 -11.5 q-56 0 -99 27.5 q-43 27.5 -77 69.5 Z" /><glyph glyph-name="integral" unicode="&#x222b;" d="M49 -95 q6 -5 22 -12 q16 -7 36 -7 q23 0 37.5 13 q14.5 13 14.5 45 q0 15 -0.5 30.5 q-0.5 15.5 -0.5 25.5 l-17 503 q-1 26 -1 51.5 q0 25.5 0 40.5 q0 72 40.5 107 q40.5 35 101.5 35 q46 0 77.5 -12.5 q31.5 -12.5 42.5 -20.5 l-39 -82 q-6 5 -22 12 q-16 7 -36 7 q-23 0 -37.5 -13 q-14.5 -13 -14.5 -45 q0 -15 0 -30.5 q0 -15.5 1 -25.5 l16 -486 q1 -35 1 -62 q0 -27 1 -47 q0 -72 -40.5 -107 q-40.5 -35 -101.5 -35 q-46 0 -77.5 12.5 q-31.5 12.5 -42.5 20.5 l39 82 Z" /><glyph glyph-name="approxequal" unicode="&#x2248;" d="M45 379 q1 42 13 73 q12 31 31.5 52 q19.5 21 45.5 31 q26 10 56 10 q29 0 51.5 -4.5 q22.5 -4.5 42.5 -11.5 l75 -26 q26 -9 43.5 -13.5 q17.5 -4.5 37.5 -4.5 q28 0 41.5 16.5 q13.5 16.5 18.5 46.5 l90 0 q-2 -36 -11 -67 q-9 -31 -25.5 -53.5 q-16.5 -22.5 -41 -35 q-24.5 -12.5 -56.5 -12.5 q-16 0 -35.5 2.5 q-19.5 2.5 -33.5 7.5 l-107 34 q-25 8 -46 13 q-21 5 -40 5 q-26 0 -41 -17 q-15 -17 -18 -46 l-91 0 ZM45 135 q1 42 13 73 q12 31 31.5 52 q19.5 21 45.5 31 q26 10 56 10 q29 0 51.5 -4.5 q22.5 -4.5 42.5 -11.5 l75 -26 q26 -9 43.5 -13.5 q17.5 -4.5 37.5 -4.5 q28 0 41.5 16.5 q13.5 16.5 18.5 46.5 l90 0 q-2 -36 -11 -67 q-9 -31 -25.5 -53.5 q-16.5 -22.5 -41 -35 q-24.5 -12.5 -56.5 -12.5 q-16 0 -35.5 2.5 q-19.5 2.5 -33.5 7.5 l-107 34 q-25 8 -46 13 q-21 5 -40 5 q-26 0 -41 -17 q-15 -17 -18 -46 l-91 0 Z" /><glyph glyph-name="notequal" unicode="&#x2260;" d="M179 163 l-71 0 q-29 0 -41.5 15.5 q-12.5 15.5 -12.5 41.5 q0 18 5 31.5 q5 13.5 7 18.5 l162 0 l75 142 l-195 0 q-29 0 -41.5 15 q-12.5 15 -12.5 41 q0 18 4.5 32 q4.5 14 7.5 19 l287 0 l48 92 q11 21 24 33 q13 12 36 12 q26 0 41.5 -11 q15.5 -11 19.5 -18 l-56 -108 l59 0 q29 0 42 -14 q13 -14 13 -40 q0 -18 -5 -33 q-5 -15 -8 -20 l-151 0 l-76 -142 l185 0 q29 0 41 -15 q12 -15 12 -41 q0 -18 -4.5 -32 q-4.5 -14 -6.5 -19 l-277 0 l-68 -131 l-110 0 l67 131 Z" /><glyph glyph-name="lessequal" unicode="&#x2264;" d="M525 106 q29 0 41 -15 q12 -15 12 -40 q0 -18 -4.5 -32 q-4.5 -14 -6.5 -19 l-459 0 q-29 0 -41 15 q-12 15 -12 41 q0 17 4.5 31 q4.5 14 6.5 19 l459 0 ZM561 616 l0 -113 l-341 -112 l341 -112 l0 -112 l-441 154 q-28 10 -38.5 29.5 q-10.5 19.5 -10.5 40.5 q0 20 8 35.5 q8 15.5 17 23.5 l465 166 Z" /><glyph glyph-name="greaterequal" unicode="&#x2265;" d="M67 0 q-2 5 -6.5 19 q-4.5 14 -4.5 32 q0 25 12 40 q12 15 41 15 l459 0 q2 -5 6.5 -19 q4.5 -14 4.5 -31 q0 -26 -12 -41 q-12 -15 -41 -15 l-459 0 ZM73 167 l0 112 l341 112 l-341 112 l0 113 l465 -166 q9 -8 17 -23.5 q8 -15.5 8 -35.5 q0 -21 -10.5 -40.5 q-10.5 -19.5 -38.5 -29.5 l-441 -154 Z" /><glyph glyph-name="lozenge" unicode="&#x25ca;" d="M482 344 l-154 245 l-154 -245 l154 -249 l154 249 ZM44 344 l226 360 l116 0 l226 -360 l-226 -361 l-116 0 l-226 361 Z" /><glyph glyph-name="f_f" unicode="&#xfb00;" d="M61 533 q0 54 15 93 q15 39 42.5 63.5 q27.5 24.5 65 36 q37.5 11.5 82.5 11.5 q58 0 94 -17 q36 -17 36 -52 q0 -17 -9.5 -30 q-9.5 -13 -20.5 -20 q-16 13 -37.5 21 q-21.5 8 -51.5 8 q-54 0 -78 -30 q-24 -30 -24 -85 l0 -30 l234 0 l0 31 q0 54 15 93 q15 39 42.5 63.5 q27.5 24.5 65 36 q37.5 11.5 82.5 11.5 q82 0 116 -19.5 q34 -19.5 34 -49.5 q0 -17 -9.5 -30 q-9.5 -13 -20.5 -20 q-16 13 -43.5 21 q-27.5 8 -58.5 8 q-59 0 -84 -30 q-25 -30 -25 -85 l0 -30 l150 0 q33 0 46.5 -13.5 q13.5 -13.5 13.5 -39.5 q0 -17 -5 -31.5 q-5 -14.5 -8 -20.5 l-197 0 l0 -397 l-114 0 l0 397 l-234 0 l0 -397 l-114 0 l0 533 Z" /><glyph glyph-name="fi" unicode="&#xf001;" d="M61 533 q0 56 17.5 95 q17.5 39 47.5 63 q30 24 70.5 35 q40.5 11 87.5 11 q88 0 130 -18.5 q42 -18.5 42 -50.5 q0 -17 -9.5 -30.5 q-9.5 -13.5 -20.5 -20.5 q-8 6 -22.5 11.5 q-14.5 5.5 -31.5 9.5 q-17 4 -35.5 6.5 q-18.5 2.5 -34.5 2.5 q-60 0 -94 -29 q-34 -29 -34 -91 l0 -25 l289 0 q36 0 47 -15.5 q11 -15.5 11 -47.5 l0 -439 l-113 0 l0 397 l-234 0 l0 -397 l-113 0 l0 533 Z" /><glyph glyph-name="fl" unicode="&#xf002;" d="M61 533 q0 56 17.5 95 q17.5 39 48.5 63 q31 24 74 35 q43 11 94 11 q49 0 87.5 -6 q38.5 -6 66 -13 q27.5 -7 42.5 -13 q15 -6 17 -7 l0 -698 l-114 0 l0 633 q-6 2 -32.5 8 q-26.5 6 -65.5 6 q-64 0 -92.5 -30.5 q-28.5 -30.5 -28.5 -91.5 l0 -23 l114 0 q33 0 46.5 -13.5 q13.5 -13.5 13.5 -39.5 q0 -17 -5 -31.5 q-5 -14.5 -8 -20.5 l-161 0 l0 -397 l-114 0 l0 533 Z" /><glyph glyph-name="f_f_i" unicode="&#xfb03;" d="M61 533 q0 54 15 93 q15 39 42.5 63.5 q27.5 24.5 65 36 q37.5 11.5 82.5 11.5 q58 0 94 -17 q36 -17 36 -52 q0 -17 -9.5 -30 q-9.5 -13 -20.5 -20 q-16 13 -37.5 21 q-21.5 8 -51.5 8 q-54 0 -78 -30 q-24 -30 -24 -85 l0 -30 l240 0 l0 31 q0 56 17.5 95 q17.5 39 47.5 63 q30 24 70.5 35 q40.5 11 87.5 11 q88 0 130 -18.5 q42 -18.5 42 -50.5 q0 -17 -9.5 -30.5 q-9.5 -13.5 -20.5 -20.5 q-8 6 -22.5 11.5 q-14.5 5.5 -31.5 9.5 q-17 4 -35.5 6.5 q-18.5 2.5 -34.5 2.5 q-60 0 -94 -29 q-34 -29 -34 -91 l0 -25 l289 0 q36 0 47 -15.5 q11 -15.5 11 -47.5 l0 -439 l-114 0 l0 397 l-232 0 l0 -397 l-114 0 l0 397 l-240 0 l0 -397 l-114 0 l0 533 Z" /><glyph glyph-name="f_f_l" unicode="&#xfb04;" d="M61 533 q0 54 15 93 q15 39 42.5 63.5 q27.5 24.5 65 36 q37.5 11.5 82.5 11.5 q58 0 94 -17 q36 -17 36 -52 q0 -17 -9.5 -30 q-9.5 -13 -20.5 -20 q-16 13 -37.5 21 q-21.5 8 -51.5 8 q-54 0 -78 -30 q-24 -30 -24 -85 l0 -30 l232 0 l0 31 q0 56 17.5 95 q17.5 39 48.5 63 q31 24 74 35 q43 11 94 11 q49 0 87.5 -6 q38.5 -6 66 -13 q27.5 -7 42.5 -13 q15 -6 17 -7 l0 -698 l-114 0 l0 633 q-6 2 -32.5 8 q-26.5 6 -65.5 6 q-64 0 -92.5 -30.5 q-28.5 -30.5 -28.5 -91.5 l0 -23 l114 0 q33 0 46.5 -13.5 q13.5 -13.5 13.5 -39.5 q0 -17 -5 -31.5 q-5 -14.5 -8 -20.5 l-161 0 l0 -397 l-114 0 l0 397 l-232 0 l0 -397 l-114 0 l0 533 Z" /><glyph glyph-name="zero.alt" unicode="&#xf800;" d="M46 343 q0 84 19.5 151 q19.5 67 56.5 113.5 q37 46.5 90.5 71.5 q53.5 25 121.5 25 q67 0 120.5 -25 q53.5 -25 90.5 -71.5 q37 -46.5 56.5 -113.5 q19.5 -67 19.5 -151 q0 -84 -19.5 -151 q-19.5 -67 -56.5 -113.5 q-37 -46.5 -90.5 -71 q-53.5 -24.5 -120.5 -24.5 q-68 0 -121.5 24.5 q-53.5 24.5 -90.5 71 q-37 46.5 -56.5 113.5 q-19.5 67 -19.5 151 ZM334 88 q42 0 73 18.5 q31 18.5 51.5 52.5 q20.5 34 31 81 q10.5 47 10.5 103 q0 56 -10.5 103 q-10.5 47 -31 80.5 q-20.5 33.5 -51.5 52.5 q-31 19 -73 19 q-42 0 -73.5 -19 q-31.5 -19 -52 -52.5 q-20.5 -33.5 -31 -80.5 q-10.5 -47 -10.5 -103 q0 -56 10.5 -103 q10.5 -47 31 -81 q20.5 -34 52 -52.5 q31.5 -18.5 73.5 -18.5 Z" /><glyph glyph-name="one.alt" unicode="&#xf801;" d="M330 551 l-159 -115 q-6 3 -15 8 q-9 5 -17.5 13 q-8.5 8 -14 18 q-5.5 10 -5.5 22 q0 22 11 37 q11 15 36 32 l120 83 q24 17 44.5 27 q20.5 10 51.5 10 q24 0 42 -7.5 q18 -7.5 22 -10.5 l0 -668 l-116 0 l0 551 Z" /><glyph glyph-name="two.alt" unicode="&#xf802;" d="M88 101 q14 9 45 30.5 q31 21.5 67.5 48 q36.5 26.5 72.5 54 q36 27.5 60 49.5 q58 52 89 97.5 q31 45.5 31 101.5 q0 24 -8.5 45.5 q-8.5 21.5 -26 38.5 q-17.5 17 -45 27 q-27.5 10 -65.5 10 q-38 0 -65.5 -11 q-27.5 -11 -46 -26 q-18.5 -15 -29 -31 q-10.5 -16 -14.5 -25 q-9 2 -19.5 7 q-10.5 5 -20 13 q-9.5 8 -16 18.5 q-6.5 10.5 -6.5 23.5 q0 15 5.5 28.5 q5.5 13.5 13.5 24.5 q5 7 19.5 20.5 q14.5 13.5 40 26.5 q25.5 13 62 22.5 q36.5 9.5 86.5 9.5 q63 0 111 -16.5 q48 -16.5 80.5 -45 q32.5 -28.5 49 -67.5 q16.5 -39 16.5 -84 q0 -35 -8 -65 q-8 -30 -21 -55 q-13 -25 -29.5 -46.5 q-16.5 -21.5 -33.5 -40.5 q-17 -19 -47 -45.5 q-30 -26.5 -62 -52.5 q-32 -26 -61 -48 q-29 -22 -43 -32 l310 0 l0 -106 l-492 0 l0 101 Z" /><glyph glyph-name="three.alt" unicode="&#xf803;" d="M124 139 q12 -8 31 -17 q19 -9 44 -17 q25 -8 55.5 -13.5 q30.5 -5.5 65.5 -5.5 q74 0 113 28.5 q39 28.5 39 80.5 q0 52 -41.5 77 q-41.5 25 -114.5 25 l-63 0 q-3 5 -9 20.5 q-6 15.5 -6 34.5 q0 52 63 52 l20 0 q69 0 105 27.5 q36 27.5 36 73.5 q0 45 -35 72.5 q-35 27.5 -106 27.5 q-40 0 -69 -10 q-29 -10 -49 -24 q-20 -14 -31.5 -28.5 q-11.5 -14.5 -14.5 -22.5 q-25 4 -43.5 21 q-18.5 17 -18.5 40 q0 14 4.5 27 q4.5 13 17.5 27 q7 7 22.5 19 q15.5 12 41 23 q25.5 11 62 19 q36.5 8 84.5 8 q67 0 115 -16 q48 -16 79 -42 q31 -26 45.5 -59.5 q14.5 -33.5 14.5 -68.5 q0 -30 -9.5 -56 q-9.5 -26 -25.5 -46.5 q-16 -20.5 -36.5 -36 q-20.5 -15.5 -41.5 -25.5 q66 -22 95.5 -67 q29.5 -45 29.5 -98 q0 -45 -18.5 -83 q-18.5 -38 -52 -65.5 q-33.5 -27.5 -81.5 -42.5 q-48 -15 -107 -15 q-51 0 -94 8 q-43 8 -76 18.5 q-33 10.5 -56 22 q-23 11.5 -34 19.5 l50 88 Z" /><glyph glyph-name="four.alt" unicode="&#xf804;" d="M407 256 l0 316 q-35 -18 -76 -51.5 q-41 -33.5 -76 -73 q-35 -39.5 -58.5 -80.5 q-23.5 -41 -23.5 -73 q0 -25 18 -31.5 q18 -6.5 47 -6.5 l169 0 ZM407 151 l-192 0 q-78 0 -119.5 26 q-41.5 26 -41.5 85 q0 44 19 92 q19 48 50.5 95 q31.5 47 72.5 90 q41 43 85 75.5 q44 32.5 87 52 q43 19.5 80 19.5 q35 0 52.5 -7.5 q17.5 -7.5 21.5 -9.5 l0 -413 l33 0 q59 0 59 -51 q0 -19 -6 -34 q-6 -15 -9 -20 l-77 0 l0 -151 l-115 0 l0 151 Z" /><glyph glyph-name="five.alt" unicode="&#xf805;" d="M123 129 q26 -14 73.5 -29 q47.5 -15 108.5 -15 q86 0 125 34 q39 34 39 85 q0 26 -9.5 48.5 q-9.5 22.5 -30.5 39 q-21 16.5 -56 26 q-35 9.5 -86 9.5 q-22 0 -45 -2 q-23 -2 -45 -5 q-22 -3 -41.5 -7 q-19.5 -4 -33.5 -8 l10 313 q2 68 73 68 l295 0 q59 0 59 -51 q0 -19 -6 -34 q-6 -15 -9 -20 l-307 0 l-5 -163 q16 2 43.5 4.5 q27.5 2.5 59.5 2.5 q71 0 119.5 -18.5 q48.5 -18.5 78.5 -48.5 q30 -30 43 -69 q13 -39 13 -80 q0 -50 -18 -91.5 q-18 -41.5 -53 -71.5 q-35 -30 -86 -46.5 q-51 -16.5 -118 -16.5 q-49 0 -89.5 7 q-40.5 7 -70.5 16.5 q-30 9.5 -49.5 19 q-19.5 9.5 -26.5 14.5 l45 89 Z" /><glyph glyph-name="six.alt" unicode="&#xf806;" d="M319 670 q12 16 27 25 q15 9 39 9 q30 0 48.5 -12 q18.5 -12 22.5 -17 l-176 -233 q11 6 32.5 13 q21.5 7 56.5 7 q54 0 97 -18.5 q43 -18.5 73 -49.5 q30 -31 46 -72 q16 -41 16 -87 q0 -56 -20.5 -102 q-20.5 -46 -56.5 -79.5 q-36 -33.5 -85 -52 q-49 -18.5 -106 -18.5 q-58 0 -106.5 18 q-48.5 18 -84 50.5 q-35.5 32.5 -55.5 77 q-20 44.5 -20 98.5 q0 68 30 130.5 q30 62.5 81 128.5 l141 184 ZM332 82 q69 0 110.5 41 q41.5 41 41.5 106 q0 34 -11.5 61.5 q-11.5 27.5 -31.5 46.5 q-20 19 -48 29.5 q-28 10.5 -61 10.5 q-33 0 -61 -11 q-28 -11 -48 -30.5 q-20 -19.5 -31.5 -47 q-11.5 -27.5 -11.5 -59.5 q0 -32 11 -59 q11 -27 31.5 -46.5 q20.5 -19.5 48.5 -30.5 q28 -11 61 -11 Z" /><glyph glyph-name="seven.alt" unicode="&#xf807;" d="M205 0 q7 17 27 60.5 q20 43.5 45.5 100.5 q25.5 57 54 121 q28.5 64 54.5 122.5 q26 58.5 46 104.5 q20 46 29 68 l-322 0 q-60 0 -60 53 q0 19 5.5 35 q5.5 16 9.5 21 l423 0 q35 0 53 -16 q18 -16 18 -43 q0 -20 -6 -39.5 q-6 -19.5 -15 -42.5 q-10 -25 -28.5 -67.5 q-18.5 -42.5 -41.5 -94 q-23 -51.5 -48 -108 q-25 -56.5 -48.5 -109 q-23.5 -52.5 -43.5 -96.5 q-20 -44 -31 -70 l-121 0 Z" /><glyph glyph-name="eight.alt" unicode="&#xf808;" d="M172 349 q-56 29 -79 71.5 q-23 42.5 -23 86.5 q0 44 18.5 80 q18.5 36 52.5 62 q34 26 83 40.5 q49 14.5 110 14.5 q61 0 109.5 -14.5 q48.5 -14.5 82.5 -40.5 q34 -26 52.5 -62 q18.5 -36 18.5 -80 q0 -44 -23 -86.5 q-23 -42.5 -79 -71.5 q33 -14 55.5 -32.5 q22.5 -18.5 36.5 -40 q14 -21.5 20 -45 q6 -23.5 6 -45.5 q0 -46 -19 -83.5 q-19 -37.5 -54.5 -64 q-35.5 -26.5 -87.5 -41 q-52 -14.5 -118 -14.5 q-66 0 -118 14.5 q-52 14.5 -88 41 q-36 26.5 -55 64 q-19 37.5 -19 83.5 q0 22 6 45.5 q6 23.5 20 45 q14 21.5 36.5 40 q22.5 18.5 55.5 32.5 ZM334 395 q74 0 110.5 30.5 q36.5 30.5 36.5 76.5 q0 47 -36.5 78 q-36.5 31 -110.5 31 q-75 0 -111.5 -31 q-36.5 -31 -36.5 -78 q0 -46 36.5 -76.5 q36.5 -30.5 111.5 -30.5 ZM334 81 q78 0 119 29.5 q41 29.5 41 80.5 q0 50 -41 80 q-41 30 -119 30 q-78 0 -119.5 -30 q-41.5 -30 -41.5 -80 q0 -51 41.5 -80.5 q41.5 -29.5 119.5 -29.5 Z" /><glyph glyph-name="nine.alt" unicode="&#xf809;" d="M387 241 q-10 -6 -31 -12.5 q-21 -6.5 -45 -6.5 q-59 0 -105 18.5 q-46 18.5 -77 50 q-31 31.5 -47 73 q-16 41.5 -16 87.5 q0 55 20 101.5 q20 46.5 56 80.5 q36 34 85.5 52.5 q49.5 18.5 108.5 18.5 q58 0 107 -18 q49 -18 84.5 -50.5 q35.5 -32.5 55 -77.5 q19.5 -45 19.5 -99 q0 -71 -30.5 -131.5 q-30.5 -60.5 -73.5 -117.5 l-165 -218 l-134 0 l188 249 ZM182 456 q0 -35 11.5 -62.5 q11.5 -27.5 32 -46.5 q20.5 -19 48.5 -29.5 q28 -10.5 62 -10.5 q34 0 62.5 11 q28.5 11 49 31 q20.5 20 32 47 q11.5 27 11.5 60 q0 32 -11.5 59.5 q-11.5 27.5 -32 47.5 q-20.5 20 -49 31 q-28.5 11 -62.5 11 q-35 0 -63.5 -11 q-28.5 -11 -48.5 -31 q-20 -20 -31 -47 q-11 -27 -11 -60 Z" /><glyph glyph-name="afii10051" unicode="&#x402;" d="M748 233 q0 -49 -17 -91.5 q-17 -42.5 -49.5 -74.5 q-32.5 -32 -80.5 -50.5 q-48 -18.5 -110 -18.5 q-8 0 -16 0.5 q-8 0.5 -17 1.5 l0 103 q5 -1 10 -1.5 q5 -0.5 10 -0.5 q63 0 103.5 32.5 q40.5 32.5 40.5 98.5 q0 59 -37.5 95.5 q-37.5 36.5 -102.5 36.5 q-68 0 -105 -38.5 q-37 -38.5 -37 -106.5 l0 -219 l-119 0 l0 577 l-157 0 q-59 0 -59 54 q0 19 5.5 34.5 q5.5 15.5 9.5 20.5 l490 0 q59 0 59 -54 q0 -19 -6 -34.5 q-6 -15.5 -9 -20.5 l-214 0 l0 -171 q20 23 60.5 42.5 q40.5 19.5 101.5 19.5 q53 0 98 -15.5 q45 -15.5 78 -45.5 q33 -30 51.5 -73.5 q18.5 -43.5 18.5 -100.5 Z" /><glyph glyph-name="afii10053" unicode="&#x404;" d="M409 -18 q-74 0 -140 23.5 q-66 23.5 -116.5 68.5 q-50.5 45 -80 112 q-29.5 67 -29.5 154 q0 86 28.5 153.5 q28.5 67.5 78 114.5 q49.5 47 115.5 71.5 q66 24.5 141 24.5 q71 0 117 -12 q46 -12 73 -29 q27 -17 37.5 -35.5 q10.5 -18.5 10.5 -31.5 q0 -13 -5.5 -25 q-5.5 -12 -13 -21.5 q-7.5 -9.5 -15.5 -16.5 q-8 -7 -14 -10 q-10 11 -27.5 24 q-17.5 13 -41.5 24 q-24 11 -54 18.5 q-30 7.5 -65 7.5 q-45 0 -84 -13.5 q-39 -13.5 -70 -39.5 q-31 -26 -52 -63 q-21 -37 -28 -84 l244 0 q33 0 46.5 -14.5 q13.5 -14.5 13.5 -39.5 q0 -19 -5 -34 q-5 -15 -8 -21 l-292 0 q7 -44 27.5 -80 q20.5 -36 52 -62 q31.5 -26 73.5 -40.5 q42 -14.5 93 -14.5 q64 0 109.5 15.5 q45.5 15.5 66.5 30.5 l53 -92 l1 0 q-11 -8 -31 -19 q-20 -11 -49.5 -20.5 q-29.5 -9.5 -69 -16.5 q-39.5 -7 -90.5 -7 Z" /><glyph glyph-name="afii10058" unicode="&#x409;" d="M634 428 q26 2 52 3.5 q26 1.5 52 1.5 q56 0 110.5 -7.5 q54.5 -7.5 97 -31 q42.5 -23.5 69 -66 q26.5 -42.5 26.5 -111.5 q0 -119 -83 -172.5 q-83 -53.5 -247 -53.5 q-29 0 -61 1 q-32 1 -60 2.5 q-28 1.5 -48 3 q-20 1.5 -26 2.5 l0 581 q-9 2 -29 4 q-20 2 -42 2 q-34 0 -60.5 -6.5 q-26.5 -6.5 -47 -24 q-20.5 -17.5 -36 -47.5 q-15.5 -30 -27.5 -77 q-16 -61 -29 -120.5 q-13 -59.5 -28 -119.5 q-11 -44 -28 -95.5 q-17 -51.5 -48 -96.5 l-135 0 q35 55 55 103.5 q20 48.5 33 93.5 q8 28 15 56.5 q7 28.5 14 59 q7 30.5 15 65 q8 34.5 18 76.5 q16 69 41.5 115.5 q25.5 46.5 61.5 74.5 q36 28 82.5 40 q46.5 12 104.5 12 q49 0 84 -4.5 q35 -4.5 49 -6.5 q23 -5 39 -18.5 q16 -13.5 16 -45.5 l0 -193 ZM634 96 q18 -2 41 -3 q23 -1 63 -1 q38 0 70.5 5.5 q32.5 5.5 56.5 19.5 q24 14 38 38 q14 24 14 61 q0 38 -15.5 60.5 q-15.5 22.5 -41 34.5 q-25.5 12 -58.5 15.5 q-33 3.5 -68 3.5 q-27 0 -52 -1 q-25 -1 -48 -3 l0 -230 Z" /><glyph glyph-name="afii10059" unicode="&#x40a;" d="M921 216 q0 38 -15.5 60.5 q-15.5 22.5 -41 34.5 q-25.5 12 -58.5 15.5 q-33 3.5 -68 3.5 q-27 0 -52 -1 q-25 -1 -48 -3 l0 -230 q18 -2 41 -3 q23 -1 63 -1 q38 0 70.5 5.5 q32.5 5.5 56.5 19.5 q24 14 38 38 q14 24 14 61 ZM1045 217 q0 -119 -83 -172.5 q-83 -53.5 -247 -53.5 q-29 0 -61 1 q-32 1 -60 2.5 q-28 1.5 -48 3 q-20 1.5 -26 2.5 l0 326 l-329 0 l0 -326 l-118 0 l0 631 q0 28 16.5 41.5 q16.5 13.5 45.5 13.5 q20 0 35.5 -5 q15.5 -5 20.5 -7 l0 -247 l329 0 l0 204 q0 28 16.5 41.5 q16.5 13.5 45.5 13.5 q20 0 35.5 -5 q15.5 -5 20.5 -8 l0 -245 q26 2 52 3.5 q26 1.5 52 1.5 q56 0 110.5 -7.5 q54.5 -7.5 97 -31 q42.5 -23.5 69 -66 q26.5 -42.5 26.5 -111.5 Z" /><glyph glyph-name="afii10060" unicode="&#x40b;" d="M221 577 l-157 0 q-59 0 -59 54 q0 19 5.5 34.5 q5.5 15.5 9.5 20.5 l490 0 q59 0 59 -54 q0 -19 -6 -34.5 q-6 -15.5 -9 -20.5 l-214 0 l0 -181 q20 26 62 45.5 q42 19.5 108 19.5 q47 0 86.5 -12 q39.5 -12 68 -37.5 q28.5 -25.5 44.5 -64 q16 -38.5 16 -90.5 l0 -257 l-116 0 l0 220 q0 66 -29.5 99.5 q-29.5 33.5 -98.5 33.5 q-29 0 -54.5 -9.5 q-25.5 -9.5 -44.5 -26.5 q-19 -17 -30.5 -41.5 q-11.5 -24.5 -11.5 -55.5 l0 -220 l-119 0 l0 577 Z" /><glyph glyph-name="afii10145" unicode="&#x40f;" d="M428 -180 l-118 0 l0 180 l-237 0 l0 631 q0 28 16.5 41.5 q16.5 13.5 45.5 13.5 q20 0 35.5 -5 q15.5 -5 20.5 -7 l0 -565 l355 0 l0 522 q0 28 16.5 41.5 q16.5 13.5 45.5 13.5 q19 0 35 -5 q16 -5 21 -7 l0 -674 l-236 0 l0 -180 Z" /><glyph glyph-name="afii10018" unicode="&#x411;" d="M192 423 q17 2 47 3 q30 1 62 1 q56 0 109.5 -8.5 q53.5 -8.5 95 -32 q41.5 -23.5 67 -65 q25.5 -41.5 25.5 -106.5 q0 -115 -82 -170 q-82 -55 -247 -55 q-33 0 -65.5 1 q-32.5 1 -59.5 2.5 q-27 1.5 -46 3 q-19 1.5 -25 2.5 l0 619 q0 68 72 68 l352 0 q59 0 59 -54 q0 -19 -6 -34.5 q-6 -15.5 -9 -20.5 l-349 0 l0 -154 ZM192 96 q17 -2 40.5 -3 q23.5 -1 62.5 -1 q39 0 71.5 6.5 q32.5 6.5 56.5 20.5 q24 14 37.5 37.5 q13.5 23.5 13.5 57.5 q0 37 -16 59.5 q-16 22.5 -41.5 33.5 q-25.5 11 -58 14.5 q-32.5 3.5 -65.5 3.5 q-33 0 -58.5 -1.5 q-25.5 -1.5 -42.5 -3.5 l0 -224 Z" /><glyph glyph-name="afii10020" unicode="&#x413;" d="M73 618 q0 68 72 68 l373 0 q59 0 59 -54 q0 -19 -5.5 -34.5 q-5.5 -15.5 -9.5 -20.5 l-371 0 l0 -577 l-118 0 l0 618 Z" /><glyph glyph-name="afii10021" unicode="&#x414;" d="M290 432 q-8 -33 -18 -75 q-10 -42 -20 -86.5 q-10 -44.5 -20 -86.5 q-10 -42 -17 -75 l313 0 l0 474 q-9 2 -28 4 q-19 2 -41 2 q-35 0 -61.5 -7 q-26.5 -7 -46 -24.5 q-19.5 -17.5 -34.5 -48 q-15 -30.5 -27 -77.5 ZM134 -181 l-118 0 l0 232 q0 27 16 42.5 q16 15.5 45 15.5 l14 0 q20 84 41 175 q21 91 40 170 q16 69 41.5 115.5 q25.5 46.5 61.5 74.5 q36 28 82 40 q46 12 103 12 q49 0 83 -4.5 q34 -4.5 48 -6.5 q23 -5 39 -18.5 q16 -13.5 16 -45.5 l0 -512 l13 0 q29 0 45 -15.5 q16 -15.5 16 -42.5 l0 -232 l-118 0 l0 181 l-468 0 l0 -181 Z" /><glyph glyph-name="afii10024" unicode="&#x416;" d="M163 674 q6 -9 22.5 -35.5 q16.5 -26.5 37.5 -59 q21 -32.5 43.5 -66 q22.5 -33.5 41.5 -57.5 q14 -18 26 -30.5 q12 -12.5 25.5 -21 q13.5 -8.5 29 -12 q15.5 -3.5 36.5 -3.5 l26 0 l0 242 q0 28 16.5 41.5 q16.5 13.5 45.5 13.5 q19 0 35 -5 q16 -5 21 -7 l0 -285 l26 0 q35 0 57.5 11.5 q22.5 11.5 47.5 41.5 q41 50 67.5 94.5 q26.5 44.5 48 77.5 q21.5 33 43.5 52.5 q22 19.5 55 19.5 q28 0 44.5 -7.5 q16.5 -7.5 29.5 -17.5 q-35 -53 -78 -119.5 q-43 -66.5 -92 -135.5 q-13 -18 -29 -36 q-16 -18 -36 -33 q30 -35 62.5 -75.5 q32.5 -40.5 65.5 -84.5 q33 -44 65 -89 q32 -45 59 -88 l-139 0 q-24 35 -50.5 72.5 q-26.5 37.5 -54.5 74.5 q-28 37 -56.5 72 q-28.5 35 -56.5 67 q-21 -3 -41 -3 l-38 0 l0 -283 l-118 0 l0 283 l-38 0 q-12 0 -21 0.5 q-9 0.5 -20 2.5 q-28 -32 -56.5 -67 q-28.5 -35 -57 -72 q-28.5 -37 -55 -74.5 q-26.5 -37.5 -50.5 -72.5 l-138 0 q27 43 58.5 88 q31.5 45 64.5 89 q33 44 66 84.5 q33 40.5 63 75.5 q-20 15 -36 33 q-16 18 -29 36 q-24 33 -49 67.5 q-25 34.5 -45.5 66 q-20.5 31.5 -33.5 57 q-13 25.5 -13 41.5 q0 20 13.5 34 q13.5 14 37.5 14 q20 0 33 -5 q13 -5 18 -7 Z" /><glyph glyph-name="afii10025" unicode="&#x417;" d="M300 406 q74 0 113 27 q39 27 39 73 q0 45 -43.5 72 q-43.5 27 -122.5 27 q-47 0 -80.5 -10 q-33.5 -10 -56 -24 q-22.5 -14 -34 -28.5 q-11.5 -14.5 -15.5 -22.5 q-25 4 -44 21 q-19 17 -19 40 q0 14 5 27 q5 13 18 26 q7 7 22.5 19 q15.5 12 43 23.5 q27.5 11.5 67.5 19.5 q40 8 96 8 q73 0 126.5 -16 q53.5 -16 88 -42 q34.5 -26 51 -59 q16.5 -33 16.5 -68 q0 -30 -9.5 -56 q-9.5 -26 -25.5 -46.5 q-16 -20.5 -37 -36 q-21 -15.5 -44 -25.5 q36 -11 60.5 -28 q24.5 -17 40 -39 q15.5 -22 22.5 -47 q7 -25 7 -51 q0 -46 -21.5 -84 q-21.5 -38 -59.5 -65 q-38 -27 -91.5 -42 q-53.5 -15 -116.5 -15 q-60 0 -106.5 8 q-46.5 8 -81 19 q-34.5 11 -57.5 22.5 q-23 11.5 -35 18.5 l51 89 q12 -8 32 -17 q20 -9 47.5 -17.5 q27.5 -8.5 62 -14 q34.5 -5.5 75.5 -5.5 q84 0 132 29 q48 29 48 80 q0 53 -45.5 78 q-45.5 25 -124.5 25 l-89 0 q-59 0 -59 53 q0 19 6 34 q6 15 9 20 l139 0 Z" /><glyph glyph-name="afii10026" unicode="&#x418;" d="M190 188 q71 101 143 201 q72 100 145 202 q13 19 26 35.5 q13 16.5 28 29.5 q15 13 33 20.5 q18 7.5 41 7.5 q19 0 33 -3 q14 -3 22 -7 l0 -674 l-117 0 l0 507 q-41 -56 -88.5 -124 q-47.5 -68 -95 -137 q-47.5 -69 -91.5 -133.5 q-44 -64.5 -77 -112.5 l-119 0 l0 631 q0 28 16 41.5 q16 13.5 45 13.5 q19 0 35 -5 q16 -5 21 -7 l0 -486 Z" /><glyph glyph-name="afii10028" unicode="&#x41a;" d="M191 283 l0 -283 l-118 0 l0 631 q0 53 59 53 q21 0 37.5 -4 q16.5 -4 21.5 -6 l0 -285 l41 0 q42 0 69.5 13.5 q27.5 13.5 50.5 39.5 q44 51 70.5 95 q26.5 44 47.5 76.5 q21 32.5 43 51.5 q22 19 57 19 q27 0 42.5 -7 q15.5 -7 27.5 -16 q-34 -53 -78.5 -119.5 q-44.5 -66.5 -93.5 -135.5 q-15 -21 -30 -38 q-15 -17 -32 -30 q30 -34 63 -75 q33 -41 66 -85 q33 -44 64 -89.5 q31 -45.5 58 -88.5 l-137 0 q-23 35 -50 73 q-27 38 -56 75.5 q-29 37.5 -58.5 73 q-29.5 35.5 -57.5 66.5 q-14 -2 -28.5 -3.5 q-14.5 -1.5 -30.5 -1.5 l-48 0 Z" /><glyph glyph-name="afii10029" unicode="&#x41b;" d="M446 696 q49 0 84 -4.5 q35 -4.5 49 -6.5 q23 -5 39 -18.5 q16 -13.5 16 -45.5 l0 -621 l-118 0 l0 581 q-9 2 -29 4 q-20 2 -42 2 q-34 0 -60.5 -6.5 q-26.5 -6.5 -47 -24 q-20.5 -17.5 -36 -47.5 q-15.5 -30 -27.5 -77 q-16 -61 -29 -120.5 q-13 -59.5 -28 -119.5 q-11 -44 -28 -95.5 q-17 -51.5 -48 -96.5 l-135 0 q35 55 55 103.5 q20 48.5 33 93.5 q8 28 15 56.5 q7 28.5 14 59 q7 30.5 15 65 q8 34.5 18 76.5 q16 69 41.5 115.5 q25.5 46.5 61.5 74.5 q36 28 82.5 40 q46.5 12 104.5 12 Z" /><glyph glyph-name="afii10033" unicode="&#x41f;" d="M543 0 l0 578 l-351 0 l0 -578 l-119 0 l0 618 q0 68 72 68 l444 0 q72 0 72 -68 l0 -618 l-118 0 Z" /><glyph glyph-name="afii10037" unicode="&#x423;" d="M137 -14 q31 46 63.5 97.5 q32.5 51.5 64.5 107.5 q-79 128 -136.5 220 q-57.5 92 -82.5 140 q-17 31 -26 47.5 q-9 16.5 -9 36.5 q0 20 11.5 36 q11.5 16 43.5 16 q17 0 30.5 -3.5 q13.5 -3.5 22.5 -7.5 q13 -26 37.5 -70.5 q24.5 -44.5 54 -96.5 q29.5 -52 61.5 -106 q32 -54 60 -100 q44 81 85 161 q41 80 79 158 q7 15 14.5 27 q7.5 12 17 20.5 q9.5 8.5 22.5 12.5 q13 4 32 4 q26 0 41.5 -9 q15.5 -9 24.5 -14 q-46 -95 -91 -181.5 q-45 -86.5 -91.5 -169.5 q-46.5 -83 -94.5 -163.5 q-48 -80.5 -100 -162.5 l-134 0 Z" /><glyph glyph-name="afii10038" unicode="&#x424;" d="M356 -12 l0 66 q-72 6 -130 29 q-58 23 -99 60.5 q-41 37.5 -63 88.5 q-22 51 -22 112 q0 61 22 111.5 q22 50.5 63 88 q41 37.5 99 60.5 q58 23 130 29 l0 15 q0 52 61 52 q19 0 34.5 -4.5 q15.5 -4.5 20.5 -7.5 l0 -54 q72 -6 130 -29 q58 -23 99 -60.5 q41 -37.5 63.5 -88.5 q22.5 -51 22.5 -112 q0 -61 -22 -112 q-22 -51 -63.5 -88.5 q-41.5 -37.5 -99.5 -60.5 q-58 -23 -130 -29 l0 -66 l-116 0 ZM169 344 q0 -76 47.5 -128 q47.5 -52 139.5 -61 l0 378 q-93 -11 -140 -62.5 q-47 -51.5 -47 -126.5 ZM660 344 q0 76 -47.5 127.5 q-47.5 51.5 -140.5 61.5 l0 -379 q93 10 140.5 62 q47.5 52 47.5 128 Z" /><glyph glyph-name="afii10040" unicode="&#x426;" d="M664 109 l13 0 q29 0 45 -15.5 q16 -15.5 16 -42.5 l0 -232 l-118 0 l0 181 l-547 0 l0 631 q0 28 16.5 41.5 q16.5 13.5 45.5 13.5 q20 0 35.5 -5 q15.5 -5 20.5 -7 l0 -565 l355 0 l0 522 q0 28 16.5 41.5 q16.5 13.5 45.5 13.5 q19 0 35 -5 q16 -5 21 -7 l0 -565 Z" /><glyph glyph-name="afii10041" unicode="&#x427;" d="M483 631 q0 28 17 41.5 q17 13.5 46 13.5 q19 0 35 -5 q16 -5 21 -7 l0 -674 l-119 0 l0 254 q-34 -8 -71.5 -12.5 q-37.5 -4.5 -91.5 -4.5 q-52 0 -101.5 9.5 q-49.5 9.5 -88 34.5 q-38.5 25 -62 69.5 q-23.5 44.5 -23.5 115.5 l0 165 q0 28 16.5 41.5 q16.5 13.5 45.5 13.5 q19 0 35 -5 q16 -5 21 -7 l0 -167 q0 -44 8.5 -74.5 q8.5 -30.5 28.5 -50 q20 -19.5 53.5 -28.5 q33.5 -9 83.5 -9 q50 0 82.5 4 q32.5 4 63.5 12 l0 270 Z" /><glyph glyph-name="afii10042" unicode="&#x428;" d="M571 109 l261 0 l0 522 q0 28 16.5 41.5 q16.5 13.5 45.5 13.5 q20 0 35.5 -5 q15.5 -5 20.5 -7 l0 -674 l-877 0 l0 631 q0 28 16.5 41.5 q16.5 13.5 45.5 13.5 q20 0 35.5 -5 q15.5 -5 20.5 -7 l0 -565 l262 0 l0 522 q0 28 16.5 41.5 q16.5 13.5 45.5 13.5 q19 0 35 -5 q16 -5 21 -7 l0 -565 Z" /><glyph glyph-name="afii10043" unicode="&#x429;" d="M950 109 l14 0 q29 0 44.5 -15 q15.5 -15 15.5 -43 l0 -232 l-118 0 l0 181 l-833 0 l0 631 q0 28 16.5 41.5 q16.5 13.5 45.5 13.5 q19 0 35 -5 q16 -5 21 -7 l0 -565 l261 0 l0 522 q0 28 16.5 41.5 q16.5 13.5 45.5 13.5 q20 0 35.5 -5 q15.5 -5 20.5 -7 l0 -565 l262 0 l0 522 q0 28 16.5 41.5 q16.5 13.5 45.5 13.5 q19 0 35 -5 q16 -5 21 -7 l0 -565 Z" /><glyph glyph-name="afii10044" unicode="&#x42a;" d="M64 577 q-59 0 -59 54 q0 19 5.5 34.5 q5.5 15.5 9.5 20.5 l212 0 q72 0 72 -68 l0 -159 q18 2 51 4 q33 2 66 2 q58 0 113 -9.5 q55 -9.5 98 -35 q43 -25.5 69 -70.5 q26 -45 26 -116 q0 -125 -85 -184.5 q-85 -59.5 -253 -59.5 q-33 0 -67 1.5 q-34 1.5 -62.5 3 q-28.5 1.5 -48 3 q-19.5 1.5 -25.5 2.5 l0 577 l-122 0 ZM304 97 q18 -2 44.5 -3 q26.5 -1 67.5 -1 q40 0 74.5 7 q34.5 7 59.5 23.5 q25 16.5 39 43.5 q14 27 14 66 q0 43 -16.5 69 q-16.5 26 -43.5 39.5 q-27 13.5 -61 17.5 q-34 4 -68 4 q-35 0 -63.5 -2 q-28.5 -2 -46.5 -4 l0 -260 Z" /><glyph glyph-name="afii10045" unicode="&#x42b;" d="M191 459 q18 2 51 4 q33 2 68 2 q58 0 114 -9.5 q56 -9.5 99 -35 q43 -25.5 69.5 -70.5 q26.5 -45 26.5 -116 q0 -125 -86 -184.5 q-86 -59.5 -257 -59.5 q-34 0 -67.5 1.5 q-33.5 1.5 -62 3 q-28.5 1.5 -48 3 q-19.5 1.5 -25.5 2.5 l0 631 q0 28 16.5 41.5 q16.5 13.5 45.5 13.5 q20 0 35.5 -5 q15.5 -5 20.5 -8 l0 -214 ZM191 97 q18 -3 45 -3.5 q27 -0.5 68 -0.5 q41 0 76 7 q35 7 60.5 23.5 q25.5 16.5 40 43.5 q14.5 27 14.5 66 q0 43 -17 69 q-17 26 -44.5 39.5 q-27.5 13.5 -62 17.5 q-34.5 4 -69.5 4 q-35 0 -64 -2 q-29 -2 -47 -4 l0 -260 ZM733 0 l0 631 q0 28 16.5 41.5 q16.5 13.5 45.5 13.5 q20 0 35.5 -5 q15.5 -5 20.5 -8 l0 -673 l-118 0 Z" /><glyph glyph-name="afii10046" unicode="&#x42c;" d="M191 459 q18 2 51 4 q33 2 68 2 q58 0 114 -9.5 q56 -9.5 99 -35 q43 -25.5 69.5 -70.5 q26.5 -45 26.5 -116 q0 -125 -86 -184.5 q-86 -59.5 -257 -59.5 q-34 0 -67.5 1 q-33.5 1 -62 2.5 q-28.5 1.5 -48 3.5 q-19.5 2 -25.5 3 l0 631 q0 28 16.5 41.5 q16.5 13.5 45.5 13.5 q20 0 35.5 -5 q15.5 -5 20.5 -8 l0 -214 ZM191 97 q18 -2 45 -3 q27 -1 68 -1 q41 0 76 7 q35 7 60.5 23.5 q25.5 16.5 40 43.5 q14.5 27 14.5 66 q0 43 -17 69 q-17 26 -44.5 39.5 q-27.5 13.5 -62 17.5 q-34.5 4 -69.5 4 q-35 0 -64 -2 q-29 -2 -47 -4 l0 -260 Z" /><glyph glyph-name="afii10047" unicode="&#x42d;" d="M248 288 q-59 0 -59 53 q0 19 6 34.5 q6 15.5 9 20.5 l289 0 q-8 47 -28.5 84.5 q-20.5 37.5 -51.5 63.5 q-31 26 -70 39.5 q-39 13.5 -83 13.5 q-35 0 -65 -7.5 q-30 -7.5 -54.5 -18.5 q-24.5 -11 -42 -24 q-17.5 -13 -27.5 -24 q-6 3 -14 10 q-8 7 -15.5 16.5 q-7.5 9.5 -12.5 21.5 q-5 12 -5 25 q0 12 10.5 30.5 q10.5 18.5 37 36 q26.5 17.5 72.5 29.5 q46 12 118 12 q74 0 140 -24.5 q66 -24.5 115.5 -71.5 q49.5 -47 78 -114.5 q28.5 -67.5 28.5 -153.5 q0 -87 -29.5 -154 q-29.5 -67 -79.5 -112 q-50 -45 -116.5 -68.5 q-66.5 -23.5 -140.5 -23.5 q-51 0 -90.5 7 q-39.5 7 -69 16.5 q-29.5 9.5 -49 20.5 q-19.5 11 -30.5 19 l53 92 q21 -15 66.5 -30.5 q45.5 -15.5 109.5 -15.5 q46 0 87.5 12.5 q41.5 12.5 74 37.5 q32.5 25 54.5 62 q22 37 30 85 l-246 0 Z" /><glyph glyph-name="afii10048" unicode="&#x42e;" d="M1046 343 q0 -77 -28 -143 q-28 -66 -77.5 -114.5 q-49.5 -48.5 -116 -76 q-66.5 -27.5 -144.5 -27.5 q-72 0 -135 24 q-63 24 -111 66.5 q-48 42.5 -78.5 101 q-30.5 58.5 -37.5 128.5 l-127 0 l0 -302 l-118 0 l0 631 q0 28 16.5 41.5 q16.5 13.5 45.5 13.5 q20 0 35.5 -5 q15.5 -5 20.5 -7 l0 -263 l130 0 q11 64 43 118 q32 54 79 93 q47 39 107.5 60.5 q60.5 21.5 129.5 21.5 q78 0 144.5 -27.5 q66.5 -27.5 116 -76 q49.5 -48.5 77.5 -114.5 q28 -66 28 -143 ZM922 343 q0 55 -18.5 101.5 q-18.5 46.5 -50.5 80 q-32 33.5 -76.5 52 q-44.5 18.5 -96.5 18.5 q-52 0 -96 -18.5 q-44 -18.5 -76.5 -52 q-32.5 -33.5 -50.5 -80 q-18 -46.5 -18 -101.5 q0 -55 18 -101.5 q18 -46.5 50.5 -80 q32.5 -33.5 76.5 -52.5 q44 -19 96 -19 q52 0 96.5 19 q44.5 19 76.5 52.5 q32 33.5 50.5 80 q18.5 46.5 18.5 101.5 Z" /><glyph glyph-name="afii10049" unicode="&#x42f;" d="M177 472 q0 -27 9.5 -49.5 q9.5 -22.5 32 -38.5 q22.5 -16 59.5 -25 q37 -9 91 -9 q49 0 75 2.5 q26 2.5 39 4.5 l0 232 q-8 2 -34.5 4 q-26.5 2 -76.5 2 q-57 0 -95 -10 q-38 -10 -60 -27 q-22 -17 -31 -39 q-9 -22 -9 -47 ZM185 281 q-60 26 -94.5 72.5 q-34.5 46.5 -34.5 119.5 q0 103 78 163 q78 60 235 60 q78 0 119 -4 q41 -4 56 -7 q23 -3 38.5 -17.5 q15.5 -14.5 15.5 -46.5 l0 -621 l-115 0 l0 256 q-13 -2 -46 -4 q-33 -2 -68 -2 q-17 0 -33 0.5 q-16 0.5 -33 2.5 q-15 -19 -36 -54.5 q-21 -35.5 -42 -74 q-21 -38.5 -38.5 -73 q-17.5 -34.5 -25.5 -51.5 l-138 0 q16 33 36 70 q20 37 41 74 q21 37 42.5 72.5 q21.5 35.5 42.5 64.5 Z" /><glyph glyph-name="afii10066" unicode="&#x431;" d="M162 413 q29 37 74 55.5 q45 18.5 91 18.5 q62 0 110 -19 q48 -19 80.5 -52 q32.5 -33 49.5 -77 q17 -44 17 -95 q0 -56 -20 -104 q-20 -48 -56.5 -82.5 q-36.5 -34.5 -86.5 -54 q-50 -19.5 -110 -19.5 q-63 0 -113.5 19 q-50.5 19 -85.5 56 q-35 37 -53.5 90 q-18.5 53 -18.5 122 q0 92 24 161 q24 69 67 119 q36 42 75 66.5 q39 24.5 83 42.5 q44 18 93.5 34.5 q49.5 16.5 106.5 41.5 q10 -9 18 -23 q8 -14 8 -32 q0 -23 -17 -38.5 q-17 -15.5 -50 -26.5 l-35 -12 q-50 -17 -91 -35 q-41 -18 -72.5 -40 q-31.5 -22 -53.5 -50.5 q-22 -28.5 -34 -65.5 ZM157 234 q0 -34 11 -63 q11 -29 31.5 -50 q20.5 -21 48.5 -32.5 q28 -11.5 63 -11.5 q36 0 64.5 12 q28.5 12 48.5 33 q20 21 31 50 q11 29 11 63 q0 35 -11 64 q-11 29 -31.5 50 q-20.5 21 -49 33 q-28.5 12 -63.5 12 q-35 0 -63 -12 q-28 -12 -48.5 -33.5 q-20.5 -21.5 -31.5 -51 q-11 -29.5 -11 -63.5 Z" /><glyph glyph-name="afii10067" unicode="&#x432;" d="M556 141 q0 -32 -12 -59.5 q-12 -27.5 -43 -48 q-31 -20.5 -85.5 -32.5 q-54.5 -12 -139.5 -12 q-39 0 -75.5 1.5 q-36.5 1.5 -65 3.5 q-28.5 2 -48 3.5 q-19.5 1.5 -24.5 2.5 l0 456 q0 24 13.5 35.5 q13.5 11.5 32.5 14.5 q17 4 54 7 q37 3 108 3 q78 0 128.5 -11.5 q50.5 -11.5 80.5 -31 q30 -19.5 41.5 -45.5 q11.5 -26 11.5 -55 q0 -45 -24 -72 q-24 -27 -51 -38 q45 -11 71.5 -41 q26.5 -30 26.5 -81 ZM434 146 q0 31 -22.5 51.5 q-22.5 20.5 -81.5 20.5 l-155 0 l0 -137 q15 -2 43.5 -4 q28.5 -2 66.5 -2 q80 0 114.5 17.5 q34.5 17.5 34.5 53.5 ZM416 368 q0 29 -31 46 q-31 17 -106 17 q-40 0 -67 -2 q-27 -2 -37 -3 l0 -126 l145 0 q54 0 75 19 q21 19 21 49 Z" /><glyph glyph-name="afii10068" unicode="&#x433;" d="M63 436 q0 32 18 49 q18 17 53 17 l270 0 q57 0 57 -52 q0 -17 -5.5 -32.5 q-5.5 -15.5 -8.5 -20.5 l-270 0 l0 -397 l-114 0 l0 436 Z" /><glyph glyph-name="afii10069" unicode="&#x434;" d="M252 309 q-13 -53 -25 -104 q-12 -51 -26 -105 l227 0 l0 311 q-11 2 -26.5 3 q-15.5 1 -27.5 1 q-56 0 -82 -26 q-26 -26 -40 -80 ZM85 100 q3 9 6.5 22 q3.5 13 9 35 q5.5 22 14 55.5 q8.5 33.5 20.5 83.5 q16 63 37.5 105 q21.5 42 51 67 q29.5 25 67.5 35 q38 10 86 10 q48 0 80 -3.5 q32 -3.5 50.5 -12 q18.5 -8.5 26.5 -23 q8 -14.5 8 -36.5 l0 -338 l8 0 q29 0 45 -15.5 q16 -15.5 16 -43.5 l0 -209 l-108 0 l0 168 l-380 0 l0 -168 l-108 0 l0 209 q0 28 16 43.5 q16 15.5 45 15.5 l9 0 Z" /><glyph glyph-name="afii10072" unicode="&#x436;" d="M337 200 q-9 0 -17.5 0.5 q-8.5 0.5 -16.5 1.5 q-19 -24 -39.5 -50.5 q-20.5 -26.5 -41 -53 q-20.5 -26.5 -39.5 -51.5 q-19 -25 -35 -47 l-132 0 q16 25 39 56 q23 31 48 63 q25 32 51 64.5 q26 32.5 49 60.5 q-17 14 -30 28.5 q-13 14.5 -22 26.5 q-27 36 -50.5 66 q-23.5 30 -43.5 59 q-10 14 -12 23 q-2 9 -2 14 q0 17 14 29 q14 12 37 12 q15 0 27 -4.5 q12 -4.5 19 -8.5 q23 -32 55 -72.5 q32 -40.5 61 -76.5 q17 -20 35.5 -31.5 q18.5 -11.5 53.5 -11.5 l20 0 l0 152 q0 27 15.5 40 q15.5 13 44.5 13 q18 0 33 -4.5 q15 -4.5 20 -6.5 l0 -194 l20 0 q35 0 53.5 11.5 q18.5 11.5 35.5 31.5 q15 19 27 34 q12 15 22.5 28.5 q10.5 13.5 20.5 27 q10 13.5 21 28.5 q11 15 29.5 29.5 q18.5 14.5 44.5 14.5 q26 0 42 -7.5 q16 -7.5 27 -17.5 q-33 -47 -62.5 -88 q-29.5 -41 -66.5 -90 q-9 -12 -22 -26.5 q-13 -14.5 -30 -28.5 q23 -28 49 -60.5 q26 -32.5 51 -64.5 q25 -32 47.5 -63 q22.5 -31 39.5 -56 l-132 0 q-16 22 -35 47 q-19 25 -39.5 51.5 q-20.5 26.5 -41 53 q-20.5 26.5 -39.5 50.5 q-8 -1 -16.5 -1.5 q-8.5 -0.5 -17.5 -0.5 l-28 0 l0 -200 l-113 0 l0 200 l-28 0 Z" /><glyph glyph-name="afii10073" unicode="&#x437;" d="M267 296 q113 0 113 65 q0 32 -33 46.5 q-33 14.5 -91 14.5 q-33 0 -59 -5.5 q-26 -5.5 -45.5 -13.5 q-19.5 -8 -33 -17 q-13.5 -9 -19.5 -16 q-22 7 -34 23 q-12 16 -12 33 q0 12 5 21.5 q5 9.5 19 20.5 q9 5 22.5 12.5 q13.5 7.5 34.5 14.5 q21 7 50.5 12 q29.5 5 71.5 5 q63 0 109 -11.5 q46 -11.5 76 -31 q30 -19.5 44.5 -45.5 q14.5 -26 14.5 -54 q0 -41 -25 -70 q-25 -29 -64 -43 q47 -15 74.5 -46 q27.5 -31 27.5 -75 q0 -68 -65.5 -109 q-65.5 -41 -188.5 -41 q-48 0 -86 5.5 q-38 5.5 -67.5 14 q-29.5 8.5 -49.5 17 q-20 8.5 -32 14.5 l39 82 q23 -12 68 -26.5 q45 -14.5 116 -14.5 q71 0 108 14.5 q37 14.5 37 50.5 q0 35 -32.5 51 q-32.5 16 -88.5 16 l-55 0 q-31 0 -44.5 12 q-13.5 12 -13.5 30 q0 15 4.5 27 q4.5 12 8.5 17 l96 0 Z" /><glyph glyph-name="afii10074" unicode="&#x438;" d="M63 0 l0 449 q0 27 16 40 q16 13 44 13 q18 0 33.5 -4.5 q15.5 -4.5 20.5 -6.5 l0 -356 q60 79 123.5 161 q63.5 82 130.5 162 q14 17 31.5 30.5 q17.5 13.5 49.5 13.5 q22 0 35.5 -4 q13.5 -4 20.5 -7 l0 -491 l-114 0 l0 345 q-69 -79 -136.5 -168.5 q-67.5 -89.5 -136.5 -176.5 l-118 0 Z" /><glyph glyph-name="afii10076" unicode="&#x43a;" d="M176 200 l0 -200 l-113 0 l0 450 q0 30 18 41 q18 11 51 11 q15 0 27.5 -4 q12.5 -4 16.5 -6 l0 -193 l40 0 q30 0 54 8 q24 8 44 31 q17 19 30 34.5 q13 15.5 24.5 29.5 q11.5 14 22.5 27.5 q11 13.5 25 30.5 q14 17 30 29.5 q16 12.5 42 12.5 q29 0 46 -6.5 q17 -6.5 29 -16.5 q-18 -24 -34.5 -45 q-16.5 -21 -34 -42 q-17.5 -21 -36 -44.5 q-18.5 -23.5 -41.5 -51.5 q-9 -11 -21 -24 q-12 -13 -29 -25 q24 -28 52 -60.5 q28 -32.5 56 -65.5 q28 -33 52.5 -64.5 q24.5 -31.5 42.5 -56.5 l-132 0 q-16 21 -37.5 46.5 q-21.5 25.5 -45 52.5 q-23.5 27 -47.5 53.5 q-24 26.5 -45 49.5 q-10 -1 -21 -1.5 q-11 -0.5 -22 -0.5 l-44 0 Z" /><glyph glyph-name="afii10077" unicode="&#x43b;" d="M348 412 q-54 0 -81 -24.5 q-27 -24.5 -41 -78.5 q-14 -58 -24 -103 q-10 -45 -20 -81 q-10 -37 -21 -66.5 q-11 -29.5 -28 -58.5 l-123 0 q20 38 34 73.5 q14 35.5 24 70.5 q8 27 14 50 q6 23 11.5 45 q5.5 22 10.5 43 q5 21 11 45 q13 54 35.5 90 q22.5 36 52.5 57.5 q30 21.5 67 30 q37 8.5 81 8.5 q61 0 94.5 -5.5 q33.5 -5.5 49.5 -18 q16 -12.5 18.5 -32.5 q2.5 -20 2.5 -48 l0 -409 l-114 0 l0 407 q-11 2 -26.5 3.5 q-15.5 1.5 -27.5 1.5 Z" /><glyph glyph-name="afii10078" unicode="&#x43c;" d="M362 211 q32 63 62 123 q30 60 61 117 q13 25 32 38 q19 13 49 13 q26 0 44 -7 q18 -7 24 -11 q2 -20 5 -57.5 q3 -37.5 6.5 -84.5 q3.5 -47 7 -98.5 q3.5 -51.5 7 -99 q3.5 -47.5 6.5 -86 q3 -38.5 5 -58.5 l-109 0 q-2 27 -5.5 75 q-3.5 48 -7.5 99 q-4 51 -7.5 97.5 q-3.5 46.5 -6.5 71.5 q-34 -64 -68 -128.5 q-34 -64.5 -63 -124.5 l-88 0 q-30 62 -63 126.5 q-33 64.5 -66 124.5 q-3 -25 -6.5 -71.5 q-3.5 -46.5 -7.5 -97.5 q-4 -51 -7.5 -98 q-3.5 -47 -5.5 -74 l-109 0 q1 20 4 55.5 q3 35.5 6 79 q3 43.5 7 91 q4 47.5 7 90 q3 42.5 5.5 77 q2.5 34.5 4.5 52.5 q3 31 23 44 q20 13 46 13 q27 0 45.5 -8.5 q18.5 -8.5 28.5 -21.5 q34 -66 66 -129 q32 -63 68 -132 Z" /><glyph glyph-name="afii10079" unicode="&#x43d;" d="M63 449 q0 27 16 40 q16 13 44 13 q18 0 33.5 -4.5 q15.5 -4.5 20.5 -6.5 l0 -184 l271 0 l0 142 q0 27 16 40 q16 13 44 13 q18 0 33.5 -4.5 q15.5 -4.5 20.5 -6.5 l0 -491 l-114 0 l0 205 l-271 0 l0 -205 l-114 0 l0 449 Z" /><glyph glyph-name="afii10084" unicode="&#x442;" d="M10 447 q0 18 5.5 34 q5.5 16 8.5 21 l475 0 q57 0 57 -52 q0 -17 -5.5 -32.5 q-5.5 -15.5 -8.5 -20.5 l-202 0 l0 -397 l-113 0 l0 397 l-159 0 q-58 0 -58 50 Z" /><glyph glyph-name="afii10086" unicode="&#x444;" d="M314 -13 q-57 3 -107.5 22.5 q-50.5 19.5 -88 53.5 q-37.5 34 -59 81.5 q-21.5 47.5 -21.5 106.5 q0 59 21.5 106.5 q21.5 47.5 59 81.5 q37.5 34 88 53.5 q50.5 19.5 107.5 22.5 l0 169 q0 53 58 53 q17 0 32 -4.5 q15 -4.5 19 -6.5 l0 -211 q57 -3 107 -22.5 q50 -19.5 87.5 -53.5 q37.5 -34 59 -81.5 q21.5 -47.5 21.5 -106.5 q0 -59 -21.5 -106.5 q-21.5 -47.5 -59 -81.5 q-37.5 -34 -87.5 -53.5 q-50 -19.5 -107 -22.5 l0 -187 l-109 0 l0 187 ZM158 251 q0 -74 43 -119 q43 -45 113 -48 l0 333 q-70 -3 -113 -47 q-43 -44 -43 -119 ZM579 251 q0 75 -43 119 q-43 44 -113 47 l0 -333 q34 3 63 15.5 q29 12.5 49.5 34 q20.5 21.5 32 51 q11.5 29.5 11.5 66.5 Z" /><glyph glyph-name="afii10088" unicode="&#x446;" d="M310 -4 q-125 0 -188.5 55 q-63.5 55 -63.5 161 l0 237 q0 30 18 41 q18 11 51 11 q15 0 27.5 -4 q12.5 -4 17.5 -6 l0 -256 q0 -140 130 -140 q130 0 130 140 l0 214 q0 27 16 40 q16 13 44 13 q18 0 33.5 -4.5 q15.5 -4.5 20.5 -6.5 l0 -220 q0 -57 -9 -101.5 q-9 -44.5 -39 -74.5 l43 0 q29 0 45 -15.5 q16 -15.5 16 -43.5 l0 -204 l-108 0 l0 164 l-184 0 Z" /><glyph glyph-name="afii10089" unicode="&#x447;" d="M404 166 q-29 -11 -66 -17.5 q-37 -6.5 -84 -6.5 q-50 0 -89.5 11.5 q-39.5 11.5 -67.5 37 q-28 25.5 -42.5 65.5 q-14.5 40 -14.5 98 l0 95 q0 27 15.5 40 q15.5 13 43.5 13 q19 0 34 -4.5 q15 -4.5 20 -6.5 l0 -119 q0 -66 27 -96.5 q27 -30.5 87 -30.5 q35 0 71 6 q36 6 66 22 l0 176 q0 27 16 40 q16 13 44 13 q19 0 34 -4.5 q15 -4.5 20 -6.5 l0 -491 l-114 0 l0 166 Z" /><glyph glyph-name="afii10090" unicode="&#x448;" d="M521 228 q0 -74 34.5 -107 q34.5 -33 85.5 -33 q53 0 84.5 30.5 q31.5 30.5 31.5 99.5 l0 231 q0 27 16 40 q16 13 44 13 q18 0 33.5 -4.5 q15.5 -4.5 20.5 -6.5 l0 -312 q0 -48 -17 -84 q-17 -36 -46.5 -60 q-29.5 -24 -69.5 -36.5 q-40 -12.5 -87 -12.5 q-62 0 -111 23 q-49 23 -78 68 q-29 -45 -77 -68 q-48 -23 -109 -23 q-46 0 -86 12 q-40 12 -69 36 q-29 24 -46 60 q-17 36 -17 84 l0 271 q0 27 16 40 q16 13 44 13 q18 0 33.5 -4.5 q15.5 -4.5 20.5 -6.5 l0 -275 q0 -69 31 -98.5 q31 -29.5 84 -29.5 q25 0 47 8 q22 8 38.5 25 q16.5 17 26 43.5 q9.5 26.5 9.5 63.5 l0 221 q0 27 15.5 40 q15.5 13 44.5 13 q18 0 33 -4.5 q15 -4.5 20 -6.5 l0 -263 Z" /><glyph glyph-name="afii10091" unicode="&#x449;" d="M645 -4 q-57 0 -105.5 22 q-48.5 22 -77.5 67 q-29 -44 -77 -68 q-48 -24 -109 -24 q-46 0 -86 12 q-40 12 -69 36.5 q-29 24.5 -46 60.5 q-17 36 -17 84 l0 263 q0 27 16 40 q16 13 44 13 q18 0 33.5 -4.5 q15.5 -4.5 20.5 -6.5 l0 -269 q0 -69 31 -98.5 q31 -29.5 84 -29.5 q52 0 86.5 33 q34.5 33 34.5 107 l0 215 q0 27 15.5 40 q15.5 13 44.5 13 q18 0 33 -4.5 q15 -4.5 20 -6.5 l0 -256 q0 -74 34.5 -107 q34.5 -33 85.5 -33 q53 0 84.5 30 q31.5 30 31.5 99 l0 225 q0 27 16 40 q16 13 44 13 q18 0 33.5 -4.5 q15.5 -4.5 20.5 -6.5 l0 -224 q0 -56 -8 -99.5 q-8 -43.5 -36 -72.5 l39 0 q29 0 45 -15.5 q16 -15.5 16 -43.5 l0 -204 l-108 0 l0 164 l-174 0 Z" /><glyph glyph-name="afii10092" unicode="&#x44a;" d="M258 190 q0 -48 32 -79.5 q32 -31.5 83 -31.5 q25 0 46.5 8.5 q21.5 8.5 36.5 23.5 q15 15 23.5 35 q8.5 20 8.5 44 q0 48 -32 79 q-32 31 -83 31 q-51 0 -83 -31 q-32 -31 -32 -79 ZM68 405 q-28 0 -43 11 q-15 11 -15 37 q0 19 5.5 31.5 q5.5 12.5 8.5 17.5 l163 0 q22 0 36 -6.5 q14 -6.5 22 -18.5 q8 -12 10.5 -28.5 q2.5 -16.5 2.5 -35.5 l0 -73 q24 23 58 36.5 q34 13.5 72 13.5 q46 0 85.5 -15.5 q39.5 -15.5 68 -42.5 q28.5 -27 45 -63.5 q16.5 -36.5 16.5 -79.5 q0 -43 -16.5 -80 q-16.5 -37 -47 -64.5 q-30.5 -27.5 -73 -43 q-42.5 -15.5 -93.5 -15.5 q-48 0 -90 14 q-42 14 -72.5 40.5 q-30.5 26.5 -48.5 65 q-18 38.5 -18 87.5 l0 212 l-76 0 Z" /><glyph glyph-name="afii10093" unicode="&#x44b;" d="M620 449 q0 27 15.5 40 q15.5 13 44.5 13 q18 0 33 -4.5 q15 -4.5 20 -6.5 l0 -491 l-113 0 l0 449 ZM172 190 q0 -48 32 -79.5 q32 -31.5 83 -31.5 q25 0 46.5 8.5 q21.5 8.5 36.5 23.5 q15 15 23.5 35 q8.5 20 8.5 44 q0 48 -32 79 q-32 31 -83 31 q-51 0 -83 -31 q-32 -31 -32 -79 ZM58 449 q0 27 16 40 q16 13 44 13 q18 0 33.5 -4.5 q15.5 -4.5 20.5 -6.5 l0 -151 q24 23 58 36.5 q34 13.5 72 13.5 q46 0 85.5 -15.5 q39.5 -15.5 68 -42.5 q28.5 -27 45 -63.5 q16.5 -36.5 16.5 -79.5 q0 -43 -16.5 -80 q-16.5 -37 -47 -64.5 q-30.5 -27.5 -73 -43 q-42.5 -15.5 -93.5 -15.5 q-48 0 -90 14 q-42 14 -72.5 40.5 q-30.5 26.5 -48.5 65 q-18 38.5 -18 87.5 l0 256 Z" /><glyph glyph-name="afii10094" unicode="&#x44c;" d="M287 -14 q-48 0 -90 14 q-42 14 -72.5 40.5 q-30.5 26.5 -48.5 65 q-18 38.5 -18 87.5 l0 256 q0 27 16 40 q16 13 44 13 q18 0 33.5 -4.5 q15.5 -4.5 20.5 -6.5 l0 -151 q24 23 58 36.5 q34 13.5 72 13.5 q46 0 85.5 -15.5 q39.5 -15.5 68 -42.5 q28.5 -27 45 -63.5 q16.5 -36.5 16.5 -79.5 q0 -43 -16.5 -80 q-16.5 -37 -47 -64.5 q-30.5 -27.5 -73 -43 q-42.5 -15.5 -93.5 -15.5 ZM172 190 q0 -48 32 -79.5 q32 -31.5 83 -31.5 q25 0 46.5 8.5 q21.5 8.5 36.5 23.5 q15 15 23.5 35 q8.5 20 8.5 44 q0 48 -32 79 q-32 31 -83 31 q-51 0 -83 -31 q-32 -31 -32 -79 Z" /><glyph glyph-name="afii10095" unicode="&#x44d;" d="M363 296 q-11 63 -52.5 92.5 q-41.5 29.5 -100.5 29.5 q-50 0 -85.5 -14.5 q-35.5 -14.5 -53.5 -31.5 q-12 8 -25 23.5 q-13 15.5 -13 36.5 q0 14 6 23 q6 9 15 17 q7 6 20.5 14 q13.5 8 34 14.5 q20.5 6.5 48 11 q27.5 4.5 62.5 4.5 q57 0 106 -18 q49 -18 85 -52.5 q36 -34.5 56 -83.5 q20 -49 20 -111 q0 -65 -21.5 -114.5 q-21.5 -49.5 -58.5 -83 q-37 -33.5 -86.5 -50.5 q-49.5 -17 -104.5 -17 q-68 0 -113.5 16.5 q-45.5 16.5 -70.5 31.5 l48 83 q11 -7 44 -20.5 q33 -13.5 84 -13.5 q29 0 55.5 7 q26.5 7 47.5 22.5 q21 15.5 35 39.5 q14 24 19 58 l-190 0 q-31 0 -44.5 12 q-13.5 12 -13.5 30 q0 15 4.5 27 q4.5 12 8.5 17 l234 0 Z" /><glyph glyph-name="afii10096" unicode="&#x44e;" d="M839 251 q0 -56 -21 -104.5 q-21 -48.5 -58 -84 q-37 -35.5 -87 -56 q-50 -20.5 -108 -20.5 q-52 0 -97.5 16.5 q-45.5 16.5 -81 45.5 q-35.5 29 -59 68.5 q-23.5 39.5 -31.5 86.5 l-119 0 l0 -203 l-114 0 l0 449 q0 27 16 40 q16 13 44 13 q18 0 33.5 -4.5 q15.5 -4.5 20.5 -6.5 l0 -183 l120 0 q10 45 34 83.5 q24 38.5 59 66 q35 27.5 79.5 43 q44.5 15.5 95.5 15.5 q58 0 108 -20.5 q50 -20.5 87 -56 q37 -35.5 58 -84 q21 -48.5 21 -104.5 ZM721 251 q0 35 -11.5 65.5 q-11.5 30.5 -32 52.5 q-20.5 22 -49.5 34.5 q-29 12.5 -63 12.5 q-35 0 -64 -12.5 q-29 -12.5 -49.5 -34.5 q-20.5 -22 -32 -52.5 q-11.5 -30.5 -11.5 -65.5 q0 -35 11.5 -65 q11.5 -30 32.5 -52.5 q21 -22.5 49.5 -35 q28.5 -12.5 63.5 -12.5 q34 0 63 12.5 q29 12.5 49.5 35 q20.5 22.5 32 52.5 q11.5 30 11.5 65 Z" /><glyph glyph-name="afii10097" unicode="&#x44f;" d="M326 154 q-15 0 -31.5 0.5 q-16.5 0.5 -33.5 2.5 q-14 -17 -30.5 -39 q-16.5 -22 -32 -44.5 q-15.5 -22.5 -28.5 -42 q-13 -19.5 -20 -31.5 l-126 0 q28 43 61.5 91.5 q33.5 48.5 68.5 90.5 q-45 19 -75 54 q-30 35 -30 96 q0 83 68.5 131.5 q68.5 48.5 219.5 48.5 q60 0 99 -3 q39 -3 53 -5 q21 -2 34.5 -13 q13.5 -11 13.5 -34 l0 -457 l-113 0 l0 159 q-11 -2 -40 -3.5 q-29 -1.5 -58 -1.5 ZM162 331 q0 -20 8 -36.5 q8 -16.5 26.5 -27.5 q18.5 -11 50 -17 q31.5 -6 79.5 -6 q42 0 64 2 q22 2 33 4 l0 167 q-5 1 -30 3 q-25 2 -65 2 q-48 0 -79.5 -7 q-31.5 -7 -51 -19 q-19.5 -12 -27.5 -28.5 q-8 -16.5 -8 -36.5 Z" /><glyph glyph-name="afii10099" unicode="&#x452;" d="M78 569 l-45 0 q-43 0 -43 40 q0 15 3 25 q3 10 6 16 l79 0 l0 34 q0 30 18 41 q18 11 51 11 q14 0 26.5 -4 q12.5 -4 17.5 -6 l0 -76 l105 0 q23 0 32.5 -11.5 q9.5 -11.5 9.5 -31.5 q0 -14 -3.5 -24 q-3.5 -10 -5.5 -14 l-138 0 l0 -142 q10 12 24.5 24 q14.5 12 35 21.5 q20.5 9.5 47.5 16 q27 6.5 62 6.5 q48 0 89.5 -16.5 q41.5 -16.5 71.5 -49.5 q30 -33 47 -82.5 q17 -49.5 17 -116.5 q0 -65 -16 -125 q-16 -60 -44 -113.5 q-28 -53.5 -67.5 -99 q-39.5 -45.5 -85.5 -80.5 l-70 75 q27 24 55.5 55.5 q28.5 31.5 52.5 72 q24 40.5 39.5 91 q15.5 50.5 15.5 112.5 q0 36 -6 67.5 q-6 31.5 -21 55 q-15 23.5 -40 37 q-25 13.5 -63 13.5 q-66 0 -105 -40.5 q-39 -40.5 -39 -118.5 l0 -232 l-113 0 l0 569 Z" /><glyph glyph-name="afii10101" unicode="&#x454;" d="M357 294 q31 0 44.5 -12 q13.5 -12 13.5 -30 q0 -15 -4.5 -27 q-4.5 -12 -8.5 -17 l-242 0 q11 -66 56.5 -95 q45.5 -29 106.5 -29 q50 0 80 13 q30 13 41 20 l49 -82 q-25 -15 -69.5 -32 q-44.5 -17 -116.5 -17 q-54 0 -103 17 q-49 17 -86 50.5 q-37 33.5 -59 82.5 q-22 49 -22 113 q0 64 21.5 113.5 q21.5 49.5 59 83.5 q37.5 34 87.5 52 q50 18 107 18 q67 0 105.5 -14.5 q38.5 -14.5 53.5 -27.5 q9 -8 14.5 -17.5 q5.5 -9.5 5.5 -23.5 q0 -20 -13 -36 q-13 -16 -26 -24 q-17 17 -51.5 31 q-34.5 14 -83.5 14 q-62 0 -104.5 -29 q-42.5 -29 -53.5 -95 l198 0 Z" /><glyph glyph-name="afii10106" unicode="&#x459;" d="M516 340 q24 23 58 36.5 q34 13.5 72 13.5 q46 0 85.5 -15.5 q39.5 -15.5 68 -42.5 q28.5 -27 45 -63.5 q16.5 -36.5 16.5 -79.5 q0 -43 -16.5 -80 q-16.5 -37 -47 -64.5 q-30.5 -27.5 -73 -43 q-42.5 -15.5 -93.5 -15.5 q-48 0 -90 14 q-42 14 -72.5 40.5 q-30.5 26.5 -48.5 65 q-18 38.5 -18 87.5 l0 214 q-11 2 -26.5 3.5 q-15.5 1.5 -27.5 1.5 q-54 0 -81 -24.5 q-27 -24.5 -41 -78.5 q-13 -52 -22.5 -93 q-9.5 -41 -17.5 -75 q-11 -42 -22.5 -75.5 q-11.5 -33.5 -30.5 -65.5 l-123 0 q20 38 34 73.5 q14 35.5 24 70.5 q8 27 14 50 q6 23 11.5 45 q5.5 22 10.5 43 q5 21 11 45 q13 54 35.5 90 q22.5 36 52.5 57.5 q30 21.5 67 30 q37 8.5 81 8.5 q61 0 94.5 -5.5 q33.5 -5.5 49.5 -18 q16 -12.5 18.5 -32.5 q2.5 -20 2.5 -48 l0 -69 ZM516 190 q0 -48 32 -79.5 q32 -31.5 83 -31.5 q25 0 46.5 8.5 q21.5 8.5 36.5 23.5 q15 15 23.5 35 q8.5 20 8.5 44 q0 48 -32 79 q-32 31 -83 31 q-51 0 -83 -31 q-32 -31 -32 -79 Z" /><glyph glyph-name="afii10107" unicode="&#x45a;" d="M528 190 q0 -48 32 -79.5 q32 -31.5 83 -31.5 q25 0 46.5 8.5 q21.5 8.5 36.5 23.5 q15 15 23.5 35 q8.5 20 8.5 44 q0 49 -33.5 78.5 q-33.5 29.5 -88.5 29.5 q-25 0 -45 -9 q-20 -9 -34 -24 q-14 -15 -21.5 -34.5 q-7.5 -19.5 -7.5 -40.5 ZM414 213 l-237 0 l0 -213 l-114 0 l0 449 q0 30 18 41 q18 11 51 11 q15 0 27.5 -4 q12.5 -4 17.5 -6 l0 -176 l237 0 l0 134 q0 30 18 41 q18 11 51 11 q15 0 27.5 -4 q12.5 -4 17.5 -6 l0 -151 q24 23 58 36.5 q34 13.5 72 13.5 q46 0 85.5 -15.5 q39.5 -15.5 68 -42.5 q28.5 -27 45 -63.5 q16.5 -36.5 16.5 -79.5 q0 -43 -16.5 -80 q-16.5 -37 -47 -64.5 q-30.5 -27.5 -73 -43 q-42.5 -15.5 -93.5 -15.5 q-48 0 -90 14 q-42 14 -72.5 40.5 q-30.5 26.5 -48.5 65 q-18 38.5 -18 87.5 l0 20 Z" /><glyph glyph-name="afii10193" unicode="&#x45f;" d="M58 449 q0 28 16 40.5 q16 12.5 45 12.5 q18 0 33 -4.5 q15 -4.5 20 -6.5 l0 -263 q0 -68 32 -103.5 q32 -35.5 98 -35.5 q66 0 98 35.5 q32 35.5 32 103.5 l0 221 q0 28 16 40.5 q16 12.5 44 12.5 q19 0 34 -4.5 q15 -4.5 20 -6.5 l0 -288 q0 -90 -51.5 -144.5 q-51.5 -54.5 -138.5 -68.5 l0 -153 l-109 0 l0 153 q-86 14 -137.5 68.5 q-51.5 54.5 -51.5 144.5 l0 246 Z" /><glyph glyph-name="uni0462" unicode="&#x462;" d="M335 623 l261 0 q21 0 30 -12 q9 -12 9 -33 q0 -15 -3 -25.5 q-3 -10.5 -5 -15.5 l-292 0 l0 -78 q18 2 51 4 q33 2 68 2 q58 0 114 -9.5 q56 -9.5 99 -35 q43 -25.5 69.5 -70.5 q26.5 -45 26.5 -116 q0 -125 -86 -184.5 q-86 -59.5 -257 -59.5 q-34 0 -67.5 1 q-33.5 1 -62 2.5 q-28.5 1.5 -48 3.5 q-19.5 2 -25.5 3 l0 537 l-170 0 q-20 0 -30 11 q-10 11 -10 31 q0 17 3 27.5 q3 10.5 5 16.5 l202 0 l0 8 q0 28 16.5 41.5 q16.5 13.5 45.5 13.5 q20 0 35.5 -5 q15.5 -5 20.5 -8 l0 -50 ZM335 97 q18 -2 45 -3 q27 -1 68 -1 q41 0 76 7 q35 7 60.5 23.5 q25.5 16.5 40 43.5 q14.5 27 14.5 66 q0 43 -17 69 q-17 26 -44.5 39.5 q-27.5 13.5 -62 17.5 q-34.5 4 -69.5 4 q-35 0 -64 -2 q-29 -2 -47 -4 l0 -260 Z" /><glyph glyph-name="uni0463" unicode="&#x463;" d="M299 421 l0 -85 q24 23 58 35.5 q34 12.5 72 12.5 q47 0 87 -14 q40 -14 68.5 -39.5 q28.5 -25.5 44.5 -61.5 q16 -36 16 -80 q0 -43 -16.5 -80 q-16.5 -37 -47 -64.5 q-30.5 -27.5 -73 -43 q-42.5 -15.5 -94.5 -15.5 q-46 0 -87.5 13.5 q-41.5 13.5 -72.5 39.5 q-31 26 -49.5 64.5 q-18.5 38.5 -18.5 89.5 l0 228 l-136 0 q-21 0 -32 11 q-11 11 -11 29 q0 16 3 25.5 q3 9.5 6 15.5 l170 0 l0 182 q0 27 15.5 40 q15.5 13 44.5 13 q18 0 33 -4.5 q15 -4.5 20 -6.5 l0 -224 l208 0 q23 0 33 -11.5 q10 -11.5 10 -31.5 q0 -14 -3.5 -23.5 q-3.5 -9.5 -5.5 -14.5 l-242 0 ZM529 189 q0 48 -31.5 79 q-31.5 31 -83.5 31 q-51 0 -83 -31 q-32 -31 -32 -79 q0 -48 32 -79 q32 -31 83 -31 q52 0 83.5 31.5 q31.5 31.5 31.5 78.5 Z" /><glyph glyph-name="uni0472" unicode="&#x472;" d="M409 704 q78 0 144.5 -27.5 q66.5 -27.5 116 -76 q49.5 -48.5 77.5 -114.5 q28 -66 28 -143 q0 -77 -28 -143 q-28 -66 -77.5 -114.5 q-49.5 -48.5 -116 -76 q-66.5 -27.5 -144.5 -27.5 q-78 0 -144.5 27.5 q-66.5 27.5 -116 76 q-49.5 48.5 -77.5 114.5 q-28 66 -28 143 q0 77 28 143 q28 66 77.5 114.5 q49.5 48.5 116 76 q66.5 27.5 144.5 27.5 ZM298 448 q45 0 79.5 -22 q34.5 -22 67.5 -52 q25 -23 47.5 -38 q22.5 -15 42.5 -15 q26 0 53 13 q27 13 60 38 q-5 49 -24.5 90 q-19.5 41 -51 70.5 q-31.5 29.5 -73.5 46 q-42 16.5 -90 16.5 q-44 0 -82 -13.5 q-38 -13.5 -68.5 -37.5 q-30.5 -24 -52 -58 q-21.5 -34 -31.5 -75 q41 20 68.5 28.5 q27.5 8.5 54.5 8.5 ZM409 91 q42 0 78.5 12.5 q36.5 12.5 66.5 35 q30 22.5 52 54 q22 31.5 33 70.5 q-29 -16 -53.5 -22.5 q-24.5 -6.5 -50.5 -6.5 q-45 0 -80.5 23 q-35.5 23 -67.5 52 q-24 22 -46.5 37 q-22.5 15 -42.5 15 q-29 0 -58.5 -13.5 q-29.5 -13.5 -69.5 -39.5 q6 -48 26 -88 q20 -40 51.5 -68.5 q31.5 -28.5 72.5 -44.5 q41 -16 89 -16 Z" /><glyph glyph-name="uni0473" unicode="&#x473;" d="M313 516 q58 0 108.5 -20 q50.5 -20 87.5 -55.5 q37 -35.5 58 -84 q21 -48.5 21 -105.5 q0 -56 -21 -104.5 q-21 -48.5 -58 -84 q-37 -35.5 -87.5 -56 q-50.5 -20.5 -108.5 -20.5 q-58 0 -108.5 20.5 q-50.5 20.5 -87.5 56 q-37 35.5 -58 84 q-21 48.5 -21 104.5 q0 57 21 105.5 q21 48.5 58 84 q37 35.5 87.5 55.5 q50.5 20 108.5 20 ZM404 246 q15 0 29.5 5.5 q14.5 5.5 34.5 17.5 q-3 32 -15.5 59 q-12.5 27 -33 46.5 q-20.5 19.5 -47.5 30.5 q-27 11 -59 11 q-51 0 -88.5 -26.5 q-37.5 -26.5 -54.5 -69.5 q28 14 60 14 q31 0 56 -14 q25 -14 45 -30.5 q20 -16.5 37.5 -30 q17.5 -13.5 35.5 -13.5 ZM313 87 q49 0 85.5 24.5 q36.5 24.5 54.5 65.5 q-25 -11 -53 -11 q-32 0 -56.5 13.5 q-24.5 13.5 -44.5 30 q-20 16.5 -37.5 30.5 q-17.5 14 -35.5 14 q-16 0 -31.5 -6 q-15.5 -6 -36.5 -19 q4 -31 16.5 -57 q12.5 -26 33 -45 q20.5 -19 47 -29.5 q26.5 -10.5 58.5 -10.5 Z" /><glyph glyph-name="uni0474" unicode="&#x474;" d="M613 482 q-24 -55 -51.5 -119.5 q-27.5 -64.5 -55.5 -129.5 q-28 -65 -54.5 -125.5 q-26.5 -60.5 -47.5 -107.5 l-132 0 q-25 50 -51 105.5 q-26 55.5 -51 111 q-25 55.5 -47.5 108 q-22.5 52.5 -41 96.5 q-18.5 44 -31.5 75.5 q-13 31.5 -18 46.5 q-11 26 -19 49.5 q-8 23.5 -8 41.5 q0 24 14.5 38 q14.5 14 43.5 14 q24 0 38 -6 q14 -6 18 -8 q19 -53 45.5 -122 q26.5 -69 56 -143 q29.5 -74 60.5 -147.5 q31 -73.5 59 -136.5 q16 38 36.5 86.5 q20.5 48.5 42 102 q21.5 53.5 43 108 q21.5 54.5 41.5 104.5 q14 36 30 65.5 q16 29.5 34.5 51 q18.5 21.5 41.5 33.5 q23 12 50 12 q16 0 28.5 -5.5 q12.5 -5.5 21.5 -14.5 q9 -9 15 -19.5 q6 -10.5 9 -20.5 q-43 -18 -70.5 -54 q-27.5 -36 -49.5 -90 Z" /><glyph glyph-name="uni0475" unicode="&#x475;" d="M484 309 q-16 -33 -36 -74 q-20 -41 -41 -83 q-21 -42 -41 -81.5 q-20 -39.5 -36 -70.5 l-111 0 q-27 48 -56.5 105.5 q-29.5 57.5 -56 111 q-26.5 53.5 -47 97 q-20.5 43.5 -29.5 64.5 q-6 15 -14.5 37 q-8.5 22 -8.5 37 q0 20 14 35 q14 15 43 15 q22 0 35.5 -4.5 q13.5 -4.5 15.5 -5.5 q19 -55 42.5 -110 q23.5 -55 46 -104.5 q22.5 -49.5 42 -90.5 q19.5 -41 31.5 -67 q10 19 25.5 52 q15.5 33 31 68 q15.5 35 29 66.5 q13.5 31.5 20.5 46.5 q12 29 27.5 56 q15.5 27 33.5 47.5 q18 20.5 38.5 33 q20.5 12.5 43.5 12.5 q35 0 51.5 -19 q16.5 -19 20.5 -38 q-37 -13 -62 -46 q-25 -33 -52 -90 Z" /><glyph glyph-name="uni048A" unicode="&#x48a;" d="M190 188 q71 101 143 201 q72 100 145 202 q13 19 26 35.5 q13 16.5 28 29.5 q15 13 33 20.5 q18 7.5 41 7.5 q19 0 33 -3 q14 -3 22 -7 l0 -600 l84 0 l-53 -255 l-109 0 l38 181 l-77 0 l0 507 q-41 -56 -88.5 -124 q-47.5 -68 -95 -137 q-47.5 -69 -91.5 -133.5 q-44 -64.5 -77 -112.5 l-119 0 l0 631 q0 28 16 41.5 q16 13.5 45 13.5 q19 0 35 -5 q16 -5 21 -7 l0 -486 ZM368 825 q88 0 108 76 l75 -8 q-1 -21 -10 -46.5 q-9 -25.5 -30 -48 q-21 -22.5 -56 -38 q-35 -15.5 -87 -15.5 q-53 0 -88 15.5 q-35 15.5 -56 38 q-21 22.5 -30 48 q-9 25.5 -10 46.5 l76 9 q11 -37 37 -57 q26 -20 71 -20 Z" /><glyph glyph-name="uni048B" unicode="&#x48b;" d="M63 0 l0 449 q0 27 16 40 q16 13 44 13 q18 0 33.5 -4.5 q15.5 -4.5 20.5 -6.5 l0 -356 q60 79 123.5 161 q63.5 82 130.5 162 q14 17 31.5 30.5 q17.5 13.5 49.5 13.5 q22 0 35.5 -4 q13.5 -4 20.5 -7 l0 -418 l77 0 l-53 -254 l-104 0 l38 181 l-72 0 l0 345 q-69 -79 -136.5 -168.5 q-67.5 -89.5 -136.5 -176.5 l-118 0 ZM328 636 q88 0 108 76 l75 -8 q-1 -21 -10 -46.5 q-9 -25.5 -30 -48 q-21 -22.5 -56 -38 q-35 -15.5 -87 -15.5 q-53 0 -88 15.5 q-35 15.5 -56 38 q-21 22.5 -30 48 q-9 25.5 -10 46.5 l76 9 q11 -37 37 -57 q26 -20 71 -20 Z" /><glyph glyph-name="uni048C" unicode="&#x48c;" d="M241 623 l155 0 q22 0 31 -12 q9 -12 9 -33 q0 -15 -3 -25.5 q-3 -10.5 -5 -15.5 l-187 0 l0 -78 q18 2 51 4 q33 2 68 2 q58 0 114 -9.5 q56 -9.5 99 -35 q43 -25.5 69.5 -70.5 q26.5 -45 26.5 -116 q0 -125 -86 -184.5 q-86 -59.5 -257 -59.5 q-34 0 -67.5 1 q-33.5 1 -62 2.5 q-28.5 1.5 -48 3.5 q-19.5 2 -25.5 3 l0 537 l-76 0 q-22 0 -31 12 q-9 12 -9 33 q0 15 3 25.5 q3 10.5 5 15.5 l108 0 l0 8 q0 28 16.5 41.5 q16.5 13.5 45.5 13.5 q20 0 35.5 -5 q15.5 -5 20.5 -8 l0 -50 ZM241 97 q18 -2 45 -3 q27 -1 68 -1 q41 0 76 7 q35 7 60.5 23.5 q25.5 16.5 40 43.5 q14.5 27 14.5 66 q0 43 -17 69 q-17 26 -44.5 39.5 q-27.5 13.5 -62 17.5 q-34.5 4 -69.5 4 q-35 0 -64 -2 q-29 -2 -47 -4 l0 -260 Z" /><glyph glyph-name="uni048D" unicode="&#x48d;" d="M92 461 q2 23 17.5 34 q15.5 11 42.5 11 q18 0 33 -4 q15 -4 20 -6 l0 -35 l143 0 q23 0 33 -10.5 q10 -10.5 10 -28.5 q0 -14 -3.5 -23 q-3.5 -9 -5.5 -13 l-177 0 l0 -77 q23 18 54.5 29 q31.5 11 66.5 11 q45 0 83 -13 q38 -13 65.5 -36.5 q27.5 -23.5 43 -56 q15.5 -32.5 15.5 -72.5 q0 -39 -16 -73 q-16 -34 -45.5 -58.5 q-29.5 -24.5 -70.5 -39 q-41 -14.5 -90 -14.5 q-51 0 -91.5 14.5 q-40.5 14.5 -69 40 q-28.5 25.5 -43.5 60 q-15 34.5 -15 73.5 l0 212 l-42 0 q-43 0 -43 37 q0 14 3 23.5 q3 9.5 5 14.5 l77 0 ZM205 171 q0 -42 29.5 -69.5 q29.5 -27.5 76.5 -27.5 q48 0 77 27.5 q29 27.5 29 69.5 q0 42 -29 69 q-29 27 -77 27 q-47 0 -76.5 -27 q-29.5 -27 -29.5 -69 Z" /><glyph glyph-name="uni048E" unicode="&#x48e;" d="M73 621 q0 32 16 46 q16 14 39 19 q16 3 58 6.5 q42 3.5 120 3.5 q160 0 238 -63 q78 -63 78 -168 q0 -66 -29 -118 q-29 -52 -96 -81 l55 -85 l-70 -46 l-69 106 q-22 -3 -45.5 -5 q-23.5 -2 -49.5 -2 q-21 0 -42.5 1.5 q-21.5 1.5 -39.5 3 q-18 1.5 -31 3.5 q-13 2 -16 2 l0 -244 l-116 0 l0 621 ZM189 345 q7 -1 39 -5.5 q32 -4.5 82 -4.5 q11 0 21.5 0 q10.5 0 19.5 1 l0 1 q-14 21 -28.5 44 q-14.5 23 -14.5 40 q0 17 15.5 28 q15.5 11 32.5 11 q6 0 9.5 -0.5 q3.5 -0.5 7.5 -1.5 l64 -100 q35 17 49 45 q14 28 14 62 q0 25 -8 48.5 q-8 23.5 -30 41.5 q-22 18 -60.5 29 q-38.5 11 -98.5 11 q-48 0 -77 -2 q-29 -2 -37 -4 l0 -244 Z" /><glyph glyph-name="uni048F" unicode="&#x48f;" d="M46 228 q0 70 20 123.5 q20 53.5 56 90 q36 36.5 87 55.5 q51 19 113 19 q57 0 105 -20 q48 -20 83.5 -55 q35.5 -35 55.5 -84 q20 -49 20 -106 q0 -70 -27.5 -125.5 q-27.5 -55.5 -75.5 -90.5 l53 -82 l-70 -46 l-59 91 q-38 -11 -77 -11 q-57 0 -101 22 q-44 22 -69 54 l0 -263 l-114 0 l0 428 ZM314 88 q17 0 32 3 l-2 4 q-14 21 -28.5 44 q-14.5 23 -14.5 40 q0 17 15.5 28 q15.5 11 32.5 11 q6 0 9.5 -0.5 q3.5 -0.5 7.5 -1.5 l55 -86 q47 47 47 122 q0 34 -11 63.5 q-11 29.5 -31.5 51 q-20.5 21.5 -49 34 q-28.5 12.5 -62.5 12.5 q-34 0 -62.5 -12 q-28.5 -12 -49 -33 q-20.5 -21 -32 -50.5 q-11.5 -29.5 -11.5 -65.5 q0 -35 11.5 -65 q11.5 -30 31.5 -52 q20 -22 48.5 -34.5 q28.5 -12.5 63.5 -12.5 Z" /><glyph glyph-name="afii10050" unicode="&#x490;" d="M571 577 l-380 0 l0 -577 l-118 0 l0 618 q0 68 72 68 l308 0 l0 96 q0 28 16.5 41.5 q16.5 13.5 45.5 13.5 q20 0 35.5 -5 q15.5 -5 20.5 -7 l0 -248 Z" /><glyph glyph-name="afii10098" unicode="&#x491;" d="M348 591 q0 27 16 40 q16 13 44 13 q15 0 28 -3.5 q13 -3.5 21 -6.5 l0 -237 l-280 0 l0 -397 l-114 0 l0 436 q0 32 18 49 q18 17 53 17 l214 0 l0 89 Z" /><glyph glyph-name="uni0492" unicode="&#x492;" d="M105 291 l-51 0 q-47 0 -47 49 q0 15 4.5 26.5 q4.5 11.5 7.5 16.5 l86 0 l0 235 q0 68 72 68 l373 0 q59 0 59 -54 q0 -19 -5.5 -34.5 q-5.5 -15.5 -9.5 -20.5 l-371 0 l0 -194 l175 0 q47 0 47 -47 q0 -17 -4 -28.5 q-4 -11.5 -7 -16.5 l-211 0 l0 -291 l-118 0 l0 291 Z" /><glyph glyph-name="uni0493" unicode="&#x493;" d="M83 201 l-29 0 q-21 0 -34 10 q-13 10 -13 28 q0 16 5 27.5 q5 11.5 7 15.5 l64 0 l0 154 q0 32 18 49 q18 17 53 17 l270 0 q57 0 57 -52 q0 -17 -5.5 -32.5 q-5.5 -15.5 -8.5 -20.5 l-270 0 l0 -115 l116 0 q24 0 35.5 -11 q11.5 -11 11.5 -30 q0 -14 -4 -25 q-4 -11 -6 -15 l-153 0 l0 -201 l-114 0 l0 201 Z" /><glyph glyph-name="uni0494" unicode="&#x494;" d="M73 618 q0 68 72 68 l373 0 q59 0 59 -54 q0 -19 -5.5 -34.5 q-5.5 -15.5 -9.5 -20.5 l-371 0 l0 -187 q70 32 141 32 q73 0 130 -22 q57 -22 95 -63 q38 -41 58 -99 q20 -58 20 -129 q0 -84 -27 -144.5 q-27 -60.5 -72 -98.5 q-45 -38 -103.5 -56 q-58.5 -18 -121.5 -18 q-45 0 -94.5 9 q-49.5 9 -94.5 32 l47 94 q32 -17 68.5 -24.5 q36.5 -7.5 69.5 -7.5 q42 0 79 12.5 q37 12.5 65 38.5 q28 26 44.5 66.5 q16.5 40.5 16.5 96.5 q0 95 -49.5 151 q-49.5 56 -137.5 56 q-32 0 -65 -9 q-33 -9 -69 -32 l0 -275 l-118 0 l0 618 Z" /><glyph glyph-name="uni0495" unicode="&#x495;" d="M152 -88 q46 -24 111 -24 q64 0 106.5 39.5 q42.5 39.5 42.5 117.5 q0 71 -37.5 111 q-37.5 40 -99.5 40 q-28 0 -52 -8 q-24 -8 -46 -22 l0 -166 l-114 0 l0 403 q0 20 2 38 q2 18 9 31.5 q7 13.5 21.5 21.5 q14.5 8 38.5 8 l270 0 q57 0 57 -52 q0 -17 -5.5 -32.5 q-5.5 -15.5 -8.5 -20.5 l-270 0 l0 -130 q24 11 51 17.5 q27 6.5 59 6.5 q57 0 102 -19 q45 -19 76 -52.5 q31 -33.5 47.5 -78 q16.5 -44.5 16.5 -95.5 q0 -66 -21 -113.5 q-21 -47.5 -56.5 -78.5 q-35.5 -31 -82.5 -46 q-47 -15 -99 -15 q-46 0 -85.5 8 q-39.5 8 -69.5 25 l37 86 Z" /><glyph glyph-name="uni0496" unicode="&#x496;" d="M163 674 q6 -9 22.5 -35.5 q16.5 -26.5 37.5 -59 q21 -32.5 43.5 -66 q22.5 -33.5 41.5 -57.5 q14 -18 26 -30.5 q12 -12.5 25.5 -21 q13.5 -8.5 29 -12 q15.5 -3.5 36.5 -3.5 l26 0 l0 242 q0 28 16.5 41.5 q16.5 13.5 45.5 13.5 q19 0 35 -5 q16 -5 21 -7 l0 -285 l26 0 q35 0 57.5 11.5 q22.5 11.5 47.5 41.5 q41 50 67.5 94.5 q26.5 44.5 48 77.5 q21.5 33 43.5 52.5 q22 19.5 55 19.5 q28 0 44.5 -7.5 q16.5 -7.5 29.5 -17.5 q-35 -53 -78 -119.5 q-43 -66.5 -92 -135.5 q-13 -18 -29 -36 q-16 -18 -36 -33 q41 -48 87 -107 q46 -59 91 -121 l35 0 q28 0 44 -16 q16 -16 16 -42 l0 -232 l-118 0 l0 181 l-42 0 q-24 35 -50.5 72.5 q-26.5 37.5 -54.5 74.5 q-28 37 -56.5 72 q-28.5 35 -56.5 67 q-21 -3 -41 -3 l-38 0 l0 -283 l-118 0 l0 283 l-38 0 q-12 0 -21 0.5 q-9 0.5 -20 2.5 q-28 -32 -56.5 -67 q-28.5 -35 -57 -72 q-28.5 -37 -55 -74.5 q-26.5 -37.5 -50.5 -72.5 l-138 0 q27 43 58.5 88 q31.5 45 64.5 89 q33 44 66 84.5 q33 40.5 63 75.5 q-20 15 -36 33 q-16 18 -29 36 q-24 33 -49 67.5 q-25 34.5 -45.5 66 q-20.5 31.5 -33.5 57 q-13 25.5 -13 41.5 q0 20 13.5 34 q13.5 14 37.5 14 q20 0 33 -5 q13 -5 18 -7 Z" /><glyph glyph-name="uni0497" unicode="&#x497;" d="M337 200 q-9 0 -17.5 0.5 q-8.5 0.5 -16.5 1.5 q-19 -24 -39.5 -50.5 q-20.5 -26.5 -41 -53 q-20.5 -26.5 -39.5 -51.5 q-19 -25 -35 -47 l-132 0 q16 25 39 56 q23 31 48 63 q25 32 51 64.5 q26 32.5 49 60.5 q-17 14 -30 28.5 q-13 14.5 -22 26.5 q-27 36 -50.5 66 q-23.5 30 -43.5 59 q-10 14 -12 23 q-2 9 -2 14 q0 17 14 29 q14 12 37 12 q15 0 27 -4.5 q12 -4.5 19 -8.5 q23 -32 55 -72.5 q32 -40.5 61 -76.5 q17 -20 35.5 -31.5 q18.5 -11.5 53.5 -11.5 l20 0 l0 152 q0 27 15.5 40 q15.5 13 44.5 13 q18 0 33 -4.5 q15 -4.5 20 -6.5 l0 -194 l20 0 q35 0 53.5 11.5 q18.5 11.5 35.5 31.5 q15 19 27 34 q12 15 22.5 28.5 q10.5 13.5 20.5 27 q10 13.5 21 28.5 q11 15 29.5 29.5 q18.5 14.5 44.5 14.5 q26 0 42 -7.5 q16 -7.5 27 -17.5 q-33 -47 -62.5 -88 q-29.5 -41 -66.5 -90 q-9 -12 -22 -26.5 q-13 -14.5 -30 -28.5 q26 -32 56 -69.5 q30 -37.5 59 -74.5 l35 0 q29 0 45 -16.5 q16 -16.5 16 -42.5 l0 -209 l-108 0 l0 168 l-48 0 q-16 22 -35 47 q-19 25 -39.5 51.5 q-20.5 26.5 -41 53 q-20.5 26.5 -39.5 50.5 q-8 -1 -16.5 -1.5 q-8.5 -0.5 -17.5 -0.5 l-28 0 l0 -200 l-113 0 l0 200 l-28 0 Z" /><glyph glyph-name="uni049A" unicode="&#x49a;" d="M191 283 l0 -283 l-118 0 l0 631 q0 53 59 53 q21 0 37.5 -4 q16.5 -4 21.5 -6 l0 -285 l41 0 q42 0 69.5 13.5 q27.5 13.5 50.5 39.5 q44 51 70.5 95 q26.5 44 47.5 76.5 q21 32.5 43 51.5 q22 19 57 19 q27 0 42.5 -7 q15.5 -7 27.5 -16 q-34 -53 -78.5 -119.5 q-44.5 -66.5 -93.5 -135.5 q-15 -21 -30 -38 q-15 -17 -32 -30 q42 -48 88.5 -107 q46.5 -59 90.5 -122 l37 0 q28 0 44 -16 q16 -16 16 -42 l0 -232 l-118 0 l0 181 l-44 0 q-23 35 -50 73 q-27 38 -56 75.5 q-29 37.5 -58.5 73 q-29.5 35.5 -57.5 66.5 q-14 -2 -28.5 -3.5 q-14.5 -1.5 -30.5 -1.5 l-48 0 Z" /><glyph glyph-name="uni049B" unicode="&#x49b;" d="M176 200 l0 -200 l-113 0 l0 450 q0 30 18 41 q18 11 51 11 q15 0 27.5 -4 q12.5 -4 16.5 -6 l0 -193 l40 0 q30 0 54 8 q24 8 44 31 q17 19 30 34.5 q13 15.5 24.5 29.5 q11.5 14 22.5 27.5 q11 13.5 25 30.5 q14 17 30 29.5 q16 12.5 42 12.5 q29 0 46 -6.5 q17 -6.5 29 -16.5 q-18 -24 -34.5 -45 q-16.5 -21 -34 -42 q-17.5 -21 -36 -44.5 q-18.5 -23.5 -41.5 -51.5 q-9 -11 -21 -24 q-12 -13 -29 -25 q28 -32 61 -70.5 q33 -38.5 64 -76.5 l42 0 q29 0 45 -16.5 q16 -16.5 16 -42.5 l0 -209 l-108 0 l0 168 l-49 0 q-16 21 -37.5 46.5 q-21.5 25.5 -45 52.5 q-23.5 27 -47.5 53.5 q-24 26.5 -45 49.5 q-10 -1 -21 -1.5 q-11 -0.5 -22 -0.5 l-44 0 Z" /><glyph glyph-name="uni049C" unicode="&#x49c;" d="M263 283 l-72 0 l0 -283 l-118 0 l0 631 q0 53 59 53 q21 0 37.5 -4 q16.5 -4 21.5 -6 l0 -285 l72 0 l0 126 q0 47 53 47 q15 0 28.5 -3.5 q13.5 -3.5 17.5 -5.5 l0 -158 q21 6 37.5 18 q16.5 12 31.5 29 q44 51 70.5 95 q26.5 44 47.5 76.5 q21 32.5 43 51.5 q22 19 57 19 q27 0 42.5 -7 q15.5 -7 27.5 -16 q-34 -53 -78.5 -119.5 q-44.5 -66.5 -93.5 -135.5 q-15 -21 -30 -38 q-15 -17 -32 -30 q30 -34 63 -75 q33 -41 66 -85 q33 -44 64 -89.5 q31 -45.5 58 -88.5 l-137 0 q-23 35 -50 73 q-27 38 -56 75.5 q-29 37.5 -58.5 73 q-29.5 35.5 -57.5 66.5 l-15 -3 l0 -172 l-99 0 l0 170 Z" /><glyph glyph-name="uni049D" unicode="&#x49d;" d="M331 303 q16 5 29.5 13 q13.5 8 25.5 22 q17 19 30 34.5 q13 15.5 24.5 29.5 q11.5 14 22.5 27.5 q11 13.5 25 30.5 q14 17 30 29.5 q16 12.5 42 12.5 q29 0 46 -6.5 q17 -6.5 29 -16.5 q-18 -24 -34.5 -45 q-16.5 -21 -34 -42 q-17.5 -21 -36 -44.5 q-18.5 -23.5 -41.5 -51.5 q-9 -11 -21 -24 q-12 -13 -29 -25 q24 -28 52 -60.5 q28 -32.5 56 -65.5 q28 -33 52.5 -64.5 q24.5 -31.5 42.5 -56.5 l-132 0 q-16 21 -37.5 46.5 q-21.5 25.5 -45 52.5 q-23.5 27 -47.5 53.5 q-24 26.5 -45 49.5 q-2 0 -2.5 -0.5 q-0.5 -0.5 -1.5 -0.5 l0 -117 l-89 0 l0 116 l-66 0 l0 -200 l-113 0 l0 450 q0 30 18 41 q18 11 51 11 q15 0 27.5 -4 q12.5 -4 16.5 -6 l0 -193 l66 0 l0 68 q0 46 46 46 q14 0 26 -4 q12 -4 17 -6 l0 -100 Z" /><glyph glyph-name="uni049E" unicode="&#x49e;" d="M242 283 l0 -283 l-118 0 l0 529 l-77 0 q-20 0 -30 11 q-10 11 -10 31 q0 16 3 26.5 q3 10.5 5 16.5 l109 0 l0 17 q0 53 59 53 q21 0 37.5 -4 q16.5 -4 21.5 -6 l0 -60 l119 0 q21 0 30 -12 q9 -12 9 -33 q0 -15 -3 -25 q-3 -10 -5 -15 l-150 0 l0 -140 l41 0 q42 0 69.5 13.5 q27.5 13.5 50.5 39.5 q44 51 70.5 95 q26.5 44 47.5 76.5 q21 32.5 43 51.5 q22 19 57 19 q27 0 42.5 -7 q15.5 -7 27.5 -16 q-34 -53 -78.5 -119.5 q-44.5 -66.5 -93.5 -135.5 q-15 -21 -30 -38 q-15 -17 -32 -30 q30 -34 63 -75 q33 -41 66 -85 q33 -44 64 -89.5 q31 -45.5 58 -88.5 l-137 0 q-23 35 -50 73 q-27 38 -56 75.5 q-29 37.5 -58.5 73 q-29.5 35.5 -57.5 66.5 q-14 -2 -28.5 -3.5 q-14.5 -1.5 -30.5 -1.5 l-48 0 Z" /><glyph glyph-name="uni049F" unicode="&#x49f;" d="M205 200 l0 -200 l-113 0 l0 366 l-45 0 q-39 0 -39 34 q0 15 2.5 24.5 q2.5 9.5 4.5 14.5 l77 0 l0 11 q0 30 18 41 q18 11 51 11 q15 0 27.5 -4 q12.5 -4 16.5 -6 l0 -53 l89 0 q39 0 39 -35 q0 -13 -2.5 -24 q-2.5 -11 -4.5 -14 l-121 0 l0 -67 l40 0 q30 0 54 8 q24 8 44 31 q17 19 30 34.5 q13 15.5 24.5 29.5 q11.5 14 22.5 27.5 q11 13.5 25 30.5 q14 17 30 29.5 q16 12.5 42 12.5 q29 0 46 -6.5 q17 -6.5 29 -16.5 q-18 -24 -34.5 -45 q-16.5 -21 -34 -42 q-17.5 -21 -36 -44.5 q-18.5 -23.5 -41.5 -51.5 q-9 -11 -21 -24 q-12 -13 -29 -25 q24 -28 52 -60.5 q28 -32.5 56 -65.5 q28 -33 52.5 -64.5 q24.5 -31.5 42.5 -56.5 l-132 0 q-16 21 -37.5 46.5 q-21.5 25.5 -45 52.5 q-23.5 27 -47.5 53.5 q-24 26.5 -45 49.5 q-10 -1 -21 -1.5 q-11 -0.5 -22 -0.5 l-44 0 Z" /><glyph glyph-name="uni04A0" unicode="&#x4a0;" d="M304 389 l41 0 q42 0 69.5 13.5 q27.5 13.5 50.5 39.5 q44 51 70.5 95 q26.5 44 47.5 76.5 q21 32.5 43 51.5 q22 19 57 19 q27 0 42.5 -7 q15.5 -7 27.5 -16 q-34 -53 -78.5 -119.5 q-44.5 -66.5 -93.5 -135.5 q-15 -21 -30 -38 q-15 -17 -32 -30 q30 -34 63 -75 q33 -41 66 -85 q33 -44 64 -89.5 q31 -45.5 58 -88.5 l-137 0 q-23 35 -50 73 q-27 38 -56 75.5 q-29 37.5 -58.5 73 q-29.5 35.5 -57.5 66.5 q-14 -2 -28.5 -3.5 q-14.5 -1.5 -30.5 -1.5 l-48 0 l0 -283 l-118 0 l0 577 l-99 0 q-18 0 -33 2 q-15 2 -26 7.5 q-11 5.5 -17 16 q-6 10.5 -6 28.5 q0 19 5.5 34.5 q5.5 15.5 9.5 20.5 l212 0 q72 0 72 -68 l0 -229 Z" /><glyph glyph-name="uni04A1" unicode="&#x4a1;" d="M295 299 q30 0 54 8 q24 8 44 31 q17 19 30 34.5 q13 15.5 24.5 29.5 q11.5 14 22.5 27.5 q11 13.5 25 30.5 q14 17 30 29.5 q16 12.5 42 12.5 q29 0 46 -6.5 q17 -6.5 29 -16.5 q-18 -24 -34.5 -45 q-16.5 -21 -34 -42 q-17.5 -21 -36 -44.5 q-18.5 -23.5 -41.5 -51.5 q-9 -11 -21 -24 q-12 -13 -29 -25 q24 -28 52 -60.5 q28 -32.5 56 -65.5 q28 -33 52.5 -64.5 q24.5 -31.5 42.5 -56.5 l-132 0 q-16 21 -37.5 46.5 q-21.5 25.5 -45 52.5 q-23.5 27 -47.5 53.5 q-24 26.5 -45 49.5 q-10 -1 -21 -1.5 q-11 -0.5 -22 -0.5 l-44 0 l0 -200 l-113 0 l0 405 l-77 0 q-29 0 -43.5 11 q-14.5 11 -14.5 37 q0 19 5.5 31.5 q5.5 12.5 9.5 17.5 l163 0 q70 0 70 -65 l0 -138 l40 0 Z" /><glyph glyph-name="uni04A2" unicode="&#x4a2;" d="M73 631 q0 28 17 41.5 q17 13.5 46 13.5 q19 0 35 -5 q16 -5 21 -7 l0 -263 l352 0 l0 220 q0 28 16.5 41.5 q16.5 13.5 45.5 13.5 q20 0 36 -5 q16 -5 21 -8 l0 -564 l13 0 q30 0 45 -16 q15 -16 15 -42 l0 -232 l-118 0 l0 181 l-74 0 l0 302 l-352 0 l0 -302 l-119 0 l0 631 Z" /><glyph glyph-name="uni04A3" unicode="&#x4a3;" d="M63 449 q0 27 16 40 q16 13 44 13 q18 0 33.5 -4.5 q15.5 -4.5 20.5 -6.5 l0 -184 l271 0 l0 142 q0 27 16 40 q16 13 44 13 q18 0 33.5 -4.5 q15.5 -4.5 20.5 -6.5 l0 -391 l9 0 q29 0 45 -16.5 q16 -16.5 16 -42.5 l0 -209 l-108 0 l0 168 l-76 0 l0 205 l-271 0 l0 -205 l-114 0 l0 449 Z" /><glyph glyph-name="uni04A4" unicode="&#x4a4;" d="M662 0 l-118 0 l0 302 l-353 0 l0 -302 l-118 0 l0 631 q0 28 16.5 41.5 q16.5 13.5 45.5 13.5 q20 0 35.5 -5 q15.5 -5 20.5 -7 l0 -263 l353 0 l0 218 q0 29 17.5 43 q17.5 14 48.5 14 l250 0 q59 0 59 -54 q0 -19 -6 -34.5 q-6 -15.5 -9 -20.5 l-242 0 l0 -577 Z" /><glyph glyph-name="uni04A5" unicode="&#x4a5;" d="M714 502 q56 0 56 -53 q0 -17 -5 -31.5 q-5 -14.5 -8 -20.5 l-195 0 l0 -397 l-114 0 l0 205 l-271 0 l0 -205 l-114 0 l0 449 q0 30 18 41 q18 11 51 11 q15 0 27.5 -4 q12.5 -4 17.5 -6 l0 -184 l271 0 l0 139 q0 29 17.5 42.5 q17.5 13.5 47.5 13.5 l201 0 Z" /><glyph glyph-name="uni04A6" unicode="&#x4a6;" d="M535 0 l0 578 l-343 0 l0 -578 l-119 0 l0 618 q0 68 72 68 l436 0 q72 0 72 -68 l0 -228 q70 32 142 32 q73 0 129.5 -22 q56.5 -22 94.5 -63 q38 -41 58 -99 q20 -58 20 -129 q0 -84 -27 -144.5 q-27 -60.5 -72 -98.5 q-45 -38 -103 -56 q-58 -18 -121 -18 q-45 0 -94.5 9 q-49.5 9 -94.5 32 l47 94 q32 -17 68 -24.5 q36 -7.5 70 -7.5 q41 0 78.5 12.5 q37.5 12.5 65.5 38.5 q28 26 44.5 66.5 q16.5 40.5 16.5 96.5 q0 95 -49.5 151 q-49.5 56 -137.5 56 q-33 0 -66 -9 q-33 -9 -69 -32 l0 -275 l-118 0 Z" /><glyph glyph-name="uni04A7" unicode="&#x4a7;" d="M483 -174 q10 22 19 43.5 q9 21.5 19 42.5 q23 -12 51 -18 q28 -6 60 -6 q31 0 58.5 10 q27.5 10 47.5 29.5 q20 19.5 31.5 49 q11.5 29.5 11.5 68.5 q0 70 -37.5 110.5 q-37.5 40.5 -100.5 40.5 q-27 0 -51 -8 q-24 -8 -47 -22 l0 -166 l-113 0 l0 274 q0 68 -33 103.5 q-33 35.5 -97 35.5 q-65 0 -97.5 -36.5 q-32.5 -36.5 -32.5 -102.5 l0 -274 l-114 0 l0 302 q0 50 18 89.5 q18 39.5 50.5 67.5 q32.5 28 77.5 42.5 q45 14.5 98 14.5 q53 0 97.5 -14.5 q44.5 -14.5 77 -42.5 q32.5 -28 50.5 -67.5 q18 -39.5 18 -89.5 l0 -35 q24 11 51.5 17.5 q27.5 6.5 58.5 6.5 q58 0 103 -19 q45 -19 76 -52.5 q31 -33.5 47 -78 q16 -44.5 16 -95.5 q0 -66 -21 -113.5 q-21 -47.5 -56.5 -78.5 q-35.5 -31 -82.5 -46 q-47 -15 -99 -15 q-45 0 -84.5 8 q-39.5 8 -70.5 25 Z" /><glyph glyph-name="uni04A8" unicode="&#x4a8;" d="M43 331 q0 85 30 153.5 q30 68.5 81.5 117 q51.5 48.5 119.5 75 q68 26.5 143 26.5 q36 0 50.5 -19 q14.5 -19 14.5 -40 q0 -8 -3.5 -20.5 q-3.5 -12.5 -9.5 -22.5 q-3 1 -15 1.5 q-12 0.5 -18 0.5 q-58 0 -108 -19 q-50 -19 -86.5 -54 q-36.5 -35 -57.5 -85.5 q-21 -50.5 -21 -113.5 q0 -100 54.5 -165.5 q54.5 -65.5 145.5 -82.5 q-32 42 -51.5 91 q-19.5 49 -19.5 106 q0 54 15.5 101.5 q15.5 47.5 47 83 q31.5 35.5 79 56.5 q47.5 21 112.5 21 q49 0 93.5 -14 q44.5 -14 78 -43.5 q33.5 -29.5 53 -74.5 q19.5 -45 19.5 -106 q0 -40 -13 -81 q-13 -41 -38.5 -79 q-25.5 -38 -62.5 -70 q-37 -32 -86 -53 q47 -25 94.5 -39 q47.5 -14 87.5 -18 l-21 -100 q-76 11 -152.5 42 q-76.5 31 -141.5 79 q-10 -1 -19.5 -1.5 q-9.5 -0.5 -20.5 -0.5 q-75 0 -143 22.5 q-68 22.5 -119.5 67 q-51.5 44.5 -81.5 109.5 q-30 65 -30 149 ZM406 280 q0 -61 24 -109 q24 -48 67 -86 q41 11 74 32.5 q33 21.5 56.5 51 q23.5 29.5 36.5 64 q13 34.5 13 72.5 q0 35 -10.5 61 q-10.5 26 -28.5 42.5 q-18 16.5 -42 24.5 q-24 8 -50 8 q-66 0 -103 -45 q-37 -45 -37 -116 Z" /><glyph glyph-name="uni04A9" unicode="&#x4a9;" d="M149 238 q0 -66 35.5 -110.5 q35.5 -44.5 96.5 -58.5 q-22 29 -34 61 q-12 32 -12 68 q0 40 12 75 q12 35 35.5 60.5 q23.5 25.5 58.5 40 q35 14.5 82 14.5 q40 0 74.5 -10 q34.5 -10 60 -31 q25.5 -21 40 -54 q14.5 -33 14.5 -79 q0 -60 -36.5 -112.5 q-36.5 -52.5 -102.5 -83.5 q33 -17 66 -27 q33 -10 59 -13 l-18 -87 q-59 9 -118 34 q-59 25 -108 63 q-8 -1 -16 -1.5 q-8 -0.5 -15 -0.5 q-57 0 -108.5 16.5 q-51.5 16.5 -90.5 48.5 q-39 32 -62.5 79 q-23.5 47 -23.5 108 q0 63 21 114 q21 51 58.5 87.5 q37.5 36.5 89 56.5 q51.5 20 112.5 20 q32 0 47 -15.5 q15 -15.5 15 -36.5 q0 -6 -2.5 -17.5 q-2.5 -11.5 -7.5 -22.5 q-5 1 -10.5 1 q-5.5 0 -10.5 0 q-43 0 -80 -12 q-37 -12 -64 -36 q-27 -24 -42 -59 q-15 -35 -15 -80 ZM507 219 q0 44 -23 63.5 q-23 19.5 -58 19.5 q-40 0 -64 -28 q-24 -28 -24 -75 q0 -38 16 -69 q16 -31 42 -55 q53 17 82 56.5 q29 39.5 29 87.5 Z" /><glyph glyph-name="uni04AA" unicode="&#x4aa;" d="M649 46 q-11 -8 -29.5 -18 q-18.5 -10 -46 -20 q-27.5 -10 -64 -17.5 q-36.5 -7.5 -83.5 -8.5 q-18 -10 -30.5 -24 q-12.5 -14 -12.5 -33 q0 -19 13.5 -26.5 q13.5 -7.5 31.5 -7.5 q25 0 43 8 q18 8 21 10 l25 -57 q-11 -6 -38.5 -15.5 q-27.5 -9.5 -68.5 -9.5 q-49 0 -80 19 q-31 19 -31 63 q0 30 13.5 48.5 q13.5 18.5 29.5 29.5 q-62 9 -116.5 36.5 q-54.5 27.5 -95 72 q-40.5 44.5 -64 106 q-23.5 61.5 -23.5 138.5 q0 86 28.5 154 q28.5 68 78 114.5 q49.5 46.5 115.5 71 q66 24.5 141 24.5 q72 0 118 -12 q46 -12 72.5 -29.5 q26.5 -17.5 37 -36 q10.5 -18.5 10.5 -30.5 q0 -13 -5.5 -25 q-5.5 -12 -13 -21.5 q-7.5 -9.5 -15.5 -16.5 q-8 -7 -14 -10 q-10 11 -27.5 24 q-17.5 13 -41.5 24 q-24 11 -54 18.5 q-30 7.5 -65 7.5 q-51 0 -95 -17.5 q-44 -17.5 -76 -51 q-32 -33.5 -50.5 -81 q-18.5 -47.5 -18.5 -107.5 q0 -61 19.5 -107.5 q19.5 -46.5 53.5 -78 q34 -31.5 80 -47.5 q46 -16 99 -16 q63 0 108.5 16 q45.5 16 66.5 30 l53 -91 l1 0 Z" /><glyph glyph-name="uni04AB" unicode="&#x4ab;" d="M494 36 q-23 -14 -60 -29 q-37 -15 -96 -20 q-23 -10 -39.5 -25.5 q-16.5 -15.5 -16.5 -38.5 q0 -21 14 -29 q14 -8 34 -8 q25 0 42.5 7.5 q17.5 7.5 20.5 9.5 l23 -53 q-11 -6 -37.5 -15 q-26.5 -9 -67.5 -9 q-48 0 -78.5 18.5 q-30.5 18.5 -30.5 61.5 q0 18 5 31.5 q5 13.5 13 23.5 q8 10 17.5 17 q9.5 7 18.5 12 q-46 7 -86 27.5 q-40 20.5 -69 53 q-29 32.5 -46 77.5 q-17 45 -17 101 q0 64 21 114 q21 50 58 84 q37 34 87.5 51.5 q50.5 17.5 108.5 17.5 q49 0 83.5 -8 q34.5 -8 56 -20 q21.5 -12 31 -27 q9.5 -15 9.5 -30 q0 -20 -13.5 -37 q-13.5 -17 -25.5 -26 q-18 17 -52 32.5 q-34 15.5 -84 15.5 q-34 0 -63.5 -10 q-29.5 -10 -51 -30.5 q-21.5 -20.5 -34 -51 q-12.5 -30.5 -12.5 -72.5 q0 -44 13 -75 q13 -31 36 -51 q23 -20 53 -29.5 q30 -9.5 65 -9.5 q50 0 80.5 13.5 q30.5 13.5 41.5 20.5 l48 -85 Z" /><glyph glyph-name="uni04AC" unicode="&#x4ac;" d="M264 577 l-200 0 q-59 0 -59 54 q0 19 6 34.5 q6 15.5 9 20.5 l571 0 q59 0 59 -54 q0 -19 -5.5 -34.5 q-5.5 -15.5 -9.5 -20.5 l-252 0 l0 -468 l13 0 q30 0 45 -16 q15 -16 15 -42 l0 -232 l-118 0 l0 181 l-74 0 l0 577 Z" /><glyph glyph-name="uni04AD" unicode="&#x4ad;" d="M10 447 q0 18 5.5 34 q5.5 16 8.5 21 l475 0 q57 0 57 -52 q0 -17 -5.5 -32.5 q-5.5 -15.5 -8.5 -20.5 l-202 0 l0 -297 l10 0 q29 0 45 -16.5 q16 -16.5 16 -42.5 l0 -209 l-108 0 l0 168 l-76 0 l0 397 l-159 0 q-58 0 -58 50 Z" /><glyph glyph-name="uni04B0" unicode="&#x4b0;" d="M268 112 l-144 0 q-47 0 -47 49 q0 15 4 26.5 q4 11.5 7 16.5 l180 0 l0 54 q-24 28 -53.5 67 q-29.5 39 -59.5 78.5 q-30 39.5 -56 75 q-26 35.5 -42 58.5 q-18 25 -35 51.5 q-17 26.5 -17 47.5 q0 23 15 36.5 q15 13.5 40 13.5 q20 0 32.5 -5 q12.5 -5 17.5 -7 q15 -23 42 -62 q27 -39 58.5 -83.5 q31.5 -44.5 63.5 -88.5 q32 -44 57 -76 q24 32 49.5 68.5 q25.5 36.5 50 73 q24.5 36.5 47 71.5 q22.5 35 40.5 63 q11 17 28 31.5 q17 14.5 48 14.5 q27 0 45 -10.5 q18 -10.5 22 -14.5 q-9 -18 -27 -47.5 q-18 -29.5 -41.5 -65 q-23.5 -35.5 -50.5 -75 q-27 -39.5 -54.5 -78 q-27.5 -38.5 -53.5 -74 q-26 -35.5 -47 -63.5 l0 -54 l147 0 q47 0 47 -47 q0 -17 -4 -28.5 q-4 -11.5 -7 -16.5 l-183 0 l0 -112 l-119 0 l0 112 Z" /><glyph glyph-name="uni04B1" unicode="&#x4b1;" d="M217 0 l-113 0 q-24 0 -35.5 10.5 q-11.5 10.5 -11.5 27.5 q0 16 5 28 q5 12 7 16 l107 0 q-26 48 -49 94 q-23 46 -42.5 85.5 q-19.5 39.5 -33.5 70 q-14 30.5 -20 46.5 q-6 15 -14.5 37 q-8.5 22 -8.5 37 q0 20 14 35 q14 15 43 15 q22 0 35.5 -4.5 q13.5 -4.5 15.5 -5.5 q18 -50 40 -103 q22 -53 44 -102.5 q22 -49.5 42 -92 q20 -42.5 34 -70.5 q19 36 40.5 85 q21.5 49 42 96 q20.5 47 36.5 86.5 q16 39.5 23 56.5 q10 25 24 39.5 q14 14.5 44 14.5 q28 0 45 -10 q17 -10 19 -12 q-6 -23 -24.5 -66.5 q-18.5 -43.5 -43 -98 q-24.5 -54.5 -54 -115.5 q-29.5 -61 -58.5 -118 l73 0 q24 0 35.5 -11 q11.5 -11 11.5 -31 q0 -14 -4 -25 q-4 -11 -6 -15 l-150 0 l0 -200 l-113 0 l0 200 Z" /><glyph glyph-name="uni04B2" unicode="&#x4b2;" d="M12 0 q15 22 42 58 q27 36 61 81 q34 45 73 96 q39 51 78 102 q-57 68 -99.5 118 q-42.5 50 -71 86 q-28.5 36 -42.5 58.5 q-14 22.5 -14 36.5 q0 21 14.5 35.5 q14.5 14.5 40.5 14.5 q18 0 30 -4 q12 -4 18 -7 q13 -16 33 -41.5 q20 -25.5 45.5 -57.5 q25.5 -32 55.5 -69.5 q30 -37.5 62 -76.5 q43 56 73.5 97 q30.5 41 51.5 69.5 q21 28.5 36 46 q15 17.5 27 27 q12 9.5 24.5 13 q12.5 3.5 28.5 3.5 q15 0 27 -4 q12 -4 21.5 -9 q9.5 -5 15.5 -10 q6 -5 9 -8 q-12 -15 -36.5 -46 q-24.5 -31 -57 -72 q-32.5 -41 -71.5 -90 q-39 -49 -79 -101 q51 -64 100.5 -125 q49.5 -61 89.5 -112 l44 0 q28 0 44 -16 q16 -16 16 -42 l0 -232 l-118 0 l0 181 l-47 0 q-14 18 -35 45.5 q-21 27.5 -47 61 q-26 33.5 -56.5 71 q-30.5 37.5 -62.5 76.5 q-30 -38 -58 -75.5 q-28 -37.5 -52.5 -70.5 q-24.5 -33 -45 -61 q-20.5 -28 -33.5 -47 l-135 0 Z" /><glyph glyph-name="uni04B3" unicode="&#x4b3;" d="M5 0 q5 7 24 30.5 q19 23.5 46.5 57 q27.5 33.5 61 74 q33.5 40.5 68.5 81.5 q-47 51 -80.5 84.5 q-33.5 33.5 -54.5 56.5 q-21 23 -31 40 q-10 17 -10 34 q0 17 13 30.5 q13 13.5 43 13.5 q18 0 32 -4.5 q14 -4.5 18 -6.5 l143 -163 q19 24 38.5 47 q19.5 23 35.5 42.5 q16 19.5 27.5 33 q11.5 13.5 14.5 17.5 q16 17 32 25.5 q16 8.5 38 8.5 q28 0 48 -11.5 q20 -11.5 25 -18.5 q-8 -9 -26.5 -30.5 q-18.5 -21.5 -43.5 -51 q-25 -29.5 -55.5 -65.5 q-30.5 -36 -62.5 -74 q35 -41 68.5 -79.5 q33.5 -38.5 62.5 -71.5 l39 0 q29 0 45 -17 q16 -17 16 -42 l0 -209 l-108 0 l0 168 l-48 0 q-23 27 -59.5 69.5 q-36.5 42.5 -87.5 99.5 q-45 -54 -82.5 -99.5 q-37.5 -45.5 -55.5 -69.5 l-134 0 Z" /><glyph glyph-name="uni04B4" unicode="&#x4b4;" d="M789 109 l13 0 q29 0 45 -15.5 q16 -15.5 16 -42.5 l0 -232 l-118 0 l0 181 l-547 0 l0 577 l-131 0 q-59 0 -59 54 q0 19 5.5 34.5 q5.5 15.5 9.5 20.5 l462 0 q59 0 59 -54 q0 -19 -5.5 -34.5 q-5.5 -15.5 -9.5 -20.5 l-213 0 l0 -468 l355 0 l0 522 q0 28 16.5 41.5 q16.5 13.5 45.5 13.5 q19 0 35 -5 q16 -5 21 -7 l0 -565 Z" /><glyph glyph-name="uni04B5" unicode="&#x4b5;" d="M279 397 l0 -162 q0 -140 130 -140 q130 0 130 140 l0 214 q0 27 16 40 q16 13 44 13 q18 0 33.5 -4.5 q15.5 -4.5 20.5 -6.5 l0 -220 q0 -57 -9 -101.5 q-9 -44.5 -39 -74.5 l43 0 q29 0 45 -15.5 q16 -15.5 16 -43.5 l0 -204 l-108 0 l0 164 l-184 0 q-125 0 -188.5 55 q-63.5 55 -63.5 161 l0 185 l-74 0 q-18 0 -33.5 1 q-15.5 1 -27 6 q-11.5 5 -17.5 15 q-6 10 -6 28 q0 18 6 34 q6 16 9 21 l339 0 q18 0 33 -1.5 q15 -1.5 26 -7 q11 -5.5 17.5 -16 q6.5 -10.5 6.5 -27.5 q0 -17 -5.5 -32.5 q-5.5 -15.5 -9.5 -20.5 l-150 0 Z" /><glyph glyph-name="uni04B6" unicode="&#x4b6;" d="M483 631 q0 28 17 41.5 q17 13.5 46 13.5 q19 0 35 -5 q16 -5 21 -7 l0 -565 l13 0 q30 0 45 -16 q15 -16 15 -42 l0 -232 l-118 0 l0 181 l-74 0 l0 254 q-34 -8 -71.5 -12.5 q-37.5 -4.5 -91.5 -4.5 q-52 0 -101.5 9.5 q-49.5 9.5 -88 34.5 q-38.5 25 -62 69.5 q-23.5 44.5 -23.5 115.5 l0 165 q0 28 16.5 41.5 q16.5 13.5 45.5 13.5 q19 0 35 -5 q16 -5 21 -7 l0 -167 q0 -44 8.5 -74.5 q8.5 -30.5 28.5 -50 q20 -19.5 53.5 -28.5 q33.5 -9 83.5 -9 q50 0 82.5 4 q32.5 4 63.5 12 l0 270 Z" /><glyph glyph-name="uni04B7" unicode="&#x4b7;" d="M404 166 q-29 -11 -66 -17.5 q-37 -6.5 -84 -6.5 q-50 0 -89.5 11.5 q-39.5 11.5 -67.5 37 q-28 25.5 -42.5 65.5 q-14.5 40 -14.5 98 l0 95 q0 27 15.5 40 q15.5 13 43.5 13 q19 0 34 -4.5 q15 -4.5 20 -6.5 l0 -119 q0 -66 27 -96.5 q27 -30.5 87 -30.5 q35 0 71 6 q36 6 66 22 l0 176 q0 27 16 40 q16 13 44 13 q19 0 34 -4.5 q15 -4.5 20 -6.5 l0 -391 l9 0 q29 0 45 -16.5 q16 -16.5 16 -42.5 l0 -209 l-108 0 l0 168 l-76 0 l0 166 Z" /><glyph glyph-name="uni04B8" unicode="&#x4b8;" d="M280 239 q-47 3 -89.5 15 q-42.5 12 -74.5 38 q-32 26 -51.5 68.5 q-19.5 42.5 -19.5 105.5 l0 165 q0 28 16.5 41.5 q16.5 13.5 45.5 13.5 q19 0 35 -5 q16 -5 21 -7 l0 -167 q0 -72 26.5 -109.5 q26.5 -37.5 90.5 -48.5 l0 141 q0 47 52 47 q16 0 29 -3.5 q13 -3.5 18 -5.5 l0 -182 q41 1 66 4.5 q25 3.5 49 10.5 l0 270 q0 28 16.5 41.5 q16.5 13.5 45.5 13.5 q19 0 35 -5 q16 -5 21 -7 l0 -674 l-118 0 l0 254 q-23 -6 -51 -10 q-28 -4 -64 -5 l0 -138 l-99 0 l0 138 Z" /><glyph glyph-name="uni04B9" unicode="&#x4b9;" d="M420 170 q-17 -7 -40 -12 q-23 -5 -49 -9 l0 -85 l-89 0 l0 81 q-95 3 -148.5 52 q-53.5 49 -53.5 160 l0 95 q0 30 17 41 q17 11 51 11 q15 0 28 -4 q13 -4 17 -6 l0 -119 q0 -58 21.5 -87.5 q21.5 -29.5 67.5 -36.5 l0 71 q0 46 46 46 q14 0 26 -4 q12 -4 17 -6 l0 -106 q24 3 47.5 8.5 q23.5 5.5 41.5 16.5 l0 175 q0 27 15.5 40 q15.5 13 43.5 13 q19 0 34 -4.5 q15 -4.5 20 -6.5 l0 -494 l-113 0 l0 170 Z" /><glyph glyph-name="uni04BA" unicode="&#x4ba;" d="M192 436 q34 8 71.5 13 q37.5 5 91.5 5 q52 0 101.5 -9.5 q49.5 -9.5 88 -35 q38.5 -25.5 62 -70.5 q23.5 -45 23.5 -115 l0 -224 l-118 0 l0 183 q0 43 -8.5 74 q-8.5 31 -28.5 51 q-20 20 -53.5 29 q-33.5 9 -83.5 9 q-50 0 -82.5 -4 q-32.5 -4 -63.5 -13 l0 -329 l-119 0 l0 631 q0 28 17 41.5 q17 13.5 46 13.5 q19 0 35 -5 q16 -5 21 -7 l0 -238 Z" /><glyph glyph-name="uni04BC" unicode="&#x4bc;" d="M16 440 q0 25 6 48.5 q6 23.5 16.5 42.5 q10.5 19 24.5 30.5 q14 11.5 31 11.5 q20 0 37 -10.5 q17 -10.5 28 -30.5 q-17 -20 -26 -41 q-9 -21 -9 -42 q0 -29 16.5 -42.5 q16.5 -13.5 46.5 -18.5 q8 69 37.5 127 q29.5 58 75.5 100 q46 42 107.5 65.5 q61.5 23.5 133.5 23.5 q71 0 124.5 -17.5 q53.5 -17.5 89 -47.5 q35.5 -30 53 -69.5 q17.5 -39.5 17.5 -82.5 q0 -48 -20.5 -88 q-20.5 -40 -64 -68.5 q-43.5 -28.5 -113 -44.5 q-69.5 -16 -166.5 -16 q-38 0 -77 2 q-39 2 -70 4 q5 -39 22.5 -73 q17.5 -34 47.5 -59.5 q30 -25.5 71.5 -40 q41.5 -14.5 94.5 -14.5 q69 0 115 17.5 q46 17.5 71 33.5 q14 -23 27 -45.5 q13 -22.5 26 -45.5 q-11 -8 -32 -19 q-21 -11 -52 -21 q-31 -10 -72 -17.5 q-41 -7.5 -91 -7.5 q-69 0 -130.5 19.5 q-61.5 19.5 -108.5 58 q-47 38.5 -78 94.5 q-31 56 -39 129 q-86 11 -128 50 q-42 39 -42 105 ZM311 374 q34 -4 73 -5 q39 -1 68 -1 q78 0 127 10 q49 10 76.5 26.5 q27.5 16.5 37.5 38 q10 21.5 10 44.5 q0 30 -12.5 51 q-12.5 21 -34.5 34.5 q-22 13.5 -51.5 20 q-29.5 6.5 -63.5 6.5 q-51 0 -92 -19 q-41 -19 -70.5 -50.5 q-29.5 -31.5 -47 -72 q-17.5 -40.5 -20.5 -83.5 Z" /><glyph glyph-name="uni04BD" unicode="&#x4bd;" d="M8 321 q0 18 6 36 q6 18 16.5 32 q10.5 14 24 23 q13.5 9 29.5 9 q17 0 31.5 -9 q14.5 -9 23.5 -23 q-17 -17 -26 -35 q-9 -18 -9 -32 q0 -21 11 -32 q11 -11 38 -13 q5 54 27 98 q22 44 58 75.5 q36 31.5 83 48.5 q47 17 102 17 q52 0 92 -13.5 q40 -13.5 67.5 -36 q27.5 -22.5 41.5 -52.5 q14 -30 14 -64 q0 -35 -13 -63.5 q-13 -28.5 -46 -49 q-33 -20.5 -89 -32 q-56 -11.5 -142 -11.5 q-20 0 -38 0.5 q-18 0.5 -37 1.5 q8 -51 49.5 -82.5 q41.5 -31.5 118.5 -31.5 q26 0 48 4 q22 4 39.5 10 q17.5 6 30 12 q12.5 6 18.5 9 l42 -80 q-8 -5 -25 -14 q-17 -9 -42.5 -17 q-25.5 -8 -59 -14 q-33.5 -6 -73.5 -6 q-50 0 -94.5 14 q-44.5 14 -80 41 q-35.5 27 -59 67 q-23.5 40 -30.5 92 q-75 4 -111 34 q-36 30 -36 87 ZM268 274 q17 -1 33.5 -1.5 q16.5 -0.5 31.5 -0.5 q62 0 100 7 q38 7 59 18 q21 11 28 25.5 q7 14.5 7 29.5 q0 38 -30.5 57 q-30.5 19 -75.5 19 q-37 0 -65 -13 q-28 -13 -47 -34.5 q-19 -21.5 -29.5 -49.5 q-10.5 -28 -11.5 -57 Z" /><glyph glyph-name="uni04BE" unicode="&#x4be;" d="M16 440 q0 25 6 48.5 q6 23.5 16.5 42.5 q10.5 19 24.5 30.5 q14 11.5 31 11.5 q20 0 37 -10.5 q17 -10.5 28 -30.5 q-17 -20 -26 -41 q-9 -21 -9 -42 q0 -29 16.5 -42.5 q16.5 -13.5 46.5 -18.5 q8 69 37.5 127 q29.5 58 75.5 100 q46 42 107.5 65.5 q61.5 23.5 133.5 23.5 q71 0 124.5 -17.5 q53.5 -17.5 89 -47.5 q35.5 -30 53 -69.5 q17.5 -39.5 17.5 -82.5 q0 -48 -20.5 -88 q-20.5 -40 -64 -68.5 q-43.5 -28.5 -113 -44.5 q-69.5 -16 -166.5 -16 q-38 0 -77 2 q-39 2 -70 4 q5 -39 22.5 -73 q17.5 -34 47.5 -59.5 q30 -25.5 71.5 -40 q41.5 -14.5 94.5 -14.5 q69 0 115 17.5 q46 17.5 71 33.5 q14 -23 27 -45.5 q13 -22.5 26 -45.5 q-14 -11 -47.5 -26.5 q-33.5 -15.5 -85.5 -26.5 q-29 -8 -53 -25.5 q-24 -17.5 -24 -45.5 q0 -19 13.5 -26.5 q13.5 -7.5 31.5 -7.5 q25 0 43 8 q18 8 21 10 l25 -57 q-11 -6 -38.5 -15.5 q-27.5 -9.5 -68.5 -9.5 q-49 0 -80 19 q-31 19 -31 63 q0 28 12 46 q12 18 27 29 q-68 1 -128 21 q-60 20 -106 58 q-46 38 -76 94 q-30 56 -38 128 q-86 11 -128 50 q-42 39 -42 105 ZM311 374 q34 -4 73 -5 q39 -1 68 -1 q78 0 127 10 q49 10 76.5 26.5 q27.5 16.5 37.5 38 q10 21.5 10 44.5 q0 30 -12.5 51 q-12.5 21 -34.5 34.5 q-22 13.5 -51.5 20 q-29.5 6.5 -63.5 6.5 q-51 0 -92 -19 q-41 -19 -70.5 -50.5 q-29.5 -31.5 -47 -72 q-17.5 -40.5 -20.5 -83.5 Z" /><glyph glyph-name="uni04BF" unicode="&#x4bf;" d="M8 321 q0 18 6 36 q6 18 16.5 32 q10.5 14 24 23 q13.5 9 29.5 9 q17 0 31.5 -9 q14.5 -9 23.5 -23 q-17 -17 -26 -35 q-9 -18 -9 -32 q0 -21 11 -32 q11 -11 38 -13 q5 54 27 98 q22 44 58 75.5 q36 31.5 83 48.5 q47 17 102 17 q52 0 92 -13.5 q40 -13.5 67.5 -36 q27.5 -22.5 41.5 -52.5 q14 -30 14 -64 q0 -35 -13 -63.5 q-13 -28.5 -46 -49 q-33 -20.5 -89 -32 q-56 -11.5 -142 -11.5 q-20 0 -38 0.5 q-18 0.5 -37 1.5 q8 -51 49.5 -82.5 q41.5 -31.5 118.5 -31.5 q26 0 48 4 q22 4 39.5 10 q17.5 6 30 12 q12.5 6 18.5 9 l42 -80 q-10 -7 -32.5 -17.5 q-22.5 -10.5 -57.5 -19.5 l-1 0 l-17 -4 q-15 -4 -29 -11 q-14 -7 -25 -16 q-11 -9 -18 -20.5 q-7 -11.5 -7 -25.5 q0 -21 14 -29 q14 -8 34 -8 q25 0 42.5 7.5 q17.5 7.5 20.5 9.5 l23 -53 q-11 -6 -37.5 -15 q-26.5 -9 -67.5 -9 q-48 0 -78.5 18.5 q-30.5 18.5 -30.5 61.5 q0 32 15.5 51 q15.5 19 32.5 30 q-47 2 -88.5 17 q-41.5 15 -74 42 q-32.5 27 -54 65.5 q-21.5 38.5 -28.5 88.5 q-75 4 -111 34 q-36 30 -36 87 ZM268 274 q17 -1 33.5 -1.5 q16.5 -0.5 31.5 -0.5 q62 0 100 7 q38 7 59 18 q21 11 28 25.5 q7 14.5 7 29.5 q0 38 -30.5 57 q-30.5 19 -75.5 19 q-37 0 -65 -13 q-28 -13 -47 -34.5 q-19 -21.5 -29.5 -49.5 q-10.5 -28 -11.5 -57 Z" /><glyph glyph-name="uni04C3" unicode="&#x4c3;" d="M406 338 q28 -32 58.5 -69 q30.5 -37 61.5 -77.5 q31 -40.5 61 -82.5 q30 -42 56 -84 q-4 -59 -24 -103 q-20 -44 -52.5 -73.5 q-32.5 -29.5 -76.5 -44 q-44 -14.5 -95 -14.5 q-15 0 -34.5 1.5 q-19.5 1.5 -41 5.5 q-21.5 4 -43.5 12 q-22 8 -42 21 l41 87 q23 -13 53 -19.5 q30 -6.5 60 -6.5 q23 0 45 6.5 q22 6.5 40 20 q18 13.5 30 34 q12 20.5 17 48.5 q-23 35 -50 73 q-27 38 -56 75.5 q-29 37.5 -58.5 73 q-29.5 35.5 -57.5 66.5 q-14 -2 -28.5 -3.5 q-14.5 -1.5 -30.5 -1.5 l-48 0 l0 -283 l-118 0 l0 631 q0 53 59 53 q21 0 37.5 -4 q16.5 -4 21.5 -6 l0 -285 l41 0 q42 0 69.5 13.5 q27.5 13.5 50.5 39.5 q44 51 70.5 95 q26.5 44 47.5 76.5 q21 32.5 43 51.5 q22 19 57 19 q27 0 42.5 -7 q15.5 -7 27.5 -16 q-34 -53 -78.5 -119.5 q-44.5 -66.5 -93.5 -135.5 q-15 -21 -30 -38 q-15 -17 -32 -30 Z" /><glyph glyph-name="uni04C4" unicode="&#x4c4;" d="M367 247 q21 -25 46.5 -54 q25.5 -29 50.5 -58.5 q25 -29.5 49 -58.5 q24 -29 42 -54 q-2 -60 -20 -103.5 q-18 -43.5 -48 -71.5 q-30 -28 -70 -41.5 q-40 -13.5 -86 -13.5 q-39 0 -74 7.5 q-35 7.5 -64 26.5 l37 81 q40 -23 93 -23 q43 0 75 29 q32 29 40 87 q-16 21 -37.5 46.5 q-21.5 25.5 -45 52.5 q-23.5 27 -47.5 53.5 q-24 26.5 -45 49.5 q-10 -1 -21 -1.5 q-11 -0.5 -22 -0.5 l-44 0 l0 -200 l-113 0 l0 450 q0 30 18 41 q18 11 51 11 q15 0 27.5 -4 q12.5 -4 16.5 -6 l0 -193 l40 0 q30 0 54 8 q24 8 44 31 q17 19 30 34.5 q13 15.5 24.5 29.5 q11.5 14 22.5 27.5 q11 13.5 25 30.5 q14 17 30 29.5 q16 12.5 42 12.5 q29 0 46 -6.5 q17 -6.5 29 -16.5 q-18 -24 -34.5 -45 q-16.5 -21 -34 -42 q-17.5 -21 -36 -44.5 q-18.5 -23.5 -41.5 -51.5 q-9 -11 -21 -24 q-12 -13 -29 -25 Z" /><glyph glyph-name="uni04C5" unicode="&#x4c5;" d="M446 696 q49 0 84 -4.5 q35 -4.5 49 -6.5 q23 -5 39 -18.5 q16 -13.5 16 -45.5 l0 -547 l83 0 l-53 -255 l-109 0 l38 181 l-77 0 l0 581 q-9 2 -29 4 q-20 2 -42 2 q-34 0 -60.5 -6.5 q-26.5 -6.5 -47 -24 q-20.5 -17.5 -36 -47.5 q-15.5 -30 -27.5 -77 q-16 -61 -29 -120.5 q-13 -59.5 -28 -119.5 q-11 -44 -28 -95.5 q-17 -51.5 -48 -96.5 l-135 0 q35 55 55 103.5 q20 48.5 33 93.5 q8 28 15 56.5 q7 28.5 14 59 q7 30.5 15 65 q8 34.5 18 76.5 q16 69 41.5 115.5 q25.5 46.5 61.5 74.5 q36 28 82.5 40 q46.5 12 104.5 12 Z" /><glyph glyph-name="uni04C6" unicode="&#x4c6;" d="M348 412 q-54 0 -81 -24.5 q-27 -24.5 -41 -78.5 q-14 -58 -24 -103 q-10 -45 -20 -81 q-10 -37 -21 -66.5 q-11 -29.5 -28 -58.5 l-123 0 q20 38 34 73.5 q14 35.5 24 70.5 q8 27 14 50 q6 23 11.5 45 q5.5 22 10.5 43 q5 21 11 45 q13 54 35.5 90 q22.5 36 52.5 57.5 q30 21.5 67 30 q37 8.5 81 8.5 q61 0 94.5 -5.5 q33.5 -5.5 49.5 -18 q16 -12.5 18.5 -32.5 q2.5 -20 2.5 -48 l0 -336 l77 0 l-53 -254 l-104 0 l38 181 l-72 0 l0 407 q-11 2 -26.5 3.5 q-15.5 1.5 -27.5 1.5 Z" /><glyph glyph-name="uni04C7" unicode="&#x4c7;" d="M663 50 q0 -66 -18 -114.5 q-18 -48.5 -50.5 -81 q-32.5 -32.5 -78 -48.5 q-45.5 -16 -99.5 -16 q-15 0 -34.5 1.5 q-19.5 1.5 -41 5.5 q-21.5 4 -43.5 12 q-22 8 -42 21 l41 87 q23 -13 53 -19.5 q30 -6.5 60 -6.5 q26 0 50 8 q24 8 43 25.5 q19 17.5 30 45.5 q11 28 11 67 l0 265 l-352 0 l0 -302 l-119 0 l0 631 q0 28 17 41.5 q17 13.5 46 13.5 q19 0 35 -5 q16 -5 21 -7 l0 -263 l352 0 l0 220 q0 28 16.5 41.5 q16.5 13.5 45.5 13.5 q20 0 36 -5 q16 -5 21 -8 l0 -623 Z" /><glyph glyph-name="uni04C8" unicode="&#x4c8;" d="M562 35 q0 -64 -17 -110 q-17 -46 -46.5 -76 q-29.5 -30 -70 -44 q-40.5 -14 -87.5 -14 q-39 0 -74 7.5 q-35 7.5 -64 26.5 l37 82 q40 -23 92 -23 q23 0 44 8 q21 8 37 25.5 q16 17.5 25.5 44 q9.5 26.5 9.5 63.5 l0 180 l-271 0 l0 -205 l-114 0 l0 449 q0 27 16 40 q16 13 44 13 q18 0 33.5 -4.5 q15.5 -4.5 20.5 -6.5 l0 -184 l271 0 l0 142 q0 27 16 40 q16 13 44 13 q18 0 33.5 -4.5 q15.5 -4.5 20.5 -6.5 l0 -456 Z" /><glyph glyph-name="uni04C9" unicode="&#x4c9;" d="M73 631 q0 28 17 41.5 q17 13.5 46 13.5 q19 0 35 -5 q16 -5 21 -7 l0 -263 l352 0 l0 220 q0 28 16.5 41.5 q16.5 13.5 45.5 13.5 q20 0 36 -5 q16 -5 21 -8 l0 -599 l82 0 l-53 -255 l-109 0 l38 181 l-77 0 l0 302 l-352 0 l0 -302 l-119 0 l0 631 Z" /><glyph glyph-name="uni04CA" unicode="&#x4ca;" d="M63 449 q0 27 16 40 q16 13 44 13 q18 0 33.5 -4.5 q15.5 -4.5 20.5 -6.5 l0 -184 l271 0 l0 142 q0 27 16 40 q16 13 44 13 q18 0 33.5 -4.5 q15.5 -4.5 20.5 -6.5 l0 -418 l77 0 l-53 -254 l-104 0 l38 181 l-72 0 l0 205 l-271 0 l0 -205 l-114 0 l0 449 Z" /><glyph glyph-name="uni04CB" unicode="&#x4cb;" d="M483 631 q0 28 17 41.5 q17 13.5 46 13.5 q19 0 35 -5 q16 -5 21 -7 l0 -674 l-74 0 l0 -181 l-118 0 l0 232 q0 26 15 42 q15 16 45 16 l13 0 l0 145 q-34 -8 -71.5 -12.5 q-37.5 -4.5 -91.5 -4.5 q-52 0 -101.5 9.5 q-49.5 9.5 -88 34.5 q-38.5 25 -62 69.5 q-23.5 44.5 -23.5 115.5 l0 165 q0 28 16.5 41.5 q16.5 13.5 45.5 13.5 q19 0 35 -5 q16 -5 21 -7 l0 -167 q0 -44 8.5 -74.5 q8.5 -30.5 28.5 -50 q20 -19.5 53.5 -28.5 q33.5 -9 83.5 -9 q50 0 82.5 4 q32.5 4 63.5 12 l0 270 Z" /><glyph glyph-name="uni04CC" unicode="&#x4cc;" d="M518 0 l-76 0 l0 -168 l-108 0 l0 199 q0 26 16 42.5 q16 16.5 45 16.5 l9 0 l0 76 q-29 -11 -66 -17.5 q-37 -6.5 -84 -6.5 q-50 0 -89.5 11.5 q-39.5 11.5 -67.5 37 q-28 25.5 -42.5 65.5 q-14.5 40 -14.5 98 l0 95 q0 27 15.5 40 q15.5 13 43.5 13 q19 0 34 -4.5 q15 -4.5 20 -6.5 l0 -119 q0 -66 27 -96.5 q27 -30.5 87 -30.5 q35 0 71 6 q36 6 66 22 l0 176 q0 27 16 40 q16 13 44 13 q19 0 34 -4.5 q15 -4.5 20 -6.5 l0 -491 Z" /><glyph glyph-name="uni04CD" unicode="&#x4cd;" d="M68 0 q1 26 3.5 75 q2.5 49 6 109.5 q3.5 60.5 7 126 q3.5 65.5 7 126 q3.5 60.5 6.5 109 q3 48.5 5 74.5 q2 36 24 51 q22 15 50 15 q31 0 51 -9 q20 -9 28 -17 q12 -24 36.5 -73.5 q24.5 -49.5 53 -107 q28.5 -57.5 57 -113.5 q28.5 -56 47.5 -93 q17 34 42.5 84.5 q25.5 50.5 51 102 q25.5 51.5 48 97 q22.5 45.5 34.5 70.5 q14 29 35 44 q21 15 54 15 q29 0 49 -7.5 q20 -7.5 25 -12.5 l34 -592 l82 0 l-53 -255 l-109 0 l38 181 l-71 0 q-1 16 -3 55.5 q-2 39.5 -5 91.5 q-3 52 -6 109.5 q-3 57.5 -6 109 q-3 51.5 -5.5 91 q-2.5 39.5 -3.5 54.5 q-9 -18 -24 -48 q-15 -30 -32.5 -65.5 q-17.5 -35.5 -36.5 -74.5 q-19 -39 -36.5 -74.5 q-17.5 -35.5 -32 -66 q-14.5 -30.5 -23.5 -48.5 l-98 0 q-12 27 -35 74.5 q-23 47.5 -49.5 101.5 q-26.5 54 -53 107 q-26.5 53 -47.5 92 q-1 -24 -3.5 -64 q-2.5 -40 -5 -89 q-2.5 -49 -5.5 -101.5 q-3 -52.5 -5.5 -101.5 q-2.5 -49 -4.5 -89 q-2 -40 -3 -64 l-118 0 Z" /><glyph glyph-name="uni04CE" unicode="&#x4ce;" d="M362 211 q32 63 62 123 q30 60 61 117 q13 25 32 38 q19 13 49 13 q26 0 44 -7 q18 -7 24 -11 l31 -411 l82 0 l-53 -254 l-104 0 l38 181 l-66 0 q-2 27 -5.5 75 q-3.5 48 -7.5 99 q-4 51 -7.5 97.5 q-3.5 46.5 -6.5 71.5 q-34 -64 -68 -128.5 q-34 -64.5 -63 -124.5 l-88 0 q-30 62 -63 126.5 q-33 64.5 -66 124.5 q-3 -25 -6.5 -71.5 q-3.5 -46.5 -7.5 -97.5 q-4 -51 -7.5 -98 q-3.5 -47 -5.5 -74 l-109 0 q1 20 4 55.5 q3 35.5 6 79 q3 43.5 7 91 q4 47.5 7 90 q3 42.5 5.5 77 q2.5 34.5 4.5 52.5 q3 31 23 44 q20 13 46 13 q27 0 45.5 -8.5 q18.5 -8.5 28.5 -21.5 q34 -66 66 -129 q32 -63 68 -132 Z" /><glyph glyph-name="uni04D4" unicode="&#x4d4;" d="M-1 0 q49 86 101.5 172 q52.5 86 102.5 165.5 q50 79.5 94.5 148.5 q44.5 69 78.5 121 q15 24 29 39.5 q14 15.5 28 24 q14 8.5 29.5 12 q15.5 3.5 34.5 3.5 l482 0 q59 0 59 -54 q0 -19 -6 -34.5 q-6 -15.5 -9 -20.5 l-363 0 l0 -172 l304 0 q60 0 60 -54 q0 -19 -6 -34.5 q-6 -15.5 -10 -20.5 l-348 0 l0 -187 l372 0 l0 -109 l-493 0 l0 200 l-293 0 q-36 -60 -67.5 -112 q-31.5 -52 -52.5 -88 l-127 0 ZM539 307 l0 269 l-56 0 q-9 -13 -31 -47 q-22 -34 -48.5 -75 q-26.5 -41 -52 -81.5 q-25.5 -40.5 -42.5 -65.5 l230 0 Z" /><glyph glyph-name="uni04D5" unicode="&#x4d5;" d="M426 110 q-8 14 -19.5 46 q-11.5 32 -12.5 69 q-10 2 -41 5.5 q-31 3.5 -76 3.5 q-68 0 -99 -20.5 q-31 -20.5 -31 -64.5 q0 -36 28 -58 q28 -22 102 -22 q32 0 58.5 6 q26.5 6 46 13 q19.5 7 31 13.5 q11.5 6.5 13.5 8.5 ZM861 37 q-8 -5 -25 -13.5 q-17 -8.5 -41 -16.5 q-24 -8 -55 -14 q-31 -6 -68 -6 q-64 0 -114.5 18.5 q-50.5 18.5 -75.5 38.5 q-2 -2 -17.5 -11.5 q-15.5 -9.5 -43 -20 q-27.5 -10.5 -66 -18.5 q-38.5 -8 -87.5 -8 q-70 0 -115.5 13.5 q-45.5 13.5 -72 36 q-26.5 22.5 -37 52 q-10.5 29.5 -10.5 60.5 q0 41 12.5 72 q12.5 31 40.5 52 q28 21 72.5 32 q44.5 11 108.5 11 q20 0 41.5 -1.5 q21.5 -1.5 39.5 -3 q18 -1.5 31.5 -3 q13.5 -1.5 17.5 -2.5 q0 34 -11.5 57 q-11.5 23 -31.5 37 q-20 14 -48.5 20 q-28.5 6 -62.5 6 q-60 0 -93 -13.5 q-33 -13.5 -44 -22.5 q-6 5 -16.5 19 q-10.5 14 -10.5 34 q0 15 8 28.5 q8 13.5 27 23.5 q19 10 51 16 q32 6 80 6 q95 0 149.5 -27.5 q54.5 -27.5 72.5 -64.5 q12 16 32 32.5 q20 16.5 46.5 30 q26.5 13.5 59 21.5 q32.5 8 68.5 8 q50 0 88.5 -13 q38.5 -13 65 -35.5 q26.5 -22.5 40 -52.5 q13.5 -30 13.5 -65 q0 -35 -13 -63 q-13 -28 -43.5 -48 q-30.5 -20 -81 -31 q-50.5 -11 -124.5 -11 q-33 0 -64 2 q-31 2 -40 4 q6 -55 48.5 -88 q42.5 -33 120.5 -33 q26 0 48 4 q22 4 39.5 10 q17.5 6 29.5 12 q12 6 18 9 l43 -80 ZM510 280 q8 -1 30.5 -2.5 q22.5 -1.5 41.5 -1.5 q60 0 97 6 q37 6 57 16.5 q20 10.5 26.5 24.5 q6.5 14 6.5 29 q0 38 -31 57 q-31 19 -76 19 q-36 0 -64.5 -12.5 q-28.5 -12.5 -48 -33.5 q-19.5 -21 -29.5 -47.5 q-10 -26.5 -10 -54.5 Z" /><glyph glyph-name="uni04D8" unicode="&#x4d8;" d="M313 599 q-37 0 -68.5 -6.5 q-31.5 -6.5 -56 -16.5 q-24.5 -10 -42 -22.5 q-17.5 -12.5 -27.5 -23.5 q-12 8 -29 26.5 q-17 18.5 -17 44.5 q0 30 34 53 q23 15 77.5 32.5 q54.5 17.5 138.5 17.5 q78 0 143.5 -24 q65.5 -24 113 -69.5 q47.5 -45.5 74 -110.5 q26.5 -65 26.5 -147 q0 -79 -25 -146.5 q-25 -67.5 -71.5 -117.5 q-46.5 -50 -113 -78.5 q-66.5 -28.5 -148.5 -28.5 q-71 0 -124.5 18 q-53.5 18 -89 48.5 q-35.5 30.5 -53 70 q-17.5 39.5 -17.5 82.5 q0 48 20.5 88 q20.5 40 64 68 q43.5 28 112.5 43.5 q69 15.5 167 15.5 q38 0 77 -2 q39 -2 70 -4 q-5 39 -22.5 73.5 q-17.5 34.5 -47.5 60 q-30 25.5 -72 40.5 q-42 15 -94 15 ZM552 313 q-34 3 -73 4.5 q-39 1.5 -68 1.5 q-78 0 -127 -10 q-49 -10 -76.5 -26.5 q-27.5 -16.5 -37.5 -37.5 q-10 -21 -10 -44 q0 -30 12.5 -51.5 q12.5 -21.5 34.5 -35.5 q22 -14 51.5 -21 q29.5 -7 63.5 -7 q51 0 92 19.5 q41 19.5 70.5 51 q29.5 31.5 47 72.5 q17.5 41 20.5 84 Z" /><glyph glyph-name="uni04D9" unicode="&#x4d9;" d="M397 226 q-10 1 -23 1 q-13 0 -24 0 q-68 0 -110 -6 q-42 -6 -64.5 -17 q-22.5 -11 -30 -25.5 q-7.5 -14.5 -7.5 -31.5 q0 -38 31 -56.5 q31 -18.5 76 -18.5 q37 0 65.5 13 q28.5 13 47.5 34.5 q19 21.5 28.5 49 q9.5 27.5 10.5 57.5 ZM56 433 q0 25 20.5 40.5 q20.5 15.5 50.5 24.5 q30 9 63.5 12.5 q33.5 3.5 58.5 3.5 q54 0 101.5 -17 q47.5 -17 83.5 -50.5 q36 -33.5 57 -82 q21 -48.5 21 -111.5 q0 -61 -19.5 -110.5 q-19.5 -49.5 -54 -85 q-34.5 -35.5 -83 -54.5 q-48.5 -19 -105.5 -19 q-56 0 -97.5 13 q-41.5 13 -69.5 35.5 q-28 22.5 -42 53 q-14 30.5 -14 64.5 q0 35 13.5 63.5 q13.5 28.5 46.5 49 q33 20.5 89 31.5 q56 11 142 11 q20 0 37.5 0 q17.5 0 36.5 -1 q-8 50 -48 82 q-40 32 -120 32 q-27 0 -50.5 -5 q-23.5 -5 -41.5 -11.5 q-18 -6.5 -30 -12.5 q-12 -6 -16 -9 q-8 6 -19 20.5 q-11 14.5 -11 32.5 Z" /><glyph glyph-name="uni04E0" unicode="&#x4e0;" d="M501 514 q-37 -28 -77.5 -57.5 q-40.5 -29.5 -82.5 -60.5 q54 -4 98.5 -17.5 q44.5 -13.5 77 -37.5 q32.5 -24 50.5 -60 q18 -36 18 -85 q0 -48 -21 -87 q-21 -39 -59 -66.5 q-38 -27.5 -91 -42.5 q-53 -15 -118 -15 q-60 0 -106.5 8 q-46.5 8 -81 18.5 q-34.5 10.5 -57.5 22 q-23 11.5 -35 18.5 l51 89 q12 -8 32 -17 q20 -9 47.5 -17.5 q27.5 -8.5 62 -14 q34.5 -5.5 75.5 -5.5 q87 0 133.5 31.5 q46.5 31.5 46.5 83.5 q0 33 -17.5 54.5 q-17.5 21.5 -50.5 33.5 q-33 12 -81 17 q-48 5 -109 5 l-8 0 q-8 6 -15 21 q-7 15 -7 34 q0 16 10.5 29 q10.5 13 39.5 33 q23 15 52 35.5 q29 20.5 58 41 q29 20.5 55.5 39.5 q26.5 19 43.5 32 l-302 0 q-19 0 -36 1 q-17 1 -30.5 6.5 q-13.5 5.5 -21.5 16 q-8 10.5 -8 30.5 q0 19 6 34.5 q6 15.5 9 20.5 l446 0 q38 0 58 -15.5 q20 -15.5 20 -43.5 q0 -37 -19 -61 q-19 -24 -56 -52 Z" /><glyph glyph-name="uni04E1" unicode="&#x4e1;" d="M260 215 q51 -5 92.5 -20 q41.5 -15 71 -40.5 q29.5 -25.5 46 -60.5 q16.5 -35 16.5 -79 q0 -47 -16 -88 q-16 -41 -49.5 -71.5 q-33.5 -30.5 -84.5 -48 q-51 -17.5 -121 -17.5 q-78 0 -134.5 14.5 q-56.5 14.5 -108.5 43.5 l45 90 q39 -21 86.5 -35.5 q47.5 -14.5 104.5 -14.5 q79 0 119 34 q40 34 40 87 q0 31 -11 54 q-11 23 -37.5 38 q-26.5 15 -69.5 22.5 q-43 7.5 -106 7.5 l-21 0 q-5 6 -12 18 q-7 12 -7 32 q0 10 5.5 20.5 q5.5 10.5 22.5 24.5 q19 16 47.5 39.5 q28.5 23.5 57 48.5 q28.5 25 54 47.5 q25.5 22.5 39.5 36.5 l-228 0 q-48 0 -67.5 10 q-19.5 10 -19.5 41 q0 17 5 32 q5 15 8 21 l389 0 q29 0 44.5 -13.5 q15.5 -13.5 15.5 -39.5 q0 -17 -5.5 -29 q-5.5 -12 -18.5 -27 q-10 -12 -31 -33 q-21 -21 -48 -45.5 q-27 -24.5 -56.5 -51 q-29.5 -26.5 -56.5 -48.5 Z" /><glyph glyph-name="uni04E8" unicode="&#x4e8;" d="M409 704 q78 0 144.5 -27.5 q66.5 -27.5 116 -76 q49.5 -48.5 77.5 -114.5 q28 -66 28 -143 q0 -77 -28 -143 q-28 -66 -77.5 -114.5 q-49.5 -48.5 -116 -76 q-66.5 -27.5 -144.5 -27.5 q-78 0 -144.5 27.5 q-66.5 27.5 -116 76 q-49.5 48.5 -77.5 114.5 q-28 66 -28 143 q0 77 28 143 q28 66 77.5 114.5 q49.5 48.5 116 76 q66.5 27.5 144.5 27.5 ZM409 91 q46 0 86.5 15.5 q40.5 15.5 72 43 q31.5 27.5 52 66 q20.5 38.5 27.5 85.5 l-476 0 q6 -47 26.5 -85.5 q20.5 -38.5 52 -66 q31.5 -27.5 72 -43 q40.5 -15.5 87.5 -15.5 ZM409 595 q-46 0 -86 -15 q-40 -15 -71.5 -42 q-31.5 -27 -52.5 -64.5 q-21 -37.5 -28 -83.5 l475 0 q-7 46 -27.5 83.5 q-20.5 37.5 -52 64.5 q-31.5 27 -71.5 42 q-40 15 -86 15 Z" /><glyph glyph-name="uni04E9" unicode="&#x4e9;" d="M313 516 q58 0 108.5 -20 q50.5 -20 87.5 -55.5 q37 -35.5 58 -84 q21 -48.5 21 -105.5 q0 -56 -21 -104.5 q-21 -48.5 -58 -84 q-37 -35.5 -87.5 -56 q-50.5 -20.5 -108.5 -20.5 q-58 0 -108.5 20.5 q-50.5 20.5 -87.5 56 q-37 35.5 -58 84 q-21 48.5 -21 104.5 q0 57 21 105.5 q21 48.5 58 84 q37 35.5 87.5 55.5 q50.5 20 108.5 20 ZM313 87 q60 0 100.5 35.5 q40.5 35.5 51.5 91.5 l-305 0 q11 -56 52 -91.5 q41 -35.5 101 -35.5 ZM313 416 q-59 0 -99.5 -34.5 q-40.5 -34.5 -52.5 -89.5 l304 0 q-12 55 -52.5 89.5 q-40.5 34.5 -99.5 34.5 Z" /><glyph glyph-name="uni04F6" unicode="&#x4f6;" d="M73 618 q0 68 72 68 l373 0 q59 0 59 -54 q0 -19 -5.5 -34.5 q-5.5 -15.5 -9.5 -20.5 l-371 0 l0 -468 l14 0 q30 0 45 -16 q15 -16 15 -42 l0 -232 l-118 0 l0 181 l-74 0 l0 618 Z" /><glyph glyph-name="uni04F7" unicode="&#x4f7;" d="M63 436 q0 32 18 49 q18 17 53 17 l270 0 q57 0 57 -52 q0 -17 -5.5 -32.5 q-5.5 -15.5 -8.5 -20.5 l-270 0 l0 -297 l9 0 q29 0 45 -16.5 q16 -16.5 16 -42.5 l0 -209 l-108 0 l0 168 l-76 0 l0 436 Z" /><glyph glyph-name="afii61352" unicode="&#x2116;" d="M73 622 q0 35 21.5 49.5 q21.5 14.5 50.5 14.5 q27 0 45 -9 q18 -9 25 -14 q10 -13 30.5 -43 q20.5 -30 47 -71 q26.5 -41 56.5 -88.5 q30 -47.5 60 -95.5 q30 -48 57.5 -92.5 q27.5 -44.5 49.5 -78.5 l0 437 q0 28 16.5 41.5 q16.5 13.5 45.5 13.5 q20 0 35 -5 q15 -5 20 -8 l0 -673 l-120 0 q-18 28 -42 67.5 q-24 39.5 -51.5 84.5 q-27.5 45 -57.5 94 q-30 49 -59.5 96.5 q-29.5 47.5 -58.5 90.5 q-29 43 -54 78 l0 -511 l-117 0 l0 622 ZM734 425 q0 39 14.5 73 q14.5 34 40.5 59 q26 25 61 39 q35 14 76 14 q40 0 75.5 -14 q35.5 -14 61 -39 q25.5 -25 40.5 -59 q15 -34 15 -73 q0 -39 -15 -73 q-15 -34 -40.5 -59 q-25.5 -25 -61 -39.5 q-35.5 -14.5 -75.5 -14.5 q-41 0 -76 14.5 q-35 14.5 -61 39.5 q-26 25 -40.5 59 q-14.5 34 -14.5 73 ZM926 324 q42 0 68.5 29 q26.5 29 26.5 72 q0 21 -7 39.5 q-7 18.5 -20 32 q-13 13.5 -30 21.5 q-17 8 -38 8 q-42 0 -69 -29.5 q-27 -29.5 -27 -71.5 q0 -43 27 -72 q27 -29 69 -29 ZM1060 173 q58 0 58 -51 q0 -15 -4 -28.5 q-4 -13.5 -7 -21.5 l-315 0 q-58 0 -58 51 q0 15 4 28.5 q4 13.5 8 21.5 l314 0 Z" /><glyph glyph-name="afii00208" unicode="&#x2015;" d="M948 327 q29 0 40.5 -17 q11.5 -17 11.5 -42 q0 -17 -3.5 -30.5 q-3.5 -13.5 -6.5 -20.5 l-939 0 q-29 0 -40 16.5 q-11 16.5 -11 41.5 q0 17 3.5 31 q3.5 14 6.5 21 l938 0 Z" /><glyph glyph-name="uni20B4" unicode="&#x20b4;" d="M80 232 q-40 0 -40 36 q0 13 3.5 22 q3.5 9 5.5 13 l637 0 q41 0 41 -36 q0 -13 -3.5 -22 q-3.5 -9 -6.5 -13 l-471 0 q-17 -18 -17 -53 q0 -31 16 -49.5 q16 -18.5 40 -28.5 q24 -10 51.5 -13 q27.5 -3 49.5 -3 q63 0 125 17.5 q62 17.5 112 49.5 l49 -89 q-29 -20 -64.5 -34.5 q-35.5 -14.5 -73.5 -24 q-38 -9.5 -75.5 -14.5 q-37.5 -5 -71.5 -5 q-51 0 -101 10.5 q-50 10.5 -89.5 34.5 q-39.5 24 -64 63 q-24.5 39 -24.5 96 q0 13 2.5 24 q2.5 11 5.5 19 l-36 0 ZM80 389 q-20 0 -30 9.5 q-10 9.5 -10 26.5 q0 13 3.5 22.5 q3.5 9.5 5.5 13.5 l477 0 q10 10 14 24 q4 14 4 26 q0 31 -15.5 49.5 q-15.5 18.5 -38.5 28.5 q-23 10 -50.5 13 q-27.5 3 -51.5 3 q-26 0 -55 -4 q-29 -4 -56.5 -13 q-27.5 -9 -53 -22.5 q-25.5 -13.5 -43.5 -31.5 q-13 8 -26 27.5 q-13 19.5 -13 41.5 q0 29 28.5 48.5 q28.5 19.5 68.5 31 q40 11.5 82 16.5 q42 5 69 5 q52 0 101 -11 q49 -11 86 -35.5 q37 -24.5 59.5 -62.5 q22.5 -38 22.5 -92 q0 -10 -2 -22 q-2 -12 -7 -20 l37 0 q20 0 30.5 -9.5 q10.5 -9.5 10.5 -26.5 q0 -13 -3.5 -22.5 q-3.5 -9.5 -6.5 -13.5 l-637 0 Z" /></font>
</defs>
</svg>
