<svg xmlns="http://www.w3.org/2000/svg" viewBox="0 0 15.82 15.82"><defs><style>.cls-1{fill:#fff;}</style></defs><title>2</title><g id="Слой_2" data-name="Слой 2"><g id="контент"><path class="cls-1" d="M15.82,15.16a.66.66,0,0,1-.66.66H.66A.66.66,0,0,1,0,15.16V.66A.66.66,0,0,1,.66,0h14.5a.66.66,0,0,1,.66.66ZM7.25,2a.33.33,0,0,0-.33-.33H2A.33.33,0,0,0,1.65,2V12.53a.33.33,0,0,0,.33.33H6.92a.33.33,0,0,0,.33-.33Zm6.92,0a.33.33,0,0,0-.33-.33H8.9A.33.33,0,0,0,8.57,2V8.57a.33.33,0,0,0,.33.33h4.94a.33.33,0,0,0,.33-.33Z"/></g></g></svg>