<svg xmlns="http://www.w3.org/2000/svg" viewBox="0 0 18.46 18.46"><defs><style>.cls-1{fill:#fff;}</style></defs><title>3</title><g id="Слой_2" data-name="Слой 2"><g id="контент"><path class="cls-1" d="M18.46,10.22a.33.33,0,0,1-.33.33H.33A.33.33,0,0,1,0,10.22V9.56a.33.33,0,0,1,.33-.33h1V2.64A2.64,2.64,0,0,1,5.85.8a2,2,0,0,1,2,.28L8,.86a.16.16,0,0,1,.23,0l.43.43a.16.16,0,0,1,0,.23L5.47,4.75a.16.16,0,0,1-.23,0l-.43-.43a.16.16,0,0,1,0-.23L5,3.86a2,2,0,0,1-.17-2.18,1.32,1.32,0,0,0-2.22,1V9.23H18.13a.33.33,0,0,1,.33.33Zm-1.32,3a4,4,0,0,1-1.32,2.95v2a.33.33,0,0,1-.33.33h-.66a.33.33,0,0,1-.33-.33V16.91a4,4,0,0,1-1.32.23H5.27A4,4,0,0,1,4,16.91V18a.38.38,0,0,1-.33.41H3A.38.38,0,0,1,2.64,18V16.13a4,4,0,0,1-1.32-2.95v-2H17.14ZM6.92,4.61a.33.33,0,1,1,.33-.33A.33.33,0,0,1,6.92,4.61Zm0,1.32a.33.33,0,1,1,.33-.33A.33.33,0,0,1,6.92,5.93Zm0,1.32a.33.33,0,1,1,.33-.33A.33.33,0,0,1,6.92,7.25ZM7.58,4a.33.33,0,1,1,.33-.33A.33.33,0,0,1,7.58,4Zm0,1.32a.33.33,0,1,1,.33-.33A.33.33,0,0,1,7.58,5.27Zm0,1.32a.33.33,0,1,1,.33-.33A.33.33,0,0,1,7.58,6.59Zm.66-3.3A.33.33,0,1,1,8.57,3,.33.33,0,0,1,8.24,3.3Zm0,1.32a.33.33,0,1,1,.33-.33A.33.33,0,0,1,8.24,4.61Zm0,1.32a.33.33,0,1,1,.33-.33A.33.33,0,0,1,8.24,5.93ZM8.9,4a.33.33,0,1,1,.33-.33A.33.33,0,0,1,8.9,4Zm0,1.32a.33.33,0,1,1,.33-.33A.33.33,0,0,1,8.9,5.27Zm.66-2A.33.33,0,1,1,9.89,3,.33.33,0,0,1,9.56,3.3Zm0,1.32a.33.33,0,1,1,.33-.33A.33.33,0,0,1,9.56,4.61ZM10.22,4a.33.33,0,1,1,.33-.33A.33.33,0,0,1,10.22,4Zm.66-.66A.33.33,0,1,1,11.21,3,.33.33,0,0,1,10.88,3.3Z"/></g></g></svg>