<svg xmlns="http://www.w3.org/2000/svg" viewBox="0 0 15.35 13"><defs><style>.cls-1{fill:#ff9600;}</style></defs><title>checkbox-cheched</title><g id="Слой_2" data-name="Слой 2"><g id="контент"><path class="cls-1" d="M13,10.34A2.66,2.66,0,0,1,10.34,13H2.66A2.66,2.66,0,0,1,0,10.34V2.66A2.66,2.66,0,0,1,2.66,0h7.68a2.58,2.58,0,0,1,1.08.23.3.3,0,0,1,.17.21.29.29,0,0,1-.08.27l-.45.45a.32.32,0,0,1-.21.09l-.08,0a1.6,1.6,0,0,0-.42-.06H2.66A1.48,1.48,0,0,0,1.18,2.66v7.68a1.48,1.48,0,0,0,1.48,1.48h7.68a1.48,1.48,0,0,0,1.48-1.48V8a.29.29,0,0,1,.08-.2l.59-.59a.3.3,0,0,1,.21-.09l.11,0A.29.29,0,0,1,13,7.4Zm-5.38.06a.74.74,0,0,1-1.05,0l-4-4a.74.74,0,0,1,0-1.05l1-1a.74.74,0,0,1,1.05,0L7.09,6.8l6-6a.74.74,0,0,1,1.05,0l1,1a.74.74,0,0,1,0,1.05Z"/></g></g></svg>