<svg xmlns="http://www.w3.org/2000/svg" viewBox="0 0 12.99 11"><defs><style>.cls-1{fill:#ff9600}</style></defs><title>chech-checked</title><g id="Слой_2" data-name="Слой 2"><path class="cls-1" d="M11 8.75A2.25 2.25 0 0 1 8.75 11h-6.5A2.25 2.25 0 0 1 0 8.75v-6.5A2.25 2.25 0 0 1 2.25 0h6.5a2.19 2.19 0 0 1 .91.2.25.25 0 0 1 .14.18.25.25 0 0 1-.07.22l-.38.4a.27.27 0 0 1-.18.08L9.1 1a1.36 1.36 0 0 0-.35 0h-6.5A1.25 1.25 0 0 0 1 2.25v6.5A1.25 1.25 0 0 0 2.25 10h6.5A1.25 1.25 0 0 0 10 8.75v-2a.24.24 0 0 1 .07-.17l.5-.5a.25.25 0 0 1 .18-.08h.09a.25.25 0 0 1 .16.23zm-4.55.05a.62.62 0 0 1-.89 0L2.2 5.45a.62.62 0 0 1 0-.89l.86-.86a.62.62 0 0 1 .89 0L6 5.75 11.05.7a.62.62 0 0 1 .89 0l.86.86a.62.62 0 0 1 0 .89z" id="контент"/></g></svg>