<svg xmlns="http://www.w3.org/2000/svg" xmlns:xlink="http://www.w3.org/1999/xlink" viewBox="0 0 56.93 40"><defs><style>.cls-1{fill:url(#linear-gradient);}.cls-2{fill:url(#linear-gradient-2);}.cls-3{fill:url(#linear-gradient-3);}.cls-4{fill:url(#linear-gradient-4);}.cls-5{fill:url(#linear-gradient-5);}.cls-6{fill:url(#linear-gradient-6);}</style><linearGradient id="linear-gradient" x1="31.85" y1="34.27" x2="16.51" y2="46.9" gradientUnits="userSpaceOnUse"><stop offset="0" stop-color="#004c91"/><stop offset="0.07" stop-color="#005c9f"/><stop offset="0.29" stop-color="#0088c7"/><stop offset="0.49" stop-color="#00a8e4"/><stop offset="0.65" stop-color="#00bbf6"/><stop offset="0.76" stop-color="#00c2fc"/><stop offset="0.77" stop-color="#00c3fc"/><stop offset="0.86" stop-color="#00ddfe"/><stop offset="0.94" stop-color="#00edff"/><stop offset="1" stop-color="#00f2ff"/></linearGradient><linearGradient id="linear-gradient-2" x1="17.5" y1="20" x2="56.93" y2="20" xlink:href="#linear-gradient"/><linearGradient id="linear-gradient-3" x1="27.17" y1="28.59" x2="11.83" y2="41.21" xlink:href="#linear-gradient"/><linearGradient id="linear-gradient-4" x1="42.21" y1="44.65" x2="42.21" y2="-1.43" xlink:href="#linear-gradient"/><linearGradient id="linear-gradient-5" x1="28.82" y1="19.24" x2="36.69" y2="12.18" gradientUnits="userSpaceOnUse"><stop offset="0" stop-color="#004c91"/><stop offset="0.07" stop-color="#005a9e" stop-opacity="0.89"/><stop offset="0.29" stop-color="#0080c0" stop-opacity="0.57"/><stop offset="0.49" stop-color="#009edb" stop-opacity="0.32"/><stop offset="0.69" stop-color="#00b3ef" stop-opacity="0.15"/><stop offset="0.86" stop-color="#00c0fb" stop-opacity="0.04"/><stop offset="1" stop-color="#00c5ff" stop-opacity="0"/></linearGradient><linearGradient id="linear-gradient-6" x1="19.72" y1="38.83" x2="19.72" y2="4.04" xlink:href="#linear-gradient"/></defs><title>fixed-menu-logo</title><g id="Слой_2" data-name="Слой 2"><g id="контент"><rect class="cls-1" x="21.01" y="34.39" width="14.57" height="5.61"/><polygon class="cls-2" points="23.75 40 37.22 12.68 50.68 40 56.93 40 37.22 0 17.5 40 23.75 40"/><path class="cls-3" d="M17.5,40h6.25l6.94-14.07a52.13,52.13,0,0,0-3.2-6.2Z"/><path class="cls-4" d="M37.22,0,27.49,19.73a52.13,52.13,0,0,1,3.2,6.2l6.53-13.24L50.68,40h6.25Z"/><path class="cls-5" d="M27.49,19.73a52.13,52.13,0,0,1,3.2,6.2L37,13.17A33.82,33.82,0,0,0,34.26,6Z"/><polygon class="cls-6" points="6.25 40 19.72 12.68 33.18 40 39.43 40 19.72 0 0 40 6.25 40"/></g></g></svg>