<?xml version="1.0" encoding="utf-8"?>
<!-- Generator: Adobe Illustrator 17.1.0, SVG Export Plug-In . SVG Version: 6.00 Build 0)  -->
<!DOCTYPE svg PUBLIC "-//W3C//DTD SVG 1.1//EN" "http://www.w3.org/Graphics/SVG/1.1/DTD/svg11.dtd" [
	<!ENTITY ns_flows "http://ns.adobe.com/Flows/1.0/">
	<!ENTITY ns_extend "http://ns.adobe.com/Extensibility/1.0/">
	<!ENTITY ns_ai "http://ns.adobe.com/AdobeIllustrator/10.0/">
	<!ENTITY ns_graphs "http://ns.adobe.com/Graphs/1.0/">
	<!ENTITY ns_vars "http://ns.adobe.com/Variables/1.0/">
	<!ENTITY ns_imrep "http://ns.adobe.com/ImageReplacement/1.0/">
	<!ENTITY ns_sfw "http://ns.adobe.com/SaveForWeb/1.0/">
	<!ENTITY ns_custom "http://ns.adobe.com/GenericCustomNamespace/1.0/">
	<!ENTITY ns_adobe_xpath "http://ns.adobe.com/XPath/1.0/">
]>
<svg version="1.1" xmlns:x="&ns_extend;" xmlns:i="&ns_ai;" xmlns:graph="&ns_graphs;"
	 xmlns="http://www.w3.org/2000/svg" xmlns:xlink="http://www.w3.org/1999/xlink" xmlns:a="http://ns.adobe.com/AdobeSVGViewerExtensions/3.0/"
	 x="0px" y="0px" viewBox="0 0 14 21" enable-background="new 0 0 14 21" xml:space="preserve">
<metadata>
	<sfw  xmlns="&ns_sfw;">
		<slices></slices>
		<sliceSourceBounds  width="16383" height="16613.0410156" y="-8732" x="-7606" bottomLeftOrigin="true"></sliceSourceBounds>
		<optimizationSettings>
			<targetSettings  fileFormat="PNG24Format" targetSettingsID="0">
				<PNG24Format  transparency="true" noMatteColor="false" matteColor="#FFFFFF" filtered="false" interlaced="false">
					</PNG24Format>
			</targetSettings>
		</optimizationSettings>
	</sfw>
</metadata>
<g id="фон">
</g>
<g id="контент">
	<g>
		<path fill="#FF9600" d="M13.2364721,9.4973698l-4.739316,10.078125c-0.2735043,0.572916-0.8717952,0.9244785-1.4971514,0.9244785
			s-1.2236466-0.3515625-1.4843307-0.9244785L0.7635375,9.4973698C0.4245062,8.7812233,0.3333381,7.9609113,0.3333381,7.1666403
			c0-3.6848958,2.9814816-6.6666665,6.6666665-6.6666665s6.666667,2.9817708,6.666667,6.6666665
			C13.6666718,7.9609113,13.5755033,8.7812233,13.2364721,9.4973698z M7.0000048,3.833307
			c-1.8361821,0-3.3333333,1.4973958-3.3333333,3.3333333s1.4971511,3.333333,3.3333333,3.333333
			s3.333333-1.4973955,3.333333-3.333333S8.8361874,3.833307,7.0000048,3.833307z"/>
	</g>
</g>
<g id="Линейка" display="none">
</g>
<g id="Направляющие" display="none">
</g>
</svg>
