<svg id="Layer_1" data-name="Layer 1" xmlns="http://www.w3.org/2000/svg" viewBox="0 0 449 287.33"><defs><style>.cls-1,.cls-5,.cls-6,.cls-7,.cls-8{fill:none;}.cls-1{stroke:#888;stroke-width:0.5px;}.cls-1,.cls-5,.cls-7,.cls-8{stroke-miterlimit:10;}.cls-2,.cls-3,.cls-4{fill:#888;}.cls-3{font-size:11px;font-family:MyriadPro-Bold, Myriad Pro;}.cls-3,.cls-4{font-weight:700;}.cls-4{font-size:8px;font-family:MyriadPro-Semibold, Myriad Pro;}.cls-5,.cls-6,.cls-7{stroke:#007e4d;}.cls-5,.cls-6{stroke-linecap:round;}.cls-6{stroke-linejoin:round;}.cls-8{stroke:#ccc;stroke-width:2px;}.cls-9{fill:#007e4d;}</style></defs><title>gitter-scheme</title><line class="cls-1" x1="400.95" y1="119.54" x2="383.99" y2="119.54"/><line class="cls-1" x1="400.94" y1="108.21" x2="383.97" y2="108.21"/><polyline class="cls-1" points="10 16.52 29.84 16.52 38.27 25.56"/><polygon class="cls-2" points="37.41 25.69 39.79 27.18 38.47 24.7 37.41 25.69"/><line class="cls-1" x1="400.97" y1="30.21" x2="384" y2="30.21"/><line class="cls-1" x1="400.97" y1="41.58" x2="384" y2="41.58"/><line class="cls-1" x1="400.97" y1="163.94" x2="384" y2="163.94"/><line class="cls-1" x1="400.97" y1="175.31" x2="384" y2="175.31"/><line class="cls-1" x1="400.97" y1="242.35" x2="384" y2="242.35"/><line class="cls-1" x1="400.97" y1="253.73" x2="384" y2="253.73"/><text class="cls-3" transform="translate(14.63 13.35)">A</text><polyline class="cls-1" points="10 263.36 29.84 263.36 38.27 254.33"/><polygon class="cls-2" points="38.47 255.19 39.79 252.71 37.41 254.19 38.47 255.19"/><text class="cls-3" transform="translate(14.63 260.29)">Б</text><polyline class="cls-1" points="439.22 96 419.38 96 410.94 105.04"/><polygon class="cls-2" points="410.75 104.18 409.43 106.66 411.81 105.17 410.75 104.18"/><text class="cls-3" transform="translate(425.32 92.86)">В</text><text class="cls-4" transform="translate(384 40.58) rotate(-90)">82</text><text class="cls-4" transform="translate(384 174.31) rotate(-90)">82</text><text class="cls-4" transform="translate(384 219.79) rotate(-90)">3×200</text><text class="cls-4" transform="translate(384 86.23) rotate(-90)">3×200</text><text class="cls-4" transform="translate(384 152.93) rotate(-90)">2×200</text><text class="cls-4" transform="translate(383.97 119.19) rotate(-90)">82</text><text class="cls-4" transform="translate(384 252.73) rotate(-90)">82</text><line class="cls-5" x1="45.56" y1="26.54" x2="45.56" y2="254.54"/><line class="cls-5" x1="51.33" y1="26.54" x2="51.33" y2="254.54"/><line class="cls-5" x1="57.11" y1="26.54" x2="57.11" y2="254.54"/><line class="cls-5" x1="62.88" y1="26.54" x2="62.88" y2="254.54"/><line class="cls-5" x1="68.65" y1="26.54" x2="68.65" y2="254.54"/><line class="cls-5" x1="74.43" y1="26.54" x2="74.43" y2="254.54"/><line class="cls-5" x1="80.2" y1="26.54" x2="80.2" y2="254.54"/><line class="cls-5" x1="85.97" y1="26.54" x2="85.97" y2="254.54"/><line class="cls-5" x1="91.75" y1="26.54" x2="91.75" y2="254.54"/><line class="cls-5" x1="97.52" y1="26.54" x2="97.52" y2="254.54"/><line class="cls-5" x1="103.29" y1="26.54" x2="103.29" y2="254.54"/><line class="cls-5" x1="109.07" y1="26.54" x2="109.07" y2="254.54"/><line class="cls-5" x1="114.84" y1="26.54" x2="114.84" y2="254.54"/><line class="cls-5" x1="120.61" y1="26.54" x2="120.61" y2="254.54"/><line class="cls-5" x1="126.39" y1="26.54" x2="126.39" y2="254.54"/><line class="cls-5" x1="132.16" y1="26.54" x2="132.16" y2="254.54"/><line class="cls-5" x1="137.93" y1="26.54" x2="137.93" y2="254.54"/><line class="cls-5" x1="143.71" y1="26.54" x2="143.71" y2="254.54"/><line class="cls-5" x1="149.48" y1="26.54" x2="149.48" y2="254.54"/><line class="cls-5" x1="155.25" y1="26.54" x2="155.25" y2="254.54"/><line class="cls-5" x1="161.03" y1="26.54" x2="161.03" y2="254.54"/><line class="cls-5" x1="166.8" y1="26.54" x2="166.8" y2="254.54"/><line class="cls-5" x1="172.57" y1="26.54" x2="172.57" y2="254.54"/><line class="cls-5" x1="178.35" y1="26.54" x2="178.35" y2="254.54"/><line class="cls-5" x1="184.12" y1="26.54" x2="184.12" y2="254.54"/><line class="cls-5" x1="189.89" y1="26.54" x2="189.89" y2="254.54"/><line class="cls-5" x1="195.67" y1="26.54" x2="195.67" y2="254.54"/><line class="cls-5" x1="201.44" y1="26.54" x2="201.44" y2="254.54"/><line class="cls-5" x1="207.21" y1="26.54" x2="207.21" y2="254.54"/><line class="cls-5" x1="212.99" y1="26.54" x2="212.99" y2="254.54"/><line class="cls-5" x1="218.76" y1="26.54" x2="218.76" y2="254.54"/><line class="cls-5" x1="224.53" y1="26.54" x2="224.53" y2="254.54"/><line class="cls-5" x1="230.31" y1="26.54" x2="230.31" y2="254.54"/><line class="cls-5" x1="236.08" y1="26.54" x2="236.08" y2="254.54"/><line class="cls-5" x1="241.85" y1="26.54" x2="241.85" y2="254.54"/><line class="cls-5" x1="247.63" y1="26.54" x2="247.63" y2="254.54"/><line class="cls-5" x1="253.4" y1="26.54" x2="253.4" y2="254.54"/><line class="cls-5" x1="259.17" y1="26.54" x2="259.17" y2="254.54"/><line class="cls-5" x1="264.95" y1="26.54" x2="264.95" y2="254.54"/><line class="cls-5" x1="270.72" y1="26.54" x2="270.72" y2="254.54"/><line class="cls-5" x1="276.49" y1="26.54" x2="276.49" y2="254.54"/><line class="cls-5" x1="282.27" y1="26.54" x2="282.27" y2="254.54"/><line class="cls-5" x1="288.04" y1="26.54" x2="288.04" y2="254.54"/><line class="cls-5" x1="293.81" y1="26.54" x2="293.81" y2="254.54"/><line class="cls-5" x1="299.59" y1="26.54" x2="299.59" y2="254.54"/><line class="cls-5" x1="305.36" y1="26.54" x2="305.36" y2="254.54"/><line class="cls-5" x1="311.13" y1="26.54" x2="311.13" y2="254.54"/><line class="cls-5" x1="316.91" y1="26.54" x2="316.91" y2="254.54"/><line class="cls-5" x1="322.68" y1="26.54" x2="322.68" y2="254.54"/><line class="cls-5" x1="328.45" y1="26.54" x2="328.45" y2="254.54"/><line class="cls-5" x1="334.23" y1="26.54" x2="334.23" y2="254.54"/><polyline class="cls-6" points="400.97 26.54 400.97 31.21 404.97 35.88 400.97 40.54 400.97 109.21 404.97 114.17 400.97 118.54 400.97 164.96 404.97 169.62 400.97 174.29 400.97 243.38 404.97 248.04 400.97 252.71 400.97 254.54"/><line class="cls-5" x1="45.56" y1="31.21" x2="334.23" y2="31.21"/><line class="cls-5" x1="45.56" y1="35.87" x2="334.23" y2="35.87"/><line class="cls-5" x1="45.56" y1="40.54" x2="334.23" y2="40.54"/><line class="cls-5" x1="45.39" y1="109.21" x2="334.06" y2="109.21"/><line class="cls-5" x1="45.39" y1="86.87" x2="334.06" y2="86.87"/><line class="cls-5" x1="45.56" y1="63.04" x2="334.23" y2="63.04"/><line class="cls-5" x1="45.39" y1="113.87" x2="334.06" y2="113.87"/><line class="cls-5" x1="45.39" y1="118.54" x2="334.06" y2="118.54"/><line class="cls-5" x1="45.39" y1="164.96" x2="334.06" y2="164.96"/><line class="cls-5" x1="45.39" y1="141.75" x2="334.06" y2="141.75"/><line class="cls-5" x1="45.39" y1="169.62" x2="334.06" y2="169.62"/><line class="cls-7" x1="45.39" y1="174.29" x2="334.06" y2="174.29"/><line class="cls-5" x1="45.39" y1="243.37" x2="334.06" y2="243.37"/><line class="cls-5" x1="45.39" y1="220.54" x2="334.06" y2="220.54"/><line class="cls-5" x1="45.39" y1="197.42" x2="334.06" y2="197.42"/><line class="cls-5" x1="45.39" y1="248.04" x2="334.06" y2="248.04"/><line class="cls-5" x1="45.39" y1="252.71" x2="334.06" y2="252.71"/><rect class="cls-8" x="37.95" y="22.37" width="24.5" height="24.5" rx="12.12" ry="12.12"/><rect class="cls-8" x="33.31" y="213.4" width="46.89" height="46.89" rx="23.45" ry="23.45"/><line class="cls-1" x1="45.39" y1="253.84" x2="45.39" y2="281"/><line class="cls-1" x1="334.23" y1="253.84" x2="334.23" y2="281"/><line class="cls-1" x1="334.65" y1="26.87" x2="361.8" y2="26.87"/><line class="cls-1" x1="334.65" y1="254.2" x2="361.8" y2="254.2"/><line class="cls-1" x1="48.1" y1="273.58" x2="331.85" y2="273.58"/><polygon class="cls-2" points="48.6 274.31 45.89 273.58 48.6 272.85 48.6 274.31"/><polygon class="cls-2" points="331.35 274.31 334.06 273.58 331.35 272.85 331.35 274.31"/><line class="cls-1" x1="357.32" y1="251.63" x2="357.32" y2="29.42"/><polygon class="cls-2" points="358.05 251.13 357.32 253.84 356.59 251.13 358.05 251.13"/><polygon class="cls-2" points="358.05 29.91 357.32 27.2 356.59 29.91 358.05 29.91"/><line class="cls-1" x1="386.67" y1="27.99" x2="386.67" y2="24.92"/><polygon class="cls-2" points="387.39 27.5 386.67 30.21 385.94 27.5 387.39 27.5"/><line class="cls-1" x1="386.67" y1="41.58" x2="386.67" y2="30.21"/><line class="cls-1" x1="386.67" y1="105.99" x2="386.67" y2="43.8"/><polygon class="cls-2" points="387.39 105.5 386.67 108.21 385.94 105.5 387.39 105.5"/><polygon class="cls-2" points="387.39 44.29 386.67 41.58 385.94 44.29 387.39 44.29"/><line class="cls-1" x1="386.67" y1="119.54" x2="386.67" y2="108.21"/><line class="cls-1" x1="386.67" y1="161.72" x2="386.67" y2="121.76"/><polygon class="cls-2" points="387.39 161.23 386.67 163.94 385.94 161.23 387.39 161.23"/><polygon class="cls-2" points="387.39 122.25 386.67 119.54 385.94 122.25 387.39 122.25"/><line class="cls-1" x1="386.67" y1="175.31" x2="386.67" y2="163.94"/><line class="cls-1" x1="386.67" y1="240.14" x2="386.67" y2="177.53"/><polygon class="cls-2" points="387.39 239.65 386.67 242.35 385.94 239.65 387.39 239.65"/><polygon class="cls-2" points="387.39 178.02 386.67 175.31 385.94 178.02 387.39 178.02"/><line class="cls-1" x1="386.67" y1="253.73" x2="386.67" y2="242.35"/><line class="cls-1" x1="386.67" y1="258.67" x2="386.67" y2="255.94"/><polygon class="cls-2" points="387.39 256.44 386.67 253.73 385.94 256.44 387.39 256.44"/><text class="cls-4" transform="translate(174.73 271.12)">2500±10</text><text class="cls-4" transform="translate(354.95 157.68) rotate(-90)">2030±10</text><circle class="cls-9" cx="399.87" cy="30.21" r="0.65"/><circle class="cls-9" cx="403.49" cy="35.86" r="0.65"/><circle class="cls-9" cx="399.87" cy="41.58" r="0.65"/><circle class="cls-9" cx="399.9" cy="163.91" r="0.65"/><circle class="cls-9" cx="399.9" cy="141.75" r="0.65"/><circle class="cls-9" cx="399.9" cy="119.54" r="0.65"/><circle class="cls-9" cx="399.9" cy="108.21" r="0.65"/><circle class="cls-9" cx="399.9" cy="86.87" r="0.65"/><circle class="cls-9" cx="399.88" cy="63.04" r="0.65"/><circle class="cls-9" cx="403.62" cy="114.17" r="0.65"/><circle class="cls-9" cx="403.52" cy="169.56" r="0.65"/><circle class="cls-9" cx="399.9" cy="175.28" r="0.65"/><circle class="cls-9" cx="399.9" cy="197.42" r="0.65"/><circle class="cls-9" cx="399.9" cy="220.54" r="0.65"/><circle class="cls-9" cx="399.9" cy="242.35" r="0.65"/><circle class="cls-9" cx="403.52" cy="248.01" r="0.65"/><circle class="cls-9" cx="399.9" cy="253.73" r="0.65"/><circle class="cls-8" cx="400.97" cy="113.52" r="10.43"/></svg>