<svg id="Layer_1" data-name="Layer 1" xmlns="http://www.w3.org/2000/svg" viewBox="0 0 215.33 132.29"><defs><style>.cls-1{fill:none;stroke:#888;stroke-miterlimit:10;stroke-width:0.5px;}.cls-2,.cls-3,.cls-9{fill:#888;}.cls-3{font-size:11px;font-family:MyriadPro-Bold, Myriad Pro;}.cls-4,.cls-9{font-weight:700;}.cls-5,.cls-6,.cls-7,.cls-8{font-family:MyriadPro-Regular, Myriad Pro;}.cls-5{letter-spacing:0em;}.cls-6{letter-spacing:0.01em;}.cls-8{letter-spacing:-0.01em;}.cls-9{font-size:8px;font-family:MyriadPro-Semibold, Myriad Pro;}.cls-10{fill:#007e4d;}</style></defs><title>gitter-scheme-c</title><line class="cls-1" x1="53.49" y1="36.19" x2="53.49" y2="62.25"/><line class="cls-1" x1="63.02" y1="70.35" x2="63.02" y2="115.5"/><line class="cls-1" x1="120.12" y1="71.07" x2="120.12" y2="116.22"/><line class="cls-1" x1="129.12" y1="36.19" x2="129.12" y2="62.25"/><line class="cls-1" x1="195.45" y1="32.02" x2="195.45" y2="62.71"/><polygon class="cls-2" points="194.72 62.22 195.45 64.93 196.18 62.22 194.72 62.22"/><line class="cls-1" x1="195.45" y1="73.29" x2="195.45" y2="84.52"/><polygon class="cls-2" points="194.72 73.78 195.45 71.08 196.18 73.78 194.72 73.78"/><polyline class="cls-1" points="167.87 39.19 140.63 39.19 131.71 56.29"/><polygon class="cls-2" points="131.29 55.51 130.68 58.25 132.58 56.18 131.29 55.51"/><polyline class="cls-1" points="61.9 73.01 37.37 113.86 20.95 113.86"/><polygon class="cls-2" points="61.02 73.06 63.04 71.11 62.26 73.81 61.02 73.06"/><line class="cls-1" x1="55.71" y1="39.19" x2="126.9" y2="39.19"/><polygon class="cls-2" points="56.2 39.91 53.49 39.19 56.2 38.46 56.2 39.91"/><polygon class="cls-2" points="126.41 39.91 129.12 39.19 126.41 38.46 126.41 39.91"/><line class="cls-1" x1="65.25" y1="113.85" x2="117.9" y2="113.85"/><polygon class="cls-2" points="65.75 114.58 63.04 113.86 65.75 113.13 65.75 114.58"/><polygon class="cls-2" points="117.41 114.58 120.12 113.86 117.41 113.13 117.41 114.58"/><line class="cls-1" x1="24.95" y1="63.47" x2="24.95" y2="83.29"/><polygon class="cls-2" points="24.22 63.96 24.95 61.25 25.68 63.96 24.22 63.96"/><polygon class="cls-2" points="24.22 82.79 24.95 85.5 25.68 82.79 24.22 82.79"/><line class="cls-1" x1="50.55" y1="61.25" x2="20.95" y2="61.25"/><line class="cls-1" x1="88.33" y1="85.5" x2="20.95" y2="85.5"/><path class="cls-1" d="M63,87.19a28.54,28.54,0,1,1,57.08,0"/><text class="cls-3" transform="translate(20.95 24.53)"><tspan class="cls-4">В</tspan><tspan class="cls-5" x="6.64" y="0" xml:space="preserve"> (ув</tspan><tspan class="cls-6" x="22.78" y="0">е</tspan><tspan class="cls-7" x="28.35" y="0">л</tspan><tspan class="cls-8" x="33.92" y="0">и</tspan><tspan class="cls-7" x="39.9" y="0">чено)</tspan></text><text class="cls-9" transform="translate(23 78.7) rotate(-90)">26</text><text class="cls-9" transform="translate(86.75 112.13)">60</text><text class="cls-9" transform="translate(87.38 37.19)">82</text><text class="cls-9" transform="translate(26.12 112.13)">R°</text><text class="cls-9" transform="translate(86.62 56.56)">90°</text><text class="cls-9" transform="translate(146.12 37.31)">Ø4.8</text><text class="cls-9" transform="translate(193.31 50.22) rotate(-90)">Ø4.8</text><path class="cls-10" d="M91.12,95.44A10.25,10.25,0,0,1,84,92.26L63.62,71.93a3,3,0,0,1-.3-.35,6.88,6.88,0,0,0-3.43-.4H44.62s-3-.11-3-3a2.92,2.92,0,0,1,3-3H59.67c5.34-.25,7.55,1.56,8.4,2.71L88.24,88.07l.12.13h0a4.33,4.33,0,0,0,2.76,1.25,4.08,4.08,0,0,0,2.59-1.08l20.76-20.77c.84-1,3-2.66,8.1-2.66h77.29s3,0,3,2.9a2.87,2.87,0,0,1-3,3.1H122.62a7.26,7.26,0,0,0-3.6.59l-.16.17L98,92.56A10,10,0,0,1,91.12,95.44Zm28.18-24.3h0Zm0,0h0Zm0,0h0ZM63,71.11h0Zm0,0h0Zm0,0h0Zm0,0h0Zm0,0h0Z"/><circle class="cls-10" cx="53.49" cy="61.25" r="3.93"/><circle class="cls-10" cx="129.12" cy="61.25" r="3.93"/><circle class="cls-10" cx="91.3" cy="85.5" r="3.93"/></svg>