<svg id="Layer_1" data-name="Layer 1" xmlns="http://www.w3.org/2000/svg" xmlns:xlink="http://www.w3.org/1999/xlink" viewBox="0 0 149 189.33"><defs><style>.cls-1,.cls-12,.cls-13,.cls-8{fill:none;}.cls-2{font-size:11px;font-family:MyriadPro-Bold, Myriad Pro;}.cls-10,.cls-2,.cls-9{fill:#888;}.cls-10,.cls-3{font-weight:700;}.cls-4,.cls-5,.cls-6,.cls-7{font-family:MyriadPro-Regular, Myriad Pro;}.cls-5{letter-spacing:0.01em;}.cls-6{letter-spacing:0em;}.cls-7{letter-spacing:-0.01em;}.cls-8{stroke:#888;stroke-width:0.5px;}.cls-12,.cls-13,.cls-8{stroke-miterlimit:10;}.cls-10{font-size:8px;font-family:MyriadPro-Semibold, Myriad Pro;}.cls-11{clip-path:url(#clip-path);}.cls-12{stroke:#007e4d;stroke-width:4px;}.cls-13{stroke:#ccc;stroke-width:2px;}</style><clipPath id="clip-path"><circle class="cls-1" cx="80.02" cy="108.68" r="53.59"/></clipPath></defs><title>gitter-scheme-b</title><text class="cls-2" transform="translate(16.99 24.53)"><tspan class="cls-3">Б</tspan><tspan class="cls-4" x="6.63" y="0" xml:space="preserve"> (ув</tspan><tspan class="cls-5" x="22.77" y="0">е</tspan><tspan class="cls-6" x="28.34" y="0">л</tspan><tspan class="cls-7" x="33.91" y="0">и</tspan><tspan class="cls-4" x="39.89" y="0">чено)</tspan></text><line class="cls-8" x1="63.66" y1="37.02" x2="63.66" y2="57.64"/><line class="cls-8" x1="59.16" y1="149.2" x2="59.16" y2="175.35"/><line class="cls-8" x1="44.66" y1="154.75" x2="44.66" y2="175.35"/><polygon class="cls-9" points="43.93 155.25 44.66 152.54 45.39 155.25 43.93 155.25"/><line class="cls-8" x1="44.66" y1="147.87" x2="44.66" y2="152.54"/><line class="cls-8" x1="44.66" y1="139.35" x2="44.66" y2="145.66"/><polygon class="cls-9" points="43.93 145.16 44.66 147.87 45.39 145.16 43.93 145.16"/><line class="cls-8" x1="44.66" y1="70.75" x2="44.66" y2="122.32"/><polygon class="cls-9" points="43.93 71.25 44.66 68.54 45.39 71.25 43.93 71.25"/><polygon class="cls-9" points="43.93 121.83 44.66 124.54 45.39 121.83 43.93 121.83"/><line class="cls-8" x1="25.66" y1="78.68" x2="25.66" y2="150.32"/><polygon class="cls-9" points="24.93 149.83 25.66 152.54 26.39 149.83 24.93 149.83"/><line class="cls-8" x1="59.16" y1="68.54" x2="41.66" y2="68.54"/><line class="cls-8" x1="59.16" y1="124.54" x2="41.66" y2="124.54"/><line class="cls-8" x1="59.16" y1="147.87" x2="41.66" y2="147.87"/><line class="cls-8" x1="61.33" y1="152.54" x2="22.33" y2="152.54"/><line class="cls-8" x1="76.11" y1="41.68" x2="65.88" y2="41.68"/><polygon class="cls-9" points="75.62 40.96 78.33 41.68 75.62 42.41 75.62 40.96"/><polygon class="cls-9" points="66.37 40.96 63.66 41.68 66.37 42.41 66.37 40.96"/><line class="cls-8" x1="108.99" y1="41.68" x2="78.33" y2="41.68"/><line class="cls-8" x1="78.33" y1="37.02" x2="78.33" y2="54.52"/><text class="cls-10" transform="translate(83.54 39.02)">50±2</text><text class="cls-10" transform="translate(75.9 169.52)">2500±10</text><text class="cls-10" transform="translate(41.83 111.54) rotate(-90)">200±10</text><text class="cls-10" transform="translate(41.83 174.26) rotate(-90)">5±2</text><text class="cls-10" transform="translate(23.33 115.61) rotate(-90)">2030±10</text><line class="cls-8" x1="122.33" y1="171.77" x2="61.38" y2="171.77"/><polygon class="cls-9" points="61.87 171.04 59.16 171.77 61.87 172.49 61.87 171.04"/><g class="cls-11"><line class="cls-12" x1="142.33" y1="68.54" x2="59.16" y2="68.54"/><line class="cls-12" x1="63.66" y1="54.54" x2="63.66" y2="152.54"/><line class="cls-12" x1="78.33" y1="54.54" x2="78.33" y2="152.54"/><line class="cls-12" x1="92.99" y1="54.54" x2="92.99" y2="152.54"/><line class="cls-12" x1="107.66" y1="54.54" x2="107.66" y2="152.54"/><line class="cls-12" x1="122.33" y1="54.54" x2="122.33" y2="152.54"/><line class="cls-12" x1="136.99" y1="54.54" x2="136.99" y2="152.54"/><line class="cls-12" x1="142.33" y1="124.54" x2="59.16" y2="124.54"/><line class="cls-12" x1="142.33" y1="136.2" x2="59.16" y2="136.2"/><line class="cls-12" x1="142.33" y1="147.87" x2="59.16" y2="147.87"/></g><circle class="cls-13" cx="80.33" cy="108.68" r="53.59"/></svg>