<svg id="Layer_1" data-name="Layer 1" xmlns="http://www.w3.org/2000/svg" viewBox="0 0 557.5 358.5"><defs><style>.cls-1{opacity:0.07;}.cls-2,.cls-4{fill:none;}.cls-2{stroke:#888;stroke-miterlimit:10;stroke-width:0.5px;}.cls-3{font-size:8px;font-family:MyriadPro-Semibold, Myriad Pro;font-weight:700;}.cls-3,.cls-5{fill:#888;}.cls-4{stroke:#007e4d;stroke-linecap:round;stroke-linejoin:round;}.cls-6{fill:#007e4d;}</style></defs><title>gitter-sizes</title><path class="cls-1" d="M366.39,149.07c1.55.45,1.92.81,1.72,2.35a15.22,15.22,0,0,1-1.1,3.7,2.09,2.09,0,0,1-1.28,1.09c-2,.45-2.25,2.13-2.39,3.65a17,17,0,0,0,.1,5.75,6,6,0,0,0,2.74,3.11,78.06,78.06,0,0,0,7.16,3.46c1.65.76,3.29,1.56,5,2.2a7.84,7.84,0,0,1,4.38,4.45,74.43,74.43,0,0,0,3.44,6.8c2,3.36,4.14,6.67,6.39,9.88a63.12,63.12,0,0,1,5.69,9.28,6.28,6.28,0,0,1,.35,4.63,42.52,42.52,0,0,1-4.27,10c-1.81,3.11-3.69,6.18-5.52,9.28-.38.64-.76.74-1.39.33-.85-.55-1.74-1-2.64-1.54-.73.88-1.43,1.76-2.17,2.6a3.72,3.72,0,0,1-4.22,1.2,26.32,26.32,0,0,0-3.38-.57c.26.78.42,1.25.57,1.73.76,2.46,1.53,4.93,2.23,7.41a1.12,1.12,0,0,1-.39,1c-1.1.35-1.07,1.08-1,2a122.5,122.5,0,0,1-.28,21.58c-.44,4.45-1,8.88-1.41,13.33A89,89,0,0,0,375,297a122.54,122.54,0,0,1,.78,20.27,13,13,0,0,1-.7,3.51,4.48,4.48,0,0,0,.22,3.58c.2.39.37.79.55,1.19,1,2.08.81,3-.72,4.46a33.62,33.62,0,0,0,2.41,4.63c1.11,1.53,1.39,3.58,3.22,4.7,1.2.74,1.35,2.22,1.11,3.55a1.7,1.7,0,0,1-1,1.07,15.12,15.12,0,0,1-3.21.54,33.68,33.68,0,0,1-5,.08,8.18,8.18,0,0,1-7.5-7.95,11.13,11.13,0,0,1,0-1.31c0-.66-.08-1-.87-1.18-1.2-.23-2.34-2.23-2-3.6.48-2.27,0-4.43-.3-6.68a61,61,0,0,1-.5-10c.14-5.27.59-10.53.85-15.8a15.18,15.18,0,0,0-.39-2.42,3.15,3.15,0,0,1,0-1.48,4.93,4.93,0,0,0,0-3.78,26.8,26.8,0,0,1-.78-4.39c-1.16-6.55-2.4-13.09-3.47-19.66-.59-3.61-.92-7.27-1.51-11-.08.4-.19.79-.25,1.19-1.36,9-4.27,17.66-6.55,26.45-.59,2.28-.91,4.63-1.43,6.93-.23,1-.66,2-1,3a2.08,2.08,0,0,0-.17,1c1.13,4.44.53,8.9.18,13.35-.56,7.25-1.1,14.5-1.68,21.75a9.55,9.55,0,0,1-.56,2.88,4,4,0,0,1-1.54,1.7,1.44,1.44,0,0,0-.8,1.46,16.75,16.75,0,0,1-.15,2.39,4,4,0,0,1-1.33,2.64,5.58,5.58,0,0,0-1.39,2.29,2.41,2.41,0,0,1-1.94,1.68,23.54,23.54,0,0,1-8.14.24c-.79-.08-1.58-.25-2.37-.38a1.11,1.11,0,0,1-1-1.37c.28-1.91.6-3.78,2.06-5.27a10,10,0,0,0,2.58-5.44c.13-.74.3-1.46.46-2.21-1.11-.62-1.44-1.45-.68-2.55a4.42,4.42,0,0,0,.67-3.4c-.42-3,.14-5.87.39-8.8.36-4.13.57-8.27.82-12.41a149.55,149.55,0,0,1,2.22-18.4,61.73,61.73,0,0,0,.5-14c-.26-5.88-.23-11.78-.13-17.67.06-3.66.47-7.32.77-11a1,1,0,0,0-.7-1.15c-1.56-.78-1.61-.82-1-2.46.72-2,1.55-4,2.33-6,.2-.5.37-1,.58-1.57-2.5-.9-5.55.1-7.43-2.55l-3.79,2.62c-.38-.73-.73-1.31-1-1.92a114.35,114.35,0,0,0-7.19-13.54,32.52,32.52,0,0,1-2-4.59c-.29-.71-.44-1.47-.77-2.15a5.93,5.93,0,0,1,.81-6.64c1.81-2.37,3.86-4.58,5.49-7.06,2.35-3.58,4.43-7.33,6.6-11,1.09-1.84,2.13-3.71,3.2-5.56a7.13,7.13,0,0,0,.74-1.2,5.38,5.38,0,0,1,3.37-3.34c3.13-1.27,6.29-2.47,9.44-3.71a22,22,0,0,0,2.81-1.19c1.6-.9,2.81-2.11,2.77-4.17,0-2.52,0-5.05,0-7.51a5.21,5.21,0,0,1-4.4-5.31c0-1,.31-1.73,1.51-1.77a31.7,31.7,0,0,1,0-4.82c.56-3.55,2.13-6.61,5.41-8.4,4-2.2,9.06-.64,12.06,3.53a10.86,10.86,0,0,1,1.91,5.93C366.44,146.92,366.39,148,366.39,149.07Zm-29.1,47c-3.58,3.74-7.06,7.4-10.56,11a1.36,1.36,0,0,0-.18,2,4.63,4.63,0,0,1,1,3.46,2.25,2.25,0,0,0,.53,1.34c1.94,2.67,3.93,5.3,5.88,8,.16.22.17.55.33.79s.41.63.64.64a4.08,4.08,0,0,0,1.69-.23c1.1-.45,2.14-1,3.1-1.49a19.43,19.43,0,0,1-1-3.38c-.31-2.51-.3-5.07-.63-7.58a93.59,93.59,0,0,1-.71-13.48C337.37,196.81,337.32,196.46,337.29,196.08Zm39.43,1.47c0,.18,0,.36,0,.53a79.14,79.14,0,0,1-2,16.09,20.14,20.14,0,0,0-.51,7.46,1.37,1.37,0,0,0,.27.74,25.85,25.85,0,0,0,2.65,2.25,2,2,0,0,0,1.48.16c.32-.09.58-.59.76-1a11.37,11.37,0,0,1,.63-1.73c2.82-4,5.63-8.09,6.68-13A33.77,33.77,0,0,1,376.72,197.55Z"/><path class="cls-1" d="M465.82,313.38a16.11,16.11,0,0,0,0,2.16,19.37,19.37,0,0,0,2.14,6.94,5.12,5.12,0,0,1-.29,5.64c-1.27,2-2.27,4.18-3.42,6.27a15.78,15.78,0,0,1-1.22,1.88,2.89,2.89,0,0,1-2.5,1.21c-1.09,0-2.18-.11-3.27-.23a1.19,1.19,0,0,1-1.14-.91,1.34,1.34,0,0,1,.59-1.36,8.61,8.61,0,0,1,2-1.3,5.63,5.63,0,0,0,3.23-3.61,11.18,11.18,0,0,0-.33-8.65c-1.11-2.56-2.48-5-3.79-7.49a17.82,17.82,0,0,1-3.14-11c0-.47-.12-.64-.58-.69A16.94,16.94,0,0,0,442,305.05a32.94,32.94,0,0,1-11.35,5.32c-.82.2-1.65.33-2.47.54a.75.75,0,0,0-.49.42,20.8,20.8,0,0,0-.36,2.55c-.16,2.51-.31,5-.4,7.54-.06,1.79,0,3.58,0,5.37,0,2.54-.06,5.08-.16,7.62a2.17,2.17,0,0,1-1.56,2.18,2.4,2.4,0,0,0-1.54,2.24c-.1.82-.18,1.64-.35,2.45a2.81,2.81,0,0,1-1.86,2.11,7.77,7.77,0,0,1-3.83.56c-1.54-.18-2.23-1.42-1.41-2.73a12,12,0,0,1,1.72-1.84,5.41,5.41,0,0,1,.7-.6,4.18,4.18,0,0,0,1.67-3.28c.14-1.78.17-3.57.27-5.36a48.93,48.93,0,0,0-.61-9.82.7.7,0,0,0-.19-.38c-.07.7-.16,1.4-.22,2.11s-.14,1.46-.16,2.19c0,1.44,0,2.89,0,4.33,0,1,.23,2.06.26,3.09a14.79,14.79,0,0,1-.18,2.33.57.57,0,0,1-.46.33.77.77,0,0,0-.9.62,16.43,16.43,0,0,0-.67,2.61,3.58,3.58,0,0,1-3.35,3.43,10.5,10.5,0,0,1-4.12,0c-.53-.13-.6-.4-.51-.87a4.08,4.08,0,0,1,1.66-2.48l1-.71a5.51,5.51,0,0,0,2.3-4.14,39.13,39.13,0,0,0-.33-9.83c-.3-2.17-.66-4.33-.9-6.5-.14-1.3-.09-2.61-.15-3.92s-.13-2.88-.22-4.31a3.41,3.41,0,0,0-1.07-2.12,7.68,7.68,0,0,1-1.62-2.7,23.25,23.25,0,0,1-1.69-7.54c0-.4-.18-.88.29-1.19,0,0,0-.22-.09-.3-2-3-2.73-6.44-4-9.72a23.28,23.28,0,0,0-1.68-3.71,4.1,4.1,0,0,0-4.64-2c-1.7.28-3.42.42-5.13.63a10.1,10.1,0,0,1-3.49-.09,3.89,3.89,0,0,1-2.9-2.22,4.68,4.68,0,0,0-1.52-1.92,1.3,1.3,0,0,1,.06-2.27,27.76,27.76,0,0,1,3.39-1.79c.86-.41,1.8-.66,2.66-1.06a2.55,2.55,0,0,0,1.51-2.17,3.13,3.13,0,0,1,1.48-2.23,14.52,14.52,0,0,1,6.54-2.53,11.6,11.6,0,0,1,5.69.29,15.26,15.26,0,0,1,8,6.83c.32.53.6,1.07.88,1.62a15.24,15.24,0,0,0,2.64,3.55,34.68,34.68,0,0,1,2.33,3,1.51,1.51,0,0,0,.48.4,7.58,7.58,0,0,0,3.54.66,17.6,17.6,0,0,1,6.64,1.52,15.86,15.86,0,0,0,7.7.81,41,41,0,0,1,4.73.06c2.42.06,4.85.13,7.27.22a59.4,59.4,0,0,1,13.76,2,14.34,14.34,0,0,0,1.77.2,74.9,74.9,0,0,0,13.39,1.14c2.76-.1,5.55-.05,8.22-.93a41,41,0,0,0,7-3.26,37,37,0,0,1,3.85-1.64.94.94,0,0,1,.29,0,13.27,13.27,0,0,1-7.07,6.94,41.07,41.07,0,0,1-9.46,3.16,28,28,0,0,1-6.84.32c-.77-.05-1.54,0-2.35,0,1.09,2.73,1.25,5.65,1.78,8.48a37.29,37.29,0,0,1,.35,5.23,22.29,22.29,0,0,0,.68,5.82,4.9,4.9,0,0,0,.42,1.07,41.43,41.43,0,0,1,2.9,6.57,15.82,15.82,0,0,0,3.71,5.38,4.18,4.18,0,0,1,1.26,4,25.68,25.68,0,0,0,.14,9.74,3.69,3.69,0,0,1-.94,3.56,1.46,1.46,0,0,0-.29,1,1.53,1.53,0,0,1-1.06,1.49,6,6,0,0,1-3,.32c-.88-.08-1.74-.29-2.61-.43-.36-.06-.48-.25-.52-.62a2.48,2.48,0,0,1,1-2.43,5.11,5.11,0,0,0,2-4.09c.09-1.36.18-2.72.22-4.09a6.91,6.91,0,0,0-2-5c-3.77-4.14-7.49-8.32-11.24-12.49-.08-.08-.14-.18-.2-.28Z"/><line class="cls-2" x1="215.43" y1="205.99" x2="198.47" y2="205.99"/><line class="cls-2" x1="215.42" y1="194.66" x2="198.45" y2="194.66"/><line class="cls-2" x1="215.45" y1="116.66" x2="182.36" y2="116.66"/><line class="cls-2" x1="215.45" y1="128.03" x2="198.48" y2="128.03"/><line class="cls-2" x1="215.45" y1="250.39" x2="198.48" y2="250.39"/><line class="cls-2" x1="215.45" y1="261.76" x2="198.48" y2="261.76"/><line class="cls-2" x1="215.45" y1="328.8" x2="198.48" y2="328.8"/><line class="cls-2" x1="215.45" y1="340.18" x2="182.36" y2="340.18"/><text class="cls-3" transform="translate(198.48 306.24) rotate(-90)">3×200</text><text class="cls-3" transform="translate(198.48 172.3) rotate(-90)">3×200</text><text class="cls-3" transform="translate(182.36 236.99) rotate(-90)">2030</text><text class="cls-3" transform="translate(198.48 239.15) rotate(-90)">2×200</text><polyline class="cls-4" points="215.45 112.99 215.45 117.66 219.45 122.33 215.45 126.99 215.45 195.66 219.45 200.62 215.45 204.99 215.45 251.41 219.45 256.07 215.45 260.74 215.45 329.82 219.45 334.49 215.45 339.16 215.45 340.99"/><line class="cls-2" x1="201.15" y1="192.44" x2="201.15" y2="130.25"/><polygon class="cls-5" points="201.87 191.95 201.15 194.66 200.42 191.95 201.87 191.95"/><polygon class="cls-5" points="201.87 130.74 201.15 128.03 200.42 130.74 201.87 130.74"/><line class="cls-2" x1="185.7" y1="337.96" x2="185.7" y2="118.87"/><polygon class="cls-5" points="186.42 337.47 185.7 340.18 184.97 337.47 186.42 337.47"/><polygon class="cls-5" points="186.42 119.37 185.7 116.66 184.97 119.37 186.42 119.37"/><line class="cls-2" x1="201.15" y1="248.17" x2="201.15" y2="208.21"/><polygon class="cls-5" points="201.87 247.68 201.15 250.39 200.42 247.68 201.87 247.68"/><polygon class="cls-5" points="201.87 208.7 201.15 205.99 200.42 208.7 201.87 208.7"/><line class="cls-2" x1="201.15" y1="326.59" x2="201.15" y2="263.98"/><polygon class="cls-5" points="201.87 326.1 201.15 328.81 200.42 326.1 201.87 326.1"/><polygon class="cls-5" points="201.87 264.47 201.15 261.76 200.42 264.47 201.87 264.47"/><circle class="cls-6" cx="214.35" cy="116.66" r="0.65"/><circle class="cls-6" cx="217.97" cy="122.31" r="0.65"/><circle class="cls-6" cx="214.35" cy="128.03" r="0.65"/><circle class="cls-6" cx="214.38" cy="250.36" r="0.65"/><circle class="cls-6" cx="214.38" cy="228.2" r="0.65"/><circle class="cls-6" cx="214.38" cy="205.99" r="0.65"/><circle class="cls-6" cx="214.38" cy="194.66" r="0.65"/><circle class="cls-6" cx="214.38" cy="173.33" r="0.65"/><circle class="cls-6" cx="214.36" cy="149.49" r="0.65"/><circle class="cls-6" cx="218.1" cy="200.62" r="0.65"/><circle class="cls-6" cx="218" cy="256.01" r="0.65"/><circle class="cls-6" cx="214.38" cy="261.73" r="0.65"/><circle class="cls-6" cx="214.38" cy="283.87" r="0.65"/><circle class="cls-6" cx="214.38" cy="306.99" r="0.65"/><circle class="cls-6" cx="214.38" cy="328.8" r="0.65"/><circle class="cls-6" cx="218" cy="334.46" r="0.65"/><circle class="cls-6" cx="214.38" cy="340.18" r="0.65"/><line class="cls-2" x1="107.89" y1="166.99" x2="90.92" y2="166.99"/><line class="cls-2" x1="107.88" y1="155.66" x2="90.91" y2="155.66"/><line class="cls-2" x1="107.9" y1="67.66" x2="74.82" y2="67.66"/><line class="cls-2" x1="107.9" y1="79.03" x2="90.94" y2="79.03"/><line class="cls-2" x1="107.9" y1="250.39" x2="90.94" y2="250.39"/><line class="cls-2" x1="107.9" y1="261.76" x2="90.94" y2="261.76"/><line class="cls-2" x1="107.9" y1="328.8" x2="90.94" y2="328.8"/><line class="cls-2" x1="107.9" y1="340.18" x2="74.82" y2="340.18"/><text class="cls-3" transform="translate(90.94 306.24) rotate(-90)">3×200</text><text class="cls-3" transform="translate(91.36 128.3) rotate(-90)">3×200</text><text class="cls-3" transform="translate(74.82 212.59) rotate(-90)">2430</text><text class="cls-3" transform="translate(91.36 219.65) rotate(-90)">4×200</text><polyline class="cls-4" points="107.9 63.99 107.9 68.66 111.9 73.33 107.9 77.99 107.9 156.66 111.9 161.62 107.9 165.99 107.9 251.41 111.9 256.07 107.9 260.74 107.9 329.82 111.9 334.49 107.9 339.16 107.9 340.99"/><line class="cls-2" x1="93.6" y1="153.44" x2="93.6" y2="81.25"/><polygon class="cls-5" points="94.33 152.95 93.6 155.66 92.88 152.95 94.33 152.95"/><polygon class="cls-5" points="94.33 81.74 93.6 79.03 92.88 81.74 94.33 81.74"/><line class="cls-2" x1="78.15" y1="338.16" x2="78.15" y2="69.87"/><polygon class="cls-5" points="78.88 337.67 78.15 340.38 77.43 337.67 78.88 337.67"/><polygon class="cls-5" points="78.88 70.37 78.15 67.66 77.43 70.37 78.88 70.37"/><line class="cls-2" x1="93.6" y1="248.17" x2="93.6" y2="169.21"/><polygon class="cls-5" points="94.33 247.68 93.6 250.39 92.88 247.68 94.33 247.68"/><polygon class="cls-5" points="94.33 169.7 93.6 166.99 92.88 169.7 94.33 169.7"/><line class="cls-2" x1="93.6" y1="326.59" x2="93.6" y2="263.98"/><polygon class="cls-5" points="94.33 326.1 93.6 328.81 92.88 326.1 94.33 326.1"/><polygon class="cls-5" points="94.33 264.47 93.6 261.76 92.88 264.47 94.33 264.47"/><circle class="cls-6" cx="106.8" cy="67.66" r="0.65"/><circle class="cls-6" cx="110.43" cy="73.31" r="0.65"/><circle class="cls-6" cx="106.8" cy="79.03" r="0.65"/><circle class="cls-6" cx="106.83" cy="250.36" r="0.65"/><circle class="cls-6" cx="106.83" cy="222.57" r="0.65"/><circle class="cls-6" cx="106.83" cy="166.99" r="0.65"/><circle class="cls-6" cx="106.83" cy="194.78" r="0.65"/><circle class="cls-6" cx="106.83" cy="155.66" r="0.65"/><circle class="cls-6" cx="106.83" cy="130.12" r="0.65"/><circle class="cls-6" cx="106.82" cy="104.58" r="0.65"/><circle class="cls-6" cx="110.55" cy="161.62" r="0.65"/><circle class="cls-6" cx="110.46" cy="256.01" r="0.65"/><circle class="cls-6" cx="106.83" cy="261.73" r="0.65"/><circle class="cls-6" cx="106.83" cy="283.87" r="0.65"/><circle class="cls-6" cx="106.83" cy="306.99" r="0.65"/><circle class="cls-6" cx="106.83" cy="328.8" r="0.65"/><circle class="cls-6" cx="110.46" cy="334.46" r="0.65"/><circle class="cls-6" cx="106.83" cy="340.18" r="0.65"/><line class="cls-2" x1="53.12" y1="126.99" x2="36.15" y2="126.99"/><line class="cls-2" x1="53.1" y1="115.66" x2="36.14" y2="115.66"/><line class="cls-2" x1="53.13" y1="17.66" x2="20.05" y2="17.66"/><line class="cls-2" x1="53.13" y1="29.03" x2="36.16" y2="29.03"/><line class="cls-2" x1="53.13" y1="230.39" x2="36.16" y2="230.39"/><line class="cls-2" x1="53.13" y1="241.76" x2="36.16" y2="241.76"/><line class="cls-2" x1="53.13" y1="328.8" x2="36.16" y2="328.8"/><line class="cls-2" x1="53.13" y1="340.18" x2="20.05" y2="340.18"/><text class="cls-3" transform="translate(36.16 296.24) rotate(-90)">4×200</text><text class="cls-3" transform="translate(36.59 83.3) rotate(-90)">4×200</text><text class="cls-3" transform="translate(21.05 187.59) rotate(-90)">2930</text><text class="cls-3" transform="translate(36.59 189.65) rotate(-90)">5×200</text><polyline class="cls-4" points="53.13 13.99 53.13 18.66 57.13 23.32 53.13 27.99 53.13 116.66 57.13 121.62 53.13 125.99 53.13 231.41 57.13 236.07 53.13 240.74 53.13 329.82 57.13 334.49 53.13 339.16 53.13 340.99"/><line class="cls-2" x1="38.83" y1="113.44" x2="38.83" y2="31.25"/><polygon class="cls-5" points="39.56 112.95 38.83 115.66 38.1 112.95 39.56 112.95"/><polygon class="cls-5" points="39.56 31.74 38.83 29.03 38.1 31.74 39.56 31.74"/><line class="cls-2" x1="23.38" y1="338.16" x2="23.38" y2="19.87"/><polygon class="cls-5" points="24.11 337.67 23.38 340.38 22.65 337.67 24.11 337.67"/><polygon class="cls-5" points="24.11 20.37 23.38 17.66 22.65 20.37 24.11 20.37"/><line class="cls-2" x1="38.83" y1="228.17" x2="38.83" y2="129.21"/><polygon class="cls-5" points="39.56 227.68 38.83 230.39 38.1 227.68 39.56 227.68"/><polygon class="cls-5" points="39.56 129.7 38.83 126.99 38.1 129.7 39.56 129.7"/><line class="cls-2" x1="38.83" y1="326.59" x2="38.83" y2="243.98"/><polygon class="cls-5" points="39.56 326.1 38.83 328.81 38.1 326.1 39.56 326.1"/><polygon class="cls-5" points="39.56 244.47 38.83 241.76 38.1 244.47 39.56 244.47"/><circle class="cls-6" cx="52.03" cy="17.66" r="0.65"/><circle class="cls-6" cx="55.65" cy="23.31" r="0.65"/><circle class="cls-6" cx="52.03" cy="29.03" r="0.65"/><circle class="cls-6" cx="52.06" cy="230.36" r="0.65"/><circle class="cls-6" cx="52.06" cy="189.01" r="0.65"/><circle class="cls-6" cx="52.06" cy="168.34" r="0.65"/><circle class="cls-6" cx="52.06" cy="209.68" r="0.65"/><circle class="cls-6" cx="52.06" cy="126.99" r="0.65"/><circle class="cls-6" cx="52.06" cy="147.66" r="0.65"/><circle class="cls-6" cx="52.06" cy="115.66" r="0.65"/><circle class="cls-6" cx="52.06" cy="94" r="0.65"/><circle class="cls-6" cx="52.06" cy="72.35" r="0.65"/><circle class="cls-6" cx="52.05" cy="50.69" r="0.65"/><circle class="cls-6" cx="55.78" cy="121.62" r="0.65"/><circle class="cls-6" cx="55.69" cy="236.01" r="0.65"/><circle class="cls-6" cx="52.06" cy="241.73" r="0.65"/><circle class="cls-6" cx="52.06" cy="285.27" r="0.65"/><circle class="cls-6" cx="52.06" cy="263.5" r="0.65"/><circle class="cls-6" cx="52.06" cy="307.04" r="0.65"/><circle class="cls-6" cx="52.06" cy="328.8" r="0.65"/><circle class="cls-6" cx="55.69" cy="334.46" r="0.65"/><circle class="cls-6" cx="52.06" cy="340.18" r="0.65"/><line class="cls-2" x1="160.66" y1="203.78" x2="143.69" y2="203.78"/><line class="cls-2" x1="160.65" y1="192.45" x2="143.68" y2="192.45"/><line class="cls-2" x1="160.67" y1="94.45" x2="127.59" y2="94.45"/><line class="cls-2" x1="160.67" y1="105.82" x2="143.71" y2="105.82"/><line class="cls-2" x1="160.67" y1="286.18" x2="143.71" y2="286.18"/><line class="cls-2" x1="160.67" y1="297.55" x2="143.71" y2="297.55"/><line class="cls-2" x1="160.67" y1="340.18" x2="128.59" y2="340.18"/><text class="cls-3" transform="translate(143.71 329.86) rotate(-90)">2×200</text><text class="cls-3" transform="translate(144.13 160.09) rotate(-90)">4×200</text><text class="cls-3" transform="translate(128.59 225.92) rotate(-90)">2430</text><text class="cls-3" transform="translate(144.13 266.44) rotate(-90)">4×200</text><polyline class="cls-4" points="160.67 90.78 160.67 95.45 164.67 100.11 160.67 104.78 160.67 193.45 164.67 198.41 160.67 202.78 160.67 287.2 164.67 291.86 160.67 296.53 160.67 340.99"/><line class="cls-2" x1="146.37" y1="190.23" x2="146.37" y2="108.04"/><polygon class="cls-5" points="147.1 189.74 146.37 192.45 145.65 189.74 147.1 189.74"/><polygon class="cls-5" points="147.1 108.53 146.37 105.82 145.65 108.53 147.1 108.53"/><line class="cls-2" x1="130.92" y1="338.03" x2="130.92" y2="96.66"/><polygon class="cls-5" points="131.65 337.53 130.92 340.24 130.2 337.53 131.65 337.53"/><polygon class="cls-5" points="131.65 97.16 130.92 94.45 130.2 97.16 131.65 97.16"/><line class="cls-2" x1="146.37" y1="283.96" x2="146.37" y2="206"/><polygon class="cls-5" points="147.1 283.47 146.37 286.18 145.65 283.47 147.1 283.47"/><polygon class="cls-5" points="147.1 206.49 146.37 203.78 145.65 206.49 147.1 206.49"/><line class="cls-2" x1="146.37" y1="338.03" x2="146.37" y2="299.77"/><polygon class="cls-5" points="147.1 337.53 146.37 340.24 145.65 337.53 147.1 337.53"/><polygon class="cls-5" points="147.1 300.26 146.37 297.55 145.65 300.26 147.1 300.26"/><circle class="cls-6" cx="159.57" cy="94.45" r="0.65"/><circle class="cls-6" cx="163.2" cy="100.1" r="0.65"/><circle class="cls-6" cx="159.57" cy="105.82" r="0.65"/><circle class="cls-6" cx="159.6" cy="286.15" r="0.65"/><circle class="cls-6" cx="159.6" cy="265.8" r="0.65"/><circle class="cls-6" cx="159.6" cy="245.13" r="0.65"/><circle class="cls-6" cx="159.6" cy="286.47" r="0.65"/><circle class="cls-6" cx="159.6" cy="203.78" r="0.65"/><circle class="cls-6" cx="159.6" cy="224.45" r="0.65"/><circle class="cls-6" cx="159.6" cy="192.45" r="0.65"/><circle class="cls-6" cx="159.6" cy="170.79" r="0.65"/><circle class="cls-6" cx="159.6" cy="149.14" r="0.65"/><circle class="cls-6" cx="159.59" cy="127.48" r="0.65"/><circle class="cls-6" cx="163.32" cy="198.41" r="0.65"/><circle class="cls-6" cx="163.23" cy="291.8" r="0.65"/><circle class="cls-6" cx="159.6" cy="297.52" r="0.65"/><circle class="cls-6" cx="159.6" cy="318.88" r="0.65"/><circle class="cls-6" cx="159.6" cy="340.24" r="0.65"/><line class="cls-2" x1="269.22" y1="149.63" x2="236.13" y2="149.63"/><line class="cls-2" x1="269.22" y1="160.85" x2="252.25" y2="160.85"/><line class="cls-2" x1="269.22" y1="250.39" x2="252.25" y2="250.39"/><line class="cls-2" x1="269.22" y1="261.76" x2="252.25" y2="261.76"/><line class="cls-2" x1="269.22" y1="328.8" x2="252.25" y2="328.8"/><line class="cls-2" x1="269.22" y1="340.18" x2="236.13" y2="340.18"/><text class="cls-3" transform="translate(252.25 306.24) rotate(-90)">3×200</text><text class="cls-3" transform="translate(236.13 253.47) rotate(-90)">1730</text><text class="cls-3" transform="translate(252.25 216.58) rotate(-90)">4×200</text><polyline class="cls-4" points="269.22 146.01 269.22 150.61 273.22 155.22 269.22 159.82 269.12 251.43 273.12 256.03 269.12 260.63 269.12 329.97 273.12 334.58 269.12 339.18 269.12 340.99"/><line class="cls-2" x1="239.47" y1="337.96" x2="239.47" y2="151.84"/><polygon class="cls-5" points="240.19 337.47 239.47 340.18 238.74 337.47 240.19 337.47"/><polygon class="cls-5" points="240.19 152.34 239.47 149.63 238.74 152.34 240.19 152.34"/><line class="cls-2" x1="254.92" y1="248.17" x2="254.92" y2="163.07"/><polygon class="cls-5" points="255.65 247.68 254.92 250.39 254.19 247.68 255.65 247.68"/><polygon class="cls-5" points="255.65 163.56 254.92 160.85 254.19 163.56 255.65 163.56"/><line class="cls-2" x1="254.92" y1="326.59" x2="254.92" y2="263.98"/><polygon class="cls-5" points="255.64 326.1 254.92 328.81 254.19 326.1 255.64 326.1"/><polygon class="cls-5" points="255.64 264.47 254.92 261.76 254.19 264.47 255.64 264.47"/><ellipse class="cls-6" cx="268.12" cy="149.63" rx="0.65" ry="0.64"/><ellipse class="cls-6" cx="271.74" cy="155.21" rx="0.65" ry="0.64"/><ellipse class="cls-6" cx="268.12" cy="160.85" rx="0.65" ry="0.64"/><circle class="cls-6" cx="268.15" cy="250.36" r="0.65"/><circle class="cls-6" cx="268.15" cy="228.2" r="0.65"/><ellipse class="cls-6" cx="268.15" cy="205.54" rx="0.65" ry="0.64"/><ellipse class="cls-6" cx="268.14" cy="182.03" rx="0.65" ry="0.64"/><circle class="cls-6" cx="271.77" cy="256.01" r="0.65"/><circle class="cls-6" cx="268.15" cy="261.73" r="0.65"/><circle class="cls-6" cx="268.15" cy="283.87" r="0.65"/><circle class="cls-6" cx="268.15" cy="306.99" r="0.65"/><circle class="cls-6" cx="268.15" cy="328.8" r="0.65"/><circle class="cls-6" cx="271.77" cy="334.46" r="0.65"/><circle class="cls-6" cx="268.15" cy="340.18" r="0.65"/><line class="cls-2" x1="322.99" y1="168.38" x2="289.91" y2="168.38"/><line class="cls-2" x1="322.99" y1="179.61" x2="306.02" y2="179.61"/><line class="cls-2" x1="322.99" y1="250.39" x2="306.02" y2="250.39"/><line class="cls-2" x1="322.99" y1="261.76" x2="306.02" y2="261.76"/><line class="cls-2" x1="322.99" y1="328.8" x2="306.02" y2="328.8"/><line class="cls-2" x1="322.99" y1="340.18" x2="289.91" y2="340.18"/><text class="cls-3" transform="translate(306.02 306.24) rotate(-90)">3×200</text><text class="cls-3" transform="translate(289.91 253.47) rotate(-90)">1530</text><text class="cls-3" transform="translate(306.02 216.58) rotate(-90)">3×200</text><polyline class="cls-4" points="322.99 164.76 322.99 169.37 326.99 173.97 322.99 178.58 322.9 251.43 326.9 256.03 322.9 260.63 322.9 329.97 326.9 334.58 322.9 339.18 322.9 340.99"/><line class="cls-2" x1="293.24" y1="337.96" x2="293.24" y2="170.6"/><polygon class="cls-5" points="293.97 337.47 293.24 340.18 292.51 337.47 293.97 337.47"/><polygon class="cls-5" points="293.97 171.09 293.24 168.38 292.51 171.09 293.97 171.09"/><line class="cls-2" x1="308.69" y1="248.17" x2="308.69" y2="181.82"/><polygon class="cls-5" points="309.42 247.68 308.69 250.39 307.96 247.68 309.42 247.68"/><polygon class="cls-5" points="309.42 182.32 308.69 179.61 307.96 182.32 309.42 182.32"/><line class="cls-2" x1="308.69" y1="326.59" x2="308.69" y2="263.98"/><polygon class="cls-5" points="309.42 326.1 308.69 328.81 307.96 326.1 309.42 326.1"/><polygon class="cls-5" points="309.42 264.47 308.69 261.76 307.96 264.47 309.42 264.47"/><ellipse class="cls-6" cx="321.89" cy="168.38" rx="0.65" ry="0.64"/><ellipse class="cls-6" cx="325.51" cy="173.96" rx="0.65" ry="0.64"/><ellipse class="cls-6" cx="321.89" cy="179.61" rx="0.65" ry="0.64"/><circle class="cls-6" cx="321.92" cy="250.36" r="0.65"/><ellipse class="cls-6" cx="321.91" cy="226.79" rx="0.65" ry="0.64"/><ellipse class="cls-6" cx="321.89" cy="204.14" rx="0.65" ry="0.64"/><circle class="cls-6" cx="325.55" cy="256.01" r="0.65"/><circle class="cls-6" cx="321.92" cy="261.73" r="0.65"/><circle class="cls-6" cx="321.92" cy="283.87" r="0.65"/><circle class="cls-6" cx="321.92" cy="306.99" r="0.65"/><circle class="cls-6" cx="321.92" cy="328.8" r="0.65"/><circle class="cls-6" cx="325.55" cy="334.46" r="0.65"/><circle class="cls-6" cx="321.92" cy="340.18" r="0.65"/><line class="cls-2" x1="376.76" y1="204.38" x2="343.68" y2="204.38"/><line class="cls-2" x1="376.76" y1="215.61" x2="359.8" y2="215.61"/><line class="cls-2" x1="376.76" y1="328.8" x2="359.8" y2="328.8"/><line class="cls-2" x1="376.76" y1="340.18" x2="343.68" y2="340.18"/><text class="cls-3" transform="translate(359.8 283.16) rotate(-90)">5×200</text><text class="cls-3" transform="translate(343.68 280.86) rotate(-90)">1230</text><polyline class="cls-4" points="376.76 200.76 376.76 205.37 380.76 209.97 376.76 214.58 376.67 329.97 380.67 334.58 376.67 339.18 376.67 340.99"/><line class="cls-2" x1="347.01" y1="337.96" x2="347.01" y2="206.6"/><polygon class="cls-5" points="347.74 337.47 347.01 340.18 346.29 337.47 347.74 337.47"/><polygon class="cls-5" points="347.74 207.09 347.01 204.38 346.29 207.09 347.74 207.09"/><text></text><ellipse class="cls-6" cx="375.66" cy="204.38" rx="0.65" ry="0.64"/><ellipse class="cls-6" cx="379.29" cy="209.96" rx="0.65" ry="0.64"/><ellipse class="cls-6" cx="375.66" cy="215.61" rx="0.65" ry="0.64"/><circle class="cls-6" cx="375.69" cy="238.25" r="0.65"/><circle class="cls-6" cx="375.68" cy="260.89" r="0.65"/><circle class="cls-6" cx="375.67" cy="306.17" r="0.65"/><circle class="cls-6" cx="375.69" cy="283.53" r="0.65"/><circle class="cls-6" cx="375.69" cy="328.8" r="0.65"/><circle class="cls-6" cx="379.32" cy="334.46" r="0.65"/><circle class="cls-6" cx="375.69" cy="340.18" r="0.65"/><line class="cls-2" x1="362.46" y1="326.59" x2="362.46" y2="217.82"/><polygon class="cls-5" points="363.19 326.1 362.46 328.81 361.74 326.1 363.19 326.1"/><polygon class="cls-5" points="363.19 218.32 362.46 215.61 361.74 218.32 363.19 218.32"/><line class="cls-2" x1="430.53" y1="229.38" x2="397.45" y2="229.38"/><line class="cls-2" x1="430.53" y1="240.61" x2="413.57" y2="240.61"/><line class="cls-2" x1="430.53" y1="328.8" x2="413.57" y2="328.8"/><line class="cls-2" x1="430.53" y1="340.18" x2="397.45" y2="340.18"/><text class="cls-3" transform="translate(413.57 295.66) rotate(-90)">4×200</text><text class="cls-3" transform="translate(397.45 293.35) rotate(-90)">1030</text><polyline class="cls-4" points="430.53 225.76 430.53 230.37 434.53 234.97 430.53 239.58 430.44 329.97 434.44 334.58 430.44 339.18 430.44 340.99"/><line class="cls-2" x1="400.78" y1="337.96" x2="400.78" y2="231.6"/><polygon class="cls-5" points="401.51 337.47 400.78 340.18 400.06 337.47 401.51 337.47"/><polygon class="cls-5" points="401.51 232.09 400.78 229.38 400.06 232.09 401.51 232.09"/><line class="cls-2" x1="416.23" y1="326.59" x2="416.23" y2="242.82"/><polygon class="cls-5" points="416.96 326.1 416.23 328.81 415.51 326.1 416.96 326.1"/><polygon class="cls-5" points="416.96 243.32 416.23 240.61 415.51 243.32 416.96 243.32"/><ellipse class="cls-6" cx="429.43" cy="229.38" rx="0.65" ry="0.64"/><ellipse class="cls-6" cx="433.06" cy="234.96" rx="0.65" ry="0.64"/><ellipse class="cls-6" cx="429.43" cy="240.61" rx="0.65" ry="0.64"/><circle class="cls-6" cx="429.46" cy="262.66" r="0.65"/><circle class="cls-6" cx="429.45" cy="284.71" r="0.65"/><circle class="cls-6" cx="429.44" cy="306.76" r="0.65"/><circle class="cls-6" cx="429.46" cy="328.8" r="0.65"/><circle class="cls-6" cx="433.09" cy="334.46" r="0.65"/><circle class="cls-6" cx="429.46" cy="340.18" r="0.65"/><polyline class="cls-4" points="484.31 273.76 484.31 278.37 488.31 282.97 484.31 287.58 484.21 329.97 488.21 334.58 484.21 339.18 484.21 340.99"/><ellipse class="cls-6" cx="486.83" cy="282.96" rx="0.65" ry="0.64"/><circle class="cls-6" cx="486.86" cy="334.46" r="0.65"/><line class="cls-2" x1="484.31" y1="277.38" x2="451.22" y2="277.38"/><line class="cls-2" x1="484.31" y1="288.61" x2="467.34" y2="288.61"/><line class="cls-2" x1="483.86" y1="308.71" x2="466.89" y2="308.71"/><line class="cls-2" x1="484.31" y1="328.8" x2="467.34" y2="328.8"/><line class="cls-2" x1="484.31" y1="340.18" x2="451.22" y2="340.18"/><text class="cls-3" transform="translate(467.34 325.76) rotate(-90)">215</text><text class="cls-3" transform="translate(467.34 305.09) rotate(-90)">215</text><text class="cls-3" transform="translate(451.22 315.21) rotate(-90)">630</text><line class="cls-2" x1="454.56" y1="337.96" x2="454.56" y2="279.6"/><polygon class="cls-5" points="455.28 337.47 454.56 340.18 453.83 337.47 455.28 337.47"/><polygon class="cls-5" points="455.28 280.09 454.56 277.38 453.83 280.09 455.28 280.09"/><line class="cls-2" x1="470.01" y1="326.59" x2="470.01" y2="310.92"/><polygon class="cls-5" points="470.73 326.1 470.01 328.81 469.28 326.1 470.73 326.1"/><polygon class="cls-5" points="470.73 311.42 470.01 308.71 469.28 311.42 470.73 311.42"/><line class="cls-2" x1="470.01" y1="306.49" x2="470.01" y2="290.82"/><polygon class="cls-5" points="470.73 306 470.01 308.71 469.28 306 470.73 306"/><polygon class="cls-5" points="470.73 291.32 470.01 288.61 469.28 291.32 470.73 291.32"/><ellipse class="cls-6" cx="483.21" cy="277.38" rx="0.65" ry="0.64"/><ellipse class="cls-6" cx="483.21" cy="288.61" rx="0.65" ry="0.64"/><circle class="cls-6" cx="483.23" cy="308.71" r="0.65"/><circle class="cls-6" cx="483.24" cy="328.8" r="0.65"/><circle class="cls-6" cx="483.24" cy="340.18" r="0.65"/><line class="cls-2" x1="538.08" y1="284.44" x2="504.99" y2="284.44"/><line class="cls-2" x1="538.08" y1="286.52" x2="521.11" y2="286.52"/><line class="cls-2" x1="537.63" y1="305.61" x2="520.66" y2="305.61"/><line class="cls-2" x1="538.08" y1="338.18" x2="521.11" y2="338.18"/><line class="cls-2" x1="537.63" y1="317.8" x2="520.66" y2="317.8"/><line class="cls-2" x1="538.5" y1="317.8" x2="521.54" y2="317.8"/><line class="cls-2" x1="538.08" y1="340.18" x2="504.99" y2="340.18"/><text class="cls-3" transform="translate(521.11 334.16) rotate(-90)">210</text><text class="cls-3" transform="translate(521.11 305.09) rotate(-90)">210</text><text class="cls-3" transform="translate(504.99 318.74) rotate(-90)">530</text><polyline class="cls-4" points="538.08 283.76 538.08 307.37 542.08 311.97 538.08 316.58 537.98 339.18 537.98 340.99"/><line class="cls-2" x1="508.33" y1="337.96" x2="508.33" y2="286.66"/><polygon class="cls-5" points="509.06 337.47 508.33 340.18 507.6 337.47 509.06 337.47"/><polygon class="cls-5" points="509.06 287.15 508.33 284.44 507.6 287.15 509.06 287.15"/><line class="cls-2" x1="523.78" y1="335.96" x2="523.78" y2="320.02"/><polygon class="cls-5" points="524.5 335.47 523.78 338.18 523.05 335.47 524.5 335.47"/><polygon class="cls-5" points="524.5 320.51 523.78 317.81 523.05 320.51 524.5 320.51"/><line class="cls-2" x1="523.78" y1="303.39" x2="523.78" y2="288.73"/><polygon class="cls-5" points="524.5 302.9 523.78 305.61 523.05 302.9 524.5 302.9"/><polygon class="cls-5" points="524.5 289.23 523.78 286.52 523.05 289.23 524.5 289.23"/><ellipse class="cls-6" cx="536.98" cy="286.52" rx="0.65" ry="0.64"/><ellipse class="cls-6" cx="540.6" cy="311.96" rx="0.65" ry="0.64"/><ellipse class="cls-6" cx="536.98" cy="305.61" rx="0.65" ry="0.64"/><circle class="cls-6" cx="537.01" cy="317.8" r="0.65"/><circle class="cls-6" cx="537.01" cy="338.18" r="0.65"/></svg>