<svg id="Layer_1" data-name="Layer 1" xmlns="http://www.w3.org/2000/svg" xmlns:xlink="http://www.w3.org/1999/xlink" viewBox="0 0 126 108.68"><defs><style>.cls-1,.cls-11,.cls-8,.cls-9{fill:none;}.cls-2{font-size:11px;font-family:MyriadPro-Bold, Myriad Pro;}.cls-10,.cls-12,.cls-2{fill:#888;}.cls-10,.cls-3{font-weight:700;}.cls-4,.cls-5,.cls-6{font-family:MyriadPro-Regular, Myriad Pro;}.cls-5{letter-spacing:0.01em;}.cls-6{letter-spacing:-0.01em;}.cls-7{clip-path:url(#clip-path);}.cls-8{stroke:#007e4d;stroke-width:4px;}.cls-11,.cls-8,.cls-9{stroke-miterlimit:10;}.cls-9{stroke:#ccc;stroke-width:2px;}.cls-10{font-size:8px;font-family:MyriadPro-Semibold, Myriad Pro;}.cls-11{stroke:#888;stroke-width:0.5px;}</style><clipPath id="clip-path"><circle class="cls-1" cx="81.72" cy="62.86" r="29.46"/></clipPath></defs><title>gitter-scheme-a</title><text class="cls-2" transform="translate(15.33 24.53)"><tspan class="cls-3">А</tspan><tspan class="cls-4" x="7.22" y="0" xml:space="preserve"> (ув</tspan><tspan class="cls-5" x="23.35" y="0">е</tspan><tspan class="cls-4" x="28.92" y="0">л</tspan><tspan class="cls-6" x="34.5" y="0">и</tspan><tspan class="cls-4" x="40.47" y="0">чено)</tspan></text><g class="cls-7"><line class="cls-8" x1="65.76" y1="42.57" x2="65.76" y2="92.57"/><line class="cls-8" x1="80.22" y1="42.57" x2="80.22" y2="92.57"/><line class="cls-8" x1="94.68" y1="42.57" x2="94.68" y2="92.57"/><line class="cls-8" x1="111.18" y1="53.07" x2="61.18" y2="53.07"/><line class="cls-8" x1="111.18" y1="64.73" x2="61.18" y2="64.73"/><line class="cls-8" x1="111.18" y1="76.4" x2="61.18" y2="76.4"/></g><circle class="cls-9" cx="81.72" cy="62.86" r="29.46"/><text class="cls-10" transform="translate(23.12 86.08) rotate(-90)">2030±10</text><text class="cls-10" transform="translate(44.62 82.45) rotate(-90)">30±2</text><line class="cls-11" x1="63.85" y1="42.57" x2="20.18" y2="42.57"/><line class="cls-11" x1="46.51" y1="53.07" x2="46.51" y2="42.9"/><line class="cls-11" x1="46.51" y1="84.92" x2="46.51" y2="55.28"/><polygon class="cls-12" points="47.24 55.78 46.51 53.07 45.79 55.78 47.24 55.78"/><line class="cls-11" x1="46.51" y1="40.35" x2="46.51" y2="32.4"/><polygon class="cls-12" points="47.24 39.86 46.51 42.57 45.79 39.86 47.24 39.86"/><line class="cls-11" x1="25.18" y1="87.9" x2="25.18" y2="44.78"/><polygon class="cls-12" points="25.91 45.28 25.18 42.57 24.45 45.28 25.91 45.28"/><line class="cls-11" x1="61.18" y1="53.07" x2="43.35" y2="53.07"/></svg>