<svg xmlns="http://www.w3.org/2000/svg" xmlns:xlink="http://www.w3.org/1999/xlink" viewBox="0 0 1481.54 141.19"><defs><style>.cls-1,.cls-11{fill:none;stroke-miterlimit:10;}.cls-1{stroke:#e48601;}.cls-2{fill:#fff;}.cls-14,.cls-16,.cls-18,.cls-3{font-size:32.99px;font-family:GothamPro-BoldItalic, Gotham Pro;font-weight:700;font-style:italic;}.cls-13,.cls-3,.cls-5,.cls-7{fill:#e48601;}.cls-4,.cls-5{font-size:23.99px;}.cls-5,.cls-7{font-family:GothamPro, Gotham Pro;}.cls-6{letter-spacing:-0.02em;}.cls-7{font-size:16.5px;}.cls-8{letter-spacing:-0.02em;}.cls-9{letter-spacing:-0.02em;}.cls-10{letter-spacing:0em;}.cls-11{stroke-width:8px;stroke:url(#linear-gradient);}.cls-12{fill:url(#linear-gradient-2);}.cls-14,.cls-15{fill:#d47214;}.cls-16,.cls-17{fill:#c35d28;}.cls-18,.cls-19{fill:#87146d;}</style><linearGradient id="linear-gradient" x1="31.15" y1="60.8" x2="1481.54" y2="60.8" gradientUnits="userSpaceOnUse"><stop offset="0" stop-color="#e58700"/><stop offset="1" stop-color="#810c74"/></linearGradient><linearGradient id="linear-gradient-2" x1="31.15" y1="60.8" x2="1481.54" y2="60.8" xlink:href="#linear-gradient"/></defs><title>grafic</title><g id="Слой_2" data-name="Слой 2"><g id="контент"><rect class="cls-1" x="142.15" y="60.8" width="105.57" height="33.2"/><rect class="cls-1" x="251.42" y="60.8" width="238.36" height="33.2"/><rect class="cls-1" x="493.78" y="60.8" width="855.28" height="33.2"/><rect class="cls-2" x="130.14" y="50.49" width="1240.24" height="28.45"/><text class="cls-3" transform="translate(100.32 28.04)">1<tspan class="cls-4" x="14.32" y="0" xml:space="preserve"> день</tspan></text><text class="cls-5" transform="translate(160.29 136.49)">1 <tspan class="cls-6" x="15.79" y="0">эт</tspan><tspan x="40.52" y="0">ап</tspan></text><text class="cls-5" transform="translate(333.07 136.49)">2 <tspan class="cls-6" x="21.57" y="0">эт</tspan><tspan x="46.3" y="0">ап</tspan></text><text class="cls-5" transform="translate(883.71 136.49)">3 <tspan class="cls-6" x="21.9" y="0">эт</tspan><tspan x="46.64" y="0">ап</tspan></text><text class="cls-7" transform="translate(6.89 119.03)">С<tspan class="cls-8" x="12.17" y="0">т</tspan><tspan x="20.09" y="0">а</tspan><tspan class="cls-9" x="29.64" y="0">р</tspan><tspan class="cls-10" x="40.26" y="0">т</tspan><tspan x="-6.89" y="17.87">раб</tspan><tspan class="cls-8" x="24.28" y="17.87">о</tspan><tspan class="cls-10" x="34.61" y="17.87">ты</tspan></text><text class="cls-7" transform="translate(1321.49 119.03)">Приём<tspan x="-1.09" y="17.87">заявок</tspan></text><line class="cls-11" x1="31.15" y1="60.8" x2="1470.02" y2="60.8"/><polygon class="cls-12" points="1449.94 77.89 1467.04 60.8 1449.94 43.72 1464.45 43.72 1481.54 60.8 1464.45 77.89 1449.94 77.89"/><circle class="cls-13" cx="31.15" cy="60.8" r="10.31"/><circle class="cls-13" cx="140.45" cy="60.8" r="10.31"/><text class="cls-14" transform="translate(206.32 28.04)">2<tspan class="cls-4" x="20.26" y="0" xml:space="preserve"> день</tspan></text><circle class="cls-15" cx="249.42" cy="60.8" r="10.31"/><text class="cls-16" transform="translate(448.74 28.04)">5<tspan class="cls-4" x="20.12" y="0" xml:space="preserve"> день</tspan></text><circle class="cls-17" cx="491.78" cy="60.8" r="10.31"/><text class="cls-18" transform="translate(1300.04 28.04)">14<tspan class="cls-4" x="36.06" y="0" xml:space="preserve"> день</tspan></text><circle class="cls-19" cx="1351.05" cy="60.8" r="10.31"/></g></g></svg>