<svg id="Layer_1" data-name="Layer 1" xmlns="http://www.w3.org/2000/svg" viewBox="0 0 128 128"><defs><style>.cls-1{fill:#fff;}</style></defs><title>icon-warehouse</title><path class="cls-1" d="M34.63,62.72v39.11H29.72V48.06H24.81c0-1.61,0-3.13,0-4.64,0-.24.48-.53.79-.67q11.44-5.17,22.89-10.31c4.5-2,9-4,13.49-6.08a1.92,1.92,0,0,1,1.71,0q19.18,8.19,38.38,16.34c.79.33,1.16.7,1.08,1.6a26.38,26.38,0,0,0,0,3.06c0,.54-.2.73-.73.72-1.36,0-2.72,0-4.17,0v53.78H93.35V62.72Zm14.75-12.2v7.26H61.45V50.52ZM34.66,57.76H46.76V50.54H34.66Zm29.42,0H76.16V50.54H64.09Zm29.18-7.28c-3.94,0-7.79,0-11.63,0-.18,0-.49.44-.5.68,0,1.43,0,2.86,0,4.29,0,.75,0,1.5,0,2.27H93.27Z"/><path class="cls-1" d="M54.18,92H39.61v-7.3H54.18Z"/><path class="cls-1" d="M39.56,82.18V74.94H54.19v7.24Z"/><path class="cls-1" d="M54.2,101.82H39.61V94.54H54.2Z"/><path class="cls-1" d="M88.46,94.55v7.24H73.82V94.55Z"/><path class="cls-1" d="M71.3,84.7V92H56.73V84.7Z"/><path class="cls-1" d="M71.3,94.55v7.24H56.73V94.55Z"/></svg>