<svg xmlns="http://www.w3.org/2000/svg" viewBox="0 0 17.5 15"><defs><style>.cls-1{fill:#b3b8b3;}</style></defs><title>icon-imgs</title><g id="Слой_2" data-name="Слой 2"><g id="контент"><path class="cls-1" d="M16.63,3a1,1,0,0,1,.64.31.76.76,0,0,1,.21.62l-.55,10.27a.91.91,0,0,1-.31.62A.85.85,0,0,1,16,15L3.09,14.37a1.08,1.08,0,0,1-.64-.27.71.71,0,0,1-.21-.62l.08-1.8-.59,0a.77.77,0,0,1-.61-.18A.8.8,0,0,1,.83,11L0,1.8a.71.71,0,0,1,.18-.57A.83.83,0,0,1,.75.94L12.3,0a.77.77,0,0,1,.61.18.8.8,0,0,1,.29.53l.2,2.11ZM2.78,3.21a1,1,0,0,1,.29-.61.87.87,0,0,1,.64-.25l8.55.43-.08-1.21h0v0a.37.37,0,0,0-.39-.31L1.57,2.07q-.39,0-.39.35v0L1.8,9.41l.7-1Zm13,9.21.39-7.73v0q0-.39-.43-.39l-2.26-.12-1.13-.08-8-.35a.42.42,0,0,0-.47.35v0L3.83,6.56l-.27,5v.27l.23-.27,4-4.25a.75.75,0,0,1,.55-.23.63.63,0,0,1,.55.27l1.68,1.91.12.12a.53.53,0,0,0,.39.16.9.9,0,0,0,.35-.12l.66-.47a.67.67,0,0,1,.43-.16.46.46,0,0,1,.43.2L14,10.27Zm-2.5-4.68A1.33,1.33,0,0,1,12,6.37a1.29,1.29,0,0,1,.41-1,1.34,1.34,0,0,1,1-.39,1.29,1.29,0,0,1,1,.41,1.34,1.34,0,0,1,.39,1,1.4,1.4,0,0,1-1.37,1.37Z"/></g></g></svg>