<svg id="Layer_1" data-name="Layer 1" xmlns="http://www.w3.org/2000/svg" viewBox="0 0 128 128"><defs><style>.cls-1{fill:#fff;}</style></defs><title>icon-airplane</title><path class="cls-1" d="M56.23,70.25,33.55,76c-.59,3.1-1.17,6.16-1.78,9.21a1,1,0,0,1-.54.62c-.86.27-1.75.46-2.68.7V76.18h-6l-.42-1.71,5.12-3.1L22,62.31c1-.26,1.86-.54,2.78-.74a.91.91,0,0,1,.68.31q3,3.31,5.89,6.66a.69.69,0,0,0,.9.22l21-7.24a4,4,0,0,0,.46-.23L33.24,29c2.14-.57,4.17-1.12,6.21-1.64a.89.89,0,0,1,.69.2c3.56,3.11,7.1,6.24,10.66,9.36s7.27,6.33,10.89,9.51Q66,50.18,70.26,54a3.67,3.67,0,0,1,.65.54c.91,1.32,2.05,1.14,3.41.77,7.4-2,14.82-4.05,22.26-6a21.13,21.13,0,0,1,5.34-.6,13.12,13.12,0,0,1,6.55,1.46c1.66.95,2,2.11.94,3.72a6.83,6.83,0,0,1-.87,1.1,19.13,19.13,0,0,1-5.87,3.89c-3.39,1.53-7,2.24-10.6,3.22C86.63,63.6,81.17,65,75.74,66.52a1.31,1.31,0,0,0-.66.78c-1.3,3.63-2.57,7.27-3.85,10.9q-4.94,14-9.88,28a1.07,1.07,0,0,1-.84.79c-1.95.52-3.88,1.11-5.88,1.69a1.67,1.67,0,0,1-.07-.36c.13-2.6.27-5.2.4-7.79.06-1.15.11-2.3.15-3.45.06-1.76.09-3.52.16-5.28q.2-5.06.42-10.12.13-3,.28-6c.07-1.43.18-2.85.26-4.27C56.25,71.07,56.23,70.72,56.23,70.25Z"/></svg>