<svg id="Layer_1" data-name="Layer 1" xmlns="http://www.w3.org/2000/svg" viewBox="0 0 128 128"><defs><style>.cls-1{fill:#fff;}</style></defs><title>icon-building</title><path class="cls-1" d="M73,66H59V55H22V98H87V80H73Zm-5,7v7H44V73ZM28,61H51v5H28Zm1,12.12c3,0,5.17,0,7.78,0,.31,0,.81.88.83,1.23.09,1.75,0,4.61,0,5.61H29ZM51,92H29V85H51Zm31-7v7H59V85Z"/><path class="cls-1" d="M97.33,55.07l-4,1.78c-1.62-1.92-1.35-6-5.67-4.39l0-.53c.5-.26,1-.53,1.5-.77,3.1-1.43,6.22-2.82,9.31-4.28A3.36,3.36,0,0,0,99,41.21Q84.6,30.4,70.11,19.66a2.6,2.6,0,0,0-2.25-.06c-1,.49-2.44.5-2.54,2.28C64.68,34,63.94,46,63.25,58.12c-.08,1.39,2.43,3.68,3.66,3.18,3.26-1.34,6.44-2.86,9.77-4.37l-1.94-4.26-6.62,2.88L69.89,25.4,94.26,43.56l-11.37,5.3-5-10.92-4.3,2c2,4.34,4,8.55,5.89,12.8s1.92,4.43,6.61,4.23c1.53-.07,2.37.38,2.59,2l-3.9,1.93,9.65,21L107,76Z"/></svg>