<svg id="Layer_1" data-name="Layer 1" xmlns="http://www.w3.org/2000/svg" viewBox="0 0 128 128"><defs><style>.cls-1{fill:#fff;}</style></defs><title>icon-roads</title><path class="cls-1" d="M51.32,43a.53.53,0,0,1-.39.32c-1.21,0-2.42,0-3.73,0l.51-1.62c-2.55,0-5,0-7.46,0a1,1,0,0,0-.65.45c-.66,1.09-1.29,2.21-1.92,3.32q-4.15,7.34-8.29,14.69c-4,7-8.84,14-12.83,21.07-.87,1.52-2.55,3-3.55,4.52v.16c5,0,10.75,0,15.69,0,.25,0,1.07-.27,1.18-.51.52-1.17,1.22-2.36,1.64-3.56a1,1,0,0,1,1.17-.7c3,0,6,0,8.94,0,.28,0,.58.6.92.63-.35,1.61-.65,3.22-1,5.22H57V42H51.62C51.52,44,51.46,42.64,51.32,43ZM45.64,67.8c-.43,1.87-.86,3.74-1.25,5.62-.12.56-.33.79-1,.78-2.8,0-5.6,0-8.53,0a7.67,7.67,0,0,1,.22-.79c1.9-4.75,3.81-9.5,5.68-14.26a.88.88,0,0,1,1-.65c1.73,0,3.47,0,5.2,0,.23,0,.46,0,.76,0C47,61.67,46.33,64.73,45.64,67.8Zm3.19-14c-.05.22-.34.53-.53.53-1.81,0-3.62,0-5.56,0,.48-1.25.92-2.41,1.38-3.56.68-1.71,1.36-3.41,2.06-5.1.09-.21.32-.52.49-.53,1.35,0,2.69,0,4.14,0C50.13,48.14,49.5,51,48.83,53.8Z"/><path class="cls-1" d="M110.34,81H115c-2.3-2-4.44-5.07-6.61-7.53a1.26,1.26,0,0,0-.84-.29c-1,0-2.08,0-3.12,0a1.65,1.65,0,0,1-1.06-.47c-1.11-1.29-2.16-2.64-3.22-4-.65-.82-1.29-1.16-1.94-2,0-.07.07.26.1.26h3.59c-1.73-3-3.33-4.31-4.89-6.17-.43-.51-.91-1-1.53-.85-1.93.37-3.24.07-4.17-1.6-.35-.63-.88-1.39-1.45-1.39H93c-1.2-1-2.33-3.07-3.24-4.34s-1.76-2-3.15-1.74c-.34.05-.83.13-1.05-.08A7.83,7.83,0,0,1,84,49h2.67c-.81,0-1.55-1.88-2.13-2.7a1.84,1.84,0,0,0-1.83-.93c-.18,0-.38-.08-.56-.06-.85.12-1.22-.43-1.55-1.18L82.75,44c-.57-.67-1-1.18-1.46-1.73s-.76-.47-1.36-.46c-5.79,0-11.59.18-17.38.18h-1c0,2,0,1.08,0,1.66,0,.42.16.49.57.48.61,0,1.23.31,1.84.31,1,0,1.06.54.73,1.54H61.6s0,1.43,0,2.27c0,.5-.3.47.18.45.88,0,1.24-.19,2.24-.19V50H60v5.81c1,0,2.79,0,3.74,0,.22,0,1,.17,1,.28,0,1.18.23,2.37.23,3.64-.94,0-1.8,0-2.75,0-.58,0-1.57.13-1.53.76,0,.91-.74,1.81-.74,2.72v2.86c1,0,2.83,0,3.79,0,.73,0,1.43.15,1.43,1,0,1.79.28,3.46.32,5.25a7.53,7.53,0,0,0,.15.75H61.6c0,3,0,5.08,0,7.5,0,.44.22.59.6.59,1,0,2,.07,3,0,.72,0,.9.81.9,1.5,0,1.27.1,2.4.15,4.4H76.56c-.29-2-.57-3-.87-6H86.77c4.27,0,8.54.09,12.82.06a1.46,1.46,0,0,1,1.52.88c.6,1.16,1.37,2.24,2,3.37a1.07,1.07,0,0,0,1.08.61c2.94,0,5.87,0,8.81,0,.23,0,.45,0,.81-.05-1.25-1.59-2.42-3.12-3.59-4.6C110.27,81.19,110.31,81,110.34,81ZM68.89,44.1c.25,0,.53,0,.81,0,2.5,0,5-.08,7.5-.15.87,0,1.14,1.09,1.44,1.09H77.37c-2.5,0-5,.09-7.5.14C69,45.15,68.74,45,68.89,44.1Zm1,6.06a11.8,11.8,0,0,1-.31-1.58c.34,0,.62,0,.9,0,3,0,6.08,0,9.12,0,.81,0,1.38.16,1.69,1A11.32,11.32,0,0,0,82,50.64c-3.95,0-7.71,0-11.47,0A.8.8,0,0,1,69.92,50.16Zm1.6,9.39c-.14-1-.36-2.55-.57-2.55h.88c4.19,0,8.37-.59,12.56-.61.55,0,.89-.15,1.16.33.6,1.06,1.25,1.94,1.95,3.09a9.76,9.76,0,0,1-1,0c-4.67,0-9.33.25-14,.28C71.91,60.09,71.61,60.2,71.53,59.55ZM94.83,73.2c-6.57,0-13.14,0-19.71,0-.74,0-1-.22-1.14-.95-.32-2-.72-4-1.11-6.15.36,0,.64,0,.92,0q8.41,0,16.82,0a1.31,1.31,0,0,1,1,.34c1.38,2.18,2.71,4.39,4.13,6.73C95.3,73.17,95.07,73.2,94.83,73.2Z"/></svg>