<?xml version="1.0" encoding="utf-8"?>
<!-- Generator: Adobe Illustrator 17.1.0, SVG Export Plug-In . SVG Version: 6.00 Build 0)  -->
<!DOCTYPE svg PUBLIC "-//W3C//DTD SVG 1.1//EN" "http://www.w3.org/Graphics/SVG/1.1/DTD/svg11.dtd" [
	<!ENTITY ns_flows "http://ns.adobe.com/Flows/1.0/">
	<!ENTITY ns_extend "http://ns.adobe.com/Extensibility/1.0/">
	<!ENTITY ns_ai "http://ns.adobe.com/AdobeIllustrator/10.0/">
	<!ENTITY ns_graphs "http://ns.adobe.com/Graphs/1.0/">
	<!ENTITY ns_vars "http://ns.adobe.com/Variables/1.0/">
	<!ENTITY ns_imrep "http://ns.adobe.com/ImageReplacement/1.0/">
	<!ENTITY ns_sfw "http://ns.adobe.com/SaveForWeb/1.0/">
	<!ENTITY ns_custom "http://ns.adobe.com/GenericCustomNamespace/1.0/">
	<!ENTITY ns_adobe_xpath "http://ns.adobe.com/XPath/1.0/">
]>
<svg version="1.1" xmlns:x="&ns_extend;" xmlns:i="&ns_ai;" xmlns:graph="&ns_graphs;"
	 xmlns="http://www.w3.org/2000/svg" xmlns:xlink="http://www.w3.org/1999/xlink" xmlns:a="http://ns.adobe.com/AdobeSVGViewerExtensions/3.0/"
	 x="0px" y="0px" viewBox="0 0 23 14" enable-background="new 0 0 23 14" xml:space="preserve">
<metadata>
	<sfw  xmlns="&ns_sfw;">
		<slices></slices>
		<sliceSourceBounds  width="16383" height="16613.0410156" y="-8732" x="-7606" bottomLeftOrigin="true"></sliceSourceBounds>
		<optimizationSettings>
			<targetSettings  fileFormat="PNG24Format" targetSettingsID="0">
				<PNG24Format  transparency="true" noMatteColor="false" matteColor="#FFFFFF" filtered="false" interlaced="false">
					</PNG24Format>
			</targetSettings>
		</optimizationSettings>
	</sfw>
</metadata>
<g id="фон">
</g>
<g id="контент">
	<g>
		<polygon fill="#FFFFFF" points="10.399025,10.8791704 10.4632339,10.7676163 10.2872562,10.7114077 10.1833773,10.8151779 
			10.2353706,10.9708338 10.0792828,11.1273546 10.2991467,11.3789978 10.4392366,11.3028994 10.3552475,11.2025881 
			10.5187941,11.1109247 		"/>
		<polygon fill="#FFFFFF" points="9.7639713,12.0820436 9.5558891,12.0820436 9.636096,12.306015 9.7075462,12.4659948 
			9.883956,12.4175692 10.2115898,12.441782 10.3355742,12.3423347 9.9199514,12.2376995 		"/>
		<polygon fill="#FFFFFF" points="12.0654078,10.8592806 12.0898371,10.6353092 11.9857426,10.531539 11.822196,10.7269735 
			11.9620695,10.8592806 		"/>
		<polygon fill="#FFFFFF" points="10.5267925,11.487093 10.5668955,11.8061867 10.7067699,11.9384947 10.6072149,11.3988876 		"/>
		<polygon fill="#FFFFFF" points="10.5427914,10.5756407 10.4588013,10.4753294 10.2674742,10.4995422 10.1955919,10.4433336 
			10.1594887,10.5194321 10.3509235,10.5998545 		"/>
		<polygon fill="#FFFFFF" points="11.7139931,11.0590391 11.561904,10.7788582 11.5380154,10.8990593 11.6020079,11.0988178 		"/>
		<polygon fill="#FFFFFF" points="11.3300419,11.0028296 11.282589,10.7235146 11.0068398,10.7511864 11.0426188,10.8834934 		"/>
		<polygon fill="#FFFFFF" points="12.333806,11.7024164 12.0300608,11.8701792 12.0579491,12.0422649 12.1456137,11.9142818 
			12.3135929,12.0102692 12.5093517,11.8623962 		"/>
		<polygon fill="#FFFFFF" points="12.1137257,9.580308 12.0457344,9.5042095 11.9137516,9.6443005 11.8698654,9.8639479 
			11.9376402,9.8354111 12.0335197,9.7714195 		"/>
		<polygon fill="#FFFFFF" points="11.1747103,11.2631207 11.0305128,11.2544737 10.938632,11.2985764 11.0349445,11.5467606 
			11.0069485,11.6859865 10.939065,11.6107521 10.8230791,11.6704206 10.8791809,11.9099579 10.97052,11.9704905 
			11.0427275,11.8182936 11.1866007,11.9298468 11.1384993,12.0664787 11.3624706,11.9860563 11.2223797,11.6462078 		"/>
		<polygon fill="#FFFFFF" points="12.1259403,12.2221346 11.9738522,12.3579006 11.8460846,12.165925 11.9620695,12.1062574 
			11.7583122,11.8779621 11.6540012,12.0863676 11.4500265,12.170249 11.5905495,12.301692 11.7142096,12.4097862 
			12.0500584,12.6017618 12.2614908,12.581872 12.1418304,12.4538889 		"/>
		<polygon fill="#FFFFFF" points="12.401473,12.8170853 12.5297813,12.9052906 12.6811132,12.6657534 12.4974613,12.441782 		"/>
		<polygon fill="#FFFFFF" points="11.6818895,11.5303307 11.7419891,11.3348961 11.6258965,11.2907934 11.5301247,11.4585552 
			11.374361,11.4066706 11.4543505,11.5268717 		"/>
		<polygon fill="#FFFFFF" points="11.3983574,12.5334463 11.4785633,12.7574177 11.5823345,12.6536465 11.5304489,12.4979906 		"/>
		<polygon fill="#FFFFFF" points="11.0469427,11.071146 10.770546,10.6828709 10.6186733,10.6110964 10.5868931,10.8748465 
			10.6749907,10.9552689 10.7385502,10.8428507 10.8146486,10.9829407 10.8027582,11.1472435 10.906745,11.1472435 		"/>
		<polygon fill="#FFFFFF" points="3.3965657,2.6216266 3.4568822,2.4408929 3.2609072,2.5412045 3.4901752,2.7547989 		"/>
		<polygon fill="#FFFFFF" points="3.5834608,2.2852371 3.9813559,2.2904255 3.9439554,2.088073 4.0946388,2.0085156 
			4.0389705,1.9350114 3.8539128,1.9868968 		"/>
		<polygon fill="#FFFFFF" points="3.9855716,1.5752734 3.8682892,1.3660028 3.5713542,1.4126996 3.7827866,1.6133226 		"/>
		<polygon fill="#FFFFFF" points="3.5947025,3.2995944 3.4247782,3.1906354 3.519685,3.0375738 3.6585863,3.149992 
			3.8198631,3.0220082 3.9454687,3.0090368 3.8487244,2.8447335 3.6212938,2.9476392 3.2552862,2.938127 3.1939969,3.2624099 
			3.486392,3.3272667 		"/>
		<polygon fill="#FFFFFF" points="3.4393709,6.5078344 3.2960379,6.5069699 3.4101856,6.6859741 3.4904995,6.6928921 
			3.5845416,6.6833797 3.5649767,6.4939985 		"/>
		<polygon fill="#FFFFFF" points="2.5070572,3.223496 2.2572513,2.9640696 2.1714244,2.7504752 2.1111076,2.9312088 
			2.1170528,3.1370206 2.1721809,3.2113895 2.1886113,3.3679101 2.15294,3.4829226 2.162993,3.5771806 2.2539003,3.5356724 
			2.3763711,3.49157 2.3352952,3.3999059 		"/>
		<polygon fill="#FFFFFF" points="1.8157939,3.8997343 2.0606277,3.8097997 1.8555726,3.6731684 		"/>
		<polygon fill="#FFFFFF" points="13.2448254,10.5756407 13.2449331,10.6794119 13.4482584,10.5946655 13.504468,10.522891 
			13.4883623,10.4995422 13.4762554,10.4554405 13.2365017,10.4070139 		"/>
		<polygon fill="#FFFFFF" points="9.7198687,10.535862 9.5436745,10.6871948 9.5761032,10.8393917 9.6914396,10.7788582 
			9.7877522,10.6110964 		"/>
		<polygon fill="#FFFFFF" points="12.4533587,11.3106823 12.4295778,11.5346537 12.5813417,11.6064291 12.6571159,11.5381136 
			12.5855579,11.2743626 12.3212671,10.9310551 12.2254953,11.0988178 12.3853674,11.1308136 		"/>
		<polygon fill="#FFFFFF" points="8.9483995,11.5865393 8.9406166,11.7309532 8.9883938,11.8027277 9.0763826,11.8822851 
			9.2119331,11.8260765 9.1681547,11.7344122 		"/>
		<polygon fill="#FFFFFF" points="9.7276516,10.807395 10.0036163,10.8834934 10.0596094,10.6033134 10.0432873,10.4753294 
			9.983511,10.4632225 9.9313011,10.5151081 9.9117365,10.5116491 9.915411,10.6993008 		"/>
		<polygon fill="#FFFFFF" points="6.4390969,8.1621103 6.327652,8.1577864 6.2010736,8.3143072 6.2768474,8.4327784 
			6.3083029,8.4301844 6.3928328,8.3255491 		"/>
		<polygon fill="#FFFFFF" points="3.7386842,2.5541759 3.8386714,2.7504752 4.0488067,2.6328685 3.9488196,2.4365692 		"/>
		<polygon fill="#FFFFFF" points="4.7615809,1.8597778 4.7921715,1.9990033 4.7911987,2.1425526 4.8716211,2.1494706 
			4.9698787,2.028405 4.9493408,1.9825729 4.8904295,1.8779376 		"/>
		<polygon fill="#FFFFFF" points="18.2196522,4.1825089 18.4100056,4.1254354 18.6829433,4.172132 18.5235043,3.9870744 
			18.2017078,3.7345662 17.9631443,3.8452547 18.1328526,3.9369187 		"/>
		<polygon fill="#FFFFFF" points="17.8397007,4.038095 17.874939,3.8980048 17.8950443,3.7492669 17.8986111,3.6316602 
			17.674099,3.7899103 		"/>
		<polygon fill="#FFFFFF" points="18.0158939,2.8187909 17.6123772,2.9407213 17.4894733,3.1335616 17.6758289,3.1940944 
			17.8148384,3.2684634 17.9549274,3.3039181 17.9512539,3.1629632 17.8868294,2.948504 18.0698318,2.8680818 		"/>
		<polygon fill="#FFFFFF" points="17.4140244,4.386591 17.4649372,4.51371 17.6444817,4.5500298 17.7773285,4.5621362 
			17.7818699,4.4047508 17.9790325,4.3718905 17.9835739,4.2145052 17.7578716,4.1531072 17.6223221,3.9611318 
			17.4942303,4.0519309 17.670208,4.2058573 17.6525879,4.2759027 		"/>
		<polygon fill="#FFFFFF" points="18.1069088,2.3907373 18.0499439,2.4590528 18.0230274,2.5844421 18.0904789,2.6804299 
			18.3223419,2.5455282 		"/>
		<polygon fill="#FFFFFF" points="17.2482071,3.0635164 17.3679752,2.9891474 17.1422749,2.9277499 17.0038071,3.1119428 
			17.079689,3.1923649 		"/>
		<path fill="#FFFFFF" d="M16.2938423,4.3225994l-0.0460472,0.2343483l0.2816925,0.0311313l-0.063343-0.2525082l0.2137032-0.0648565
			l0.13274,0.0121064l0.043129,0.1426845l0.1261463-0.0121064l0.1079865,0.0579386l0.0590191-0.1478734l-0.162466-0.066586
			l-0.1239834-0.066586l0.0580463-0.1089592l0.140522,0.0363197l-0.1074448-0.0977173l-0.2232151-0.1392255l0.0601006-0.1867871
			l0.1484127,0.0198894l0.2282963-0.0172949l0.2837467-0.0466969L17.326683,3.3246722l-0.3179054,0.1478732l0.0752354,0.1202009
			l-0.234026-0.0458319l-0.0286446-0.0951231L16.8862,3.3670454l-0.0892868-0.1677625l-0.0076752-0.038914
			c-0.1358738,0.2758567-0.2562904,0.5084758-0.3518467,0.68748l0.226675,0.1556559l-0.1555481,0.2153239l-0.196516-0.1392255
			c-0.0489674,0.0882049-0.0831242,0.1487379-0.0831242,0.1487379c-0.0099449,0.0164304-0.0177269,0.0276723-0.027565,0.0449672
			L16.2938423,4.3225994z"/>
		<path fill="#FFFFFF" d="M17.6627502,1.4758266l-0.1197701,0.074369l-0.0352383-0.0060533
			c-0.002594,0.0069181-0.0070267,0.0077828-0.0094032,0.0147009c-0.1082039,0.278451-0.2221355,0.5447955-0.3356342,0.8007629
			l0.1463604,0.2196476l0.2761803,0.2274306l0.0876656-0.0518854l-0.0846386-0.0657213l0.0180511-0.0700452l0.0700455,0.0181599
			l0.0286446,0.0951231l0.0700455,0.0172951l0.1660328-0.0501559l-0.2232132-0.1400902l-0.1676559-0.169492l-0.1888409,0.0181599
			l0.0113506-0.133172l-0.106905-0.0968525l0.1212807-0.1141477l0.238781,0.1478729l0.1463604,0.098582l0.2442932-0.0475614
			l-0.2401867-0.1098239L17.603838,1.8813967l-0.0820446-0.1435493l0.3243923,0.1746805l0.2304573,0.1634386l0.1224709,0.1055002
			l-0.0055141,0.1954346l0.0791264-0.2957461L18.115881,1.8182695l0.134901-0.0665861l-0.0510197-0.1271189l-0.173275,0.0259427
			l-0.0984745,0.1461436l-0.1245251-0.0268074l-0.0312386-0.274992l0.1466827-0.1997583l-0.1403046-0.0916641
			c-0.0205383,0.0121065-0.1200943,0.098582-0.2121906,0.2507789L17.6627502,1.4758266z"/>
		<polygon fill="#FFFFFF" points="19.0319805,2.4097619 19.0170631,2.6596758 19.1878529,2.7115612 		"/>
		<polygon fill="#FFFFFF" points="18.0215149,3.4388199 17.7578716,3.3376436 17.7226334,3.4777339 17.8471584,3.5045414 
			18.0324326,3.6039882 		"/>
		<polygon fill="#FFFFFF" points="19.6380653,1.7992449 19.6343899,1.6582899 19.5239182,1.6781793 19.4741936,1.770708 
			19.5349426,1.8433474 		"/>
		<polygon fill="#FFFFFF" points="15.9362659,5.8419733 16.028471,5.6327028 16.0247955,5.4917479 15.7872047,5.5626578 
			15.5476675,5.7131252 15.7485065,5.8212194 		"/>
		<polygon fill="#FFFFFF" points="18.5704174,2.6389217 18.6143036,2.4841306 18.5204773,2.4728889 18.4458923,2.6121144 		"/>
		<path fill="#FFFFFF" d="M22.6946487,12.0932856c-0.0596676-0.1063643-0.4392948-0.9252872-2.2665215-2.6219368
			c-1.8972721-1.7675581-1.648222-1.4830542,0.6528893-4.5434213c1.4000378-1.8626816,1.9578056-3.0015635,1.779665-3.4875557
			c0,0-0.1660328-0.4747504-1.1985493-0.3441725l-3.0388565,0.0207541l0.1091747,0.2559675l0.3473072,0.2066764l0.0829086-0.1547911
			l0.1862469,0.0605328l0.0928535,0.049291l0.1436558-0.0821517l0.1376057,0.1141475l0.0241051,0.2516437l0.103878,0.2153239
			l0.1721935,0.0121067L19.99683,2.1313107l-0.1862469-0.0605328l-0.136631-0.1530615l-0.1556549-0.0432378l-0.0763149-0.0804222
			l-0.0793419,0.0363197l0.09869,0.1132828l0.0903683,0.1279837l-0.1474419-0.0596681l-0.1744633-0.1928403l0.1229019-0.1928402
			l-0.0119972-0.1253895L19.1462364,1.714499l-0.3408222,0.1158772l-0.0886364,0.091664L18.7380714,1.99295l0.1582508-0.0345901
			l0.1469002,0.0588032l-0.1981373,0.0726395l-0.1519814,0.0977173l0.36936-0.0207541l0.3304443-0.0216188l0.0655041,0.1746805
			L19.3147545,2.401979l0.0212955,0.07091l0.1878681,0.0216188l0.1127415,0.1599796l-0.2547779,0.1418197l-0.2613716,0.0786927
			l0.0395622,0.2602913l-0.0781517,0.2559674l-0.0414009,0.0769632L18.8624878,3.392988l-0.1179295-0.2620206l0.136198-0.3649266
			l-0.09869-0.1124182l-0.0045395,0.1565206l-0.1364155,0.1055l-0.1768417,0.1444142L18.1732788,3.082541l0.0499401,0.166033
			l-0.0731812,0.1003115l0.0996647,0.073504l0.1219292-0.1539261l0.2070007,0.1712213l0.0489674,0.204947l0.1096077,0.2775862
			l0.1447372-0.1210656l-0.0333996-0.1971641l0.1687336,0.130578l-0.0304813,0.2421312l-0.0595608,0.1478729l-0.0683155,0.201488
			l-0.0736122,0.1003118l-0.0368595-0.0795579l-0.0675602-0.0959873h-0.2588844L18.1118813,4.383132l0.103878,0.2144594
			l0.0441036,0.1037707l-0.10215,0.0043235l-0.1307945-0.0899343l-0.1280918,0.0907993l-0.1163082-0.0423732l-0.0938263-0.0112419
			l0.002594,0.1807337l-0.1342525,0.0276723L17.5080662,4.65553l-0.2365112,0.0328608l-0.2267818-0.0224838l-0.0075665,0.2741275
			L16.8292332,5.067153l0.2448349-0.0475612l0.0499382,0.1668978l0.0203228,0.1098237l-0.0035667,0.1176066l-0.0720997,0.0605326
			l0.0569668-0.0683155l-0.0285378-0.0951228l-0.3507671-0.0890698l-0.2294827-0.2023525l0.0255089,0.2127295l-0.1674366,0.0890698
			l0.0533981,0.0484262l-0.0700455-0.0172949l-0.0285378-0.0951233l0.0127563-0.1720862L16.196125,4.9867311l-0.0599918,0.1867871
			l-0.1915436-0.1625738l-0.0866919,0.0129709l-0.1122017-0.0095119c-0.1944618,0.3026638-0.3706551,0.5586314-0.5303106,0.7730904
			l0.0639915-0.0198894l0.1208496-0.1141472l0.2561836-0.1807342l0.3049345-0.2343483l0.1759768,0.1539264l0.0074596,0.2827749
			l-0.1824636,0.3398485L15.7153215,5.882617l-0.2137022,0.063992l-0.2102442-0.0527501l-0.0931768-0.0847464
			c-0.787035,1.0489478-1.1709862,1.1034274-1.3534498,0.9814968c-0.5819798-0.3675208-0.4271889-1.4951611-0.4271889-2.3011122
			c0-1.3144274,0.0990152-2.218961,0.0372934-2.8294778l-0.004324,0.0077828h-0.1363077l0.0681-0.0907992l-0.0681-0.1824633
			l-0.0459394-0.159115l0.1319828,0.0873402c-0.0436697-0.1556559-0.1205254-0.274992-0.2162962-0.3778978l-0.031888,0.1703567
			l0.068099,0.2507789l-0.3190947-0.0683156l0.0910158-0.3640618l0.0394545-0.130578
			c-0.0990143-0.0622624-0.2173777-0.1106886-0.3620081-0.1461436c-0.3675203-0.0830165-0.6399183-0.1418198-1.6015253-0.1539263
			c-1.221899-0.0121066-2.2535515,0-2.8346663,0.2845043c-0.3917341,0.190246-0.688345,0.6165702-0.5102057,0.6407833
			c0.2248363,0.035455,0.7350421,0.1426846,1.0083041,0.5102054c0,0,0.2966108,0.4859921,0.3441725,1.5539643
			c0.130578,2.9540021-0.4747505,3.321523-0.4747505,3.321523C8.1382322,7.0630074,7.3314161,6.6479249,6.1449723,4.2041278
			c0,0-0.6883445-1.2097917-1.2218986-2.5389199C4.827951,1.4161586,4.6385698,1.2864454,4.6385698,1.2864454
			S4.4249754,1.1195477,4.1162577,1.0719862L0.8656446,1.0961993c-0.4980987,0-0.6762382,0.2248362-0.6762382,0.2248362
			s-0.1772747,0.1902461-0.0112418,0.58198C0.8955867,3.5892873,1.6358168,5.0109444,2.3368087,6.221601l0.0726395-0.1461439
			l0.038914-0.0830164L2.4149609,6.2821336l0.0273478,0.1080942l0.003243,0.0147009
			c0.1480892,0.2525086,0.2969351,0.5093408,0.4398358,0.7402301l0.0660458-0.1418195L2.978781,7.1114335l0.3312011-0.0181599
			L3.2396126,7.179749l0.0730717,0.0873404l0.2054875-0.0051885L3.3223047,7.3622122l-0.170897,0.0328608l-0.027348-0.1080942
			L2.9646206,7.1287284l-0.069937,0.0319963c1.5230491,2.455039,2.7167351,3.6985559,2.7167351,3.6985559
			s2.6452847,2.7646208,5.6468487,2.5752401h1.364583c0.415082-0.0363197,0.6286764-0.2611561,0.6286764-0.2611561
			s0.1893816-0.2135944,0.1772747-0.6053286c-0.0233479-1.8272266,0.8310299-2.0996246,0.8310299-2.0996246
			c0.830164-0.2611561,1.8981371,1.7675591,3.0370188,2.5501623c0,0,0.8656197,0.5932217,1.5185089,0.4626436l3.0370197-0.0466967
			C23.4539032,13.4224138,22.6946487,12.0932856,22.6946487,12.0932856z M19.4188499,2.8758645l0.1613846,0.106365
			L19.514946,3.0661106l-0.1079865-0.0570738L19.4188499,2.8758645z M18.8157921,11.4274244l-0.2441864-0.0077829
			l-0.0591259-0.0631266l-0.1664658-0.0510206l0.2293758-0.0086479L18.8157921,11.4274244z M18.3615799,5.5116372
			l0.0415077-0.0769634l0.0845299,0.0657215l-0.0652885,0.0838814L18.3615799,5.5116372z M18.1613884,4.8475056l0.1603031-0.1132832
			l-0.0692883-0.3156352l0.1791134,0.0363197l0.1925163,0.1236596l-0.005621,0.1954346l-0.0368614-0.0795574l-0.106905-0.0968523
			l0.0036755,0.140955l0.065506,0.1746807l-0.19911,0.1124177L18.2221375,4.920145l-0.0949059,0.0285368L18.042593,4.8829603
			L18.1613884,4.8475056z M18.0324326,5.2357802l0.175869-0.1046352l0.0499401,0.1660328l-0.0701542-0.0172949l-0.19911,0.1115532
			l-0.0503712-0.1660328L18.0324326,5.2357802z M17.8189449,5.5591989l-0.035347-0.1184716l0.1152287,0.0812869l0.1566296,0.0051885
			l0.0893936,0.1668978l0.0426979,0.1426845l-0.1853828-0.1003113l-0.1141472-0.1202011L17.762413,5.6283789L17.8189449,5.5591989z
			 M18.0317841,11.0962238l-0.1220398-0.003459l0.1298218-0.2404022l0.0591278,0.0631275L18.0317841,11.0962238z
			 M18.0504837,11.4646091l-0.003891,0.1219301l-0.0630188,0.0588036l-0.0700455-0.2006235L18.0504837,11.4646091z
			 M17.4419117,5.0386162l0.1702499,0.0907993l0.1059322,0.1366315l-0.1700325,0.1677623l-0.092205,0.2092705l-0.1235523-0.066586
			l0.1243095-0.2317543l-0.1272278-0.207541l-0.0406437-0.2205124L17.4419117,5.0386162z M17.6770172,6.6764617
			l-0.0794487,0.0371847l-0.0856113-0.0259428l0.1032314-0.0441027L17.6770172,6.6764617z M17.5415764,5.9275842
			l-0.0506973,0.1323075l-0.0369682-0.0795574L17.5415764,5.9275842z M17.0897408,6.1031294l0.1007442,0.0337253
			l0.0798817-0.0363197l0.0850697,0.0259428l0.1059341,0.1357665l0.1463585,0.0985823L17.56633,6.4386544l-0.1852741-0.1003118
			l-0.0893936-0.1668978l-0.1095009-0.0190244l-0.1032295,0.0441022L17.0897408,6.1031294z M17.4574776,6.6781912
			l-0.0642071,0.0449672l-0.1198769,0.0752339l-0.106905-0.0968528l0.0969601-0.1072292l0.1239834,0.066586L17.4574776,6.6781912z
			 M16.8681469,10.2037964l0.1658173,0.0812874l0.1959763,0.0830164l-0.3694668,0.0804224l-0.0592365-0.0631275
			L16.8681469,10.2037964z M16.7608109,9.7420177l-0.1259308,0.1184711l-0.1772747-0.1893816l0.1259308-0.1176062
			l0.1220379,0.003459L16.7608109,9.7420177z M16.5873184,9.9045916l-0.1259289,0.1184711l0.003891-0.1219301L16.5873184,9.9045916z
			 M16.4911156,6.9955564l0.0652885-0.0847459l0.0977173,0.1521969L16.4911156,6.9955564z M16.4800892,6.0149245l0.170248,0.0907993
			l0.0110264,0.1651678L16.55089,6.291646l-0.1546822-0.0830164L16.4800892,6.0149245z M16.4533901,6.3980107l0.14744,0.0596681
			l-0.1032295,0.0432377l-0.1246338-0.0268073L16.4533901,6.3980107z M16.4954376,8.9542255l0.0552368,0.1850576
			l-0.0037823,0.1219311l-0.0630207,0.0596676l-0.2440758-0.0077829l-0.2365112,0.2213774l0.0590191,0.0631275l-0.0037823,0.1219301
			l-0.1773834-0.1885166l0.0630198-0.0588036l0.040535-0.3052578l-0.1625738-0.1729517l-0.1105804,0.1037712l0.0037832-0.1219311
			l0.1067972,0.0181599l0.4105415,0.0588036L16.4954376,8.9542255z M15.9200525,8.8383484l0.1115522-0.0596676l0.124958,0.0268068
			l-0.0735035,0.1003122l-0.1795454-0.0371847l-0.0939341-0.0103769L15.9200525,8.8383484z M15.8129311,8.48207l0.0768547,0.0415077
			l0.0514526,0.1271191l-0.0950146,0.0285368l-0.0119982-0.1262541L15.8129311,8.48207z M15.9864225,7.0828967l0.0330763-0.0622625
			l0.0690727,0.0570741l-0.033186,0.0622621l-0.0901499,0.130578l-0.0414,0.0769629l-0.0510206-0.1271186L15.9864225,7.0828967z
			 M15.7660179,6.566638l0.1011763,0.0345902l-0.0024862,0.0778279l-0.1089592-0.0190248L15.7660179,6.566638z
			 M15.6243057,7.9433274l0.1057167-0.1227951l-0.1011763-0.0345902l0.0024862-0.0778279l0.0783682,0.0017295l0.0286455,0.0951233
			l0.1059322,0.136631l-0.0746937,0.139226l-0.2651548-0.0631275l-0.1199846-0.1833282l0.0876637-0.0527496L15.6243057,7.9433274z
			 M15.1817675,6.431736l0.2957468,0.0795579l-0.2442932,0.0475612l-0.2328358,0.1738157L14.932827,6.636683L15.1817675,6.431736z
			 M14.9174776,6.8865972l0.1805172-0.0017295l0.2968273,0.0397787l0.0338335,0.1971641l-0.1224709-0.1055002l-0.1935968-0.0847459
			l-0.2044067,0.0103774l-0.1556559-0.0441027L14.9174776,6.8865972z M15.2784042,7.4391756l0.0996628,0.073504
			l-0.0975008,0.1063647l-0.068532-0.0562086L15.2784042,7.4391756z M15.1807947,7.2869787l-0.109499-0.0190248l0.074585-0.1392255
			l0.109499,0.0190248L15.1807947,7.2869787z M14.8484049,7.6458521l0.1115532-0.0596681l-0.0582628-0.1504674l0.0638838-0.0449672
			l-0.0020533,0.0778279l0.0285368,0.0951228l0.1205254,0.1841927l0.100852,0.2931523l0.0727472,0.1980286l-0.1197691,0.0752335
			l0.0218353,0.0709105l-0.0208616,0.0233479l0.0175104,0.0172949l0.4992886-0.0847454l0.0903664,0.1011763l0.2965031-0.0466967
			l-0.0269165-0.1080942l0.1155529-0.1072302l0.0757751,0.1193361l-0.1124191,0.138361l0.0763149,0.1193361l-0.1498184-0.0639915
			l-0.1256056,0.0129709L15.760397,8.4604511l-0.1018248,0.0899343l-0.0709105,0.2291603l-0.2028923,0.0380487L15.370717,8.8348894
			l-0.0174036-0.0147009l-0.1013927,0.0899353L14.89748,8.7095003l0.0124302-0.3346605l-0.099987-0.1962986l-0.1173906-0.2101359
			l0.0530748-0.1003113l0.069396,0.0562091l0.0164309,0.1573849l0.2855854,0.2775869l0.0186996-0.0613976l-0.070693-0.276722
			l0.0523176-0.1712213l-0.2486172-0.0933938l-0.2287273,0.0562091l-0.0037832-0.140955L14.8484049,7.6458521z
			 M15.2679195,9.6027918l-0.0777206,0.0432377l-0.206892-0.2205124l0.003891-0.1219301l0.1691675-0.0406437l0.1221466,0.004324
			l0.05902,0.0631266l-0.1691675,0.0397787L15.2679195,9.6027918z M15.1278286,9.6754313l-0.0459394,0.0129719l-0.1221466-0.0034599
			L15.1278286,9.6754313z M13.4710665,8.7086353l-0.0441027,0.5110703l-0.3772488-0.133172l0.1559801-0.4885864l0.0555601-0.2775869
			L13.4710665,8.7086353z M11.9231558,6.7888799L11.860137,6.8485479l-0.0591278-0.063127l0.062911-0.0596681l0.1851654-0.0544796
			l0.0552359,0.1850576l0.245266-0.0233483l0.1772757,0.1893811l-0.4532404,0.3069882L11.959259,7.0811672l0.0859356-0.2879634
			L11.9231558,6.7888799z M11.7255592,7.3622122l0.0879889,0.0795574L11.797658,7.522192l-0.1162014-0.0441027L11.7255592,7.3622122
			z M11.7190733,3.149127h0.2509956l0.0911236,0.1824634L11.9700689,3.354074h-0.2280798L11.7190733,3.149127z M12.404932,4.997973
			l0.030591,0.14009l-0.1146879-0.0363197l-0.0100527-0.0942583l-0.0304832-0.1392255l0.0917721-0.1841927l0.0389147-0.0838814
			l-0.0334015,0.2896929L12.404932,4.997973z M12.6073933,5.469264l0.3453608-0.0354548l-0.0214024,0.0968523L12.8056383,5.544498
			l-0.0215111,0.0968523l-0.0041075,0.1115537l0.030591,0.14009l0.0269146,0.1080942l0.1424685,0.1435494l0.1013927-0.0899343
			l-0.1836519,0.3692503L12.889411,6.6470604l-0.1287403-0.0181599l0.0256186-0.209271l0.0223751-0.2404017l-0.0163221-0.1573853
			L12.7617521,5.881752L12.640254,5.7840347l-0.0803146-0.0077825l-0.198245-0.074369l-0.1462517-0.0328608l-0.1281996-0.1608443
			l0.1264706-0.1556559l0.0305901,0.1392255L12.6073933,5.469264z M13.2050467,5.1735182l0.0263748,0.2516437l-0.0793409-0.1504674
			l-0.2188911-0.1202011l-0.0405359-0.2334838l0.1901388-0.3061233l0.0305901,0.1400905l-0.1371717,0.204947l-0.028861,0.1772747
			L13.2050467,5.1735182z M13.2373667,7.042253l-0.3695745,0.0795574l-0.0591278-0.0622621l0.0669107-0.1815987l0.1658163,0.0812869
			L13.2373667,7.042253z M12.5532379,7.9018192l0.003891-0.1245246l-0.0083227-0.1677623L13.260499,7.793725l-0.212081,0.0198894
			l-0.2913141,0.004324l-0.1681948,0.1115532l-0.0239973,0.1202006l-0.0959873-0.0406437L12.5532379,7.9018192z
			 M13.2196398,8.0211554l-0.0555611,0.278451l-0.2669926-0.1115532L13.2196398,8.0211554z M13.3142214,2.6475694
			l0.0229168,0.2507789L13.200182,2.8300326l-0.0459394-0.2507789L13.3142214,2.6475694z M13.3142214,3.5131888l-0.0911226,0.137496
			h-0.1369562v0.1815987L12.9269199,3.900599l0.0222673-0.2499142l0.1828957-0.1599796L13.3142214,3.5131888z M12.8128805,2.1918435
			l0.1821384,0.0458322l-0.0458317,0.1591148l-0.1822472-0.0907993l-0.0451832-0.2049468L12.8128805,2.1918435z
			 M12.4867592,3.0522745l0.1223631-0.0449672l0.0270233,0.1089592l0.1803017,0.2023525l-0.0214024,0.0977173l-0.1183634-0.066586
			l-0.106041,0.2014878l-0.1214981-0.0977173l0.0639925-0.1504674l0.2513189-0.0259426L12.4867592,3.0522745z M12.5277271,3.7466726
			l0.1429014,0.0008647l0.0027018,0.1738157l-0.1128502,0.1392257L12.575613,3.900599l0.0635595-0.1496027L12.4020138,3.759644
			l-0.0918798,0.1841927l-0.0634518,0.1496024l0.108202-0.0268073l0.3960581,0.2914224l0.0228081,0.2205124L12.616581,4.5949969
			l0.0812874-0.1357665l-0.4511862-0.3657913l-0.0027027-0.1738155l0.1690598-0.2092707L12.5277271,3.7466726z
			 M12.2204151,1.2803921l0.1822472-0.0683156l-0.0230246,0.2282953L12.1745834,1.531171L12.2204151,1.2803921z
			 M12.1523161,2.1010444l-0.0459404,0.2732625l-0.1821394,0.0458319l-0.0459394-0.1599796l0.0917721-0.2507789l0.0911236-0.1132829
			L12.1523161,2.1010444z M11.9012127,1.4403718l0.1140394,0.2049469l-0.1140394,0.0907992l-0.1821394-0.1141477
			l-0.205163-0.0224836V1.417888l0.1599798,0.0224837H11.9012127z M11.5369349,2.2835076H11.308856l-0.0451841-0.1824632
			l0.2502384-0.0224836L11.5369349,2.2835076z M10.6941233,0.9846459l0.3643856,0.045832l0.273263-0.1366312l0.205163,0.0674509
			l-0.0682077,0.1141476l-0.1598711,0.045832l0.1140394,0.1141475l0.0910149,0.0449673l-0.1140394,0.0683156l-0.2044067-0.1132829
			l-0.2280788-0.091664l-0.2961779-0.0224836L10.6941233,0.9846459z M11.2406483,1.6911505v0.1815985l-0.1592236-0.0449673
			L11.2406483,1.6911505z M10.6482906,1.3262241l0.0458326,0.1824633l-0.205163,0.0224836l-0.0458326-0.1824633
			L10.6482906,1.3262241z M10.6941233,2.4884546L10.5571671,2.602602V2.4201388l0.1140404-0.1366313L10.6941233,2.4884546z
			 M10.5841913,9.1392832l0.3776817,0.4220009l-0.3773575-0.133173l-0.5002613-0.0994463L10.5841913,9.1392832z
			 M9.8731461,9.5344763l0.2226744,0.3329306L9.6963043,9.845788L9.4519024,9.9123745L9.8731461,9.5344763z M9.1922598,10.8869524
			l-0.0521011,0.1565208L8.8845158,11.075469l-0.1042032-0.1037703l0.2200804-0.0605326L9.1922598,10.8869524z
			 M9.3854246,11.3331661l0.1328478,0.1997585l-0.2109995-0.0994473l-0.1556559-0.3778973L9.3854246,11.3331661z
			 M8.6806498,10.3274565l0.2436447,0.0285368l0.0037832,0.2914228L8.81674,10.6871948l-0.0723152,0.0484257l-0.0880966-0.0804224
			l0.103879-0.1037703l-0.0598841-0.1158772L8.5567732,10.531539l-0.0638838-0.0959883L8.6806498,10.3274565z M8.4291143,11.2752275
			l0.14744-0.1158772L8.752532,11.214695l-0.1516562,0.0319958l-0.0958796,0.0639915L8.4131165,11.354785L8.4291143,11.2752275z
			 M6.9098482,7.0483065L6.8948231,7.2091508L7.0088625,7.38729l0.0498314-0.1323071l0.0972848,0.0224833L7.0577211,7.3985319
			L6.844451,7.4841428L6.7699738,7.6830363L6.5510831,7.5628357l-0.1429009-0.00173L6.6859846,7.183208l0.1429009,0.000865
			L6.7637043,7.0163102L6.9098482,7.0483065z M6.6678247,6.7084579l0.0511289,0.1859221L6.6627445,6.9635606L6.6216683,6.8718963
			L6.5563793,6.704134L6.5395169,6.5476131L6.6678247,6.7084579z M6.467742,6.9203229l-0.028861,0.1772747l0.0552363,0.0743685
			L6.3338132,7.1564007l-0.0122147-0.268074L6.467742,6.9203229z M5.2376285,5.0325632L5.1599088,5.1994605L5.0490041,5.0524526
			L4.9490166,4.857018l0.1918674,0.0112414L5.2376285,5.0325632z M5.1380734,3.0263319L4.997335,3.2001476L4.8023324,3.1577747
			l0.0910158-0.0415082L4.8695674,3.0393033L4.715641,3.0868647L4.6744571,2.9960656L4.887835,2.90959l0.2339163-0.0397787
			L5.1380734,3.0263319z M4.54496,4.1851034L4.3947086,4.2637959L4.3937359,4.4064803l-0.142036-0.143549L4.269968,4.1340828
			l-0.1439819,0.14182l-0.099987-0.1954346L4.001894,4.0035048L3.8451571,4.0199351L3.8236463,4.1167879l0.0931773,0.134037
			L3.8464544,4.3373003L3.7456021,4.2845502l0.0324285-0.1461434L3.8241868,3.974968l0.0777199-0.1668978l0.1173904,0.209271
			L4.239377,3.9939926l0.1298213-0.1245248l0.0236731,0.0769632L4.514369,4.045013l0.039887-0.2265656L4.4263806,3.6567383
			l0.1082025-0.0268075l0.0725312,0.0873404l0.0685315,0.1997583L4.6541352,4.0147467l0.1356583,0.0804224L4.54496,4.1851034z
			 M4.7439618,4.719522L4.6557565,4.9348459l-0.31423,0.0337253L4.242404,4.6295872L4.1273913,4.5941324L3.998543,4.5751076
			l0.0703695-0.0864754L4.4580522,4.717792l0.1927323-0.1314425L4.7439618,4.719522z M3.8533723,6.0676746l0.0263751,0.2507787
			L3.800406,6.1688509L3.5815151,6.0477853L3.5409796,5.8143015l0.1901379-0.3052588l0.0305908,0.1392255l-0.1371717,0.204947
			l-0.028861,0.1772747L3.8533723,6.0676746z M3.7197678,5.0965548l0.0612893-0.3234181l0.1083107-0.0276723l0.0273478,0.1080942
			L3.7197678,5.0965548z M1.9696121,4.4549069L1.7960126,4.313952l0.1178228,0.0674505l0.1019331-0.0899343l0.0725312,0.0873404
			L1.9696121,4.4549069z M2.2840586,5.4856944L2.2813563,5.3118787l0.1690595-0.2092705L2.565104,5.1389279l0.1429007,0.0008645
			l0.0027022,0.1738157L2.5978565,5.4528337l0.0150251-0.1608443L2.676441,5.1432514L2.4393902,5.1518993L2.3475099,5.336092
			L2.2840586,5.4856944L2.392261,5.4580221l0.3959496,0.2922873l0.0228078,0.2205124L2.6538494,5.9872522l0.0813951-0.1357665
			L2.2840586,5.4856944z M2.8025873,6.7966628l-0.1237681-0.272398l0.032104-0.1461434l0.0256183-0.2092705L2.8375018,6.221601
			L2.776104,6.5458837L2.8025873,6.7966628z M2.8323131,4.8085914l-0.1182551-0.066586l-0.1060405,0.201488L2.4865193,4.8457761
			l0.0639918-0.1504674l0.2512114-0.0259428L2.5241361,4.4445295l0.1223629-0.0449672l0.0269156,0.1089592l0.1804094,0.2023525
			L2.8323131,4.8085914z M2.7639976,4.0060992L2.4949508,4.0190706L2.3561575,3.9066522L2.150562,3.9118409L1.8006607,4.0597138
			L1.5668526,4.1003575l0.054912-0.3874104l0.1411712-0.3156354l0.1018249-0.0907991L1.8007687,3.4569798L1.9222668,3.554697
			L2.0893807,3.632525L2.0384681,2.8438687l0.133929-0.236078l0.2837477-0.172951L2.3437266,2.5732005l0.1073377,0.1158772
			l0.0940421-0.0095124l0.0745852-0.1980288L2.905601,2.4832659l0.0735042-0.0553443L2.8197742,2.2696714L2.5694277,2.1529295
			l0.0183759-0.1288483l0.2849369,0.1444139l0.1379282,0.2559674l0.0327525,0.313906l0.0735042-0.0553441l0.0225918-0.240402
			l0.1305778-0.268074L3.081903,2.1944377l0.0115662-0.1919754l-0.1713297,0.03459L2.7973986,1.9073392L3.082011,1.590839
			l0.0726395,0.088205L3.1473,1.7586014l0.313906-0.0328606L3.4274807,1.5545193L3.2571239,1.4455602L3.5170908,1.195646
			l0.1319833,0.0501559l0.233808-0.0406436l0.1383605,0.2551028L4.0308633,1.555384l0.1172824,0.2101355l0.0296178,0.2827748
			L4.2325673,2.264483l0.1013923-0.0899346L4.2938566,1.9402l0.0352387-0.1141477l0.0241051,0.0760984L4.5596609,1.753413
			l0.3449287,0.1072296l0.0447512,0.1219304L4.987174,2.0422411L4.8716211,2.1494706L4.8433003,2.1840608L4.7696881,2.2394052
			l0.0164304,0.1573853l0.2643986,0.0994468L5.0391674,2.6873481L4.9628525,2.5688767L4.8623247,2.5152619L4.8756204,2.641516
			L4.8746476,2.7842007L4.6074386,2.5109382L4.3183942,2.4772127l0.065289,0.1677625l-0.0498314,0.133172l0.2853689,0.1444142
			L4.4890752,3.047086L4.4460535,3.2425206L4.5223684,3.360992l0.2196474-0.0224836l0.0022702,0.1746805L4.4866972,3.4760044
			l-0.232511-0.2455902L4.1138797,3.4042299L4.0413485,3.3160248L3.9025552,3.2036066l-0.004648,0.1124182l0.1067972,0.2585616
			L3.8466704,3.7337012L3.8269973,3.5451849L3.7023644,3.4154716L3.4507208,3.4422791L3.0043993,3.4258487L3.017695,3.5512381
			l0.0944743-0.0103769l0.1420362,0.1435492l0.1298213-0.1245246L3.3551655,3.7371604L3.1144392,3.7155416L3.0103445,3.6307955
			L2.9572701,3.7319717L2.9267876,3.5918815L2.913492,3.4664922L2.904412,3.2295494l-0.0831246-0.038914L2.73265,3.4059594
			L2.530838,3.3004591l-0.133929,0.236078l0.0552363,0.074369l0.1680868-0.0657213l0.0478857,0.1539264l0.1561964,0.1262541
			L2.8854954,4.104681L2.7639976,4.0060992z M3.520658,5.1657352L3.3949442,5.1787066l-0.100852-0.0527501L3.0816867,5.0688825
			l0.0529664-0.1011763l0.1594391,0.1582503l0.1118777,0.003459L3.520658,5.1657352z M3.0942256,4.1306238L3.2266412,4.179915
			L3.072823,4.2283411L2.9027905,4.1185174L3.0942256,4.1306238z M3.7512231,7.3648067L3.7428999,7.5879135L3.6140513,7.5688887
			l0.0256186-0.208406l0.0224836-0.2412663L3.6457231,6.9626956l-0.0305908-0.14009L3.4936342,6.7240233l-0.0803139-0.006918
			l-0.198245-0.074369L3.0689316,6.6098757L2.9406238,6.4490314l0.1265783-0.1556559L3.0977929,6.432601l0.3630888-0.0224838
			l0.3453615-0.0363197L3.7847323,6.4715147L3.6591268,6.4844861L3.6376159,6.5822034L3.6335084,6.6937571L3.663991,6.8329825
			l0.0270236,0.1089592l0.1424685,0.143549l0.1013925-0.0899343L3.7512231,7.3648067z M4.2002473,5.2842069L4.0137844,5.4787765
			L3.8850439,5.4606166L3.8055947,5.3101492l0.10777,0.1158772l0.2562916-0.2810454l0.3996248,0.1807342l0.1520886,0.2378073
			l0.0128632-0.3355246L4.855731,5.3265796l0.2187829,0.1202011l0.0794497,0.1504674L5.0378699,5.7053423L4.8464351,5.6932359
			L4.6057091,5.670752L4.0402675,5.7304201l0.1548991-0.1911106l0.1859221-0.1945701L4.2002473,5.2842069z M4.3793592,8.5045538
			l-0.13555-0.0804224l0.073504-0.0553446L4.2347293,8.1871881l0.1356583,0.0804224l0.0269156,0.1089592L4.3793592,8.5045538z
			 M4.8172498,5.8713751l0.3502254,0.3121767l0.2275386-0.1029062l0.1529536,0.0942583l0.0114579-0.1911106l0.1498189,0.063127
			l0.0777197-0.1668978l0.1288486,0.0190248L5.9074893,6.1221542l0.0794492,0.1496024l0.2165132-0.0544796l0.1146879,0.0363197
			L6.2135043,6.3115354l-0.027564,0.4955044L5.7181077,6.8874621l0.1403065-0.1729512l0.1639791,0.0458322l0.0215111-0.0977173
			L5.8320394,6.4628673L5.8224187,6.368609l0.1603041,0.0147009L5.7677231,6.1524205l-0.2869902,0.140955L5.1980658,6.3236418
			L4.86373,6.3106704L4.8294644,6.1394491L4.575983,5.9915762L4.8172498,5.8713751z M5.1524501,7.5507288L5.0953765,7.7634587
			L5.0149541,7.7556758l0.0256186-0.2092705L5.0210075,7.3578887L4.8885918,7.3085976l0.0159979-0.3035288l0.0206461,0.0458317
			L5.135263,6.9332938l0.1230116-0.1876516l0.1306858-0.2672091l0.0967445,0.1643033L5.568397,6.8243351L5.4765172,7.0085278
			L5.1549363,7.1218104L5.0708389,7.2255812L5.1524501,7.5507288z M4.8946452,6.9108105l0.0077829-0.0804224l0.1186872-0.0752335
			L4.9261007,6.9073515L4.8946452,6.9108105z M5.8309584,7.2100153L5.746861,7.313786L5.6276331,7.3898845L5.4813814,7.3570237
			L5.4056072,7.2376876L5.8309584,7.2100153z M5.3524246,9.6097097L5.3351297,9.5958738l0.0804219,0.006918L5.3524246,9.6097097z
			 M5.6247144,9.6287346L5.509594,9.5932798l0.2544541,0.005188L5.6247144,9.6287346z M5.773344,9.2326765L5.6467657,9.3883324
			l-0.142036-0.143549L5.4247398,9.2370005l-0.0182681,0.128849L4.9849038,9.2828331L4.9090219,9.163497L4.7624459,9.1315002
			l0.0009727-0.142684l0.2438607,0.0536146l0.1745725-0.002594L5.0132246,9.2482424L5.2260623,9.162632l0.2558594-0.138361
			l0.1471167-0.1106882l0.1571689-0.0164309l0.0163221,0.1573858L5.6974621,9.1133404L5.773344,9.2326765z M6.2189088,9.9953909
			l-0.0529661,0.1003113l0.000865-0.1426849L6.3140321,9.842329l0.0089717,0.2369432L6.2189088,9.9953909z M6.3671064,9.1375542
			L6.2415009,9.1513901l0.0492907-0.132308L6.0538487,9.02773l0.0808549-0.134902L6.388617,9.0407009L6.3671064,9.1375542z
			 M6.9258461,11.3072233l-0.0278883-0.1720858l0.1598716,0.0319958L6.9258461,11.3072233z M7.1229019,8.1698933L6.973083,8.1059017
			L6.8474774,8.1188726L6.6839309,8.073041L6.5821061,8.1629753l-0.07091,0.2291603L6.3083029,8.4301844L6.294251,8.4474792
			L6.2768474,8.4327784L6.1754551,8.5227137L5.8210139,8.3220901l0.0124307-0.3346601L5.7334571,7.7911305L5.6160669,7.5809951
			l0.0530744-0.1003113l0.0693965,0.0562091l0.0164304,0.1573853l0.3534684,0.344172l0.4992876-0.0847454L6.698091,8.0548811
			l0.2965031-0.0466967L6.9676785,7.9000897L7.0832314,7.79286l0.0757742,0.1193361l-0.1124182,0.138361L7.1229019,8.1698933z
			 M7.3973536,8.3627338L7.5229592,8.349762L7.620244,8.3713808L7.5293369,8.4128895l-0.1114454-0.004324L7.413784,8.5201187
			L7.2219162,8.5088768L7.3973536,8.3627338z M7.7374182,11.4066706L7.553442,11.3911047l-0.0675592,0.131443L7.481451,11.6470718
			l-0.0956635-0.1444139l0.271533-0.2153234l0.1162014,0.0441027L7.7374182,11.4066706z M9.2539816,12.7807655L9.129674,12.6726713
			l-0.1235523-0.004324L8.886137,12.7487698l-0.0242128-0.0882053l0.1079855-0.0198889l0.2199726-0.0596685l0.1876516,0.2032175
			L9.2539816,12.7807655z M13.4963608,10.4588995l-0.0079985,0.0406427l0.0524254,0.0518856l-0.2278633,0.2040825
			l0.0196733,0.5231762l-0.275857,0.0276728l-0.1239834,0.1003113l-0.0635595,0.1115532l-0.0958805,0.0639915l0.1918678-0.0242128
			l0.2234306-0.0795574l-0.0596676,0.0916643l0.1158772,0.2516432l-0.1480894,0.1158772l-0.0958796,0.4799395l-0.1954346-0.0596685
			l-0.064208,0.1115532l0.2920704,0.1003122l-0.0521011,0.1556549l-0.0998793,0.0838814l-0.0597763-0.0121059l-0.0918798,0.0441017
			l0.0317793,0.1521969l-0.1119852,0.0397787l-0.2837477,0.0674515l-0.1157694-0.1470089l-0.064208,0.1115541l-0.099987-0.0198898
			l-0.1355505,0.0562096l-0.1240921-0.004324L11.55023,13.124938l-0.4437275-0.0674505l-0.035779-0.132308L11.00284,12.849081
			l-0.1919756,0.0242138l-0.0756655,0.0683155l-0.1000957-0.0198898l-0.0998793-0.3320656l-0.2041903-0.1236601l-0.027564,0.3476315
			l0.0799904,0.1202011l-0.1437654-0.1124182l-0.2642908-0.3433075l-0.307745,0.1876516L9.576211,12.6060848l-0.0598841-0.1158772
			l-0.004324-0.1885157l-0.0003242-0.2075415L9.4202309,12.034482l-0.1319828,0.139226l-0.1877604,0.1080942l-0.0682068,0.132308
			L9.0321722,12.310339l-0.0878801,0.0242128l-0.0035677-0.0847454l-0.1079865,0.0207539l-0.1199846,0.0795574l-0.1198759,0.1841927
			l-0.271966-0.0959873l0.1878681-0.004324l0.0802059-0.1919756L8.340909,12.3380117l-0.2317543-0.0882053l-0.14009,0.0760984
			l-0.0955558-0.143549l0.2558599,0.0717745l0.0997705-0.0838814l0.0556688-0.0717745l0.040103-0.0959883l-0.1597633-0.0319958
			l-0.0962038-0.143549l-0.1235523-0.004324l0.0598841-0.3000698l0.1120939-0.0397787l0.0993395,0.0198889l0.1443052,0.0086479
			l0.0800982,0.1193361L8.2968063,11.622859l-0.0800972-0.1202011l-0.1036625,0.2075415l0.1317663,0.1720858l0.0880976,0.0804224
			l0.1636543-0.0925283l0.1240921,0.004324l-0.1078777,0.1236591l-0.1677628,0.0077829l0.0840979,0.1003122l0.2115402,0.0838804
			l0.1356583,0.0475616l0.0123234-0.2672091l0.0915556-0.2516432l-0.0116739-0.1478739l0.1399822-0.1798687l0.0875559,0.1833277
			l0.0522099-0.0518847l0.0799894,0.0164299l0.1478729,0.1954346l0.0876646,0.1841927l0.0759907,0.139226l0.0561008-0.1755457
			l0.099987,0.0198898l0.0957718-0.1677628l0.0597763,0.0121069l-0.0435619,0.1158772L9.91152,11.9661665l0.1681948-0.5275002
			l-0.2559671-0.1755457l-0.203866,0.0838814L9.5839939,11.214695l0.1596556-0.0717745l-0.3436317-0.4635086l-0.1278763-0.1919756
			l0.0678835-0.3398485l0.0556688-0.0717754l0.0199976,0.3156357l0.0997705-0.0838814l0.0523176-0.0518847l0.1958675-0.0441027
			l0.1196604,0.127984l-0.0559931,0.1755447l0.0844221-0.003459l-0.0121069-0.0441027l0.0838814-0.004324l0.2318621-0.2231064
			l0.1316586,0.0674505l-0.0757732,0.0683165l0.0236721,0.0873394l0.1199846-0.0795574l0.1242008,0.003459l0.0558844,0.136632
			l0.0916643-0.2525082l-0.1238766-0.2110004l-0.0717745,0.0475616l-0.1240921-0.004324L10.327035,9.9919319l0.1319828-0.1400909
			l0.199975-0.0639915l-0.060317,0.0925283l0.0599928,0.1158772l0.1323071,0.0674515l0.0638838,0.0959873l0.0959873,0.0397787
			l-0.040103,0.0959883l0.1037712,0.2075405l0.2759647,0.0760984l0.0198889-0.0994463l0.4713993,0.135766l0.0198898-0.2040815
			l-0.1916513-0.1833286l-0.0718822-0.0562086l-0.203866,0.0838814l-0.1717625,0.0276718l-0.0083227-0.1677618l0.1838684,0.0164299
			l0.1919756-0.0242128l-0.1317673-0.0683155l-0.1761942-0.263751l-0.0634508,0.2161894l-0.2281876-0.004324l0.1603041-0.0717745
			l0.0317802-0.2637501l0.1119852-0.0397787l0.1956511,0.1634378l0.0518847,0.1565208l0.1878681-0.004324l-0.0997705,0.0838814
			l0.1160927,0.0441027l0.1916513,0.1833277l0.0317802,0.1521969l0.0879889-0.3355246l-0.3234186-0.3554144l0.131875-0.2438602
			l-0.1404142-0.132308l-0.0599928-0.1158772L11.5058031,9.292345l-0.1595469,0.0717745l-0.2196474-0.0441027l-0.1000957-0.1236601
			l0.0679913-0.2360773l0.1599798,0.136631l0.1195526,0.0233479L11.310153,9.024271l-0.0117826-0.1470079l-0.1564121-0.0527506
			l-0.0116749-0.1478729l0.0839901-0.003459l0.0880966,0.1833277l0.0596676-0.0916634l0.1960831,0.0596676l0.0836658-0.1080942
			l-0.2475367-0.3190947l-0.1598711-0.135766l0.0635595-0.1124182l0.1323071,0.0683155l-0.0084314,0.143549l0.1564131,0.0518856
			l0.0199966-0.0994473l0.1234446-0.411623l0.0563164-0.0726395l-0.248292-0.0077825l-0.2076492-0.1037707l0.0717745-0.0475616
			l0.0441027-0.1158772l0.2036495,0.1236601l0.1520882-0.1357665l-0.0039988,0.0198894l0.2359695-0.1400905l0.3317413,0.1080947
			l-0.1603031,0.0717745l0.1002026,0.1236601l-0.0199966,0.1003113L12.1256161,7.857717l0.0554523-0.1764102l-0.1115532-0.063127
			l-0.203866,0.0838814l-0.0278883,0.1392255l0.0878811,0.3917341l-0.3274183,0.0804214l0.0678835,0.0760984l0.0196733,0.1072302
			l-0.040103,0.0959873l0.0602083,0.3242836l-0.3320656,0.0994463l0.2801809,0.1599798l0.2235384,0.0242128l0.2440777-0.0760984
			l0.0438862,0.0916643l-0.0319958,0.1599798l0.0799894,0.1202011l0.1678705-0.4237299l0.1360903-0.0562096l0.3511992,0.1115532
			l-0.0955553,0.272398l0.1478729,0.0916643l0.1838684,0.0164299l0.1556559-0.0527496l0.1240921,0.004324l-0.008215,0.2473192
			l-0.539175-0.1072292l-0.1680861-0.1997585l-0.2317543-0.0882053L12.413147,9.2240295l-0.103878,0.1046352l0.0518847,0.1556559
			l0.1202011,0.0242128l-0.1281996,0.0155659l0.0922041,0.1643038l-0.1640873,0.1954346l0.0760984,0.14009l0.2158651,0.271533
			l-0.1877604,0.1080942l-0.0157814,0.1833277l0.1354418-0.0553436l0.0963125,0.2473192l0.1915426,0.0804224l-0.1239843,0.0994473
			l0.0403194,0.1124182l-0.0003242,0.2075405l0.1281996-0.0164299l-0.0041075-0.0838814l0.3040695,0.0406437l0.071559-0.1521969
			l-0.1356592-0.0484266l0.0441027-0.1158772l0.131443-0.0354548l-0.0397787-0.1124182l-0.1601963-0.3433075l-0.2355375,0.0363197
			l-0.068099,0.2352133l-0.0638838-0.0959883l0.064208-0.1115532l-0.0762062-0.2438612l-0.0317802-0.1521959l-0.0039997-0.3951931
			l0.4397278,0.0873404l-0.1998663,0.0639915l0.1517649,0.0726395l-0.0681,0.2352133l0.2036505,0.1245241l0.031888-0.1599789
			l-0.0834494-0.1003122l0.2158642-0.143549l0.1358747,0.1513319l0.0394545-0.0959873l0.0363197,0.0285368l0.1040945,0.1037703
			l0.0675592,0.1798687l-0.2318621,0.2239723L13.4963608,10.4588995z M11.925642,8.6489677l-0.0038919,0.1236601
			l0.1799774,0.0363188l0.0238886-0.1202002l0.0759907,0.0363197l0.1274433-0.0164309L12.27349,8.7804098l0.0638828,0.0959883
			L12.2456007,9.024271l-0.4237289-0.1677628L11.8054409,8.624754l0.0159979-0.0795574l0.0723152-0.0484257l-0.0361032,0.0760984
			L11.925642,8.6489677z M12.2574911,8.4448853l-0.1159849,0.0605326l0.071991-0.2559671l0.1159849-0.0605326l0.0197811,0.1080942
			L12.2574911,8.4448853z M14.4065151,9.4730787l-0.3216887,0.1132832l-0.0840979,0.1037703l0.0817194,0.3251476
			l-0.0571814,0.2127295l-0.0804224-0.007782l0.0257263-0.2084064l-0.0196733-0.1893816l-0.1324148-0.0492907l0.0161057-0.3035288
			l0.0205383,0.0458317l0.2101355-0.1176062l0.1229029-0.1867876l0.1307945-0.268074l0.0967436,0.1643038l0.0825844,0.1815987
			L14.4065151,9.4730787z M14.5831413,8.1404915l0.0441027,0.1029062l0.0679913,0.0959873l-0.1332808-0.0112419
			l-0.0442104-0.1037703L14.5831413,8.1404915z M14.5849791,8.618701l0.1022568-0.004324l0.1031227-0.0441027l-0.0102692,0.0933943
			L14.694479,8.6377258l-0.0570745,0.0691805l-0.0856104-0.0259428L14.5849791,8.618701z M14.9280701,9.2404594l-0.141819,0.133172
			l-0.1625748-0.1729507l0.14182-0.133172l0.103447,0.1098242l0.0630188-0.0588036L14.9280701,9.2404594z M15.7687206,10.673358
			l-0.1182556-0.1262541l-0.1143637-0.2481842l0.0975008-0.1798687l-0.1182547-0.126255l-0.2009478,0.0700455L15.1184244,9.979825
			l-0.062911,0.0596685l-0.004323,0.1219301l-0.0630198,0.0596676l-0.0509119-0.3078527l0.3662233,0.0121069l0.2118654,0.0674505
			l0.1812735,0.0665865l0.162466,0.1738157l-0.2009478,0.0691805L15.7687206,10.673358z M16.0456581,11.0944939
			l-0.0673428,0.1815987l-0.1181469-0.1262541l0.1263618-0.1184711l0.1812744,0.0665855L16.0456581,11.0944939z
			 M16.8492317,11.2881994l-0.4893436,0.0146999l-0.1253891-0.3856802l0.1380367-0.0112419l0.2512112,0.268074l0.4576702,0.0147009
			l-0.0509109,0.1660328L16.8492317,11.2881994z M17.2871208,12.4175692l-0.3185539-0.0864763l0.1263638-0.1184711
			l0.2551022,0.1452789l0.1034451,0.1106882L17.2871208,12.4175692z M17.2318859,12.2325115l-0.2513199-0.268074l0.2638588-0.128849
			l0.1182537,0.1253901L17.294796,12.172843l0.2254848,0.1141481L17.2318859,12.2325115z M17.569788,10.7304325l0.1850586-0.0553446
			l0.0591259,0.0631266l0.0038929-0.1219301l-0.1812744-0.0674505l0.1889477-0.1772747l0.0552368,0.1850576l-0.066803,0.1815977
			l-0.2479668,0.1141481L17.569788,10.7304325z M17.8405647,13.260705l-0.1144714-0.2481852l0.0859337-0.2879629
			l-0.1220379-0.004324l-0.0630188,0.0596676l-0.0591278-0.0631266l0.0630188-0.0588036l0.1850586-0.0553446l0.0552349,0.1850576
			l0.245266-0.0233479l0.1773834,0.1893806L17.8405647,13.260705z M18.1025848,12.2774782l-0.2444,0.0674515l0.4213505-0.3787632
			l0.2225666,0.3337955L18.1025848,12.2774782z M18.6864033,12.6268396l-0.0552368-0.1850576l0.0037842-0.1219301
			l0.1182537,0.1253891L18.6864033,12.6268396z M18.4905357,11.760355l0.4999371-0.1885166l0.3776817,0.4220009l-0.3772507-0.133173
			L18.4905357,11.760355z M18.8763237,13.2529221l-0.0591259-0.0631275l0.0630188-0.0596676l0.1221466,0.004323l0.1181469,0.126255
			L18.8763237,13.2529221z M19.0181446,12.2740192l0.0669098-0.1815987l0.0552368,0.1850576L19.0181446,12.2740192z
			 M19.4339828,12.8438931l-0.003891,0.1219301l-0.103447-0.1098242l0.0673428-0.1815977l-0.1817055-0.0665865l0.1893806-0.1781397
			l0.0591278,0.0631275l-0.066803,0.1815987L19.4339828,12.8438931z M19.9162998,12.8949137l-0.0880966-0.0804224
			l0.103878-0.1037703l-0.0598831-0.1158772l-0.143549,0.0959873l-0.0638847-0.0959873l0.1877594-0.1080952l0.2436447,0.0285378
			l0.0038929,0.2914219L19.988615,12.846487L19.9162998,12.8949137z M20.1292458,13.260705l-0.0591278-0.0631275
			l0.0816116-0.1651678l0.1668987,0.0501556L20.1292458,13.260705z M20.7018223,13.1500158l-0.1811657-0.0674505
			l0.1893806-0.1772747l0.1625729,0.1729507L20.7018223,13.1500158z M21.7345543,13.260705l-0.0594501-0.1470089
			l-0.5634975,0.1400909l-0.1406307-0.1029062l-0.0648556-0.2602911l0.0977173-0.0700455l0.0867996-0.1132822l0.1406307,0.1029053
			l0.0432377,0.1738157l-0.1191196-0.1089592l-0.0810719-0.140955l-0.1356583,0.1945696l0.0918808,0.1841927l0.0810699,0.1409559
			l0.0434551-0.1029062l0.4713993-0.14009l0.1894894,0.1141472L21.7345543,13.260705z"/>
		<polygon fill="#FFFFFF" points="18.733099,1.6323472 18.5774441,1.5882448 18.5013447,1.7663842 18.7129936,1.7802203 		"/>
		<path fill="#FFFFFF" d="M17.0067253,2.7046432l0.0404263-0.0077829l0.006918-0.0925288
			C17.0378551,2.6389217,17.0227222,2.670053,17.0067253,2.7046432z"/>
		<path fill="#FFFFFF" d="M16.1508331,4.6641774l0.0487518-0.0536146l-0.1013927-0.1694922
			c-0.03578,0.0588036-0.0685329,0.1106887-0.1032305,0.1677628L16.1508331,4.6641774z"/>
		<path fill="#FFFFFF" d="M16.0571156,4.9114971l0.0984745-0.1452785l-0.306448,0.0795574
			c-0.0144844,0.0224833-0.0305901,0.0501556-0.0448589,0.0726395L16.0571156,4.9114971z"/>
		<polygon fill="#FFFFFF" points="16.7233009,4.9313865 16.8752823,4.8336692 16.6329346,4.8034029 		"/>
	</g>
</g>
<g id="Линейка" display="none">
</g>
<g id="Направляющие" display="none">
</g>
</svg>
