<svg id="Layer_1" data-name="Layer 1" xmlns="http://www.w3.org/2000/svg" viewBox="0 0 128 128"><defs><style>.cls-1{fill:#fff;}</style></defs><title>icon-school</title><path class="cls-1" d="M88,65.15a9,9,0,0,0-.82-3.55c-1.06-2.3-2.34-4.49-3.53-6.73l-3.94-7.39,2.9.14a2.8,2.8,0,0,1,2.58,1.7q2,4.25,4.12,8.49c.53,1.07,1,2.16,1.66,3.18a3.67,3.67,0,0,0,4.66,1.19,3.26,3.26,0,0,0,1.22-4.54c-.38-.68-.7-1.4-1.06-2.09-2-4.05-4.08-8.12-6.16-12.15a3.41,3.41,0,0,0-2.73-1.92c-4.33-.56-8.65-1.18-13-1.77a3.08,3.08,0,0,0-3.45,1.59c-.81,1.42-1.88,2.71-2.68,4.14a3.28,3.28,0,0,0-.39,2.2,23.19,23.19,0,0,0,1.57,4c1.85,3.9,3.76,7.76,5.63,11.65a2.79,2.79,0,0,1-1.09,4.06c-2.31,1.51-4.63,3-7,4.48a7.78,7.78,0,0,0-3.85,8,26.86,26.86,0,0,1,.14,2.76,1.06,1.06,0,0,1-.46.75c-.9.56-1.84,1-2.76,1.58-1.62.94-2.17.85-3.28-.63s-2-2.78-3-4.13c-.18-.24-.71-.5-.87-.41-1.79,1-3.55,2.15-5.36,3.26,1,1.28,1.9,2.47,2.8,3.67s1.91,2.42,2.74,3.7c1.53,2.35,5.83,2.66,7.66,1.34.78-.57,2.7-1,2.7-1.5v2.69c0,.86-.08,1.72-.06,2.57a4.24,4.24,0,0,0,3.76,3.8c2.42.19,4.24-2.38,4.24-4.36,0-4.29,0-8.57,0-12.86,0-1.48.13-3,1.5-4,4.35-3,8.69-6,13.12-8.8A4.63,4.63,0,0,0,88,65.15Z"/><path class="cls-1" d="M51.78,77.85a6.54,6.54,0,0,0,.58-7.54C50.55,67,48.82,63.74,47,60.48a1.28,1.28,0,0,1,.12-1.57q4.14-6,8.21-12a13,13,0,0,0,1-2.28c-.21-2.94-1.37-4.26-3.81-4a4,4,0,0,0-3.15,1.85c-4,6.2-7.92,12.4-11.93,18.56a2.88,2.88,0,0,0-.18,3.15c1.52,3.14,3,6.31,4.45,9.47.77,1.65.5,2.56-1,3.53l-3.09,2c-5.16,3.38-5,2.76-7.08,8.5-.1.29-.22.58-.32.87C29.36,91,28.38,93.44,27.65,96a3,3,0,0,0,3.09,3.86c1.67,0,2.74-.79,3.38-2.59,1-2.7,1.94-5.4,2.86-8.12A5.58,5.58,0,0,1,39.24,86Q44.61,82.6,50,79.18A7.75,7.75,0,0,0,51.78,77.85Z"/><path class="cls-1" d="M107.21,76.09c-.19-1.49-1.39-2.9-2.77-2.87a11.64,11.64,0,0,0-3.55.71,18.49,18.49,0,0,0-2.78,1.53c-2.27,1.28-2.94,1.13-4.43-1l-4.05-5.65-6.89,4.41c.33.48.59.88.88,1.26,1.93,2.56,4,5,5.78,7.68a7.13,7.13,0,0,0,8.75,1.95c2.32-1.25,4.62-2.53,6.91-3.82A4.57,4.57,0,0,0,107.21,76.09Z"/><path class="cls-1" d="M63.35,43.13a9,9,0,0,0,7.2-3.74A6.82,6.82,0,0,0,63.81,28.3a8.67,8.67,0,0,0-7.38,8.19C56.37,40.38,59.36,43.17,63.35,43.13Z"/><path class="cls-1" d="M31.71,57.46a8,8,0,0,0,10-6.43,5.8,5.8,0,0,0-3-5.74A7.61,7.61,0,0,0,27.91,51.7,5.53,5.53,0,0,0,31.71,57.46Z"/><path class="cls-1" d="M61.42,59.43c-1.63-.72-3.23-1.5-4.88-2.14A7.06,7.06,0,0,0,54,56.77a3.74,3.74,0,0,0-3.42,3,3.17,3.17,0,0,0,2.29,3.65c2.61,1,5.23,2,7.86,3a5,5,0,0,0,6-2c.74-1.11,1.39-2.29,2.19-3.34A2.44,2.44,0,0,0,69.08,58a24.2,24.2,0,0,1-1.24-2.59c-.4-.84-.83-1.68-1.34-2.72l-4.38,7C61.8,59.56,61.6,59.51,61.42,59.43Z"/><path class="cls-1" d="M30.88,76.62a2.09,2.09,0,0,0,.78-.22c2.3-1.64,4.59-3.29,6.89-5L35.87,65.9l-5.65,3.81c-.71-.72-1.35-1.34-2-2s-1.25-1.36-1.88-2a3,3,0,0,0-4.3-.4c-1.32,1.33-1.93,3.41-.46,5,1.7,1.78,3.41,3.56,5.17,5.28A4.31,4.31,0,0,0,30.88,76.62Z"/></svg>