<svg id="Layer_1" data-name="Layer 1" xmlns="http://www.w3.org/2000/svg" viewBox="0 0 128 128"><defs><style>.cls-1{fill:#fff;}</style></defs><title>icon-sport</title><path class="cls-1" d="M46.55,85.9l-3.6-3.61c2.51-2.81,3.34-6.36,3.79-10a65.54,65.54,0,0,0,.44-7c0-1.88-.23-3.76-.22-5.63a34.31,34.31,0,0,1,.36-3.63l7.37.46c-.13.83-.35,1.84-.46,2.87a16.15,16.15,0,0,0,1.7,9.73c1.87,3.37,4.89,5,8.52,5.74,4.54.91,8.81-.15,12.88-2.07a31.26,31.26,0,0,0,17-19.6A17.34,17.34,0,0,0,94.5,42c-1.67-4.76-5.18-7.4-10-8.29s-9.31.43-13.6,2.6c-.66.34-1.31.71-2,1.06,0,0-.05,0-.15,0a13.7,13.7,0,0,0-2.53-7.16,2.41,2.41,0,0,1,.35-.26A34.4,34.4,0,0,1,82.51,26a20.07,20.07,0,0,1,19.88,17,28.78,28.78,0,0,1-3.2,18.55,38.79,38.79,0,0,1-22,19.08,27,27,0,0,1-10.35,1.59c-.72,0-1.43-.15-2.14-.24a28.3,28.3,0,0,0-16.2,2.57A17,17,0,0,0,46.55,85.9Z"/><path class="cls-1" d="M44.07,28.32c3.1-3,11.51-3,14.75-.14-4.8,7.4-5,14.76-.07,22.21-3.25,2.84-11.17,2.84-14.67-.15a17.11,17.11,0,0,0,3.7-11A18.89,18.89,0,0,0,44.07,28.32Z"/><path class="cls-1" d="M38.12,83.68l7.08,7.08c-.08.09-.19.24-.32.37l-9.76,9.64a3.5,3.5,0,0,1-5.24.1c-.49-.45-1-.89-1.46-1.36a3.55,3.55,0,0,1-.29-5c3.26-3.62,6.59-7.18,9.9-10.76A.19.19,0,0,1,38.12,83.68Z"/><path class="cls-1" d="M41.64,48.16c-4.48-5.83-4.49-12,0-17.77C45.92,33.62,45.13,45,41.64,48.16Z"/><path class="cls-1" d="M61.34,30.32c4.55,5.92,4.49,12.05,0,17.82C58.2,45.62,56.81,34.4,61.34,30.32Z"/></svg>