<svg id="Layer_1" data-name="Layer 1" xmlns="http://www.w3.org/2000/svg" viewBox="0 0 128 128"><defs><style>.cls-1{fill:#fff;}</style></defs><title>icon-factory</title><path class="cls-1" d="M79,70V57c0,.12-.06.19-.21.29C76.15,59,73.64,60.69,71,62.45a106.37,106.37,0,0,1-11.8,7.44c-.46.23,1.77.45-1.23.71V50H49V70H44V50H37V69.68A33.86,33.86,0,0,0,32,70v32h68V56.94A129.57,129.57,0,0,1,79,70ZM52,92H41V82H52Zm21.26-.37a3.1,3.1,0,0,1,0,.37H62V80.91a3.19,3.19,0,0,1,.46,0H72.8c.27,0,.45.09.45.43C73.23,84.72,73.26,88.21,73.26,91.63Z"/><path class="cls-1" d="M43.06,45.15A15,15,0,0,0,46,43.94a4.09,4.09,0,0,1,4.69.42c.37.29.76.56,1.15.81a9.39,9.39,0,0,0,11.82-.85,10.64,10.64,0,0,1,.94-.72,3.94,3.94,0,0,1,4.55-.2c.84.5,1.63,1.1,2.44,1.65a13.23,13.23,0,0,0,8.89,2.44A16,16,0,0,0,90.1,43a13.36,13.36,0,0,0,4.29-9.78c-.08-.75-.15-1.75-.31-2.73A15.77,15.77,0,0,0,90,22,14.62,14.62,0,0,0,68,23.1a12.86,12.86,0,0,1-1.12,1.24,3.78,3.78,0,0,1-4.17.95,13.2,13.2,0,0,1-1.3-.54,9.33,9.33,0,0,0-10.2.85A14.26,14.26,0,0,0,48.1,29a4,4,0,0,1-4.45,1.76,10.77,10.77,0,0,0-2.1-.21,7.37,7.37,0,0,0-7,9.69A7.17,7.17,0,0,0,43.06,45.15Z"/></svg>