<?xml version="1.0" encoding="utf-8"?>
<!-- Generator: Adobe Illustrator 17.1.0, SVG Export Plug-In . SVG Version: 6.00 Build 0)  -->
<!DOCTYPE svg PUBLIC "-//W3C//DTD SVG 1.1//EN" "http://www.w3.org/Graphics/SVG/1.1/DTD/svg11.dtd" [
	<!ENTITY ns_flows "http://ns.adobe.com/Flows/1.0/">
	<!ENTITY ns_extend "http://ns.adobe.com/Extensibility/1.0/">
	<!ENTITY ns_ai "http://ns.adobe.com/AdobeIllustrator/10.0/">
	<!ENTITY ns_graphs "http://ns.adobe.com/Graphs/1.0/">
	<!ENTITY ns_vars "http://ns.adobe.com/Variables/1.0/">
	<!ENTITY ns_imrep "http://ns.adobe.com/ImageReplacement/1.0/">
	<!ENTITY ns_sfw "http://ns.adobe.com/SaveForWeb/1.0/">
	<!ENTITY ns_custom "http://ns.adobe.com/GenericCustomNamespace/1.0/">
	<!ENTITY ns_adobe_xpath "http://ns.adobe.com/XPath/1.0/">
]>
<svg version="1.1" xmlns:x="&ns_extend;" xmlns:i="&ns_ai;" xmlns:graph="&ns_graphs;"
	 xmlns="http://www.w3.org/2000/svg" xmlns:xlink="http://www.w3.org/1999/xlink" xmlns:a="http://ns.adobe.com/AdobeSVGViewerExtensions/3.0/"
	 x="0px" y="0px" viewBox="0 0 14 14" enable-background="new 0 0 14 14" xml:space="preserve">
<metadata>
	<sfw  xmlns="&ns_sfw;">
		<slices></slices>
		<sliceSourceBounds  width="16383" height="16613.0410156" y="-8732" x="-7606" bottomLeftOrigin="true"></sliceSourceBounds>
		<optimizationSettings>
			<targetSettings  fileFormat="PNG24Format" targetSettingsID="0">
				<PNG24Format  transparency="true" noMatteColor="false" matteColor="#FFFFFF" filtered="false" interlaced="false">
					</PNG24Format>
			</targetSettings>
		</optimizationSettings>
	</sfw>
</metadata>
<g id="фон">
</g>
<g id="контент">
	<g>
		<polygon fill="#FFFFFF" points="2.5954866,1.3679024 2.5892406,1.5264434 2.6092894,1.4468645 2.6985843,1.409851 		"/>
		<polygon fill="#FFFFFF" points="3.3877282,1.2611804 3.3655202,1.1865367 3.3073783,1.1809846 3.2855556,1.2383554 		"/>
		<path fill="#FFFFFF" d="M1.9580845,1.3012782c-0.0129547,0.0098703-0.025601,0.0203574-0.0384786,0.0302277l0.0192008,0.011104
			L1.9580845,1.3012782z"/>
		<polygon fill="#FFFFFF" points="2.9948461,1.4801766 3.075196,1.5116379 3.0848351,1.4666049 3.0041766,1.4123186 
			2.8003714,1.4067665 2.9296098,1.561606 		"/>
		<polygon fill="#FFFFFF" points="2.7060642,1.6584579 2.8205745,1.7004064 2.8626773,1.5973858 2.748244,1.5554372 		"/>
		<polygon fill="#FFFFFF" points="3.2470772,1.212446 3.1308703,1.1143605 3.1239305,1.2617973 3.2052829,1.3271877 		"/>
		<path fill="#FFFFFF" d="M11.0747242,3.9076407h-0.1051035l0.0382471-0.0764945h0.1802864
			c0.0385561-0.0925336,0.0603781-0.1943204,0.0603781-0.3010426c0-0.1091895-0.0229015-0.2128272-0.0631542-0.3065946h-0.0098696
			l0.004549-0.0080194c-0.0198946-0.0450332-0.0534382-0.0808127-0.0811205-0.1202939v0.022825l-0.0385561-0.0764945h-0.0669327
			l0.0242128-0.0647733c-0.1404963-0.1388004-0.3335066-0.2251651-0.5476446-0.2251651
			c-0.0016193,0-0.0030069,0.0012338-0.0046263,0.0012338l0.0303049,0.0302277h-0.0765715l0.0383244,0.1147416l-0.0383244,0.0289938
			l-0.0286083-0.067241h-0.0765715l0.0383244-0.0764945l0.0015421-0.0080197
			c-0.1493645,0.022825-0.2842321,0.0808127-0.3924971,0.1758139L9.9310083,3.0415263L9.8369331,3.1007478
			c-0.0336208,0.0499682-0.0684748,0.0968518-0.090066,0.1536057l0.1075697,0.0931506L9.892684,3.4246154L9.8161898,3.3475041
			L9.7492571,3.3092568H9.7357626C9.7144032,3.3808162,9.6915007,3.4517586,9.6915007,3.5301037
			c0,0.4318233,0.346693,0.7791328,0.7785158,0.7791328c0.1961718,0,0.3697491-0.0789623,0.5063906-0.1980219l-0.0067863-0.0215912
			l0.014266,0.0166559c0.0662384-0.0586047,0.117672-0.1295469,0.1605453-0.208509L11.0747242,3.9076407z M10.8930492,3.3043218
			h0.1530666l-0.1530666,0.067241V3.3043218z M10.8021355,2.9267848l0.0382471-0.0289938v0.067241l-0.0764942,0.0382473
			L10.8021355,2.9267848z M10.1223221,3.2235091l-0.0668554,0.0382473L9.9310083,3.1945152l0.086134-0.0764945l0.1437349,0.0764945
			L10.1223221,3.2235091z M10.3522682,3.4246154l-0.0383244,0.0382473l-0.1147423-0.1153586l0.0382471-0.1239951
			l0.0764952,0.0857477l-0.0764952,0.0382473h0.181675l0.0383244,0.0771112H10.3522682z M10.5339422,3.5011098V3.4529924
			l0.0862103,0.0764945L10.5339422,3.5011098z M10.5339422,3.4048748V3.3475041l0.0382471-0.0382473v0.0771115L10.5339422,3.4048748
			z M10.4956951,3.1945152l-0.1051798-0.191236l0.1051798-0.0382473v0.0764945l0.2009516,0.1819828l0.0289173,0.0857477
			L10.4956951,3.1945152z M10.6966467,3.0797737V3.0032792l0.1437359,0.0764945l0.0383244,0.1147416l-0.0765715,0.0289938V3.1180208
			L10.6966467,3.0797737z M10.9312963,3.5344219H10.816247V3.4863045l0.1150494-0.0382473l0.1434278-0.0764945v0.2393537
			L10.9312963,3.5344219z"/>
		<polygon fill="#FFFFFF" points="1.1135613,2.8607774 1.1794915,2.790452 1.1329162,2.7466528 1.0857241,2.6917496 
			1.0549567,2.7941532 1.0787841,2.8274653 		"/>
		<path fill="#FFFFFF" d="M2.0951884,1.1920886C2.0498469,1.2223163,2.0078213,1.2636479,1.9634051,1.29696l0.1212962,0.0074028
			L2.0951884,1.1920886z"/>
		<path fill="#FFFFFF" d="M1.152117,2.2599261L1.1488012,2.1495028c-0.0260637,0.0407147-0.0488114,0.0820465-0.0727931,0.123378
			L1.152117,2.2599261z"/>
		<polygon fill="#FFFFFF" points="1.4113652,4.4801149 1.4893247,4.4437184 1.454162,4.3999195 1.352375,4.4030037 
			1.3316321,4.4714785 1.343353,4.4825826 		"/>
		<path fill="#FFFFFF" d="M2.888047,2.0600536l0.0128005,0.0067859c0.045033-0.0252926,0.0922251-0.0493512,0.140728-0.0721762
			l0.0103331-0.1202937L2.9692452,1.7528421L2.9264483,1.8330379L2.8591301,1.8577135l0.0389411,0.1573071L2.8070028,2.0063841
			L2.7180164,2.0538847L2.697659,2.1229765l0.0399437,0.0376303C2.7816331,2.1303792,2.833452,2.1044698,2.8800273,2.0779433
			L2.888047,2.0600536z"/>
		<path fill="#FFFFFF" d="M9.9003954,8.5694818l-0.1155128-0.108572L9.721343,8.5318518L9.7029133,8.6472101l0.0998592,0.0586052
			l0.0211287,0.0530519c0.036396-0.0586042,0.0658531-0.1215267,0.0987024-0.181982L9.9003954,8.5694818z"/>
		<polygon fill="#FFFFFF" points="5.4704275,1.0316972 5.4772134,1.099555 5.6194839,1.0452687 5.6397643,0.9841965 
			5.5449944,1.0045539 		"/>
		<polygon fill="#FFFFFF" points="6.1612678,0.9841965 6.0799928,1.0045539 5.9648652,0.9570534 5.9174418,1.0656261 
			6.012289,1.0249113 6.093564,1.0181255 6.134202,1.0656261 6.1274161,1.139653 6.1884112,1.1532246 6.1816254,1.0853666 
			6.2357574,1.0724119 		"/>
		<polygon fill="#FFFFFF" points="2.493237,1.7213807 2.5957179,1.7411212 2.642216,1.7849205 2.6732919,1.6936207 
			2.5584731,1.640568 2.4412639,1.4968326 2.2967572,1.5807297 2.3683937,1.7139781 2.4145834,1.7466732 2.4005492,1.6455032 
			2.4905381,1.6313146 		"/>
		<polygon fill="#FFFFFF" points="8.6985388,8.66325 8.7510509,8.6620159 8.8813696,8.6780548 8.9180746,8.536787 
			8.8937073,8.4806499 8.742569,8.5657806 		"/>
		<polygon fill="#FFFFFF" points="9.1255035,6.3381891 9.2022295,6.3930926 9.247263,6.3486762 9.2058544,6.2802014 		"/>
		<path fill="#FFFFFF" d="M0.6411774,10.4806089l0.0934589-0.0777283l0.0780367-0.054903l-0.0544406-0.054286l-0.054749,0.0462666
			L0.687984,10.2776518l0.0702484-0.0388641l0.0390183,0.0388641l0.06994-0.0074024l0.0546719-0.0314617L0.875056,10.1610594
			H0.937362l0.0390183-0.0388641l-0.0078654-0.054903L0.8828443,10.082715l-0.0468066,0.0468836l-0.0623831-0.054287
			l0.0157307-0.0623055L0.719214,9.9346609L0.6958493,10.082715l0.038787,0.109189l-0.06994-0.0777283L0.594525,9.9815445
			l0.0466524-0.1400337L0.6099473,9.7711849l0.0078654-0.0388641l0.0545177,0.0308447L0.6489657,9.8489132l0.0623831,0.0234423
			l0.0156536-0.0777283v-0.054904l0.1168236-0.0777283l0.0545177-0.0234413l-0.06994-0.054286L0.7582324,9.4670582
			L0.656831,9.4516354L0.570929,9.3813105l0.085902-0.054287l0.0778053,0.054287l0.031153,0.0468836l0.0547491,0.0857477
			l0.0778053-0.1326313L0.8595566,9.264101L0.8516913,9.209815l0.0466523-0.0080204l0.0701713,0.1560736l0.1325544,0.1011705
			l-0.038787,0.0629225l0.0544405,0.0154219l0.0780367-0.0234413l0.0154994-0.0783453L1.0699162,9.3344269V9.2486792
			L0.9685149,9.1709509l0.054749-0.1714964L0.906209,9.0617609L0.7346363,9.046339V8.9211102l0.0626144,0.0314608
			l0.0232877,0.0857477l0.0232876-0.0703249l0.085902-0.1949377L0.8360377,8.7422113v0.0623064L0.750367,8.7964983
			l0.0154222-0.0857477l0.0702484-0.0857477l-0.038787-0.0623064L0.6958493,8.6015606L0.633312,8.6175995v0.0931511
			L0.570929,8.6799059l0.0312301-0.0783453L0.6489657,8.555294L0.6099473,8.4695463l0.0702484-0.0080194l0.0232876-0.0468845
			L0.7736546,8.391201v0.0857477L0.7034833,8.5084105l0.0937673,0.0154219l0.038787-0.0623055l0.0077882-0.10919
			l0.0545177,0.0234413l-0.038787,0.0623064l0.1168237-0.0777283L1.0777045,8.391201l0.1170549-0.0777283l0.0778054,0.054286
			l0.0468836-0.0462666l-0.031153-0.054903l0.0623059,0.0857477l-0.031153,0.0308447l0.0623831,0.0234413l0.0780367,0.0314617
			L1.5533271,8.336915l0.0856707-0.1172094l0.0229791,0.0308447C1.6618228,8.2024326,1.6617457,8.155549,1.6618228,8.1080484
			L1.6389978,8.118535L1.4598682,8.0562296l0.0154223,0.0703249L1.4286381,8.0796709l0.007634-0.0703249l0.1013243-0.0080194
			l0.0702484,0.0314608l0.053978,0.0104876C1.662671,7.6429129,1.668223,7.2740121,1.668223,7.000113
			c0-0.4990644-0.0195092-1.2973208,0.0099473-2.0672002L1.6740063,4.935997L1.6150162,4.8588858l0.0661615,0.0111041
			c0.0031615-0.0752606,0.0067086-0.1499043,0.0109497-0.2245483L1.6871923,4.6300197L1.6406171,4.5868373L1.6044519,4.508492
			L1.5362084,4.4992385L1.4247826,4.5479732L1.343353,4.4825826H1.3320177L1.3316321,4.4714785L1.263697,4.4622254
			L1.2237533,4.2598853L1.3562306,4.15378l0.0421799-0.1030207l0.0417172-0.1141248l0.0562141-0.0129547l0.0013881,0.045033
			L1.4429038,4.0267005L1.4276357,4.2759242l0.1971736,0.164093L1.6158644,4.507875l0.079656,0.0678582
			c0.0070171-0.1122742,0.0172729-0.2183795,0.0272974-0.326335L1.7094004,4.2339759L1.72436,4.2327418
			c0.0150367-0.1591578,0.0344688-0.309062,0.0574479-0.4515636L1.7399365,3.7466323l0.047809-0.0018508
			C1.8070234,3.630657,1.8291543,3.5251687,1.8545239,3.426466l-0.06994-0.0660071L1.6790957,3.2278273l0.0541321-0.0690918
			l-0.0268347-0.146203l0.1259228,0.0524359L1.8280747,3.3024712l0.0551347,0.0259094
			C1.8992485,3.2753279,1.9119718,3.213022,1.9304014,3.1667552c0.0109499-0.0271432,0.0261408-0.0475006,0.0374761-0.07341
			l-0.057602-0.0758774L1.8392559,2.9175315L1.6295903,2.7201264L1.754125,2.7164252l0.1358701,0.0074027L1.8534443,2.6343787
			L1.7172658,2.6275928L1.6817175,2.5720727l0.0314614-0.0801959L1.7045424,2.5714557l0.1923927,0.0055521L1.9596267,2.789835
			L1.9185263,2.9267848l0.1328629-0.1061051l0.0023904,0.0795789l0.0040097,0.0185068
			C2.1048272,2.8324006,2.1600389,2.744802,2.2191062,2.667074l-0.081121,0.0265262L2.0214698,2.5844104l0.0973146-0.1499043
			L2.0943401,2.3783691L2.0587919,2.322849l0.0565996-0.0018508l0.0406377,0.2251651L2.270154,2.5770078L2.2597439,2.6177225
			c0.0522814-0.0653903,0.0973144-0.1313975,0.1617024-0.196171h0.0001543L2.3892138,2.4036617L2.3091722,2.3722003
			L2.2539606,2.4190838L2.2622886,2.31668l0.0555973-0.0357795L2.2157905,2.2728808l0.0421028-0.1030207L2.279253,2.1353142
			L2.2213426,2.080411L2.1768491,2.1044698L2.1564918,2.1840487L2.0998921,2.1858993l-0.013109-0.0561371l0.0669327-0.0357797
			L2.2316754,2.057586l0.0896804-0.0252924L2.2796385,2.1464183l0.081661,0.0771112l0.09076,0.0086365L2.4303141,2.266712
			l0.0023904,0.0789618l0.1000135-0.0598383l0.0196633-0.1024039l0.0462668,0.0326953L2.588932,2.2728808L2.5772884,2.2932382
			c0.0340831-0.0289938,0.0684748-0.0598383,0.1032519-0.0857477L2.6417534,2.1470351l0.01735-0.1702617L2.5462894,1.9804747
			l0.009639-0.0573708L2.5532296,1.8330379L2.5087364,1.8682007L2.4448881,1.9946632L2.3313804,1.9866437L2.3973105,1.916935
			L2.405947,1.8262521L2.3125651,1.7386537L2.1715286,1.561606L2.1277294,1.6084898l0.0351627,0.0326952l-0.008328,0.101787
			l0.0906827,0.0086365l-0.077574,0.0475005L2.0966535,1.6997895l-0.0020821-0.067858L2.0383573,1.6448863l0.0434909-0.0579877
			l0.0437992-0.0462668l0.0879841-0.0820464L2.2012165,1.4135523L2.0891736,1.4511826L2.0629559,1.3389086L1.9280881,1.3654349
			L1.9180636,1.4110848l0.0807356,0.0425655L1.9556168,1.5227419l0.0030845,0.101787L1.8717197,1.7405043l-0.0023904-0.078962
			L1.7755619,1.562223L1.772863,1.4721569L1.7605252,1.4585854C1.705622,1.5067028,1.6456294,1.5387812,1.5923455,1.5924506
			C1.4937201,1.691153,1.426479,1.7997258,1.344741,1.9033635h0.0003085l0.0240587,0.0555201l0.0468837,0.0555201
			L1.3501388,2.0730083L1.2594559,2.0754759l0.066547-0.0475006L1.404271,2.0032997L1.3293959,1.922487
			C1.2859823,1.9786241,1.235243,2.0322936,1.1963788,2.0896645l0.0119523,0.1573069L1.131374,2.3284011L1.0749285,2.2753484
			C1.0577327,2.3049591,1.0473998,2.3370373,1.0311294,2.367265l0.0125691,0.0542865L0.9906459,2.4523959
			C0.9274146,2.5776248,0.8567035,2.700386,0.8094343,2.8324006l0.056137,0.0579877L0.8090487,2.8922389L0.7997183,2.9489927
			l0.06994,0.0771115L0.766946,2.9841557C0.6362423,3.4030242,0.5659168,3.8459516,0.5430147,4.317256
			C0.4918128,5.2142148,0.5004492,6.1031542,0.5004492,7.000113S0.4918128,8.7860107,0.5430147,9.68297
			c0.0133402,0.2738991,0.0424112,0.5385447,0.0878298,0.7957888L0.6411774,10.4806089z M1.93071,1.8293365l0.0247527,0.0666242
			L1.8862166,1.8527784L1.8721054,1.7516084L1.93071,1.8293365z M1.9112008,2.3049591l0.0461897,0.0326953L1.9250036,2.3833041
			L1.7666942,2.3882394L1.9112008,2.3049591z M0.5749388,4.5054078L0.5746303,4.4943037l0.0237503,0.0333118L0.5749388,4.5054078z
			 M0.812673,8.0401907L0.6411774,8.1419773L0.6099473,8.1031132L0.687984,8.0401907H0.750367l0.0701713-0.0388641
			L0.812673,8.0401907z M0.6576792,4.6164479L0.6332349,4.5603108l0.0820464,0.0993195L0.6576792,4.6164479z M0.7479765,7.4633975
			l0.0116438-0.0586047L0.777356,7.4578457L0.7361014,7.5047293H0.6891406L0.7479765,7.4633975z M0.8594024,5.4492502v0.0296106
			H0.7889998l0.011798-0.0357795L0.830023,5.4609709l0.0588359-0.0530524l0.0468837,0.0234418L0.8594024,5.4492502z
			 M0.8947194,5.6016221L0.8477586,5.6256809V5.5664592l0.0351628-0.0055518L0.8947194,5.6016221z M0.8359606,7.7039847
			l0.0059376-0.0351624l0.0293794-0.0289941L0.8947194,7.66327L0.8888589,7.6984329l0.0822007,0.0530524l0.0116438,0.0468836
			L0.9476178,7.7749271l-0.023519-0.0357795L0.8888589,7.7280436L0.8359606,7.7039847z M1.1942197,7.4344039l0.0353171,0.0407147
			L1.147259,7.5164504l0.0763402,0.0234418l0.0411003-0.0117211l0.1116573,0.0882154L1.358544,7.6453805L1.3469001,7.6805429
			l-0.011798-0.0407147L1.305877,7.6571012l0.0292251,0.0764947l-0.0821235,0.082046L1.235243,7.7866483l0.0412545-0.0764947
			L1.2587619,7.6571012l0.0528213-0.0524354l-0.0293794-0.03578L1.2529786,7.5571651L1.2177387,7.5812235L1.147259,7.563334
			L1.1060815,7.4930081L1.1002982,7.4220657l0.0586046,0.0413318L1.1942197,7.4344039z M1.1648403,5.0852847l0.0411774,0.0234418
			l0.011721,0.0764942L1.1766384,5.1494412L1.1648403,5.0852847z M1.1942197,7.7335958H1.1060815L1.0943606,7.7749271
			L1.0591208,7.7335958l0.0587587-0.0413318h0.0528984L1.1942197,7.7335958z M1.091199,4.7385921L1.0446239,4.6947927
			l0.0669326-0.0246754l-0.081738-0.0875983L1.108472,4.5683303l0.0272202,0.1468201L1.091199,4.7385921z M1.0943606,4.1278706
			L1.0591208,4.1217017L1.0943606,4.080987L1.023958,3.9514399L1.0005162,3.9107251l0.0938444,0.0764945l0.0235189,0.0586045
			l0.0059376,0.0468836L1.0943606,4.1278706z M1.0121599,4.24508l0.0528213,0.0178895L1.0473998,4.2925801L1.0121599,4.3043013
			L0.9827034,4.3160224L0.9063632,4.3394642l-0.064465,0.0172729L0.830023,4.3277431l0.0763402-0.0351629l0.0471922-0.0061688
			V4.24508l0.029148,0.0117207L1.0121599,4.24508z M1.1322223,7.9316173l0.0235189,0.0697093L1.0622823,7.9316173
			L0.9297279,7.9155784l0.06994-0.0542865L1.1322223,7.9316173z M1.3273139,7.9235978l0.0232875,0.0703259L1.3115832,8.0796709
			L1.1869713,8.1419773L1.1791059,8.2042828L1.1010693,8.1808414H1.0153986L0.875056,8.1265545l0.1013243-0.0468836
			L0.992111,7.9704814L1.0465516,8.009346l0.0157307,0.0703249h0.0934589l0.1168237-0.0394802V7.9704814L1.2259896,7.900156
			l0.1636302,0.0080194L1.3273139,7.9235978z M1.3820629,7.0698214l0.0236732-0.0289936L1.3528377,7.0346589L1.3115832,7.017386
			l0.0647736-0.0234423l0.064465,0.0524359L1.4057361,7.099432L1.3820629,7.0698214z M1.4173799,6.9057283V6.8471241
			l0.0469608,0.0234418l0.0058604,0.117209L1.4173799,6.9057283z M1.481922,7.1993685l0.0587589,0.0117211v0.0764942
			L1.481922,7.2986879L1.4408218,7.2696939L1.481922,7.1993685z M1.517162,7.7218747l0.0469607,0.0061688l-0.064465,0.0586047
			L1.4349613,7.7983689l0.011798-0.0468836l-0.023519-0.0234418L1.4173799,7.5812235l0.0704026-0.0943842l0.0353171,0.0351629
			l0.0235189-0.0468836l0.0293794,0.0178895l-0.0235189,0.064157L1.481922,7.5867758v0.117209L1.517162,7.7218747z
			 M1.5876417,7.1580367L1.5524789,7.1345949V7.1049843L1.5055181,7.099432l0.023519-0.0351624l0.0057062-0.0764947
			l0.0528984,0.0234418L1.5347433,7.0698214l0.0469608,0.0413318l0.0353169,0.0234418L1.5876417,7.1580367z M1.4937201,6.8347859
			l0.1116573,0.0061693L1.5524789,6.8940077L1.4937201,6.8347859z M1.6170211,6.5300422l0.0059376,0.0586047L1.5582622,6.6355305
			l-0.0351627-0.01789l0.0645422-0.0234418L1.6170211,6.5300422z M1.5113015,5.7959423l0.0234418-0.0530524l0.0469608-0.0413318
			L1.5113015,5.7959423z M1.5055181,4.6503768l0.0411004,0.0413318L1.4996576,4.7620339L1.4526969,4.7324233L1.5055181,4.6503768z
			 M1.4702011,6.7237458L1.481922,6.7879024L1.3997985,6.735467L1.4702011,6.7237458z M1.3938609,6.735467L1.3880005,6.7706294
			v0.0468841L1.3410397,6.7940712L1.358544,6.7410188L1.3938609,6.735467z M1.2999394,4.8440804L1.305877,4.926744
			l0.0410231,0.0758772L1.2822038,4.9853482L1.2060177,4.9791794l-0.047115-0.0172729L1.235243,4.9791794L1.2999394,4.8440804z
			 M1.2471181,4.5214467L1.1824217,4.5744991l0.0177356-0.0357795L1.2177387,4.509726L1.1766384,4.4683943l0.0175813-0.0296106
			L1.2471181,4.5214467z M1.5860994,3.8983874L1.5174704,3.877413L1.4816136,3.8107889l0.0206658-0.0684748L1.653649,3.8959198
			L1.5860994,3.8983874z M1.6280479,2.2907705L1.6149391,2.2346337L1.5667444,2.1340804l0.0562142-0.0129547l-0.0080196,0.113508
			l0.0355483,0.0437992l0.0241358,0.0561371L1.6280479,2.2907705z M1.5344349,1.8071284L1.6275082,1.894727L1.6220334,1.7139781
			l0.0576022,0.0320783L1.6468631,1.7923231L1.6285107,1.9286559L1.5840174,1.9527147L1.5706,1.8854736L1.4581717,1.911383
			L1.4557813,1.8318042L1.5344349,1.8071284z M1.3561535,2.649801l0.0762631-0.0931506l0.1800549-0.02776L1.5689807,2.5868781
			L1.44514,2.6016834L1.3674889,2.649184l0.0710195,0.1110404L1.3509099,2.8533747l0.0313843-0.0801957L1.3561535,2.649801z
			 M1.5607299,3.4351025L1.4706638,3.449291L1.4589429,3.4381869l0.0334663-0.0234418L1.5607299,3.4351025z M1.4261706,3.4733498
			l-0.0107185,0.022825l0.1145103,0.0419486l0.1124283-0.0148056l0.1459717-0.0382471L1.7572865,3.5763705L1.7147982,3.6682873
			L1.6137053,3.6935797L1.4641093,3.607832L1.3964827,3.6096826l-0.0977,0.1388004L1.1984608,3.7966003L1.1746335,3.7632883
			l0.088678-0.0592215l0.0659301-0.0697086l-0.0248299-0.067241L1.4261706,3.4733498z M0.8720487,3.1050661l0.0997049-0.0709424
			L1.0266569,2.976136l0.0434136-0.0579877L1.0677572,2.8391864L1.0439298,2.8058741l-0.0368593-0.100553L0.9712138,2.6386969
			L0.9905688,2.536293l0.101787-0.0030844L1.048865,2.5911963L1.1774095,2.722594l0.1279277,0.1209106L1.2608439,2.8675632
			L1.2143458,2.8237641L1.1697755,2.8472059L1.1256678,2.8829856L1.082177,2.9403563L1.0494047,2.986623L1.0413852,3.0890269
			l0.0680121,0.0092535L0.9072114,3.1494823L0.818919,3.2198079L0.7833707,3.1642876L0.8720487,3.1050661z M0.7090353,3.6985147
			l0.0424883-0.0919166L0.7652495,3.68556L0.7324772,3.7318268L0.6772655,3.7669897L0.6635397,3.6886446L0.7090353,3.6985147z
			 M0.6185838,4.0742011l0.0599155,0.1116571l0.0586046,0.0660071L0.6016193,4.2561836l0.1030978,0.0530529l0.1375666,0.0524354
			l0.0910684,0.0197406l0.058219,0.0549035L0.9719849,4.4572902l0.0285313,0.0172729L0.9375933,4.4936867L0.936745,4.4943037
			H0.9357426L0.9240988,4.4980049L0.8762127,4.4844332L0.8587855,4.5424209l-0.0279914,0.000617L0.830023,4.5448885
			L0.7889998,4.5566096l0.0054749-0.0123382L0.7569986,4.5455055l0.008328-0.1024036L0.7418848,4.4097896L0.6863647,4.445569
			L0.5787944,4.2568007l0.020743-0.0684748L0.5633721,4.1210847L0.6185838,4.0742011z"/>
		<path fill="#FFFFFF" d="M10.1546316,8.0167484l-0.0006943,0.0203571c0.0037785-0.0111036,0.0070944-0.0228243,0.0107956-0.0345459
			L10.1546316,8.0167484z"/>
		<polygon fill="#FFFFFF" points="5.9512939,1.302512 6.0055032,1.3160837 5.9716511,1.2210824 5.9039474,1.2007251 		"/>
		<polygon fill="#FFFFFF" points="7.0079503,1.4789428 7.0485878,1.4178705 7.1095057,1.3839417 7.1501436,1.3635842 
			7.0147362,1.2482257 6.9808068,1.3092978 7.0011644,1.3771558 6.9808068,1.4308252 		"/>
		<polygon fill="#FFFFFF" points="6.642211,0.8416948 6.5405784,0.7744538 6.5270071,0.8416948 6.6489201,0.902767 		"/>
		<polygon fill="#FFFFFF" points="4.6661568,0.8478637 4.656826,0.8231881 4.6123328,0.8009801 4.5991468,0.7744538 
			4.5831847,0.8009801 4.6508884,0.8416948 		"/>
		<path fill="#FFFFFF" d="M0.7497501,10.9482117L0.78152,10.8778868l-0.0475006,0.0080194
			C0.7396485,10.9062634,0.7438126,10.9278545,0.7497501,10.9482117z"/>
		<path fill="#FFFFFF" d="M0.906209,11.0962658l-0.0623831-0.1326313l-0.0465752,0.0937672l-0.0151909,0.01789
			c0.0280685,0.0851307,0.0675495,0.1659431,0.1017869,0.2486067l0.0380159-0.0172729l0.0623831-0.0623055l-0.0233647-0.1011705
			L0.906209,11.0962658z"/>
		<polygon fill="#FFFFFF" points="1.0232639,10.9013281 1.0465516,11.0105181 1.0777045,11.0962658 1.1557412,11.0888634 
			1.0934353,10.9247704 		"/>
		<polygon fill="#FFFFFF" points="1.4051192,10.4806089 1.2961609,10.5194731 1.2725649,10.5978184 1.3896198,10.5429153 		"/>
		<path fill="#FFFFFF" d="M0.78152,10.4651871l-0.0468837-0.0080194l-0.0232876,0.0468836L0.656831,10.5194731l-0.0193549-0.0141888
			c0.015962,0.0875988,0.0440305,0.1696453,0.0647735,0.255393l0.0012338,0.000617l0.085902-0.054903l-0.093536-0.0697088
			l0.1014014-0.1172094l0.1246119-0.0857477l-0.1246119-0.0154219L0.78152,10.4651871z"/>
		<polygon fill="#FFFFFF" points="1.4129845,11.8525734 1.4129845,11.7748451 1.3115832,11.7514038 1.2335465,11.8137093 		"/>
		<path fill="#FFFFFF" d="M2.0414417,11.0493822v0.0191231l0.0104101,0.0012341
			C2.0483046,11.063571,2.0449889,11.0561676,2.0414417,11.0493822z"/>
		<path fill="#FFFFFF" d="M1.5923455,8.3757782l-0.031153,0.1480541l-0.148208-0.0388641l0.0232877,0.0623064l0.1091896,0.0703249
			l0.0078653,0.0697088h0.0545177l0.0586046-0.0530529C1.6646758,8.5262995,1.6625167,8.4195776,1.6619769,8.3140898
			L1.6389978,8.3443174L1.5923455,8.3757782z"/>
		<path fill="#FFFFFF" d="M13.0120687,11.4972448l-0.0808134,0.071559l-0.0187378,0.0413322l0.0346231-0.0141888l0.026989,0.0148048
			l-0.0219765,0.0252934l-0.0343151-0.0166569l-0.0746431,0.018507l0.0189686,0.0746441l0.0765724-0.0259094l0.0025444,0.0043182
			c0.0360107-0.0635395,0.0620747-0.1307812,0.0934591-0.1961718L13.0120687,11.4972448z"/>
		<polygon fill="#FFFFFF" points="1.6858815,11.8760157 1.7560527,11.9617634 2.0493071,11.7464685 1.6625167,11.8371515 		"/>
		<polygon fill="#FFFFFF" points="1.2575282,11.9870558 1.268555,12.0012445 1.2882955,11.9932251 		"/>
		<path fill="#FFFFFF" d="M2.0601027,12.3127737L1.9663353,12.390502l0.1014013,0.0468836l-0.0701712,0.0777283l-0.038787-0.0777283
			l-0.0390183-0.0388641l-0.179438,0.0228252v0.0394812l0.0780367-0.0080194l-0.0468837,0.0937672l-0.0046268,0.000617
			c0.1107318,0.0968513,0.2220806,0.1918526,0.3390584,0.2695808l0.0087137-0.0055523l0.0029302,0.0148058
			c0.022825,0.0148048,0.0429511,0.0382471,0.0660074,0.0524359l0.0245214-0.0049353l-0.0232875-0.10919l-0.0157309-0.108573
			h0.0935361l-0.0076342,0.1246128l0.0935361,0.0074024l0.0077882-0.1165924l-0.023519-0.0857477l-0.1246889-0.0080194
			l0.0078654-0.0777283l-0.0468838-0.0937672l0.0623832-0.0857487L2.0601027,12.3127737z M2.0210843,12.718071L1.982066,12.6946287
			l0.0311531-0.054903l-0.0078654-0.0703249l0.0468836,0.0160389l0.0233648,0.0777283L2.0210843,12.718071z"/>
		<polygon fill="#FFFFFF" points="1.9479058,11.481822 2.0026548,11.4583807 1.9246181,11.3491907 		"/>
		<polygon fill="#FFFFFF" points="1.4752905,9.3344269 1.5375965,9.3578682 1.5923455,9.3270235 1.5221741,9.2801399 
			1.4831558,9.209815 1.4598682,9.1629305 1.3273139,9.3190041 1.3972539,9.3578682 		"/>
		<path fill="#FFFFFF" d="M1.2414119,9.7477436L1.1089346,9.8254709l0.0468066,0.0703259l0.0702484-0.0777283L1.303795,9.8020296
			l0.0077882,0.0863647l0.1092668-0.0314617h0.0465752l-0.031153-0.1795149L1.2882955,9.7088795l0.031153-0.0468845
			l0.0623831-0.0234413l0.0232877-0.0623064l0.0934589-0.0154219L1.4520029,9.5996895l0.0778053,0.1011696l0.085825-0.0623055
			l0.0390183-0.1011705L1.705005,9.5602083c-0.0203574-0.2757502-0.0313071-0.562604-0.0370905-0.8494577h-0.036782
			L1.5375965,8.71877L1.4831558,8.773056l-0.0232877,0.054903L1.4208499,8.7890949l0.0623059-0.0468836l0.0390183-0.0388641
			l-0.085902-0.0388641L1.3739662,8.7033472L1.1869713,8.71877l0.0077882-0.0703259l0.1401885-0.0074024l0.0078653-0.0783453
			L1.2646995,8.4849682L0.9763803,8.446104L0.8671907,8.5084105l-0.038787,0.054286L0.937362,8.6410418L0.8360377,8.6644831
			L0.9763803,8.71877l0.117055,0.1480532h-0.023519l0.0077883,0.1326313l0.0702484,0.0388641l0.093459-0.0937672
			l0.0157306,0.0394812L1.2259896,9.046339l0.031153,0.0154219l0.1324773-0.0308447l0.1479766,0.1320143L1.5221741,9.2017946
			L1.5375965,9.264101l0.054749-0.0228252l0.0778053,0.0777283l-0.031153,0.1011705L1.6234984,9.5059223L1.5221741,9.4904995
			L1.3818315,9.4516354L1.3194485,9.4904995l0.0545177,0.054904L1.2961609,9.59167L1.2414119,9.7477436z M1.2259896,8.8748426
			l0.0154223-0.0314608l0.054749-0.0703259l0.038787,0.1017866H1.2259896z"/>
		<polygon fill="#FFFFFF" points="1.1167228,10.5817795 1.0699162,10.4725895 1.0622823,10.3794394 1.1167228,10.3325558 
			1.2023935,10.3399582 1.2181243,10.2702494 1.1400876,10.2776518 1.1245883,10.2153463 1.0232639,10.3010941 
			1.0465516,10.3948612 0.992111,10.5274925 		"/>
		<polygon fill="#FFFFFF" points="1.6389978,12.2578707 1.6078448,12.3201761 1.6780162,12.3985214 1.7248998,12.4059248 
			1.7714751,12.3516378 1.7248998,12.3436184 		"/>
		<path fill="#FFFFFF" d="M1.5375965,12.336216l-0.0390184-0.1172094l-0.0387099-0.0777283l-0.0312301,0.054286
			l-0.0390183-0.0468836l-0.0025446,0.0012341c0.0700941,0.0857477,0.1235323,0.1764307,0.2052703,0.2578602
			c0.029842,0.0302277,0.0638481,0.0468836,0.0942301,0.0752611l0.0147282-0.0067863L1.5375965,12.336216z"/>
		<polygon fill="#FFFFFF" points="1.6673747,8.681756 1.6672206,8.6755877 1.6625167,8.6799059 		"/>
		<path fill="#FFFFFF" d="M1.7940687,10.2930746l-0.0537466-0.0074034l-0.0466524-0.0314608l-0.0156535,0.0937672
			l0.122607-0.0154219C1.7983098,10.3202171,1.796382,10.3060293,1.7940687,10.2930746z"/>
		<path fill="#FFFFFF" d="M1.7481874,10.1684628l0.031153,0.054903l0.0120294,0.053669
			c-0.0181983-0.1054878-0.0363966-0.2109756-0.049891-0.326952H1.6780162l-0.0623831-0.054286l0.0233647-0.0308447
			l0.0780367-0.0394812L1.737469,9.9075174C1.7282927,9.8248549,1.7206587,9.7384901,1.7135644,9.6521254L1.6625167,9.6774178
			L1.5999795,9.7243013l-0.031153,0.1011696l0.0235189,0.0703259l-0.085902,0.054286l0.054749,0.0863647l0.1013242,0.0777283
			L1.7481874,10.1684628z"/>
		<polygon fill="#FFFFFF" points="1.8573771,12.1801424 1.8573771,12.0394917 1.7950711,12.0240688 1.7872057,12.1017971 
			1.7403221,12.2190065 1.8183588,12.3201761 		"/>
		<polygon fill="#FFFFFF" points="1.5064435,12.1332588 1.5611925,12.1955643 1.6311325,12.226409 1.5923455,12.1647205 		"/>
		<polygon fill="#FFFFFF" points="1.5999795,11.5873108 1.4752905,11.6576366 1.5533271,11.6964998 1.4910212,11.7902679 
			1.5688266,11.8760157 1.6389978,11.8605928 1.58448,11.8056898 1.6389978,11.6964998 		"/>
		<polygon fill="#FFFFFF" points="4.7379475,1.6047884 4.7186694,1.6208276 4.7634711,1.6269965 		"/>
		<polygon fill="#FFFFFF" points="4.7639337,1.5838141 4.7755775,1.6245289 4.8112803,1.6331654 4.8202252,1.6343992 
			4.8270106,1.539398 4.793159,1.5597554 		"/>
		<polygon fill="#FFFFFF" points="4.5411592,1.2729013 4.5253515,1.3284215 4.5560417,1.302512 		"/>
		<polygon fill="#FFFFFF" points="4.3599477,1.57271 4.3748302,1.528294 4.3971152,1.5653074 4.4110723,1.5696256 
			4.4612718,1.5190406 4.4070625,1.4918975 4.3393588,1.5529696 4.3325729,1.5936843 4.3599477,1.6171262 		"/>
		<polygon fill="#FFFFFF" points="4.4030528,1.3055965 4.4119205,1.2981938 4.3894811,1.2938756 		"/>
		<polygon fill="#FFFFFF" points="4.5900478,1.646737 4.5938263,1.646737 4.5898933,1.6448863 		"/>
		<polygon fill="#FFFFFF" points="12.8288517,11.3713989 12.9197664,11.3491907 12.9038811,11.3214312 12.8199844,11.3454895 		"/>
		<polygon fill="#FFFFFF" points="4.5054564,1.4740076 4.525043,1.4894298 4.5425472,1.4789428 4.5696135,1.4036821 
			4.515481,1.4517995 		"/>
		<polygon fill="#FFFFFF" points="4.2677226,0.8885785 4.2716551,0.8756238 4.2789807,0.8941305 4.3451424,0.9268257 
			4.3822327,0.8305908 4.2263908,0.8676043 		"/>
		<polygon fill="#FFFFFF" points="4.1150422,1.2833885 4.0482635,1.3204019 4.0436368,1.3253371 4.0751758,1.3567984 
			4.1158133,1.3296553 4.1447301,1.353714 4.1447301,1.224167 		"/>
		<polygon fill="#FFFFFF" points="5.1656837,1.5258265 5.0504794,1.5461838 5.070837,1.5936843 5.1081586,1.5671581 
			5.0947413,1.5653074 5.1164098,1.5609891 		"/>
		<polygon fill="#FFFFFF" points="4.3228569,1.4986832 4.2402711,1.5042353 4.2716551,1.5733269 4.3423662,1.4906636 		"/>
		<path fill="#FFFFFF" d="M4.4759231,1.6942375l0.0204344,0.0055521C4.5125508,1.6985557,4.5290527,1.6979389,4.5453234,1.697322
			L4.4759231,1.6942375z"/>
		<polygon fill="#FFFFFF" points="4.8473682,1.1667961 4.8134394,1.3228694 4.8812203,1.3228694 4.9015002,1.2346541 
			4.8991871,1.2315696 4.8423562,1.2537777 4.8802948,1.2081279 		"/>
		<path fill="#FFFFFF" d="M4.1333947,1.7337185L4.0853543,1.6615423l-0.0889866-0.022208L3.907227,1.5505021L3.8954291,1.5936843
			l0.0037012,0.0067859L3.8920362,1.606639L3.8850191,1.6319315L3.8568735,1.6461201l0.1056423,0.1061052
			C4.0175734,1.7448225,4.0762553,1.7398875,4.1333947,1.7337185z"/>
		<polygon fill="#FFFFFF" points="4.4780049,1.1957899 4.4861789,1.1945562 4.5668373,1.2062771 4.5967565,1.1871536 
			4.6043134,1.1495233 4.5529571,1.1421205 4.5232692,1.1051071 4.4849453,1.0859835 4.488338,1.1260813 4.4409146,1.1199125 
			4.4815521,1.1667961 		"/>
		<polygon fill="#FFFFFF" points="4.0482635,1.1051071 3.9963677,1.1643286 4.0853543,1.2167642 4.2189879,1.2019589 
			4.2634816,1.1643286 4.2412734,1.1273152 4.2041059,1.1051071 4.1299248,1.0754963 4.1818976,1.0532883 4.1521325,1.0088722 
			4.1002369,0.9866641 4.0482635,1.0532883 		"/>
		<path fill="#FFFFFF" d="M7.5094819,12.3349819c-0.0057058,0-0.0120292,0-0.0176582,0l0.0065546,0.0067854L7.5094819,12.3349819z"
			/>
		<path fill="#FFFFFF" d="M9.6879539,8.8304272l0.0731783-0.0123377L9.734375,8.7477636L9.6137724,8.789712l-0.053669-0.0505848
			l0.0489655-0.0684748L9.5688171,8.6546135L9.5421362,8.5836706L9.6544104,8.44487L9.4786739,8.5645475L9.4090424,8.7335749
			L9.4065742,8.809453L9.3602304,8.8020496l0.0402527-0.0746431L9.3433437,8.699646L9.2431755,8.8211737l0.1132002,0.1844501
			l-0.095233,0.0604553L9.171154,8.9760132L9.084712,8.9525709L9.0739164,8.7514648L8.9848528,8.7138348L9.020093,8.790329
			L8.9786844,8.8125372L8.8179073,8.7489977L8.6838102,8.845849l0.1108093,0.0795794l0.0461893,0.0074024l0.068244,0.0487347
			l-0.0256786,0.072176L8.81143,9.027832L8.7872162,8.9716949L8.6640701,8.9994545L8.6053877,9.100008l0.0267582,0.0703259
			l0.0596066,0.0425653L8.789299,9.2566986l0.0681658,0.1394167L8.7305403,9.4473171l0.0208969-0.1011696L8.6818056,9.4251099
			L8.5697632,9.3837776l0.0428734-0.1499043L8.6176491,9.172801L8.607933,9.1141968L8.5238819,9.0154943L8.4119158,8.973546
			V8.8834791l0.0670099-0.0030842l0.0573711-0.0623055L8.5120831,8.7619524L8.4363604,8.7594843L8.4328127,8.6922436
			L8.4791565,8.699646l0.1108866-0.0104866l0.0658531-0.0561371l0.0220537-0.1388006l0.0393267-0.12708l0.1279278-0.0888319
			L8.893013,8.1573992l0.059762-0.1369495l0.0963888-0.0086365L9.048007,7.8693113l0.0429506-0.1499043l0.0305367-0.0425653
			l0.0387869,0.0536695l0.0926104,0.0148053l0.0038557-0.1135077L9.2214308,7.5553141L9.1629801,7.5645676L9.1167908,7.4670987
			l0.0475769,0.0598388l0.0684748-0.2220807L9.1720018,7.1197896l0.0124149-0.1974049l0.0013885-0.1283135l0.0245209-0.1239948
			L9.1605129,6.5954328L9.1329842,6.6694593c0.0168867,0.108573,0.0335426,0.2177625,0.0335426,0.3306537
			c0,1.1930661-0.9734526,2.1665196-2.1665192,2.1665196S4.833488,8.1931791,4.833488,7.000113
			c0-1.1239748,0.8670397-2.0419078,1.964642-2.1461625L6.734899,4.7429104l0.045033-0.045033l0.0840511,0.0987024
			l0.0596843,0.0425653L6.9232049,4.8416128c0.0260634-0.0012336,0.050508-0.0080194,0.0768027-0.0080194
			c0.9319673,0,1.722744,0.5971498,2.0273333,1.4256339l0.0129547,0.01789l0.0803499-0.0579877L9.0647402,6.1531219
			l0.0913773-0.0376301l-0.0120296-0.07341L9.197834,5.9131517L9.2828884,6.06429L9.2219706,6.1494207l0.0388641,0.0536695
			l0.0852079,0.0616894l-0.028223,0.1468196l0.0940762-0.1128907l0.1061049-0.0400982L9.5156097,6.153739L9.4803705,6.1673107
			L9.4071913,6.1790314L9.4512224,6.081563l0.1023264-0.1067224l0.0658531-0.0561371L9.5770674,5.7977934L9.4598589,5.9075999
			L9.3392563,5.8594823l0.0085592-0.0838971l0.104949-0.0024676l0.0513563-0.1437354l0.1158209,0.0185065l0.067935,0.1394176
			L9.6779299,5.9088335l0.0498905,0.1647096l0.0317698-0.0801954L9.847497,5.8884759l0.1425018,0.0888324l0.0803499,0.0320783
			l0.0134945-0.054903l-0.0499678-0.0746441L9.9365606,5.7459745L9.8683939,5.6972399l0.1354074-0.045033l0.0766487,0.07341
			c-0.0370903-0.090066-0.0887547-0.1708784-0.1333246-0.2566261L9.9368696,5.4751596L9.9148149,5.5238938l0.0196638-0.0635395
			l0.0070171-0.0018511C9.871479,5.3246384,9.8004589,5.1932406,9.7136316,5.0710964L9.6619673,5.0846677H9.5717468
			L9.588789,5.1870718l0.0252924,0.1085725L9.552084,5.3283396L9.4603987,5.3665867L9.4630203,5.290709l0.0670099-0.0037012
			l0.0037785-0.1128907L9.560874,5.0643106l0.0828953-0.0437994l0.0155764-0.0154223
			C9.5483055,4.8570352,9.4296312,4.7163839,9.2959204,4.5886879L9.2859726,4.5837526L9.2821941,4.6966438l-0.063386-0.10919
			L9.2116375,4.5195961C8.6225843,3.9940054,7.8536301,3.6658196,7.0000076,3.6658196
			c-0.1300869,0-0.2535419,0.0234418-0.3796959,0.0382471l0.018198,0.0024676l0.131629,0.0684748L6.8613615,3.827445
			l0.0354714-0.0135717l0.0218225-0.0481174l0.0037785,0.0666242L6.8662968,3.8570557l-0.1061053,0.040098L6.5812163,3.7688403
			l-0.086442-0.0524356c-0.0422568,0.0067856-0.0869045,0.004935-0.1286216,0.0129547L6.3630681,3.7669897L6.3054662,3.9193616
			l0.1425786,0.0894489l0.0205889,0.0789623l-0.0256009,0.072176l-0.0073256,0.046267L6.3916764,4.2136183l0.0087137-0.0845137
			L6.2713828,3.985369L6.1790037,3.7898147L6.1749935,3.7805612c-0.1163607,0.0296109-0.2305627,0.0641565-0.34168,0.1054883
			l0.0104103,0.0123379L5.7605205,4.0322528L5.6416149,3.9594595c-0.214138,0.095618-0.413394,0.2152946-0.6006203,0.3516276
			L5.0277314,4.3715425l0.0852084,0.0610719L5.1080046,4.4936867L5.0142369,4.4264455L4.9741392,4.3659902
			C4.6776462,4.5942397,4.4158535,4.863821,4.2105832,5.1778183l0.0349312,0.0518188L4.192616,5.2111301
			C3.8627338,5.7280846,3.6657145,6.3394232,3.6657145,7.000113c0,1.845119,1.4891737,3.3342929,3.3342931,3.3342929
			c0.5108624,0,0.9888754-0.1227608,1.4210844-0.327569L8.4156942,9.9050503l0.0585279-0.0098705L8.4867134,9.971674
			C8.5679893,9.9309597,8.6483393,9.8890114,8.725605,9.8421278L8.7155027,9.8100491L8.7530565,9.827322
			c0.1256142-0.0783453,0.2410498-0.1671772,0.3547115-0.2609444L9.0645084,9.4670582l0.0913773-0.0376301l0.041563,0.0629225
			c0.1921616-0.1690283,0.368207-0.3547125,0.5170317-0.564455L9.6879539,8.8304272z M9.6346703,5.4652891l0.048811,0.0215912
			l0.0279913-0.0567536l0.0536699,0.0512018L9.807785,5.5115561L9.7284374,5.5325303L9.6211758,5.5201926L9.5785332,5.4893479
			L9.6346703,5.4652891z M9.416522,5.4634385l0.0620747,0.0573707l0.009716,0.0586047l-0.076726-0.054903L9.416522,5.4634385z
			 M9.2451811,5.1087265l0.0485802,0.0222082L9.2522745,5.1531425L9.197526,5.1389542L9.2451811,5.1087265z M9.25667,5.6330833
			L9.3445005,5.618278L9.3125763,5.699091l0.054903,0.0129547l0.021822,0.0419483L9.3492041,5.7379546L9.2895966,5.6947727
			l-0.1037912,0.054903L9.1590471,5.6793504L9.25667,5.6330833z M8.9668093,5.5152574l0.1240721,0.0252924L9.0691357,5.5886674
			L8.9886312,5.5572057L8.9580956,5.5997715L8.9668093,5.5152574z M8.9712038,5.9057488l0.0379391-0.0888319L9.006753,5.7120457
			L9.0541763,5.681818l0.0073252,0.0437989L9.0177021,5.7324028l0.0388641,0.0536695l0.0121841,0.07341l0.0180435,0.0647736
			L9.025876,6.0093865L8.9745197,6.063056L9.0295,5.9859447L8.9468374,5.9396782L8.9712038,5.9057488z M8.748661,4.3795619
			l0.0326948,0.1523719L8.7193584,4.4745631L8.748661,4.3795619z M4.0662308,7.4609299L4.019887,7.454144l0.045187-0.0456495
			l0.0461898,0.0074024L4.0662308,7.4609299z M4.3895583,5.1007071l0.0061688-0.0987024L4.443305,4.971777l0.0438762-0.0074029
			L4.4712963,5.0044718l-0.0074024,0.046267l0.054749,0.0135717l0.0426426,0.0308442L4.5174088,5.1019406L4.4503994,5.1056418
			L4.3895583,5.1007071z M4.5450149,5.4961338L4.5109315,5.471458l0.0085592-0.0838971l0.0258327-0.072176l-0.0002313,0.090066
			L4.5231152,5.454185L4.5450149,5.4961338z M4.5621333,7.5972629L4.5121655,7.6126852L4.5036058,7.6065164l0.0353169-0.0129547
			L4.6182704,7.572587L4.5621333,7.5972629z M4.9004979,5.828021L4.8578553,5.8872423L4.8627906,5.82617l0.0706339-0.026526
			L4.9004979,5.828021z M5.6203322,5.0926871L5.5803113,5.0766482l0.0390182-0.0370135l0.064465,0.0721765L5.6203322,5.0926871z
			 M5.6876502,4.99892L5.679091,4.9026852L5.6779342,4.8502493l0.0219769,0.0413318L5.6840262,4.9316788l0.0559053,0.0660076
			l0.0134945,0.0351624L5.6876502,4.99892z M6.1652775,4.9797964L6.0227761,4.98103l0.0304589,0.0475006L6.0068913,5.0211282
			L5.9995656,4.9773288l0.0866728-0.0672412l0.0232105-0.0863643l0.0525904-0.0913L6.212007,4.7163839l0.0778828,0.1073394
			L6.1652775,4.9797964z M5.9327102,4.8903475l0.0426426-0.0592217L6.038815,4.8502493L6.0203857,4.8761587L5.9327102,4.8903475z
			 M7.4988408,4.8644381L7.4818764,4.7620339l0.0464211-0.0826631L7.5391698,4.789794L7.4988408,4.8644381z M7.8595676,3.8200421
			l0.054903,0.0135717L7.8668933,3.8638415l0.0279913,0.0333121l0.094924,0.0296106L7.9423852,3.9563751L7.8583336,3.9483554
			L7.8436828,3.8601401L7.8595676,3.8200421z M7.4757075,3.8163409l0.0816607-0.0061688L7.611115,3.7713079l0.0314612,0.0999362
			L7.584126,3.8811145L7.5476522,3.8416333L7.4621358,3.8712442L7.4110112,3.8342307L7.4757075,3.8163409z M7.4309826,4.5448885
			L7.3810148,4.5609279L7.3383722,4.5300832L7.4309826,4.5448885z M7.2634201,4.0766687l0.0266805,0.0709424l0.0035472,0.0666242
			L7.225481,4.1655011L7.2634201,4.0766687z M7.206666,4.5516744l0.0267577,0.0709424l0.0779595,0.0172729l0.0511246,0.0363965
			l0.0158849,0.0499682l0.0387874,0.0542865L7.3928127,4.8144698L7.3501701,4.7836251L7.3490133,4.7311897L7.3101492,4.6775203
			L7.2078228,4.6941762L7.12007,4.6189156L7.206666,4.5516744z M7.169961,4.7836251L7.133256,4.8348269L7.0759625,4.8064504
			L7.089457,4.7515469L7.169961,4.7836251z M7.0353246,4.1969624l0.0473466,0.0598383L7.0338597,4.3252754L7.0010099,4.2629695
			L7.0353246,4.1969624z M7.0033236,4.4579072l0.063231,0.0197401l-0.0194321,0.062923L6.9812698,4.5066414l0.0134945-0.0549035
			L7.0033236,4.4579072z M6.8393078,3.9662452l0.1169777-0.0191236l0.041409,0.0684748L6.9538951,4.0223823l-0.0158849-0.049968
			L6.8037596,4.0698829L6.7161608,3.9946222L6.8393078,3.9662452z M6.3957634,3.8292956l0.0975456-0.04565l0.0682435,0.0487344
			L6.4750338,3.8990042L6.3957634,3.8292956z M6.3487253,4.453589L6.3465662,4.3487172l0.0585275-0.0098701L6.4389458,4.453589
			l0.0802727,0.1221442L6.5047989,4.3974519l0.0367823-0.1412683L6.6135259,4.282093L6.6132946,4.372159l0.0963888-0.008636
			V4.2734566l0.1257687-0.1036372l0.0059376,0.082046L6.752326,4.3043013l0.0451875,0.045033l0.109652,0.0265265
			l0.0619974,0.0573707L6.9107127,4.4431019L6.757184,4.4233613l0.0436449,0.0832801l0.1364102,0.0974689L6.8945193,4.6639485
			L6.7496271,4.5596938L6.7291155,4.390666L6.6584816,4.4171925L6.6399751,4.5331678L6.5849948,4.699728L6.5529933,4.8706069
			l-0.1034832-0.03578L6.3556657,4.8582687l0.0573707-0.0623059l0.0452642-0.1350989L6.3354626,4.507875l-0.081738,0.0061693
			L6.2415409,4.5313168H6.2414637H6.2413864l-0.018198,0.0252929L6.0902486,4.6164479L5.9500599,4.6318703L5.9148202,4.5553756
			L5.78936,4.4782643l0.1219902-0.0801959l0.1522179,0.1474371l0.1375666-0.0302277l0.0402517,0.0160389h0.0001545
			l0.0195088-0.0635395L6.3487253,4.453589z M6.0094357,3.9008548l0.0705571,0.0635397l0.0244441-0.0339289l0.0414858-0.0222082
			l0.0972376,0.1344824L6.1737599,4.0316358L6.097034,4.0667982L5.9788995,4.0334864L5.9386477,3.9279981L6.0094357,3.9008548z
			 M5.7067738,4.1611829l0.0695543,0.0111036L5.7616,4.2648201l0.0609179,0.0049353l0.018507-0.1153584l0.064465-0.018507
			l0.0158076,0.1400342L5.8090234,4.3246589L5.6567287,4.3573537l-0.1475139-0.02776l0.1011696-0.0697083L5.7067738,4.1611829z
			 M5.4544654,4.225956l0.0329266-0.0283766l0.073256-0.1017871l0.0364738,0.0388641L5.5447631,4.225956L5.442205,4.2426124
			l-0.051125-0.0363965L5.4544654,4.225956z M5.3275404,4.3672242L5.3825207,4.290113l0.0011568,0.0524354L5.3275404,4.3672242
			l0.045033,0.045033l0.0549035,0.0129547L5.3420372,4.4548225L5.3334007,4.5387197l0.1425791-0.0012336l0.0682435,0.0493512
			L5.4503789,4.699728L5.3454304,4.7922616L5.2954621,4.717618l0.0438762-0.0067859l0.0890636-0.0524359L5.4198427,4.5621614
			l-0.086442-0.0234418L5.2872882,4.4412508L5.3275404,4.3672242z M5.1174121,4.7324233l0.036705,0.0388641l0.0425653,0.0302277
			L5.183188,4.8570352l0.0243673,0.0555201L5.1612115,4.9051528L5.174706,4.8508663L5.1588206,4.8008981L5.0771599,4.8064504
			l-0.0376301-0.0913L5.1174121,4.7324233z M5.1026068,5.0050888l0.1182117,0.0333123l0.0011563,0.0524354l0.1047173-0.0024676
			l0.0402522,0.0160394l0.0390954-0.1264625l0.0634627,0.0191236l0.0329266-0.02776L5.4522295,5.0754147L5.4327202,5.1383371
			l0.0156536,0.1406512L5.3813639,5.2820725L5.3789735,5.1778183l-0.053515-0.0518188l-0.1352534,0.045033L5.1059227,5.2530789
			L5.0815554,5.2870078l0.0134945-0.054903l0.0282226-0.1474371L5.0403781,5.0384011L4.9721346,5.0791159L5.01123,5.0427194
			L5.1026068,5.0050888z M4.9301085,4.417809l0.0426426,0.0302277L4.9678164,4.509109l-0.051125-0.0363965L4.9301085,4.417809z
			 M4.8066535,4.7163839l0.0793476-0.0209742l0.0390954-0.0363965l0.0596843-0.0475006L4.9712863,4.6664162L4.9530106,4.7817745
			L4.9722114,4.898984L4.9260216,4.8015151l0.0038557-0.1135077L4.8860011,4.6954098L4.8225384,4.7663522l0.004704,0.11906
			L4.7628541,4.8132358L4.8066535,4.7163839z M4.7952409,5.1463571L4.801333,5.2277865L4.7099557,5.1753507L4.7952409,5.1463571z
			 M4.739027,5.3511643l0.0693998,0.0111041L4.8716583,5.382009l0.0390954,0.0530524L4.8607855,5.4511008L4.8084269,5.3622684
			L4.7461209,5.3949637L4.739027,5.3511643z M4.7893806,8.0179825L4.7493596,8.0019426L4.7773514,7.944572l0.054903,0.0135717
			L4.7893806,8.0179825z M7.5247502,9.9247904L7.4745507,9.9408302l0.0306134-0.0425653l0.0073252-0.0468845l0.0488114,0.0222082
			L7.5247502,9.9247904z M8.2258463,9.6656971L8.1977005,9.6330013L8.1941538,9.5657606l0.0390177,0.053669L8.2258463,9.6656971z
			 M8.4139977,9.1690998L8.3407421,9.2715034l-0.0267572,0.019124L8.2140484,9.3220882l-0.141345-0.036396l0.0353165-0.1036377
			L8.1141891,9.173418l0,0l0,0l0.0305357-0.0425653L8.1923027,9.100008l0.0158854,0.0499687L8.161767,9.1431904L8.1141891,9.173418
			l0,0L8.1067867,9.2196846l0.1035604,0.03578l0.1171322-0.0197401l0.0499678-0.0160398L8.3848495,9.173418L8.3604822,9.117281
			l0.0670099-0.0030842L8.4139977,9.1690998z M8.4554062,9.3270235l0.0036249-0.1128902l0.0719442-0.0647736L8.5650587,9.264101
			L8.4554062,9.3270235z M8.9560137,9.4022846L8.9037313,9.4035187l0.0255241-0.0715599L8.9904051,9.336277L8.9560137,9.4022846z
			 M9.0853291,9.2758217L8.9295645,9.2412758L8.9916391,9.208581l0.0562906-0.1147413L9.1197205,9.209815l0.1217585,0.0098696
			L9.0853291,9.2758217z M9.4597816,9.1308527L9.4133606,9.1240673l0.0135717-0.054904l0.0437994-0.0074024L9.4597816,9.1308527z"/>
		<polygon fill="#FFFFFF" points="4.3525448,1.2167642 4.4238729,1.2044264 4.4070625,1.1667961 4.4409146,1.1199125 
			4.4409146,1.0520545 4.4251065,1.0261451 4.3376627,1.1723481 		"/>
		<path fill="#FFFFFF" d="M3.9740827,1.4986832l0.0890634,0.1110404L4.174418,1.6541396L4.2041059,1.691153l-0.0394039,0.039481
			C4.2201447,1.725082,4.2760506,1.7201469,4.3331127,1.7152117L4.3279467,1.6757308L4.293169,1.668945V1.6171262h0.0271435
			L4.3190017,1.6072559H4.2851496l0.0067859,0.067858L4.21066,1.6343992L4.1986308,1.5264434L4.1670151,1.5579047
			L4.1299248,1.528294l0.0519729-0.0222081l0.032618-0.0308444l0.0299964-0.0641567L4.2415819,1.449332l0.081275-0.0771114
			l0.0367823-0.0302275L4.3274837,1.2901742L4.2486758,1.3426099l-0.0922251,0.056754v0.0043182H4.1461949L4.0853543,1.4246564
			l0.0160389-0.0141885L4.0548954,1.4240395l-0.040638-0.0400978L4.0376992,1.330889L4.0259786,1.3426099L3.9740827,1.4018314
			V1.4986832z"/>
		<path fill="#FFFFFF" d="M4.657443,1.6541396L4.5966024,1.6948544C4.61588,1.6936207,4.6357746,1.6930038,4.6552067,1.69177
			l0.0092535-0.0370134L4.657443,1.6541396z"/>
		<polygon fill="#FFFFFF" points="5.020483,1.4437799 4.9827757,1.3771558 4.9489241,1.4443969 4.8676486,1.3907274 
			4.8124371,1.4406955 4.820148,1.4468645 4.798017,1.4801766 4.8066535,1.5190406 4.8540769,1.4715401 4.9489241,1.5190406 
			5.0437708,1.4851116 5.033669,1.4672219 5.020483,1.4542671 		"/>
		<path fill="#FFFFFF" d="M5.2870569,1.5757946L5.2653885,1.5875155L5.2357779,1.5838141l-0.036242,0.0777282l-0.1422706-0.033929
			L5.0166278,1.6208276L4.9539361,1.6775814C5.1010647,1.6720295,5.247036,1.6683282,5.3937788,1.6658605l-0.0791159-0.078962
			L5.2870569,1.5757946z"/>
		<polygon fill="#FFFFFF" points="4.54247,1.3734545 4.5232692,1.3722206 4.434206,1.4172537 4.4346685,1.4172537 
			4.4951239,1.3975132 		"/>
		<path fill="#FFFFFF" d="M6.3081651,3.754035l0.0004625-0.0148053C6.275547,3.7460153,6.2457819,3.7608206,6.2130866,3.7688403
			L6.2105422,3.8003018l0.0378613,0.0006168L6.3081651,3.754035z"/>
		<polygon fill="#FFFFFF" points="9.9586143,6.7416358 9.9453516,6.7064729 9.8941498,6.6694593 9.8683939,6.7416358 
			9.8099442,6.6608229 9.7211113,6.6231928 9.657649,6.6935182 9.7452478,6.7693958 9.8219738,6.8242989 9.884202,6.88167 
			10.0559292,6.9661837 10.2436953,6.9199171 10.2801685,6.8687153 10.2436953,6.8298512 10.1132231,6.8138118 10.0267811,6.79037 
			9.9659405,6.7854347 		"/>
		<path fill="#FFFFFF" d="M10.1885605,6.0747771c-0.0061693-0.0209742-0.013032-0.0419488-0.0196638-0.06354l-0.035162,0.01789
			L10.1885605,6.0747771z"/>
		<polygon fill="#FFFFFF" points="9.5303383,7.1956673 9.5935698,7.2154078 9.6302748,7.1642056 9.5876322,7.1333613 		"/>
		<path fill="#FFFFFF" d="M10.152935,7.3708639l-0.0377073-0.0919166l-0.0146513,0.0925336l0.1751966,0.1517549
			l-0.0464973,0.1727295l0.0369358-0.0215912c0.0202808-0.0993195,0.0198174-0.2048078,0.0311527-0.3065944L10.152935,7.3708639z"/>
		<polygon fill="#FFFFFF" points="9.9359436,8.3757782 9.9921579,8.3517199 10.0494518,8.2894144 10.0129776,8.2505503 
			9.925148,8.2653551 9.8519697,8.3671417 9.8919134,8.4732475 		"/>
		<polygon fill="#FFFFFF" points="10.1031981,7.1160884 10.2043686,7.0469966 10.1179266,7.0235548 10.0082741,7.0864773 		"/>
		<polygon fill="#FFFFFF" points="9.4909344,6.3684168 9.6237974,6.3986444 9.6423044,6.2832861 9.5567875,6.3122797 		"/>
		<polygon fill="#FFFFFF" points="10.0314846,8.0445089 9.9704123,8.0395737 9.8157272,8.0574627 9.9057159,8.1481457 		"/>
		<polygon fill="#FFFFFF" points="9.8087101,7.8335319 9.751339,7.8952208 9.7928257,7.8736296 9.9048681,7.8248954 		"/>
		<polygon fill="#FFFFFF" points="9.7581253,8.390584 9.8080931,8.2844791 9.7437057,8.2123022 9.6972847,8.2949657 
			9.6995974,8.3998375 		"/>
		<polygon fill="#FFFFFF" points="9.5605659,7.4232998 9.6432295,7.4701834 9.6993666,7.445508 9.6787777,7.3665457 
			9.571516,7.354208 9.5021152,7.3431039 9.5118313,7.4017086 		"/>
		<polygon fill="#FFFFFF" points="9.4239244,6.4621844 9.4042616,6.5251069 9.4031048,6.5633545 9.4395008,6.6022186 
			9.4785967,6.5658221 9.5141449,6.4621844 9.4312506,6.4153008 		"/>
		<polygon fill="#FFFFFF" points="10.075901,7.4960928 9.9627018,7.4923916 9.9563017,7.591094 10.0076571,7.5374246 		"/>
		<polygon fill="#FFFFFF" points="9.2949171,8.3165569 9.0988235,8.3566551 9.1729279,8.4874363 9.2326117,8.4399357 
			9.3495893,8.4201946 9.4265461,8.3850317 		"/>
		<polygon fill="#FFFFFF" points="9.4174471,7.8754807 9.351594,7.8415513 9.2834282,7.8828831 9.3466597,7.9026237 		"/>
		<polygon fill="#FFFFFF" points="9.4033356,8.4713964 9.3495893,8.4201946 9.3533678,8.4874363 		"/>
		<polygon fill="#FFFFFF" points="10.1000366,6.6879663 9.989151,6.6990705 10.0050354,6.7490382 10.0267811,6.79037 
			10.0743589,6.7601423 		"/>
		<polygon fill="#FFFFFF" points="9.3786602,7.5516129 9.2713985,7.6293411 9.4018707,7.6453805 9.4556179,7.5158334 		"/>
		<polygon fill="#FFFFFF" points="8.9718208,8.4979229 8.9644957,8.5441895 8.9412079,8.6305542 9.0765381,8.5855217 
			9.1729279,8.4874363 9.075304,8.5337029 		"/>
		<path fill="#FFFFFF" d="M10.2524862,7.7187901l-0.0354719-0.0055518l-0.0658531,0.0561371l-0.1243029,0.0653906
			l-0.0391731,0.127079L9.9619303,8.0334044l0.0890636-0.0518188l0.1199083,0.000617
			c0.00879-0.0283771,0.0184298-0.0567541,0.0265265-0.0851307l-0.0683212,0.0111036l-0.0121059-0.0734096l0.1073389-0.0252929
			C10.2321281,7.7786288,10.2456226,7.7502518,10.2524862,7.7187901z"/>
		<polygon fill="#FFFFFF" points="9.5512352,6.9143648 9.4709625,6.8822865 9.3903809,6.9408913 9.4794445,6.9785218 		"/>
		<path fill="#FFFFFF" d="M10.1322689,5.8927941c-0.0087128-0.0246754-0.0141106-0.0512018-0.0233641-0.0752606
			l-0.0359344,0.0259094L10.1322689,5.8927941z"/>
		<polygon fill="#FFFFFF" points="9.89361,5.9859447 9.8242865,5.9748406 9.7814131,6.0346789 9.7972202,6.0846472 
			9.8422537,6.1296802 9.89361,6.0760107 		"/>
		<path fill="#FFFFFF" d="M9.5870152,6.6299787L9.5880175,6.773097l0.0404835-0.0746436l0.0267582-0.0191236L9.6393738,6.6293616
			l0.0744123-0.0499682l0.1280823,0.0012341l0.135253,0.045033l0.0875988-0.0141888l0.1766615,0.0234418l0.0519733-0.0425653
			c-0.0131865-0.1073389-0.0205889-0.2159114-0.0437222-0.3201661l-0.0417948-0.0228248l-0.0306129,0.1326313l0.0353174,0.0771112
			l-0.0305367,0.0425653l-0.0426426-0.0302277L10.1138401,6.362865l-0.132863-0.0308447L9.9457369,6.2555261L9.9312401,6.1673107
			L9.8422537,6.1296802L9.7484093,6.1525054L9.7143259,6.2185125L9.6546421,6.1759472l0.0144196,0.0875983l0.1864548-0.0080194
			L9.789587,6.4917951L9.5870152,6.6299787z"/>
		<polygon fill="#FFFFFF" points="0.78152,9.8649521 0.8595566,9.8803749 0.9297279,9.7397232 0.8595566,9.7477436 		"/>
		<path fill="#FFFFFF" d="M13.4621668,4.4881349c-0.0016193-0.0339293-0.0012331-0.0678582-0.0030842-0.1024041
			l-0.0434132,0.0271435L13.4621668,4.4881349z"/>
		<path fill="#FFFFFF" d="M13.4976387,5.7737346c-0.0000772-0.0061688,0-0.0129547,0-0.0191236l-0.0060148-0.0018506
			L13.4976387,5.7737346z"/>
		<polygon fill="#FFFFFF" points="11.3949671,1.8324209 11.397666,1.8404406 11.3977432,1.8348886 		"/>
		<polygon fill="#FFFFFF" points="12.7158842,11.5348749 12.725831,11.4676342 12.7464972,11.4188995 12.7437983,11.3411713 
			12.6570482,11.318346 12.6255093,11.3794184 12.6810293,11.4330883 12.6454039,11.5083485 		"/>
		<polygon fill="#FFFFFF" points="12.293622,10.9667187 12.2670193,10.9210691 12.2377167,10.9438934 		"/>
		<polygon fill="#FFFFFF" points="12.3531523,10.8587627 12.4042768,10.8408728 12.343359,10.7785673 12.3025675,10.845191 		"/>
		<path fill="#FFFFFF" d="M12.1367779,3.1963658l-0.0644655-0.0209742c0.008791,0.022825,0.0143433,0.0536695,0.0225172,0.0777283
			l0.0023127,0.0006168l0.0104103,0.0314615l0.0390186-0.0388641l-0.0307674-0.0080197L12.1367779,3.1963658z"/>
		<path fill="#FFFFFF" d="M13.444046,6.3381891l-0.019124,0.1172094L13.3965454,6.507834l-0.0475779-0.1301637l0.0759544-0.0394812
			l0.0286856-0.0777278l0.0447245-0.0308447c0-0.0505853-0.0000772-0.1011701-0.0002308-0.1511383h-0.0256014l0.0256014-0.0407147
			c-0.0001545-0.0437994,0-0.0869818-0.0002317-0.1301637l-0.1868401,0.144969l-0.3325815-0.2732825l-0.0568314,0.0259094
			l0.0284548,0.2338014L12.9216166,6.299325l-0.208971-0.0129547l0.0095615-0.1819825l-0.0571394-0.1560731l-0.1519098,0.2603278
			l-0.1426554,0.0129547l0.0095615,0.1560731l-0.0431051-0.0888324c-0.0009251,0.1165924-0.0016966,0.2319508-0.0026989,0.3368225
			l0.1217585-0.1961713l0.0095625,0.0912995L12.399188,6.5466981L12.361249,6.7675452L12.3334885,6.735467
			c-0.0007706,0.0912995-0.0016956,0.1863008-0.0016956,0.2646461c0,0.9475436,0.0758772,2.9789643-0.2621794,3.8333573
			c-0.1190596,0.2967243-0.2627945,0.5169544-0.491044,0.745204c-0.2288666,0.2282495-0.4484797,0.3726015-0.7445869,0.491045
			c-0.6973953,0.2757502-2.1698351,0.2757502-3.2059803,0.2664967l-0.1296239,0.0820465l-0.0383244,0.0672407l0.1435041,0.1239948
			l0.0382471,0.0764942L7.5652337,12.609498l-0.0668554-0.0382471H7.2684321l0.0765715-0.0475006v-0.0672407h0.1150503v-0.0764942
			l-0.0768032-0.0382481l-0.0037012-0.0074024c-0.1384149-0.0012341-0.2676535-0.0024672-0.3795419-0.0024672
			c-0.2835383,0-0.6684008,0.0055513-1.0854959,0.0061684l0.0333123,0.0222082l-0.1149731,0.1153584l-0.0861335,0.0475006
			l-0.0766487,0.0382471H5.5647349l0.0383244-0.0857477l-0.1532202-0.0771112h0.0765715l0.1149731,0.0388641l0.0286851,0.0857477
			h0.0766487l0.0383244-0.0857477l0.0862103-0.0388641v-0.0382471l-0.0222077-0.0222082
			c-0.1899252,0-0.3832436-0.0024672-0.581265-0.0061684v0.0283766l-0.0765719,0.0382471l0.0383244-0.0382471l-0.0148826-0.0296106
			c-0.2240081-0.0055523-0.4473996-0.0129547-0.6651621-0.0271435v0.0567541l-0.1245346,0.0382471H4.3579426l0.0670099-0.0382471
			l0.094924-0.0586042c-0.5380056-0.03578-1.0302842-0.1042547-1.3538432-0.2319508
			c-0.2961075-0.1184435-0.5157206-0.2627954-0.7445869-0.491045c-0.1509068-0.1511383-0.2580917-0.3072119-0.3523986-0.4750061
			l-0.0742583,0.0740271l-0.031153,0.0777283l0.1168237,0.054903l-0.0390184,0.163476l-0.0076339,0.0468836l0.0701714,0.0777283
			l0.0545175,0.1246119l0.0390184,0.054904l0.0623059,0.0857477l0.0545177,0.054286l0.1013243,0.0703259l0.0233648,0.1326313
			l0.0701711,0.0234413l0.0701714-0.0468836l0.0390184,0.0468836l0.0233648-0.0314608L2.71979,12.1443624l0.0390184-0.0623055
			L2.71979,12.0197506l0.031153-0.0468836l0.1013243,0.0623064l0.0157306-0.0703259l0.0544407,0.0080194l0.031153,0.0314617
			L2.9381692,12.082057l0.0154223,0.0623055l0.0545175-0.0314608l-0.0154994,0.0314608l-0.0468066,0.0080204l-0.3712909,0.1523714
			H2.4652455l-0.0465751,0.0468836l-0.0623832-0.0468836l-0.031153,0.0703259h0.3116839l-0.031153,0.0388641l-0.0935359,0.0623055
			l-0.0780368,0.0703259l-0.1089582-0.1252289l-0.0701714,0.0629225l0.0623059,0.054287l0.0312302,0.0308447l0.0544405,0.0160389
			l0.023596,0.0703249l0.031153,0.0623064l0.031153,0.0308447l0.0232878,0.0468836l-0.0855937,0.0777283l0.0934589,0.0234413
			l-0.0390182,0.0783453l0.0466523-0.0080194l0.0313842-0.054286l0.1168237-0.10919l0.1170549,0.0308447v-0.1011705
			l-0.0625372-0.0468836l-0.0154994,0.054904L2.6603372,12.772357l-0.0468066,0.0154228l-0.0233648-0.1400347l0.0466523-0.109189
			l0.0390184,0.0234413l0.0232875,0.1011705l0.1014013-0.0308447l0.054672,0.1480541l0.0387871,0.1165915l0.0468836-0.0154219
			l-0.0078654,0.0388641l-0.0623059,0.0388641l-0.031153-0.0234423H2.7381425l-0.0390184-0.0623055l-0.0778053,0.109189
			l-0.1013243,0.0160398l-0.1249204-0.0314617l-0.0699399-0.1165924l-0.085902,0.054287l-0.0021591,0.0024672
			c0.6190495,0.3707514,1.3170612,0.5126362,2.0800779,0.5502663c0.377151,0.0209742,0.7526832,0.0283766,1.1282153,0.0333118
			l-0.0338516-0.0672407l-0.0670872-0.0388641l-0.0383244-0.0382471h0.0670099l0.0384016,0.0771112l0.0765715-0.0388641v0.1073389
			c0.5032282,0.0067854,1.0064569,0.0074024,1.5119214,0.0074024c0.0710196,0,0.1415763-0.000617,0.2125187,0l-0.0373988-0.0376301
			l0.0382471-0.0382471l-0.0382471-0.0672407l0.0382471-0.0764952l-0.1051798-0.0382471l0.0669327-0.0863647l0.0765715,0.0481176
			l0.0478864-0.0863647l0.0382471-0.1048708h0.0382471v0.0382471l-0.0382471,0.0666237h0.0765715l0.0764942-0.0666237
			l0.0289168,0.1048708L7.452651,13.2035637l0.0382471,0.0382471L7.452651,13.2800579l0.0382471,0.0764952L7.3760796,13.318305
			l0.0765715-0.0764942L7.2995853,13.318305l-0.0862107,0.1437359v0.0376301
			c0.8245511,0.000617,1.6438594,0.0043182,2.4694896-0.0419483c0.9565659-0.0468836,1.8072586-0.2714319,2.5307169-0.8951082
			l-0.0234423-0.0061684l-0.026989-0.0148058l0.0441847-0.0505848l0.0718679,0.0191231
			c0.0416403-0.0376301,0.0877523-0.0616884,0.1284676-0.1024036c0.1441984-0.144352,0.2532339-0.2991915,0.3621149-0.454648
			l-0.0758781-0.0141888l-0.0800409,0.0098705l-0.0744123,0.0191231l-0.0304594-0.0314608l0.0327721-0.0067863l0.0457277-0.0265265
			l-0.0469608-0.0277596l-0.0120296-0.0419483l0.0708656-0.0043182l0.0751829,0.0660067l0.119523,0.0160398l-0.0011568,0.0129547
			c0.0186605-0.0271435,0.045496-0.0518188,0.0631542-0.0795794l-0.019124-0.0067854l-0.082509-0.0684748l-0.0647736-0.0481176
			l-0.0689373-0.0024681l0.0339289,0.0475006l-0.0959263-0.01789l-0.0586042-0.1005526l-0.0848227-0.0302277l0.0082502,0.0567541
			l-0.0114889,0.0431824l-0.0505085-0.0135717l-0.0234413-0.1449699l0.0831261-0.1098061l-0.0832806-0.0067854l-0.1687193-0.0055523
			l0.000617,0.0851307l0.0650816,0.0172729l0.0122604,0.0419483l-0.0530519,0.0246763l-0.0646963-0.0481176l-0.0440311-0.0968523
			l-0.1133537-0.0684748l-0.018815-0.0746431l0.0347004-0.0141888l0.0876751,0.0771112l0.227479-0.0400982l0.1542997,0.1184435
			l0.037322,0.0635395l0.0641565,0.0789623l0.0476542-0.0339298l-0.037322-0.0641565l-0.0482712-0.0512018l-0.0444164-0.0660067
			l-0.0609179-0.0623064l0.0143433-0.1122742l-0.0160398-0.1437349l-0.1089582,0.0024672l0.0028534,0.0468836l0.0050125,0.0400982
			l-0.0203581,0.01789l-0.0242128,0.0629225l-0.0838966,0.0246754l-0.0583735-0.1005526l0.0387869-0.0598383l0.0804272-0.0400982
			l-0.0185843-0.1054888l-0.08675-0.0234413l-0.0848217-0.0296106l0.0114889-0.0437994l0.1344051-0.0104876l0.1215277-0.1381826
			l0.2203836,0.0734091l0.1807489,0.0481176l0.0626144-0.0610723l0.0968523,0.0721769l0.1194448,0.0160389l0.0602245,0.1246119
			l0.0059376,0.0943842l0.0498133,0.0746441l-0.0925331,0.1153584l0.0609179,0.0623055l0.0209742,0.0104876
			c0.2149096-0.5107851,0.3201666-1.0629025,0.3491602-1.6588182c0.0512018-0.8969593,0.0425653-1.7858982,0.0425653-2.682857
			c0-0.2183795-0.0010023-0.4349079-0.0010023-0.6526704L13.444046,6.3381891z M2.8395438,12.3750801l-0.0545177,0.0777283
			l-0.031153-0.0777283l0.0701714-0.0160398l0.0154994-0.0777273l0.0390184,0.0388632L2.8395438,12.3750801z M2.9097152,12.4762497
			l0.031153-0.1011696l0.0780365-0.0783453l0.0623832,0.0394812v0.1011696L3.034404,12.499692l-0.0154994-0.1011705
			l-0.0390182,0.0388641L2.9097152,12.4762497z M3.1435938,12.8735275L3.0579231,12.881547l-0.023519,0.0388641v0.0388641
			l-0.0545175-0.0388641l0.0701711-0.0697088l0.0078654-0.054903l-0.0390184-0.0388641h0.0390184l0.0935361,0.0234423
			L3.1435938,12.8735275z M3.4164908,12.718071L3.307301,12.7489157l-0.0390184-0.0697088l0.0859022-0.0080194l-0.0390184-0.0314617
			l-0.0935361-0.0388641l-0.0625372-0.0234413l0.0701714-0.0388641l0.085902-0.0388641l0.0544405-0.0154228l0.0232878,0.0697088
			l-0.0465753-0.0234413l-0.0468838-0.0154228l-0.0232875,0.0623064l0.031153,0.0468836l0.186995,0.0314608L3.4164908,12.718071z
			 M3.611351,12.9592752l0.0544405-0.0623064l-0.0623059-0.109189L3.580198,12.718071l0.0544405,0.0234423l0.023596,0.0388641
			l0.0465753,0.0703249l0.0078654,0.0851307L3.611351,12.9592752z M3.9077668,13.0018406l0.0383244-0.0382471l0.0382473,0.0771112
			L3.9077668,13.0018406z M3.9544191,12.7569351l-0.054749,0.0308447l-0.0544405-0.0462666l0.0466523-0.0394812l0.0780365,0.0234413
			l0.0544407,0.0703259L3.9544191,12.7569351z M4.24297,12.3985214l-0.0383244,0.0771112l-0.0765719-0.0382471L4.060987,12.5231333
			H3.9460912l0.0382473-0.2393532l0.1149728,0.0382471l0.0670867,0.1153584l0.0382476-0.0388641v-0.0382471H4.24297V12.3985214z
			 M4.3962669,13.1171989l-0.1149731,0.0382471l0.0766487-0.0764942h0.0383244l0.0670099-0.0382471L4.3962669,13.1171989z
			 M4.5016012,12.8963528l-0.0383244-0.0382481v-0.0382471l0.0862103,0.0382471L4.5016012,12.8963528z M4.5016012,12.4373856
			l-0.1053343,0.0382471l0.1053343-0.0771112h0.1627817l-0.0382471,0.1246119H4.5494871L4.5016012,12.4373856z
			 M4.6261358,13.0018406l0.0382471-0.0382471l0.0383244,0.1153584H4.6643829L4.6261358,13.0018406z M4.8080416,13.4237938
			H4.7027073l0.0287628-0.0771112l0.0765715-0.0382471V13.4237938z M4.9230146,13.1554461l-0.0765719-0.0382471
			l-0.0384011-0.0764942l0.0384011-0.1153584l0.0382476,0.0382471l-0.0382476,0.0771112H4.8080416l0.0384011,0.0382471
			l0.0765719-0.0382471V13.1554461z M4.8846903,12.6668692l-0.0382476-0.0672407l0.0765719-0.0382481l0.1436582-0.162859
			l0.162859,0.0771112l-0.0383244,0.0475006h-0.162859L4.8846903,12.6668692z M5.1912074,12.9253464l-0.0862103,0.0382471
			l0.0862103-0.1437359h0.0383244l0.0382476,0.0764952L5.1912074,12.9253464z M5.4498391,12.8198576l0.0382471,0.0382471
			l-0.0382471,0.0382481V12.8198576z M5.5647349,13.0018406l-0.0383244,0.0388641l-0.0765715-0.0388641v-0.0764942h0.1148958
			V13.0018406z M5.9765863,12.4756327l0.0383244-0.0382471l-0.0479631,0.0567541L5.9765863,12.4756327z M5.9765863,12.9253464
			l-0.1437354,0.1153584l-0.0478091,0.1147413l-0.0766487-0.0382471l-0.0383244-0.0382471v-0.0382471l0.0766487-0.0771112
			v-0.1437359H5.7083931l-0.0383244-0.0382471h0.1149731v0.0382471l0.0862103,0.1054888H5.9765863v-0.0672417l0.0383244,0.0382481
			L5.9765863,12.9253464z M6.0914822,12.6286221l-0.0383244,0.0382471H6.0149107l0.0382471-0.0672407L5.947824,12.5613804
			l0.0095615-0.0382471h0.1340966l0.0383244,0.0382471L6.0914822,12.6286221z M6.2734647,12.5613804H6.2064552v0.0382481
			l-0.0383244-0.0382481v-0.0857477h0.1053338V12.5613804z M6.5128956,13.4237938v-0.1153584h0.0383244l0.0287623,0.0764942
			L6.5128956,13.4237938z M6.6948781,12.6668692l-0.0383244,0.0382471H6.5799823l0.0765715-0.0764942h0.0383244V12.6668692z
			 M6.6183066,12.4373856l-0.0383244-0.0771112l0.0765715,0.0382471l0.0383244,0.0388641H6.6183066z M7.2105217,12.772974
			l-0.0382471,0.0764942l-0.277524,0.0382481H6.7895708l0.0382471-0.0764952h0.1913905l0.0764942-0.0764942l0.0382476-0.0764942
			l0.0765715,0.0382471l-0.0382471,0.0382471l-0.0383244,0.0764942L7.2105217,12.772974z M8.2129688,12.9259634
			l-0.1051025,0.0382471l0.0668554,0.1054878H8.0309858l-0.0859017-0.1054878l0.0859017,0.0382471l0.0383244-0.1529894
			l-0.1242261-0.0382471v-0.0672407h0.0859017l0.1151276-0.1147413v0.0764942l0.0668554,0.0382471V12.9259634z
			 M9.9301605,12.3837166L9.8561335,12.371995l0.0117979-0.0740261l0.0724077,0.0191231L9.9301605,12.3837166z
			 M9.9566097,12.5768032l-0.0030842-0.0475006l0.026989,0.0148048l0.0195856,0.0437994L9.9566097,12.5768032z
			 M10.429533,12.4848862l-0.0404062,0.03578l-0.0289164-0.0074024l0.0095615-0.036397l0.0892181-0.0148048L10.429533,12.4848862z
			 M10.6919432,13.0727835l-0.0285311-0.0382481l0.0451097,0.0037022l0.0195866,0.0444155L10.6919432,13.0727835z
			 M11.1166725,12.7828445l-0.0559063-0.0222082l0.0365515-0.0215912l0.0454178,0.0043182L11.1166725,12.7828445z
			 M11.1495991,12.6292391l-0.0336981-0.0475006l-0.0476542,0.0333118l-0.0689383-0.0024672l0.0549803-0.0320787
			l0.0616121,0.0012341l0.0905285,0.0080194l0.0693235-0.0277605l-0.046113,0.0573711L11.1495991,12.6292391z
			 M11.3059034,12.8870993l-0.0347004,0.0141878l0.0369368-0.0524349L11.3059034,12.8870993z M12.5612755,12.0894594
			l0.0390959,0.0567541l-0.0543642,0.0012341L12.5612755,12.0894594z M12.5195589,12.2177725l-0.0296116,0.054287
			l-0.0724068-0.019124l0.0245209-0.0635395L12.5195589,12.2177725z M12.3726616,11.954977l0.072176,0.018507l0.0526667,0.0061693
			l-0.0152674,0.0579872L12.4152269,12.02777l-0.0673952,0.0209751l-0.0285311-0.0388641L12.3726616,11.954977z
			 M12.3111267,12.2171555l-0.0279913,0.0462675l-0.053978-0.0296106l0.0084047-0.090683l0.046113-0.0573711l0.0193548,0.0437994
			L12.3111267,12.2171555z M12.2847548,11.8772488l-0.0064774,0.0832806l-0.0574484-0.0462666l0.0118752-0.0740271
			L12.2847548,11.8772488z M12.1784954,11.6946497l0.0562906-0.0086365l-0.0495825,0.0413313l-0.0413313-0.0191231
			L12.1784954,11.6946497z M11.8405161,12.6495962l-0.0447245-0.0351629l0.0152683-0.0579872l-0.0434914-0.0117216
			l-0.0174265-0.0505848l0.059761,0.0080194l0.0446472,0.0660076L11.8405161,12.6495962z M11.8437548,12.2868643
			l-0.0491972,0.0098705l0.0283003-0.0777283l0.0565224-0.0080194L11.8437548,12.2868643z M11.9281149,11.8217287
			l-0.0369368,0.0518188l0.013957,0.0345459l-0.0432587-0.0111036l-0.0103331-0.0493517l0.0533609-0.0555201l0.0511246-0.0172729
			L11.9281149,11.8217287z M12.025198,12.1567011l-0.0654678,0.0135708l-0.0011568-0.054286l0.0616894,0.000617l0.0365505-0.0209742
			L12.025198,12.1567011z M11.9816303,11.6193886l0.0090218-0.1215267l0.0543633-0.0012341l0.0026989,0.0783453
			l-0.0016966,0.1233778l-0.1070299-0.0055523L11.9816303,11.6193886z M11.9486265,11.2467871l0.0033159-0.0999365
			l0.0755692,0.03578l0.0059376,0.0943842L11.9486265,11.2467871z M12.0865011,10.9889269l0.0654678-0.0135717l0.0246754,0.0530529
			l-0.0568314,0.0394812l-0.0702477-0.0265265l-0.0193548-0.0437994l-0.0161171-0.0277605l0.0380936,0.0024681
			L12.0865011,10.9889269z M13.2017622,8.8137712l0.0599155-0.0931511l0.0464983,0.0462675l-0.0532074,0.0801954
			L13.2017622,8.8137712z M13.3552904,9.5620594l-0.0599146,0.0598383l-0.0667019-0.0666246L13.3552904,9.5620594z
			 M13.1222601,9.4423828l0.0798101-0.0135717l0.0131865,0.07341L13.1222601,9.4423828z M13.2020702,9.7286196l-0.0599146-0.0931501
			V9.5688448l0.0532064,0.0265265L13.2020702,9.7286196z M12.9221563,9.0932226l-0.0534382-0.0197411l0.0865192,0.0197411
			l0.07341-0.1529894l0.0067081,0.0931511l0.0464983,0.0863647L13.0085211,9.100008L12.9221563,9.0932226z M12.9353428,9.3264065
			l-0.0464983-0.0400972l-0.0134172-0.072793l0.0467291,0.0265265L12.9353428,9.3264065z M12.8888445,8.5139618l0.0198946-0.0333118
			l0.0599155,0.0931501l-0.0733328,0.0598392l0.0201263-0.0394812l0.0198946-0.0333128L12.8888445,8.5139618z M13.075531,9.4491682
			l0.0400209-0.0067854L13.1088428,9.48248V9.535533l-0.0532837-0.0265265L13.075531,9.4491682z M13.0735264,6.6639075
			l-0.0283775-0.1696448l-0.0191231-0.0647736l0.10464,0.0129547l-0.0382471,0.0783448l-0.0093307,0.090683l0.0475779,0.0653906
			L13.0735264,6.6639075z M13.0164633,6.1562066l0.0475006-0.0518188l0.0380163-0.1042542l0.0571394-0.0259094l0.0095615,0.1301637
			l-0.0855932,0.0388641l-0.0759544,0.1042547L13.0164633,6.1562066z M12.9880095,6.7940712l-0.0663929,0.1690283V6.8329353
			l-0.0475006-0.1690278L12.9880095,6.7940712z M12.6079283,6.299325l0.0095615,0.0783453l0.0475779,0.0647736l0.1994867,0.0259094
			l0.0283766,0.1042542l-0.0379381-0.0783448l-0.0568314,0.026526l-0.0287628,0.090683L12.7410221,6.481308l-0.0475779,0.026526
			l-0.0663929,0.1165924l-0.0570621-0.0518188l-0.0188923-0.2603278L12.6079283,6.299325z M12.6690006,8.3412333
			l-0.0865965,0.0265255l-0.073101,0.0197411L12.4958849,8.354188l0.0865192-0.0400982l0.0534382-0.0061693V8.2610369
			l0.0331583,0.0135717l0.0333118-0.0135717l0.0599155,0.0197411l-0.0198946,0.0333118l-0.0400209,0.0135717L12.6690006,8.3412333z
			 M12.689126,8.5207481l-0.0865955,0.0265265l-0.0733328-0.0197411l-0.0333128,0.07341l-0.0465746,0.0129547l0.02668-0.0598383
			l0.0798101-0.1128912L12.689126,8.5207481z M12.7555189,8.1216202l0.0400209-0.0468845l-0.0798101-0.1462026L12.689126,7.8816495
			l0.1064138,0.0863647l0.0266809,0.0666242l0.0067081,0.053669l-0.0333891,0.0394812L12.7555189,8.1216202z M12.7601461,6.9371901
			l-0.0379391,0.0388641l0.0567541,0.0388641l-0.0283775,0.1819825l0.018815,0.0653906l-0.2087402,0.0259094l0.0759554-0.0913
			l0.0855932,0.0524359l-0.0287628-0.2732825l-0.0663929,0.090683l-0.0570621-0.0259094l0.0475006-0.0647736h0.0759544h0.0287628
			l0.018815-0.0653906L12.7981615,6.84589l0.0475006,0.1042547L12.7601461,6.9371901z M12.4751425,7.1062179l0.0380154,0.2726655
			l0.0663929,0.1431189l-0.0759544,0.0265265l-0.0571394-0.1431189L12.4751425,7.1062179z M12.1930695,10.7619114
			l-0.0622292,0.0302277l0.0356255-0.0758781l0.0689373,0.0030851L12.1930695,10.7619114z M12.3698082,10.3146658h-0.0532064
			l0.0666237-0.0468836l0.0132637-0.0666246l0.0200481,0.0598383L12.3698082,10.3146658z M12.5699892,9.2523804l0.0379391-0.0518188
			L12.5510969,9.408453l-0.10464-0.0647736L12.5699892,9.2523804z M12.4627275,9.6194296l0.0331573,0.0197411l0.0666246-0.0598383
			l0.0532064,0.0265265l-0.0865183,0.0197401v0.0333118h-0.0798874L12.4627275,9.6194296z M12.5692177,9.7989454
			l-0.0532064,0.0265255V9.7588472l0.0397892-0.0061693L12.5692177,9.7989454z M12.5237226,9.9938822l0.0948467-0.054286
			l0.0609951-0.0203571l-0.0203571,0.0475006l-0.0338526,0.0203571l-0.0609951,0.0407143l-0.0744886,0.0067863l-0.0202808-0.0882158
			L12.5237226,9.9938822z M12.6185694,10.1968393l0.040638-0.0468836l0.0338516,0.0400982l-0.0202799,0.0678577
			l-0.0609951,0.0475006l0.0339289-0.0604553L12.6185694,10.1968393z M12.6096249,10.6206436l-0.0266809-0.0400982
			l-0.0400209-0.0129547l-0.0599155-0.0265265l0.0067091-0.0400982l0.0333118-0.0333118l0.0266037,0.0265265l-0.0067091,0.0400982
			l0.0933046,0.0598383l0.0131865,0.0530519L12.6096249,10.6206436z M12.6998444,10.4886284l-0.0677032-0.0067854
			l0.0270662-0.0407152h0.0744896L12.6998444,10.4886284z M12.6795645,9.7773542L12.652421,9.682353l0.0609951-0.0339289
			l0.0067863,0.0746431l0.0270653-0.0339289l0.0338526-0.0808125l0.0203571-0.054903l0.0338516,0.0610723l0.0338516,0.0746431
			l0.0135717,0.0475006l-0.0609951,0.0203571l0.0203581-0.0407143l0.0135708-0.0407152l-0.0542088-0.0203571l-0.040638,0.0271435
			l-0.0271425,0.162859L12.6795645,9.7773542z M12.789217,10.5743761l-0.0131865,0.0462675l-0.0400209-0.0462675
			l0.0666246-0.0468836h0.0599155l0.0266027,0.0468836H12.789217z M13.075531,10.4744406l-0.0132627,0.0394802l-0.0134182-0.0462666
			L13.01577,10.4873953l0.0330801,0.0869808l-0.0929956,0.0931511l-0.0201263-0.0333128l0.04673-0.0869808l-0.0201263-0.0598383
			l0.0599155-0.0598392l-0.0333118-0.0400972l-0.0330811-0.0129547l-0.0400982,0.0265265l-0.0798101-0.0197411l-0.0467291-0.0801954
			l-0.0064774-0.0795794l0.0663929,0.0462675l0.04002-0.0333128l0.0400209,0.0468836l-0.0932274,0.0462675l0.0865192,0.0271425
			l0.0465746-0.0135708l0.1265402,0.0999355L13.075531,10.4744406z M13.1021347,9.8217697l0.0268345-0.0333118l-0.0599928-0.0067854
			l-0.0467291-0.0197411l0.0733328-0.0265265l0.0731783,0.0598383l-0.0397892,0.0598392L13.1021347,9.8217697z
			 M13.2552776,10.5608053l0.0532837,0.0067854l-0.0731783,0.0666237l-0.0733328,0.0129547l0.0134172-0.0530519
			l-0.0266037-0.0265265l-0.0067081-0.1665602l0.0798101-0.1067228l0.04002,0.0400982l0.0266809-0.0530529l0.0333118,0.0197411
			l-0.0266027,0.07341l-0.0801191,0.0333118v0.1332483L13.2552776,10.5608053z M13.2819576,10.0000515v0.0678577
			l-0.0667009,0.0135717l-0.0464983-0.0333118l0.0464983-0.0795794l0.0667009,0.0129547v0.0061693l0.0128012-0.0289946
			l0.0532837-0.0462666L13.2819576,10.0000515z M13.335165,9.9217062l-0.0397892-0.0265265V9.8618679l-0.0532846-0.0067854
			l0.0266037-0.0400982l0.0065546-0.0863647L13.335165,9.755146l-0.0599155,0.0666237l0.0532064,0.0468836l0.0400209,0.0265265
			L13.335165,9.9217062z M13.3018532,9.3294916l-0.0398674-0.0203571L13.335165,9.282608l0.0333118-0.07341l0.0067091,0.0666237
			L13.3018532,9.3294916z M13.320591,8.0944767l-0.0571394-0.1165924l0.1235323,0.0129547l0.0475006,0.1295471L13.320591,8.0944767z
			 M13.3774214,6.9630995L13.3489676,6.84589l-0.104331-0.0259094l0.018815-0.1042542l0.0380154-0.0783453l0.0759544,0.0783453
			L13.3489676,6.84589l0.0571394,0.0647736l0.0475006,0.0653906L13.3774214,6.9630995z"/>
		<polygon fill="#FFFFFF" points="12.1176538,2.7047043 12.0858068,2.7065549 12.119813,2.7435682 		"/>
		<polygon fill="#FFFFFF" points="10.1166153,0.9274426 10.1092129,0.9046177 10.0577793,0.9323778 		"/>
		<polygon fill="#FFFFFF" points="12.4428329,2.6695414 12.4403648,2.6787949 12.4539366,2.6806455 		"/>
		<polygon fill="#FFFFFF" points="5.1182604,0.8213375 5.1791782,0.8213375 5.2266016,0.7602653 5.2875967,0.8959812 
			5.3417287,0.9502676 5.42979,0.9299102 5.4704275,0.8824096 5.5855551,0.8281233 5.5042796,0.7880254 5.4636416,0.7540964 
			5.4162183,0.7269532 5.3485146,0.7880254 5.1791782,0.6930242 5.152112,0.7744538 		"/>
		<polygon fill="#FFFFFF" points="4.9692812,0.9706249 5.0504794,0.9163386 5.0301991,0.8552665 4.9963474,0.902767 
			4.9489241,0.8824096 4.9489241,0.8817927 4.9463019,0.8824096 4.9362774,0.9373128 		"/>
		<polygon fill="#FFFFFF" points="12.9782934,11.1863317 12.9505339,11.0863953 12.8777409,11.0981169 12.838954,11.1573381 
			12.9325666,11.2128582 		"/>
		<polygon fill="#FFFFFF" points="3.3675251,1.8311872 3.388268,1.7738163 3.3527968,1.7182963 3.3093059,1.776284 
			3.2540944,1.8231677 3.2778447,1.8564798 3.3568838,1.8540121 		"/>
		<polygon fill="#FFFFFF" points="12.7387857,11.1850977 12.6024532,11.2029877 12.5780087,11.2665272 12.6400061,11.2362995 
			12.6784849,11.2079229 12.7181196,11.2338324 12.7686281,11.2467871 		"/>
		<polygon fill="#FFFFFF" points="12.7886,6.2475066 12.8645544,6.2475066 12.9024935,6.1562066 12.7693987,6.1043878 		"/>
		<polygon fill="#FFFFFF" points="13.0639639,5.2715855 12.9880095,5.1802859 12.9216166,5.3369761 12.9405088,5.5707774 
			12.9880095,5.6491227 13.0355873,5.6096416 13.0639639,5.544868 13.1019802,5.4147043 13.1306658,5.5060039 13.1874962,5.4535685 
			13.2158737,5.3628855 13.1306658,5.2715855 		"/>
		<polygon fill="#FFFFFF" points="13.2921371,5.7922411 13.4156694,5.8570147 13.3680916,5.5837321 		"/>
		<path fill="#FFFFFF" d="M13.0918789,11.3713989l-0.0526676-0.0061684l-0.0350084,0.0444155l0.0663157,0.0104876
			c0.0077114-0.0172729,0.0167332-0.0339289,0.0242128-0.0512018L13.0918789,11.3713989z"/>
		<polygon fill="#FFFFFF" points="12.921463,11.4886084 12.9222336,11.426919 12.8428087,11.4059448 12.8491325,11.4694843 		"/>
		<path fill="#FFFFFF" d="M12.912055,5.4406137l-0.0759544-0.0518188L12.7886,5.2715855l-0.0284538-0.0388641l-0.0759554-0.0912995
			h-0.1235323l-0.1425781,0.1560731L12.361249,5.4930491l-0.0247526,0.0265265
			c0.0007706,0.072176,0.0012341,0.1406512,0.0015421,0.2109766l0.0040865-0.0296106h0.0663929v0.117209h0.0570631
			l0.0571394,0.0259094l-0.0475779,0.0388641l-0.0475006,0.2214637l0.104332-0.0912995l0.085516-0.0388641l-0.018815-0.0913
			l-0.0380163-0.1301637l-0.0095615-0.181983l-0.0666237-0.090683l0.0382471-0.0653901l0.0283766,0.0912995l0.1711102,0.2467566
			l0.0947695,0.1566901l0.019124-0.1301641l-0.0759544-0.1560731l-0.0759554-0.1696448l-0.0286846-0.1165924l0.0667009,0.1036377
			H12.912055z"/>
		<polygon fill="#FFFFFF" points="3.6549189,0.7491612 3.6104257,0.6893229 3.5213621,0.7491612 3.5584526,0.8305908 		"/>
		<path fill="#FFFFFF" d="M2.2710021,1.1063409l0.0348544,0.0326952l0.1007073-0.0370134L2.5003312,1.212446l0.0455728,0.0098703
			l0.0079424-0.1135079L2.5159848,0.9743263l0.0555201-0.0357797l0.0385559,0.157307L2.5576248,1.2334203L2.4478955,1.3500127
			l0.0454957,0.0098702L2.593096,1.2889404l0.1458948-0.0382472L2.6693592,1.1846859l0.0772655-0.0586046L2.6769931,1.0711781
			l0.0086365-0.0906829l0.2152178,0.0049351l-0.009639,0.0567539L2.8580506,1.0656261l0.1162066,0.1098064L3.028775,1.1063409
			l-0.0144198-0.101787l0.1817515,0.0172729l0.0244441,0.0672411l0.0707111,0.0579877v-0.078962l0.0964663-0.0592215
			l0.0222852-0.0592215L3.469389,0.9348453L3.4322984,0.9866641l0.0741811,0.0148054L3.54357,1.060691L3.447181,1.0977044
			L3.3877282,1.0310802L3.3358324,1.0977044l0.022208,0.0518188l0.0593758,0.0598383l0.0593758-0.0148053l0.0445702,0.0444161
			l0.0148053,0.0444162l0.0371678,0.0148053L3.5213621,1.2907912L3.4767919,1.3500127L3.4026108,1.3204019l-0.081661,0.0666242
			H3.2541714l0.0519731-0.0962349L3.2779217,1.2587128L3.2611885,1.302512L3.2280307,1.3376749L3.1862364,1.4517995
			L3.087611,1.5566709L3.0226831,1.6492045l0.0679352,0.0092534l0.0766485-0.0931505l0.0555203-0.0240587L3.2014272,1.5757946
			l0.1251516,0.0302277l0.0731015,0.1677941L3.3675251,1.8311872L3.357192,1.8651162L3.2778447,1.8564798l-0.022748,0.0006169
			L3.2096012,1.8472264L3.1546979,1.9052141l0.0096388,0.0265263c0,0,0.0010796-0.0006169,0.0016966-0.0012338
			c0.1956313-0.0771114,0.4575784-0.1307808,0.7492135-0.1708786l-0.0296879-0.050585l-0.0307674-0.061689L3.8107607,1.668945
			L3.7439826,1.6615423L3.706892,1.6245289l0.0964661,0.0148054L3.6920865,1.4912806L3.6178284,1.5208913l-0.103869,0.0148053
			L3.4842715,1.6097236L3.4100134,1.5579047L3.4026108,1.4912806l0.1335566-0.0222081l0.0965436-0.0376303l0.0593755-0.0592215
			l0.0518961,0.0592215l0.0444932-0.0141884h0.0668554L3.907227,1.4468645l0.0371678-0.1116573l0.0667784-0.0740268
			L3.9369922,1.224167L3.907227,1.1421205l0.0519731-0.0148053L3.988888,1.0532883L3.9592001,0.9792614L3.8182406,0.964456
			l0.1483622-0.022208l0.096158-0.0302277L4.0548954,0.8959812l0.0283771,0.0092534l0.0020819-0.0006169L4.0959187,0.902767
			l0.0020046-0.0320783l-0.012569-0.0104871l0.0131087,0.0024676l0.0038557-0.061689L4.1225991,0.834909l0.0124149,0.0234419
			l0.054286-0.1017869l0.081584-0.1116572l0.0667787,0.0444161L4.3228569,0.7713693l0.0742583-0.0296108l0.0964665,0.1708786
			L4.4325867,1.0138073l0.0253696,0.0160391l0.0653129-0.0061688l0.0222855,0.0666242l0.058836,0.0592215l0.0126462-0.0641567
			L4.6576743,1.133484l0.0338521,0.0808127L4.7050977,1.139653l0.004087-0.0092534l0.0070171-0.0771112l0.0241361,0.0160391
			l0.0324636-0.0376303L4.7795873,0.936696L4.6915264,0.9163386l-0.0067086,0.067858L4.6441031,0.9570534L4.6238227,0.9095528
			l0.0202804-0.0271432L4.6102509,0.834909L4.5831847,0.8077658L4.574163,0.7269532l-0.0657759,0.022208v0.0370135
			L4.4564137,0.7417586l0.0519733-0.0376303l0.0593758-0.0222081l0.0964661,0.0672411L4.656826,0.8083827l0.0667787,0.0148054
			l0.0297647,0.022208L4.7117295,0.8663704L4.7186694,0.868838l0.121913-0.0475006L4.869885,0.863286l0.0021591-0.0030845
			l0.0742579,0.0222081l0.0026221-0.0030845V0.7540964L4.8947148,0.6183805l0.0135713-0.033929l0.1557651,0.1221443
			l0.1151271-0.0135716l0.0067859-0.067858l0.0677037,0.0135716l0.1354847,0.0135716l0.1151271,0.0882153h0.0812755
			l0.0745664,0.033929L5.6465497,0.6930242l0.040638-0.0407147l-0.0135717-0.033929l0.121913,0.0067858L5.7616773,0.7065958
			l0.0474234,0.0746437L5.8700957,0.69981l0.1015553,0.0882154l0.0744896,0.1079558l0.0135717-0.1079558l-0.040638-0.0135716
			L6.0257835,0.733739L5.9852228,0.7133816L5.9716511,0.665881l0.040638-0.0542864L6.0055032,0.6523095L6.0732069,0.733739
			l0.0474234,0.0672411l0.0474234-0.0468837L6.1274161,0.7065958l0.0542092-0.0135716L6.215477,0.7540964l-0.0338516,0.033929
			l0.0067859,0.0604553L6.215477,0.8959812l0.0677037-0.0407147v0.0542864l0.0339293,0.0339289L6.3644562,0.936696
			L6.3509617,0.8620522L6.3103242,0.8213375l0.0474234-0.0542864l0.054132,0.0141885l0.067781-0.0610722L6.3509617,0.69981
			L6.256115,0.733739l0.0677037-0.0610722L6.439023,0.6115947l0.1218357,0.0407148l0.0609951-0.0271432L6.6557055,0.631952
			L6.6286397,0.6794527L6.5541501,0.6590952L6.5337925,0.7133816l0.067781,0.0135716h0.0473466l0.0677805,0.1011701
			l0.0202804,0.0475006l0.0474234-0.0604553l0.1015558-0.0610722L6.8995318,0.665881l0.0609946-0.0746437L7.0079503,0.665881
			L6.9605265,0.733739L6.919889,0.7602653L6.8453994,0.8077658l0.1151271,0.067858l0.1015558-0.033929L7.1095057,0.834909
			l0.0067859,0.0407148L6.9808068,0.936696L6.892746,1.0520545l-0.0541325-0.033929L6.8250422,1.0656261L6.8453994,1.133484
			l0.0677037,0.0129547l0.0880613-0.1215274H7.075654L7.1433578,0.936696l0.149056,0.0475006L7.2382045,0.8824096
			L7.2517762,0.733739h0.1083412L7.3330517,0.7880254L7.2584848,0.8077658l0.0609951,0.0203574L7.4888163,0.902767
			l0.0270662-0.0814295H7.46175l0.0067091-0.0740269l0.0744891,0.0129547l0.0745668,0.0610722l0.054132-0.0333121L7.6377954,0.69981
			L7.624301,0.6455237H7.5429482l0.0271435-0.0542864l0.0677037,0.0271432l0.0406375,0.0407147l0.0744896-0.033929
			l0.0067859,0.0610722l0.0406375,0.0203574l0.0203576,0.0604553H7.7461367L7.7190709,0.7065958L7.7055764,0.7880254
			l0.054132,0.0333121l0.0948467,0.0067858L7.834198,0.8756238l-0.0541325-0.033929l0.0677037,0.1017869L7.8207035,1.0316972
			L7.8884072,1.133484L7.8409839,1.2007251l0.0406375,0.0407149l0.0474234-0.0271432L7.8545551,1.2685831L7.8274894,1.2414399
			L7.8071318,1.2957263L7.7800655,1.3635842l0.0879841,0.0808127l0.1016331,0.0746437L7.915473,1.5597554L7.861341,1.5190406
			L7.834198,1.4789428L7.7055764,1.4517995L7.739428,1.3228694L7.6852188,1.3432268L7.624301,1.438228L7.5633059,1.4443969
			v0.0475006l0.0677037,0.0746437L7.624301,1.6004702L7.5700917,1.539398L7.5429482,1.6140418v-0.101787L7.5362396,1.4308252
			L7.4888163,1.3839417L7.4413929,1.3635842l0.0338516-0.0339289l0.040638,0.0542864l0.0338516,0.0339289l0.0338521-0.0746437
			L7.5497341,1.2889404L7.5362396,1.1260813L7.5971575,1.133484l0.0067859,0.1215274l0.0677037,0.0067859l0.067781-0.067858
			l0.0338521-0.2504576L7.7190709,0.8484806L7.6716471,0.8151686L7.6039433,0.9095528L7.5835862,0.8213375L7.5362396,0.9434817
			L7.4075408,1.0452687V1.0249113L7.2924137,1.0316972L7.2584848,1.0927693L7.3398371,1.173582L7.3059082,1.1871536
			l-0.054132-0.0265263L7.2382045,1.1871536L7.2652707,1.302512L7.1501436,1.4308252L7.1162915,1.4178705L7.0620823,1.4308252
			l0.0203576,0.0481175L7.0147362,1.5461838L6.9266748,1.5190406L6.8521852,1.5054691l0.0134945-0.0875986l0.0338521-0.1221442
			L6.8656797,1.2414399L6.8182564,1.2889404l-0.0406375-0.067858L6.642211,1.173582L6.5744305,1.0588403L6.5135126,1.099555
			l0.0677037,0.0610722l0.0135713,0.0672411L6.520298,1.2346541l0.0270662,0.0950012V1.37037l0.1557651-0.0271432
			L6.6760631,1.2142967l0.0406375,0.0271432l0.0202804,0.0542864l0.0542092,0.0203574l0.0135717,0.0814295L6.770833,1.3567984
			L6.6828489,1.4240395l0.054132,0.0746437l0.0880613,0.033929L6.7911901,1.6072559H6.7369809L6.7031293,1.539398
			l-0.040638-0.0542864L6.5744305,1.4579685L6.5135126,1.4789428L6.4660888,1.4036821L6.3915997,1.4517995L6.3628368,1.4888129
			l0.0454955,0.0172729L6.371242,1.5875155L6.3364649,1.5233588L6.3238187,1.539398L6.2763953,1.6140418L6.2290487,1.6411849
			L6.1680536,1.6547565l0.0067859-0.0475006l0.0270662-0.0407147L6.1206303,1.5529696L6.0597124,1.5054691L6.0461407,1.6140418
			L6.012289,1.6004702l0.0270658-0.0475006L5.9987173,1.5597554L5.9377995,1.5326122L5.9310136,1.6411849L5.8497381,1.6615423
			l0.0203576-0.033929l-0.040638-0.033929L5.734611,1.6615423l-0.2099743-0.033929H5.4095097l-0.005475,0.0382472
			c0.6110301-0.0092534,1.1991582,0.0024676,1.595973,0.0024676c0.9475441,0,2.9789648-0.0758775,3.8339748,0.2621784
			c0.2961073,0.1184429,0.5157204,0.2627953,0.7445869,0.4910449c0.2159882,0.2165287,0.3537865,0.4293559,0.4690676,0.7020214
			l0.0626917-0.0394809l0.0182753,0.0549033l0.0811987,0.0080194l0.0104094,0.0308447l-0.0603008,0.0555201l-0.01334,0.0129547
			l0.0843592,0.0234418l0.0627689-0.0209742l0.0313845,0.0943842l0.0811214,0.0074027l-0.0314617,0.0370135l0.0627689-0.0209744
			l0.0235958-0.0339289L12.434967,3.4369533l-0.1021719,0.0339289l-0.0391731-0.117826l-0.0836658-0.0419486l-0.0419483,0.0838971
			L12.126214,3.2691591L12.1131821,3.30864l-0.0029306-0.0030844c0.1569214,0.5021489,0.2097425,1.2837493,0.2230835,2.0480764
			l0.0183525-0.0166559l0.0283766-0.1566901l0.1139708-0.1554565l-0.1044092-0.0394812l-0.0475006-0.1301637l0.0095625-0.1165924
			L12.399188,4.673202l-0.019124,0.1690278l0.1899252-0.1949372l-0.0380154-0.1301641l-0.018816-0.1819825l-0.0950775-0.0524359
			l0.0663929-0.1301637l0.085516-0.0123382l0.0286856,0.2338018l0.0475779,0.1690278l0.0759544,0.1042547l-0.0759544,0.0912995
			l0.018815,0.0777283v0.117209l-0.0380163,0.0913l0.1423473,0.0647736l0.0951557,0.117209l0.0475006-0.1301637l0.1044083-0.0518188
			l0.019124,0.090683l0.0950785,0.0524354l0.0948467-0.0524354l0.019124-0.2473731l0.0283766,0.2603278l0.0475779,0.208509
			l0.0095615,0.0777283l0.0472689-0.0777283l-0.0093298,0.0777283l0.1247654,0.0912995
			c-0.0003853-0.026526-0.0019274-0.0530524-0.0023899-0.0801954l-0.0275288-0.0499682l0.0241356-0.0623059
			c-0.0040865-0.2257819-0.0108728-0.4521809-0.0205116-0.6785798L13.444046,4.5954738L13.3489676,4.673202l-0.0379381-0.0647736
			l0.0191231-0.0913l-0.0667009-0.117209l0.1330938-0.1949377l0.040946-0.0764942
			c-0.0704794-0.9623494-0.3154621-1.8216777-1.0298214-2.536037c-0.0225163-0.022825-0.0481949-0.0351628-0.0710192-0.056754
			l-0.0238276,0.0080196l-0.0732565-0.0104871l0.0287628-0.0518188c-0.0795012-0.0715593-0.1621647-0.1338652-0.2449827-0.1949373
			l-0.0322323,0.0240587l0.0034704-0.0468837c-0.0700178-0.0512019-0.1357937-0.1153585-0.2080469-0.1591578l-0.0151138,0.0697087
			L11.7409658,1.082899c-0.0331583-0.0197405-0.0692463-0.0308444-0.1028671-0.0493512l-0.0028524,0.0197406l0.0208969,0.0629227
			l-0.0836658-0.0419486l-0.0285311-0.0857477c-0.127696-0.0635397-0.2523088-0.1363328-0.3862505-0.1838334l-0.0353947,0.0703255
			L11.1014042,0.812701l-0.0653906-0.0135716L11.026144,0.7695187c-0.1559963-0.0493513-0.3155403-0.090066-0.4792471-0.1215274
			l-0.0060148,0.0302276l-0.054903,0.0185067l0.0104866,0.0308446l0.0339289,0.0240587l0.0626917,0.0838971l-0.0444155,0.0493512
			l0.0339289,0.0234419l0.0287619,0.0869816l-0.1152811-0.0579877l-0.0101786-0.1363328l-0.0838976-0.0419486L10.383729,0.7041283
			l0.0837431-0.0764945c-0.2533875-0.0437992-0.5145636-0.0715593-0.7846079-0.0851309
			c-0.8969584-0.050585-1.7858977-0.0419486-2.6828566-0.0419486S5.2141094,0.4919179,4.3171511,0.5425029
			C3.5689397,0.5795164,2.884654,0.7201674,2.2745492,1.0754963L2.2710021,1.1063409z M6.4660888,1.6140418V1.5529696
			l0.0474238-0.0542864l0.0270658,0.0203574l0.0338521,0.067858L6.4660888,1.6140418z M7.4007554,1.1606272L7.4278212,1.173582
			l0.0609951,0.0475005l-0.0880609,0.033929V1.1606272z M11.7978735,2.3092773l-0.0761089,0.0598385l-0.0811205-0.0080197
			l0.1151266-0.072793l0.1363335-0.0104871l0.0104094,0.0314612H11.7978735z M11.6724138,2.2377181l0.0209742-0.0413318
			l0.0498133,0.01789l0.013032-0.0388641l0.0104876-0.07341l0.0212059-0.0419486l0.0628452-0.0209742l-0.0105639,0.0734098
			l-0.0313845,0.0104873l-0.0421801,0.0838971L11.6724138,2.2377181z M11.9629688,2.4813898l-0.0209742,0.0419486
			l-0.0313072-0.0943842l0.0627689-0.0203574L11.9629688,2.4813898z M11.9825554,2.2031722l0.0941525-0.0314615l-0.0104866,0.07341
			l-0.0313845,0.0104871L11.9825554,2.2031722z M11.9852543,2.0014491l0.0761089-0.0598385l-0.0104876,0.072793
			l-0.0342369,0.0814297L11.9852543,2.0014491z M12.1429472,2.7435682l-0.0444937,0.0499682L12.069768,2.7071717
			l0.0160389-0.0006168l-0.0208969-0.0234418l0.0496597-0.0339291l0.0030842,0.0555203l0.0462675-0.0030847L12.1429472,2.7435682z
			 M12.1084013,1.9780072l0.0471144,0.0363964l-0.0418711-0.0209742L12.1084013,1.9780072z M12.2227573,2.9255509
			l0.0209742-0.0419486l0.0182753,0.0549033L12.2227573,2.9255509z M12.2411098,2.8761997l0.0209742-0.0419486l0.0000772-0.1048713
			l-0.0837431-0.0419486l-0.0313845,0.0104871l-0.0104103-0.0314615h0.10464l0.0132637-0.0394809l0.0418711,0.0209742
			l-0.0104866,0.07341l0.0104094,0.0314615l0.041872,0.0209742l-0.0104876,0.07341L12.2411098,2.8761997z M12.5388365,3.7713079
			l-0.0313072-0.0943844l0.0522814,0.0524359l0.0418711,0.0209742L12.5388365,3.7713079z M12.6567392,3.8366983l-0.0208969-0.062923
			l0.0628452-0.0203574L12.6567392,3.8366983l0.0627689-0.0209744l0.0523586,0.0524359l-0.0732555-0.0104873L12.6567392,3.8366983z
			 M12.912055,4.7774563l0.0188923,0.1301641L12.826539,4.8681393l0.0380154-0.1560736l0.0759544-0.1036372l0.019124,0.0906825
			l-0.0950785,0.0783453H12.912055z M13.0639639,4.8422298l-0.0475006-0.0777283l0.019124-0.117209l0.0283766,0.0912995V4.8422298z
			 M13.1874962,4.1136823l0.0759554,0.0388641l0.0191231,0.1042542l-0.0667009-0.0647736l-0.018815,0.1301641l-0.0759544,0.0647736
			l-0.0475779-0.1690283l0.0855932-0.1042542l-0.0855932-0.090683l-0.0663929,0.0388641l-0.0761862,0.1042542l0.019124,0.1036377
			L12.892931,4.3481007l-0.0568304,0.0259094l-0.019124,0.0647736l0.0095625-0.090683l-0.0759554-0.0783453L12.7886,4.1402082
			l-0.0855942-0.1431184V3.8798807l0.1235332,0.0906827l0.0759544-0.0906827l-0.0379391,0.2338016l0.0950785-0.0388641
			l0.0095615-0.1301639h0.1423473L13.1874962,4.1136823z M12.8898468,3.3845174l0.041872,0.0209744l0.0104866,0.0314615
			l-0.0418711-0.0209744L12.8898468,3.3845174z M12.6941385,2.5856442l0.0734873,0.0104873l0.0418711,0.0209742l0.0025444,0.112891
			l0.0313072-0.0104871h0.0000772l0,0l0.054903-0.0185068l-0.0235186-0.0709424l0.0628462-0.0203574l0.0235186,0.0703256
			l0.0627689-0.0209744l0.0183525-0.0493512l0.0208969,0.0629227l-0.0627689,0.0203574l-0.0105639,0.07341L12.916605,2.7559061
			l-0.0731792-0.0363965h-0.0000772l-0.0551338,0.0444162l-0.0286856-0.0080197l0.0077877-0.0549033l-0.0208969-0.0629227
			L12.683651,2.6590543l-0.0522814-0.0524356L12.6941385,2.5856442z M12.8585396,3.2901332l-0.0313845,0.0104871
			l-0.0104866-0.0314612L12.8585396,3.2901332z M12.6834202,2.9730515l-0.0208969-0.0629227l0.0419483-0.0838971
			l0.0131083-0.0653906l0.0289946,0.0080197L12.7148809,2.85831l0.041872,0.0209742l-0.0209742,0.0413318L12.6834202,2.9730515z
			 M12.694293,3.1155534l-0.0627689,0.0209742l0.0209742-0.1468198L12.694293,3.1155534z M12.6262035,3.303705l0.0653906,0.0135715
			l0.062768-0.0209744l-0.0209742,0.0419486l-0.0104866,0.0727932l0.0313072,0.0943842l0.0758772,0.0185068l-0.0235186,0.0339289
			l-0.0758009-0.044416l-0.0628452,0.0209742l0.0522814,0.0524356l-0.0627689,0.0203574L12.6365366,3.544909l-0.041872-0.0215912
			l0.0209742-0.0413315l0.0313845-0.0104871L12.615716,3.3771148l-0.0837421-0.0419486l0.0131855-0.0653903l0.0523586-0.0524356
			L12.6262035,3.303705z M12.5766211,3.1544173l-0.0838203,0.062923l-0.0208969-0.062923l0,0l-0.0735645,0.0943844
			l-0.0652361-0.1178262l0.0470381-0.0419486l0.0603781,0.0758777l0.0313845-0.0104873l0,0l0,0l0.0628452-0.0209742
			L12.5766211,3.1544173z M12.5241079,2.676944l-0.0707884,0.1283133l-0.0418711-0.0209742l0.0289164-0.1054883L12.380681,2.6701584
			l-0.0627689-0.0838971l0.0837431,0.0419486l0.0411777,0.0413315h0.0000772l0.0707111-0.0234418L12.5241079,2.676944z
			 M12.3753605,1.9416106l0.0209742-0.1468199l0.0626917,0.1887685l-0.0627689,0.0209744l-0.0757999-0.0444162L12.3753605,1.9416106
			z M12.330636,2.3314855l0.0602236,0.049968l0.0104876-0.07341l0.054903-0.0185065l-0.0026217,0.0709424L12.4012699,2.412915
			l-0.049737-0.0185068l-0.0209742,0.0419486l-0.0313845,0.0104871l-0.0418711-0.0209742l0.0313835-0.0104871l0.0104876-0.07341
			L12.2468929,2.289537l-0.0183525,0.049968L12.197156,2.349992l-0.013032-0.0394809l0.0837431-0.0629227L12.330636,2.3314855z
			 M12.0406199,1.668945l-0.0419483,0.0838971l0.1047173-0.1048714l0.031538-0.1412679l-0.0104094-0.0314614l0.0418711,0.0209743
			l-0.0209742,0.0419486l0.0496597,0.0444161l-0.0104876,0.07341l0.0967751,0.0030844L12.2498999,1.747907l-0.0757999-0.0185068
			l-0.0158854,0.0838971l-0.0026217,0.0968518l-0.0313845,0.0104871l-0.0104866-0.0314614l0.0131083-0.0653903l-0.062768,0.0203574
			l-0.0445709,0.0758775l-0.0524349-0.0783452l0.0421028-0.0573708l-0.041872-0.0209743l0.0209742-0.0419486L11.9359026,1.668945
			H12.0406199z M11.9282684,1.4357604l-0.0105639,0.07341l-0.0417938-0.0209743l-0.0313845-0.0943843L11.9282684,1.4357604z
			 M11.7303238,1.5813465l0.0235195-0.0080196l0.0836658,0.0419486l-0.0627689,0.0209743l-0.0653906-0.0129547L11.7303238,1.5813465
			z M11.7358761,1.96752l-0.0026989,0.0968518l-0.0208969,0.0419486l-0.0287628-0.0863647l-0.0731783-0.1153585L11.7358761,1.96752z
			 M10.4202032,1.7281665l0.0209742-0.0419486l0.0313072,0.0943843L10.4202032,1.7281665z M10.9697752,1.7546928
			l-0.0836658-0.0419486l-0.0862875,0.0283769l0.0208969-0.0413316l-0.1256142,0.0413316l0.0000772-0.1042545l-0.0418711-0.0209743
			l-0.0313845,0.0098703l-0.0212059,0.0419486l0.0235195,0.0709424l-0.0444937,0.0758775l-0.054903,0.0185066l-0.049737-0.045033
			l0.0628452-0.0203574l-0.0104866-0.1104234l0.0735645-0.0943842l0.0104866,0.0320783l0.0732555,0.0098703l0.0862875,0.0499681
			l0.0653133,0.0135716L10.825963,1.6368667l0.0313835-0.0104871l-0.013031-0.039481l0.062768-0.0209743l0.0838203,0.0160391
			l-0.031539,0.141268l0.0393267-0.0129547l0.0417948,0.0209743L10.9697752,1.7546928z M11.4969854,1.9292728l-0.0836658-0.0419486
			L11.397666,1.8404406L11.3964319,1.883006l-0.0209742,0.0419486l0.0208969,0.0629228l-0.0732555-0.0104871L11.302125,2.0193388
			l-0.0313845,0.0104871l-0.0417938-0.0209742l-0.0656223-0.0129548l0.1493645-0.0499681l0.0104876-0.0734099L11.3572598,1.76518
			l0.054903-0.0178899l-0.0757999-0.045033l0.0340061-0.0808127l0.0104866,0.0314614l0.0522814,0.0524358l-0.0340061,0.0808126
			l-0.0013876,0.0487344l0.0469608,0.0419486l0.1125822-0.0024676L11.4969854,1.9292728z M11.339447,1.3179343l0.0732555,0.0104872
			l0.0208969,0.0629228L11.415247,1.4406955l0.0417948,0.0209743l-0.0444937,0.0758775l0.0732565,0.0104871l0.0599918,0.0499681
			l-0.0390949,0.0129547l-0.1362562-0.0943842l0.0238276-0.033929l-0.0104866-0.0314615l-0.0630007,0.0209743l0.0183525-0.0499681
			l0.0446482,0.0289938L11.3917284,1.37037l-0.0839739-0.0419486L11.339447,1.3179343z M11.252697,1.6603086l0.0313072,0.0943842
			l-0.0209742,0.0419486l-0.0654678,0.1178261l-0.0551348,0.0185066l0.0578337-0.1153585l0.0627689-0.0209743L11.2526197,1.76518
			l-0.0942307,0.0314614l-0.0446472-0.0549033l0.0761089-0.0604552l-0.0077877-0.1283133l0.0628452-0.0209743L11.252697,1.6603086z
			 M11.2423639,1.4197212l-0.0523586,0.0524356l-0.0313845-0.0943842l0.0419483-0.0838971L11.2423639,1.4197212z
			 M10.8982935,1.0551389l0.0810432,0.033929l0.0838976-0.0888323l0.0810442,0.033929l0.0208969,0.0629228l-0.0732555-0.0104871
			l0.0208969,0.0629228L11.0421057,1.172965l-0.0209742,0.0419486l-0.0000772,0.1042545l0.0182753,0.0549033l-0.0810442-0.033929
			l-0.0313835-0.0943842l0.0733328-0.0937674h-0.10464L10.8982935,1.0551389z M10.7594156,1.0310802l0.0208969,0.0629228
			l0.0915318,0.0653903l-0.0942307,0.0314615l-0.0496597-0.0444162L10.7594156,1.0310802z M10.7606497,1.4400786
			l0.0550575,0.0080196l-0.0027761,0.0444162l-0.0208969,0.0419486l-0.0444164-0.0549033l-0.0732555-0.0104872l0.0131083-0.0653903
			L10.7606497,1.4400786z M10.5830622,0.9848135l0.0339289,0.0234418l0.0235186,0.0709424l0.041872,0.0209743l-0.0313845,0.0104872
			l-0.0784225-0.0524358L10.5830622,0.9848135z M10.4991646,1.2568622l0.0732565,0.0104871l-0.0630779,0.1258457
			l0.0630007,0.0832802l0.0496597,0.0450331L10.5485163,1.511021l-0.049737-0.0444161l-0.0757999,0.0598384l-0.0026989,0.0968517
			l-0.041872-0.0209743l-0.0182753-0.0549031l0.0209742-0.0419486L10.370697,1.4740076l-0.0314608,0.0104872l-0.0288401,0.0444161
			L10.247551,1.5498852l0.0209742-0.0419486l0.0603008-0.0549033l0.0418711,0.0209743V1.3691362l0.0209751-0.0419486
			l0.0235186-0.0074027l0.0104103,0.0314614L10.4230556,1.421572l0.0653906-0.0912999L10.4492741,1.212446L10.4991646,1.2568622z
			 M10.4287624,1.0020864l0.0209742-0.0419486l0.0208969,0.0629229L10.3761721,1.054522l-0.0680122,0.0838971l0.0235968-0.033929
			l0.0025444-0.0709424L10.4287624,1.0020864z M10.3421659,0.6467574l0.0234423,0.0703256L10.3102427,0.69981l-0.0148058-0.0660073
			L10.3421659,0.6467574z M10.0277061,0.7911098L9.9413414,0.7411417l0.0732555,0.0104871l0.0393276-0.0129547l0.0863647,0.0499681
			l-0.0445709,0.0758775l0.0134945,0.0400979l0.0809669-0.0431823l0.0837431,0.0419486l0.0208969-0.0419486l0.0235186,0.0709424
			l0.0707111-0.0240588l-0.1440439,0.1178261l-0.0653133-0.0912998L10.148077,1.0236776l-0.0628452,0.0209743l-0.0209751,0.0419486
			l0.1361017-0.0104872l-0.0131092,0.0653903L10.166275,1.1834521L10.0930195,1.172965l-0.049737-0.045033L9.9465857,1.1254644
			l0.0733328-0.1727293l0.0378609-0.0203574L9.9726486,0.9403973l-0.0522041-0.078962l0.0234423-0.0080196l0.0392494,0.0135716
			l0.0628452-0.0209743L10.0277061,0.7911098z M9.8955374,1.184069l0.0810442,0.033929l0.1074934,0.1122741l0.1360245-0.0098702
			l0.0104866,0.0314614l-0.2122107,0.0703255L9.916358,1.3512464l0.0208969-0.0419486L9.8509674,1.2599466L9.8955374,1.184069z
			 M9.7531128,0.5684124L9.7818756,0.654777l0,0l0,0l0.0208969,0.0629228L9.7817984,0.7596484L9.7609015,0.6967255
			L9.7818756,0.654777l0,0L9.6903439,0.5893866L9.7531128,0.5684124z M8.1322327,1.4918975l-0.0135708,0.067858L8.0848093,1.5801128
			L8.057744,1.5190406l0.0542088-0.1554564L8.0509577,1.3771558l0.040638-0.0407147l0.0609951,0.0067858l0.0067081,0.0875984
			L8.1322327,1.4918975z M8.2338657,0.902767l0.0473461,0.0610722L8.220294,1.0785807L8.1592989,1.099555L8.220294,1.0181255
			L8.2338657,0.902767z M8.0713148,0.6251662l0.0541325,0.067858v0.0542864l0.0338516,0.0604553L8.1254473,0.8009801
			L8.0374632,0.6523095L8.0713148,0.6251662z M8.0035343,1.0520545V0.9774107l0.0474234-0.1221443l0.040638,0.0882153
			l0.0948467,0.0135716L8.1525908,1.0045539L8.0915956,1.0181255V1.099555l0.0338516,0.1011701h0.0609951l0.0609179-0.0400978
			L8.2405748,1.302512L8.2270803,1.2482257L8.1660852,1.2685831l-0.0744896-0.033929L8.0374632,1.1260813L7.983254,1.1199125
			L8.0035343,1.0520545z M5.8835902,0.631952L5.8497381,0.665881L5.8294578,0.631952L5.8158865,0.6251662L5.8835902,0.631952z
			 M4.8270106,0.6930242l0.0474238-0.0407147L4.8880057,0.69981L4.7728014,0.7744538L4.7593069,0.7269532L4.8270106,0.6930242z
			 M4.6644602,0.6862384l0.0880613-0.0135716L4.725378,0.69981L4.6644602,0.7880254V0.6862384z M3.8404486,1.2093616
			l-0.022208,0.0814296L3.729177,1.2611804L3.6698015,1.2019589l0.0518959-0.0154222l0.0445702,0.0746437V1.224167
			L3.8404486,1.2093616z M3.6920865,1.1273152l0.0518961-0.0222081h0.0593755L3.7588649,1.1421205L3.6920865,1.1273152z
			 M3.3877282,0.756564l0.1113486,0.0296108L3.4916742,0.6671148l0.0667784,0.0222081l0.0370905-0.0296108h0.0667784
			l0.0965433,0.0074027l0.1112716,0.0524357l0.0296879-0.0302276l0.0148826,0.0376303l0.1335566-0.0296108l0.1187515,0.0518188
			L4.1076393,0.7935774L3.9963677,0.7343559L3.8627338,0.7491612L3.729177,0.756564L3.6623216,0.8083827L3.706892,0.8824096
			L3.6698015,0.9126372L3.6178284,0.897215L3.5510499,0.9496506L3.4397013,0.8453962L3.3284297,0.7639666L3.2912619,0.7491612
			L3.3877282,0.756564z"/>
	</g>
</g>
<g id="Линейка" display="none">
</g>
<g id="Направляющие" display="none">
</g>
</svg>
