<svg id="Layer_1" data-name="Layer 1" xmlns="http://www.w3.org/2000/svg" viewBox="0 0 128 128"><defs><style>.cls-1{fill:#fff;}</style></defs><title>icon-house</title><path class="cls-1" d="M94.87,89.89c-1.22,0-1.22,0-1.22-1.25,0-9.84,0-19.67,0-29.51a1.77,1.77,0,0,0-1-1.85c-4.29-2.32-8.55-4.7-12.81-7.08-5.2-2.89-10.39-5.8-15.6-8.67a1.34,1.34,0,0,0-1.09,0c-1.14.6-2.24,1.28-3.35,1.94Q47.88,50.56,36,57.59a1.59,1.59,0,0,0-.91,1.62q0,14.71,0,29.41v1.3H30.75v7.78h66.9V89.89Zm-46-11.29c0,.25-.37.7-.57.71-2.67,0-5.35,0-8.09,0V64.54H44c1.36,0,2.71,0,4.07,0,.62,0,.82.22.82.83C48.89,69.78,48.91,74.19,48.87,78.6ZM68.81,90.32c-3.37,0-6.75,0-10.12,0-.28,0-.55,0-.89-.05v-25h12c0,.33,0,.6,0,.88,0,7.73,0,15.45,0,23.18C69.87,90.09,69.64,90.33,68.81,90.32Zm19.71-11.8c0,.59-.15.85-.79.84-2.39,0-4.78,0-7.18,0-.71,0-.83-.29-.82-.9,0-2.17,0-4.34,0-6.51s0-4.28,0-6.42c0-.72.16-1,.93-1,2.33,0,4.66,0,7,0,.65,0,.88.2.88.86Q88.49,72,88.52,78.52Z"/><path class="cls-1" d="M34.93,53.42a4.59,4.59,0,0,0,2.9-.86c1.07-.72,2.17-1.4,3.25-2.09q10.85-7,21.69-13.93a1.09,1.09,0,0,1,1.35,0c3.26,1.9,6.55,3.77,9.82,5.65Q82,46.78,90,51.37a8.72,8.72,0,0,0,2.94,1.41,53.31,53.31,0,0,0,6,.07c-.73-1.21-1.36-2.25-2-3.29-3.74-6.08-7.52-12.15-11.21-18.26a2.5,2.5,0,0,0-2.66-1.5c-1.55.15-3.12,0-4.77,0V24.29H70.88c0,1.53-.06,3,0,4.42.05.93-.28,1.15-1.17,1.15-8.54,0-17.08.06-25.62.07a1.44,1.44,0,0,0-1.43.79q-6,10-12.05,20L29,53.4C31.11,53.4,33,53.34,34.93,53.42Z"/></svg>