<svg xmlns="http://www.w3.org/2000/svg" viewBox="0 0 10 10"><defs><style>.cls-1{fill:#989b98;}</style></defs><title>icon-update</title><g id="Слой_2" data-name="Слой 2"><g id="контент"><path class="cls-1" d="M9.83,6.09A5,5,0,0,1,1.55,8.62l-.84.84a.41.41,0,0,1-.29.12A.42.42,0,0,1,0,9.17V6.25a.42.42,0,0,1,.42-.42H3.33a.42.42,0,0,1,.42.42.41.41,0,0,1-.12.29l-.89.89a3.32,3.32,0,0,0,5.1-.69A5.22,5.22,0,0,0,8.18,6a.2.2,0,0,1,.2-.15H9.63A.21.21,0,0,1,9.84,6,.11.11,0,0,1,9.83,6.09ZM10,3.75a.42.42,0,0,1-.42.42H6.67a.42.42,0,0,1-.42-.42.41.41,0,0,1,.12-.29l.9-.9a3.33,3.33,0,0,0-5.11.7A5.22,5.22,0,0,0,1.82,4a.2.2,0,0,1-.2.15H.33A.21.21,0,0,1,.12,4v0A5,5,0,0,1,5,0,5.05,5.05,0,0,1,8.44,1.38L9.29.54A.41.41,0,0,1,9.58.42.42.42,0,0,1,10,.83Z"/></g></g></svg>