<svg xmlns="http://www.w3.org/2000/svg" xmlns:xlink="http://www.w3.org/1999/xlink" viewBox="0 0 126.01 88.53"><defs><style>.cls-1{fill:url(#linear-gradient);}.cls-2{fill:#fff;}.cls-3{fill:url(#linear-gradient-2);}.cls-4{fill:url(#linear-gradient-3);}</style><linearGradient id="linear-gradient" x1="41.75" y1="82.33" x2="84.66" y2="82.33" gradientUnits="userSpaceOnUse"><stop offset="0" stop-color="#2a353b"/><stop offset="0.09" stop-color="#60686d"/><stop offset="0.21" stop-color="#989da0"/><stop offset="0.31" stop-color="#c5c8c9"/><stop offset="0.4" stop-color="#e5e6e7"/><stop offset="0.48" stop-color="#f8f8f9"/><stop offset="0.53" stop-color="#fff"/><stop offset="0.58" stop-color="#eff0f0"/><stop offset="0.69" stop-color="#c5c8ca"/><stop offset="0.83" stop-color="#82888c"/><stop offset="1" stop-color="#2a353b"/></linearGradient><linearGradient id="linear-gradient-2" x1="67.99" y1="44.54" x2="45.74" y2="87.04" gradientUnits="userSpaceOnUse"><stop offset="0" stop-color="#2a353b"/><stop offset="0.36" stop-color="#2a353b" stop-opacity="0.55"/><stop offset="0.75" stop-color="#2a353b" stop-opacity="0.15"/><stop offset="1" stop-color="#2a353b" stop-opacity="0"/></linearGradient><linearGradient id="linear-gradient-3" x1="58.76" y1="61.21" x2="77.76" y2="23.71" gradientUnits="userSpaceOnUse"><stop offset="0" stop-color="#2a353b"/><stop offset="0.36" stop-color="#2a353b" stop-opacity="0.55"/><stop offset="0.75" stop-color="#2a353b" stop-opacity="0.15"/><stop offset="1" stop-color="#2a353b" stop-opacity="0"/></linearGradient></defs><title>logo</title><g id="Слой_2" data-name="Слой 2"><g id="контент"><rect class="cls-1" x="46.5" y="76.12" width="32.24" height="12.41"/><polygon class="cls-2" points="52.57 88.53 82.37 28.07 112.17 88.53 126 88.53 82.37 0 38.73 88.53 52.57 88.53"/><path class="cls-3" d="M38.73,88.53H52.57L67.92,57.38a115.39,115.39,0,0,0-7.07-13.72Z"/><path class="cls-4" d="M60.85,43.66a115.39,115.39,0,0,1,7.07,13.72L81.84,29.14a74.86,74.86,0,0,0-6-15.88Z"/><polygon class="cls-2" points="13.84 88.53 43.64 28.07 73.44 88.53 87.27 88.53 43.64 0 0 88.53 13.84 88.53"/></g></g></svg>