<?xml version="1.0" encoding="utf-8"?>
<!-- Generator: Adobe Illustrator 17.1.0, SVG Export Plug-In . SVG Version: 6.00 Build 0)  -->
<!DOCTYPE svg PUBLIC "-//W3C//DTD SVG 1.1//EN" "http://www.w3.org/Graphics/SVG/1.1/DTD/svg11.dtd" [
	<!ENTITY ns_flows "http://ns.adobe.com/Flows/1.0/">
	<!ENTITY ns_extend "http://ns.adobe.com/Extensibility/1.0/">
	<!ENTITY ns_ai "http://ns.adobe.com/AdobeIllustrator/10.0/">
	<!ENTITY ns_graphs "http://ns.adobe.com/Graphs/1.0/">
	<!ENTITY ns_vars "http://ns.adobe.com/Variables/1.0/">
	<!ENTITY ns_imrep "http://ns.adobe.com/ImageReplacement/1.0/">
	<!ENTITY ns_sfw "http://ns.adobe.com/SaveForWeb/1.0/">
	<!ENTITY ns_custom "http://ns.adobe.com/GenericCustomNamespace/1.0/">
	<!ENTITY ns_adobe_xpath "http://ns.adobe.com/XPath/1.0/">
]>
<svg version="1.1" xmlns:x="&ns_extend;" xmlns:i="&ns_ai;" xmlns:graph="&ns_graphs;"
	 xmlns="http://www.w3.org/2000/svg" xmlns:xlink="http://www.w3.org/1999/xlink" xmlns:a="http://ns.adobe.com/AdobeSVGViewerExtensions/3.0/"
	 x="0px" y="0px" viewBox="0 0 181 53" enable-background="new 0 0 181 53" xml:space="preserve">
<metadata>
	<sfw  xmlns="&ns_sfw;">
		<slices></slices>
		<sliceSourceBounds  width="16383" height="16613.0410156" y="-8732" x="-7606" bottomLeftOrigin="true"></sliceSourceBounds>
		<optimizationSettings>
			<targetSettings  fileFormat="PNG24Format" targetSettingsID="0">
				<PNG24Format  transparency="true" noMatteColor="false" matteColor="#FFFFFF" filtered="false" interlaced="false">
					</PNG24Format>
			</targetSettings>
		</optimizationSettings>
	</sfw>
</metadata>
<g id="фон">
</g>
<g id="контент">
	<g>
		<g>
			<path fill="#FFFFFF" d="M169.1277161,13.794879H64.5777588v3.179347h104.5499573
				c4.5175323,0,8.1929321,3.6752853,8.1929321,8.1929359V35.4389c0,4.5175323-3.6753998,8.1929359-8.1929321,8.1929359h-29.9592438
				v3.179348h29.9592438C175.3985138,46.8111839,180.5,41.7097054,180.5,35.4389V25.1671619
				C180.5,18.8964748,175.3985138,13.794879,169.1277161,13.794879z"/>
			<path fill="#FFFFFF" d="M3.6793449,35.4389V25.1671619c0-4.1442795,3.0936067-7.577343,7.092391-8.1168976v-3.2011709
				C5.0156317,14.4045601,0.499997,19.2678165,0.499997,25.1671619V35.4389c0,6.2708054,5.1015968,11.3722839,11.372283,11.3722839
				h29.7146721v-3.179348H11.8722801C7.35463,43.6318359,3.6793449,39.9564323,3.6793449,35.4389z"/>
		</g>
		<g>
			<path fill="#FF9600" d="M19.6506004,36.076107h-2.6748123v-4.2291393h1.2831306l4.3375702-10.0124855h1.3915615
				l4.4820633,10.0124855h1.319315v4.2291393h-2.656662v-1.3916817h-7.4821663V36.076107z M28.3436508,33.3831444v1.4639282
				h0.1988297V33.184433h-1.066391l-4.1386204-9.5065155h-0.1084309L19.234911,33.184433h-1.0121746v1.6626396h0.1988277v-1.4639282
				H28.3436508z M23.3012848,24.0755749l3.9218807,9.1088581h-7.7533627l3.8134499-9.1088581H23.3012848z M21.530098,31.8109035
				h3.5784378l-1.8252831-4.5724602L21.530098,31.8109035z"/>
			<path fill="#FF9600" d="M30.6378841,28.3408966c0-8.7473869,12.9764042-8.7473869,12.9764042,0
				C43.6142883,37.1061935,30.6378841,37.1061935,30.6378841,28.3408966z M42.0419312,28.3408966
				c0-6.7955208-9.8136559-6.7774906-9.8136559,0C32.2282753,35.1362991,42.0419312,35.1362991,42.0419312,28.3408966z
				 M32.4090691,28.3408966c0,6.6146049,9.4520645,6.4882622,9.4520645,0
				C41.8611336,21.8706665,32.4090691,21.7442036,32.4090691,28.3408966z M40.3069267,28.3408966
				c0,4.590374-6.3436508,4.590374-6.3436508,0C33.9632759,23.7863464,40.3069267,23.7863464,40.3069267,28.3408966z"/>
			<path fill="#FF9600" d="M57.2221718,21.9610634h1.1566696v12.6872978c-1.1024551,0-2.2049103,0-3.3073654,0v-5.6389713
				l-2.6928444,2.8194275h-0.3614731l-2.6748123-2.8194275v5.6389713c-1.1024551,0-2.2049103,0-3.3073654,0V21.9610634h1.1928558
				l4.9519691,5.4942398L57.2221718,21.9610634z M56.8245125,33.4012947v-8.3859119h-0.2529221l-4.3917847,4.6266766
				l-4.3374519-4.6266766h-0.2350121v8.3859119h0.1807976v-8.1508999l4.3916664,4.6627407l4.4640312-4.6627407v8.1508999H56.8245125
				z"/>
		</g>
		<g>
			<path fill="#FFFFFF" d="M72.1310959,34.6483612c-1.1024551,0-2.2049103,0-3.3073654,0v-5.0786686h-3.9037247v5.0786686
				c-1.1024551,0-2.2229424,0-3.3073654,0V21.9971275c1.0844231,0,2.2049103,0,3.3073654,0v4.5904942h3.9037247v-4.5904942
				c1.1024551,0,2.2049103,0,3.3073654,0V34.6483612z M63.3476448,33.4192085v-5.2230453h7.0484428v5.2230453h0.1806793V23.2081318
				h-0.1806793v4.7711716h-7.0484428v-4.7711716h-0.1988297v10.2110767H63.3476448z"/>
			<path fill="#FFFFFF" d="M83.2631149,24.8888016c-1.8796234,0-2.8194275,0-4.6808929,0v1.7893391h4.301384
				c0,0.9577198,0,1.9156799,0,2.8736401h-4.301384c0,0.7408619,0,1.46381,0,2.2228203c1.8614655,0,2.9458847,0,4.8435364,0
				c0,0.9398079,0,1.9156837,0,2.8737602c-2.9639206,0-5.1327667,0-8.0605011,0c0-4.2291374,0-8.4581585,0-12.6512337
				c2.9277344,0,4.933815,0,7.8978577,0C83.2631149,22.9370556,83.2631149,23.9129295,83.2631149,24.8888016z
				 M76.8832779,33.3107758h5.3135605v-0.1805573h-5.1147308c0-1.6448441,0-3.2894497,0-4.9340553h4.5906143v-0.1807957h-4.5906143
				v-4.5000954h4.9519653v-0.1807976h-5.150795C76.8832779,26.6418362,76.8832779,29.96735,76.8832779,33.3107758z"/>
			<path fill="#FFFFFF" d="M87.3106155,36.076107h-2.6748123v-4.2291393h1.2831345l4.3375702-10.0124855h1.3915634
				l4.4819412,10.0124855h1.319313v4.2291393h-2.6565399v-1.3916817h-7.4821701V36.076107z M96.0036697,33.3831444v1.4639282
				h0.1987076V33.184433h-1.066391l-4.1384964-9.5065155h-0.1084366L86.894928,33.184433h-1.0121765v1.6626396h0.1988297v-1.4639282
				H96.0036697z M90.9611816,24.0755749l3.9218826,9.1088581h-7.7532425l3.813446-9.1088581H90.9611816z M89.1901169,31.8109035
				h3.5783157l-1.8251648-4.5724602L89.1901169,31.8109035z"/>
			<path fill="#FFFFFF" d="M98.297905,28.3408966c0-8.7473869,12.9762802-8.7473869,12.9762802,0
				C111.2741852,37.1061935,98.297905,37.1061935,98.297905,28.3408966z M109.7019501,28.3408966
				c0-6.7955208-9.8136597-6.7774906-9.8136597,0C99.8882904,35.1362991,109.7019501,35.1362991,109.7019501,28.3408966z
				 M100.0690918,28.3408966c0,6.6146049,9.4520569,6.4882622,9.4520569,0
				C109.5211487,21.8706665,100.0690918,21.7442036,100.0690918,28.3408966z M107.9668274,28.3408966
				c0,4.590374-6.3436508,4.590374-6.3436508,0C101.6231766,23.7863464,107.9668274,23.7863464,107.9668274,28.3408966z"/>
			<path fill="#FFFFFF" d="M113.71315,34.6483612c0-4.2112255,0-8.4220943,0-12.6512337c1.8251648,0,3.7047806,0,5.5662537,0
				c6.054657,0.0181522,6.054657,9.4161205,0,9.4161205h-2.3312531v3.2351131
				C115.8638458,34.6483612,114.7793045,34.6483612,113.71315,34.6483612z M119.297554,23.3707771h-4.0845261v10.0665817h0.1989441
				v-3.3797283h3.885582C123.3097076,30.0215664,123.3278656,23.3707771,119.297554,23.3707771z M119.297554,23.5334225
				c3.7410812,0,3.7952957,6.3073463,0,6.3073463h-3.885582v-6.3073463H119.297554z M119.2614899,24.8888016
				c-0.7590179-0.0179119-1.5724792,0-2.3133392,0c0,1.0300865,0,2.5844135,0,3.6147404h2.3133392
				C121.0326767,28.5035419,121.1411057,24.9069519,119.2614899,24.8888016z"/>
			<path fill="#FFFFFF" d="M125.4773636,28.3408966c0-8.7473869,12.9765244-8.7473869,12.9765244,0
				C138.4538879,37.1061935,125.4773636,37.1061935,125.4773636,28.3408966z M136.8814087,28.3408966
				c0-6.7955208-9.8136597-6.7774906-9.8136597,0C127.067749,35.1362991,136.8814087,35.1362991,136.8814087,28.3408966z
				 M127.2485504,28.3408966c0,6.6146049,9.4520569,6.4882622,9.4520569,0
				C136.7006073,21.8706665,127.2485504,21.7442036,127.2485504,28.3408966z M135.1465302,28.3408966
				c0,4.590374-6.3436584,4.590374-6.3436584,0C128.8028717,23.7863464,135.1465302,23.7863464,135.1465302,28.3408966z"/>
			<path fill="#FFFFFF" d="M144.1818237,34.6483612c-1.0843048,0-2.1867523,0-3.2892151,0V21.9971275
				c2.5844116,0,5.2954102,0,7.8798218,0c0,1.0662708,0,1.8073711,0,2.891674h-4.5906067V34.6483612z M147.561554,23.3526268
				h-5.1327667v10.0665817h0.1989441v-9.9039364h4.9338226V23.3526268z"/>
			<path fill="#FFFFFF" d="M150.2536774,28.3408966c0-8.7473869,12.9762878-8.7473869,12.9762878,0
				C163.2299652,37.1061935,150.2536774,37.1061935,150.2536774,28.3408966z M161.6577301,28.3408966
				c0-6.7955208-9.8136597-6.7774906-9.8136597,0C151.8440704,35.1362991,161.6577301,35.1362991,161.6577301,28.3408966z
				 M152.0248718,28.3408966c0,6.6146049,9.4520569,6.4882622,9.4520569,0
				C161.4769287,21.8706665,152.0248718,21.7442036,152.0248718,28.3408966z M159.9226074,28.3408966
				c0,4.590374-6.3436584,4.590374-6.3436584,0C153.578949,23.7863464,159.9226074,23.7863464,159.9226074,28.3408966z"/>
		</g>
		<g>
			<path fill="#FF9600" d="M50.0286331,41.5243721c0-0.2765694,0.0383339-0.5316429,0.1151161-0.7652245
				c0.076786-0.2335777,0.1878433-0.4356308,0.3331757-0.6061554c0.1453285-0.1702881,0.3267212-0.303318,0.5440598-0.398613
				s0.4657249-0.1430626,0.7451591-0.1430626c0.2627182,0,0.4937897,0.042511,0.6932144,0.1270599
				c0.1994247,0.0850258,0.3755646,0.2037239,0.5284195,0.3565788L52.815815,40.331398
				c-0.019104,0.0262718-0.0382118,0.0472908-0.0573196,0.0628128c-0.019104,0.0155258-0.0465698,0.0231667-0.0823975,0.0231667
				c-0.0358238,0-0.0758286-0.015522-0.1200104-0.0465698c-0.0441856-0.0310478-0.0985222-0.0649643-0.1630058-0.1022224
				c-0.0644836-0.0367813-0.143898-0.0702171-0.2382355-0.1003075c-0.0943413-0.0296173-0.2095757-0.0446625-0.3457108-0.0446625
				c-0.1839027,0-0.3457108,0.0322418-0.4854317,0.096489c-0.1397133,0.0642433-0.2567444,0.1571503-0.3510818,0.278717
				c-0.0943413,0.1215668-0.1653938,0.269165-0.2131577,0.4430351c-0.0477676,0.1741104-0.0716515,0.368042-0.0716515,0.5825157
				c0,0.2240257,0.0256729,0.4229736,0.0770226,0.5968437s0.1241951,0.3202744,0.2185326,0.4394531
				c0.0943413,0.1191788,0.2083817,0.2096939,0.3421288,0.271553s0.28302,0.092907,0.4478149,0.092907
				c0.1600151,0,0.2913742-0.0191078,0.3940735-0.0570831c0.1026993-0.0382118,0.1874847-0.0804863,0.2543564-0.1268196
				c0.0668755-0.0465736,0.1230011-0.088131,0.1683769-0.1251488c0.0453796-0.0370178,0.0907593-0.0554085,0.1361351-0.0554085
				c0.0549316,0,0.0967293,0.0203018,0.1253891,0.0606613l0.1827049,0.2395515
				c-0.0812035,0.1015053-0.1731529,0.1879616-0.2758522,0.2591324c-0.1026955,0.0714111-0.2131577,0.1311226-0.3313789,0.1796036
				c-0.1182213,0.0482445-0.2424164,0.0833549-0.3725815,0.1050873c-0.1301613,0.0217323-0.2621193,0.0327187-0.3958664,0.0327187
				c-0.2316666,0-0.4472122-0.042511-0.6466408-0.1272964c-0.1994247-0.0850258-0.3718605-0.2094574-0.5171928-0.3732948
				c-0.1454506-0.1640816-0.259491-0.36446-0.3421288-0.6013832C50.0699501,42.098526,50.0286331,41.828167,50.0286331,41.5243721z"
				/>
			<path fill="#FF9600" d="M53.7976608,40.1845169v-0.5122986H57.29776v0.5122986h-1.4222527v3.202755h-0.6591797v-3.202755
				H53.7976608z"/>
			<path fill="#FF9600" d="M58.3834953,44.6447258v-4.9725075h0.43396c0.102581,0,0.1657524,0.0453796,0.1893959,0.1361351
				l0.0206566,0.4368286c0.1569176-0.1934586,0.3360405-0.3484612,0.5374985-0.4654884
				c0.2013359-0.1170273,0.4321671-0.1755409,0.6921387-0.1755409c0.2122002,0,0.4038658,0.0410767,0.574749,0.1234741
				c0.1710052,0.0821609,0.317173,0.2032471,0.4386177,0.3627892c0.1213303,0.1597786,0.2144737,0.3582497,0.2793159,0.5954132
				c0.0648422,0.2371597,0.0973244,0.5096703,0.0973244,0.8170471c0,0.275135-0.0366592,0.5306854-0.1098633,0.7664146
				c-0.0732002,0.2354889-0.1776924,0.4394531-0.3134689,0.6118927c-0.1357765,0.1721992-0.3023605,0.308094-0.4995193,0.4072113
				c-0.1972771,0.0993538-0.4197502,0.1490288-0.667778,0.1490288c-0.2268906,0-0.4215393-0.0382118-0.5839462-0.114399
				c-0.1624069-0.0764275-0.305706-0.1858139-0.4299011-0.3288727v1.6505737H58.3834953z M59.042675,42.4856758
				c0.1170311,0.1619263,0.2471924,0.2756119,0.3904953,0.3412933c0.1432991,0.0654373,0.302124,0.0981598,0.4764709,0.0981598
				c0.3463097,0,0.612606-0.1232376,0.7988968-0.3699532c0.1862907-0.2464752,0.2794342-0.5973244,0.2794342-1.0522995
				c0-0.2405052-0.0208969-0.4478111-0.0626945-0.621685c-0.0417938-0.1738701-0.1032944-0.3162117-0.1844978-0.4270325
				c-0.0812035-0.110817-0.1809158-0.1917839-0.2991371-0.2428932c-0.1182213-0.0513496-0.2513733-0.0769043-0.3994484-0.0769043
				c-0.2125626,0-0.3988533,0.0489616-0.5588722,0.1466446c-0.1600151,0.097683-0.3069,0.2345352-0.4406471,0.4107933V42.4856758z"
				/>
			<path fill="#FF9600" d="M62.7508011,41.5243721c0-0.2909012,0.0409584-0.5543327,0.1229973-0.7902985
				c0.0819206-0.2359695,0.1995468-0.4368286,0.3528786-0.6023407c0.1532097-0.1657486,0.3385468-0.2940025,0.5560036-0.3845215
				c0.2174568-0.0905151,0.4628563-0.1358948,0.7360802-0.1358948c0.2703629,0,0.5133743,0.0453796,0.7291641,0.1358948
				c0.2157822,0.090519,0.4001617,0.2187729,0.5531311,0.3845215c0.152977,0.1655121,0.2697678,0.3663712,0.3503723,0.6023407
				c0.0806046,0.2359657,0.1209717,0.4993973,0.1209717,0.7902985c0,0.2942429-0.0403671,0.5588684-0.1209717,0.7931633
				c-0.0806046,0.2345352-0.1973953,0.4356308-0.3503723,0.603054c-0.1529694,0.1674232-0.337944,0.2954369-0.554924,0.3840446
				c-0.2168655,0.0886078-0.4593964,0.1327896-0.7273712,0.1327896c-0.2732239,0-0.5186234-0.0441818-0.7360802-0.1327896
				s-0.4027939-0.2166214-0.5560036-0.3840446c-0.1533318-0.1674232-0.2709579-0.3685188-0.3528786-0.603054
				C62.7917595,42.0832405,62.7508011,41.818615,62.7508011,41.5243721z M63.4099808,41.5279541
				c0,0.4394531,0.0914726,0.782177,0.2745399,1.0281754c0.1829453,0.2459984,0.4610634,0.3689995,0.83424,0.3689995
				c0.3684006,0,0.6429443-0.1230011,0.8235016-0.3689995s0.2709579-0.5887222,0.2709579-1.0281754
				c0-0.4418411-0.0908813-0.7864799-0.2727509-1.033432c-0.1817551-0.2474327-0.4556961-0.3709068-0.8217087-0.3709068
				c-0.1866455,0-0.3492889,0.031765-0.4880524,0.0948143c-0.1387634,0.06353-0.2541199,0.1547661-0.3461876,0.2741814
				c-0.0921898,0.1194153-0.1608543,0.2670174-0.2063522,0.442318
				C63.4326706,41.1107101,63.4099808,41.3082275,63.4099808,41.5279541z"/>
			<path fill="#FF9600" d="M67.587532,43.3908539v-3.7150536h0.6591797v2.5220795
				c0,0.0453796-0.002388,0.0962524-0.007164,0.1523781s-0.0107498,0.1115341-0.0179138,0.1664658
				c0.019104-0.0477676,0.0400085-0.0914726,0.0626907-0.1306419c0.0226898-0.0396461,0.0447845-0.0759506,0.0662766-0.1093864
				c0.002388-0.004776,0.0304565-0.0434685,0.0841904-0.1165504c0.0537415-0.0726051,0.1230011-0.1669426,0.2077866-0.2827797
				c0.0847855-0.1158333,0.1809158-0.2467117,0.2883911-0.3924026c0.1074753-0.1456871,0.2161407-0.2937622,0.326004-0.4442291
				c0.2603302-0.3534737,0.5575562-0.7547112,0.891571-1.2037201c0.0265045-0.0382118,0.0606613-0.0752296,0.1028137-0.1110573
				c0.042038-0.0358238,0.0883713-0.0537376,0.1387634-0.0537376h0.3929977v3.7150536h-0.6591797v-2.5256615
				c0-0.0453796,0.002388-0.0960121,0.007164-0.1521378s0.0107498-0.1129684,0.0179138-0.1702881
				c-0.021492,0.0477676-0.0441818,0.0926666-0.0680695,0.1344643c-0.02388,0.0417938-0.0465698,0.0792923-0.0680618,0.1127281
				c-0.004776,0.004776-0.0334396,0.043705-0.0859833,0.1165504s-0.1218033,0.1671829-0.2077866,0.2827797
				c-0.0859756,0.1160698-0.1827087,0.2467117-0.2901764,0.3924026c-0.1074753,0.1456871-0.2161484,0.2937622-0.3260117,0.4442291
				c-0.2603302,0.3534737-0.5540924,0.7547112-0.8812943,1.2037201c-0.026268,0.0382118-0.0603027,0.0752296-0.1021042,0.1110573
				c-0.0417938,0.0358238-0.0865707,0.0537376-0.1343384,0.0537376H67.587532z"/>
			<path fill="#FF9600" d="M71.8688583,40.1845169v-0.5122986h3.5000992v0.5122986h-1.4222488v3.202755H73.287529v-3.202755
				H71.8688583z"/>
			<path fill="#FF9600" d="M76.0928574,41.4527206c0-0.2603264,0.0402451-0.5027428,0.1208496-0.7272453
				c0.0806122-0.2245064,0.195488-0.4191551,0.3446426-0.58395c0.1490326-0.1647949,0.3318558-0.2942429,0.5483551-0.3888206
				c0.216507-0.0940971,0.4607086-0.1413879,0.7325058-0.1413879c0.2274857,0,0.4384995,0.037735,0.6330261,0.1127281
				c0.1944122,0.0754738,0.3626709,0.1834259,0.5045319,0.324337c0.1418686,0.1409111,0.2525711,0.3147812,0.3320999,0.5211334
				c0.0795288,0.2068291,0.1193008,0.4413643,0.1193008,0.7040825c0,0.1026955-0.0108719,0.1714821-0.0327225,0.2058716
				c-0.0218506,0.0348701-0.0641251,0.0520668-0.1270599,0.0520668H76.752037
				c0.0047836,0.2340546,0.0363083,0.4382591,0.0948181,0.612606c0.0582809,0.1743507,0.1387634,0.319561,0.2413406,0.4353943
				c0.1025848,0.1158333,0.2247467,0.2022896,0.3666077,0.259613c0.1417542,0.0573196,0.3009338,0.0859795,0.4774323,0.0859795
				c0.1667023,0,0.3098831-0.0191078,0.4295425-0.0573196c0.1196518-0.0382156,0.2230682-0.0792923,0.3101196-0.1234779
				c0.086937-0.0441856,0.1595459-0.0847855,0.2174606-0.1218071c0.0580368-0.0370178,0.1075974-0.055645,0.148674-0.055645
				c0.0586319,0,0.1032944,0.020298,0.1338654,0.0609016l0.1951294,0.2400284
				c-0.0831146,0.0979195-0.1821136,0.1827049-0.2969894,0.2543564c-0.1148834,0.0716476-0.2376404,0.1308784-0.3684006,0.1772156
				c-0.1307602,0.0468102-0.2665405,0.08144-0.4069748,0.1041298c-0.1405487,0.0224495-0.2791977,0.0339127-0.4160461,0.0339127
				c-0.2597275,0-0.4985657-0.0429878-0.7161407-0.1289673c-0.2176971-0.0859795-0.405899-0.2130394-0.5646057-0.3816566
				c-0.158699-0.1681404-0.2825394-0.3759232-0.3714981-0.6233559
				C76.1372833,42.0564919,76.0928574,41.7727585,76.0928574,41.4527206z M76.7735367,41.1231308h2.0312729
				c0-0.1514206-0.021492-0.2908974-0.0643616-0.4184341c-0.0429916-0.1275368-0.1055679-0.2374001-0.1877213-0.3300705
				c-0.082283-0.0926666-0.1824722-0.1640778-0.3004532-0.2147102c-0.1179886-0.0503922-0.2509003-0.0757103-0.398735-0.0757103
				c-0.3146591,0-0.5620956,0.0919533-0.7420578,0.2758522C76.9314041,40.5442009,76.8187943,40.7985573,76.7735367,41.1231308z"/>
			<path fill="#FF9600" d="M80.1305771,43.3371162v-0.4155693h0.1898727c0.0835876,0,0.1683731-0.0148087,0.2543564-0.0449028
				c0.0859756-0.0296135,0.1695709-0.0859795,0.2507706-0.1681366c0.0812073-0.0826378,0.1600189-0.1989479,0.2364502-0.3494148
				c0.0764236-0.1504631,0.1456833-0.3463097,0.2077789-0.5875282c0.0621033-0.2412224,0.1158371-0.5337944,0.1612167-0.8777122
				c0.0453796-0.3439217,0.0800095-0.751133,0.1038895-1.2216339h2.3751984v3.7150536h-0.6591797v-3.202755h-1.1714783
				c-0.028656,0.4728889-0.0728455,0.8808174-0.1325531,1.2233047c-0.0597076,0.3429642-0.1301651,0.634819-0.2113647,0.8760376
				c-0.0812073,0.2412224-0.172554,0.4370651-0.2740631,0.587532c-0.1015015,0.1504631-0.2077866,0.2674904-0.31884,0.3510857
				c-0.1110611,0.0835915-0.2262955,0.1397171-0.3457108,0.1683769s-0.2376404,0.0429878-0.3546677,0.0429878
				C80.2344666,43.4338417,80.1305771,43.4015999,80.1305771,43.3371162z"/>
			<path fill="#FF9600" d="M85.4078369,43.3872719v-3.7150536h0.6233521v1.4580765h0.8074951
				c0.2630768,0,0.4835205,0.030571,0.6613312,0.0912361c0.1778107,0.0609016,0.3208694,0.1425819,0.4292984,0.2450409
				c0.1083145,0.1024628,0.1862946,0.2211609,0.2338181,0.3558617c0.0475311,0.1347046,0.0712967,0.2734642,0.0712967,0.4165268
				c0,0.1669426-0.0303345,0.3207512-0.0908813,0.4614258c-0.0605392,0.1409111-0.1489105,0.2617607-0.2652206,0.363266
				c-0.1161957,0.101265-0.2597351,0.1805573-0.4304962,0.2378769c-0.1707687,0.0570793-0.367569,0.085743-0.5904007,0.085743
				H85.4078369z M86.031189,42.9143791h0.8042679c0.1317215,0,0.2460022-0.016716,0.3429642-0.0501556
				c0.0968475-0.0336723,0.1771011-0.080246,0.240509-0.1401939s0.1112976-0.1306419,0.1436539-0.2120819
				c0.0323639-0.0812035,0.0484848-0.1688576,0.0484848-0.262001c0-0.0888481-0.0137329-0.1719589-0.0413132-0.2498207
				c-0.0275879-0.077858-0.0723724-0.1461639-0.1345825-0.2046776c-0.0623398-0.058754-0.1436615-0.1053276-0.2442093-0.1401978
				c-0.1005478-0.0346298-0.2225952-0.052063-0.3662491-0.052063H86.031189V42.9143791z"/>
			<path fill="#FF9600" d="M89.1804428,41.5243721c0-0.2765694,0.0383301-0.5316429,0.1151199-0.7652245
				c0.0767822-0.2335777,0.1878433-0.4356308,0.333168-0.6061554c0.1453323-0.1702881,0.3267288-0.303318,0.5440674-0.398613
				s0.4657211-0.1430626,0.7451553-0.1430626c0.2627182,0,0.4939117,0.042511,0.6933365,0.1270599
				c0.1994247,0.0850258,0.3754425,0.2037239,0.5282974,0.3565788l-0.1719589,0.2364426
				c-0.0191116,0.0262718-0.0382156,0.0472908-0.0573196,0.0628128c-0.0191116,0.0155258-0.0465775,0.0231667-0.0823975,0.0231667
				c-0.0358276,0-0.0757141-0.015522-0.1198959-0.0465698s-0.0986404-0.0649643-0.1631241-0.1022224
				c-0.0644836-0.0367813-0.1437759-0.0702171-0.2381134-0.1003075c-0.0943451-0.0296173-0.2097015-0.0446625-0.3458328-0.0446625
				c-0.1838989,0-0.3457108,0.0322418-0.4854279,0.096489c-0.1397171,0.0642433-0.2567444,0.1571503-0.3510818,0.278717
				c-0.0943451,0.1215668-0.1653976,0.269165-0.2131653,0.4430351c-0.04776,0.1741104-0.0716476,0.368042-0.0716476,0.5825157
				c0,0.2240257,0.0256729,0.4229736,0.0770264,0.5968437c0.0513458,0.1738701,0.1241913,0.3202744,0.2185287,0.4394531
				s0.2083817,0.2096939,0.3421326,0.271553c0.1337433,0.0618591,0.2830124,0.092907,0.4478073,0.092907
				c0.1600189,0,0.2913818-0.0191078,0.3940811-0.0570831c0.1026917-0.0382118,0.1874771-0.0804863,0.2543564-0.1268196
				c0.0668716-0.0465736,0.1229935-0.088131,0.1683731-0.1251488s0.0907593-0.0554085,0.1361389-0.0554085
				c0.0549316,0,0.0967255,0.0203018,0.1253815,0.0606613l0.1827087,0.2395515
				c-0.0812073,0.1015053-0.1731491,0.1879616-0.2758484,0.2591324c-0.1026993,0.0714111-0.2130432,0.1311226-0.3312607,0.1796036
				c-0.1182251,0.0482445-0.2424164,0.0833549-0.3725815,0.1050873s-0.2622375,0.0327187-0.3959885,0.0327187
				c-0.2316666,0-0.4472122-0.042511-0.646637-0.1272964c-0.1994247-0.0850258-0.3718643-0.2094574-0.5171967-0.3732948
				c-0.1454468-0.1640816-0.259491-0.36446-0.3421249-0.6013832C89.2217636,42.098526,89.1804428,41.828167,89.1804428,41.5243721z"
				/>
			<path fill="#FF9600" d="M92.949707,40.1845169v-0.5122986h3.5001068v0.5122986h-1.4222565v3.202755h-0.6591797v-3.202755
				H92.949707z"/>
			<path fill="#FF9600" d="M97.5355453,43.3872719v-3.7150536h1.3869019c0.2335815,0,0.4344406,0.0238838,0.6023407,0.0714111
				c0.1679001,0.0477676,0.3052292,0.1117744,0.412468,0.1925011c0.1069946,0.0804863,0.1855698,0.1757813,0.2352448,0.2856445
				c0.0499191,0.1100998,0.0749969,0.2271309,0.0749969,0.351799c0,0.0792961-0.0121841,0.1621704-0.0365448,0.2486267
				c-0.0243607,0.0862198-0.0656738,0.1690941-0.1244278,0.2483864c-0.058754,0.0795326-0.1385269,0.1507034-0.2395477,0.2137566
				c-0.1007919,0.0628128-0.2266541,0.112011-0.3773575,0.1468811c0.2887497,0.0475273,0.5127716,0.1452103,0.6718369,0.2932892
				c0.1590652,0.1480751,0.2385941,0.3415298,0.2385941,0.5808411c0,0.1827087-0.0367813,0.3408165-0.1100998,0.4743233
				c-0.0735626,0.1332703-0.1733932,0.2457581-0.299736,0.3372307c-0.1263428,0.0912361-0.2744217,0.1593018-0.4439926,0.2037277
				c-0.1695709,0.0444221-0.351799,0.0666351-0.5469284,0.0666351H97.5355453z M98.1588974,41.2771797h0.7181778
				c0.1077118,0,0.2077789-0.0145683,0.2999725-0.0434685c0.092186-0.0291367,0.1712418-0.0702171,0.2369232-0.1237144
				c0.065918-0.0535011,0.1172638-0.1177444,0.1545258-0.1932182c0.0370178-0.07547,0.0556488-0.1585846,0.0556488-0.2491035
				c0-0.0673485-0.0119476-0.1323128-0.0360641-0.1951256c-0.0238876-0.0625725-0.0656815-0.1184616-0.1256256-0.1671829
				c-0.0599518-0.0487213-0.1370926-0.0876503-0.2316742-0.1167908c-0.0945816-0.0288963-0.2123184-0.0434685-0.3537064-0.0434685
				h-0.7181778V41.2771797z M98.1588974,42.9143791h0.8041534c0.2443314,0,0.4375458-0.0561256,0.5798874-0.1681366
				c0.1423492-0.1122513,0.2137604-0.2663002,0.2137604-0.4621429c0-0.0874138-0.013855-0.1664658-0.0413208-0.2371597
				c-0.0277023-0.0709343-0.0718918-0.1335106-0.1327896-0.1877251c-0.061142-0.0544548-0.1425858-0.0957718-0.2443314-0.1239548
				c-0.101738-0.0284195-0.2254562-0.042511-0.3716202-0.042511h-0.8077393V42.9143791z"/>
			<path fill="#FF9600" d="M101.4371262,41.5243721c0-0.2909012,0.0408401-0.5543327,0.1230011-0.7902985
				c0.0819168-0.2359695,0.1994247-0.4368286,0.3527527-0.6023407c0.1533356-0.1657486,0.3386688-0.2940025,0.5560074-0.3845215
				c0.2175751-0.0905151,0.4628601-0.1358948,0.736084-0.1358948c0.2703552,0,0.5134888,0.0453796,0.7291565,0.1358948
				c0.2159042,0.090519,0.4002838,0.2187729,0.5531387,0.3845215c0.1530914,0.1655121,0.2698822,0.3663712,0.3503647,0.6023407
				c0.0807266,0.2359657,0.1210938,0.4993973,0.1210938,0.7902985c0,0.2942429-0.0403671,0.5588684-0.1210938,0.7931633
				c-0.0804825,0.2345352-0.1972733,0.4356308-0.3503647,0.603054c-0.1528549,0.1674232-0.3379517,0.2954369-0.5548096,0.3840446
				c-0.2168655,0.0886078-0.4595184,0.1327896-0.7274857,0.1327896c-0.2732239,0-0.5185089-0.0441818-0.736084-0.1327896
				c-0.2173386-0.0886078-0.4026718-0.2166214-0.5560074-0.3840446c-0.1533279-0.1674232-0.2708359-0.3685188-0.3527527-0.603054
				C101.4779663,42.0832405,101.4371262,41.818615,101.4371262,41.5243721z M102.0963058,41.5279541
				c0,0.4394531,0.0914688,0.782177,0.2744217,1.0281754c0.1829453,0.2459984,0.4611816,0.3689995,0.8342438,0.3689995
				c0.368515,0,0.6429367-0.1230011,0.823494-0.3689995s0.27108-0.5887222,0.27108-1.0281754
				c0-0.4418411-0.0909958-0.7864799-0.2727509-1.033432c-0.1817551-0.2474327-0.4556961-0.3709068-0.8218231-0.3709068
				c-0.1865311,0-0.3491745,0.031765-0.4879379,0.0948143c-0.1387634,0.06353-0.2541199,0.1547661-0.3463058,0.2741814
				c-0.0921936,0.1194153-0.1607361,0.2670174-0.2063522,0.442318
				C102.1189957,41.1107101,102.0963058,41.3082275,102.0963058,41.5279541z"/>
			<path fill="#FF9600" d="M108.1906128,42.9143791h0.1619263c0.0859833-0.002388,0.1707687-0.020298,0.2541199-0.0537376
				c0.0835953-0.0334358,0.1638412-0.0931435,0.2412262-0.1793633c0.0773773-0.0859795,0.1504593-0.2049179,0.2192459-0.3568153
				s0.1313553-0.3472633,0.1877213-0.586338c0.0566025-0.2390709,0.1062851-0.5285378,0.1492691-0.8679199
				c0.0429916-0.3396187,0.0752335-0.7389488,0.0967331-1.1979866h2.3367386v3.2242508h0.7093353v1.5727158
				c0,0.0644836-0.0188675,0.1139221-0.056839,0.1485558c-0.037735,0.0346298-0.0867004,0.052063-0.1473618,0.052063h-0.4191513
				v-1.2825317h-3.1096115v1.0957642c0,0.0453796-0.0145645,0.0878906-0.0437012,0.1275368
				c-0.0291443,0.0394096-0.0781021,0.0592308-0.1464081,0.0592308h-0.4332428V42.9143791z M109.3754654,42.9143791h1.8387756
				v-2.7298622h-1.1769714c-0.02388,0.3826103-0.0577927,0.7210388-0.1019821,1.0152779
				c-0.0439453,0.2940063-0.0948181,0.5517082-0.1518936,0.7728653c-0.0573196,0.2213974-0.1206131,0.4091225-0.1896362,0.5634079
				C109.524498,42.6903534,109.451889,42.8164597,109.3754654,42.9143791z"/>
			<path fill="#FF9600" d="M113.3532333,41.5243721c0-0.2909012,0.0408401-0.5543327,0.1229935-0.7902985
				c0.0819244-0.2359695,0.1994324-0.4368286,0.3527603-0.6023407c0.1533279-0.1657486,0.3386688-0.2940025,0.5560074-0.3845215
				c0.2175751-0.0905151,0.4628525-0.1358948,0.736084-0.1358948c0.2703552,0,0.5134888,0.0453796,0.7291565,0.1358948
				c0.2159042,0.090519,0.4002838,0.2187729,0.5531387,0.3845215c0.1530914,0.1655121,0.2698746,0.3663712,0.3503647,0.6023407
				c0.0807266,0.2359657,0.1210861,0.4993973,0.1210861,0.7902985c0,0.2942429-0.0403595,0.5588684-0.1210861,0.7931633
				c-0.0804901,0.2345352-0.1972733,0.4356308-0.3503647,0.603054c-0.1528549,0.1674232-0.3379517,0.2954369-0.5548096,0.3840446
				c-0.2168655,0.0886078-0.4595184,0.1327896-0.7274857,0.1327896c-0.2732315,0-0.5185089-0.0441818-0.736084-0.1327896
				c-0.2173386-0.0886078-0.4026794-0.2166214-0.5560074-0.3840446s-0.2708359-0.3685188-0.3527603-0.603054
				C113.3940735,42.0832405,113.3532333,41.818615,113.3532333,41.5243721z M114.012413,41.5279541
				c0,0.4394531,0.0914688,0.782177,0.2744141,1.0281754c0.1829529,0.2459984,0.4611893,0.3689995,0.8342514,0.3689995
				c0.368515,0,0.6429367-0.1230011,0.823494-0.3689995s0.2710724-0.5887222,0.2710724-1.0281754
				c0-0.4418411-0.0909958-0.7864799-0.2727432-1.033432c-0.1817551-0.2474327-0.4556961-0.3709068-0.8218231-0.3709068
				c-0.1865311,0-0.3491745,0.031765-0.4879379,0.0948143c-0.1387634,0.06353-0.2541199,0.1547661-0.3463135,0.2741814
				c-0.092186,0.1194153-0.1607285,0.2670174-0.2063522,0.442318
				C114.0351028,41.1107101,114.012413,41.3082275,114.012413,41.5279541z"/>
			<path fill="#FF9600" d="M118.1898422,43.3872719v-3.7257996h0.5342712c0.0460968,0,0.0914688,0.0102692,0.1363754,0.030571
				c0.044899,0.0203018,0.0831146,0.0589905,0.1146393,0.1163101l1.1776886,1.9345512
				c0.0265045,0.0573196,0.0532532,0.1158333,0.0797653,0.1755409c0.0267487,0.0597076,0.0508728,0.1206093,0.0728455,0.1827087
				c0.0410767-0.1241951,0.0909958-0.2436104,0.1492691-0.3582497l1.1545181-1.9345512
				c0.0315323-0.0597076,0.0702209-0.0991135,0.1165543-0.1182213c0.0460968-0.0191078,0.092186-0.0286598,0.1382828-0.0286598
				h0.5316467v3.7257996h-0.6233597v-2.4683418c0-0.0668755,0.0045395-0.1425858,0.0133743-0.2276077
				c0.0088425-0.084549,0.0207825-0.1640816,0.0360641-0.2381172l-1.2939987,2.2641373
				c-0.019104,0.0358238-0.0441818,0.0644836-0.0752335,0.0859795c-0.031044,0.0214958-0.0680618,0.0322418-0.1110535,0.0322418
				h-0.0718918c-0.040596,0-0.0776215-0.010746-0.1110535-0.0322418c-0.0334396-0.0214958-0.0597076-0.0501556-0.0788193-0.0859795
				l-1.3154907-2.2713051c0.0124207,0.0740395,0.02388,0.1540489,0.0339127,0.2400284s0.0150452,0.1636009,0.0150452,0.2328644
				v2.4683418H118.1898422z"/>
			<path fill="#FF9600" d="M123.624733,41.5243721c0-0.2909012,0.0410767-0.5543327,0.1230011-0.7902985
				c0.0819168-0.2359695,0.1996613-0.4368286,0.3529892-0.6023407c0.1530914-0.1657486,0.3384323-0.2940025,0.5560074-0.3845215
				c0.2173386-0.0905151,0.462616-0.1358948,0.7358475-0.1358948c0.2703552,0,0.5134888,0.0453796,0.729393,0.1358948
				c0.2156677,0.090519,0.4000473,0.2187729,0.5531387,0.3845215c0.1528549,0.1655121,0.2696457,0.3663712,0.3503647,0.6023407
				c0.0804901,0.2359657,0.1208496,0.4993973,0.1208496,0.7902985c0,0.2942429-0.0403595,0.5588684-0.1208496,0.7931633
				c-0.080719,0.2345352-0.1975098,0.4356308-0.3503647,0.603054c-0.1530914,0.1674232-0.3379517,0.2954369-0.5550461,0.3840446
				c-0.2168655,0.0886078-0.4595184,0.1327896-0.7274857,0.1327896c-0.2732315,0-0.5185089-0.0441818-0.7358475-0.1327896
				c-0.2175751-0.0886078-0.402916-0.2166214-0.5560074-0.3840446c-0.1533279-0.1674232-0.2710724-0.3685188-0.3529892-0.603054
				C123.6658096,42.0832405,123.624733,41.818615,123.624733,41.5243721z M124.2839127,41.5279541
				c0,0.4394531,0.0914688,0.782177,0.2746582,1.0281754c0.1829453,0.2459984,0.4609451,0.3689995,0.8340073,0.3689995
				c0.368515,0,0.6429367-0.1230011,0.8237305-0.3689995c0.1805573-0.2459984,0.2708359-0.5887222,0.2708359-1.0281754
				c0-0.4418411-0.0909958-0.7864799-0.2727432-1.033432c-0.1817551-0.2474327-0.4556961-0.3709068-0.8218231-0.3709068
				c-0.1865311,0-0.3491745,0.031765-0.4879379,0.0948143c-0.1387634,0.06353-0.2541199,0.1547661-0.3460693,0.2741814
				c-0.0921936,0.1194153-0.1609726,0.2670174-0.2063522,0.442318
				C124.3066025,41.1107101,124.2839127,41.3082275,124.2839127,41.5279541z"/>
			<path fill="#FF9600" d="M128.4613495,43.3872719v-3.7150536h1.3869019c0.2335815,0,0.434433,0.0238838,0.6023407,0.0714111
				c0.1678925,0.0477676,0.3054657,0.1117744,0.4124603,0.1925011c0.1069946,0.0804863,0.1855774,0.1757813,0.2354889,0.2856445
				c0.0496826,0.1100998,0.0747528,0.2271309,0.0747528,0.351799c0,0.0792961-0.0121765,0.1621704-0.0365448,0.2486267
				c-0.0241241,0.0862198-0.0656738,0.1690941-0.1244354,0.2483864c-0.0587463,0.0795326-0.1385193,0.1507034-0.2393036,0.2137566
				c-0.1010284,0.0628128-0.2268982,0.112011-0.377594,0.1468811c0.2887421,0.0475273,0.5127716,0.1452103,0.6718292,0.2932892
				c0.1590729,0.1480751,0.2386017,0.3415298,0.2386017,0.5808411c0,0.1827087-0.0367737,0.3408165-0.1101074,0.4743233
				c-0.0735626,0.1332703-0.1733856,0.2457581-0.2997284,0.3372307c-0.1263428,0.0912361-0.2741852,0.1593018-0.4440002,0.2037277
				c-0.1695709,0.0444221-0.3517914,0.0666351-0.5466766,0.0666351H128.4613495z M129.0847015,41.2771797h0.7181702
				c0.1077118,0,0.2077789-0.0145683,0.2999725-0.0434685c0.0921936-0.0291367,0.1712494-0.0702171,0.2369232-0.1237144
				c0.065918-0.0535011,0.1172638-0.1177444,0.1545258-0.1932182c0.0370178-0.07547,0.0556488-0.1585846,0.0556488-0.2491035
				c0-0.0673485-0.0119476-0.1323128-0.0358276-0.1951256c-0.0241241-0.0625725-0.065918-0.1184616-0.1258698-0.1671829
				c-0.0597076-0.0487213-0.137085-0.0876503-0.2314301-0.1167908c-0.0948181-0.0288963-0.2125549-0.0434685-0.3539429-0.0434685
				h-0.7181702V41.2771797z M129.0847015,42.9143791h0.8043823c0.2440948,0,0.4373016-0.0561256,0.5796509-0.1681366
				c0.1425781-0.1122513,0.2137604-0.2663002,0.2137604-0.4621429c0-0.0874138-0.013855-0.1664658-0.0413208-0.2371597
				c-0.0274658-0.0709343-0.0718842-0.1335106-0.1327972-0.1877251c-0.061142-0.0544548-0.1425781-0.0957718-0.2440796-0.1239548
				c-0.1019897-0.0284195-0.2256927-0.042511-0.3718719-0.042511h-0.807724V42.9143791z"/>
			<path fill="#FF9600" d="M63.3347473,51.213356v-3.7150497h3.0988617v3.7150497h-0.6591797v-3.2027512H63.993927v3.2027512
				H63.3347473z"/>
			<path fill="#FF9600" d="M67.7271271,49.3504562c0-0.2908974,0.0409622-0.5543289,0.1230011-0.7902985
				c0.0819244-0.2359657,0.1995468-0.4368248,0.3528748-0.6023369c0.1532135-0.1657486,0.3385468-0.2940025,0.5560074-0.3845215
				c0.217453-0.090519,0.4628601-0.1358948,0.736084-0.1358948c0.2703552,0,0.5133743,0.0453758,0.7291565,0.1358948
				s0.4001617,0.2187729,0.5531387,0.3845215c0.1529694,0.1655121,0.2697601,0.3663712,0.3503647,0.6023369
				c0.0806122,0.2359695,0.1209717,0.4994011,0.1209717,0.7902985c0,0.2942429-0.0403595,0.5588722-0.1209717,0.7931671
				c-0.0806046,0.2345352-0.1973953,0.4356308-0.3503647,0.603054c-0.152977,0.1674232-0.3379517,0.2954369-0.5549316,0.3840446
				c-0.2168579,0.088604-0.4593964,0.1327896-0.7273636,0.1327896c-0.2732239,0-0.518631-0.0441856-0.736084-0.1327896
				c-0.2174606-0.0886078-0.4027939-0.2166214-0.5560074-0.3840446c-0.1533279-0.1674232-0.2709503-0.3685188-0.3528748-0.603054
				C67.7680893,49.9093285,67.7271271,49.6446991,67.7271271,49.3504562z M68.3863068,49.3540421
				c0,0.4394531,0.0914764,0.782177,0.2745438,1.0281754c0.1829453,0.2459984,0.4610672,0.3689957,0.8342438,0.3689957
				c0.3684006,0,0.6429367-0.1229973,0.823494-0.3689957s0.2709579-0.5887222,0.2709579-1.0281754
				c0-0.4418449-0.0908737-0.7864799-0.2727509-1.033432c-0.1817474-0.2474327-0.4556885-0.3709106-0.821701-0.3709106
				c-0.1866531,0-0.3492966,0.031765-0.48806,0.0948181c-0.1387558,0.06353-0.2541122,0.1547661-0.3461838,0.2741814
				c-0.0921936,0.1194153-0.1608582,0.2670135-0.2063522,0.442318
				C68.4089966,48.9367981,68.3863068,49.1343155,68.3863068,49.3540421z"/>
			<path fill="#FF9600" d="M71.9368057,51.1632004v-0.4155693h0.1898727c0.0835876,0,0.1683731-0.0148048,0.2543564-0.044899
				c0.0859756-0.0296173,0.1695709-0.0859795,0.2507706-0.1681404c0.0812073-0.082634,0.1600189-0.1989479,0.2364502-0.349411
				c0.0764236-0.1504669,0.1456833-0.3463097,0.2077866-0.587532c0.0620956-0.2412186,0.1158295-0.5337906,0.1612091-0.8777122
				c0.0453796-0.3439178,0.0800095-0.7511292,0.1038895-1.2216301h2.3751984v3.7150497h-0.6591797v-3.2027512h-1.1714783
				c-0.028656,0.4728889-0.0728455,0.8808174-0.1325531,1.2233009c-0.0597076,0.3429642-0.1301575,0.634819-0.2113647,0.8760414
				c-0.0811996,0.2412224-0.172554,0.4370651-0.2740631,0.5875282c-0.1015015,0.1504669-0.2077789,0.2674942-0.31884,0.3510857
				s-0.2262955,0.1397171-0.3457108,0.1683769s-0.2376404,0.0429916-0.3546677,0.0429916
				C72.0406952,51.2599297,71.9368057,51.2276878,71.9368057,51.1632004z"/>
			<path fill="#FF9600" d="M77.2140656,51.213356v-3.7150497h0.6591797v1.4652405h1.7805023v-1.4652405h0.6591797v3.7150497
				h-0.6591797v-1.7375107h-1.7805023v1.7375107H77.2140656z"/>
			<path fill="#FF9600" d="M81.6065674,49.3504562c0-0.2908974,0.0409546-0.5543289,0.1229935-0.7902985
				c0.0819244-0.2359657,0.1995468-0.4368248,0.3528824-0.6023369c0.1532059-0.1657486,0.3385391-0.2940025,0.5559998-0.3845215
				s0.4628601-0.1358948,0.736084-0.1358948c0.2703629,0,0.5133743,0.0453758,0.7291565,0.1358948
				c0.2157898,0.090519,0.4001694,0.2187729,0.5531387,0.3845215c0.152977,0.1655121,0.2697601,0.3663712,0.3503723,0.6023369
				c0.0806046,0.2359695,0.1209641,0.4994011,0.1209641,0.7902985c0,0.2942429-0.0403595,0.5588722-0.1209641,0.7931671
				c-0.0806122,0.2345352-0.1973953,0.4356308-0.3503723,0.603054c-0.1529694,0.1674232-0.3379517,0.2954369-0.5549316,0.3840446
				c-0.2168579,0.088604-0.4593887,0.1327896-0.7273636,0.1327896c-0.2732239,0-0.5186234-0.0441856-0.736084-0.1327896
				c-0.2174606-0.0886078-0.4027939-0.2166214-0.5559998-0.3840446c-0.1533356-0.1674232-0.2709579-0.3685188-0.3528824-0.603054
				C81.647522,49.9093285,81.6065674,49.6446991,81.6065674,49.3504562z M82.2657471,49.3540421
				c0,0.4394531,0.0914688,0.782177,0.2745361,1.0281754c0.1829453,0.2459984,0.4610672,0.3689957,0.8342438,0.3689957
				c0.3684006,0,0.6429367-0.1229973,0.823494-0.3689957c0.1805649-0.2459984,0.2709579-0.5887222,0.2709579-1.0281754
				c0-0.4418449-0.0908737-0.7864799-0.2727432-1.033432c-0.1817551-0.2474327-0.4556961-0.3709106-0.8217087-0.3709106
				c-0.1866455,0-0.3492966,0.031765-0.4880524,0.0948181c-0.1387634,0.06353-0.2541199,0.1547661-0.3461914,0.2741814
				c-0.0921936,0.1194153-0.1608582,0.2670135-0.2063522,0.442318
				C82.2884369,48.9367981,82.2657471,49.1343155,82.2657471,49.3540421z"/>
			<path fill="#FF9600" d="M86.4431763,51.213356v-3.7150497h2.4110184v0.5122986H87.102356v3.2027512H86.4431763z"/>
			<path fill="#FF9600" d="M89.5566025,49.3504562c0-0.2908974,0.0409622-0.5543289,0.1230011-0.7902985
				c0.0819244-0.2359657,0.1995468-0.4368248,0.3528748-0.6023369c0.1532135-0.1657486,0.3385468-0.2940025,0.5560074-0.3845215
				c0.217453-0.090519,0.4629745-0.1358948,0.7362061-0.1358948c0.2703552,0,0.5132523,0.0453758,0.7291565,0.1358948
				c0.2156677,0.090519,0.4000397,0.2187729,0.5531387,0.3845215c0.1528473,0.1655121,0.2696381,0.3663712,0.3503647,0.6023369
				c0.0804901,0.2359695,0.1208496,0.4994011,0.1208496,0.7902985c0,0.2942429-0.0403595,0.5588722-0.1208496,0.7931671
				c-0.0807266,0.2345352-0.1975174,0.4356308-0.3503647,0.603054c-0.1530991,0.1674232-0.3379517,0.2954369-0.5550537,0.3840446
				c-0.2168579,0.088604-0.4592743,0.1327896-0.7272415,0.1327896c-0.2732315,0-0.5187531-0.0441856-0.7362061-0.1327896
				c-0.2174606-0.0886078-0.4027939-0.2166214-0.5560074-0.3840446c-0.1533279-0.1674232-0.2709503-0.3685188-0.3528748-0.603054
				C89.5975647,49.9093285,89.5566025,49.6446991,89.5566025,49.3504562z M90.2157822,49.3540421
				c0,0.4394531,0.0914764,0.782177,0.2745438,1.0281754c0.1829453,0.2459984,0.4610672,0.3689957,0.8343658,0.3689957
				c0.3682785,0,0.6429367-0.1229973,0.823494-0.3689957s0.2708359-0.5887222,0.2708359-1.0281754
				c0-0.4418449-0.0907593-0.7864799-0.2727509-1.033432c-0.1817474-0.2474327-0.4556885-0.3709106-0.821579-0.3709106
				c-0.1867676,0-0.3494186,0.031765-0.4881821,0.0948181c-0.1387558,0.06353-0.2541122,0.1547661-0.3461838,0.2741814
				c-0.0921936,0.1194153-0.1608582,0.2670135-0.2063522,0.442318
				C90.238472,48.9367981,90.2157822,49.1343155,90.2157822,49.3540421z"/>
			<path fill="#FF9600" d="M96.7399902,51.213356v-3.7150497h0.6591797v3.202755h1.7805023v-3.202755h0.6591797v3.202755h0.7093353
				v1.5727158c0,0.0644836-0.0188675,0.1139221-0.0566025,0.1485519c-0.037735,0.0346336-0.0857391,0.0520668-0.1435394,0.0520668
				h-0.4232101V51.213356H96.7399902z"/>
			<path fill="#FF9600" d="M101.6446686,51.216938v-3.7150497h0.6591797v2.5220795
				c0,0.0453796-0.002388,0.0962486-0.007164,0.1523743s-0.0107422,0.1115379-0.0179138,0.1664696
				c0.0191116-0.0477676,0.0401306-0.0914764,0.0628128-0.1306419c0.0226898-0.0396461,0.0446625-0.0759506,0.0661621-0.1093864
				c0.002388-0.004776,0.030571-0.0434685,0.0843048-0.1165504c0.0537415-0.0726051,0.1230011-0.1669464,0.2077866-0.2827797
				s0.1807938-0.2467155,0.288269-0.3924026s0.2161484-0.293766,0.3260117-0.4442291
				c0.2603302-0.3534737,0.5576706-0.754715,0.8915634-1.2037201c0.0265121-0.0382118,0.0606613-0.0752335,0.1029358-0.1110573
				c0.042038-0.0358238,0.0883713-0.0537376,0.1387634-0.0537376h0.3928833v3.7150497h-0.6591797v-2.5256615
				c0-0.0453758,0.002388-0.0960083,0.007164-0.1521339s0.0107422-0.1129684,0.0179138-0.1702881
				c-0.0214996,0.0477638-0.0441895,0.0926666-0.0680695,0.1344604c-0.0238876,0.0417976-0.0465775,0.0792923-0.0680695,0.1127319
				c-0.004776,0.004776-0.0334396,0.043705-0.0859833,0.1165504c-0.052536,0.0728416-0.1218033,0.1671829-0.2077789,0.2827759
				c-0.0859833,0.1160736-0.1827087,0.2467155-0.290184,0.3924026c-0.1074753,0.1456909-0.2161484,0.293766-0.3260117,0.4442329
				c-0.2603226,0.3534698-0.5540924,0.7547112-0.8812943,1.2037163c-0.026268,0.0382156-0.0601807,0.0752335-0.1019821,0.1110573
				c-0.0417938,0.0358276-0.0866928,0.0537376-0.1344604,0.0537376H101.6446686z"/>
			<path fill="#FF9600" d="M106.3346405,51.216938v-3.7186317h0.6591797v1.5727158h0.3510818
				c0.1958466,0,0.3487015-0.0807228,0.4585648-0.2421761l0.788147-1.151413
				c0.0334396-0.053978,0.0788116-0.0972061,0.1361313-0.1299286c0.0573196-0.0327187,0.1170349-0.0491982,0.1791306-0.0491982
				h0.5122986l-0.9672775,1.3988457c-0.0597076,0.0898018-0.1213303,0.1631241-0.1846161,0.2197266
				c-0.0632935,0.0566025-0.1413956,0.1003113-0.2345352,0.1308823c0.1170273,0.0315247,0.2161407,0.0816803,0.297348,0.1502266
				c0.0811996,0.0690193,0.1540451,0.1564331,0.2185287,0.2624779l0.9744415,1.5528908h-0.4549789
				c-0.1170273,0-0.2073059-0.0195847-0.2705994-0.0592308c-0.0632858-0.0391693-0.1186981-0.0948143-0.1664658-0.1664658
				l-0.7200775-1.1571465c-0.1146469-0.1910667-0.287796-0.286602-0.5194626-0.286602h-0.3976593v1.673027H106.3346405z"/>
			<path fill="#FF9600" d="M110.0821686,51.1632004v-0.4155693h0.1898727c0.0835876,0,0.1683807-0.0148048,0.2543564-0.044899
				c0.0859833-0.0296173,0.1695786-0.0859795,0.2507782-0.1681404c0.0812073-0.082634,0.1600189-0.1989479,0.2364426-0.349411
				c0.0764313-0.1504669,0.1456909-0.3463097,0.2077866-0.587532c0.0620956-0.2412186,0.1158371-0.5337906,0.1612167-0.8777122
				c0.045372-0.3439178,0.0800095-0.7511292,0.1038895-1.2216301h2.3751984v3.7150497h-0.6591797v-3.2027512h-1.1714783
				c-0.0286636,0.4728889-0.0728455,0.8808174-0.1325531,1.2233009c-0.0597076,0.3429642-0.1301651,0.634819-0.2113647,0.8760414
				c-0.0812073,0.2412224-0.1726761,0.4370651-0.2741852,0.5875282c-0.1015015,0.1504669-0.2077866,0.2674942-0.31884,0.3510857
				c-0.1110611,0.0835915-0.2261734,0.1397171-0.3455887,0.1683769c-0.1194229,0.0286598-0.2376404,0.0429916-0.3546677,0.0429916
				C110.1860657,51.2599297,110.0821686,51.2276878,110.0821686,51.1632004z"/>
			<path fill="#FF9600" d="M115.08358,50.2854881c0-0.1456871,0.0398865-0.2865982,0.1198959-0.4227333
				c0.0800018-0.1361351,0.2108841-0.2567444,0.3924026-0.3618317c0.1815109-0.1050873,0.4172363-0.1915436,0.7074203-0.2598495
				c0.290184-0.0678291,0.6479568-0.1067581,1.0730743-0.1163139v-0.2901802c0-0.28899-0.0628128-0.5068054-0.1884384-0.6539268
				c-0.1258621-0.1466446-0.3083344-0.2202034-0.5476456-0.2202034c-0.1626434,0-0.2983017,0.0203018-0.4069672,0.0609016
				c-0.1089096,0.0406036-0.2032471,0.0855026-0.283493,0.1344643c-0.0800095,0.0489616-0.1487961,0.0936203-0.2061157,0.1342239
				c-0.0573196,0.0405998-0.1136856,0.0609016-0.1686172,0.0609016c-0.0427475,0-0.080246-0.0112267-0.1122513-0.034153
				c-0.0320053-0.0224495-0.058754-0.0518265-0.080246-0.0876503l-0.1175079-0.2077866
				c0.2053986-0.1982307,0.4263153-0.3463097,0.6627655-0.4442291c0.2361984-0.0979233,0.4989166-0.1468811,0.7879105-0.1468811
				c0.2056351,0,0.3883438,0.0346298,0.5478821,0.1038895c0.1595383,0.0692635,0.2944794,0.1647949,0.4043427,0.286602
				c0.1098633,0.1218033,0.1927414,0.2694016,0.2483902,0.4425583c0.0554047,0.1731529,0.0833511,0.3635025,0.0833511,0.5712891
				v2.3787766h-0.290184c-0.0644836,0-0.1134491-0.0100288-0.1468811-0.030571
				c-0.0334396-0.0200615-0.0609055-0.0613785-0.0823975-0.1234741l-0.0630493-0.3475037
				c-0.0976868,0.0883675-0.1934586,0.1671829-0.2875595,0.2364464c-0.0938644,0.0692596-0.1915436,0.1277733-0.2928085,0.1755409
				s-0.2094574,0.0843086-0.3248138,0.1091461c-0.115593,0.0253181-0.2450409,0.037735-0.3885803,0.037735
				c-0.1437759,0-0.2791977-0.0195847-0.4064941-0.0592308c-0.1272964-0.0391655-0.2374039-0.0995903-0.3300705-0.1807938
				c-0.0929031-0.0812035-0.1664658-0.1831856-0.2213974-0.3064232
				C115.1108017,50.6014671,115.08358,50.4550629,115.08358,50.2854881z M115.7069321,50.2487106
				c0,0.0969658,0.0155258,0.1800804,0.0465698,0.2498169c0.0312881,0.0697403,0.0742798,0.1268234,0.1292114,0.1717224
				c0.0551682,0.0449028,0.120369,0.0773811,0.1958466,0.0974426c0.0752335,0.0200653,0.1559525,0.0300941,0.2421722,0.0300941
				c0.1148834,0,0.2202072-0.0112228,0.315979-0.0336761c0.0957718-0.0224495,0.1855698-0.0549316,0.2694016-0.0974426
				c0.0835953-0.042511,0.1643219-0.0943375,0.2421799-0.1557198c0.077858-0.0613785,0.1538086-0.1311188,0.2280807-0.2089806
				V49.540329c-0.3016434,0.0095558-0.5588684,0.0331993-0.771904,0.0709343
				c-0.2130432,0.037735-0.3859558,0.0866966-0.5187454,0.1468811c-0.1330338,0.0601883-0.2292786,0.1315994-0.2892303,0.2142334
				C115.7367859,50.0552559,115.7069321,50.1472054,115.7069321,50.2487106z"/>
		</g>
		<g>
			<path fill="#FF9600" d="M21.583107,16.9640312L37.6747475,4.0059409l16.0916367,12.9580898h4.6955681L38.3626709,0.7787071
				c-0.4189034-0.3374713-0.9569473-0.3374713-1.3758507,0L16.8875389,16.9640312H21.583107z"/>
			<polygon fill="#FF9600" points="28.3192902,10.004118 24.9565182,12.123683 24.9565182,4.2160745 28.3192902,4.2160745 			"/>
		</g>
	</g>
</g>
<g id="Линейка" display="none">
</g>
<g id="Направляющие" display="none">
</g>
</svg>
