<?xml version="1.0" encoding="utf-8"?>
<!-- Generator: Adobe Illustrator 17.1.0, SVG Export Plug-In . SVG Version: 6.00 Build 0)  -->
<!DOCTYPE svg PUBLIC "-//W3C//DTD SVG 1.1//EN" "http://www.w3.org/Graphics/SVG/1.1/DTD/svg11.dtd" [
	<!ENTITY ns_flows "http://ns.adobe.com/Flows/1.0/">
	<!ENTITY ns_extend "http://ns.adobe.com/Extensibility/1.0/">
	<!ENTITY ns_ai "http://ns.adobe.com/AdobeIllustrator/10.0/">
	<!ENTITY ns_graphs "http://ns.adobe.com/Graphs/1.0/">
	<!ENTITY ns_vars "http://ns.adobe.com/Variables/1.0/">
	<!ENTITY ns_imrep "http://ns.adobe.com/ImageReplacement/1.0/">
	<!ENTITY ns_sfw "http://ns.adobe.com/SaveForWeb/1.0/">
	<!ENTITY ns_custom "http://ns.adobe.com/GenericCustomNamespace/1.0/">
	<!ENTITY ns_adobe_xpath "http://ns.adobe.com/XPath/1.0/">
]>
<svg version="1.1" xmlns:x="&ns_extend;" xmlns:i="&ns_ai;" xmlns:graph="&ns_graphs;"
	 xmlns="http://www.w3.org/2000/svg" xmlns:xlink="http://www.w3.org/1999/xlink" xmlns:a="http://ns.adobe.com/AdobeSVGViewerExtensions/3.0/"
	 x="0px" y="0px" viewBox="0 0 181 53" enable-background="new 0 0 181 53" xml:space="preserve">
<metadata>
	<sfw  xmlns="&ns_sfw;">
		<slices></slices>
		<sliceSourceBounds  width="16383" height="16613.0410156" y="-8732" x="-7606" bottomLeftOrigin="true"></sliceSourceBounds>
		<optimizationSettings>
			<targetSettings  fileFormat="PNG24Format" targetSettingsID="0">
				<PNG24Format  transparency="true" noMatteColor="false" matteColor="#FFFFFF" filtered="false" interlaced="false">
					</PNG24Format>
			</targetSettings>
		</optimizationSettings>
	</sfw>
</metadata>
<g id="фон">
</g>
<g id="контент">
	<g>
		<g>
			<path fill="#FF9600" d="M169.127655,13.7948189H64.5776978v3.179348H169.127655
				c4.5175323,0,8.1929321,3.6752853,8.1929321,8.192934V35.438839c0,4.5175323-3.6753998,8.1929359-8.1929321,8.1929359
				h-29.9592438v3.179348h29.9592438c6.2707977,0,11.3722839-5.1014786,11.3722839-11.3722839V25.1671009
				C180.499939,18.8964157,175.3984528,13.7948189,169.127655,13.7948189z"/>
			<path fill="#FF9600" d="M3.6792839,35.438839V25.1671009c0-4.1442776,3.0936067-7.5773411,7.092391-8.1168957v-3.2011709
				C5.0155706,14.4045,0.4999361,19.2677574,0.4999361,25.1671009V35.438839c0,6.2708054,5.1015968,11.3722839,11.372283,11.3722839
				h29.7146721v-3.179348H11.8722191C7.354569,43.6317749,3.6792839,39.9563713,3.6792839,35.438839z"/>
		</g>
		<g>
			<path fill="#640657" d="M19.6505394,36.076046h-2.6748123v-4.2291374h1.2831306l4.3375702-10.0124855h1.3915615
				l4.4820633,10.0124855h1.319315v4.2291374h-2.656662v-1.3916779h-7.4821663V36.076046z M28.3435898,33.3830833v1.4639282
				h0.1988297v-1.6626358h-1.066391l-4.1386204-9.5065193h-0.1084309l-3.9941273,9.5065193h-1.0121746v1.6626358h0.1988277
				v-1.4639282H28.3435898z M23.3012238,24.0755138l3.9218807,9.1088619h-7.7533627l3.8134499-9.1088619H23.3012238z
				 M21.5300369,31.8108444h3.5784378l-1.8252831-4.5724621L21.5300369,31.8108444z"/>
			<path fill="#640657" d="M30.6378231,28.3408375c0-8.7473869,12.9764042-8.7473869,12.9764042,0
				C43.6142273,37.1061363,30.6378231,37.1061363,30.6378231,28.3408375z M42.0418701,28.3408375
				c0-6.7955227-9.8136559-6.7774906-9.8136559,0C32.2282143,35.1362381,42.0418701,35.1362381,42.0418701,28.3408375z
				 M32.409008,28.3408375c0,6.614603,9.4520645,6.4882603,9.4520645,0
				C41.8610725,21.8706055,32.409008,21.7441444,32.409008,28.3408375z M40.3068657,28.3408375
				c0,4.5903721-6.343647,4.5903721-6.343647,0C33.9632187,23.7862873,40.3068657,23.7862873,40.3068657,28.3408375z"/>
			<path fill="#640657" d="M57.2221107,21.9610043h1.1566696V34.648304c-1.1024551,0-2.2049103,0-3.3073654,0v-5.6389732
				l-2.6928444,2.8194256h-0.3614731l-2.6748123-2.8194256v5.6389732c-1.1024551,0-2.2049103,0-3.3073654,0V21.9610043h1.1928558
				l4.9519691,5.4942379L57.2221107,21.9610043z M56.8244514,33.4012337v-8.38591h-0.2529221l-4.3917847,4.6266766
				l-4.3374519-4.6266766h-0.2350121v8.38591h0.1807976v-8.1508999l4.3916664,4.6627426l4.4640312-4.6627426v8.1508999H56.8244514z"
				/>
		</g>
		<g>
			<path fill="#FF9600" d="M72.1310349,34.648304c-1.1024551,0-2.2049103,0-3.3073654,0v-5.0786705h-3.9037247v5.0786705
				c-1.1024551,0-2.2229424,0-3.3073654,0V21.9970684c1.0844231,0,2.2049103,0,3.3073654,0v4.5904942h3.9037247v-4.5904942
				c1.1024551,0,2.2049103,0,3.3073654,0V34.648304z M63.3475838,33.4191475V28.196104h7.0484428v5.2230434h0.1806793V23.2080727
				h-0.1806793v4.7711697h-7.0484428v-4.7711697h-0.1988297v10.2110748H63.3475838z"/>
			<path fill="#FF9600" d="M83.2630539,24.8887405c-1.8796234,0-2.8194275,0-4.6808929,0v1.7893391h4.301384
				c0,0.9577217,0,1.9156818,0,2.873642h-4.301384c0,0.74086,0,1.4638081,0,2.2228203c1.8614655,0,2.9458847,0,4.8435364,0
				c0,0.9398098,0,1.9156818,0,2.8737621c-2.9639206,0-5.1327667,0-8.0605011,0c0-4.2291412,0-8.4581604,0-12.6512356
				c2.9277344,0,4.933815,0,7.8978577,0C83.2630539,22.9369965,83.2630539,23.9128685,83.2630539,24.8887405z
				 M76.8832169,33.3107185h5.3135605v-0.1805611h-5.1147308c0-1.6448421,0-3.2894478,0-4.9340534h4.5906143v-0.1807976h-4.5906143
				v-4.5000954h4.9519653v-0.1807957h-5.150795C76.8832169,26.641777,76.8832169,29.9672909,76.8832169,33.3107185z"/>
			<path fill="#FF9600" d="M87.3105545,36.076046h-2.6748123v-4.2291374h1.2831345l4.3375702-10.0124855h1.3915634
				l4.4819412,10.0124855h1.319313v4.2291374h-2.6565399v-1.3916779h-7.4821701V36.076046z M96.0036087,33.3830833v1.4639282
				h0.1987076v-1.6626358h-1.066391l-4.1384964-9.5065193h-0.1084366l-3.9941254,9.5065193h-1.0121765v1.6626358h0.1988297
				v-1.4639282H96.0036087z M90.9611206,24.0755138l3.9218826,9.1088619h-7.7532425l3.813446-9.1088619H90.9611206z
				 M89.1900558,31.8108444h3.5783157l-1.8251648-4.5724621L89.1900558,31.8108444z"/>
			<path fill="#FF9600" d="M98.2978439,28.3408375c0-8.7473869,12.9762802-8.7473869,12.9762802,0
				C111.2741241,37.1061363,98.2978439,37.1061363,98.2978439,28.3408375z M109.701889,28.3408375
				c0-6.7955227-9.8136597-6.7774906-9.8136597,0C99.8882294,35.1362381,109.701889,35.1362381,109.701889,28.3408375z
				 M100.0690308,28.3408375c0,6.614603,9.4520569,6.4882603,9.4520569,0
				C109.5210876,21.8706055,100.0690308,21.7441444,100.0690308,28.3408375z M107.9667664,28.3408375
				c0,4.5903721-6.3436508,4.5903721-6.3436508,0C101.6231155,23.7862873,107.9667664,23.7862873,107.9667664,28.3408375z"/>
			<path fill="#FF9600" d="M113.713089,34.648304c0-4.2112274,0-8.4220963,0-12.6512356c1.8251648,0,3.7047806,0,5.5662537,0
				c6.054657,0.0181503,6.054657,9.4161186,0,9.4161186h-2.3312531v3.235117
				C115.8637848,34.648304,114.7792435,34.648304,113.713089,34.648304z M119.297493,23.370718h-4.0845261v10.0665798h0.1989441
				v-3.3797283h3.885582C123.3096466,30.0215054,123.3278046,23.370718,119.297493,23.370718z M119.297493,23.5333633
				c3.7410812,0,3.7952957,6.3073463,0,6.3073463h-3.885582v-6.3073463H119.297493z M119.2614288,24.8887405
				c-0.7590179-0.0179119-1.5724792,0-2.3133392,0c0,1.0300884,0,2.5844154,0,3.6147423h2.3133392
				C121.0326157,28.5034828,121.1410446,24.9068928,119.2614288,24.8887405z"/>
			<path fill="#FF9600" d="M125.4773026,28.3408375c0-8.7473869,12.9765244-8.7473869,12.9765244,0
				C138.4538269,37.1061363,125.4773026,37.1061363,125.4773026,28.3408375z M136.8813477,28.3408375
				c0-6.7955227-9.8136597-6.7774906-9.8136597,0C127.067688,35.1362381,136.8813477,35.1362381,136.8813477,28.3408375z
				 M127.2484894,28.3408375c0,6.614603,9.4520569,6.4882603,9.4520569,0
				C136.7005463,21.8706055,127.2484894,21.7441444,127.2484894,28.3408375z M135.1464691,28.3408375
				c0,4.5903721-6.3436584,4.5903721-6.3436584,0C128.8028107,23.7862873,135.1464691,23.7862873,135.1464691,28.3408375z"/>
			<path fill="#FF9600" d="M144.1817627,34.648304c-1.0843048,0-2.1867523,0-3.2892151,0V21.9970684
				c2.5844116,0,5.2954102,0,7.8798218,0c0,1.0662708,0,1.8073692,0,2.8916721h-4.5906067V34.648304z M147.5614929,23.3525658
				h-5.1327667v10.0665817h0.1989441v-9.9039364h4.9338226V23.3525658z"/>
			<path fill="#FF9600" d="M150.2536163,28.3408375c0-8.7473869,12.9762878-8.7473869,12.9762878,0
				C163.2299042,37.1061363,150.2536163,37.1061363,150.2536163,28.3408375z M161.6576691,28.3408375
				c0-6.7955227-9.8136597-6.7774906-9.8136597,0C151.8440094,35.1362381,161.6576691,35.1362381,161.6576691,28.3408375z
				 M152.0248108,28.3408375c0,6.614603,9.4520569,6.4882603,9.4520569,0
				C161.4768677,21.8706055,152.0248108,21.7441444,152.0248108,28.3408375z M159.9225464,28.3408375
				c0,4.5903721-6.3436584,4.5903721-6.3436584,0C153.5788879,23.7862873,159.9225464,23.7862873,159.9225464,28.3408375z"/>
		</g>
		<g>
			<path fill="#640657" d="M50.0285721,41.5243111c0-0.2765694,0.0383339-0.5316429,0.1151161-0.7652206
				c0.076786-0.2335815,0.1878433-0.4356346,0.3331757-0.6061592c0.1453285-0.1702881,0.3267212-0.303318,0.5440598-0.398613
				s0.4657249-0.1430626,0.7451591-0.1430626c0.2627182,0,0.4937897,0.0425148,0.6932144,0.1270599
				c0.1994247,0.0850258,0.3755646,0.2037239,0.5284195,0.3565788l-0.1719589,0.2364464
				c-0.0191078,0.026268-0.0382156,0.047287-0.0573235,0.0628128c-0.019104,0.015522-0.0465698,0.0231667-0.0823975,0.0231667
				c-0.0358238,0-0.0758286-0.0155258-0.1200104-0.0465736c-0.0441856-0.0310478-0.0985222-0.0649643-0.1630058-0.1022224
				c-0.0644836-0.0367775-0.143898-0.0702171-0.2382355-0.1003075c-0.0943375-0.0296173-0.2095757-0.0446625-0.3457108-0.0446625
				c-0.1839027,0-0.3457108,0.0322418-0.4854317,0.096489c-0.1397133,0.0642471-0.2567444,0.1571503-0.3510818,0.278717
				c-0.0943413,0.1215668-0.1653938,0.269165-0.2131577,0.4430351c-0.0477676,0.1741104-0.0716515,0.368042-0.0716515,0.5825157
				c0,0.2240257,0.0256729,0.4229736,0.0770226,0.5968437s0.1241951,0.3202744,0.2185326,0.4394531
				c0.0943413,0.1191788,0.2083817,0.2096977,0.3421288,0.271553c0.1337471,0.0618591,0.28302,0.092907,0.4478149,0.092907
				c0.1600151,0,0.2913742-0.0191078,0.3940735-0.0570831c0.1026993-0.0382118,0.1874847-0.0804863,0.2543564-0.1268196
				c0.0668755-0.0465698,0.1230011-0.0881271,0.1683769-0.1251488c0.0453796-0.0370178,0.0907593-0.0554085,0.1361351-0.0554085
				c0.0549316,0,0.0967293,0.0203018,0.1253891,0.0606651l0.1827049,0.2395477
				c-0.0811996,0.1015053-0.1731529,0.1879616-0.2758522,0.2591362c-0.1026955,0.0714111-0.2131577,0.1311188-0.3313789,0.1795998
				c-0.1182213,0.0482445-0.2424164,0.0833549-0.3725815,0.1050873c-0.1301613,0.0217361-0.2621193,0.0327225-0.3958664,0.0327225
				c-0.2316666,0-0.4472122-0.0425148-0.6466408-0.1273003c-0.1994247-0.0850258-0.3718605-0.2094574-0.5171928-0.3732948
				c-0.1454468-0.1640778-0.259491-0.36446-0.3421288-0.6013832C50.0698891,42.098465,50.0285721,41.8281059,50.0285721,41.5243111z
				"/>
			<path fill="#640657" d="M53.7975998,40.1844559v-0.5122948h3.5000992v0.5122948h-1.4222488v3.202755h-0.6591797v-3.202755
				H53.7975998z"/>
			<path fill="#640657" d="M58.3834343,44.6446686v-4.9725075h0.43396c0.102581,0,0.1657524,0.0453758,0.1893959,0.1361313
				l0.0206566,0.4368286c0.1569176-0.1934547,0.3360405-0.3484573,0.5374985-0.4654884
				c0.2013359-0.1170273,0.4321671-0.1755409,0.6921387-0.1755409c0.2122002,0,0.4038658,0.0410805,0.574749,0.1234779
				c0.1710052,0.0821571,0.317173,0.2032471,0.4386177,0.3627853c0.1213303,0.1597824,0.2144737,0.3582497,0.2793159,0.5954132
				c0.0648422,0.2371597,0.0973244,0.5096703,0.0973244,0.8170471c0,0.275135-0.0366592,0.5306892-0.1098633,0.7664146
				c-0.0732002,0.2354927-0.1776924,0.4394531-0.3134689,0.6118927c-0.1357765,0.1721992-0.3023605,0.308094-0.4995193,0.4072113
				c-0.1972771,0.0993538-0.4197502,0.1490326-0.667778,0.1490326c-0.2268906,0-0.4215393-0.0382156-0.5839462-0.1144028
				c-0.1624069-0.0764275-0.305706-0.1858139-0.4299011-0.3288727v1.6505775H58.3834343z M59.042614,42.4856148
				c0.1170311,0.1619301,0.2471924,0.2756119,0.3904953,0.3412933c0.1432991,0.0654411,0.302124,0.0981598,0.4764709,0.0981598
				c0.3463097,0,0.612606-0.1232376,0.7988968-0.3699532c0.1862907-0.2464752,0.2794342-0.5973206,0.2794342-1.0522995
				c0-0.2405052-0.0208969-0.4478111-0.0626945-0.6216812c-0.0417938-0.1738701-0.1032944-0.3162155-0.1844978-0.4270363
				c-0.0812035-0.110817-0.1809158-0.1917801-0.2991371-0.2428932c-0.1182213-0.0513496-0.2513733-0.0769043-0.3994484-0.0769043
				c-0.2125626,0-0.3988533,0.0489616-0.5588722,0.1466446c-0.1600151,0.097683-0.3069,0.2345352-0.4406471,0.4107933V42.4856148z"
				/>
			<path fill="#640657" d="M62.7507401,41.5243111c0-0.2908974,0.0409584-0.5543327,0.1230011-0.7902985
				c0.0819168-0.2359695,0.199543-0.4368286,0.3528748-0.6023369c0.1532097-0.1657524,0.3385468-0.2940063,0.5560036-0.3845215
				c0.2174568-0.090519,0.4628563-0.1358986,0.7360802-0.1358986c0.2703629,0,0.5133743,0.0453796,0.7291641,0.1358986
				c0.2157822,0.0905151,0.4001617,0.2187691,0.5531311,0.3845215c0.152977,0.1655083,0.2697678,0.3663673,0.3503723,0.6023369
				c0.0806046,0.2359657,0.1209717,0.4994011,0.1209717,0.7902985c0,0.2942429-0.0403671,0.5588684-0.1209717,0.7931633
				c-0.0806046,0.2345352-0.1973953,0.4356346-0.3503723,0.603054c-0.1529694,0.1674232-0.337944,0.2954369-0.554924,0.3840446
				c-0.2168655,0.0886078-0.4593964,0.1327934-0.7273712,0.1327934c-0.2732239,0-0.5186234-0.0441856-0.7360802-0.1327934
				s-0.4027939-0.2166214-0.5560036-0.3840446c-0.1533318-0.1674194-0.2709579-0.3685188-0.3528748-0.603054
				C62.7916985,42.0831795,62.7507401,41.8185539,62.7507401,41.5243111z M63.4099197,41.5278931
				c0,0.4394531,0.0914726,0.7821808,0.2745399,1.0281792c0.1829453,0.2459946,0.4610634,0.3689957,0.83424,0.3689957
				c0.3684006,0,0.6429443-0.1230011,0.8235016-0.3689957c0.1805573-0.2459984,0.2709579-0.588726,0.2709579-1.0281792
				c0-0.4418411-0.0908813-0.7864761-0.2727509-1.033432c-0.1817551-0.2474289-0.4556961-0.3709068-0.8217087-0.3709068
				c-0.1866455,0-0.3492889,0.031765-0.4880524,0.0948181c-0.1387634,0.06353-0.2541199,0.1547623-0.3461876,0.2741776
				c-0.0921898,0.1194191-0.1608543,0.2670174-0.2063522,0.4423218
				C63.4326096,41.1106529,63.4099197,41.3081665,63.4099197,41.5278931z"/>
			<path fill="#640657" d="M67.587471,43.3907928v-3.7150497h0.6591797v2.5220757
				c0,0.0453796-0.002388,0.0962524-0.007164,0.1523781s-0.0107498,0.1115341-0.0179138,0.1664658
				c0.019104-0.0477676,0.0400085-0.0914726,0.0626907-0.1306419c0.0226898-0.0396461,0.0447845-0.0759468,0.0662766-0.1093864
				c0.002388-0.004776,0.0304565-0.0434647,0.0841904-0.1165504c0.0537415-0.0726051,0.1230011-0.1669426,0.2077866-0.2827759
				c0.0847855-0.1158371,0.1809158-0.2467155,0.2883911-0.3924026c0.1074753-0.1456909,0.2161407-0.293766,0.326004-0.4442329
				c0.2603302-0.3534737,0.5575562-0.7547112,0.891571-1.2037163c0.0265045-0.0382156,0.0606613-0.0752335,0.1028137-0.1110611
				c0.042038-0.0358238,0.0883713-0.0537338,0.1387634-0.0537338h0.3929977v3.7150497h-0.6591797v-2.5256615
				c0-0.0453796,0.002388-0.0960121,0.007164-0.1521378s0.0107498-0.1129684,0.0179138-0.1702881
				c-0.021492,0.0477676-0.0441818,0.0926666-0.0680695,0.1344643c-0.02388,0.0417938-0.0465698,0.0792923-0.0680618,0.1127281
				c-0.004776,0.004776-0.0334396,0.043705-0.0859833,0.1165504s-0.1218033,0.1671829-0.2077866,0.2827797
				c-0.0859756,0.1160736-0.1827087,0.2467155-0.2901764,0.3924026c-0.1074753,0.1456871-0.2161484,0.293766-0.3260117,0.4442291
				c-0.2603302,0.3534737-0.5540924,0.754715-0.8812943,1.2037201c-0.026268,0.0382118-0.0603027,0.0752335-0.1021042,0.1110573
				c-0.0417938,0.0358238-0.0865707,0.0537376-0.1343384,0.0537376H67.587471z"/>
			<path fill="#640657" d="M71.8687973,40.1844559v-0.5122948h3.5000992v0.5122948h-1.4222488v3.202755H73.287468v-3.202755
				H71.8687973z"/>
			<path fill="#640657" d="M76.0927963,41.4526596c0-0.2603264,0.0402451-0.5027428,0.1208496-0.7272453
				c0.0806122-0.2245026,0.195488-0.4191513,0.3446426-0.5839462c0.1490326-0.1647949,0.3318558-0.2942429,0.5483551-0.3888206
				c0.216507-0.094101,0.4607086-0.1413918,0.7325058-0.1413918c0.2274857,0,0.4384995,0.037735,0.6330261,0.1127319
				c0.1944122,0.07547,0.3626709,0.1834221,0.5045319,0.3243332c0.1418686,0.1409111,0.2525711,0.3147812,0.3320999,0.5211334
				c0.0795288,0.2068329,0.1193008,0.4413643,0.1193008,0.7040825c0,0.1026993-0.0108719,0.1714821-0.0327225,0.2058754
				c-0.0218506,0.0348663-0.0641251,0.052063-0.1270599,0.052063H76.751976
				c0.0047836,0.2340584,0.0363083,0.4382591,0.0948181,0.6126099c0.0582809,0.1743469,0.1387634,0.3195572,0.2413406,0.4353905
				c0.1025848,0.1158333,0.2247467,0.2022934,0.3666077,0.259613c0.1417542,0.0573196,0.3009338,0.0859795,0.4774323,0.0859795
				c0.1667023,0,0.3098831-0.0191078,0.4295425-0.0573196c0.1196518-0.0382156,0.2230682-0.0792923,0.3101196-0.1234779
				c0.086937-0.0441818,0.1595459-0.0847855,0.2174606-0.1218033c0.0580368-0.0370216,0.1075974-0.0556488,0.148674-0.0556488
				c0.0586319,0,0.1032944,0.0203018,0.1338654,0.0609016l0.1951294,0.2400284
				c-0.0831146,0.0979195-0.1821136,0.1827087-0.2969894,0.2543564c-0.1148834,0.0716515-0.2376404,0.1308823-0.3684006,0.1772156
				c-0.1307602,0.0468102-0.2665405,0.08144-0.4069748,0.1041298c-0.1405487,0.0224495-0.2791977,0.0339165-0.4160461,0.0339165
				c-0.2597275,0-0.4985657-0.0429916-0.7161407-0.1289711c-0.2176971-0.0859795-0.405899-0.2130394-0.5646057-0.3816566
				c-0.158699-0.1681366-0.2825394-0.3759232-0.3714981-0.6233521
				C76.1372223,42.0564308,76.0927963,41.7726974,76.0927963,41.4526596z M76.7734756,41.1230698h2.0312729
				c0-0.1514206-0.021492-0.2908974-0.0643616-0.4184341c-0.0429916-0.1275368-0.1055679-0.2374001-0.1877213-0.3300667
				c-0.082283-0.0926666-0.1824722-0.1640778-0.3004532-0.2147141c-0.1179886-0.0503922-0.2509003-0.0757065-0.398735-0.0757065
				c-0.3146591,0-0.5620956,0.0919495-0.7420578,0.2758522C76.9313431,40.5441399,76.8187332,40.7984962,76.7734756,41.1230698z"/>
			<path fill="#640657" d="M80.1305161,43.3370552v-0.4155693h0.1898727c0.0835876,0,0.1683731-0.0148087,0.2543564-0.0449028
				c0.0859756-0.0296135,0.1695709-0.0859795,0.2507706-0.1681366c0.0812073-0.0826378,0.1600189-0.1989479,0.2364502-0.3494148
				c0.0764236-0.1504631,0.1456833-0.3463058,0.2077789-0.5875282c0.0621033-0.2412224,0.1158371-0.5337906,0.1612167-0.8777122
				s0.0800095-0.7511292,0.1038895-1.2216301h2.3751984v3.7150497h-0.6591797v-3.202755h-1.1714783
				c-0.028656,0.4728889-0.0728455,0.8808174-0.1325531,1.2233047c-0.0597076,0.3429642-0.1301651,0.634819-0.2113647,0.8760414
				c-0.0812073,0.2412186-0.172554,0.4370651-0.2740631,0.5875282c-0.1015015,0.1504631-0.2077866,0.2674942-0.31884,0.3510857
				c-0.1110611,0.0835915-0.2262955,0.1397171-0.3457108,0.1683769s-0.2376404,0.0429878-0.3546677,0.0429878
				C80.2344055,43.4337807,80.1305161,43.4015388,80.1305161,43.3370552z"/>
			<path fill="#640657" d="M85.4077759,43.3872108v-3.7150497h0.6233521v1.4580765h0.8074951
				c0.2630768,0,0.4835205,0.030571,0.6613312,0.0912323c0.1778107,0.0609016,0.3208694,0.1425858,0.4292984,0.2450447
				c0.1083145,0.102459,0.1862946,0.2211571,0.2338181,0.3558617c0.0475311,0.1347008,0.0712967,0.2734642,0.0712967,0.416523
				c0,0.1669464-0.0303345,0.320755-0.0908813,0.4614258c-0.0605392,0.1409111-0.1489105,0.2617607-0.2652206,0.363266
				c-0.1161957,0.101265-0.2597351,0.1805573-0.4304962,0.2378769c-0.1707687,0.0570831-0.367569,0.085743-0.5904007,0.085743
				H85.4077759z M86.0311279,42.9143219h0.8042679c0.1317215,0,0.2460022-0.0167198,0.3429642-0.0501556
				c0.0968475-0.0336761,0.1771011-0.0802498,0.240509-0.1401978c0.0634079-0.0599442,0.1112976-0.1306419,0.1436539-0.2120819
				c0.0323639-0.0812035,0.0484848-0.1688538,0.0484848-0.262001c0-0.0888443-0.0137329-0.1719589-0.0413132-0.2498207
				c-0.0275879-0.077858-0.0723724-0.1461639-0.1345825-0.2046776c-0.0623398-0.058754-0.1436615-0.1053276-0.2442093-0.1401939
				c-0.1005478-0.0346336-0.2225952-0.0520668-0.3662491-0.0520668h-0.7935257V42.9143219z"/>
			<path fill="#640657" d="M89.1803818,41.5243111c0-0.2765694,0.0383301-0.5316429,0.1151199-0.7652206
				c0.0767822-0.2335815,0.1878433-0.4356346,0.333168-0.6061592c0.1453323-0.1702881,0.3267288-0.303318,0.5440674-0.398613
				s0.4657211-0.1430626,0.7451553-0.1430626c0.2627182,0,0.4939117,0.0425148,0.6933365,0.1270599
				c0.1994247,0.0850258,0.3754425,0.2037239,0.5282974,0.3565788l-0.1719589,0.2364464
				c-0.0191116,0.026268-0.0382156,0.047287-0.0573196,0.0628128c-0.0191116,0.015522-0.0465775,0.0231667-0.0823975,0.0231667
				c-0.0358276,0-0.0757141-0.0155258-0.1198959-0.0465736s-0.0986404-0.0649643-0.1631241-0.1022224
				c-0.0644836-0.0367775-0.1437759-0.0702171-0.2381134-0.1003075c-0.0943451-0.0296173-0.2097015-0.0446625-0.3458328-0.0446625
				c-0.1838989,0-0.3457108,0.0322418-0.4854279,0.096489s-0.2567444,0.1571503-0.3510818,0.278717
				c-0.0943451,0.1215668-0.1653976,0.269165-0.2131653,0.4430351c-0.04776,0.1741104-0.0716476,0.368042-0.0716476,0.5825157
				c0,0.2240257,0.0256729,0.4229736,0.0770264,0.5968437c0.0513458,0.1738701,0.1241913,0.3202744,0.2185287,0.4394531
				s0.2083817,0.2096977,0.3421326,0.271553c0.1337433,0.0618591,0.2830124,0.092907,0.4478073,0.092907
				c0.1600189,0,0.2913818-0.0191078,0.3940811-0.0570831c0.1026917-0.0382118,0.1874771-0.0804863,0.2543564-0.1268196
				c0.0668716-0.0465698,0.1229935-0.0881271,0.1683731-0.1251488c0.0453796-0.0370178,0.0907593-0.0554085,0.1361389-0.0554085
				c0.0549316,0,0.0967255,0.0203018,0.1253815,0.0606651l0.1827087,0.2395477
				c-0.0812073,0.1015053-0.1731491,0.1879616-0.2758484,0.2591362c-0.1026993,0.0714111-0.2130432,0.1311188-0.3312607,0.1795998
				c-0.1182251,0.0482445-0.2424164,0.0833549-0.3725815,0.1050873c-0.1301651,0.0217361-0.2622375,0.0327225-0.3959885,0.0327225
				c-0.2316666,0-0.4472122-0.0425148-0.646637-0.1273003c-0.1994247-0.0850258-0.3718643-0.2094574-0.5171967-0.3732948
				c-0.1454468-0.1640778-0.259491-0.36446-0.3421249-0.6013832C89.2217026,42.098465,89.1803818,41.8281059,89.1803818,41.5243111z
				"/>
			<path fill="#640657" d="M92.949646,40.1844559v-0.5122948h3.5001068v0.5122948h-1.4222565v3.202755h-0.6591797v-3.202755
				H92.949646z"/>
			<path fill="#640657" d="M97.5354843,43.3872108v-3.7150497h1.3869019c0.2335815,0,0.4344406,0.02388,0.6023407,0.0714111
				c0.1679001,0.0477638,0.3052292,0.1117706,0.412468,0.1924973c0.1069946,0.0804863,0.1855698,0.1757813,0.2352448,0.2856445
				c0.0499191,0.1101036,0.0749969,0.2271309,0.0749969,0.3518028c0,0.0792923-0.0121841,0.1621666-0.0365448,0.2486229
				c-0.0243607,0.0862198-0.0656738,0.1690941-0.1244278,0.2483864c-0.058754,0.0795326-0.1385269,0.1507072-0.2395477,0.2137566
				c-0.1007919,0.0628128-0.2266541,0.1120148-0.3773575,0.1468849c0.2887497,0.0475273,0.5127716,0.1452103,0.6718369,0.2932854
				s0.2385941,0.3415298,0.2385941,0.5808411c0,0.1827087-0.0367813,0.3408165-0.1100998,0.4743233
				c-0.0735626,0.1332703-0.1733932,0.2457619-0.299736,0.3372345c-0.1263428,0.0912323-0.2744217,0.1593018-0.4439926,0.2037239
				s-0.351799,0.0666351-0.5469284,0.0666351H97.5354843z M98.1588364,41.2771187h0.7181778
				c0.1077118,0,0.2077789-0.0145683,0.2999725-0.0434685c0.092186-0.0291367,0.1712418-0.0702171,0.2369232-0.1237144
				c0.065918-0.0534973,0.1172638-0.1177444,0.1545258-0.1932182c0.0370178-0.07547,0.0556488-0.1585846,0.0556488-0.2490997
				c0-0.0673523-0.0119476-0.1323166-0.0360641-0.1951294c-0.0238876-0.0625725-0.0656815-0.1184616-0.1256256-0.1671829
				c-0.0599518-0.0487213-0.1370926-0.0876503-0.2316742-0.116787c-0.0945816-0.0289001-0.2123184-0.0434685-0.3537064-0.0434685
				h-0.7181778V41.2771187z M98.1588364,42.9143219h0.8041534c0.2443314,0,0.4375458-0.0561256,0.5798874-0.1681404
				c0.1423492-0.1122513,0.2137604-0.2663002,0.2137604-0.4621429c0-0.0874138-0.013855-0.1664658-0.0413208-0.2371597
				c-0.0277023-0.0709343-0.0718918-0.1335068-0.1327896-0.1877251c-0.061142-0.054451-0.1425858-0.0957718-0.2443314-0.1239548
				c-0.101738-0.0284195-0.2254562-0.042511-0.3716202-0.042511h-0.8077393V42.9143219z"/>
			<path fill="#640657" d="M101.4370651,41.5243111c0-0.2908974,0.0408401-0.5543327,0.1230011-0.7902985
				c0.0819168-0.2359695,0.1994247-0.4368286,0.3527527-0.6023369c0.1533356-0.1657524,0.3386688-0.2940063,0.5560074-0.3845215
				c0.2175751-0.090519,0.4628601-0.1358986,0.736084-0.1358986c0.2703552,0,0.5134888,0.0453796,0.7291565,0.1358986
				c0.2159042,0.0905151,0.4002838,0.2187691,0.5531387,0.3845215c0.1530914,0.1655083,0.2698822,0.3663673,0.3503647,0.6023369
				c0.0807266,0.2359657,0.1210938,0.4994011,0.1210938,0.7902985c0,0.2942429-0.0403671,0.5588684-0.1210938,0.7931633
				c-0.0804825,0.2345352-0.1972733,0.4356346-0.3503647,0.603054c-0.1528549,0.1674232-0.3379517,0.2954369-0.5548096,0.3840446
				c-0.2168655,0.0886078-0.4595184,0.1327934-0.7274857,0.1327934c-0.2732239,0-0.5185089-0.0441856-0.736084-0.1327934
				c-0.2173386-0.0886078-0.4026718-0.2166214-0.5560074-0.3840446c-0.1533279-0.1674194-0.2708359-0.3685188-0.3527527-0.603054
				C101.4779053,42.0831795,101.4370651,41.8185539,101.4370651,41.5243111z M102.0962448,41.5278931
				c0,0.4394531,0.0914688,0.7821808,0.2744217,1.0281792c0.1829453,0.2459946,0.4611816,0.3689957,0.8342438,0.3689957
				c0.368515,0,0.6429367-0.1230011,0.823494-0.3689957c0.1805573-0.2459984,0.27108-0.588726,0.27108-1.0281792
				c0-0.4418411-0.0909958-0.7864761-0.2727509-1.033432c-0.1817551-0.2474289-0.4556961-0.3709068-0.8218231-0.3709068
				c-0.1865311,0-0.3491745,0.031765-0.4879379,0.0948181c-0.1387634,0.06353-0.2541199,0.1547623-0.3463058,0.2741776
				c-0.0921936,0.1194191-0.1607361,0.2670174-0.2063522,0.4423218
				C102.1189346,41.1106529,102.0962448,41.3081665,102.0962448,41.5278931z"/>
			<path fill="#640657" d="M108.1905518,42.9143219h0.1619263c0.0859833-0.0023918,0.1707687-0.0203018,0.2541199-0.0537376
				c0.0835953-0.0334396,0.1638412-0.0931473,0.2412262-0.1793671c0.0773773-0.0859795,0.1504593-0.2049179,0.2192459-0.3568153
				s0.1313553-0.3472633,0.1877213-0.5863342c0.0566025-0.2390747,0.1062851-0.5285378,0.1492691-0.8679199
				c0.0429916-0.3396225,0.0752335-0.7389526,0.0967331-1.1979866h2.3367386v3.224247h0.7093353v1.5727158
				c0,0.0644875-0.0188675,0.1139259-0.056839,0.1485558c-0.037735,0.0346298-0.0867004,0.052063-0.1473618,0.052063h-0.4191513
				v-1.2825317h-3.1096115v1.0957642c0,0.0453796-0.0145645,0.0878906-0.0437012,0.1275406
				c-0.0291443,0.0394058-0.0781021,0.059227-0.1464081,0.059227h-0.4332428V42.9143219z M109.3754044,42.9143219h1.8387756
				v-2.729866h-1.1769714c-0.02388,0.3826103-0.0577927,0.7210388-0.1019821,1.0152817
				c-0.0439453,0.2940025-0.0948181,0.5517044-0.1518936,0.7728615c-0.0573196,0.2214012-0.1206131,0.4091225-0.1896362,0.5634079
				C109.524437,42.6902962,109.451828,42.8163986,109.3754044,42.9143219z"/>
			<path fill="#640657" d="M113.3531723,41.5243111c0-0.2908974,0.0408401-0.5543327,0.1229935-0.7902985
				c0.0819244-0.2359695,0.1994324-0.4368286,0.3527603-0.6023369c0.1533279-0.1657524,0.3386688-0.2940063,0.5560074-0.3845215
				c0.2175751-0.090519,0.4628525-0.1358986,0.736084-0.1358986c0.2703552,0,0.5134888,0.0453796,0.7291565,0.1358986
				c0.2159042,0.0905151,0.4002838,0.2187691,0.5531387,0.3845215c0.1530914,0.1655083,0.2698746,0.3663673,0.3503647,0.6023369
				c0.0807266,0.2359657,0.1210861,0.4994011,0.1210861,0.7902985c0,0.2942429-0.0403595,0.5588684-0.1210861,0.7931633
				c-0.0804901,0.2345352-0.1972733,0.4356346-0.3503647,0.603054c-0.1528549,0.1674232-0.3379517,0.2954369-0.5548096,0.3840446
				c-0.2168655,0.0886078-0.4595184,0.1327934-0.7274857,0.1327934c-0.2732315,0-0.5185089-0.0441856-0.736084-0.1327934
				c-0.2173386-0.0886078-0.4026794-0.2166214-0.5560074-0.3840446c-0.1533279-0.1674194-0.2708359-0.3685188-0.3527603-0.603054
				C113.3940125,42.0831795,113.3531723,41.8185539,113.3531723,41.5243111z M114.012352,41.5278931
				c0,0.4394531,0.0914688,0.7821808,0.2744141,1.0281792c0.1829529,0.2459946,0.4611893,0.3689957,0.8342514,0.3689957
				c0.368515,0,0.6429367-0.1230011,0.823494-0.3689957c0.1805573-0.2459984,0.2710724-0.588726,0.2710724-1.0281792
				c0-0.4418411-0.0909958-0.7864761-0.2727432-1.033432c-0.1817551-0.2474289-0.4556961-0.3709068-0.8218231-0.3709068
				c-0.1865311,0-0.3491745,0.031765-0.4879379,0.0948181c-0.1387634,0.06353-0.2541199,0.1547623-0.3463135,0.2741776
				c-0.092186,0.1194191-0.1607285,0.2670174-0.2063522,0.4423218
				C114.0350418,41.1106529,114.012352,41.3081665,114.012352,41.5278931z"/>
			<path fill="#640657" d="M118.1897812,43.3872108v-3.7257996h0.5342712c0.0460968,0,0.0914688,0.0102692,0.1363754,0.030571
				c0.044899,0.0203018,0.0831146,0.0589905,0.1146393,0.1163101l1.1776886,1.9345512
				c0.0265045,0.0573196,0.0532532,0.1158333,0.0797653,0.1755409c0.0267487,0.0597076,0.0508728,0.1206131,0.0728455,0.1827087
				c0.0410767-0.1241951,0.0909958-0.2436104,0.1492691-0.3582497l1.1545181-1.9345512
				c0.0315323-0.0597076,0.0702209-0.0991135,0.1165543-0.1182213c0.0460968-0.0191078,0.092186-0.0286598,0.1382828-0.0286598
				h0.5316467v3.7257996h-0.6233597V40.918869c0-0.0668755,0.0045395-0.1425819,0.0133743-0.2276077
				c0.0088425-0.084549,0.0207825-0.1640778,0.0360641-0.2381172l-1.2939987,2.2641373
				c-0.019104,0.0358276-0.0441818,0.0644875-0.0752335,0.0859833c-0.031044,0.021492-0.0680618,0.0322418-0.1110535,0.0322418
				h-0.0718918c-0.040596,0-0.0776215-0.0107498-0.1110535-0.0322418c-0.0334396-0.0214958-0.0597076-0.0501556-0.0788193-0.0859833
				l-1.3154907-2.2713013c0.0124207,0.0740356,0.02388,0.1540451,0.0339127,0.2400246
				c0.0100327,0.0859833,0.0150452,0.1636009,0.0150452,0.2328644v2.4683418H118.1897812z"/>
			<path fill="#640657" d="M123.6246719,41.5243111c0-0.2908974,0.0410767-0.5543327,0.1230011-0.7902985
				c0.0819168-0.2359695,0.1996613-0.4368286,0.3529892-0.6023369c0.1530914-0.1657524,0.3384323-0.2940063,0.5560074-0.3845215
				c0.2173386-0.090519,0.462616-0.1358986,0.7358475-0.1358986c0.2703552,0,0.5134888,0.0453796,0.729393,0.1358986
				c0.2156677,0.0905151,0.4000473,0.2187691,0.5531387,0.3845215c0.1528549,0.1655083,0.2696457,0.3663673,0.3503647,0.6023369
				c0.0804901,0.2359657,0.1208496,0.4994011,0.1208496,0.7902985c0,0.2942429-0.0403595,0.5588684-0.1208496,0.7931633
				c-0.080719,0.2345352-0.1975098,0.4356346-0.3503647,0.603054c-0.1530914,0.1674232-0.3379517,0.2954369-0.5550461,0.3840446
				c-0.2168655,0.0886078-0.4595184,0.1327934-0.7274857,0.1327934c-0.2732315,0-0.5185089-0.0441856-0.7358475-0.1327934
				c-0.2175751-0.0886078-0.402916-0.2166214-0.5560074-0.3840446c-0.1533279-0.1674194-0.2710724-0.3685188-0.3529892-0.603054
				C123.6657486,42.0831795,123.6246719,41.8185539,123.6246719,41.5243111z M124.2838516,41.5278931
				c0,0.4394531,0.0914688,0.7821808,0.2746582,1.0281792c0.1829453,0.2459946,0.4609451,0.3689957,0.8340073,0.3689957
				c0.368515,0,0.6429367-0.1230011,0.8237305-0.3689957c0.1805573-0.2459984,0.2708359-0.588726,0.2708359-1.0281792
				c0-0.4418411-0.0909958-0.7864761-0.2727432-1.033432c-0.1817551-0.2474289-0.4556961-0.3709068-0.8218231-0.3709068
				c-0.1865311,0-0.3491745,0.031765-0.4879379,0.0948181c-0.1387634,0.06353-0.2541199,0.1547623-0.3460693,0.2741776
				c-0.0921936,0.1194191-0.1609726,0.2670174-0.2063522,0.4423218
				C124.3065414,41.1106529,124.2838516,41.3081665,124.2838516,41.5278931z"/>
			<path fill="#640657" d="M128.4612885,43.3872108v-3.7150497h1.3869019c0.2335815,0,0.434433,0.02388,0.6023407,0.0714111
				c0.1678925,0.0477638,0.3054657,0.1117706,0.4124603,0.1924973c0.1069946,0.0804863,0.1855774,0.1757813,0.2354889,0.2856445
				c0.0496826,0.1101036,0.0747528,0.2271309,0.0747528,0.3518028c0,0.0792923-0.0121765,0.1621666-0.0365448,0.2486229
				c-0.0241241,0.0862198-0.0656738,0.1690941-0.1244354,0.2483864c-0.0587463,0.0795326-0.1385193,0.1507072-0.2393036,0.2137566
				c-0.1010284,0.0628128-0.2268982,0.1120148-0.377594,0.1468849c0.2887421,0.0475273,0.5127716,0.1452103,0.6718292,0.2932854
				c0.1590729,0.1480751,0.2386017,0.3415298,0.2386017,0.5808411c0,0.1827087-0.0367737,0.3408165-0.1101074,0.4743233
				c-0.0735626,0.1332703-0.1733856,0.2457619-0.2997284,0.3372345c-0.1263428,0.0912323-0.2741852,0.1593018-0.4440002,0.2037239
				c-0.1695709,0.0444221-0.3517914,0.0666351-0.5466766,0.0666351H128.4612885z M129.0846405,41.2771187h0.7181702
				c0.1077118,0,0.2077789-0.0145683,0.2999725-0.0434685c0.0921936-0.0291367,0.1712494-0.0702171,0.2369232-0.1237144
				c0.065918-0.0534973,0.1172638-0.1177444,0.1545258-0.1932182c0.0370178-0.07547,0.0556488-0.1585846,0.0556488-0.2490997
				c0-0.0673523-0.0119476-0.1323166-0.0358276-0.1951294c-0.0241241-0.0625725-0.065918-0.1184616-0.1258698-0.1671829
				c-0.0597076-0.0487213-0.137085-0.0876503-0.2314301-0.116787c-0.0948181-0.0289001-0.2125549-0.0434685-0.3539429-0.0434685
				h-0.7181702V41.2771187z M129.0846405,42.9143219h0.8043823c0.2440948,0,0.4373016-0.0561256,0.5796509-0.1681404
				c0.1425781-0.1122513,0.2137604-0.2663002,0.2137604-0.4621429c0-0.0874138-0.013855-0.1664658-0.0413208-0.2371597
				c-0.0274658-0.0709343-0.0718842-0.1335068-0.1327972-0.1877251c-0.061142-0.054451-0.1425781-0.0957718-0.2440796-0.1239548
				c-0.1019897-0.0284195-0.2256927-0.042511-0.3718719-0.042511h-0.807724V42.9143219z"/>
			<path fill="#640657" d="M63.3346863,51.2132988v-3.7150536h3.0988617v3.7150536h-0.6591797v-3.202755H63.993866v3.202755
				H63.3346863z"/>
			<path fill="#640657" d="M67.727066,49.350399c0-0.2909012,0.0409622-0.5543327,0.1230011-0.7902985
				c0.0819244-0.2359695,0.1995468-0.4368286,0.3528748-0.6023407c0.1532135-0.1657486,0.3385468-0.2940025,0.5560074-0.3845215
				c0.217453-0.0905151,0.4628601-0.1358948,0.736084-0.1358948c0.2703552,0,0.5133743,0.0453796,0.7291565,0.1358948
				c0.2157822,0.090519,0.4001617,0.2187729,0.5531387,0.3845215c0.1529694,0.1655121,0.2697601,0.3663712,0.3503647,0.6023407
				c0.0806122,0.2359657,0.1209717,0.4993973,0.1209717,0.7902985c0,0.2942429-0.0403595,0.5588684-0.1209717,0.7931633
				c-0.0806046,0.2345352-0.1973953,0.4356308-0.3503647,0.603054c-0.152977,0.1674232-0.3379517,0.2954369-0.5549316,0.3840446
				c-0.2168579,0.0886078-0.4593964,0.1327896-0.7273636,0.1327896c-0.2732239,0-0.518631-0.0441818-0.736084-0.1327896
				c-0.2174606-0.0886078-0.4027939-0.2166214-0.5560074-0.3840446c-0.1533279-0.1674232-0.2709503-0.3685188-0.3528748-0.603054
				C67.7680283,49.9092674,67.727066,49.6446419,67.727066,49.350399z M68.3862457,49.353981
				c0,0.4394531,0.0914764,0.782177,0.2745438,1.0281754c0.1829453,0.2459984,0.4610672,0.3689995,0.8342438,0.3689995
				c0.3684006,0,0.6429367-0.1230011,0.823494-0.3689995s0.2709579-0.5887222,0.2709579-1.0281754
				c0-0.4418411-0.0908737-0.7864799-0.2727509-1.033432c-0.1817474-0.2474327-0.4556885-0.3709068-0.821701-0.3709068
				c-0.1866531,0-0.3492966,0.031765-0.48806,0.0948143c-0.1387558,0.06353-0.2541122,0.1547661-0.3461838,0.2741814
				c-0.0921936,0.1194153-0.1608582,0.2670174-0.2063522,0.442318
				C68.4089355,48.9367371,68.3862457,49.1342545,68.3862457,49.353981z"/>
			<path fill="#640657" d="M71.9367447,51.1631432v-0.4155693h0.1898727c0.0835876,0,0.1683731-0.0148087,0.2543564-0.0449028
				c0.0859756-0.0296135,0.1695709-0.0859795,0.2507706-0.1681366c0.0812073-0.0826378,0.1600189-0.1989479,0.2364502-0.3494148
				c0.0764236-0.1504631,0.1456833-0.3463097,0.2077866-0.5875282c0.0620956-0.2412224,0.1158295-0.5337944,0.1612091-0.8777122
				c0.0453796-0.3439217,0.0800095-0.751133,0.1038895-1.2216339h2.3751984v3.7150536h-0.6591797v-3.202755h-1.1714783
				c-0.028656,0.4728889-0.0728455,0.8808174-0.1325531,1.2233047c-0.0597076,0.3429642-0.1301575,0.634819-0.2113647,0.8760376
				c-0.0811996,0.2412224-0.172554,0.4370651-0.2740631,0.587532c-0.1015015,0.1504631-0.2077789,0.2674904-0.31884,0.3510857
				c-0.1110611,0.0835915-0.2262955,0.1397171-0.3457108,0.1683769s-0.2376404,0.0429878-0.3546677,0.0429878
				C72.0406342,51.2598686,71.9367447,51.2276268,71.9367447,51.1631432z"/>
			<path fill="#640657" d="M77.2140045,51.2132988v-3.7150536h0.6591797v1.4652443h1.7805023v-1.4652443h0.6591797v3.7150536
				h-0.6591797v-1.7375145h-1.7805023v1.7375145H77.2140045z"/>
			<path fill="#640657" d="M81.6065063,49.350399c0-0.2909012,0.0409546-0.5543327,0.1229935-0.7902985
				c0.0819244-0.2359695,0.1995468-0.4368286,0.3528824-0.6023407c0.1532059-0.1657486,0.3385391-0.2940025,0.5559998-0.3845215
				c0.2174606-0.0905151,0.4628601-0.1358948,0.736084-0.1358948c0.2703629,0,0.5133743,0.0453796,0.7291565,0.1358948
				c0.2157898,0.090519,0.4001694,0.2187729,0.5531387,0.3845215c0.152977,0.1655121,0.2697601,0.3663712,0.3503723,0.6023407
				c0.0806046,0.2359657,0.1209641,0.4993973,0.1209641,0.7902985c0,0.2942429-0.0403595,0.5588684-0.1209641,0.7931633
				c-0.0806122,0.2345352-0.1973953,0.4356308-0.3503723,0.603054c-0.1529694,0.1674232-0.3379517,0.2954369-0.5549316,0.3840446
				c-0.2168579,0.0886078-0.4593887,0.1327896-0.7273636,0.1327896c-0.2732239,0-0.5186234-0.0441818-0.736084-0.1327896
				s-0.4027939-0.2166214-0.5559998-0.3840446c-0.1533356-0.1674232-0.2709579-0.3685188-0.3528824-0.603054
				C81.6474609,49.9092674,81.6065063,49.6446419,81.6065063,49.350399z M82.265686,49.353981
				c0,0.4394531,0.0914688,0.782177,0.2745361,1.0281754c0.1829453,0.2459984,0.4610672,0.3689995,0.8342438,0.3689995
				c0.3684006,0,0.6429367-0.1230011,0.823494-0.3689995c0.1805649-0.2459984,0.2709579-0.5887222,0.2709579-1.0281754
				c0-0.4418411-0.0908737-0.7864799-0.2727432-1.033432c-0.1817551-0.2474327-0.4556961-0.3709068-0.8217087-0.3709068
				c-0.1866455,0-0.3492966,0.031765-0.4880524,0.0948143c-0.1387634,0.06353-0.2541199,0.1547661-0.3461914,0.2741814
				c-0.0921936,0.1194153-0.1608582,0.2670174-0.2063522,0.442318C82.2883759,48.9367371,82.265686,49.1342545,82.265686,49.353981z
				"/>
			<path fill="#640657" d="M86.4431152,51.2132988v-3.7150536h2.4110184v0.5122986h-1.7518387v3.202755H86.4431152z"/>
			<path fill="#640657" d="M89.5565414,49.350399c0-0.2909012,0.0409622-0.5543327,0.1230011-0.7902985
				c0.0819244-0.2359695,0.1995468-0.4368286,0.3528748-0.6023407c0.1532135-0.1657486,0.3385468-0.2940025,0.5560074-0.3845215
				c0.217453-0.0905151,0.4629745-0.1358948,0.7362061-0.1358948c0.2703552,0,0.5132523,0.0453796,0.7291565,0.1358948
				c0.2156677,0.090519,0.4000397,0.2187729,0.5531387,0.3845215c0.1528473,0.1655121,0.2696381,0.3663712,0.3503647,0.6023407
				c0.0804901,0.2359657,0.1208496,0.4993973,0.1208496,0.7902985c0,0.2942429-0.0403595,0.5588684-0.1208496,0.7931633
				c-0.0807266,0.2345352-0.1975174,0.4356308-0.3503647,0.603054c-0.1530991,0.1674232-0.3379517,0.2954369-0.5550537,0.3840446
				c-0.2168579,0.0886078-0.4592743,0.1327896-0.7272415,0.1327896c-0.2732315,0-0.5187531-0.0441818-0.7362061-0.1327896
				c-0.2174606-0.0886078-0.4027939-0.2166214-0.5560074-0.3840446c-0.1533279-0.1674232-0.2709503-0.3685188-0.3528748-0.603054
				C89.5975037,49.9092674,89.5565414,49.6446419,89.5565414,49.350399z M90.2157211,49.353981
				c0,0.4394531,0.0914764,0.782177,0.2745438,1.0281754c0.1829453,0.2459984,0.4610672,0.3689995,0.8343658,0.3689995
				c0.3682785,0,0.6429367-0.1230011,0.823494-0.3689995s0.2708359-0.5887222,0.2708359-1.0281754
				c0-0.4418411-0.0907593-0.7864799-0.2727509-1.033432c-0.1817474-0.2474327-0.4556885-0.3709068-0.821579-0.3709068
				c-0.1867676,0-0.3494186,0.031765-0.4881821,0.0948143c-0.1387558,0.06353-0.2541122,0.1547661-0.3461838,0.2741814
				c-0.0921936,0.1194153-0.1608582,0.2670174-0.2063522,0.442318
				C90.2384109,48.9367371,90.2157211,49.1342545,90.2157211,49.353981z"/>
			<path fill="#640657" d="M96.7399292,51.2132988v-3.7150536h0.6591797v3.202755h1.7805023v-3.202755h0.6591797v3.202755h0.7093353
				v1.5727158c0,0.0644836-0.0188675,0.1139221-0.0566025,0.1485558c-0.037735,0.0346298-0.0857391,0.052063-0.1435394,0.052063
				h-0.4232101v-1.2610359H96.7399292z"/>
			<path fill="#640657" d="M101.6446075,51.2168808v-3.7150536h0.6591797v2.5220795
				c0,0.0453796-0.002388,0.0962524-0.007164,0.1523781s-0.0107422,0.1115341-0.0179138,0.1664658
				c0.0191116-0.0477676,0.0401306-0.0914726,0.0628128-0.1306419c0.0226898-0.0396461,0.0446625-0.0759506,0.0661621-0.1093864
				c0.002388-0.004776,0.030571-0.0434685,0.0843048-0.1165504c0.0537415-0.0726051,0.1230011-0.1669426,0.2077866-0.2827797
				c0.0847855-0.1158333,0.1807938-0.2467117,0.288269-0.3924026c0.1074753-0.1456871,0.2161484-0.2937622,0.3260117-0.4442291
				c0.2603302-0.3534737,0.5576706-0.7547112,0.8915634-1.2037201c0.0265121-0.0382118,0.0606613-0.0752296,0.1029358-0.1110573
				c0.042038-0.0358238,0.0883713-0.0537376,0.1387634-0.0537376h0.3928833v3.7150536h-0.6591797v-2.5256615
				c0-0.0453796,0.002388-0.0960121,0.007164-0.1521378s0.0107422-0.1129684,0.0179138-0.1702881
				c-0.0214996,0.0477676-0.0441895,0.0926666-0.0680695,0.1344643c-0.0238876,0.0417938-0.0465775,0.0792923-0.0680695,0.1127281
				c-0.004776,0.004776-0.0334396,0.043705-0.0859833,0.1165504c-0.052536,0.0728455-0.1218033,0.1671829-0.2077789,0.2827797
				c-0.0859833,0.1160698-0.1827087,0.2467117-0.290184,0.3924026c-0.1074753,0.1456871-0.2161484,0.2937622-0.3260117,0.4442291
				c-0.2603226,0.3534737-0.5540924,0.7547112-0.8812943,1.2037201c-0.026268,0.0382118-0.0601807,0.0752296-0.1019821,0.1110573
				c-0.0417938,0.0358238-0.0866928,0.0537376-0.1344604,0.0537376H101.6446075z"/>
			<path fill="#640657" d="M106.3345795,51.2168808v-3.7186356h0.6591797v1.5727196h0.3510818
				c0.1958466,0,0.3487015-0.0807266,0.4585648-0.2421799l0.788147-1.151413
				c0.0334396-0.053978,0.0788116-0.0972061,0.1361313-0.1299248c0.0573196-0.0327225,0.1170349-0.049202,0.1791306-0.049202
				h0.5122986l-0.9672775,1.3988457c-0.0597076,0.0898018-0.1213303,0.1631241-0.1846161,0.2197266
				c-0.0632935,0.0566063-0.1413956,0.1003113-0.2345352,0.1308823c0.1170273,0.0315247,0.2161407,0.0816803,0.297348,0.1502266
				c0.0811996,0.0690231,0.1540451,0.1564369,0.2185287,0.2624779l0.9744415,1.5528946h-0.4549789
				c-0.1170273,0-0.2073059-0.0195847-0.2705994-0.0592308c-0.0632858-0.0391693-0.1186981-0.0948181-0.1664658-0.1664696
				l-0.7200775-1.1571465c-0.1146469-0.1910667-0.287796-0.2865982-0.5194626-0.2865982h-0.3976593v1.673027H106.3345795z"/>
			<path fill="#640657" d="M110.0821075,51.1631432v-0.4155693h0.1898727c0.0835876,0,0.1683807-0.0148087,0.2543564-0.0449028
				c0.0859833-0.0296135,0.1695786-0.0859795,0.2507782-0.1681366c0.0812073-0.0826378,0.1600189-0.1989479,0.2364426-0.3494148
				c0.0764313-0.1504631,0.1456909-0.3463097,0.2077866-0.5875282c0.0620956-0.2412224,0.1158371-0.5337944,0.1612167-0.8777122
				c0.045372-0.3439217,0.0800095-0.751133,0.1038895-1.2216339h2.3751984v3.7150536h-0.6591797v-3.202755h-1.1714783
				c-0.0286636,0.4728889-0.0728455,0.8808174-0.1325531,1.2233047c-0.0597076,0.3429642-0.1301651,0.634819-0.2113647,0.8760376
				c-0.0812073,0.2412224-0.1726761,0.4370651-0.2741852,0.587532c-0.1015015,0.1504631-0.2077866,0.2674904-0.31884,0.3510857
				c-0.1110611,0.0835915-0.2261734,0.1397171-0.3455887,0.1683769c-0.1194229,0.0286598-0.2376404,0.0429878-0.3546677,0.0429878
				C110.1860046,51.2598686,110.0821075,51.2276268,110.0821075,51.1631432z"/>
			<path fill="#640657" d="M115.083519,50.2854309c0-0.1456909,0.0398865-0.286602,0.1198959-0.4227371
				c0.0800018-0.1361351,0.2108841-0.2567444,0.3924026-0.3618317c0.1815109-0.1050873,0.4172363-0.1915436,0.7074203-0.2598495
				c0.290184-0.0678291,0.6479568-0.1067581,1.0730743-0.1163139v-0.2901802c0-0.28899-0.0628128-0.5068054-0.1884384-0.6539268
				c-0.1258621-0.1466408-0.3083344-0.2202034-0.5476456-0.2202034c-0.1626434,0-0.2983017,0.0203018-0.4069672,0.0609016
				c-0.1089096,0.0406036-0.2032471,0.0855026-0.283493,0.1344643c-0.0800095,0.0489616-0.1487961,0.0936241-0.2061157,0.1342239
				c-0.0573196,0.0406036-0.1136856,0.0609016-0.1686172,0.0609016c-0.0427475,0-0.080246-0.0112228-0.1122513-0.034153
				c-0.0320053-0.0224495-0.058754-0.0518265-0.080246-0.0876503l-0.1175079-0.2077866
				c0.2053986-0.1982307,0.4263153-0.3463058,0.6627655-0.4442291c0.2361984-0.0979195,0.4989166-0.1468811,0.7879105-0.1468811
				c0.2056351,0,0.3883438,0.0346298,0.5478821,0.1038933c0.1595383,0.0692596,0.2944794,0.1647949,0.4043427,0.2865982
				s0.1927414,0.2694054,0.2483902,0.4425583c0.0554047,0.1731529,0.0833511,0.3635025,0.0833511,0.5712891v2.3787804h-0.290184
				c-0.0644836,0-0.1134491-0.0100327-0.1468811-0.030571c-0.0334396-0.0200653-0.0609055-0.0613823-0.0823975-0.1234779
				l-0.0630493-0.3475037c-0.0976868,0.0883675-0.1934586,0.1671829-0.2875595,0.2364464
				c-0.0938644,0.0692596-0.1915436,0.1277771-0.2928085,0.1755409c-0.101265,0.0477676-0.2094574,0.0843086-0.3248138,0.1091461
				c-0.115593,0.0253181-0.2450409,0.0377388-0.3885803,0.0377388c-0.1437759,0-0.2791977-0.0195847-0.4064941-0.0592308
				c-0.1272964-0.0391693-0.2374039-0.0995941-0.3300705-0.1807976c-0.0929031-0.0812035-0.1664658-0.1831856-0.2213974-0.3064232
				C115.1107407,50.6014061,115.083519,50.4550018,115.083519,50.2854309z M115.706871,50.2486496
				c0,0.0969658,0.0155258,0.1800804,0.0465698,0.2498207c0.0312881,0.0697365,0.0742798,0.1268196,0.1292114,0.1717186
				c0.0551682,0.0449028,0.120369,0.0773849,0.1958466,0.0974464c0.0752335,0.0200615,0.1559525,0.0300903,0.2421722,0.0300903
				c0.1148834,0,0.2202072-0.0112228,0.315979-0.0336723c0.0957718-0.0224533,0.1855698-0.0549316,0.2694016-0.0974464
				c0.0835953-0.042511,0.1643219-0.0943375,0.2421799-0.1557198c0.077858-0.0613785,0.1538086-0.1311188,0.2280807-0.2089767
				v-0.7616386c-0.3016434,0.009552-0.5588684,0.0331955-0.771904,0.0709305
				c-0.2130432,0.0377388-0.3859558,0.0866966-0.5187454,0.1468849c-0.1330338,0.0601845-0.2292786,0.1315956-0.2892303,0.2142334
				C115.7367249,50.0551949,115.706871,50.1471443,115.706871,50.2486496z"/>
		</g>
		<g>
			<path fill="#640657" d="M21.583046,16.9639721L37.6746864,4.0058808l16.0916367,12.9580917h4.6955681L38.3626099,0.7786471
				c-0.4189034-0.3374713-0.9569473-0.3374713-1.3758507,0L16.8874779,16.9639721H21.583046z"/>
			<polygon fill="#640657" points="28.3192291,10.0040579 24.9564571,12.1236229 24.9564571,4.2160144 28.3192291,4.2160144 			"/>
		</g>
	</g>
</g>
<g id="Линейка" display="none">
</g>
<g id="Направляющие" display="none">
</g>
</svg>
