<svg xmlns="http://www.w3.org/2000/svg" viewBox="0 0 1365.96 322.32"><defs><style>.cls-1{fill:#fff;}</style></defs><title>logo-magus</title><g id="Слой_2" data-name="Слой 2"><g id="Слой_1-2" data-name="Слой 1"><g id="Layer_3" data-name="Layer 3"><path class="cls-1" d="M216.64,322.32a9.16,9.16,0,0,1-7.65-4.1,9.27,9.27,0,0,1-.88-1.68,116,116,0,0,0-32.73-43.84C124,229.71,66.18,233.27,65.6,233.31a9.16,9.16,0,0,1-9.81-9.14V79.39a9.16,9.16,0,0,1,7.68-9c.85-.14,21.2-3.33,46.92,5.2,20.79,6.89,48.88,22.91,70.92,60,21.6-35.7,49.53-51.7,70.3-58.86,25.72-8.87,46.21-6.49,47.07-6.39a9.16,9.16,0,0,1,8,9.1V224.17a9.16,9.16,0,0,1-10.68,9c-.17,0-23-3.34-57.11,11.36a9.16,9.16,0,0,1-7.27-16.83c25.18-10.87,45.23-13.08,56.72-13.21V88.3a105.2,105.2,0,0,0-31.61,6c-29.08,10.29-51.71,32-67.26,64.62a9.17,9.17,0,0,1-16.55,0c-16-33.72-38.69-55.81-67.51-65.65A96.94,96.94,0,0,0,74.12,88V215a188.75,188.75,0,0,1,113,43.68,134.67,134.67,0,0,1,33.34,41.21c31.42-18.38,64.32-24.74,87.26-26.77a235.21,235.21,0,0,1,36.58-.43V19.38A218.53,218.53,0,0,0,289.4,21C244.55,28.18,210.78,48.81,189,82.29a9.16,9.16,0,0,1-15.37,0C151.79,48.66,117.83,28,72.72,20.9a217.91,217.91,0,0,0-54.39-1.53V272.66a235.25,235.25,0,0,1,36.53.42c25.12,2.21,62.2,9.62,96.19,32.32a9.16,9.16,0,1,1-10.18,15.24c-30.6-20.44-64.25-27.19-87.09-29.26-25.06-2.27-43,.44-43.21.46A9.17,9.17,0,0,1,0,282.8V11.31a9.16,9.16,0,0,1,7.56-9c1.25-.22,30.91-5.34,68,.5,44.83,7.07,81.12,27.29,105.76,58.75C206,30.08,242.26,9.86,287.09,2.79c37.1-5.85,66.77-.73,68-.5a9.16,9.16,0,0,1,7.56,9V282.8a9.16,9.16,0,0,1-10.59,9.05c-.17,0-18.16-2.74-43.24-.46-22.63,2.05-55.85,8.71-86.2,28.7a9.19,9.19,0,0,1-6,2.23Z"/><path class="cls-1" d="M609.5,82.36H592.86a6,6,0,0,0-5,2.67l-48,72-48-72a6,6,0,0,0-5-2.67H470.14a6,6,0,0,0-6,6V234a6,6,0,0,0,6,6h16a6,6,0,0,0,6-6V135.68l42.08,61.72a6,6,0,0,0,5,2.62H540a6,6,0,0,0,5-2.63l42.08-61.88V234a6,6,0,0,0,6,6H609.5a6,6,0,0,0,6-6V88.36A6,6,0,0,0,609.5,82.36Z"/><path class="cls-1" d="M764.52,84.85a6,6,0,0,0-5.47-3.53H743.66a6,6,0,0,0-5.47,3.53L671.84,231.49a6,6,0,0,0,5.47,8.47h16.85a6,6,0,0,0,5.47-3.54l15.67-34.94h71.46l15.47,34.91a6,6,0,0,0,5.49,3.57h17.68a6,6,0,0,0,5.47-8.47ZM775,174.71H727.13l24-53.55Z"/><path class="cls-1" d="M986.19,82.36h-93a6,6,0,0,0-6,6V234a6,6,0,0,0,6,6h16.43a6,6,0,0,0,6-6V109.33h70.54a6,6,0,0,0,6-6v-15A6,6,0,0,0,986.19,82.36Z"/><path class="cls-1" d="M1178.38,82.36h-17.89a6,6,0,0,0-5.39,3.37l-41.38,84.8-48.05-85.12a6,6,0,0,0-5.22-3h-18.72a6,6,0,0,0-5.2,9L1098.9,199.9c-6.23,10.61-13.52,15.78-22.23,15.78A32.69,32.69,0,0,1,1061,212a6,6,0,0,0-8.23,2.63l-6.45,13.1a6,6,0,0,0,2.63,8,58.85,58.85,0,0,0,27.3,6.7c21.1,0,37.88-12.25,49.88-36.38l57.62-115a6,6,0,0,0-5.36-8.69Z"/><path class="cls-1" d="M1364.32,207.58l-10.82-11.44a6,6,0,0,0-8.48-.24c-7,6.62-13.91,11.58-20.53,14.76a51.3,51.3,0,0,1-22.36,4.61c-14.34,0-26-5.06-35.76-15.46s-14.61-23.16-14.61-38.65,4.75-28.3,14.51-38.75S1287.65,107,1302.14,107c15,0,28.66,6,41.63,18.32a6,6,0,0,0,8.53-.27l10.82-11.65a6,6,0,0,0-.27-8.44,100.27,100.27,0,0,0-26.79-18.68c-9.35-4.3-20.69-6.48-33.71-6.48-22.68,0-41.84,8-57,23.79s-22.67,35.06-22.67,57.5c0,22.72,7.56,42.13,22.46,57.71s34,23.59,56.54,23.59c13.43,0,25.2-2.29,35-6.79a96.46,96.46,0,0,0,27.52-19.72A6,6,0,0,0,1364.32,207.58Z"/></g></g></g></svg>