<?xml version="1.0" encoding="utf-8"?>
<!-- Generator: Adobe Illustrator 17.1.0, SVG Export Plug-In . SVG Version: 6.00 Build 0)  -->
<!DOCTYPE svg PUBLIC "-//W3C//DTD SVG 1.1//EN" "http://www.w3.org/Graphics/SVG/1.1/DTD/svg11.dtd" [
	<!ENTITY ns_flows "http://ns.adobe.com/Flows/1.0/">
	<!ENTITY ns_extend "http://ns.adobe.com/Extensibility/1.0/">
	<!ENTITY ns_ai "http://ns.adobe.com/AdobeIllustrator/10.0/">
	<!ENTITY ns_graphs "http://ns.adobe.com/Graphs/1.0/">
	<!ENTITY ns_vars "http://ns.adobe.com/Variables/1.0/">
	<!ENTITY ns_imrep "http://ns.adobe.com/ImageReplacement/1.0/">
	<!ENTITY ns_sfw "http://ns.adobe.com/SaveForWeb/1.0/">
	<!ENTITY ns_custom "http://ns.adobe.com/GenericCustomNamespace/1.0/">
	<!ENTITY ns_adobe_xpath "http://ns.adobe.com/XPath/1.0/">
]>
<svg version="1.1" xmlns:x="&ns_extend;" xmlns:i="&ns_ai;" xmlns:graph="&ns_graphs;"
	 xmlns="http://www.w3.org/2000/svg" xmlns:xlink="http://www.w3.org/1999/xlink" xmlns:a="http://ns.adobe.com/AdobeSVGViewerExtensions/3.0/"
	 x="0px" y="0px" viewBox="0 0 60 60" enable-background="new 0 0 60 60" xml:space="preserve">
<metadata>
	<sfw  xmlns="&ns_sfw;">
		<slices></slices>
		<sliceSourceBounds  width="16383" height="16613.0410156" y="-8732" x="-7606" bottomLeftOrigin="true"></sliceSourceBounds>
		<optimizationSettings>
			<targetSettings  fileFormat="PNG24Format" targetSettingsID="0">
				<PNG24Format  transparency="true" noMatteColor="false" matteColor="#FFFFFF" filtered="false" interlaced="false">
					</PNG24Format>
			</targetSettings>
		</optimizationSettings>
	</sfw>
</metadata>
<g id="фон">
</g>
<g id="контент">
	<path fill="#FFF" d="M50.6547737,37.2924805L30.5746956,23.2128906c-0.3457031-0.2412109-0.8027344-0.2412109-1.1484375,0
		L9.3452034,37.2924805c-0.3574219,0.2504883-0.5107422,0.7036133-0.3798828,1.1196289
		c0.1318359,0.4165039,0.5175781,0.6992188,0.9541016,0.6992188h4.0810547v1.2104492c0,0.5522461,0.4472656,1,1,1s1-0.4477539,1-1
		v-1.2104492h28v1.2104492c0,0.5522461,0.4472656,1,1,1s1-0.4477539,1-1v-1.2104492h4.0800781
		c0.4365234,0,0.8222656-0.2827148,0.9541016-0.6992188C51.1655159,37.9960938,51.0121956,37.5429688,50.6547737,37.2924805z
		 M13.0873909,37.1113281l16.9130859-11.8583984l16.9121094,11.8583984H13.0873909z"/>
</g>
<g id="Линейка" display="none">
</g>
<g id="Направляющие" display="none">
</g>
</svg>
