<?xml version="1.0" encoding="utf-8"?>
<!-- Generator: Adobe Illustrator 17.1.0, SVG Export Plug-In . SVG Version: 6.00 Build 0)  -->
<!DOCTYPE svg PUBLIC "-//W3C//DTD SVG 1.1//EN" "http://www.w3.org/Graphics/SVG/1.1/DTD/svg11.dtd" [
	<!ENTITY ns_flows "http://ns.adobe.com/Flows/1.0/">
	<!ENTITY ns_extend "http://ns.adobe.com/Extensibility/1.0/">
	<!ENTITY ns_ai "http://ns.adobe.com/AdobeIllustrator/10.0/">
	<!ENTITY ns_graphs "http://ns.adobe.com/Graphs/1.0/">
	<!ENTITY ns_vars "http://ns.adobe.com/Variables/1.0/">
	<!ENTITY ns_imrep "http://ns.adobe.com/ImageReplacement/1.0/">
	<!ENTITY ns_sfw "http://ns.adobe.com/SaveForWeb/1.0/">
	<!ENTITY ns_custom "http://ns.adobe.com/GenericCustomNamespace/1.0/">
	<!ENTITY ns_adobe_xpath "http://ns.adobe.com/XPath/1.0/">
]>
<svg version="1.1" xmlns:x="&ns_extend;" xmlns:i="&ns_ai;" xmlns:graph="&ns_graphs;"
	 xmlns="http://www.w3.org/2000/svg" xmlns:xlink="http://www.w3.org/1999/xlink" xmlns:a="http://ns.adobe.com/AdobeSVGViewerExtensions/3.0/"
	 x="0px" y="0px" viewBox="0 0 60 60" enable-background="new 0 0 60 60" xml:space="preserve">
<metadata>
	<sfw  xmlns="&ns_sfw;">
		<slices></slices>
		<sliceSourceBounds  width="16383" height="16613.0410156" y="-8732" x="-7606" bottomLeftOrigin="true"></sliceSourceBounds>
		<optimizationSettings>
			<targetSettings  fileFormat="PNG24Format" targetSettingsID="0">
				<PNG24Format  transparency="true" noMatteColor="false" matteColor="#FFFFFF" filtered="false" interlaced="false">
					</PNG24Format>
			</targetSettings>
		</optimizationSettings>
	</sfw>
</metadata>
<g id="фон">
</g>
<g id="контент">
	<path fill="#FFCC88" d="M54.0626297,12.03125h-48.125c-0.5527344,0-1,0.4477539-1,1v25.0800781c0,0.5522461,0.4472656,1,1,1
		h7.4208984c0.0280762,0,0.0517578-0.0137329,0.0793457-0.0159912c0.0690918-0.0053711,0.1330566-0.0209351,0.1994629-0.0402832
		c0.0593262-0.0176392,0.1159668-0.03479,0.1704102-0.062561c0.0588379-0.0296021,0.1098633-0.0681763,0.1625977-0.1096802
		c0.0500488-0.039856,0.0966797-0.0792847,0.1381836-0.1278687c0.0192871-0.0222778,0.0458984-0.0343018,0.0634766-0.0586548
		l2.1894531-3.0372314v2.4405518c0,0.5522461,0.4472656,1,1,1s1-0.4477539,1-1v-4.8491211
		c0-0.1013794-0.029541-0.1936646-0.0576172-0.2858887l6.9287109-9.6115723l6.9296875,9.6127319
		c-0.027832,0.0919189-0.0576172,0.1837158-0.0576172,0.284729v4.8491211c0,0.5522461,0.4472656,1,1,1s1-0.4477539,1-1v-2.439209
		l2.1884766,3.0358887c0.0170898,0.0234375,0.0444336,0.0319824,0.0629883,0.0535278
		c0.0610352,0.0721436,0.1330566,0.1280518,0.2121582,0.180481c0.0424805,0.027771,0.078125,0.0626831,0.1237793,0.0834961
		c0.1196289,0.055603,0.2504883,0.0880737,0.3903809,0.092041c0.0080566,0.0001831,0.0151367,0.0054932,0.0231934,0.0054932
		c0.0007324,0,0.0014648-0.0003662,0.0021973-0.0003662s0.0012207,0.0003662,0.001709,0.0003662h16.953125
		c0.5527344,0,1-0.4477539,1-1V13.03125C55.0626297,12.4790039,54.6153641,12.03125,54.0626297,12.03125z M53.0626297,37.1113281
		H37.6168289L26.044075,21.0581055c-0.3769531-0.5214844-1.2460938-0.5214844-1.6230469,0L12.8482742,37.1113281H6.9376297V14.03125
		h46.125V37.1113281z"/>
</g>
<g id="Линейка" display="none">
</g>
<g id="Направляющие" display="none">
</g>
</svg>
