<?xml version="1.0" encoding="utf-8"?>
<!-- Generator: Adobe Illustrator 17.1.0, SVG Export Plug-In . SVG Version: 6.00 Build 0)  -->
<!DOCTYPE svg PUBLIC "-//W3C//DTD SVG 1.1//EN" "http://www.w3.org/Graphics/SVG/1.1/DTD/svg11.dtd" [
	<!ENTITY ns_flows "http://ns.adobe.com/Flows/1.0/">
	<!ENTITY ns_extend "http://ns.adobe.com/Extensibility/1.0/">
	<!ENTITY ns_ai "http://ns.adobe.com/AdobeIllustrator/10.0/">
	<!ENTITY ns_graphs "http://ns.adobe.com/Graphs/1.0/">
	<!ENTITY ns_vars "http://ns.adobe.com/Variables/1.0/">
	<!ENTITY ns_imrep "http://ns.adobe.com/ImageReplacement/1.0/">
	<!ENTITY ns_sfw "http://ns.adobe.com/SaveForWeb/1.0/">
	<!ENTITY ns_custom "http://ns.adobe.com/GenericCustomNamespace/1.0/">
	<!ENTITY ns_adobe_xpath "http://ns.adobe.com/XPath/1.0/">
]>
<svg version="1.1" xmlns:x="&ns_extend;" xmlns:i="&ns_ai;" xmlns:graph="&ns_graphs;"
	 xmlns="http://www.w3.org/2000/svg" xmlns:xlink="http://www.w3.org/1999/xlink" xmlns:a="http://ns.adobe.com/AdobeSVGViewerExtensions/3.0/"
	 x="0px" y="0px" viewBox="0 0 60 60" enable-background="new 0 0 60 60" xml:space="preserve">
<metadata>
	<sfw  xmlns="&ns_sfw;">
		<slices></slices>
		<sliceSourceBounds  width="16383" height="16613.0410156" y="-8732" x="-7606" bottomLeftOrigin="true"></sliceSourceBounds>
		<optimizationSettings>
			<targetSettings  fileFormat="PNG24Format" targetSettingsID="0">
				<PNG24Format  transparency="true" noMatteColor="false" matteColor="#FFFFFF" filtered="false" interlaced="false">
					</PNG24Format>
			</targetSettings>
		</optimizationSettings>
	</sfw>
</metadata>
<g id="фон">
</g>
<g id="контент">
	<path fill="#FFF" d="M50.923893,35.5742188l-9.7021484-15.2333984c-0.1835938-0.2880859-0.5019531-0.4628906-0.84375-0.4628906
		L19.6240883,19.875c-0.3417969,0-0.6601563,0.1743164-0.84375,0.4628906L9.0762367,35.5742188
		c-0.1962891,0.3076172-0.2089844,0.6982422-0.0332031,1.0180664c0.1757813,0.3203125,0.5117188,0.519043,0.8769531,0.519043
		h4.0800781v3.2104492c0,0.5522461,0.4472656,1,1,1s1-0.4477539,1-1v-3.2104492h28v3.2104492c0,0.5522461,0.4472656,1,1,1
		s1-0.4477539,1-1v-3.2104492h4.0800781c0.3652344,0,0.7011719-0.1987305,0.8769531-0.519043
		C51.1328773,36.2724609,51.120182,35.8818359,50.923893,35.5742188z M11.7422523,35.1113281L20.1729164,21.875l19.65625,0.0029297
		l8.4287109,13.2333984H11.7422523z"/>
</g>
<g id="Линейка" display="none">
</g>
<g id="Направляющие" display="none">
</g>
</svg>
