<?xml version="1.0" encoding="utf-8"?>
<!-- Generator: Adobe Illustrator 17.1.0, SVG Export Plug-In . SVG Version: 6.00 Build 0)  -->
<!DOCTYPE svg PUBLIC "-//W3C//DTD SVG 1.1//EN" "http://www.w3.org/Graphics/SVG/1.1/DTD/svg11.dtd" [
	<!ENTITY ns_flows "http://ns.adobe.com/Flows/1.0/">
	<!ENTITY ns_extend "http://ns.adobe.com/Extensibility/1.0/">
	<!ENTITY ns_ai "http://ns.adobe.com/AdobeIllustrator/10.0/">
	<!ENTITY ns_graphs "http://ns.adobe.com/Graphs/1.0/">
	<!ENTITY ns_vars "http://ns.adobe.com/Variables/1.0/">
	<!ENTITY ns_imrep "http://ns.adobe.com/ImageReplacement/1.0/">
	<!ENTITY ns_sfw "http://ns.adobe.com/SaveForWeb/1.0/">
	<!ENTITY ns_custom "http://ns.adobe.com/GenericCustomNamespace/1.0/">
	<!ENTITY ns_adobe_xpath "http://ns.adobe.com/XPath/1.0/">
]>
<svg version="1.1" xmlns:x="&ns_extend;" xmlns:i="&ns_ai;" xmlns:graph="&ns_graphs;"
	 xmlns="http://www.w3.org/2000/svg" xmlns:xlink="http://www.w3.org/1999/xlink" xmlns:a="http://ns.adobe.com/AdobeSVGViewerExtensions/3.0/"
	 x="0px" y="0px" viewBox="0 0 60 60" enable-background="new 0 0 60 60" xml:space="preserve">
<metadata>
	<sfw  xmlns="&ns_sfw;">
		<slices></slices>
		<sliceSourceBounds  width="16383" height="16613.0410156" y="-8732" x="-7606" bottomLeftOrigin="true"></sliceSourceBounds>
		<optimizationSettings>
			<targetSettings  fileFormat="PNG24Format" targetSettingsID="0">
				<PNG24Format  transparency="true" noMatteColor="false" matteColor="#FFFFFF" filtered="false" interlaced="false">
					</PNG24Format>
			</targetSettings>
		</optimizationSettings>
	</sfw>
</metadata>
<g id="фон">
</g>
<g id="контент">
	<g>
		<path fill="#FFCC88" d="M50.6609154,39.5708008l-7.3017578-6.4208984L30.8552513,12.5131836
			c-0.3632813-0.5986328-1.3476563-0.5986328-1.7109375,0L16.6413841,33.1499023l-7.3017578,6.4208984
			c-0.3125,0.2749023-0.4228516,0.7143555-0.2753906,1.1040039c0.1464844,0.3891602,0.5195313,0.6469727,0.9355469,0.6469727
			h40.0009766c0.4160156,0,0.7890625-0.2578125,0.9355469-0.6469727
			C51.0837669,40.2851563,50.9734154,39.8457031,50.6609154,39.5708008z M29.9997826,14.9609375L40.8259544,32.828125H19.1745872
			L29.9997826,14.9609375z M12.6511497,39.3217773l5.1098633-4.4936523h24.4785156l5.1098633,4.4936523H12.6511497z"/>
		<path fill="#FFCC88" d="M25.4734154,27.3891602c0.1787109,0.3071289,0.5078125,0.4956055,0.8632813,0.4956055h7.3271484
			c0.3554688,0,0.6845703-0.1884766,0.8632813-0.4956055c0.1796875-0.3071289,0.1826172-0.6860352,0.0078125-0.9956055
			l-3.6640625-6.496582c-0.3544922-0.6293945-1.3857422-0.6274414-1.7421875,0l-3.6630859,6.496582
			C25.2907982,26.703125,25.2937279,27.0820313,25.4734154,27.3891602z M29.9997826,22.4238281l1.9521484,3.4609375h-3.9033203
			L29.9997826,22.4238281z"/>
	</g>
</g>
<g id="Линейка" display="none">
</g>
<g id="Направляющие" display="none">
</g>
</svg>
