<?xml version="1.0" encoding="utf-8"?>
<!-- Generator: Adobe Illustrator 17.1.0, SVG Export Plug-In . SVG Version: 6.00 Build 0)  -->
<!DOCTYPE svg PUBLIC "-//W3C//DTD SVG 1.1//EN" "http://www.w3.org/Graphics/SVG/1.1/DTD/svg11.dtd" [
	<!ENTITY ns_flows "http://ns.adobe.com/Flows/1.0/">
	<!ENTITY ns_extend "http://ns.adobe.com/Extensibility/1.0/">
	<!ENTITY ns_ai "http://ns.adobe.com/AdobeIllustrator/10.0/">
	<!ENTITY ns_graphs "http://ns.adobe.com/Graphs/1.0/">
	<!ENTITY ns_vars "http://ns.adobe.com/Variables/1.0/">
	<!ENTITY ns_imrep "http://ns.adobe.com/ImageReplacement/1.0/">
	<!ENTITY ns_sfw "http://ns.adobe.com/SaveForWeb/1.0/">
	<!ENTITY ns_custom "http://ns.adobe.com/GenericCustomNamespace/1.0/">
	<!ENTITY ns_adobe_xpath "http://ns.adobe.com/XPath/1.0/">
]>
<svg version="1.1" xmlns:x="&ns_extend;" xmlns:i="&ns_ai;" xmlns:graph="&ns_graphs;"
	 xmlns="http://www.w3.org/2000/svg" xmlns:xlink="http://www.w3.org/1999/xlink" xmlns:a="http://ns.adobe.com/AdobeSVGViewerExtensions/3.0/"
	 x="0px" y="0px" viewBox="0 0 60 60" enable-background="new 0 0 60 60" xml:space="preserve">
<metadata>
	<sfw  xmlns="&ns_sfw;">
		<slices></slices>
		<sliceSourceBounds  width="16383" height="16613.0410156" y="-8732" x="-7606" bottomLeftOrigin="true"></sliceSourceBounds>
		<optimizationSettings>
			<targetSettings  fileFormat="PNG24Format" targetSettingsID="0">
				<PNG24Format  transparency="true" noMatteColor="false" matteColor="#FFFFFF" filtered="false" interlaced="false">
					</PNG24Format>
			</targetSettings>
		</optimizationSettings>
	</sfw>
</metadata>
<g id="фон">
</g>
<g id="контент">
	<path fill="#FFF" d="M48.8919487,37.5263672L30.8118706,12.4462891c-0.3769531-0.5214844-1.2460938-0.5214844-1.6230469,0
		L11.107769,37.5263672c-0.3222656,0.4482422-0.2216797,1.0732422,0.2265625,1.3959961
		c0.4482422,0.3222656,1.0732422,0.2211914,1.3964844-0.2260742l1.2695313-1.7609863v3.3864746c0,0.5522461,0.4472656,1,1,1
		s1-0.4477539,1-1v-6.1607666l14-19.4197998l14,19.4208984v6.159668c0,0.5522461,0.4472656,1,1,1s1-0.4477539,1-1v-3.3852539
		l1.2685547,1.7597656c0.1953125,0.2709961,0.5019531,0.4150391,0.8125,0.4150391
		c0.2021484,0,0.4072266-0.0615234,0.5839844-0.1889648C49.1136284,38.5996094,49.2142143,37.9746094,48.8919487,37.5263672z"/>
</g>
<g id="Линейка" display="none">
</g>
<g id="Направляющие" display="none">
</g>
</svg>
