<?xml version="1.0" encoding="utf-8"?>
<!-- Generator: Adobe Illustrator 17.1.0, SVG Export Plug-In . SVG Version: 6.00 Build 0)  -->
<!DOCTYPE svg PUBLIC "-//W3C//DTD SVG 1.1//EN" "http://www.w3.org/Graphics/SVG/1.1/DTD/svg11.dtd" [
	<!ENTITY ns_flows "http://ns.adobe.com/Flows/1.0/">
	<!ENTITY ns_extend "http://ns.adobe.com/Extensibility/1.0/">
	<!ENTITY ns_ai "http://ns.adobe.com/AdobeIllustrator/10.0/">
	<!ENTITY ns_graphs "http://ns.adobe.com/Graphs/1.0/">
	<!ENTITY ns_vars "http://ns.adobe.com/Variables/1.0/">
	<!ENTITY ns_imrep "http://ns.adobe.com/ImageReplacement/1.0/">
	<!ENTITY ns_sfw "http://ns.adobe.com/SaveForWeb/1.0/">
	<!ENTITY ns_custom "http://ns.adobe.com/GenericCustomNamespace/1.0/">
	<!ENTITY ns_adobe_xpath "http://ns.adobe.com/XPath/1.0/">
]>
<svg version="1.1" xmlns:x="&ns_extend;" xmlns:i="&ns_ai;" xmlns:graph="&ns_graphs;"
	 xmlns="http://www.w3.org/2000/svg" xmlns:xlink="http://www.w3.org/1999/xlink" xmlns:a="http://ns.adobe.com/AdobeSVGViewerExtensions/3.0/"
	 x="0px" y="0px" viewBox="0 0 60 60" enable-background="new 0 0 60 60" xml:space="preserve">
<metadata>
	<sfw  xmlns="&ns_sfw;">
		<slices></slices>
		<sliceSourceBounds  width="16383" height="16613.0410156" y="-8732" x="-7606" bottomLeftOrigin="true"></sliceSourceBounds>
		<optimizationSettings>
			<targetSettings  fileFormat="PNG24Format" targetSettingsID="0">
				<PNG24Format  transparency="true" noMatteColor="false" matteColor="#FFFFFF" filtered="false" interlaced="false">
					</PNG24Format>
			</targetSettings>
		</optimizationSettings>
	</sfw>
</metadata>
<g id="фон">
</g>
<g id="контент">
	<path fill="#FFCC88" d="M48.9938583,37.703125l-7.703125-17.2333984c-0.0693359-0.1538086-0.1757813-0.2875977-0.3095703-0.3896484
		l-10.3779297-7.8466797c-0.3574219-0.2695313-0.8496094-0.2695313-1.2070313,0l-10.3759766,7.84375
		c-0.1337891,0.1020508-0.2402344,0.2358398-0.3095703,0.3896484L11.0065536,37.703125
		c-0.2255859,0.5043945,0.0009766,1.0957031,0.5048828,1.3212891c0.5068359,0.2241211,1.0957031-0.0014648,1.3212891-0.5048828
		l1.1669922-2.611145v4.4133911c0,0.5522461,0.4472656,1,1,1s1-0.4477539,1-1v-8.3837891
		c0-0.1233521-0.0292969-0.2386475-0.0700684-0.3477173l4.501709-10.0726929l9.5683594-7.2329102l9.5703125,7.2358398
		l4.4863281,10.0374146c-0.0270996,0.0905762-0.0566406,0.1806641-0.0566406,0.2799683v8.4838867c0,0.5522461,0.4472656,1,1,1
		s1-0.4477539,1-1V35.906311l1.1679688,2.6132202c0.1660156,0.371582,0.53125,0.5922852,0.9140625,0.5922852
		c0.1357422,0,0.2744141-0.0283203,0.4072266-0.0874023C48.9928818,38.7988281,49.2194443,38.2075195,48.9938583,37.703125z"/>
</g>
<g id="Линейка" display="none">
</g>
<g id="Направляющие" display="none">
</g>
</svg>
