<svg xmlns="http://www.w3.org/2000/svg" viewBox="0 0 1480.12 134.92"><defs><style>.cls-1,.cls-4{fill:none;stroke-miterlimit:10}.cls-1{stroke:#e48601}.cls-2{fill:#fff}.cls-3{fill:#e48601}.cls-4{stroke-width:8px;stroke:url(#Безымянный_градиент_2)}.cls-5{fill:url(#Безымянный_градиент_2)}.cls-6{fill:#d47214}.cls-7{fill:#c35d28}.cls-8{fill:#87146d}</style><linearGradient id="Безымянный_градиент_2" x1="29.73" y1="78.25" x2="1480.12" y2="78.25" gradientTransform="matrix(1 0 0 -1 0 134.43)" gradientUnits="userSpaceOnUse"><stop offset="0" stop-color="#e58700"/><stop offset="1" stop-color="#810c74"/></linearGradient></defs><title>Ресурс 1</title><g id="Слой_2" data-name="Слой 2"><g id="Слой_1-2" data-name="Слой 1"><g id="контент"><path class="cls-1" d="M140.74 56.19h105.57v33.2H140.74zM250.01 56.19h238.36v33.2H250.01zM492.36 56.19h855.28v33.2H492.36z"/><path class="cls-2" d="M128.73 45.88h1240.24v28.45H128.73z"/><path class="cls-3" d="M102 23.42l4.78-17.88-4.19 1-.07-4.32 7.26-2h3.46L107 23.42zM118.5 26.28l1.5-5.88h1.25a22.83 22.83 0 0 0 3.75-8.56l.31-1.27h10.39l-2.64 9.84h1.82L133 26.28h-3.07l.79-2.85h-8l-1 2.85zm6.6-5.88h4.37l1.85-6.84H128l-.26 1a18.08 18.08 0 0 1-1.17 3.23 13.41 13.41 0 0 1-1.48 2.61zM142.94 23.71a6 6 0 0 1-4.37-1.52A5.54 5.54 0 0 1 137 18a7.66 7.66 0 0 1 .92-3.63 7.74 7.74 0 0 1 2.71-2.89 7.22 7.22 0 0 1 4-1.15 5.2 5.2 0 0 1 3.85 1.4 4.89 4.89 0 0 1 1.4 3.61 7.66 7.66 0 0 1-.65 2.93h-8.8q.19 2.52 2.93 2.52a5 5 0 0 0 2.86-1l1.66 2.21a7.45 7.45 0 0 1-4.94 1.71zm-2.2-7.71h5.59a3 3 0 0 0 .12-.84 1.85 1.85 0 0 0-.53-1.37 2.15 2.15 0 0 0-1.58-.53 3.47 3.47 0 0 0-2.18.74 4.33 4.33 0 0 0-1.42 2zM150.5 23.42l3.43-12.86h3.65l-1.3 4.85h4.56l1.32-4.85h3.62l-3.43 12.86h-3.62l1.32-5h-4.58l-1.32 5zM165.64 23.42l3.43-12.86h3.65L171.54 15h2.16a5.18 5.18 0 0 1 3.3 1 3.14 3.14 0 0 1 1.22 2.57 4.28 4.28 0 0 1-1.69 3.6 7.08 7.08 0 0 1-4.43 1.3zm4.36-2.76h1.92a3.62 3.62 0 0 0 2-.49 1.6 1.6 0 0 0 .76-1.43 1.09 1.09 0 0 0-.48-.92 2.12 2.12 0 0 0-1.27-.35h-2.06zM163.17 131.87v-14.95l-3.17 1-.46-1.54 4.1-1.42H165v16.91zM180.71 132.16a6.36 6.36 0 0 1-2.89-.6 7 7 0 0 1-2.2-1.8l1.22-1.15a5.1 5.1 0 0 0 3.74 1.94 4.37 4.37 0 0 0 3.07-1.2 4.58 4.58 0 0 0 1.49-3h-5.66v-1.56h5.64a4.5 4.5 0 0 0-1.45-2.85 4.23 4.23 0 0 0-3-1.18 5.17 5.17 0 0 0-3.84 1.85l-1.08-1.2a6.48 6.48 0 0 1 5-2.26 5.86 5.86 0 0 1 4.47 1.92 6.52 6.52 0 0 1 1.79 4.61 6.27 6.27 0 0 1-1.85 4.53 6.06 6.06 0 0 1-4.45 1.95zM192.94 131.87V121.1h-4.44v-1.63h10.75v1.63h-4.44v10.77zM205.16 132.13a5.27 5.27 0 0 1-3.26-1 3.4 3.4 0 0 1-1.37-2.88 3.5 3.5 0 0 1 1.44-3 6.39 6.39 0 0 1 3.86-1.06 13.91 13.91 0 0 1 3.79.53v-.38a3.18 3.18 0 0 0-1-2.5 3.91 3.91 0 0 0-2.71-.86 9 9 0 0 0-3.77.89l-.55-1.51a10.78 10.78 0 0 1 4.51-1.06 5.43 5.43 0 0 1 4 1.37 4.93 4.93 0 0 1 1.29 3.65v7.58h-1.82V130a5.37 5.37 0 0 1-4.41 2.13zm.36-1.49a4.62 4.62 0 0 0 2.93-.94 2.91 2.91 0 0 0 1.2-2.4v-1.15a13 13 0 0 0-3.62-.53 4.53 4.53 0 0 0-2.66.68 2.17 2.17 0 0 0-1 1.86 2.13 2.13 0 0 0 .9 1.8 3.6 3.6 0 0 0 2.25.69zM215.35 131.87v-12.4h10.75v12.4h-1.85V121.1h-7.05v10.77zM332.8 131.87v-1.46l6.1-5.41a16.3 16.3 0 0 0 2.73-2.88 4.27 4.27 0 0 0 .77-2.4 3 3 0 0 0-1-2.33 3.45 3.45 0 0 0-2.4-.89 4.25 4.25 0 0 0-2.41.7 8.49 8.49 0 0 0-2.1 2.18l-1.39-1a9.26 9.26 0 0 1 2.59-2.7 6.3 6.3 0 0 1 3.46-.88 5.3 5.3 0 0 1 3.73 1.36 4.47 4.47 0 0 1 1.48 3.44 5.24 5.24 0 0 1-.94 3.07 22 22 0 0 1-3.31 3.46l-4.49 4h8.9v1.73zM359.26 132.16a6.36 6.36 0 0 1-2.89-.6 7 7 0 0 1-2.2-1.8l1.22-1.15a5.1 5.1 0 0 0 3.74 1.94 4.37 4.37 0 0 0 3.07-1.2 4.58 4.58 0 0 0 1.49-3H358v-1.56h5.64a4.5 4.5 0 0 0-1.45-2.85 4.23 4.23 0 0 0-3-1.18 5.17 5.17 0 0 0-3.84 1.85l-1.08-1.2a6.48 6.48 0 0 1 5-2.26 5.86 5.86 0 0 1 4.47 1.92 6.52 6.52 0 0 1 1.79 4.61 6.27 6.27 0 0 1-1.85 4.53 6.06 6.06 0 0 1-4.42 1.95zM371.5 131.87V121.1h-4.44v-1.63h10.75v1.63h-4.44v10.77zM383.71 132.13a5.27 5.27 0 0 1-3.26-1 3.4 3.4 0 0 1-1.37-2.88 3.5 3.5 0 0 1 1.44-3 6.39 6.39 0 0 1 3.86-1.06 13.91 13.91 0 0 1 3.79.53v-.38a3.18 3.18 0 0 0-1-2.5 3.91 3.91 0 0 0-2.71-.86 9 9 0 0 0-3.77.89l-.55-1.51a10.78 10.78 0 0 1 4.51-1.06 5.43 5.43 0 0 1 4 1.37 4.93 4.93 0 0 1 1.29 3.65v7.58h-1.82V130a5.37 5.37 0 0 1-4.41 2.13zm.36-1.49a4.62 4.62 0 0 0 2.93-.94 2.91 2.91 0 0 0 1.2-2.4v-1.15a13 13 0 0 0-3.62-.53 4.53 4.53 0 0 0-2.66.68 2.17 2.17 0 0 0-1 1.86 2.13 2.13 0 0 0 .9 1.8 3.6 3.6 0 0 0 2.25.69zM393.91 131.87v-12.4h10.75v12.4h-1.85V121.1h-7.05v10.77zM889.75 132.16a7.47 7.47 0 0 1-6.26-3l1.37-1.22a6.16 6.16 0 0 0 4.92 2.5 3.86 3.86 0 0 0 2.62-.91 3 3 0 0 0 1.06-2.4 2.7 2.7 0 0 0-1.29-2.39 6.12 6.12 0 0 0-3.41-.85h-1.08l-.38-1.13 5.3-6h-8.21v-1.7h10.71v1.39l-5.28 5.85a7.42 7.42 0 0 1 4 1.38 4 4 0 0 1 1.57 3.4 4.63 4.63 0 0 1-1.62 3.63 5.82 5.82 0 0 1-4.02 1.45zM910.24 132.16a6.36 6.36 0 0 1-2.89-.6 7 7 0 0 1-2.2-1.8l1.22-1.15a5.1 5.1 0 0 0 3.74 1.94 4.37 4.37 0 0 0 3.07-1.2 4.58 4.58 0 0 0 1.49-3H909v-1.56h5.64a4.5 4.5 0 0 0-1.45-2.85 4.23 4.23 0 0 0-3-1.18 5.17 5.17 0 0 0-3.84 1.85l-1.08-1.2a6.48 6.48 0 0 1 5-2.26 5.86 5.86 0 0 1 4.47 1.92 6.52 6.52 0 0 1 1.79 4.61 6.27 6.27 0 0 1-1.85 4.53 6.06 6.06 0 0 1-4.44 1.95zM922.48 131.87V121.1H918v-1.63h10.75v1.63h-4.44v10.77zM934.69 132.13a5.27 5.27 0 0 1-3.26-1 3.4 3.4 0 0 1-1.37-2.88 3.5 3.5 0 0 1 1.44-3 6.39 6.39 0 0 1 3.86-1.06 13.91 13.91 0 0 1 3.79.53v-.38a3.18 3.18 0 0 0-1-2.5 3.91 3.91 0 0 0-2.71-.86 9 9 0 0 0-3.77.89l-.55-1.51a10.78 10.78 0 0 1 4.51-1.06 5.43 5.43 0 0 1 4 1.37 4.93 4.93 0 0 1 1.29 3.65v7.58h-1.82V130a5.37 5.37 0 0 1-4.41 2.13zm.36-1.49a4.62 4.62 0 0 0 2.93-.94 2.91 2.91 0 0 0 1.2-2.4v-1.15a13 13 0 0 0-3.62-.53 4.53 4.53 0 0 0-2.66.68 2.17 2.17 0 0 0-1 1.86 2.13 2.13 0 0 0 .9 1.8 3.6 3.6 0 0 0 2.25.69zM944.89 131.87v-12.4h10.75v12.4h-1.85V121.1h-7.05v10.77zM12.39 114.61a5.49 5.49 0 0 1-4.14-1.72 6.25 6.25 0 0 1 0-8.48 5.54 5.54 0 0 1 4.17-1.74 5.89 5.89 0 0 1 2.47.47 7.42 7.42 0 0 1 2 1.39l-.86.92a5.18 5.18 0 0 0-3.63-1.58 4.19 4.19 0 0 0-3.19 1.37 5.13 5.13 0 0 0 0 6.79 4.18 4.18 0 0 0 3.18 1.38 4.52 4.52 0 0 0 2-.41 7 7 0 0 0 1.75-1.25l.86.91a7.16 7.16 0 0 1-2 1.47 6.1 6.1 0 0 1-2.61.48zM21.13 114.42V107h-3.05v-1.12h7.39V107h-3.05v7.41zM29.53 114.6a3.62 3.62 0 0 1-2.24-.71 2.34 2.34 0 0 1-.94-2 2.41 2.41 0 0 1 1-2.06 4.4 4.4 0 0 1 2.66-.73 9.56 9.56 0 0 1 2.61.36v-.26a2.19 2.19 0 0 0-.66-1.72 2.69 2.69 0 0 0-1.86-.59 6.22 6.22 0 0 0-2.59.61l-.38-1a7.41 7.41 0 0 1 3.1-.73 3.73 3.73 0 0 1 2.75.94 3.39 3.39 0 0 1 .89 2.51v5.21h-1.28v-1.27a3.69 3.69 0 0 1-3.06 1.44zm.25-1a3.17 3.17 0 0 0 2-.64 2 2 0 0 0 .83-1.65v-.79a8.93 8.93 0 0 0-2.49-.36 3.12 3.12 0 0 0-1.83.47 1.49 1.49 0 0 0-.66 1.28 1.47 1.47 0 0 0 .62 1.24 2.48 2.48 0 0 0 1.52.42zM36.54 117.06v-11.17h1.27v1.72a3.83 3.83 0 0 1 3.27-1.9 3.92 3.92 0 0 1 2.85 1.21 4.88 4.88 0 0 1 0 6.46 3.91 3.91 0 0 1-2.85 1.22 3.81 3.81 0 0 1-3.27-1.81v4.27zm4.3-3.6a2.84 2.84 0 0 0 2.14-.9 3.35 3.35 0 0 0 .86-2.42 3.31 3.31 0 0 0-.87-2.38 2.83 2.83 0 0 0-2.13-.92 2.93 2.93 0 0 0-2.16.94 3.5 3.5 0 0 0 0 4.74 3 3 0 0 0 2.16.94zM49.22 114.42V107h-3.05v-1.12h7.39V107h-3.05v7.41zM0 134.92v-11.17h1.27v1.72a3.83 3.83 0 0 1 3.27-1.9 3.93 3.93 0 0 1 2.85 1.21 4.88 4.88 0 0 1 0 6.46 3.91 3.91 0 0 1-2.85 1.22 3.81 3.81 0 0 1-3.27-1.81v4.27zm4.31-3.6a2.84 2.84 0 0 0 2.14-.9 3.36 3.36 0 0 0 .86-2.42 3.31 3.31 0 0 0-.87-2.38 2.83 2.83 0 0 0-2.13-.92 2.94 2.94 0 0 0-2.16.94 3.5 3.5 0 0 0 0 4.74 3 3 0 0 0 2.16.95zM13.49 132.46a3.62 3.62 0 0 1-2.24-.71 2.34 2.34 0 0 1-.94-2 2.41 2.41 0 0 1 1-2.06A4.4 4.4 0 0 1 14 127a9.56 9.56 0 0 1 2.61.36v-.26a2.19 2.19 0 0 0-.66-1.72 2.69 2.69 0 0 0-1.86-.59 6.22 6.22 0 0 0-2.59.61l-.38-1a7.41 7.41 0 0 1 3.1-.73 3.73 3.73 0 0 1 2.75.94 3.39 3.39 0 0 1 .89 2.51v5.21h-1.3V131a3.69 3.69 0 0 1-3.07 1.46zm.25-1a3.17 3.17 0 0 0 2-.64 2 2 0 0 0 .83-1.65v-.79a8.93 8.93 0 0 0-2.49-.36 3.12 3.12 0 0 0-1.83.47 1.49 1.49 0 0 0-.66 1.28 1.47 1.47 0 0 0 .62 1.24 2.48 2.48 0 0 0 1.53.43zM24.51 132.48a4 4 0 0 1-3.14-1.29 5 5 0 0 1-1.18-3.5v-1.38q0-.57.13-1.26a4.61 4.61 0 0 1 .31-1.19 5.42 5.42 0 0 1 .55-1 2.91 2.91 0 0 1 .88-.81 4.26 4.26 0 0 1 1.27-.5l4.75-1.12.25 1.07-4.62 1.14a3.25 3.25 0 0 0-1.84 1 3.67 3.67 0 0 0-.65 2 3.78 3.78 0 0 1 3.53-1.85 3.88 3.88 0 0 1 2.89 1.25 4.16 4.16 0 0 1 1.2 3 4.28 4.28 0 0 1-1.25 3.1 4.18 4.18 0 0 1-3.08 1.34zm0-1.14a2.81 2.81 0 0 0 2.16-.93 3.25 3.25 0 0 0 .86-2.28 3.21 3.21 0 0 0-.88-2.28 2.86 2.86 0 0 0-2.17-.94 2.81 2.81 0 0 0-2.16.93 3.25 3.25 0 0 0-.86 2.28 3.2 3.2 0 0 0 .88 2.28 2.86 2.86 0 0 0 2.2.94zM38.25 131.17a4.28 4.28 0 0 1-3.18 1.31 4.21 4.21 0 0 1-3.16-1.3 4.53 4.53 0 0 1 0-6.29 4.5 4.5 0 0 1 6.34 0 4.51 4.51 0 0 1 0 6.29zm-3.15.17a2.93 2.93 0 0 0 2.25-1 3.55 3.55 0 0 0 0-4.72 3 3 0 0 0-2.25-1 2.89 2.89 0 0 0-2.24 1A3.4 3.4 0 0 0 32 128a3.3 3.3 0 0 0 .91 2.35 3 3 0 0 0 2.19.99zM43.56 132.28v-7.41h-3.05v-1.12h7.39v1.12h-3.05v7.41zM49.75 132.28v-8.53H51V127h2.3a4.25 4.25 0 0 1 2.42.64 2.16 2.16 0 0 1 .94 1.92 2.53 2.53 0 0 1-.87 2 3.47 3.47 0 0 1-2.34.75zm1.25-1.12h2.31a2.43 2.43 0 0 0 1.51-.41 1.43 1.43 0 0 0 .54-1.2 1.28 1.28 0 0 0-.55-1.11 2.65 2.65 0 0 0-1.54-.39H51zm7.17 1.12v-8.53h1.27v8.53zM1321.71 114.42v-11.55h9.11v11.55h-1.3v-10.36H1323v10.36zM1333.86 117.06v-11.17h1.27v1.72a3.83 3.83 0 0 1 3.27-1.9 3.93 3.93 0 0 1 2.85 1.21 4.88 4.88 0 0 1 0 6.46 3.91 3.91 0 0 1-2.85 1.22 3.81 3.81 0 0 1-3.27-1.81v4.27zm4.31-3.6a2.84 2.84 0 0 0 2.14-.9 3.36 3.36 0 0 0 .86-2.42 3.31 3.31 0 0 0-.87-2.38 2.83 2.83 0 0 0-2.13-.92 2.94 2.94 0 0 0-2.16.94 3.5 3.5 0 0 0 0 4.74 3 3 0 0 0 2.16.94zM1344.82 114.42v-8.53h1.27v6.75l5.06-6.75h1.24v8.53h-1.27v-6.75l-5.08 6.75zM1359 114.61a4.08 4.08 0 0 1-3-1.25 4.37 4.37 0 0 1-1.23-3.21 4.54 4.54 0 0 1 1.17-3.16 3.77 3.77 0 0 1 2.92-1.29 3.58 3.58 0 0 1 2.9 1.29 4.88 4.88 0 0 1 1.07 3.23v.45H1356a3.09 3.09 0 0 0 1 2.07 2.91 2.91 0 0 0 2 .77 3.61 3.61 0 0 0 2.69-1.2l.79.71a4.54 4.54 0 0 1-3.48 1.59zm-3-5h5.49a3.58 3.58 0 0 0-.82-2.05 2.38 2.38 0 0 0-1.91-.82 2.49 2.49 0 0 0-1.86.81 3.39 3.39 0 0 0-.9 2.1zm.51-5V103h1.49v1.57zm2.9 0V103h1.49v1.57zM1365 114.42v-8.53h1.2l3.18 4.49 3.18-4.49h1.22v8.53h-1.29v-6.5l-3.15 4.32-3.12-4.32v6.5zM1323.11 132.48a5.46 5.46 0 0 1-3.53-1.27l.64-.94a4.32 4.32 0 0 0 2.85 1.1 2.67 2.67 0 0 0 1.49-.4 1.26 1.26 0 0 0 .62-1.11 1.17 1.17 0 0 0-.56-1 2.86 2.86 0 0 0-1.58-.37h-1.14v-1h1.16a2.19 2.19 0 0 0 1.37-.4 1.28 1.28 0 0 0 .53-1.06 1.06 1.06 0 0 0-.52-.92 2.35 2.35 0 0 0-1.33-.35 4 4 0 0 0-2.59.86l-.63-.89a5.23 5.23 0 0 1 3.3-1.07 3.63 3.63 0 0 1 2.25.64 2.07 2.07 0 0 1-.54 3.6 2.09 2.09 0 0 1 1.58 2.09 2.27 2.27 0 0 1-.92 1.82 3.78 3.78 0 0 1-2.45.67zM1331.39 132.46a3.62 3.62 0 0 1-2.24-.71 2.34 2.34 0 0 1-.94-2 2.4 2.4 0 0 1 1-2.06 4.4 4.4 0 0 1 2.66-.73 9.56 9.56 0 0 1 2.61.36v-.26a2.19 2.19 0 0 0-.66-1.72 2.69 2.69 0 0 0-1.86-.59 6.22 6.22 0 0 0-2.59.61l-.38-1a7.41 7.41 0 0 1 3.1-.73 3.73 3.73 0 0 1 2.75.94 3.39 3.39 0 0 1 .89 2.51v5.21h-1.25V131a3.69 3.69 0 0 1-3.09 1.46zm.25-1a3.17 3.17 0 0 0 2-.64 2 2 0 0 0 .82-1.65v-.79a8.93 8.93 0 0 0-2.46-.38 3.11 3.11 0 0 0-1.83.47 1.49 1.49 0 0 0-.66 1.28 1.46 1.46 0 0 0 .62 1.24 2.48 2.48 0 0 0 1.51.45zM1337.64 132.28l2.61-3.3a3.16 3.16 0 0 1-1.64-.91 2.34 2.34 0 0 1-.64-1.67 2.41 2.41 0 0 1 .86-1.92 3.51 3.51 0 0 1 2.36-.73h4v8.53h-1.27v-3.1h-2.36l-1 1.35-1.34 1.75zm3.65-4.17h2.64v-3.23h-2.67a2.34 2.34 0 0 0-1.48.42 1.4 1.4 0 0 0-.54 1.16 1.45 1.45 0 0 0 .57 1.2 2.32 2.32 0 0 0 1.48.45zM1348 132.28v-8.53h4.12a3.27 3.27 0 0 1 2 .58 1.85 1.85 0 0 1 .76 1.55 2 2 0 0 1-1.42 2q1.88.51 1.88 2.11a2 2 0 0 1-.84 1.7 3.7 3.7 0 0 1-2.26.63zm1.27-4.87h2.62a2 2 0 0 0 1.26-.35 1.2 1.2 0 0 0 .47-1 1 1 0 0 0-.45-.87 2.07 2.07 0 0 0-1.25-.33h-2.66zm0 3.78h2.84a2.41 2.41 0 0 0 1.43-.38 1.22 1.22 0 0 0 .53-1.06 1.09 1.09 0 0 0-.55-1 3 3 0 0 0-1.58-.35h-2.67zM1364.78 131.17a4.28 4.28 0 0 1-3.18 1.31 4.21 4.21 0 0 1-3.16-1.3 4.53 4.53 0 0 1 0-6.29 4.5 4.5 0 0 1 6.34 0 4.51 4.51 0 0 1 0 6.29zm-3.15.17a2.93 2.93 0 0 0 2.25-1 3.55 3.55 0 0 0 0-4.72 3 3 0 0 0-2.25-1 2.89 2.89 0 0 0-2.24 1 3.4 3.4 0 0 0-.87 2.37 3.3 3.3 0 0 0 .91 2.35 3 3 0 0 0 2.19 1zM1368.36 132.28v-8.53h1.27v4.92l4.67-4.92h1.57l-3.56 3.69 3.66 4.83h-1.5l-3-3.91-1.8 1.85v2.06z"/><path class="cls-4" d="M29.73 56.19H1468.6"/><path class="cls-5" d="M1448.52 73.27l17.1-17.08-17.1-17.09h14.51l17.09 17.09-17.09 17.08h-14.51z"/><circle class="cls-3" cx="29.73" cy="56.19" r="10.31"/><circle class="cls-3" cx="139.03" cy="56.19" r="10.31"/><path class="cls-6" d="M203.91 23.42l1.09-4.15 11.68-8A12.79 12.79 0 0 0 219.27 9a3.24 3.24 0 0 0 .81-2.08 2.12 2.12 0 0 0-.78-1.75 3.3 3.3 0 0 0-2.13-.63q-2.54 0-5.51 2.87l-3.1-3.23A11.4 11.4 0 0 1 217.4 0a8.71 8.71 0 0 1 5.72 1.78 5.67 5.67 0 0 1 2.16 4.59 6.76 6.76 0 0 1-1.2 3.93 16.86 16.86 0 0 1-4.24 3.86L212.72 19h9.7l-1.19 4.39zM230.43 26.28L232 20.4h1.25a22.83 22.83 0 0 0 3.75-8.56l.31-1.27h10.39L245 20.4h1.82l-1.94 5.88h-3.07l.79-2.85h-8l-1 2.85zM237 20.4h4.37l1.85-6.84h-3.31l-.26 1a18.09 18.09 0 0 1-1.18 3.23A13.35 13.35 0 0 1 237 20.4zM254.88 23.71a6 6 0 0 1-4.37-1.52 5.54 5.54 0 0 1-1.58-4.19 7.66 7.66 0 0 1 .92-3.63 7.74 7.74 0 0 1 2.71-2.89 7.22 7.22 0 0 1 4-1.15 5.2 5.2 0 0 1 3.85 1.4 4.89 4.89 0 0 1 1.4 3.61 7.66 7.66 0 0 1-.65 2.93h-8.8q.19 2.52 2.93 2.52a5 5 0 0 0 2.86-1l1.67 2.21a7.45 7.45 0 0 1-4.94 1.71zM252.67 16h5.59a3 3 0 0 0 .12-.84 1.85 1.85 0 0 0-.53-1.37 2.15 2.15 0 0 0-1.58-.53 3.47 3.47 0 0 0-2.18.74 4.33 4.33 0 0 0-1.42 2zM262.44 23.42l3.43-12.86h3.65l-1.3 4.85h4.56l1.32-4.85h3.62l-3.43 12.86h-3.62l1.32-5h-4.58l-1.32 5zM277.58 23.42L281 10.56h3.65L283.48 15h2.16a5.18 5.18 0 0 1 3.36 1 3.14 3.14 0 0 1 1.22 2.57 4.28 4.28 0 0 1-1.69 3.6 7.08 7.08 0 0 1-4.43 1.3zm4.37-2.76h1.92a3.62 3.62 0 0 0 2-.49 1.6 1.6 0 0 0 .76-1.43 1.09 1.09 0 0 0-.48-.92 2.12 2.12 0 0 0-1.27-.35h-2.06z"/><circle class="cls-6" cx="248.01" cy="56.19" r="10.31"/><path class="cls-7" d="M455.57 23.79a11.15 11.15 0 0 1-4.92-1.19 9 9 0 0 1-3.65-2.94l3.56-3A7.17 7.17 0 0 0 456 19.2a5.23 5.23 0 0 0 3.35-1.06 3.15 3.15 0 0 0 1.34-2.54 2.57 2.57 0 0 0-1.09-2.14 5.25 5.25 0 0 0-3.2-.82 8.07 8.07 0 0 0-3.1.73l-2.57-2.08 3.6-11h14l-1.22 4.45h-9.4l-1.32 3.93a11.08 11.08 0 0 1 2.34-.26 7.47 7.47 0 0 1 5.2 1.8 6.15 6.15 0 0 1 2 4.8A8 8 0 0 1 463 21.2a10.7 10.7 0 0 1-7.43 2.59zM472.73 26.28l1.54-5.88h1.25a22.83 22.83 0 0 0 3.74-8.56l.31-1.27H490l-2.64 9.84h1.82l-1.94 5.88h-3.07l.79-2.85h-8l-1 2.85zm6.6-5.88h4.37l1.85-6.84h-3.31l-.26 1a18.09 18.09 0 0 1-1.18 3.23 13.35 13.35 0 0 1-1.48 2.61zM497.17 23.71a6 6 0 0 1-4.37-1.52 5.54 5.54 0 0 1-1.58-4.19 7.65 7.65 0 0 1 .92-3.63 7.74 7.74 0 0 1 2.71-2.89 7.22 7.22 0 0 1 4-1.15 5.2 5.2 0 0 1 3.85 1.4 4.89 4.89 0 0 1 1.4 3.61 7.66 7.66 0 0 1-.65 2.93h-8.81q.19 2.52 2.93 2.52a5 5 0 0 0 2.86-1l1.69 2.21a7.46 7.46 0 0 1-4.95 1.71zM495 16h5.59a3 3 0 0 0 .12-.84 1.85 1.85 0 0 0-.53-1.37 2.15 2.15 0 0 0-1.58-.53 3.47 3.47 0 0 0-2.18.74 4.33 4.33 0 0 0-1.42 2zM504.73 23.42l3.43-12.86h3.65l-1.3 4.85h4.56l1.32-4.85H520l-3.43 12.86H513l1.32-5h-4.62l-1.32 5zM519.87 23.42l3.43-12.86h3.65L525.77 15h2.16a5.18 5.18 0 0 1 3.33 1 3.14 3.14 0 0 1 1.22 2.57 4.28 4.28 0 0 1-1.69 3.6 7.08 7.08 0 0 1-4.43 1.3zm4.37-2.76h1.92a3.62 3.62 0 0 0 2-.49 1.6 1.6 0 0 0 .76-1.43 1.09 1.09 0 0 0-.48-.92 2.12 2.12 0 0 0-1.27-.35h-2.07z"/><circle class="cls-7" cx="490.36" cy="56.19" r="10.31"/><path class="cls-8" d="M1301.76 23.42l4.78-17.88-4.19 1-.07-4.32 7.26-2h3.46l-6.24 23.26zM1323.33 23.42l1.32-5H1314l-.5-3.76L1329.4.17h4.95l-3.79 14.15h3.1l-1.12 4.12h-3.1l-1.32 5zm-3.43-9.11h5.87l2-7.39zM1340 26.28l1.54-5.88h1.25a22.83 22.83 0 0 0 3.74-8.56l.31-1.27h10.39l-2.64 9.84h1.82l-1.94 5.88h-3.07l.79-2.85h-8l-1 2.85zm6.6-5.88h4.37l1.85-6.84h-3.31l-.26 1a18.09 18.09 0 0 1-1.18 3.23 13.35 13.35 0 0 1-1.51 2.61zM1364.41 23.71a6 6 0 0 1-4.37-1.52 5.54 5.54 0 0 1-1.58-4.19 7.65 7.65 0 0 1 .92-3.63 7.74 7.74 0 0 1 2.71-2.89 7.22 7.22 0 0 1 4-1.15 5.2 5.2 0 0 1 3.85 1.4 4.89 4.89 0 0 1 1.4 3.61 7.66 7.66 0 0 1-.65 2.93h-8.81q.19 2.52 2.93 2.52a5 5 0 0 0 2.86-1l1.68 2.26a7.46 7.46 0 0 1-4.94 1.66zM1362.2 16h5.59a3 3 0 0 0 .12-.84 1.85 1.85 0 0 0-.53-1.37 2.15 2.15 0 0 0-1.58-.53 3.47 3.47 0 0 0-2.18.74 4.33 4.33 0 0 0-1.42 2zM1372 23.42l3.43-12.86h3.57l-1.3 4.85h4.56l1.32-4.85h3.62l-3.43 12.86h-3.62l1.32-5h-4.58l-1.32 5zM1387.1 23.42l3.43-12.86h3.65L1393 15h2.16a5.18 5.18 0 0 1 3.33 1 3.14 3.14 0 0 1 1.22 2.57 4.28 4.28 0 0 1-1.69 3.6 7.08 7.08 0 0 1-4.43 1.3zm4.37-2.76h1.92a3.62 3.62 0 0 0 2-.49 1.6 1.6 0 0 0 .76-1.43 1.09 1.09 0 0 0-.48-.92 2.12 2.12 0 0 0-1.27-.35h-2.06z"/><circle class="cls-8" cx="1349.63" cy="56.19" r="10.31"/></g></g></g></svg>