<?xml version="1.0" standalone="no"?><!DOCTYPE svg PUBLIC "-//W3C//DTD SVG 1.1//EN" "http://www.w3.org/Graphics/SVG/1.1/DTD/svg11.dtd" ><svg xmlns="http://www.w3.org/2000/svg"><metadata></metadata><defs><font id="1.004;FTH ;PlayfairDisplaySC-Italic" horiz-adv-x="2353"><font-face font-family="Playfair Display SC" font-weight="400" font-stretch="normal" units-per-em="2048" panose-1="0 0 5 0 0 0 0 0 0 0" ascent="2216" descent="-514" x-height="0" bbox="-760 -494 2251 1962" underline-thickness="0" underline-position="0" unicode-range="U+000d-25ca" /><missing-glyph horiz-adv-x="1151" d="M1028 0 l-905 0 l0 1581 l905 0 l0 -1581 ZM954 1520 l-757 0 l0 -1459 l757 0 l0 1459 Z" /><glyph glyph-name="space" unicode=" " d="" /><glyph glyph-name="A" unicode="a" d="M1032 172 q5 -67 34.5 -98 q29.5 -31 66.5 -33 l-9 -41 q-82 6 -223 6 q-165 0 -246 -6 l9 41 q70 3 108 17.5 q38 14.5 54.5 50 q16.5 35.5 13.5 104.5 l-19 336 l-503 0 l-154 -217 q-96 -136 -96 -204 q0 -84 151 -87 l-10 -41 q-114 6 -234 6 q-89 0 -153 -6 l10 41 q94 20 205 178 l883 1241 l30 0 l82 -1288 ZM785 1209 l-438 -619 l472 0 l-34 619 Z" /><glyph glyph-name="Aogonek" unicode="&#x104;" d="M1141 -268 q-123 -117 -264 -117 q-74 0 -113 32 q-39 32 -39 87 q0 91 94.5 159 q94.5 68 219.5 111 q-88 2 -138 2 q-165 0 -246 -6 l9 41 q70 3 108 17.5 q38 14.5 54.5 50 q16.5 35.5 13.5 104.5 l-19 336 l-503 0 l-154 -217 q-96 -136 -96 -204 q0 -84 151 -87 l-10 -41 q-114 6 -234 6 q-89 0 -153 -6 l10 41 q94 20 205 178 l883 1241 l30 0 l82 -1288 q5 -67 34.5 -98 q29.5 -31 66.5 -33 l-9 -41 l-18 1 q-91 -29 -158 -83.5 q-67 -54.5 -67 -128.5 q0 -76 80 -76 q39 0 84.5 16.5 q45.5 16.5 73.5 37.5 l22 -35 ZM785 1209 l-438 -619 l472 0 l-34 619 Z" /><glyph glyph-name="AE" unicode="æ" d="M1489 1444 q295 0 424 6 q-32 -89 -78 -242 q-19 -68 -27 -127 l-45 0 q15 86 15 145 q0 96 -42.5 136.5 q-42.5 40.5 -138.5 40.5 l-190 0 q-71 0 -106.5 -12 q-35.5 -12 -57 -46.5 q-21.5 -34.5 -41.5 -111.5 l-128 -483 l220 0 q58 0 96.5 30.5 q38.5 30.5 62 76 q23.5 45.5 52.5 122.5 l45 0 q-26 -82 -59 -209 q-7 -31 -10 -41 q-22 -75 -54 -250 l-45 0 q0 11 5 63 q6 44 6 64 q0 45 -23 72 q-23 27 -84 31 l-223 0 l-131 -492 q-18 -70 -18 -100 q0 -29 13.5 -44 q13.5 -15 41.5 -20.5 q28 -5.5 80 -5.5 l211 0 q99 0 162 34 q63 34 109.5 111 q46.5 77 94.5 218 l45 0 q-19 -50 -43 -148 q-35 -127 -53 -262 q-139 6 -463 6 q-389 0 -590 -6 l8 41 q74 3 111 16 q37 13 58.5 48 q21.5 35 41.5 112 l131 492 l-333 0 l-457 -516 q-59 -67 -59 -97 q0 -45 127 -55 l0 -41 q-55 6 -177 6 q-87 0 -137 -6 l0 41 q65 3 176 131 l1017 1150 q2 34 -11 52 q-13 18 -42.5 25 q-29.5 7 -84.5 10 l10 41 q148 -4 237 -4 l122 137 l53 0 l-122 -138 q87 -1 163 -1 q76 0 135 0 ZM1012 1233 l4 14 l-441 -497 l308 0 l129 483 Z" /><glyph glyph-name="B" unicode="b" d="M809 766 q336 -55 336 -334 q0 -139 -88 -237 q-88 -98 -228 -146.5 q-140 -48.5 -294 -48.5 q-70 0 -150 3 q-183 3 -203 3 q-163 0 -250 -6 l9 41 q74 3 110.5 16 q36.5 13 58.5 48 q22 35 42 112 l270 1016 q17 68 17 98 q0 41 -30 59 q-30 18 -108 19 l10 41 q84 -6 244 -6 q44 0 138 2 q98 2 151 2 q190 0 287.5 -70 q97.5 -70 97.5 -192 q0 -100 -59 -183.5 q-59 -83.5 -154 -142.5 q-95 -59 -207 -94 ZM623 770 q119 0 211 55.5 q92 55.5 142 147.5 q50 92 50 198 q0 122 -52.5 180 q-52.5 58 -168.5 58 q-62 0 -96.5 -12 q-34.5 -12 -54.5 -42 q-20 -30 -36 -91 l-130 -494 l135 0 ZM446 47 q261 0 377.5 105 q116.5 105 116.5 311 q0 272 -293 272 l-168 0 l-137 -518 q-19 -73 -19 -100 q0 -38 27 -54 q27 -16 96 -16 Z" /><glyph glyph-name="C" unicode="c" d="M1458 1450 q-68 -177 -131 -471 l-45 0 q12 80 12 140 q0 96 -32 163 q-38 76 -110.5 118 q-72.5 42 -158.5 42 q-170 0 -328.5 -160 q-158.5 -160 -257 -402.5 q-98.5 -242.5 -98.5 -469.5 q0 -198 77.5 -300 q77.5 -102 215.5 -102 q90 0 190.5 42 q100.5 42 174.5 118 q52 53 91.5 124 q39.5 71 92.5 200 l45 0 q-93 -340 -121 -492 l-45 0 q6 44 6 70 q0 52 -24 52 q-16 0 -43 -18 q-73 -47 -122.5 -73 q-49.5 -26 -114.5 -43 q-65 -17 -150 -17 q-228 0 -353 123 q-125 123 -125 359 q0 236 118 475.5 q118 239.5 323.5 395 q205.5 155.5 451.5 155.5 q83 0 139 -18 q56 -18 90.5 -44.5 q34.5 -26.5 76.5 -70.5 q18 -18 31 -18 q36 0 81 122 l43 0 Z" /><glyph glyph-name="Ccedilla" unicode="ç" d="M1458 1450 q-68 -177 -131 -471 l-45 0 q12 79 12 140 q0 96 -32 163 q-38 76 -110.5 118 q-72.5 42 -158.5 42 q-170 0 -328.5 -160 q-158.5 -160 -257 -402.5 q-98.5 -242.5 -98.5 -469.5 q0 -198 77.5 -300 q77.5 -102 215.5 -102 q90 0 190.5 42 q100.5 42 174.5 118 q52 53 91.5 124 q39.5 71 92.5 200 l45 0 q-93 -340 -121 -492 l-45 0 q6 43 6 70 q0 52 -24 52 q-16 0 -43 -18 q-71 -46 -118 -71 q-47 -25 -109 -42.5 q-62 -17.5 -141 -19.5 l-56 -118 q51 14 104 14 q51 0 80 -22 q29 -22 29 -60 q0 -56 -48.5 -94.5 q-48.5 -38.5 -121 -57 q-72.5 -18.5 -143.5 -18.5 q-67 0 -121 13 q-54 13 -84 32 l14 31 q71 -27 164 -27 q38 0 87 10 q49 10 85.5 33.5 q36.5 23.5 36.5 61.5 q0 49 -78 49 q-42 0 -84 -15 l81 169 q-212 10 -327 132.5 q-115 122.5 -115 348.5 q0 236 118 475.5 q118 239.5 323.5 395 q205.5 155.5 451.5 155.5 q83 0 139 -18 q56 -18 90.5 -44.5 q34.5 -26.5 76.5 -70.5 q18 -18 31 -18 q36 0 81 122 l43 0 Z" /><glyph glyph-name="D" unicode="d" d="M1442 997 q0 -256 -126.5 -486 q-126.5 -230 -349 -370.5 q-222.5 -140.5 -495.5 -140.5 q-47 0 -119 3 q-171 3 -168 3 q-165 0 -245 -6 l6 41 q70 3 105.5 16 q35.5 13 57.5 48.5 q22 35.5 42 111.5 l268 1016 q19 74 19 101 q0 40 -30 56.5 q-30 16.5 -108 18.5 l6 41 q110 -7 200 -7 l50 1 l84 2 q160 4 225 4 q288 0 433 -115 q145 -115 145 -338 ZM446 37 q254 0 434.5 138.5 q180.5 138.5 272.5 369 q92 230.5 92 504.5 q0 185 -104 274.5 q-104 89.5 -334 89.5 q-64 0 -100 -14.5 q-36 -14.5 -58 -51.5 q-22 -37 -41 -110 l-268 -1024 q-19 -71 -19 -101 q0 -39 28 -57 q28 -18 97 -18 Z" /><glyph glyph-name="Eth" unicode="ð" d="M864 1450 q288 0 433 -115 q145 -115 145 -338 q0 -256 -126.5 -486 q-126.5 -230 -349 -370.5 q-222.5 -140.5 -495.5 -140.5 q-47 0 -119 3 q-171 3 -168 3 q-165 0 -245 -6 l6 41 q70 3 105.5 16 q35.5 13 57.5 48.5 q22 35.5 42 111.5 l129 490 l-144 0 l12 52 l146 0 l125 474 q19 74 19 101 q0 40 -30 56.5 q-30 16.5 -108 18.5 l6 41 q110 -7 200 -7 l50 1 l84 2 q160 4 225 4 ZM446 37 q254 0 434.5 138.5 q180.5 138.5 272.5 369 q92 230.5 92 504.5 q0 185 -104 274.5 q-104 89.5 -334 89.5 q-64 0 -100 -14.5 q-36 -14.5 -58 -51.5 q-22 -37 -41 -110 l-125 -478 l385 0 l-12 -52 l-387 0 l-129 -494 q-19 -71 -19 -101 q0 -39 28 -57 q28 -18 97 -18 Z" /><glyph glyph-name="E" unicode="e" d="M907 1444 q287 0 408 6 q-54 -148 -78 -242 q-23 -80 -29 -127 l-47 0 q18 110 18 165 q0 59 -19 92.5 q-19 33.5 -63.5 49 q-44.5 15.5 -123.5 15.5 l-150 0 q-73 0 -109.5 -12 q-36.5 -12 -58.5 -46.5 q-22 -34.5 -43 -111.5 l-129 -483 l135 0 q72 0 119 34 q47 34 73.5 79.5 q26.5 45.5 53.5 114.5 q15 39 17 42 l47 0 q-44 -135 -75 -255 l-9 -36 q-27 -96 -66 -291 l-47 0 l4 26 q12 78 12 113 q0 63 -31 97.5 q-31 34.5 -110 34.5 l-134 0 l-132 -492 q-18 -64 -18 -99 q0 -30 14 -45 q14 -15 43 -20.5 q29 -5.5 82 -5.5 l149 0 q128 0 203.5 34 q75.5 34 125.5 109 q50 75 103 220 l48 0 q-20 -50 -46 -148 q-30 -110 -55 -262 q-139 6 -469 6 q-393 0 -592 -6 l11 41 q74 3 110 16 q36 13 58 48 q22 35 43 112 l272 1016 q18 65 18 100 q0 30 -13.5 45.5 q-13.5 15.5 -42 22 q-28.5 6.5 -81.5 8.5 l10 41 q201 -6 594 -6 Z" /><glyph glyph-name="Eogonek" unicode="&#x118;" d="M907 1444 q287 0 408 6 q-54 -148 -78 -242 q-23 -81 -29 -127 l-47 0 q18 110 18 165 q0 59 -19 92.5 q-19 33.5 -63.5 49 q-44.5 15.5 -123.5 15.5 l-150 0 q-73 0 -109.5 -12 q-36.5 -12 -58.5 -46.5 q-22 -34.5 -43 -111.5 l-129 -483 l135 0 q72 0 119 34 q47 34 73.5 79.5 q26.5 45.5 53.5 114.5 q16 39 17 42 l47 0 q-44 -135 -75 -255 l-9 -36 q-27 -96 -66 -291 l-47 0 l4 26 q12 78 12 113 q0 63 -31 97.5 q-31 34.5 -110 34.5 l-134 0 l-132 -492 q-18 -65 -18 -99 q0 -30 14 -45 q14 -15 43 -20.5 q29 -5.5 82 -5.5 l149 0 q128 0 203.5 34 q75.5 34 125.5 109 q50 75 103 220 l48 0 q-20 -50 -46 -148 q-30 -110 -55 -262 l-24 1 q-91 -29 -158 -83.5 q-67 -54.5 -67 -128.5 q0 -76 80 -76 q39 0 84.5 16.5 q45.5 16.5 73.5 37.5 l22 -35 q-123 -117 -264 -117 q-74 0 -113 32 q-39 32 -39 87 q0 90 93.5 158.5 q93.5 68.5 217.5 110.5 q-124 3 -375 3 q-393 0 -592 -6 l11 41 q74 3 110 16 q36 13 58 48 q22 35 43 112 l272 1016 q18 65 18 100 q0 30 -13.5 45.5 q-13.5 15.5 -42 22 q-28.5 6.5 -81.5 8.5 l10 41 q201 -6 594 -6 Z" /><glyph glyph-name="F" unicode="f" d="M907 1444 q287 0 408 6 q-53 -149 -84 -262 q-22 -76 -39 -168 l-47 0 q23 136 23 204 q0 67 -21.5 105.5 q-21.5 38.5 -72.5 56 q-51 17.5 -142 17.5 l-109 0 q-73 0 -109.5 -12 q-36.5 -12 -58.5 -46.5 q-22 -34.5 -43 -111.5 l-135 -504 l150 0 q73 0 120.5 35 q47.5 35 73.5 81.5 q26 46.5 53 116.5 q10 26 15 37 l47 0 q-42 -127 -74 -250 q-5 -25 -10 -40 l-9 -36 q-75 -342 -57 -255 l-47 0 l5 31 q12 78 12 111 q0 61 -31 94.5 q-31 33.5 -109 33.5 l-150 0 l-126 -471 q-16 -61 -16 -91 q0 -34 17 -51.5 q17 -17.5 54 -24.5 q37 -7 105 -9 l-11 -41 q-106 6 -301 6 q-173 0 -260 -6 l11 41 q74 3 110 16 q36 13 58 48 q22 35 43 112 l272 1016 q18 65 18 100 q0 30 -13.5 45.5 q-13.5 15.5 -42 22 q-28.5 6.5 -81.5 8.5 l10 41 q201 -6 594 -6 Z" /><glyph glyph-name="G" unicode="g" d="M647 12 q67 0 128 19 q61 19 106 45 q41 24 61.5 55 q20.5 31 32.5 74 l47 180 q18 68 18 106 q0 36 -17 54.5 q-17 18.5 -52.5 26 q-35.5 7.5 -102.5 10.5 l11 41 q99 -7 286 -7 q146 0 215 7 l-10 -41 q-49 -4 -73 -16.5 q-24 -12.5 -40.5 -46.5 q-16.5 -34 -37.5 -113 l-109 -406 l-41 0 q6 32 6 54 q0 63 -31 63 q-13 0 -27.5 -6.5 q-14.5 -6.5 -49.5 -28.5 q-86 -55 -169.5 -83 q-83.5 -28 -179.5 -28 q-250 0 -383 122 q-133 122 -133 347 q0 237 116 479.5 q116 242.5 321.5 401 q205.5 158.5 459.5 158.5 q85 0 146 -17 q61 -17 103.5 -45 q42.5 -28 86.5 -71 q19 -19 36 -19 q39 0 81 123 l45 0 q-68 -177 -131 -471 l-45 0 q10 88 10 154 q0 94 -28 149 q-43 75 -128 117.5 q-85 42.5 -188 42.5 q-212 0 -369.5 -178 q-157.5 -178 -241 -430 q-83.5 -252 -83.5 -461 q0 -184 87 -272.5 q87 -88.5 267 -88.5 Z" /><glyph glyph-name="H" unicode="h" d="M1415 1444 q175 0 264 6 l-10 -41 q-75 -3 -111.5 -16 q-36.5 -13 -58 -48 q-21.5 -35 -41.5 -112 l-270 -1016 q-18 -70 -18 -100 q0 -30 13.5 -45.5 q13.5 -15.5 42.5 -22 q29 -6.5 83 -8.5 l-9 -41 q-86 6 -262 6 q-164 0 -260 -6 l8 41 q74 3 111 16 q37 13 58.5 48 q21.5 35 41.5 112 l131 492 l-657 0 l-131 -492 q-17 -66 -17 -99 q0 -30 13.5 -46 q13.5 -16 42.5 -22.5 q29 -6.5 82 -8.5 l-8 -41 q-96 6 -260 6 q-171 0 -261 -6 l11 41 q72 3 108 16 q36 13 57.5 48.5 q21.5 35.5 41.5 111.5 l270 1016 q17 65 17 98 q0 31 -14 47 q-14 16 -42.5 22.5 q-28.5 6.5 -81.5 8.5 l10 41 q84 -6 260 -6 q164 0 262 6 l-10 -41 q-75 -3 -111.5 -16 q-36.5 -13 -58 -48 q-21.5 -35 -41.5 -112 l-128 -483 l657 0 l129 483 q18 63 18 98 q0 31 -14 47 q-14 16 -43 22.5 q-29 6.5 -82 8.5 l10 41 q93 -6 258 -6 Z" /><glyph glyph-name="Hbar" unicode="&#x126;" d="M1673 1409 q-75 -3 -111.5 -16 q-36.5 -13 -58 -48 q-21.5 -35 -41.5 -112 l-37 -141 l191 0 l-10 -41 l-192 0 l-222 -834 q-18 -70 -18 -100 q0 -30 13.5 -45.5 q13.5 -15.5 42.5 -22 q29 -6.5 83 -8.5 l-9 -41 q-85 6 -262 6 q-164 0 -260 -6 l8 41 q74 3 111 16 q37 13 58.5 48 q21.5 35 41.5 112 l131 492 l-657 0 l-131 -492 q-17 -66 -17 -99 q0 -30 13.5 -46 q13.5 -16 42.5 -22.5 q29 -6.5 82 -8.5 l-8 -41 q-96 6 -260 6 q-171 0 -261 -6 l11 41 q72 3 108 16 q36 13 57.5 48.5 q21.5 35.5 41.5 111.5 l222 834 l-149 0 l11 41 l149 0 l37 141 q17 65 17 98 q0 31 -14 47 q-14 16 -42.5 22.5 q-28.5 6.5 -81.5 8.5 l10 41 q84 -6 260 -6 q165 0 262 6 l-10 -41 q-75 -3 -111.5 -16 q-36.5 -13 -58 -48 q-21.5 -35 -41.5 -112 l-37 -141 l657 0 l38 141 q18 63 18 98 q0 31 -14 47 q-14 16 -43 22.5 q-29 6.5 -82 8.5 l10 41 q93 -6 258 -6 q176 0 264 6 l-10 -41 ZM566 1051 l-80 -301 l657 0 l80 301 l-657 0 Z" /><glyph glyph-name="I" unicode="i" d="M340 217 q-17 -66 -17 -99 q0 -30 13.5 -46 q13.5 -16 42.5 -22.5 q29 -6.5 82 -8.5 l-8 -41 q-96 6 -260 6 q-171 0 -261 -6 l11 41 q72 3 108 16 q36 13 57.5 48.5 q21.5 35.5 41.5 111.5 l270 1016 q17 65 17 98 q0 31 -14 47 q-14 16 -42.5 22.5 q-28.5 6.5 -81.5 8.5 l10 41 q84 -6 260 -6 q165 0 262 6 l-10 -41 q-75 -3 -111.5 -16 q-36.5 -13 -58 -48 q-21.5 -35 -41.5 -112 l-270 -1016 Z" /><glyph glyph-name="IJ" unicode="&#x132;" d="M1839 1495 q14 -12 14 -26 q0 -48 -147 -105 q-127 -107 -200 -248.5 q-73 -141.5 -126 -365.5 l222 0 l-9 -41 l-222 0 l-3 -13 l-125 -563 q-31 -145 -92 -261.5 q-61 -116.5 -155.5 -186.5 q-94.5 -70 -217.5 -70 q-97 0 -155 30.5 q-58 30.5 -58 89.5 q0 45 31 79 q31 34 78 34 q39 0 64.5 -26 q25.5 -26 25.5 -62 q0 -33 -22 -59.5 q-22 -26.5 -56 -42.5 q32 -10 72 -10 q94 0 152 70.5 q58 70.5 90 176.5 q32 106 71 294 l23 108 l65 307 q10 47 26 105 l-249 0 l8 41 l254 0 q43 132 106.5 229.5 q63.5 97.5 134.5 168 q71 70.5 195 177.5 l39 33 q-233 -123 -401 -123 q-101 0 -183 14 q-82 14 -203 43 q-117 29 -201 43.5 q-84 14.5 -187 14.5 q-87 0 -139 -33 q-52 -33 -52 -96 q0 -60 48.5 -96 q48.5 -36 119 -51 q70.5 -15 141.5 -15 q68 0 138 20.5 q70 20.5 129 59.5 l16 -31 q-72 -48 -174 -73 l-238 -818 q-19 -65 -19 -99 q0 -42 31.5 -59 q31.5 -17 108.5 -18 l-8 -41 q-95 6 -260 6 q-172 0 -260 -6 l10 41 q71 3 106.5 16.5 q35.5 13.5 57 48 q21.5 34.5 43.5 111.5 l234 804 q-129 10 -219.5 64.5 q-90.5 54.5 -90.5 167.5 q0 73 38.5 132.5 q38.5 59.5 105.5 93.5 q67 34 151 34 q78 0 147.5 -15 q69.5 -15 126 -36.5 q56.5 -21.5 137.5 -58.5 q80 -36 135.5 -58 q55.5 -22 123 -36.5 q67.5 -14.5 143.5 -14.5 q66 0 121.5 11 q55.5 11 104.5 28.5 q49 17.5 133 52.5 q75 120 124 120 q13 0 27 -11 Z" /><glyph glyph-name="Iogonek" unicode="&#x12e;" d="M569 1444 q164 0 262 6 l-10 -41 q-75 -3 -111.5 -16 q-36.5 -13 -58 -48 q-21.5 -35 -41.5 -112 l-270 -1016 q-17 -66 -17 -99 q0 -30 13.5 -46 q13.5 -16 42.5 -22.5 q29 -6.5 82 -8.5 l-7 -35 l20 0 q-95 -26 -168.5 -82.5 q-73.5 -56.5 -73.5 -134.5 q0 -76 80 -76 q39 0 84.5 16.5 q45.5 16.5 73.5 37.5 l22 -35 q-123 -117 -264 -117 q-74 0 -113 32 q-39 32 -39 87 q0 90 93.5 158.5 q93.5 68.5 217.5 110.5 q-87 3 -194 3 q-171 0 -261 -6 l11 41 q72 3 108 16 q36 13 57.5 48.5 q21.5 35.5 41.5 111.5 l270 1016 q17 65 17 98 q0 31 -14 47 q-14 16 -42.5 22.5 q-28.5 6.5 -81.5 8.5 l10 41 q84 -6 260 -6 Z" /><glyph glyph-name="J" unicode="j" d="M1509 1495 q13 -11 13 -25 q0 -50 -150 -106 q-286 -191 -426 -614 l203 0 l-6 -41 l-210 0 q-8 -26 -22 -80 l-127 -496 q-58 -229 -179.5 -373.5 q-121.5 -144.5 -303.5 -144.5 q-96 0 -152.5 30 q-56.5 30 -56.5 87 q0 29 14.5 55.5 q14.5 26.5 40.5 43.5 q26 17 58 17 q37 0 61.5 -24.5 q24.5 -24.5 24.5 -60.5 q0 -34 -23 -61.5 q-23 -27.5 -59 -43.5 q30 -10 72 -10 q93 0 153 69.5 q60 69.5 95.5 174 q35.5 104.5 80.5 288.5 q9 39 29 117 l61 240 q24 92 57 172 l-272 0 l7 41 l283 0 q59 129 143.5 234.5 q84.5 105.5 184 191 q99.5 85.5 234.5 182.5 q-237 -123 -405 -123 q-66 0 -119.5 14 q-53.5 14 -131.5 43 q-76 29 -131 43.5 q-55 14.5 -122 14.5 q-68 0 -102 -36 q-34 -36 -31 -100 q1 -60 40 -97.5 q39 -37.5 111 -51.5 l-6 -41 q-93 16 -157.5 73 q-64.5 57 -67.5 165 q-3 73 25 130 q28 57 83 89 q55 32 130 32 q53 0 99 -15 q46 -15 84 -37 q38 -22 90 -59 q52 -36 88 -57.5 q36 -21.5 81 -36 q45 -14.5 96 -14.5 q66 0 122.5 11 q56.5 11 107 29 q50.5 18 133.5 52 q77 120 127 120 q14 0 28 -11 Z" /><glyph glyph-name="K" unicode="k" d="M1327 1479 q63 0 92 -30.5 q29 -30.5 29 -79.5 q0 -27 -12.5 -60.5 q-12.5 -33.5 -39 -57.5 q-26.5 -24 -67.5 -24 q-41 0 -60.5 24 q-19.5 24 -19.5 58 q0 29 19 64.5 q19 35.5 47 62.5 l-6 0 q-41 -2 -74 -29 q-35 -32 -60.5 -86.5 q-25.5 -54.5 -59.5 -151.5 q-43 -122 -81 -200.5 q-38 -78.5 -106 -139 q-68 -60.5 -172 -72.5 q74 -16 118 -42 q44 -26 70 -87 q26 -61 26 -173 l-1 -35 l-8 -232 l-1 -24 q0 -40 13 -60 q13 -20 49 -20 q52 0 87 38 q35 38 65 122 l34 104 l41 0 l-53 -158 q-38 -112 -99.5 -165.5 q-61.5 -53.5 -150.5 -53.5 q-173 0 -173 203 q0 23 1 35 l14 231 q3 43 3 79 q0 91 -18 136.5 q-18 45.5 -57 78.5 q-72 -19 -118 -19 q-63 0 -63 41 q0 41 61 41 q41 0 125 -21 q104 13 170.5 71.5 q66.5 58.5 103 134 q36.5 75.5 78.5 196.5 q35 102 62.5 160.5 q27.5 58.5 68.5 93.5 q61 47 123 47 ZM340 217 q-17 -66 -17 -99 q0 -30 13.5 -46 q13.5 -16 42.5 -22.5 q29 -6.5 82 -8.5 l-8 -41 q-96 6 -260 6 q-171 0 -261 -6 l11 41 q72 3 108 16 q36 13 57.5 48.5 q21.5 35.5 41.5 111.5 l270 1016 q17 65 17 98 q0 31 -14 47 q-14 16 -42.5 22.5 q-28.5 6.5 -81.5 8.5 l10 41 q84 -6 260 -6 q164 0 262 6 l-10 -41 q-75 -3 -111.5 -16 q-36.5 -13 -58 -48 q-21.5 -35 -41.5 -112 l-270 -1016 Z" /><glyph glyph-name="L" unicode="l" d="M1096 430 q-13 -34 -44 -138 q-2 -10 -8 -30 q-30 -110 -55 -262 q-139 6 -469 6 q-393 0 -592 -6 l11 41 q74 3 110 16 q36 13 58 48 q22 35 43 112 l272 1016 q18 65 18 100 q0 30 -13.5 45.5 q-13.5 15.5 -42 22 q-28.5 6.5 -81.5 8.5 l10 41 q87 -6 262 -6 q165 0 261 6 l-11 -41 q-75 -3 -111.5 -16 q-36.5 -13 -58.5 -48 q-22 -35 -43 -112 l-272 -1016 q-18 -64 -18 -99 q0 -30 14 -45 q14 -15 43 -20.5 q29 -5.5 82 -5.5 l149 0 q128 0 204 36 q76 36 127.5 115.5 q51.5 79.5 107.5 231.5 l47 0 Z" /><glyph glyph-name="Lslash" unicode="&#x141;" d="M1100 430 q-13 -34 -44 -138 q-2 -10 -8 -30 q-30 -110 -55 -262 q-139 6 -469 6 q-393 0 -592 -6 l11 41 q74 3 110 16 q36 13 58 48 q22 35 43 112 l85 318 l-208 -105 l12 47 l209 105 l174 651 q18 64 18 100 q0 30 -13.5 45.5 q-13.5 15.5 -42 22 q-28.5 6.5 -81.5 8.5 l10 41 q87 -6 262 -6 q165 0 261 6 l-11 -41 q-75 -3 -111.5 -16 q-36.5 -13 -58.5 -48 q-22 -35 -43 -112 l-150 -561 l591 297 l-13 -47 l-591 -298 l-109 -407 q-18 -64 -18 -99 q0 -30 14 -45 q14 -15 43 -20.5 q29 -5.5 82 -5.5 l149 0 q128 0 204 36 q76 36 127.5 115.5 q51.5 79.5 107.5 231.5 l47 0 Z" /><glyph glyph-name="M" unicode="m" d="M1655 1444 q157 0 256 6 l-10 -41 q-75 -3 -111.5 -16 q-36.5 -13 -58 -48 q-21.5 -35 -41.5 -112 l-271 -1016 q-17 -65 -17 -98 q0 -31 14 -47 q14 -16 42.5 -22.5 q28.5 -6.5 81.5 -8.5 l-8 -41 q-96 6 -254 6 q-180 0 -266 -6 l8 41 q75 3 111.5 16 q36.5 13 58 48 q21.5 35 41.5 112 l297 1104 l-850 -1331 l-45 0 l-139 1347 l-291 -1099 q-18 -70 -18 -103 q0 -50 34.5 -70.5 q34.5 -20.5 120.5 -23.5 l-10 -41 q-70 6 -207 6 q-122 0 -193 -6 l11 41 q72 3 110.5 20.5 q38.5 17.5 61 57.5 q22.5 40 43.5 119 l266 995 q17 65 17 98 q0 31 -14 47 q-14 16 -42.5 22.5 q-28.5 6.5 -81.5 8.5 l10 41 q65 -6 183 -6 q109 0 180 6 l112 -1214 l770 1208 l99 0 Z" /><glyph glyph-name="N" unicode="n" d="M1663 1544 q66 0 94.5 -29 q28.5 -29 28.5 -75 q0 -36 -14 -70 q-14 -34 -41.5 -56 q-27.5 -22 -65.5 -22 q-41 0 -59.5 24 q-18.5 24 -18.5 56 q0 33 19 67.5 q19 34.5 47 61.5 l-6 0 q-100 -3 -168 -104 q-91 -136 -189 -477 q-98 -341 -223 -930 l-45 0 l-467 1319 q-99 -511 -189 -867 q-90 -356 -171 -465 q-47 -60 -96.5 -94.5 q-49.5 -34.5 -123.5 -34.5 q-122 0 -122 107 q0 35 14 68.5 q14 33.5 41 55 q27 21.5 65 21.5 q42 0 60 -24 q18 -24 18 -56 q0 -33 -18.5 -67.5 q-18.5 -34.5 -46.5 -61.5 l6 0 q106 4 170 107 q79 123 162 443.5 q83 320.5 182 836.5 q4 24 4 46 q0 34 -14.5 51.5 q-14.5 17.5 -47.5 24.5 q-33 7 -96 9 l10 41 q66 -6 183 -6 q95 0 166 6 l387 -1132 q88 393 172.5 681 q84.5 288 171.5 414 q90 131 221 131 Z" /><glyph glyph-name="Eng" unicode="&#x14a;" d="M1393 1444 q121 0 192 6 l-10 -41 q-72 -3 -110.5 -20.5 q-38.5 -17.5 -61 -57.5 q-22.5 -40 -43.5 -119 l-285 -1075 q-60 -265 -160 -393.5 q-100 -128.5 -247 -128.5 q-75 0 -130 30 q-55 30 -55 87 q0 30 15 57 q15 27 41 43 q26 16 57 16 q37 0 61.5 -24.5 q24.5 -24.5 24.5 -60.5 q0 -34 -23.5 -61 q-23.5 -27 -58.5 -44 q30 -10 72 -10 q110 0 189 93 q79 93 130 249 l-497 1347 l-289 -1099 q-18 -70 -18 -103 q0 -50 34.5 -70.5 q34.5 -20.5 120.5 -23.5 l-10 -41 q-70 6 -207 6 q-121 0 -193 -6 l11 41 q72 3 110.5 20.5 q38.5 17.5 61 57.5 q22.5 40 43.5 119 l264 995 q17 65 17 98 q0 31 -14 47 q-14 16 -42.5 22.5 q-28.5 6.5 -81.5 8.5 l10 41 q65 -6 183 -6 q94 0 165 6 l414 -1151 l240 913 q17 65 17 102 q0 51 -34 71.5 q-34 20.5 -120 23.5 l10 41 q70 -6 207 -6 Z" /><glyph glyph-name="O" unicode="o" d="M111 463 q0 232 109 469 q109 237 304.5 392 q195.5 155 440.5 155 q151 0 259.5 -58 q108.5 -58 166 -169 q57.5 -111 57.5 -267 q0 -231 -110 -467.5 q-110 -236.5 -306 -391.5 q-196 -155 -440 -155 q-151 0 -259 58 q-108 58 -165 168.5 q-57 110.5 -57 265.5 ZM946 1442 q-154 0 -297.5 -147.5 q-143.5 -147.5 -232 -381.5 q-88.5 -234 -88.5 -477 q0 -132 35.5 -228.5 q35.5 -96.5 99.5 -148 q64 -51.5 147 -51.5 q155 0 298.5 147.5 q143.5 147.5 232 381.5 q88.5 234 88.5 477 q0 132 -36 228.5 q-36 96.5 -100 148 q-64 51.5 -147 51.5 Z" /><glyph glyph-name="Oslash" unicode="ø" d="M1365 1295 q83 -121 83 -310 q0 -231 -110 -467.5 q-110 -236.5 -306 -391.5 q-196 -155 -440 -155 q-233 0 -359 134 l-239 -255 l-35 29 l245 260 q-93 125 -93 324 q0 232 109 469 q109 237 304.5 392 q195.5 155 440.5 155 q247 0 374 -149 l242 253 l31 -27 l-247 -261 ZM946 1442 q-154 0 -297.5 -147.5 q-143.5 -147.5 -232 -381.5 q-88.5 -234 -88.5 -477 q0 -87 17 -163 l861 930 q-31 114 -99.5 176.5 q-68.5 62.5 -160.5 62.5 ZM610 8 q155 0 298.5 147.5 q143.5 147.5 232 381.5 q88.5 234 88.5 477 q0 75 -12 138 l-858 -930 q33 -102 98.5 -158 q65.5 -56 152.5 -56 Z" /><glyph glyph-name="OE" unicode="&#x152;" d="M1651 1444 q266 0 383 6 q-31 -81 -70 -215 l-8 -27 q-27 -70 -27 -127 l-45 0 q15 86 15 145 q0 96 -42.5 136.5 q-42.5 40.5 -138.5 40.5 l-170 0 q-71 0 -106.5 -12 q-35.5 -12 -57 -46.5 q-21.5 -34.5 -41.5 -111.5 l-128 -483 l200 0 q58 0 96.5 30.5 q38.5 30.5 62 76 q23.5 45.5 52.5 122.5 l45 0 q-28 -85 -56 -199 l-13 -51 q-28 -97 -54 -250 l-45 0 q0 11 5 63 q6 44 6 64 q0 45 -23 72 q-23 27 -84 31 l-203 0 l-131 -492 q-17 -66 -17 -99 q0 -30 13.5 -45 q13.5 -15 41.5 -20.5 q28 -5.5 79 -5.5 l190 0 q99 0 163 34 q64 34 110.5 111 q46.5 77 93.5 218 l45 0 q-13 -31 -29 -96 l-14 -52 q-39 -143 -53 -262 q-133 6 -443 6 q-307 0 -489 -4 q-110 -31 -209 -31 q-139 0 -237.5 57.5 q-98.5 57.5 -150.5 168 q-52 110.5 -52 266.5 q0 232 103.5 469 q103.5 237 289.5 392 q186 155 420 155 q114 0 207 -31 q190 -4 516 -4 ZM1153 1233 q11 40 11 76 q0 79 -59 106 q-59 27 -171 27 q-156 0 -295 -147 q-139 -147 -223 -380.5 q-84 -233.5 -84 -478.5 q0 -132 30.5 -228.5 q30.5 -96.5 85 -148 q54.5 -51.5 125.5 -51.5 q90 0 150 18 q60 18 99.5 63.5 q39.5 45.5 60.5 127.5 l270 1016 Z" /><glyph glyph-name="P" unicode="p" d="M862 1448 q201 0 304.5 -82.5 q103.5 -82.5 103.5 -226.5 q0 -160 -97.5 -286.5 q-97.5 -126.5 -273.5 -198.5 q-176 -72 -401 -72 l-61 0 l-97 -365 q-20 -78 -20 -103 q0 -38 30.5 -54.5 q30.5 -16.5 110.5 -18.5 l-8 -41 q-96 6 -254 6 q-180 0 -267 -6 l9 41 q74 3 110.5 16 q36.5 13 58.5 48 q22 35 42 112 l270 1016 q18 65 18 98 q0 42 -30.5 59.5 q-30.5 17.5 -108.5 18.5 l10 41 q84 -6 252 -6 q49 0 147 2 q100 2 152 2 ZM518 623 q287 0 416 149.5 q129 149.5 129 398.5 q0 122 -62 180 q-62 58 -198 58 q-62 0 -96.5 -15 q-34.5 -15 -56 -52 q-21.5 -37 -40.5 -109 l-162 -610 l70 0 Z" /><glyph glyph-name="Thorn" unicode="þ" d="M340 217 q-17 -66 -17 -99 q0 -30 13.5 -46 q13.5 -16 42.5 -22.5 q29 -6.5 82 -8.5 l-8 -41 q-96 6 -260 6 q-171 0 -261 -6 l11 41 q72 3 108 16 q36 13 57.5 48.5 q21.5 35.5 41.5 111.5 l270 1016 q17 65 17 98 q0 31 -14 47 q-14 16 -42.5 22.5 q-28.5 6.5 -81.5 8.5 l10 41 q84 -6 260 -6 q165 0 262 6 l-10 -41 q-75 -3 -111.5 -16 q-36.5 -13 -58 -48 q-21.5 -35 -41.5 -112 l-15 -58 l64 1 q100 2 152 2 q201 0 304.5 -83 q103.5 -83 103.5 -227 q0 -159 -97.5 -286 q-97.5 -127 -273.5 -199 q-176 -72 -402 -72 l-81 1 l-25 -95 ZM467 352 q286 0 415.5 150 q129.5 150 129.5 399 q0 122 -62 180 q-62 58 -198 58 q-87 0 -169 -7 l-207 -780 l91 0 Z" /><glyph glyph-name="Q" unicode="q" d="M1325 102 q45 0 73.5 -31 q28.5 -31 28.5 -85 q0 -90 -79.5 -176.5 q-79.5 -86.5 -202 -140.5 q-122.5 -54 -242.5 -54 q-100 0 -186.5 39 q-86.5 39 -154.5 96.5 q-68 57.5 -149 142.5 q-172 -61 -292 -61 q-101 0 -157 40.5 q-56 40.5 -56 111.5 q0 53 32.5 94.5 q32.5 41.5 89.5 64.5 q57 23 128 23 q73 0 136.5 -24 q63.5 -24 115.5 -59.5 q52 -35.5 130 -97.5 q202 102 383 274 q181 172 292.5 378.5 q111.5 206.5 111.5 404.5 q0 120 -40.5 210 q-40.5 90 -119.5 140 q-79 50 -190 50 q-151 0 -270 -88 q-119 -88 -184.5 -228 q-65.5 -140 -65.5 -288 q0 -147 63.5 -220 q63.5 -73 169.5 -73 q90 0 164 49 q74 49 116 124.5 q42 75.5 42 149.5 q0 57 -15 82 q-21 -42 -63.5 -67 q-42.5 -25 -87.5 -25 q-45 0 -70.5 26.5 q-25.5 26.5 -25.5 69.5 q0 54 40 89.5 q40 35.5 101 35.5 q73 0 117.5 -55 q44.5 -55 44.5 -145 q0 -101 -56.5 -188.5 q-56.5 -87.5 -157.5 -140 q-101 -52.5 -227 -52.5 q-115 0 -197 45 q-82 45 -124.5 126 q-42.5 81 -42.5 187 q0 175 109.5 318 q109.5 143 286 224 q176.5 81 368.5 81 q162 0 281.5 -51 q119.5 -51 183 -146.5 q63.5 -95.5 63.5 -226.5 q0 -207 -142.5 -418.5 q-142.5 -211.5 -365 -388 q-222.5 -176.5 -460.5 -289.5 q80 -63 149 -106 q69 -43 157.5 -71 q88.5 -28 194.5 -28 q102 0 175.5 31.5 q73.5 31.5 119.5 108.5 q-29 -13 -63 -13 q-47 0 -74 28 q-27 28 -27 71 q0 31 16 59.5 q16 28.5 43.5 45.5 q27.5 17 61.5 17 ZM143 -133 q105 0 246 52 q-68 71 -110 110 q-42 39 -88.5 65.5 q-46.5 26.5 -94.5 26.5 q-37 0 -71.5 -16 q-34.5 -16 -56 -46.5 q-21.5 -30.5 -21.5 -70.5 q0 -121 196 -121 Z" /><glyph glyph-name="R" unicode="r" d="M1260 248 l-9 -27 q-36 -129 -92.5 -189.5 q-56.5 -60.5 -150.5 -60.5 q-61 0 -103 24.5 q-42 24.5 -62.5 65.5 q-20.5 41 -20.5 89 l1 18 l17 229 q3 34 3 64 q0 87 -31 134.5 q-31 47.5 -112 69.5 q-81 22 -235 23 l-125 -471 q-19 -71 -19 -100 q0 -41 30.5 -58 q30.5 -17 109.5 -18 l-8 -41 q-96 6 -254 6 q-180 0 -267 -6 l9 41 q74 3 110.5 16 q36.5 13 58.5 48 q22 35 42 112 l270 1016 q18 65 18 96 q0 43 -31 61 q-31 18 -108 19 l10 41 q84 -6 252 -6 q49 0 147 2 q100 2 152 2 q201 0 304.5 -77.5 q103.5 -77.5 103.5 -211.5 q0 -111 -65.5 -204.5 q-65.5 -93.5 -186.5 -158 q-121 -64.5 -283 -91.5 q24 -3 72 -11 q80 -15 128.5 -39.5 q48.5 -24.5 73.5 -69.5 q25 -45 25 -118 q0 -13 -2 -43 l-16 -209 q-2 -28 -2 -42 q0 -126 65 -126 q35 0 63 42 q28 42 60 130 l10 29 l48 0 ZM539 729 q276 0 400 120.5 q124 120.5 124 321.5 q0 122 -62 180 q-62 58 -198 58 q-62 0 -96.5 -15 q-34.5 -15 -56 -52 q-21.5 -37 -40.5 -109 l-134 -504 l63 0 Z" /><glyph glyph-name="S" unicode="s" d="M1180 1464 q-74 -180 -121 -417 l-41 0 q12 57 12 116 q0 78 -30.5 140.5 q-30.5 62.5 -96 99.5 q-65.5 37 -164.5 37 q-129 0 -207.5 -66 q-78.5 -66 -78.5 -194 q0 -70 33.5 -134.5 q33.5 -64.5 82.5 -117.5 q49 -53 134 -132 q89 -83 142 -140.5 q53 -57.5 89.5 -129.5 q36.5 -72 36.5 -153 q0 -134 -77 -224.5 q-77 -90.5 -195.5 -134 q-118.5 -43.5 -245.5 -43.5 q-108 0 -173.5 26.5 q-65.5 26.5 -117.5 68.5 q-39 30 -74 30 q-24 0 -41 -24 q-17 -24 -43 -86 l-41 0 q69 163 139 491 l41 0 q-11 -61 -15 -94.5 q-4 -33.5 -3 -71.5 q13 -299 334 -299 q139 0 220 63.5 q81 63.5 81 192.5 q0 78 -31 144 q-31 66 -75.5 116.5 q-44.5 50.5 -121.5 123.5 q-81 77 -129.5 132.5 q-48.5 55.5 -82 130 q-33.5 74.5 -33.5 164.5 q0 126 64 216.5 q64 90.5 167.5 137 q103.5 46.5 218.5 46.5 q84 0 145.5 -20.5 q61.5 -20.5 121.5 -65.5 q47 -37 67 -37 q17 0 32 25 q15 25 36 83 l41 0 Z" /><glyph glyph-name="Scedilla" unicode="&#x15e;" d="M1180 1464 q-74 -180 -121 -417 l-41 0 q12 57 12 116 q0 78 -30.5 140.5 q-30.5 62.5 -96 99.5 q-65.5 37 -164.5 37 q-129 0 -207.5 -66 q-78.5 -66 -78.5 -194 q0 -70 33.5 -134.5 q33.5 -64.5 82.5 -117.5 q49 -53 134 -132 q89 -83 142 -140.5 q53 -57.5 89.5 -129.5 q36.5 -72 36.5 -153 q0 -134 -77 -224.5 q-77 -90.5 -195.5 -134 q-118.5 -43.5 -245.5 -43.5 l-2 0 l-56 -118 q51 14 104 14 q51 0 80 -22 q29 -22 29 -60 q0 -56 -48.5 -94.5 q-48.5 -38.5 -121 -57 q-72.5 -18.5 -143.5 -18.5 q-67 0 -121 13 q-54 13 -84 32 l14 31 q71 -27 164 -27 q38 0 87 10 q49 10 85.5 33.5 q36.5 23.5 36.5 61.5 q0 49 -78 49 q-42 0 -84 -15 l81 170 q-83 7 -135.5 32 q-52.5 25 -98.5 61 q-39 30 -74 30 q-24 0 -41 -24 q-17 -24 -43 -86 l-41 0 q69 163 139 491 l41 0 q-11 -61 -15 -94.5 q-4 -33.5 -3 -71.5 q13 -299 334 -299 q139 0 220 63.5 q81 63.5 81 192.5 q0 78 -31 144 q-31 66 -75.5 116.5 q-44.5 50.5 -121.5 123.5 q-81 77 -129.5 132.5 q-48.5 55.5 -82 130 q-33.5 74.5 -33.5 164.5 q0 126 64 216.5 q64 90.5 167.5 137 q103.5 46.5 218.5 46.5 q84 0 145.5 -20.5 q61.5 -20.5 121.5 -65.5 q47 -37 67 -37 q17 0 32 25 q15 25 36 83 l41 0 Z" /><glyph glyph-name="uni1E9E" unicode="&#x1e9e;" d="M92 -356 q-115 -3 -201 -29 l357 1321 q73 274 228.5 408.5 q155.5 134.5 377.5 134.5 q149 0 229 -61 q80 -61 80 -187 q0 -114 -63.5 -208 q-63.5 -94 -167 -159 q-103.5 -65 -225.5 -98 q177 -20 260.5 -113.5 q83.5 -93.5 83.5 -226.5 q0 -129 -72.5 -233 q-72.5 -104 -191.5 -163 q-119 -59 -250 -59 q-92 0 -153.5 29.5 q-61.5 29.5 -61.5 85.5 q0 28 15.5 55.5 q15.5 27.5 42 45.5 q26.5 18 58.5 18 q37 0 60.5 -24.5 q23.5 -24.5 23.5 -59.5 q0 -32 -22 -59 q-22 -27 -58 -44 q46 -14 105 -14 q91 0 160.5 51 q69.5 51 108 143 q38.5 92 38.5 210 q0 90 -22.5 168 q-22.5 78 -65 125 q-42.5 47 -100.5 47 q-75 -25 -105 -25 q-43 0 -43 25 q0 15 17 27.5 q17 12.5 47 12.5 q22 0 96 -18 q95 34 160 112.5 q65 78.5 97 177.5 q32 99 32 197 q0 93 -34.5 142 q-34.5 49 -119.5 49 q-236 0 -342 -395 l-379 -1409 Z" /><glyph glyph-name="T" unicode="t" d="M1573 1673 q45 0 68.5 -28 q23.5 -28 23.5 -70 q0 -45 -26.5 -83 q-26.5 -38 -69.5 -65 q-109 -67 -324 -67 q-89 0 -210 14 l-302 -1136 q-18 -65 -18 -104 q0 -35 17 -54.5 q17 -19.5 53.5 -28 q36.5 -8.5 101.5 -10.5 l-8 -41 q-108 6 -306 6 q-200 0 -299 -6 l9 41 q87 3 134.5 21 q47.5 18 74.5 58 q27 40 51 118 l309 1160 q-159 23 -264 23 q-178 0 -230 -35 q16 -21 26.5 -54.5 q10.5 -33.5 10.5 -63.5 q0 -47 -26 -83 q-26 -36 -76 -36 q-44 0 -67 27.5 q-23 27.5 -23 74.5 q0 107 108 160 q96 47 275 47 q130 0 341 -29 q214 -28 333 -28 q91 0 152.5 10 q61.5 10 110.5 35 q-50 52 -50 115 q0 46 25.5 79 q25.5 33 74.5 33 Z" /><glyph glyph-name="Tbar" unicode="&#x166;" d="M1577 1673 q45 0 68.5 -28 q23.5 -28 23.5 -70 q0 -45 -26.5 -83 q-26.5 -38 -69.5 -65 q-109 -67 -324 -67 q-89 0 -210 14 l-166 -624 l329 0 l-10 -41 l-330 0 l-125 -471 q-18 -65 -18 -104 q0 -35 17 -54.5 q17 -19.5 53.5 -28 q36.5 -8.5 101.5 -10.5 l-8 -41 q-108 6 -306 6 q-200 0 -299 -6 l9 41 q87 3 134.5 21 q47.5 18 74.5 58 q27 40 51 118 l125 471 l-328 0 l10 41 l329 0 l173 648 q-159 23 -264 23 q-178 0 -230 -35 q16 -21 26.5 -54.5 q10.5 -33.5 10.5 -63.5 q0 -47 -26 -83 q-26 -36 -76 -36 q-44 0 -67 27.5 q-23 27.5 -23 74.5 q0 107 108 160 q96 47 275 47 q130 0 341 -29 q214 -28 333 -28 q91 0 152.5 10 q61.5 10 110.5 35 q-50 52 -50 115 q0 46 25.5 79 q25.5 33 74.5 33 Z" /><glyph glyph-name="Tcedilla" unicode="&#x162;" d="M1573 1673 q45 0 68.5 -28 q23.5 -28 23.5 -70 q0 -45 -26.5 -83 q-26.5 -38 -69.5 -65 q-109 -67 -324 -67 q-89 0 -210 14 l-302 -1136 q-18 -65 -18 -104 q0 -35 17 -54.5 q17 -19.5 53.5 -28 q36.5 -8.5 101.5 -10.5 l-8 -41 q-99 6 -276 6 l-73 -153 q51 14 104 14 q51 0 80 -22 q29 -22 29 -60 q0 -56 -48.5 -94.5 q-48.5 -38.5 -121 -57 q-72.5 -18.5 -143.5 -18.5 q-67 0 -121 13 q-54 13 -84 32 l14 31 q71 -27 164 -27 q38 0 87 10 q49 10 85.5 33.5 q36.5 23.5 36.5 61.5 q0 49 -78 49 q-42 0 -84 -15 l97 203 q-181 0 -273 -6 l9 41 q87 3 134.5 21 q47.5 18 74.5 58 q27 40 51 118 l309 1160 q-159 23 -264 23 q-178 0 -230 -35 q16 -21 26.5 -54.5 q10.5 -33.5 10.5 -63.5 q0 -47 -26 -83 q-26 -36 -76 -36 q-44 0 -67 27.5 q-23 27.5 -23 74.5 q0 107 108 160 q96 47 275 47 q130 0 341 -29 q214 -28 333 -28 q91 0 152.5 10 q61.5 10 110.5 35 q-50 52 -50 115 q0 46 25.5 79 q25.5 33 74.5 33 Z" /><glyph glyph-name="U" unicode="u" d="M1292 1212 q14 56 14 91 q0 56 -35 79 q-35 23 -116 27 l10 41 q70 -6 207 -6 q123 0 193 6 l-11 -41 q-72 -3 -111.5 -21 q-39.5 -18 -63 -58 q-23.5 -40 -42.5 -118 l-159 -616 q-75 -285 -201 -434 q-75 -88 -185 -139.5 q-110 -51.5 -235 -51.5 q-219 0 -315 111 q-72 80 -72 208 q0 106 51 300 l170 643 q17 65 17 98 q0 31 -13.5 47 q-13.5 16 -42.5 22.5 q-29 6.5 -82 8.5 l13 41 q82 -6 264 -6 q157 0 256 6 l-12 -41 q-75 -3 -112 -16 q-37 -13 -58 -48 q-21 -35 -41 -112 l-181 -678 q-45 -177 -45 -277 q0 -113 55.5 -174 q55.5 -61 186.5 -61 q215 0 338.5 139.5 q123.5 139.5 189.5 390.5 l168 639 Z" /><glyph glyph-name="Uogonek" unicode="&#x172;" d="M1372 1444 q122 0 193 6 l-11 -41 q-72 -3 -111.5 -21 q-39.5 -18 -63 -58 q-23.5 -40 -42.5 -118 l-159 -616 q-75 -285 -201 -434 q-110 -129 -278 -173 q-81 -31 -136 -82 q-55 -51 -55 -118 q0 -76 80 -76 q39 0 84.5 16.5 q45.5 16.5 73.5 37.5 l22 -35 q-123 -117 -264 -117 q-74 0 -113 32 q-39 32 -39 87 q0 134 231 238 l-26 -1 q-219 0 -315 111 q-72 80 -72 208 q0 106 51 300 l170 643 q17 65 17 98 q0 31 -13.5 47 q-13.5 16 -42.5 22.5 q-29 6.5 -82 8.5 l13 41 q82 -6 264 -6 q157 0 256 6 l-12 -41 q-75 -3 -112 -16 q-37 -13 -58 -48 q-21 -35 -41 -112 l-181 -678 q-45 -177 -45 -277 q0 -113 55.5 -174 q55.5 -61 186.5 -61 q215 0 338.5 139.5 q123.5 139.5 189.5 390.5 l168 639 q14 56 14 91 q0 56 -35 79 q-35 23 -116 27 l10 41 q70 -6 207 -6 Z" /><glyph glyph-name="V" unicode="v" d="M1364 1444 q91 0 156 6 l-11 -41 q-109 -23 -206 -178 l-807 -1241 l-31 0 l-162 1288 q-8 67 -39 98 q-31 31 -67 33 l10 41 q80 -6 221 -6 q156 0 246 6 l-10 -41 q-64 -3 -98 -11.5 q-34 -8.5 -52 -33 q-18 -24.5 -18 -74.5 q0 -13 4 -53 l116 -989 l568 870 q88 135 88 203 q0 45 -37.5 65.5 q-37.5 20.5 -114.5 22.5 l10 41 q114 -6 234 -6 Z" /><glyph glyph-name="W" unicode="w" d="M1880 1444 q92 0 156 6 l-11 -41 q-121 -25 -194 -178 l-612 -1241 l-33 0 l-147 933 l-556 -933 l-32 0 l-162 1288 q-18 127 -113 131 l8 41 q84 -6 203 -6 q148 0 221 6 l-8 -41 q-63 -4 -90.5 -28.5 q-27.5 -24.5 -27.5 -90.5 q0 -23 3 -53 l115 -977 l429 726 l-46 292 q-20 127 -92 131 l8 41 q73 -6 182 -6 q177 0 262 6 l-8 -41 q-62 -3 -95.5 -12 q-33.5 -9 -49.5 -31 q-16 -22 -16 -64 q0 -27 6 -65 l146 -931 l400 812 q68 136 68 200 q0 50 -38 69.5 q-38 19.5 -120 21.5 l11 41 q112 -6 233 -6 Z" /><glyph glyph-name="X" unicode="x" d="M1413 1479 q63 0 92.5 -29.5 q29.5 -29.5 29.5 -76.5 q0 -30 -13 -64 q-13 -34 -40.5 -58 q-27.5 -24 -68.5 -24 q-39 0 -58.5 22.5 q-19.5 22.5 -19.5 55.5 q0 31 18.5 67.5 q18.5 36.5 47.5 63.5 l-6 0 q-71 0 -131 -43 q-92 -67 -206 -226 q-114 -159 -219 -386 l54 -464 q12 -108 49 -170.5 q37 -62.5 113 -62.5 q60 0 97 37.5 q37 37.5 67 122.5 l34 104 l41 0 l-53 -158 q-38 -112 -99.5 -165.5 q-61.5 -53.5 -150.5 -53.5 q-134 0 -192.5 90 q-58.5 90 -75.5 230 l-37 322 q-81 -169 -207 -329.5 q-126 -160.5 -237 -240.5 q-95 -72 -189 -72 q-63 0 -92.5 29.5 q-29.5 29.5 -29.5 76.5 q0 30 13 64 q13 34 40.5 58 q27.5 24 68.5 24 q40 0 59 -22.5 q19 -22.5 19 -55.5 q0 -30 -18 -67 q-18 -37 -47 -64 l8 0 q69 3 129 43 q106 70 234 230.5 q128 160.5 241 392.5 l-53 453 q-13 108 -50 170.5 q-37 62.5 -112 62.5 q-60 0 -97 -37.5 q-37 -37.5 -67 -122.5 l-35 -104 l-41 0 l53 158 q39 112 100.5 165.5 q61.5 53.5 149.5 53.5 q134 0 192.5 -89.5 q58.5 -89.5 76.5 -230.5 l37 -316 q80 173 188.5 329 q108.5 156 204.5 235 q93 72 188 72 Z" /><glyph glyph-name="Y" unicode="y" d="M1434 1479 q60 0 87 -31.5 q27 -31.5 27 -78.5 q0 -30 -13 -63 q-13 -33 -40.5 -56 q-27.5 -23 -67.5 -23 q-77 0 -77 81 q0 33 18 67 q18 34 47 61 l-6 0 q-55 -3 -113 -45 q-107 -78 -230.5 -251.5 q-123.5 -173.5 -237.5 -447.5 l-119 -475 q-17 -66 -17 -99 q0 -30 13.5 -46 q13.5 -16 42 -22.5 q28.5 -6.5 81.5 -8.5 l-10 -41 q-92 6 -254 6 q-180 0 -268 -6 l10 41 q74 3 111 16 q37 13 59 48.5 q22 35.5 41 111.5 l120 478 q-73 671 -239 671 q-35 0 -58 -22 q-23 -22 -40 -74 l-57 -168 l-45 0 l67 198 q22 64 46 102 q24 38 61 57.5 q37 19.5 94 19.5 q108 0 174.5 -88 q66.5 -88 103.5 -245.5 q37 -157.5 64 -408.5 q148 372 383 609 q133 133 242 133 Z" /><glyph glyph-name="Z" unicode="z" d="M1460 1460 q12 -10 12 -27 q0 -28 -38 -62.5 q-38 -34.5 -115 -63.5 l-567 -557 l311 0 l-16 -41 l-336 0 l-580 -570 q188 111 354 111 q58 0 103.5 -14 q45.5 -14 114.5 -43 q65 -29 113.5 -43.5 q48.5 -14.5 107.5 -14.5 q68 0 103.5 35.5 q35.5 35.5 35.5 99.5 q0 120 -148 150 l9 41 q92 -17 154.5 -73.5 q62.5 -56.5 62.5 -164.5 q0 -73 -30 -130 q-30 -57 -86.5 -89.5 q-56.5 -32.5 -131.5 -32.5 q-47 0 -87.5 15 q-40.5 15 -72.5 37 q-32 22 -79 59 q-45 36 -76 57.5 q-31 21.5 -70 36 q-39 14.5 -84 14.5 q-79 0 -142.5 -21.5 q-63.5 -21.5 -160.5 -70.5 q-37 -53 -78.5 -86 q-41.5 -33 -72.5 -33 q-16 0 -29 11 q-12 10 -12 27 q0 28 38 62.5 q38 34.5 115 63.5 l576 566 l-332 0 l14 41 l359 0 l571 561 q-188 -111 -355 -111 q-58 0 -103.5 14 q-45.5 14 -114.5 43 q-66 29 -113.5 43.5 q-47.5 14.5 -106.5 14.5 q-68 0 -103.5 -35.5 q-35.5 -35.5 -35.5 -99.5 q0 -120 147 -150 l-8 -41 q-92 17 -154.5 73.5 q-62.5 56.5 -62.5 164.5 q0 73 30 130 q30 57 86.5 89.5 q56.5 32.5 131.5 32.5 q47 0 87.5 -15 q40.5 -15 72.5 -37 q32 -22 78 -59 q47 -37 77.5 -58 q30.5 -21 69.5 -35.5 q39 -14.5 84 -14.5 q79 0 142 21 q63 21 161 71 q37 53 77.5 86 q40.5 33 72.5 33 q16 0 30 -11 Z" /><glyph glyph-name="a" unicode="a" d="M1034 172 q9 -68 37 -98.5 q28 -30.5 64 -32.5 l-11 -41 q-82 6 -223 6 q-165 0 -246 -6 l11 41 q63 3 101 14.5 q38 11.5 58 39 q20 27.5 20 78.5 q0 18 -3 40 l-31 254 l-519 0 l-140 -174 q-81 -99 -81 -164 q0 -78 124 -88 l0 -41 q-61 6 -187 6 q-125 0 -178 -6 l0 41 q90 23 223 190 l824 1029 l30 0 l127 -1088 ZM743 1027 l-418 -519 l481 0 l-63 519 Z" /><glyph glyph-name="aogonek" unicode="&#x105;" d="M1062 3 q-93 -28 -162.5 -83 q-69.5 -55 -69.5 -131 q0 -76 80 -76 q39 0 84.5 16.5 q45.5 16.5 73.5 37.5 l22 -35 q-123 -117 -264 -117 q-74 0 -113 32 q-39 32 -39 87 q0 91 96 160 q96 69 221 111 l-90 1 q-165 0 -246 -6 l11 41 q63 3 101 14.5 q38 11.5 58 39 q20 27.5 20 78.5 q0 18 -3 40 l-31 254 l-519 0 l-140 -174 q-81 -99 -81 -164 q0 -78 124 -88 l0 -41 q-62 6 -187 6 q-126 0 -178 -6 l0 41 q90 23 223 190 l824 1029 l30 0 l127 -1088 q9 -68 37 -98.5 q28 -30.5 64 -32.5 l-11 -41 l-62 3 ZM743 1027 l-418 -519 l481 0 l-63 519 Z" /><glyph glyph-name="ae" unicode="æ" d="M1450 1239 q292 0 420 6 q-34 -93 -78 -241 q-19 -69 -27 -127 l-45 0 q15 86 15 144 q0 96 -42.5 136.5 q-42.5 40.5 -138.5 40.5 l-190 0 q-72 0 -107 -11.5 q-35 -11.5 -56.5 -46.5 q-21.5 -35 -41.5 -112 l-102 -381 l215 0 q58 0 96.5 30.5 q38.5 30.5 62 76 q23.5 45.5 52.5 123.5 l45 0 q-23 -69 -54 -188 l-16 -62 q-22 -82 -53 -250 l-45 0 q0 11 5 63 q5 37 5 63 q0 46 -22.5 72.5 q-22.5 26.5 -83.5 30.5 l-218 0 l-104 -389 q-17 -66 -17 -99 q0 -30 13.5 -45 q13.5 -15 41.5 -20.5 q28 -5.5 79 -5.5 l211 0 q99 0 162 34 q63 34 109.5 111 q46.5 77 94.5 218 l45 0 q-13 -35 -43 -148 q-35 -127 -53 -262 q-139 6 -463 6 q-389 0 -590 -6 l9 41 q74 3 110.5 16 q36.5 13 58.5 48 q22 35 42 112 l104 389 l-398 0 l-366 -413 q-59 -67 -59 -97 q0 -45 127 -55 l0 -41 q-55 6 -176 6 q-88 0 -138 -6 l0 41 q64 3 177 131 l904 1024 q-33 7 -79 8 l10 41 l110 -3 l99 112 l53 0 l-100 -113 q166 -2 430 -2 ZM969 1028 q17 65 17 98 q0 38 -21 53 l-471 -532 l373 0 l102 381 Z" /><glyph glyph-name="b" unicode="b" d="M758 664 q177 -25 256.5 -96.5 q79.5 -71.5 79.5 -176.5 q0 -109 -77 -198.5 q-77 -89.5 -205.5 -141 q-128.5 -51.5 -274.5 -51.5 q-70 0 -150 3 q-183 3 -203 3 q-163 0 -250 -6 l9 41 q74 3 110.5 16 q36.5 13 58.5 48 q22 35 42 112 l217 811 q18 65 18 98 q0 42 -31 60 q-31 18 -108 18 l10 41 q83 -6 244 -6 q44 0 138 2 q98 2 151 2 q190 0 287.5 -59 q97.5 -59 97.5 -162 q0 -85 -59 -156.5 q-59 -71.5 -154 -122 q-95 -50.5 -207 -79.5 ZM571 668 q120 0 212 46.5 q92 46.5 142 124.5 q50 78 50 169 q0 99 -53 147.5 q-53 48.5 -168 48.5 q-63 0 -97 -11.5 q-34 -11.5 -54 -42 q-20 -30.5 -36 -91.5 l-104 -391 l108 0 ZM449 47 q172 0 268.5 46.5 q96.5 46.5 134 128 q37.5 81.5 37.5 200.5 q0 211 -293 211 l-142 0 l-110 -416 q-19 -73 -19 -101 q0 -38 27.5 -53.5 q27.5 -15.5 96.5 -15.5 Z" /><glyph glyph-name="c" unicode="c" d="M561 -29 q-149 0 -255.5 50 q-106.5 50 -163 146.5 q-56.5 96.5 -56.5 233.5 q0 207 105 410 q105 203 296.5 333 q191.5 130 438.5 130 q112 0 180.5 -35.5 q68.5 -35.5 122.5 -97.5 q15 -18 29 -18 q38 0 83 122 l45 0 q-64 -189 -133 -471 l-45 0 q13 101 13 158 q0 78 -33 145 q-37 78 -111.5 119 q-74.5 41 -169.5 41 q-162 0 -304 -135.5 q-142 -135.5 -227 -341 q-85 -205.5 -85 -400.5 q0 -169 77 -260.5 q77 -91.5 212 -91.5 q94 0 194 42 q100 42 174 118 q54 56 93 126 q39 70 92 198 l45 0 q-97 -355 -121 -492 l-45 0 q6 44 6 70 q0 52 -26 52 q-16 0 -42 -18 q-93 -65 -182.5 -99 q-89.5 -34 -206.5 -34 Z" /><glyph glyph-name="ccedilla" unicode="ç" d="M1386 1245 q-64 -189 -133 -471 l-45 0 q13 101 13 158 q0 78 -33 145 q-37 78 -111.5 119 q-74.5 41 -169.5 41 q-162 0 -304 -135.5 q-142 -135.5 -227 -341 q-85 -205.5 -85 -400.5 q0 -169 77 -260.5 q77 -91.5 212 -91.5 q94 0 194 42 q100 42 174 118 q54 56 93 126 q39 70 92 198 l45 0 q-97 -355 -121 -492 l-45 0 q6 44 6 70 q0 52 -26 52 q-16 0 -42 -18 q-88 -62 -173.5 -96 q-85.5 -34 -194.5 -37 l-56 -118 q51 14 104 14 q51 0 80 -22 q29 -22 29 -60 q0 -56 -48.5 -94.5 q-48.5 -38.5 -121 -57 q-72.5 -18.5 -143.5 -18.5 q-67 0 -121 13 q-54 13 -84 32 l14 31 q71 -27 164 -27 q38 0 87 10 q49 10 85.5 33.5 q36.5 23.5 36.5 61.5 q0 49 -78 49 q-42 0 -84 -15 l81 169 q-210 8 -325.5 119.5 q-115.5 111.5 -115.5 309.5 q0 207 105 410 q105 203 296.5 333 q191.5 130 438.5 130 q112 0 180.5 -35.5 q68.5 -35.5 122.5 -97.5 q15 -18 29 -18 q38 0 83 122 l45 0 Z" /><glyph glyph-name="d" unicode="d" d="M1393 793 q0 -225 -113 -406 q-113 -181 -321 -284 q-208 -103 -484 -103 q-47 0 -119 3 q-171 3 -168 3 q-165 0 -245 -6 l6 41 q70 3 105.5 16 q35.5 13 57.5 48.5 q22 35.5 42 111.5 l215 811 q19 67 19 100 q0 42 -30.5 58.5 q-30.5 16.5 -107.5 17.5 l6 41 q110 -7 200 -7 l50 1 l84 2 q160 4 225 4 q288 0 433 -115 q145 -115 145 -337 ZM451 37 q255 0 421.5 101.5 q166.5 101.5 245 282 q78.5 180.5 78.5 423.5 q0 185 -104 274.5 q-104 89.5 -334 89.5 q-64 0 -100 -14.5 q-36 -14.5 -58 -51.5 q-22 -37 -41 -110 l-215 -819 q-18 -69 -18 -102 q0 -40 27.5 -57 q27.5 -17 97.5 -17 Z" /><glyph glyph-name="eth" unicode="ð" d="M815 1245 q288 0 433 -115 q145 -115 145 -337 q0 -225 -113 -406 q-113 -181 -321 -284 q-208 -103 -484 -103 q-47 0 -119 3 q-171 3 -168 3 q-165 0 -245 -6 l6 41 q70 3 105.5 16 q35.5 13 57.5 48.5 q22 35.5 42 111.5 l102 386 l-166 0 l12 51 l168 0 l99 374 q19 67 19 100 q0 42 -30.5 58.5 q-30.5 16.5 -107.5 17.5 l6 41 q110 -7 200 -7 l50 1 l84 2 q160 4 225 4 ZM451 37 q255 0 421.5 101.5 q166.5 101.5 245 282 q78.5 180.5 78.5 423.5 q0 185 -104 274.5 q-104 89.5 -334 89.5 q-64 0 -100 -14.5 q-36 -14.5 -58 -51.5 q-22 -37 -41 -110 l-99 -378 l363 0 l-12 -51 l-365 0 l-102 -390 q-18 -69 -18 -102 q0 -40 27.5 -57 q27.5 -17 97.5 -17 Z" /><glyph glyph-name="e" unicode="e" d="M834 1239 q309 0 444 6 q-30 -75 -74 -221 l-6 -23 q-22 -88 -29 -124 l-47 0 q19 93 19 149 q0 63 -22 100.5 q-22 37.5 -70 54.5 q-48 17 -127 17 l-150 0 q-74 0 -110.5 -11.5 q-36.5 -11.5 -58.5 -46.5 q-22 -35 -42 -112 l-103 -381 l191 0 q65 0 110.5 37 q45.5 37 70.5 83 q25 46 51 110 l47 0 q-52 -157 -74 -250 l-13 -49 q-28 -106 -42 -201 l-47 0 q9 58 9 94 q0 64 -31.5 99.5 q-31.5 35.5 -113.5 35.5 l-169 0 l-105 -389 q-17 -66 -17 -99 q0 -30 13.5 -45 q13.5 -15 42.5 -20.5 q29 -5.5 82 -5.5 l149 0 q112 0 187.5 34.5 q75.5 34.5 131.5 112.5 q56 78 107 216 l47 0 q-35 -108 -49 -168 q-24 -81 -51 -242 q-143 6 -481 6 q-379 0 -574 -6 l11 41 q74 3 110.5 16 q36.5 13 58.5 48 q22 35 42 112 l219 811 q17 66 17 100 q0 30 -13.5 45.5 q-13.5 15.5 -42 22 q-28.5 6.5 -80.5 8.5 l10 41 q193 -6 572 -6 Z" /><glyph glyph-name="eogonek" unicode="&#x119;" d="M834 1239 q309 0 444 6 q-30 -75 -74 -221 l-6 -23 q-22 -88 -29 -124 l-47 0 q19 93 19 149 q0 63 -22 100.5 q-22 37.5 -70 54.5 q-48 17 -127 17 l-150 0 q-74 0 -110.5 -11.5 q-36.5 -11.5 -58.5 -46.5 q-22 -35 -42 -112 l-103 -381 l191 0 q65 0 110.5 37 q45.5 37 70.5 83 q25 46 51 110 l47 0 q-52 -157 -74 -250 l-13 -49 q-28 -106 -42 -201 l-47 0 q9 58 9 94 q0 64 -31.5 99.5 q-31.5 35.5 -113.5 35.5 l-169 0 l-105 -389 q-17 -66 -17 -99 q0 -30 13.5 -45 q13.5 -15 42.5 -20.5 q29 -5.5 82 -5.5 l149 0 q112 0 187.5 34.5 q75.5 34.5 131.5 112.5 q56 78 107 216 l47 0 q-35 -108 -49 -168 q-24 -81 -51 -242 l-54 2 q-92 -28 -160 -83 q-68 -55 -68 -130 q0 -76 80 -76 q39 0 84.5 16.5 q45.5 16.5 73.5 37.5 l22 -35 q-123 -117 -264 -117 q-74 0 -113 32 q-39 32 -39 87 q0 91 94.5 159.5 q94.5 68.5 218.5 110.5 q-119 2 -356 2 q-379 0 -574 -6 l11 41 q74 3 110.5 16 q36.5 13 58.5 48 q22 35 42 112 l219 811 q17 66 17 100 q0 30 -13.5 45.5 q-13.5 15.5 -42 22 q-28.5 6.5 -80.5 8.5 l10 41 q193 -6 572 -6 Z" /><glyph glyph-name="f" unicode="f" d="M834 1239 q315 0 450 6 q-30 -75 -74 -221 q-29 -117 -34 -147 l-48 0 q18 86 18 145 q0 95 -52 135.5 q-52 40.5 -172 40.5 l-150 0 q-74 0 -110.5 -11.5 q-36.5 -11.5 -58.5 -46.5 q-22 -35 -42 -112 l-103 -381 l212 0 q65 0 110 37 q45 37 70 83 q25 46 51 110 l47 0 q-45 -136 -74 -250 l-12 -48 q-27 -99 -43 -202 l-47 0 q8 64 8 96 q0 63 -26.5 98 q-26.5 35 -96.5 35 l-210 0 l-105 -389 q-15 -57 -15 -90 q0 -34 17 -52 q17 -18 53.5 -25 q36.5 -7 104.5 -9 l-10 -41 q-105 6 -299 6 q-173 0 -263 -6 l11 41 q74 3 110.5 16 q36.5 13 58.5 48 q22 35 42 112 l219 811 q17 66 17 100 q0 30 -13.5 45.5 q-13.5 15.5 -42 22 q-28.5 6.5 -80.5 8.5 l10 41 q193 -6 572 -6 Z" /><glyph glyph-name="g" unicode="g" d="M1053 0 q6 28 6 44 q0 52 -31 52 q-33 0 -108 -47 q-68 -41 -143 -59.5 q-75 -18.5 -175 -18.5 q-251 0 -383.5 111 q-132.5 111 -132.5 317 q0 201 102 404.5 q102 203.5 293.5 337 q191.5 133.5 444.5 133.5 q84 0 145 -17 q61 -17 104 -45 q43 -28 87 -71 q19 -19 35 -19 q39 0 81 123 l45 0 q-66 -193 -131 -471 l-45 0 q10 88 10 154 q0 94 -28 149 q-43 75 -127.5 117.5 q-84.5 42.5 -188.5 42.5 q-209 0 -353 -154 q-144 -154 -214 -367.5 q-70 -213.5 -70 -383.5 q0 -163 87.5 -241.5 q87.5 -78.5 267.5 -78.5 q61 0 129.5 16 q68.5 16 123 52.5 q54.5 36.5 70.5 95.5 l37 137 q19 71 19 106 q0 36 -17 54 q-17 18 -52.5 26 q-35.5 8 -102.5 11 l8 41 q108 -6 289 -6 q138 0 213 6 l-9 -41 q-51 -3 -75.5 -15.5 q-24.5 -12.5 -41 -47 q-16.5 -34.5 -38.5 -113.5 l-90 -334 l-41 0 Z" /><glyph glyph-name="h" unicode="h" d="M1364 1239 q175 0 264 6 l-10 -41 q-75 -3 -111.5 -16 q-36.5 -13 -58 -48 q-21.5 -35 -41.5 -112 l-215 -811 q-17 -66 -17 -99 q0 -30 13.5 -46 q13.5 -16 42.5 -22.5 q29 -6.5 82 -8.5 l-8 -41 q-87 6 -263 6 q-164 0 -260 -6 l9 41 q74 3 110.5 16 q36.5 13 58 48 q21.5 35 41.5 112 l104 389 l-658 0 l-103 -389 q-17 -66 -17 -99 q0 -30 13.5 -46 q13.5 -16 42.5 -22.5 q29 -6.5 82 -8.5 l-8 -41 q-96 6 -260 6 q-172 0 -260 -6 l10 41 q72 3 108 16 q36 13 57.5 48.5 q21.5 35.5 41.5 111.5 l215 811 q17 65 17 98 q0 31 -14 47 q-14 16 -42.5 22.5 q-28.5 6.5 -81.5 8.5 l10 41 q82 -6 260 -6 q165 0 262 6 l-10 -41 q-75 -3 -111.5 -16 q-36.5 -13 -58 -48 q-21.5 -35 -41.5 -112 l-101 -381 l658 0 l101 381 q17 65 17 98 q0 31 -14 47 q-14 16 -42.5 22.5 q-28.5 6.5 -81.5 8.5 l10 41 q91 -6 258 -6 Z" /><glyph glyph-name="hbar" unicode="&#x127;" d="M1618 1204 q-75 -3 -111.5 -16 q-36.5 -13 -58 -48 q-21.5 -35 -41.5 -112 l-26 -98 l180 0 l-11 -41 l-180 0 l-178 -672 q-17 -66 -17 -99 q0 -30 13.5 -46 q13.5 -16 42.5 -22.5 q29 -6.5 82 -8.5 l-8 -41 q-87 6 -263 6 q-164 0 -260 -6 l9 41 q74 3 110.5 16 q36.5 13 58 48 q21.5 35 41.5 112 l104 389 l-658 0 l-103 -389 q-17 -66 -17 -99 q0 -30 13.5 -46 q13.5 -16 42.5 -22.5 q29 -6.5 82 -8.5 l-8 -41 q-96 6 -260 6 q-172 0 -260 -6 l10 41 q72 3 108 16 q36 13 57.5 48.5 q21.5 35.5 41.5 111.5 l178 672 l-160 0 l10 41 l161 0 l26 98 q17 65 17 98 q0 31 -14 47 q-14 16 -42.5 22.5 q-28.5 6.5 -81.5 8.5 l10 41 q82 -6 260 -6 q165 0 262 6 l-10 -41 q-75 -3 -111.5 -16 q-36.5 -13 -58 -48 q-21.5 -35 -41.5 -112 l-26 -98 l658 0 l26 98 q17 65 17 98 q0 31 -14 47 q-14 16 -42.5 22.5 q-28.5 6.5 -81.5 8.5 l10 41 q91 -6 258 -6 q175 0 264 6 l-10 -41 ZM522 889 l-64 -242 l658 0 l64 242 l-658 0 Z" /><glyph glyph-name="i" unicode="i" d="M344 217 q-17 -66 -17 -99 q0 -30 13.5 -46 q13.5 -16 42.5 -22.5 q29 -6.5 82 -8.5 l-8 -41 q-96 6 -260 6 q-172 0 -260 -6 l10 41 q72 3 108 16 q36 13 57.5 48.5 q21.5 35.5 41.5 111.5 l215 811 q17 65 17 98 q0 31 -14 47 q-14 16 -42.5 22.5 q-28.5 6.5 -81.5 8.5 l10 41 q82 -6 260 -6 q165 0 262 6 l-10 -41 q-75 -3 -111.5 -16 q-36.5 -13 -58 -48 q-21.5 -35 -41.5 -112 l-215 -811 Z" /><glyph glyph-name="dotlessi" unicode="&#x131;" d="M324 879 q15 45 15 75 q0 52 -44 52 q-47 0 -84 -49.5 q-37 -49.5 -78 -159.5 l-29 -76 l-38 0 l53 149 q42 117 110 164 q68 47 144 47 q136 0 136 -128 q0 -60 -34 -158 l-219 -621 q-16 -44 -16 -75 q0 -52 49 -52 q42 0 79 46.5 q37 46.5 81 162.5 l28 76 l39 0 l-53 -150 q-40 -111 -107 -161 q-67 -50 -145 -50 q-143 0 -143 125 q0 63 36 162 l220 621 Z" /><glyph glyph-name="ij" unicode="&#x133;" d="M1794 1270 q13 -11 13 -25 q0 -49 -150 -106 q-88 -71 -149 -158 q-61 -87 -105 -193.5 q-44 -106.5 -93 -263.5 l206 0 l-7 -41 l-211 0 l-4 -12 l-143 -481 q-32 -106 -97 -191 q-65 -85 -163.5 -134.5 q-98.5 -49.5 -222.5 -49.5 q-96 0 -152.5 30 q-56.5 30 -56.5 87 q0 29 14.5 55.5 q14.5 26.5 40 43.5 q25.5 17 57.5 17 q38 0 62 -24.5 q24 -24.5 24 -60.5 q0 -34 -23 -62 q-23 -28 -59 -43 q32 -10 72 -10 q100 0 159.5 49.5 q59.5 49.5 95 134.5 q35.5 85 87.5 258 l19 64 l67 225 q13 42 35 104 l-258 0 l6 41 l267 0 q56 140 128 242 q72 102 150 176 q78 74 219 191 q-259 -123 -446 -123 q-97 0 -176.5 14.5 q-79.5 14.5 -184.5 42.5 q-111 29 -188.5 43 q-77.5 14 -173.5 14 q-87 0 -139 -33 q-52 -33 -52 -96 q0 -60 48.5 -96 q48.5 -36 119 -50.5 q70.5 -14.5 141.5 -14.5 q76 0 157 15.5 q81 15.5 151 43.5 l10 -31 q-115 -52 -259 -65 l-171 -580 q-19 -68 -19 -99 q0 -30 14 -45.5 q14 -15.5 43.5 -22.5 q29.5 -7 82.5 -9 l-9 -41 q-94 6 -260 6 q-170 0 -260 -6 l10 41 q71 3 106.5 16.5 q35.5 13.5 57 48 q21.5 34.5 43.5 111.5 l174 583 q-115 17 -190.5 71 q-75.5 54 -75.5 157 q0 73 38.5 132.5 q38.5 59.5 105.5 93.5 q67 34 151 34 q74 0 139 -15 q65 -15 118 -36.5 q53 -21.5 129 -58.5 q73 -36 125.5 -58 q52.5 -22 116.5 -36.5 q64 -14.5 136 -14.5 q74 0 136.5 11 q62.5 11 116.5 28.5 q54 17.5 150 52.5 q79 120 129 120 q14 0 27 -11 Z" /><glyph glyph-name="iogonek" unicode="&#x12f;" d="M518 1239 q165 0 262 6 l-10 -41 q-75 -3 -111.5 -16 q-36.5 -13 -58 -48 q-21.5 -35 -41.5 -112 l-215 -811 q-17 -66 -17 -99 q0 -30 13.5 -46 q13.5 -16 42.5 -22.5 q29 -6.5 82 -8.5 l-8 -41 l-17 1 q-91 -29 -158 -83.5 q-67 -54.5 -67 -128.5 q0 -76 80 -76 q39 0 84.5 16.5 q45.5 16.5 73.5 37.5 l22 -35 q-123 -117 -264 -117 q-74 0 -113 32 q-39 32 -39 87 q0 91 94.5 159.5 q94.5 68.5 218.5 110.5 q-108 2 -175 2 q-172 0 -260 -6 l10 41 q72 3 108 16 q36 13 57.5 48.5 q21.5 35.5 41.5 111.5 l215 811 q17 65 17 98 q0 31 -14 47 q-14 16 -42.5 22.5 q-28.5 6.5 -81.5 8.5 l10 41 q83 -6 260 -6 Z" /><glyph glyph-name="j" unicode="j" d="M1378 1270 q13 -11 13 -25 q0 -49 -150 -106 q-88 -71 -148.5 -158.5 q-60.5 -87.5 -105 -194 q-44.5 -106.5 -92.5 -262.5 l205 0 l-6 -41 l-211 0 l-4 -12 l-144 -481 q-32 -106 -97 -191 q-65 -85 -163.5 -134.5 q-98.5 -49.5 -222.5 -49.5 q-96 0 -152.5 30 q-56.5 30 -56.5 87 q0 29 14.5 55.5 q14.5 26.5 40.5 43.5 q26 17 58 17 q37 0 61.5 -24.5 q24.5 -24.5 24.5 -60.5 q0 -34 -23 -61.5 q-23 -27.5 -59 -43.5 q30 -10 71 -10 q101 0 160.5 49.5 q59.5 49.5 95 134.5 q35.5 85 87.5 260 q-2 -8 18 62 l67 225 q13 42 35 104 l-258 0 l6 41 l267 0 q56 140 128 242 q72 102 150 176 q78 74 219 191 q-95 -58 -179.5 -90.5 q-84.5 -32.5 -164.5 -32.5 q-64 0 -116 14.5 q-52 14.5 -124 42.5 q-75 29 -127 43 q-52 14 -116 14 q-68 0 -102 -35.5 q-34 -35.5 -31 -99.5 q3 -121 151 -149 l-6 -41 q-93 16 -157.5 72.5 q-64.5 56.5 -67.5 164.5 q-3 73 25 130 q28 57 82.5 89.5 q54.5 32.5 129.5 32.5 q51 0 96 -15 q45 -15 80.5 -37 q35.5 -22 87.5 -59 q50 -36 85 -57.5 q35 -21.5 78 -36 q43 -14.5 92 -14.5 q78 0 140.5 21.5 q62.5 21.5 160.5 70.5 q77 120 128 120 q14 0 27 -11 Z" /><glyph glyph-name="dotlessj" unicode="&#x237;" d="M-172 -354 q78 9 124.5 58.5 q46.5 49.5 78.5 162.5 l284 1012 q15 51 15 80 q0 47 -45 47 q-42 0 -79 -48 q-37 -48 -77 -161 l-27 -76 l-39 0 l50 149 q70 211 252 211 q136 0 136 -125 q0 -54 -30 -161 l-158 -559 q-141 -506 -399 -601 q-59 -20 -121 -20 q-46 0 -71 21.5 q-25 21.5 -25 58.5 q0 29 16.5 58.5 q16.5 29.5 44.5 48 q28 18.5 60 18.5 q31 0 49 -18 q18 -18 18 -46 q0 -55 -57 -110 Z" /><glyph glyph-name="k" unicode="k" d="M1239 1274 q63 0 92 -30 q29 -30 29 -80 q0 -27 -12.5 -60.5 q-12.5 -33.5 -39 -57.5 q-26.5 -24 -67.5 -24 q-41 0 -60.5 24 q-19.5 24 -19.5 58 q0 29 19 64.5 q19 35.5 47 62.5 l-6 0 q-25 0 -40.5 -6.5 q-15.5 -6.5 -33.5 -22.5 q-30 -28 -51.5 -75 q-21.5 -47 -50.5 -128 q-37 -103 -69.5 -170 q-32.5 -67 -89.5 -118.5 q-57 -51.5 -143 -62.5 q109 -24 165 -86 q56 -62 56 -186 q0 -23 -1 -36 l-5 -176 q-1 -37 19 -58.5 q20 -21.5 49 -21.5 q52 0 87 38 q35 38 65 122 l34 104 l41 0 l-53 -158 q-38 -112 -99.5 -165.5 q-61.5 -53.5 -150.5 -53.5 q-86 0 -130 50 q-44 50 -44 145 q0 13 2 43 l13 151 q2 17 2 51 q0 82 -23.5 141.5 q-23.5 59.5 -64.5 78.5 q-81 -21 -131 -21 q-66 0 -66 37 q0 39 64 39 q46 0 127 -20 q90 8 147.5 56.5 q57.5 48.5 88.5 113 q31 64.5 65 167.5 q31 90 55 141.5 q24 51.5 61 82.5 q60 47 123 47 ZM344 217 q-17 -66 -17 -99 q0 -30 13.5 -46 q13.5 -16 42.5 -22.5 q29 -6.5 82 -8.5 l-8 -41 q-96 6 -260 6 q-172 0 -260 -6 l10 41 q72 3 108 16 q36 13 57.5 48.5 q21.5 35.5 41.5 111.5 l215 811 q17 65 17 98 q0 31 -14 47 q-14 16 -42.5 22.5 q-28.5 6.5 -81.5 8.5 l10 41 q82 -6 260 -6 q164 0 262 6 l-10 -41 q-75 -3 -111.5 -16 q-36.5 -13 -58 -48 q-21.5 -35 -41.5 -112 l-215 -811 Z" /><glyph glyph-name="kgreenlandic" unicode="&#x138;" d="M948 1081 q63 0 92 -30 q29 -30 29 -79 q0 -28 -12.5 -61.5 q-12.5 -33.5 -39 -57.5 q-26.5 -24 -67.5 -24 q-41 0 -60.5 24 q-19.5 24 -19.5 59 q0 29 19 64.5 q19 35.5 47 61.5 l-4 0 q-23 0 -39 -7 q-16 -7 -37 -21 q-30 -26 -51.5 -66 q-21.5 -40 -52.5 -111 q-34 -83 -64 -136.5 q-30 -53.5 -80.5 -98.5 q-50.5 -45 -124.5 -62 q130 -5 211 -55.5 q81 -50.5 81 -161.5 q0 -21 -3 -45 l-20 -143 q-3 -23 -3 -38 q0 -25 10 -35.5 q10 -10.5 34 -10.5 q41 0 76.5 47.5 q35.5 47.5 74.5 161.5 l25 76 l39 0 l-50 -150 q-68 -211 -243 -211 q-129 0 -129 140 q0 28 4 55 l16 115 q6 37 6 69 q0 55 -21.5 90 q-21.5 35 -72 55 q-50.5 20 -138.5 27 l-132 -522 l-178 0 l245 879 q15 55 15 79 q0 48 -43 48 q-46 0 -83.5 -48.5 q-37.5 -48.5 -76.5 -160.5 l-27 -76 l-39 0 l52 149 q72 211 247 211 q63 0 90 -30 q27 -30 27 -88 q0 -61 -28 -168 l-62 -247 q98 9 160 52 q62 43 95.5 99 q33.5 56 70.5 146 q30 73 53.5 116.5 q23.5 43.5 58.5 72.5 q62 47 123 47 Z" /><glyph glyph-name="l" unicode="l" d="M1100 430 q-43 -125 -58 -188 q-20 -67 -51 -242 q-143 6 -487 6 q-379 0 -574 -6 l11 41 q74 3 110.5 16 q36.5 13 58.5 48 q22 35 42 112 l219 811 q17 66 17 100 q0 30 -13.5 45.5 q-13.5 15.5 -42 22 q-28.5 6.5 -80.5 8.5 l10 41 q82 -6 260 -6 q165 0 262 6 l-10 -41 q-75 -3 -112 -16 q-37 -13 -59 -48 q-22 -35 -42 -112 l-219 -811 q-17 -66 -17 -99 q0 -30 13.5 -45 q13.5 -15 42.5 -20.5 q29 -5.5 82 -5.5 l129 0 q155 0 270.5 89 q115.5 89 190.5 294 l47 0 Z" /><glyph glyph-name="lslash" unicode="&#x142;" d="M1104 430 q-43 -125 -58 -188 q-20 -67 -51 -242 q-143 6 -487 6 q-379 0 -574 -6 l11 41 q74 3 110.5 16 q36.5 13 58.5 48 q22 35 42 112 l62 228 l-202 -101 l13 47 l201 101 l145 536 q17 66 17 100 q0 30 -13.5 45.5 q-13.5 15.5 -42 22 q-28.5 6.5 -80.5 8.5 l10 41 q82 -6 260 -6 q165 0 262 6 l-10 -41 q-75 -3 -112 -16 q-37 -13 -59 -48 q-22 -35 -42 -112 l-120 -446 l597 301 l-12 -47 l-598 -301 l-86 -318 q-17 -66 -17 -99 q0 -30 13.5 -45 q13.5 -15 42.5 -20.5 q29 -5.5 82 -5.5 l129 0 q155 0 270.5 89 q115.5 89 190.5 294 l47 0 Z" /><glyph glyph-name="m" unicode="m" d="M1606 1268 q157 0 256 6 l-11 -41 q-75 -3 -111.5 -16 q-36.5 -13 -58 -48 q-21.5 -35 -41.5 -112 l-223 -840 q-17 -65 -17 -98 q0 -31 14 -47 q14 -16 42.5 -22.5 q28.5 -6.5 81.5 -8.5 l-8 -41 q-96 6 -254 6 q-180 0 -266 -6 l8 41 q75 3 111 16 q36 13 57.5 48 q21.5 35 42.5 112 l248 925 l-801 -1152 l-45 0 l-188 1168 l-242 -920 q-18 -70 -18 -104 q0 -50 34 -70 q34 -20 119 -23 l-10 -41 q-75 6 -207 6 q-126 0 -193 -6 l11 41 q72 3 111.5 20.5 q39.5 17.5 62.5 57.5 q23 40 45 119 l217 819 q17 65 17 98 q0 31 -14 47 q-14 16 -42.5 22.5 q-28.5 6.5 -81.5 8.5 l10 41 q64 -6 182 -6 q101 0 172 6 l162 -1056 l729 1050 l99 0 Z" /><glyph glyph-name="n" unicode="n" d="M1661 1339 q66 0 94.5 -29 q28.5 -29 28.5 -75 q0 -36 -14 -70 q-14 -34 -41.5 -56 q-27.5 -22 -65.5 -22 q-41 0 -59.5 24.5 q-18.5 24.5 -18.5 55.5 q0 34 19 69.5 q19 35.5 47 59.5 l-6 0 q-53 -1 -92.5 -28 q-39.5 -27 -75.5 -76 q-91 -128 -192 -421 q-101 -293 -220 -781 l-45 0 l-466 1124 q-222 -963 -361 -1137 q-33 -40 -61.5 -66.5 q-28.5 -26.5 -68 -44.5 q-39.5 -18 -90.5 -18 q-123 0 -123 107 q0 36 14 69 q14 33 41.5 54.5 q27.5 21.5 65.5 21.5 q42 0 60 -24 q18 -24 18 -56 q0 -33 -18.5 -67.5 q-18.5 -34.5 -46.5 -61.5 l4 0 q100 4 172 107 q145 215 348 1111 q2 39 -11.5 58 q-13.5 19 -46.5 26.5 q-33 7.5 -100 10.5 l10 41 q64 -6 183 -6 q95 0 166 6 l388 -964 q90 333 175 576.5 q85 243.5 168 350.5 q96 131 221 131 Z" /><glyph glyph-name="eng" unicode="&#x14b;" d="M1346 1239 q124 0 192 6 l-10 -41 q-72 -3 -112 -20.5 q-40 -17.5 -63.5 -57.5 q-23.5 -40 -43.5 -118 l-230 -871 q-60 -265 -160 -393.5 q-100 -128.5 -247 -128.5 q-73 0 -127 29 q-54 29 -58 84 q-1 31 14 58.5 q15 27.5 41.5 44.5 q26.5 17 57.5 17 q37 0 61.5 -24.5 q24.5 -24.5 24.5 -60.5 q0 -34 -23.5 -61 q-23.5 -27 -58.5 -44 q32 -10 72 -10 q111 0 190 93.5 q79 93.5 130 250.5 l-554 1141 l-235 -895 q-18 -70 -18 -104 q0 -50 34 -70 q34 -20 119 -23 l-10 -41 q-73 6 -207 6 q-125 0 -193 -6 l11 41 q72 3 111.5 20.5 q39.5 17.5 62.5 57.5 q23 40 45 119 l209 790 q17 65 17 98 q0 31 -14 47 q-14 16 -42.5 22.5 q-28.5 6.5 -81.5 8.5 l10 41 q64 -6 182 -6 q86 0 156 6 l471 -987 l195 750 q18 70 18 103 q0 50 -34 70 q-34 20 -120 23 l11 41 q74 -6 207 -6 Z" /><glyph glyph-name="o" unicode="o" d="M598 -29 q-151 0 -264 54.5 q-113 54.5 -176.5 165 q-63.5 110.5 -63.5 274.5 q0 185 104.5 374 q104.5 189 291 312 q186.5 123 419.5 123 q151 0 264 -54.5 q113 -54.5 176.5 -165 q63.5 -110.5 63.5 -274.5 q0 -185 -104.5 -374 q-104.5 -189 -291 -312 q-186.5 -123 -419.5 -123 ZM891 1237 q-163 0 -295.5 -116.5 q-132.5 -116.5 -207.5 -302 q-75 -185.5 -75 -382.5 q0 -222 81 -325 q81 -103 222 -103 q163 0 295.5 116.5 q132.5 116.5 207.5 302 q75 185.5 75 382.5 q0 222 -81 325 q-81 103 -222 103 Z" /><glyph glyph-name="oslash" unicode="ø" d="M1274 1151 q139 -130 139 -371 q0 -185 -104.5 -374 q-104.5 -189 -291 -312 q-186.5 -123 -419.5 -123 q-216 0 -347 107 l-214 -228 l-35 29 l216 230 q-124 129 -124 356 q0 185 104.5 374 q104.5 189 291 312 q186.5 123 419.5 123 q205 0 332 -96 l258 270 l31 -27 l-256 -270 ZM891 1237 q-163 0 -295.5 -116.5 q-132.5 -116.5 -207.5 -302 q-75 -185.5 -75 -382.5 q0 -122 27 -214 l802 865 q-75 150 -251 150 ZM616 8 q163 0 295.5 116.5 q132.5 116.5 207.5 302 q75 185.5 75 382.5 q0 139 -34 235 l-803 -869 q74 -167 259 -167 Z" /><glyph glyph-name="oe" unicode="&#x153;" d="M1530 1239 q266 0 383 6 q-51 -131 -78 -241 q-8 -33 -19 -89 l-8 -38 l-45 0 q15 86 15 144 q0 96 -42.5 136.5 q-42.5 40.5 -138.5 40.5 l-149 0 q-72 0 -107 -11.5 q-35 -11.5 -56.5 -46.5 q-21.5 -35 -41.5 -112 l-102 -381 l174 0 q58 0 96.5 30.5 q38.5 30.5 62 76 q23.5 45.5 52.5 123.5 l45 0 q-23 -69 -54 -188 l-16 -62 q-32 -118 -53 -250 l-45 0 q0 11 5 63 q5 37 5 63 q0 46 -22.5 72.5 q-22.5 26.5 -83.5 30.5 l-177 0 l-104 -389 q-17 -66 -17 -99 q0 -30 13.5 -45 q13.5 -15 41.5 -20.5 q28 -5.5 79 -5.5 l170 0 q99 0 162.5 34 q63.5 34 110 111 q46.5 77 93.5 218 l45 0 q-12 -27 -26 -86 l-17 -62 q-39 -143 -53 -262 q-127 6 -422 6 q-317 0 -501 -4 q-112 -31 -201 -31 q-197 0 -305.5 112 q-108.5 112 -108.5 318 q0 207 96.5 410 q96.5 203 272 333 q175.5 130 399.5 130 q69 0 164 -29 q270 -6 508 -6 ZM1053 1028 q11 37 11 72 q0 74 -56 105.5 q-56 31.5 -158 31.5 q-146 0 -274 -135.5 q-128 -135.5 -204.5 -341 q-76.5 -205.5 -76.5 -400.5 q0 -169 60.5 -260.5 q60.5 -91.5 166.5 -91.5 q120 0 202 45.5 q82 45.5 112 163.5 l217 811 Z" /><glyph glyph-name="p" unicode="p" d="M809 1243 q201 0 304.5 -71.5 q103.5 -71.5 103.5 -196.5 q0 -135 -95 -243.5 q-95 -108.5 -266.5 -170 q-171.5 -61.5 -390.5 -61.5 l-48 0 l-75 -283 q-17 -70 -17 -98 q0 -39 29.5 -56.5 q29.5 -17.5 108.5 -21.5 l-8 -41 q-96 6 -254 6 q-180 0 -267 -6 l9 41 q74 3 110.5 16 q36.5 13 58.5 48 q22 35 42 112 l215 811 q14 65 14 90 q0 43 -29 62.5 q-29 19.5 -106 23.5 l10 41 q82 -6 252 -6 q47 0 147 2 q100 2 152 2 ZM485 541 q277 0 401 127 q124 127 124 340 q0 100 -62 148 q-62 48 -198 48 q-62 0 -96.5 -15 q-34.5 -15 -56 -52 q-21.5 -37 -40.5 -109 l-129 -487 l57 0 Z" /><glyph glyph-name="thorn" unicode="þ" d="M344 217 q-17 -66 -17 -99 q0 -30 13.5 -46 q13.5 -16 42.5 -22.5 q29 -6.5 82 -8.5 l-8 -41 q-96 6 -260 6 q-172 0 -260 -6 l10 41 q72 3 108 16 q36 13 57.5 48.5 q21.5 35.5 41.5 111.5 l215 811 q17 65 17 98 q0 31 -14 47 q-14 16 -42.5 22.5 q-28.5 6.5 -81.5 8.5 l10 41 q82 -6 260 -6 q164 0 262 6 l-10 -41 q-75 -3 -111.5 -16 q-36.5 -13 -58 -48 q-21.5 -35 -41.5 -112 l-8 -32 l44 1 q100 2 153 2 q200 0 303.5 -71.5 q103.5 -71.5 103.5 -196.5 q0 -135 -95 -243.5 q-95 -108.5 -266 -170 q-171 -61.5 -391 -61.5 l-49 0 l-10 -39 ZM424 297 q276 0 400 127 q124 127 124 340 q0 100 -62 148.5 q-62 48.5 -198 48.5 q-71 0 -147 -2 l-176 -662 l59 0 Z" /><glyph glyph-name="q" unicode="q" d="M1315 61 q46 0 74 -31 q28 -31 28 -83 q0 -97 -77 -173 q-77 -76 -195 -117.5 q-118 -41.5 -234 -41.5 q-110 0 -202.5 37 q-92.5 37 -164.5 92.5 q-72 55.5 -150 134.5 q-159 -47 -279 -47 q-104 0 -160.5 39 q-56.5 39 -56.5 106 q0 82 66 125 q66 43 175 43 q75 0 141.5 -24 q66.5 -24 122.5 -59.5 q56 -35.5 134 -95.5 q195 85 364 223 q169 138 272 311 q103 173 103 354 q0 115 -40.5 201.5 q-40.5 86.5 -119 134 q-78.5 47.5 -188.5 47.5 q-141 0 -261 -69 q-120 -69 -190.5 -189.5 q-70.5 -120.5 -70.5 -265.5 q0 -135 65 -203 q65 -68 174 -68 q73 0 146 36.5 q73 36.5 120 97.5 q47 61 47 131 q0 53 -16 81 q-22 -43 -62.5 -68.5 q-40.5 -25.5 -84.5 -25.5 q-45 0 -71 27 q-26 27 -26 70 q0 53 40 88.5 q40 35.5 98 35.5 q75 0 120 -52 q45 -52 45 -138 q0 -100 -60.5 -175 q-60.5 -75 -158.5 -115 q-98 -40 -207 -40 q-126 0 -210.5 37.5 q-84.5 37.5 -126 104 q-41.5 66.5 -41.5 155.5 q0 176 116 308.5 q116 132.5 291.5 203 q175.5 70.5 345.5 70.5 q156 0 278 -50.5 q122 -50.5 191.5 -147 q69.5 -96.5 69.5 -228.5 q0 -182 -134 -358 q-134 -176 -343.5 -318 q-209.5 -142 -439.5 -233 q77 -58 141.5 -96.5 q64.5 -38.5 143.5 -63.5 q79 -25 171 -25 q118 0 197.5 23 q79.5 23 142.5 82 q-37 -19 -74 -19 q-46 0 -73 29 q-27 29 -27 72 q0 31 16 58.5 q16 27.5 43.5 44.5 q27.5 17 61.5 17 ZM113 -133 q121 0 255 38 q-68 70 -108.5 107 q-40.5 37 -86.5 62.5 q-46 25.5 -93 25.5 q-60 0 -103 -30.5 q-43 -30.5 -43 -85.5 q0 -59 54.5 -88 q54.5 -29 124.5 -29 Z" /><glyph glyph-name="r" unicode="r" d="M1208 248 l-8 -27 q-36 -127 -96.5 -188.5 q-60.5 -61.5 -155.5 -61.5 q-94 0 -136.5 57 q-42.5 57 -37.5 140 l8 129 q2 40 2 57 q0 82 -26 129.5 q-26 47.5 -91.5 72 q-65.5 24.5 -188.5 30.5 l-11 0 l-26 0 l-99 -369 q-17 -70 -17 -98 q0 -39 29.5 -56.5 q29.5 -17.5 108.5 -21.5 l-8 -41 q-96 6 -254 6 q-180 0 -267 -6 l9 41 q74 3 110.5 16 q36.5 13 58.5 48 q22 35 42 112 l217 811 q14 65 14 90 q0 43 -29 62.5 q-29 19.5 -106 23.5 l10 41 q83 -6 252 -6 q47 0 147 2 q100 2 152 2 q201 0 304.5 -66 q103.5 -66 103.5 -182 q0 -103 -64 -184 q-64 -81 -181.5 -134.5 q-117.5 -53.5 -277.5 -75.5 l45 -7 q81 -15 131 -41.5 q50 -26.5 75 -74 q25 -47.5 25 -124.5 q0 -20 -1 -30 l-6 -109 q-2 -36 -2 -52 q0 -57 14.5 -86.5 q14.5 -29.5 49.5 -29.5 q36 0 63.5 41.5 q27.5 41.5 60.5 130.5 l10 29 l47 0 ZM487 627 q196 0 310.5 39 q114.5 39 164.5 121.5 q50 82.5 50 220.5 q0 100 -62 148 q-62 48 -198 48 q-62 0 -96.5 -15 q-34.5 -15 -56 -52 q-21.5 -37 -40.5 -109 l-107 -401 l35 0 Z" /><glyph glyph-name="s" unicode="s" d="M1139 1260 q-74 -184 -121 -418 l-41 0 q12 59 12 114 q0 124 -72 201.5 q-72 77.5 -223 77.5 q-124 0 -203 -55.5 q-79 -55.5 -79 -161.5 q0 -69 34 -124 q34 -55 88 -98.5 q54 -43.5 144 -101.5 q103 -67 160 -112.5 q57 -45.5 96 -108.5 q39 -63 39 -145 q0 -117 -76.5 -197.5 q-76.5 -80.5 -195.5 -120 q-119 -39.5 -244 -39.5 q-77 0 -132.5 14 q-55.5 14 -90 33.5 q-34.5 19.5 -70.5 47.5 q-40 30 -72 30 q-26 0 -42 -23 q-16 -23 -44 -87 l-41 0 q69 163 139 491 l41 0 q-18 -104 -18 -151 q0 -150 82.5 -232 q82.5 -82 255.5 -82 q138 0 217.5 54 q79.5 54 79.5 165 q0 71 -31.5 127 q-31.5 56 -80 98 q-48.5 42 -126.5 95 q-99 68 -151.5 110.5 q-52.5 42.5 -89.5 105.5 q-37 63 -37 148 q0 113 64 194.5 q64 81.5 168.5 123 q104.5 41.5 223.5 41.5 q85 0 142 -21 q57 -21 119 -65 q48 -37 67 -37 q17 0 32 25 q15 25 36 84 l41 0 Z" /><glyph glyph-name="scedilla" unicode="&#x15f;" d="M1139 1260 q-74 -184 -121 -418 l-41 0 q12 59 12 114 q0 124 -72 201.5 q-72 77.5 -223 77.5 q-124 0 -203 -55.5 q-79 -55.5 -79 -161.5 q0 -69 34 -124 q34 -55 88 -98.5 q54 -43.5 144 -101.5 q103 -67 160 -112.5 q57 -45.5 96 -108.5 q39 -63 39 -145 q0 -115 -74 -195 q-74 -80 -189.5 -120 q-115.5 -40 -239.5 -42 l-56 -118 q51 14 104 14 q51 0 80 -22 q29 -22 29 -60 q0 -56 -48.5 -94.5 q-48.5 -38.5 -121 -57 q-72.5 -18.5 -143.5 -18.5 q-67 0 -121 13 q-54 13 -84 32 l14 31 q71 -27 164 -27 q38 0 87 10 q49 10 85.5 33.5 q36.5 23.5 36.5 61.5 q0 49 -78 49 q-42 0 -84 -15 l81 169 q-91 5 -145.5 30 q-54.5 25 -105.5 64 q-40 30 -72 30 q-26 0 -42 -23 q-16 -23 -44 -87 l-41 0 q69 163 139 491 l41 0 q-18 -104 -18 -151 q0 -150 82.5 -232 q82.5 -82 255.5 -82 q138 0 217.5 54 q79.5 54 79.5 165 q0 71 -31.5 127 q-31.5 56 -80 98 q-48.5 42 -126.5 95 q-99 68 -151.5 110.5 q-52.5 42.5 -89.5 105.5 q-37 63 -37 148 q0 113 64 194.5 q64 81.5 168.5 123 q104.5 41.5 223.5 41.5 q85 0 142 -21 q57 -21 119 -65 q48 -37 67 -37 q17 0 32 25 q15 25 36 84 l41 0 Z" /><glyph glyph-name="germandbls" unicode="ß" d="M123 -356 q-112 -3 -199 -29 l316 1157 q69 258 227.5 380 q158.5 122 372.5 122 q148 0 230.5 -56 q82.5 -56 82.5 -159 q0 -84 -54 -158 q-54 -74 -147.5 -130 q-93.5 -56 -210.5 -87 q180 -17 262 -102 q82 -85 82 -203 q0 -114 -70 -207.5 q-70 -93.5 -187 -147 q-117 -53.5 -250 -53.5 q-97 0 -159.5 29.5 q-62.5 29.5 -62.5 85.5 q0 28 15.5 55.5 q15.5 27.5 42.5 45.5 q27 18 59 18 q37 0 60.5 -24.5 q23.5 -24.5 23.5 -59.5 q0 -32 -22 -59 q-22 -27 -58 -44 q46 -14 105 -14 q88 0 158.5 51.5 q70.5 51.5 109.5 137.5 q39 86 39 186 q0 75 -23 141 q-23 66 -66.5 106 q-43.5 40 -99.5 40 l-28 -9 q-55 -16 -78 -16 q-41 0 -41 25 q0 17 18 29 q18 12 37 12 q34 0 55.5 -3 q21.5 -3 49.5 -16 q79 27 134 83.5 q55 56.5 82 131.5 q27 75 27 156 q0 88 -35.5 136 q-35.5 48 -121.5 48 q-102 0 -193.5 -78.5 q-91.5 -78.5 -144.5 -275.5 l-338 -1245 Z" /><glyph glyph-name="t" unicode="t" d="M1405 1468 q45 0 68.5 -27.5 q23.5 -27.5 23.5 -68.5 q0 -82 -94 -151 q-60 -34 -125 -50 q-65 -16 -158 -16 q-68 0 -173 11 l-269 -928 q-19 -66 -19 -102 q0 -36 17 -56 q17 -20 54 -29 q37 -9 101 -10 l-8 -41 q-106 6 -305 6 q-200 0 -299 -6 l8 41 q89 3 135.5 19.5 q46.5 16.5 74 56.5 q27.5 40 50.5 121 l277 954 q-173 25 -258 25 q-130 0 -193 -35 q16 -22 26.5 -55.5 q10.5 -33.5 10.5 -63.5 q0 -47 -26.5 -83 q-26.5 -36 -75.5 -36 q-43 0 -66.5 28 q-23.5 28 -23.5 75 q0 103 106 159 q88 47 232 47 q75 0 144 -7 q69 -7 181 -22 q204 -28 307 -28 q76 0 127 10.5 q51 10.5 101 34.5 q-51 51 -51 115 q0 46 25.5 79 q25.5 33 74.5 33 Z" /><glyph glyph-name="tbar" unicode="&#x167;" d="M1407 1468 q45 0 68.5 -27.5 q23.5 -27.5 23.5 -68.5 q0 -82 -94 -151 q-60 -34 -125 -50 q-65 -16 -158 -16 q-68 0 -173 11 l-151 -519 l339 0 l-11 -41 l-340 0 l-106 -368 q-19 -66 -19 -102 q0 -36 17 -56 q17 -20 54 -29 q37 -9 101 -10 l-8 -41 q-106 6 -305 6 q-200 0 -299 -6 l8 41 q89 3 135.5 19.5 q46.5 16.5 74 56.5 q27.5 40 50.5 121 l107 368 l-317 0 l10 41 l319 0 l158 545 q-173 25 -258 25 q-130 0 -193 -35 q16 -22 26.5 -55.5 q10.5 -33.5 10.5 -63.5 q0 -47 -26.5 -83 q-26.5 -36 -75.5 -36 q-43 0 -66.5 28 q-23.5 28 -23.5 75 q0 103 106 159 q88 47 232 47 q75 0 144 -7 q69 -7 181 -22 q204 -28 307 -28 q76 0 127 10.5 q51 10.5 101 34.5 q-51 51 -51 115 q0 46 25.5 79 q25.5 33 74.5 33 Z" /><glyph glyph-name="tcedilla" unicode="&#x163;" d="M1405 1468 q45 0 68.5 -27.5 q23.5 -27.5 23.5 -68.5 q0 -82 -94 -151 q-60 -34 -125 -50 q-65 -16 -158 -16 q-68 0 -173 11 l-269 -928 q-19 -67 -19 -102 q0 -36 17 -56 q17 -20 54 -29 q37 -9 101 -10 l-8 -41 q-96 6 -271 6 l-73 -153 q51 14 104 14 q51 0 80 -22 q29 -22 29 -60 q0 -56 -48.5 -94.5 q-48.5 -38.5 -121 -57 q-72.5 -18.5 -143.5 -18.5 q-67 0 -121 13 q-54 13 -84 32 l14 31 q71 -27 164 -27 q38 0 87 10 q49 10 85.5 33.5 q36.5 23.5 36.5 61.5 q0 49 -78 49 q-42 0 -84 -15 l97 203 q-184 0 -277 -6 l8 41 q89 3 135.5 19.5 q46.5 16.5 74 56.5 q27.5 40 50.5 121 l277 954 q-173 25 -258 25 q-130 0 -193 -35 q16 -22 26.5 -55.5 q10.5 -33.5 10.5 -63.5 q0 -47 -26.5 -83 q-26.5 -36 -75.5 -36 q-43 0 -66.5 28 q-23.5 28 -23.5 75 q0 103 106 159 q88 47 232 47 q75 0 144 -7 q69 -7 181 -22 q204 -28 307 -28 q76 0 127 10.5 q51 10.5 101 34.5 q-51 51 -51 115 q0 46 25.5 79 q25.5 33 74.5 33 Z" /><glyph glyph-name="u" unicode="u" d="M1176 596 q-75 -285 -201 -434 q-75 -88 -185 -139.5 q-110 -51.5 -235 -51.5 q-229 0 -315 111 q-38 46 -55.5 96 q-17.5 50 -17.5 114 q0 101 52 298 l117 438 q17 65 17 98 q0 31 -14 47 q-14 16 -42.5 22.5 q-28.5 6.5 -81.5 8.5 l12 41 q84 -6 265 -6 q157 0 256 6 l-13 -41 q-75 -3 -111.5 -16 q-36.5 -13 -58 -48 q-21.5 -35 -41.5 -112 l-127 -473 q-45 -177 -45 -277 q0 -113 56 -174 q56 -61 186 -61 q215 0 338.5 139.5 q123.5 139.5 189.5 390.5 l117 435 q15 54 15 91 q0 55 -36 78 q-36 23 -116 27 l10 41 q74 -6 207 -6 q125 0 192 6 l-10 -41 q-63 -3 -102.5 -21 q-39.5 -18 -66.5 -59 q-27 -41 -48 -116 l-108 -412 Z" /><glyph glyph-name="uogonek" unicode="&#x173;" d="M1319 1239 q124 0 192 6 l-10 -41 q-63 -3 -102.5 -21 q-39.5 -18 -66.5 -59 q-27 -41 -48 -116 l-108 -412 q-75 -285 -201 -434 q-57 -67 -134.5 -113.5 q-77.5 -46.5 -167.5 -65.5 q-76 -32 -126.5 -81 q-50.5 -49 -50.5 -113 q0 -76 80 -76 q39 0 84.5 16.5 q45.5 16.5 73.5 37.5 l22 -35 q-123 -117 -264 -117 q-74 0 -113 32 q-39 32 -39 87 q0 74 65.5 133.5 q65.5 59.5 164.5 103.5 l-15 0 q-229 0 -315 111 q-38 46 -55.5 96 q-17.5 50 -17.5 114 q0 101 52 298 l117 438 q17 65 17 98 q0 31 -14 47 q-14 16 -42.5 22.5 q-28.5 6.5 -81.5 8.5 l12 41 q84 -6 265 -6 q157 0 256 6 l-13 -41 q-75 -3 -111.5 -16 q-36.5 -13 -58 -48 q-21.5 -35 -41.5 -112 l-127 -473 q-45 -177 -45 -277 q0 -113 56 -174 q56 -61 186 -61 q215 0 338.5 139.5 q123.5 139.5 189.5 390.5 l117 435 q15 54 15 91 q0 55 -36 78 q-36 23 -116 27 l10 41 q73 -6 207 -6 Z" /><glyph glyph-name="v" unicode="v" d="M1348 1239 q83 0 139 6 l-10 -41 q-61 -24 -107 -65 q-46 -41 -121 -135 l-809 -1014 l-30 0 l-136 1083 q-8 67 -39 98 q-31 31 -67 33 l10 41 q80 -6 221 -6 q158 0 246 6 l-10 -41 q-63 -3 -97.5 -12 q-34.5 -9 -52 -34.5 q-17.5 -25.5 -17.5 -74.5 q0 -22 3 -51 l98 -811 l557 697 q116 144 116 211 q0 70 -130 75 l10 41 q59 -6 226 -6 Z" /><glyph glyph-name="w" unicode="w" d="M1833 1239 q129 0 178 6 l-10 -41 q-63 -19 -112 -63 q-49 -44 -107 -140 l-619 -1011 l-33 0 l-150 926 l-552 -926 l-33 0 l-135 1083 q-17 127 -113 131 l9 41 q83 -6 202 -6 q147 0 222 6 l-9 -41 q-63 -4 -90.5 -28.5 q-27.5 -24.5 -27.5 -88.5 q0 -27 4 -55 l88 -769 l424 716 l-15 94 q-19 127 -92 131 l8 41 q75 -6 183 -6 q175 0 262 6 l-8 -41 q-62 -3 -96 -12 q-34 -9 -50.5 -30.5 q-16.5 -21.5 -16.5 -62.5 q0 -31 7 -67 l131 -770 l385 633 q93 153 93 225 q0 44 -31 63 q-31 19 -93 21 l11 41 q62 -6 186 -6 Z" /><glyph glyph-name="x" unicode="x" d="M1313 1274 q63 0 92.5 -29 q29.5 -29 29.5 -76 q0 -31 -13 -65 q-13 -34 -40.5 -58 q-27.5 -24 -68.5 -24 q-40 0 -59 22.5 q-19 22.5 -19 55.5 q0 30 18 67 q18 37 47 64 l-6 0 q-68 -3 -131 -43 q-81 -59 -180.5 -191 q-99.5 -132 -193.5 -318 l40 -362 q13 -108 50 -170.5 q37 -62.5 112 -62.5 q60 0 97 37.5 q37 37.5 67 122.5 l35 104 l41 0 l-53 -158 q-39 -112 -100.5 -165.5 q-61.5 -53.5 -149.5 -53.5 q-135 0 -194 90.5 q-59 90.5 -75 229.5 l-25 221 q-82 -144 -189 -271.5 q-107 -127.5 -201 -197.5 q-99 -72 -189 -72 q-63 0 -92.5 29.5 q-29.5 29.5 -29.5 76.5 q0 30 13 64 q13 34 40.5 58 q27.5 24 68.5 24 q40 0 59 -22.5 q19 -22.5 19 -55.5 q0 -30 -18 -67 q-18 -37 -47 -64 l6 0 q73 3 131 43 q93 60 205 194 q112 134 217 328 l-39 349 q-13 108 -49.5 170.5 q-36.5 62.5 -112.5 62.5 q-60 0 -97 -37.5 q-37 -37.5 -67 -122.5 l-35 -104 l-41 0 l54 158 q38 112 99.5 165.5 q61.5 53.5 149.5 53.5 q135 0 194 -90.5 q59 -90.5 75 -229.5 l24 -215 q77 148 169 273 q92 125 173 190 q91 72 189 72 Z" /><glyph glyph-name="y" unicode="y" d="M1317 1274 q60 0 87.5 -31.5 q27.5 -31.5 27.5 -78.5 q0 -30 -13.5 -63 q-13.5 -33 -40.5 -56 q-27 -23 -67 -23 q-78 0 -78 81 q0 31 18.5 65.5 q18.5 34.5 46.5 62.5 l-6 0 q-50 -3 -112 -45 q-104 -78 -220.5 -231 q-116.5 -153 -221.5 -393 l-89 -345 q-17 -66 -17 -99 q0 -30 13.5 -46 q13.5 -16 42.5 -22.5 q29 -6.5 82 -8.5 l-10 -41 q-93 6 -254 6 q-180 0 -268 -6 l10 41 q74 3 111 16 q37 13 59 48.5 q22 35.5 41 111.5 l97 376 q-59 568 -191 568 q-36 0 -59 -22 q-23 -22 -40 -74 l-57 -168 l-45 0 l67 199 q22 64 46 101.5 q24 37.5 61 57 q37 19.5 94 19.5 q85 0 136 -60 q51 -60 81 -170 q30 -110 62 -307 l15 -100 q144 310 349 512 q55 54 118 89.5 q63 35.5 124 35.5 Z" /><glyph glyph-name="z" unicode="z" d="M1421 1255 q12 -10 12 -27 q0 -28 -38 -62.5 q-38 -34.5 -115 -63.5 l-549 -455 l238 0 l-17 -41 l-270 0 l-563 -467 q186 111 354 111 q58 0 103.5 -14 q45.5 -14 114.5 -43 q66 -29 113.5 -43.5 q47.5 -14.5 106.5 -14.5 q69 0 104.5 35.5 q35.5 35.5 35.5 99.5 q0 120 -148 150 l8 41 q93 -17 155 -73.5 q62 -56.5 62 -164.5 q0 -73 -30 -130 q-30 -57 -86 -89.5 q-56 -32.5 -131 -32.5 q-47 0 -87.5 15 q-40.5 15 -72.5 37 q-32 22 -79 59 q-45 36 -76 57.5 q-31 21.5 -70 36 q-39 14.5 -84 14.5 q-79 0 -142.5 -21.5 q-63.5 -21.5 -160.5 -70.5 q-37 -53 -78.5 -86 q-41.5 -33 -73.5 -33 q-16 0 -29 11 q-12 10 -12 27 q0 28 38 62.5 q38 34.5 116 63.5 l558 463 l-233 0 l15 41 l268 0 l553 459 q-188 -111 -354 -111 q-58 0 -104.5 14 q-46.5 14 -114.5 43 q-66 29 -113.5 43.5 q-47.5 14.5 -106.5 14.5 q-68 0 -103.5 -35.5 q-35.5 -35.5 -35.5 -99.5 q0 -120 147 -150 l-8 -41 q-92 17 -154.5 73.5 q-62.5 56.5 -62.5 164.5 q0 73 30 130 q30 57 86.5 89.5 q56.5 32.5 131.5 32.5 q47 0 87.5 -15 q40.5 -15 72.5 -37 q32 -22 78 -59 q47 -37 77.5 -58 q30.5 -21 69.5 -35.5 q39 -14.5 84 -14.5 q55 0 102 11 q47 11 90 29 q43 18 111 52 q37 53 78 86 q41 33 72 33 q16 0 30 -11 Z" /><glyph glyph-name="ordfeminine" unicode="ª" d="M932 979 l-37 -100 q-29 -80 -73 -111 q-44 -31 -111 -31 q-45 0 -67 19.5 q-22 19.5 -22 64.5 q0 43 19 109 l25 86 q-138 -279 -308 -279 q-74 0 -116.5 45.5 q-42.5 45.5 -42.5 118.5 q0 118 78.5 255 q78.5 137 196.5 230 q118 93 226 93 q29 0 51.5 -18 q22.5 -18 25.5 -56 l16 55 q83 0 143 19 l-193 -598 q-10 -30 -10 -51 q0 -33 33 -33 q34 0 58.5 29 q24.5 29 49.5 102 l19 51 l39 0 ZM399 788 q44 0 106.5 60.5 q62.5 60.5 122 160 q59.5 99.5 95.5 208.5 l39 135 q-3 78 -51 78 q-71 0 -157 -80 q-86 -80 -146 -206.5 q-60 -126.5 -60 -258.5 q0 -46 13 -71.5 q13 -25.5 38 -25.5 Z" /><glyph glyph-name="ordmasculine" unicode="º" d="M219 952 q0 108 52.5 232 q52.5 124 151 209.5 q98.5 85.5 230.5 85.5 q111 0 173.5 -54.5 q62.5 -54.5 62.5 -160.5 q0 -108 -52.5 -231.5 q-52.5 -123.5 -151 -208.5 q-98.5 -85 -230.5 -85 q-111 0 -173.5 54 q-62.5 54 -62.5 159 ZM643 1442 q-72 0 -136 -84 q-64 -84 -102 -212 q-38 -128 -38 -251 q0 -61 24 -90 q24 -29 74 -29 q72 0 136 83.5 q64 83.5 102 212 q38 128.5 38 251.5 q0 61 -24 90 q-24 29 -74 29 Z" /><glyph glyph-name="uni0411" unicode="&#x411;" d="M899 1444 q295 0 424 6 q-50 -129 -78 -242 q-11 -46 -26 -127 l-45 0 q15 84 15 144 q0 97 -43 137.5 q-43 40.5 -138 40.5 l-191 0 q-72 0 -108 -12 q-36 -12 -57.5 -46.5 q-21.5 -34.5 -41.5 -111.5 l-122 -463 l73 0 q201 0 327.5 -30.5 q126.5 -30.5 191.5 -104.5 q65 -74 65 -203 q0 -139 -88 -237 q-88 -98 -228 -146.5 q-140 -48.5 -294 -48.5 q-70 0 -150 3 q-183 3 -203 3 q-163 0 -250 -6 l9 41 q74 3 110.5 16 q36.5 13 58.5 48 q22 35 42 112 l270 1016 q17 65 17 98 q0 31 -14 47 q-14 16 -42.5 22.5 q-28.5 6.5 -81.5 8.5 l10 41 l70 -2 q114 -4 178 -4 q45 -1 131 -1 l209 1 ZM342 217 q-19 -73 -19 -100 q0 -38 27 -54 q27 -16 96 -16 q261 0 377.5 105 q116.5 105 116.5 311 q0 94 -36 153 q-36 59 -124.5 89 q-88.5 30 -244.5 30 l-56 0 l-137 -518 Z" /><glyph glyph-name="uni0413" unicode="&#x413;" d="M340 217 q-16 -61 -16 -91 q0 -34 17 -51.5 q17 -17.5 54 -24.5 q37 -7 105 -9 l-11 -41 q-106 6 -301 6 q-173 0 -260 -6 l11 41 q74 3 110 16 q36 13 58 48 q22 35 43 112 l272 1016 q18 65 18 100 q0 30 -13.5 45.5 q-13.5 15.5 -42 22 q-28.5 6.5 -81.5 8.5 l10 41 l81 -2 q124 -4 192 -4 q42 -1 124 -1 l197 1 q244 0 346 6 q-46 -133 -84 -262 q-16 -60 -39 -168 l-47 0 q22 114 22 194 q0 101 -37.5 145 q-37.5 44 -115.5 44 l-129 0 q-73 0 -109.5 -12 q-36.5 -12 -58.5 -46.5 q-22 -34.5 -43 -111.5 l-272 -1016 Z" /><glyph glyph-name="uni0490" unicode="&#x490;" d="M985 1450 q84 0 133.5 29.5 q49.5 29.5 84.5 95 q35 65.5 81 197.5 l47 0 q-17 -44 -39 -127 q-32 -128 -51 -242 l-418 0 q-74 0 -110.5 -12 q-36.5 -12 -58.5 -46.5 q-22 -34.5 -42 -111.5 l-272 -1016 q-16 -61 -16 -91 q0 -34 17 -51.5 q17 -17.5 54 -24.5 q37 -7 105 -9 l-11 -41 q-106 6 -301 6 q-173 0 -260 -6 l11 41 q75 3 111 16 q36 13 57.5 48 q21.5 35 42.5 112 l272 1016 q17 66 17 99 q0 30 -13.5 46 q-13.5 16 -41.5 22.5 q-28 6.5 -81 8.5 l10 41 q107 -6 308 -6 q82 0 180 3 q198 3 184 3 Z" /><glyph glyph-name="uni0414" unicode="&#x414;" d="M1190 1444 q175 0 264 6 l-10 -41 q-75 -3 -111.5 -16 q-36.5 -13 -58 -48 q-21.5 -35 -41.5 -112 l-270 -1016 q-17 -65 -17 -100 q0 -31 13.5 -47 q13.5 -16 42.5 -22.5 q29 -6.5 81 -6.5 l64 0 q-46 -120 -90 -303 q-12 -47 -27 -127 l-45 0 q14 83 14 153 q0 242 -186 242 q-26 0 -114 -2 q-144 -4 -312 -4 l-237 0 q-113 0 -213 -89 q-100 -89 -187 -300 l-45 0 l14 38 q13 30 33 89 q61 182 84 303 l148 0 q76 0 141 53 q75 63 167.5 219 q92.5 156 187 392.5 q94.5 236.5 171.5 527.5 q18 63 18 99 q0 30 -14 46 q-14 16 -43 22.5 q-29 6.5 -82 8.5 l11 41 q64 -6 190 -6 q14 0 52 2 q62 4 130 4 q107 0 201 -4 q58 -2 76 -2 ZM1042 1233 q18 64 18 100 q0 45 -30.5 60.5 q-30.5 15.5 -107.5 15.5 l-29 0 q-69 0 -104 -13.5 q-35 -13.5 -56 -49.5 q-21 -36 -41 -113 q-62 -236 -151 -473 q-89 -237 -190.5 -423.5 q-101.5 -186.5 -196.5 -266.5 q-13 -11 -41 -29 l458 0 q69 0 104.5 14 q35.5 14 55.5 49.5 q20 35.5 41 112.5 l270 1016 Z" /><glyph glyph-name="uni0416" unicode="&#x416;" d="M717 734 q-65 -39 -116.5 -101.5 q-51.5 -62.5 -113.5 -192.5 l-108 -231 q-41 -88 -73 -136.5 q-32 -48.5 -74.5 -75 q-42.5 -26.5 -104.5 -26.5 q-160 0 -215 189 l31 14 q42 -90 123 -90 q40 0 63.5 25 q23.5 25 50.5 79 l119 232 q64 127 121.5 193.5 q57.5 66.5 117.5 95.5 q60 29 152 48 q-90 11 -126 63.5 q-36 52.5 -36 137.5 q0 63 27 206 q23 119 23 169 q0 43 -18 73 q-18 30 -60 30 l-6 0 q16 -30 16 -66 q0 -36 -19.5 -69 q-19.5 -33 -52 -53.5 q-32.5 -20.5 -69.5 -20.5 q-64 0 -64 63 q0 48 27.5 91.5 q27.5 43.5 73.5 70.5 q46 27 100 27 q55 0 86 -33 q31 -33 31 -94 q0 -52 -25 -177 q-29 -143 -29 -206 q0 -83 37 -133.5 q37 -50.5 127 -59.5 q52 18 83 18 q45 0 42 -36 q-5 -41 -53 -41 q-39 0 -88 17 ZM1884 1479 q63 0 92 -30.5 q29 -30.5 29 -79.5 q0 -27 -12.5 -60.5 q-12.5 -33.5 -39 -57.5 q-26.5 -24 -67.5 -24 q-40 0 -60 24 q-20 24 -20 58 q0 29 19 64.5 q19 35.5 47 62.5 l-6 0 q-41 -2 -74 -29 q-35 -32 -60.5 -86.5 q-25.5 -54.5 -59.5 -151.5 q-43 -122 -81 -200.5 q-38 -78.5 -106 -139 q-68 -60.5 -171 -72.5 q73 -16 117 -41.5 q44 -25.5 70 -87 q26 -61.5 26 -173.5 l-1 -35 l-8 -232 q-2 -54 9.5 -79 q11.5 -25 51.5 -25 q52 0 87 38 q35 38 65 122 l34 104 l41 0 l-53 -158 q-38 -112 -99.5 -165.5 q-61.5 -53.5 -150.5 -53.5 q-173 0 -173 203 q0 23 1 35 l15 231 q3 38 3 75 q0 68 -16.5 122 q-16.5 54 -60.5 96 q-43 -12 -78 -12 q-42 0 -42 28 q0 42 52 42 q28 0 75 -15 q104 13 170.5 71.5 q66.5 58.5 102.5 134 q36 75.5 78 196.5 q35 102 62.5 160.5 q27.5 58.5 68.5 93.5 q61 47 123 47 ZM961 217 q-20 -76 -20 -100 q0 -38 30 -55 q30 -17 108 -21 l-8 -41 q-94 6 -264 6 q-167 0 -256 -6 l10 41 q72 3 108 16 q36 13 57.5 48.5 q21.5 35.5 41.5 111.5 l268 1016 q18 72 18 96 q0 39 -29.5 57 q-29.5 18 -106.5 23 l10 41 q83 -6 256 -6 q167 0 266 6 l-10 -41 q-75 -3 -111.5 -16 q-36.5 -13 -58 -48 q-21.5 -35 -41.5 -112 l-268 -1016 Z" /><glyph glyph-name="uni0417" unicode="&#x417;" d="M342 6 q117 0 222.5 52.5 q105.5 52.5 170 145 q64.5 92.5 64.5 206.5 q0 81 -34.5 155.5 q-34.5 74.5 -100.5 124.5 q-66 50 -156 60 q-62 -30 -95 -30 q-42 0 -42 28 q0 39 58 39 q30 0 67 -11 q110 21 209.5 84 q99.5 63 161 155 q61.5 92 61.5 195 q0 100 -58 147.5 q-58 47.5 -155 47.5 q-166 0 -275 -111.5 q-109 -111.5 -176 -314.5 l-45 0 q94 302 119 471 l43 0 q-3 -21 -5 -50 q-1 -4 -1 -13 q0 -56 29 -56 q13 0 36 15 q72 47 121 73.5 q49 26.5 108.5 43 q59.5 16.5 133.5 16.5 q146 0 234.5 -64.5 q88.5 -64.5 88.5 -183.5 q0 -122 -93 -219 q-93 -97 -227 -158 q-134 -61 -259 -86 q105 0 208.5 -40 q103.5 -40 171.5 -120.5 q68 -80.5 68 -195.5 q0 -135 -93.5 -235.5 q-93.5 -100.5 -243.5 -153 q-150 -52.5 -314 -52.5 q-195 0 -289 74 q-59 47 -59 111 q0 37 19 70 q19 33 51.5 53 q32.5 20 70.5 20 q38 0 61 -20.5 q23 -20.5 23 -59.5 q0 -45 -32 -83.5 q-32 -38.5 -85 -51.5 q8 -20 44.5 -38 q36.5 -18 88.5 -29 q52 -11 105 -11 Z" /><glyph glyph-name="uni0418" unicode="&#x418;" d="M1470 1444 q176 0 263 6 l-11 -41 q-75 -3 -111.5 -16 q-36.5 -13 -58.5 -48 q-22 -35 -43 -112 l-272 -1016 q-18 -65 -18 -100 q0 -30 13.5 -45.5 q13.5 -15.5 42 -22 q28.5 -6.5 81.5 -8.5 l-10 -41 q-87 6 -263 6 q-164 0 -260 -6 l11 41 q75 3 111.5 16 q36.5 13 58.5 48 q22 35 43 112 l254 950 l-965 -965 q-14 -56 -14 -85 q0 -30 13.5 -45.5 q13.5 -15.5 42 -22 q28.5 -6.5 81.5 -8.5 l-10 -41 q-96 6 -261 6 q-173 0 -260 -6 l11 41 q74 3 110 16 q36 13 58 48 q22 35 43 112 l272 1016 q18 64 18 100 q0 30 -13.5 45.5 q-13.5 15.5 -42 22 q-28.5 6.5 -81.5 8.5 l10 41 q87 -6 262 -6 q165 0 261 6 l-11 -41 q-75 -3 -111.5 -16 q-36.5 -13 -58.5 -48 q-22 -35 -43 -112 l-255 -952 l966 968 q14 54 14 84 q0 30 -13.5 45.5 q-13.5 15.5 -42 22 q-28.5 6.5 -81.5 8.5 l10 41 q96 -6 260 -6 Z" /><glyph glyph-name="uni041B" unicode="&#x41b;" d="M6 14 q66 3 135 54 q78 62 172.5 222 q94.5 160 192.5 402.5 q98 242.5 182 540.5 q17 65 17 98 q0 31 -13.5 47 q-13.5 16 -42.5 22.5 q-29 6.5 -82 8.5 l11 41 q65 -6 190 -6 q14 0 52 2 q62 4 130 4 q107 0 201 -4 q58 -2 76 -2 q176 0 264 6 l-10 -41 q-75 -3 -111.5 -16 q-36.5 -13 -58 -48 q-21.5 -35 -41.5 -112 l-271 -1016 q-17 -65 -17 -99 q0 -30 13.5 -46 q13.5 -16 42.5 -22.5 q29 -6.5 82 -8.5 l-8 -41 q-85 6 -262 6 q-165 0 -260 -6 l8 41 q74 3 110.5 16 q36.5 13 58.5 48 q22 35 42 112 l270 1016 q18 63 18 100 q0 31 -14 47 q-14 16 -43.5 22.5 q-29.5 6.5 -81.5 6.5 l-28 0 q-69 0 -104 -13.5 q-35 -13.5 -56 -49.5 q-21 -36 -41 -113 q-64 -241 -156 -484 q-92 -243 -197.5 -434 q-105.5 -191 -205.5 -272 q-87 -72 -182 -72 q-121 0 -121 109 q0 31 13 64 q13 33 40.5 56 q27.5 23 67.5 23 q40 0 59 -23.5 q19 -23.5 19 -58.5 q0 -29 -19 -64.5 q-19 -35.5 -47 -62.5 l6 0 Z" /><glyph glyph-name="uni041F" unicode="&#x41f;" d="M997 1450 q169 0 309 -4 q86 -2 111 -2 q176 0 264 6 l-10 -41 q-75 -3 -111.5 -16 q-36.5 -13 -58 -48 q-21.5 -35 -41.5 -112 l-270 -1016 q-18 -70 -18 -100 q0 -30 13.5 -45.5 q13.5 -15.5 42.5 -22 q29 -6.5 83 -8.5 l-8 -41 q-87 6 -263 6 q-164 0 -260 -6 l8 41 q74 3 111 16 q37 13 58.5 48 q21.5 35 41.5 112 l271 1016 q18 63 18 99 q0 46 -31 61.5 q-31 15.5 -108 15.5 l-336 0 q-68 0 -103.5 -14 q-35.5 -14 -56 -49.5 q-20.5 -35.5 -41.5 -112.5 l-270 -1016 q-17 -66 -17 -99 q0 -30 13.5 -46 q13.5 -16 42.5 -22.5 q29 -6.5 82 -8.5 l-8 -41 q-96 6 -260 6 q-171 0 -261 -6 l11 41 q72 3 108 16 q36 13 57.5 48.5 q21.5 35.5 41.5 111.5 l270 1016 q17 65 17 98 q0 31 -14 47 q-14 16 -42.5 22.5 q-28.5 6.5 -81.5 8.5 l10 41 q84 -6 260 -6 q26 0 116 2 q144 4 310 4 Z" /><glyph glyph-name="uni0423" unicode="&#x423;" d="M1405 1444 q77 0 133 6 l-10 -41 q-38 -2 -86 -34 q-48 -32 -90 -97 l-609 -942 l-22 -36 q-75 -120 -124.5 -184 q-49.5 -64 -118 -104.5 q-68.5 -40.5 -161.5 -40.5 q-95 0 -151.5 30 q-56.5 30 -56.5 88 q0 29 14.5 56 q14.5 27 40.5 43.5 q26 16.5 57 16.5 q37 0 61.5 -25 q24.5 -25 24.5 -61 q0 -33 -23.5 -61 q-23.5 -28 -58.5 -44 q32 -10 80 -10 q67 0 120 24.5 q53 24.5 96.5 70 q43.5 45.5 93.5 118.5 l-253 1061 q-11 46 -37.5 75 q-26.5 29 -56 42 q-29.5 13 -53.5 14 l10 41 q81 -6 221 -6 q157 0 246 6 l-10 -41 q-74 -3 -103.5 -20 q-29.5 -17 -29.5 -63 q0 -31 14 -89 l197 -805 l520 805 q52 80 52 114 q0 28 -29.5 42.5 q-29.5 14.5 -96.5 15.5 l11 41 q57 -6 188 -6 Z" /><glyph glyph-name="uni0424" unicode="&#x424;" d="M1882 739 q0 -151 -113 -290 q-113 -139 -329 -230 q-216 -91 -511 -103 q-139 -501 -487 -501 q-85 0 -142.5 29 q-57.5 29 -57.5 87 q0 29 15 56 q15 27 40.5 44 q25.5 17 56.5 17 q37 0 61.5 -24.5 q24.5 -24.5 24.5 -60.5 q0 -34 -23 -61.5 q-23 -27.5 -59 -43.5 q32 -10 70 -10 q89 0 148 62 q59 62 94.5 159 q35.5 97 72.5 249 q-214 11 -364 65 q-150 54 -228.5 146.5 q-78.5 92.5 -78.5 217.5 q0 158 122.5 301.5 q122.5 143.5 356 233 q233.5 89.5 549.5 89.5 l27 0 q66 72 157 135.5 q91 63.5 227 139.5 q-114 -57 -229.5 -90 q-115.5 -33 -212.5 -33 q-67 0 -121.5 15.5 q-54.5 15.5 -94.5 37 q-40 21.5 -91 55.5 q-53 35 -88 51.5 q-35 16.5 -74 16.5 q-41 0 -64.5 -20.5 q-23.5 -20.5 -23.5 -55.5 q0 -48 47 -86 l-29 -32 q-77 49 -77 135 q0 75 57.5 118.5 q57.5 43.5 151.5 43.5 q53 0 102 -14 q49 -14 89.5 -33.5 q40.5 -19.5 100.5 -53.5 q87 -49 148 -73.5 q61 -24.5 131 -24.5 q102 0 295 72 q77 119 127 119 q14 0 28 -11 q13 -11 13 -25 q0 -50 -150 -106 q-183 -122 -286 -287 q198 -15 337.5 -70 q139.5 -55 212 -145.5 q72.5 -90.5 72.5 -210.5 ZM291 528 q0 -338 462 -372 q11 47 35 141 l107 397 q40 150 87.5 255 q47.5 105 113.5 186 l-4 0 q-262 0 -441.5 -75 q-179.5 -75 -269.5 -211.5 q-90 -136.5 -90 -320.5 ZM940 154 q237 11 399 88.5 q162 77.5 243 209 q81 131.5 81 306.5 q0 325 -425 370 q-76 -136 -130 -342 l-168 -632 Z" /><glyph glyph-name="uni0427" unicode="&#x427;" d="M1237 1444 q166 0 260 6 l-10 -41 q-75 -3 -111.5 -16 q-36.5 -13 -58.5 -48 q-22 -35 -43 -112 l-273 -1016 q-18 -70 -18 -99 q0 -30 13.5 -46 q13.5 -16 42 -22.5 q28.5 -6.5 81.5 -8.5 l-10 -41 q-85 6 -262 6 q-194 0 -301 -6 l10 41 q92 3 137 16 q45 13 70.5 48 q25.5 35 46.5 112 l111 416 q-69 -38 -173.5 -67 q-104.5 -29 -201.5 -29 q-178 0 -258 100 q-51 63 -51 156 q0 63 24 151 l84 316 q11 42 11 68 q0 44 -30 61.5 q-30 17.5 -96 17.5 l11 43 l28 -1 q131 -7 222 -7 q87 0 204 7 l27 1 l-10 -43 q-54 0 -87 -14 q-33 -14 -53 -45.5 q-20 -31.5 -36 -87.5 l-91 -322 q-26 -93 -26 -154 q0 -88 53 -135 q53 -47 174 -47 q78 0 156 18 q78 18 129 49 l151 564 q19 68 19 100 q0 30 -14 45.5 q-14 15.5 -42.5 22 q-28.5 6.5 -80.5 8.5 l10 41 q86 -6 262 -6 Z" /><glyph glyph-name="uni0426" unicode="&#x426;" d="M1040 6 q-26 0 -114 -2 q-144 -4 -312 -4 q-168 0 -308 4 q-86 2 -111 2 q-175 0 -265 -6 l11 41 q75 3 111.5 16 q36.5 13 58 48 q21.5 35 41.5 112 l270 1016 q17 66 17 99 q0 30 -13.5 46 q-13.5 16 -42.5 22.5 q-29 6.5 -82 8.5 l8 41 q87 -6 262 -6 q166 0 260 6 l-8 -41 q-74 -3 -110.5 -16 q-36.5 -13 -58.5 -48 q-22 -35 -42 -112 l-270 -1016 q-18 -63 -18 -99 q0 -46 31 -61.5 q31 -15.5 108 -15.5 l336 0 q68 0 103.5 14 q35.5 14 56 50 q20.5 36 40.5 112 l271 1016 q17 66 17 99 q0 30 -13.5 46 q-13.5 16 -42.5 22.5 q-29 6.5 -82 8.5 l8 41 q96 -6 260 -6 q171 0 260 6 l-10 -41 q-72 -3 -108 -16 q-36 -13 -57.5 -48.5 q-21.5 -35.5 -41.5 -111.5 l-270 -1016 q-17 -65 -17 -99 q0 -46 30.5 -61.5 q30.5 -15.5 107.5 -15.5 l63 0 q-41 -105 -90 -303 q-13 -57 -20 -94 l-7 -33 l-45 0 q15 88 15 155 q0 240 -187 240 Z" /><glyph glyph-name="uni0428" unicode="&#x428;" d="M823 6 q-29 0 -121 -2 q-120 -4 -202 -4 q-75 0 -153 3 q-159 3 -159 3 q-173 0 -260 -6 l11 41 q74 3 110 16 q36 13 58 48 q22 35 43 112 l272 1016 q18 65 18 100 q0 30 -13.5 45.5 q-13.5 15.5 -42 22 q-28.5 6.5 -81.5 8.5 l10 41 q87 -6 262 -6 q151 0 240 6 l-10 -41 q-66 -3 -98.5 -16 q-32.5 -13 -53 -48 q-20.5 -35 -41.5 -112 l-272 -1016 q-19 -70 -19 -102 q0 -30 13.5 -46 q13.5 -16 43 -22 q29.5 -6 81.5 -6 l110 0 q73 0 110 13 q37 13 59.5 49 q22.5 36 43.5 114 l273 1016 q20 72 20 106 q0 27 -12 41.5 q-12 14.5 -36.5 20.5 q-24.5 6 -70.5 8 l11 41 q89 -6 239 -6 q162 0 242 6 l-10 -41 q-67 -3 -99.5 -16 q-32.5 -13 -52.5 -47.5 q-20 -34.5 -41 -112.5 l-272 -1016 q-19 -70 -19 -102 q0 -30 13.5 -46 q13.5 -16 43 -22 q29.5 -6 81.5 -6 l110 0 q72 0 109.5 13 q37.5 13 60 49.5 q22.5 36.5 43.5 113.5 l273 1016 q20 72 20 106 q0 27 -12 41.5 q-12 14.5 -36.5 20.5 q-24.5 6 -70.5 8 l10 41 q90 -6 240 -6 q176 0 262 6 l-10 -41 q-75 -3 -111.5 -16 q-36.5 -13 -58.5 -48 q-22 -35 -43 -112 l-272 -1016 q-19 -68 -19 -100 q0 -30 14 -45.5 q14 -15.5 42.5 -22 q28.5 -6.5 80.5 -8.5 l-10 -41 q-85 6 -262 6 q-2 0 -164 -3 q-78 -3 -149 -3 q-81 0 -199 4 q-88 2 -117 2 Z" /><glyph glyph-name="uni0429" unicode="&#x429;" d="M1450 4 q-39 0 -147 -2 q-114 -2 -164 -2 q-83 0 -197 4 q-90 2 -117 2 q-27 0 -121 -2 q-120 -4 -204 -4 q-74 0 -152 3 q-159 3 -158 3 q-175 0 -262 -6 l11 41 q74 3 110.5 16 q36.5 13 59 48 q22.5 35 43.5 112 l270 1016 q19 70 19 101 q0 29 -14 44.5 q-14 15.5 -42.5 22 q-28.5 6.5 -81.5 8.5 l12 41 q84 -6 260 -6 q151 0 242 6 l-12 -41 q-65 -3 -98 -16 q-33 -13 -53.5 -48 q-20.5 -35 -41.5 -112 l-270 -1016 q-19 -71 -19 -104 q0 -29 13.5 -44.5 q13.5 -15.5 42 -21.5 q28.5 -6 80.5 -6 l110 0 q73 0 111 13 q38 13 60.5 49.5 q22.5 36.5 43.5 113.5 l271 1016 q20 72 20 107 q0 39 -26 52.5 q-26 13.5 -93 16.5 l13 41 q86 -6 237 -6 q162 0 244 6 l-12 -41 q-66 -3 -98.5 -16 q-32.5 -13 -53 -48 q-20.5 -35 -41.5 -112 l-270 -1016 q-19 -71 -19 -104 q0 -29 13.5 -44.5 q13.5 -15.5 42 -21.5 q28.5 -6 80.5 -6 l110 0 q73 0 110.5 13 q37.5 13 60.5 49.5 q23 36.5 44 113.5 l271 1016 q20 72 20 107 q0 39 -26 52.5 q-26 13.5 -93 16.5 l13 41 q86 -6 237 -6 q175 0 264 6 l-12 -41 q-74 -3 -110.5 -16 q-36.5 -13 -59 -48 q-22.5 -35 -43.5 -112 l-270 -1016 q-19 -70 -19 -102 q0 -29 13.5 -44 q13.5 -15 42 -21.5 q28.5 -6.5 79.5 -8.5 l23 0 q-53 -149 -84 -262 l-9 -36 q-27 -117 -30 -132 l-47 0 q24 126 24 207 q0 101 -37 143.5 q-37 42.5 -114 42.5 Z" /><glyph glyph-name="uni040F" unicode="&#x40f;" d="M1417 1444 q172 0 260 6 l-10 -41 q-72 -3 -108 -16 q-36 -13 -57.5 -48.5 q-21.5 -35.5 -41.5 -111.5 l-270 -1016 q-17 -65 -17 -98 q0 -31 14 -47 q14 -16 42.5 -22.5 q28.5 -6.5 81.5 -8.5 l-11 -41 q-82 6 -260 6 q-26 0 -114 -2 l-91 -2 q-73 -7 -120 -42 q-47 -35 -82 -100 q-35 -65 -82 -188 l-47 0 q26 130 26 193 q0 65 -27 97.5 q-27 32.5 -92 39.5 q-45 0 -105 2 q-86 2 -111 2 q-175 0 -265 -6 l11 41 q75 3 111.5 16 q36.5 13 58 48 q21.5 35 41.5 112 l270 1016 q17 66 17 99 q0 30 -13.5 46 q-13.5 16 -42.5 22.5 q-29 6.5 -82 8.5 l8 41 q87 -6 262 -6 q166 0 260 6 l-8 -41 q-74 -3 -110.5 -16 q-36.5 -13 -58.5 -48 q-22 -35 -42 -112 l-270 -1016 q-18 -63 -18 -99 q0 -46 31 -61.5 q31 -15.5 108 -15.5 l336 0 q68 0 103.5 14 q35.5 14 56 50 q20.5 36 40.5 112 l271 1016 q17 66 17 99 q0 30 -13.5 46 q-13.5 16 -42.5 22.5 q-29 6.5 -82 8.5 l8 41 q96 -6 260 -6 Z" /><glyph glyph-name="uni042F" unicode="&#x42f;" d="M1190 1444 q172 0 260 6 l-10 -41 q-72 -3 -108 -16 q-36 -13 -57.5 -48.5 q-21.5 -35.5 -41.5 -111.5 l-270 -1016 q-17 -65 -17 -99 q0 -30 13.5 -46 q13.5 -16 42 -22.5 q28.5 -6.5 81.5 -8.5 l-10 -41 q-82 6 -260 6 q-164 0 -262 -6 l10 41 q75 3 111.5 16 q36.5 13 58 48 q21.5 35 41.5 112 l128 482 q-84 -30 -164 -34 q-63 -12 -108 -29.5 q-45 -17.5 -88 -59 q-43 -41.5 -75 -115.5 l-109 -252 q-34 -81 -69 -132 q-35 -51 -82.5 -78.5 q-47.5 -27.5 -114.5 -27.5 q-160 0 -215 189 l31 14 q44 -90 123 -90 q46 0 74 25.5 q28 25.5 55 78.5 l118 252 q40 85 92 134.5 q52 49.5 110.5 71 q58.5 21.5 132.5 30.5 q-105 19 -178.5 65 q-73.5 46 -110.5 111.5 q-37 65.5 -37 142.5 q0 148 98.5 251 q98.5 103 260.5 153.5 q162 50.5 351 50.5 q44 0 91 -3 q102 -3 104 -3 ZM1042 1233 q18 66 18 103 q0 39 -21 55 q-21 16 -70 16 q-227 0 -352 -112 q-125 -112 -125 -332 q0 -133 61.5 -195.5 q61.5 -62.5 198.5 -62.5 q73 0 158 32 l132 496 Z" /><glyph glyph-name="uni042C" unicode="&#x42c;" d="M561 770 q201 0 327.5 -30.5 q126.5 -30.5 191.5 -104.5 q65 -74 65 -203 q0 -139 -88 -237 q-88 -98 -228 -146.5 q-140 -48.5 -294 -48.5 q-70 0 -150 3 q-183 3 -203 3 q-163 0 -250 -6 l9 41 q74 3 110.5 16 q36.5 13 58.5 48 q22 35 42 112 l270 1016 q17 65 17 98 q0 31 -14 47 q-14 16 -42.5 22.5 q-28.5 6.5 -81.5 8.5 l10 41 q84 -6 260 -6 q164 0 263 6 l-11 -41 q-75 -3 -111.5 -16 q-36.5 -13 -58 -48 q-21.5 -35 -41.5 -112 l-123 -463 l72 0 ZM446 47 q261 0 377.5 105 q116.5 105 116.5 311 q0 94 -36 153 q-36 59 -124.5 89 q-88.5 30 -244.5 30 l-55 0 l-138 -518 q-19 -73 -19 -100 q0 -38 27 -54 q27 -16 96 -16 Z" /><glyph glyph-name="uni042A" unicode="&#x42a;" d="M825 770 q201 0 327.5 -30.5 q126.5 -30.5 191.5 -104.5 q65 -74 65 -203 q0 -139 -88 -237 q-88 -98 -227.5 -146.5 q-139.5 -48.5 -294.5 -48.5 q-70 0 -150 3 q-183 3 -203 3 q-163 0 -249 -6 l8 41 q74 3 110.5 16 q36.5 13 58.5 48 q22 35 42 112 l270 1016 q19 73 19 107 q0 43 -27 58 q-27 15 -94 15 q-164 0 -236 -55 q16 -22 26.5 -55.5 q10.5 -33.5 10.5 -63.5 q0 -47 -26.5 -83 q-26.5 -36 -75.5 -36 q-44 0 -67 27.5 q-23 27.5 -23 75.5 q0 99 106 161 q112 66 276 66 q19 0 85 -2 q98 -4 188 -4 q151 0 250 6 l-11 -41 q-75 -3 -111.5 -16 q-36.5 -13 -57.5 -48 q-21 -35 -41 -112 l-123 -463 l71 0 ZM711 47 q260 0 376.5 105.5 q116.5 105.5 116.5 310.5 q0 94 -36 153 q-36 59 -124.5 89 q-88.5 30 -244.5 30 l-55 0 l-138 -518 q-19 -73 -19 -100 q0 -38 27.5 -54 q27.5 -16 96.5 -16 Z" /><glyph glyph-name="uni0409" unicode="&#x409;" d="M1219 770 q201 0 327.5 -30.5 q126.5 -30.5 191 -104.5 q64.5 -74 64.5 -203 q0 -139 -88 -237 q-88 -98 -227.5 -146.5 q-139.5 -48.5 -294.5 -48.5 q-70 0 -150 3 q-183 3 -202 3 q-164 0 -250 -6 l8 41 q74 3 110.5 16 q36.5 13 58.5 48 q22 35 42 112 l270 1016 q18 63 18 100 q0 31 -14 47 q-14 16 -43.5 22.5 q-29.5 6.5 -81.5 6.5 l-28 0 q-69 0 -104 -13.5 q-35 -13.5 -56 -49.5 q-21 -36 -41 -113 q-64 -241 -156 -484 q-92 -243 -197.5 -434 q-105.5 -191 -205.5 -272 q-87 -72 -182 -72 q-121 0 -121 109 q0 31 13 64 q13 33 40.5 56 q27.5 23 67.5 23 q40 0 59 -23.5 q19 -23.5 19 -58.5 q0 -29 -19 -64.5 q-19 -35.5 -47 -62.5 l4 0 q73 3 137 54 q78 62 172.5 222 q94.5 160 192.5 402.5 q98 242.5 182 540.5 q17 65 17 98 q0 31 -13.5 47 q-13.5 16 -42.5 22.5 q-29 6.5 -82 8.5 l11 41 q65 -6 190 -6 q14 0 52 2 q62 4 130 4 q107 0 201 -4 q58 -2 76 -2 q176 0 264 6 l-10 -41 q-75 -3 -111.5 -16 q-36.5 -13 -58 -48 q-21.5 -35 -41.5 -112 l-123 -463 l72 0 ZM1104 47 q260 0 376.5 105.5 q116.5 105.5 116.5 310.5 q0 94 -36 153 q-36 59 -124.5 89 q-88.5 30 -244.5 30 l-55 0 l-138 -518 q-18 -67 -18 -99 q0 -39 27 -55 q27 -16 96 -16 Z" /><glyph glyph-name="uni040A" unicode="&#x40a;" d="M1540 750 q203 0 305.5 -76.5 q102.5 -76.5 102.5 -218.5 q0 -146 -107.5 -249 q-107.5 -103 -271.5 -154.5 q-164 -51.5 -332 -51.5 q-43 0 -91 3 q-102 3 -104 3 q-170 0 -260 -6 l11 41 q72 3 108 16 q36 13 57 48.5 q21 35.5 41 111.5 l131 492 l-657 0 l-131 -492 q-17 -66 -17 -99 q0 -30 13.5 -46 q13.5 -16 42.5 -22.5 q29 -6.5 82 -8.5 l-8 -41 q-96 6 -260 6 q-171 0 -261 -6 l11 41 q72 3 108 16 q36 13 57.5 48.5 q21.5 35.5 41.5 111.5 l270 1016 q17 65 17 98 q0 31 -14 47 q-14 16 -42.5 22.5 q-28.5 6.5 -81.5 8.5 l10 41 q84 -6 260 -6 q164 0 263 6 l-11 -41 q-75 -3 -111.5 -16 q-36.5 -13 -58 -48 q-21.5 -35 -41.5 -112 l-128 -483 l657 0 l129 483 q17 65 17 98 q0 31 -14 47 q-14 16 -42.5 22.5 q-28.5 6.5 -81.5 8.5 l10 41 q82 -6 260 -6 q165 0 262 6 l-10 -41 q-75 -3 -111.5 -16 q-36.5 -13 -58 -48 q-21.5 -35 -41.5 -112 l-128 -483 l208 0 ZM1264 43 q147 0 254.5 53.5 q107.5 53.5 165 153.5 q57.5 100 57.5 237 q0 80 -26.5 128.5 q-26.5 48.5 -83.5 71 q-57 22.5 -150 22.5 l-160 0 l-131 -492 q-18 -66 -18 -103 q0 -39 21.5 -55 q21.5 -16 70.5 -16 Z" /><glyph glyph-name="uni0404" unicode="&#x404;" d="M1458 1450 q-68 -177 -131 -471 l-45 0 q12 79 12 140 q0 96 -32 163 q-38 76 -110.5 118 q-72.5 42 -158.5 42 q-133 0 -262 -101.5 q-129 -101.5 -228.5 -268.5 q-99.5 -167 -150.5 -356 q50 77 123 120 q73 43 146 43 q65 0 112.5 -22 q47.5 -22 108.5 -65 q58 -41 101.5 -61 q43.5 -20 100.5 -20 q47 0 98 27.5 q51 27.5 95 82.5 l27 -18 q-170 -211 -336 -211 q-47 0 -86 12 q-39 12 -68 29 q-29 17 -70 46 q-59 41 -102 61 q-43 20 -102 20 q-93 0 -163 -108 q-28 -128 -28 -242 q0 -198 77.5 -300 q77.5 -102 215.5 -102 q90 0 190.5 42 q100.5 42 174.5 118 q52 53 91.5 124 q39.5 71 92.5 200 l45 0 q-93 -340 -121 -492 l-45 0 q6 44 6 70 q0 52 -24 52 q-16 0 -43 -18 q-73 -47 -122.5 -73 q-49.5 -26 -114.5 -43 q-65 -17 -150 -17 q-228 0 -353 123 q-125 123 -125 359 q0 236 118 475.5 q118 239.5 323.5 395 q205.5 155.5 451.5 155.5 q83 0 139 -18 q56 -18 90.5 -44.5 q34.5 -26.5 76.5 -70.5 q18 -18 31 -18 q36 0 81 122 l43 0 Z" /><glyph glyph-name="uni042D" unicode="&#x42d;" d="M852 1479 q160 0 267.5 -67.5 q107.5 -67.5 159.5 -185 q52 -117.5 52 -270.5 q0 -231 -111 -460 q-111 -229 -310.5 -377 q-199.5 -148 -450.5 -148 q-84 0 -141 17.5 q-57 17.5 -94 44.5 q-37 27 -81 71 q-16 17 -32 17 q-45 0 -82 -121 l-45 0 q67 204 141 492 l45 0 q-16 -98 -16 -167 q0 -94 28 -157 q32 -73 108.5 -116.5 q76.5 -43.5 172.5 -43.5 q154 0 283 110 q129 110 217.5 283.5 q88.5 173.5 131.5 363.5 q-48 -81 -123.5 -127 q-75.5 -46 -150.5 -46 q-65 0 -112 22 q-47 22 -110 65 q-58 41 -101.5 61 q-43.5 20 -100.5 20 q-46 0 -97 -28 q-51 -28 -95 -83 l-27 19 q170 211 336 211 q47 0 86 -12 q39 -12 68 -29 q29 -17 70 -46 q59 -41 102 -61 q43 -20 102 -20 q95 0 165 110 q21 113 21 211 q0 118 -31.5 210.5 q-31.5 92.5 -96.5 146 q-65 53.5 -162 53.5 q-87 0 -183.5 -42.5 q-96.5 -42.5 -173.5 -117.5 q-59 -57 -96.5 -123.5 q-37.5 -66.5 -83.5 -179.5 l-45 0 q90 291 119 471 l43 0 q-3 -21 -5 -50 q-1 -4 -1 -13 q0 -56 29 -56 q14 0 36 15 q66 44 115.5 71 q49.5 27 114 44.5 q64.5 17.5 145.5 17.5 Z" /><glyph glyph-name="uni040B" unicode="&#x40b;" d="M1516 1673 q45 0 68.5 -28 q23.5 -28 23.5 -70 q0 -45 -26.5 -83 q-26.5 -38 -70.5 -65 q-89 -67 -262 -67 q-119 0 -280 23 l-167 -628 q69 38 173.5 67.5 q104.5 29.5 200.5 29.5 q175 0 258 -100 q50 -61 50 -156 q0 -62 -24 -152 l-65 -254 q-11 -42 -11 -68 q0 -44 29.5 -61.5 q29.5 -17.5 95.5 -17.5 l-10 -43 l-28 1 q-128 7 -222 7 q-87 0 -204 -7 l-27 -1 l10 43 q54 0 87 14 q33 14 53 45.5 q20 31.5 36 87.5 l72 261 q26 93 26 154 q0 87 -53 134 q-53 47 -174 47 q-77 0 -154.5 -17.5 q-77.5 -17.5 -128.5 -48.5 l-128 -482 q-19 -68 -19 -104 q0 -35 17 -54.5 q17 -19.5 53.5 -28 q36.5 -8.5 101.5 -10.5 l-8 -41 q-108 6 -305 6 q-201 0 -299 -6 l8 41 q88 3 136.5 21 q48.5 18 76 58 q27.5 40 47.5 118 l311 1170 q-121 13 -192 13 q-177 0 -230 -35 q16 -21 26.5 -54.5 q10.5 -33.5 10.5 -63.5 q0 -47 -26 -83 q-26 -36 -76 -36 q-43 0 -66.5 27.5 q-23.5 27.5 -23.5 74.5 q0 107 108 160 q97 47 275 47 q130 0 341 -29 q216 -28 333 -28 q72 0 118.5 10 q46.5 10 83.5 35 q-51 53 -51 115 q0 46 26 79 q26 33 75 33 Z" /><glyph glyph-name="uni042E" unicode="&#x42e;" d="M1618 1479 q151 0 259.5 -58 q108.5 -58 166 -169 q57.5 -111 57.5 -267 q0 -231 -110 -467.5 q-110 -236.5 -306 -391.5 q-196 -155 -440 -155 q-151 0 -259 58 q-108 58 -165 168.5 q-57 110.5 -57 265.5 q0 117 31 246 l-322 0 l-131 -492 q-17 -66 -17 -99 q0 -30 13.5 -46 q13.5 -16 42.5 -22.5 q29 -6.5 82 -8.5 l-8 -41 q-96 6 -260 6 q-171 0 -261 -6 l11 41 q72 3 108 16 q36 13 57.5 48.5 q21.5 35.5 41.5 111.5 l270 1016 q17 65 17 98 q0 31 -14 47 q-14 16 -42.5 22.5 q-28.5 6.5 -81.5 8.5 l10 41 q84 -6 260 -6 q165 0 262 6 l-10 -41 q-75 -3 -111.5 -16 q-36.5 -13 -58 -48 q-21.5 -35 -41.5 -112 l-128 -483 l321 0 q54 193 169.5 359.5 q115.5 166.5 281.5 268 q166 101.5 362 101.5 ZM1264 8 q154 0 297.5 147.5 q143.5 147.5 232 381.5 q88.5 234 88.5 477 q0 132 -36 228.5 q-36 96.5 -100 148 q-64 51.5 -147 51.5 q-154 0 -297.5 -147.5 q-143.5 -147.5 -232 -381.5 q-88.5 -234 -88.5 -477 q0 -132 36 -228.5 q36 -96.5 100 -148 q64 -51.5 147 -51.5 Z" /><glyph glyph-name="uni0402" unicode="&#x402;" d="M1239 1360 q-96 0 -270 23 l-177 -663 q77 57 186 94.5 q109 37.5 220 37.5 q158 0 248 -80 q90 -80 90 -235 q0 -141 -73.5 -272 q-73.5 -131 -201.5 -212.5 q-128 -81.5 -284 -81.5 q-99 0 -164 35.5 q-65 35.5 -65 108.5 q0 38 18 70.5 q18 32.5 50 52.5 q32 20 73 20 q39 0 61.5 -20 q22.5 -20 22.5 -56 q0 -47 -33.5 -87.5 q-33.5 -40.5 -83.5 -57.5 q22 -35 102 -35 q120 0 207.5 81.5 q87.5 81.5 132.5 204 q45 122.5 45 242.5 q0 142 -62.5 199 q-62.5 57 -170.5 57 q-89 0 -180.5 -30 q-91.5 -30 -148.5 -78 l-187 -701 q-94 29 -256 29 q-63 0 -131 -6 l10 41 q92 3 137 17.5 q45 14.5 70.5 54 q25.5 39.5 48.5 125.5 l311 1170 q-124 13 -202 13 q-167 0 -220 -35 q16 -21 26.5 -54.5 q10.5 -33.5 10.5 -63.5 q0 -47 -26 -83 q-26 -36 -76 -36 q-43 0 -66.5 27.5 q-23.5 27.5 -23.5 74.5 q0 107 108 160 q97 47 275 47 q82 0 154 -7 q72 -7 190 -22 q212 -28 326 -28 q75 0 122 9.5 q47 9.5 84 35.5 q-51 53 -51 115 q0 46 26 79 q26 33 75 33 q45 0 68.5 -28 q23.5 -28 23.5 -70 q0 -45 -26.5 -83 q-26.5 -38 -70.5 -65 q-46 -34 -109.5 -50.5 q-63.5 -16.5 -162.5 -16.5 Z" /><glyph glyph-name="uni0431" unicode="&#x431;" d="M846 1239 q266 0 383 6 q-30 -81 -78 -241 q-19 -69 -27 -127 l-45 0 q15 86 15 144 q0 96 -42.5 136.5 q-42.5 40.5 -138.5 40.5 l-149 0 q-72 0 -107 -11.5 q-35 -11.5 -56.5 -46.5 q-21.5 -35 -41.5 -112 l-95 -360 l210 0 q150 0 244 -39.5 q94 -39.5 135 -102 q41 -62.5 41 -135.5 q0 -108 -76.5 -193 q-76.5 -85 -204 -136.5 q-127.5 -51.5 -276.5 -61.5 q-23 -2 -71 -2 q-56 0 -121 3 q-82 5 -161 5 q-163 0 -250 -6 l9 41 q74 3 110.5 16 q36.5 13 58.5 48 q22 35 42 112 l215 811 q17 65 17 98 q0 31 -14 47 q-14 16 -42.5 22.5 q-28.5 6.5 -81.5 8.5 l10 41 q199 -6 588 -6 ZM344 217 q-19 -73 -19 -101 q0 -38 27.5 -53.5 q27.5 -15.5 96.5 -15.5 q172 0 268.5 46.5 q96.5 46.5 134 128 q37.5 81.5 37.5 200.5 q0 211 -293 211 l-142 0 l-110 -416 Z" /><glyph glyph-name="uni0433" unicode="&#x433;" d="M772 1198 q-74 0 -110.5 -11.5 q-36.5 -11.5 -58.5 -46.5 q-22 -35 -42 -112 l-219 -811 q-15 -57 -15 -90 q0 -34 17 -52 q17 -18 53.5 -25 q36.5 -7 104.5 -9 l-10 -41 q-105 6 -299 6 q-173 0 -263 -6 l11 41 q74 3 110.5 16 q36.5 13 58.5 48 q22 35 42 112 l219 811 q17 66 17 100 q0 30 -13.5 45.5 q-13.5 15.5 -42 22 q-28.5 6.5 -80.5 8.5 l10 41 q199 -6 592 -6 q244 0 348 6 q-60 -160 -84 -262 q-31 -113 -39 -168 l-47 0 q22 121 22 193 q0 101 -37.5 145.5 q-37.5 44.5 -115.5 44.5 l-129 0 Z" /><glyph glyph-name="uni0491" unicode="&#x491;" d="M934 1245 q83 0 132.5 29.5 q49.5 29.5 84.5 94.5 q35 65 82 198 l47 0 q-18 -47 -41 -127 q-32 -125 -49 -242 l-418 0 q-74 0 -110.5 -11.5 q-36.5 -11.5 -58.5 -46.5 q-22 -35 -42 -112 l-219 -811 q-16 -61 -16 -91 q0 -34 17.5 -51.5 q17.5 -17.5 54.5 -24.5 q37 -7 106 -9 l-8 -41 q-108 6 -306 6 q-171 0 -258 -6 l9 41 q74 3 110.5 16 q36.5 13 58.5 48 q22 35 42 112 l219 811 q17 66 17 100 q0 30 -13.5 45.5 q-13.5 15.5 -42 22 q-28.5 6.5 -80.5 8.5 l10 41 q90 -6 264 -6 q70 0 173 3 q240 3 235 3 Z" /><glyph glyph-name="uni0434" unicode="&#x434;" d="M1102 1239 q176 0 264 6 l-10 -41 q-75 -3 -111.5 -16 q-36.5 -13 -58 -47.5 q-21.5 -34.5 -41.5 -112.5 l-215 -811 q-17 -65 -17 -99 q0 -31 13.5 -47.5 q13.5 -16.5 43 -23 q29.5 -6.5 81.5 -6.5 l63 0 q-41 -105 -90 -303 q-13 -57 -20 -94 l-7 -33 l-45 0 q14 83 14 153 q0 127 -48.5 181.5 q-48.5 54.5 -137.5 54.5 l-602 0 q-112 0 -212 -89 q-100 -89 -187 -300 l-45 0 l15 40 l32 87 q58 173 84 303 l127 0 q76 0 141 53 q61 54 137 180.5 q76 126.5 153.5 320 q77.5 193.5 139.5 433.5 q18 65 18 100 q0 30 -14 45.5 q-14 15.5 -42.5 22 q-28.5 6.5 -82.5 8.5 l11 41 q64 -6 190 -6 q14 0 52 2 q62 4 130 4 q108 0 202 -4 q56 -2 75 -2 ZM954 1028 q18 65 18 101 q0 31 -14 47 q-14 16 -43 22 q-29 6 -81 6 l-29 0 q-69 0 -104 -13.5 q-35 -13.5 -56 -49 q-21 -35.5 -41 -113.5 q-50 -190 -124 -385 q-74 -195 -157.5 -349 q-83.5 -154 -160.5 -224 q-13 -11 -41 -29 l418 0 q68 0 103.5 14 q35.5 14 55.5 49.5 q20 35.5 41 112.5 l215 811 Z" /><glyph glyph-name="uni0436" unicode="&#x436;" d="M655 626 q-60 -32 -106.5 -80.5 q-46.5 -48.5 -87.5 -146.5 l-82 -190 q-38 -87 -70.5 -137.5 q-32.5 -50.5 -75 -75.5 q-42.5 -25 -102.5 -25 q-164 0 -219 189 l31 14 q42 -90 123 -90 q40 0 64.5 25.5 q24.5 25.5 49.5 78.5 l80 170 q62 133 150 197.5 q88 64.5 218 92.5 q-77 11 -108 56 q-31 45 -31 117 q0 58 24 176 q20 106 20 144 q0 40 -13 61 q-18 29 -63 29 l-4 0 q16 -38 16 -66 q0 -35 -19.5 -68 q-19.5 -33 -52.5 -54 q-33 -21 -69 -21 q-64 0 -64 63 q0 48 27.5 91.5 q27.5 43.5 74 70.5 q46.5 27 99.5 27 q65 0 98 -47 q17 -27 17 -73 q0 -46 -21 -153 q-24 -118 -24 -174 q0 -67 31 -108.5 q31 -41.5 106 -50.5 q46 17 76 20 l8 0 q32 0 32 -24 q0 -5 -2 -15 q-11 -41 -53 -41 q-24 0 -78 18 ZM1724 1274 q64 0 92.5 -30 q28.5 -30 28.5 -80 q0 -27 -12 -60.5 q-12 -33.5 -39 -57.5 q-27 -24 -68 -24 q-40 0 -59.5 23.5 q-19.5 23.5 -19.5 58.5 q0 30 18.5 65 q18.5 35 46.5 62 l-6 0 q-24 0 -39.5 -6.5 q-15.5 -6.5 -34.5 -22.5 q-30 -28 -52 -76 q-22 -48 -49 -127 q-38 -106 -70 -172 q-32 -66 -89 -117.5 q-57 -51.5 -143 -62.5 q109 -24 164.5 -86.5 q55.5 -62.5 55.5 -188.5 q0 -21 -1 -32 l-8 -150 q-5 -106 71 -106 q52 0 87 38 q35 38 65 122 l35 104 l41 0 l-53 -158 q-39 -112 -100.5 -165.5 q-61.5 -53.5 -149.5 -53.5 q-86 0 -130 49.5 q-44 49.5 -44 143.5 q0 29 2 45 l12 151 q2 32 2 46 q0 81 -22.5 141.5 q-22.5 60.5 -62.5 81.5 q-60 -23 -91 -23 q-42 0 -37 35 q7 43 51 43 q28 0 70 -18 q89 8 146 56 q57 48 88 112.5 q31 64.5 65 167.5 q30 89 55 141.5 q25 52.5 62 83.5 q60 47 122 47 ZM911 217 q-17 -66 -17 -99 q0 -30 13.5 -46 q13.5 -16 42.5 -22.5 q29 -6.5 82 -8.5 l-8 -41 q-95 6 -260 6 q-172 0 -260 -6 l10 41 q72 3 108 16 q36 13 57.5 48.5 q21.5 35.5 41.5 111.5 l215 811 q17 65 17 98 q0 31 -14 47 q-14 16 -42.5 22.5 q-28.5 6.5 -81.5 8.5 l10 41 q84 -6 260 -6 q164 0 263 6 l-11 -41 q-75 -3 -111.5 -16 q-36.5 -13 -58 -48 q-21.5 -35 -41.5 -112 l-215 -811 Z" /><glyph glyph-name="uni0437" unicode="&#x437;" d="M334 6 q112 0 212.5 46 q100.5 46 162 129 q61.5 83 61.5 188 q0 67 -31.5 123 q-31.5 56 -92.5 92 q-61 36 -146 43 q-24 -12 -53 -21.5 q-29 -9.5 -48 -9.5 q-16 0 -26.5 10 q-10.5 10 -10.5 23 q0 35 60 35 q34 0 65 -11 q105 18 200 72 q95 54 153.5 133 q58.5 79 58.5 168 q0 89 -59 131.5 q-59 42.5 -152 42.5 q-119 0 -204.5 -53.5 q-85.5 -53.5 -142.5 -146 q-57 -92.5 -105 -226.5 l-46 0 q93 300 119 471 l43 0 q-5 -35 -5 -50 q-1 -4 -1 -12 q0 -56 30 -56 q15 0 36 14 q72 48 121 74.5 q49 26.5 108 42.5 q59 16 133 16 q96 0 169 -26.5 q73 -26.5 114 -77.5 q41 -51 41 -121 q0 -107 -89 -191 q-89 -84 -217.5 -137.5 q-128.5 -53.5 -252.5 -75.5 q121 2 218.5 -34 q97.5 -36 153.5 -105 q56 -69 56 -162 q0 -114 -91 -198.5 q-91 -84.5 -236.5 -129.5 q-145.5 -45 -303.5 -45 q-195 0 -289 74 q-59 47 -59 111 q0 37 19.5 70 q19.5 33 52 53 q32.5 20 69.5 20 q38 0 61 -20.5 q23 -20.5 23 -59.5 q0 -45 -32 -83.5 q-32 -38.5 -85 -51.5 q8 -20 44.5 -38 q36.5 -18 88.5 -29 q52 -11 105 -11 Z" /><glyph glyph-name="uni0438" unicode="&#x438;" d="M1376 1239 q176 0 264 6 l-10 -41 q-75 -3 -112 -16 q-37 -13 -59 -48 q-22 -35 -42 -112 l-219 -811 q-17 -66 -17 -99 q0 -30 13.5 -46 q13.5 -16 41.5 -22.5 q28 -6.5 81 -8.5 l-10 -41 q-84 6 -260 6 q-164 0 -263 -6 l11 41 q75 3 112 16 q37 13 59 48 q22 35 42 112 l208 769 l-884 -812 q-7 -31 -7 -56 q0 -30 13.5 -46 q13.5 -16 41.5 -22.5 q28 -6.5 81 -8.5 l-10 -41 q-93 6 -258 6 q-173 0 -263 -6 l11 41 q74 3 110.5 16 q36.5 13 58.5 48 q22 35 42 112 l219 811 q17 66 17 100 q0 30 -13.5 45.5 q-13.5 15.5 -42 22 q-28.5 6.5 -80.5 8.5 l10 41 q83 -6 260 -6 q165 0 262 6 l-10 -41 q-75 -3 -112 -16 q-37 -13 -59 -48 q-22 -35 -42 -112 l-211 -782 l885 815 q9 41 9 67 q0 30 -13.5 45.5 q-13.5 15.5 -42 22 q-28.5 6.5 -80.5 8.5 l10 41 q93 -6 258 -6 Z" /><glyph glyph-name="uni043B" unicode="&#x43b;" d="M147 68 q60 53 134.5 184 q74.5 131 152.5 330.5 q78 199.5 144 445.5 q17 66 17 99 q0 31 -13.5 46.5 q-13.5 15.5 -42 22 q-28.5 6.5 -82.5 8.5 l10 41 q64 -6 190 -6 q12 0 52 2 q62 4 131 4 q109 0 201 -4 q58 -2 75 -2 q176 0 264 6 l-10 -41 q-75 -3 -111.5 -16 q-36.5 -13 -58 -48 q-21.5 -35 -41.5 -112 l-215 -811 q-17 -66 -17 -99 q0 -30 13.5 -46 q13.5 -16 42.5 -22.5 q29 -6.5 82 -8.5 l-8 -41 q-87 6 -262 6 q-165 0 -260 -6 l8 41 q74 3 110.5 16 q36.5 13 58.5 48 q22 35 42 112 l215 811 q18 65 18 101 q0 31 -14 47 q-14 16 -43.5 22 q-29.5 6 -81.5 6 l-29 0 q-69 0 -104 -13.5 q-35 -13.5 -56 -49 q-21 -35.5 -41 -113.5 q-50 -195 -124 -396 q-74 -201 -157.5 -360 q-83.5 -159 -160.5 -229 q-87 -72 -182 -72 q-64 0 -92.5 30 q-28.5 30 -28.5 79 q0 31 13 64 q13 33 40.5 56 q27.5 23 67.5 23 q40 0 59 -23.5 q19 -23.5 19 -58.5 q0 -29 -19 -64.5 q-19 -35.5 -47 -62.5 l4 0 q75 3 137 54 Z" /><glyph glyph-name="uni043F" unicode="&#x43f;" d="M1106 1245 q44 0 102 -3 q147 -3 156 -3 q175 0 264 6 l-10 -41 q-75 -3 -111.5 -16 q-36.5 -13 -58 -48 q-21.5 -35 -41.5 -112 l-215 -811 q-17 -66 -17 -99 q0 -30 13.5 -46 q13.5 -16 42.5 -22.5 q29 -6.5 82 -8.5 l-8 -41 q-87 6 -263 6 q-164 0 -260 -6 l9 41 q74 3 110.5 16 q36.5 13 58 48 q21.5 35 41.5 112 l216 811 q17 65 17 100 q0 31 -14 47.5 q-14 16.5 -43 22.5 q-29 6 -81 6 l-326 0 q-74 0 -111 -13 q-37 -13 -58.5 -49 q-21.5 -36 -41.5 -114 l-215 -811 q-17 -66 -17 -99 q0 -30 13.5 -46 q13.5 -16 42.5 -22.5 q29 -6.5 82 -8.5 l-8 -41 q-96 6 -260 6 q-172 0 -260 -6 l10 41 q72 3 108 16 q36 13 57.5 48.5 q21.5 35.5 41.5 111.5 l215 811 q17 65 17 98 q0 31 -14 47 q-14 16 -42.5 22.5 q-28.5 6.5 -81.5 8.5 l10 41 q82 -6 260 -6 q7 0 154 3 q61 3 108 3 l326 0 Z" /><glyph glyph-name="uni0443" unicode="&#x443;" d="M1311 1239 q78 0 133 6 l-10 -41 q-37 -2 -85.5 -34 q-48.5 -32 -91.5 -97 l-591 -820 q-78 -113 -123 -165.5 q-45 -52.5 -108.5 -84.5 q-63.5 -32 -158.5 -32 q-95 0 -151.5 30 q-56.5 30 -56.5 87 q0 29 14.5 56 q14.5 27 40 44 q25.5 17 57.5 17 q37 0 61.5 -25 q24.5 -25 24.5 -61 q0 -33 -23.5 -61 q-23.5 -28 -58.5 -44 q32 -10 80 -10 q91 0 155 34 q64 34 124 110 l-234 925 q-11 46 -37.5 75 q-26.5 29 -56 42 q-29.5 13 -53.5 14 l10 41 q80 -6 221 -6 q158 0 246 6 l-10 -41 q-50 -2 -78 -9.5 q-28 -7.5 -41 -25 q-13 -17.5 -13 -49.5 q0 -29 13 -88 l160 -706 l516 706 q52 80 52 114 q0 28 -29.5 42.5 q-29.5 14.5 -96.5 15.5 l10 41 q59 -6 189 -6 Z" /><glyph glyph-name="uni0444" unicode="&#x444;" d="M1831 678 q0 -136 -105.5 -259.5 q-105.5 -123.5 -312 -206 q-206.5 -82.5 -493.5 -95.5 q-61 -223 -180 -362.5 q-119 -139.5 -308 -139.5 q-83 0 -140 28 q-57 28 -61 85 q-1 29 14 57 q15 28 41.5 45.5 q26.5 17.5 57.5 17.5 q37 0 61.5 -24.5 q24.5 -24.5 24.5 -60.5 q0 -34 -23 -61.5 q-23 -27.5 -59 -43.5 q32 -10 70 -10 q88 0 146.5 61 q58.5 61 94 157.5 q35.5 96.5 74.5 250.5 q-209 8 -359.5 54 q-150.5 46 -231.5 129.5 q-81 83.5 -81 199.5 q0 141 120 272 q120 131 351.5 214 q231.5 83 547.5 83 q69 75 165 139.5 q96 64.5 236 134.5 q-115 -57 -230.5 -89.5 q-115.5 -32.5 -212.5 -32.5 q-66 0 -120.5 15.5 q-54.5 15.5 -94 36.5 q-39.5 21 -91.5 55 q-54 36 -88.5 52.5 q-34.5 16.5 -74.5 16.5 q-41 0 -64.5 -20.5 q-23.5 -20.5 -23.5 -55.5 q0 -67 90 -113 l-22 -32 q-127 55 -127 161 q0 76 57.5 119 q57.5 43 151.5 43 q53 0 102 -14 q49 -14 89.5 -33.5 q40.5 -19.5 100.5 -53.5 q87 -49 148 -73.5 q61 -24.5 131 -24.5 q102 0 295 72 q77 120 129 120 q14 0 27 -11 q13 -11 13 -25 q0 -50 -150 -106 q-193 -120 -299 -285 q195 -13 332.5 -62 q137.5 -49 209.5 -131.5 q72 -82.5 72 -193.5 ZM281 502 q0 -177 118.5 -257 q118.5 -80 342.5 -91 q45 176 36 143 l90 346 q64 246 180 389 q-249 -3 -421.5 -74 q-172.5 -71 -259 -190 q-86.5 -119 -86.5 -266 ZM930 155 q242 13 394.5 89 q152.5 76 220 189 q67.5 113 67.5 245 q0 168 -107.5 250 q-107.5 82 -310.5 99 q-68 -120 -113 -292 l-151 -580 Z" /><glyph glyph-name="uni0447" unicode="&#x447;" d="M1165 1239 q165 0 262 6 l-10 -41 q-75 -3 -112 -16 q-37 -13 -59 -48 q-22 -35 -42 -112 l-219 -811 q-17 -66 -17 -99 q0 -30 13.5 -46 q13.5 -16 41.5 -22.5 q28 -6.5 81 -8.5 l-10 -41 q-84 6 -260 6 q-193 0 -304 -6 l11 41 q93 3 138 16 q45 13 70.5 48 q25.5 35 45.5 112 l101 373 q-68 -38 -173 -67 q-105 -29 -197 -29 q-165 0 -243 100 q-50 63 -50 158 q0 66 23 149 l41 154 q11 42 11 68 q0 44 -30 61.5 q-30 17.5 -96 17.5 l11 43 l29 -1 q128 -7 220 -7 q88 0 205 7 l27 1 l-10 -43 q-54 0 -87 -14 q-33 -14 -53.5 -45.5 q-20.5 -31.5 -36.5 -87.5 l-45 -160 q-26 -94 -26 -158 q0 -86 49 -132 q49 -46 162 -46 q72 0 150 18.5 q78 18.5 128 48.5 l109 402 q17 66 17 100 q0 30 -13.5 45.5 q-13.5 15.5 -42 22 q-28.5 6.5 -80.5 8.5 l10 41 q84 -6 260 -6 Z" /><glyph glyph-name="uni0446" unicode="&#x446;" d="M1042 6 q-9 0 -153 -3 q-61 -3 -109 -3 l-325 0 q-44 0 -103 3 q-147 3 -155 3 q-172 0 -260 -6 l10 41 q74 3 110 16 q36 13 56.5 47.5 q20.5 34.5 40.5 112.5 l215 811 q17 66 17 99 q0 30 -13.5 46 q-13.5 16 -42.5 22.5 q-29 6.5 -82 8.5 l8 41 q86 -6 262 -6 q165 0 260 6 l-8 -41 q-74 -3 -110.5 -16 q-36.5 -13 -58.5 -48 q-22 -35 -42 -112 l-215 -811 q-18 -63 -18 -99 q0 -46 31 -61.5 q31 -15.5 108 -15.5 l326 0 q73 0 110.5 13 q37.5 13 58.5 49 q21 36 41 114 l216 811 q17 66 17 99 q0 30 -13.5 46 q-13.5 16 -42.5 22.5 q-29 6.5 -82 8.5 l8 41 q94 -6 260 -6 q175 0 264 6 l-10 -41 q-72 -3 -109 -16 q-37 -13 -59.5 -48.5 q-22.5 -35.5 -42.5 -111.5 l-215 -811 q-17 -65 -17 -99 q0 -46 30.5 -61.5 q30.5 -15.5 107.5 -15.5 l63 0 q-41 -105 -90 -303 q-11 -46 -26 -127 l-46 0 q15 88 15 155 q0 240 -187 240 Z" /><glyph glyph-name="uni0448" unicode="&#x448;" d="M827 6 q-27 0 -121 -2 q-120 -4 -204 -4 q-74 0 -152 3 q-159 3 -157 3 q-173 0 -263 -6 l11 41 q74 3 110.5 16 q36.5 13 58.5 48 q22 35 42 112 l219 811 q17 66 17 100 q0 30 -13.5 45.5 q-13.5 15.5 -42 22 q-28.5 6.5 -80.5 8.5 l10 41 q82 -6 260 -6 q149 0 242 6 l-10 -41 q-67 -3 -99.5 -16 q-32.5 -13 -53 -48 q-20.5 -35 -40.5 -112 l-219 -811 q-18 -70 -18 -101 q0 -30 13.5 -46.5 q13.5 -16.5 42.5 -22.5 q29 -6 81 -6 l110 0 q73 0 110.5 13 q37.5 13 60 49.5 q22.5 36.5 42.5 113.5 l220 811 q19 74 19 106 q0 27 -11.5 41.5 q-11.5 14.5 -36 20.5 q-24.5 6 -70.5 8 l10 41 q87 -6 238 -6 q160 0 244 6 l-11 -41 q-67 -3 -99.5 -16 q-32.5 -13 -52.5 -47.5 q-20 -34.5 -40 -112.5 l-219 -811 q-18 -72 -18 -102 q0 -30 13.5 -46 q13.5 -16 42.5 -22 q29 -6 81 -6 l110 0 q73 0 110.5 13 q37.5 13 60 49.5 q22.5 36.5 42.5 113.5 l219 811 q19 74 19 107 q0 39 -25.5 52.5 q-25.5 13.5 -91.5 16.5 l10 41 q87 -6 238 -6 q176 0 264 6 l-10 -41 q-76 -3 -112.5 -16 q-36.5 -13 -58.5 -48 q-22 -35 -42 -112 l-219 -811 q-18 -70 -18 -100 q0 -30 13.5 -45.5 q13.5 -15.5 42 -22 q28.5 -6.5 80.5 -8.5 l-10 -41 q-82 6 -260 6 q0 0 -165 -3 q-79 -3 -150 -3 q-83 0 -197 4 q-90 2 -117 2 Z" /><glyph glyph-name="uni0449" unicode="&#x449;" d="M1452 4 q-39 0 -147 -2 q-114 -2 -164 -2 q-83 0 -197 4 q-90 2 -117 2 q-27 0 -121 -2 q-120 -4 -204 -4 q-74 0 -152 3 q-159 3 -157 3 q-176 0 -263 -6 l13 41 q74 3 110 16 q36 13 58 48 q22 35 43 112 l217 811 q18 65 18 100 q0 30 -13.5 45.5 q-13.5 15.5 -42 22 q-28.5 6.5 -81.5 8.5 l10 41 q86 -6 262 -6 q151 0 240 6 l-10 -41 q-66 -3 -98.5 -16 q-32.5 -13 -53 -47.5 q-20.5 -34.5 -41.5 -112.5 l-217 -811 q-19 -70 -19 -102 q0 -44 31 -59 q31 -15 107 -15 l110 0 q73 0 110 13 q37 13 59.5 49 q22.5 36 43.5 114 l218 811 q20 72 20 106 q0 27 -12 41.5 q-12 14.5 -36.5 20.5 q-24.5 6 -70.5 8 l10 41 q90 -6 240 -6 q161 0 242 6 l-11 -41 q-67 -3 -99 -16 q-32 -13 -52 -47.5 q-20 -34.5 -41 -112.5 l-217 -811 q-19 -70 -19 -102 q0 -30 13.5 -46 q13.5 -16 43 -22 q29.5 -6 81.5 -6 l110 0 q73 0 110 13 q37 13 59.5 49 q22.5 36 43.5 114 l217 811 q20 72 20 107 q0 39 -25.5 52.5 q-25.5 13.5 -92.5 16.5 l10 41 q90 -6 240 -6 q177 0 262 6 l-10 -41 q-75 -3 -112 -16 q-37 -13 -58.5 -47.5 q-21.5 -34.5 -42.5 -112.5 l-217 -811 q-18 -64 -18 -100 q0 -30 13.5 -45.5 q13.5 -15.5 42 -22 q28.5 -6.5 81.5 -8.5 l22 0 q-60 -160 -84 -262 q-32 -117 -39 -168 l-47 0 q24 124 24 205 q0 101 -37.5 144.5 q-37.5 43.5 -115.5 43.5 Z" /><glyph glyph-name="uni045F" unicode="&#x45f;" d="M1364 1239 q176 0 264 6 l-10 -41 q-72 -3 -109 -16 q-37 -13 -59.5 -48.5 q-22.5 -35.5 -42.5 -111.5 l-215 -811 q-17 -66 -17 -99 q0 -30 13.5 -46 q13.5 -16 42.5 -22.5 q29 -6.5 82 -8.5 l-8 -41 q-87 6 -263 6 q-9 0 -153 -3 q-48 -2 -67 -2 q-68 -9 -113 -45 q-45 -36 -78.5 -100 q-33.5 -64 -79.5 -184 l-47 0 q26 130 26 193 q0 63 -25 95 q-25 32 -84 40 l-69 3 q-147 3 -155 3 q-172 0 -260 -6 l10 41 q74 3 110 16 q36 13 56.5 47.5 q20.5 34.5 40.5 112.5 l215 811 q17 66 17 99 q0 30 -13.5 46 q-13.5 16 -42.5 22.5 q-29 6.5 -82 8.5 l8 41 q86 -6 262 -6 q165 0 260 6 l-8 -41 q-74 -3 -110.5 -16 q-36.5 -13 -58.5 -48 q-22 -35 -42 -112 l-215 -811 q-18 -63 -18 -99 q0 -46 31 -61.5 q31 -15.5 108 -15.5 l326 0 q73 0 110.5 13 q37.5 13 58.5 49 q21 36 41 114 l216 811 q17 66 17 99 q0 30 -13.5 46 q-13.5 16 -42.5 22.5 q-29 6.5 -82 8.5 l8 41 q94 -6 260 -6 Z" /><glyph glyph-name="uni044C" unicode="&#x44c;" d="M543 729 q186 0 303.5 -28.5 q117.5 -28.5 178 -98 q60.5 -69.5 60.5 -190.5 q0 -133 -79 -226 q-79 -93 -205 -139.5 q-126 -46.5 -264 -46.5 q-70 0 -150 3 q-183 3 -203 3 q-163 0 -250 -6 l9 41 q74 3 110.5 16 q36.5 13 58.5 48 q22 35 42 112 l215 811 q17 65 17 98 q0 31 -14 47 q-14 16 -42.5 22.5 q-28.5 6.5 -81.5 8.5 l10 41 q82 -6 260 -6 q165 0 262 6 l-10 -41 q-75 -3 -111.5 -16 q-36.5 -13 -58 -48 q-21.5 -35 -41.5 -112 l-79 -299 l63 0 ZM449 47 q229 0 330.5 99.5 q101.5 99.5 101.5 295.5 q0 87 -33 141.5 q-33 54.5 -112.5 82.5 q-79.5 28 -219.5 28 l-46 0 l-126 -477 q-19 -73 -19 -100 q0 -38 27.5 -54 q27.5 -16 96.5 -16 Z" /><glyph glyph-name="uni044A" unicode="&#x44a;" d="M817 729 q186 0 304 -28.5 q118 -28.5 178.5 -98 q60.5 -69.5 60.5 -190.5 q0 -133 -79.5 -226 q-79.5 -93 -205.5 -139.5 q-126 -46.5 -264 -46.5 q-71 0 -149 3 q-183 3 -203 3 q-164 0 -250 -6 l8 41 q74 3 110.5 16 q36.5 13 58.5 48 q22 35 42 112 l215 811 q19 73 19 107 q0 43 -27 58 q-27 15 -94 15 q-164 0 -236 -55 q16 -22 26.5 -55.5 q10.5 -33.5 10.5 -63.5 q0 -47 -26.5 -83 q-26.5 -36 -75.5 -36 q-44 0 -67 27.5 q-23 27.5 -23 75.5 q0 100 106 162 q112 65 276 65 q19 0 85 -2 q98 -4 188 -4 q151 0 250 6 l-11 -41 q-75 -3 -111.5 -16 q-36.5 -13 -57.5 -48 q-21 -35 -41 -112 l-80 -299 l63 0 ZM723 47 q229 0 330.5 99.5 q101.5 99.5 101.5 295.5 q0 87 -33 141.5 q-33 54.5 -112.5 82.5 q-79.5 28 -218.5 28 l-46 0 l-127 -477 q-18 -67 -18 -99 q0 -39 27 -55 q27 -16 96 -16 Z" /><glyph glyph-name="uni0459" unicode="&#x459;" d="M1120 641 q185 0 303 -25 q118 -25 179 -85 q61 -60 61 -164 q0 -121 -75 -203.5 q-75 -82.5 -199.5 -123 q-124.5 -40.5 -272.5 -40.5 l-105 2 q-130 4 -235 4 q-155 0 -241 -6 l8 41 q74 3 110.5 16 q36.5 13 58.5 48 q22 35 42 112 l215 811 q18 65 18 101 q0 31 -14 47 q-14 16 -43.5 22 q-29.5 6 -81.5 6 l-29 0 q-69 0 -104 -13.5 q-35 -13.5 -56 -49 q-21 -35.5 -41 -113.5 q-51 -198 -124 -399 q-73 -201 -156.5 -359.5 q-83.5 -158.5 -161.5 -226.5 q-80 -72 -182 -72 q-64 0 -92.5 30 q-28.5 30 -28.5 79 q0 31 13 64 q13 33 40.5 56 q27.5 23 67.5 23 q40 0 59 -23.5 q19 -23.5 19 -58.5 q0 -29 -19 -64.5 q-19 -35.5 -47 -62.5 l4 0 q75 0 137 54 q61 50 135.5 181 q74.5 131 151.5 331 q77 200 144 448 q17 66 17 99 q0 31 -13.5 46.5 q-13.5 15.5 -42 22 q-28.5 6.5 -82.5 8.5 l10 41 q64 -6 190 -6 q12 0 52 2 q62 4 131 4 q109 0 201 -4 q58 -2 75 -2 q176 0 264 6 l-10 -41 q-75 -3 -111.5 -16 q-36.5 -13 -58 -48 q-21.5 -35 -41.5 -112 l-103 -387 l64 0 ZM1063 47 q199 0 297 85 q98 85 98 245 q0 81 -30 130 q-30 49 -109 74 q-79 25 -225 25 l-47 0 l-103 -389 q-19 -73 -19 -100 q0 -39 30 -54.5 q30 -15.5 108 -15.5 Z" /><glyph glyph-name="uni045A" unicode="&#x45a;" d="M1368 641 q185 0 303 -25 q118 -25 179 -85 q61 -60 61 -164 q0 -121 -75 -203.5 q-75 -82.5 -199.5 -123 q-124.5 -40.5 -272.5 -40.5 l-106 2 q-130 4 -234 4 q-155 0 -242 -6 l9 41 q74 3 110.5 16 q36.5 13 58 48 q21.5 35 41.5 112 l104 389 l-658 0 l-103 -389 q-17 -66 -17 -99 q0 -30 13.5 -46 q13.5 -16 42.5 -22.5 q29 -6.5 82 -8.5 l-8 -41 q-96 6 -260 6 q-172 0 -260 -6 l10 41 q72 3 108 16 q36 13 57.5 48.5 q21.5 35.5 41.5 111.5 l215 811 q17 65 17 98 q0 31 -14 47 q-14 16 -42.5 22.5 q-28.5 6.5 -81.5 8.5 l10 41 q82 -6 260 -6 q165 0 262 6 l-10 -41 q-75 -3 -111.5 -16 q-36.5 -13 -58 -48 q-21.5 -35 -41.5 -112 l-101 -381 l658 0 l101 381 q17 65 17 98 q0 31 -13.5 47 q-13.5 16 -42.5 22.5 q-29 6.5 -82 8.5 l10 41 q83 -6 256 -6 q169 0 266 6 l-10 -41 q-75 -3 -111.5 -16 q-36.5 -13 -58 -48 q-21.5 -35 -41.5 -112 l-103 -387 l64 0 ZM1311 47 q199 0 297 85 q98 85 98 245 q0 81 -30.5 130 q-30.5 49 -109.5 74 q-79 25 -225 25 l-46 0 l-103 -389 q-19 -73 -19 -100 q0 -39 30 -54.5 q30 -15.5 108 -15.5 Z" /><glyph glyph-name="uni0454" unicode="&#x454;" d="M1386 1245 q-32 -94 -54 -168.5 q-22 -74.5 -60 -234.5 l-45 0 q3 150 -39 235 q-39 79 -113 119.5 q-74 40.5 -168 40.5 q-129 0 -247.5 -89 q-118.5 -89 -206 -234 q-87.5 -145 -129.5 -310 q48 73 125.5 112.5 q77.5 39.5 160.5 39.5 q59 0 105 -17 q46 -17 106 -50 q57 -30 96 -45 q39 -15 87 -15 q48 0 100 22 q52 22 94 62 l21 -25 q-54 -60 -96 -97 q-42 -37 -92.5 -59 q-50.5 -22 -112.5 -22 q-57 0 -100.5 16 q-43.5 16 -102.5 48 q-61 32 -104 47.5 q-43 15.5 -99 15.5 q-59 0 -115 -20.5 q-56 -20.5 -86 -67.5 q-20 -98 -20 -189 q0 -169 77 -260.5 q77 -91.5 212 -91.5 q94 0 194 42 q100 42 174 118 q86 88 158 240 l45 0 q-50 -153 -94 -408 l-45 0 q6 44 6 70 q0 52 -26 52 q-16 0 -42 -18 q-93 -65 -182.5 -99 q-89.5 -34 -206.5 -34 q-149 0 -255.5 50 q-106.5 50 -163 146.5 q-56.5 96.5 -56.5 233.5 q0 207 105 410 q105 203 296.5 333 q191.5 130 438.5 130 q112 0 180.5 -35.5 q68.5 -35.5 122.5 -97.5 q15 -18 29 -18 q38 0 83 122 l45 0 Z" /><glyph glyph-name="uni044D" unicode="&#x44d;" d="M801 1274 q151 0 258.5 -57 q107.5 -57 164 -165 q56.5 -108 56.5 -259 q0 -214 -108 -403 q-108 -189 -297 -304 q-189 -115 -422 -115 q-88 0 -145.5 17 q-57.5 17 -92.5 43.5 q-35 26.5 -78 72.5 q-16 18 -31 18 q-36 0 -81 -122 l-45 0 q66 193 124 424 l46 0 q-6 -42 -6 -87 q0 -101 32 -169 q34 -73 111 -116.5 q77 -43.5 178 -43.5 q144 0 271 87.5 q127 87.5 214 239 q87 151.5 114 335.5 q-47 -77 -127 -118.5 q-80 -41.5 -167 -41.5 q-59 0 -105 17 q-46 17 -106 50 q-57 31 -95.5 45.5 q-38.5 14.5 -86.5 14.5 q-48 0 -100 -22 q-52 -22 -95 -62 l-20 25 q53 60 95 97 q42 37 93 59 q51 22 113 22 q57 0 100.5 -16 q43.5 -16 101.5 -48 q61 -32 104 -47.5 q43 -15.5 99 -15.5 q60 0 116 20.5 q56 20.5 86 68.5 q5 57 5 105 q0 206 -77 310 q-77 104 -216 104 q-90 0 -190 -42 q-100 -42 -174 -118 q-54 -53 -88 -101 q-34 -48 -64 -112 l-45 0 q61 223 88 381 l45 0 q-6 -42 -6 -69 q0 -53 25 -53 q14 0 43 18 q69 45 118.5 71.5 q49.5 26.5 116 44 q66.5 17.5 150.5 17.5 Z" /><glyph glyph-name="uni044E" unicode="&#x44e;" d="M1460 1274 q126 0 220.5 -52.5 q94.5 -52.5 148 -158.5 q53.5 -106 53.5 -262 q0 -190 -94 -383.5 q-94 -193.5 -262 -320 q-168 -126.5 -377 -126.5 q-126 0 -220.5 52.5 q-94.5 52.5 -148 158.5 q-53.5 106 -53.5 262 q0 77 17 162 l-297 0 l-103 -389 q-17 -66 -17 -99 q0 -30 13.5 -46 q13.5 -16 42.5 -22.5 q29 -6.5 82 -8.5 l-8 -41 q-96 6 -260 6 q-172 0 -260 -6 l10 41 q72 3 108 16 q36 13 57.5 48.5 q21.5 35.5 41.5 111.5 l215 811 q17 65 17 98 q0 31 -14 47 q-14 16 -42.5 22.5 q-28.5 6.5 -81.5 8.5 l10 41 q82 -6 260 -6 q164 0 262 6 l-10 -41 q-75 -3 -111.5 -16 q-36.5 -13 -58 -48 q-21.5 -35 -41.5 -112 l-101 -381 l296 0 q42 164 141.5 307.5 q99.5 143.5 245.5 231.5 q146 88 319 88 ZM1167 8 q139 0 253 119.5 q114 119.5 178.5 309.5 q64.5 190 64.5 392 q0 211 -59 309.5 q-59 98.5 -162 98.5 q-139 0 -253 -119.5 q-114 -119.5 -178.5 -309.5 q-64.5 -190 -64.5 -392 q0 -211 59 -309.5 q59 -98.5 162 -98.5 Z" /><glyph glyph-name="uni044F" unicode="&#x44f;" d="M1098 1239 q144 0 233 6 l-10 -41 q-72 -3 -108 -16 q-36 -13 -57.5 -48 q-21.5 -35 -41.5 -112 l-215 -811 q-17 -65 -17 -98 q0 -31 14 -47 q14 -16 42.5 -22.5 q28.5 -6.5 81.5 -8.5 l-10 -41 q-84 6 -256 6 q-168 0 -267 -6 l11 41 q75 3 111.5 16 q36.5 13 58 48 q21.5 35 41.5 112 l110 416 q-47 -13 -88 -20 q-86 -17 -142.5 -41 q-56.5 -24 -96 -65 q-39.5 -41 -68.5 -108 l-82 -190 q-38 -87 -70.5 -137.5 q-32.5 -50.5 -75 -75.5 q-42.5 -25 -102.5 -25 q-164 0 -219 189 l31 14 q44 -90 123 -90 q40 0 64.5 25.5 q24.5 25.5 49.5 78.5 l80 170 q50 109 126 165.5 q76 56.5 209 85.5 q-125 16 -210.5 86 q-85.5 70 -85.5 196 q0 128 91.5 207.5 q91.5 79.5 230.5 113 q139 33.5 290 33.5 q31 0 83 -2 q68 -4 141 -4 ZM924 1028 q18 67 18 103 q0 43 -23.5 57 q-23.5 14 -78.5 14 q-110 0 -193.5 -39 q-83.5 -39 -130.5 -115.5 q-47 -76.5 -47 -185.5 q0 -110 51.5 -164.5 q51.5 -54.5 163.5 -54.5 q70 0 145 26 l95 359 Z" /><glyph glyph-name="uni0452" unicode="&#x452;" d="M1118 752 q103 0 180 -36 q77 -36 118.5 -104 q41.5 -68 41.5 -163 q0 -123 -68 -233.5 q-68 -110.5 -188 -177.5 q-120 -67 -268 -67 q-104 0 -170 35.5 q-66 35.5 -66 108.5 q0 38 18 70.5 q18 32.5 50.5 52.5 q32.5 20 73.5 20 q39 0 61.5 -20 q22.5 -20 22.5 -56 q0 -46 -33.5 -87 q-33.5 -41 -83.5 -58 q22 -35 104 -35 q113 0 193.5 65.5 q80.5 65.5 121 166.5 q40.5 101 40.5 206 q0 246 -236 246 q-86 0 -176.5 -29.5 q-90.5 -29.5 -147.5 -77.5 l-161 -602 q-94 29 -256 29 q-64 0 -131 -6 l10 41 q92 3 137 17.5 q45 14.5 70.5 54 q25.5 39.5 48.5 125.5 l258 964 q-103 15 -178 15 q-126 0 -189 -35 q16 -22 26.5 -55.5 q10.5 -33.5 10.5 -63.5 q0 -47 -26 -83 q-26 -36 -76 -36 q-42 0 -66 28 q-24 28 -24 75 q0 103 106 159 q88 47 230 47 q113 0 311 -30 q179 -27 274 -27 q69 0 112 10.5 q43 10.5 83 34.5 q-51 51 -51 115 q0 46 25.5 79 q25.5 33 74.5 33 q45 0 68.5 -27.5 q23.5 -27.5 23.5 -68.5 q0 -82 -94 -151 q-49 -35 -108.5 -50.5 q-59.5 -15.5 -139.5 -15.5 q-87 0 -210 19 l-148 -552 q77 57 184.5 93.5 q107.5 36.5 216.5 36.5 Z" /><glyph glyph-name="uni045B" unicode="&#x45b;" d="M1323 190 q-11 -42 -11 -68 q0 -44 29 -61.5 q29 -17.5 97 -17.5 l-11 -43 l-29 1 q-128 7 -220 7 q-88 0 -205 -7 l-27 -1 l10 43 q54 0 87 14 q33 14 53.5 45.5 q20.5 31.5 36.5 87.5 l45 160 q25 87 25 153 q0 88 -52.5 135.5 q-52.5 47.5 -171.5 47.5 q-73 0 -147 -18 q-74 -18 -122 -48 l-110 -382 q-18 -62 -18 -101 q0 -53 38.5 -74 q38.5 -21 133.5 -22 l-9 -41 q-107 6 -305 6 q-200 0 -299 -6 l9 41 q89 3 135.5 19.5 q46.5 16.5 74 56.5 q27.5 40 50.5 121 l278 963 q-110 16 -182 16 q-126 0 -189 -35 q16 -22 26.5 -55.5 q10.5 -33.5 10.5 -63.5 q0 -47 -26 -83 q-26 -36 -76 -36 q-42 0 -66 28 q-24 28 -24 75 q0 103 106 159 q88 47 230 47 q113 0 311 -30 q179 -27 274 -27 q69 0 112 10.5 q43 10.5 83 34.5 q-51 51 -51 115 q0 46 25.5 79 q25.5 33 74.5 33 q45 0 68.5 -27.5 q23.5 -27.5 23.5 -68.5 q0 -82 -94 -151 q-50 -34 -106 -50 q-56 -16 -140 -16 q-90 0 -233 22 l24 -6 l-149 -515 q68 38 167 67 q99 29 191 29 q86 0 151.5 -26.5 q65.5 -26.5 104.5 -74.5 q51 -63 51 -153 q0 -61 -24 -154 l-39 -154 Z" /><glyph glyph-name="Delta" unicode="&#x394;" d="M952 0 q-223 6 -450 6 q-227 0 -455 -6 l477 1479 l33 0 l395 -1479 ZM731 61 l-289 1049 l-333 -1049 l622 0 Z" /><glyph glyph-name="Omega" unicode="&#x3a9;" d="M829 1479 q189 0 321 -61 q132 -61 200.5 -176 q68.5 -115 68.5 -275 q0 -115 -33 -215.5 q-33 -100.5 -83 -183.5 q-50 -83 -138 -207 q-73 -106 -116 -171 q-43 -65 -84 -143 l98 0 q102 0 161.5 32.5 q59.5 32.5 90.5 105.5 q31 73 43 204 l47 0 q-6 -55 -6 -147 q0 -108 14 -242 q-59 6 -209 6 q-72 0 -161 -3 l-130 -3 l0 33 q113 167 207 398.5 q94 231.5 94 494.5 q0 253 -90 384.5 q-90 131.5 -295 131.5 q-204 0 -294.5 -131.5 q-90.5 -131.5 -90.5 -384.5 q0 -262 93.5 -492.5 q93.5 -230.5 207.5 -400.5 l0 -33 l-129 3 q-87 3 -161 3 q-150 0 -209 -6 q14 134 14 242 q0 92 -6 147 l47 0 q12 -131 43 -204 q31 -73 90.5 -105.5 q59.5 -32.5 161.5 -32.5 l98 0 q-41 78 -84 143 q-43 65 -116 171 q-88 124 -138 207 q-50 83 -83 183.5 q-33 100.5 -33 215.5 q0 160 68.5 275 q68.5 115 200.5 176 q132 61 320 61 Z" /><glyph glyph-name="mu" unicode="&#x3bc;" d="M1194 451 q-35 -98 -90 -206 q-55 -108 -133.5 -191 q-78.5 -83 -167.5 -83 q-105 0 -105 119 q0 56 31 167 q-78 -124 -173.5 -205 q-95.5 -81 -205.5 -81 q-131 0 -131 143 q0 24 3 49 q-108 -324 -199 -468 q-52 -80 -134 -80 q-35 0 -53 18.5 q-18 18.5 -18 47.5 q0 34 18 59.5 q18 25.5 68 75.5 q37 37 37 37 q94 95 159 188 q65 93 111 205.5 q46 112.5 76 259.5 q82 421 96 467 q20 59 56 84.5 q36 25.5 77 25.5 q65 0 65 -59 q0 -12 -3 -27 q-5 -31 -24 -65.5 q-19 -34.5 -60 -97.5 q-96 -145 -140 -252 q-58 -160 -58 -255 q0 -83 37 -110 q37 -27 91 -27 q112 0 199 60 q87 60 163 196 l25 79 l19 100 q58 312 69 348 q20 59 56 84.5 q36 25.5 77 25.5 q65 0 65 -59 q0 -38 -15.5 -70 q-15.5 -32 -53.5 -90 q-52 -76 -95 -156 q-43 -80 -85 -203 q-49 -176 -45 -161 q-12 -42 -12 -71 q0 -83 86 -83 q82 0 148.5 62.5 q66.5 62.5 131.5 206.5 l37 -8 Z" /><glyph glyph-name="pi" unicode="&#x3c0;" d="M702 344 q-12 -41 -12 -71 q0 -83 86 -83 q83 0 149.5 62.5 q66.5 62.5 131.5 206.5 l37 -8 q-63 -173 -164 -326.5 q-101 -153.5 -228 -153.5 q-102 0 -102 116 q0 64 29 159 l190 633 l-222 0 q-78 -343 -180.5 -550.5 q-102.5 -207.5 -185.5 -301.5 q-48 -56 -120 -56 q-33 0 -52.5 18.5 q-19.5 18.5 -19.5 49.5 q0 31 14 55.5 q14 24.5 37 45 q23 20.5 68 53.5 q58 44 69 53 q76 61 128 123 q52 62 104 183.5 q52 121.5 101 326.5 l-77 0 q-91 0 -154 -21 q-63 -21 -120.5 -81.5 q-57.5 -60.5 -116.5 -178.5 l-33 8 q64 148 140.5 244.5 q76.5 96.5 187.5 148.5 q111 52 270 52 l590 0 l-30 -172 l-359 0 l-156 -535 Z" /><glyph glyph-name="zero" unicode="0" d="M729 1083 q157 0 239.5 -95 q82.5 -95 82.5 -267 q0 -183 -89 -357.5 q-89 -174.5 -239.5 -283.5 q-150.5 -109 -323.5 -109 q-103 0 -179 42 q-76 42 -116.5 124 q-40.5 82 -40.5 199 q0 182 93 356 q93 174 247 282.5 q154 108.5 326 108.5 ZM690 1047 q-110 0 -211.5 -103.5 q-101.5 -103.5 -164 -272.5 q-62.5 -169 -62.5 -354 q0 -309 186 -309 q115 0 212.5 108.5 q97.5 108.5 154.5 281.5 q57 173 57 354 q0 158 -45 226.5 q-45 68.5 -127 68.5 Z" /><glyph glyph-name="one" unicode="1" d="M147 0 l263 887 q-121 -68 -308 -125 l7 43 q119 36 208.5 80.5 q89.5 44.5 149.5 87 q60 42.5 135 104.5 l41 0 l-317 -1077 l-179 0 Z" /><glyph glyph-name="two" unicode="2" d="M623 1081 q126 0 201 -53 q75 -53 75 -149 q0 -100 -81.5 -204.5 q-81.5 -104.5 -189.5 -191 q-108 -86.5 -264 -194.5 q-119 -83 -153 -111 q56 0 212 -28 q166 -29 222 -29 q141 0 141 98 q0 75 -90 117 l27 26 q113 -52 113 -161 q0 -57 -27 -105 q-27 -48 -84.5 -78 q-57.5 -30 -144.5 -30 q-67 0 -185 29 q-68 16 -115.5 24.5 q-47.5 8.5 -103.5 8.5 q-61 0 -108.5 -11.5 q-47.5 -11.5 -110.5 -38.5 l10 43 q10 8 133 97 q177 125 300.5 226.5 q123.5 101.5 218 230 q94.5 128.5 94.5 259.5 q0 84 -40.5 132 q-40.5 48 -117.5 48 q-74 0 -156.5 -49 q-82.5 -49 -138 -125.5 q-55.5 -76.5 -55.5 -154.5 q0 -51 28 -75 q28 -24 91 -24 q53 0 95 20 q42 20 93 64 l25 -28 q-54 -51 -113.5 -75 q-59.5 -24 -114.5 -24 q-63 0 -108 31 q-45 31 -45 109 q0 90 64 177.5 q64 87.5 172 143 q108 55.5 231 55.5 Z" /><glyph glyph-name="three" unicode="3" d="M621 1087 q126 0 201 -53 q75 -53 75 -149 q0 -88 -65 -164 q-65 -76 -162.5 -129.5 q-97.5 -53.5 -196.5 -79.5 q93 -2 167.5 -29 q74.5 -27 117.5 -79 q43 -52 43 -125 q0 -176 -155 -309 q-155 -133 -381 -204.5 q-226 -71.5 -429 -74.5 l10 37 q176 11 352.5 79.5 q176.5 68.5 294 192.5 q117.5 124 117.5 293 q0 82 -46 132 q-46 50 -128 54 q-48 -19 -72 -27 q-24 -8 -47 -8 q-36 0 -36 21 q0 2 2 10 q8 38 97 38 q26 0 40 -1 q82 31 150.5 84 q68.5 53 109.5 120.5 q41 67.5 41 141.5 q0 86 -45 135 q-45 49 -123 49 q-70 0 -148 -39.5 q-78 -39.5 -130 -102 q-52 -62.5 -52 -126.5 q0 -50 28 -74 q28 -24 91 -24 q69 0 127 31 l23 -31 q-80 -43 -164 -43 q-64 0 -109 30.5 q-45 30.5 -45 108.5 q0 75 61 148.5 q61 73.5 164 120 q103 46.5 222 46.5 Z" /><glyph glyph-name="four" unicode="4" d="M583 70 l-96 -359 l-178 0 l96 359 l-509 0 l12 43 l893 970 l53 0 l-240 -897 l275 0 l-33 -116 l-273 0 ZM603 813 l-574 -627 l407 0 l167 627 Z" /><glyph glyph-name="five" unicode="5" d="M899 1087 q-103 -225 -281 -225 q-38 0 -114 38 q-35 18 -57.5 26.5 q-22.5 8.5 -43.5 8.5 q-8 0 -12 -1 l-229 -469 q66 35 134 52.5 q68 17.5 153 17.5 q157 0 235 -64 q78 -64 78 -170 q0 -188 -150 -322.5 q-150 -134.5 -366.5 -204.5 q-216.5 -70 -411.5 -77 l10 37 q166 1 333.5 68 q167.5 67 278.5 194.5 q111 127.5 111 300.5 q0 82 -52.5 129 q-52.5 47 -162.5 47 q-108 0 -227 -55 l-21 10 l308 633 q36 2 64 -3.5 q28 -5.5 67 -18.5 q44 -14 78.5 -21.5 q34.5 -7.5 83.5 -7.5 q116 0 169 92 l25 -15 Z" /><glyph glyph-name="six" unicode="6" d="M1085 1438 q-197 -47 -388.5 -215 q-191.5 -168 -314 -416.5 q-122.5 -248.5 -122.5 -525.5 q0 -150 37.5 -209.5 q37.5 -59.5 110.5 -59.5 q108 0 192 100 q84 100 130 246 q46 146 46 273 q0 207 -133 207 q-67 0 -131 -58.5 q-64 -58.5 -111 -191.5 l-32 12 q50 159 143.5 228 q93.5 69 198.5 69 q77 0 135 -36 q58 -36 90.5 -105 q32.5 -69 32.5 -166 q0 -159 -82 -302 q-82 -143 -219 -230 q-137 -87 -293 -87 q-154 0 -227.5 92 q-73.5 92 -73.5 275 q0 290 164.5 538 q164.5 248 400 406.5 q235.5 158.5 434.5 196.5 l12 -41 Z" /><glyph glyph-name="seven" unicode="7" d="M1108 1053 q-64 -86 -192 -232 q-138 -159 -228 -275.5 q-90 -116.5 -172 -265.5 q-82 -149 -127 -317 q-9 -32 -23 -103 q-10 -50 -12 -59 q-13 -44 -46.5 -74 q-33.5 -30 -80.5 -30 q-64 0 -64 69 q0 18 5 46 q23 131 119.5 289.5 q96.5 158.5 215.5 303.5 q119 145 294 341 q139 156 186 214 q-129 -88 -301 -88 q-57 0 -101.5 8.5 q-44.5 8.5 -103.5 24.5 q-95 27 -151 27 q-80 0 -128 -35 q-48 -35 -48 -102 q0 -86 69 -143.5 q69 -57.5 215 -92.5 l-12 -31 q-322 62 -322 289 q0 62 31.5 119 q31.5 57 96.5 93 q65 36 161 36 q63 0 117 -13 q54 -13 127 -39 q71 -25 122.5 -38 q51.5 -13 109.5 -13 q61 0 107 20.5 q46 20.5 83 70.5 l53 0 Z" /><glyph glyph-name="eight" unicode="8" d="M1100 1262 q0 -234 -406 -451 q81 -78 128.5 -132 q47.5 -54 81.5 -126 q34 -72 34 -158 q0 -127 -74 -223 q-74 -96 -201 -148.5 q-127 -52.5 -280 -52.5 q-166 0 -264.5 65.5 q-98.5 65.5 -98.5 199.5 q0 167 144 300.5 q144 133.5 347 221.5 q-60 59 -99.5 107 q-39.5 48 -64.5 107.5 q-25 59.5 -25 129.5 q0 110 70 196 q70 86 183 133.5 q113 47.5 236 47.5 q130 0 209.5 -55 q79.5 -55 79.5 -162 ZM671 833 q71 48 131 117.5 q60 69.5 96 151.5 q36 82 36 166 q0 174 -160 174 q-76 0 -141 -37.5 q-65 -37.5 -103 -105 q-38 -67.5 -38 -152.5 q0 -60 23.5 -113.5 q23.5 -53.5 61 -99 q37.5 -45.5 94.5 -101.5 ZM756 352 q0 79 -30 145 q-30 66 -74 116.5 q-44 50.5 -117 121.5 q-98 -54 -173.5 -135.5 q-75.5 -81.5 -118 -180.5 q-42.5 -99 -42.5 -202 q0 -99 46.5 -154 q46.5 -55 153.5 -55 q93 0 174.5 41 q81.5 41 131 119.5 q49.5 78.5 49.5 183.5 Z" /><glyph glyph-name="nine" unicode="9" d="M653 1081 q154 0 227.5 -91.5 q73.5 -91.5 73.5 -274.5 q0 -281 -161 -520 q-161 -239 -392 -391.5 q-231 -152.5 -426 -188.5 l-12 41 q192 45 379 206.5 q187 161.5 306.5 402 q119.5 240.5 119.5 507.5 q0 150 -37 209 q-37 59 -110 59 q-109 0 -193 -100 q-84 -100 -130 -245.5 q-46 -145.5 -46 -272.5 q0 -207 133 -207 q67 0 131 58.5 q64 58.5 111 191.5 l32 -12 q-50 -160 -143 -228.5 q-93 -68.5 -199 -68.5 q-77 0 -135 35.5 q-58 35.5 -90.5 104.5 q-32.5 69 -32.5 167 q0 158 82 301 q82 143 219 230 q137 87 293 87 Z" /><glyph glyph-name="fraction" unicode="&#x2044;" d="M-729 -113 l-31 27 l1706 1774 l31 -27 l-1706 -1774 Z" /><glyph glyph-name="onesuperior" unicode="¹" d="M319 895 l166 514 q-63 -37 -119.5 -63 q-56.5 -26 -138.5 -48 l11 39 q91 28 157.5 61.5 q66.5 33.5 107 62.5 q40.5 29 105.5 81 l39 0 l-207 -647 l-121 0 Z" /><glyph glyph-name="twosuperior" unicode="²" d="M602 1544 q75 0 118.5 -28.5 q43.5 -28.5 43.5 -88.5 q0 -63 -45 -123.5 q-45 -60.5 -107.5 -110 q-62.5 -49.5 -156.5 -114.5 q-74 -52 -103 -75 q39 0 130 -19 q94 -18 128 -18 q43 0 70 19 q27 19 27 52 q0 24 -9 39 l35 15 q21 -33 21 -66 q0 -39 -22 -70.5 q-22 -31.5 -63.5 -50 q-41.5 -18.5 -99.5 -18.5 q-45 0 -115 17 q-92 21 -153 21 q-38 0 -65 -7 q-27 -7 -70 -23 l8 37 l73 47 q111 70 191.5 128.5 q80.5 58.5 142.5 132 q62 73.5 62 146.5 q0 89 -111 89 q-125 0 -219 -107 l-28 23 q53 65 135.5 109 q82.5 44 181.5 44 Z" /><glyph glyph-name="threesuperior" unicode="³" d="M612 1544 q74 0 119 -28 q45 -28 45 -82 q0 -55 -45 -103 q-45 -48 -111 -82 q-66 -34 -128 -49 q96 -3 159.5 -39.5 q63.5 -36.5 63.5 -111.5 q0 -96 -98.5 -170 q-98.5 -74 -244 -117 q-145.5 -43 -284.5 -53 l0 36 q124 10 240 51 q116 41 190 110.5 q74 69.5 74 158.5 q0 103 -113 106 q-37 -20 -65 -20 q-37 0 -37 27 q0 37 90 34 q88 32 139 81.5 q51 49.5 51 111.5 q0 38 -25 57 q-25 19 -71 19 q-122 0 -237 -115 l-29 25 q51 60 136 106.5 q85 46.5 181 46.5 Z" /><glyph glyph-name="braceright" unicode="}" d="M303 1602 q151 0 212.5 -57 q61.5 -57 61.5 -164 q0 -83 -42 -253 q-68 -269 -68 -376 q1 -62 24.5 -90 q23.5 -28 71.5 -31 l10 0 l-6 -37 l-10 0 q-66 -5 -109.5 -49.5 q-43.5 -44.5 -82.5 -147 q-39 -102.5 -89 -301.5 q-48 -190 -106.5 -293 q-58.5 -103 -142 -145.5 q-83.5 -42.5 -215.5 -42.5 l10 39 q72 1 111 29 q39 28 74 118 q35 90 85 295 q43 173 108 279.5 q65 106.5 141.5 158.5 q76.5 52 170.5 78 q-198 60 -198 282 q0 92 36 234 q63 253 60 332 q0 59 -27.5 80 q-27.5 21 -89.5 23 l10 39 Z" /><glyph glyph-name="bracketright" unicode="]" d="M-170 -371 l8 39 l166 0 l469 1874 l-166 0 l8 39 l349 0 l-486 -1952 l-348 0 Z" /><glyph glyph-name="parenright" unicode=")" d="M334 1651 q113 -128 188 -249 q75 -121 116.5 -264 q41.5 -143 41.5 -317 q0 -222 -115 -443.5 q-115 -221.5 -315.5 -414 q-200.5 -192.5 -456.5 -336.5 l-20 27 q360 243 554.5 532.5 q194.5 289.5 194.5 657.5 q0 464 -225 780 l37 27 Z" /><glyph glyph-name="emdash" unicode="&#x2014;" d="M1892 500 l-1790 0 l21 82 l1792 0 l-23 -82 Z" /><glyph glyph-name="endash" unicode="&#x2013;" d="M1331 500 l-1229 0 l21 82 l1231 0 l-23 -82 Z" /><glyph glyph-name="hyphen" unicode="-" d="M848 461 l-739 0 l30 119 l740 0 l-31 -119 Z" /><glyph glyph-name="softhyphen" unicode="­" d="" /><glyph glyph-name="guillemotleft" unicode="«" d="M651 1081 q-42 -90 -120 -206 q-78 -116 -166.5 -218.5 q-88.5 -102.5 -161.5 -156.5 q57 -47 116.5 -141 q59.5 -94 106 -200 q46.5 -106 66.5 -188 l-37 0 q-181 353 -406 527 l0 4 q157 110 294 253 q137 143 271 326 l37 0 ZM989 1081 q-39 -88 -116.5 -204 q-77.5 -116 -167.5 -219.5 q-90 -103.5 -164 -157.5 q56 -47 115.5 -141 q59.5 -94 106.5 -200.5 q47 -106.5 66 -187.5 l-36 0 q-181 353 -406 527 l0 4 q157 110 294 253 q137 143 271 326 l37 0 Z" /><glyph glyph-name="guillemotright" unicode="»" d="M227 1081 q181 -354 406 -528 l0 -2 q-157 -112 -294.5 -254.5 q-137.5 -142.5 -270.5 -325.5 l-37 0 q42 90 120 206 q78 116 166.5 219 q88.5 103 161.5 157 q-57 47 -116.5 140.5 q-59.5 93.5 -106 199.5 q-46.5 106 -66.5 188 l37 0 ZM565 1081 q181 -354 406 -528 l0 -2 q-300 -213 -565 -580 l-37 0 q42 90 120 206 q78 116 166.5 219 q88.5 103 161.5 157 q-57 47 -116.5 140.5 q-59.5 93.5 -106 199.5 q-46.5 106 -66.5 188 l37 0 Z" /><glyph glyph-name="guilsinglleft" unicode="&#x2039;" d="M651 1081 q-42 -90 -120 -206 q-78 -116 -166.5 -218.5 q-88.5 -102.5 -161.5 -156.5 q57 -47 116.5 -141 q59.5 -94 106 -200 q46.5 -106 66.5 -188 l-37 0 q-181 353 -406 527 l0 4 q157 110 294 253 q137 143 271 326 l37 0 Z" /><glyph glyph-name="guilsinglright" unicode="&#x203a;" d="M227 1081 q181 -354 406 -528 l0 -2 q-157 -112 -294.5 -254.5 q-137.5 -142.5 -270.5 -325.5 l-37 0 q42 90 120 206 q78 116 166.5 219 q88.5 103 161.5 157 q-57 47 -116.5 140.5 q-59.5 93.5 -106 199.5 q-46.5 106 -66.5 188 l37 0 Z" /><glyph glyph-name="quotedblbase" unicode="&#x201e;" d="M246 113 q0 -71 -36 -143 q-36 -72 -104.5 -135.5 q-68.5 -63.5 -160.5 -108.5 l-11 28 q97 59 154 129 q57 70 64 140 q-59 -52 -107 -52 q-27 0 -42 19.5 q-15 19.5 -15 52.5 q0 43 24.5 87.5 q24.5 44.5 63.5 73.5 q39 29 80 29 q90 0 90 -120 ZM586 113 q0 -71 -36 -143 q-36 -72 -104.5 -135.5 q-68.5 -63.5 -160.5 -108.5 l-11 28 q97 59 154 129 q57 70 64 140 q-59 -52 -107 -52 q-27 0 -42 19.5 q-15 19.5 -15 52.5 q0 43 24.5 87.5 q24.5 44.5 63.5 73.5 q39 29 80 29 q90 0 90 -120 Z" /><glyph glyph-name="asterisk" unicode="*" d="M1044 1276 q4 -12 4 -19 q0 -54 -87 -100 q-36 -18 -78 -30 q-42 -12 -118 -31 q-52 -12 -130 -33 q-53 17 120 -36 q68 -19 104.5 -31.5 q36.5 -12.5 60.5 -28.5 q49 -31 49 -73 q0 -28 -19 -50 q-23 -32 -63 -32 q-33 0 -68 24 q-26 16 -48 40 q-22 24 -65 77 q-37 48 -74 91 q1 -49 5 -114 q4 -92 4 -121 q0 -42 -4 -70 q-15 -57 -43.5 -83.5 q-28.5 -26.5 -61.5 -26.5 q-23 0 -37.5 16 q-14.5 16 -14.5 50 q0 23 5 44 q7 40 26 85 q19 45 64 136 q14 27 47 95 l-1 0 q-32 -25 -57 -46 q-25 -21 -44 -37 q-68 -58 -107.5 -89 q-39.5 -31 -74.5 -49 q-47 -23 -80 -23 q-43 0 -55 35 q-4 12 -4 19 q0 51 88 100 q36 18 78 30.5 q42 12.5 117 30.5 q57 14 129 33 q-46 15 -118 35 q-71 21 -106 33 q-35 12 -59 28 q-50 31 -50 74 q0 27 19 49 q23 32 64 32 q33 0 67 -24 q27 -17 51 -43.5 q24 -26.5 62 -75.5 q51 -64 81 -99 q-1 25 -5 66 q-10 136 -10 173 q0 46 5 75 q13 57 41.5 84 q28.5 27 59.5 27 q24 0 39 -16 q15 -16 15 -51 q0 -23 -5 -44 q-5 -36 -22 -77 q-17 -41 -53 -117 q-35 -75 -53 -116 l102 84 q69 58 105 86.5 q36 28.5 68 45.5 q47 23 80 23 q43 0 55 -35 Z" /><glyph glyph-name="backslash" unicode="\" d="M733 -29 l-463 1508 l64 0 l467 -1508 l-68 0 Z" /><glyph glyph-name="bullet" unicode="&#x2022;" d="M139 510 q9 80 55 147 q46 67 116.5 106.5 q70.5 39.5 150.5 39.5 q74 0 134.5 -34.5 q60.5 -34.5 95 -94 q34.5 -59.5 34.5 -132.5 q0 -10 -2 -32 q-8 -80 -54 -146.5 q-46 -66.5 -117 -105.5 q-71 -39 -151 -39 q-74 0 -134 34.5 q-60 34.5 -94.5 94.5 q-34.5 60 -34.5 133 q0 19 1 29 Z" /><glyph glyph-name="comma" unicode="," d="M264 113 q0 -71 -36 -143 q-36 -72 -104 -135.5 q-68 -63.5 -161 -108.5 l-10 28 q97 59 154 129 q57 70 63 140 q-59 -52 -107 -52 q-36 0 -56.5 19.5 q-20.5 19.5 -20.5 52.5 q0 43 27.5 87.5 q27.5 44.5 71.5 73.5 q44 29 89 29 q45 0 67.5 -35 q22.5 -35 22.5 -85 Z" /><glyph glyph-name="exclam" unicode="!" d="M193 408 q42 161 72.5 322 q30.5 161 66.5 377 q53 316 80 415 q10 38 34.5 59 q24.5 21 57.5 21 q47 0 70.5 -23 q23.5 -23 23.5 -60 q0 -20 -8 -44 q-24 -82 -115 -328 q-82 -221 -141 -394 q-59 -173 -105 -352 l-36 7 ZM13 76 q0 40 22 76.5 q22 36.5 57.5 58.5 q35.5 22 73.5 22 q46 0 75 -30.5 q29 -30.5 29 -76.5 q0 -40 -21.5 -75.5 q-21.5 -35.5 -57.5 -57.5 q-36 -22 -75 -22 q-45 0 -74 30 q-29 30 -29 75 Z" /><glyph glyph-name="exclamdown" unicode="¡" d="M216 924 q0 40 22 76.5 q22 36.5 57.5 58.5 q35.5 22 73.5 22 q46 0 75 -30.5 q29 -30.5 29 -76.5 q0 -40 -21.5 -75.5 q-21.5 -35.5 -57.5 -57.5 q-36 -22 -75 -22 q-45 0 -74 30 q-29 30 -29 75 ZM291 647 q-54 -214 -116 -609 q-38 -248 -62 -343 q-9 -39 -34.5 -59.5 q-25.5 -20.5 -58.5 -20.5 q-46 0 -69.5 23 q-23.5 23 -23.5 61 q0 22 7 43 q19 65 103 282 q73 188 125 333.5 q52 145.5 92 295.5 l37 -6 Z" /><glyph glyph-name="numbersign" unicode="#" d="M827 547 l293 0 l-20 -41 l-292 0 l-138 -299 l-49 0 l138 299 l-334 0 l-138 -299 l-49 0 l138 299 l-300 0 l18 41 l301 0 l159 342 l-300 0 l16 41 l303 0 l140 303 l49 0 l-140 -303 l334 0 l140 303 l49 0 l-140 -303 l291 0 l-16 -41 l-294 0 l-159 -342 ZM603 889 l-159 -342 l334 0 l159 342 l-334 0 Z" /><glyph glyph-name="period" unicode="." d="M-3 76 q0 40 22 76.5 q22 36.5 57.5 58.5 q35.5 22 73.5 22 q46 0 75 -30.5 q29 -30.5 29 -76.5 q0 -40 -21.5 -75.5 q-21.5 -35.5 -57.5 -57.5 q-36 -22 -75 -22 q-45 0 -74 30 q-29 30 -29 75 Z" /><glyph glyph-name="question" unicode="?" d="M637 1567 q-68 0 -133 -26.5 q-65 -26.5 -80 -74.5 q19 -5 35 -28.5 q16 -23.5 16 -53.5 q0 -44 -31 -72 q-31 -28 -77 -28 q-41 0 -61.5 23 q-20.5 23 -20.5 63 q0 66 55.5 119 q55.5 53 145 83 q89.5 30 184.5 30 q137 0 220 -63 q83 -63 83 -179 q0 -65 -31.5 -130 q-31.5 -65 -105.5 -141.5 q-74 -76.5 -201 -175.5 q-52 -40 -107 -80 q-90 -66 -132.5 -103 q-42.5 -37 -66.5 -77.5 q-24 -40.5 -24 -91.5 q0 -62 35.5 -101.5 q35.5 -39.5 110.5 -39.5 q60 0 117.5 24.5 q57.5 24.5 78.5 65.5 q-19 2 -36.5 24 q-17.5 22 -16.5 48 q0 32 26 58 q26 26 66 26 q31 0 50.5 -17.5 q19.5 -17.5 19.5 -54.5 q0 -61 -53 -109 q-53 -48 -133.5 -74 q-80.5 -26 -157.5 -26 q-108 0 -172 51.5 q-64 51.5 -64 147.5 q0 74 39.5 137 q39.5 63 101 116.5 q61.5 53.5 175.5 138.5 q38 27 65 48 q102 78 157.5 130.5 q55.5 52.5 82 104 q26.5 51.5 26.5 115.5 q0 88 -46.5 140.5 q-46.5 52.5 -139.5 52.5 ZM218 76 q0 40 22 76.5 q22 36.5 57.5 58.5 q35.5 22 73.5 22 q46 0 75 -30.5 q29 -30.5 29 -76.5 q0 -40 -21.5 -75.5 q-21.5 -35.5 -57.5 -57.5 q-36 -22 -75 -22 q-45 0 -74 30 q-29 30 -29 75 Z" /><glyph glyph-name="questiondown" unicode="¿" d="M409 924 q0 40 22 76.5 q22 36.5 57.5 58.5 q35.5 22 73.5 22 q46 0 75 -30.5 q29 -30.5 29 -76.5 q0 -40 -21.5 -75.5 q-21.5 -35.5 -57.5 -57.5 q-36 -22 -75 -22 q-45 0 -74 30 q-29 30 -29 75 ZM252 -350 q79 0 156 26 q77 26 96 74 q-19 5 -35 28.5 q-16 23.5 -16 53.5 q0 44 31 72 q31 28 77 28 q40 0 61 -23 q21 -23 21 -63 q0 -66 -61.5 -119 q-61.5 -53 -161 -82.5 q-99.5 -29.5 -207.5 -29.5 q-135 0 -217 52.5 q-82 52.5 -82 148.5 q0 62 32 112.5 q32 50.5 100.5 105.5 q68.5 55 205.5 146 l70 49 q86 61 125.5 92.5 q39.5 31.5 62 68 q22.5 36.5 22.5 83.5 q0 37 -17.5 69 q-17.5 32 -49 51 q-31.5 19 -72.5 19 q-65 0 -127.5 -24.5 q-62.5 -24.5 -87.5 -65.5 q20 -2 37 -23.5 q17 -21.5 16 -47.5 q0 -33 -26 -58.5 q-26 -25.5 -66 -25.5 q-69 0 -69 71 q0 61 56 109 q56 48 141 74 q85 26 167 26 q107 0 171.5 -51 q64.5 -51 64.5 -145 q0 -68 -35.5 -123.5 q-35.5 -55.5 -92 -102.5 q-56.5 -47 -164.5 -123 q-32 -22 -48 -34 q-99 -66 -151.5 -108 q-52.5 -42 -78.5 -82.5 q-26 -40.5 -26 -88.5 q0 -60 47 -99.5 q47 -39.5 131 -39.5 Z" /><glyph glyph-name="quotesingle" unicode="&#39;" d="M477 1427 q0 -37 -15.5 -74.5 q-15.5 -37.5 -52.5 -103.5 q-59 -106 -94 -188 l-28 0 q12 89 21 201 q8 102 20 147 q10 43 33.5 64.5 q23.5 21.5 52.5 21.5 q63 0 63 -68 Z" /><glyph glyph-name="slash" unicode="/" d="M1108 1479 l-1122 -1508 l-68 0 l1122 1508 l68 0 Z" /><glyph glyph-name="nonbreakingspace" unicode=" " d="" /><glyph glyph-name="uni2009" unicode="&#x2009;" d="" /><glyph glyph-name="nonmarkingreturn" unicode="" d="" /><glyph glyph-name="florin" unicode="&#x192;" d="M940 1602 q62 0 107.5 -19 q45.5 -19 69 -52.5 q23.5 -33.5 23.5 -74.5 q0 -15 -5 -37 q-13 -45 -49.5 -74.5 q-36.5 -29.5 -84.5 -29.5 q-41 0 -64 18.5 q-23 18.5 -23 52.5 q0 16 4 31 q23 77 116 105 q-2 19 -28.5 34 q-26.5 15 -67.5 15 q-93 0 -152 -76 q-25 -29 -45 -76 q-20 -47 -41 -117 q-21 -70 -63 -224 l-6 -23 l-1 -2 l343 0 l-10 -41 l-343 0 l-208 -776 q-46 -168 -102 -292 q-56 -124 -140 -204 q-65 -62 -135.5 -93.5 q-70.5 -31.5 -136.5 -31.5 q-57 0 -85 22 q-28 22 -28 59 q0 15 4 28 q11 42 44 69 q33 27 77 27 q33 0 52 -18 q19 -18 19 -47 q0 -15 -4 -27 q-8 -44 -53 -82 q84 9 132.5 58.5 q48.5 49.5 78.5 162.5 l306 1145 l-251 0 l11 41 l251 0 l1 2 q34 126 63.5 205.5 q29.5 79.5 65.5 136 q36 56.5 88 102.5 q52 48 123.5 75.5 q71.5 27.5 146.5 27.5 Z" /><glyph glyph-name="cent" unicode="¢" d="M1380 1245 q-64 -189 -133 -471 l-45 0 q13 101 13 158 q0 77 -33 145 q-37 78 -111.5 119 q-74.5 41 -169.5 41 q-132 0 -257 -96 l-280 -1044 q75 -89 210 -89 q94 0 194 42 q100 42 174 118 q54 56 93 126 q39 70 92 198 l45 0 q-97 -355 -121 -492 l-45 0 q6 43 6 70 q0 52 -26 52 q-16 0 -42 -18 q-93 -65 -182.5 -99 q-89.5 -34 -206.5 -34 q-124 0 -216 34 l-101 -376 l-45 0 l105 392 q-106 51 -162 147 q-56 96 -56 233 q0 162 65 324.5 q65 162.5 187.5 293.5 q122.5 131 286.5 197 l63 234 l45 0 l-58 -215 q120 39 251 39 q112 0 180.5 -35.5 q68.5 -35.5 122.5 -97.5 q15 -18 29 -18 q38 0 83 122 l45 0 ZM585 1090 q-88 -86 -156.5 -208 q-68.5 -122 -106 -258.5 q-37.5 -136.5 -37.5 -263.5 q0 -131 46 -215 l254 945 Z" /><glyph glyph-name="currency" unicode="¤" d="M285 371 q-86 104 -86 243 q0 141 88 246 l-90 90 l57 58 l90 -90 q107 86 244 86 q137 0 243 -89 l93 93 l57 -58 l-92 -92 q86 -109 86 -244 q0 -138 -86 -243 l90 -88 l-57 -60 l-91 90 q-109 -86 -243 -86 q-139 0 -244 84 l-88 -88 l-59 60 l88 88 ZM283 614 q0 -84 41.5 -155.5 q41.5 -71.5 111.5 -113.5 q70 -42 152 -42 q82 0 151.5 42 q69.5 42 110.5 113.5 q41 71.5 41 155.5 q0 83 -41 155 q-41 72 -111 115.5 q-70 43.5 -151 43.5 q-82 0 -152.5 -43 q-70.5 -43 -111.5 -115 q-41 -72 -41 -156 Z" /><glyph glyph-name="dollar" unicode="$" d="M1061 1360 q40 -31 73 -90.5 q33 -59.5 33 -124.5 q0 -66 -33.5 -114 q-33.5 -48 -89.5 -48 q-51 0 -77.5 39 q-26.5 39 -26.5 94 q0 60 21.5 110 q21.5 50 58.5 107 q-45 47 -118 75 l-178 -641 q74 -69 123.5 -126.5 q49.5 -57.5 81.5 -125 q32 -67.5 32 -142.5 q0 -123 -65.5 -209.5 q-65.5 -86.5 -169 -133 q-103.5 -46.5 -222.5 -56.5 l-68 -244 l-45 0 l67 241 l-16 0 q-80 0 -147 18 l-72 -259 l-45 0 l76 272 q-44 16 -75.5 36.5 q-31.5 20.5 -69.5 51.5 q-46 35 -76.5 92 q-30.5 57 -30.5 123 q0 66 33.5 114 q33.5 48 89.5 48 q52 0 78 -38.5 q26 -38.5 26 -94.5 q0 -60 -21 -109 q-21 -49 -58 -108 q44 -46 115 -73 l188 675 q-84 84 -130.5 168 q-46.5 84 -46.5 192 q0 115 53.5 200 q53.5 85 141.5 134.5 q88 49.5 192 61.5 l68 245 l45 0 l-67 -241 l18 0 q77 0 145 -17 l72 258 l45 0 l-75 -271 q45 -16 76.5 -37 q31.5 -21 70.5 -52 ZM861 1422 q-65 18 -132 18 q-21 0 -31 -1 l-141 -509 q39 -44 131 -130 l173 622 ZM442 1180 q0 -103 81 -209 l128 462 q-97 -18 -153 -81.5 q-56 -63.5 -56 -171.5 ZM469 12 l151 543 q-39 41 -98 97 l-34 32 l-182 -654 q70 -18 143 -18 l20 0 ZM750 268 q0 127 -96 247 l-139 -499 q111 14 173 76.5 q62 62.5 62 175.5 Z" /><glyph glyph-name="Euro" unicode="&#x20ac;" d="M1239 1407 q59 -56 59 -115 q0 -35 -19 -68 q-19 -33 -51.5 -53 q-32.5 -20 -70.5 -20 q-39 0 -62.5 21 q-23.5 21 -23.5 57 q0 48 36.5 87.5 q36.5 39.5 90.5 53.5 q-11 30 -57.5 52 q-46.5 22 -102.5 22 q-101 0 -197.5 -80 q-96.5 -80 -177.5 -214 q-81 -134 -139 -296 l416 0 l-35 -41 l-395 0 q-21 -59 -48 -164 l308 0 l-37 -41 l-280 0 q-33 -156 -33 -280 q0 -159 54.5 -240.5 q54.5 -81.5 160.5 -81.5 q62 0 123 23.5 q61 23.5 86 54.5 q-64 12 -64 76 q0 36 20.5 68 q20.5 32 55 51.5 q34.5 19.5 72.5 19.5 q39 0 61.5 -21 q22.5 -21 22.5 -57 q0 -93 -140 -178 q-117 -72 -256 -72 q-118 0 -204.5 51.5 q-86.5 51.5 -133.5 149.5 q-47 98 -47 236 q0 94 21 200 l-174 0 l12 41 l171 0 q21 87 49 164 l-177 0 l12 41 l181 0 q67 170 170.5 311.5 q103.5 141.5 239 227.5 q135.5 86 290.5 86 q132 0 213 -72 Z" /><glyph glyph-name="uni20B9" unicode="&#x20b9;" d="M571 1409 q254 -38 318 -164 l301 0 l-10 -41 l-276 0 q5 -23 5 -45 q0 -120 -84 -213.5 q-84 -93.5 -208.5 -153 q-124.5 -59.5 -256.5 -90.5 q154 -10 232.5 -70 q78.5 -60 78.5 -178 q0 -20 -1 -30 l-15 -209 q-3 -63 -3 -67 q0 -47 15 -74 q15 -27 55 -27 q39 0 72.5 44.5 q33.5 44.5 55.5 127.5 l8 29 l39 0 l-8 -27 q-34 -128 -96.5 -189 q-62.5 -61 -163.5 -61 q-177 0 -177 193 q0 23 1 35 l14 198 q5 58 5 95 q0 65 -15.5 104 q-15.5 39 -56.5 62 q-41 23 -117 30 q-67 -25 -107 -25 q-39 0 -39 27 q0 39 58 39 q41 0 100 -18 q112 26 206 92.5 q94 66.5 150 165.5 q56 99 56 217 l-1 18 l-470 0 l10 41 l454 0 q-40 164 -342 164 l-67 0 l10 41 l940 0 l-10 -41 l-660 0 Z" /><glyph glyph-name="sterling" unicode="£" d="M1028 1309 q0 41 27.5 73.5 q27.5 32.5 70.5 44.5 q0 20 -35 35 q-35 15 -79 15 q-122 0 -199.5 -71 q-77.5 -71 -120.5 -176.5 q-43 -105.5 -90 -277.5 l-26 -98 l278 0 l-12 -41 l-277 0 l-43 -164 l277 0 l-13 -41 l-276 0 q-28 -88 -73 -162 q-45 -74 -101 -138.5 q-56 -64.5 -143 -151.5 q139 65 258 65 q46 0 86 -10.5 q40 -10.5 101 -33.5 q62 -24 108.5 -36 q46.5 -12 99.5 -12 q46 0 86.5 19 q40.5 19 65 53.5 q24.5 34.5 24.5 79.5 q0 58 -35 93.5 q-35 35.5 -98 47.5 l12 35 q89 -16 148 -69 q59 -53 59 -140 q0 -67 -40.5 -131.5 q-40.5 -64.5 -108.5 -105 q-68 -40.5 -144 -40.5 q-63 0 -112 24 q-49 24 -116 72 q-46 32 -77.5 51 q-31.5 19 -71.5 32.5 q-40 13.5 -86 13.5 q-85 0 -178 -41 q-52 -72 -104 -112 q-52 -40 -93 -40 q-14 0 -20 4.5 q-6 4.5 -6 16.5 q0 20 24.5 48 q24.5 28 71 55.5 q46.5 27.5 107.5 45.5 q42 82 75.5 167.5 q33.5 85.5 69.5 219.5 l21 80 l-199 0 l12 41 l198 0 l43 164 l-198 0 l12 41 l197 0 l12 45 q74 278 224.5 443 q150.5 165 394.5 165 q70 0 118 -19 q48 -19 71.5 -50.5 q23.5 -31.5 23.5 -69.5 q0 -34 -16.5 -63.5 q-16.5 -29.5 -45.5 -47.5 q-29 -18 -65 -18 q-32 0 -53 19 q-21 19 -21 51 Z" /><glyph glyph-name="yen" unicode="¥" d="M1450 1479 q60 0 87 -31.5 q27 -31.5 27 -78.5 q0 -30 -13 -63 q-13 -33 -40.5 -56 q-27.5 -23 -67.5 -23 q-77 0 -77 81 q0 33 18 67 q18 34 47 61 l-6 0 q-55 -3 -113 -45 q-107 -78 -230.5 -251.5 q-123.5 -173.5 -237.5 -447.5 l-21 -84 l289 0 l-10 -41 l-289 0 l-31 -123 l285 0 l-10 -41 l-285 0 l-47 -186 q-17 -66 -17 -99 q0 -30 13.5 -46 q13.5 -16 42 -22.5 q28.5 -6.5 81.5 -8.5 l-10 -41 q-92 6 -254 6 q-180 0 -268 -6 l10 41 q74 3 111 16 q37 13 59 48.5 q22 35.5 41 111.5 l47 186 l-288 0 l10 41 l288 0 l31 123 l-284 0 l10 41 l284 0 l22 87 q-73 671 -239 671 q-35 0 -58 -22 q-23 -22 -40 -74 l-57 -168 l-45 0 l67 198 q22 64 46 102 q24 38 61 57.5 q37 19.5 94 19.5 q108 0 174.5 -88 q66.5 -88 103.5 -245.5 q37 -157.5 64 -408.5 q148 372 383 609 q133 133 242 133 Z" /><glyph glyph-name="approxequal" unicode="&#x2248;" d="M909 758 q-71 0 -121 21 q-50 21 -112 62 q-59 39 -104.5 58 q-45.5 19 -108.5 19 q-133 0 -236 -119 l-26 10 q71 102 175.5 160.5 q104.5 58.5 217.5 58.5 q50 0 90.5 -11.5 q40.5 -11.5 70 -27.5 q29.5 -16 71.5 -44 q60 -39 104.5 -58 q44.5 -19 107.5 -19 q133 0 238 119 l24 -10 q-71 -102 -174.5 -160.5 q-103.5 -58.5 -216.5 -58.5 ZM840 485 q-50 0 -90 11.5 q-40 11.5 -69.5 27 q-29.5 15.5 -72.5 43.5 q-59 39 -104 58.5 q-45 19.5 -109 19.5 q-132 0 -237 -119 l-25 11 q71 102 174.5 160.5 q103.5 58.5 216.5 58.5 q50 0 90.5 -11.5 q40.5 -11.5 70.5 -27.5 q30 -16 72 -43 q58 -39 104 -58.5 q46 -19.5 110 -19.5 q132 0 235 119 l27 -10 q-71 -102 -175.5 -161 q-104.5 -59 -217.5 -59 Z" /><glyph glyph-name="asciitilde" unicode="~" d="M860 485 q-71 0 -126 21 q-55 21 -127 62 q-70 39 -119.5 58 q-49.5 19 -112.5 19 q-133 0 -207 -119 l-29 11 q47 102 136.5 160.5 q89.5 58.5 201.5 58.5 q71 0 125 -20.5 q54 -20.5 128 -61.5 q68 -39 118.5 -58.5 q50.5 -19.5 114.5 -19.5 q132 0 206 119 l29 -10 q-46 -103 -135.5 -161.5 q-89.5 -58.5 -202.5 -58.5 Z" /><glyph glyph-name="divide" unicode="÷" d="M684 1022 q14 46 56.5 79.5 q42.5 33.5 88.5 33.5 q39 0 63 -23 q24 -23 24 -59 q0 -13 -5 -31 q-13 -48 -56 -80.5 q-43 -32.5 -91 -32.5 q-38 0 -61.5 22.5 q-23.5 22.5 -23.5 58.5 q0 14 5 32 ZM1223 758 l-19 -62 l-1026 0 l19 62 l1026 0 ZM514 432 q13 46 56 79.5 q43 33.5 89 33.5 q39 0 63 -22.5 q24 -22.5 24 -58.5 q0 -14 -5 -32 q-14 -47 -57 -81 q-43 -34 -90 -34 q-38 0 -61.5 23.5 q-23.5 23.5 -23.5 59.5 q0 14 5 32 Z" /><glyph glyph-name="equal" unicode="=" d="M1270 901 l-19 -61 l-1026 0 l19 61 l1026 0 ZM1188 614 l-19 -61 l-1026 0 l19 61 l1026 0 Z" /><glyph glyph-name="greater" unicode="&gt;" d="M1049 770 l-758 406 l33 59 l878 -473 l-1075 -445 l-21 60 l943 393 Z" /><glyph glyph-name="infinity" unicode="&#x221e;" d="M1370 975 q84 0 142.5 -33 q58.5 -33 88 -88.5 q29.5 -55.5 29.5 -120.5 q0 -73 -38.5 -129.5 q-38.5 -56.5 -105.5 -87.5 q-67 -31 -151 -31 q-82 0 -182 45.5 q-100 45.5 -233 131.5 l-27 -13 q-111 -57 -185.5 -91.5 q-74.5 -34.5 -151 -57.5 q-76.5 -23 -142.5 -23 q-84 0 -142.5 33 q-58.5 33 -88 88.5 q-29.5 55.5 -29.5 120.5 q0 73 38.5 129.5 q38.5 56.5 105.5 87.5 q67 31 151 31 q82 0 182 -45.5 q100 -45.5 233 -131.5 l26 13 q113 57 187 91.5 q74 34.5 150.5 57.5 q76.5 23 142.5 23 ZM381 623 q91 0 197 38 q106 38 243 107 q-113 74 -206 116 q-93 42 -166 42 q-71 0 -127.5 -24.5 q-56.5 -24.5 -88.5 -65 q-32 -40.5 -32 -86.5 q0 -58 47 -92.5 q47 -34.5 133 -34.5 ZM1335 526 q71 0 127.5 24.5 q56.5 24.5 88.5 65 q32 40.5 32 86.5 q0 58 -47 92.5 q-47 34.5 -133 34.5 q-91 0 -197 -38 q-106 -38 -243 -107 q113 -74 206 -116 q93 -42 166 -42 Z" /><glyph glyph-name="integral" unicode="&#x222b;" d="M258 981 q0 167 22.5 291.5 q22.5 124.5 86.5 204.5 q47 61 114 93 q67 32 135 32 q67 0 102.5 -31.5 q35.5 -31.5 35.5 -77.5 q0 -42 -26.5 -69 q-26.5 -27 -70.5 -27 q-41 0 -66.5 26.5 q-25.5 26.5 -25.5 65.5 q0 47 33 82 l-4 0 q-80 -11 -116 -62.5 q-36 -51.5 -36 -162.5 l0 -1008 q0 -167 -22.5 -291.5 q-22.5 -124.5 -85.5 -204.5 q-48 -61 -114.5 -93 q-66.5 -32 -133.5 -32 q-67 0 -102 31.5 q-35 31.5 -35 77.5 q0 42 26 69 q26 27 70 27 q41 0 66.5 -26.5 q25.5 -26.5 25.5 -65.5 q0 -47 -33 -82 l2 0 q81 9 116.5 59 q35.5 50 35.5 162 l0 1012 Z" /><glyph glyph-name="less" unicode="&lt;" d="M258 719 l678 -357 l-33 -65 l-799 430 l1131 465 l20 -59 l-997 -414 Z" /><glyph glyph-name="logicalnot" unicode="¬" d="M1237 758 l-121 -420 l-74 0 l103 358 l-952 0 l18 62 l1026 0 Z" /><glyph glyph-name="minus" unicode="&#x2212;" d="M1227 758 l-19 -62 l-1026 0 l19 62 l1026 0 Z" /><glyph glyph-name="multiply" unicode="×" d="M256 1085 l53 37 l252 -358 l465 362 l33 -45 l-465 -360 l256 -354 l-51 -37 l-254 354 l-459 -356 l-31 45 l457 354 l-256 358 Z" /><glyph glyph-name="notequal" unicode="&#x2260;" d="M627 614 l541 0 l-19 -61 l-575 0 l-248 -287 l-47 33 l219 254 l-375 0 l19 61 l409 0 l195 226 l-541 0 l19 61 l575 0 l248 287 l47 -33 l-219 -254 l375 0 l-19 -61 l-409 0 l-195 -226 Z" /><glyph glyph-name="partialdiff" unicode="&#x2202;" d="M788 1479 q97 0 146 -103 q49 -103 49 -282 q0 -265 -101 -527 q-101 -262 -273 -429 q-172 -167 -373 -167 q-90 0 -149.5 58 q-59.5 58 -59.5 184 q0 173 100 348.5 q100 175.5 252 288.5 q152 113 295 113 q58 0 102.5 -36.5 q44.5 -36.5 70 -109 q25.5 -72.5 24.5 -176.5 q71 178 71 367 q0 131 -54.5 201.5 q-54.5 70.5 -158.5 70.5 q-80 0 -191.5 -26.5 q-111.5 -26.5 -220.5 -90.5 l-16 23 q135 145 249 219 q114 74 238 74 ZM268 188 q193 0 342.5 109 q149.5 109 236.5 290 q-19 104 -88 145.5 q-69 41.5 -173 41.5 q-123 0 -238.5 -59.5 q-115.5 -59.5 -187.5 -162.5 q-72 -103 -72 -226 q0 -138 180 -138 Z" /><glyph glyph-name="percent" unicode="%" d="M12 -113 l-31 27 l1706 1774 l31 -27 l-1706 -1774 ZM229 1094 q0 109 56.5 217 q56.5 108 154 178 q97.5 70 213.5 70 q108 0 168 -56 q60 -56 60 -157 q0 -109 -56 -217.5 q-56 -108.5 -153 -178 q-97 -69.5 -213 -69.5 q-109 0 -169.5 55 q-60.5 55 -60.5 158 ZM637 1522 q-81 0 -142.5 -81.5 q-61.5 -81.5 -94.5 -193 q-33 -111.5 -33 -192.5 q0 -137 106 -137 q81 0 142.5 81.5 q61.5 81.5 94.5 193 q33 111.5 33 193.5 q0 136 -106 136 ZM770 184 q0 109 56 217 q56 108 153.5 178 q97.5 70 214.5 70 q107 0 167 -56 q60 -56 60 -157 q0 -109 -55.5 -217 q-55.5 -108 -152.5 -178 q-97 -70 -214 -70 q-108 0 -168.5 55.5 q-60.5 55.5 -60.5 157.5 ZM1178 612 q-82 0 -143.5 -81.5 q-61.5 -81.5 -94.5 -193 q-33 -111.5 -33 -192.5 q0 -137 107 -137 q81 0 142.5 81.5 q61.5 81.5 94.5 193.5 q33 112 33 194 q0 67 -27.5 101 q-27.5 34 -78.5 34 Z" /><glyph glyph-name="perthousand" unicode="&#x2030;" d="M19 -113 l-31 27 l1706 1774 l31 -27 l-1706 -1774 ZM236 1094 q0 109 56 217 q56 108 153.5 178 q97.5 70 213.5 70 q108 0 168 -56 q60 -56 60 -157 q0 -109 -55.5 -217.5 q-55.5 -108.5 -152.5 -178 q-97 -69.5 -214 -69.5 q-108 0 -168.5 55 q-60.5 55 -60.5 158 ZM643 1522 q-81 0 -142.5 -81.5 q-61.5 -81.5 -94.5 -193 q-33 -111.5 -33 -192.5 q0 -67 27 -102 q27 -35 79 -35 q81 0 143 81.5 q62 81.5 95 193 q33 111.5 33 193.5 q0 67 -27.5 101.5 q-27.5 34.5 -79.5 34.5 ZM776 184 q0 109 56 217 q56 108 153.5 178 q97.5 70 214.5 70 q107 0 167 -56 q60 -56 60 -157 q0 -109 -55.5 -217 q-55.5 -108 -152.5 -178 q-97 -70 -213 -70 q-109 0 -169.5 55.5 q-60.5 55.5 -60.5 157.5 ZM1542 184 q0 109 56 217 q56 108 153.5 178 q97.5 70 214.5 70 q107 0 167 -56 q60 -56 60 -157 q0 -109 -55.5 -217 q-55.5 -108 -152.5 -178 q-97 -70 -213 -70 q-109 0 -169.5 55.5 q-60.5 55.5 -60.5 157.5 ZM1184 612 q-81 0 -143 -81.5 q-62 -81.5 -95 -193 q-33 -111.5 -33 -192.5 q0 -137 107 -137 q81 0 142.5 81.5 q61.5 81.5 94.5 193.5 q33 112 33 194 q0 67 -27.5 101 q-27.5 34 -78.5 34 ZM1950 612 q-81 0 -143 -81.5 q-62 -81.5 -95 -193 q-33 -111.5 -33 -192.5 q0 -137 107 -137 q81 0 142.5 81.5 q61.5 81.5 94.5 193.5 q33 112 33 194 q0 67 -27.5 101 q-27.5 34 -78.5 34 Z" /><glyph glyph-name="plus" unicode="+" d="M743 1241 l74 0 l-137 -483 l475 0 l-18 -62 l-475 0 l-138 -481 l-73 0 l137 481 l-477 0 l18 62 l477 0 l137 483 Z" /><glyph glyph-name="product" unicode="&#x220f;" d="M1649 1409 q-74 -3 -107.5 -16 q-33.5 -13 -46 -48 q-12.5 -35 -12.5 -112 l0 -1387 q0 -77 12.5 -112 q12.5 -35 46 -48 q33.5 -13 107.5 -16 l0 -41 q-87 6 -263 6 q-164 0 -260 -6 l0 41 q74 3 107.5 16 q33.5 13 46 48 q12.5 35 12.5 112 l0 1387 q0 77 -12.5 113.5 q-12.5 36.5 -46.5 49.5 q-34 13 -107 13 l-333 0 q-73 0 -107 -13 q-34 -13 -46.5 -49.5 q-12.5 -36.5 -12.5 -113.5 l0 -1387 q0 -77 12.5 -112 q12.5 -35 46 -48 q33.5 -13 107.5 -16 l0 -41 q-96 6 -261 6 q-175 0 -262 -6 l0 41 q74 3 107.5 16 q33.5 13 46 48 q12.5 35 12.5 112 l0 1387 q0 77 -12.5 112 q-12.5 35 -46 48 q-33.5 13 -107.5 16 l0 41 q87 -6 262 -6 q29 0 121 2 q146 4 314 4 q155 0 297 -4 q94 -2 122 -2 q176 0 263 6 l0 -41 Z" /><glyph glyph-name="radical" unicode="&#x221a;" d="M1476 1536 q-158 -6 -202 -14 q-27 -5 -43.5 -13.5 q-16.5 -8.5 -29.5 -28.5 q-13 -20 -25 -57 l-433 -1433 l-32 0 l-287 690 q-24 59 -60 88 q-36 29 -92.5 40 q-56.5 11 -162.5 17 l0 43 q80 -12 180 -12 q119 0 307 12 l0 -43 q-25 0 -25 -26 q0 -19 13 -51 l196 -488 l363 1198 q10 38 10 54 q0 26 -29 26 l0 43 q77 -8 174 -8 q137 0 220 8 l0 -43 l-42 -2 Z" /><glyph glyph-name="summation" unicode="&#x2211;" d="M1266 283 q0 -125 14 -283 q-158 6 -530 6 q-342 0 -498 -6 l0 41 l563 614 l-543 754 l0 41 q150 -6 478 -6 q358 0 510 6 q-15 -131 -15 -242 q0 -80 6 -127 l-47 0 q-14 133 -36.5 198 q-22.5 65 -76 94.5 q-53.5 29.5 -161.5 29.5 l-400 0 l455 -627 l-668 -729 l510 0 q140 0 221 38.5 q81 38.5 121.5 125.5 q40.5 87 55.5 240 l47 0 q-6 -64 -6 -168 Z" /><glyph glyph-name="arrowboth" unicode="&#x2194;" d="M907 924 q70 -154 173.5 -247 q103.5 -93 250.5 -136 q-147 -44 -250.5 -136.5 q-103.5 -92.5 -173.5 -246.5 l-35 0 q85 179 89 366 l-539 0 q4 -185 88 -366 l-35 0 q-70 154 -173.5 246.5 q-103.5 92.5 -250.5 136.5 q147 43 250.5 136 q103.5 93 173.5 247 l35 0 q-85 -182 -88 -367 l539 0 q-3 186 -89 367 l35 0 Z" /><glyph glyph-name="arrowdown" unicode="&#x2193;" d="M506 829 q46 123 137 211 q91 88 246 160 l0 -35 q-154 -70 -247 -173.5 q-93 -103.5 -136 -250.5 q-43 147 -136 250.5 q-93 103.5 -247 173.5 l0 35 q155 -72 245.5 -160 q90.5 -88 137.5 -211 ZM506 645 q46 123 137 211 q91 88 246 160 l0 -35 q-141 -64 -230.5 -156 q-89.5 -92 -136.5 -219 l0 -256 q185 3 367 88 l0 -35 q-154 -70 -247 -173 q-93 -103 -136 -250 q-43 147 -136 250 q-93 103 -247 173 l0 35 q181 -84 366 -88 l0 258 q-47 126 -136 217.5 q-89 91.5 -230 155.5 l0 35 q155 -72 245.5 -160 q90.5 -88 137.5 -211 Z" /><glyph glyph-name="arrowdownleft" unicode="&#x2199;" d="M735 582 q116 51 235 51 q133 0 298 -62 l-25 -24 q-140 53 -267 53 q-154 0 -304 -82 q82 149 82 303 q0 127 -54 269 l25 24 q62 -165 62 -297 q0 -122 -52 -235 ZM604 451 q116 51 237 51 q131 0 296 -60 l-25 -24 q-140 52 -264 52 q-132 0 -258 -57 l-183 -182 q134 -128 322 -198 l-24 -25 q-142 54 -269 54 q-154 0 -303 -82 q82 150 82 304 q0 127 -53 267 l24 24 q71 -186 198 -322 l183 185 q57 125 57 254 q0 124 -53 266 l25 25 q60 -165 60 -295 q0 -123 -52 -237 Z" /><glyph glyph-name="arrowleft" unicode="&#x2190;" d="M717 541 q123 -46 210.5 -137 q87.5 -91 159.5 -246 l-34 0 q-65 141 -156 229.5 q-91 88.5 -217 136.5 l-258 0 q4 -185 88 -366 l-35 0 q-70 154 -173.5 246.5 q-103.5 92.5 -250.5 136.5 q147 43 250.5 136 q103.5 93 173.5 247 l35 0 q-85 -182 -88 -367 l255 0 q127 47 219 136.5 q92 89.5 157 230.5 l34 0 q-72 -156 -159.5 -246.5 q-87.5 -90.5 -210.5 -136.5 ZM901 541 q123 -47 211 -137.5 q88 -90.5 160 -245.5 l-35 0 q-70 154 -173.5 246.5 q-103.5 92.5 -250.5 136.5 q147 43 250.5 136 q103.5 93 173.5 247 l35 0 q-72 -155 -160 -246 q-88 -91 -211 -137 Z" /><glyph glyph-name="arrowup" unicode="&#x2191;" d="M889 741 q-179 85 -367 88 l0 -255 q47 -127 136.5 -219 q89.5 -92 230.5 -156 l0 -35 q-155 72 -246 160 q-91 88 -137 211 q-47 -123 -137.5 -211 q-90.5 -88 -245.5 -160 l0 35 q141 64 230 155.5 q89 91.5 136 217.5 l0 257 q-185 -3 -366 -88 l0 35 q154 70 247 173.5 q93 103.5 136 250.5 q43 -147 136 -250.5 q93 -103.5 247 -173.5 l0 -35 ZM506 438 q43 -146 136 -249.5 q93 -103.5 247 -174.5 l0 -34 q-156 72 -246.5 159.5 q-90.5 87.5 -136.5 210.5 q-46 -123 -137 -210.5 q-91 -87.5 -246 -159.5 l0 34 q154 71 247 174.5 q93 103.5 136 249.5 Z" /><glyph glyph-name="arrowupleft" unicode="&#x2196;" d="M1137 651 q-165 -60 -295 -60 q-124 0 -238 52 q52 -114 52 -238 q0 -129 -60 -294 l-25 24 q53 142 53 266 q0 131 -57 255 l-183 185 q-127 -135 -198 -323 l-24 25 q53 140 53 267 q0 154 -82 304 q150 -82 304 -82 q124 0 268 53 l24 -24 q-188 -70 -322 -198 l184 -182 q127 -58 256 -58 q123 0 265 53 l25 -25 ZM1268 522 q-165 -62 -297 -62 q-122 0 -236 52 q52 -114 52 -235 q0 -132 -62 -297 l-25 24 q54 142 54 268 q0 154 -82 303 q149 -82 303 -82 q126 0 268 54 l25 -25 Z" /><glyph glyph-name="blacksquare" unicode="&#x25a0;" d="M1020 104 l-813 0 l0 852 l813 0 l0 -852 Z" /><glyph glyph-name="lozenge" unicode="&#x25ca;" d="M518 -367 l-33 0 l-430 871 l430 956 l33 0 l430 -870 l-430 -957 ZM578 -135 l247 555 l-399 809 l-250 -555 l402 -809 Z" /><glyph glyph-name="whitesquare" unicode="&#x25a1;" d="M1020 104 l-813 0 l0 852 l813 0 l0 -852 ZM979 918 l-731 0 l0 -775 l731 0 l0 775 Z" /><glyph glyph-name="ampersand" unicode="&amp;" d="M1522 1479 q118 0 187 -58 q69 -58 69 -176 q0 -104 -59.5 -184 q-59.5 -80 -190.5 -146 q-93 -46 -327 -131 q149 -127 149 -307 q0 -136 -81.5 -252 q-81.5 -116 -236 -185 q-154.5 -69 -364.5 -69 q-180 0 -313 52 q-133 52 -205 149 q-72 97 -72 231 q0 120 57 225 q57 105 157 180 q100 75 226 110 q-69 37 -106 98.5 q-37 61.5 -37 130.5 q0 89 60.5 155 q60.5 66 154.5 101 q94 35 190 35 q76 0 133 -22.5 q57 -22.5 88 -62.5 q31 -40 31 -93 q0 -50 -25.5 -84.5 q-25.5 -34.5 -65.5 -52 q-40 -17.5 -83 -17.5 l4 37 q57 0 92 30 q35 30 35 82 q0 68 -56 109 q-56 41 -142 41 q-83 0 -149 -39.5 q-66 -39.5 -103 -109 q-37 -69.5 -37 -156.5 q0 -95 45 -170 q73 12 129 12 q74 0 74 -43 q0 -22 -19 -32.5 q-19 -10.5 -45 -10.5 q-51 0 -141 45 q-93 -27 -164 -87 q-71 -60 -110.5 -142 q-39.5 -82 -39.5 -174 q0 -120 66 -204.5 q66 -84.5 182 -127.5 q116 -43 266 -43 q159 0 287.5 47 q128.5 47 202.5 134 q74 87 74 200 q0 75 -34.5 147 q-34.5 72 -103.5 122 l-52 -19 q-187 -70 -208 -78 q-92 -36 -153.5 -82.5 q-61.5 -46.5 -61.5 -120.5 q0 -63 50.5 -100 q50.5 -37 123.5 -37 q81 0 132 40 q51 40 77 81 l27 -19 q-82 -135 -244 -135 q-95 0 -158 47 q-63 47 -63 154 q0 119 85 197 q85 78 255 141 q21 8 108 39 q313 111 422 163 q101 49 156 102.5 q55 53.5 55 125.5 q0 49 -26.5 89.5 q-26.5 40.5 -73 63.5 q-46.5 23 -102.5 23 q-54 0 -66 -18 q21 -12 32 -33 q11 -21 11 -45 q0 -31 -19 -58 q-19 -27 -50 -43 q-31 -16 -66 -16 q-41 0 -66.5 23 q-25.5 23 -25.5 63 q0 42 28.5 75.5 q28.5 33.5 73.5 53.5 q68 29 150 29 Z" /><glyph glyph-name="asciicircum" unicode="^" d="M592 905 q-78 -68 -189 -134.5 q-111 -66.5 -221 -111.5 l-8 29 q147 63 277 169 q130 106 211 224 l36 0 q18 -118 91.5 -224 q73.5 -106 187.5 -169 l-25 -29 q-111 45 -209.5 112 q-98.5 67 -150.5 134 Z" /><glyph glyph-name="at" unicode="@" d="M1094 53 q-148 0 -148 133 q0 46 19 114 q-61 -127 -132.5 -187 q-71.5 -60 -170.5 -60 q-110 0 -160.5 67.5 q-50.5 67.5 -50.5 180.5 q0 152 80 311 q80 159 204.5 263 q124.5 104 247.5 104 q62 0 96 -31.5 q34 -31.5 39 -101.5 l29 104 q117 0 184 29 l-217 -752 q-13 -42 -13 -70 q0 -29 14.5 -41 q14.5 -12 45.5 -12 q78 0 195 87.5 q117 87.5 204 247.5 q87 160 87 368 q0 182 -79.5 299 q-79.5 117 -213.5 171 q-134 54 -303 54 q-247 0 -466.5 -142.5 q-219.5 -142.5 -352 -381 q-132.5 -238.5 -132.5 -510.5 q0 -204 78 -336 q78 -132 216 -193 q138 -61 321 -61 q237 0 422 111 l14 -27 q-79 -56 -192.5 -88.5 q-113.5 -32.5 -245.5 -32.5 q-196 0 -342.5 66.5 q-146.5 66.5 -229 206 q-82.5 139.5 -82.5 350.5 q0 273 133.5 522 q133.5 249 361 401 q227.5 152 495.5 152 q185 0 328.5 -59.5 q143.5 -59.5 227 -185.5 q83.5 -126 83.5 -318 q0 -217 -95 -389 q-95 -172 -234.5 -267.5 q-139.5 -95.5 -264.5 -95.5 ZM731 115 q77 0 149.5 106 q72.5 106 153.5 325 l68 242 q-1 144 -111 144 q-95 0 -179.5 -93.5 q-84.5 -93.5 -135.5 -238 q-51 -144.5 -51 -287.5 q0 -198 106 -198 Z" /><glyph glyph-name="bar" unicode="|" d="M305 -399 l0 2156 l82 0 l0 -2156 l-82 0 Z" /><glyph glyph-name="brokenbar" unicode="¦" d="M309 786 l0 971 l82 0 l0 -971 l-82 0 ZM391 668 l0 -1067 l-82 0 l0 1067 l82 0 Z" /><glyph glyph-name="uni2105" unicode="&#x2105;" d="M80 -113 l-31 27 l1706 1774 l31 -27 l-1706 -1774 ZM700 1538 q-82 0 -157 -54.5 q-75 -54.5 -121.5 -151.5 q-46.5 -97 -46.5 -218 q0 -203 164 -203 q115 0 231 133 l23 -18 q-53 -80 -136 -134 q-83 -54 -182 -54 q-75 0 -131.5 32 q-56.5 32 -87.5 90 q-31 58 -31 134 q0 113 62.5 226 q62.5 113 171.5 186 q109 73 241 73 q51 0 95 -19.5 q44 -19.5 71 -57.5 q27 -38 27 -91 q0 -31 -15.5 -61 q-15.5 -30 -45 -49 q-29.5 -19 -68.5 -19 q-33 0 -52.5 19.5 q-19.5 19.5 -19.5 50.5 q0 31 18.5 60.5 q18.5 29.5 47.5 48 q29 18.5 59 20.5 q-14 28 -41.5 42.5 q-27.5 14.5 -75.5 14.5 ZM917 184 q0 108 52.5 232 q52.5 124 151 209.5 q98.5 85.5 230.5 85.5 q111 0 173.5 -54.5 q62.5 -54.5 62.5 -160.5 q0 -108 -52.5 -231.5 q-52.5 -123.5 -151 -208.5 q-98.5 -85 -230.5 -85 q-111 0 -173.5 54 q-62.5 54 -62.5 159 ZM1341 674 q-72 0 -136 -84 q-64 -84 -102 -212 q-38 -128 -38 -251 q0 -61 24 -90 q24 -29 74 -29 q72 0 136 83.5 q64 83.5 102 212 q38 128.5 38 251.5 q0 61 -24 90 q-24 29 -74 29 Z" /><glyph glyph-name="copyright" unicode="©" d="M180 786 q0 222 109.5 409.5 q109.5 187.5 297 297 q187.5 109.5 408.5 109.5 q222 0 409 -109.5 q187 -109.5 296.5 -297 q109.5 -187.5 109.5 -409.5 q0 -221 -109.5 -408.5 q-109.5 -187.5 -296.5 -297 q-187 -109.5 -409 -109.5 q-221 0 -408.5 109.5 q-187.5 109.5 -297 297 q-109.5 187.5 -109.5 408.5 ZM262 786 q0 -203 98.5 -375 q98.5 -172 267 -273 q168.5 -101 367.5 -101 q200 0 368.5 101 q168.5 101 267 273 q98.5 172 98.5 375 q0 204 -98.5 376 q-98.5 172 -267 273 q-168.5 101 -368.5 101 q-199 0 -367.5 -101 q-168.5 -101 -267 -273 q-98.5 -172 -98.5 -376 ZM1042 319 q90 0 169.5 51 q79.5 51 129.5 160 l39 -14 q-23 -73 -70.5 -137.5 q-47.5 -64.5 -124.5 -106 q-77 -41.5 -179 -41.5 q-129 0 -232.5 66 q-103.5 66 -163 189 q-59.5 123 -59.5 288 q0 166 60.5 295.5 q60.5 129.5 169 201.5 q108.5 72 249.5 72 q86 0 162.5 -27.5 q76.5 -27.5 123 -78.5 q46.5 -51 46.5 -117 q0 -53 -30.5 -83.5 q-30.5 -30.5 -78.5 -30.5 q-47 0 -79.5 30 q-32.5 30 -32.5 80 q0 42 23 69 q23 27 63 36 q-20 37 -73 61.5 q-53 24.5 -112 24.5 q-75 0 -141 -47.5 q-66 -47.5 -108.5 -161 q-42.5 -113.5 -42.5 -299.5 q0 -169 39.5 -276 q39.5 -107 105 -155.5 q65.5 -48.5 147.5 -48.5 Z" /><glyph glyph-name="dagger" unicode="&#x2020;" d="M598 1346 q43 0 43 -53 q0 -18 -6 -40 q-15 0 -27.5 -31 q-12.5 -31 -32.5 -99 q-20 -71 -36 -111 q-16 -40 -35 -49 l-17 0 q-7 6 -9 22 l0 8 q0 33 24 129 q21 84 21 110 q0 21 -11 21 q28 93 86 93 ZM715 881 l-228 49 l-251 -49 l-66 51 l92 51 l225 -51 l254 51 l64 -51 l-90 -51 ZM506 891 q1 -10 0 -25 q-1 -15 -1 -24 q0 -39 21 -54 q-79 -293 -195 -662 q-116 -369 -177 -445 q-4 13 -4 41 q0 129 78.5 473 q78.5 344 146.5 593 q19 11 30 26.5 q11 15.5 26 43.5 q7 16 18 33 l32 12 l25 -12 Z" /><glyph glyph-name="daggerdbl" unicode="&#x2021;" d="M610 1346 q43 0 43 -52 q0 -17 -6 -41 q-15 0 -28 -32.5 q-13 -32.5 -33 -99.5 q-22 -74 -36.5 -111.5 q-14.5 -37.5 -33.5 -46.5 l-16 0 q-8 6 -10 24 l0 7 q0 34 24 130 q21 82 21 108 q0 21 -11 21 q8 33 30 63 q22 30 56 30 ZM725 881 l-227 49 l-252 -49 l-64 51 l90 51 l228 -51 l252 51 l65 -51 l-92 -51 ZM516 891 q0 0 0 -43 q0 -42 21 -60 q-14 -51 -38 -128 l-48 -152 q-15 -66 -24 -105.5 q-9 -39.5 -14 -62.5 q-14 -66 -30 -123 q-21 -11 -33.5 -28.5 q-12.5 -17.5 -25.5 -45.5 l-15 -28 l-33 -13 l-24 13 q-1 8 -1 23 l0 21 q0 42 -20 58 q24 83 39 130 l49 161 l36 160 q15 66 30 120 q20 12 31.5 27.5 q11.5 15.5 24.5 41.5 q6 14 18 34 l33 12 l24 -12 ZM496 23 l-228 49 l-250 -49 l-65 51 l90 51 l225 -51 l254 51 l64 -51 l-90 -51 ZM268 43 q8 -6 10 -24 l0 -8 q0 -34 -24 -130 q-21 -82 -21 -108 q0 -21 11 -21 q-8 -33 -30 -62.5 q-22 -29.5 -56 -29.5 q-43 0 -43 51 q0 17 6 41 q15 0 28.5 33 q13.5 33 32.5 100 q22 73 36.5 110.5 q14.5 37.5 33.5 47.5 l16 0 Z" /><glyph glyph-name="degree" unicode="°" d="M535 1679 q67 0 124 -30 q57 -30 91 -86 q34 -56 34 -129 q0 -75 -34 -131 q-34 -56 -91 -86.5 q-57 -30.5 -124 -30.5 q-67 0 -123.5 30.5 q-56.5 30.5 -90.5 86.5 q-34 56 -34 131 q0 73 34 129 q34 56 90.5 86 q56.5 30 123.5 30 ZM535 1221 q49 0 94.5 23.5 q45.5 23.5 74.5 71.5 q29 48 29 116 q0 66 -29.5 114.5 q-29.5 48.5 -75 73.5 q-45.5 25 -93.5 25 q-48 0 -93.5 -25 q-45.5 -25 -74.5 -73.5 q-29 -48.5 -29 -114.5 q0 -68 29 -116 q29 -48 74 -71.5 q45 -23.5 94 -23.5 Z" /><glyph glyph-name="uni2116" unicode="&#x2116;" d="M1266 1397 q-91 -136 -189 -477 q-98 -341 -223 -930 l-3 6 l-1 -6 l-45 0 l-204 1303 q-100 -513 -188 -861 q-88 -348 -169 -455 q-45 -60 -95.5 -94.5 q-50.5 -34.5 -123.5 -34.5 q-123 0 -123 107 q0 36 14 69 q14 33 41.5 54.5 q27.5 21.5 65.5 21.5 q41 0 59 -24 q18 -24 18 -56 q0 -33 -18.5 -67.5 q-18.5 -34.5 -46.5 -61.5 l10 0 q48 0 91.5 28.5 q43.5 28.5 74.5 78.5 q77 120 159 432 q82 312 178 805 l-1 -2 q13 62 13 92 q0 34 -15 51 q-15 17 -48 24 q-33 7 -96 9 l11 41 q64 -6 182 -6 q95 0 166 6 l153 -1008 q81 350 158.5 603 q77.5 253 157.5 368 q90 131 221 131 q66 0 94.5 -29 q28.5 -29 28.5 -75 q0 -36 -14 -70 q-14 -34 -41.5 -56 q-27.5 -22 -65.5 -22 q-41 0 -59.5 24 q-18.5 24 -18.5 56 q0 33 19 67.5 q19 34.5 47 61.5 l-8 0 q-96 0 -166 -104 ZM1397 665 q0 108 52.5 232 q52.5 124 151 209.5 q98.5 85.5 230.5 85.5 q111 0 173.5 -54.5 q62.5 -54.5 62.5 -160.5 q0 -108 -52.5 -231.5 q-52.5 -123.5 -151 -208.5 q-98.5 -85 -230.5 -85 q-111 0 -173.5 54 q-62.5 54 -62.5 159 ZM1821 1155 q-72 0 -136 -84 q-64 -84 -102 -212 q-38 -128 -38 -251 q0 -61 24 -90 q24 -29 74 -29 q72 0 136 83.5 q64 83.5 102 212 q38 128.5 38 251.5 q0 61 -24 90 q-24 29 -74 29 ZM1979 314 l-14 -40 l-704 0 l13 40 l705 0 ZM1932 165 l-14 -40 l-704 0 l13 40 l705 0 Z" /><glyph glyph-name="paragraph" unicode="¶" d="M725 -27 q-339 0 -495 131 q-156 131 -156 365 q0 268 128.5 493.5 q128.5 225.5 349.5 357.5 q221 132 486 132 q7 0 166 -3 q72 -3 142 -3 q81 0 122 4 l-10 -39 q-65 -3 -103 -18.5 q-38 -15.5 -58 -44 q-20 -28.5 -33 -76.5 l-285 -1082 q-71 -267 -195 -421 q-124 -154 -307 -154 q-94 0 -151 29 q-57 29 -58 84 q0 29 17 58.5 q17 29.5 45 48 q28 18.5 59 18.5 q32 0 50 -18 q18 -18 18 -46 q0 -66 -72 -131 q30 -10 72 -10 q70 0 119.5 40.5 q49.5 40.5 83.5 110.5 q34 70 65 174 ZM856 690 q-48 -186 -72.5 -345 q-24.5 -159 -24.5 -225 q0 -22 3 -22 q52 193 192 716.5 q140 523.5 142 528.5 q-7 0 -45.5 -86.5 q-38.5 -86.5 -87.5 -223 q-49 -136.5 -91 -283.5 q-144 0 -276 -6 q-132 -6 -218 -14 q-86 -8 -87 -11 q-1 -4 79 -11 q80 -7 210 -12.5 q130 -5.5 276 -5.5 Z" /><glyph glyph-name="registered" unicode="®" d="M829 1602 q155 0 286.5 -77 q131.5 -77 208.5 -208.5 q77 -131.5 77 -286.5 q0 -155 -77 -286 q-77 -131 -208.5 -208 q-131.5 -77 -286.5 -77 q-155 0 -286 77 q-131 77 -208 208 q-77 131 -77 286 q0 155 77 286.5 q77 131.5 208 208.5 q131 77 286 77 ZM829 524 q133 0 244.5 68.5 q111.5 68.5 176.5 185 q65 116.5 65 252.5 q0 137 -65 253 q-65 116 -176.5 184.5 q-111.5 68.5 -244.5 68.5 q-133 0 -244 -68.5 q-111 -68.5 -176 -184.5 q-65 -116 -65 -253 q0 -136 65 -252.5 q65 -116.5 176.5 -185 q111.5 -68.5 243.5 -68.5 ZM1110 745 q15 0 25 17 l20 -14 q-12 -24 -33.5 -33.5 q-21.5 -9.5 -56.5 -9.5 q-52 0 -76.5 19 q-24.5 19 -36.5 64 l-34 152 q-9 40 -23.5 58.5 q-14.5 18.5 -49 26 q-34.5 7.5 -108.5 9.5 l0 -207 q0 -32 3.5 -47 q3.5 -15 13 -20.5 q9.5 -5.5 30.5 -7.5 l0 -31 q-27 0 -43 1 l-61 1 l-68 -1 q-15 -1 -39 -1 l0 31 q21 2 30.5 7.5 q9.5 5.5 13.5 20.5 q4 15 4 47 l0 449 q0 33 -4 48.5 q-4 15.5 -13.5 21.5 q-9.5 6 -30.5 8 l0 30 q25 -2 99 -2 l126 1 q22 1 50 1 q116 0 176.5 -42 q60.5 -42 60.5 -119 q0 -139 -198 -174 q81 -9 116 -37 q35 -28 46 -82 l24 -117 q2 -8 6 -28.5 q4 -20.5 11.5 -30 q7.5 -9.5 19.5 -9.5 ZM815 1354 q-33 0 -49.5 -5.5 q-16.5 -5.5 -22.5 -19.5 q-6 -14 -6 -43 l0 -219 l49 0 q101 0 136.5 35 q35.5 35 35.5 100 q0 79 -32.5 115.5 q-32.5 36.5 -110.5 36.5 Z" /><glyph glyph-name="section" unicode="§" d="M842 1358 q0 46 34 81 q34 35 85 50 q-13 41 -67.5 57.5 q-54.5 16.5 -113.5 16.5 q-74 0 -140 -26.5 q-66 -26.5 -108.5 -88 q-42.5 -61.5 -42.5 -158.5 q0 -57 30 -109 q30 -52 73 -94.5 q43 -42.5 116 -104.5 l31 -26 q74 -62 118.5 -108.5 q44.5 -46.5 69.5 -97.5 q25 -51 25 -111 q0 -131 -91 -235 q-91 -104 -238 -176 q88 -101 88 -210 q0 -111 -63 -203.5 q-63 -92.5 -167 -146 q-104 -53.5 -221 -53.5 q-67 0 -133 19.5 q-66 19.5 -110 62 q-44 42.5 -44 108.5 q0 35 18.5 67.5 q18.5 32.5 50 52.5 q31.5 20 69.5 20 q40 0 64 -22 q24 -22 24 -60 q0 -49 -34 -85 q-34 -36 -85 -50 q12 -39 68 -56.5 q56 -17.5 112 -17.5 q76 0 141.5 27 q65.5 27 107.5 88.5 q42 61.5 42 160.5 q0 57 -30.5 109 q-30.5 52 -74 94 q-43.5 42 -117.5 104 l-28 23 q-74 63 -118.5 109.5 q-44.5 46.5 -69.5 97.5 q-25 51 -25 111 q0 131 91.5 235 q91.5 104 238.5 175 q-88 103 -88 210 q0 111 63 203.5 q63 92.5 166.5 146.5 q103.5 54 220.5 54 q65 0 132 -19.5 q67 -19.5 112 -61.5 q45 -42 45 -104 q0 -37 -18 -70.5 q-18 -33.5 -49.5 -54 q-31.5 -20.5 -71.5 -20.5 q-40 0 -64 23 q-24 23 -24 63 ZM604 819 q-127 106 -164 144 q-219 -117 -219 -271 q0 -52 28.5 -100.5 q28.5 -48.5 71.5 -91 q43 -42.5 115 -103.5 q117 -96 164 -144 q219 118 219 271 q0 53 -28.5 102 q-28.5 49 -71.5 91 q-43 42 -115 102 Z" /><glyph glyph-name="trademark" unicode="&#x2122;" d="M516 1403 q-60 0 -91 -54 q-31 -54 -40 -186 l-47 0 q6 41 6 107 q0 79 -14 180 q108 -6 372 -6 q263 0 371 6 q-14 -101 -14 -180 q0 -66 6 -107 l-47 0 q-9 132 -40 186 q-31 54 -91 54 l-111 0 l0 -612 q0 -60 10.5 -86 q10.5 -26 39.5 -36 q29 -10 96 -14 l0 -41 q-98 7 -220 7 q-135 0 -221 -7 l0 41 q66 4 95 14 q29 10 40 36.5 q11 26.5 11 85.5 l0 612 l-111 0 ZM2030 1444 q99 0 157 6 l0 -41 q-48 -3 -68.5 -11 q-20.5 -8 -28 -30.5 q-7.5 -22.5 -7.5 -73.5 l0 -524 q0 -51 7.5 -73 q7.5 -22 28 -30 q20.5 -8 68.5 -12 l0 -41 q-79 7 -178 7 q-95 0 -160 -7 l0 41 q38 4 54.5 12 q16.5 8 23 30.5 q6.5 22.5 6.5 72.5 l0 545 l-268 -711 l-33 0 l-291 715 l0 -549 q0 -50 6.5 -72.5 q6.5 -22.5 23 -30.5 q16.5 -8 54.5 -12 l0 -41 q-49 7 -106 7 q-75 0 -129 -7 l0 41 q48 4 68.5 12 q20.5 8 28 30 q7.5 22 7.5 73 l0 524 q0 51 -7.5 73.5 q-7.5 22.5 -28 30.5 q-20.5 8 -68.5 11 l0 41 q46 -6 129 -6 q71 0 139 6 l248 -608 l227 602 l97 0 Z" /><glyph glyph-name="acute" unicode="´" d="M260 1245 q85 100 188 241 q82 111 119 148 q40 46 84 46 q25 0 45 -15 q16 -16 16 -40 q0 -41 -46 -87 q-39 -42 -138 -113 q-142 -104 -247 -198 l-21 18 Z" /><glyph glyph-name="breve" unicode="&#x2d8;" d="M590 1434 q101 0 219.5 48.5 q118.5 48.5 204.5 131.5 l20 -23 q-50 -70 -133.5 -138.5 q-83.5 -68.5 -176.5 -112.5 q-93 -44 -169 -44 q-108 0 -172 83 q-64 83 -84 216 l33 11 q32 -65 66.5 -102.5 q34.5 -37.5 80 -53.5 q45.5 -16 111.5 -16 Z" /><glyph glyph-name="caron" unicode="&#x2c7;" d="M608 1430 q179 139 359 212 l10 -28 q-133 -57 -249.5 -151.5 q-116.5 -94.5 -190.5 -200.5 l-37 0 q-22 129 -78 211 q-56 82 -166 141 l8 28 q118 -33 195.5 -83.5 q77.5 -50.5 148.5 -128.5 Z" /><glyph glyph-name="cedilla" unicode="¸" d="M242 -147 q39 14 84 14 q41 0 64.5 -22 q23.5 -22 23.5 -60 q0 -56 -39 -94.5 q-39 -38.5 -97.5 -57 q-58.5 -18.5 -115.5 -18.5 q-53 0 -97.5 13.5 q-44.5 13.5 -66.5 31.5 l14 31 q30 -13 55 -20 q25 -7 68 -7 q27 0 61.5 10 q34.5 10 60.5 33.5 q26 23.5 26 61.5 q0 49 -58 49 q-33 0 -63 -15 l94 197 l55 0 l-69 -147 Z" /><glyph glyph-name="circumflex" unicode="&#x2c6;" d="M465 1475 q-179 -141 -359 -213 l-10 28 q133 57 249.5 151.5 q116.5 94.5 191.5 200.5 l36 0 q22 -128 78 -210.5 q56 -82.5 166 -141.5 l-8 -28 q-119 33 -196 84 q-77 51 -148 129 Z" /><glyph glyph-name="dieresis" unicode="¨" d="M61 1389 q0 31 19 62 q19 31 51 51 q32 20 68 20 q43 0 72.5 -30 q29.5 -30 29.5 -73 q0 -33 -19 -64.5 q-19 -31.5 -50.5 -51 q-31.5 -19.5 -67.5 -19.5 q-46 0 -74.5 29.5 q-28.5 29.5 -28.5 75.5 ZM496 1389 q0 31 19 62 q19 31 50.5 51 q31.5 20 67.5 20 q43 0 72.5 -30 q29.5 -30 29.5 -73 q0 -33 -19 -64.5 q-19 -31.5 -50.5 -51 q-31.5 -19.5 -67.5 -19.5 q-45 0 -73.5 30 q-28.5 30 -28.5 75 Z" /><glyph glyph-name="dotaccent" unicode="&#x2d9;" d="M76 1409 q0 37 20 73.5 q20 36.5 54.5 60.5 q34.5 24 76.5 24 q47 0 76 -29.5 q29 -29.5 29 -75.5 q0 -37 -20.5 -73.5 q-20.5 -36.5 -56 -60 q-35.5 -23.5 -77.5 -23.5 q-45 0 -73.5 29.5 q-28.5 29.5 -28.5 74.5 Z" /><glyph glyph-name="grave" unicode="`" d="M426 1227 q-76 108 -188 242 q-76 90 -105 137 q-21 34 -21 65 q0 41 33 58 q15 6 32 6 q53 0 89 -64 q23 -40 67 -153 q68 -172 120 -279 l-27 -12 Z" /><glyph glyph-name="hungarumlaut" unicode="&#x2dd;" d="M41 1245 q66 103 141 249 q55 105 82 140 q35 46 78 46 q25 0 45 -15 q28 -23 28 -57 q0 -33 -28 -70 q-29 -37 -117 -114 q-130 -116 -207 -197 l-22 18 ZM406 1245 q69 109 138 244 q54 105 85 145 q35 46 78 46 q26 0 45 -15 q27 -22 27 -58 q0 -33 -27 -69 q-29 -37 -116 -113 q-119 -104 -208 -198 l-22 18 Z" /><glyph glyph-name="macron" unicode="¯" d="M236 1407 l12 51 l639 0 l-13 -51 l-638 0 Z" /><glyph glyph-name="ogonek" unicode="&#x2db;" d="M748 6 q-54 -13 -110 -43 q-56 -30 -94 -74 q-38 -44 -38 -98 q0 -38 20.5 -58 q20.5 -20 57.5 -20 q38 0 77 18 q39 18 62 46 l25 -23 q-116 -139 -250 -139 q-70 0 -109 33 q-39 33 -39 88 q0 90 97.5 159 q97.5 69 222.5 111 l78 0 Z" /><glyph glyph-name="ring" unicode="&#x2da;" d="M291 1620 q49 0 89 -20.5 q40 -20.5 63.5 -57.5 q23.5 -37 23.5 -86 q0 -56 -32 -104.5 q-32 -48.5 -85 -77.5 q-53 -29 -112 -29 q-74 0 -122 44.5 q-48 44.5 -48 119.5 q0 58 30 106.5 q30 48.5 81 76.5 q51 28 112 28 ZM246 1288 q43 0 82 22.5 q39 22.5 62.5 61.5 q23.5 39 23.5 86 q0 37 -19 64 q-19 27 -49 41 q-30 14 -63 14 q-41 0 -78.5 -23.5 q-37.5 -23.5 -60.5 -62 q-23 -38.5 -23 -80.5 q0 -58 37 -90.5 q37 -32.5 88 -32.5 Z" /><glyph glyph-name="tilde" unicode="&#x2dc;" d="M449 1573 q59 0 97 -21 q38 -21 83 -62 q38 -34 66 -50.5 q28 -16.5 67 -16.5 q78 0 143 119 l37 -10 q-45 -107 -116.5 -159 q-71.5 -52 -149.5 -52 q-41 0 -73.5 11.5 q-32.5 11.5 -55 27.5 q-22.5 16 -52.5 43 q-38 34 -66 50.5 q-28 16.5 -67 16.5 q-79 0 -143 -118 l-37 10 q45 107 116.5 159 q71.5 52 150.5 52 Z" /><glyph glyph-name="commaaccentcomb" unicode="&#x326;" d="M84 -141 q53 0 83 -33.5 q30 -33.5 30 -85.5 q0 -77 -42.5 -135.5 q-42.5 -58.5 -158.5 -98.5 l-14 35 q56 17 101.5 51.5 q45.5 34.5 49.5 79.5 q-16 -14 -40.5 -23 q-24.5 -9 -49.5 -9 q-41 0 -66.5 22.5 q-25.5 22.5 -25.5 63.5 q0 31 16 62 q16 31 46 51 q30 20 71 20 Z" /></font>
</defs>
</svg>
