<?xml version="1.0" standalone="no"?><!DOCTYPE svg PUBLIC "-//W3C//DTD SVG 1.1//EN" "http://www.w3.org/Graphics/SVG/1.1/DTD/svg11.dtd" ><svg xmlns="http://www.w3.org/2000/svg"><metadata></metadata><defs><font id="1.004;FTH ;PlayfairDisplaySC-Regular" horiz-adv-x="2241"><font-face font-family="Playfair Display SC" font-weight="400" font-stretch="normal" units-per-em="2048" panose-1="0 0 5 0 0 0 0 0 0 0" ascent="2216" descent="-514" x-height="0" bbox="-547 -494 2179 2017" underline-thickness="0" underline-position="0" unicode-range="U+000d-25ca" /><missing-glyph horiz-adv-x="1151" d="M123 0 l0 1581 l905 0 l0 -1581 l-905 0 ZM197 61 l757 0 l0 1459 l-757 0 l0 -1459 Z" /><glyph glyph-name="space" unicode=" " d="" /><glyph glyph-name="A" unicode="a" d="M1161 172 q50 -127 142 -131 l0 -41 q-84 6 -220 6 q-175 0 -262 -6 l0 41 q78 3 111.5 19 q33.5 16 33.5 57 q0 35 -24 96 l-126 336 l-494 0 l-84 -217 q-41 -104 -41 -168 q0 -65 43.5 -93 q43.5 -28 134.5 -30 l0 -41 q-117 6 -236 6 q-92 0 -153 -6 l0 41 q102 23 161 178 l482 1241 l33 0 l499 -1288 ZM572 1201 l-235 -611 l464 0 l-229 611 Z" /><glyph glyph-name="Aogonek" unicode="&#x104;" d="M1310 -246 q-91 -139 -231 -139 q-73 0 -117.5 36.5 q-44.5 36.5 -44.5 96.5 q0 79 72.5 146 q72.5 67 206.5 111 q-37 1 -113 1 q-175 0 -262 -6 l0 41 q78 3 111.5 19 q33.5 16 33.5 57 q0 34 -24 96 l-126 336 l-494 0 l-84 -217 q-41 -104 -41 -168 q0 -65 43.5 -93 q43.5 -28 134.5 -30 l0 -41 q-117 6 -236 6 q-91 0 -153 -6 l0 41 q102 23 161 178 l482 1241 l33 0 l499 -1288 q50 -127 142 -131 l0 -41 l-38 2 q-105 -30 -151.5 -85 q-46.5 -55 -46.5 -114 q0 -41 23.5 -65.5 q23.5 -24.5 64.5 -24.5 q37 0 70.5 19.5 q33.5 19.5 54.5 48.5 l30 -27 ZM572 1201 l-235 -611 l464 0 l-229 611 Z" /><glyph glyph-name="AE" unicode="æ" d="M1636 262 q0 -120 15 -262 q-127 6 -428 6 q-322 0 -492 -6 l0 41 q57 3 82 16 q25 13 34 48 q9 35 9 112 l0 492 l-358 0 l-299 -496 q-38 -64 -38 -100 q0 -36 35 -52.5 q35 -16.5 107 -19.5 l0 -41 q-62 6 -186 6 q-86 0 -137 -6 l0 41 q33 2 66 31.5 q33 29.5 75 99.5 l718 1184 q-15 29 -48 39.5 q-33 10.5 -101 13.5 l0 41 q61 -2 203 -4 l82 135 l49 0 l-82 -136 q83 -1 154.5 -1 q71.5 0 126.5 0 q272 0 387 6 q-15 -131 -15 -242 q0 -84 7 -127 l-48 0 q-11 132 -28.5 197.5 q-17.5 65.5 -59 95 q-41.5 29.5 -125.5 29.5 l-129 0 q-74 0 -107 -12 q-33 -12 -45.5 -46.5 q-12.5 -34.5 -12.5 -111.5 l0 -483 l149 0 q57 0 87 28.5 q30 28.5 41 67.5 q11 39 17 96 q1 9 2 18 q1 9 3 19 l47 0 q-8 -104 -8 -171 l1 -79 q0 -74 13 -250 l-47 0 l-3 24 q-7 69 -18 109.5 q-11 40.5 -42.5 68.5 q-31.5 28 -92.5 28 l-149 0 l0 -492 q0 -77 12.5 -111.5 q12.5 -34.5 45.5 -46.5 q33 -12 107 -12 l150 0 q99 0 144 33 q45 33 60.5 102 q15.5 69 28.5 228 l47 0 q-6 -55 -6 -148 ZM856 1233 q0 38 -3 65 l-330 -548 l333 0 l0 483 Z" /><glyph glyph-name="B" unicode="b" d="M766 766 q226 -30 322 -129.5 q96 -99.5 96 -239.5 q0 -116 -59.5 -206 q-59.5 -90 -170.5 -140.5 q-111 -50.5 -262 -50.5 l-94 2 q-132 4 -258 4 q-168 0 -254 -6 l0 41 q74 3 107.5 16 q33.5 13 46 48 q12.5 35 12.5 112 l0 1016 q0 77 -12.5 112 q-12.5 35 -46 48 q-33.5 13 -107.5 16 l0 41 q85 -6 250 -6 q36 0 222 3 l87 1 q140 0 237 -40.5 q97 -40.5 146 -113 q49 -72.5 49 -168.5 q0 -118 -74.5 -212 q-74.5 -94 -236.5 -144 l0 -4 ZM594 1409 q-64 0 -96 -14.5 q-32 -14.5 -44 -51.5 q-12 -37 -12 -110 l0 -463 l138 0 q167 0 234 91 q67 91 67 243 q0 154 -68 229.5 q-68 75.5 -219 75.5 ZM596 47 q383 0 383 359 q0 161 -87.5 245 q-87.5 84 -277.5 84 l-172 0 l0 -518 q0 -74 12 -109 q12 -35 44 -48 q32 -13 98 -13 Z" /><glyph glyph-name="C" unicode="c" d="M760 1479 q122 0 208.5 -35 q86.5 -35 168.5 -98 q22 -18 40 -18 q42 0 52 122 l47 0 q-8 -133 -8 -471 l-47 0 q-15 92 -27.5 143 q-12.5 51 -29.5 86.5 q-17 35.5 -46 73.5 q-62 80 -157 120 q-95 40 -205 40 q-133 0 -233 -88 q-100 -88 -155 -251 q-55 -163 -55 -382 q0 -223 60 -383 q60 -160 165 -243 q105 -83 238 -83 q102 0 199 39 q97 39 151 117 q42 56 60 121.5 q18 65.5 35 202.5 l47 0 q0 -353 8 -492 l-47 0 q-5 64 -16.5 92.5 q-11.5 28.5 -33.5 28.5 q-16 0 -42 -17 q-61 -43 -112.5 -70.5 q-51.5 -27.5 -117.5 -45 q-66 -17.5 -149 -17.5 q-195 0 -341.5 88 q-146.5 88 -227 255.5 q-80.5 167.5 -80.5 398.5 q0 226 83 400 q83 174 231 270 q148 96 337 96 Z" /><glyph glyph-name="Ccedilla" unicode="ç" d="M1268 492 q0 -353 8 -492 l-47 0 q-5 64 -16.5 92.5 q-11.5 28.5 -33.5 28.5 q-16 0 -42 -17 q-59 -41 -108.5 -68.5 q-49.5 -27.5 -112 -45 q-62.5 -17.5 -140.5 -19.5 l-41 -118 q61 14 121 14 q58 0 91.5 -25.5 q33.5 -25.5 33.5 -70.5 q0 -54 -35.5 -89 q-35.5 -35 -88.5 -51 q-53 -16 -107 -16 q-105 0 -170 23 l8 36 q42 -6 78 -6 q74 0 129 21.5 q55 21.5 55 70.5 q0 58 -86 58 q-58 0 -100 -15 l56 169 q-184 9 -322 99 q-138 90 -213.5 254 q-75.5 164 -75.5 388 q0 226 83 400 q83 174 231 270 q148 96 337 96 q122 0 208.5 -35 q86.5 -35 168.5 -98 q22 -18 40 -18 q42 0 52 122 l47 0 q-8 -133 -8 -471 l-47 0 q-15 92 -27.5 143 q-12.5 51 -29.5 86.5 q-17 35.5 -46 73.5 q-62 80 -157 120 q-95 40 -205 40 q-133 0 -233 -88 q-100 -88 -155 -251 q-55 -163 -55 -382 q0 -223 60 -383 q60 -160 165 -243 q105 -83 238 -83 q102 0 199 39 q97 39 151 117 q42 56 60 121.5 q18 65.5 35 202.5 l47 0 Z" /><glyph glyph-name="D" unicode="d" d="M645 1450 q362 0 542.5 -181 q180.5 -181 180.5 -528 q0 -223 -87.5 -390.5 q-87.5 -167.5 -254.5 -259 q-167 -91.5 -399 -91.5 q-48 0 -120 3 q-171 3 -167 3 q-168 0 -254 -6 l0 41 q74 3 107.5 16 q33.5 13 46 48 q12.5 35 12.5 112 l0 1016 q0 77 -12.5 112 q-12.5 35 -46 48 q-33.5 13 -107.5 16 l0 41 q110 -7 200 -7 l50 1 l84 2 q160 4 225 4 ZM594 1413 q-64 0 -96 -14.5 q-32 -14.5 -44 -51.5 q-12 -37 -12 -110 l0 -1024 q0 -74 12 -110.5 q12 -36.5 44.5 -51 q32.5 -14.5 97.5 -14.5 q218 0 342 79 q124 79 174.5 230.5 q50.5 151.5 50.5 386.5 q0 236 -55 384.5 q-55 148.5 -179.5 222 q-124.5 73.5 -334.5 73.5 Z" /><glyph glyph-name="Eth" unicode="ð" d="M647 1450 q362 0 542.5 -181 q180.5 -181 180.5 -528 q0 -223 -87.5 -390.5 q-87.5 -167.5 -254.5 -259 q-167 -91.5 -399 -91.5 q-48 0 -120 3 q-171 3 -167 3 q-168 0 -254 -6 l0 41 q74 3 107.5 16 q33.5 13 46 48 q12.5 35 12.5 112 l0 492 l-166 0 l0 41 l166 0 l0 483 q0 77 -12.5 112 q-12.5 35 -46 48 q-33.5 13 -107.5 16 l0 41 q110 -7 200 -7 l50 1 l84 2 q160 4 225 4 ZM598 37 q218 0 342 79 q124 79 174.5 230.5 q50.5 151.5 50.5 386.5 q0 236 -55 384.5 q-55 148.5 -179.5 222 q-124.5 73.5 -334.5 73.5 q-64 0 -96 -14.5 q-32 -14.5 -44 -51.5 q-12 -37 -12 -110 l0 -487 l285 0 l0 -41 l-285 0 l0 -496 q0 -74 12 -110.5 q12 -36.5 44.5 -51 q32.5 -14.5 97.5 -14.5 Z" /><glyph glyph-name="Dcroat" unicode="&#x110;" d="M647 1450 q362 0 542.5 -181 q180.5 -181 180.5 -528 q0 -223 -87.5 -390.5 q-87.5 -167.5 -254.5 -259 q-167 -91.5 -399 -91.5 q-48 0 -120 3 q-171 3 -167 3 q-168 0 -254 -6 l0 41 q74 3 107.5 16 q33.5 13 46 48 q12.5 35 12.5 112 l0 492 l-166 0 l0 41 l166 0 l0 483 q0 77 -12.5 112 q-12.5 35 -46 48 q-33.5 13 -107.5 16 l0 41 q110 -7 200 -7 l50 1 l84 2 q160 4 225 4 ZM598 37 q218 0 342 79 q124 79 174.5 230.5 q50.5 151.5 50.5 386.5 q0 236 -55 384.5 q-55 148.5 -179.5 222 q-124.5 73.5 -334.5 73.5 q-64 0 -96 -14.5 q-32 -14.5 -44 -51.5 q-12 -37 -12 -110 l0 -487 l285 0 l0 -41 l-285 0 l0 -496 q0 -74 12 -110.5 q12 -36.5 44.5 -51 q32.5 -14.5 97.5 -14.5 Z" /><glyph glyph-name="E" unicode="e" d="M1135 262 q0 -116 14 -262 q-139 6 -469 6 q-393 0 -594 -6 l0 41 q74 3 107.5 16 q33.5 13 46 48 q12.5 35 12.5 112 l0 1016 q0 77 -12.5 112 q-12.5 35 -46 48 q-33.5 13 -107.5 16 l0 41 q201 -6 594 -6 q301 0 428 6 q-14 -134 -14 -242 q0 -80 6 -127 l-47 0 q-15 133 -37.5 198 q-22.5 65 -76 94.5 q-53.5 29.5 -161.5 29.5 l-170 0 q-74 0 -107.5 -12 q-33.5 -12 -46 -46.5 q-12.5 -34.5 -12.5 -111.5 l0 -483 l136 0 q72 0 110.5 34 q38.5 34 52 80 q13.5 46 22.5 116 q1 18 5 40 l47 0 q-7 -101 -7 -193 l1 -98 q0 -104 12 -291 l-47 0 l-3 29 q-9 81 -23 129 q-14 48 -53.5 80.5 q-39.5 32.5 -116.5 32.5 l-136 0 l0 -492 q0 -77 12.5 -111.5 q12.5 -34.5 46 -46.5 q33.5 -12 107.5 -12 l150 0 q128 0 194.5 34 q66.5 34 96 109 q29.5 75 45.5 220 l47 0 q-6 -55 -6 -148 Z" /><glyph glyph-name="Eogonek" unicode="&#x118;" d="M1181 -246 q-91 -139 -231 -139 q-73 0 -117.5 36.5 q-44.5 36.5 -44.5 96.5 q0 79 71 145 q71 66 203 110 q-126 3 -382 3 q-393 0 -594 -6 l0 41 q74 3 107.5 16 q33.5 13 46 48 q12.5 35 12.5 112 l0 1016 q0 77 -12.5 112 q-12.5 35 -46 48 q-33.5 13 -107.5 16 l0 41 q201 -6 594 -6 q301 0 428 6 q-14 -134 -14 -242 q0 -80 6 -127 l-47 0 q-15 133 -37.5 198 q-22.5 65 -76 94.5 q-53.5 29.5 -161.5 29.5 l-170 0 q-74 0 -107.5 -12 q-33.5 -12 -46 -46.5 q-12.5 -34.5 -12.5 -111.5 l0 -483 l136 0 q72 0 110.5 34 q38.5 34 52 80 q13.5 46 22.5 116 q1 18 5 40 l47 0 q-7 -101 -7 -193 l1 -98 q0 -104 12 -291 l-47 0 l-3 29 q-9 81 -23 129 q-14 48 -53.5 80.5 q-39.5 32.5 -116.5 32.5 l-136 0 l0 -492 q0 -77 12.5 -111.5 q12.5 -34.5 46 -46.5 q33.5 -12 107.5 -12 l150 0 q128 0 194.5 34 q66.5 34 96 109 q29.5 75 45.5 220 l47 0 q-6 -55 -6 -148 q0 -109 13 -256 q1 -2 1 -6 l-18 1 q-102 -31 -147.5 -85.5 q-45.5 -54.5 -45.5 -112.5 q0 -41 23.5 -65.5 q23.5 -24.5 64.5 -24.5 q37 0 70.5 19.5 q33.5 19.5 54.5 48.5 l30 -27 Z" /><glyph glyph-name="F" unicode="f" d="M1108 1450 q-14 -146 -14 -262 q0 -103 6 -168 l-47 0 q-16 159 -41 235.5 q-25 76.5 -86.5 112 q-61.5 35.5 -188.5 35.5 l-129 0 q-74 0 -107.5 -12 q-33.5 -12 -46 -46.5 q-12.5 -34.5 -12.5 -111.5 l0 -504 l150 0 q72 0 110.5 34 q38.5 34 52 80 q13.5 46 22.5 116 q1 18 5 40 l47 0 q-7 -100 -7 -193 l1 -97 q0 -108 13 -291 l-48 0 l-3 28 q-9 81 -23 129 q-14 48 -53.5 80.5 q-39.5 32.5 -116.5 32.5 l-150 0 l0 -471 q0 -77 16 -112 q16 -35 58 -48 q42 -13 133 -16 l0 -41 q-106 6 -301 6 q-176 0 -262 -6 l0 41 q74 3 107.5 16 q33.5 13 46 48 q12.5 35 12.5 112 l0 1016 q0 77 -12.5 112 q-12.5 35 -46 48 q-33.5 13 -107.5 16 l0 41 q201 -6 594 -6 q301 0 428 6 Z" /><glyph glyph-name="G" unicode="g" d="M770 1479 q83 0 147.5 -17.5 q64.5 -17.5 112 -44.5 q47.5 -27 109.5 -71 q26 -21 41 -21 q39 0 51 125 l47 0 q-8 -133 -8 -471 l-47 0 q-18 110 -39 180.5 q-21 70.5 -64 122.5 q-60 74 -155 117 q-95 43 -199 43 q-135 0 -237 -88 q-102 -88 -158 -250.5 q-56 -162.5 -56 -380.5 q0 -246 52.5 -403 q52.5 -157 160 -232.5 q107.5 -75.5 275.5 -75.5 q123 0 213 64 q37 25 48 48 q11 23 11 64 l0 197 q0 85 -16 124.5 q-16 39.5 -58 54 q-42 14.5 -133 18.5 l0 41 q101 -7 289 -7 q144 0 213 7 l0 -41 q-48 -4 -68.5 -16.5 q-20.5 -12.5 -28 -46.5 q-7.5 -34 -7.5 -113 l0 -406 l-41 0 q-2 42 -17 79.5 q-15 37.5 -39 37.5 q-13 0 -25 -6.5 q-12 -6.5 -42 -28.5 q-72 -55 -148.5 -83 q-76.5 -28 -171.5 -28 q-210 0 -361 87 q-151 87 -230.5 251 q-79.5 164 -79.5 391 q0 235 84.5 411.5 q84.5 176.5 234.5 272 q150 95.5 340 95.5 Z" /><glyph glyph-name="H" unicode="h" d="M1464 1409 q-74 -3 -107.5 -16 q-33.5 -13 -46 -48 q-12.5 -35 -12.5 -112 l0 -1016 q0 -77 12.5 -112 q12.5 -35 46 -48 q33.5 -13 107.5 -16 l0 -41 q-85 6 -262 6 q-164 0 -260 -6 l0 41 q74 3 107.5 16 q33.5 13 46 48 q12.5 35 12.5 112 l0 492 l-666 0 l0 -492 q0 -77 12.5 -112 q12.5 -35 46 -48 q33.5 -13 107.5 -16 l0 -41 q-94 6 -260 6 q-176 0 -262 -6 l0 41 q74 3 107.5 16 q33.5 13 46 48 q12.5 35 12.5 112 l0 1016 q0 77 -12.5 112 q-12.5 35 -46 48 q-33.5 13 -107.5 16 l0 41 q85 -6 262 -6 q166 0 260 6 l0 -41 q-74 -3 -107.5 -16 q-33.5 -13 -46 -48 q-12.5 -35 -12.5 -112 l0 -483 l666 0 l0 483 q0 77 -12.5 112 q-12.5 35 -46 48 q-33.5 13 -107.5 16 l0 41 q96 -6 260 -6 q176 0 262 6 l0 -41 Z" /><glyph glyph-name="Hbar" unicode="&#x126;" d="M1464 1409 q-74 -3 -107.5 -16 q-33.5 -13 -46 -48 q-12.5 -35 -12.5 -112 l0 -141 l166 0 l0 -41 l-166 0 l0 -834 q0 -77 12.5 -112 q12.5 -35 46 -48 q33.5 -13 107.5 -16 l0 -41 q-85 6 -262 6 q-164 0 -260 -6 l0 41 q74 3 107.5 16 q33.5 13 46 48 q12.5 35 12.5 112 l0 492 l-666 0 l0 -492 q0 -77 12.5 -112 q12.5 -35 46 -48 q33.5 -13 107.5 -16 l0 -41 q-94 6 -260 6 q-176 0 -262 -6 l0 41 q74 3 107.5 16 q33.5 13 46 48 q12.5 35 12.5 112 l0 834 l-166 0 l0 41 l166 0 l0 141 q0 77 -12.5 112 q-12.5 35 -46 48 q-33.5 13 -107.5 16 l0 41 q85 -6 262 -6 q166 0 260 6 l0 -41 q-74 -3 -107.5 -16 q-33.5 -13 -46 -48 q-12.5 -35 -12.5 -112 l0 -141 l666 0 l0 141 q0 77 -12.5 112 q-12.5 35 -46 48 q-33.5 13 -107.5 16 l0 41 q96 -6 260 -6 q176 0 262 6 l0 -41 ZM442 1051 l0 -301 l666 0 l0 301 l-666 0 Z" /><glyph glyph-name="I" unicode="i" d="M608 1409 q-74 -3 -107.5 -16 q-33.5 -13 -46 -48 q-12.5 -35 -12.5 -112 l0 -1016 q0 -77 12.5 -112 q12.5 -35 46 -48 q33.5 -13 107.5 -16 l0 -41 q-94 6 -260 6 q-176 0 -262 -6 l0 41 q74 3 107.5 16 q33.5 13 46 48 q12.5 35 12.5 112 l0 1016 q0 77 -12.5 112 q-12.5 35 -46 48 q-33.5 13 -107.5 16 l0 41 q85 -6 262 -6 q166 0 260 6 l0 -41 Z" /><glyph glyph-name="Iogonek" unicode="&#x12e;" d="M640 -246 q-91 -139 -231 -139 q-73 0 -117.5 36.5 q-44.5 36.5 -44.5 96.5 q0 79 71.5 145.5 q71.5 66.5 204.5 110.5 q-108 2 -175 2 q-177 0 -262 -6 l0 41 q74 3 107.5 16 q33.5 13 46 48 q12.5 35 12.5 112 l0 1016 q0 77 -12.5 112 q-12.5 35 -46 48 q-33.5 13 -107.5 16 l0 41 q85 -6 262 -6 q165 0 260 6 l0 -41 q-74 -3 -107.5 -16 q-33.5 -13 -46 -48 q-12.5 -35 -12.5 -112 l0 -1016 q0 -77 12.5 -112 q12.5 -35 46 -48 q33.5 -13 107.5 -16 l0 -41 l-18 1 q-102 -31 -147.5 -85.5 q-45.5 -54.5 -45.5 -112.5 q0 -41 23.5 -65.5 q23.5 -24.5 64.5 -24.5 q37 0 70.5 19.5 q33.5 19.5 54.5 48.5 l30 -27 Z" /><glyph glyph-name="J" unicode="j" d="M596 1409 q-74 -3 -107.5 -16 q-33.5 -13 -46 -48 q-12.5 -35 -12.5 -112 l0 -750 q0 -174 -6.5 -308.5 q-6.5 -134.5 -28.5 -225.5 q-23 -96 -81 -171.5 q-58 -75.5 -147.5 -119 q-89.5 -43.5 -203.5 -43.5 q-100 0 -172 37 q-98 51 -98 141 q0 48 30.5 78.5 q30.5 30.5 77.5 30.5 q49 0 81 -30 q32 -30 32 -81 q0 -43 -23 -69.5 q-23 -26.5 -63 -34.5 q18 -18 56.5 -25.5 q38.5 -7.5 74.5 -7.5 q89 0 153.5 46 q64.5 46 92.5 128 q21 64 28 159.5 q7 95.5 7 309.5 l0 936 q0 77 -12.5 112 q-12.5 35 -46 48 q-33.5 13 -107.5 16 l0 41 q85 -6 262 -6 q164 0 260 6 l0 -41 Z" /><glyph glyph-name="K" unicode="k" d="M1159 166 q34 -52 76 -81 q42 -29 104 -44 l0 -41 q-97 6 -245 6 q-111 0 -211 -6 l0 41 q48 2 71 12 q23 10 23 31 q0 19 -21 49 l-299 451 q-41 63 -71.5 93 q-30.5 30 -61.5 41.5 q-31 11.5 -82 14.5 l0 -516 q0 -77 12.5 -112 q12.5 -35 46 -48 q33.5 -13 107.5 -16 l0 -41 q-94 6 -260 6 q-176 0 -262 -6 l0 41 q74 3 107.5 16 q33.5 13 46 48 q12.5 35 12.5 112 l0 1016 q0 77 -12.5 112 q-12.5 35 -46 48 q-33.5 13 -107.5 16 l0 41 q85 -6 262 -6 q166 0 260 6 l0 -41 q-74 -3 -107.5 -16 q-33.5 -13 -46 -48 q-12.5 -35 -12.5 -112 l0 -459 q148 5 234 115 l196 250 q105 133 105 196 q0 71 -127 74 l0 41 q117 -6 235 -6 q114 0 175 6 l0 -41 q-68 -10 -127.5 -44 q-59.5 -34 -114.5 -105 l-334 -428 l475 -666 Z" /><glyph glyph-name="L" unicode="l" d="M608 1409 q-74 -3 -107.5 -16 q-33.5 -13 -46 -48 q-12.5 -35 -12.5 -112 l0 -1016 q0 -77 12.5 -111.5 q12.5 -34.5 46 -46.5 q33.5 -12 107.5 -12 l150 0 q128 0 194.5 36 q66.5 36 96 115 q29.5 79 45.5 232 l47 0 q-6 -64 -6 -168 q0 -116 14 -262 q-139 6 -469 6 q-393 0 -594 -6 l0 41 q74 3 107.5 16 q33.5 13 46 48 q12.5 35 12.5 112 l0 1016 q0 77 -12.5 112 q-12.5 35 -46 48 q-33.5 13 -107.5 16 l0 41 q85 -6 262 -6 q166 0 260 6 l0 -41 Z" /><glyph glyph-name="Lslash" unicode="&#x141;" d="M1135 262 q0 -116 14 -262 q-139 6 -469 6 q-393 0 -594 -6 l0 41 q74 3 107.5 16 q33.5 13 46 48 q12.5 35 12.5 112 l0 309 l-166 -96 l0 47 l166 96 l0 660 q0 77 -12.5 112 q-12.5 35 -46 48 q-33.5 13 -107.5 16 l0 41 q85 -6 262 -6 q166 0 260 6 l0 -41 q-74 -3 -107.5 -16 q-33.5 -13 -46 -48 q-12.5 -35 -12.5 -112 l0 -570 l527 306 l0 -47 l-527 -306 l0 -399 q0 -77 12.5 -111.5 q12.5 -34.5 46 -46.5 q33.5 -12 107.5 -12 l150 0 q128 0 194.5 36 q66.5 36 96 115 q29.5 79 45.5 232 l47 0 q-6 -64 -6 -168 Z" /><glyph glyph-name="M" unicode="m" d="M1698 1409 q-74 -3 -107.5 -16 q-33.5 -13 -46 -48 q-12.5 -35 -12.5 -112 l0 -1016 q0 -77 12.5 -112 q12.5 -35 46 -48 q33.5 -13 107.5 -16 l0 -41 q-96 6 -260 6 q-176 0 -262 -6 l0 41 q74 3 107 16 q33 13 45.5 48 q12.5 35 12.5 112 l0 1096 l-493 -1323 l-33 0 l-516 1329 l0 -1081 q0 -79 14 -119 q14 -40 52.5 -57.5 q38.5 -17.5 119.5 -20.5 l0 -41 q-73 6 -209 6 q-122 0 -190 -6 l0 41 q71 3 105.5 20.5 q34.5 17.5 47.5 57.5 q13 40 13 119 l0 995 q0 77 -12.5 112 q-12.5 35 -46 48 q-33.5 13 -107.5 16 l0 41 q67 -6 190 -6 q108 0 175 6 l450 -1188 l440 1182 l97 0 q164 0 260 6 l0 -41 Z" /><glyph glyph-name="N" unicode="n" d="M1372 1409 q-71 -3 -105.5 -20.5 q-34.5 -17.5 -47.5 -57.5 q-13 -40 -13 -119 l0 -1222 l-47 0 l-860 1329 l0 -1081 q0 -79 14 -119 q14 -40 52.5 -57.5 q38.5 -17.5 119.5 -20.5 l0 -41 q-73 6 -209 6 q-122 0 -190 -6 l0 41 q71 3 105.5 20.5 q34.5 17.5 47.5 57.5 q13 40 13 119 l0 995 q0 77 -12.5 112 q-12.5 35 -46 48 q-33.5 13 -107.5 16 l0 41 q67 -6 190 -6 q92 0 160 6 l723 -1114 l0 876 q0 79 -13.5 119 q-13.5 40 -52.5 57.5 q-39 17.5 -120 20.5 l0 41 q73 -6 209 -6 q122 0 190 6 l0 -41 Z" /><glyph glyph-name="Eng" unicode="&#x14a;" d="M1182 1444 q123 0 190 6 l0 -41 q-74 -3 -107.5 -16 q-33.5 -13 -46 -48 q-12.5 -35 -12.5 -112 l0 -1047 q0 -224 -37.5 -350 q-37.5 -126 -101 -173.5 q-63.5 -47.5 -152.5 -47.5 q-79 0 -131.5 31 q-52.5 31 -52.5 96 q0 46 27.5 74 q27.5 28 68.5 28 q42 0 72.5 -28 q30.5 -28 30.5 -68 q0 -27 -15 -53.5 q-15 -26.5 -38 -40.5 q24 -4 47 -4 q205 0 231 346 l-856 1323 l0 -1102 q0 -77 12.5 -112 q12.5 -35 46 -48 q33.5 -13 107.5 -16 l0 -41 q-74 6 -189 6 q-122 0 -190 -6 l0 41 q74 3 107.5 16 q33.5 13 46 48 q12.5 35 12.5 112 l0 1016 q0 77 -12.5 112 q-12.5 35 -46 48 q-33.5 13 -107.5 16 l0 41 q67 -6 190 -6 q113 0 189 6 l694 -1073 l0 856 q0 77 -12.5 112 q-12.5 35 -46 48 q-33.5 13 -107.5 16 l0 41 q74 -6 189 -6 Z" /><glyph glyph-name="O" unicode="o" d="M760 1479 q195 0 341.5 -88 q146.5 -88 227 -255.5 q80.5 -167.5 80.5 -398.5 q0 -226 -83 -400 q-83 -174 -231 -270 q-148 -96 -337 -96 q-195 0 -341.5 88 q-146.5 88 -227 255.5 q-80.5 167.5 -80.5 398.5 q0 226 83 400 q83 174 231 270 q148 96 337 96 ZM752 1442 q-131 0 -231 -91.5 q-100 -91.5 -154 -255 q-54 -163.5 -54 -374.5 q0 -213 60 -375 q60 -162 163.5 -250 q103.5 -88 229.5 -88 q131 0 230.5 91.5 q99.5 91.5 153.5 255 q54 163.5 54 374.5 q0 213 -60 375 q-60 162 -163 250 q-103 88 -229 88 Z" /><glyph glyph-name="Oslash" unicode="ø" d="M1195 1320 q103 -96 158.5 -244 q55.5 -148 55.5 -339 q0 -226 -83 -400 q-83 -174 -231 -270 q-148 -96 -337 -96 q-234 0 -398 127 l-167 -248 l-43 29 l172 252 q-103 97 -158 244.5 q-55 147.5 -55 337.5 q0 226 83 400 q83 174 231 270 q148 96 337 96 q236 0 398 -127 l159 231 l39 -27 l-161 -236 ZM752 1442 q-131 0 -231 -91.5 q-100 -91.5 -154 -255 q-54 -163.5 -54 -374.5 q0 -279 103 -472 l657 999 q-61 93 -144 143.5 q-83 50.5 -177 50.5 ZM766 8 q131 0 230.5 91.5 q99.5 91.5 153.5 255 q54 163.5 54 374.5 q0 282 -103 472 l-655 -1001 q61 -93 143.5 -142.5 q82.5 -49.5 176.5 -49.5 Z" /><glyph glyph-name="OE" unicode="&#x152;" d="M1788 262 q0 -116 14 -262 q-127 6 -428 6 q-287 0 -448 -4 q-84 -31 -168 -31 q-195 0 -341.5 88 q-146.5 88 -227 255.5 q-80.5 167.5 -80.5 398.5 q0 226 83 400 q83 174 231 270 q148 96 337 96 q95 0 180 -31 q164 -4 434 -4 q273 0 387 6 q-14 -134 -14 -242 q0 -80 6 -127 l-47 0 q-15 133 -37.5 198 q-22.5 65 -75.5 94.5 q-53 29.5 -161 29.5 l-68 0 q-74 0 -107.5 -12 q-33.5 -12 -46 -46.5 q-12.5 -34.5 -12.5 -111.5 l0 -483 l88 0 q71 0 109.5 29 q38.5 29 52.5 68 q14 39 23 97 l6 35 l47 0 q-7 -83 -7 -159 l1 -91 q0 -88 12 -250 l-47 0 l-4 26 q-9 68 -23 108.5 q-14 40.5 -53.5 68 q-39.5 27.5 -116.5 27.5 l-88 0 l0 -492 q0 -77 12.5 -111.5 q12.5 -34.5 46 -46.5 q33.5 -12 107.5 -12 l47 0 q128 0 194.5 34 q66.5 34 96 109 q29.5 75 45.5 220 l47 0 q-6 -55 -6 -148 ZM1008 1233 q0 106 -71.5 157.5 q-71.5 51.5 -184.5 51.5 q-131 0 -231 -91.5 q-100 -91.5 -154 -255 q-54 -163.5 -54 -374.5 q0 -213 60 -375 q60 -162 163.5 -250 q103.5 -88 229.5 -88 q57 0 113 22.5 q56 22.5 92.5 69.5 q36.5 47 36.5 117 l0 1016 Z" /><glyph glyph-name="P" unicode="p" d="M442 217 q0 -77 16 -112 q16 -35 58 -48 q42 -13 133 -16 l0 -41 q-106 6 -301 6 q-176 0 -262 -6 l0 41 q74 3 107.5 16 q33.5 13 46 48 q12.5 35 12.5 112 l0 1016 q0 77 -12.5 112 q-12.5 35 -46 48 q-33.5 13 -107.5 16 l0 41 q85 -6 250 -6 q36 0 222 3 l87 1 q161 0 272 -50.5 q111 -50.5 166.5 -141.5 q55.5 -91 55.5 -212 q0 -112 -50 -216 q-50 -104 -170.5 -173 q-120.5 -69 -318.5 -69 l-158 0 l0 -369 ZM594 1409 q-64 0 -96 -14.5 q-32 -14.5 -44 -51.5 q-12 -37 -12 -110 l0 -606 l138 0 q200 0 277 107 q77 107 77 288 q0 132 -34 217 q-34 85 -108.5 127.5 q-74.5 42.5 -197.5 42.5 Z" /><glyph glyph-name="Thorn" unicode="þ" d="M442 217 q0 -77 12.5 -112 q12.5 -35 46 -48 q33.5 -13 107.5 -16 l0 -41 q-94 6 -260 6 q-176 0 -262 -6 l0 41 q74 3 107.5 16 q33.5 13 46 48 q12.5 35 12.5 112 l0 1016 q0 77 -12.5 112 q-12.5 35 -46 48 q-33.5 13 -107.5 16 l0 41 q86 -6 262 -6 q166 0 260 6 l0 -41 q-74 -3 -107.5 -16 q-33.5 -13 -46 -48 q-12.5 -35 -12.5 -112 l0 -91 q42 0 102 2 l87 1 q160 0 271 -52 q111 -52 166.5 -142.5 q55.5 -90.5 55.5 -205.5 q0 -116 -49.5 -220.5 q-49.5 -104.5 -170 -173 q-120.5 -68.5 -318.5 -68.5 l-144 0 l0 -66 ZM580 1106 q-46 0 -138 -2 l0 -780 l123 0 q201 0 278 110 q77 110 77 299 q0 188 -79.5 280.5 q-79.5 92.5 -260.5 92.5 Z" /><glyph glyph-name="Q" unicode="q" d="M1563 -59 q-46 -157 -129 -234 q-102 -92 -277 -92 q-67 0 -132.5 15.5 q-65.5 15.5 -126 38.5 q-60.5 23 -152.5 64 q-165 72 -248 99 q-23 7 -28 8 l-21 6 q-90 -30 -170 -30 q-95 0 -95 41 q0 43 111 43 q74 0 154 -17 q63 17 148 56 q44 21 83 36 q-173 17 -301.5 109.5 q-128.5 92.5 -199 253 q-70.5 160.5 -70.5 375.5 q0 226 83 400 q83 174 231 270 q148 96 337 96 q195 0 341.5 -88 q146.5 -88 227 -255.5 q80.5 -167.5 80.5 -398.5 q0 -213 -74 -380 q-74 -167 -207 -267 q-133 -100 -305 -116 l0 -1 q-50 -5 -88.5 -18 q-38.5 -13 -91.5 -36 q-72 -31 -123 -46 q225 -45 384.5 -71.5 q159.5 -26.5 264.5 -26.5 q146 0 231 42.5 q85 42.5 132 135.5 l31 -12 ZM313 721 q0 -213 60 -375 q60 -162 163.5 -250 q103.5 -88 229.5 -88 q131 0 230.5 91.5 q99.5 91.5 153.5 255 q54 163.5 54 374.5 q0 213 -60 375 q-60 162 -163 250 q-103 88 -229 88 q-131 0 -231 -91.5 q-100 -91.5 -154 -255 q-54 -163.5 -54 -374.5 Z" /><glyph glyph-name="R" unicode="r" d="M1352 102 q-48 -69 -95 -100 q-47 -31 -124 -31 q-84 0 -138 49 q-54 49 -82 173 l-45 204 q-24 107 -45.5 164.5 q-21.5 57.5 -65 92 q-43.5 34.5 -120.5 34.5 l-195 0 l0 -471 q0 -77 12.5 -112 q12.5 -35 46 -48 q33.5 -13 107.5 -16 l0 -41 q-94 6 -260 6 q-176 0 -262 -6 l0 41 q74 3 107.5 16 q33.5 13 46 48 q12.5 35 12.5 112 l0 1016 q0 77 -12.5 112 q-12.5 35 -46 48 q-33.5 13 -107.5 16 l0 41 q86 -6 250 -6 q36 0 222 3 l87 1 q160 0 271 -46.5 q111 -46.5 167 -127 q56 -80.5 56 -182.5 q0 -80 -38 -161.5 q-38 -81.5 -127 -146 q-89 -64.5 -233 -86.5 l25 -4 q92 -15 147 -45.5 q55 -30.5 87.5 -83.5 q32.5 -53 52.5 -141 l51 -209 q13 -63 26.5 -98.5 q13.5 -35.5 32 -52.5 q18.5 -17 46.5 -17 q34 0 56 17.5 q22 17.5 56 60.5 l31 -23 ZM594 1409 q-64 0 -96 -14.5 q-32 -14.5 -44 -51.5 q-12 -37 -12 -110 l0 -504 l138 0 q138 0 216 44 q78 44 108 118 q30 74 30 178 q0 168 -80 254 q-80 86 -260 86 Z" /><glyph glyph-name="S" unicode="s" d="M524 1473 q63 0 108.5 -10.5 q45.5 -10.5 75.5 -26 q30 -15.5 66 -39.5 q46 -29 70 -29 q19 0 29 21.5 q10 21.5 16 68.5 l47 0 q-10 -120 -10 -418 l-47 0 q-8 105 -45.5 194 q-37.5 89 -110 144.5 q-72.5 55.5 -180.5 55.5 q-72 0 -129 -30 q-57 -30 -89 -84 q-32 -54 -32 -124 q0 -78 35.5 -135 q35.5 -57 91 -99 q55.5 -42 156.5 -104 l61 -37 q129 -81 204 -140.5 q75 -59.5 120 -138 q45 -78.5 45 -182.5 q0 -126 -58 -213.5 q-58 -87.5 -156.5 -131.5 q-98.5 -44 -220.5 -44 q-98 0 -161 20.5 q-63 20.5 -119 55.5 q-46 29 -70 29 q-19 0 -29 -21.5 q-10 -21.5 -16 -68.5 l-47 0 q8 112 8 491 l47 0 q14 -208 102 -336.5 q88 -128.5 271 -128.5 q70 0 130.5 29 q60.5 29 98 90.5 q37.5 61.5 37.5 153.5 q0 79 -38.5 141.5 q-38.5 62.5 -104.5 114.5 q-66 52 -176 118 q-122 73 -196 131 q-74 58 -121.5 138.5 q-47.5 80.5 -47.5 189.5 q0 116 52.5 196 q52.5 80 140 119.5 q87.5 39.5 192.5 39.5 Z" /><glyph glyph-name="Scedilla" unicode="&#x15e;" d="M1006 360 q0 -121 -54 -207 q-54 -86 -147 -131.5 q-93 -45.5 -209 -50.5 l-41 -118 q61 14 121 14 q58 0 91.5 -25.5 q33.5 -25.5 33.5 -70.5 q0 -54 -35.5 -89 q-35.5 -35 -88.5 -51 q-53 -16 -107 -16 q-105 0 -170 23 l8 36 q42 -6 78 -6 q74 0 129 21.5 q55 21.5 55 70.5 q0 58 -86 58 q-58 0 -100 -15 l56 169 q-84 3 -140.5 23 q-56.5 20 -108.5 52 q-46 29 -70 29 q-19 0 -29 -21.5 q-10 -21.5 -16 -68.5 l-47 0 q8 112 8 491 l47 0 q14 -208 102 -336.5 q88 -128.5 271 -128.5 q70 0 130.5 29 q60.5 29 98 90.5 q37.5 61.5 37.5 153.5 q0 79 -38.5 141.5 q-38.5 62.5 -104.5 114.5 q-66 52 -176 118 q-122 73 -196 131 q-74 58 -121.5 138.5 q-47.5 80.5 -47.5 189.5 q0 116 52.5 196 q52.5 80 140 119.5 q87.5 39.5 192.5 39.5 q63 0 108.5 -10.5 q45.5 -10.5 75.5 -26 q30 -15.5 66 -39.5 q46 -29 70 -29 q19 0 29 21.5 q10 21.5 16 68.5 l47 0 q-10 -120 -10 -418 l-47 0 q-8 105 -45.5 194 q-37.5 89 -110 144.5 q-72.5 55.5 -180.5 55.5 q-72 0 -129 -30 q-57 -30 -89 -84 q-32 -54 -32 -124 q0 -78 35.5 -135 q35.5 -57 91 -99 q55.5 -42 156.5 -104 l61 -37 q129 -81 204 -140.5 q75 -59.5 120 -138 q45 -78.5 45 -182.5 Z" /><glyph glyph-name="uni1E9E" unicode="&#x1e9e;" d="M754 1479 q126 0 230.5 -36.5 q104.5 -36.5 197.5 -109.5 l-310 -489 q127 -27 227.5 -89 q100.5 -62 158 -153.5 q57.5 -91.5 57.5 -204.5 q0 -116 -62 -213.5 q-62 -97.5 -177.5 -155 q-115.5 -57.5 -268.5 -57.5 q-115 0 -195 37 q-100 49 -100 142 q0 47 30.5 77.5 q30.5 30.5 78.5 30.5 q49 0 80.5 -30 q31.5 -30 31.5 -81 q0 -43 -23 -69.5 q-23 -26.5 -63 -34.5 q21 -18 65.5 -25.5 q44.5 -7.5 84.5 -7.5 q101 0 171.5 55 q70.5 55 106 144.5 q35.5 89.5 35.5 193.5 q0 128 -52.5 224 q-52.5 96 -147.5 154 q-95 58 -222 77 l322 524 q-38 29 -103 44.5 q-65 15.5 -131 15.5 q-172 0 -279.5 -121 q-107.5 -121 -107.5 -412 l0 -692 q0 -72 9 -108 q9 -36 32.5 -51.5 q23.5 -15.5 71.5 -16.5 l0 -41 q-22 0 -76 2 q-76 4 -158 4 q-149 0 -235 -6 l0 41 q74 3 107.5 16 q33.5 13 46 48 q12.5 35 12.5 112 l0 567 q0 695 555 695 Z" /><glyph glyph-name="T" unicode="t" d="M1212 1450 q-14 -146 -14 -262 q0 -103 6 -168 l-47 0 q-16 159 -40.5 235.5 q-24.5 76.5 -86 112 q-61.5 35.5 -188.5 35.5 l-111 0 l0 -1165 q0 -85 16 -124.5 q16 -39.5 58 -54.5 q42 -15 133 -18 l0 -41 q-108 6 -301 6 q-205 0 -303 -6 l0 41 q91 3 133 18 q42 15 58 54.5 q16 39.5 16 124.5 l0 1165 l-111 0 q-127 0 -188.5 -35.5 q-61.5 -35.5 -86 -112 q-24.5 -76.5 -40.5 -235.5 l-47 0 q6 65 6 168 q0 120 -15 262 q170 -6 578 -6 q405 0 575 6 Z" /><glyph glyph-name="Tbar" unicode="&#x166;" d="M1216 1450 q-14 -146 -14 -262 q0 -103 6 -168 l-47 0 q-16 159 -40.5 235.5 q-24.5 76.5 -86 112 q-61.5 35.5 -188.5 35.5 l-111 0 l0 -653 l328 0 l0 -41 l-328 0 l0 -471 q0 -85 16 -124.5 q16 -39.5 58 -54.5 q42 -15 133 -18 l0 -41 q-108 6 -301 6 q-205 0 -303 -6 l0 41 q91 3 133 18 q42 15 58 54.5 q16 39.5 16 124.5 l0 471 l-330 0 l0 41 l330 0 l0 653 l-111 0 q-127 0 -188.5 -35.5 q-61.5 -35.5 -86 -112 q-24.5 -76.5 -40.5 -235.5 l-47 0 q6 65 6 168 q0 120 -15 262 q170 -6 578 -6 q405 0 575 6 Z" /><glyph glyph-name="Tcedilla" unicode="&#x162;" d="M1212 1450 q-14 -146 -14 -262 q0 -103 6 -168 l-47 0 q-16 159 -40.5 235.5 q-24.5 76.5 -86 112 q-61.5 35.5 -188.5 35.5 l-111 0 l0 -1165 q0 -85 16 -124.5 q16 -39.5 58 -54.5 q42 -15 133 -18 l0 -41 q-101 6 -279 6 l-53 -153 q61 14 121 14 q58 0 91.5 -25.5 q33.5 -25.5 33.5 -70.5 q0 -54 -35.5 -89 q-35.5 -35 -88.5 -51 q-53 -16 -107 -16 q-105 0 -170 23 l8 36 q42 -6 78 -6 q74 0 129 21.5 q55 21.5 55 70.5 q0 58 -86 58 q-58 0 -100 -15 l68 203 q-180 0 -269 -6 l0 41 q91 3 133 18 q42 15 58 54.5 q16 39.5 16 124.5 l0 1165 l-111 0 q-127 0 -188.5 -35.5 q-61.5 -35.5 -86 -112 q-24.5 -76.5 -40.5 -235.5 l-47 0 q6 65 6 168 q0 120 -15 262 q170 -6 578 -6 q405 0 575 6 Z" /><glyph glyph-name="U" unicode="u" d="M1341 1409 q-71 -3 -105.5 -20.5 q-34.5 -17.5 -47 -57.5 q-12.5 -40 -12.5 -119 l0 -616 q0 -147 -19.5 -252.5 q-19.5 -105.5 -64.5 -181.5 q-52 -88 -151.5 -139.5 q-99.5 -51.5 -223.5 -51.5 q-225 0 -344 111 q-61 57 -93.5 120.5 q-32.5 63.5 -45.5 153.5 q-13 90 -13 234 l0 643 q0 77 -12.5 112 q-12.5 35 -46 48 q-33.5 13 -107.5 16 l0 41 q87 -6 262 -6 q165 0 261 6 l0 -41 q-74 -3 -107.5 -16 q-33.5 -13 -46 -48 q-12.5 -35 -12.5 -112 l0 -678 q0 -164 22 -272 q22 -108 92.5 -174 q70.5 -66 208.5 -66 q217 0 305 139 q88 139 88 391 l0 639 q0 76 -17.5 117 q-17.5 41 -57 59 q-39.5 18 -111.5 21 l0 41 q74 -6 209 -6 q123 0 190 6 l0 -41 Z" /><glyph glyph-name="Uogonek" unicode="&#x172;" d="M1151 1444 q122 0 190 6 l0 -41 q-71 -3 -105.5 -20.5 q-34.5 -17.5 -47 -57.5 q-12.5 -40 -12.5 -119 l0 -616 q0 -147 -19.5 -252.5 q-19.5 -105.5 -64.5 -181.5 q-38 -65 -103.5 -111 q-65.5 -46 -149.5 -66 q-78 -33 -113.5 -82 q-35.5 -49 -35.5 -100 q0 -41 23.5 -65.5 q23.5 -24.5 64.5 -24.5 q37 0 70.5 19.5 q33.5 19.5 54.5 48.5 l30 -27 q-91 -139 -231 -139 q-73 0 -117.5 36.5 q-44.5 36.5 -44.5 96.5 q0 66 50 123 q50 57 144 100 l-17 0 q-225 0 -344 111 q-61 57 -93.5 120.5 q-32.5 63.5 -45.5 153.5 q-13 90 -13 234 l0 643 q0 77 -12.5 112 q-12.5 35 -46 48 q-33.5 13 -107.5 16 l0 41 q87 -6 262 -6 q165 0 261 6 l0 -41 q-74 -3 -107.5 -16 q-33.5 -13 -46 -48 q-12.5 -35 -12.5 -112 l0 -678 q0 -164 22 -272 q22 -108 92.5 -174 q70.5 -66 208.5 -66 q217 0 305 139 q88 139 88 391 l0 639 q0 76 -17.5 117 q-17.5 41 -57 59 q-39.5 18 -111.5 21 l0 41 q73 -6 209 -6 Z" /><glyph glyph-name="V" unicode="v" d="M1151 1444 q92 0 154 6 l0 -41 q-103 -23 -162 -178 l-481 -1241 l-17 0 l-16 0 l-500 1288 q-50 127 -141 131 l0 41 q83 -6 219 -6 q176 0 262 6 l0 -41 q-78 -3 -111.5 -19 q-33.5 -16 -33.5 -57 q0 -34 24 -96 l371 -984 l334 865 q41 106 41 167 q0 65 -44 93.5 q-44 28.5 -135 30.5 l0 41 q117 -6 236 -6 Z" /><glyph glyph-name="W" unicode="w" d="M1704 1444 q92 0 154 6 l0 -41 q-114 -25 -162 -178 l-387 -1241 l-17 0 l-16 0 l-356 1055 l-326 -1055 l-16 0 l-17 0 l-434 1288 q-44 126 -141 131 l0 41 q82 -6 219 -6 q147 0 221 6 l0 -41 q-54 -4 -77 -20 q-23 -16 -23 -51 q0 -33 22 -101 l300 -913 l248 793 l-54 161 q-42 127 -121 131 l0 41 q74 -6 199 -6 q175 0 262 6 l0 -41 q-53 -2 -81 -7.5 q-28 -5.5 -43.5 -20.5 q-15.5 -15 -15.5 -45 q0 -34 21 -99 l294 -911 l253 792 q33 104 33 165 q0 68 -41.5 96 q-41.5 28 -133.5 30 l0 41 q117 -6 236 -6 Z" /><glyph glyph-name="X" unicode="x" d="M1147 145 q26 -41 45 -61.5 q19 -20.5 40 -29.5 q21 -9 52 -11 l0 -43 q-5 0 -27 2 q-114 6 -149 6 q-105 0 -252 -7 l-37 -1 l0 43 q80 0 113 7 q33 7 33 26 q0 15 -15 37 l-350 536 l-221 -330 q-78 -116 -78 -180 q0 -52 46.5 -74 q46.5 -22 135.5 -24 l0 -41 q-116 6 -276 6 q-113 0 -174 -6 l0 41 q61 9 116.5 55 q55.5 46 114.5 133 l309 461 l-401 615 q-26 41 -45 61.5 q-19 20.5 -40 29.5 q-21 9 -52 11 l0 43 q5 0 27 -2 q114 -6 149 -6 q137 0 289 8 l0 -43 q-137 0 -137 -45 q0 -16 18 -45 l319 -488 l201 301 q89 133 89 197 q0 43 -39.5 61.5 q-39.5 18.5 -119.5 20.5 l0 41 q117 -6 236 -6 q112 0 174 6 l0 -41 q-62 -9 -117.5 -55.5 q-55.5 -46.5 -113.5 -132.5 l-287 -428 l424 -648 Z" /><glyph glyph-name="Y" unicode="y" d="M1051 1444 q92 0 153 6 l0 -41 q-41 -9 -80 -51.5 q-39 -42.5 -84 -130.5 l-321 -637 l0 -373 q0 -77 12.5 -112 q12.5 -35 46 -48 q33.5 -13 107.5 -16 l0 -41 q-96 6 -260 6 q-176 0 -263 -6 l0 41 q74 3 107.5 16 q33.5 13 46 48 q12.5 35 12.5 112 l0 309 l-415 766 q-38 69 -65.5 92 q-27.5 23 -53.5 23 l0 43 q80 -6 180 -6 q199 0 287 6 l0 -43 q-144 0 -144 -79 q0 -30 21 -71 l341 -653 l261 520 q56 113 56 176 q0 58 -45 82.5 q-45 24.5 -136 26.5 l0 41 q117 -6 236 -6 Z" /><glyph glyph-name="Z" unicode="z" d="M279 47 l432 0 q128 0 194.5 36 q66.5 36 96 115 q29.5 79 45.5 232 l47 0 q-7 -75 -7 -168 q0 -106 15 -262 q-152 6 -510 6 q-350 0 -506 -6 l0 41 l854 1362 l-430 0 q-128 0 -194.5 -36 q-66.5 -36 -96 -115 q-29.5 -79 -45.5 -232 l-47 0 q6 65 6 168 q0 116 -14 262 q151 -6 510 -6 q348 0 497 6 l0 -41 l-847 -1362 Z" /><glyph glyph-name="a" unicode="a" d="M1126 172 q56 -127 142 -131 l0 -41 q-84 6 -219 6 q-176 0 -263 -6 l0 41 q77 3 112 19 q35 16 35 56 q0 37 -28 97 l-103 233 l-500 0 l-69 -153 q-34 -79 -34 -131 q0 -108 159 -121 l0 -41 q-61 6 -186 6 q-125 0 -178 -6 l0 41 q54 14 94 62.5 q40 48.5 74 127.5 l452 1024 l33 0 l479 -1083 ZM553 1008 l-233 -521 l464 0 l-231 521 Z" /><glyph glyph-name="aogonek" unicode="&#x105;" d="M1202 3 q-106 -30 -153.5 -85 q-47.5 -55 -47.5 -115 q0 -41 23.5 -65.5 q23.5 -24.5 64.5 -24.5 q37 0 70.5 19.5 q33.5 19.5 54.5 48.5 l30 -27 q-91 -139 -231 -139 q-73 0 -117.5 36.5 q-44.5 36.5 -44.5 96.5 q0 80 73 146.5 q73 66.5 208 110.5 l-83 1 q-176 0 -263 -6 l0 41 q77 3 112 19 q35 16 35 56 q0 37 -28 97 l-103 233 l-500 0 l-69 -153 q-34 -79 -34 -131 q0 -108 159 -121 l0 -41 q-61 6 -186 6 q-125 0 -178 -6 l0 41 q54 14 94 62.5 q40 48.5 74 127.5 l452 1024 l33 0 l479 -1083 q56 -127 142 -131 l0 -41 l-66 3 ZM553 1008 l-233 -521 l464 0 l-231 521 Z" /><glyph glyph-name="ae" unicode="æ" d="M1497 242 q0 -108 14 -242 q-120 6 -407 6 q-322 0 -492 -6 l0 41 q57 3 82 16 q25 13 34 48 q9 35 9 112 l0 389 l-304 0 l-222 -393 q-35 -61 -35 -99 q0 -36 34.5 -53 q34.5 -17 106.5 -20 l0 -41 q-62 6 -186 6 q-85 0 -137 -6 l0 41 q33 2 66.5 31.5 q33.5 29.5 74.5 99.5 l570 999 q-17 17 -47.5 24 q-30.5 7 -86.5 9 l0 41 q56 -2 174 -4 l62 109 l47 0 l-62 -110 q91 -1 171.5 -1 q80.5 0 140.5 0 q258 0 366 6 q-14 -123 -14 -221 q0 -80 6 -127 l-47 0 q-11 123 -28.5 184 q-17.5 61 -59.5 89 q-42 28 -125 28 l-108 0 q-74 0 -107.5 -11.5 q-33.5 -11.5 -46 -46 q-12.5 -34.5 -12.5 -112.5 l0 -381 l149 0 q57 0 87.5 26 q30.5 26 41 61 q10.5 35 16.5 88 q1 8 2 16.5 q1 8.5 3 17.5 l47 0 q-7 -80 -7 -152 l1 -77 q0 -80 12 -230 l-47 0 q-2 14 -2 20 q-7 64 -18 101 q-11 37 -42.5 62.5 q-31.5 25.5 -93.5 25.5 l-149 0 l0 -389 q0 -77 12.5 -111.5 q12.5 -34.5 46 -46.5 q33.5 -12 107.5 -12 l129 0 q99 0 144 31 q45 31 60.5 96.5 q15.5 65.5 28.5 214.5 l47 0 q-6 -55 -6 -147 ZM737 1028 q0 69 -9 100 l-272 -481 l281 0 l0 381 Z" /><glyph glyph-name="b" unicode="b" d="M745 664 q214 -27 306 -116.5 q92 -89.5 92 -211.5 q0 -99 -56.5 -175 q-56.5 -76 -163 -118.5 q-106.5 -42.5 -251.5 -42.5 l-90 2 q-124 4 -242 4 q-168 0 -254 -6 l0 41 q74 3 107.5 16 q33.5 13 46 48 q12.5 35 12.5 112 l0 811 q0 78 -12.5 113 q-12.5 35 -45.5 47.5 q-33 12.5 -108 15.5 l0 41 q85 -6 250 -6 q35 0 209 3 l80 1 q133 0 225.5 -35.5 q92.5 -35.5 139 -98.5 q46.5 -63 46.5 -146 q0 -99 -69 -177 q-69 -78 -222 -118 l0 -4 ZM573 1204 q-55 0 -82.5 -14.5 q-27.5 -14.5 -38 -51.5 q-10.5 -37 -10.5 -110 l0 -360 l117 0 q157 0 219 71.5 q62 71.5 62 200.5 q0 132 -63.5 198 q-63.5 66 -203.5 66 ZM575 47 q187 0 275 75 q88 75 88 222 q0 142 -82 215.5 q-82 73.5 -262 73.5 l-152 0 l0 -416 q0 -74 10.5 -109 q10.5 -35 38 -48 q27.5 -13 84.5 -13 Z" /><glyph glyph-name="c" unicode="c" d="M721 1274 q69 0 124.5 -17.5 q55.5 -17.5 98 -45.5 q42.5 -28 92.5 -70 q25 -20 40 -20 q42 0 52 124 l48 0 q-9 -118 -9 -430 l-47 0 q-20 107 -40.5 157.5 q-20.5 50.5 -61.5 104.5 q-58 76 -137.5 116 q-79.5 40 -167.5 40 q-120 0 -210 -74 q-90 -74 -139 -213 q-49 -139 -49 -328 q0 -192 54.5 -328.5 q54.5 -136.5 148 -207 q93.5 -70.5 209.5 -70.5 q91 0 174 40 q83 40 139 116 q40 53 59.5 112.5 q19.5 59.5 35.5 170.5 l47 0 q0 -323 8 -451 l-47 0 q-10 124 -51 124 q-16 0 -41 -20 q-78 -65 -152.5 -99 q-74.5 -34 -179.5 -34 q-183 0 -320 75.5 q-137 75.5 -212.5 219.5 q-75.5 144 -75.5 344 q0 196 78 347 q78 151 216.5 234 q138.5 83 315.5 83 Z" /><glyph glyph-name="ccedilla" unicode="ç" d="M1182 451 q0 -323 8 -451 l-47 0 q-10 124 -51 124 q-16 0 -41 -20 q-76 -62 -146 -96 q-70 -34 -168 -37 l-41 -118 q61 14 121 14 q58 0 91.5 -25.5 q33.5 -25.5 33.5 -70.5 q0 -54 -35.5 -89 q-35.5 -35 -88.5 -51 q-53 -16 -107 -16 q-105 0 -170 23 l8 36 q42 -6 78 -6 q74 0 129 21.5 q55 21.5 55 70.5 q0 58 -86 58 q-58 0 -100 -15 l56 169 q-172 8 -301 85 q-129 77 -199 218.5 q-70 141.5 -70 334.5 q0 196 78 347 q78 151 216.5 234 q138.5 83 315.5 83 q69 0 124.5 -17.5 q55.5 -17.5 98 -45.5 q42.5 -28 92.5 -70 q25 -20 40 -20 q42 0 52 124 l48 0 q-9 -118 -9 -430 l-47 0 q-20 107 -40.5 157.5 q-20.5 50.5 -61.5 104.5 q-58 76 -137.5 116 q-79.5 40 -167.5 40 q-120 0 -210 -74 q-90 -74 -139 -213 q-49 -139 -49 -328 q0 -192 54.5 -328.5 q54.5 -136.5 148 -207 q93.5 -70.5 209.5 -70.5 q91 0 174 40 q83 40 139 116 q40 53 59.5 112.5 q19.5 59.5 35.5 170.5 l47 0 Z" /><glyph glyph-name="d" unicode="d" d="M645 1245 q320 0 480.5 -154.5 q160.5 -154.5 160.5 -451.5 q0 -193 -77.5 -337 q-77.5 -144 -225.5 -223 q-148 -79 -356 -79 q-48 0 -120 3 q-171 3 -167 3 q-168 0 -254 -6 l0 41 q74 3 107.5 16 q33.5 13 46 48 q12.5 35 12.5 112 l0 811 q0 78 -12.5 113 q-12.5 35 -45.5 47.5 q-33 12.5 -108 15.5 l0 41 q110 -7 200 -7 l50 1 l84 2 q160 4 225 4 ZM594 1208 q-64 0 -96 -14.5 q-32 -14.5 -44 -51 q-12 -36.5 -12 -110.5 l0 -819 q0 -74 12 -110.5 q12 -36.5 44.5 -51 q32.5 -14.5 97.5 -14.5 q186 0 292.5 67 q106.5 67 149.5 195.5 q43 128.5 43 331.5 q0 199 -46.5 325 q-46.5 126 -153.5 189 q-107 63 -287 63 Z" /><glyph glyph-name="eth" unicode="ð" d="M647 1245 q320 0 480.5 -154.5 q160.5 -154.5 160.5 -451.5 q0 -193 -77.5 -337 q-77.5 -144 -225.5 -223 q-148 -79 -356 -79 q-48 0 -120 3 q-171 3 -167 3 q-168 0 -254 -6 l0 41 q74 3 107.5 16 q33.5 13 46 48 q12.5 35 12.5 112 l0 389 l-166 0 l0 41 l166 0 l0 381 q0 78 -12.5 113 q-12.5 35 -45.5 47.5 q-33 12.5 -108 15.5 l0 41 q110 -7 200 -7 l50 1 l84 2 q160 4 225 4 ZM598 37 q186 0 292.5 67 q106.5 67 149.5 195.5 q43 128.5 43 331.5 q0 199 -46.5 325 q-46.5 126 -153.5 189 q-107 63 -287 63 q-64 0 -96 -14.5 q-32 -14.5 -44 -51 q-12 -36.5 -12 -110.5 l0 -385 l283 0 l0 -41 l-283 0 l0 -393 q0 -74 12 -110.5 q12 -36.5 44.5 -51 q32.5 -14.5 97.5 -14.5 Z" /><glyph glyph-name="dcroat" unicode="&#x111;" d="M647 1245 q320 0 480.5 -154.5 q160.5 -154.5 160.5 -451.5 q0 -193 -77.5 -337 q-77.5 -144 -225.5 -223 q-148 -79 -356 -79 q-48 0 -120 3 q-171 3 -167 3 q-168 0 -254 -6 l0 41 q74 3 107.5 16 q33.5 13 46 48 q12.5 35 12.5 112 l0 389 l-166 0 l0 41 l166 0 l0 381 q0 78 -12.5 113 q-12.5 35 -45.5 47.5 q-33 12.5 -108 15.5 l0 41 q110 -7 200 -7 l50 1 l84 2 q160 4 225 4 ZM598 37 q186 0 292.5 67 q106.5 67 149.5 195.5 q43 128.5 43 331.5 q0 199 -46.5 325 q-46.5 126 -153.5 189 q-107 63 -287 63 q-64 0 -96 -14.5 q-32 -14.5 -44 -51 q-12 -36.5 -12 -110.5 l0 -385 l283 0 l0 -41 l-283 0 l0 -393 q0 -74 12 -110.5 q12 -36.5 44.5 -51 q32.5 -14.5 97.5 -14.5 Z" /><glyph glyph-name="e" unicode="e" d="M1094 242 q0 -108 14 -242 q-133 6 -449 6 q-378 0 -573 -6 l0 41 q74 3 107.5 16 q33.5 13 46 48 q12.5 35 12.5 112 l0 811 q0 77 -12.5 112 q-12.5 35 -46 48 q-33.5 13 -107.5 16 l0 41 q195 -6 573 -6 q287 0 408 6 q-14 -123 -14 -221 q0 -80 6 -127 l-47 0 q-11 114 -38.5 179 q-27.5 65 -79 93.5 q-51.5 28.5 -136.5 28.5 l-150 0 q-74 0 -107.5 -11.5 q-33.5 -11.5 -46 -46.5 q-12.5 -35 -12.5 -112 l0 -381 l170 0 q65 0 100.5 33.5 q35.5 33.5 47.5 74 q12 40.5 22 101.5 l47 0 q-7 -80 -7 -152 l1 -77 q0 -82 13 -230 l-48 0 q-8 63 -22.5 107 q-14.5 44 -51 73 q-36.5 29 -102.5 29 l-170 0 l0 -389 q0 -77 12.5 -111.5 q12.5 -34.5 46 -46.5 q33.5 -12 107.5 -12 l150 0 q101 0 161 32.5 q60 32.5 91 106 q31 73.5 43 203.5 l47 0 q-6 -55 -6 -147 Z" /><glyph glyph-name="eogonek" unicode="&#x119;" d="M1140 -246 q-91 -139 -231 -139 q-73 0 -117.5 36.5 q-44.5 36.5 -44.5 96.5 q0 78 71.5 144.5 q71.5 66.5 202.5 110.5 q-119 3 -362 3 q-378 0 -573 -6 l0 41 q74 3 107.5 16 q33.5 13 46 48 q12.5 35 12.5 112 l0 811 q0 77 -12.5 112 q-12.5 35 -46 48 q-33.5 13 -107.5 16 l0 41 q195 -6 573 -6 q287 0 408 6 q-14 -123 -14 -221 q0 -81 6 -127 l-47 0 q-11 114 -38.5 179 q-27.5 65 -79 93.5 q-51.5 28.5 -136.5 28.5 l-150 0 q-74 0 -107.5 -11.5 q-33.5 -11.5 -46 -46.5 q-12.5 -35 -12.5 -112 l0 -381 l170 0 q65 0 100.5 33.5 q35.5 33.5 47.5 74 q12 40.5 22 101.5 l47 0 q-7 -81 -7 -152 l1 -77 q0 -82 13 -230 l-48 0 q-8 63 -22.5 107 q-14.5 44 -51 73 q-36.5 29 -102.5 29 l-170 0 l0 -389 q0 -77 12.5 -111.5 q12.5 -34.5 46 -46.5 q33.5 -12 107.5 -12 l150 0 q101 0 161 32.5 q60 32.5 91 106 q31 73.5 43 203.5 l47 0 q-6 -56 -6 -147 q0 -100 13 -236 q1 -2 1 -6 l-18 1 q-102 -31 -147.5 -85.5 q-45.5 -54.5 -45.5 -112.5 q0 -41 23.5 -65.5 q23.5 -24.5 64.5 -24.5 q37 0 70.5 19.5 q33.5 19.5 54.5 48.5 l30 -27 Z" /><glyph glyph-name="f" unicode="f" d="M1067 1245 q-14 -123 -14 -221 q0 -80 6 -127 l-47 0 q-11 114 -38.5 179 q-27.5 65 -79 93.5 q-51.5 28.5 -136.5 28.5 l-150 0 q-74 0 -107.5 -11.5 q-33.5 -11.5 -46 -46.5 q-12.5 -35 -12.5 -112 l0 -381 l170 0 q65 0 100.5 33.5 q35.5 33.5 47.5 74 q12 40.5 22 101.5 l47 0 q-7 -80 -7 -152 l1 -77 q0 -82 13 -230 l-48 0 q-8 63 -22.5 107 q-14.5 44 -51 73 q-36.5 29 -102.5 29 l-170 0 l0 -389 q0 -77 16 -112 q16 -35 58 -48 q42 -13 133 -16 l0 -41 q-106 6 -301 6 q-176 0 -262 -6 l0 41 q74 3 107.5 16 q33.5 13 46 48 q12.5 35 12.5 112 l0 811 q0 77 -12.5 112 q-12.5 35 -46 48 q-33.5 13 -107.5 16 l0 41 q195 -6 573 -6 q287 0 408 6 Z" /><glyph glyph-name="g" unicode="g" d="M721 1274 q80 0 139 -17.5 q59 -17.5 101 -44.5 q42 -27 96 -71 q25 -20 41 -20 q40 0 51 124 l47 0 q-8 -117 -8 -409 l-47 0 q-17 78 -40 137 q-23 59 -63 104 q-68 78 -142 119 q-74 41 -179 41 q-123 0 -213.5 -75 q-90.5 -75 -139.5 -214 q-49 -139 -49 -327 q0 -314 115 -461.5 q115 -147.5 342 -147.5 q92 0 158 17 q36 9 49.5 26.5 q13.5 17.5 13.5 50.5 l0 177 q0 85 -16 124.5 q-16 39.5 -58 54 q-42 14.5 -133 17.5 l0 41 q111 -6 289 -6 q139 0 213 6 l0 -41 q-47 -3 -68 -15.5 q-21 -12.5 -28.5 -47.5 q-7.5 -35 -7.5 -113 l0 -303 l-41 0 q-3 49 -31 49 q-14 0 -48 -15 q-34 -15 -42 -18 q-132 -45 -268 -45 q-204 0 -348.5 74 q-144.5 74 -219.5 215 q-75 141 -75 338 q0 204 77.5 357.5 q77.5 153.5 216 236 q138.5 82.5 316.5 82.5 Z" /><glyph glyph-name="h" unicode="h" d="M1423 1204 q-74 -3 -107.5 -16 q-33.5 -13 -46 -48 q-12.5 -35 -12.5 -112 l0 -811 q0 -77 12.5 -112 q12.5 -35 46 -48 q33.5 -13 107.5 -16 l0 -41 q-85 6 -262 6 q-164 0 -260 -6 l0 41 q74 3 107.5 16 q33.5 13 46 48 q12.5 35 12.5 112 l0 408 l-625 0 l0 -408 q0 -77 12.5 -112 q12.5 -35 46 -48 q33.5 -13 107.5 -16 l0 -41 q-94 6 -260 6 q-176 0 -262 -6 l0 41 q74 3 107.5 16 q33.5 13 46 48 q12.5 35 12.5 112 l0 811 q0 77 -12.5 112 q-12.5 35 -46 48 q-33.5 13 -107.5 16 l0 41 q85 -6 262 -6 q166 0 260 6 l0 -41 q-74 -3 -107.5 -16 q-33.5 -13 -46 -48 q-12.5 -35 -12.5 -112 l0 -362 l625 0 l0 362 q0 77 -12.5 112 q-12.5 35 -46 48 q-33.5 13 -107.5 16 l0 41 q96 -6 260 -6 q177 0 262 6 l0 -41 Z" /><glyph glyph-name="hbar" unicode="&#x127;" d="M1423 1204 q-74 -3 -107.5 -16 q-33.5 -13 -46 -48 q-12.5 -35 -12.5 -112 l0 -80 l166 0 l0 -41 l-166 0 l0 -690 q0 -77 12.5 -112 q12.5 -35 46 -48 q33.5 -13 107.5 -16 l0 -41 q-85 6 -262 6 q-164 0 -260 -6 l0 41 q74 3 107.5 16 q33.5 13 46 48 q12.5 35 12.5 112 l0 408 l-625 0 l0 -408 q0 -77 12.5 -112 q12.5 -35 46 -48 q33.5 -13 107.5 -16 l0 -41 q-94 6 -260 6 q-176 0 -262 -6 l0 41 q74 3 107.5 16 q33.5 13 46 48 q12.5 35 12.5 112 l0 690 l-166 0 l0 41 l166 0 l0 80 q0 77 -12.5 112 q-12.5 35 -46 48 q-33.5 13 -107.5 16 l0 41 q85 -6 262 -6 q166 0 260 6 l0 -41 q-74 -3 -107.5 -16 q-33.5 -13 -46 -48 q-12.5 -35 -12.5 -112 l0 -80 l625 0 l0 80 q0 77 -12.5 112 q-12.5 35 -46 48 q-33.5 13 -107.5 16 l0 41 q96 -6 260 -6 q177 0 262 6 l0 -41 ZM442 907 l0 -241 l625 0 l0 241 l-625 0 Z" /><glyph glyph-name="i" unicode="i" d="M608 1204 q-74 -3 -107.5 -16 q-33.5 -13 -46 -48 q-12.5 -35 -12.5 -112 l0 -811 q0 -77 12.5 -112 q12.5 -35 46 -48 q33.5 -13 107.5 -16 l0 -41 q-94 6 -260 6 q-176 0 -262 -6 l0 41 q74 3 107.5 16 q33.5 13 46 48 q12.5 35 12.5 112 l0 811 q0 77 -12.5 112 q-12.5 35 -46 48 q-33.5 13 -107.5 16 l0 41 q85 -6 262 -6 q166 0 260 6 l0 -41 Z" /><glyph glyph-name="dotlessi" unicode="&#x131;" d="M399 190 q0 -57 15.5 -89 q15.5 -32 49 -45 q33.5 -13 91.5 -13 l0 -43 l-31 1 q-126 7 -217 7 q-91 0 -217 -7 l-31 -1 l0 43 q58 0 91.5 13 q33.5 13 49 45 q15.5 32 15.5 89 l0 641 q0 95 -34.5 138 q-34.5 43 -121.5 43 l0 43 q64 -6 127 -6 q130 0 213 28 l0 -887 Z" /><glyph glyph-name="iogonek" unicode="&#x12f;" d="M640 -246 q-91 -139 -231 -139 q-73 0 -117.5 36.5 q-44.5 36.5 -44.5 96.5 q0 79 71.5 145.5 q71.5 66.5 204.5 110.5 q-108 2 -175 2 q-177 0 -262 -6 l0 41 q74 3 107.5 16 q33.5 13 46 48 q12.5 35 12.5 112 l0 811 q0 77 -12.5 112 q-12.5 35 -46 48 q-33.5 13 -107.5 16 l0 41 q85 -6 262 -6 q165 0 260 6 l0 -41 q-74 -3 -107.5 -16 q-33.5 -13 -46 -48 q-12.5 -35 -12.5 -112 l0 -811 q0 -77 12.5 -112 q12.5 -35 46 -48 q33.5 -13 107.5 -16 l0 -41 l-18 1 q-102 -31 -147.5 -85.5 q-45.5 -54.5 -45.5 -112.5 q0 -41 23.5 -65.5 q23.5 -24.5 64.5 -24.5 q37 0 70.5 19.5 q33.5 19.5 54.5 48.5 l30 -27 Z" /><glyph glyph-name="j" unicode="j" d="M592 1204 q-74 -3 -107.5 -16 q-33.5 -13 -46 -48 q-12.5 -35 -12.5 -112 l0 -545 q0 -379 -35 -534 q-34 -149 -134.5 -239.5 q-100.5 -90.5 -256.5 -90.5 q-86 0 -137 33 q-56 34 -56 98 q0 41 28.5 69.5 q28.5 28.5 70.5 28.5 q40 0 70 -28.5 q30 -28.5 30 -69.5 q0 -26 -15 -51 q-15 -25 -38 -39 q24 -4 55 -4 q140 0 193 172 q20 66 27.5 163.5 q7.5 97.5 7.5 305.5 l0 731 q0 77 -12.5 112 q-12.5 35 -46 48 q-33.5 13 -107.5 16 l0 41 q85 -6 262 -6 q164 0 260 6 l0 -41 Z" /><glyph glyph-name="dotlessj" unicode="&#x237;" d="M385 236 q0 -167 -22.5 -291.5 q-22.5 -124.5 -86.5 -204.5 q-47 -61 -113.5 -93 q-66.5 -32 -133.5 -32 q-72 0 -115 31 q-45 34 -45 94 q0 47 29.5 76.5 q29.5 29.5 76.5 29.5 q49 0 78 -25 q29 -25 29 -75 q0 -70 -78 -98 q12 -2 35 -2 q71 0 115 47 q47 59 47 174 l0 964 q0 95 -34.5 138 q-34.5 43 -121.5 43 l0 43 q64 -6 127 -6 q130 0 213 28 l0 -841 Z" /><glyph glyph-name="k" unicode="k" d="M1159 166 q71 -90 160 -125 l0 -41 q-99 6 -229 6 q-140 0 -261 -6 l0 41 q67 2 95 11.5 q28 9.5 28 28.5 q0 18 -26 52 l-273 379 q-43 59 -87 83.5 q-44 24.5 -124 27.5 l0 -406 q0 -77 12.5 -112 q12.5 -35 46 -48 q33.5 -13 107.5 -16 l0 -41 q-94 6 -260 6 q-176 0 -262 -6 l0 41 q74 3 107.5 16 q33.5 13 46 48 q12.5 35 12.5 112 l0 811 q0 77 -12.5 112 q-12.5 35 -46 48 q-33.5 13 -107.5 16 l0 41 q85 -6 262 -6 q166 0 260 6 l0 -41 q-74 -3 -107.5 -16 q-33.5 -13 -46 -48 q-12.5 -35 -12.5 -112 l0 -371 q73 5 135 34 q62 29 140 104 l244 249 q53 50 53 92 q0 31 -30.5 50 q-30.5 19 -90.5 20 l0 39 q111 -6 242 -6 q87 0 145 6 l0 -39 q-50 -9 -86 -24 q-36 -15 -72.5 -43 q-36.5 -28 -91.5 -80 l-323 -323 l452 -570 Z" /><glyph glyph-name="kgreenlandic" unicode="&#x138;" d="M985 156 q46 -51 79.5 -79.5 q33.5 -28.5 65.5 -33.5 l0 -43 q-120 8 -165 8 q-84 0 -201 -7 l-27 -1 l0 43 q30 0 47.5 11 q17.5 11 17.5 29 q0 16 -14 30 l-274 303 q-33 41 -60 61 q-27 20 -55 23 l0 -310 q0 -57 13.5 -89 q13.5 -32 42.5 -45 q29 -13 80 -13 l0 -43 l-27 1 q-117 7 -201 7 q-91 0 -217 -7 l-31 -1 l0 43 q58 0 91.5 13 q33.5 13 49 45 q15.5 32 15.5 89 l0 641 q0 95 -34.5 138 q-34.5 43 -121.5 43 l0 43 q64 -6 127 -6 q130 0 213 28 l0 -535 q53 9 87 30 q34 21 73 61 l244 268 q29 32 29 58 q0 26 -28 40.5 q-28 14.5 -81 14.5 l0 41 q108 -6 211 -6 q84 0 137 6 l0 -41 q-57 -5 -96.5 -23.5 q-39.5 -18.5 -87.5 -72.5 l-299 -328 l397 -434 Z" /><glyph glyph-name="l" unicode="l" d="M608 1204 q-74 -3 -107.5 -16 q-33.5 -13 -46 -48 q-12.5 -35 -12.5 -112 l0 -811 q0 -77 12.5 -111.5 q12.5 -34.5 46 -46.5 q33.5 -12 107.5 -12 l129 0 q142 0 220.5 83.5 q78.5 83.5 95.5 279.5 l47 0 q-6 -64 -6 -168 q0 -108 14 -242 q-133 6 -449 6 q-378 0 -573 -6 l0 41 q74 3 107.5 16 q33.5 13 46 48 q12.5 35 12.5 112 l0 811 q0 77 -12.5 112 q-12.5 35 -46 48 q-33.5 13 -107.5 16 l0 41 q85 -6 262 -6 q166 0 260 6 l0 -41 Z" /><glyph glyph-name="lslash" unicode="&#x142;" d="M1096 242 q0 -108 14 -242 q-133 6 -449 6 q-378 0 -573 -6 l0 41 q74 3 107.5 16 q33.5 13 46 48 q12.5 35 12.5 112 l0 225 l-166 -94 l0 47 l166 94 l0 539 q0 77 -12.5 112 q-12.5 35 -46 48 q-33.5 13 -107.5 16 l0 41 q85 -6 262 -6 q166 0 260 6 l0 -41 q-74 -3 -107.5 -16 q-33.5 -13 -46 -48 q-12.5 -35 -12.5 -112 l0 -452 l404 229 l0 -47 l-404 -229 l0 -312 q0 -77 12.5 -111.5 q12.5 -34.5 46 -46.5 q33.5 -12 107.5 -12 l129 0 q142 0 220.5 83.5 q78.5 83.5 95.5 279.5 l47 0 q-6 -64 -6 -168 Z" /><glyph glyph-name="m" unicode="m" d="M1657 1204 q-74 -3 -107.5 -16 q-33.5 -13 -46 -48 q-12.5 -35 -12.5 -112 l0 -811 q0 -77 12.5 -112 q12.5 -35 46 -48 q33.5 -13 107.5 -16 l0 -41 q-96 6 -260 6 q-176 0 -262 -6 l0 41 q74 3 107 16 q33 13 45.5 48 q12.5 35 12.5 112 l0 899 l-493 -1126 l-33 0 l-475 1124 l0 -876 q0 -79 14 -119 q14 -40 52.5 -57.5 q38.5 -17.5 119.5 -20.5 l0 -41 q-73 6 -209 6 q-122 0 -190 -6 l0 41 q71 3 105.5 20.5 q34.5 17.5 47.5 57.5 q13 40 13 119 l0 790 q0 77 -12.5 112 q-12.5 35 -46 48 q-33.5 13 -107.5 16 l0 41 q67 -6 190 -6 q97 0 175 6 l410 -998 l439 992 l97 0 q164 0 260 6 l0 -41 Z" /><glyph glyph-name="n" unicode="n" d="M1331 1204 q-71 -3 -105.5 -20.5 q-34.5 -17.5 -47.5 -57.5 q-13 -40 -13 -118 l0 -1018 l-47 0 l-819 1134 l0 -886 q0 -79 14 -119 q14 -40 52.5 -57.5 q38.5 -17.5 119.5 -20.5 l0 -41 q-73 6 -209 6 q-122 0 -190 -6 l0 41 q71 3 105.5 20.5 q34.5 17.5 47.5 57.5 q13 40 13 119 l0 790 q0 77 -12.5 112 q-12.5 35 -46 48 q-33.5 13 -107.5 16 l0 41 q67 -6 190 -6 q113 0 189 6 l653 -909 l0 672 q0 79 -13.5 118.5 q-13.5 39.5 -52.5 57 q-39 17.5 -120 20.5 l0 41 q73 -6 209 -6 q123 0 190 6 l0 -41 Z" /><glyph glyph-name="eng" unicode="&#x14b;" d="M1141 1239 q123 0 190 6 l0 -41 q-74 -3 -107.5 -16 q-33.5 -13 -46 -48 q-12.5 -35 -12.5 -112 l0 -842 q0 -224 -37.5 -350 q-37.5 -126 -101 -173.5 q-63.5 -47.5 -152.5 -47.5 q-79 0 -131.5 31 q-52.5 31 -52.5 96 q0 46 27.5 74 q27.5 28 68.5 28 q42 0 72.5 -28 q30.5 -28 30.5 -68 q0 -27 -15 -53.5 q-15 -26.5 -38 -40.5 q24 -4 47 -4 q204 0 231 345 l-815 1129 l0 -907 q0 -77 12.5 -112 q12.5 -35 46 -48 q33.5 -13 107.5 -16 l0 -41 q-74 6 -189 6 q-122 0 -190 -6 l0 41 q74 3 107.5 16 q33.5 13 46 48 q12.5 35 12.5 112 l0 811 q0 77 -12.5 112 q-12.5 35 -46 48 q-33.5 13 -107.5 16 l0 41 q67 -6 190 -6 q113 0 189 6 l653 -909 l0 692 q0 77 -12.5 112 q-12.5 35 -46 48 q-33.5 13 -107.5 16 l0 41 q73 -6 189 -6 Z" /><glyph glyph-name="o" unicode="o" d="M739 1274 q189 0 331 -75.5 q142 -75.5 220 -219.5 q78 -144 78 -344 q0 -196 -80.5 -346.5 q-80.5 -150.5 -224 -234 q-143.5 -83.5 -326.5 -83.5 q-189 0 -330.5 75.5 q-141.5 75.5 -219.5 219.5 q-78 144 -78 344 q0 196 80.5 347 q80.5 151 223.5 234 q143 83 326 83 ZM731 1237 q-125 0 -220 -78.5 q-95 -78.5 -146.5 -219 q-51.5 -140.5 -51.5 -321.5 q0 -182 57.5 -321 q57.5 -139 156 -214 q98.5 -75 218.5 -75 q125 0 220 78.5 q95 78.5 146.5 219 q51.5 140.5 51.5 321.5 q0 182 -57.5 321 q-57.5 139 -156 214 q-98.5 75 -218.5 75 Z" /><glyph glyph-name="oslash" unicode="ø" d="M1138 1155 q111 -82 170.5 -214 q59.5 -132 59.5 -306 q0 -196 -80.5 -346.5 q-80.5 -150.5 -224 -234 q-143.5 -83.5 -326.5 -83.5 q-199 0 -344 83 l-135 -201 l-45 28 l136 200 q-115 82 -177.5 216 q-62.5 134 -62.5 313 q0 196 80.5 347 q80.5 151 223.5 234 q143 83 326 83 q211 0 359 -92 l145 211 l39 -27 l-144 -211 ZM731 1237 q-125 0 -220 -78.5 q-95 -78.5 -146.5 -219 q-51.5 -140.5 -51.5 -321.5 q0 -264 117 -432 l595 902 q-58 72 -133.5 110.5 q-75.5 38.5 -160.5 38.5 ZM745 8 q125 0 220 78.5 q95 78.5 146.5 219 q51.5 140.5 51.5 321.5 q0 251 -108 419 l-592 -903 q57 -66 129 -100.5 q72 -34.5 153 -34.5 Z" /><glyph glyph-name="oe" unicode="&#x153;" d="M1788 242 q0 -108 14 -242 q-127 6 -428 6 q-287 0 -448 -4 q-84 -31 -168 -31 q-195 0 -341.5 75.5 q-146.5 75.5 -227 219.5 q-80.5 144 -80.5 344 q0 196 83 347 q83 151 231 234 q148 83 337 83 q99 0 180 -31 q164 -4 434 -4 q273 0 387 6 q-14 -123 -14 -221 q0 -80 6 -127 l-47 0 q-10 114 -37.5 179 q-27.5 65 -79.5 93.5 q-52 28.5 -137 28.5 l-88 0 q-74 0 -107.5 -11.5 q-33.5 -11.5 -46 -46.5 q-12.5 -35 -12.5 -112 l0 -381 l109 0 q64 0 99.5 33.5 q35.5 33.5 47.5 73 q12 39.5 23 102.5 l47 0 q-7 -76 -7 -146 l1 -83 q0 -80 12 -230 l-47 0 q-8 64 -22.5 107.5 q-14.5 43.5 -51 72.5 q-36.5 29 -102.5 29 l-109 0 l0 -389 q0 -77 12.5 -111.5 q12.5 -34.5 46 -46.5 q33.5 -12 107.5 -12 l88 0 q102 0 161.5 32.5 q59.5 32.5 90.5 105.5 q31 73 43 204 l47 0 q-6 -55 -6 -147 ZM1008 1028 q0 106 -71.5 157.5 q-71.5 51.5 -184.5 51.5 q-131 0 -231 -78.5 q-100 -78.5 -154 -219 q-54 -140.5 -54 -321.5 q0 -182 60 -321 q60 -139 163.5 -214 q103.5 -75 229.5 -75 q57 0 113 22.5 q56 22.5 92.5 69.5 q36.5 47 36.5 117 l0 811 Z" /><glyph glyph-name="p" unicode="p" d="M442 217 q0 -77 12.5 -112 q12.5 -35 46 -48 q33.5 -13 107.5 -16 l0 -41 q-94 6 -260 6 q-176 0 -262 -6 l0 41 q74 3 107.5 16 q33.5 13 46 48 q12.5 35 12.5 112 l0 811 q0 77 -12.5 112 q-12.5 35 -46 48 q-33.5 13 -107.5 16 l0 41 q85 -6 250 -6 q36 0 222 3 l87 1 q147 0 249 -43 q102 -43 153 -120 q51 -77 51 -179 q0 -98 -48 -188 q-48 -90 -164 -149.5 q-116 -59.5 -306 -59.5 l-138 0 l0 -287 ZM594 1204 q-64 0 -96 -14.5 q-32 -14.5 -44 -51.5 q-12 -37 -12 -110 l0 -483 l117 0 q190 0 262 89.5 q72 89.5 72 244.5 q0 166 -69.5 245.5 q-69.5 79.5 -229.5 79.5 Z" /><glyph glyph-name="thorn" unicode="þ" d="M442 217 q0 -77 12.5 -112 q12.5 -35 46 -48 q33.5 -13 107.5 -16 l0 -41 q-95 6 -260 6 q-177 0 -262 -6 l0 41 q74 3 107.5 16 q33.5 13 46 48 q12.5 35 12.5 112 l0 811 q0 77 -12.5 112 q-12.5 35 -46 48 q-33.5 13 -107.5 16 l0 41 q85 -6 262 -6 q165 0 260 6 l0 -41 q-74 -3 -107.5 -16 q-33.5 -13 -46 -48 q-12.5 -35 -12.5 -112 l0 -28 q36 0 67.5 1 q31.5 1 58.5 1 l87 2 q147 0 249 -43 q102 -43 153 -120.5 q51 -77.5 51 -178.5 q0 -99 -48 -189 q-48 -90 -164 -149.5 q-116 -59.5 -306 -59.5 l-148 0 l0 -47 ZM604 965 q-78 0 -162 -2 l0 -658 l127 0 q178 0 256 92.5 q78 92.5 78 241.5 q0 326 -299 326 Z" /><glyph glyph-name="q" unicode="q" d="M1628 -59 q-43 -162 -147.5 -244 q-104.5 -82 -278.5 -82 q-76 0 -157.5 18.5 q-81.5 18.5 -155.5 45 q-74 26.5 -184 70.5 q-185 75 -273 97 q-88 -30 -170 -30 q-94 0 -94 41 q0 43 111 43 q74 0 153 -17 q59 16 149 57 q57 26 82 34 q-168 15 -292.5 94 q-124.5 79 -192 217 q-67.5 138 -67.5 325 q0 196 80.5 347 q80.5 151 223.5 234 q143 83 326 83 q189 0 331 -75.5 q142 -75.5 220 -219.5 q78 -144 78 -344 q0 -183 -71 -327.5 q-71 -144.5 -198.5 -231.5 q-127.5 -87 -293.5 -102 l0 -1 q-50 -5 -88.5 -18 q-38.5 -13 -91.5 -36 q-72 -31 -123 -46 q34 -6 52 -10 q198 -37 308 -53 q212 -35 330 -35 q161 0 256 42.5 q95 42.5 147 135.5 l31 -12 ZM315 618 q0 -182 57.5 -321 q57.5 -139 156 -214 q98.5 -75 218.5 -75 q125 0 220 78.5 q95 78.5 146.5 219 q51.5 140.5 51.5 321.5 q0 182 -57.5 321 q-57.5 139 -156 214 q-98.5 75 -218.5 75 q-125 0 -220 -78.5 q-95 -78.5 -146.5 -219 q-51.5 -140.5 -51.5 -321.5 Z" /><glyph glyph-name="r" unicode="r" d="M1294 86 q-39 -56 -88.5 -85.5 q-49.5 -29.5 -120.5 -29.5 q-170 0 -211 156 l-63 256 q-19 78 -51.5 119.5 q-32.5 41.5 -79.5 57 q-47 15.5 -121 15.5 l-117 0 l0 -358 q0 -77 12.5 -112 q12.5 -35 46 -48 q33.5 -13 107.5 -16 l0 -41 q-95 6 -260 6 q-177 0 -262 -6 l0 41 q74 3 107.5 16 q33.5 13 46 48 q12.5 35 12.5 112 l0 811 q0 78 -12.5 113 q-12.5 35 -45.5 47.5 q-33 12.5 -108 15.5 l0 41 q85 -6 250 -6 q35 0 209 3 l80 1 q153 0 259.5 -40 q106.5 -40 160 -109.5 q53.5 -69.5 53.5 -159.5 q0 -75 -38 -145.5 q-38 -70.5 -129.5 -125 q-91.5 -54.5 -240.5 -72.5 q35 -1 70 -7 q109 -17 172.5 -66 q63.5 -49 89.5 -158 l45 -186 q17 -72 36 -101.5 q19 -29.5 50 -29.5 q51 0 113 70 l28 -27 ZM573 1204 q-55 0 -82.5 -14.5 q-27.5 -14.5 -38 -51.5 q-10.5 -37 -10.5 -110 l0 -412 l138 0 q123 0 192 37.5 q69 37.5 95 102 q26 64.5 26 155.5 q0 148 -74.5 220.5 q-74.5 72.5 -245.5 72.5 Z" /><glyph glyph-name="s" unicode="s" d="M524 1274 q63 0 108.5 -10.5 q45.5 -10.5 75.5 -26 q30 -15.5 66 -39.5 q48 -29 70 -29 q19 0 29 22 q10 22 16 69 l47 0 q-10 -107 -10 -377 l-47 0 q-8 94 -45.5 173.5 q-37.5 79.5 -110 129 q-72.5 49.5 -180.5 49.5 q-72 0 -129 -26.5 q-57 -26.5 -89 -72.5 q-32 -46 -32 -104 q0 -64 32 -110.5 q32 -46.5 82 -80 q50 -33.5 143 -84.5 q45 -23 66 -36 q127 -67 204.5 -121 q77.5 -54 124 -122.5 q46.5 -68.5 46.5 -158.5 q0 -112 -56 -190.5 q-56 -78.5 -151.5 -118 q-95.5 -39.5 -212.5 -39.5 q-98 0 -161 20.5 q-63 20.5 -119 55.5 q-46 29 -70 29 q-19 0 -29 -21.5 q-10 -21.5 -16 -68.5 l-47 0 q8 100 8 450 l47 0 q14 -190 102 -307 q88 -117 271 -117 q65 0 122.5 25 q57.5 25 93.5 77 q36 52 36 130 q0 68 -39.5 120 q-39.5 52 -104.5 93.5 q-65 41.5 -182 101.5 q-109 56 -181.5 107.5 q-72.5 51.5 -117.5 122.5 q-45 71 -45 165 q0 102 53 174.5 q53 72.5 140.5 109 q87.5 36.5 191.5 36.5 Z" /><glyph glyph-name="scedilla" unicode="&#x15f;" d="M530 -147 q61 14 121 14 q58 0 91.5 -25.5 q33.5 -25.5 33.5 -70.5 q0 -54 -35.5 -89 q-35.5 -35 -88.5 -51 q-53 -16 -107 -16 q-105 0 -170 23 l8 36 q42 -6 78 -6 q74 0 129 21.5 q55 21.5 55 70.5 q0 58 -86 58 q-58 0 -100 -15 l57 170 q-74 6 -126 25 q-52 19 -99 49 q-46 29 -70 29 q-19 0 -29 -21.5 q-10 -21.5 -16 -68.5 l-47 0 q8 100 8 450 l47 0 q14 -190 102 -307 q88 -117 271 -117 q65 0 122.5 25 q57.5 25 93.5 77 q36 52 36 130 q0 68 -39.5 120 q-39.5 52 -104.5 93.5 q-65 41.5 -182 101.5 q-109 56 -181.5 107.5 q-72.5 51.5 -117.5 122.5 q-45 71 -45 165 q0 102 53 174.5 q53 72.5 140.5 109 q87.5 36.5 191.5 36.5 q63 0 108.5 -10.5 q45.5 -10.5 75.5 -26 q30 -15.5 66 -39.5 q48 -29 70 -29 q19 0 29 22 q10 22 16 69 l47 0 q-10 -107 -10 -377 l-47 0 q-8 94 -45.5 173.5 q-37.5 79.5 -110 129 q-72.5 49.5 -180.5 49.5 q-72 0 -129 -26.5 q-57 -26.5 -89 -72.5 q-32 -46 -32 -104 q0 -64 32 -110.5 q32 -46.5 82 -80 q50 -33.5 143 -84.5 q45 -23 66 -36 q127 -67 204.5 -121 q77.5 -54 124 -122.5 q46.5 -68.5 46.5 -158.5 q0 -112 -56 -190.5 q-56 -78.5 -151.5 -118 q-95.5 -39.5 -212.5 -39.5 l-41 -118 Z" /><glyph glyph-name="germandbls" unicode="ß" d="M735 1274 q126 0 230.5 -36.5 q104.5 -36.5 197.5 -109.5 l-309 -407 q112 -23 203 -75.5 q91 -52.5 144.5 -131.5 q53.5 -79 53.5 -180 q0 -100 -54.5 -183 q-54.5 -83 -156 -131.5 q-101.5 -48.5 -237.5 -48.5 q-113 0 -193 37 q-100 49 -100 142 q0 47 30.5 77.5 q30.5 30.5 78.5 30.5 q49 0 80.5 -30 q31.5 -30 31.5 -81 q0 -43 -23 -69.5 q-23 -26.5 -63 -34.5 q17 -17 63 -25 q46 -8 85 -8 q81 0 138.5 46 q57.5 46 86.5 121.5 q29 75.5 29 162.5 q0 164 -102 267 q-102 103 -279 128 l321 443 q-37 29 -102 44 q-65 15 -131 15 q-164 0 -265.5 -111.5 q-101.5 -111.5 -101.5 -380.5 l0 -528 q0 -72 9 -108 q9 -36 32.5 -51.5 q23.5 -15.5 71.5 -16.5 l0 -41 q-22 0 -76 2 q-76 4 -158 4 q-150 0 -235 -6 l0 41 q74 3 107.5 16 q33.5 13 46 48 q12.5 35 12.5 112 l0 404 q0 653 534 653 Z" /><glyph glyph-name="t" unicode="t" d="M1223 1245 q-15 -131 -15 -241 q0 -106 6 -168 l-47 0 q-12 143 -38.5 218.5 q-26.5 75.5 -86 109.5 q-59.5 34 -170.5 34 l-131 0 l0 -960 q0 -85 16 -124.5 q16 -39.5 58 -54.5 q42 -15 133 -18 l0 -41 q-106 6 -301 6 q-204 0 -303 -6 l0 41 q91 3 133 18 q42 15 58 54.5 q16 39.5 16 124.5 l0 960 l-131 0 q-111 0 -170 -34 q-59 -34 -86 -110 q-27 -76 -39 -218 l-47 0 q6 65 6 168 q0 107 -14 241 q170 -6 577 -6 q406 0 576 6 Z" /><glyph glyph-name="tbar" unicode="&#x167;" d="M1225 1245 q-15 -131 -15 -241 q0 -106 6 -168 l-47 0 q-12 143 -38.5 218.5 q-26.5 75.5 -86 109.5 q-59.5 34 -170.5 34 l-131 0 l0 -551 l285 0 l0 -41 l-285 0 l0 -368 q0 -85 16 -124.5 q16 -39.5 58 -54.5 q42 -15 133 -18 l0 -41 q-106 6 -301 6 q-204 0 -303 -6 l0 41 q91 3 133 18 q42 15 58 54.5 q16 39.5 16 124.5 l0 368 l-289 0 l0 41 l289 0 l0 551 l-131 0 q-111 0 -170 -34 q-59 -34 -86 -110 q-27 -76 -39 -218 l-47 0 q6 65 6 168 q0 107 -14 241 q170 -6 577 -6 q406 0 576 6 Z" /><glyph glyph-name="tcedilla" unicode="&#x163;" d="M1223 1245 q-15 -131 -15 -241 q0 -107 6 -168 l-47 0 q-12 143 -38.5 218.5 q-26.5 75.5 -86 109.5 q-59.5 34 -170.5 34 l-131 0 l0 -960 q0 -85 16 -124.5 q16 -39.5 58 -54.5 q42 -15 133 -18 l0 -41 q-96 6 -269 6 l-53 -153 q61 14 121 14 q58 0 91.5 -25.5 q33.5 -25.5 33.5 -70.5 q0 -54 -35.5 -89 q-35.5 -35 -88.5 -51 q-53 -16 -107 -16 q-105 0 -170 23 l8 36 q42 -6 78 -6 q74 0 129 21.5 q55 21.5 55 70.5 q0 58 -86 58 q-58 0 -100 -15 l68 203 q-186 0 -279 -6 l0 41 q91 3 133 18 q42 15 58 54.5 q16 39.5 16 124.5 l0 960 l-131 0 q-111 0 -170 -34 q-59 -34 -86 -110 q-27 -76 -39 -218 l-47 0 q6 65 6 168 q0 107 -14 241 q170 -6 577 -6 q406 0 576 6 Z" /><glyph glyph-name="u" unicode="u" d="M1296 1204 q-71 -3 -105.5 -20.5 q-34.5 -17.5 -47.5 -57.5 q-13 -40 -13 -118 l0 -453 q0 -141 -19 -240.5 q-19 -99.5 -64 -173.5 q-49 -78 -143 -124 q-94 -46 -212 -46 q-210 0 -323 90 q-61 55 -93.5 116.5 q-32.5 61.5 -45.5 148 q-13 86.5 -13 223.5 l0 479 q0 77 -12.5 112 q-12.5 35 -46 48 q-33.5 13 -107.5 16 l0 41 q87 -6 262 -6 q165 0 260 6 l0 -41 q-74 -3 -107 -16 q-33 -13 -45.5 -48 q-12.5 -35 -12.5 -112 l0 -514 q0 -152 20.5 -251 q20.5 -99 87 -159.5 q66.5 -60.5 195.5 -60.5 q206 0 289 128.5 q83 128.5 83 360.5 l0 476 q0 75 -17.5 116 q-17.5 41 -57 59 q-39.5 18 -111.5 21 l0 41 q73 -6 209 -6 q123 0 190 6 l0 -41 Z" /><glyph glyph-name="uogonek" unicode="&#x173;" d="M1106 1239 q123 0 190 6 l0 -41 q-71 -3 -105.5 -20.5 q-34.5 -17.5 -47.5 -57.5 q-13 -40 -13 -118 l0 -453 q0 -141 -19 -240.5 q-19 -99.5 -64 -173.5 q-36 -56 -95 -96 q-59 -40 -136 -59 q-79 -33 -114.5 -82.5 q-35.5 -49.5 -35.5 -100.5 q0 -41 23.5 -65.5 q23.5 -24.5 64.5 -24.5 q37 0 70.5 19.5 q33.5 19.5 54.5 48.5 l30 -27 q-91 -139 -231 -139 q-73 0 -117.5 36.5 q-44.5 36.5 -44.5 96.5 q0 66 50 123 q50 57 144 100 l-18 0 q-210 0 -323 90 q-61 55 -93.5 116.5 q-32.5 61.5 -45.5 148 q-13 86.5 -13 223.5 l0 479 q0 77 -12.5 112 q-12.5 35 -46 48 q-33.5 13 -107.5 16 l0 41 q87 -6 262 -6 q165 0 260 6 l0 -41 q-74 -3 -107 -16 q-33 -13 -45.5 -48 q-12.5 -35 -12.5 -112 l0 -514 q0 -152 20.5 -251 q20.5 -99 87 -159.5 q66.5 -60.5 195.5 -60.5 q206 0 289 128.5 q83 128.5 83 360.5 l0 476 q0 75 -17.5 116 q-17.5 41 -57 59 q-39.5 18 -111.5 21 l0 41 q74 -6 209 -6 Z" /><glyph glyph-name="v" unicode="v" d="M1130 1239 q85 0 138 6 l0 -41 q-40 -10 -67.5 -32 q-27.5 -22 -51 -60.5 q-23.5 -38.5 -53.5 -107.5 l-449 -1014 l-33 0 l-479 1083 q-55 127 -141 131 l0 41 q82 -6 219 -6 q176 0 262 6 l0 -41 q-77 -3 -111.5 -19 q-34.5 -16 -34.5 -56 q0 -35 27 -97 l352 -795 l306 681 q50 112 50 175 q0 57 -40 82.5 q-40 25.5 -121 28.5 l0 41 q61 -6 227 -6 Z" /><glyph glyph-name="w" unicode="w" d="M1602 1239 q129 0 178 6 l0 -41 q-56 -12 -94.5 -58.5 q-38.5 -46.5 -71.5 -144.5 l-352 -1011 l-33 0 l-316 781 l-333 -781 l-33 0 l-418 1083 q-49 127 -141 131 l0 41 q83 -6 219 -6 q176 0 262 6 l0 -41 q-78 -3 -110 -18 q-32 -15 -32 -56 q0 -34 23 -98 l291 -793 l249 589 l-99 245 q-52 127 -142 131 l0 41 q84 -6 219 -6 q176 0 262 6 l0 -41 q-77 -3 -110 -19 q-33 -16 -33 -56 q0 -31 25 -97 l296 -779 l220 642 q39 111 39 181 q0 68 -38 96.5 q-38 28.5 -114 31.5 l0 41 q61 -6 187 -6 Z" /><glyph glyph-name="x" unicode="x" d="M1106 145 q40 -54 66 -75 q26 -21 61 -27 l0 -43 q-93 6 -166 6 q-121 0 -289 -6 l0 43 q67 0 98 7.5 q31 7.5 31 27.5 q0 15 -16 35 l-319 439 l-259 -339 q-35 -47 -35 -89 q0 -38 30.5 -60.5 q30.5 -22.5 92.5 -22.5 l0 -41 q-116 6 -231 6 q-35 0 -77 -3 l-60 -3 l0 41 q43 4 98.5 44.5 q55.5 40.5 95.5 92.5 l317 412 l-372 510 q-31 42 -48 61.5 q-17 19.5 -35 29 q-18 9.5 -44 11.5 l0 43 q93 -6 166 -6 q121 0 289 6 l0 -43 q-67 0 -98 -7.5 q-31 -7.5 -31 -26.5 q0 -15 16 -35 l299 -410 l240 311 q34 45 34 85 q0 38 -32.5 61.5 q-32.5 23.5 -96.5 23.5 l0 41 q117 -6 232 -6 q88 0 137 6 l0 -41 q-45 -5 -97 -41.5 q-52 -36.5 -99 -97.5 l-292 -378 l394 -542 Z" /><glyph glyph-name="y" unicode="y" d="M995 1237 q117 0 158 8 l0 -43 q-35 -9 -64 -39.5 q-29 -30.5 -67 -99.5 l-322 -575 l0 -271 q0 -77 12.5 -112 q12.5 -35 46 -48 q33.5 -13 107.5 -16 l0 -41 q-94 6 -260 6 q-176 0 -262 -6 l0 41 q74 3 107.5 16 q33.5 13 46 48 q12.5 35 12.5 112 l0 212 l-395 658 q-40 66 -65 88 q-25 22 -54 27 l0 43 q24 -2 35 -2 q96 -6 145 -6 q142 0 287 8 l0 -43 q-71 0 -108 -11 q-37 -11 -37 -51 q0 -36 36 -96 l310 -515 l254 446 q46 82 46 132 q0 86 -143 95 l0 43 q77 -8 174 -8 Z" /><glyph glyph-name="z" unicode="z" d="M334 47 l450 0 q72 0 119 32.5 q47 32.5 75.5 107.5 q28.5 75 39.5 202 l47 0 q-6 -64 -6 -168 q0 -98 14 -221 q-145 6 -489 6 q-328 0 -478 -6 l0 41 l723 1157 l-430 0 q-71 0 -118.5 -32.5 q-47.5 -32.5 -75.5 -107.5 q-28 -75 -39 -202 l-47 0 q6 65 6 168 q0 98 -14 221 q145 -6 489 -6 q313 0 457 6 l0 -41 l-723 -1157 Z" /><glyph glyph-name="ordfeminine" unicode="ª" d="M461 1479 q132 0 191 -61.5 q59 -61.5 59 -198.5 l0 -334 q0 -43 11.5 -59.5 q11.5 -16.5 39.5 -16.5 q49 0 84 35 l22 -31 q-80 -76 -184 -76 q-73 0 -103.5 24.5 q-30.5 24.5 -33.5 72.5 q-100 -97 -240 -97 q-49 0 -92 17.5 q-43 17.5 -70.5 53.5 q-27.5 36 -27.5 89 q0 56 32.5 95 q32.5 39 87 66.5 q54.5 27.5 146.5 61.5 q80 30 122 55 q42 25 42 60 l0 37 q0 89 -35 128.5 q-35 39.5 -104 39.5 q-85 0 -152 -43 q30 -9 50 -34.5 q20 -25.5 20 -62.5 q0 -39 -27 -64.5 q-27 -25.5 -63 -25.5 q-45 0 -72 25.5 q-27 25.5 -27 67.5 q0 81 99 129 q99 47 225 47 ZM547 1171 q-8 -17 -31.5 -32.5 q-23.5 -15.5 -83.5 -42.5 q-77 -35 -112 -72 q-35 -37 -35 -90 q0 -56 31 -90.5 q31 -34.5 81 -34.5 q77 0 150 65 l0 297 Z" /><glyph glyph-name="ordmasculine" unicode="º" d="M465 1479 q93 0 176 -43 q83 -43 134.5 -127 q51.5 -84 51.5 -201 q0 -117 -51.5 -201 q-51.5 -84 -134.5 -127 q-83 -43 -176 -43 q-93 0 -176.5 43 q-83.5 43 -135 127 q-51.5 84 -51.5 201 q0 117 51.5 201 q51.5 84 135 127 q83.5 43 176.5 43 ZM465 1442 q-55 0 -98.5 -35 q-43.5 -35 -69 -110 q-25.5 -75 -25.5 -189 q0 -114 25.5 -189 q25.5 -75 69 -110 q43.5 -35 98.5 -35 q54 0 97.5 35 q43.5 35 69 110 q25.5 75 25.5 189 q0 114 -25.5 189 q-25.5 75 -69 110 q-43.5 35 -97.5 35 Z" /><glyph glyph-name="uni0411" unicode="&#x411;" d="M631 862 q161 0 271.5 -54.5 q110.5 -54.5 166 -151.5 q55.5 -97 55.5 -224 q0 -117 -49 -213.5 q-49 -96.5 -169 -157.5 q-120 -61 -320 -61 q-27 0 -89 2 q-84 4 -169 4 q-156 0 -242 -6 l0 41 q74 3 107.5 16 q33.5 13 46 48 q12.5 35 12.5 112 l0 1016 q0 77 -12.5 112 q-12.5 35 -46 48 q-33.5 13 -107.5 16 l0 41 q201 -6 594 -6 q258 0 367 6 q-15 -131 -15 -242 q0 -80 6 -127 l-47 0 q-14 133 -36.5 198 q-22.5 65 -76 94.5 q-53.5 29.5 -161.5 29.5 l-109 0 q-74 0 -107.5 -12 q-33.5 -12 -46 -46.5 q-12.5 -34.5 -12.5 -111.5 l0 -374 q42 0 102 2 l87 1 ZM580 41 q133 0 208 50 q75 50 103.5 135 q28.5 85 28.5 204 q0 137 -35 223 q-35 86 -113.5 128 q-78.5 42 -210.5 42 l-119 -2 l0 -604 q0 -76 10 -112 q10 -36 38.5 -50 q28.5 -14 89.5 -14 Z" /><glyph glyph-name="uni0413" unicode="&#x413;" d="M1026 1450 q-14 -146 -14 -262 q0 -103 6 -168 l-47 0 q-16 159 -41 235.5 q-25 76.5 -86.5 112 q-61.5 35.5 -188.5 35.5 l-47 0 q-74 0 -107.5 -12 q-33.5 -12 -46 -46.5 q-12.5 -34.5 -12.5 -111.5 l0 -1016 q0 -77 16 -112 q16 -35 58 -48 q42 -13 133 -16 l0 -41 q-106 6 -301 6 q-176 0 -262 -6 l0 41 q74 3 107.5 16 q33.5 13 46 48 q12.5 35 12.5 112 l0 1016 q0 77 -12.5 112 q-12.5 35 -46 48 q-33.5 13 -107.5 16 l0 41 q201 -6 594 -6 q244 0 346 6 Z" /><glyph glyph-name="uni0490" unicode="&#x490;" d="M1018 1772 q-6 -46 -6 -127 q0 -108 14 -242 l-418 0 q-74 0 -107.5 -12 q-33.5 -12 -46 -46.5 q-12.5 -34.5 -12.5 -111.5 l0 -1016 q0 -77 16 -112 q16 -35 58 -48 q42 -13 133 -16 l0 -41 q-106 6 -301 6 q-176 0 -262 -6 l0 41 q74 3 107.5 16 q33.5 13 46 48 q12.5 35 12.5 112 l0 1016 q0 77 -12.5 112 q-12.5 35 -46 48 q-33.5 13 -107.5 16 l0 41 q107 -6 307 -6 q68 0 150 3 q165 3 153 3 q108 0 161.5 29.5 q53.5 29.5 76 94.5 q22.5 65 37.5 198 l47 0 Z" /><glyph glyph-name="uni0414" unicode="&#x414;" d="M1249 41 q-14 -134 -14 -242 q0 -81 6 -127 l-47 0 q-15 134 -37.5 200 q-22.5 66 -76 97 q-53.5 31 -160.5 31 l-584 0 q-107 0 -161 -31 q-54 -31 -76.5 -97 q-22.5 -66 -37.5 -200 l-47 0 q6 46 6 127 q0 108 -14 242 l37 0 q143 0 220.5 165.5 q77.5 165.5 107 397 q29.5 231.5 51.5 598.5 l2 31 q1 15 1 41 q0 55 -14 82.5 q-14 27.5 -49 38.5 q-35 11 -104 14 l0 41 q86 -6 211 -6 q-1 0 92 3 q43 3 88 3 q72 0 138 -3 q141 -3 155 -3 q157 0 244 6 l0 -41 q-74 -3 -107.5 -16 q-33.5 -13 -46 -48 q-12.5 -35 -12.5 -112 l0 -1016 q0 -77 12.5 -113.5 q12.5 -36.5 47 -49.5 q34.5 -13 106.5 -13 l63 0 ZM829 1233 q0 77 -12.5 113.5 q-12.5 36.5 -46.5 49.5 q-34 13 -106 13 l-27 0 q-73 0 -104.5 -13.5 q-31.5 -13.5 -42.5 -47 q-11 -33.5 -19 -115.5 q-7 -75 -16 -206 q-19 -265 -41.5 -441.5 q-22.5 -176.5 -78 -329 q-55.5 -152.5 -154.5 -215.5 l483 0 q72 0 106 13 q34 13 46.5 49.5 q12.5 36.5 12.5 113.5 l0 1016 Z" /><glyph glyph-name="uni0416" unicode="&#x416;" d="M2011 102 q-30 -44 -58 -71.5 q-28 -27.5 -67 -43.5 q-39 -16 -94 -16 q-81 0 -135.5 47.5 q-54.5 47.5 -83.5 174.5 l-57 253 q-24 105 -48 161 q-24 56 -78 90 q-54 34 -153 34 l-135 0 l0 -514 q0 -77 12.5 -112 q12.5 -35 46 -48 q33.5 -13 107.5 -16 l0 -41 q-87 6 -262 6 q-165 0 -261 -6 l0 41 q74 3 107.5 16 q33.5 13 46 48 q12.5 35 12.5 112 l0 514 l-135 0 q-99 0 -152.5 -34 q-53.5 -34 -77.5 -90 q-24 -56 -48 -161 l-58 -253 q-29 -127 -83.5 -174.5 q-54.5 -47.5 -135.5 -47.5 q-55 0 -94 16 q-39 16 -67 43.5 q-28 27.5 -58 71.5 l31 23 q34 -43 56 -60.5 q22 -17.5 56 -17.5 q28 0 45 16 q17 16 28.5 50 q11.5 34 27.5 102 l59 258 q36 159 140.5 224 q104.5 65 267.5 72 l-385 491 q-103 129 -242 149 l0 41 q62 -6 174 -6 q119 0 236 6 l0 -41 q-127 -3 -127 -74 q0 -64 104 -196 l197 -250 q90 -116 241 -119 l0 463 q0 77 -12.5 112 q-12.5 35 -46 48 q-33.5 13 -107.5 16 l0 41 q96 -6 261 -6 q175 0 262 6 l0 -41 q-74 -3 -107.5 -16 q-33.5 -13 -46 -48 q-12.5 -35 -12.5 -112 l0 -463 q151 3 241 119 l197 250 q104 132 104 196 q0 71 -126 74 l0 41 q116 -6 235 -6 q113 0 174 6 l0 -41 q-140 -20 -241 -149 l-386 -491 q163 -7 267.5 -72 q104.5 -65 140.5 -224 l59 -258 q16 -68 27.5 -102 q11.5 -34 28.5 -50 q17 -16 45 -16 q34 0 56.5 17.5 q22.5 17.5 55.5 60.5 l31 -23 Z" /><glyph glyph-name="uni0417" unicode="&#x417;" d="M549 1479 q121 0 213 -37.5 q92 -37.5 143 -107 q51 -69.5 51 -162.5 q0 -108 -62.5 -191 q-62.5 -83 -157 -135.5 q-94.5 -52.5 -195.5 -77.5 q123 -2 236.5 -45.5 q113.5 -43.5 185 -128 q71.5 -84.5 71.5 -203.5 q0 -131 -78 -226 q-78 -95 -206.5 -144.5 q-128.5 -49.5 -278.5 -49.5 q-182 0 -303 74 q-96 61 -96 145 q0 48 30.5 78.5 q30.5 30.5 77.5 30.5 q49 0 81 -30 q32 -30 32 -81 q0 -42 -23.5 -69 q-23.5 -27 -62.5 -35 q14 -20 56 -38 q42 -18 99 -29 q57 -11 115 -11 q118 0 197.5 46.5 q79.5 46.5 118 129 q38.5 82.5 38.5 189.5 q0 108 -37.5 192.5 q-37.5 84.5 -110.5 134 q-73 49.5 -175 52.5 q-49 -27 -88 -27 q-43 0 -43 35 q0 15 12 24 q12 9 31 9 q27 0 90 -13 q92 31 144.5 80 q52.5 49 75 120 q22.5 71 22.5 171 q0 145 -53.5 218 q-53.5 73 -174.5 73 q-99 0 -170.5 -56 q-71.5 -56 -110 -145.5 q-38.5 -89.5 -44.5 -191.5 l-47 0 q0 287 -11 417 l47 0 q8 -49 17.5 -69.5 q9.5 -20.5 30.5 -20.5 q21 0 67 29 q8 5 43.5 27.5 q35.5 22.5 86.5 35.5 q51 13 116 13 Z" /><glyph glyph-name="uni0418" unicode="&#x418;" d="M1505 1409 q-74 -3 -107.5 -16 q-33.5 -13 -46 -48 q-12.5 -35 -12.5 -112 l0 -1016 q0 -77 12.5 -112 q12.5 -35 46 -48 q33.5 -13 107.5 -16 l0 -41 q-86 6 -262 6 q-164 0 -260 -6 l0 41 q74 3 107.5 16 q33.5 13 46 48 q12.5 35 12.5 112 l0 969 l-707 -1000 q3 -62 17 -91 q14 -29 47 -40 q33 -11 102 -14 l0 -41 q-95 6 -260 6 q-177 0 -262 -6 l0 41 q74 3 107.5 16 q33.5 13 46 48 q12.5 35 12.5 112 l0 1016 q0 77 -12.5 112 q-12.5 35 -46 48 q-33.5 13 -107.5 16 l0 41 q85 -6 262 -6 q165 0 260 6 l0 -41 q-74 -3 -107.5 -16 q-33.5 -13 -46 -48 q-12.5 -35 -12.5 -112 l0 -970 l706 1002 q-2 61 -16.5 90 q-14.5 29 -47.5 40 q-33 11 -101 14 l0 41 q96 -6 260 -6 q176 0 262 6 l0 -41 Z" /><glyph glyph-name="uni041A" unicode="&#x41a;" d="M1352 102 q-31 -44 -59 -71.5 q-28 -27.5 -67 -43.5 q-39 -16 -93 -16 q-82 0 -136.5 47.5 q-54.5 47.5 -83.5 174.5 l-57 253 q-24 105 -48 161 q-24 56 -77.5 90 q-53.5 34 -152.5 34 l-136 0 l0 -514 q0 -77 12.5 -112 q12.5 -35 46 -48 q33.5 -13 107.5 -16 l0 -41 q-95 6 -260 6 q-177 0 -262 -6 l0 41 q74 3 107.5 16 q33.5 13 46 48 q12.5 35 12.5 112 l0 1016 q0 77 -12.5 112 q-12.5 35 -46 48 q-33.5 13 -107.5 16 l0 41 q85 -6 262 -6 q165 0 260 6 l0 -41 q-74 -3 -107.5 -16 q-33.5 -13 -46 -48 q-12.5 -35 -12.5 -112 l0 -463 q152 3 242 119 l197 250 q104 132 104 196 q0 71 -127 74 l0 41 q117 -6 236 -6 q112 0 174 6 l0 -41 q-139 -20 -242 -149 l-386 -491 q163 -7 267.5 -71.5 q104.5 -64.5 141.5 -224.5 l59 -258 q16 -68 27.5 -102 q11.5 -34 28 -50 q16.5 -16 44.5 -16 q35 0 57 17.5 q22 17.5 56 60.5 l31 -23 Z" /><glyph glyph-name="uni041B" unicode="&#x41b;" d="M1323 1409 q-74 -3 -107.5 -16 q-33.5 -13 -46 -48 q-12.5 -35 -12.5 -112 l0 -1016 q0 -77 12.5 -112 q12.5 -35 46 -48 q33.5 -13 107.5 -16 l0 -41 q-85 6 -262 6 q-194 0 -301 -6 l0 41 q91 3 133 16 q42 13 58 48 q16 35 16 112 l0 1016 q0 77 -12.5 113.5 q-12.5 36.5 -47 49.5 q-34.5 13 -106.5 13 l-27 0 q-73 0 -105 -13.5 q-32 -13.5 -43 -47 q-11 -33.5 -18 -115.5 l-15 -200 q-21 -326 -52.5 -539 q-31.5 -213 -117 -368 q-85.5 -155 -243.5 -155 q-77 0 -131.5 34.5 q-54.5 34.5 -54.5 105.5 q0 53 34 84.5 q34 31.5 87 31.5 q45 0 74.5 -24.5 q29.5 -24.5 29.5 -65.5 q0 -43 -21 -70.5 q-21 -27.5 -67 -54.5 q19 -2 49 -2 q144 0 221.5 168.5 q77.5 168.5 106.5 405.5 q29 237 51 616 l2 33 q2 34 2 46 q0 52 -14.5 78.5 q-14.5 26.5 -49.5 37.5 q-35 11 -104 14 l0 41 q87 -6 211 -6 q2 0 92 3 q45 3 88 3 q73 0 139 -3 q141 -3 154 -3 q159 0 244 6 l0 -41 Z" /><glyph glyph-name="uni041F" unicode="&#x41f;" d="M1464 1409 q-74 -3 -107.5 -16 q-33.5 -13 -46 -48 q-12.5 -35 -12.5 -112 l0 -1016 q0 -77 12.5 -112 q12.5 -35 46 -48 q33.5 -13 107.5 -16 l0 -41 q-85 6 -262 6 q-164 0 -260 -6 l0 41 q74 3 107.5 16 q33.5 13 46 48 q12.5 35 12.5 112 l0 1016 q0 77 -12.5 113.5 q-12.5 36.5 -47 49.5 q-34.5 13 -106.5 13 l-334 0 q-72 0 -106.5 -13 q-34.5 -13 -47 -49.5 q-12.5 -36.5 -12.5 -113.5 l0 -1016 q0 -77 12.5 -112 q12.5 -35 46 -48 q33.5 -13 107.5 -16 l0 -41 q-94 6 -260 6 q-176 0 -262 -6 l0 41 q74 3 107.5 16 q33.5 13 46 48 q12.5 35 12.5 112 l0 1016 q0 77 -12.5 112 q-12.5 35 -46 48 q-33.5 13 -107.5 16 l0 41 q85 -6 262 -6 q103 0 267 4 q128 2 163 2 q36 0 160 -2 q162 -4 264 -4 q176 0 262 6 l0 -41 Z" /><glyph glyph-name="uni0423" unicode="&#x423;" d="M1190 1444 q93 0 153 6 l0 -41 q-41 -9 -79.5 -51.5 q-38.5 -42.5 -83.5 -130.5 l-449 -894 l-82 -165 q-46 -94 -90 -137 q-30 -30 -71.5 -45 q-41.5 -15 -81.5 -15 q-64 0 -104 32.5 q-40 32.5 -40 90.5 q0 49 31 79 q31 30 78 30 q45 0 74.5 -25.5 q29.5 -25.5 29.5 -71.5 q0 -30 -15.5 -54 q-15.5 -24 -39.5 -38 q4 -2 12 -2 q54 0 96 39.5 q42 39.5 80 118.5 l56 114 l-549 1008 q-38 69 -65.5 92 q-27.5 23 -53.5 23 l0 43 q79 -6 180 -6 q199 0 287 6 l0 -43 q-144 0 -144 -79 q0 -32 21 -71 l417 -778 l322 645 q56 113 56 176 q0 58 -45 82.5 q-45 24.5 -136 26.5 l0 41 q117 -6 236 -6 Z" /><glyph glyph-name="uni0424" unicode="&#x424;" d="M1683 737 q0 -165 -90 -295 q-90 -130 -252 -209 q-162 -79 -374 -94 l0 -73 q0 -78 12.5 -113 q12.5 -35 45.5 -47.5 q33 -12.5 108 -16.5 l0 -41 q-90 7 -261 7 q-181 0 -262 -7 l0 41 q75 4 108 17 q33 13 45.5 48 q12.5 35 12.5 112 l0 72 q-219 13 -381.5 86.5 q-162.5 73.5 -251 203 q-88.5 129.5 -88.5 305.5 q0 160 90.5 286.5 q90.5 126.5 254 202.5 q163.5 76 376.5 90 l0 72 q0 78 -12.5 113 q-12.5 35 -45.5 47.5 q-33 12.5 -108 16.5 l0 41 q81 -7 262 -7 q171 0 261 7 l0 -41 q-75 -4 -108 -17 q-33 -13 -45.5 -48 q-12.5 -35 -12.5 -112 l0 -72 q218 -13 379 -84 q161 -71 249 -196 q88 -125 88 -295 ZM260 741 q0 -155 65.5 -275.5 q65.5 -120.5 182.5 -194.5 q117 -74 268 -93 l0 1096 q-156 -16 -272.5 -87.5 q-116.5 -71.5 -180 -187 q-63.5 -115.5 -63.5 -258.5 ZM1479 729 q0 148 -65.5 264 q-65.5 116 -181.5 187.5 q-116 71.5 -265 90.5 l0 -1094 q155 17 270.5 91.5 q115.5 74.5 178.5 193.5 q63 119 63 267 Z" /><glyph glyph-name="uni0427" unicode="&#x427;" d="M1292 1409 q-74 -3 -107.5 -16 q-33.5 -13 -46 -48 q-12.5 -35 -12.5 -112 l0 -1016 q0 -77 12.5 -112 q12.5 -35 46 -48 q33.5 -13 107.5 -16 l0 -41 q-85 6 -262 6 q-193 0 -301 -6 l0 41 q91 3 133 16 q42 13 58 48 q16 35 16 112 l0 436 q-62 -30 -172.5 -52.5 q-110.5 -22.5 -212.5 -22.5 q-168 0 -262 71 q-56 43 -77.5 104 q-21.5 61 -21.5 171 l0 336 q0 57 -15.5 89 q-15.5 32 -48.5 45 q-33 13 -91 13 l0 43 l27 -1 q128 -7 225 -7 q84 0 201 7 l28 1 l0 -43 q-51 0 -79.5 -13 q-28.5 -13 -42 -45 q-13.5 -32 -13.5 -89 l0 -381 q0 -75 16.5 -125 q16.5 -50 68 -80.5 q51.5 -30.5 150.5 -30.5 q192 0 320 45 l0 545 q0 77 -12.5 112 q-12.5 35 -46 48 q-33.5 13 -107.5 16 l0 41 q85 -6 262 -6 q166 0 260 6 l0 -41 Z" /><glyph glyph-name="uni0426" unicode="&#x426;" d="M1464 1409 q-74 -3 -107.5 -16 q-33.5 -13 -46 -48 q-12.5 -35 -12.5 -112 l0 -1016 q0 -77 12.5 -113.5 q12.5 -36.5 47 -49.5 q34.5 -13 106.5 -13 l64 0 q-15 -144 -15 -242 q0 -73 7 -127 l-47 0 q-15 134 -37.5 200 q-22.5 66 -76.5 97 q-54 31 -161 31 l-420 0 q-35 0 -163 2 q-164 4 -267 4 q-176 0 -262 -6 l0 41 q74 3 107.5 16 q33.5 13 46 48 q12.5 35 12.5 112 l0 1016 q0 77 -12.5 112 q-12.5 35 -46 48 q-33.5 13 -107.5 16 l0 41 q85 -6 262 -6 q166 0 260 6 l0 -41 q-74 -3 -107.5 -16 q-33.5 -13 -46 -48 q-12.5 -35 -12.5 -112 l0 -1016 q0 -77 12.5 -113.5 q12.5 -36.5 47 -49.5 q34.5 -13 106.5 -13 l334 0 q72 0 106.5 13 q34.5 13 47 49.5 q12.5 36.5 12.5 113.5 l0 1016 q0 77 -12.5 112 q-12.5 35 -46 48 q-33.5 13 -107.5 16 l0 41 q96 -6 260 -6 q176 0 262 6 l0 -41 Z" /><glyph glyph-name="uni0428" unicode="&#x428;" d="M1976 1409 q-74 -3 -107.5 -16 q-33.5 -13 -46 -48 q-12.5 -35 -12.5 -112 l0 -1016 q0 -77 12.5 -112 q12.5 -35 46 -48 q33.5 -13 107.5 -16 l0 -41 q-85 6 -262 6 q-71 0 -152 -3 q-192 -3 -212 -3 q-81 0 -199 4 q-88 2 -117 2 q-29 0 -121 -2 q-120 -4 -202 -4 q-24 0 -216 3 q-78 3 -147 3 q-176 0 -262 -6 l0 41 q74 3 107.5 16 q33.5 13 46 48 q12.5 35 12.5 112 l0 1016 q0 77 -12.5 112 q-12.5 35 -46 48 q-33.5 13 -107.5 16 l0 41 q85 -6 262 -6 q150 0 240 6 l0 -41 q-65 -3 -94.5 -16 q-29.5 -13 -40.5 -48 q-11 -35 -11 -112 l0 -1016 q0 -77 12.5 -113.5 q12.5 -36.5 47 -49.5 q34.5 -13 106.5 -13 l162 0 q72 0 106.5 13 q34.5 13 47 49.5 q12.5 36.5 12.5 113.5 l0 1016 q0 77 -10.5 112 q-10.5 35 -39.5 48 q-29 13 -95 16 l0 41 q89 -6 239 -6 q163 0 242 6 l0 -41 q-66 -3 -95.5 -16 q-29.5 -13 -40 -48 q-10.5 -35 -10.5 -112 l0 -1016 q0 -77 12.5 -113.5 q12.5 -36.5 47 -49.5 q34.5 -13 106.5 -13 l162 0 q72 0 106.5 13 q34.5 13 47 49.5 q12.5 36.5 12.5 113.5 l0 1016 q0 77 -10.5 112 q-10.5 35 -39.5 48 q-29 13 -95 16 l0 41 q89 -6 239 -6 q177 0 262 6 l0 -41 Z" /><glyph glyph-name="uni0429" unicode="&#x429;" d="M1935 1409 q-74 -3 -107.5 -16 q-33.5 -13 -46 -48 q-12.5 -35 -12.5 -112 l0 -1016 q0 -77 12.5 -113.5 q12.5 -36.5 47 -49.5 q34.5 -13 106.5 -13 l64 0 q-14 -134 -14 -242 q0 -81 6 -127 l-47 0 q-15 134 -37.5 200 q-22.5 66 -76.5 97 q-54 31 -161 31 l-340 0 q-82 0 -198 4 q-90 2 -117 2 q-29 0 -121 -2 q-120 -4 -203 -4 q-13 0 -190 3 q-80 3 -152 3 q-176 0 -262 -6 l0 41 q74 3 107.5 16 q33.5 13 46 48 q12.5 35 12.5 112 l0 1016 q0 77 -12.5 112 q-12.5 35 -46 48 q-33.5 13 -107.5 16 l0 41 q85 -6 262 -6 q150 0 240 6 l0 -41 q-65 -3 -94.5 -16 q-29.5 -13 -40.5 -48 q-11 -35 -11 -112 l0 -1016 q0 -77 12.5 -113.5 q12.5 -36.5 47 -49.5 q34.5 -13 106.5 -13 l142 0 q72 0 106 13 q34 13 46.5 49.5 q12.5 36.5 12.5 113.5 l0 1016 q0 78 -10.5 112.5 q-10.5 34.5 -39.5 47.5 q-29 13 -95 16 l0 41 q89 -6 240 -6 q161 0 241 6 l0 -41 q-66 -3 -95 -16 q-29 -13 -39.5 -47.5 q-10.5 -34.5 -10.5 -112.5 l0 -1016 q0 -77 12.5 -113.5 q12.5 -36.5 47 -49.5 q34.5 -13 106.5 -13 l141 0 q72 0 106.5 13 q34.5 13 47 49.5 q12.5 36.5 12.5 113.5 l0 1016 q0 78 -10.5 112.5 q-10.5 34.5 -39.5 47.5 q-29 13 -95 16 l0 41 q89 -6 239 -6 q176 0 262 6 l0 -41 Z" /><glyph glyph-name="uni040F" unicode="&#x40f;" d="M1464 1409 q-74 -3 -107.5 -16 q-33.5 -13 -46 -48 q-12.5 -35 -12.5 -112 l0 -1016 q0 -77 12.5 -112 q12.5 -35 46 -48 q33.5 -13 107.5 -16 l0 -41 q-85 6 -262 6 q-57 0 -165 -2 l3 0 q-91 0 -136.5 -32 q-45.5 -32 -65 -99 q-19.5 -67 -31.5 -201 l-47 0 q-13 134 -32 201 q-19 67 -65 99 q-46 32 -137 32 l1 0 q-116 2 -179 2 q-176 0 -262 -6 l0 41 q74 3 107.5 16 q33.5 13 46 48 q12.5 35 12.5 112 l0 1016 q0 77 -12.5 112 q-12.5 35 -46 48 q-33.5 13 -107.5 16 l0 41 q85 -6 262 -6 q166 0 260 6 l0 -41 q-74 -3 -107.5 -16 q-33.5 -13 -46 -48 q-12.5 -35 -12.5 -112 l0 -1016 q0 -77 12.5 -113.5 q12.5 -36.5 47 -49.5 q34.5 -13 106.5 -13 l334 0 q72 0 106.5 13 q34.5 13 47 49.5 q12.5 36.5 12.5 113.5 l0 1016 q0 77 -12.5 112 q-12.5 35 -46 48 q-33.5 13 -107.5 16 l0 41 q96 -6 260 -6 q176 0 262 6 l0 -41 Z" /><glyph glyph-name="uni042F" unicode="&#x42f;" d="M1251 1409 q-74 -3 -107.5 -16 q-33.5 -13 -46 -48 q-12.5 -35 -12.5 -112 l0 -1016 q0 -77 12.5 -112 q12.5 -35 46 -48 q33.5 -13 107.5 -16 l0 -41 q-86 6 -262 6 q-164 0 -260 -6 l0 41 q74 3 107.5 16 q33.5 13 46 48 q12.5 35 12.5 112 l0 471 l-205 0 q-77 0 -120.5 -34.5 q-43.5 -34.5 -65 -92 q-21.5 -57.5 -45.5 -164.5 l-45 -204 q-28 -124 -82 -173 q-54 -49 -137 -49 q-78 0 -125 31 q-47 31 -95 100 l31 23 q34 -43 56.5 -60.5 q22.5 -17.5 55.5 -17.5 q28 0 45.5 17 q17.5 17 29.5 52 q12 35 26 99 l47 209 q20 87 54 140 q34 53 91.5 84 q57.5 31 149.5 46 l27 4 q-142 22 -229 83 q-87 61 -123.5 142 q-36.5 81 -36.5 169 q0 102 55.5 182.5 q55.5 80.5 166.5 127 q111 46.5 271 46.5 l87 -1 q186 -3 222 -3 q164 0 250 6 l0 -41 ZM403 1083 q0 -111 30 -188 q30 -77 108 -121.5 q78 -44.5 217 -44.5 l137 0 l0 504 q0 73 -12 110 q-12 37 -44 51.5 q-32 14.5 -96 14.5 q-178 0 -259 -84 q-81 -84 -81 -242 Z" /><glyph glyph-name="uni042C" unicode="&#x42c;" d="M631 862 q161 0 271.5 -52 q110.5 -52 166 -144 q55.5 -92 55.5 -213 q0 -113 -49.5 -215 q-49.5 -102 -170 -170 q-120.5 -68 -318.5 -68 q-43 0 -96 3 q-129 3 -142 3 q-176 0 -262 -6 l0 41 q74 3 107.5 16 q33.5 13 46 48 q12.5 35 12.5 112 l0 1016 q0 77 -12.5 112 q-12.5 35 -46 48 q-33.5 13 -107.5 16 l0 41 q86 -6 262 -6 q195 0 301 6 l0 -41 q-91 -3 -133 -16 q-42 -13 -58 -48 q-16 -35 -16 -112 l0 -374 q42 0 102 2 l87 1 ZM586 41 q189 0 261.5 104.5 q72.5 104.5 72.5 284.5 q0 199 -79.5 296 q-79.5 97 -260.5 97 q-46 0 -138 -2 l0 -604 q0 -78 10 -114 q10 -36 39.5 -49 q29.5 -13 94.5 -13 Z" /><glyph glyph-name="uni042A" unicode="&#x42a;" d="M938 862 q161 0 272 -52 q111 -52 166.5 -144 q55.5 -92 55.5 -213 q0 -113 -50 -215 q-50 -102 -170.5 -170 q-120.5 -68 -318.5 -68 q-44 0 -96 3 q-126 3 -142 3 q-175 0 -262 -6 l0 41 q74 3 107.5 16 q33.5 13 46 48 q12.5 35 12.5 112 l0 1186 l-131 0 q-127 0 -188.5 -35.5 q-61.5 -35.5 -86 -112 q-24.5 -76.5 -40.5 -235.5 l-47 0 q6 64 6 168 q0 120 -15 262 q176 -6 598 -6 q195 0 301 6 l0 -41 q-91 -3 -132.5 -16 q-41.5 -13 -57.5 -48 q-16 -35 -16 -112 l0 -374 q41 0 101 2 l87 1 ZM893 41 q189 0 261.5 104.5 q72.5 104.5 72.5 284.5 q0 199 -79.5 296 q-79.5 97 -260.5 97 q-45 0 -137 -2 l0 -604 q0 -79 10 -114.5 q10 -35.5 39 -48.5 q29 -13 94 -13 Z" /><glyph glyph-name="uni042B" unicode="&#x42b;" d="M631 862 q161 0 271.5 -52 q110.5 -52 166 -144 q55.5 -92 55.5 -213 q0 -113 -49.5 -215 q-49.5 -102 -170 -170 q-120.5 -68 -318.5 -68 q-43 0 -96 3 q-129 3 -142 3 q-176 0 -262 -6 l0 41 q74 3 107.5 16 q33.5 13 46 48 q12.5 35 12.5 112 l0 1016 q0 77 -12.5 112 q-12.5 35 -46 48 q-33.5 13 -107.5 16 l0 41 q86 -6 262 -6 q195 0 301 6 l0 -41 q-91 -3 -133 -16 q-42 -13 -58 -48 q-16 -35 -16 -112 l0 -374 q42 0 102 2 l87 1 ZM1735 1409 q-74 -3 -107.5 -16 q-33.5 -13 -46 -48 q-12.5 -35 -12.5 -112 l0 -1016 q0 -77 12.5 -112 q12.5 -35 46 -48 q33.5 -13 107.5 -16 l0 -41 q-96 6 -260 6 q-176 0 -263 -6 l0 41 q74 3 107.5 16 q33.5 13 46 48 q12.5 35 12.5 112 l0 1016 q0 77 -12.5 112 q-12.5 35 -46 48 q-33.5 13 -107.5 16 l0 41 q87 -6 263 -6 q164 0 260 6 l0 -41 ZM586 41 q189 0 261.5 104.5 q72.5 104.5 72.5 284.5 q0 199 -79.5 296 q-79.5 97 -260.5 97 q-46 0 -138 -2 l0 -604 q0 -78 10 -114 q10 -36 39.5 -49 q29.5 -13 94.5 -13 Z" /><glyph glyph-name="uni0409" unicode="&#x409;" d="M1839 391 q0 -103 -47.5 -189.5 q-47.5 -86.5 -162.5 -142.5 q-115 -56 -306 -59 l-2 0 l-21 0 q-41 0 -111 5 q-40 1 -128 1 q-194 0 -301 -6 l0 41 q91 3 133 16 q42 13 58 48 q16 35 16 112 l0 1016 q0 77 -12.5 113.5 q-12.5 36.5 -47 49.5 q-34.5 13 -106.5 13 l-27 0 q-73 0 -105 -13.5 q-32 -13.5 -43 -47 q-11 -33.5 -18 -115.5 l-15 -200 q-21 -326 -52.5 -539 q-31.5 -213 -117 -368 q-85.5 -155 -243.5 -155 q-77 0 -131.5 34.5 q-54.5 34.5 -54.5 105.5 q0 53 34 84.5 q34 31.5 87 31.5 q45 0 74.5 -24.5 q29.5 -24.5 29.5 -65.5 q0 -43 -21 -70.5 q-21 -27.5 -67 -54.5 q19 -2 49 -2 q144 0 221.5 168.5 q77.5 168.5 106.5 405.5 q29 237 51 616 l2 33 q2 34 2 46 q0 52 -14.5 78.5 q-14.5 26.5 -49.5 37.5 q-35 11 -104 14 l0 41 q87 -6 211 -6 q2 0 92 3 q45 3 88 3 q73 0 139 -3 q141 -3 154 -3 q159 0 244 6 l0 -41 q-74 -3 -107.5 -16 q-33.5 -13 -46 -48 q-12.5 -35 -12.5 -112 l0 -473 q120 2 189 2 q160 0 271 -47.5 q111 -47.5 166.5 -131.5 q55.5 -84 55.5 -192 ZM1316 41 q125 4 195 49.5 q70 45.5 96.5 120.5 q26.5 75 26.5 178 q0 116 -34.5 189 q-34.5 73 -113 109 q-78.5 36 -210.5 36 l-119 -1 l0 -505 q0 -75 12 -110 q12 -35 44.5 -48.5 q32.5 -13.5 102.5 -17.5 Z" /><glyph glyph-name="uni040A" unicode="&#x40a;" d="M1980 391 q0 -103 -47.5 -189.5 q-47.5 -86.5 -162 -142.5 q-114.5 -56 -306.5 -59 l-2 0 l-20 0 q-42 0 -112 5 q-39 1 -128 1 q-164 0 -260 -6 l0 41 q74 3 107.5 16 q33.5 13 46 48 q12.5 35 12.5 112 l0 492 l-666 0 l0 -492 q0 -77 12.5 -112 q12.5 -35 46 -48 q33.5 -13 107.5 -16 l0 -41 q-94 6 -260 6 q-176 0 -262 -6 l0 41 q74 3 107.5 16 q33.5 13 46 48 q12.5 35 12.5 112 l0 1016 q0 77 -12.5 112 q-12.5 35 -46 48 q-33.5 13 -107.5 16 l0 41 q85 -6 262 -6 q166 0 260 6 l0 -41 q-74 -3 -107.5 -16 q-33.5 -13 -46 -48 q-12.5 -35 -12.5 -112 l0 -483 l666 0 l0 483 q0 77 -12.5 112 q-12.5 35 -46 48 q-33.5 13 -107.5 16 l0 41 q96 -6 260 -6 q176 0 262 6 l0 -41 q-74 -3 -107.5 -16 q-33.5 -13 -46 -48 q-12.5 -35 -12.5 -112 l0 -474 q8 1 23 1 q106 2 166 2 q160 0 271 -47.5 q111 -47.5 166.5 -131 q55.5 -83.5 55.5 -192.5 ZM1457 41 q125 4 195.5 49.5 q70.5 45.5 97 120.5 q26.5 75 26.5 178 q0 115 -35 188.5 q-35 73.5 -113.5 109.5 q-78.5 36 -210.5 36 l-119 -1 l0 -505 q0 -76 12 -111 q12 -35 44.5 -48 q32.5 -13 102.5 -17 Z" /><glyph glyph-name="uni0404" unicode="&#x404;" d="M1268 492 q0 -353 8 -492 l-47 0 q-5 64 -16.5 92.5 q-11.5 28.5 -33.5 28.5 q-16 0 -42 -17 q-61 -43 -112.5 -70.5 q-51.5 -27.5 -117.5 -45 q-66 -17.5 -149 -17.5 q-195 0 -341.5 88 q-146.5 88 -227 255.5 q-80.5 167.5 -80.5 398.5 q0 226 83 400 q83 174 231 270 q148 96 337 96 q122 0 208.5 -35 q86.5 -35 168.5 -98 q23 -18 40 -18 q42 0 52 122 l47 0 q-8 -133 -8 -471 l-47 0 q-15 92 -27.5 143 q-12.5 51 -29.5 86.5 q-17 35.5 -46 73.5 q-62 80 -157 120 q-95 40 -205 40 q-133 0 -233 -88 q-100 -88 -155 -251 q-55 -163 -55 -382 l0 -7 q34 72 98.5 110 q64.5 38 143.5 38 q60 0 110 -20 q50 -20 117 -60 q66 -38 111 -56.5 q45 -18.5 98 -18.5 q57 0 103.5 28 q46.5 28 64.5 86 l31 -14 q-27 -102 -103.5 -156.5 q-76.5 -54.5 -175.5 -54.5 q-63 0 -113 20.5 q-50 20.5 -117 60.5 q-65 38 -110 56.5 q-45 18.5 -100 18.5 q-108 0 -157 -92 q8 -204 69.5 -350.5 q61.5 -146.5 163.5 -222 q102 -75.5 229 -75.5 q102 0 199 39 q97 39 151 117 q42 56 60 121.5 q18 65.5 35 202.5 l47 0 Z" /><glyph glyph-name="uni042D" unicode="&#x42d;" d="M657 1479 q189 0 337.5 -96 q148.5 -96 231.5 -270 q83 -174 83 -400 q0 -231 -80.5 -398.5 q-80.5 -167.5 -227.5 -255.5 q-147 -88 -342 -88 q-83 0 -149 17.5 q-66 17.5 -117.5 45 q-51.5 27.5 -111.5 70.5 q-26 17 -43 17 q-21 0 -32.5 -28.5 q-11.5 -28.5 -17.5 -92.5 l-47 0 q9 156 9 492 l47 0 q16 -136 34 -202 q18 -66 60 -122 q55 -78 151.5 -117 q96.5 -39 198.5 -39 q133 0 238 83 q105 83 165 243 q60 160 60 383 l-1 41 q-34 -76 -98.5 -116 q-64.5 -40 -144.5 -40 q-61 0 -110.5 20.5 q-49.5 20.5 -119.5 60.5 q-64 38 -109.5 56.5 q-45.5 18.5 -98.5 18.5 q-57 0 -103 -28.5 q-46 -28.5 -67 -86.5 l-31 15 q28 102 104.5 156 q76.5 54 176.5 54 q62 0 112 -20 q50 -20 120 -60 q63 -37 109 -56 q46 -19 101 -19 q108 0 158 92 q-11 194 -68.5 337 q-57.5 143 -153 219.5 q-95.5 76.5 -218.5 76.5 q-111 0 -206 -40 q-95 -40 -157 -120 q-29 -38 -46 -74 q-17 -36 -29 -87 q-12 -51 -27 -142 l-47 0 q0 321 -9 471 l47 0 q12 -122 53 -122 q17 0 40 18 q82 63 168 98 q86 35 208 35 Z" /><glyph glyph-name="uni040B" unicode="&#x40b;" d="M1477 190 q0 -57 15.5 -89 q15.5 -32 48.5 -45 q33 -13 91 -13 l0 -43 l-27 1 q-128 7 -225 7 q-84 0 -201 -7 l-28 -1 l0 43 q51 0 79.5 13 q28.5 13 42 45 q13.5 32 13.5 89 l0 381 q0 75 -16 125 q-16 50 -67.5 80.5 q-51.5 30.5 -151.5 30.5 q-192 0 -320 -45 l0 -524 q0 -85 16 -124.5 q16 -39.5 58 -54.5 q42 -15 133 -18 l0 -41 q-108 6 -301 6 q-205 0 -303 -6 l0 41 q91 3 133 18 q42 15 58 54.5 q16 39.5 16 124.5 l0 1165 l-111 0 q-127 0 -188.5 -35.5 q-61.5 -35.5 -86 -112 q-24.5 -76.5 -40.5 -235.5 l-47 0 q6 65 6 168 q0 120 -15 262 q170 -6 578 -6 q405 0 575 6 q-14 -146 -14 -262 q0 -103 6 -168 l-47 0 q-16 159 -40.5 235.5 q-24.5 76.5 -86 112 q-61.5 35.5 -188.5 35.5 l-111 0 l0 -606 q62 30 172.5 52.5 q110.5 22.5 212.5 22.5 q168 0 262 -71 q56 -43 77.5 -104 q21.5 -61 21.5 -171 l0 -336 Z" /><glyph glyph-name="uni042E" unicode="&#x42e;" d="M1333 1479 q189 0 331 -88 q142 -88 220 -255.5 q78 -167.5 78 -398.5 q0 -226 -80.5 -400 q-80.5 -174 -224 -270 q-143.5 -96 -326.5 -96 q-187 0 -328 86.5 q-141 86.5 -220 251 q-79 164.5 -81 391.5 l-260 0 l0 -483 q0 -77 12.5 -112 q12.5 -35 46 -48 q33.5 -13 107.5 -16 l0 -41 q-94 6 -260 6 q-176 0 -262 -6 l0 41 q74 3 107.5 16 q33.5 13 46 48 q12.5 35 12.5 112 l0 1016 q0 77 -12.5 112 q-12.5 35 -46 48 q-33.5 13 -107.5 16 l0 41 q86 -6 262 -6 q166 0 260 6 l0 -41 q-74 -3 -107.5 -16 q-33.5 -13 -46 -48 q-12.5 -35 -12.5 -112 l0 -492 l260 0 q5 218 87 386 q82 168 223.5 260 q141.5 92 320.5 92 ZM1339 8 q125 0 220 91.5 q95 91.5 146.5 255 q51.5 163.5 51.5 374.5 q0 213 -57.5 375 q-57.5 162 -156 250 q-98.5 88 -218.5 88 q-125 0 -220 -91.5 q-95 -91.5 -146.5 -255 q-51.5 -163.5 -51.5 -374.5 q0 -213 57.5 -375 q57.5 -162 156 -250 q98.5 -88 218.5 -88 Z" /><glyph glyph-name="uni0402" unicode="&#x402;" d="M1104 852 q127 0 223 -48 q96 -48 150.5 -144.5 q54.5 -96.5 54.5 -239.5 q0 -151 -60.5 -252 q-60.5 -101 -159 -149 q-98.5 -48 -214.5 -48 q-68 0 -128.5 19.5 q-60.5 19.5 -98 59 q-37.5 39.5 -37.5 97.5 q0 50 28 80.5 q28 30.5 78 30.5 q47 0 78 -27 q31 -27 31 -73 q0 -79 -88 -107 q6 -19 37.5 -34 q31.5 -15 74.5 -15 q133 0 196.5 100 q63.5 100 63.5 299 q0 123 -24 206 q-24 83 -90.5 131 q-66.5 48 -186.5 48 q-92 0 -174.5 -32 q-82.5 -32 -126.5 -82 l0 -695 q-99 29 -270 29 q-63 0 -127 -6 l0 41 q91 3 133 18 q42 15 58 54.5 q16 39.5 16 124.5 l0 1165 l-111 0 q-127 0 -188.5 -35.5 q-61.5 -35.5 -86 -112 q-24.5 -76.5 -40.5 -235.5 l-47 0 q6 65 6 168 q0 120 -15 262 q170 -6 578 -6 q405 0 575 6 q-14 -146 -14 -262 q0 -103 6 -168 l-47 0 q-16 159 -40.5 235.5 q-24.5 76.5 -86 112 q-61.5 35.5 -188.5 35.5 l-111 0 l0 -688 q62 58 161 97.5 q99 39.5 212 39.5 Z" /><glyph glyph-name="uni0431" unicode="&#x431;" d="M559 668 q188 0 313.5 -26 q125.5 -26 198 -98.5 q72.5 -72.5 72.5 -207.5 q0 -99 -56.5 -175 q-56.5 -76 -163 -118.5 q-106.5 -42.5 -251.5 -42.5 l-90 2 q-124 4 -242 4 q-168 0 -254 -6 l0 41 q74 3 107.5 16 q33.5 13 46 48 q12.5 35 12.5 112 l0 811 q0 78 -12.5 113 q-12.5 35 -45.5 47.5 q-33 12.5 -108 15.5 l0 41 q85 -6 250 -6 l289 0 q315 0 448 6 q-14 -123 -14 -221 q0 -80 6 -127 l-47 0 q-11 114 -38.5 179 q-27.5 65 -79 93.5 q-51.5 28.5 -136.5 28.5 l-191 0 q-56 0 -83 -13.5 q-27 -13.5 -37.5 -48.5 q-10.5 -35 -10.5 -108 l0 -360 l117 0 ZM575 47 q187 0 275 75 q88 75 88 222 q0 142 -82 215.5 q-82 73.5 -262 73.5 l-152 0 l0 -416 q0 -74 10.5 -109 q10.5 -35 38 -48 q27.5 -13 84.5 -13 Z" /><glyph glyph-name="uni0433" unicode="&#x433;" d="M1026 1245 q-14 -146 -14 -262 q0 -103 6 -168 l-47 0 q-16 159 -41 235.5 q-25 76.5 -86.5 112 q-61.5 35.5 -188.5 35.5 l-47 0 q-74 0 -107.5 -11.5 q-33.5 -11.5 -46 -46.5 q-12.5 -35 -12.5 -112 l0 -811 q0 -77 16 -112 q16 -35 58 -48 q42 -13 133 -16 l0 -41 q-106 6 -301 6 q-176 0 -262 -6 l0 41 q74 3 107.5 16 q33.5 13 46 48 q12.5 35 12.5 112 l0 811 q0 77 -12.5 112 q-12.5 35 -46 48 q-33.5 13 -107.5 16 l0 41 l74 -2 q120 -4 186 -4 q44 -1 129 -1 l205 1 q244 0 346 6 Z" /><glyph glyph-name="uni0491" unicode="&#x491;" d="M1018 1567 q-6 -46 -6 -127 q0 -108 14 -242 l-418 0 q-74 0 -107.5 -11.5 q-33.5 -11.5 -46 -46.5 q-12.5 -35 -12.5 -112 l0 -811 q0 -77 16 -112 q16 -35 58 -48 q42 -13 133 -16 l0 -41 q-106 6 -301 6 q-176 0 -262 -6 l0 41 q74 3 107.5 16 q33.5 13 46 48 q12.5 35 12.5 112 l0 811 q0 77 -12.5 112 q-12.5 35 -46 48 q-33.5 13 -107.5 16 l0 41 q92 -6 266 -6 q62 0 147 3 q201 3 197 3 q108 0 161.5 29.5 q53.5 29.5 76 94.5 q22.5 65 37.5 198 l47 0 Z" /><glyph glyph-name="uni0434" unicode="&#x434;" d="M1208 41 q-14 -134 -14 -242 q0 -81 6 -127 l-47 0 q-15 134 -37.5 200 q-22.5 66 -76 97 q-53.5 31 -160.5 31 l-543 0 q-107 0 -161 -31 q-54 -31 -76.5 -97 q-22.5 -66 -37.5 -200 l-47 0 q6 46 6 127 q0 108 -14 242 l37 0 q143 0 220 137 q77 137 106.5 327 q29.5 190 52.5 493 l2 30 q2 34 2 46 q0 52 -14.5 78.5 q-14.5 26.5 -49.5 37.5 q-35 11 -104 14 l0 41 q86 -6 211 -6 q2 0 71 3 q33 3 68 3 q72 0 138 -3 q141 -3 155 -3 q157 0 244 6 l0 -41 q-74 -3 -107.5 -16 q-33.5 -13 -46 -48 q-12.5 -35 -12.5 -112 l0 -811 q0 -77 12.5 -113.5 q12.5 -36.5 47 -49.5 q34.5 -13 106.5 -13 l63 0 ZM788 1028 q0 79 -11 115 q-11 36 -40 48.5 q-29 12.5 -94 12.5 l-27 0 q-64 0 -91.5 -13.5 q-27.5 -13.5 -37 -47 q-9.5 -33.5 -16.5 -115.5 q-7 -61 -16 -172 q-19 -216 -41 -360.5 q-22 -144.5 -75 -271.5 q-53 -127 -147 -183 l431 0 q72 0 106 13 q34 13 46.5 49.5 q12.5 36.5 12.5 113.5 l0 811 Z" /><glyph glyph-name="uni0436" unicode="&#x436;" d="M1970 102 q-30 -44 -58 -71.5 q-28 -27.5 -67 -43.5 q-39 -16 -94 -16 q-54 0 -92.5 16.5 q-38.5 16.5 -71 65 q-32.5 48.5 -55.5 140.5 l-55 213 q-24 81 -48.5 125.5 q-24.5 44.5 -79 71 q-54.5 26.5 -153.5 26.5 l-92 0 l0 -412 q0 -77 12.5 -112 q12.5 -35 46 -48 q33.5 -13 107.5 -16 l0 -41 q-95 6 -260 6 q-177 0 -262 -6 l0 41 q74 3 107.5 16 q33.5 13 46 48 q12.5 35 12.5 112 l0 412 l-107 0 q-100 0 -155 -26.5 q-55 -26.5 -80 -72 q-25 -45.5 -46 -124.5 l-55 -213 q-23 -92 -55.5 -140.5 q-32.5 -48.5 -71 -65 q-38.5 -16.5 -92.5 -16.5 q-73 0 -118 32.5 q-45 32.5 -87 98.5 l31 23 q34 -43 56 -60.5 q22 -17.5 55 -17.5 q28 0 45.5 17.5 q17.5 17.5 29 50.5 q11.5 33 29.5 100 l59 217 q25 97 98 151 q73 54 203 74 l33 4 l-367 398 q-50 52 -87 80.5 q-37 28.5 -73.5 42.5 q-36.5 14 -88.5 24 l0 39 q58 -6 145 -6 q131 0 242 6 l0 -39 q-114 -3 -114 -66 q0 -40 48 -96 l203 -229 q68 -83 129.5 -112.5 q61.5 -29.5 137.5 -33.5 l53 0 l0 359 q0 77 -12.5 112 q-12.5 35 -46 48 q-33.5 13 -107.5 16 l0 41 q85 -6 262 -6 q165 0 260 6 l0 -41 q-74 -3 -107.5 -16 q-33.5 -13 -46 -48 q-12.5 -35 -12.5 -112 l0 -359 l52 0 q76 4 137.5 33.5 q61.5 29.5 129.5 112.5 l203 229 q48 57 48 97 q0 62 -113 65 l0 39 q109 -6 241 -6 q87 0 146 6 l0 -39 q-52 -10 -88.5 -24 q-36.5 -14 -74 -42.5 q-37.5 -28.5 -87.5 -80.5 l-368 -399 l20 -3 q138 -20 214.5 -73.5 q76.5 -53.5 104.5 -151.5 l57 -217 l8 -29 q13 -53 22.5 -79.5 q9.5 -26.5 26.5 -43 q17 -16.5 45 -16.5 q34 0 56 17.5 q22 17.5 55 60.5 l31 -23 Z" /><glyph glyph-name="uni0437" unicode="&#x437;" d="M551 1274 q110 0 193 -31.5 q83 -31.5 128.5 -92 q45.5 -60.5 45.5 -144.5 q0 -96 -56 -166.5 q-56 -70.5 -145.5 -113 q-89.5 -42.5 -194.5 -60.5 q119 -2 227.5 -39.5 q108.5 -37.5 177 -110.5 q68.5 -73 68.5 -176 q0 -115 -61.5 -198 q-61.5 -83 -179 -127 q-117.5 -44 -281.5 -44 q-182 0 -303 74 q-96 61 -96 145 q0 48 30.5 78.5 q30.5 30.5 77.5 30.5 q49 0 81 -30 q32 -30 32 -81 q0 -42 -23.5 -69 q-23.5 -27 -62.5 -35 q14 -20 56 -38 q42 -18 99 -29 q57 -11 115 -11 q103 0 174 42 q71 42 105.5 113 q34.5 71 34.5 158 q0 123 -61.5 210 q-61.5 87 -172.5 110 q-40 8 -70 8 q-48 -26 -88 -26 q-18 0 -30.5 8.5 q-12.5 8.5 -12.5 25.5 q0 33 43 33 q33 0 91 -12 q85 24 133 63.5 q48 39.5 68 98 q20 58.5 20 147.5 q0 126 -43.5 188 q-43.5 62 -143.5 62 q-92 0 -163 -50 q-71 -50 -113 -137.5 q-42 -87.5 -49 -197.5 l-47 0 q0 297 -11 410 l47 0 q8 -49 17 -70 q9 -21 31 -21 q23 0 67 29 q56 34 112 55 q56 21 134 21 Z" /><glyph glyph-name="uni0438" unicode="&#x438;" d="M1464 1204 q-74 -3 -107.5 -16 q-33.5 -13 -46 -48 q-12.5 -35 -12.5 -112 l0 -811 q0 -77 12.5 -112 q12.5 -35 46 -48 q33.5 -13 107.5 -16 l0 -41 q-85 6 -262 6 q-164 0 -260 -6 l0 41 q74 3 107.5 16 q33.5 13 46 48 q12.5 35 12.5 112 l0 763 l-665 -803 q3 -57 17.5 -84.5 q14.5 -27.5 47.5 -38 q33 -10.5 100 -13.5 l0 -41 q-95 6 -260 6 q-177 0 -262 -6 l0 41 q74 3 107.5 16 q33.5 13 46 48 q12.5 35 12.5 112 l0 811 q0 77 -12.5 112 q-12.5 35 -46 48 q-33.5 13 -107.5 16 l0 41 q85 -6 262 -6 q165 0 260 6 l0 -41 q-74 -3 -107.5 -16 q-33.5 -13 -46 -48 q-12.5 -35 -12.5 -112 l0 -780 l666 805 q-2 65 -16 95 q-14 30 -47 41.5 q-33 11.5 -103 14.5 l0 41 q96 -6 260 -6 q176 0 262 6 l0 -41 Z" /><glyph glyph-name="uni043A" unicode="&#x43a;" d="M1311 102 q-31 -45 -59 -72 q-28 -27 -68 -43 q-40 -16 -99 -16 q-49 0 -86.5 16 q-37.5 16 -70 65 q-32.5 49 -56.5 141 l-55 213 q-21 79 -46 124.5 q-25 45.5 -80 72 q-55 26.5 -154 26.5 l-95 0 l0 -412 q0 -77 12.5 -112 q12.5 -35 46 -48 q33.5 -13 107.5 -16 l0 -41 q-95 6 -260 6 q-177 0 -262 -6 l0 41 q74 3 107.5 16 q33.5 13 46 48 q12.5 35 12.5 112 l0 811 q0 77 -12.5 112 q-12.5 35 -46 48 q-33.5 13 -107.5 16 l0 41 q85 -6 262 -6 q165 0 260 6 l0 -41 q-74 -3 -107.5 -16 q-33.5 -13 -46 -48 q-12.5 -35 -12.5 -112 l0 -359 q70 5 126.5 33 q56.5 28 119.5 103 l215 239 q49 58 49 97 q0 62 -116 65 l0 39 q109 -6 235 -6 q93 0 152 6 l0 -39 q-53 -10 -90 -24 q-37 -14 -74.5 -42.5 q-37.5 -28.5 -85.5 -80.5 l-363 -393 q36 -2 80 -9 q139 -20 216.5 -73.5 q77.5 -53.5 103.5 -151.5 l57 -217 q18 -70 29 -102 q11 -32 27.5 -49 q16.5 -17 44.5 -17 q34 0 56 17.5 q22 17.5 56 60.5 l31 -23 Z" /><glyph glyph-name="uni043B" unicode="&#x43b;" d="M1249 1204 q-74 -3 -107.5 -16 q-33.5 -13 -46 -48 q-12.5 -35 -12.5 -112 l0 -811 q0 -77 12.5 -112 q12.5 -35 46 -48 q33.5 -13 107.5 -16 l0 -41 q-85 6 -258 6 q-168 0 -264 -6 l0 41 q74 3 107.5 16 q33.5 13 46 48 q12.5 35 12.5 112 l0 811 q0 79 -11 115 q-11 36 -40.5 48.5 q-29.5 12.5 -93.5 12.5 l-27 0 q-64 0 -91.5 -13.5 q-27.5 -13.5 -37.5 -46.5 q-10 -33 -17 -116 l-12 -159 q-20 -290 -47.5 -468.5 q-27.5 -178.5 -101 -304 q-73.5 -125.5 -211.5 -125.5 q-71 0 -125.5 34.5 q-54.5 34.5 -54.5 105.5 q0 52 33.5 84 q33.5 32 86.5 32 q47 0 76 -24.5 q29 -24.5 29 -69.5 q0 -70 -88 -121 q18 -2 49 -2 q122 0 187 142.5 q65 142.5 89 340.5 q24 198 42 514 l1 21 q2 34 2 47 q0 52 -14 78 q-14 26 -49 37 q-35 11 -105 14 l0 41 q87 -6 199 -6 q19 0 94 3 q38 3 88 3 q50 0 107 -3 q138 -3 164 -3 q150 0 235 6 l0 -41 Z" /><glyph glyph-name="uni043F" unicode="&#x43f;" d="M1423 1204 q-74 -3 -107.5 -16 q-33.5 -13 -46 -48 q-12.5 -35 -12.5 -112 l0 -811 q0 -77 12.5 -112 q12.5 -35 46 -48 q33.5 -13 107.5 -16 l0 -41 q-85 6 -262 6 q-164 0 -260 -6 l0 41 q74 3 107.5 16 q33.5 13 46 48 q12.5 35 12.5 112 l0 811 q0 78 -12.5 114 q-12.5 36 -46.5 49 q-34 13 -107 13 l-293 0 q-73 0 -107 -13 q-34 -13 -46.5 -49 q-12.5 -36 -12.5 -114 l0 -811 q0 -77 12.5 -112 q12.5 -35 46 -48 q33.5 -13 107.5 -16 l0 -41 q-94 6 -260 6 q-176 0 -262 -6 l0 41 q74 3 107.5 16 q33.5 13 46 48 q12.5 35 12.5 112 l0 811 q0 77 -12.5 112 q-12.5 35 -46 48 q-33.5 13 -107.5 16 l0 41 q85 -6 262 -6 q96 0 254 4 q122 2 156 2 q34 0 154 -2 q154 -4 249 -4 q177 0 262 6 l0 -41 Z" /><glyph glyph-name="uni0443" unicode="&#x443;" d="M1104 1239 q80 0 158 6 l0 -43 q-33 -9 -63 -41.5 q-30 -32.5 -69 -97.5 l-436 -735 l-94 -160 q-60 -104 -113 -145 q-66 -52 -155 -52 q-64 0 -104 32.5 q-40 32.5 -40 90.5 q0 49 31 79 q31 30 78 30 q45 0 74.5 -25.5 q29.5 -25.5 29.5 -71.5 q0 -58 -55 -90 q4 -2 12 -2 q104 0 193 154 l65 110 l-481 809 q-69 115 -119 115 l0 43 q111 -6 183 -6 q155 0 284 6 l0 -43 q-70 0 -107 -11 q-37 -11 -37 -51 q0 -34 36 -96 l347 -588 l304 519 q47 81 47 132 q0 86 -143 95 l0 43 q117 -6 174 -6 Z" /><glyph glyph-name="uni0444" unicode="&#x444;" d="M1524 635 q0 -142 -80 -254 q-80 -112 -225 -180.5 q-145 -68.5 -334 -82.5 l0 -44 q0 -77 12.5 -112 q12.5 -35 46 -48 q33.5 -13 107.5 -16 l0 -41 q-96 6 -260 6 q-176 0 -263 -6 l0 41 q74 3 107.5 16 q33.5 13 46 48 q12.5 35 12.5 112 l0 44 q-194 13 -336.5 76 q-142.5 63 -220.5 174 q-78 111 -78 263 q0 136 79.5 243.5 q79.5 107.5 223.5 172.5 q144 65 332 79 l0 45 q0 77 -12.5 112 q-12.5 35 -45.5 48 q-33 13 -108 17 l0 41 q81 -7 263 -7 q170 0 260 7 l0 -41 q-75 -4 -108 -17 q-33 -13 -45.5 -48 q-12.5 -35 -12.5 -112 l0 -44 q195 -12 338.5 -72 q143.5 -60 222 -167 q78.5 -107 78.5 -253 ZM264 639 q0 -130 55 -231.5 q55 -101.5 152.5 -165 q97.5 -63.5 222.5 -82.5 l0 929 q-130 -16 -227.5 -77.5 q-97.5 -61.5 -150 -158 q-52.5 -96.5 -52.5 -214.5 ZM1319 627 q0 125 -55.5 222.5 q-55.5 97.5 -154 158.5 q-98.5 61 -224.5 79 l0 -930 q131 16 229.5 80 q98.5 64 151.5 164.5 q53 100.5 53 225.5 Z" /><glyph glyph-name="uni0447" unicode="&#x447;" d="M1257 1204 q-74 -3 -107 -16 q-33 -13 -45.5 -48 q-12.5 -35 -12.5 -112 l0 -811 q0 -77 12.5 -112 q12.5 -35 45.5 -48 q33 -13 107 -16 l0 -41 q-85 6 -264 6 q-191 0 -299 -6 l0 41 q91 3 133 16 q42 13 58 48 q16 35 16 112 l0 333 q-64 -32 -155 -53.5 q-91 -21.5 -185 -21.5 q-171 0 -266 72 q-56 42 -77 103 q-21 61 -21 171 l0 234 q0 57 -15.5 89 q-15.5 32 -49 45 q-33.5 13 -91.5 13 l0 43 l27 -1 q128 -7 225 -7 q84 0 201 7 l28 1 l0 -43 q-51 0 -79.5 -13 q-28.5 -13 -42 -45 q-13.5 -32 -13.5 -89 l0 -279 q0 -82 18 -131 q18 -49 73 -76.5 q55 -27.5 163 -27.5 q152 0 260 45 l0 442 q0 77 -12.5 112 q-12.5 35 -46 48 q-33.5 13 -107.5 16 l0 41 q87 -6 258 -6 q170 0 264 6 l0 -41 Z" /><glyph glyph-name="uni0446" unicode="&#x446;" d="M1393 1204 q-74 -3 -107.5 -16 q-33.5 -13 -46 -48 q-12.5 -35 -12.5 -112 l0 -811 q0 -77 12.5 -113.5 q12.5 -36.5 46.5 -49.5 q34 -13 107 -13 l63 0 q-14 -134 -14 -242 q0 -81 6 -127 l-47 0 q-15 134 -37.5 200 q-22.5 66 -76.5 97 q-54 31 -161 31 l-368 0 q-34 0 -156 2 q-158 4 -254 4 q-176 0 -262 -6 l0 41 q74 3 107.5 16 q33.5 13 46 48 q12.5 35 12.5 112 l0 811 q0 77 -12.5 112 q-12.5 35 -46 48 q-33.5 13 -107.5 16 l0 41 q85 -6 262 -6 q166 0 260 6 l0 -41 q-74 -3 -107.5 -16 q-33.5 -13 -46 -48 q-12.5 -35 -12.5 -112 l0 -811 q0 -77 12.5 -113.5 q12.5 -36.5 47 -49.5 q34.5 -13 106.5 -13 l262 0 q73 0 107 13 q34 13 46.5 49.5 q12.5 36.5 12.5 113.5 l0 811 q0 77 -12.5 112 q-12.5 35 -46 48 q-33.5 13 -107.5 16 l0 41 q96 -6 260 -6 q176 0 263 6 l0 -41 Z" /><glyph glyph-name="uni0448" unicode="&#x448;" d="M1915 1204 q-74 -3 -107.5 -16 q-33.5 -13 -46 -48 q-12.5 -35 -12.5 -112 l0 -811 q0 -77 12.5 -112 q12.5 -35 46 -48 q33.5 -13 107.5 -16 l0 -41 q-86 6 -262 6 q-78 0 -159 -3 q-174 -3 -175 -3 q-83 0 -199 4 q-88 2 -116 2 q-29 0 -121 -2 q-120 -4 -203 -4 q-7 0 -178 3 q-79 3 -154 3 q-176 0 -262 -6 l0 41 q74 3 107.5 16 q33.5 13 46 48 q12.5 35 12.5 112 l0 811 q0 77 -12.5 112 q-12.5 35 -46 48 q-33.5 13 -107.5 16 l0 41 q85 -6 262 -6 q150 0 240 6 l0 -41 q-65 -3 -94.5 -16 q-29.5 -13 -40.5 -48 q-11 -35 -11 -112 l0 -811 q0 -77 12.5 -113.5 q12.5 -36.5 47 -49.5 q34.5 -13 106.5 -13 l131 0 q73 0 107 13 q34 13 46.5 49.5 q12.5 36.5 12.5 113.5 l0 811 q0 78 -10.5 112.5 q-10.5 34.5 -39.5 47.5 q-29 13 -95 16 l0 41 q89 -6 239 -6 q163 0 242 6 l0 -41 q-66 -3 -95 -16 q-29 -13 -39.5 -47.5 q-10.5 -34.5 -10.5 -112.5 l0 -811 q0 -77 12.5 -113.5 q12.5 -36.5 46.5 -49.5 q34 -13 107 -13 l131 0 q72 0 106.5 13 q34.5 13 47 49.5 q12.5 36.5 12.5 113.5 l0 811 q0 78 -10.5 112.5 q-10.5 34.5 -40 47.5 q-29.5 13 -95.5 16 l0 41 q90 -6 240 -6 q177 0 262 6 l0 -41 Z" /><glyph glyph-name="uni0449" unicode="&#x449;" d="M1915 1204 q-74 -3 -107.5 -16 q-33.5 -13 -46 -48 q-12.5 -35 -12.5 -112 l0 -811 q0 -77 12.5 -113.5 q12.5 -36.5 47 -49.5 q34.5 -13 106.5 -13 l63 0 q-14 -134 -14 -242 q0 -81 6 -127 l-47 0 q-15 134 -37.5 200 q-22.5 66 -76 97 q-53.5 31 -160.5 31 l-330 0 q-83 0 -199 4 q-88 2 -116 2 q-29 0 -121 -2 q-120 -4 -203 -4 q-7 0 -178 3 q-79 3 -154 3 q-176 0 -262 -6 l0 41 q74 3 107.5 16 q33.5 13 46 48 q12.5 35 12.5 112 l0 811 q0 77 -12.5 112 q-12.5 35 -46 48 q-33.5 13 -107.5 16 l0 41 q85 -6 262 -6 q150 0 240 6 l0 -41 q-65 -3 -94.5 -16 q-29.5 -13 -40.5 -48 q-11 -35 -11 -112 l0 -811 q0 -77 12.5 -113.5 q12.5 -36.5 47 -49.5 q34.5 -13 106.5 -13 l131 0 q73 0 107 13 q34 13 46.5 49.5 q12.5 36.5 12.5 113.5 l0 811 q0 78 -10.5 112.5 q-10.5 34.5 -39.5 47.5 q-29 13 -95 16 l0 41 q89 -6 239 -6 q163 0 242 6 l0 -41 q-66 -3 -95 -16 q-29 -13 -39.5 -47.5 q-10.5 -34.5 -10.5 -112.5 l0 -811 q0 -77 12.5 -113.5 q12.5 -36.5 46.5 -49.5 q34 -13 107 -13 l131 0 q72 0 106.5 13 q34.5 13 47 49.5 q12.5 36.5 12.5 113.5 l0 811 q0 78 -10.5 112.5 q-10.5 34.5 -40 47.5 q-29.5 13 -95.5 16 l0 41 q90 -6 240 -6 q177 0 262 6 l0 -41 Z" /><glyph glyph-name="uni045F" unicode="&#x45f;" d="M1395 1204 q-74 -3 -107.5 -16 q-33.5 -13 -46 -48 q-12.5 -35 -12.5 -112 l0 -811 q0 -77 12.5 -112 q12.5 -35 46 -48 q33.5 -13 107.5 -16 l0 -41 q-87 6 -262 6 q-66 0 -176 -2 q-71 -7 -107.5 -42.5 q-36.5 -35.5 -53 -101 q-16.5 -65.5 -28.5 -188.5 l-47 0 q-12 123 -28 188 q-16 65 -53 100.5 q-37 35.5 -107 43.5 q-118 2 -185 2 q-176 0 -262 -6 l0 41 q74 3 107.5 16 q33.5 13 46 48 q12.5 35 12.5 112 l0 811 q0 77 -12.5 112 q-12.5 35 -46 48 q-33.5 13 -107.5 16 l0 41 q85 -6 262 -6 q166 0 260 6 l0 -41 q-74 -3 -107.5 -16 q-33.5 -13 -46 -48 q-12.5 -35 -12.5 -112 l0 -811 q0 -77 12 -113.5 q12 -36.5 43.5 -49.5 q31.5 -13 96.5 -13 l278 0 q73 0 107 13 q34 13 46.5 49.5 q12.5 36.5 12.5 113.5 l0 811 q0 77 -12.5 112 q-12.5 35 -46 48 q-33.5 13 -107.5 16 l0 41 q96 -6 261 -6 q175 0 262 6 l0 -41 Z" /><glyph glyph-name="uni044C" unicode="&#x44c;" d="M600 678 q274 -3 386 -96.5 q112 -93.5 112 -235.5 q0 -105 -54.5 -182.5 q-54.5 -77.5 -161 -119.5 q-106.5 -42 -257.5 -42 l-80 1 q-174 3 -209 3 q-164 0 -250 -6 l0 41 q74 3 107.5 15.5 q33.5 12.5 46 47.5 q12.5 35 12.5 113 l0 811 q0 77 -12.5 112 q-12.5 35 -46 48 q-33.5 13 -107.5 16 l0 41 q85 -6 262 -6 q166 0 260 6 l0 -41 q-74 -3 -107.5 -16 q-33.5 -13 -46 -48 q-12.5 -35 -12.5 -112 l0 -348 l158 -2 ZM573 41 q170 0 245 75.5 q75 75.5 75 223.5 q0 92 -26 157 q-26 65 -95 103.5 q-69 38.5 -192 38.5 l-138 0 l0 -422 q0 -73 10.5 -110 q10.5 -37 38 -51.5 q27.5 -14.5 82.5 -14.5 Z" /><glyph glyph-name="uni044A" unicode="&#x44a;" d="M918 678 q274 -3 385.5 -96.5 q111.5 -93.5 111.5 -235.5 q0 -105 -54.5 -182.5 q-54.5 -77.5 -161 -119.5 q-106.5 -42 -257.5 -42 l-80 1 q-174 3 -209 3 q-163 0 -250 -6 l0 41 q75 3 108 15.5 q33 12.5 45.5 47.5 q12.5 35 12.5 113 l0 981 l-151 0 q-111 0 -170 -34 q-59 -34 -86 -110 q-27 -76 -39 -218 l-47 0 q6 65 6 168 q0 107 -14 241 q176 -6 598 -6 q164 0 260 6 l0 -41 q-74 -3 -107.5 -16 q-33.5 -13 -46 -48 q-12.5 -35 -12.5 -112 l0 -348 l158 -2 ZM891 41 q169 0 244 75.5 q75 75.5 75 223.5 q0 92 -26 157 q-26 65 -95 103.5 q-69 38.5 -192 38.5 l-137 0 l0 -422 q0 -73 10 -110 q10 -37 37.5 -51.5 q27.5 -14.5 83.5 -14.5 Z" /><glyph glyph-name="uni044B" unicode="&#x44b;" d="M600 678 q274 -3 386 -96.5 q112 -93.5 112 -235.5 q0 -105 -54.5 -182.5 q-54.5 -77.5 -161 -119.5 q-106.5 -42 -257.5 -42 l-80 1 q-174 3 -209 3 q-164 0 -250 -6 l0 41 q74 3 107.5 15.5 q33.5 12.5 46 47.5 q12.5 35 12.5 113 l0 811 q0 77 -12.5 112 q-12.5 35 -46 48 q-33.5 13 -107.5 16 l0 41 q85 -6 262 -6 q166 0 260 6 l0 -41 q-74 -3 -107.5 -16 q-33.5 -13 -46 -48 q-12.5 -35 -12.5 -112 l0 -348 l158 -2 ZM1645 1204 q-74 -3 -107.5 -16 q-33.5 -13 -46 -48 q-12.5 -35 -12.5 -112 l0 -811 q0 -77 12.5 -112 q12.5 -35 46 -48 q33.5 -13 107.5 -16 l0 -41 q-96 6 -261 6 q-175 0 -262 -6 l0 41 q74 3 107.5 16 q33.5 13 46 48 q12.5 35 12.5 112 l0 811 q0 77 -12.5 112 q-12.5 35 -46 48 q-33.5 13 -107.5 16 l0 41 q87 -6 262 -6 q165 0 261 6 l0 -41 ZM573 41 q170 0 245 75.5 q75 75.5 75 223.5 q0 92 -26 157 q-26 65 -95 103.5 q-69 38.5 -192 38.5 l-138 0 l0 -422 q0 -73 10.5 -110 q10.5 -37 38 -51.5 q27.5 -14.5 82.5 -14.5 Z" /><glyph glyph-name="uni0459" unicode="&#x459;" d="M1278 678 q274 -1 386 -95 q112 -94 112 -237 q0 -164 -128 -255 q-128 -91 -399 -91 q-34 0 -94 4 q-98 2 -164 2 q-168 0 -264 -6 l0 41 q74 3 107.5 16 q33.5 13 46 48 q12.5 35 12.5 112 l0 811 q0 79 -11 115 q-11 36 -40.5 48.5 q-29.5 12.5 -93.5 12.5 l-27 0 q-64 0 -91.5 -13.5 q-27.5 -13.5 -37.5 -46.5 q-10 -33 -17 -116 l-12 -159 q-20 -290 -47.5 -468.5 q-27.5 -178.5 -101 -304 q-73.5 -125.5 -211.5 -125.5 q-71 0 -125.5 34.5 q-54.5 34.5 -54.5 105.5 q0 52 33.5 84 q33.5 32 86.5 32 q47 0 76 -24.5 q29 -24.5 29 -69.5 q0 -70 -88 -121 q18 -2 49 -2 q122 0 187 142.5 q65 142.5 89 340.5 q24 198 42 514 l1 21 q2 34 2 47 q0 52 -14 78 q-14 26 -49 37 q-35 11 -105 14 l0 41 q87 -6 199 -6 q19 0 94 3 q38 3 88 3 q50 0 107 -3 q138 -3 164 -3 q150 0 235 6 l0 -41 q-74 -3 -107.5 -16 q-33.5 -13 -46 -48 q-12.5 -35 -12.5 -112 l0 -349 l195 -1 ZM1249 41 q171 0 246.5 75.5 q75.5 75.5 75.5 223.5 q0 92 -26 157 q-26 65 -95.5 103.5 q-69.5 38.5 -192.5 38.5 l-174 0 l0 -422 q0 -77 12.5 -112 q12.5 -35 46 -48 q33.5 -13 107.5 -16 Z" /><glyph glyph-name="uni045A" unicode="&#x45a;" d="M1417 678 q275 -3 386.5 -96 q111.5 -93 111.5 -236 q0 -105 -54.5 -182.5 q-54.5 -77.5 -161 -119.5 q-106.5 -42 -257.5 -42 l-80 1 q-174 3 -209 3 q-163 0 -250 -6 l0 41 q74 3 107.5 15.5 q33.5 12.5 46 47.5 q12.5 35 12.5 113 l0 422 l-627 0 l0 -422 q0 -77 12.5 -112 q12.5 -35 46 -48 q33.5 -13 107.5 -16 l0 -41 q-94 6 -260 6 q-176 0 -262 -6 l0 41 q74 3 107.5 16 q33.5 13 46 48 q12.5 35 12.5 112 l0 811 q0 77 -12.5 112 q-12.5 35 -46 48 q-33.5 13 -107.5 16 l0 41 q85 -6 262 -6 q166 0 260 6 l0 -41 q-74 -3 -107.5 -16 q-33.5 -13 -46 -48 q-12.5 -35 -12.5 -112 l0 -348 l627 0 l0 348 q0 77 -12.5 112 q-12.5 35 -46 48 q-33.5 13 -107.5 16 l0 41 q87 -6 262 -6 q165 0 260 6 l0 -41 q-74 -3 -107 -16 q-33 -13 -45.5 -48 q-12.5 -35 -12.5 -112 l0 -348 l157 -2 ZM1391 41 q169 0 244 75.5 q75 75.5 75 223.5 q0 92 -26 157 q-26 65 -95 103.5 q-69 38.5 -192 38.5 l-137 0 l0 -422 q0 -73 10 -110 q10 -37 37.5 -51.5 q27.5 -14.5 83.5 -14.5 Z" /><glyph glyph-name="uni0454" unicode="&#x454;" d="M1182 451 q0 -323 8 -451 l-47 0 q-10 124 -51 124 q-16 0 -41 -20 q-60 -48 -102 -74 q-42 -26 -100.5 -42.5 q-58.5 -16.5 -139.5 -16.5 q-174 0 -309.5 75.5 q-135.5 75.5 -212 218.5 q-76.5 143 -76.5 339 q0 198 78 350.5 q78 152.5 215 236 q137 83.5 309 83.5 q75 0 130 -16.5 q55 -16.5 95 -42.5 q40 -26 98 -74 q25 -20 40 -20 q42 0 52 124 l48 0 q-9 -118 -9 -430 l-47 0 q-18 99 -39.5 155 q-21.5 56 -62.5 107 q-124 156 -301 156 q-122 0 -213 -74 q-91 -74 -140 -211.5 q-49 -137.5 -49 -322.5 l0 -17 q35 58 95 89.5 q60 31.5 129 31.5 q48 0 87 -14 q39 -14 90 -42 q49 -26 84 -39 q35 -13 77 -13 q51 0 94 21.5 q43 21.5 61 66.5 l29 -13 q-27 -86 -97.5 -133 q-70.5 -47 -158.5 -47 q-52 0 -91.5 14.5 q-39.5 14.5 -91.5 43.5 q-49 27 -83.5 40 q-34.5 13 -79.5 13 q-97 0 -142 -69 q9 -176 65 -299 q56 -123 145.5 -185 q89.5 -62 199.5 -62 q88 0 172.5 39.5 q84.5 39.5 140.5 114.5 q37 48 59 114 q22 66 36 171 l47 0 Z" /><glyph glyph-name="uni044D" unicode="&#x44d;" d="M618 1274 q173 0 310 -83.5 q137 -83.5 215 -236 q78 -152.5 78 -350.5 q0 -196 -76.5 -339 q-76.5 -143 -212 -218.5 q-135.5 -75.5 -309.5 -75.5 q-81 0 -139.5 16.5 q-58.5 16.5 -101 43 q-42.5 26.5 -101.5 73.5 q-25 20 -41 20 q-21 0 -33.5 -30 q-12.5 -30 -18.5 -94 l-47 0 q9 144 9 451 l47 0 q13 -98 34 -165 q21 -67 60 -120 q56 -75 140.5 -114.5 q84.5 -39.5 172.5 -39.5 q117 0 210.5 70.5 q93.5 70.5 147.5 208.5 q54 138 54 334 l-1 38 q-33 -58 -93.5 -90 q-60.5 -32 -128.5 -32 q-47 0 -84 13.5 q-37 13.5 -89 41.5 q-48 25 -83 38 q-35 13 -76 13 q-50 0 -92 -21.5 q-42 -21.5 -60 -64.5 l-28 10 q26 85 95.5 131 q69.5 46 155.5 46 q51 0 89 -14.5 q38 -14.5 90 -42.5 q48 -26 81 -39 q33 -13 76 -13 q101 0 145 76 q-12 159 -63.5 276 q-51.5 117 -135.5 179.5 q-84 62.5 -193 62.5 q-90 0 -172 -41.5 q-82 -41.5 -138 -114.5 q-68 -88 -100 -262 l-47 0 q0 307 -8 430 l47 0 q10 -124 52 -124 q17 0 40 20 q58 48 98 74 q40 26 95 42.5 q55 16.5 130 16.5 Z" /><glyph glyph-name="uni044E" unicode="&#x44e;" d="M1268 1274 q170 0 298 -75.5 q128 -75.5 198.5 -219.5 q70.5 -144 70.5 -344 q0 -195 -73 -346 q-73 -151 -202.5 -234.5 q-129.5 -83.5 -293.5 -83.5 q-170 0 -298.5 75.5 q-128.5 75.5 -199 219.5 q-70.5 144 -70.5 344 l0 15 l-256 0 l0 -408 q0 -77 12.5 -112 q12.5 -35 46 -48 q33.5 -13 107.5 -16 l0 -41 q-95 6 -260 6 q-177 0 -262 -6 l0 41 q74 3 107.5 16 q33.5 13 46 48 q12.5 35 12.5 112 l0 811 q0 77 -12.5 112 q-12.5 35 -46 48 q-33.5 13 -107.5 16 l0 41 q85 -6 262 -6 q165 0 260 6 l0 -41 q-74 -3 -107.5 -16 q-33.5 -13 -46 -48 q-12.5 -35 -12.5 -112 l0 -362 l258 0 q10 181 85.5 319 q75.5 138 200.5 213.5 q125 75.5 282 75.5 ZM1274 8 q107 0 187.5 78.5 q80.5 78.5 124.5 219 q44 140.5 44 321.5 q0 182 -49.5 320.5 q-49.5 138.5 -134 214 q-84.5 75.5 -186.5 75.5 q-107 0 -188 -78.5 q-81 -78.5 -125 -219 q-44 -140.5 -44 -321.5 q0 -182 49.5 -321 q49.5 -139 134 -214 q84.5 -75 187.5 -75 Z" /><glyph glyph-name="uni044F" unicode="&#x44f;" d="M1208 1204 q-75 -3 -108 -15.5 q-33 -12.5 -45.5 -47.5 q-12.5 -35 -12.5 -113 l0 -811 q0 -77 12.5 -112 q12.5 -35 46 -48 q33.5 -13 107.5 -16 l0 -41 q-86 6 -262 6 q-164 0 -260 -6 l0 41 q74 3 107.5 16 q33.5 13 46 48 q12.5 35 12.5 112 l0 348 l-137 0 q-74 0 -122 -14.5 q-48 -14.5 -80.5 -55 q-32.5 -40.5 -51.5 -118.5 l-62 -250 q-39 -156 -211 -156 q-70 0 -119.5 29.5 q-49.5 29.5 -88.5 85.5 l28 27 q62 -70 113 -70 q31 0 50 29.5 q19 29.5 36 101.5 l43 180 q18 74 54 118.5 q36 44.5 87 67 q51 22.5 123 33.5 q26 4 39 5 q-132 19 -211.5 72.5 q-79.5 53.5 -112 121 q-32.5 67.5 -32.5 135.5 q0 105 54.5 180.5 q54.5 75.5 160.5 115.5 q106 40 258 40 l81 -1 q171 -3 207 -3 q164 0 250 6 l0 -41 ZM401 905 q0 -92 26.5 -157 q26.5 -65 95.5 -103.5 q69 -38.5 192 -38.5 l137 0 l0 422 q0 73 -10.5 110 q-10.5 37 -38 51.5 q-27.5 14.5 -82.5 14.5 q-170 0 -245 -75 q-75 -75 -75 -224 Z" /><glyph glyph-name="uni0452" unicode="&#x452;" d="M1090 694 q101 0 190.5 -40 q89.5 -40 145 -121.5 q55.5 -81.5 55.5 -198.5 q0 -119 -56.5 -201 q-56.5 -82 -143.5 -122 q-87 -40 -179 -40 q-64 0 -123 19.5 q-59 19.5 -97 59 q-38 39.5 -38 97.5 q0 50 28 80.5 q28 30.5 78 30.5 q48 0 78.5 -27 q30.5 -27 30.5 -73 q0 -79 -88 -107 q6 -19 37 -34 q31 -15 69 -15 q58 0 105 38.5 q47 38.5 73.5 109 q26.5 70.5 26.5 163.5 q0 145 -67 230.5 q-67 85.5 -197 85.5 q-80 0 -157.5 -31 q-77.5 -31 -119.5 -79 l0 -542 q-98 29 -270 29 q-62 0 -127 -6 l0 41 q91 3 133 18 q42 15 58 54.5 q16 39.5 16 124.5 l0 960 l-131 0 q-111 0 -170 -34 q-59 -34 -86 -110 q-27 -76 -39 -218 l-47 0 q6 64 6 168 q0 107 -14 241 q170 -6 577 -6 q406 0 576 6 q-15 -131 -15 -241 q0 -107 6 -168 l-47 0 q-12 143 -38.5 218.5 q-26.5 75.5 -86 109.5 q-59.5 34 -170.5 34 l-131 0 l0 -637 q58 57 152.5 95 q94.5 38 196.5 38 Z" /><glyph glyph-name="uni045B" unicode="&#x45b;" d="M1364 193 q0 -58 15.5 -89.5 q15.5 -31.5 49 -45 q33.5 -13.5 91.5 -13.5 l0 -43 l-27 1 q-128 7 -225 7 q-88 0 -202 -7 l-28 -1 l0 43 q51 0 80 13 q29 13 42.5 45 q13.5 32 13.5 90 l0 196 q0 82 -18 131.5 q-18 49.5 -73 77 q-55 27.5 -163 27.5 q-94 0 -179 -20 l0 -367 q0 -86 12.5 -125 q12.5 -39 46.5 -54 q34 -15 107 -18 l0 -41 q-94 6 -270 6 q-194 0 -293 -6 l0 41 q91 3 133 18 q42 15 58 54.5 q16 39.5 16 124.5 l0 960 l-193 0 q-71 0 -118.5 -35 q-47.5 -35 -75.5 -114 q-28 -79 -39 -213 l-47 0 q6 64 6 153 q0 122 -14 256 q170 -6 577 -6 q406 0 576 6 q-15 -131 -15 -256 q0 -92 6 -153 l-47 0 q-11 134 -39 213 q-28 79 -75.5 114 q-47.5 35 -118.5 35 l-193 0 l0 -551 q129 43 258 43 q172 0 267 -72 q55 -42 76.5 -103.5 q21.5 -61.5 21.5 -170.5 l0 -151 Z" /><glyph glyph-name="Delta" unicode="&#x394;" d="M963 0 q-225 6 -451 6 q-227 0 -455 -6 l478 1479 l32 0 l396 -1479 ZM741 61 l-286 1049 l-336 -1049 l622 0 Z" /><glyph glyph-name="Omega" unicode="&#x3a9;" d="M731 1479 q189 0 321 -61 q132 -61 200.5 -176 q68.5 -115 68.5 -275 q0 -115 -33 -215.5 q-33 -100.5 -83.5 -183.5 q-50.5 -83 -138.5 -208 q-74 -106 -116.5 -171 q-42.5 -65 -83.5 -142 l99 0 q101 0 161 32.5 q60 32.5 91 106 q31 73.5 43 203.5 l47 0 q-7 -65 -7 -147 q0 -98 15 -242 q-60 6 -209 6 q-72 0 -161 -3 l-130 -3 l0 33 q114 170 207.5 400.5 q93.5 230.5 93.5 492.5 q0 253 -90 384.5 q-90 131.5 -295 131.5 q-204 0 -294.5 -131.5 q-90.5 -131.5 -90.5 -384.5 q0 -262 93.5 -492.5 q93.5 -230.5 207.5 -400.5 l0 -33 l-130 3 q-89 3 -161 3 q-149 0 -209 -6 q15 131 15 242 q0 92 -6 147 l47 0 q11 -130 42 -203.5 q31 -73.5 91 -106 q60 -32.5 162 -32.5 l98 0 q-66 124 -201 314 q-89 126 -138.5 208.5 q-49.5 82.5 -82.5 182.5 q-33 100 -33 215 q0 160 68.5 275 q68.5 115 200.5 176 q132 61 321 61 Z" /><glyph glyph-name="mu" unicode="&#x3bc;" d="M1294 451 q-18 -99 -54 -206.5 q-36 -107.5 -100 -190.5 q-64 -83 -153 -83 q-129 0 -129 184 q0 45 6 91 l2 19 q-54 -126 -136.5 -210 q-82.5 -84 -194.5 -84 q-151 0 -162 189 q-50 -298 -119 -465 q-14 -36 -45 -58 q-31 -22 -74 -22 q-40 0 -62 21.5 q-22 21.5 -22 56.5 q0 32 17.5 61 q17.5 29 58.5 82 q19 21 49 62 q76 101 130.5 241 q54.5 140 74.5 357 q2 120 2 160 q3 283 8 317 q8 59 40 84.5 q32 25.5 73 25.5 q78 0 78 -86 q0 -30 -10.5 -58 q-10.5 -28 -33.5 -74 q-37 -79 -62.5 -147 q-25.5 -68 -46.5 -174 l-21 -200 q7 -82 51.5 -118 q44.5 -36 109.5 -36 q115 0 193 63 q78 63 129 206 l6 48 q2 110 2 149 q3 283 8 317 q9 59 40.5 84.5 q31.5 25.5 72.5 25.5 q78 0 78 -86 q0 -30 -10 -56.5 q-10 -26.5 -34 -75.5 q-38 -76 -66 -151.5 q-28 -75.5 -49 -192.5 q-18 -137 -18 -197 q0 -76 23 -105 q23 -29 78 -29 q83 0 138.5 62.5 q55.5 62.5 94.5 206.5 l39 -8 Z" /><glyph glyph-name="pi" unicode="&#x3c0;" d="M741 344 q-2 -24 -2 -34 q0 -120 103 -120 q83 0 138.5 62.5 q55.5 62.5 94.5 206.5 l39 -8 q-33 -172 -107 -326 q-74 -154 -200 -154 q-129 0 -129 184 q0 45 6 91 l80 635 l-223 0 q-56 -551 -166 -830 q-15 -36 -46 -58 q-31 -22 -73 -22 q-40 0 -62 21.5 q-22 21.5 -22 56.5 q0 32 17.5 61.5 q17.5 29.5 61.5 84.5 l15 18 q59 75 104.5 155 q45.5 80 83.5 208.5 q38 128.5 51 304.5 l-77 0 q-91 0 -150.5 -21 q-59.5 -21 -106.5 -81.5 q-47 -60.5 -85 -178.5 l-35 8 q37 148 97 244.5 q60 96.5 162 148.5 q102 52 261 52 l590 0 l0 -172 l-358 0 l-62 -537 Z" /><glyph glyph-name="zero" unicode="0" d="M625 1083 q143 0 255.5 -67 q112.5 -67 176 -189 q63.5 -122 63.5 -282 q0 -163 -65.5 -294 q-65.5 -131 -183 -205.5 q-117.5 -74.5 -269.5 -74.5 q-142 0 -255 67 q-113 67 -177 189.5 q-64 122.5 -64 284.5 q0 162 64.5 292 q64.5 130 182.5 204.5 q118 74.5 272 74.5 ZM606 1047 q-88 0 -156.5 -63 q-68.5 -63 -106.5 -182.5 q-38 -119.5 -38 -283.5 q0 -176 42 -290.5 q42 -114.5 113.5 -167 q71.5 -52.5 160.5 -52.5 q88 0 156.5 63.5 q68.5 63.5 106.5 183.5 q38 120 38 284 q0 175 -42 289 q-42 114 -113.5 166.5 q-71.5 52.5 -160.5 52.5 Z" /><glyph glyph-name="one" unicode="1" d="M518 211 q0 -66 19.5 -102 q19.5 -36 62 -51 q42.5 -15 115.5 -15 l0 -43 q-10 0 -42 2 q-186 6 -241 6 q-62 0 -266 -6 q-38 -2 -49 -2 l0 43 q109 0 163 36.5 q54 36.5 54 131.5 l0 496 q0 99 -20.5 145 q-20.5 46 -69 61 q-48.5 15 -148.5 15 l0 45 q150 3 247.5 26.5 q97.5 23.5 174.5 77.5 l0 -866 Z" /><glyph glyph-name="two" unicode="2" d="M500 1083 q143 0 225 -67.5 q82 -67.5 82 -190.5 q0 -84 -43.5 -163 q-43.5 -79 -106.5 -145 q-63 -66 -165 -157 q-145 -130 -199 -202 l416 0 q56 0 83 9.5 q27 9.5 38 30.5 q11 21 16 64 l35 0 q0 -188 8 -272 q-46 10 -305 10 l-480 0 l0 35 q32 35 120 117 q119 111 195.5 196 q76.5 85 132.5 196 q56 111 56 236 q0 221 -205 221 q-167 0 -274 -192 l-33 18 q54 112 153 184 q99 72 251 72 Z" /><glyph glyph-name="three" unicode="3" d="M465 1083 q85 0 152 -28 q67 -28 105 -81 q38 -53 38 -124 q0 -76 -42.5 -143 q-42.5 -67 -112 -116.5 q-69.5 -49.5 -150.5 -78.5 q100 -2 186 -37 q86 -35 139.5 -104 q53.5 -69 53.5 -170 q0 -149 -113 -265.5 q-113 -116.5 -289.5 -180.5 q-176.5 -64 -355.5 -64 l0 37 q145 3 274 59.5 q129 56.5 209 162.5 q80 106 80 251 q0 79 -26.5 142.5 q-26.5 63.5 -76 101 q-49.5 37.5 -114.5 42.5 q-9 -4 -32 -13 q-23 -9 -38 -13 q-15 -4 -26 -4 q-33 0 -33 26 q0 18 15 28.5 q15 10.5 38 10.5 q13 0 39 -4 l33 -4 q80 61 118.5 137 q38.5 76 38.5 158 q0 94 -46.5 139 q-46.5 45 -131.5 45 q-86 0 -156 -45.5 q-70 -45.5 -116 -136.5 l-35 16 q118 256 375 256 Z" /><glyph glyph-name="four" unicode="4" d="M938 100 q-31 8 -205 10 l0 -399 l-164 0 l0 400 l-534 0 l0 43 l665 929 l33 0 l0 -835 l25 0 q56 0 83 9.5 q27 9.5 38 30.5 q11 21 16 64 l35 0 q0 -172 8 -252 ZM569 832 l-413 -584 l413 0 l0 584 Z" /><glyph glyph-name="five" unicode="5" d="M684 1157 q0 -208 8 -299 q-44 10 -284 10 l-218 0 l-24 -395 q56 29 110 45.5 q54 16.5 130 16.5 q120 0 201 -40.5 q81 -40.5 121 -112 q40 -71.5 40 -163.5 q0 -152 -99.5 -271 q-99.5 -119 -256.5 -185 q-157 -66 -320 -66 l0 37 q125 1 235 54 q110 53 178 158 q68 105 68 253 q0 130 -67 202 q-67 72 -191 72 q-50 0 -85 -8 q-35 -8 -83 -27 l-20 13 l39 610 q41 -8 110 -8 l232 0 q56 0 83 9.5 q27 9.5 37.5 30.5 q10.5 21 16.5 64 l39 0 Z" /><glyph glyph-name="six" unicode="6" d="M612 897 q98 0 182.5 -53 q84.5 -53 135.5 -154 q51 -101 51 -239 q0 -149 -60.5 -258 q-60.5 -109 -163 -165.5 q-102.5 -56.5 -227.5 -56.5 q-130 0 -223.5 68.5 q-93.5 68.5 -143.5 199.5 q-50 131 -50 314 q0 287 109 486 q109 199 267.5 305 q158.5 106 317.5 137 l8 -41 q-125 -40 -224.5 -110.5 q-99.5 -70.5 -175.5 -216.5 q-76 -146 -97 -384 q47 87 129.5 127.5 q82.5 40.5 164.5 40.5 ZM551 12 q64 0 116 44 q52 44 83.5 139 q31.5 95 31.5 241 q0 208 -61 305 q-61 97 -160 97 q-72 0 -142.5 -42.5 q-70.5 -42.5 -104.5 -134.5 q-3 -49 -3 -104 q0 -203 34.5 -324.5 q34.5 -121.5 88.5 -171 q54 -49.5 117 -49.5 Z" /><glyph glyph-name="seven" unicode="7" d="M815 1010 q-34 -80 -107 -219 q-79 -151 -129 -264 q-50 -113 -84.5 -257 q-34.5 -144 -33.5 -307 q0 -48 5 -98 q3 -69 3 -64 q0 -46 -26.5 -75 q-26.5 -29 -69.5 -29 q-45 0 -68.5 33 q-23.5 33 -23.5 82 q0 157 47.5 309.5 q47.5 152.5 115.5 281.5 q68 129 180 314 q69 114 97 164 l-485 0 q-56 0 -83.5 -9.5 q-27.5 -9.5 -38 -30.5 q-10.5 -21 -16.5 -65 l-35 0 q0 202 -8 287 q46 -10 305 -10 l455 0 l0 -43 Z" /><glyph glyph-name="eight" unicode="8" d="M627 820 q113 -83 177.5 -139.5 q64.5 -56.5 110.5 -136.5 q46 -80 46 -182 q0 -115 -57 -204 q-57 -89 -158 -138 q-101 -49 -228 -49 q-112 0 -205.5 39 q-93.5 39 -150 116.5 q-56.5 77.5 -56.5 188.5 q0 142 90 252.5 q90 110.5 239 184.5 q-82 66 -137 123 q-55 57 -89.5 128 q-34.5 71 -34.5 156 q0 94 49.5 166.5 q49.5 72.5 135 113 q85.5 40.5 190.5 40.5 q94 0 171 -32.5 q77 -32.5 122 -96 q45 -63.5 45 -152.5 q0 -110 -67.5 -202 q-67.5 -92 -192.5 -176 ZM526 1442 q-54 0 -98 -27 q-44 -27 -69 -76.5 q-25 -49.5 -25 -115.5 q0 -81 34.5 -147 q34.5 -66 89.5 -119 q55 -53 138 -114 q127 121 127 328 q0 124 -51.5 197.5 q-51.5 73.5 -145.5 73.5 ZM530 8 q70 0 128.5 31.5 q58.5 31.5 93 92 q34.5 60.5 34.5 144.5 q0 95 -44 173 q-44 78 -104 134 q-60 56 -172 145 q-179 -131 -179 -382 q0 -145 59 -241.5 q59 -96.5 184 -96.5 Z" /><glyph glyph-name="nine" unicode="9" d="M526 1083 q130 0 224 -63.5 q94 -63.5 144 -185 q50 -121.5 50 -291.5 q0 -261 -109.5 -443 q-109.5 -182 -268.5 -279.5 q-159 -97.5 -316 -123.5 l-8 41 q116 33 211 90.5 q95 57.5 171 174 q76 116.5 105 304.5 q-49 -77 -128 -113 q-79 -36 -157 -36 q-97 0 -181.5 53 q-84.5 53 -135.5 154 q-51 101 -51 239 q0 149 60.5 257.5 q60.5 108.5 163 165 q102.5 56.5 226.5 56.5 ZM496 217 q69 0 137 38.5 q68 38.5 104 122.5 q8 80 8 161 q0 187 -34.5 299.5 q-34.5 112.5 -88 158 q-53.5 45.5 -116.5 45.5 q-64 0 -116.5 -44 q-52.5 -44 -84 -139 q-31.5 -95 -31.5 -241 q0 -208 61.5 -304.5 q61.5 -96.5 160.5 -96.5 Z" /><glyph glyph-name="fraction" unicode="&#x2044;" d="M-508 -113 l-39 27 l1198 1774 l39 -27 l-1198 -1774 Z" /><glyph glyph-name="onesuperior" unicode="¹" d="M365 1038 q0 -40 13.5 -61.5 q13.5 -21.5 42.5 -30 q29 -8.5 81 -8.5 l0 -43 q-78 4 -199 4 q-133 0 -219 -4 l0 43 q76 0 114 21.5 q38 21.5 38 78.5 l0 265 q0 59 -14.5 87 q-14.5 28 -48 37 q-33.5 9 -103.5 9 l0 43 q105 2 172.5 16 q67.5 14 122.5 47 l0 -504 Z" /><glyph glyph-name="twosuperior" unicode="²" d="M356 1546 q93 0 149 -39 q56 -39 56 -114 q0 -54 -29 -102 q-29 -48 -70.5 -85 q-41.5 -37 -110.5 -90 q-90 -70 -122 -104 l271 0 q31 0 49 7.5 q18 7.5 27 21.5 q9 14 20 40 l35 -6 q-28 -104 -31 -184 q-25 6 -78 6 l-450 0 l0 41 q26 23 81 63 q86 65 141.5 114.5 q55.5 49.5 96.5 114 q41 64.5 41 136.5 q0 111 -133 111 q-124 0 -195 -111 l-30 16 q38 71 109.5 117.5 q71.5 46.5 172.5 46.5 Z" /><glyph glyph-name="threesuperior" unicode="³" d="M344 1548 q94 0 150.5 -39 q56.5 -39 56.5 -110 q0 -68 -52.5 -118.5 q-52.5 -50.5 -138.5 -74.5 q64 -1 118.5 -22.5 q54.5 -21.5 87 -63 q32.5 -41.5 32.5 -98.5 q0 -91 -79 -161.5 q-79 -70.5 -202.5 -109 q-123.5 -38.5 -250.5 -38.5 l0 35 q105 3 199 40.5 q94 37.5 151 99 q57 61.5 57 134.5 q0 70 -40.5 114.5 q-40.5 44.5 -108.5 47.5 q7 3 -19 -10 q-36 -19 -55 -19 q-33 0 -33 25 q0 19 23 24.5 q23 5.5 67 3.5 q62 26 88.5 68 q26.5 42 26.5 84 q0 54 -38 86.5 q-38 32.5 -101 32.5 q-61 0 -111.5 -28 q-50.5 -28 -83.5 -83 l-31 16 q38 71 110 117.5 q72 46.5 177 46.5 Z" /><glyph glyph-name="braceleft" unicode="{" d="M569 1563 q-72 -2 -104.5 -31 q-32.5 -29 -45.5 -117.5 q-13 -88.5 -13 -286.5 q0 -174 -39.5 -280 q-39.5 -106 -103 -158 q-63.5 -52 -150.5 -78 q87 -26 150.5 -78 q63.5 -52 103 -158.5 q39.5 -106.5 39.5 -279.5 q0 -205 13 -295 q13 -90 45.5 -118 q32.5 -28 104.5 -29 l0 -39 q-134 0 -208 42.5 q-74 42.5 -107 145.5 q-33 103 -33 293 q0 197 -13 300.5 q-13 103.5 -46 148 q-33 44.5 -96 49.5 l-11 0 l0 37 l11 0 q63 4 96 48 q33 44 46 147.5 q13 103.5 13 301.5 q0 183 33 285 q33 102 107.5 145.5 q74.5 43.5 207.5 43.5 l0 -39 Z" /><glyph glyph-name="bracketleft" unicode="[" d="M373 1542 l0 -1874 l166 0 l0 -39 l-351 0 l0 1952 l351 0 l0 -39 l-166 0 Z" /><glyph glyph-name="parenright" unicode=")" d="M61 1651 q216 -196 333.5 -450 q117.5 -254 117.5 -562 q0 -308 -117.5 -562 q-117.5 -254 -333.5 -450 l-28 27 q167 195 237 430.5 q70 235.5 70 554.5 q0 319 -70 554.5 q-70 235.5 -237 430.5 l28 27 Z" /><glyph glyph-name="emdash" unicode="&#x2014;" d="M121 510 l0 82 l1524 0 l0 -82 l-1524 0 Z" /><glyph glyph-name="endash" unicode="&#x2013;" d="M121 510 l0 82 l928 0 l0 -82 l-928 0 Z" /><glyph glyph-name="hyphen" unicode="-" d="M141 492 l0 118 l740 0 l0 -118 l-740 0 Z" /><glyph glyph-name="softhyphen" unicode="­" d="" /><glyph glyph-name="guillemotleft" unicode="«" d="M571 1069 q-71 -191 -155 -313.5 q-84 -122.5 -197 -220.5 q110 -96 194.5 -225.5 q84.5 -129.5 157.5 -323.5 l-34 -15 q-88 196 -200.5 332 q-112.5 136 -270.5 223 l0 2 q158 88 270.5 223.5 q112.5 135.5 200.5 331.5 l34 -14 ZM930 1069 q-72 -191 -155.5 -313.5 q-83.5 -122.5 -196.5 -220.5 q110 -96 194.5 -225 q84.5 -129 157.5 -324 l-35 -15 q-88 196 -200.5 332 q-112.5 136 -270.5 223 l0 2 q158 88 270.5 223.5 q112.5 135.5 200.5 331.5 l35 -14 Z" /><glyph glyph-name="guillemotright" unicode="»" d="M133 1081 q88 -196 200.5 -331.5 q112.5 -135.5 270.5 -223.5 l0 -2 q-158 -88 -270.5 -223.5 q-112.5 -135.5 -200.5 -331.5 l-35 15 q72 191 155.5 313 q83.5 122 197.5 221 q-110 96 -194.5 225 q-84.5 129 -158.5 324 l35 14 ZM492 1081 q87 -196 199.5 -331.5 q112.5 -135.5 271.5 -223.5 l0 -2 q-159 -88 -271.5 -223.5 q-112.5 -135.5 -199.5 -331.5 l-35 15 q71 190 154.5 312.5 q83.5 122.5 197.5 221.5 q-110 96 -194.5 225.5 q-84.5 129.5 -157.5 323.5 l35 14 Z" /><glyph glyph-name="guilsinglleft" unicode="&#x2039;" d="M571 1069 q-71 -191 -155 -313.5 q-84 -122.5 -197 -220.5 q110 -96 194.5 -225.5 q84.5 -129.5 157.5 -323.5 l-34 -15 q-88 196 -200.5 332 q-112.5 136 -270.5 223 l0 2 q158 88 270.5 223.5 q112.5 135.5 200.5 331.5 l34 -14 Z" /><glyph glyph-name="guilsinglright" unicode="&#x203a;" d="M133 1083 q88 -196 200.5 -331.5 q112.5 -135.5 270.5 -223.5 l0 -2 q-158 -87 -270.5 -223 q-112.5 -136 -200.5 -332 l-35 15 q72 191 155.5 313 q83.5 122 197.5 221 q-110 96 -194.5 225 q-84.5 129 -158.5 324 l35 14 Z" /><glyph glyph-name="quotedblbase" unicode="&#x201e;" d="M258 233 q79 0 121 -65 q35 -54 35 -135 q0 -103 -52.5 -184.5 q-52.5 -81.5 -158.5 -131.5 l-19 37 q64 27 110 84.5 q46 57.5 46 116.5 q0 25 -6 43 q-35 -27 -76 -27 q-56 0 -93.5 35.5 q-37.5 35.5 -37.5 95.5 q0 56 38 93.5 q38 37.5 93 37.5 ZM606 233 q79 0 121 -65 q35 -54 35 -135 q0 -103 -52.5 -184.5 q-52.5 -81.5 -158.5 -131.5 l-19 37 q64 27 110 84.5 q46 57.5 46 116.5 q0 25 -6 43 q-34 -27 -76 -27 q-55 0 -93 35.5 q-38 35.5 -38 95.5 q0 37 18 67 q18 30 48 47 q30 17 65 17 Z" /><glyph glyph-name="asterisk" unicode="*" d="M821 967 q66 -38 66 -88 q0 -18 -10 -35 q-18 -32 -57 -32 q-33 0 -75 24 q-31 18 -63.5 47 q-32.5 29 -86.5 84 l-85 84 l33 -123 q21 -77 29.5 -116.5 q8.5 -39.5 9.5 -72.5 q-1 -57 -24 -83.5 q-23 -26.5 -56 -26.5 q-30 0 -51 26 q-21 26 -21 84 q0 35 8.5 73.5 q8.5 38.5 28.5 115.5 l33 123 q-46 -43 -90 -89 q-52 -53 -84 -82 q-32 -29 -62 -46 q-40 -23 -73 -23 q-43 0 -62 35 q-9 16 -9 31 q0 47 68 88 q30 17 67 29 q37 12 111 31 q92 25 126 35 q-60 18 -121 33 q-76 20 -115.5 32.5 q-39.5 12.5 -69.5 29.5 q-65 39 -65 88 q0 18 10 35 q16 32 56 32 q33 0 75 -24 q31 -18 62 -46 q31 -28 86 -83 q53 -55 88 -88 q-9 39 -31 118 q-20 74 -29.5 117 q-9.5 43 -9.5 78 q0 57 22 84 q22 27 54 27 q31 0 52.5 -27 q21.5 -27 21.5 -84 q0 -35 -8.5 -75 q-8.5 -40 -29.5 -115 q10 40 -32 -121 q34 32 91 89 q99 101 144 128 q42 23 73 23 q44 0 63 -35 q9 -16 9 -31 q0 -49 -69 -88 q-30 -18 -68.5 -30 q-38.5 -12 -109.5 -31 q-65 -16 -126 -34 q41 -12 123 -34 q134 -34 183 -61 Z" /><glyph glyph-name="bullet" unicode="&#x2022;" d="M451 844 q79 0 146 -39.5 q67 -39.5 106.5 -106.5 q39.5 -67 39.5 -147 q0 -80 -39.5 -146.5 q-39.5 -66.5 -106.5 -105.5 q-67 -39 -146 -39 q-80 0 -146.5 39 q-66.5 39 -105.5 105.5 q-39 66.5 -39 146.5 q0 80 39 147 q39 67 105.5 106.5 q66.5 39.5 146.5 39.5 Z" /><glyph glyph-name="comma" unicode="," d="M258 233 q79 0 121 -65 q35 -54 35 -135 q0 -103 -52.5 -184.5 q-52.5 -81.5 -158.5 -131.5 l-19 37 q64 27 110 84.5 q46 57.5 46 116.5 q0 25 -6 43 q-35 -27 -76 -27 q-56 0 -93.5 35.5 q-37.5 35.5 -37.5 95.5 q0 56 38 93.5 q38 37.5 93 37.5 Z" /><glyph glyph-name="exclam" unicode="!" d="M268 1602 q41 0 67.5 -28.5 q26.5 -28.5 26.5 -86.5 q0 -87 -28 -365 q-23 -228 -35 -390.5 q-12 -162.5 -12 -330.5 l-37 0 q0 169 -12.5 337 q-12.5 168 -35.5 384 q-28 278 -28 365 q0 59 26 87 q26 28 68 28 ZM268 233 q35 0 65.5 -17.5 q30.5 -17.5 48 -48 q17.5 -30.5 17.5 -65.5 q0 -35 -17.5 -65 q-17.5 -30 -48 -48 q-30.5 -18 -65.5 -18 q-35 0 -65.5 18 q-30.5 18 -48 48 q-17.5 30 -17.5 65 q0 35 17.5 65.5 q17.5 30.5 48 48 q30.5 17.5 65.5 17.5 Z" /><glyph glyph-name="exclamdown" unicode="¡" d="M256 1083 q35 0 65.5 -17.5 q30.5 -17.5 48 -48 q17.5 -30.5 17.5 -65.5 q0 -35 -17.5 -65 q-17.5 -30 -48 -48 q-30.5 -18 -65.5 -18 q-35 0 -65.5 18 q-30.5 18 -48 48 q-17.5 30 -17.5 65 q0 35 17.5 65.5 q17.5 30.5 48 48 q30.5 17.5 65.5 17.5 ZM272 651 q0 -143 12.5 -285 q12.5 -142 35.5 -326 q28 -237 28 -310 q0 -59 -26 -87 q-26 -28 -68 -28 q-41 0 -67.5 28.5 q-26.5 28.5 -26.5 86.5 q0 73 28 310 q23 184 35.5 326 q12.5 142 12.5 285 l36 0 Z" /><glyph glyph-name="numbersign" unicode="#" d="M832 547 l301 0 l-9 -41 l-300 0 l-58 -299 l-41 0 l58 299 l-342 0 l-58 -299 l-41 0 l58 299 l-302 0 l8 41 l302 0 l66 342 l-300 0 l6 41 l302 0 l59 303 l41 0 l-59 -303 l342 0 l59 303 l41 0 l-59 -303 l300 0 l-6 -41 l-302 0 l-66 -342 ZM515 889 l-66 -342 l342 0 l66 342 l-342 0 Z" /><glyph glyph-name="period" unicode="." d="M258 233 q35 0 65.5 -17.5 q30.5 -17.5 48 -48 q17.5 -30.5 17.5 -65.5 q0 -35 -17.5 -65 q-17.5 -30 -48 -48 q-30.5 -18 -65.5 -18 q-35 0 -65.5 18 q-30.5 18 -48 48 q-17.5 30 -17.5 65 q0 35 17.5 65.5 q17.5 30.5 48 48 q30.5 17.5 65.5 17.5 Z" /><glyph glyph-name="question" unicode="?" d="M440 1602 q128 0 225 -44.5 q97 -44.5 151 -128 q54 -83.5 54 -196.5 q0 -168 -123 -284 q-123 -116 -337 -171 l0 -299 l-41 0 l0 318 q130 48 200 108.5 q70 60.5 94.5 130 q24.5 69.5 24.5 158.5 q0 186 -76.5 276.5 q-76.5 90.5 -210.5 90.5 q-59 0 -113.5 -17 q-54.5 -17 -86.5 -57 q39 -8 62.5 -35.5 q23.5 -27.5 23.5 -69.5 q0 -50 -32.5 -80 q-32.5 -30 -80.5 -30 q-47 0 -77.5 30.5 q-30.5 30.5 -30.5 77.5 q0 83 96 148 q108 74 278 74 ZM391 233 q35 0 65.5 -17.5 q30.5 -17.5 48 -48 q17.5 -30.5 17.5 -65.5 q0 -35 -17.5 -65 q-17.5 -30 -48 -48 q-30.5 -18 -65.5 -18 q-35 0 -65.5 18 q-30.5 18 -48 48 q-17.5 30 -17.5 65 q0 35 17.5 65.5 q17.5 30.5 48 48 q30.5 17.5 65.5 17.5 Z" /><glyph glyph-name="questiondown" unicode="¿" d="M543 1085 q35 0 65.5 -17.5 q30.5 -17.5 48 -48 q17.5 -30.5 17.5 -65.5 q0 -35 -17.5 -65 q-17.5 -30 -48 -48 q-30.5 -18 -65.5 -18 q-35 0 -65.5 18 q-30.5 18 -48 48 q-17.5 30 -17.5 65 q0 35 17.5 65.5 q17.5 30.5 48 48 q30.5 17.5 65.5 17.5 ZM565 379 q-130 -45 -200 -102.5 q-70 -57.5 -94.5 -123.5 q-24.5 -66 -24.5 -151 q0 -176 76 -261 q76 -85 210 -85 q143 0 201 53 q-40 8 -63 34.5 q-23 26.5 -23 70.5 q0 50 32.5 80 q32.5 30 80.5 30 q47 0 77.5 -30.5 q30.5 -30.5 30.5 -77.5 q0 -85 -96 -142 q-101 -59 -278 -59 q-128 0 -225.5 42 q-97.5 42 -151.5 120.5 q-54 78.5 -54 185.5 q0 161 124.5 273 q124.5 112 336.5 161 l0 258 l41 0 l0 -276 Z" /><glyph glyph-name="quotesingle" unicode="&#39;" d="M195 1495 q32 0 52.5 -25.5 q20.5 -25.5 20.5 -68.5 q0 -58 -6 -108.5 q-6 -50.5 -21 -135.5 q-19 -104 -32 -199 l-29 0 q-14 96 -30 188 q-15 88 -22 141 q-7 53 -7 112 q0 43 21 68.5 q21 25.5 53 27.5 Z" /><glyph glyph-name="slash" unicode="/" d="M70 -29 l557 1508 l67 0 l-557 -1508 l-67 0 Z" /><glyph glyph-name="nonbreakingspace" unicode=" " d="" /><glyph glyph-name="uni2009" unicode="&#x2009;" d="" /><glyph glyph-name="nonmarkingreturn" unicode="" d="" /><glyph glyph-name="florin" unicode="&#x192;" d="M694 1417 q0 36 22.5 63.5 q22.5 27.5 65.5 41.5 q-6 19 -36.5 34 q-30.5 15 -71.5 15 q-46 0 -80 -20.5 q-34 -20.5 -53 -55.5 q-17 -30 -25 -79.5 q-8 -49.5 -10 -127.5 q-2 -78 -2 -233 l0 -2 l342 0 l0 -41 l-342 0 l0 -776 q0 -166 -23 -291 q-23 -125 -86 -205 q-47 -61 -114 -93 q-67 -32 -134 -32 q-67 0 -102 31 q-35 31 -35 78 q0 42 26 69 q26 27 70 27 q41 0 67 -26.5 q26 -26.5 26 -65.5 q0 -48 -33 -82 q77 9 110 49 q24 26 33 67 q10 48 10 105 l0 1145 l-245 0 l0 41 l245 0 l0 2 q0 122 10 203 q10 81 32.5 137.5 q22.5 56.5 62.5 103.5 q40 48 104.5 75.5 q64.5 27.5 139.5 27.5 q71 0 126 -25 q55 -25 85 -66.5 q30 -41.5 30 -91.5 q0 -44 -28.5 -74 q-28.5 -30 -75.5 -30 q-50 0 -80.5 27 q-30.5 27 -30.5 75 Z" /><glyph glyph-name="cent" unicode="¢" d="M1157 451 q0 -323 8 -451 l-47 0 q-10 124 -51 124 q-16 0 -41 -20 q-78 -65 -152.5 -99 q-74.5 -34 -179.5 -34 q-79 0 -151 15 l0 -357 l-45 0 l0 367 q-127 36 -219.5 118.5 q-92.5 82.5 -142.5 208 q-50 125.5 -50 287.5 q0 157 51 286.5 q51 129.5 144 218.5 q93 89 217 129 l0 206 l45 0 l0 -194 q72 18 153 18 q69 0 124.5 -17.5 q55.5 -17.5 98 -45.5 q42.5 -28 92.5 -70 q25 -20 40 -20 q42 0 52 124 l48 0 q-9 -118 -9 -430 l-47 0 q-20 107 -40.5 157.5 q-20.5 50.5 -61.5 104.5 q-58 76 -137.5 116 q-79.5 40 -167.5 40 q-78 0 -145 -32 l0 -1151 q74 -38 159 -38 q91 0 174 40 q83 40 139 116 q40 53 59.5 112.5 q19.5 59.5 35.5 170.5 l47 0 ZM290 618 q0 -194 55.5 -331.5 q55.5 -137.5 152.5 -208.5 l0 1096 q-99 -69 -153.5 -212.5 q-54.5 -143.5 -54.5 -343.5 Z" /><glyph glyph-name="currency" unicode="¤" d="M850 858 q86 -109 86 -244 q0 -138 -86 -243 l90 -88 l-57 -60 l-90 90 q-110 -86 -244 -86 q-139 0 -244 84 l-88 -88 l-59 60 l88 88 q-86 105 -86 243 q0 139 88 246 l-90 90 l57 58 l90 -90 q107 86 244 86 q136 0 244 -89 l92 93 l57 -58 l-92 -92 ZM549 928 q-82 0 -152.5 -43 q-70.5 -43 -111.5 -115 q-41 -72 -41 -156 q0 -84 41.5 -155.5 q41.5 -71.5 111.5 -113.5 q70 -42 152 -42 q82 0 151.5 42 q69.5 42 110.5 113.5 q41 71.5 41 155.5 q0 83 -41 155 q-41 72 -111 115.5 q-70 43.5 -151 43.5 Z" /><glyph glyph-name="dollar" unicode="$" d="M987 360 q0 -109 -44 -189.5 q-44 -80.5 -120.5 -129 q-76.5 -48.5 -175.5 -63.5 l0 -248 l-41 0 l0 243 q-34 -2 -53 -2 q-30 0 -78 4 l0 -245 l-41 0 l0 251 q-81 17 -162 66 q-44 29 -69 29 q-19 0 -29 -21.5 q-10 -21.5 -16 -68.5 l-47 0 q8 112 8 491 l47 0 q12 -175 75.5 -295.5 q63.5 -120.5 192.5 -156.5 l0 665 q-101 63 -167 120 q-66 57 -106 133 q-40 76 -40 175 q0 103 41.5 177.5 q41.5 74.5 112 117.5 q70.5 43 159.5 55 l0 252 l41 0 l0 -248 l31 1 q58 0 100 -9 l0 256 l41 0 l0 -266 q48 -16 109 -57 q44 -29 69 -29 q19 0 29 21.5 q10 21.5 16 68.5 l48 0 q-11 -113 -11 -418 l-47 0 q-9 127 -61.5 228.5 q-52.5 101.5 -151.5 142.5 l0 -608 q116 -73 186.5 -132.5 q70.5 -59.5 112 -135 q41.5 -75.5 41.5 -175.5 ZM524 1434 q-28 0 -49 -4 l0 -521 l82 -51 q30 -17 49 -30 l0 596 q-36 10 -82 10 ZM274 1196 q0 -84 40.5 -144 q40.5 -60 119.5 -115 l0 483 q-73 -24 -116.5 -83.5 q-43.5 -59.5 -43.5 -140.5 ZM539 12 q36 0 67 7 l0 563 q-49 35 -121 77 l-10 6 l0 -648 q33 -5 64 -5 ZM647 31 q72 27 115 91 q43 64 43 163 q0 81 -40 144.5 q-40 63.5 -118 123.5 l0 -522 Z" /><glyph glyph-name="Euro" unicode="&#x20ac;" d="M977 299 q47 0 77.5 -30.5 q30.5 -30.5 30.5 -78.5 q0 -75 -96 -147 q-100 -72 -227 -72 q-151 0 -268.5 75.5 q-117.5 75.5 -188.5 218.5 q-71 143 -86 343 l-151 0 l0 41 l148 0 q-1 21 -1 64 q0 57 4 100 l-151 0 l0 41 l155 0 q21 188 95 329.5 q74 141.5 189 218.5 q115 77 257 77 q127 0 227 -72 q96 -70 96 -147 q0 -48 -30.5 -78.5 q-30.5 -30.5 -77.5 -30.5 q-48 0 -80.5 30 q-32.5 30 -32.5 81 q0 42 23.5 69 q23.5 27 62.5 35 q-15 31 -69.5 54.5 q-54.5 23.5 -112.5 23.5 q-100 0 -173.5 -70.5 q-73.5 -70.5 -117 -203 q-43.5 -132.5 -55.5 -316.5 l438 0 l-22 -41 l-418 0 q-2 -60 -2 -92 q0 -49 1 -72 l327 0 l-25 -41 l-300 0 q14 -291 102.5 -446.5 q88.5 -155.5 242.5 -155.5 q58 0 112.5 23.5 q54.5 23.5 69.5 54.5 q-39 8 -62.5 35 q-23.5 27 -23.5 69 q0 51 32.5 81 q32.5 30 80.5 30 Z" /><glyph glyph-name="uni20B9" unicode="&#x20b9;" d="M752 1204 q26 -52 26 -112 q0 -92 -51.5 -169.5 q-51.5 -77.5 -149.5 -134 q-98 -56.5 -233 -86.5 q166 -11 263.5 -78 q97.5 -67 121.5 -200 l39 -209 q15 -84 40.5 -126 q25.5 -42 74.5 -42 q83 0 80 201 l38 0 q2 -97 -16 -157 q-18 -60 -60.5 -90 q-42.5 -30 -117.5 -30 q-99 0 -158 59 q-59 59 -80 169 l-39 198 q-21 110 -45 166 q-24 56 -73.5 86 q-49.5 30 -143.5 39 q-41 -14 -59 -19 q-18 -5 -39 -5 q-23 0 -36 9 q-13 9 -13 23 q0 16 13 24.5 q13 8.5 32 8.5 q31 0 108 -18 q158 37 228.5 132 q70.5 95 70.5 226 q0 78 -20 135 l-469 0 l0 41 l452 0 q-85 164 -384 164 l-68 0 l0 41 l940 0 l0 -41 l-660 0 q263 -38 362 -164 l302 0 l0 -41 l-276 0 Z" /><glyph glyph-name="sterling" unicode="£" d="M905 455 q69 -11 128.5 -44 q59.5 -33 96.5 -87 q37 -54 37 -125 q0 -59 -25.5 -111.5 q-25.5 -52.5 -76 -84.5 q-50.5 -32 -121.5 -32 q-66 0 -123.5 25 q-57.5 25 -141.5 75 q-99 59 -149 76 q-43 17 -100 17 q-58 0 -113 -21 q-47 -81 -103 -126.5 q-56 -45.5 -110 -45.5 q-16 0 -24 4 q-8 4 -8 17 q0 19 27.5 50.5 q27.5 31.5 70.5 61.5 q43 30 86 46 q14 66 18.5 144.5 q4.5 78.5 4.5 233.5 l0 80 l-158 0 l0 41 l158 0 l0 164 l-158 0 l0 41 l158 0 l0 45 q0 608 454 608 q121 0 193 -55 q61 -49 61 -113 q0 -43 -28.5 -71.5 q-28.5 -28.5 -67.5 -28.5 q-37 0 -65.5 26 q-28.5 26 -28.5 66 q0 34 17.5 59 q17.5 25 49.5 37 q-4 20 -43.5 35 q-39.5 15 -83.5 15 q-122 0 -180.5 -71 q-58.5 -71 -73 -177 q-14.5 -106 -14.5 -277 l0 -98 l297 0 l0 -41 l-297 0 l0 -164 l297 0 l0 -41 l-298 0 q-4 -122 -35.5 -218 q-31.5 -96 -96.5 -210 q87 41 176 41 q46 0 88.5 -10.5 q42.5 -10.5 110.5 -33.5 q69 -24 118.5 -36 q49.5 -12 102.5 -12 q69 0 104 33.5 q35 33.5 35 83.5 q0 69 -47 114.5 q-47 45.5 -127 61.5 l8 33 Z" /><glyph glyph-name="yen" unicode="¥" d="M1112 1444 q92 0 153 6 l0 -41 q-41 -9 -80 -51.5 q-39 -42.5 -84 -130.5 l-313 -621 l279 0 l0 -41 l-287 0 l0 -164 l287 0 l0 -41 l-287 0 l0 -143 q0 -77 12.5 -112 q12.5 -35 46 -48 q33.5 -13 107.5 -16 l0 -41 q-96 6 -260 6 q-176 0 -263 -6 l0 41 q74 3 107.5 16 q33.5 13 46 48 q12.5 35 12.5 112 l0 143 l-286 0 l0 41 l286 0 l0 125 l-21 39 l-265 0 l0 41 l243 0 l-372 686 q-38 69 -65.5 92 q-27.5 23 -53.5 23 l0 43 q80 -6 180 -6 q199 0 287 6 l0 -43 q-144 0 -144 -79 q0 -30 21 -71 l340 -651 l2 0 l260 518 q56 113 56 176 q0 58 -45 82.5 q-45 24.5 -136 26.5 l0 41 q117 -6 236 -6 Z" /><glyph glyph-name="approxequal" unicode="&#x2248;" d="M393 1010 q70 0 133.5 -24 q63.5 -24 153.5 -70 q86 -44 140.5 -64.5 q54.5 -20.5 111.5 -20.5 q62 0 107 31.5 q45 31.5 75 98.5 l35 -11 q-28 -109 -87.5 -168 q-59.5 -59 -162.5 -59 q-69 0 -131.5 23 q-62.5 23 -153.5 69 q-85 43 -140 63.5 q-55 20.5 -114 20.5 q-66 0 -109.5 -32 q-43.5 -32 -72.5 -95 l-35 10 q28 109 87.5 168.5 q59.5 59.5 162.5 59.5 ZM393 737 q70 0 134.5 -23.5 q64.5 -23.5 152.5 -69.5 q86 -44 140.5 -64.5 q54.5 -20.5 111.5 -20.5 q123 0 182 129 l35 -10 q-28 -109 -87.5 -168 q-59.5 -59 -162.5 -59 q-69 0 -131.5 23 q-62.5 23 -153.5 69 q-85 43 -140 63.5 q-55 20.5 -114 20.5 q-66 0 -109.5 -32 q-43.5 -32 -72.5 -95 l-35 10 q28 109 87.5 168 q59.5 59 162.5 59 Z" /><glyph glyph-name="asciitilde" unicode="~" d="M440 748 q68 0 126.5 -20 q58.5 -20 142.5 -61 q79 -38 134.5 -57.5 q55.5 -19.5 117.5 -19.5 q134 0 184 119 l35 -11 q-8 -66 -49 -115 q-41 -49 -104 -75.5 q-63 -26.5 -136 -26.5 q-68 0 -126.5 20 q-58.5 20 -142.5 61 q-79 38 -134.5 57.5 q-55.5 19.5 -116.5 19.5 q-135 0 -185 -119 l-34 10 q8 66 48.5 115.5 q40.5 49.5 103.5 76 q63 26.5 136 26.5 Z" /><glyph glyph-name="divide" unicode="÷" d="M664 1135 q47 0 80.5 -33.5 q33.5 -33.5 33.5 -79.5 q0 -48 -33 -80.5 q-33 -32.5 -81 -32.5 q-47 0 -80 32.5 q-33 32.5 -33 80.5 q0 46 33.5 79.5 q33.5 33.5 79.5 33.5 ZM150 696 l0 62 l1026 0 l0 -62 l-1026 0 ZM664 545 q47 0 80.5 -33 q33.5 -33 33.5 -80 q0 -47 -33.5 -81 q-33.5 -34 -80.5 -34 q-46 0 -79.5 34 q-33.5 34 -33.5 81 q0 47 33.5 80 q33.5 33 79.5 33 Z" /><glyph glyph-name="equal" unicode="=" d="M150 840 l0 61 l1026 0 l0 -61 l-1026 0 ZM150 553 l0 61 l1026 0 l0 -61 l-1026 0 Z" /><glyph glyph-name="infinity" unicode="&#x221e;" d="M1341 975 q84 0 143 -33 q59 -33 88.5 -88 q29.5 -55 29.5 -121 q0 -73 -38.5 -129.5 q-38.5 -56.5 -105.5 -87.5 q-67 -31 -151 -31 q-82 0 -182.5 46 q-100.5 46 -233.5 131 l-26 -13 q-113 -57 -187 -91.5 q-74 -34.5 -150.5 -57.5 q-76.5 -23 -142.5 -23 q-84 0 -142.5 33 q-58.5 33 -88 88.5 q-29.5 55.5 -29.5 120.5 q0 73 38.5 129.5 q38.5 56.5 105.5 87.5 q67 31 151 31 q83 0 183.5 -46 q100.5 -46 231.5 -131 l27 13 q111 57 185.5 91.5 q74.5 34.5 151 57.5 q76.5 23 142.5 23 ZM352 623 q91 0 197 38 q106 38 243 107 q-241 158 -372 158 q-71 0 -127.5 -24.5 q-56.5 -24.5 -88.5 -65 q-32 -40.5 -32 -86.5 q0 -58 47 -92.5 q47 -34.5 133 -34.5 ZM1307 526 q70 0 126.5 24.5 q56.5 24.5 88.5 65 q32 40.5 32 86.5 q0 58 -47 92.5 q-47 34.5 -133 34.5 q-91 0 -197 -38 q-106 -38 -243 -107 q113 -74 206 -116 q93 -42 167 -42 Z" /><glyph glyph-name="integral" unicode="&#x222b;" d="M680 1602 q67 0 102 -31.5 q35 -31.5 35 -77.5 q0 -42 -26 -69 q-26 -27 -70 -27 q-41 0 -66.5 26.5 q-25.5 26.5 -25.5 65.5 q0 47 33 82 l-9 0 q-82 -11 -114.5 -63.5 q-32.5 -52.5 -32.5 -161.5 l0 -1008 q0 -166 -23 -291 q-23 -125 -86 -205 q-47 -61 -113.5 -93 q-66.5 -32 -133.5 -32 q-67 0 -102.5 31.5 q-35.5 31.5 -35.5 77.5 q0 42 26.5 69 q26.5 27 70.5 27 q41 0 66.5 -26.5 q25.5 -26.5 25.5 -65.5 q0 -47 -33 -82 l4 0 q83 10 116.5 63.5 q33.5 53.5 33.5 157.5 l2 1012 q0 167 22.5 291.5 q22.5 124.5 85.5 204.5 q48 61 114.5 93 q66.5 32 133.5 32 Z" /><glyph glyph-name="less" unicode="&lt;" d="M256 727 l838 -391 l-35 -74 l-998 465 l998 465 l35 -74 l-838 -391 Z" /><glyph glyph-name="logicalnot" unicode="¬" d="M1120 338 l0 358 l-952 0 l0 62 l1026 0 l0 -420 l-74 0 Z" /><glyph glyph-name="minus" unicode="&#x2212;" d="M150 696 l0 62 l1026 0 l0 -62 l-1026 0 Z" /><glyph glyph-name="multiply" unicode="×" d="M879 1126 l45 -45 l-355 -352 l355 -354 l-45 -45 l-355 354 l-356 -356 l-45 45 l356 354 l-358 358 l45 45 l358 -358 l355 354 Z" /><glyph glyph-name="notequal" unicode="&#x2260;" d="M637 614 l533 0 l0 -61 l-568 0 l-166 -287 l-57 33 l147 254 l-382 0 l0 61 l417 0 l131 226 l-548 0 l0 61 l583 0 l166 287 l57 -33 l-147 -254 l367 0 l0 -61 l-402 0 l-131 -226 Z" /><glyph glyph-name="partialdiff" unicode="&#x2202;" d="M649 1479 q98 0 167 -87.5 q69 -87.5 103.5 -237.5 q34.5 -150 34.5 -339 q0 -203 -55 -397.5 q-55 -194.5 -164 -320.5 q-109 -126 -262 -126 q-120 0 -208.5 46 q-88.5 46 -136.5 138 q-48 92 -48 228 q0 135 60.5 269 q60.5 134 182 222.5 q121.5 88.5 293.5 88.5 q113 0 193 -64.5 q80 -64.5 102 -215.5 q7 67 7 148 q0 234 -82 362 q-82 128 -240 128 q-64 0 -151.5 -22.5 q-87.5 -22.5 -182.5 -73.5 l-16 22 q106 116 198 174 q92 58 205 58 ZM481 10 q93 0 177 68.5 q84 68.5 146.5 195 q62.5 126.5 91.5 293.5 q-12 208 -85 280.5 q-73 72.5 -166 72.5 q-137 0 -220 -102.5 q-83 -102.5 -117 -234.5 q-34 -132 -34 -229 q0 -179 58.5 -261.5 q58.5 -82.5 148.5 -82.5 Z" /><glyph glyph-name="percent" unicode="%" d="M192 -113 l-39 27 l1198 1774 l39 -27 l-1198 -1774 ZM377 1559 q91 0 160 -39.5 q69 -39.5 107 -115 q38 -75.5 38 -179.5 q0 -102 -39.5 -180 q-39.5 -78 -108.5 -121 q-69 -43 -157 -43 q-91 0 -160 39.5 q-69 39.5 -107 115 q-38 75.5 -38 178.5 q0 101 39.5 179.5 q39.5 78.5 109 122 q69.5 43.5 156.5 43.5 ZM373 1522 q-158 0 -158 -305 q0 -146 44 -222.5 q44 -76.5 122 -76.5 q156 0 156 303 q0 148 -43 224.5 q-43 76.5 -121 76.5 ZM1139 649 q91 0 160 -39.5 q69 -39.5 107 -115 q38 -75.5 38 -179.5 q0 -101 -39.5 -179.5 q-39.5 -78.5 -109 -121.5 q-69.5 -43 -156.5 -43 q-92 0 -160.5 39.5 q-68.5 39.5 -106.5 115 q-38 75.5 -38 179.5 q0 101 39.5 179 q39.5 78 109 121.5 q69.5 43.5 156.5 43.5 ZM1135 612 q-158 0 -158 -305 q0 -146 43.5 -222.5 q43.5 -76.5 122.5 -76.5 q155 0 155 303 q0 148 -42.5 224.5 q-42.5 76.5 -120.5 76.5 Z" /><glyph glyph-name="perthousand" unicode="&#x2030;" d="M205 -113 l-39 27 l1198 1774 l39 -27 l-1198 -1774 ZM387 1559 q91 0 160 -39.5 q69 -39.5 107 -115 q38 -75.5 38 -179.5 q0 -102 -39.5 -180 q-39.5 -78 -108.5 -121 q-69 -43 -157 -43 q-91 0 -160 39.5 q-69 39.5 -107 115 q-38 75.5 -38 178.5 q0 101 39.5 179.5 q39.5 78.5 109 122 q69.5 43.5 156.5 43.5 ZM383 1522 q-158 0 -158 -305 q0 -146 44 -222.5 q44 -76.5 122 -76.5 q156 0 156 303 q0 148 -43 224.5 q-43 76.5 -121 76.5 ZM1149 649 q91 0 160 -39.5 q69 -39.5 107 -115 q38 -75.5 38 -179.5 q0 -101 -39.5 -179.5 q-39.5 -78.5 -109 -121.5 q-69.5 -43 -156.5 -43 q-91 0 -160 39.5 q-69 39.5 -107 115 q-38 75.5 -38 179.5 q0 101 39.5 179 q39.5 78 109 121.5 q69.5 43.5 156.5 43.5 ZM1874 649 q91 0 160 -39.5 q69 -39.5 107 -115 q38 -75.5 38 -179.5 q0 -101 -39.5 -179.5 q-39.5 -78.5 -109 -121.5 q-69.5 -43 -156.5 -43 q-91 0 -160 39.5 q-69 39.5 -107 115 q-38 75.5 -38 179.5 q0 101 39.5 179 q39.5 78 109 121.5 q69.5 43.5 156.5 43.5 ZM1145 612 q-158 0 -158 -305 q0 -146 44 -222.5 q44 -76.5 122 -76.5 q156 0 156 303 q0 148 -43 224.5 q-43 76.5 -121 76.5 ZM1870 612 q-158 0 -158 -305 q0 -146 44 -222.5 q44 -76.5 122 -76.5 q156 0 156 303 q0 148 -43 224.5 q-43 76.5 -121 76.5 Z" /><glyph glyph-name="plus" unicode="+" d="M1114 758 l0 -62 l-475 0 l0 -481 l-74 0 l0 481 l-477 0 l0 62 l477 0 l0 483 l74 0 l0 -483 l475 0 Z" /><glyph glyph-name="product" unicode="&#x220f;" d="M1456 1409 q-74 -3 -107.5 -16 q-33.5 -13 -46 -48 q-12.5 -35 -12.5 -112 l0 -1387 q0 -77 12.5 -112 q12.5 -35 46 -48 q33.5 -13 107.5 -16 l0 -41 q-85 6 -262 6 q-166 0 -260 -6 l0 41 q74 3 107.5 16 q33.5 13 46 48 q12.5 35 12.5 112 l0 1387 q0 77 -12.5 113.5 q-12.5 36.5 -47 49.5 q-34.5 13 -106.5 13 l-334 0 q-72 0 -106.5 -13 q-34.5 -13 -47 -49.5 q-12.5 -36.5 -12.5 -113.5 l0 -1387 q0 -77 12.5 -112 q12.5 -35 46 -48 q33.5 -13 107.5 -16 l0 -41 q-95 6 -260 6 q-177 0 -262 -6 l0 41 q74 3 107.5 16 q33.5 13 46 48 q12.5 35 12.5 112 l0 1387 q0 77 -12.5 112 q-12.5 35 -46 48 q-33.5 13 -107.5 16 l0 41 q85 -6 262 -6 q28 0 120 2 q148 4 314 4 q154 0 298 -4 q94 -2 122 -2 q176 0 262 6 l0 -41 Z" /><glyph glyph-name="radical" unicode="&#x221a;" d="M1491 1677 q-197 0 -244 -8 q-27 -4 -43.5 -12.5 q-16.5 -8.5 -29.5 -28.5 q-13 -20 -25 -57 l-477 -1581 l-33 0 l-287 690 q-24 59 -60 88 q-36 29 -92.5 40 q-56.5 11 -162.5 17 l0 43 q79 -12 180 -12 q119 0 307 12 l0 -43 q-24 0 -24 -27 q0 -18 12 -50 l197 -488 l407 1346 q11 36 11 54 q0 26 -29 26 l0 43 q29 -3 111 -3 q83 0 193 2 q31 1 68 1 l21 0 l0 -52 Z" /><glyph glyph-name="summation" unicode="&#x2211;" d="M1079 283 q0 -129 15 -283 q-158 6 -531 6 q-342 0 -497 -6 l0 41 l563 614 l-543 754 l0 41 q150 -6 477 -6 q359 0 510 6 q-14 -134 -14 -242 q0 -80 6 -127 l-47 0 q-15 133 -37.5 198 q-22.5 65 -76 94.5 q-53.5 29.5 -161.5 29.5 l-399 0 l455 -627 l-668 -729 l510 0 q140 0 220.5 38.5 q80.5 38.5 121.5 125.5 q41 87 55 240 l47 0 q-6 -64 -6 -168 Z" /><glyph glyph-name="arrowboth" unicode="&#x2194;" d="M907 924 q70 -154 173.5 -247 q103.5 -93 250.5 -136 q-147 -44 -250.5 -136.5 q-103.5 -92.5 -173.5 -246.5 l-35 0 q85 179 89 366 l-539 0 q4 -185 88 -366 l-35 0 q-70 154 -173.5 246.5 q-103.5 92.5 -250.5 136.5 q147 43 250.5 136 q103.5 93 173.5 247 l35 0 q-85 -182 -88 -367 l539 0 q-3 186 -89 367 l35 0 Z" /><glyph glyph-name="arrowdown" unicode="&#x2193;" d="M506 829 q46 123 137 211 q91 88 246 160 l0 -35 q-154 -70 -247 -173.5 q-93 -103.5 -136 -250.5 q-43 147 -136 250.5 q-93 103.5 -247 173.5 l0 35 q155 -72 245.5 -160 q90.5 -88 137.5 -211 ZM506 645 q46 123 137 211 q91 88 246 160 l0 -35 q-141 -64 -230.5 -156 q-89.5 -92 -136.5 -219 l0 -256 q185 3 367 88 l0 -35 q-154 -70 -247 -173 q-93 -103 -136 -250 q-43 147 -136 250 q-93 103 -247 173 l0 35 q181 -84 366 -88 l0 258 q-47 126 -136 217.5 q-89 91.5 -230 155.5 l0 35 q155 -72 245.5 -160 q90.5 -88 137.5 -211 Z" /><glyph glyph-name="arrowdownleft" unicode="&#x2199;" d="M735 582 q116 51 235 51 q133 0 298 -62 l-25 -24 q-140 53 -267 53 q-154 0 -304 -82 q82 149 82 303 q0 127 -54 269 l25 24 q62 -165 62 -297 q0 -122 -52 -235 ZM604 451 q116 51 237 51 q131 0 296 -60 l-25 -24 q-140 52 -264 52 q-132 0 -258 -57 l-183 -182 q134 -128 322 -198 l-24 -25 q-142 54 -269 54 q-154 0 -303 -82 q82 150 82 304 q0 127 -53 267 l24 24 q71 -186 198 -322 l183 185 q57 125 57 254 q0 124 -53 266 l25 25 q60 -165 60 -295 q0 -123 -52 -237 Z" /><glyph glyph-name="arrowleft" unicode="&#x2190;" d="M717 541 q123 -46 210.5 -137 q87.5 -91 159.5 -246 l-34 0 q-65 141 -156 229.5 q-91 88.5 -217 136.5 l-258 0 q4 -185 88 -366 l-35 0 q-70 154 -173.5 246.5 q-103.5 92.5 -250.5 136.5 q147 43 250.5 136 q103.5 93 173.5 247 l35 0 q-85 -182 -88 -367 l255 0 q127 47 219 136.5 q92 89.5 157 230.5 l34 0 q-72 -156 -159.5 -246.5 q-87.5 -90.5 -210.5 -136.5 ZM901 541 q123 -47 211 -137.5 q88 -90.5 160 -245.5 l-35 0 q-70 154 -173.5 246.5 q-103.5 92.5 -250.5 136.5 q147 43 250.5 136 q103.5 93 173.5 247 l35 0 q-72 -155 -160 -246 q-88 -91 -211 -137 Z" /><glyph glyph-name="arrowup" unicode="&#x2191;" d="M889 741 q-179 85 -367 88 l0 -255 q47 -127 136.5 -219 q89.5 -92 230.5 -156 l0 -35 q-155 72 -246 160 q-91 88 -137 211 q-47 -123 -137.5 -211 q-90.5 -88 -245.5 -160 l0 35 q141 64 230 155.5 q89 91.5 136 217.5 l0 257 q-185 -3 -366 -88 l0 35 q154 70 247 173.5 q93 103.5 136 250.5 q43 -147 136 -250.5 q93 -103.5 247 -173.5 l0 -35 ZM506 438 q43 -146 136 -249.5 q93 -103.5 247 -174.5 l0 -34 q-156 72 -246.5 159.5 q-90.5 87.5 -136.5 210.5 q-46 -123 -137 -210.5 q-91 -87.5 -246 -159.5 l0 34 q154 71 247 174.5 q93 103.5 136 249.5 Z" /><glyph glyph-name="arrowupleft" unicode="&#x2196;" d="M1137 651 q-165 -60 -295 -60 q-124 0 -238 52 q52 -114 52 -238 q0 -129 -60 -294 l-25 24 q53 142 53 266 q0 131 -57 255 l-183 185 q-127 -135 -198 -323 l-24 25 q53 140 53 267 q0 154 -82 304 q150 -82 304 -82 q124 0 268 53 l24 -24 q-188 -70 -322 -198 l184 -182 q127 -58 256 -58 q123 0 265 53 l25 -25 ZM1268 522 q-165 -62 -297 -62 q-122 0 -236 52 q52 -114 52 -235 q0 -132 -62 -297 l-25 24 q54 142 54 268 q0 154 -82 303 q149 -82 303 -82 q126 0 268 54 l25 -25 Z" /><glyph glyph-name="blacksquare" unicode="&#x25a0;" d="M195 104 l0 852 l813 0 l0 -852 l-813 0 Z" /><glyph glyph-name="lozenge" unicode="&#x25ca;" d="M526 -367 l-32 0 l-431 871 l431 956 l32 0 l430 -870 l-430 -957 ZM586 -135 l248 557 l-400 807 l-250 -557 l402 -807 Z" /><glyph glyph-name="whitesquare" unicode="&#x25a1;" d="M195 104 l0 852 l813 0 l0 -852 l-813 0 ZM236 143 l731 0 l0 775 l-731 0 l0 -775 Z" /><glyph glyph-name="ampersand" unicode="&amp;" d="M1374 1479 q85 0 153 -33.5 q68 -33.5 107 -96 q39 -62.5 39 -147.5 q0 -98 -53 -170.5 q-53 -72.5 -141 -116.5 q-75 -36 -304 -107 q115 -48 169.5 -139 q54.5 -91 54.5 -208 q0 -127 -75.5 -239.5 q-75.5 -112.5 -217.5 -181.5 q-142 -69 -332 -69 q-179 0 -330.5 62.5 q-151.5 62.5 -242 178.5 q-90.5 116 -90.5 269 q0 135 67 228 q67 93 152.5 141.5 q85.5 48.5 158.5 67.5 q-100 43 -153 114 q-53 71 -53 150 q0 68 40 126.5 q40 58.5 118 94 q78 35.5 188 35.5 q137 0 213 -62 q38 -31 57 -68.5 q19 -37.5 19 -72.5 q0 -49 -35 -79 q-35 -30 -80 -30 q-44 0 -75.5 28 q-31.5 28 -31.5 75 q0 44 30.5 76 q30.5 32 78.5 36 q-9 27 -52 46.5 q-43 19.5 -104 19.5 q-107 0 -172 -64 q-65 -64 -65 -180 q0 -137 104 -233 q71 12 127 12 q38 0 60 -12 q22 -12 22 -35 q0 -18 -15.5 -28.5 q-15.5 -10.5 -41.5 -10.5 q-30 0 -64 11 q-34 11 -57 21.5 q-23 10.5 -29 12.5 q-266 -79 -266 -336 q0 -137 72 -237 q72 -100 197 -152.5 q125 -52.5 280 -52.5 q146 0 269 45.5 q123 45.5 196 131 q73 85.5 73 198.5 q0 80 -43.5 164.5 q-43.5 84.5 -162.5 132.5 q-173 -54 -236 -78 q-86 -33 -133 -75 q-47 -42 -47 -103 q0 -50 29.5 -87.5 q29.5 -37.5 73.5 -57 q44 -19.5 85 -19.5 q35 0 76.5 12 q41.5 12 46.5 33 q-39 7 -67.5 32 q-28.5 25 -28.5 72 q0 48 32 77.5 q32 29.5 80 29.5 q49 0 79 -30.5 q30 -30.5 30 -80.5 q0 -55 -37 -95 q-37 -40 -93.5 -60.5 q-56.5 -20.5 -113.5 -20.5 q-62 0 -120.5 26 q-58.5 26 -96 80 q-37.5 54 -37.5 134 q0 104 70.5 177 q70.5 73 212.5 122 q44 14 148 44 q242 67 352 117 q97 46 136.5 93.5 q39.5 47.5 39.5 103.5 q0 57 -33 104.5 q-33 47.5 -87.5 75 q-54.5 27.5 -117.5 27.5 q-52 0 -61 -18 q27 -14 42 -40.5 q15 -26.5 15 -54.5 q0 -42 -34 -71 q-34 -29 -81 -29 q-44 0 -76 26.5 q-32 26.5 -32 75.5 q0 50 34 82 q34 32 85.5 46 q51.5 14 105.5 14 Z" /><glyph glyph-name="asciicircum" unicode="^" d="M567 1081 q49 -118 151 -224 q102 -106 232 -169 l-16 -29 q-124 45 -240 112 q-116 67 -186 134 q-58 -67 -151.5 -134 q-93.5 -67 -192.5 -112 l-17 29 q131 63 233 169 q102 106 150 224 l37 0 Z" /><glyph glyph-name="at" unicode="@" d="M1135 53 q-148 0 -148 133 q0 33 7 66 q7 33 14.5 56.5 q7.5 23.5 9.5 31.5 l0 2 q-58 -149 -134 -219 q-76 -70 -182 -70 q-110 0 -160 67.5 q-50 67.5 -50 180.5 q0 152 73 311 q73 159 187 263 q114 104 227 104 q125 0 148 -109 l16 80 q117 0 184 29 l-172 -752 q-13 -42 -13 -70 q0 -29 14.5 -41 q14.5 -12 45.5 -12 q87 0 203 86.5 q116 86.5 199.5 246.5 q83.5 160 83.5 370 q0 182 -79.5 299 q-79.5 117 -213.5 171 q-134 54 -303 54 q-247 0 -466.5 -142.5 q-219.5 -142.5 -352 -381 q-132.5 -238.5 -132.5 -510.5 q0 -204 78 -336 q78 -132 216 -193 q138 -61 321 -61 q236 0 422 111 l14 -27 q-79 -56 -192.5 -88.5 q-113.5 -32.5 -245.5 -32.5 q-196 0 -342.5 66.5 q-146.5 66.5 -229 206 q-82.5 139.5 -82.5 350.5 q0 273 133.5 522 q133.5 249 361 401 q227.5 152 495.5 152 q185 0 328.5 -59.5 q143.5 -59.5 227 -185.5 q83.5 -126 83.5 -318 q0 -219 -91 -390.5 q-91 -171.5 -230 -266.5 q-139 -95 -273 -95 ZM772 115 q52 0 106 53 q54 53 102 153 q48 100 82 235 l51 249 q-7 127 -126 127 q-85 0 -159 -93 q-74 -93 -118 -237.5 q-44 -144.5 -44 -288.5 q0 -198 106 -198 Z" /><glyph glyph-name="bar" unicode="|" d="M186 -399 l0 2156 l82 0 l0 -2156 l-82 0 Z" /><glyph glyph-name="brokenbar" unicode="¦" d="M188 786 l0 971 l82 0 l0 -971 l-82 0 ZM188 -399 l0 1067 l82 0 l0 -1067 l-82 0 Z" /><glyph glyph-name="uni2105" unicode="&#x2105;" d="M168 -113 l-39 27 l1198 1774 l39 -27 l-1198 -1774 ZM461 1581 q105 0 176 -49 q74 -51 74 -127 q0 -46 -27 -72 q-27 -26 -70 -26 q-42 0 -70 25 q-28 25 -28 65 q0 79 88 98 q-18 20 -59 34.5 q-41 14.5 -92 14.5 q-53 0 -98 -31 q-45 -31 -73 -103 q-28 -72 -28 -189 q0 -166 61.5 -241 q61.5 -75 157.5 -75 q67 0 126 40 q59 40 97 130 l33 -14 q-18 -56 -57.5 -106.5 q-39.5 -50.5 -100 -83.5 q-60.5 -33 -135.5 -33 q-98 0 -178 43 q-80 43 -127 124 q-47 81 -47 191 q0 111 47.5 199 q47.5 88 133.5 137 q86 49 196 49 ZM1202 713 q93 0 176 -43 q83 -43 134.5 -127 q51.5 -84 51.5 -201 q0 -117 -51.5 -201 q-51.5 -84 -134.5 -127 q-83 -43 -176 -43 q-93 0 -176.5 43 q-83.5 43 -135 127 q-51.5 84 -51.5 201 q0 117 51.5 201 q51.5 84 135 127 q83.5 43 176.5 43 ZM1202 676 q-55 0 -98.5 -35 q-43.5 -35 -69 -110 q-25.5 -75 -25.5 -189 q0 -114 25.5 -189 q25.5 -75 69 -110 q43.5 -35 98.5 -35 q54 0 97.5 35 q43.5 35 69 110 q25.5 75 25.5 189 q0 114 -25.5 189 q-25.5 75 -69 110 q-43.5 35 -97.5 35 Z" /><glyph glyph-name="copyright" unicode="©" d="M915 1602 q222 0 409.5 -109.5 q187.5 -109.5 297 -297 q109.5 -187.5 109.5 -409.5 q0 -221 -109.5 -408.5 q-109.5 -187.5 -297 -297 q-187.5 -109.5 -409.5 -109.5 q-221 0 -408.5 109.5 q-187.5 109.5 -297 297 q-109.5 187.5 -109.5 408.5 q0 222 109.5 409.5 q109.5 187.5 297 297 q187.5 109.5 408.5 109.5 ZM915 1536 q-199 0 -367.5 -101 q-168.5 -101 -267 -273 q-98.5 -172 -98.5 -376 q0 -203 98.5 -375 q98.5 -172 267 -273 q168.5 -101 367.5 -101 q200 0 368.5 101 q168.5 101 267 273 q98.5 172 98.5 375 q0 204 -98.5 376 q-98.5 172 -267 273 q-168.5 101 -368.5 101 ZM950 1343 q70 0 135 -18 q65 -18 111 -53 q86 -60 86 -152 q0 -53 -30.5 -83.5 q-30.5 -30.5 -77.5 -30.5 q-48 0 -80.5 30 q-32.5 30 -32.5 80 q0 42 23 69 q23 27 63 36 q-20 37 -73 61.5 q-53 24.5 -111 24.5 q-101 0 -177 -80 q-116 -128 -116 -428 q0 -169 39.5 -276 q39.5 -107 105 -155.5 q65.5 -48.5 148.5 -48.5 q89 0 168.5 51 q79.5 51 130.5 160 l38 -14 q-22 -73 -70 -137.5 q-48 -64.5 -125 -106 q-77 -41.5 -179 -41.5 q-129 0 -232.5 66 q-103.5 66 -163 189 q-59.5 123 -59.5 288 q0 166 60.5 295.5 q60.5 129.5 169.5 201.5 q109 72 249 72 Z" /><glyph glyph-name="dagger" unicode="&#x2020;" d="M387 1346 q34 0 48 -29.5 q14 -29.5 14 -63.5 q-15 0 -19.5 -31.5 q-4.5 -31.5 -6.5 -100.5 q-1 -69 -6 -109 q-5 -40 -22 -49 l-16 0 q-17 9 -22 49.5 q-5 40.5 -6 109.5 q-2 69 -6 100 q-4 31 -19 31 q0 34 13.5 63.5 q13.5 29.5 47.5 29.5 ZM627 881 l-240 49 l-240 -49 l-77 51 l77 51 l240 -51 l240 51 l78 -51 l-78 -51 ZM416 891 q2 -7 7 -28 q7 -30 14.5 -46.5 q7.5 -16.5 25.5 -28.5 q0 -159 -6.5 -395.5 q-6.5 -236.5 -23.5 -447 q-17 -210.5 -46 -264.5 q-42 76 -59 443 q-17 367 -17 664 q17 11 24 26.5 q7 15.5 14 43.5 q3 17 9 33 l29 12 l29 -12 Z" /><glyph glyph-name="daggerdbl" unicode="&#x2021;" d="M399 1346 q34 0 48 -29.5 q14 -29.5 14 -63.5 q-15 0 -19 -31 q-4 -31 -6 -100 q-1 -69 -6 -109.5 q-5 -40.5 -22 -49.5 l-17 0 q-17 9 -22 49.5 q-5 40.5 -6 109.5 q-2 69 -6 100 q-4 31 -19 31 q0 34 13.5 63.5 q13.5 29.5 47.5 29.5 ZM639 881 l-240 49 l-239 -49 l-78 51 l78 51 l239 -51 l240 51 l78 -51 l-78 -51 ZM428 891 q2 -7 7 -28 q7 -30 14.5 -46.5 q7.5 -16.5 25.5 -28.5 q0 -48 -3 -117 q-1 -22 -3 -60 q-2 -38 -4 -103 l7 -156 q3 -85 3 -135 q-18 -11 -25.5 -27.5 q-7.5 -16.5 -14.5 -46.5 q-5 -21 -7 -28 l-29 -13 l-28 13 q-3 7 -10 35 q-7 27 -14 41.5 q-7 14.5 -23 25.5 q0 50 3 135 l7 156 q-4 117 -7 160 q-3 72 -3 120 q16 11 23 26 q7 15 14 42 q7 27 10 35 l28 12 l29 -12 ZM639 23 l-240 49 l-239 -49 l-78 51 l78 51 l239 -51 l240 51 l78 -51 l-78 -51 ZM408 43 q17 -10 22 -50.5 q5 -40.5 6 -109.5 q2 -69 6 -100 q4 -31 19 -31 q0 -34 -14 -63 q-14 -29 -48 -29 q-34 0 -47.5 29 q-13.5 29 -13.5 63 q15 0 19 31 q4 31 6 100 q1 69 6 109.5 q5 40.5 22 50.5 l17 0 Z" /><glyph glyph-name="degree" unicode="°" d="M340 1679 q67 0 124.5 -30 q57.5 -30 91.5 -86 q34 -56 34 -129 q0 -75 -34 -131 q-34 -56 -91.5 -86.5 q-57.5 -30.5 -124.5 -30.5 q-66 0 -123 30.5 q-57 30.5 -91 87 q-34 56.5 -34 130.5 q0 73 34 129 q34 56 91 86 q57 30 123 30 ZM340 1645 q-48 0 -93.5 -25 q-45.5 -25 -74.5 -73.5 q-29 -48.5 -29 -114.5 q0 -68 29 -116 q29 -48 74 -71.5 q45 -23.5 94 -23.5 q49 0 94.5 23.5 q45.5 23.5 75 71.5 q29.5 48 29.5 116 q0 66 -29.5 114.5 q-29.5 48.5 -75.5 73.5 q-46 25 -94 25 Z" /><glyph glyph-name="uni2116" unicode="&#x2116;" d="M1507 1479 q93 0 176 -43 q83 -43 134.5 -127 q51.5 -84 51.5 -201 q0 -117 -51.5 -201 q-51.5 -84 -134.5 -127 q-83 -43 -176 -43 q-93 0 -176.5 43 q-83.5 43 -135 127 q-51.5 84 -51.5 201 q0 117 51.5 201 q51.5 84 135 127 q83.5 43 176.5 43 ZM1087 1409 q-74 -3 -107 -16 q-33 -13 -45.5 -48 q-12.5 -35 -12.5 -112 l0 -1243 l-48 0 l-573 1329 l0 -1102 q0 -77 12.5 -112 q12.5 -35 46 -48 q33.5 -13 107.5 -16 l0 -41 q-73 6 -188 6 q-123 0 -191 -6 l0 41 q74 3 107.5 16 q33.5 13 46 48 q12.5 35 12.5 112 l0 1016 q0 77 -12.5 112 q-12.5 35 -46 48 q-33.5 13 -107.5 16 l0 41 q68 -6 191 -6 q111 0 188 6 l407 -950 l0 733 q0 77 -12.5 112 q-12.5 35 -45.5 48 q-33 13 -107 16 l0 41 q74 -6 188 -6 q123 0 190 6 l0 -41 ZM1507 1442 q-55 0 -98.5 -35 q-43.5 -35 -69 -110 q-25.5 -75 -25.5 -189 q0 -114 25.5 -189 q25.5 -75 69 -110 q43.5 -35 98.5 -35 q54 0 97.5 35 q43.5 35 69 110 q25.5 75 25.5 189 q0 114 -25.5 189 q-25.5 75 -69 110 q-43.5 35 -97.5 35 ZM1127 575 l0 40 l705 0 l0 -40 l-705 0 ZM1127 426 l0 40 l705 0 l0 -40 l-705 0 Z" /><glyph glyph-name="paragraph" unicode="¶" d="M805 1452 q60 0 166 -4 q147 -3 143 -3 q72 0 123 5 l0 -39 q-65 -3 -99 -18.5 q-34 -15.5 -46.5 -44 q-12.5 -28.5 -12.5 -76.5 l0 -1426 q0 -77 12.5 -112 q12.5 -35 46 -48 q33.5 -13 107.5 -16 l0 -41 q-94 6 -260 6 q-204 0 -303 -6 l0 41 q87 3 130.5 21.5 q43.5 18.5 60 58.5 q16.5 40 16.5 117 l0 106 q-429 0 -623 205.5 q-194 205.5 -194 558.5 q0 210 87.5 372 q87.5 162 253 252.5 q165.5 90.5 392.5 90.5 ZM891 1343 q-7 0 -22 -87 q-15 -87 -27.5 -223 q-12.5 -136 -14.5 -283 q-144 0 -275 -6 q-131 -6 -214.5 -14 q-83.5 -8 -83.5 -11 q0 -4 82 -11 q82 -7 213.5 -12.5 q131.5 -5.5 277.5 -5.5 q2 -153 14.5 -288 q12.5 -135 27.5 -219.5 q15 -84.5 22 -84.5 l0 1245 Z" /><glyph glyph-name="registered" unicode="®" d="M694 1602 q155 0 286.5 -77 q131.5 -77 208.5 -208.5 q77 -131.5 77 -286.5 q0 -155 -77 -286 q-77 -131 -208.5 -208 q-131.5 -77 -286.5 -77 q-155 0 -286 77 q-131 77 -208 208 q-77 131 -77 286 q0 155 77 286.5 q77 131.5 208 208.5 q131 77 286 77 ZM694 524 q133 0 244.5 68.5 q111.5 68.5 176.5 185 q65 116.5 65 252.5 q0 137 -65 253 q-65 116 -176.5 184.5 q-111.5 68.5 -244.5 68.5 q-133 0 -244 -68.5 q-111 -68.5 -176 -184.5 q-65 -116 -65 -253 q0 -136 65 -252.5 q65 -116.5 176.5 -185 q111.5 -68.5 243.5 -68.5 ZM975 745 q15 0 24 17 l21 -14 q-12 -24 -33.5 -33.5 q-21.5 -9.5 -56.5 -9.5 q-52 0 -77 19.5 q-25 19.5 -36 63.5 l-35 152 q-9 40 -23 58.5 q-14 18.5 -48.5 26 q-34.5 7.5 -108.5 9.5 l0 -207 q0 -32 3.5 -47 q3.5 -15 13 -20.5 q9.5 -5.5 30.5 -7.5 l0 -31 q-27 0 -43 1 l-61 1 l-68 -1 q-15 -1 -39 -1 l0 31 q21 2 30.5 7.5 q9.5 5.5 13 20.5 q3.5 15 3.5 47 l0 449 q0 33 -3.5 48.5 q-3.5 15.5 -13 21.5 q-9.5 6 -30.5 8 l0 30 q25 -2 99 -2 l126 1 q21 1 50 1 q115 0 176 -42 q61 -42 61 -119 q0 -139 -198 -174 q81 -9 116 -37 q35 -28 45 -82 l25 -117 q2 -8 6 -28.5 q4 -20.5 11.5 -30 q7.5 -9.5 19.5 -9.5 ZM680 1354 q-34 0 -50 -5.5 q-16 -5.5 -22 -19.5 q-6 -14 -6 -43 l0 -219 l49 0 q101 0 136.5 35 q35.5 35 35.5 100 q0 79 -32.5 115.5 q-32.5 36.5 -110.5 36.5 Z" /><glyph glyph-name="section" unicode="§" d="M718 228 q74 -66 112 -135.5 q38 -69.5 38 -155.5 q0 -95 -44.5 -168 q-44.5 -73 -126 -113.5 q-81.5 -40.5 -189.5 -40.5 q-98 0 -182 35 q-74 31 -116 80.5 q-42 49.5 -42 103.5 q0 47 29 79 q29 32 79 32 q48 0 80.5 -30.5 q32.5 -30.5 32.5 -78.5 q0 -38 -21.5 -67.5 q-21.5 -29.5 -66.5 -40.5 q17 -39 78 -56.5 q61 -17.5 123 -17.5 q78 0 128 30 q50 30 72.5 76 q22.5 46 22.5 97 q0 69 -42 130.5 q-42 61.5 -101.5 109.5 q-59.5 48 -161.5 119 l-35 24 q-109 75 -172 131.5 q-63 56.5 -96 121 q-33 64.5 -33 146.5 q0 224 235 354 q-71 65 -108 133.5 q-37 68.5 -37 153.5 q0 94 44.5 167.5 q44.5 73.5 126.5 114 q82 40.5 190 40.5 q92 0 182 -35 q73 -31 115 -81 q42 -50 42 -104 q0 -47 -29 -78.5 q-29 -31.5 -79 -31.5 q-47 0 -80 30 q-33 30 -33 78 q0 38 21.5 68 q21.5 30 66.5 41 q-19 39 -79 56.5 q-60 17.5 -119 17.5 q-80 0 -130.5 -30 q-50.5 -30 -73 -76 q-22.5 -46 -22.5 -97 q0 -70 42 -131 q42 -61 102 -109.5 q60 -48.5 160 -117.5 q12 -9 36 -25 q109 -75 172 -131.5 q63 -56.5 96 -121 q33 -64.5 33 -146.5 q0 -219 -240 -350 ZM489 397 q154 -106 207 -150 q77 43 114.5 102 q37.5 59 37.5 126 q0 64 -38.5 121.5 q-38.5 57.5 -99 107 q-60.5 49.5 -157.5 115.5 q-154 106 -208 151 q-75 -42 -112.5 -102 q-37.5 -60 -37.5 -127 q0 -64 38.5 -121.5 q38.5 -57.5 98 -106 q59.5 -48.5 157.5 -116.5 Z" /><glyph glyph-name="trademark" unicode="&#x2122;" d="M887 1450 q-15 -108 -15 -180 q0 -69 7 -107 l-48 0 q-9 132 -40 186 q-31 54 -91 54 l-110 0 l0 -612 q0 -60 10.5 -86 q10.5 -26 39 -36 q28.5 -10 95.5 -14 l0 -41 q-96 7 -219 7 q-135 0 -221 -7 l0 41 q66 4 95 14 q29 10 39.5 36.5 q10.5 26.5 10.5 85.5 l0 612 l-110 0 q-60 0 -91 -54 q-31 -54 -40 -186 l-47 0 q6 41 6 107 q0 82 -15 180 q109 -6 373 -6 q262 0 371 6 ZM2001 1409 q-48 -3 -68.5 -11 q-20.5 -8 -28.5 -30.5 q-8 -22.5 -8 -73.5 l0 -524 q0 -51 7.5 -73 q7.5 -22 28 -30 q20.5 -8 69.5 -12 l0 -41 q-79 7 -178 7 q-95 0 -160 -7 l0 41 q38 4 54.5 12 q16.5 8 23 30.5 q6.5 22.5 6.5 72.5 l0 545 l-268 -711 l-33 0 l-291 715 l0 -549 q0 -50 6.5 -72.5 q6.5 -22.5 23 -30.5 q16.5 -8 54.5 -12 l0 -41 q-51 7 -106 7 q-76 0 -129 -7 l0 41 q48 4 68.5 12 q20.5 8 28 30 q7.5 22 7.5 73 l0 524 q0 51 -7.5 73.5 q-7.5 22.5 -28 30.5 q-20.5 8 -68.5 11 l0 41 q45 -6 129 -6 q71 0 139 6 l248 -608 l227 602 l96 0 q100 0 158 6 l0 -41 Z" /><glyph glyph-name="acute" unicode="´" d="M387 1665 q28 -23 28 -57 q0 -33 -28 -70 q-29 -37 -117 -114 q-130 -116 -207 -197 l-22 18 q66 103 141 249 q55 105 82 140 q35 46 78 46 q25 0 45 -15 Z" /><glyph glyph-name="breve" unicode="&#x2d8;" d="M805 1595 q-51 -122 -144.5 -210.5 q-93.5 -88.5 -222.5 -88.5 q-128 0 -221.5 88.5 q-93.5 88.5 -144.5 210.5 l34 19 q120 -197 332 -197 q120 0 201 56.5 q81 56.5 131 140.5 l35 -19 Z" /><glyph glyph-name="caron" unicode="&#x2c7;" d="M772 1614 q-117 -58 -208.5 -153 q-91.5 -95 -133.5 -199 l-37 0 q-42 104 -133.5 199 q-91.5 95 -208.5 153 l17 28 q111 -38 216 -94 q105 -56 169 -110 q52 55 134.5 110.5 q82.5 55.5 168.5 93.5 l16 -28 Z" /><glyph glyph-name="cedilla" unicode="¸" d="M176 -147 q61 14 121 14 q58 0 91.5 -25.5 q33.5 -25.5 33.5 -70.5 q0 -54 -35.5 -89 q-35.5 -35 -88.5 -51 q-53 -16 -108 -16 q-105 0 -170 23 l9 36 q42 -6 77 -6 q74 0 129.5 21.5 q55.5 21.5 55.5 70.5 q0 58 -86 58 q-59 0 -101 -15 l70 209 l55 0 l-53 -159 Z" /><glyph glyph-name="circumflex" unicode="&#x2c6;" d="M430 1642 q42 -104 133.5 -199 q91.5 -95 208.5 -153 l-16 -28 q-111 38 -216 93.5 q-105 55.5 -169 110.5 q-52 -55 -134.5 -110.5 q-82.5 -55.5 -168.5 -93.5 l-17 28 q117 58 208.5 153 q91.5 95 133.5 199 l37 0 Z" /><glyph glyph-name="dieresis" unicode="¨" d="M182 1522 q31 0 58.5 -16.5 q27.5 -16.5 44 -44 q16.5 -27.5 16.5 -58.5 q0 -32 -16.5 -59.5 q-16.5 -27.5 -43.5 -43.5 q-27 -16 -59 -16 q-49 0 -84 35 q-35 35 -35 84 q0 31 16 58.5 q16 27.5 43.5 44 q27.5 16.5 59.5 16.5 ZM616 1522 q31 0 58.5 -16.5 q27.5 -16.5 44 -44 q16.5 -27.5 16.5 -58.5 q0 -32 -16.5 -59.5 q-16.5 -27.5 -43.5 -43.5 q-27 -16 -59 -16 q-49 0 -83.5 35 q-34.5 35 -34.5 84 q0 31 16 58.5 q16 27.5 43 44 q27 16.5 59 16.5 Z" /><glyph glyph-name="dotaccent" unicode="&#x2d9;" d="M203 1567 q35 0 65 -18 q30 -18 48 -48 q18 -30 18 -65 q0 -35 -18 -65.5 q-18 -30.5 -48 -48 q-30 -17.5 -65 -17.5 q-35 0 -65.5 17.5 q-30.5 17.5 -48 48 q-17.5 30.5 -17.5 65.5 q0 35 17.5 65 q17.5 30 48 48 q30.5 18 65.5 18 Z" /><glyph glyph-name="grave" unicode="`" d="M70 1665 q19 15 44 15 q44 0 79 -46 q27 -35 82 -140 q75 -146 141 -249 l-23 -18 q-89 94 -206 196 q-85 75 -117 115 q-28 37 -28 70 q0 34 28 57 Z" /><glyph glyph-name="hungarumlaut" unicode="&#x2dd;" d="M397 1665 q28 -23 28 -57 q0 -33 -28 -70 q-32 -40 -117 -115 q-117 -102 -206 -196 l-23 18 q66 103 141 249 q55 105 82 140 q35 46 79 46 q25 0 44 -15 ZM762 1665 q28 -23 28 -57 q0 -33 -28 -70 q-29 -37 -116 -113 q-119 -104 -208 -198 l-22 18 q66 103 141 249 q55 105 82 140 q35 46 78 46 q26 0 45 -15 Z" /><glyph glyph-name="macron" unicode="¯" d="M51 1407 l0 51 l639 0 l0 -51 l-639 0 Z" /><glyph glyph-name="ogonek" unicode="&#x2db;" d="M397 6 q-5 -5 -20 -10 q-178 -76 -178 -193 q0 -41 23.5 -65.5 q23.5 -24.5 64.5 -24.5 q37 0 70.5 19.5 q33.5 19.5 54.5 48.5 l30 -27 q-91 -139 -231 -139 q-73 0 -117.5 36.5 q-44.5 36.5 -44.5 96.5 q0 80 73.5 147 q73.5 67 209.5 111 l65 0 Z" /><glyph glyph-name="ring" unicode="&#x2da;" d="M268 1620 q54 0 99.5 -23 q45.5 -23 72.5 -65.5 q27 -42.5 27 -97.5 q0 -57 -27 -100 q-27 -43 -72.5 -66 q-45.5 -23 -99.5 -23 q-53 0 -97.5 23 q-44.5 23 -71.5 66 q-27 43 -27 100 q0 55 27 97.5 q27 42.5 72 65.5 q45 23 97 23 ZM268 1577 q-34 0 -66 -17 q-32 -17 -52.5 -50 q-20.5 -33 -20.5 -78 q0 -46 20.5 -78.5 q20.5 -32.5 52.5 -49 q32 -16.5 66 -16.5 q36 0 68.5 16.5 q32.5 16.5 53 49 q20.5 32.5 20.5 78.5 q0 45 -20.5 78 q-20.5 33 -53.5 50 q-33 17 -68 17 Z" /><glyph glyph-name="tilde" unicode="&#x2dc;" d="M295 1573 q51 0 88.5 -18.5 q37.5 -18.5 83.5 -54.5 q40 -31 69.5 -46.5 q29.5 -15.5 67.5 -15.5 q93 0 158 108 l29 -14 q-31 -108 -95.5 -159.5 q-64.5 -51.5 -146.5 -51.5 q-53 0 -91.5 19.5 q-38.5 19.5 -83.5 55.5 q-42 32 -70.5 47 q-28.5 15 -65.5 15 q-91 0 -158 -110 l-29 14 q31 108 95.5 159.5 q64.5 51.5 148.5 51.5 Z" /><glyph glyph-name="commaaccentcomb" unicode="&#x326;" d="M203 -141 q59 0 96 -41.5 q37 -41.5 37 -102.5 q0 -77 -36.5 -125.5 q-36.5 -48.5 -131.5 -83.5 l-14 37 q53 16 90.5 50 q37.5 34 36.5 79 q-37 -32 -86 -32 q-47 0 -77 29 q-30 29 -30 81 q0 46 33.5 77.5 q33.5 31.5 81.5 31.5 Z" /></font>
</defs>
</svg>
