<svg xmlns="http://www.w3.org/2000/svg" viewBox="0 0 80 79.9947357"><path fill="#E58700" d="M75.658 7.855c1.227 0 1.842.615 1.842 1.841v44.531c0 1.229-.615 1.842-1.842 1.842H4.342c-1.231 0-1.842-.613-1.842-1.842V9.696c0-1.226.61-1.841 1.842-1.841h71.316zm-3.515 42.857v-37.5H7.857v37.5h64.286zM47.7 72.14H32.299c-3.91 0-5.805-.389-5.692-1.172 0-.221.222-.502.67-.837.443-.335 1.142-.78 2.092-1.339.946-.556 1.675-1.032 2.177-1.423.502-.389.753-.753.753-1.088l.168-7.534h15.066c.109 4.577.168 7.088.168 7.534 0 .335.251.699.753 1.088.502.391 1.226.867 2.177 1.423.945.559 1.644 1.004 2.092 1.34 1.34 1.004.724 1.62-1.841 1.84l-3.181.168z"/></svg>