<svg xmlns="http://www.w3.org/2000/svg" viewBox="0 0 80 79.9947357"><path fill="#FFF" d="M25.506 39.844l-8.589 3.988c-2.558 1.227-3.834 3.324-3.834 6.288v10.736H4.647c-1.434 0-2.147-.816-2.147-2.454V48.28c0-1.124.46-1.89 1.38-2.301l12.73-5.982c-3.374-2.043-5.06-5.316-5.06-9.816 0-3.067.92-5.674 2.76-7.822s4.087-3.22 6.748-3.22c1.534 0 3.068.511 4.602 1.533-.92 2.147-1.38 4.552-1.38 7.209 0 3.988 1.019 7.466 3.067 10.43-.41.41-1.024.92-1.84 1.533zm35.736 7.515c1.02.512 1.534 1.433 1.534 2.761v12.576c0 .82-.257 1.534-.767 2.148-.514.613-1.128.92-1.84.92H19.525c-.718 0-1.331-.307-1.841-.92-.514-.614-.767-1.328-.767-2.147V50.12c0-1.227.56-2.147 1.687-2.76l11.503-5.369 4.448-1.994c-2.25-1.43-3.888-3.22-4.908-5.368-1.024-2.248-1.534-4.497-1.534-6.748 0-1.022.203-2.35.614-3.988.816-2.76 2.246-5.061 4.294-6.902 2.044-1.84 4.345-2.76 6.902-2.76 2.657 0 5.008.947 7.056 2.837 2.043 1.892 3.423 4.27 4.14 7.132.307 1.227.46 2.454.46 3.68 0 2.353-.46 4.449-1.38 6.29-1.127 2.557-2.71 4.447-4.754 5.674l4.754 2.3 11.043 5.215zm15.031-1.38c.817.512 1.227 1.279 1.227 2.3v10.123c0 1.638-.668 2.454-1.994 2.454H66.61V50.12c0-3.067-1.227-5.163-3.68-6.288l-8.283-3.835a9.166 9.166 0 0 1-2.147-1.84c1.94-3.068 2.914-6.491 2.914-10.276 0-2.76-.41-5.111-1.227-7.055 1.43-1.124 3.068-1.688 4.908-1.688 2.553 0 4.755 1.074 6.595 3.221s2.76 4.755 2.76 7.822c0 4.399-1.637 7.62-4.907 9.663l12.73 6.135z"/></svg>