<svg xmlns="http://www.w3.org/2000/svg" viewBox="0 0 80 79.9947357"><g fill="#E58700"><path d="M75.199 49.154c-.252-4.943-1.323-9.737-2.839-14.436-.52-1.615-1.066-3.222-1.6-4.832l-2.04-4.827c-.52-1.011-1.044-2.022-1.56-3.035-2.487-4.878-5.338-9.522-9.117-13.512-1.465-1.546-3.12-2.944-4.834-4.213-1.812-1.341-3.894-2.084-6.23-1.701l-1.237.522c-1.54 1.218-2.318 2.888-2.894 4.712-.943 2.988-1.889 5.978-2.952 8.923-1.975 5.469-4.875 10.347-9.375 14.157-2.232 1.89-4.649 3.49-7.333 4.657-4.454 1.935-8.926 3.83-13.386 5.75-3.677 1.585-5.568 4.971-4.933 8.797.046.281.084.564.125.846l2.719 6.435c.292.392.568.796.877 1.173a7.88 7.88 0 0 0 9.17 2.29c4.486-1.864 8.94-3.807 13.444-5.63 4.139-1.675 8.444-2.634 12.938-2.625 4.848.01 9.399 1.244 13.656 3.49 2.587 1.364 5.03 3 7.6 4.402.98.536 2.106.9 3.21 1.102 2.24.41 4.306-.957 5.33-3.29 1.288-2.936 1.42-6.035 1.26-9.155zM13.746 51.06c-1.445-1.886-.737-5.307 1.401-6.277 2.771-1.256 5.598-2.387 8.402-3.57.057-.024.128-.014.226-.024l2.02 4.78-12.05 5.09zm29.52-3.684c-3.508.08-6.924.709-10.314 1.695l-4.382-10.37c6.357-3.75 11.088-8.97 14.384-15.568a124.005 124.005 0 0 0 10.78 25.651c-3.544-.997-6.969-1.487-10.467-1.408zm26.498 6.86c-.123.735-.394 1.444-.651 2.359-.841-.465-1.556-.78-2.184-1.22-2.462-1.726-4.46-3.934-6.18-6.367-1.573-2.223-2.988-4.557-4.468-6.844-.058-.09-.079-.204-.154-.407.789-.333 1.574-.644 2.342-.993 3.125-1.424 4.986-4.87 4.472-8.254-.793-5.224-6.063-8.142-11.062-6.123-.637.257-1.265.533-1.892.797-2.397-5.154-3.275-16.6-1.451-19.464.437.194.921.352 1.347.608 2.258 1.354 4.024 3.25 5.682 5.253 4.048 4.887 7.003 10.42 9.441 16.237 2.15 5.13 3.825 10.411 4.606 15.942.397 2.818.626 5.646.152 8.477z"/><path d="M36.256 67.409c-2.136-.615-3.461-2.004-4.15-4.02-.56-1.64-.975-3.328-1.457-5.002l-11.408 4.82 4.069 5.195c2.01 2.567 4.008 5.143 6.034 7.696.989 1.247 2.442 1.728 3.893 1.168 1.939-.749 3.863-1.555 5.725-2.473 1.754-.864 2.218-2.86 1.212-4.527-.906-1.504-2.3-2.392-3.918-2.857zM32.247 40.46l.991 2.346c2.427-1 4.755-2.093 6.857-3.577 1.322-.933 2.52-2.043 3.744-3.109.2-.173.404-.593.327-.791-.574-1.493-1.219-2.959-1.838-4.424-1.658 4.898-5.6 7.475-10.081 9.555z"/></g></svg>