<svg xmlns="http://www.w3.org/2000/svg" viewBox="0 0 40 40"><g fill="#FFF"><path d="M13.058 30.362H6.564c-1.894-.001-2.925-1.03-2.925-2.918V4.995v-.497h8.957c.02.262.03.514.058.765.11 1.01.837 1.685 1.846 1.693 1.264.01 2.527.005 3.791.002 1.171-.003 1.883-.655 1.991-1.82.02-.209.027-.419.041-.65h7.32c-1.564 1.957-1.695 4.05-.706 6.308H6.225V27.79h18.958v2.552h-5.21c.154.164.227.253.311.33 1.423 1.306 2.852 2.604 4.265 3.92.221.207.427.469.537.746.197.502-.026 1.084-.457 1.397-.445.324-1.067.342-1.507-.012-.452-.364-.872-.77-1.3-1.164-1.205-1.103-2.406-2.209-3.61-3.312-.121-.112-.25-.217-.437-.378-.01.216-.025.363-.025.51-.002 1.221.004 2.442-.004 3.664-.004.747-.348 1.25-.934 1.408-.867.233-1.614-.366-1.63-1.338-.017-1.164-.004-2.329-.004-3.493v-.582c-.172.15-.27.233-.366.32-1.531 1.397-3.065 2.791-4.592 4.193-.426.39-.907.537-1.448.333-.885-.332-1.087-1.448-.38-2.132.632-.612 1.295-1.193 1.945-1.786.818-.746 1.636-1.494 2.457-2.237.101-.091.223-.16.334-.24l-.07-.126z"/><path d="M31.821 15.77l1.956-2.009c1.683.925 2.573 2.303 2.579 4.21.01 3.066.003 6.132.003 9.198v.541h-2.08c-.04.786-.083 1.531-.117 2.278-.095 2.084-.189 4.168-.278 6.252-.035.794-.342 1.107-1.126 1.112-.625.005-1.25.004-1.874 0-.784-.004-1.093-.27-1.137-1.051-.083-1.474-.14-2.949-.207-4.423-.059-1.304-.117-2.609-.177-3.913-.003-.068-.02-.135-.037-.254H27.26V18.3c-.445.176-.826.345-1.22.473-.157.051-.37.07-.512.006a379.048 379.048 0 0 1-4.828-2.22c-.682-.32-1.055-.878-1.02-1.629.033-.725.42-1.25 1.112-1.52.51-.198.998-.105 1.479.12 1.065.497 2.138.981 3.199 1.488.264.126.488.14.762.027 1.034-.427 2.082-.823 3.115-1.253.274-.114.45-.097.661.129.571.612 1.17 1.197 1.812 1.848zM35.268 8.08c.007 1.901-1.56 3.473-3.459 3.47-1.895-.002-3.473-1.587-3.461-3.477a3.476 3.476 0 0 1 3.445-3.443 3.458 3.458 0 0 1 3.475 3.45zM16.46 5.677c-.624 0-1.248.004-1.871-.001-.44-.004-.642-.164-.66-.597a27.468 27.468 0 0 1 .003-1.827c.01-.434.275-.719.685-.729a73.39 73.39 0 0 1 3.692 0c.41.01.673.298.683.731.015.61.026 1.22 0 1.827-.018.432-.22.591-.661.595-.624.005-1.248.001-1.871.001z"/></g></svg>