<svg xmlns="http://www.w3.org/2000/svg" viewBox="0 0 40 40"><g fill="#FFF"><path d="M23.43 18.294c.6-.496.9-1.205.9-2.125 0-.76-.238-1.306-.717-1.636-.479-.332-1.257-.497-2.336-.497h-1.103v5.003h.717c1.09 0 1.937-.248 2.538-.745z"/><path d="M35.536 8.46c-.001-2.04-1.45-3.46-3.493-3.458-4.064.003-8.127 0-12.19 0-2.895 0-5.789-.007-8.683.004-1.754.007-3.1 1.144-3.33 2.868-.102.763-.049 1.547-.06 2.321-.007.471-.001.943-.001 1.447.625 0 1.212-.008 1.8.004.333.006.677.003.998.08.98.233 1.745 1.273 1.598 2.176H4.462c.037 1.243.97 2.157 2.196 2.184.365.009.73.002 1.126.002v3.335c.757 0 1.484-.022 2.209.01.327.014.67.088.969.218.791.345 1.325 1.246 1.223 2.025H4.463a2.196 2.196 0 0 0 2.145 2.19c.378.01.756.002 1.18.002v3.337c.807 0 1.57-.012 2.333.003 1.148.023 2.172 1.12 2.072 2.242H4.47c-.027 1.006.705 1.948 1.686 2.123.518.092 1.055.076 1.605.11.146 2.192 1.835 3.33 3.686 3.317 6.46-.043 12.92-.017 19.38-.017.993 0 1.375-.386 1.375-1.393V9.73c0-1.005-.382-1.392-1.377-1.392L12.21 8.337c-.208 0-.419.016-.624-.007-.288-.032-.46-.214-.495-.5-.036-.288.1-.497.37-.596.113-.042.25-.035.375-.035 6.714-.002 13.429.008 20.143-.015.857-.003 1.379.522 1.377 1.383-.021 7.64-.013 15.281-.013 22.922 0 .75.432 1.26 1.081 1.27.65.011 1.112-.499 1.112-1.24.001-7.686.004-15.373 0-23.06zM17.249 21.76h1.122v-1.306h-1.122v-1.416h1.122v-6.365h3.494c1.006 0 1.785.084 2.336.248a2.81 2.81 0 0 1 1.361.874c.455.553.68 1.3.68 2.244 0 1.374-.465 2.45-1.397 3.228-.932.78-2.225 1.17-3.881 1.17h-.79v1.323h5.517v1.38h-5.517v2.41H18.37v-2.41h-1.122v-1.38z"/></g></svg>