<svg xmlns="http://www.w3.org/2000/svg" viewBox="0 0 40 40"><path fill="#E58700" d="M36.744 12.288c.52.1.935.35 1.244.749.308.399.414.832.32 1.3l-2.986 20.635c-.1.521-.35.922-.745 1.204-.397.282-.856.372-1.376.273L7.298 32.827c-.52-.1-.938-.324-1.25-.67-.314-.347-.42-.78-.32-1.301l.487-3.612-1.19-.029c-.477.01-.874-.145-1.19-.465a1.62 1.62 0 0 1-.494-1.118l.032-18.757c-.013-.425.139-.795.459-1.11.32-.316.719-.478 1.197-.488l23.508.225c.478-.009.874.146 1.19.466.315.32.48.693.495 1.118l.007 4.293 6.515.909zM8.714 10.22c.094-.468.328-.857.702-1.168.372-.31.821-.442 1.347-.394l17.187 2.433.064-2.458-.079-.007.008-.079c-.068-.43-.311-.664-.732-.702L6.477 7.713c-.526-.047-.81.165-.853.638l-.007.08-.012 14.147 1.598-1.842 1.51-10.515zm24.644 20.996l2.204-15.539.008-.079c.047-.525-.218-.814-.796-.867l-4.551-.651-2.272-.365-16.02-2.17c-.525-.047-.862.16-1.01.624l-.007.08-.687 4.945-1.468 10.041-.05.552.523-.509 8.822-7.864c.344-.287.725-.41 1.147-.373.473.043.823.261 1.053.652l3.04 4.171.215.258c.19.23.444.358.76.387.157.014.401-.043.73-.172l1.427-.825c.281-.186.58-.265.896-.236.42.038.697.196.831.473l1.893 2.794 3.312 4.673zm-4.188-9.919c-.788-.071-1.422-.393-1.9-.967-.477-.573-.68-1.254-.609-2.043s.407-1.42 1.007-1.895c.6-.475 1.267-.68 2.003-.614.789.072 1.42.408 1.896 1.007.475.6.68 1.268.613 2.003-.067.737-.401 1.355-1.003 1.857s-1.271.719-2.007.652z"/></svg>