<svg xmlns="http://www.w3.org/2000/svg" viewBox="0 0 80 79.9947357"><path fill="#FFF" d="M69.571 25.212L74.5 74.497h-69l4.929-49.285h9.857v-.616c0-5.237 1.872-9.728 5.621-13.477 3.748-3.747 8.24-5.622 13.477-5.622h1.232c5.237 0 9.728 1.875 13.477 5.622 3.747 3.749 5.621 8.24 5.621 13.477v.616h9.857zM11.045 69.569h57.91l-3.85-39.429h-5.39v5.545c1.641 1.027 2.464 2.464 2.464 4.312 0 1.439-.462 2.619-1.387 3.543s-2.105 1.386-3.542 1.386c-1.439 0-2.618-.462-3.542-1.386s-1.387-2.104-1.387-3.543c0-1.848.821-3.285 2.465-4.312V30.14H25.214v5.545c1.642 1.027 2.465 2.464 2.465 4.312 0 1.439-.462 2.619-1.387 3.543-.924.924-2.105 1.386-3.542 1.386-1.439 0-2.618-.462-3.542-1.386-.925-.924-1.387-2.104-1.387-3.543 0-1.848.821-3.285 2.465-4.312V30.14h-5.39L11.044 69.57zm14.17-44.973v.616h29.57v-.616c0-3.902-1.385-7.24-4.158-10.012-2.772-2.772-6.11-4.158-10.01-4.158h-1.233c-3.903 0-7.239 1.386-10.011 4.158s-4.159 6.11-4.159 10.012z"/></svg>