<?xml version="1.0" standalone="no"?><!DOCTYPE svg PUBLIC "-//W3C//DTD SVG 1.1//EN" "http://www.w3.org/Graphics/SVG/1.1/DTD/svg11.dtd" ><svg xmlns="http://www.w3.org/2000/svg"><metadata></metadata><defs><font id="Google:Roboto:2014" horiz-adv-x="2308"><font-face font-family="Roboto" font-weight="300" font-stretch="normal" units-per-em="2048" panose-1="0 0 0 0 0 0 0 0 0 0" ascent="1900" descent="-500" x-height="0" bbox="-868 -555 2358 2163" underline-thickness="100" underline-position="-150" unicode-range="U+0000-fffd" /><missing-glyph horiz-adv-x="493"  /><glyph glyph-name=".null" unicode="" d="" /><glyph glyph-name="nonmarkingreturn" unicode="" d="" /><glyph glyph-name="space" unicode=" " d="" /><glyph glyph-name="quotedbl" unicode="&quot;" d="M361 1390 l-68 -307 l-81 0 l54 319 l21 134 l97 0 l-23 -146 ZM590 1392 l-68 -309 l-82 0 l56 327 l20 126 l97 0 l-23 -144 Z" /><glyph glyph-name="numbersign" unicode="#" d="M678 410 l-298 0 l-147 -410 l-102 0 l146 410 l-246 0 l16 93 l262 0 l158 441 l-270 0 l17 96 l286 0 l150 416 l102 0 l-149 -416 l299 0 l149 416 l103 0 l-150 -416 l222 0 l-17 -96 l-238 0 l-158 -441 l247 0 l-17 -93 l-263 0 l-146 -410 l-103 0 l147 410 ZM412 503 l299 0 l157 441 l-299 0 l-157 -441 Z" /><glyph glyph-name="dollar" unicode="$" d="M834 366 q7 65 -12.5 113 q-19.5 48 -56.5 84.5 q-37 36.5 -86.5 63 q-49.5 26.5 -103.5 47.5 q-73 29 -137 64.5 q-64 35.5 -110.5 84 q-46.5 48.5 -71 113 q-24.5 64.5 -17.5 152.5 q7 87 41.5 156 q34.5 69 90 117.5 q55.5 48.5 128.5 77.5 q73 29 156 37 l35 201 l102 0 l-35 -203 q87 -13 146 -54 q59 -41 93.5 -101 q34.5 -60 46 -135 q11.5 -75 4.5 -156 l-118 0 q6 64 -3.5 124.5 q-9.5 60.5 -38 108.5 q-28.5 48 -77.5 77.5 q-49 29.5 -122 31.5 q-65 1 -122 -18 q-57 -19 -101 -55.5 q-44 -36.5 -72.5 -89 q-28.5 -52.5 -35.5 -117.5 q-7 -68 12 -116.5 q19 -48.5 55.5 -84.5 q36.5 -36 87.5 -61.5 q51 -25.5 107 -47.5 q73 -29 137 -64 q64 -35 110 -83.5 q46 -48.5 70.5 -113 q24.5 -64.5 17.5 -150.5 q-7 -90 -43 -158.5 q-36 -68.5 -93.5 -117 q-57.5 -48.5 -132.5 -76.5 q-75 -28 -159 -35 l-33 -190 l-101 0 l33 190 q-91 9 -158.5 45 q-67.5 36 -110.5 93 q-43 57 -61.5 133 q-18.5 76 -10.5 165 l119 0 q-6 -72 8.5 -133 q14.5 -61 49.5 -105 q35 -44 90.5 -69.5 q55.5 -25.5 130.5 -26.5 q65 -1 125.5 17.5 q60.5 18.5 108.5 55 q48 36.5 79.5 89 q31.5 52.5 38.5 120.5 Z" /><glyph glyph-name="percent" unicode="%" d="M201 1175 q7 62 32.5 117.5 q25.5 55.5 66.5 97.5 q41 42 95.5 66 q54.5 24 120.5 22 q62 -2 109 -27.5 q47 -25.5 78 -67 q31 -41.5 44.5 -95.5 q13.5 -54 9.5 -112 l-8 -77 q-7 -61 -32 -116 q-25 -55 -65.5 -96.5 q-40.5 -41.5 -95 -65.5 q-54.5 -24 -119.5 -22 q-62 1 -109 26.5 q-47 25.5 -78.5 67 q-31.5 41.5 -45.5 95 q-14 53.5 -10 111.5 l7 76 ZM291 1097 q-3 -39 3.5 -76.5 q6.5 -37.5 24.5 -67 q18 -29.5 48.5 -48.5 q30.5 -19 74.5 -20 q46 -1 82.5 16.5 q36.5 17.5 63 47.5 q26.5 30 42.5 69 q16 39 22 81 l8 78 q3 38 -3 76 q-6 38 -24 68 q-18 30 -48 49.5 q-30 19.5 -74 20.5 q-46 1 -82.5 -17 q-36.5 -18 -63.5 -48 q-27 -30 -43.5 -69 q-16.5 -39 -21.5 -81 l-9 -79 ZM770 356 q7 61 32.5 116.5 q25.5 55.5 66.5 97.5 q41 42 95.5 65.5 q54.5 23.5 119.5 22.5 q62 -2 109.5 -27 q47.5 -25 78.5 -66.5 q31 -41.5 44.5 -95.5 q13.5 -54 9.5 -112 l-7 -78 q-7 -62 -32.5 -117 q-25.5 -55 -66.5 -96.5 q-41 -41.5 -95.5 -65.5 q-54.5 -24 -119.5 -22 q-62 1 -109.5 26.5 q-47.5 25.5 -78 67 q-30.5 41.5 -44.5 95.5 q-14 54 -10 112 l7 77 ZM859 277 q-3 -39 3.5 -76.5 q6.5 -37.5 24.5 -67.5 q18 -30 48.5 -49 q30.5 -19 74.5 -20 q46 -1 82.5 16.5 q36.5 17.5 63.5 47.5 q27 30 43 69.5 q16 39.5 22 81.5 l8 79 q3 39 -3 77 q-6 38 -23.5 68 q-17.5 30 -48 48.5 q-30.5 18.5 -75.5 19.5 q-46 1 -83 -16.5 q-37 -17.5 -63.5 -47 q-26.5 -29.5 -43 -69 q-16.5 -39.5 -21.5 -81.5 l-9 -80 ZM345 122 l-73 53 l885 1131 l69 -48 l-881 -1136 Z" /><glyph glyph-name="ampersand" unicode="&amp;" d="M422 796 q-23 39 -44.5 79.5 q-21.5 40.5 -37 83 q-15.5 42.5 -23.5 87 q-8 44.5 -4 91.5 q6 75 35 138 q29 63 77 108.5 q48 45.5 112 70 q64 24.5 141 23.5 q59 -2 110.5 -22 q51.5 -20 88.5 -56.5 q37 -36.5 56.5 -87 q19.5 -50.5 15.5 -112.5 q-4 -52 -25 -97 q-21 -45 -52.5 -84 q-31.5 -39 -71 -72.5 q-39.5 -33.5 -79.5 -61.5 l-151 -105 l311 -461 q57 75 92 157 q35 82 50 176 l108 0 q-16 -121 -60.5 -226 q-44.5 -105 -125.5 -196 l152 -229 l-132 0 l-97 144 q-44 -38 -91.5 -68.5 q-47.5 -30.5 -99.5 -52 q-52 -21.5 -107.5 -33 q-55.5 -11.5 -113.5 -10.5 q-85 1 -159 27.5 q-74 26.5 -127.5 75.5 q-53.5 49 -81 119.5 q-27.5 70.5 -20.5 160.5 q6 72 38 133.5 q32 61.5 79 113 q47 51.5 104 95 q57 43.5 114 79.5 l19 12 ZM461 82 q50 -1 96.5 10.5 q46.5 11.5 89.5 31.5 q43 20 83 48 q40 28 76 60 l-318 469 l-11 15 l-49 -35 q-38 -29 -78 -63 q-40 -34 -73.5 -74 q-33.5 -40 -57.5 -85.5 q-24 -45.5 -30 -95.5 q-9 -66 9.5 -117.5 q18.5 -51.5 56 -87.5 q37.5 -36 91 -55.5 q53.5 -19.5 115.5 -20.5 ZM432 1142 q-4 -38 2 -74.5 q6 -36.5 18.5 -72 q12.5 -35.5 29.5 -69 q17 -33.5 36 -64.5 l138 99 q31 22 61 46.5 q30 24.5 54.5 54 q24.5 29.5 41 63.5 q16.5 34 20.5 75 q4 39 -7 71 q-11 32 -33 55 q-22 23 -53.5 36 q-31.5 13 -69.5 13 q-50 1 -92 -17.5 q-42 -18.5 -72.5 -51 q-30.5 -32.5 -49.5 -75 q-19 -42.5 -24 -89.5 Z" /><glyph glyph-name="quotesingle" unicode="&#39;" d="M344 1389 l-63 -299 l-91 0 l54 312 l22 134 l101 0 l-23 -147 Z" /><glyph glyph-name="parenleft" unicode="(" d="M133 584 q14 95 39 196 q25 101 61.5 201.5 q36.5 100.5 85 197 q48.5 96.5 110 181.5 q61.5 85 137 155 q75.5 70 165.5 118 l21 -82 q-114 -78 -198.5 -189 q-84.5 -111 -144.5 -239.5 q-60 -128.5 -97.5 -266 q-37.5 -137.5 -58.5 -266.5 l-3 -20 q-10 -71 -17 -155.5 q-7 -84.5 -5.5 -174.5 q1.5 -90 13 -180.5 q11.5 -90.5 37 -173.5 q25.5 -83 67.5 -154.5 q42 -71.5 104 -123.5 l-35 -77 q-74 55 -127.5 130 q-53.5 75 -89 163 q-35.5 88 -55 184 q-19.5 96 -26 193 q-6.5 97 -2 191 q4.5 94 16.5 177 l2 15 Z" /><glyph glyph-name="parenright" unicode=")" d="M495 577 q-15 -96 -39.5 -197 q-24.5 -101 -60.5 -201.5 q-36 -100.5 -84.5 -196 q-48.5 -95.5 -110 -180 q-61.5 -84.5 -137 -154.5 q-75.5 -70 -166.5 -119 l-21 78 q76 52 139 119.5 q63 67.5 113.5 146 q50.5 78.5 90.5 165.5 q40 87 70 176.5 q30 89.5 51 180.5 q21 91 35 177 l4 20 q10 70 16.5 154.5 q6.5 84.5 5 174.5 q-1.5 90 -13 181 q-11.5 91 -37 174.5 q-25.5 83.5 -67 155.5 q-41.5 72 -103.5 123 l35 76 q74 -54 127 -129.5 q53 -75.5 88 -163.5 q35 -88 54.5 -184.5 q19.5 -96.5 26.5 -194 q7 -97.5 3 -191 q-4 -93.5 -16 -175.5 l-3 -16 Z" /><glyph glyph-name="asterisk" unicode="*" d="M411 1003 l-306 108 l46 97 l305 -124 l54 372 l104 0 l-66 -369 l331 125 l17 -106 l-342 -115 l172 -296 l-89 -59 l-160 304 l-244 -301 l-79 66 l257 298 Z" /><glyph glyph-name="plus" unicode="+" d="M637 740 l430 0 l-20 -112 l-429 0 l-84 -482 l-120 0 l84 482 l-422 0 l20 112 l421 0 l81 466 l120 0 l-81 -466 Z" /><glyph glyph-name="comma" unicode="," d="M172 50 q-16 -98 -64.5 -179 q-48.5 -81 -124.5 -144 l-67 55 q51 59 87 122.5 q36 63.5 50 141.5 l24 142 l116 0 l-21 -138 Z" /><glyph glyph-name="hyphen" unicode="-" d="M512 592 l-467 0 l18 101 l467 0 l-18 -101 Z" /><glyph glyph-name="period" unicode="." d="M48 72 q3 35 28.5 59.5 q25.5 24.5 60.5 25.5 q36 1 59 -24 q23 -25 20 -61 q-2 -35 -27.5 -57.5 q-25.5 -22.5 -60.5 -23.5 q-35 -1 -58.5 22 q-23.5 23 -21.5 59 Z" /><glyph glyph-name="slash" unicode="/" d="M13 -125 l-114 0 l865 1581 l113 0 l-864 -1581 Z" /><glyph glyph-name="zero" unicode="0" d="M989 608 q-12 -75 -31 -151 q-19 -76 -48 -146.5 q-29 -70.5 -70 -132 q-41 -61.5 -96.5 -106.5 q-55.5 -45 -126.5 -70 q-71 -25 -160 -22 q-85 2 -145.5 31 q-60.5 29 -101 76 q-40.5 47 -63 109 q-22.5 62 -32 131 q-9.5 69 -7.5 141 q2 72 11 139 l38 246 q11 74 30 150 q19 76 48.5 146 q29.5 70 71 131 q41.5 61 97 105.5 q55.5 44.5 126.5 68.5 q71 24 160 22 q85 -2 145.5 -30 q60.5 -28 100.5 -75 q40 -47 63 -108.5 q23 -61.5 32 -130 q9 -68.5 7 -140.5 q-2 -72 -11 -139 l-38 -245 ZM911 870 q7 48 10.5 103 q3.5 55 0 110.5 q-3.5 55.5 -16.5 107 q-13 51.5 -40.5 92 q-27.5 40.5 -71.5 65.5 q-44 25 -109 27 q-69 2 -124 -19 q-55 -21 -97 -58.5 q-42 -37.5 -73.5 -88.5 q-31.5 -51 -53.5 -108 q-22 -57 -36 -117 q-14 -60 -22 -116 l-43 -275 q-6 -47 -9.5 -103 q-3.5 -56 0 -112 q3.5 -56 17 -109 q13.5 -53 41 -94 q27.5 -41 71.5 -67 q44 -26 109 -28 q69 -3 123.5 19 q54.5 22 96.5 60.5 q42 38.5 73 90.5 q31 52 53 110 q22 58 36 118 q14 60 22 116 l43 276 Z" /><glyph glyph-name="one" unicode="1" d="M571 0 l-120 0 l228 1308 l-411 -146 l21 118 l508 181 l23 0 l-249 -1461 Z" /><glyph glyph-name="two" unicode="2" d="M925 0 l-887 0 l15 97 l543 536 q45 45 95 95.5 q50 50.5 94 107 q44 56.5 76 118 q32 61.5 40 128.5 q8 63 -5.5 116 q-13.5 53 -45 92 q-31.5 39 -81 61 q-49.5 22 -113.5 24 q-77 2 -139.5 -24 q-62.5 -26 -109.5 -71.5 q-47 -45.5 -77.5 -108 q-30.5 -62.5 -42.5 -134.5 l-115 -1 q12 96 52.5 177 q40.5 81 104.5 140.5 q64 59.5 148 92 q84 32.5 183 31.5 q85 -2 156 -29 q71 -27 119.5 -77 q48.5 -50 72.5 -120.5 q24 -70.5 15 -158.5 q-8 -80 -44 -153 q-36 -73 -87 -140 q-51 -67 -110 -126.5 q-59 -59.5 -113 -112.5 l-466 -459 l739 0 l-17 -101 Z" /><glyph glyph-name="three" unicode="3" d="M424 793 l114 -2 q68 0 133 18.5 q65 18.5 117.5 55 q52.5 36.5 88 91.5 q35.5 55 43.5 128 q7 64 -5.5 116.5 q-12.5 52.5 -44 91 q-31.5 38.5 -80.5 60 q-49 21.5 -115 23.5 q-71 2 -130.5 -19.5 q-59.5 -21.5 -106 -61 q-46.5 -39.5 -78 -96 q-31.5 -56.5 -44.5 -123.5 l-116 -1 q12 91 54.5 166.5 q42.5 75.5 106.5 128.5 q64 53 146 81.5 q82 28.5 174 26.5 q88 -2 158 -31 q70 -29 117.5 -81 q47.5 -52 69.5 -124.5 q22 -72.5 14 -160.5 q-6 -64 -32.5 -116.5 q-26.5 -52.5 -67.5 -94.5 q-41 -42 -92.5 -73.5 q-51.5 -31.5 -107.5 -53.5 q112 -41 164 -131 q52 -90 42 -208 q-9 -98 -51 -177 q-42 -79 -108.5 -134.5 q-66.5 -55.5 -152.5 -84.5 q-86 -29 -182 -27 q-91 2 -166.5 32.5 q-75.5 30.5 -128 84.5 q-52.5 54 -79 130 q-26.5 76 -18.5 168 l118 0 q-6 -68 11 -125 q17 -57 54 -98.5 q37 -41.5 91.5 -65 q54.5 -23.5 123.5 -25.5 q75 -2 139 19.5 q64 21.5 112.5 63 q48.5 41.5 79 101 q30.5 59.5 38.5 134.5 q7 74 -12 128.5 q-19 54.5 -59 90 q-40 35.5 -97.5 53 q-57.5 17.5 -126.5 19.5 l-127 1 l19 102 Z" /><glyph glyph-name="four" unicode="4" d="M825 469 l220 0 l-18 -101 l-219 0 l-65 -368 l-119 0 l64 368 l-661 0 l8 67 l827 1021 l134 0 l-171 -987 ZM190 469 l515 0 l144 820 l-62 -83 l-597 -737 Z" /><glyph glyph-name="five" unicode="5" d="M236 748 l190 708 l711 0 l-20 -111 l-605 0 l-141 -492 q60 41 130.5 60.5 q70.5 19.5 142.5 18.5 q98 -1 168 -40 q70 -39 112.5 -102.5 q42.5 -63.5 59.5 -146 q17 -82.5 8 -171.5 q-10 -103 -47 -194 q-37 -91 -99.5 -158.5 q-62.5 -67.5 -150 -105.5 q-87.5 -38 -197.5 -35 q-90 2 -159.5 32.5 q-69.5 30.5 -117 84.5 q-47.5 54 -72 127.5 q-24.5 73.5 -23.5 160.5 l113 0 q0 -65 16 -120 q16 -55 48.5 -95 q32.5 -40 82.5 -63.5 q50 -23.5 119 -25.5 q86 -3 151 29 q65 32 110 86.5 q45 54.5 71.5 126 q26.5 71.5 34.5 149.5 q7 67 -4 129.5 q-11 62.5 -42 111.5 q-31 49 -82.5 79 q-51.5 30 -126.5 32 q-84 2 -152.5 -24.5 q-68.5 -26.5 -132.5 -78.5 l-96 28 Z" /><glyph glyph-name="six" unicode="6" d="M952 1468 l-12 -105 l-16 0 q-137 0 -244 -44.5 q-107 -44.5 -187.5 -122.5 q-80.5 -78 -136.5 -184.5 q-56 -106.5 -90 -229.5 q72 85 167 130.5 q95 45.5 207 43.5 q98 -2 167 -43.5 q69 -41.5 110.5 -107.5 q41.5 -66 57.5 -149.5 q16 -83.5 7 -171.5 q-9 -97 -46 -189 q-37 -92 -99 -163 q-62 -71 -147.5 -113 q-85.5 -42 -191.5 -40 q-72 2 -131 24 q-59 22 -104 60 q-45 38 -77 89 q-32 51 -50.5 110 q-18.5 59 -24.5 123 q-6 64 2 129 l17 129 q16 111 47.5 215 q31.5 104 80 196 q48.5 92 114 168 q65.5 76 149 130.5 q83.5 54.5 185.5 85 q102 30.5 224 30.5 l22 0 ZM615 853 q-53 1 -112 -16 q-59 -17 -111 -49 q-52 -32 -92 -77 q-40 -45 -56 -99 l-12 -101 q-8 -71 1.5 -146.5 q9.5 -75.5 41 -137.5 q31.5 -62 87 -103 q55.5 -41 141.5 -43 q81 -2 145 33 q64 35 110 92.5 q46 57.5 72.5 129.5 q26.5 72 34.5 144 q7 66 -2.5 132 q-9.5 66 -39 119 q-29.5 53 -81 86.5 q-51.5 33.5 -127.5 35.5 Z" /><glyph glyph-name="seven" unicode="7" d="M1127 1387 l-817 -1387 l-130 0 l812 1354 l-801 0 l16 102 l928 0 l-8 -69 Z" /><glyph glyph-name="eight" unicode="8" d="M1050 1090 q-6 -65 -30.5 -118.5 q-24.5 -53.5 -63.5 -96.5 q-39 -43 -89.5 -76 q-50.5 -33 -107.5 -56 q52 -24 92.5 -59.5 q40.5 -35.5 67 -80.5 q26.5 -45 38.5 -98 q12 -53 8 -110 q-8 -101 -52.5 -179 q-44.5 -78 -113.5 -131.5 q-69 -53.5 -157 -80 q-88 -26.5 -184 -24.5 q-89 2 -164.5 29.5 q-75.5 27.5 -129 78 q-53.5 50.5 -80.5 124 q-27 73.5 -19 166.5 q6 71 34 129.5 q28 58.5 72 105 q44 46.5 101 81 q57 34.5 121 57.5 q-45 24 -79 58 q-34 34 -55.5 75.5 q-21.5 41.5 -30.5 89 q-9 47.5 -5 98.5 q7 94 46.5 169.5 q39.5 75.5 102.5 128.5 q63 53 144.5 80.5 q81.5 27.5 173.5 25.5 q84 -2 154 -30.5 q70 -28.5 118 -78.5 q48 -50 71.5 -120.5 q23.5 -70.5 16.5 -156.5 ZM846 394 q7 66 -11 121 q-18 55 -56 95 q-38 40 -92 62.5 q-54 22.5 -119 24.5 q-72 1 -138.5 -21 q-66.5 -22 -118 -64.5 q-51.5 -42.5 -85.5 -102.5 q-34 -60 -42 -133 q-8 -68 10 -122.5 q18 -54.5 56 -92.5 q38 -38 92.5 -59 q54.5 -21 120.5 -22 q72 -2 138.5 19 q66.5 21 118 61.5 q51.5 40.5 85 99.5 q33.5 59 41.5 134 ZM930 1091 q6 59 -9.5 110 q-15.5 51 -48.5 89.5 q-33 38.5 -81 60.5 q-48 22 -108 24 q-67 1 -126.5 -20.5 q-59.5 -21.5 -105 -62 q-45.5 -40.5 -74.5 -96.5 q-29 -56 -36 -123 q-6 -60 9.5 -110 q15.5 -50 48 -86.5 q32.5 -36.5 81 -57.5 q48.5 -21 108.5 -22 q66 -2 125 19 q59 21 105 60 q46 39 76 94 q30 55 36 121 Z" /><glyph glyph-name="nine" unicode="9" d="M234 92 q142 0 248.5 42.5 q106.5 42.5 183 119.5 q76.5 77 127.5 183.5 q51 106.5 82 235.5 q-35 -44 -77 -80.5 q-42 -36.5 -90 -63 q-48 -26.5 -101 -40.5 q-53 -14 -111 -12 q-97 2 -165.5 45.5 q-68.5 43.5 -110.5 111.5 q-42 68 -57.5 153 q-15.5 85 -7.5 171 q10 99 48 193 q38 94 101 167 q63 73 150.5 117 q87.5 44 195.5 42 q80 -2 141 -27 q61 -25 105 -67 q44 -42 71.5 -98 q27.5 -56 41.5 -120 q14 -64 16 -133 q2 -69 -6 -137 l-15 -116 q-23 -166 -79.5 -310.5 q-56.5 -144.5 -151 -251 q-94.5 -106.5 -229.5 -168 q-135 -61.5 -316 -61.5 l-30 0 l12 104 l24 0 ZM516 580 q63 -2 120 17.5 q57 19.5 105.5 54.5 q48.5 35 87 82.5 q38.5 47.5 65.5 102.5 l8 70 q6 48 6 101 q0 53 -8 104 q-8 51 -25.5 98 q-17.5 47 -48 83 q-30.5 36 -75 57.5 q-44.5 21.5 -105.5 23.5 q-83 2 -148.5 -34.5 q-65.5 -36.5 -113 -96 q-47.5 -59.5 -75.5 -133.5 q-28 -74 -36 -147 q-7 -63 2 -130.5 q9 -67.5 37.5 -123 q28.5 -55.5 78.5 -91.5 q50 -36 125 -38 Z" /><glyph glyph-name="less" unicode="&lt;" d="M212 652 l624 -300 l-22 -121 l-739 381 l17 96 l872 379 l-24 -133 l-728 -302 Z" /><glyph glyph-name="equal" unicode="=" d="M995 829 l-812 0 l19 106 l812 0 l-19 -106 ZM923 418 l-811 0 l19 106 l811 0 l-19 -106 Z" /><glyph glyph-name="greater" unicode="&gt;" d="M820 662 l-638 303 l21 118 l757 -379 l-17 -97 l-889 -380 l23 131 l743 304 Z" /><glyph glyph-name="question" unicode="?" d="M339 402 q7 60 23.5 110 q16.5 50 42.5 93.5 q26 43.5 61.5 83 q35.5 39.5 81.5 78.5 q42 36 81.5 72 q39.5 36 72 77 q32.5 41 54.5 88 q22 47 28 106 q6 52 -3 99 q-9 47 -33 82.5 q-24 35.5 -64 56.5 q-40 21 -97 23 q-60 1 -110 -17 q-50 -18 -88.5 -52 q-38.5 -34 -64 -81.5 q-25.5 -47.5 -37.5 -104.5 l-115 -1 q12 82 48 149.5 q36 67.5 91.5 115.5 q55.5 48 128 73.5 q72.5 25.5 156.5 23.5 q79 -2 140 -30.5 q61 -28.5 101 -77 q40 -48.5 57.5 -114.5 q17.5 -66 10.5 -144 q-7 -71 -34 -131 q-27 -60 -67.5 -113 q-40.5 -53 -90.5 -99 q-50 -46 -103 -88 q-69 -55 -106.5 -122 q-37.5 -67 -54.5 -154 l-110 -2 ZM256 70 q3 34 27 57.5 q24 23.5 59 24.5 q35 1 57 -23 q22 -24 20 -59 q-3 -33 -28 -55.5 q-25 -22.5 -58 -23.5 q-35 -1 -57 21.5 q-22 22.5 -20 57.5 Z" /><glyph glyph-name="at" unicode="@" d="M1689 518 q-10 -59 -28.5 -122 q-18.5 -63 -46 -123.5 q-27.5 -60.5 -65 -114.5 q-37.5 -54 -85 -94 q-47.5 -40 -106.5 -63 q-59 -23 -129 -21 q-44 1 -80.5 15 q-36.5 14 -63.5 38.5 q-27 24.5 -42.5 60 q-15.5 35.5 -18.5 79.5 q-29 -39 -62 -75 q-33 -36 -72 -63 q-39 -27 -84.5 -42.5 q-45.5 -15.5 -97.5 -13.5 q-56 2 -94 24 q-38 22 -62 57.5 q-24 35.5 -35 80.5 q-11 45 -13.5 93.5 q-2.5 48.5 1.5 96.5 q4 48 12 89 q11 61 33 127.5 q22 66.5 54 130 q32 63.5 74 121 q42 57.5 94.5 100 q52.5 42.5 115 67 q62.5 24.5 135.5 23.5 q77 -2 135.5 -30 q58.5 -28 115.5 -77 l-135 -574 q-6 -36 -8.5 -77.5 q-2.5 -41.5 7.5 -77.5 q10 -36 35.5 -61 q25.5 -25 73.5 -27 q56 -2 101.5 18.5 q45.5 20.5 81.5 56.5 q36 36 63.5 83 q27.5 47 47.5 98 q20 51 33 102 q13 51 21 95 q18 104 21.5 204 q3.5 100 -13 189.5 q-16.5 89.5 -54.5 165 q-38 75.5 -101 130.5 q-63 55 -153.5 86.5 q-90.5 31.5 -212.5 33.5 q-120 2 -226.5 -30.5 q-106.5 -32.5 -198 -91.5 q-91.5 -59 -167 -140 q-75.5 -81 -134 -176.5 q-58.5 -95.5 -99 -201.5 q-40.5 -106 -61.5 -215 q-19 -98 -21.5 -198 q-2.5 -100 14.5 -192 q17 -92 55.5 -172.5 q38.5 -80.5 101 -140.5 q62.5 -60 151 -95 q88.5 -35 206.5 -36 q88 -2 173 19 q85 21 164 59 l23 -82 q-81 -48 -176 -68 q-95 -20 -189 -19 q-132 1 -234 38.5 q-102 37.5 -175.5 102 q-73.5 64.5 -121 152.5 q-47.5 88 -70.5 190.5 q-23 102.5 -23 215 q0 112.5 21 227.5 q22 123 67 241.5 q45 118.5 111 224.5 q66 106 151 195 q85 89 188 153 q103 64 222.5 99.5 q119.5 35.5 253.5 33.5 q132 -2 233.5 -37 q101.5 -35 175 -97 q73.5 -62 120 -146 q46.5 -84 69.5 -184 q23 -100 23 -211 q0 -111 -20 -227 ZM625 419 q-5 -27 -10 -62 q-5 -35 -6.5 -72.5 q-1.5 -37.5 3.5 -74 q5 -36.5 19 -65.5 q14 -29 39.5 -48.5 q25.5 -19.5 66.5 -21.5 q53 -3 101 19 q48 22 87.5 59 q39.5 37 69 84 q29.5 47 45.5 93 l130 520 q-32 24 -67 35.5 q-35 11.5 -75 13.5 q-61 2 -112 -19 q-51 -21 -92.5 -58 q-41.5 -37 -74 -86 q-32.5 -49 -57 -103 q-24.5 -54 -41 -109.5 q-16.5 -55.5 -26.5 -104.5 Z" /><glyph glyph-name="A" unicode="a" d="M909 408 l-638 0 l-217 -408 l-133 0 l787 1456 l117 0 l281 -1456 l-121 0 l-76 408 ZM326 513 l563 0 l-144 789 l-419 -789 Z" /><glyph glyph-name="B" unicode="b" d="M73 0 l253 1456 l410 -1 q89 -2 166.5 -23.5 q77.5 -21.5 133.5 -66.5 q56 -45 85 -115 q29 -70 20 -168 q-6 -62 -29 -113 q-23 -51 -59.5 -92 q-36.5 -41 -85 -71.5 q-48.5 -30.5 -104.5 -50.5 q55 -17 96.5 -50.5 q41.5 -33.5 68.5 -78.5 q27 -45 38.5 -98.5 q11.5 -53.5 7.5 -109.5 q-8 -104 -52.5 -183 q-44.5 -79 -114 -131.5 q-69.5 -52.5 -159 -78.5 q-89.5 -26 -188.5 -25 l-487 0 ZM317 700 l-104 -596 l350 -1 q74 0 141 20 q67 20 119.5 59 q52.5 39 86.5 97.5 q34 58.5 43 136.5 q7 66 -9 118 q-16 52 -51 88 q-35 36 -87 55.5 q-52 19.5 -116 21.5 l-373 1 ZM334 803 l319 -1 q68 1 130.5 18 q62.5 17 112 52.5 q49.5 35.5 82 88.5 q32.5 53 40.5 126 q7 72 -12 121.5 q-19 49.5 -58 80.5 q-39 31 -94.5 45 q-55.5 14 -120.5 16 l-303 1 l-96 -548 Z" /><glyph glyph-name="C" unicode="c" d="M1150 454 q-25 -110 -76.5 -198.5 q-51.5 -88.5 -126.5 -151 q-75 -62.5 -172.5 -95 q-97.5 -32.5 -212.5 -29.5 q-89 2 -158.5 30 q-69.5 28 -120.5 75.5 q-51 47.5 -84.5 110.5 q-33.5 63 -51 135 q-17.5 72 -20.5 150 q-3 78 7 155 l28 183 q13 84 40 166 q27 82 67.5 156 q40.5 74 94.5 136 q54 62 121.5 107 q67.5 45 148 69.5 q80.5 24.5 174.5 22.5 q108 -2 190.5 -37.5 q82.5 -35.5 138 -98.5 q55.5 -63 84 -149.5 q28.5 -86.5 27.5 -191.5 l-121 1 q0 80 -19 147.5 q-19 67.5 -58.5 116.5 q-39.5 49 -101 77.5 q-61.5 28.5 -146.5 30.5 q-116 3 -205 -44.5 q-89 -47.5 -153 -126.5 q-64 -79 -103 -178.5 q-39 -99.5 -55 -201.5 l-29 -186 q-8 -59 -8.5 -122 q-0.5 -63 10 -123.5 q10.5 -60.5 32.5 -115 q22 -54.5 59.5 -96 q37.5 -41.5 91 -67 q53.5 -25.5 126.5 -27.5 q94 -3 169 22 q75 25 132 73.5 q57 48.5 97 118 q40 69.5 65 155.5 l119 1 Z" /><glyph glyph-name="D" unicode="d" d="M73 0 l253 1456 l388 -1 q138 -3 239 -58.5 q101 -55.5 163.5 -147 q62.5 -91.5 86 -209.5 q23.5 -118 7.5 -246 l-20 -133 q-21 -140 -81.5 -261 q-60.5 -121 -153.5 -210.5 q-93 -89.5 -216 -140 q-123 -50.5 -270 -49.5 l-396 0 ZM430 1351 l-217 -1247 l260 -1 q123 0 224.5 43.5 q101.5 43.5 178 119 q76.5 75.5 126 177.5 q49.5 102 67.5 218 l20 137 q14 102 0 200 q-14 98 -59.5 175.5 q-45.5 77.5 -124 125.5 q-78.5 48 -194.5 51 l-281 1 Z" /><glyph glyph-name="E" unicode="e" d="M977 698 l-660 0 l-104 -594 l760 0 l-18 -104 l-882 0 l253 1456 l877 0 l-19 -105 l-754 0 l-96 -549 l661 0 l-18 -104 Z" /><glyph glyph-name="F" unicode="f" d="M972 680 l-658 0 l-119 -680 l-122 0 l253 1456 l878 0 l-19 -105 l-755 0 l-99 -566 l660 0 l-19 -105 Z" /><glyph glyph-name="G" unicode="g" d="M1131 173 q-44 -57 -105.5 -94.5 q-61.5 -37.5 -131.5 -59.5 q-70 -22 -143.5 -31 q-73.5 -9 -140.5 -8 q-92 1 -164.5 28.5 q-72.5 27.5 -127.5 74.5 q-55 47 -92.5 110.5 q-37.5 63.5 -58 136.5 q-20.5 73 -25 153.5 q-4.5 80.5 6.5 161.5 l27 177 q13 86 40 168.5 q27 82.5 68 156 q41 73.5 95.5 135 q54.5 61.5 122.5 105.5 q68 44 149.5 67.5 q81.5 23.5 177.5 21.5 q99 -2 179.5 -32 q80.5 -30 139 -85.5 q58.5 -55.5 91.5 -134.5 q33 -79 36 -179 l-120 0 q-7 152 -92 237 q-85 85 -239 89 q-117 3 -207.5 -43 q-90.5 -46 -155.5 -123.5 q-65 -77.5 -105.5 -177 q-40.5 -99.5 -56.5 -203.5 l-28 -180 q-9 -63 -7.5 -128.5 q1.5 -65.5 14 -127 q12.5 -61.5 38.5 -116 q26 -54.5 67 -96 q41 -41.5 98 -66 q57 -24.5 133 -25.5 q52 -1 105.5 4.5 q53.5 5.5 105 20.5 q51.5 15 98.5 39.5 q47 24.5 86 61.5 l66 376 l-379 0 l18 104 l501 0 l-84 -518 Z" /><glyph glyph-name="H" unicode="h" d="M1122 0 l-123 0 l122 698 l-804 0 l-122 -698 l-122 0 l253 1456 l122 0 l-114 -654 l804 0 l114 654 l124 0 l-254 -1456 Z" /><glyph glyph-name="I" unicode="i" d="M221 0 l-122 0 l253 1456 l122 0 l-253 -1456 Z" /><glyph glyph-name="J" unicode="j" d="M950 1456 l123 0 l-175 -1023 q-14 -98 -55 -182 q-41 -84 -104.5 -145.5 q-63.5 -61.5 -149 -95 q-85.5 -33.5 -188.5 -31.5 q-96 2 -168.5 33 q-72.5 31 -119.5 86 q-47 55 -67 132 q-20 77 -11 171 l122 0 q-7 -68 4.5 -125.5 q11.5 -57.5 42.5 -99.5 q31 -42 82 -66.5 q51 -24.5 123 -26.5 q78 -2 140.5 25.5 q62.5 27.5 109 75.5 q46.5 48 76 112 q29.5 64 40.5 136 l175 1024 Z" /><glyph glyph-name="K" unicode="k" d="M523 721 l-238 -205 l-90 -516 l-122 0 l253 1456 l122 0 l-135 -776 l233 210 l618 566 l163 0 l-711 -654 l494 -802 l-138 0 l-449 721 Z" /><glyph glyph-name="L" unicode="l" d="M214 104 l698 0 l-18 -104 l-821 0 l253 1456 l123 0 l-235 -1352 Z" /><glyph glyph-name="M" unicode="m" d="M484 1456 l297 -1282 l744 1282 l165 0 l-253 -1456 l-122 0 l111 639 l119 630 l-741 -1269 l-94 0 l-302 1279 l-103 -646 l-110 -633 l-122 0 l253 1456 l158 0 Z" /><glyph glyph-name="N" unicode="n" d="M1128 0 l-118 0 l-597 1248 l-217 -1248 l-123 0 l253 1456 l118 0 l598 -1249 l217 1249 l121 0 l-252 -1456 Z" /><glyph glyph-name="O" unicode="o" d="M1234 650 q-14 -86 -41 -170 q-27 -84 -68 -159 q-41 -75 -95.5 -138.5 q-54.5 -63.5 -123 -109 q-68.5 -45.5 -151 -70.5 q-82.5 -25 -178.5 -23 q-92 2 -164 30 q-72 28 -125 76 q-53 48 -88 112 q-35 64 -54 137.5 q-19 73.5 -22.5 153.5 q-3.5 80 7.5 160 l23 156 q13 86 40.5 169.5 q27.5 83.5 69 158.5 q41.5 75 96.5 139 q55 64 124 110 q69 46 151 71 q82 25 178 23 q92 -2 164 -30.5 q72 -28.5 125 -76 q53 -47.5 87.5 -112 q34.5 -64.5 53.5 -138 q19 -73.5 22 -154 q3 -80.5 -8 -160.5 l-23 -155 ZM1136 809 q8 63 8.5 128 q0.5 65 -11 126.5 q-11.5 61.5 -35 116 q-23.5 54.5 -63 96 q-39.5 41.5 -96 66.5 q-56.5 25 -132.5 27 q-80 2 -147 -19.5 q-67 -21.5 -122 -61 q-55 -39.5 -99 -93.5 q-44 -54 -76.5 -117 q-32.5 -63 -53.5 -132.5 q-21 -69.5 -32 -138.5 l-24 -159 q-9 -62 -8.5 -127.5 q0.5 -65.5 11.5 -127 q11 -61.5 35 -116.5 q24 -55 63.5 -96.5 q39.5 -41.5 96 -66.5 q56.5 -25 132.5 -27 q80 -2 147 19 q67 21 122.5 60 q55.5 39 98.5 93 q43 54 75.5 117 q32.5 63 53.5 133 q21 70 32 140 l24 160 Z" /><glyph glyph-name="P" unicode="p" d="M298 593 l-103 -593 l-122 0 l253 1456 l474 -1 q97 -3 176.5 -32.5 q79.5 -29.5 134 -83.5 q54.5 -54 81 -132.5 q26.5 -78.5 17.5 -178.5 q-11 -111 -57.5 -193 q-46.5 -82 -119 -136 q-72.5 -54 -167 -80.5 q-94.5 -26.5 -199.5 -26.5 l-368 1 ZM316 697 l355 -1 q79 0 150.5 20.5 q71.5 20.5 127 61.5 q55.5 41 92 103.5 q36.5 62.5 46.5 145.5 q8 74 -8.5 133 q-16.5 59 -55 100.5 q-38.5 41.5 -96 64.5 q-57.5 23 -130.5 25 l-367 1 l-114 -654 Z" /><glyph glyph-name="Q" unicode="q" d="M1230 650 q-15 -94 -43.5 -182 q-28.5 -88 -74.5 -165.5 q-46 -77.5 -110.5 -142 q-64.5 -64.5 -150.5 -110.5 l216 -233 l-91 -71 l-242 256 q-41 -10 -81.5 -15.5 q-40.5 -5.5 -82.5 -5.5 q-92 1 -163 29 q-71 28 -124 76 q-53 48 -87.5 112.5 q-34.5 64.5 -53.5 138.5 q-19 74 -22.5 153.5 q-3.5 79.5 7.5 158.5 l23 156 q13 86 40.5 169.5 q27.5 83.5 68.5 158.5 q41 75 96 139 q55 64 124 110 q69 46 151 71 q82 25 178 23 q92 -2 164 -30 q72 -28 125.5 -76 q53.5 -48 88.5 -112 q35 -64 53.5 -138 q18.5 -74 21.5 -154.5 q3 -80.5 -8 -160.5 l-23 -155 ZM1132 808 q8 63 8.5 128.5 q0.5 65.5 -11 127 q-11.5 61.5 -35 116 q-23.5 54.5 -63 96 q-39.5 41.5 -96.5 66.5 q-57 25 -133 27 q-79 2 -146 -19.5 q-67 -21.5 -122.5 -61 q-55.5 -39.5 -99 -93.5 q-43.5 -54 -76 -117 q-32.5 -63 -53.5 -132.5 q-21 -69.5 -32 -138.5 l-24 -159 q-9 -62 -9 -127.5 q0 -65.5 11.5 -127 q11.5 -61.5 35.5 -116.5 q24 -55 63 -96.5 q39 -41.5 95.5 -66.5 q56.5 -25 132.5 -27 q80 -2 147.5 19 q67.5 21 123 60 q55.5 39 98.5 93 q43 54 75.5 117 q32.5 63 53.5 133 q21 70 32 140 l24 159 Z" /><glyph glyph-name="R" unicode="r" d="M710 606 l-411 0 l-106 -606 l-123 0 l253 1456 l452 -1 q96 -2 176 -30 q80 -28 136.5 -81 q56.5 -53 84 -130.5 q27.5 -77.5 17.5 -178.5 q-8 -78 -38 -143 q-30 -65 -77.5 -116 q-47.5 -51 -110.5 -88 q-63 -37 -135 -59 l248 -615 l-1 -14 l-130 0 l-235 606 ZM317 711 l360 -1 q73 0 140 22.5 q67 22.5 119.5 64.5 q52.5 42 87 102.5 q34.5 60.5 43.5 136.5 q9 75 -9 132.5 q-18 57.5 -57.5 97.5 q-39.5 40 -98 61 q-58.5 21 -130.5 23 l-344 1 l-111 -640 Z" /><glyph glyph-name="S" unicode="s" d="M938 365 q6 50 -5 90 q-11 40 -34 71 q-23 31 -55.5 54.5 q-32.5 23.5 -71 42.5 q-38.5 19 -80 33.5 q-41.5 14.5 -81.5 27.5 q-74 24 -149 56.5 q-75 32.5 -134 80 q-59 47.5 -93 114 q-34 66.5 -27 158.5 q5 65 29 119.5 q24 54.5 62.5 97.5 q38.5 43 88.5 74.5 q50 31.5 106.5 52 q56.5 20.5 117 30.5 q60.5 10 119.5 9 q95 -2 176.5 -33.5 q81.5 -31.5 140 -88 q58.5 -56.5 89 -136 q30.5 -79.5 22.5 -177.5 l-122 0 q6 75 -14 135.5 q-20 60.5 -61 103.5 q-41 43 -101.5 66 q-60.5 23 -134.5 25 q-66 1 -132.5 -14.5 q-66.5 -15.5 -122 -49.5 q-55.5 -34 -94 -86.5 q-38.5 -52.5 -46.5 -125.5 q-8 -71 20.5 -120.5 q28.5 -49.5 77.5 -84 q49 -34.5 109 -57.5 q60 -23 115 -40 q79 -25 155.5 -59 q76.5 -34 135 -83.5 q58.5 -49.5 92 -119 q33.5 -69.5 26.5 -164.5 q-6 -68 -30.5 -123 q-24.5 -55 -64 -98.5 q-39.5 -43.5 -90.5 -75 q-51 -31.5 -109 -52 q-58 -20.5 -119.5 -30 q-61.5 -9.5 -122.5 -8.5 q-98 1 -186.5 30 q-88.5 29 -154 83.5 q-65.5 54.5 -101 135.5 q-35.5 81 -27.5 187 l122 0 q-7 -83 18 -144.5 q25 -61.5 74 -103 q49 -41.5 116 -62.5 q67 -21 144 -22 q67 -1 136 14.5 q69 15.5 126.5 49.5 q57.5 34 97 88 q39.5 54 47.5 129 Z" /><glyph glyph-name="T" unicode="t" d="M1268 1351 l-483 0 l-235 -1351 l-122 0 l235 1351 l-484 0 l19 105 l1089 0 l-19 -105 Z" /><glyph glyph-name="U" unicode="u" d="M1302 1456 l-169 -986 q-17 -112 -66 -203.5 q-49 -91.5 -124 -156 q-75 -64.5 -173 -99 q-98 -34.5 -212 -32.5 q-108 2 -192.5 38.5 q-84.5 36.5 -139.5 101 q-55 64.5 -79 154 q-24 89.5 -11 196.5 l169 987 l121 0 l-168 -988 q-10 -81 5 -150 q15 -69 54 -120 q39 -51 101 -81 q62 -30 146 -33 q90 -3 166 24 q76 27 134 78 q58 51 95 123 q37 72 51 160 l169 987 l123 0 Z" /><glyph glyph-name="V" unicode="v" d="M536 180 l2 -31 l14 31 l644 1276 l138 0 l-754 -1456 l-117 0 l-297 1456 l123 0 l247 -1276 Z" /><glyph glyph-name="W" unicode="w" d="M408 389 l7 -215 l87 213 l472 1069 l110 0 l136 -1079 l17 -206 l82 226 l420 1059 l128 0 l-590 -1456 l-117 0 l-143 1144 l-11 134 l-56 -139 l-506 -1139 l-117 0 l-134 1456 l122 0 l93 -1067 Z" /><glyph glyph-name="X" unicode="x" d="M642 842 l493 614 l152 0 l-584 -724 l364 -732 l-138 0 l-311 634 l-512 -634 l-151 0 l603 744 l-354 712 l138 0 l300 -614 Z" /><glyph glyph-name="Y" unicode="y" d="M600 664 l568 792 l148 0 l-673 -914 l-94 -542 l-122 0 l97 555 l-350 901 l137 0 l289 -792 Z" /><glyph glyph-name="Z" unicode="z" d="M159 104 l869 0 l-16 -104 l-1020 0 l16 98 l1030 1253 l-810 0 l17 105 l963 0 l-14 -93 l-1035 -1259 Z" /><glyph glyph-name="bracketleft" unicode="[" d="M630 1562 l-204 0 l-276 -1772 l204 0 l-17 -102 l-323 0 l309 1976 l323 0 l-16 -102 Z" /><glyph glyph-name="backslash" unicode="\" d="M197 1456 l110 0 l316 -1581 l-111 0 l-315 1581 Z" /><glyph glyph-name="bracketright" unicode="]" d="M165 1664 l324 0 l-309 -1976 l-324 0 l17 102 l204 0 l277 1772 l-205 0 l16 102 Z" /><glyph glyph-name="asciicircum" unicode="^" d="M532 1294 l-319 -565 l-120 0 l416 727 l90 0 l163 -727 l-109 0 l-121 565 Z" /><glyph glyph-name="underscore" unicode="_" d="M736 -101 l-858 0 l18 101 l858 0 l-18 -101 Z" /><glyph glyph-name="grave" unicode="`" d="M523 1245 l-100 0 l-176 279 l134 0 l142 -279 Z" /><glyph glyph-name="a" unicode="a" d="M715 0 q-5 38 -3 75.5 q2 37.5 9 75.5 q-75 -81 -171.5 -127 q-96.5 -46 -208.5 -44 q-65 1 -121.5 22.5 q-56.5 21.5 -97.5 60.5 q-41 39 -63 93.5 q-22 54.5 -17 122.5 q5 67 30.5 119 q25.5 52 65.5 91 q40 39 92 66 q52 27 109.5 43.5 q57.5 16.5 117 24 q59.5 7.5 116.5 7.5 l221 -1 l18 124 q6 57 -7 102.5 q-13 45.5 -42.5 77.5 q-29.5 32 -74 49.5 q-44.5 17.5 -101.5 19.5 q-53 1 -104.5 -12.5 q-51.5 -13.5 -94 -41 q-42.5 -27.5 -73.5 -69 q-31 -41.5 -43 -95.5 l-117 0 q11 79 54 139.5 q43 60.5 105 101 q62 40.5 136.5 60 q74.5 19.5 148.5 18.5 q79 -2 144 -26.5 q65 -24.5 109.5 -70 q44.5 -45.5 65.5 -110.5 q21 -65 12 -146 l-87 -524 q-8 -53 -11 -107 q-3 -54 8 -107 l-2 -12 l-123 0 ZM361 85 q59 -2 114 13 q55 15 103 43 q48 28 88.5 68 q40.5 40 71.5 89 l41 239 l-191 1 q-41 0 -87 -4.5 q-46 -4.5 -91.5 -15.5 q-45.5 -11 -87.5 -29 q-42 -18 -75.5 -45.5 q-33.5 -27.5 -55.5 -66 q-22 -38.5 -27 -88.5 q-5 -47 8.5 -84 q13.5 -37 40.5 -63.5 q27 -26.5 65.5 -41 q38.5 -14.5 82.5 -15.5 Z" /><glyph glyph-name="b" unicode="b" d="M986 536 q-9 -66 -26.5 -133 q-17.5 -67 -46 -129.5 q-28.5 -62.5 -68 -117 q-39.5 -54.5 -90.5 -94.5 q-51 -40 -114.5 -62.5 q-63.5 -22.5 -139.5 -20.5 q-48 1 -93.5 11.5 q-45.5 10.5 -85.5 31.5 q-40 21 -73.5 52 q-33.5 31 -57.5 74 l-34 -148 l-112 0 l267 1536 l118 0 l-113 -611 q66 87 153.5 133.5 q87.5 46.5 197.5 43.5 q73 -2 127.5 -26.5 q54.5 -24.5 92 -65 q37.5 -40.5 60.5 -94.5 q23 -54 34 -113.5 q11 -59.5 12 -123 q1 -63.5 -6 -122.5 l-2 -21 ZM869 559 q5 45 6.5 94.5 q1.5 49.5 -4.5 97.5 q-6 48 -21 92.5 q-15 44.5 -42.5 78.5 q-27.5 34 -68.5 54.5 q-41 20.5 -99 22.5 q-59 1 -110 -14.5 q-51 -15.5 -93.5 -45.5 q-42.5 -30 -77.5 -71.5 q-35 -41.5 -62 -90.5 l-82 -490 q29 -97 99.5 -149.5 q70.5 -52.5 171.5 -55.5 q93 -2 160.5 39.5 q67.5 41.5 113 108 q45.5 66.5 71 148 q25.5 81.5 35.5 159.5 l3 22 Z" /><glyph glyph-name="c" unicode="c" d="M451 80 q61 -2 115 15.5 q54 17.5 97 50.5 q43 33 74 80.5 q31 47.5 47 106.5 l113 0 q-15 -81 -57 -147 q-42 -66 -102.5 -112.5 q-60.5 -46.5 -135.5 -71.5 q-75 -25 -157 -23 q-113 3 -188 50.5 q-75 47.5 -118 123.5 q-43 76 -57 171 q-14 95 -3 193 l5 43 q13 106 53.5 205 q40.5 99 107.5 175 q67 76 159 120.5 q92 44.5 208 41.5 q84 -2 150.5 -32 q66.5 -30 112.5 -81 q46 -51 69 -121 q23 -70 19 -152 l-113 1 q2 58 -13 109 q-15 51 -46 89 q-31 38 -77.5 60.5 q-46.5 22.5 -107.5 24.5 q-93 3 -164 -34.5 q-71 -37.5 -121 -100.5 q-50 -63 -79.5 -143.5 q-29.5 -80.5 -40.5 -161.5 l-5 -42 q-6 -49 -5.5 -100 q0.5 -51 8.5 -99 q8 -48 26 -90.5 q18 -42.5 48.5 -75 q30.5 -32.5 74 -52 q43.5 -19.5 103.5 -21.5 Z" /><glyph glyph-name="d" unicode="d" d="M94 544 q9 66 27.5 134 q18.5 68 47 130.5 q28.5 62.5 68.5 117 q40 54.5 92 94.5 q52 40 116 62 q64 22 141 20 q96 -2 175 -44.5 q79 -42.5 125 -128.5 l110 607 l118 0 l-267 -1536 l-111 0 l27 144 q-67 -81 -155 -124 q-88 -43 -195 -40 q-71 2 -124.5 26.5 q-53.5 24.5 -91.5 66 q-38 41.5 -61.5 95 q-23.5 53.5 -35.5 113.5 q-12 60 -13.5 122 q-1.5 62 5.5 120 l2 21 ZM214 524 q-8 -67 -6 -143 q2 -76 24.5 -141.5 q22.5 -65.5 72 -109.5 q49.5 -44 136.5 -47 q111 -3 195 51 q84 54 142 144 l87 510 q-29 97 -95.5 152.5 q-66.5 55.5 -169.5 58.5 q-63 2 -113.5 -16.5 q-50.5 -18.5 -91 -51.5 q-40.5 -33 -71 -77.5 q-30.5 -44.5 -52 -95.5 q-21.5 -51 -35.5 -106 q-14 -55 -21 -107 l-2 -21 Z" /><glyph glyph-name="e" unicode="e" d="M462 -20 q-109 2 -187 48 q-78 46 -125.5 120 q-47.5 74 -66 167.5 q-18.5 93.5 -9.5 191.5 l5 44 q12 102 54 202 q42 100 110.5 178.5 q68.5 78.5 161 126 q92.5 47.5 205.5 44.5 q104 -3 174.5 -46.5 q70.5 -43.5 111 -113 q40.5 -69.5 54 -157.5 q13.5 -88 3.5 -179 l-8 -73 l-749 0 l-5 -24 q-11 -73 0 -148 q11 -75 45 -136 q34 -61 92.5 -100.5 q58.5 -39.5 142.5 -42.5 q48 -2 91.5 8 q43.5 10 82.5 29 q39 19 74.5 46.5 q35.5 27.5 68.5 60.5 l70 -57 q-74 -94 -175 -142.5 q-101 -48.5 -221 -46.5 ZM604 1001 q-80 3 -144 -28.5 q-64 -31.5 -112.5 -84 q-48.5 -52.5 -83 -119 q-34.5 -66.5 -55.5 -134.5 l629 -1 l2 15 q9 62 -0.5 124 q-9.5 62 -38.5 111.5 q-29 49.5 -78 81.5 q-49 32 -119 35 Z" /><glyph glyph-name="f" unicode="f" d="M129 0 l171 984 l-174 0 l18 98 l173 0 l19 134 q10 75 38 139 q28 64 74 109.5 q46 45.5 109 71 q63 25.5 143 24.5 q33 -1 66 -6.5 q33 -5.5 65 -13.5 l-21 -99 q-26 7 -53 11 q-27 4 -54 4 q-54 0 -96.5 -18.5 q-42.5 -18.5 -73.5 -51 q-31 -32.5 -50 -76 q-19 -43.5 -27 -93.5 l-20 -135 l251 0 l-18 -98 l-249 0 l-171 -984 l-120 0 Z" /><glyph glyph-name="g" unicode="g" d="M96 545 q8 66 26.5 134 q18.5 68 47 130.5 q28.5 62.5 68 117 q39.5 54.5 91 94 q51.5 39.5 115.5 62 q64 22.5 141 20.5 q97 -3 177 -46 q80 -43 126 -131 l37 156 l111 0 l-182 -1063 q-14 -98 -53.5 -181.5 q-39.5 -83.5 -102 -144 q-62.5 -60.5 -147 -94.5 q-84.5 -34 -187.5 -31 q-53 1 -102.5 14.5 q-49.5 13.5 -94.5 37.5 q-45 24 -83 59 q-38 35 -66 79 l74 70 q48 -72 114.5 -114.5 q66.5 -42.5 154.5 -44.5 q80 -2 143.5 23.5 q63.5 25.5 110.5 72 q47 46.5 77 110.5 q30 64 42 138 l26 126 q-68 -78 -154.5 -120 q-86.5 -42 -192.5 -39 q-72 2 -125.5 26.5 q-53.5 24.5 -91 65.5 q-37.5 41 -61 95 q-23.5 54 -35 113.5 q-11.5 59.5 -13 122 q-1.5 62.5 5.5 120.5 l3 22 ZM213 523 q-5 -44 -6 -93.5 q-1 -49.5 5 -97.5 q6 -48 21 -92.5 q15 -44.5 42 -78.5 q27 -34 67.5 -55 q40.5 -21 98.5 -23 q56 -2 104.5 12 q48.5 14 90.5 40 q42 26 77.5 63 q35.5 37 64.5 83 l85 505 q-27 97 -93.5 153.5 q-66.5 56.5 -170.5 59.5 q-62 2 -113 -16.5 q-51 -18.5 -91 -51.5 q-40 -33 -70.5 -78 q-30.5 -45 -52 -96 q-21.5 -51 -35.5 -105.5 q-14 -54.5 -21 -106.5 l-3 -22 Z" /><glyph glyph-name="h" unicode="h" d="M313 899 q34 45 74 83 q40 38 86 65 q46 27 98 41.5 q52 14.5 110 13.5 q88 -2 145.5 -34.5 q57.5 -32.5 89.5 -87 q32 -54.5 41.5 -126 q9.5 -71.5 0.5 -150.5 l-118 -704 l-118 0 l118 706 q6 57 1.5 109.5 q-4.5 52.5 -25.5 93 q-21 40.5 -61.5 64.5 q-40.5 24 -106.5 26 q-62 1 -115.5 -19.5 q-53.5 -20.5 -98 -56 q-44.5 -35.5 -80 -83 q-35.5 -47.5 -62.5 -98.5 l-128 -742 l-118 0 l267 1536 l118 0 l-118 -637 Z" /><glyph glyph-name="i" unicode="i" d="M179 0 l-120 0 l189 1082 l119 0 l-188 -1082 ZM281 1395 q3 38 27.5 56.5 q24.5 18.5 58.5 25.5 q39 -7 55.5 -24.5 q16.5 -17.5 21.5 -57.5 q-10 -38 -29 -55.5 q-19 -17.5 -57 -25.5 q-34 5 -56.5 23.5 q-22.5 18.5 -20.5 57.5 Z" /><glyph glyph-name="j" unicode="j" d="M362 1082 l-206 -1211 q-9 -68 -33 -125.5 q-24 -57.5 -64 -99.5 q-40 -42 -96.5 -65 q-56.5 -23 -129.5 -21 q-29 1 -55.5 7 q-26.5 6 -53.5 14 l14 99 q22 -6 43.5 -10.5 q21.5 -4.5 44.5 -4.5 q48 -1 84.5 14.5 q36.5 15.5 62.5 43.5 q26 28 41.5 66 q15.5 38 22.5 82 l207 1211 l118 0 ZM278 1395 q2 33 25.5 57 q23.5 24 58.5 25 q35 1 57 -23 q22 -24 20 -59 q-3 -34 -27.5 -57 q-24.5 -23 -58.5 -24 q-35 -1 -56.5 22.5 q-21.5 23.5 -18.5 58.5 Z" /><glyph glyph-name="k" unicode="k" d="M396 543 l-160 -135 l-71 -408 l-119 0 l267 1536 l119 0 l-170 -974 l124 114 l471 406 l159 0 l-532 -461 l373 -621 l-132 0 l-329 543 Z" /><glyph glyph-name="l" unicode="l" d="M179 0 l-120 0 l267 1536 l120 0 l-267 -1536 Z" /><glyph glyph-name="m" unicode="m" d="M343 1082 l-34 -176 q67 92 159 145 q92 53 208 51 q52 -1 99 -14 q47 -13 84.5 -38.5 q37.5 -25.5 63.5 -64.5 q26 -39 36 -93 q35 48 77 87 q42 39 90.5 67 q48.5 28 103.5 42.5 q55 14.5 116 13.5 q89 -2 148.5 -34 q59.5 -32 93 -86 q33.5 -54 44.5 -125.5 q11 -71.5 2 -151.5 l-119 -705 l-119 0 l118 707 q6 59 0.5 112 q-5.5 53 -28 92.5 q-22.5 39.5 -64.5 63 q-42 23.5 -109 24.5 q-62 1 -120 -20.5 q-58 -21.5 -105.5 -59.5 q-47.5 -38 -81 -90 q-33.5 -52 -46.5 -113 l-124 -716 l-119 0 l120 716 q6 58 -0.5 109 q-6.5 51 -30 89.5 q-23.5 38.5 -66 60.5 q-42.5 22 -106.5 24 q-57 1 -112 -18 q-55 -19 -101.5 -53.5 q-46.5 -34.5 -81.5 -82 q-35 -47.5 -52 -102.5 l-128 -743 l-119 0 l188 1082 l115 0 Z" /><glyph glyph-name="n" unicode="n" d="M348 1082 l-36 -185 q33 46 73 84 q40 38 86.5 65.5 q46.5 27.5 99 42 q52.5 14.5 110.5 13.5 q88 -2 145.5 -34.5 q57.5 -32.5 89.5 -87 q32 -54.5 41.5 -126 q9.5 -71.5 0.5 -150.5 l-118 -704 l-118 0 l118 706 q6 57 1.5 109.5 q-4.5 52.5 -25.5 93 q-21 40.5 -61.5 64.5 q-40.5 24 -106.5 26 q-62 1 -115.5 -19.5 q-53.5 -20.5 -98 -56 q-44.5 -35.5 -80 -83 q-35.5 -47.5 -62.5 -98.5 l-128 -742 l-118 0 l188 1082 l114 0 Z" /><glyph glyph-name="o" unicode="o" d="M79 550 q13 108 57 209 q44 101 114.5 178 q70.5 77 166.5 122.5 q96 45.5 213 42.5 q112 -3 190.5 -50.5 q78.5 -47.5 126 -123.5 q47.5 -76 64 -172 q16.5 -96 6.5 -196 l-4 -34 q-14 -108 -58 -207.5 q-44 -99.5 -114.5 -176 q-70.5 -76.5 -166 -121 q-95.5 -44.5 -212.5 -41.5 q-74 2 -133.5 24 q-59.5 22 -105 59.5 q-45.5 37.5 -77 88 q-31.5 50.5 -49.5 110 q-18 59.5 -23.5 124.5 q-5.5 65 1.5 131 l4 33 ZM194 516 q-8 -74 1 -150 q9 -76 40.5 -139 q31.5 -63 88.5 -103.5 q57 -40.5 145 -43.5 q93 -3 166.5 36 q73.5 39 127.5 102.5 q54 63.5 87.5 144.5 q33.5 81 44.5 164 l4 32 q9 74 0 151 q-9 77 -41 141 q-32 64 -89.5 105.5 q-57.5 41.5 -145.5 44.5 q-93 3 -167 -36.5 q-74 -39.5 -127.5 -104 q-53.5 -64.5 -86.5 -146.5 q-33 -82 -44 -164 l-4 -34 Z" /><glyph glyph-name="p" unicode="p" d="M984 537 q-9 -66 -26.5 -133.5 q-17.5 -67.5 -46 -130 q-28.5 -62.5 -67.5 -117 q-39 -54.5 -90 -94.5 q-51 -40 -114 -62.5 q-63 -22.5 -140 -20.5 q-93 2 -175.5 39.5 q-82.5 37.5 -133.5 117.5 l-100 -552 l-118 0 l260 1498 l110 0 l-28 -153 q67 85 155.5 130.5 q88.5 45.5 197.5 42.5 q73 -2 127 -26.5 q54 -24.5 92 -65 q38 -40.5 60.5 -94 q22.5 -53.5 33.5 -113.5 q11 -60 12 -123 q1 -63 -6 -122 l-3 -21 ZM868 558 q5 45 6 94.5 q1 49.5 -5.5 98 q-6.5 48.5 -22 92.5 q-15.5 44 -43 78 q-27.5 34 -69 55 q-41.5 21 -99.5 23 q-57 1 -106 -13.5 q-49 -14.5 -91 -42 q-42 -27.5 -76.5 -66 q-34.5 -38.5 -61.5 -85.5 l-89 -521 q32 -92 101.5 -140 q69.5 -48 166.5 -51 q62 -2 113 16.5 q51 18.5 91.5 52 q40.5 33.5 71.5 78.5 q31 45 53 96.5 q22 51.5 36 106 q14 54.5 21 107.5 l3 21 Z" /><glyph glyph-name="q" unicode="q" d="M95 545 q9 67 27 135 q18 68 47 130.5 q29 62.5 69 116.5 q40 54 91.5 93.5 q51.5 39.5 115.5 61.5 q64 22 142 20 q95 -2 174 -42.5 q79 -40.5 127 -124.5 l35 147 l112 0 l-260 -1498 l-119 0 l102 550 q-67 -77 -153.5 -117 q-86.5 -40 -189.5 -37 q-72 2 -126 26.5 q-54 24.5 -92 65.5 q-38 41 -61.5 94.5 q-23.5 53.5 -35 113.5 q-11.5 60 -13 122 q-1.5 62 5.5 121 l2 22 ZM214 524 q-6 -44 -7 -94 q-1 -50 5 -98.5 q6 -48.5 21 -93.5 q15 -45 42 -79.5 q27 -34.5 68 -55.5 q41 -21 99 -23 q54 -2 102 11 q48 13 89.5 38 q41.5 25 77 60 q35.5 35 64.5 78 l91 532 q-31 92 -97.5 145 q-66.5 53 -166.5 56 q-62 2 -113 -16.5 q-51 -18.5 -91.5 -51.5 q-40.5 -33 -71 -78 q-30.5 -45 -53 -96.5 q-22.5 -51.5 -36.5 -106 q-14 -54.5 -21 -106.5 l-2 -21 Z" /><glyph glyph-name="r" unicode="r" d="M707 981 q-39 8 -79 9 q-56 0 -109.5 -18 q-53.5 -18 -98.5 -50.5 q-45 -32.5 -78.5 -78 q-33.5 -45.5 -49.5 -99.5 l-128 -744 l-118 0 l188 1082 l117 0 l-36 -172 q27 44 61.5 80.5 q34.5 36.5 75 62 q40.5 25.5 88 39 q47.5 13.5 101.5 12.5 q21 0 41.5 -4 q20.5 -4 40.5 -10 l-16 -109 Z" /><glyph glyph-name="s" unicode="s" d="M729 282 q6 53 -14.5 90 q-20.5 37 -56 62.5 q-35.5 25.5 -80.5 41.5 q-45 16 -87 27 q-59 15 -119 36 q-60 21 -107.5 55 q-47.5 34 -76 83.5 q-28.5 49.5 -23.5 122.5 q4 76 42 133.5 q38 57.5 95.5 95 q57.5 37.5 127.5 56 q70 18.5 139 17.5 q73 -1 138.5 -22.5 q65.5 -21.5 114 -62 q48.5 -40.5 75 -100.5 q26.5 -60 22.5 -138 l-118 0 q3 53 -15 94 q-18 41 -51 69 q-33 28 -77.5 42.5 q-44.5 14.5 -93.5 15.5 q-47 0 -94 -11 q-47 -11 -86.5 -35 q-39.5 -24 -66.5 -61 q-27 -37 -33 -88 q-6 -53 15 -87 q21 -34 57.5 -56.5 q36.5 -22.5 81 -36 q44.5 -13.5 85.5 -24.5 q61 -17 121 -40 q60 -23 107 -59 q47 -36 74 -88 q27 -52 22 -126 q-5 -81 -44.5 -139.5 q-39.5 -58.5 -99.5 -96.5 q-60 -38 -133.5 -55.5 q-73.5 -17.5 -145.5 -16.5 q-72 1 -141 21.5 q-69 20.5 -122 60.5 q-53 40 -84 100.5 q-31 60.5 -26 141.5 l119 -1 q0 -57 20.5 -98.5 q20.5 -41.5 55.5 -68.5 q35 -27 82.5 -40.5 q47.5 -13.5 100.5 -14.5 q47 0 97.5 11 q50.5 11 93 35 q42.5 24 72.5 62.5 q30 38.5 37 92.5 Z" /><glyph glyph-name="t" unicode="t" d="M465 1359 l-48 -277 l217 0 l-17 -98 l-217 0 l-120 -722 q-3 -31 -2.5 -62 q0.5 -31 10.5 -55.5 q10 -24.5 31 -40 q21 -15.5 59 -16.5 q25 -1 49 1.5 q24 2.5 48 5.5 l-5 -98 q-59 -17 -120 -15 q-62 1 -101 24.5 q-39 23.5 -60 62.5 q-21 39 -26.5 89.5 q-5.5 50.5 -0.5 104.5 l119 721 l-194 0 l18 98 l192 0 l49 277 l119 0 Z" /><glyph glyph-name="u" unicode="u" d="M752 136 q-67 -84 -158 -121.5 q-91 -37.5 -198 -34.5 q-89 2 -147.5 36.5 q-58.5 34.5 -91.5 90.5 q-33 56 -42.5 129 q-9.5 73 -0.5 153 l116 693 l118 0 l-115 -696 q-6 -54 -1.5 -107.5 q4.5 -53.5 24.5 -96 q20 -42.5 59.5 -69.5 q39.5 -27 103.5 -29 q53 -2 108.5 10.5 q55.5 12.5 104.5 39.5 q49 27 86.5 68 q37.5 41 54.5 96 l134 784 l120 0 l-188 -1082 l-116 0 l29 136 Z" /><glyph glyph-name="v" unicode="v" d="M408 169 l462 913 l126 0 l-561 -1082 l-97 0 l-225 1082 l118 0 l177 -913 Z" /><glyph glyph-name="w" unicode="w" d="M342 249 l0 -85 l39 93 l395 825 l102 0 l107 -827 l6 -102 l41 103 l358 826 l127 0 l-494 -1082 l-102 0 l-119 858 l-1 60 l-23 -61 l-414 -857 l-102 0 l-115 1082 l112 1 l83 -834 Z" /><glyph glyph-name="x" unicode="x" d="M484 645 l351 437 l148 0 l-444 -537 l283 -545 l-132 0 l-226 456 l-370 -456 l-146 0 l462 557 l-271 525 l132 0 l213 -437 Z" /><glyph glyph-name="y" unicode="y" d="M408 176 l463 906 l133 0 l-660 -1256 q-26 -52 -57.5 -100.5 q-31.5 -48.5 -72 -85.5 q-40.5 -37 -91.5 -59 q-51 -22 -115 -21 q-24 1 -48 5.5 q-24 4.5 -48 10.5 l12 98 q15 -2 30 -4.5 q15 -2.5 30 -2.5 q50 -2 90 13 q40 15 72.5 42 q32.5 27 57.5 64 q25 37 45 79 l76 151 l-209 1066 l125 0 l167 -906 Z" /><glyph glyph-name="z" unicode="z" d="M155 101 l679 0 l-16 -101 l-829 0 l15 93 l771 886 l-614 0 l17 103 l766 0 l-15 -94 l-774 -887 Z" /><glyph glyph-name="braceleft" unicode="{" d="M476 -402 q-79 27 -134.5 72 q-55.5 45 -88.5 104.5 q-33 59.5 -44.5 131 q-11.5 71.5 -2.5 152.5 l31 227 q6 53 0 98.5 q-6 45.5 -26.5 79.5 q-20.5 34 -58 54.5 q-37.5 20.5 -94.5 24.5 l12 103 q122 5 187 73 q65 68 82 186 l31 228 q49 361 400 467 l18 -80 q-68 -23 -119 -60.5 q-51 -37.5 -87.5 -87 q-36.5 -49.5 -59 -110 q-22.5 -60.5 -32.5 -129.5 l-32 -228 q-15 -111 -70.5 -189.5 q-55.5 -78.5 -159.5 -123.5 q42 -23 69 -57 q27 -34 41.5 -74.5 q14.5 -40.5 18 -85.5 q3.5 -45 -0.5 -90 l-31 -227 q-8 -62 -3.5 -120 q4.5 -58 24.5 -107.5 q20 -49.5 59 -89 q39 -39.5 101 -63.5 l-30 -79 Z" /><glyph glyph-name="bar" unicode="|" d="M136 -270 l-101 0 l270 1726 l101 0 l-270 -1726 Z" /><glyph glyph-name="braceright" unicode="}" d="M-136 -325 q134 46 207 145.5 q73 99.5 93 237.5 l31 226 q15 114 73 192.5 q58 78.5 166 121.5 q-45 21 -73.5 54.5 q-28.5 33.5 -44 74 q-15.5 40.5 -19.5 86 q-4 45.5 1 91.5 l30 229 q7 61 4 119.5 q-3 58.5 -22 109.5 q-19 51 -57 91.5 q-38 40.5 -100 64.5 l32 77 q79 -28 133 -73.5 q54 -45.5 86 -105.5 q32 -60 42 -132 q10 -72 1 -152 l-30 -229 q-6 -53 0 -98 q6 -45 26.5 -78.5 q20.5 -33.5 57.5 -54 q37 -20.5 94 -23.5 l-11 -104 q-122 -5 -187.5 -74 q-65.5 -69 -82.5 -187 l-30 -226 q-49 -359 -400 -464 l-20 81 Z" /><glyph glyph-name="asciitilde" unicode="~" d="M1240 764 q-8 -66 -32.5 -128.5 q-24.5 -62.5 -65 -110.5 q-40.5 -48 -98 -76.5 q-57.5 -28.5 -130.5 -26.5 q-43 1 -80 13 q-37 12 -71 31.5 q-34 19.5 -64.5 45.5 q-30.5 26 -59.5 55 q-21 21 -43 41.5 q-22 20.5 -46.5 36.5 q-24.5 16 -52 26 q-27.5 10 -58.5 10 q-52 1 -89.5 -18 q-37.5 -19 -63 -51.5 q-25.5 -32.5 -41 -74 q-15.5 -41.5 -23.5 -86.5 l-104 -2 q8 67 32 129 q24 62 65 109 q41 47 98 75 q57 28 131 27 q42 -1 80 -13 q38 -12 72 -32 q34 -20 65 -46 q31 -26 60 -55 q21 -21 43 -41.5 q22 -20.5 46 -36.5 q24 -16 51 -26 q27 -10 59 -11 q51 -1 89 19 q38 20 65 53 q27 33 43 75.5 q16 42.5 24 87.5 l99 1 Z" /><glyph glyph-name="exclamdown" unicode="¡" d="M183 690 l111 0 l-176 -1049 l-123 0 l188 1049 ZM370 1022 q-2 -33 -26.5 -56.5 q-24.5 -23.5 -58.5 -24.5 q-35 -1 -57 22.5 q-22 23.5 -20 58.5 q3 34 27.5 57 q24.5 23 58.5 24 q35 1 57 -22.5 q22 -23.5 19 -58.5 Z" /><glyph glyph-name="cent" unicode="¢" d="M475 80 q61 -2 115 15.5 q54 17.5 97 50.5 q43 33 74 80.5 q31 47.5 47 106.5 l113 0 q-14 -75 -51.5 -138 q-37.5 -63 -92 -109 q-54.5 -46 -122.5 -73.5 q-68 -27.5 -143 -32.5 l-39 -225 l-120 0 l41 232 q-91 18 -151.5 69.5 q-60.5 51.5 -94.5 124 q-34 72.5 -44.5 160 q-10.5 87.5 -0.5 176.5 l5 43 q12 100 49 194.5 q37 94.5 97.5 169 q60.5 74.5 144 122 q83.5 47.5 188.5 55.5 l38 217 l120 0 l-40 -224 q68 -13 122 -46 q54 -33 90.5 -82.5 q36.5 -49.5 54.5 -113 q18 -63.5 15 -136.5 l-113 1 q2 58 -13 109 q-15 51 -46 89 q-31 38 -77.5 60.5 q-46.5 22.5 -107.5 24.5 q-93 3 -164 -34.5 q-71 -37.5 -121 -100.5 q-50 -63 -79.5 -143.5 q-29.5 -80.5 -40.5 -161.5 l-5 -42 q-6 -49 -5.5 -100 q0.5 -51 8.5 -99 q8 -48 26 -90.5 q18 -42.5 48.5 -75 q30.5 -32.5 74 -52 q43.5 -19.5 103.5 -21.5 Z" /><glyph glyph-name="sterling" unicode="£" d="M401 645 l-38 -275 q-11 -75 -35.5 -143 q-24.5 -68 -75.5 -125 l725 2 l-18 -104 l-970 0 l18 103 l92 -1 q38 14 63 44 q25 30 41.5 67 q16.5 37 25 77.5 q8.5 40.5 13.5 76.5 l37 278 l-182 0 l18 104 l179 0 l38 290 q12 91 48.5 172 q36.5 81 95.5 141 q59 60 138.5 93.5 q79.5 33.5 176.5 31.5 q85 -2 150 -32.5 q65 -30.5 107 -82 q42 -51.5 60.5 -122 q18.5 -70.5 10.5 -152.5 l-122 0 q6 58 -4.5 109 q-10.5 51 -37.5 89.5 q-27 38.5 -71.5 61 q-44.5 22.5 -107.5 24.5 q-72 2 -127.5 -25.5 q-55.5 -27.5 -96 -74.5 q-40.5 -47 -64.5 -108 q-24 -61 -33 -125 l-39 -290 l334 0 l-18 -104 l-331 0 Z" /><glyph glyph-name="currency" unicode="¤" d="M1023 131 q-87 -70 -188 -111.5 q-101 -41.5 -215 -39.5 q-101 2 -193.5 40 q-92.5 38 -161.5 112 l-180 -158 l-73 92 l183 156 q-41 91 -54 186 q-13 95 0 193 q16 118 66.5 220 q50.5 102 130.5 189 l-133 173 l93 82 l131 -169 q86 64 183.5 102 q97.5 38 206.5 36 q97 -2 186.5 -37.5 q89.5 -35.5 158.5 -104.5 l197 173 l74 -94 l-197 -170 q42 -91 57 -189 q15 -98 1 -198 q-14 -112 -62 -210 q-48 -98 -123 -182 l130 -168 l-94 -82 l-124 159 ZM252 599 q-12 -92 7.5 -182 q19.5 -90 67.5 -162 q48 -72 123.5 -117.5 q75.5 -45.5 176.5 -48.5 q108 -3 203.5 41 q95.5 44 170 118 q74.5 74 122.5 170 q48 96 62 198 q12 92 -7.5 181.5 q-19.5 89.5 -67.5 161 q-48 71.5 -123.5 116.5 q-75.5 45 -175.5 48 q-72 2 -139 -17 q-67 -19 -126 -54.5 q-59 -35.5 -109 -85.5 q-50 -50 -88 -108.5 q-38 -58.5 -63 -124.5 q-25 -66 -34 -134 Z" /><glyph glyph-name="yen" unicode="¥" d="M609 736 l532 720 l149 0 l-570 -751 l353 0 l-16 -89 l-405 0 l-36 -204 l406 0 l-16 -88 l-405 0 l-57 -324 l-122 0 l57 324 l-402 0 l16 88 l401 0 l36 204 l-403 0 l16 89 l359 0 l-308 751 l133 0 l282 -720 Z" /><glyph glyph-name="brokenbar" unicode="¦" d="M2 -270 l134 771 l120 0 l-135 -771 l-119 0 ZM289 698 l-119 0 l132 758 l119 0 l-132 -758 Z" /><glyph glyph-name="section" unicode="§" d="M1058 439 q-5 -59 -29 -104 q-24 -45 -61 -79.5 q-37 -34.5 -84.5 -59 q-47.5 -24.5 -98.5 -41.5 q75 -51 107 -123 q32 -72 24 -163 q-8 -98 -55 -167.5 q-47 -69.5 -118.5 -113.5 q-71.5 -44 -158.5 -64.5 q-87 -20.5 -174 -18.5 q-99 1 -181.5 30 q-82.5 29 -139.5 83.5 q-57 54.5 -85 134 q-28 79.5 -19 183.5 l119 2 q-8 -77 11.5 -138 q19.5 -61 60.5 -103.5 q41 -42.5 102 -65.5 q61 -23 137 -24 q63 -2 127 12.5 q64 14.5 117 46 q53 31.5 90 81 q37 49.5 46 119.5 q5 45 -5 80 q-10 35 -31.5 62.5 q-21.5 27.5 -51.5 48.5 q-30 21 -65.5 37 q-35.5 16 -73 28.5 q-37.5 12.5 -72.5 23.5 q-75 23 -150 53 q-75 30 -133.5 75 q-58.5 45 -91.5 110 q-33 65 -25 159 q5 57 27.5 102.5 q22.5 45.5 58 80.5 q35.5 35 81.5 60 q46 25 97 43 q-72 52 -101.5 123.5 q-29.5 71.5 -21.5 159.5 q8 96 56 166 q48 70 119.5 114.5 q71.5 44.5 159 65 q87.5 20.5 173.5 18.5 q99 -2 176.5 -32.5 q77.5 -30.5 129.5 -86 q52 -55.5 76 -134.5 q24 -79 14 -178 l-118 0 q7 71 -9 130.5 q-16 59.5 -52.5 103 q-36.5 43.5 -92.5 68.5 q-56 25 -129 27 q-64 1 -128.5 -12.5 q-64.5 -13.5 -118 -44.5 q-53.5 -31 -90 -81 q-36.5 -50 -45.5 -121 q-9 -70 16 -117 q25 -47 70 -79 q45 -32 102.5 -52.5 q57.5 -20.5 113.5 -38.5 q49 -16 99.5 -33.5 q50.5 -17.5 96.5 -40 q46 -22.5 85 -51.5 q39 -29 67 -66.5 q28 -37.5 41.5 -86.5 q13.5 -49 8.5 -111 ZM607 729 q-33 11 -66 21 q-33 10 -66 22 q-48 -8 -92 -24.5 q-44 -16.5 -79 -43.5 q-35 -27 -58 -66.5 q-23 -39.5 -30 -91.5 q-7 -49 4.5 -87 q11.5 -38 35 -66.5 q23.5 -28.5 57.5 -50 q34 -21.5 72.5 -37.5 q38.5 -16 79.5 -29 q41 -13 79 -25 q29 -9 58 -18 q29 -9 58 -20 q48 7 94.5 22.5 q46.5 15.5 85 42.5 q38.5 27 64.5 65.5 q26 38.5 33 91.5 q6 47 -6 84 q-12 37 -36.5 66 q-24.5 29 -59 51 q-34.5 22 -73.5 39 q-39 17 -79 30 q-40 13 -76 24 Z" /><glyph glyph-name="dieresis" unicode="¨" d="M262 1396 q2 34 26 57.5 q24 23.5 59 24.5 q35 0 57.5 -23.5 q22.5 -23.5 19.5 -58.5 q-2 -33 -27 -56 q-25 -23 -58 -24 q-35 0 -57 22.5 q-22 22.5 -20 57.5 ZM686 1395 q1 16 8 31 q7 15 18.5 26 q11.5 11 26.5 18 q15 7 32 7 q35 1 57 -23 q22 -24 20 -59 q-2 -34 -27 -56.5 q-25 -22.5 -58 -23.5 q-34 0 -56.5 22.5 q-22.5 22.5 -20.5 57.5 Z" /><glyph glyph-name="copyright" unicode="©" d="M1089 607 q-9 -71 -35 -130 q-26 -59 -68.5 -100.5 q-42.5 -41.5 -101.5 -64 q-59 -22.5 -134 -20.5 q-80 2 -135.5 36.5 q-55.5 34.5 -88.5 89 q-33 54.5 -46 123 q-13 68.5 -7 139.5 l10 96 q9 75 37 146 q28 71 75 125 q47 54 112.5 86 q65.5 32 148.5 31 q71 -2 124 -25.5 q53 -23.5 87 -65 q34 -41.5 48.5 -98.5 q14.5 -57 9.5 -125 l-98 0 q4 48 -3 89 q-7 41 -28 71 q-21 30 -56.5 47 q-35.5 17 -87.5 18 q-63 1 -110 -25 q-47 -26 -80 -68.5 q-33 -42.5 -52.5 -96 q-19.5 -53.5 -26.5 -108.5 l-10 -98 q-5 -49 0.5 -100.5 q5.5 -51.5 26 -94.5 q20.5 -43 57.5 -71.5 q37 -28.5 97 -30.5 q55 -2 96 14 q41 16 70 46 q29 30 47 72 q18 42 27 92 l95 1 ZM209 722 q-11 -80 -2.5 -160 q8.5 -80 34.5 -152.5 q26 -72.5 68.5 -134.5 q42.5 -62 101.5 -108.5 q59 -46.5 132.5 -73.5 q73.5 -27 161.5 -28 q92 -2 177.5 23 q85.5 25 160.5 70.5 q75 45.5 138.5 108.5 q63.5 63 112 138.5 q48.5 75.5 80 159.5 q31.5 84 42.5 171 q10 80 1.5 159.5 q-8.5 79.5 -34.5 151.5 q-26 72 -69 133.5 q-43 61.5 -101.5 107.5 q-58.5 46 -132 72.5 q-73.5 26.5 -160.5 28.5 q-92 2 -177 -22.5 q-85 -24.5 -160.5 -69.5 q-75.5 -45 -139 -108 q-63.5 -63 -112 -137.5 q-48.5 -74.5 -80 -158.5 q-31.5 -84 -42.5 -171 ZM123 722 q11 99 46 194 q35 95 89 179.5 q54 84.5 125.5 155 q71.5 70.5 156 121.5 q84.5 51 181 78.5 q96.5 27.5 200.5 25.5 q99 -1 184 -31 q85 -30 153 -81 q68 -51 118.5 -121 q50.5 -70 81.5 -152 q31 -82 42.5 -172.5 q11.5 -90.5 0.5 -183.5 q-12 -99 -46.5 -194 q-34.5 -95 -88.5 -179.5 q-54 -84.5 -125 -155.5 q-71 -71 -155.5 -122 q-84.5 -51 -181 -79 q-96.5 -28 -200.5 -26 q-100 2 -184.5 31.5 q-84.5 29.5 -153 81 q-68.5 51.5 -119 122 q-50.5 70.5 -81.5 152.5 q-31 82 -42.5 172.5 q-11.5 90.5 -0.5 183.5 Z" /><glyph glyph-name="ordfeminine" unicode="ª" d="M654 703 q-6 48 -3 95 q-45 -49 -101.5 -78.5 q-56.5 -29.5 -125.5 -29.5 q-48 0 -89 14 q-41 14 -70.5 41 q-29.5 27 -45.5 66 q-16 39 -13 89 q3 70 36 116.5 q33 46.5 83 74 q50 27.5 111.5 39 q61.5 11.5 120.5 11.5 l137 -1 l9 62 q4 35 0 67 q-4 32 -18 56 q-14 24 -40 39 q-26 15 -65 16 q-76 2 -131.5 -32 q-55.5 -34 -74.5 -110 l-104 6 q8 59 37 103.5 q29 44.5 72 73.5 q43 29 96.5 43 q53.5 14 110.5 13 q61 -2 106 -23.5 q45 -21.5 73.5 -58.5 q28.5 -37 40.5 -87 q12 -50 7 -108 l-49 -314 q-15 -93 -5 -182 l-105 -1 ZM447 784 q61 0 114.5 30.5 q53.5 30.5 93.5 74.5 l30 169 l-126 1 q-39 0 -80 -7 q-41 -7 -75.5 -24.5 q-34.5 -17.5 -58.5 -47 q-24 -29.5 -29 -75.5 q-3 -32 6 -55 q9 -23 27 -37.5 q18 -14.5 43.5 -21.5 q25.5 -7 54.5 -7 Z" /><glyph glyph-name="logicalnot" unicode="¬" d="M872 386 l-119 0 l50 284 l-672 0 l19 106 l790 0 l-68 -390 Z" /><glyph glyph-name="registered" unicode="®" d="M118 722 q12 99 46.5 194.5 q34.5 95.5 88.5 179.5 q54 84 125.5 154.5 q71.5 70.5 156 121.5 q84.5 51 181 78.5 q96.5 27.5 200.5 25.5 q99 -1 184 -31 q85 -30 153.5 -81 q68.5 -51 119 -121 q50.5 -70 82 -152 q31.5 -82 43 -172.5 q11.5 -90.5 0.5 -183.5 q-12 -99 -46.5 -194 q-34.5 -95 -88.5 -180 q-54 -85 -125.5 -155.5 q-71.5 -70.5 -156.5 -121.5 q-85 -51 -181.5 -79 q-96.5 -28 -200.5 -26 q-100 2 -184.5 31.5 q-84.5 29.5 -153 81 q-68.5 51.5 -119 122 q-50.5 70.5 -81.5 152.5 q-31 82 -42.5 172.5 q-11.5 90.5 -0.5 183.5 ZM203 722 q-10 -80 -1.5 -160 q8.5 -80 34.5 -152.5 q26 -72.5 69 -134.5 q43 -62 101.5 -108.5 q58.5 -46.5 132 -73.5 q73.5 -27 161.5 -28 q92 -2 177.5 22.5 q85.5 24.5 160.5 70 q75 45.5 138.5 109 q63.5 63.5 112 138.5 q48.5 75 80 159.5 q31.5 84.5 42.5 171.5 q10 80 2 159.5 q-8 79.5 -34 151.5 q-26 72 -69 134 q-43 62 -102 107.5 q-59 45.5 -132.5 72 q-73.5 26.5 -160.5 28.5 q-92 2 -177 -22.5 q-85 -24.5 -160.5 -69.5 q-75.5 -45 -139 -108 q-63.5 -63 -112 -137.5 q-48.5 -74.5 -80.5 -158.5 q-32 -84 -43 -171 ZM643 666 l-55 -345 l-98 0 l132 839 l244 -1 q56 -2 106 -16 q50 -14 86.5 -43 q36.5 -29 55.5 -73.5 q19 -44.5 15 -107.5 q-3 -39 -16.5 -70 q-13.5 -31 -36 -56 q-22.5 -25 -51.5 -45.5 q-29 -20.5 -62 -36.5 q30 -15 49.5 -36.5 q19.5 -21.5 29.5 -47.5 q10 -26 12.5 -56.5 q2.5 -30.5 -0.5 -61.5 l-6 -45 q-4 -33 -3 -64 q1 -31 2 -63 l-2 -16 l-98 0 q-5 36 -3.5 72 q1.5 36 6.5 72 l5 44 q7 75 -20.5 113.5 q-27.5 38.5 -104.5 42.5 l-187 1 ZM656 757 l171 -1 q37 1 72.5 11.5 q35.5 10.5 64 30 q28.5 19.5 47.5 49.5 q19 30 24 70 q6 45 -5 74 q-11 29 -34.5 46 q-23.5 17 -57 24 q-33.5 7 -72.5 8 l-160 1 l-50 -313 Z" /><glyph glyph-name="macron" unicode="¯&#x2c9;" d="M873 1359 l-653 0 l16 97 l652 0 l-15 -97 Z" /><glyph glyph-name="degree" unicode="°" d="M247 1217 q2 51 23.5 98.5 q21.5 47.5 57 83.5 q35.5 36 82 57.5 q46.5 21.5 99.5 20.5 q48 -1 88 -21.5 q40 -20.5 68 -54 q28 -33.5 42.5 -77 q14.5 -43.5 12.5 -89.5 q-2 -51 -23 -98 q-21 -47 -55.5 -82 q-34.5 -35 -81 -56 q-46.5 -21 -98.5 -20 q-48 1 -88.5 20.5 q-40.5 19.5 -69 52.5 q-28.5 33 -44 75.5 q-15.5 42.5 -13.5 89.5 ZM337 1219 q-3 -30 5 -57 q8 -27 25 -47.5 q17 -20.5 41.5 -32.5 q24.5 -12 55.5 -12 q34 0 63.5 13 q29.5 13 51.5 35.5 q22 22.5 35.5 52 q13.5 29.5 16.5 62.5 q3 30 -4.5 57.5 q-7.5 27.5 -23.5 49 q-16 21.5 -40.5 34 q-24.5 12.5 -56.5 12.5 q-34 0 -64 -14 q-30 -14 -52.5 -37 q-22.5 -23 -36 -53 q-13.5 -30 -16.5 -63 Z" /><glyph glyph-name="plusminus" unicode="±" d="M628 829 l381 0 l-17 -101 l-379 0 l-70 -439 l-109 0 l69 439 l-402 0 l16 101 l401 0 l69 438 l110 0 l-69 -438 ZM843 -1 l-813 0 l19 102 l813 0 l-19 -102 Z" /><glyph glyph-name="twosuperior" unicode="²" d="M659 665 l-556 0 l14 80 l323 279 q24 21 51.5 45.5 q27.5 24.5 52 52.5 q24.5 28 42.5 59.5 q18 31.5 22 65.5 q8 64 -28.5 98.5 q-36.5 34.5 -98.5 34.5 q-81 1 -131 -43.5 q-50 -44.5 -67 -120.5 l-103 0 q8 58 34 105 q26 47 66 79.5 q40 32.5 91.5 50 q51.5 17.5 110.5 16.5 q49 -1 93.5 -15 q44.5 -14 77 -41.5 q32.5 -27.5 50 -68 q17.5 -40.5 13.5 -94.5 q-3 -47 -25.5 -89 q-22.5 -42 -54 -79 q-31.5 -37 -69 -69.5 q-37.5 -32.5 -70.5 -60.5 l-242 -198 l420 0 l-16 -87 Z" /><glyph glyph-name="threesuperior" unicode="³" d="M343 1106 l76 0 q33 1 67.5 9 q34.5 8 63 25 q28.5 17 48 43.5 q19.5 26.5 23.5 64.5 q3 33 -6.5 57.5 q-9.5 24.5 -28.5 40.5 q-19 16 -46 24.5 q-27 8.5 -57 8.5 q-67 1 -117.5 -33 q-50.5 -34 -68.5 -99 l-104 -1 q8 55 34.5 96.5 q26.5 41.5 66 69.5 q39.5 28 88.5 42 q49 14 102 13 q49 -1 94 -14.5 q45 -13.5 79.5 -40 q34.5 -26.5 53.5 -67 q19 -40.5 15 -94.5 q-2 -36 -17.5 -65 q-15.5 -29 -38.5 -51.5 q-23 -22.5 -52.5 -39.5 q-29.5 -17 -60.5 -30 q62 -21 95 -65.5 q33 -44.5 30 -111.5 q-3 -60 -30.5 -104.5 q-27.5 -44.5 -70.5 -73.5 q-43 -29 -96 -43 q-53 -14 -107 -13 q-53 1 -101 16 q-48 15 -83.5 43.5 q-35.5 28.5 -55.5 71.5 q-20 43 -18 100 l103 0 q-2 -36 10.5 -62.5 q12.5 -26.5 34 -44.5 q21.5 -18 51.5 -27 q30 -9 64 -9 q35 0 68.5 8.5 q33.5 8.5 60.5 27 q27 18.5 45 46.5 q18 28 22 66 q4 39 -9 65 q-13 26 -36.5 41 q-23.5 15 -55 21 q-31.5 6 -64.5 7 l-80 1 l9 81 Z" /><glyph glyph-name="acute" unicode="´" d="M446 1524 l150 -1 l-268 -277 l-112 -1 l230 279 Z" /><glyph glyph-name="mu" unicode="µ" d="M358 1082 l-105 -634 q-4 -39 -6 -80.5 q-2 -41.5 2.5 -82 q4.5 -40.5 15.5 -77 q11 -36.5 33.5 -64.5 q22.5 -28 56.5 -45 q34 -17 84 -19 q57 -2 112 12 q55 14 101.5 43 q46.5 29 81 73.5 q34.5 44.5 50.5 102.5 l132 771 l119 0 l-188 -1082 l-102 0 l24 157 q-59 -87 -140.5 -133.5 q-81.5 -46.5 -187.5 -44.5 q-76 2 -142 30.5 q-66 28.5 -107 96.5 l-94 -522 l-118 0 l260 1498 l118 0 Z" /><glyph glyph-name="paragraph" unicode="¶" d="M555 0 l91 520 l-94 1 q-102 2 -182 36 q-80 34 -133 94.5 q-53 60.5 -76.5 144 q-23.5 83.5 -12.5 184.5 q12 111 58.5 199 q46.5 88 120 150 q73.5 62 168.5 95 q95 33 204 33 l228 -1 l-253 -1456 l-119 0 Z" /><glyph glyph-name="periodcentered" unicode="·" d="M178 717 q2 35 27 59 q25 24 60 25 q18 0 33 -6 q15 -6 26 -17.5 q11 -11.5 16.5 -27 q5.5 -15.5 4.5 -33.5 q-3 -35 -28.5 -58.5 q-25.5 -23.5 -60.5 -24.5 q-36 -1 -58.5 23 q-22.5 24 -19.5 60 Z" /><glyph glyph-name="cedilla" unicode="¸" d="M131 0 l-22 -66 q66 -12 102 -52.5 q36 -40.5 33 -109.5 q-3 -62 -34.5 -102 q-31.5 -40 -78 -63 q-46.5 -23 -101.5 -33 q-55 -10 -105 -11 l1 79 q31 1 67.5 7 q36.5 6 68.5 20 q32 14 55 38 q23 24 28 62 q4 34 -9.5 53 q-13.5 19 -36.5 29.5 q-23 10.5 -51 15 q-28 4.5 -52 7.5 l45 126 l90 0 Z" /><glyph glyph-name="onesuperior" unicode="¹" d="M463 669 l-105 0 l115 660 l-238 -69 l17 94 l328 105 l17 0 l-134 -790 Z" /><glyph glyph-name="ordmasculine" unicode="º" d="M217 1131 q8 72 37 136 q29 64 75.5 111 q46.5 47 109.5 74 q63 27 140 25 q73 -2 126.5 -31 q53.5 -29 87.5 -76.5 q34 -47.5 48 -109 q14 -61.5 8 -128.5 l-10 -99 q-9 -72 -37.5 -135 q-28.5 -63 -74.5 -110.5 q-46 -47.5 -109 -74 q-63 -26.5 -139 -24.5 q-73 2 -126.5 30.5 q-53.5 28.5 -87.5 75.5 q-34 47 -48.5 108.5 q-14.5 61.5 -9.5 129.5 l10 98 ZM317 1031 q-5 -46 1 -89.5 q6 -43.5 25.5 -78 q19.5 -34.5 54 -56.5 q34.5 -22 87.5 -23 q55 -2 97.5 18.5 q42.5 20.5 73 55 q30.5 34.5 49 80 q18.5 45.5 25.5 95.5 l12 100 q4 45 -2.5 89 q-6.5 44 -26 78.5 q-19.5 34.5 -54 56.5 q-34.5 22 -86.5 24 q-54 1 -97 -19 q-43 -20 -73.5 -54.5 q-30.5 -34.5 -49.5 -80.5 q-19 -46 -25 -95 l-11 -101 Z" /><glyph glyph-name="questiondown" unicode="¿" d="M546 688 q-8 -57 -22.5 -102.5 q-14.5 -45.5 -38 -85.5 q-23.5 -40 -55.5 -76 q-32 -36 -75 -73 q-45 -39 -87.5 -78 q-42.5 -39 -77 -82.5 q-34.5 -43.5 -58.5 -94 q-24 -50.5 -31 -113.5 q-6 -55 3.5 -102.5 q9.5 -47.5 35 -82.5 q25.5 -35 67 -55.5 q41.5 -20.5 100.5 -21.5 q61 -2 110 17 q49 19 86.5 53.5 q37.5 34.5 62 82.5 q24.5 48 36.5 105 l117 1 q-12 -83 -47 -151 q-35 -68 -89.5 -116 q-54.5 -48 -126.5 -73.5 q-72 -25.5 -157 -23.5 q-81 2 -143.5 29.5 q-62.5 27.5 -103.5 76 q-41 48.5 -60 114.5 q-19 66 -11 146 q7 74 36 138 q29 64 72 119.5 q43 55.5 96 104.5 q53 49 108 94 q32 26 55 53 q23 27 39 57 q16 30 26.5 64.5 q10.5 34.5 17.5 74.5 l115 1 ZM624 1022 q-1 -17 -8 -31.5 q-7 -14.5 -18.5 -25.5 q-11.5 -11 -26.5 -18 q-15 -7 -32 -7 q-35 -1 -57 23 q-22 24 -20 59 q3 33 28 56 q25 23 58 24 q34 1 56.5 -22 q22.5 -23 19.5 -58 Z" /><glyph glyph-name="AE" unicode="æ" d="M1666 0 l-795 0 l51 389 l-572 0 l-291 -389 l-152 0 l1108 1456 l844 0 l-18 -102 l-673 0 l-72 -545 l572 0 l-18 -102 l-568 0 l-80 -606 l682 0 l-18 -101 ZM434 502 l504 0 l109 818 l-613 -818 Z" /><glyph glyph-name="multiply" unicode="×" d="M17 184 l411 366 l-273 350 l87 75 l270 -350 l394 349 l68 -86 l-394 -349 l285 -366 l-86 -74 l-284 364 l-410 -363 l-68 84 Z" /><glyph glyph-name="Oslash" unicode="ø" d="M1234 650 q-14 -86 -41 -170 q-27 -84 -68 -159 q-41 -75 -95.5 -138.5 q-54.5 -63.5 -123 -109 q-68.5 -45.5 -151 -70.5 q-82.5 -25 -178.5 -23 q-94 2 -165 30.5 q-71 28.5 -125 76.5 l-134 -171 l-111 0 l186 237 q-35 49 -58 107.5 q-23 58.5 -34.5 122.5 q-11.5 64 -12.5 131.5 q-1 67.5 8 134.5 l23 156 q13 86 40.5 169.5 q27.5 83.5 69 158.5 q41.5 75 96.5 139 q55 64 124 110 q69 46 151 71 q82 25 178 23 q113 -3 195 -44 q82 -41 137 -109 l143 182 l111 0 l-204 -260 q49 -94 63.5 -208.5 q14.5 -114.5 -1.5 -231.5 l-23 -155 ZM253 648 q-7 -51 -8.5 -103.5 q-1.5 -52.5 4.5 -104 q6 -51.5 19 -99.5 q13 -48 36 -90 l768 978 q-40 61 -104 99 q-64 38 -161 41 q-80 2 -147 -19.5 q-67 -21.5 -122 -61 q-55 -39.5 -99 -93.5 q-44 -54 -76.5 -117 q-32.5 -63 -53.5 -132.5 q-21 -69.5 -32 -138.5 l-24 -159 ZM1136 809 q11 84 7 170 q-4 86 -30 162 l-755 -964 q39 -40 94.5 -64 q55.5 -24 130.5 -26 q80 -2 147 19 q67 21 122.5 60 q55.5 39 98.5 93 q43 54 75.5 117 q32.5 63 53.5 133 q21 70 32 140 l24 160 Z" /><glyph glyph-name="Thorn" unicode="þ" d="M444 1456 l-53 -304 l305 -1 q90 -2 166 -30.5 q76 -28.5 129 -80.5 q53 -52 79.5 -126.5 q26.5 -74.5 17.5 -168.5 q-10 -104 -55.5 -183 q-45.5 -79 -116 -132 q-70.5 -53 -160.5 -80 q-90 -27 -188 -27 l-320 1 l-57 -324 l-119 0 l253 1456 l119 0 ZM374 1051 l-109 -626 l307 -1 q73 0 141 21.5 q68 21.5 121.5 62.5 q53.5 41 89 100 q35.5 59 44.5 136 q8 69 -8.5 124.5 q-16.5 55.5 -53 95 q-36.5 39.5 -91 62 q-54.5 22.5 -121.5 24.5 l-320 1 Z" /><glyph glyph-name="germandbls" unicode="ß" d="M160 0 l-119 0 l193 1127 q12 85 42.5 162 q30.5 77 81 134.5 q50.5 57.5 122 90.5 q71.5 33 165.5 30 q65 -2 121 -23 q56 -21 95.5 -59.5 q39.5 -38.5 60 -93 q20.5 -54.5 14.5 -122.5 q-5 -63 -31 -115.5 q-26 -52.5 -56 -102.5 q-30 -50 -57.5 -101.5 q-27.5 -51.5 -35.5 -112.5 q-7 -50 10.5 -91 q17.5 -41 47.5 -78 q30 -37 66 -72.5 q36 -35.5 67 -74.5 q31 -39 50.5 -83 q19.5 -44 15.5 -99 q-5 -81 -41.5 -144 q-36.5 -63 -93 -106.5 q-56.5 -43.5 -128 -66 q-71.5 -22.5 -147.5 -20.5 q-37 0 -76.5 5 q-39.5 5 -78 14.5 q-38.5 9.5 -74.5 25 q-36 15.5 -66 38.5 l46 99 q50 -38 113 -59.5 q63 -21.5 126 -22.5 q54 -1 105.5 14.5 q51.5 15.5 93 46 q41.5 30.5 69.5 74.5 q28 44 35 101 q6 52 -12 94 q-18 42 -48.5 79 q-30.5 37 -67 72 q-36.5 35 -67 73.5 q-30.5 38.5 -49.5 82.5 q-19 44 -14 100 q6 61 32 112.5 q26 51.5 56.5 101 q30.5 49.5 57 100 q26.5 50.5 33.5 110.5 q5 42 -5 78.5 q-10 36.5 -32.5 64 q-22.5 27.5 -56 43.5 q-33.5 16 -76.5 18 q-71 3 -122.5 -23 q-51.5 -26 -87 -70.5 q-35.5 -44.5 -56 -102.5 q-20.5 -58 -29.5 -120 l-192 -1128 Z" /><glyph glyph-name="ae" unicode="æ" d="M1130 -19 q-55 1 -108 13.5 q-53 12.5 -99.5 37.5 q-46.5 25 -84 63 q-37.5 38 -61.5 91 q-81 -106 -197.5 -157.5 q-116.5 -51.5 -247.5 -48.5 q-69 1 -127 21.5 q-58 20.5 -98.5 59.5 q-40.5 39 -61.5 95.5 q-21 56.5 -16 128.5 q7 95 50.5 161.5 q43.5 66.5 110.5 108 q67 41.5 149.5 60 q82.5 18.5 166.5 18.5 l255 -1 l12 89 q6 54 -0.5 104 q-6.5 50 -29 88.5 q-22.5 38.5 -63 62 q-40.5 23.5 -101.5 25.5 q-57 1 -110.5 -13.5 q-53.5 -14.5 -97 -44 q-43.5 -29.5 -73.5 -74.5 q-30 -45 -42 -103 l-115 12 q11 83 53 145 q42 62 103 102.5 q61 40.5 136.5 59.5 q75.5 19 153.5 17 q52 -1 101 -14 q49 -13 89 -39.5 q40 -26.5 68.5 -65.5 q28.5 -39 40.5 -93 q36 47 78 86.5 q42 39.5 90 68 q48 28.5 103 43.5 q55 15 116 14 q99 -2 169 -40.5 q70 -38.5 112 -102.5 q42 -64 56.5 -147 q14.5 -83 3.5 -174 l-15 -100 l-732 0 l-5 -30 q-11 -77 -3.5 -152 q7.5 -75 39.5 -135.5 q32 -60.5 90 -98.5 q58 -38 147 -40 q93 -2 175 30 q82 32 156 87 l39 -89 q-78 -69 -175 -100 q-97 -31 -200 -29 ZM354 80 q48 -1 95 10.5 q47 11.5 90.5 32 q43.5 20.5 82.5 49.5 q39 29 71 63 l53 301 l-240 1 q-60 0 -120.5 -15 q-60.5 -15 -110.5 -46 q-50 -31 -84.5 -79.5 q-34.5 -48.5 -41.5 -115.5 q-5 -50 8.5 -87.5 q13.5 -37.5 41.5 -62.5 q28 -25 68 -38 q40 -13 87 -13 ZM1265 1001 q-80 2 -142 -29.5 q-62 -31.5 -109.5 -83.5 q-47.5 -52 -80 -118.5 q-32.5 -66.5 -53.5 -133.5 l615 0 l5 32 q9 64 0 123 q-9 59 -37.5 105 q-28.5 46 -77.5 74.5 q-49 28.5 -120 30.5 Z" /><glyph glyph-name="eth" unicode="ð" d="M909 1301 q49 -77 78 -159 q29 -82 42.5 -168 q13.5 -86 12 -174 q-1.5 -88 -13.5 -177 l-12 -88 q-10 -66 -30.5 -133.5 q-20.5 -67.5 -52 -130 q-31.5 -62.5 -74.5 -117 q-43 -54.5 -96.5 -94 q-53.5 -39.5 -118.5 -61.5 q-65 -22 -141 -20 q-99 3 -174 43 q-75 40 -124 106 q-49 66 -70.5 151.5 q-21.5 85.5 -12.5 178.5 q10 102 48 195 q38 93 102 163.5 q64 70.5 152 111.5 q88 41 198 38 q88 -2 168 -38 q80 -36 134 -107 q2 112 -26.5 218 q-28.5 106 -93.5 200 l-244 -139 l-40 79 l221 125 q-64 61 -142 102 q-78 41 -161 70 l49 101 q101 -34 192.5 -85 q91.5 -51 169.5 -125 l211 121 l40 -79 l-191 -108 ZM913 686 q-17 45 -45 77.5 q-28 32.5 -64.5 54 q-36.5 21.5 -79 32.5 q-42.5 11 -88.5 12 q-89 2 -158 -30.5 q-69 -32.5 -118.5 -88.5 q-49.5 -56 -79 -130 q-29.5 -74 -38.5 -155 q-8 -69 5 -135.5 q13 -66.5 46.5 -119 q33.5 -52.5 88.5 -86 q55 -33.5 131 -35.5 q60 -2 109.5 17 q49.5 19 89.5 52.5 q40 33.5 71 79 q31 45.5 53.5 96.5 q22.5 51 37 104.5 q14.5 53.5 21.5 103.5 l12 91 l6 60 Z" /><glyph glyph-name="divide" unicode="÷" d="M1047 644 l-971 0 l21 116 l971 0 l-21 -116 ZM564 1088 q2 35 27 59 q25 24 60 25 q36 1 59.5 -23.5 q23.5 -24.5 20.5 -60.5 q-3 -35 -28.5 -58.5 q-25.5 -23.5 -60.5 -24.5 q-18 0 -33 6 q-15 6 -25.5 17 q-10.5 11 -16 26.5 q-5.5 15.5 -3.5 33.5 ZM426 291 q2 35 27 59 q25 24 60 25 q36 1 59.5 -23.5 q23.5 -24.5 20.5 -60.5 q-3 -35 -28.5 -58 q-25.5 -23 -60.5 -24 q-35 -1 -58 22.5 q-23 23.5 -20 59.5 Z" /><glyph glyph-name="oslash" unicode="ø" d="M77 550 q13 108 57 209 q44 101 114.5 178 q70.5 77 166.5 122.5 q96 45.5 213 42.5 q61 -2 111.5 -17 q50.5 -15 92.5 -41 l110 169 l93 0 l-142 -220 q38 -39 64.5 -88.5 q26.5 -49.5 41.5 -105.5 q15 -56 18.5 -117 q3.5 -61 -2.5 -122 l-4 -34 q-14 -108 -58 -207.5 q-44 -99.5 -114.5 -176 q-70.5 -76.5 -166 -121 q-95.5 -44.5 -212.5 -41.5 q-56 2 -103 14.5 q-47 12.5 -86 34.5 l-108 -168 l-102 0 l142 218 q-40 39 -68 88.5 q-28 49.5 -44 106 q-16 56.5 -20.5 118.5 q-4.5 62 2.5 125 l4 33 ZM192 516 q-5 -45 -4 -91.5 q1 -46.5 9.5 -91 q8.5 -44.5 25.5 -85 q17 -40.5 43 -73.5 l506 777 q-30 22 -67.5 34.5 q-37.5 12.5 -83.5 14.5 q-93 3 -167 -36.5 q-74 -39.5 -127.5 -104 q-53.5 -64.5 -86.5 -146.5 q-33 -82 -44 -164 l-4 -34 ZM897 559 q5 43 4 88.5 q-1 45.5 -9 89 q-8 43.5 -23.5 84 q-15.5 40.5 -39.5 73.5 l-500 -776 q28 -17 62 -27 q34 -10 76 -11 q93 -3 166.5 36 q73.5 39 127.5 102.5 q54 63.5 87.5 144.5 q33.5 81 44.5 164 l4 32 Z" /><glyph glyph-name="thorn" unicode="þ" d="M332 945 q66 77 151 118.5 q85 41.5 189 38.5 q73 -2 127 -26.5 q54 -24.5 92 -65 q38 -40.5 60.5 -94 q22.5 -53.5 33.5 -113.5 q11 -60 12 -123 q1 -63 -6 -122 l-3 -21 q-9 -66 -26.5 -133.5 q-17.5 -67.5 -46 -130 q-28.5 -62.5 -67.5 -117 q-39 -54.5 -90 -94.5 q-51 -40 -114 -62.5 q-63 -22.5 -140 -20.5 q-93 2 -175.5 39.5 q-82.5 37.5 -133.5 117.5 l-100 -552 l-118 0 l72 416 l-1 0 l267 1536 l120 0 l-103 -591 ZM872 558 q5 45 6 94.5 q1 49.5 -5.5 98 q-6.5 48.5 -22 92.5 q-15.5 44 -43 78 q-27.5 34 -69 55 q-41.5 21 -99.5 23 q-56 1 -105 -13 q-49 -14 -90.5 -41 q-41.5 -27 -76 -65 q-34.5 -38 -61.5 -84 l-91 -525 q32 -92 101.5 -140 q69.5 -48 166.5 -51 q62 -2 113 16.5 q51 18.5 91.5 52 q40.5 33.5 71.5 78.5 q31 45 53 96.5 q22 51.5 36 106 q14 54.5 21 107.5 l3 21 Z" /><glyph glyph-name="Hbar" unicode="&#x126;" d="M1296 1123 l139 0 l-17 -97 l-139 0 l-179 -1026 l-123 0 l122 698 l-804 0 l-122 -698 l-122 0 l178 1026 l-132 0 l17 97 l132 0 l58 333 l122 0 l-58 -333 l804 0 l58 333 l124 0 l-58 -333 ZM1116 802 l39 224 l-804 0 l-39 -224 l804 0 Z" /><glyph glyph-name="dotlessi" unicode="&#x131;" d="M177 0 l-120 0 l189 1082 l119 0 l-188 -1082 Z" /><glyph glyph-name="kgreenlandic" unicode="&#x138;" d="M394 496 l-136 0 l-86 -496 l-120 0 l188 1082 l120 0 l-84 -480 l123 0 l513 480 l154 0 l-563 -533 l414 -549 l-139 0 l-384 496 Z" /><glyph glyph-name="Lslash" unicode="&#x141;" d="M335 820 l315 98 l-21 -114 l-314 -98 l-105 -602 l698 0 l-18 -104 l-821 0 l116 666 l-163 -50 l20 114 l163 50 l117 676 l123 0 l-110 -636 Z" /><glyph glyph-name="lslash" unicode="&#x142;" d="M363 863 l187 70 l-21 -115 l-186 -70 l-130 -748 l-120 0 l122 700 l-186 -69 l20 115 l186 69 l125 721 l120 0 l-117 -673 Z" /><glyph glyph-name="Eng" unicode="&#x14a;" d="M1370 1456 l-264 -1542 q-10 -74 -36 -138.5 q-26 -64.5 -69.5 -113 q-43.5 -48.5 -104.5 -76 q-61 -27.5 -142 -25.5 q-30 1 -58.5 6.5 q-28.5 5.5 -57.5 14.5 l24 101 q23 -8 48 -13.5 q25 -5.5 50 -5.5 q53 -1 92 20.5 q39 21.5 66 57 q27 35.5 42.5 81 q15.5 45.5 22.5 91.5 l13 86 l-586 1252 l-218 -1252 l-122 0 l253 1456 l118 0 l588 -1251 l218 1251 l123 0 Z" /><glyph glyph-name="eng" unicode="&#x14b;" d="M341 1082 l-29 -184 q64 95 154.5 151 q90.5 56 209.5 53 q96 -2 155.5 -40.5 q59.5 -38.5 91 -100.5 q31.5 -62 39 -141 q7.5 -79 -2.5 -161 l-121 -748 q-10 -73 -35.5 -137.5 q-25.5 -64.5 -68.5 -112.5 q-43 -48 -104 -75 q-61 -27 -141 -26 q-33 1 -64.5 7 q-31.5 6 -63.5 15 l26 102 q26 -8 53.5 -12.5 q27.5 -4.5 54.5 -4.5 q53 -1 92 19.5 q39 20.5 66 55 q27 34.5 42.5 78.5 q15.5 44 22.5 90 l122 749 q7 60 4.5 120 q-2.5 60 -22.5 108.5 q-20 48.5 -62.5 79 q-42.5 30.5 -115.5 32.5 q-60 2 -111.5 -13.5 q-51.5 -15.5 -94.5 -45.5 q-43 -30 -77.5 -72 q-34.5 -42 -61.5 -93 l-133 -775 l-119 0 l188 1082 l106 0 Z" /><glyph glyph-name="OE" unicode="&#x152;" d="M1667 698 l-660 0 l-104 -594 l760 0 l-18 -104 l-814 0 q-75 -8 -151 -14.5 q-76 -6.5 -152 -4.5 q-123 3 -210 54.5 q-87 51.5 -140 135 q-53 83.5 -72 189 q-19 105.5 -4 216.5 l48 304 q19 120 69 228.5 q50 108.5 128.5 191 q78.5 82.5 184 130.5 q105.5 48 235.5 48 q78 -1 154.5 -7.5 q76.5 -6.5 153.5 -14.5 l818 0 l-19 -105 l-754 0 l-96 -549 l661 0 l-18 -104 ZM532 84 q62 -2 123.5 1 q61.5 3 123.5 11 l220 1266 q-59 8 -118 12 q-59 4 -118 4 q-108 0 -193 -40.5 q-85 -40.5 -146.5 -108.5 q-61.5 -68 -100 -158 q-38.5 -90 -53.5 -189 l-49 -307 q-8 -58 -6.5 -116 q1.5 -58 13.5 -112 q12 -54 35.5 -101.5 q23.5 -47.5 61 -82.5 q37.5 -35 88.5 -56 q51 -21 119 -23 Z" /><glyph glyph-name="oe" unicode="&#x153;" d="M83 550 q13 108 56 209 q43 101 112.5 178 q69.5 77 165 122.5 q95.5 45.5 213.5 42.5 q64 -2 123 -20.5 q59 -18.5 107.5 -53.5 q48.5 -35 84 -85 q35.5 -50 53.5 -113 q36 57 81.5 107.5 q45.5 50.5 99.5 87.5 q54 37 116.5 58 q62.5 21 133.5 20 q98 -3 168.5 -41.5 q70.5 -38.5 113 -102 q42.5 -63.5 58.5 -146.5 q16 -83 5 -173 l-15 -102 l-738 0 l-5 -30 q-11 -70 -2.5 -144 q8.5 -74 39 -136 q30.5 -62 85.5 -102.5 q55 -40.5 138 -43.5 q96 -3 179.5 27 q83.5 30 156.5 90 l43 -82 q-78 -75 -177.5 -106.5 q-99.5 -31.5 -205.5 -29.5 q-63 1 -120 20.5 q-57 19.5 -104.5 54 q-47.5 34.5 -82.5 83 q-35 48.5 -53 108.5 q-38 -61 -85.5 -111 q-47.5 -50 -104 -85.5 q-56.5 -35.5 -122 -54.5 q-65.5 -19 -139.5 -17 q-111 3 -188.5 50 q-77.5 47 -124 122.5 q-46.5 75.5 -63.5 171 q-17 95.5 -6 194.5 l4 33 ZM198 517 q-5 -49 -3.5 -100 q1.5 -51 12 -99 q10.5 -48 30.5 -90.5 q20 -42.5 52 -74.5 q32 -32 76 -51.5 q44 -19.5 103 -21.5 q93 -3 166 35.5 q73 38.5 126 102.5 q53 64 85.5 145 q32.5 81 43.5 163 l4 33 q9 73 0.5 150 q-8.5 77 -39 141 q-30.5 64 -87 106 q-56.5 42 -144.5 45 q-62 2 -115.5 -15.5 q-53.5 -17.5 -98 -49.5 q-44.5 -32 -79.5 -76 q-35 -44 -61 -94.5 q-26 -50.5 -43 -106 q-17 -55.5 -24 -109.5 l-4 -33 ZM1422 1001 q-78 2 -140.5 -29.5 q-62.5 -31.5 -110 -83.5 q-47.5 -52 -81.5 -117.5 q-34 -65.5 -55 -131.5 l620 0 l5 31 q8 62 -2.5 121 q-10.5 59 -40 104.5 q-29.5 45.5 -78 74.5 q-48.5 29 -117.5 31 Z" /><glyph glyph-name="longs" unicode="&#x17f;" d="M57 0 l206 1215 q10 74 37 137.5 q27 63.5 71 110 q44 46.5 105.5 72.5 q61.5 26 140.5 25 q36 -1 70.5 -7.5 q34.5 -6.5 69.5 -14.5 l-27 -95 q-49 14 -104 16 q-54 0 -96 -19 q-42 -19 -72 -52 q-30 -33 -49 -77 q-19 -44 -26 -94 l-208 -1217 l-118 0 Z" /><glyph glyph-name="florin" unicode="&#x192;" d="M643 984 l-236 0 l-164 -1073 q-9 -72 -33.5 -136.5 q-24.5 -64.5 -66.5 -112.5 q-42 -48 -102 -75.5 q-60 -27.5 -139 -26.5 q-30 0 -57.5 6 q-27.5 6 -55.5 14 l22 100 q23 -8 46 -12.5 q23 -4.5 48 -5.5 q52 -1 90.5 21 q38.5 22 64.5 57.5 q26 35.5 41.5 80.5 q15.5 45 21.5 90 l165 1073 l-175 0 l15 98 l175 0 l17 134 q9 73 35 136 q26 63 69.5 109.5 q43.5 46.5 104.5 72.5 q61 26 140 25 q35 0 69.5 -6.5 q34.5 -6.5 69.5 -14.5 l-25 -98 q-54 15 -108 15 q-54 0 -94.5 -19 q-40.5 -19 -69.5 -51 q-29 -32 -46.5 -76 q-17.5 -44 -24.5 -93 l-18 -134 l237 0 l-16 -98 Z" /><glyph glyph-name="Ohorn" unicode="&#x1a0;" d="M1241 650 q-14 -86 -41 -170 q-27 -84 -68 -159 q-41 -75 -95.5 -138.5 q-54.5 -63.5 -123.5 -109 q-69 -45.5 -151 -70.5 q-82 -25 -178 -23 q-92 2 -164 30 q-72 28 -125 76 q-53 48 -88 112 q-35 64 -54 137.5 q-19 73.5 -22.5 153.5 q-3.5 80 7.5 160 l23 156 q13 86 40.5 169.5 q27.5 83.5 69 158.5 q41.5 75 96.5 139 q55 64 124 110 q69 46 151 71 q82 25 178 23 q131 -3 221.5 -58 q90.5 -55 143.5 -142 q69 2 117.5 24 q48.5 22 80.5 59.5 q32 37.5 51.5 90 q19.5 52.5 30.5 116.5 l101 1 q-10 -83 -34 -149.5 q-24 -66.5 -65.5 -114.5 q-41.5 -48 -100.5 -77.5 q-59 -29.5 -138 -38.5 q32 -87 40.5 -184.5 q8.5 -97.5 -4.5 -197.5 l-23 -155 ZM1143 809 q8 63 8.5 128 q0.5 65 -11 126.5 q-11.5 61.5 -35 116 q-23.5 54.5 -63 96 q-39.5 41.5 -96 66.5 q-56.5 25 -132.5 27 q-79 2 -146.5 -19.5 q-67.5 -21.5 -122.5 -61 q-55 -39.5 -99 -93.5 q-44 -54 -76.5 -117 q-32.5 -63 -53.5 -132.5 q-21 -69.5 -32 -138.5 l-24 -159 q-8 -62 -8 -127.5 q0 -65.5 11 -127 q11 -61.5 35 -116.5 q24 -55 63.5 -96.5 q39.5 -41.5 96 -66.5 q56.5 -25 132.5 -27 q80 -2 147 19 q67 21 122.5 60 q55.5 39 98.5 93 q43 54 75.5 117 q32.5 63 53.5 133 q21 70 32 140 l24 160 Z" /><glyph glyph-name="ohorn" unicode="&#x1a1;" d="M77 550 q13 108 57 209 q44 101 114.5 178 q70.5 77 166.5 122.5 q96 45.5 213 42.5 q102 -2 176.5 -42.5 q74.5 -40.5 122.5 -105.5 q58 4 97 22 q39 18 64.5 49.5 q25.5 31.5 40.5 75 q15 43.5 24 97.5 l97 0 q-17 -143 -82 -224 q-65 -81 -196 -99 q31 -70 41 -150.5 q10 -80.5 2 -164.5 l-4 -34 q-14 -108 -58 -207.5 q-44 -99.5 -114.5 -176 q-70.5 -76.5 -166 -121 q-95.5 -44.5 -212.5 -41.5 q-74 2 -133.5 24 q-59.5 22 -105 59.5 q-45.5 37.5 -77 88 q-31.5 50.5 -49.5 110 q-18 59.5 -23.5 124.5 q-5.5 65 1.5 131 l4 33 ZM192 516 q-8 -74 1 -150 q9 -76 40.5 -139 q31.5 -63 88.5 -103.5 q57 -40.5 145 -43.5 q93 -3 166.5 36 q73.5 39 127.5 102.5 q54 63.5 87.5 144.5 q33.5 81 44.5 164 l4 32 q9 74 0 151 q-9 77 -41 141 q-32 64 -89.5 105.5 q-57.5 41.5 -145.5 44.5 q-93 3 -167 -36.5 q-74 -39.5 -127.5 -104 q-53.5 -64.5 -86.5 -146.5 q-33 -82 -44 -164 l-4 -34 Z" /><glyph glyph-name="Uhorn" unicode="&#x1af;" d="M1302 1456 l-36 -211 q64 7 109.5 30.5 q45.5 23.5 76 61.5 q30.5 38 49.5 90.5 q19 52.5 30 117.5 l98 1 q-11 -92 -37.5 -162.5 q-26.5 -70.5 -73 -120.5 q-46.5 -50 -113 -78.5 q-66.5 -28.5 -156.5 -34.5 l-116 -680 q-17 -112 -66 -203.5 q-49 -91.5 -124 -156 q-75 -64.5 -173 -99 q-98 -34.5 -212 -32.5 q-108 2 -192.5 38.5 q-84.5 36.5 -139.5 101 q-55 64.5 -79 154 q-24 89.5 -11 196.5 l169 987 l121 0 l-168 -988 q-10 -81 5 -150 q15 -69 54 -120 q39 -51 101 -81 q62 -30 146 -33 q90 -3 166 24 q76 27 134 78 q58 51 95 123 q37 72 51 160 l169 987 l123 0 Z" /><glyph glyph-name="uhorn" unicode="&#x1b0;" d="M752 136 q-67 -84 -158 -121.5 q-91 -37.5 -198 -34.5 q-89 2 -147.5 36.5 q-58.5 34.5 -91.5 90.5 q-33 56 -42.5 129 q-9.5 73 -0.5 153 l116 693 l118 0 l-115 -696 q-6 -54 -1.5 -107.5 q4.5 -53.5 24.5 -96 q20 -42.5 59.5 -69.5 q39.5 -27 103.5 -29 q53 -2 108.5 10.5 q55.5 12.5 104.5 39.5 q49 27 86.5 68 q37.5 41 54.5 96 l134 784 l120 0 l-23 -133 q52 5 87 22 q35 17 58.5 45.5 q23.5 28.5 37.5 69 q14 40.5 23 94.5 l93 0 q-9 -77 -31.5 -134 q-22.5 -57 -60.5 -96 q-38 -39 -92.5 -60 q-54.5 -21 -129.5 -26 l-150 -864 l-116 0 l29 136 Z" /><glyph glyph-name="uni0237" unicode="&#x237;" d="M375 1082 l-199 -1171 q-10 -72 -35 -136.5 q-25 -64.5 -67.5 -112.5 q-42.5 -48 -103 -76 q-60.5 -28 -139.5 -27 q-30 1 -58 6.5 q-28 5.5 -56 14.5 l21 100 q23 -8 47.5 -13 q24.5 -5 49.5 -6 q53 -1 92 21 q39 22 65.5 57.5 q26.5 35.5 42 80.5 q15.5 45 22.5 90 l199 1172 l119 0 Z" /><glyph glyph-name="schwa" unicode="&#x259;" d="M565 1101 q107 -3 183.5 -50 q76.5 -47 123 -122 q46.5 -75 63.5 -168.5 q17 -93.5 7 -188.5 l-7 -55 q-14 -99 -56 -196.5 q-42 -97.5 -109.5 -174 q-67.5 -76.5 -158.5 -123 q-91 -46.5 -201 -43.5 q-98 3 -168.5 41 q-70.5 38 -114 101 q-43.5 63 -59.5 145.5 q-16 82.5 -5 173.5 l15 102 l740 0 l5 30 q10 70 1.5 144.5 q-8.5 74.5 -39 136.5 q-30.5 62 -85.5 102.5 q-55 40.5 -139 43.5 q-96 3 -179 -27.5 q-83 -30.5 -156 -91.5 l-42 84 q77 74 176 106 q99 32 205 30 ZM417 80 q78 -2 140 29.5 q62 31.5 109.5 83.5 q47.5 52 81 117.5 q33.5 65.5 54.5 130.5 l-619 0 l-5 -30 q-9 -62 1.5 -121 q10.5 -59 40.5 -104.5 q30 -45.5 79 -74.5 q49 -29 118 -31 Z" /><glyph glyph-name="circumflex" unicode="&#x2c6;" d="M812 1269 l-1 -12 l-108 1 l-129 181 l-194 -180 l-110 -1 l1 14 l270 254 l73 0 l198 -257 Z" /><glyph glyph-name="caron" unicode="&#x2c7;" d="M525 1328 l202 191 l106 1 l0 -13 l-269 -260 l-86 0 l-189 261 l1 13 l105 -1 l130 -192 Z" /><glyph glyph-name="breve" unicode="&#x2d8;" d="M831 1491 q-7 -61 -32 -109.5 q-25 -48.5 -65 -82 q-40 -33.5 -92.5 -51 q-52.5 -17.5 -113.5 -15.5 q-58 1 -106 19.5 q-48 18.5 -82 52 q-34 33.5 -51.5 80.5 q-17.5 47 -14.5 106 l101 -1 q-5 -79 34.5 -124.5 q39.5 -45.5 120.5 -47.5 q85 -1 137 45 q52 46 67 126 l97 2 Z" /><glyph glyph-name="dotaccent" unicode="&#x2d9;" d="M278 1382 q3 33 27 57 q24 24 58 25 q35 1 57.5 -23 q22.5 -24 19.5 -59 q-2 -34 -27 -56.5 q-25 -22.5 -58 -23.5 q-35 -1 -57 22 q-22 23 -20 58 Z" /><glyph glyph-name="ring" unicode="&#x2da;" d="M251 1387 q1 40 17 76.5 q16 36.5 43 63.5 q27 27 63 43 q36 16 77 16 q38 0 70.5 -14.5 q32.5 -14.5 56.5 -39.5 q24 -25 37 -58.5 q13 -33.5 12 -70.5 q-1 -41 -17.5 -76.5 q-16.5 -35.5 -43.5 -62 q-27 -26.5 -63 -42 q-36 -15.5 -77 -15.5 q-38 0 -70.5 14 q-32.5 14 -56 38 q-23.5 24 -36.5 57 q-13 33 -12 71 ZM328 1389 q-2 -22 3.5 -42 q5.5 -20 18 -35.5 q12.5 -15.5 31 -24 q18.5 -8.5 41.5 -8.5 q25 0 47.5 10 q22.5 10 39.5 26.5 q17 16.5 28 39 q11 22.5 14 46.5 q2 22 -3.5 42.5 q-5.5 20.5 -18.5 36.5 q-13 16 -31.5 25 q-18.5 9 -42.5 9 q-25 0 -47 -10.5 q-22 -10.5 -39 -27.5 q-17 -17 -28 -40 q-11 -23 -13 -47 Z" /><glyph glyph-name="ogonek" unicode="&#x2db;" d="M244 -3 q-30 -21 -64 -46 q-34 -25 -64 -54 q-30 -29 -51.5 -64 q-21.5 -35 -25.5 -75 q-8 -73 64 -76 q29 -1 55 9 q26 10 50 23 l7 -85 q-31 -20 -65 -31 q-34 -11 -72 -11 q-36 0 -64.5 11.5 q-28.5 11.5 -48 33.5 q-19.5 22 -29 51.5 q-9.5 29.5 -7.5 65.5 q2 51 27 94.5 q25 43.5 62 79.5 q37 36 81 64.5 q44 28.5 84 50.5 l61 -41 Z" /><glyph glyph-name="tilde" unicode="&#x2dc;" d="M893 1485 q-6 -42 -21.5 -81 q-15.5 -39 -42 -69 q-26.5 -30 -63 -47.5 q-36.5 -17.5 -83.5 -17.5 q-40 0 -72 18 q-32 18 -61.5 39 q-29.5 21 -60 38.5 q-30.5 17.5 -68.5 17.5 q-27 0 -48 -10 q-21 -10 -36.5 -26 q-15.5 -16 -26 -37 q-10.5 -21 -16.5 -45 l-89 3 q6 42 22.5 81 q16.5 39 43 68.5 q26.5 29.5 63 47 q36.5 17.5 83.5 16.5 q39 0 71 -18 q32 -18 62 -39 q30 -21 61.5 -38.5 q31.5 -17.5 69.5 -17.5 q27 0 48 10.5 q21 10.5 36.5 27.5 q15.5 17 26 38.5 q10.5 21.5 17.5 45.5 l84 -5 Z" /><glyph glyph-name="hungarumlaut" unicode="&#x2dd;" d="M771 1535 l151 0 l-323 -303 l-130 1 l302 302 ZM471 1535 l143 0 l-277 -302 l-117 -1 l251 303 Z" /><glyph glyph-name="uni02F3" unicode="&#x2f3;" d="M7 -236 q1 31 14 58.5 q13 27.5 35 47.5 q22 20 50 32 q28 12 59 12 q29 0 54.5 -10.5 q25.5 -10.5 45 -29 q19.5 -18.5 30.5 -44 q11 -25.5 11 -54.5 q-1 -31 -13.5 -57.5 q-12.5 -26.5 -33.5 -46 q-21 -19.5 -49 -31 q-28 -11.5 -58 -11.5 q-29 0 -55.5 9.5 q-26.5 9.5 -46.5 27 q-20 17.5 -31.5 42.5 q-11.5 25 -11.5 55 ZM79 -234 q2 -29 17.5 -48 q15.5 -19 48.5 -19 q31 1 58 21.5 q27 20.5 32 52.5 q4 30 -15.5 50.5 q-19.5 20.5 -48.5 20.5 q-36 -1 -58.5 -23.5 q-22.5 -22.5 -33.5 -54.5 Z" /><glyph glyph-name="gravecomb" unicode="&#x300;" d="M-347 1241 l-96 1 l-89 293 l116 1 l69 -295 Z" /><glyph glyph-name="acutecomb" unicode="&#x301;" d="M-296 1536 l125 0 l-210 -291 l-95 0 l180 291 Z" /><glyph glyph-name="hook" unicode="&#x309;" d="M-499 1234 l20 124 q24 3 54.5 7 q30.5 4 57.5 14.5 q27 10.5 46.5 29 q19.5 18.5 22.5 50.5 q3 32 -16 49.5 q-19 17.5 -48 26 q-29 8.5 -60.5 10.5 q-31.5 2 -52.5 3 l15 76 q38 -1 84 -8 q46 -7 86 -25 q40 -18 66 -49.5 q26 -31.5 23 -82.5 q-2 -41 -19 -69.5 q-17 -28.5 -43.5 -48 q-26.5 -19.5 -60 -30.5 q-33.5 -11 -68.5 -15 l-11 -63 l-96 1 Z" /><glyph glyph-name="uni030F" unicode="&#x30f;" d="M-420 1252 l-126 0 l-247 266 l157 0 l216 -266 ZM-185 1252 l-113 0 l-197 266 l145 0 l165 -266 Z" /><glyph glyph-name="dotbelow" unicode="&#x323;" d="M-797 -231 q3 33 27 57 q24 24 59 25 q35 1 57 -23 q22 -24 20 -59 q-3 -34 -27.5 -56.5 q-24.5 -22.5 -58.5 -23.5 q-35 -1 -57 22 q-22 23 -20 58 Z" /><glyph glyph-name="tonos" unicode="&#x384;" d="M434 1588 l121 0 l-159 -304 l-88 0 l126 304 Z" /><glyph glyph-name="dieresistonos" unicode="&#x385;" d="M642 1664 l135 0 l-114 -252 l-100 0 l79 252 ZM286 1396 q1 16 8 31 q7 15 18.5 26 q11.5 11 26.5 18 q15 7 32 7 q35 1 57 -23 q22 -24 20 -59 q-3 -34 -27.5 -56.5 q-24.5 -22.5 -58.5 -23.5 q-34 -1 -56.5 22 q-22.5 23 -19.5 58 ZM776 1395 q1 16 8 31 q7 15 18.5 26 q11.5 11 26.5 18 q15 7 32 7 q35 1 57.5 -23 q22.5 -24 19.5 -59 q-2 -33 -27 -56 q-25 -23 -58 -24 q-35 -1 -57 22 q-22 23 -20 58 Z" /><glyph glyph-name="Gamma" unicode="&#x393;" d="M1163 1351 l-732 0 l-235 -1351 l-122 0 l253 1456 l854 0 l-18 -105 Z" /><glyph glyph-name="Delta" unicode="&#x394;&#x2206;" d="M901 1456 l328 -1456 l-1294 0 l850 1456 l116 0 ZM128 104 l956 0 l-262 1204 l-694 -1204 Z" /><glyph glyph-name="Theta" unicode="&#x398;" d="M952 676 l-541 0 l18 101 l541 0 l-18 -101 ZM1226 650 q-13 -86 -40.5 -170 q-27.5 -84 -68.5 -159 q-41 -75 -96 -138.5 q-55 -63.5 -123 -109 q-68 -45.5 -150.5 -70.5 q-82.5 -25 -178.5 -23 q-92 2 -164 30 q-72 28 -125 76 q-53 48 -88 112 q-35 64 -54 137.5 q-19 73.5 -22.5 153.5 q-3.5 80 7.5 160 l23 156 q13 86 40.5 169.5 q27.5 83.5 69 158.5 q41.5 75 96.5 139 q55 64 124 110 q69 46 151 71 q82 25 178 23 q92 -2 164 -30.5 q72 -28.5 125 -76 q53 -47.5 87.5 -112 q34.5 -64.5 53.5 -138 q19 -73.5 22 -154 q3 -80.5 -8 -160.5 l-23 -155 ZM1128 809 q8 63 8.5 128 q0.5 65 -11 126.5 q-11.5 61.5 -35 116 q-23.5 54.5 -63 96 q-39.5 41.5 -96 66.5 q-56.5 25 -132.5 27 q-80 2 -147 -19.5 q-67 -21.5 -122 -61 q-55 -39.5 -99 -93.5 q-44 -54 -76.5 -117 q-32.5 -63 -53.5 -132.5 q-21 -69.5 -32 -138.5 l-24 -159 q-9 -62 -8.5 -127.5 q0.5 -65.5 11.5 -127 q11 -61.5 35 -116.5 q24 -55 63.5 -96.5 q39.5 -41.5 96 -66.5 q56.5 -25 132.5 -27 q80 -2 147 19 q67 21 122.5 60 q55.5 39 98.5 93 q43 54 75.5 117 q32.5 63 53.5 133 q21 70 32 140 l24 160 Z" /><glyph glyph-name="Lambda" unicode="&#x39b;" d="M759 1272 l-664 -1272 l-137 0 l769 1456 l118 0 l264 -1456 l-126 0 l-224 1272 Z" /><glyph glyph-name="Xi" unicode="&#x39e;" d="M26 104 l896 0 l-19 -104 l-896 0 l19 104 ZM238 785 l699 0 l-19 -105 l-699 0 l19 105 ZM272 1456 l857 0 l-19 -105 l-857 0 l19 105 Z" /><glyph glyph-name="Pi" unicode="&#x3a0;" d="M1119 0 l-123 0 l235 1351 l-796 0 l-235 -1351 l-122 0 l253 1456 l1040 0 l-252 -1456 Z" /><glyph glyph-name="Sigma" unicode="&#x3a3;" d="M710 743 l-579 -639 l823 0 l-19 -104 l-979 0 l17 97 l615 668 l-395 604 l16 87 l927 0 l-19 -105 l-770 0 l368 -571 l-5 -37 Z" /><glyph glyph-name="Phi" unicode="&#x3a6;" d="M885 1267 q112 -4 205 -44 q93 -40 157.5 -109.5 q64.5 -69.5 95 -165 q30.5 -95.5 18.5 -209.5 q-14 -127 -72.5 -228 q-58.5 -101 -147.5 -171.5 q-89 -70.5 -201.5 -108.5 q-112.5 -38 -234.5 -39 l-37 -192 l-123 0 l38 193 q-113 4 -205.5 44 q-92.5 40 -156.5 109.5 q-64 69.5 -94.5 165 q-30.5 95.5 -18.5 209.5 q13 127 71.5 228 q58.5 101 147 171.5 q88.5 70.5 201 108.5 q112.5 38 234.5 39 l37 188 l123 0 l-37 -189 ZM873 1163 l-160 -866 l4 -1 q100 -8 189.5 24.5 q89.5 32.5 159.5 93.5 q70 61 115.5 145 q45.5 84 57.5 180 q12 94 -8.5 170 q-20.5 76 -68.5 130.5 q-48 54.5 -120.5 86 q-72.5 31.5 -165.5 37.5 l-3 0 ZM749 1165 q-100 -2 -189 -33 q-89 -31 -158 -88.5 q-69 -57.5 -114 -139 q-45 -81.5 -58 -183.5 q-12 -94 9 -170 q21 -76 69 -131 q48 -55 120.5 -86.5 q72.5 -31.5 165.5 -35.5 l155 867 Z" /><glyph glyph-name="Psi" unicode="&#x3a8;" d="M730 492 q94 9 173 45 q79 36 138.5 94.5 q59.5 58.5 98.5 136.5 q39 78 54 170 l88 518 l123 0 l-88 -518 q-19 -122 -70 -220 q-51 -98 -130 -168.5 q-79 -70.5 -182 -112 q-103 -41.5 -225 -48.5 l-71 -389 l-123 0 l72 391 q-111 12 -194 58 q-83 46 -135 119 q-52 73 -73 167.5 q-21 94.5 -7 202.5 l88 518 l122 0 l-88 -519 q-11 -83 2 -157.5 q13 -74.5 50 -133.5 q37 -59 98.5 -98.5 q61.5 -39.5 148.5 -52.5 l170 961 l120 0 l-160 -964 Z" /><glyph glyph-name="Omega" unicode="&#x3a9;&#x2126;" d="M640 118 q100 34 173.5 97 q73.5 63 124.5 144 q51 81 82 176 q31 95 46 194 l17 118 q7 57 7 117.5 q0 60.5 -10.5 118 q-10.5 57.5 -33 109.5 q-22.5 52 -59 91 q-36.5 39 -88.5 63 q-52 24 -122 26 q-110 3 -195 -42.5 q-85 -45.5 -146 -121 q-61 -75.5 -98.5 -171 q-37.5 -95.5 -51.5 -191.5 l-17 -118 q-7 -53 -10.5 -112.5 q-3.5 -59.5 1 -119 q4.5 -59.5 17.5 -117 q13 -57.5 39 -107 q26 -49.5 66.5 -89.5 q40.5 -40 99.5 -64 l-20 -119 l-451 0 l19 104 l279 2 q-58 64 -95.5 138 q-37.5 74 -56.5 154 q-19 80 -21.5 163.5 q-2.5 83.5 8.5 167.5 l17 115 q12 81 38 159.5 q26 78.5 65 149.5 q39 71 91.5 131.5 q52.5 60.5 117.5 103.5 q65 43 142.5 66.5 q77.5 23.5 167.5 21.5 q86 -2 153.5 -29 q67.5 -27 117.5 -72.5 q50 -45.5 84 -106 q34 -60.5 52 -130 q18 -69.5 22 -145 q4 -75.5 -6 -149.5 l-17 -115 q-15 -95 -45.5 -185 q-30.5 -90 -78 -171 q-47.5 -81 -112.5 -150 q-65 -69 -147 -121 l282 2 l-19 -104 l-448 0 l19 118 Z" /><glyph glyph-name="alpha" unicode="&#x3b1;" d="M1034 1082 l-136 -810 q-2 -20 -4.5 -50.5 q-2.5 -30.5 1 -59.5 q3.5 -29 17.5 -50 q14 -21 46 -22 q11 0 23 2 q12 2 23 4 l8 -94 q-22 -11 -43.5 -16.5 q-21.5 -5.5 -46.5 -4.5 q-44 1 -72.5 17 q-28.5 16 -46 42.5 q-17.5 26.5 -24 61.5 q-6.5 35 -6.5 74 q-33 -45 -71.5 -82 q-38.5 -37 -83 -63 q-44.5 -26 -95.5 -40 q-51 -14 -109 -12 q-71 2 -124.5 25.5 q-53.5 23.5 -91.5 63 q-38 39.5 -61.5 91 q-23.5 51.5 -35.5 110 q-12 58.5 -13.5 120 q-1.5 61.5 5.5 120.5 l2 21 q9 66 27 135 q18 69 46.5 133 q28.5 64 68 120.5 q39.5 56.5 91 98 q51.5 41.5 115.5 64.5 q64 23 142 21 q104 -3 181 -56 q77 -53 115 -150 l50 186 l103 0 ZM212 504 q-5 -44 -6 -92.5 q-1 -48.5 5.5 -95.5 q6.5 -47 21.5 -89 q15 -42 42.5 -74.5 q27.5 -32.5 68 -52.5 q40.5 -20 97.5 -21 q61 -2 112.5 16.5 q51.5 18.5 93.5 51.5 q42 33 76 77.5 q34 44.5 61 95.5 l70 418 q-11 50 -31 96.5 q-20 46.5 -51 82.5 q-31 36 -73.5 58.5 q-42.5 22.5 -99.5 24.5 q-63 2 -114.5 -17.5 q-51.5 -19.5 -92 -55 q-40.5 -35.5 -70.5 -83 q-30 -47.5 -51.5 -101 q-21.5 -53.5 -35 -110 q-13.5 -56.5 -20.5 -108.5 l-3 -21 Z" /><glyph glyph-name="beta" unicode="&#x3b2;" d="M714 1477 q81 -2 148 -30.5 q67 -28.5 113 -78 q46 -49.5 68.5 -117.5 q22.5 -68 15.5 -150 q-5 -57 -25.5 -105.5 q-20.5 -48.5 -53 -88.5 q-32.5 -40 -75 -72.5 q-42.5 -32.5 -92.5 -56.5 q59 -22 101 -59 q42 -37 68 -85 q26 -48 36 -104.5 q10 -56.5 5 -117.5 q-9 -100 -50.5 -181 q-41.5 -81 -108 -137.5 q-66.5 -56.5 -153.5 -86.5 q-87 -30 -186 -28 q-44 1 -87.5 8.5 q-43.5 7.5 -84.5 23.5 q-41 16 -78 40 q-37 24 -67 57 l-92 -507 l-119 0 l251 1461 q12 86 53 162.5 q41 76.5 103 133 q62 56.5 141 89 q79 32.5 169 30.5 ZM606 821 q68 0 126.5 18.5 q58.5 18.5 102.5 54 q44 35.5 71.5 88.5 q27.5 53 34.5 123 q6 57 -8 106 q-14 49 -44.5 85 q-30.5 36 -76.5 57 q-46 21 -104 23 q-68 1 -125.5 -24 q-57.5 -25 -102 -68.5 q-44.5 -43.5 -74 -101 q-29.5 -57.5 -39.5 -120.5 l-140 -825 q21 -41 53.5 -70 q32.5 -29 71 -48 q38.5 -19 82 -28.5 q43.5 -9.5 87.5 -10.5 q76 -2 142.5 20.5 q66.5 22.5 117.5 65.5 q51 43 83 104 q32 61 41 138 q7 66 -7 122 q-14 56 -47 97.5 q-33 41.5 -84 66 q-51 24.5 -119 26.5 l-147 1 l18 101 l87 -1 Z" /><glyph glyph-name="gamma" unicode="&#x3b3;" d="M894 1082 l128 0 l-573 -1058 l-76 -439 l-120 0 l80 454 l-205 1043 l118 0 l160 -849 l5 -77 l38 86 l445 840 Z" /><glyph glyph-name="delta" unicode="&#x3b4;" d="M330 1281 q5 75 42 129 q37 54 92.5 88.5 q55.5 34.5 123.5 50.5 q68 16 134 16 q148 -1 280 -69 l-22 -102 q-63 31 -128 48.5 q-65 17.5 -136 17.5 q-43 0 -87.5 -9.5 q-44.5 -9.5 -82.5 -30.5 q-38 -21 -64.5 -54.5 q-26.5 -33.5 -32.5 -81.5 q-7 -49 13 -83.5 q20 -34.5 54.5 -58.5 q34.5 -24 76 -40.5 q41.5 -16.5 78.5 -29.5 q90 -30 157 -82.5 q67 -52.5 109.5 -121.5 q42.5 -69 60 -152.5 q17.5 -83.5 7.5 -176.5 l-4 -33 q-13 -106 -56.5 -202.5 q-43.5 -96.5 -113.5 -169.5 q-70 -73 -164 -115 q-94 -42 -208 -39 q-110 3 -187.5 47.5 q-77.5 44.5 -125 116.5 q-47.5 72 -66 165 q-18.5 93 -8.5 192 l4 33 q10 87 44.5 167 q34.5 80 89 144 q54.5 64 128 108 q73.5 44 162.5 59 l2 11 q-39 19 -72 44.5 q-33 25.5 -56 58 q-23 32.5 -35 71.5 q-12 39 -9 84 ZM192 497 q-8 -73 1.5 -146.5 q9.5 -73.5 41.5 -132.5 q32 -59 88 -97 q56 -38 142 -41 q90 -3 162.5 33 q72.5 36 125.5 96.5 q53 60.5 86 138.5 q33 78 44 159 l4 31 q5 42 0.5 87.5 q-4.5 45.5 -17.5 89.5 q-13 44 -35 84.5 q-22 40.5 -52 73 q-30 32.5 -69.5 54 q-39.5 21.5 -87.5 27.5 q-60 7 -113 -7.5 q-53 -14.5 -98.5 -44.5 q-45.5 -30 -82.5 -73 q-37 -43 -65 -92.5 q-28 -49.5 -46 -103 q-18 -53.5 -25 -104.5 l-4 -32 Z" /><glyph glyph-name="epsilon" unicode="&#x3b5;" d="M51 288 q4 58 26.5 101.5 q22.5 43.5 58 76 q35.5 32.5 81 55.5 q45.5 23 96.5 38 q-35 16 -64.5 38 q-29.5 22 -51 50.5 q-21.5 28.5 -32.5 63 q-11 34.5 -9 74.5 q5 88 47.5 149 q42.5 61 107 98.5 q64.5 37.5 143 53.5 q78.5 16 154.5 15 q70 -2 139 -21 q69 -19 123.5 -57 q54.5 -38 86.5 -96.5 q32 -58.5 28 -137.5 l-116 1 q4 55 -19 94.5 q-23 39.5 -62 65 q-39 25.5 -87.5 37.5 q-48.5 12 -96.5 13 q-52 1 -107.5 -9.5 q-55.5 -10.5 -102 -35 q-46.5 -24.5 -79 -65.5 q-32.5 -41 -39.5 -101 q-6 -56 14.5 -92 q20.5 -36 57 -56.5 q36.5 -20.5 83.5 -28.5 q47 -8 92 -9 l188 -1 l-17 -100 l-174 1 q-57 0 -116 -8.5 q-59 -8.5 -108.5 -32 q-49.5 -23.5 -83.5 -65.5 q-34 -42 -41 -109 q-6 -59 18 -98.5 q24 -39.5 64.5 -63.5 q40.5 -24 91 -34.5 q50.5 -10.5 98.5 -11.5 q57 -1 115.5 11.5 q58.5 12.5 108 40.5 q49.5 28 86 72 q36.5 44 49.5 105 l118 0 q-12 -88 -58.5 -151 q-46.5 -63 -113.5 -103.5 q-67 -40.5 -148 -58.5 q-81 -18 -162 -16 q-70 1 -141 18.5 q-71 17.5 -127.5 54 q-56.5 36.5 -90.5 94.5 q-34 58 -28 141 Z" /><glyph glyph-name="zeta" unicode="&#x3b6;" d="M1043 1456 l-11 -83 l-465 -499 q-51 -55 -102.5 -114 q-51.5 -59 -94.5 -123 q-43 -64 -73.5 -134 q-30.5 -70 -40.5 -147 q-7 -52 5 -90 q12 -38 38 -65 q26 -27 64 -46 q38 -19 83 -34 l100 -33 q38 -12 74.5 -25.5 q36.5 -13.5 64.5 -34.5 q28 -21 44 -52.5 q16 -31.5 13 -78.5 q-3 -45 -21 -86.5 q-18 -41.5 -45 -78.5 q-27 -37 -61 -67.5 q-34 -30.5 -71 -52.5 l-64 60 q25 19 49.5 42.5 q24.5 23.5 44.5 50 q20 26.5 34 56.5 q14 30 18 63 q3 27 -8 45 q-11 18 -29 30 q-18 12 -40.5 20 q-22.5 8 -43.5 14 l-82 24 q-65 19 -121 46 q-56 27 -96 66.5 q-40 39.5 -59.5 94 q-19.5 54.5 -11.5 129.5 q9 83 42.5 162 q33.5 79 81.5 152.5 q48 73.5 104.5 140 q56.5 66.5 111.5 124.5 l407 422 l-683 0 l16 102 l828 0 Z" /><glyph glyph-name="eta" unicode="&#x3b7;" d="M347 1082 l-32 -172 q66 92 156 143 q90 51 205 49 q93 -2 153 -36 q60 -34 93 -91 q33 -57 42 -132 q9 -75 0 -158 l-187 -1100 l-119 0 l186 1100 q7 60 3 116.5 q-4 56.5 -25.5 100 q-21.5 43.5 -64 70.5 q-42.5 27 -112.5 29 q-58 1 -113.5 -17 q-55.5 -18 -102.5 -51.5 q-47 -33.5 -82 -80.5 q-35 -47 -51 -104 l-129 -748 l-119 0 l188 1082 l111 0 Z" /><glyph glyph-name="theta" unicode="&#x3b8;" d="M1008 617 q-12 -73 -31 -149.5 q-19 -76.5 -49 -148 q-30 -71.5 -71 -134.5 q-41 -63 -96.5 -109.5 q-55.5 -46.5 -126.5 -72.5 q-71 -26 -159 -23 q-84 2 -144.5 32 q-60.5 30 -101 78.5 q-40.5 48.5 -63 112 q-22.5 63.5 -32 133.5 q-9.5 70 -7.5 142 q2 72 11 138 l35 228 q11 73 30.5 149 q19.5 76 50 147 q30.5 71 72 133.5 q41.5 62.5 97 108 q55.5 45.5 126 71 q70.5 25.5 158.5 23.5 q84 -2 144.5 -31 q60.5 -29 101 -77.5 q40.5 -48.5 63 -111.5 q22.5 -63 32 -132.5 q9.5 -69.5 7.5 -141.5 q-2 -72 -11 -138 l-36 -227 ZM282 774 l633 0 l13 86 q6 47 10 102.5 q4 55.5 0.5 112 q-3.5 56.5 -17 109.5 q-13.5 53 -41 95 q-27.5 42 -71 68 q-43.5 26 -108.5 28 q-69 2 -123 -20 q-54 -22 -96.5 -61 q-42.5 -39 -73.5 -91.5 q-31 -52.5 -53.5 -110.5 q-22.5 -58 -37 -118 q-14.5 -60 -22.5 -115 l-13 -85 ZM902 672 l-639 0 l-10 -70 q-6 -46 -9 -102 q-3 -56 1 -113 q4 -57 17.5 -111 q13.5 -54 41 -97 q27.5 -43 71 -70 q43.5 -27 107.5 -29 q69 -3 123 20 q54 23 96.5 63 q42.5 40 73.5 93 q31 53 53 112 q22 59 37 119.5 q15 60.5 24 114.5 l13 70 Z" /><glyph glyph-name="iota" unicode="&#x3b9;" d="M378 1082 l-135 -812 q-3 -31 -2 -61.5 q1 -30.5 10.5 -55 q9.5 -24.5 30.5 -40 q21 -15.5 59 -16.5 q24 -1 48 2 q24 3 48 6 l-5 -100 q-29 -7 -59 -10.5 q-30 -3.5 -60 -2.5 q-62 1 -101 25 q-39 24 -60 63 q-21 39 -26.5 89 q-5.5 50 -0.5 104 l134 809 l119 0 Z" /><glyph glyph-name="lambda" unicode="&#x3bb;" d="M392 1516 q49 0 85 -18 q36 -18 61.5 -48 q25.5 -30 41.5 -69 q16 -39 25 -82 l210 -1064 q5 -21 11 -44.5 q6 -23.5 17 -43.5 q11 -20 28 -33.5 q17 -13.5 43 -15.5 q11 -1 20.5 0 q9.5 1 20.5 3 l-2 -101 q-15 -4 -30 -6.5 q-15 -2.5 -31 -2.5 q-46 0 -78.5 18 q-32.5 18 -54.5 47 q-22 29 -36 66.5 q-14 37.5 -24 76.5 l-134 686 l-488 -885 l-138 0 l592 1059 l-44 199 q-6 26 -14 53 q-8 27 -21 49 q-13 22 -33.5 36.5 q-20.5 14.5 -52.5 16.5 q-12 1 -24 0 q-12 -1 -24 -2 l6 95 q17 5 34 7.5 q17 2.5 34 2.5 Z" /><glyph glyph-name="xi" unicode="&#x3be;" d="M1005 1333 q-57 20 -115.5 31.5 q-58.5 11.5 -118.5 11.5 q-60 0 -122.5 -11.5 q-62.5 -11.5 -115 -40 q-52.5 -28.5 -89.5 -74.5 q-37 -46 -44 -115 q-8 -69 17 -113 q25 -44 69.5 -69.5 q44.5 -25.5 102 -36 q57.5 -10.5 113.5 -11.5 l136 -1 l-18 -103 l-121 1 q-90 0 -174 -20.5 q-84 -20.5 -150.5 -65 q-66.5 -44.5 -111 -114 q-44.5 -69.5 -55.5 -166.5 q-8 -72 10.5 -128 q18.5 -56 56 -97.5 q37.5 -41.5 91.5 -70.5 q54 -29 118 -48 l86 -25 q36 -11 72.5 -24 q36.5 -13 65 -33.5 q28.5 -20.5 45.5 -51 q17 -30.5 14 -75.5 q-3 -42 -20.5 -80.5 q-17.5 -38.5 -44.5 -72 q-27 -33.5 -60 -62 q-33 -28.5 -66 -50.5 l-68 62 q23 19 46.5 39.5 q23.5 20.5 43.5 44 q20 23.5 34.5 50.5 q14.5 27 18.5 59 q3 25 -8.5 42 q-11.5 17 -30.5 28 q-19 11 -41 18 q-22 7 -41 13 l-62 18 q-86 25 -159.5 61 q-73.5 36 -125.5 89 q-52 53 -77.5 126 q-25.5 73 -16.5 172 q7 84 40 151 q33 67 84.5 118.5 q51.5 51.5 118.5 87.5 q67 36 144 59 q-44 17 -81.5 43.5 q-37.5 26.5 -64 61 q-26.5 34.5 -40 76.5 q-13.5 42 -10.5 92 q6 96 52.5 163 q46.5 67 116.5 108.5 q70 41.5 155.5 60 q85.5 18.5 169.5 17.5 q66 -1 130 -12.5 q64 -11.5 127 -33.5 l-26 -99 Z" /><glyph glyph-name="pi" unicode="&#x3c0;" d="M1167 979 l-180 0 l-118 -709 q-3 -31 -2 -61.5 q1 -30.5 10.5 -55 q9.5 -24.5 30.5 -40 q21 -15.5 59 -16.5 q24 -1 48 2 q24 3 48 6 l-5 -100 q-29 -7 -59 -10.5 q-30 -3.5 -60 -2.5 q-62 1 -101 25 q-39 24 -60 63 q-21 39 -26.5 89 q-5.5 50 -0.5 104 l117 706 l-458 0 l-170 -979 l-119 0 l171 979 l-177 0 l18 103 l1053 0 l-19 -103 Z" /><glyph glyph-name="rho" unicode="&#x3c1;" d="M983 517 q-9 -65 -26.5 -131 q-17.5 -66 -46 -126.5 q-28.5 -60.5 -67 -112.5 q-38.5 -52 -89 -90 q-50.5 -38 -113.5 -59 q-63 -21 -138 -19 q-93 2 -175 39 q-82 37 -134 117 l-99 -551 l-119 0 l173 1014 l2 0 l0 11 q10 98 50 188.5 q40 90.5 104.5 159 q64.5 68.5 151.5 108.5 q87 40 191 37 q76 -2 133 -27 q57 -25 96.5 -67 q39.5 -42 64 -97 q24.5 -55 36.5 -117 q12 -62 13 -127.5 q1 -65.5 -6 -127.5 l-2 -22 ZM867 539 q5 44 6.5 95 q1.5 51 -3.5 102 q-5 51 -19.5 98 q-14.5 47 -41 83.5 q-26.5 36.5 -68 59 q-41.5 22.5 -100.5 24.5 q-84 3 -148 -33 q-64 -36 -110 -94.5 q-46 -58.5 -74 -132 q-28 -73.5 -40 -145.5 l-54 -328 q32 -91 101 -138 q69 -47 166 -50 q92 -2 159 36.5 q67 38.5 113 101.5 q46 63 72.5 142 q26.5 79 37.5 158 l3 21 Z" /><glyph glyph-name="sigma1" unicode="&#x3c2;" d="M630 1102 q85 -2 151 -31.5 q66 -29.5 110.5 -80.5 q44.5 -51 64.5 -121.5 q20 -70.5 13 -153.5 l-113 0 q6 60 -6 111 q-12 51 -41.5 89.5 q-29.5 38.5 -75.5 61 q-46 22.5 -109 24.5 q-61 2 -112.5 -15.5 q-51.5 -17.5 -94.5 -48.5 q-43 -31 -76.5 -74 q-33.5 -43 -58 -92.5 q-24.5 -49.5 -40.5 -103.5 q-16 -54 -23 -107 l-5 -42 q-9 -83 7.5 -151 q16.5 -68 56 -121.5 q39.5 -53.5 99.5 -91.5 q60 -38 138 -62 q41 -12 80 -27 q39 -15 68 -38 q29 -23 45 -56.5 q16 -33.5 12 -84.5 q-3 -40 -20.5 -78.5 q-17.5 -38.5 -43.5 -72.5 q-26 -34 -57.5 -62.5 q-31.5 -28.5 -64.5 -49.5 l-62 60 q23 19 45 39.5 q22 20.5 40 43.5 q18 23 30.5 50 q12.5 27 16.5 58 q4 31 -5.5 51 q-9.5 20 -28 32.5 q-18.5 12.5 -43 20 q-24.5 7.5 -49.5 14.5 q-99 27 -174.5 73.5 q-75.5 46.5 -125 111.5 q-49.5 65 -71 150 q-21.5 85 -11.5 190 l5 43 q12 104 53.5 203 q41.5 99 109 175.5 q67.5 76.5 159.5 121.5 q92 45 207 42 Z" /><glyph glyph-name="sigma" unicode="&#x3c3;" d="M1165 979 l-305 -3 q47 -42 78 -92 q31 -50 48 -105.5 q17 -55.5 21 -115.5 q4 -60 -2 -121 l-4 -34 q-13 -105 -57 -202 q-44 -97 -114 -170.5 q-70 -73.5 -164 -116.5 q-94 -43 -207 -40 q-113 3 -190.5 50.5 q-77.5 47.5 -124 124 q-46.5 76.5 -63 172.5 q-16.5 96 -5.5 195 l4 34 q13 109 57.5 205 q44.5 96 115.5 168 q71 72 165.5 113.5 q94.5 41.5 208.5 41.5 l557 -1 l-19 -103 ZM194 516 q-6 -49 -4 -99.5 q2 -50.5 12.5 -98.5 q10.5 -48 31 -90.5 q20.5 -42.5 52.5 -74.5 q32 -32 76.5 -51.5 q44.5 -19.5 102.5 -21.5 q93 -3 166.5 35.5 q73.5 38.5 126.5 102.5 q53 64 85.5 145 q32.5 81 44.5 163 l4 33 q8 75 -1.5 147 q-9.5 72 -41 130 q-31.5 58 -87 96.5 q-55.5 38.5 -139.5 46.5 q-92 1 -165 -34.5 q-73 -35.5 -127 -95 q-54 -59.5 -87.5 -137.5 q-33.5 -78 -45.5 -162 l-4 -34 Z" /><glyph glyph-name="tau" unicode="&#x3c4;" d="M1007 980 l-390 0 l-118 -707 q-3 -32 -2.5 -64.5 q0.5 -32.5 10.5 -59.5 q10 -27 32 -44.5 q22 -17.5 61 -18.5 q25 -1 49 4 q24 5 48 11 l16 -91 q-33 -16 -67.5 -22.5 q-34.5 -6.5 -71.5 -5.5 q-66 1 -106.5 26.5 q-40.5 25.5 -61.5 67 q-21 41.5 -26 94 q-5 52.5 0 109.5 l116 701 l-357 0 l18 102 l868 0 l-18 -102 Z" /><glyph glyph-name="upsilon" unicode="&#x3c5;" d="M352 1082 l-113 -679 q-6 -52 -4 -108.5 q2 -56.5 20 -103.5 q18 -47 56 -78 q38 -31 104 -33 q61 -2 112.5 17.5 q51.5 19.5 93.5 54 q42 34.5 75 81 q33 46.5 57 99 q24 52.5 39.5 107.5 q15.5 55 23.5 107 q20 134 15 270 q-5 136 -38 267 l124 -1 q30 -132 32 -266.5 q2 -134.5 -15 -268.5 q-14 -105 -52.5 -208 q-38.5 -103 -103 -184 q-64.5 -81 -155.5 -130 q-91 -49 -211 -46 q-93 2 -154 38.5 q-61 36.5 -94.5 95.5 q-33.5 59 -43 135.5 q-9.5 76.5 -0.5 158.5 l113 675 l119 0 Z" /><glyph glyph-name="phi" unicode="&#x3c6;" d="M512 -18 q-118 12 -202 59.5 q-84 47.5 -135 122.5 q-51 75 -69 173 q-18 98 -4 210 q20 170 105.5 308.5 q85.5 138.5 231.5 228.5 l53 -90 q-113 -78 -182 -195.5 q-69 -117.5 -89 -252.5 q-13 -87 -2 -165.5 q11 -78.5 48 -140 q37 -61.5 100.5 -103 q63.5 -41.5 155.5 -54.5 l134 792 q6 46 25 85 q19 39 49.5 66.5 q30.5 27.5 70.5 43 q40 15.5 88 14.5 q104 -2 176.5 -51.5 q72.5 -49.5 116 -127 q43.5 -77.5 59.5 -171 q16 -93.5 6 -182.5 q-14 -125 -66.5 -226.5 q-52.5 -101.5 -134 -175.5 q-81.5 -74 -187.5 -117.5 q-106 -43.5 -229 -51.5 l-83 -459 l-119 0 l83 460 ZM646 80 q96 10 179 48.5 q83 38.5 146.5 100.5 q63.5 62 104.5 144 q41 82 53 179 q5 40 3.5 87.5 q-1.5 47.5 -11 96 q-9.5 48.5 -27.5 93.5 q-18 45 -46.5 79 q-28.5 34 -69 54 q-40.5 20 -93.5 18 q-45 -2 -71.5 -31.5 q-26.5 -29.5 -34.5 -70.5 l-133 -798 Z" /><glyph glyph-name="psi" unicode="&#x3c8;" d="M812 1082 l-167 -1002 q106 10 189.5 52 q83.5 42 145 108.5 q61.5 66.5 99.5 154 q38 87.5 53 189.5 q19 126 5.5 253 q-13.5 127 -56.5 246 l123 -1 q40 -121 51 -245.5 q11 -124.5 -5 -252.5 q-17 -131 -66.5 -238.5 q-49.5 -107.5 -128.5 -186 q-79 -78.5 -187 -124.5 q-108 -46 -242 -53 l-77 -425 l-118 0 l78 427 q-124 14 -206 68 q-82 54 -128 136.5 q-46 82.5 -59 186.5 q-13 104 2 218 l82 489 l119 0 l-82 -492 q-12 -88 -6 -172.5 q6 -84.5 37.5 -153.5 q31.5 -69 92 -117 q60.5 -48 159.5 -63 l176 998 l116 0 Z" /><glyph glyph-name="omega" unicode="&#x3c9;" d="M475 1081 q-40 -65 -77.5 -131.5 q-37.5 -66.5 -69 -136 q-31.5 -69.5 -54.5 -142 q-23 -72.5 -34 -148.5 q-6 -37 -9 -83.5 q-3 -46.5 0 -95 q3 -48.5 14 -95 q11 -46.5 33 -83.5 q22 -37 57.5 -60.5 q35.5 -23.5 87.5 -25.5 q54 -3 97 13.5 q43 16.5 76.5 46 q33.5 29.5 58 69.5 q24.5 40 41.5 85 q17 45 28 92 q11 47 17 91 l47 293 l120 0 l-47 -293 q-5 -37 -7 -80.5 q-2 -43.5 1.5 -87.5 q3.5 -44 14.5 -84.5 q11 -40.5 33 -72.5 q22 -32 56.5 -52 q34.5 -20 85.5 -21 q57 -1 102 19.5 q45 20.5 80 56.5 q35 36 60 83 q25 47 43 98.5 q18 51.5 29 102.5 q11 51 17 96 q19 138 7 277 q-12 139 -58 271 l124 -1 q42 -134 52 -269.5 q10 -135.5 -7 -275.5 q-8 -62 -23.5 -128 q-15.5 -66 -41 -128.5 q-25.5 -62.5 -61 -118.5 q-35.5 -56 -83 -97 q-47.5 -41 -108 -64.5 q-60.5 -23.5 -135.5 -21.5 q-58 1 -105.5 20 q-47.5 19 -83.5 52 q-36 33 -59 79 q-23 46 -30 103 q-27 -56 -61 -103.5 q-34 -47.5 -77.5 -81.5 q-43.5 -34 -97 -52.5 q-53.5 -18.5 -119.5 -16.5 q-71 2 -121.5 28 q-50.5 26 -85 68.5 q-34.5 42.5 -54 97.5 q-19.5 55 -28 115 q-8.5 60 -7.5 121 q1 61 8 116 q19 155 76.5 292 q57.5 137 145.5 265 l132 -1 Z" /><glyph glyph-name="uni03D1" unicode="&#x3d1;" d="M1127 674 q-42 -14 -84 -22 q-42 -8 -86 -12 l-35 -212 q-14 -98 -50.5 -181.5 q-36.5 -83.5 -95.5 -143.5 q-59 -60 -141 -93 q-82 -33 -187 -30 q-96 3 -166.5 39 q-70.5 36 -114 97 q-43.5 61 -60 141.5 q-16.5 80.5 -6.5 170.5 l54 329 l120 2 l-54 -332 q-8 -66 0 -127 q8 -61 35 -108.5 q27 -47.5 76 -76.5 q49 -29 123 -32 q81 -3 141.5 23 q60.5 26 103 72.5 q42.5 46.5 67.5 110.5 q25 64 36 138 l37 216 q-100 13 -179.5 53.5 q-79.5 40.5 -132.5 103.5 q-53 63 -78 147 q-25 84 -17 186 l1 21 q7 67 33.5 128.5 q26.5 61.5 69.5 108 q43 46.5 101.5 73.5 q58.5 27 131.5 25 q83 -2 137 -38 q54 -36 84 -92.5 q30 -56.5 38.5 -126.5 q8.5 -70 0.5 -141 l-56 -347 q39 5 77 12 q38 7 76 18 l0 -100 ZM550 1132 q-14 -161 63.5 -259.5 q77.5 -98.5 238.5 -124.5 l58 344 q5 45 4.5 96 q-0.5 51 -15 94.5 q-14.5 43.5 -47 72 q-32.5 28.5 -91.5 30.5 q-49 1 -86 -19 q-37 -20 -62.5 -53 q-25.5 -33 -40.5 -75 q-15 -42 -20 -85 l-2 -21 Z" /><glyph glyph-name="uni03D2" unicode="&#x3d2;" d="M874 1261 q23 42 49 80.5 q26 38.5 59 67.5 q33 29 74 45.5 q41 16.5 94 15.5 q32 -2 60 -9.5 q28 -7.5 56 -21.5 l-39 -92 q-17 7 -32.5 11 q-15.5 4 -33.5 6 q-34 2 -61 -11 q-27 -13 -49 -34.5 q-22 -21.5 -40 -48 q-18 -26.5 -33 -52.5 l-381 -631 l-102 -587 l-122 0 l105 606 l-169 611 q-7 23 -17 48 q-10 25 -24.5 45.5 q-14.5 20.5 -35 33.5 q-20.5 13 -49.5 12 q-17 0 -33.5 -3.5 q-16.5 -3.5 -32.5 -8.5 l-21 96 q26 12 52 18.5 q26 6.5 55 6.5 q47 0 81.5 -17 q34.5 -17 60 -45.5 q25.5 -28.5 43 -66 q17.5 -37.5 29.5 -77.5 l130 -491 l6 -62 l36 74 l285 481 Z" /><glyph glyph-name="uni03D6" unicode="&#x3d6;" d="M1592 979 l-160 0 q17 -112 19.5 -221.5 q2.5 -109.5 -12.5 -221.5 q-8 -59 -22.5 -124 q-14.5 -65 -38.5 -127.5 q-24 -62.5 -57.5 -118.5 q-33.5 -56 -79 -98.5 q-45.5 -42.5 -104 -66.5 q-58.5 -24 -131.5 -22 q-58 1 -105.5 19.5 q-47.5 18.5 -83.5 51.5 q-36 33 -58.5 79 q-22.5 46 -30.5 103 q-26 -56 -60 -103 q-34 -47 -77.5 -81.5 q-43.5 -34.5 -97 -53 q-53.5 -18.5 -118.5 -16.5 q-69 3 -118 30 q-49 27 -81 70.5 q-32 43.5 -50 99 q-18 55.5 -25.5 115.5 q-7.5 60 -6 120.5 q1.5 60.5 7.5 112.5 q30 246 165 455 l-149 -2 l19 103 l1475 0 l-20 -103 ZM1322 535 q15 112 9.5 222 q-5.5 110 -25.5 222 l-909 1 q-63 -106 -111 -220 q-48 -114 -65 -237 q-5 -34 -8 -79.5 q-3 -45.5 -1.5 -94 q1.5 -48.5 11 -95.5 q9.5 -47 29.5 -85 q20 -38 53.5 -62 q33.5 -24 83.5 -27 q54 -3 97 13 q43 16 76 46 q33 30 57.5 70 q24.5 40 41.5 85.5 q17 45.5 27.5 92.5 q10.5 47 16.5 90 l43 270 l120 0 l-43 -270 q-5 -37 -7 -80.5 q-2 -43.5 1.5 -87.5 q3.5 -44 14.5 -85 q11 -41 33 -73 q22 -32 56.5 -51.5 q34.5 -19.5 85.5 -20.5 q55 -1 98 20.5 q43 21.5 75.5 58.5 q32.5 37 56.5 84.5 q24 47.5 40.5 99 q16.5 51.5 26.5 101.5 q10 50 16 92 Z" /><glyph glyph-name="uni0402" unicode="&#x402;" d="M1272 1351 l-548 0 l-98 -534 q78 29 160 48.5 q82 19.5 165 18.5 q105 -1 187 -33 q82 -32 136.5 -90.5 q54.5 -58.5 79 -142.5 q24.5 -84 14.5 -189 q-11 -107 -56.5 -188.5 q-45.5 -81.5 -116.5 -137.5 q-71 -56 -162.5 -86 q-91.5 -30 -192.5 -33 l4 103 q79 1 148 25 q69 24 122 68 q53 44 87.5 107.5 q34.5 63.5 43.5 144.5 q9 78 -7 141 q-16 63 -54.5 107.5 q-38.5 44.5 -98 69 q-59.5 24.5 -138.5 26.5 q-87 2 -169 -17 q-82 -19 -163 -48 l-126 -711 l-123 0 l235 1351 l-420 0 l19 105 l1091 0 l-19 -105 Z" /><glyph glyph-name="uni0404" unicode="&#x404;" d="M1152 454 q-25 -110 -76.5 -199 q-51.5 -89 -126.5 -151 q-75 -62 -172.5 -94.5 q-97.5 -32.5 -212.5 -29.5 q-89 2 -158.5 30 q-69.5 28 -120.5 75.5 q-51 47.5 -84.5 110.5 q-33.5 63 -51 135 q-17.5 72 -20.5 150 q-3 78 7 155 l28 182 q13 84 40 166.5 q27 82.5 67.5 156 q40.5 73.5 94 136 q53.5 62.5 121 107.5 q67.5 45 148.5 69.5 q81 24.5 175 22.5 q108 -2 190.5 -37.5 q82.5 -35.5 138 -98.5 q55.5 -63 84 -149.5 q28.5 -86.5 27.5 -191.5 l-121 1 q0 80 -19 147.5 q-19 67.5 -58 116.5 q-39 49 -100.5 77.5 q-61.5 28.5 -146.5 30.5 q-78 2 -143.5 -19.5 q-65.5 -21.5 -119 -60.5 q-53.5 -39 -95.5 -92.5 q-42 -53.5 -74 -115.5 q-32 -62 -53.5 -129.5 q-21.5 -67.5 -34.5 -134.5 l-5 -31 l593 0 l-19 -104 l-586 0 l-8 -50 q-9 -59 -9.5 -122 q-0.5 -63 10 -123.5 q10.5 -60.5 32.5 -115 q22 -54.5 59.5 -96 q37.5 -41.5 91 -67 q53.5 -25.5 126.5 -27.5 q94 -3 169 22 q75 25 132 73.5 q57 48.5 97 118 q40 69.5 65 155.5 l119 1 Z" /><glyph glyph-name="uni0409" unicode="&#x409;" d="M1364 1456 l-106 -608 l340 -1 q93 -2 171 -31 q78 -29 133 -82 q55 -53 81.5 -129.5 q26.5 -76.5 17.5 -173.5 q-10 -107 -56.5 -188 q-46.5 -81 -119 -135.5 q-72.5 -54.5 -165 -82 q-92.5 -27.5 -193.5 -25.5 l-478 0 l234 1351 l-538 0 l-113 -553 q-17 -86 -36 -178.5 q-19 -92.5 -47.5 -181.5 q-28.5 -89 -68.5 -168.5 q-40 -79.5 -99 -139.5 q-59 -60 -140 -95 q-81 -35 -189 -35 l-44 0 l12 103 l36 0 q87 0 151 33 q64 33 111 88 q47 55 78 127 q31 72 53 149 q22 77 36 154.5 q14 77.5 26 143.5 l134 658 l779 0 ZM1240 744 l-111 -640 l341 -1 q77 0 147 22 q70 22 125.5 64 q55.5 42 91.5 103.5 q36 61.5 46 141.5 q9 71 -9 127.5 q-18 56.5 -56 96 q-38 39.5 -94.5 61.5 q-56.5 22 -125.5 24 l-355 1 Z" /><glyph glyph-name="uni040A" unicode="&#x40a;" d="M333 785 l797 0 l117 671 l122 0 l-110 -629 l340 -1 q91 -2 169.5 -29 q78.5 -27 134 -77.5 q55.5 -50.5 83.5 -125 q28 -74.5 19 -171.5 q-10 -106 -57 -186 q-47 -80 -119.5 -133 q-72.5 -53 -165 -79 q-92.5 -26 -192.5 -25 l-477 0 l118 681 l-796 0 l-119 -681 l-122 0 l253 1456 l122 0 l-117 -671 ZM1242 723 l-107 -615 l341 -1 q75 1 144.5 21 q69.5 20 125 59.5 q55.5 39.5 92 99 q36.5 59.5 45.5 139.5 q8 71 -10.5 125.5 q-18.5 54.5 -58 91.5 q-39.5 37 -95.5 57 q-56 20 -123 22 l-354 1 Z" /><glyph glyph-name="uni040B" unicode="&#x40b;" d="M1271 1351 l-542 0 l-98 -541 q90 24 180.5 37 q90.5 13 182.5 12 q107 -2 188 -31 q81 -29 132.5 -85.5 q51.5 -56.5 73 -139.5 q21.5 -83 8.5 -191 l-68 -412 l-123 0 l68 413 q10 82 -2 145 q-12 63 -46.5 106.5 q-34.5 43.5 -92.5 66 q-58 22.5 -141 24.5 q-95 2 -187.5 -12.5 q-92.5 -14.5 -183.5 -37.5 l-125 -705 l-122 0 l234 1351 l-426 0 l19 105 l1090 0 l-19 -105 Z" /><glyph glyph-name="uni040F" unicode="&#x40f;" d="M327 1456 l123 0 l-235 -1352 l797 0 l235 1352 l122 0 l-253 -1456 l-454 0 l-61 -353 l-124 0 l62 353 l-465 0 l253 1456 Z" /><glyph glyph-name="uni0411" unicode="&#x411;" d="M1155 1351 l-732 0 l-91 -527 l340 -1 q91 -2 169.5 -28.5 q78.5 -26.5 134 -77 q55.5 -50.5 83.5 -124.5 q28 -74 19 -172 q-10 -107 -57 -186.5 q-47 -79.5 -119.5 -132 q-72.5 -52.5 -164.5 -78 q-92 -25.5 -192 -24.5 l-479 0 l253 1456 l854 0 l-18 -105 ZM314 719 l-106 -615 l341 -1 q76 0 145.5 20.5 q69.5 20.5 124.5 60.5 q55 40 91 100 q36 60 45 140 q8 71 -10 125.5 q-18 54.5 -57 91 q-39 36.5 -95.5 56 q-56.5 19.5 -123.5 21.5 l-355 1 Z" /><glyph glyph-name="uni0414" unicode="&#x414;" d="M1209 -353 l-122 0 l61 353 l-1062 0 l-62 -353 l-122 0 l81 457 l89 -2 q92 72 157.5 170.5 q65.5 98.5 112 208.5 q46.5 110 77.5 226.5 q31 116.5 54 224.5 l116 524 l784 0 l-234 -1352 l150 0 l-80 -457 ZM597 932 q-23 -110 -54.5 -223 q-31.5 -113 -76.5 -221.5 q-45 -108.5 -106 -207 q-61 -98.5 -145 -178.5 l802 2 l216 1247 l-544 0 l-92 -419 Z" /><glyph glyph-name="uni0416" unicode="&#x416;" d="M1115 693 l-161 0 l-121 -693 l-122 0 l121 693 l-157 0 l-600 -693 l-162 0 l659 758 l-363 698 l138 0 l331 -658 l172 0 l114 658 l122 0 l-114 -658 l160 0 l559 658 l154 0 l-616 -709 l391 -747 l-144 0 l-361 693 Z" /><glyph glyph-name="uni0417" unicode="&#x417;" d="M612 794 q73 0 144.5 14.5 q71.5 14.5 129 48.5 q57.5 34 96.5 89.5 q39 55.5 48 137.5 q8 75 -15 129 q-23 54 -67 89 q-44 35 -105 52 q-61 17 -128 18 q-72 1 -138.5 -18 q-66.5 -19 -121 -57 q-54.5 -38 -92.5 -94 q-38 -56 -52 -128 l-120 -1 q13 98 62.5 174 q49.5 76 122 127 q72.5 51 162 77 q89.5 26 183.5 24 q91 -2 173.5 -26 q82.5 -24 143 -72.5 q60.5 -48.5 92.5 -122 q32 -73.5 23 -174.5 q-6 -66 -33.5 -119 q-27.5 -53 -70 -95 q-42.5 -42 -96.5 -73 q-54 -31 -112 -52 q116 -40 170.5 -129 q54.5 -89 43.5 -210 q-6 -73 -32.5 -133 q-26.5 -60 -67.5 -107.5 q-41 -47.5 -95 -82.5 q-54 -35 -115.5 -57.5 q-61.5 -22.5 -128 -33 q-66.5 -10.5 -132.5 -9.5 q-95 2 -177 31 q-82 29 -141 83.5 q-59 54.5 -90 132.5 q-31 78 -22 177 l121 0 q-8 -74 14 -132.5 q22 -58.5 65 -100 q43 -41.5 103.5 -64 q60.5 -22.5 131.5 -24.5 q76 -2 151.5 15.5 q75.5 17.5 137.5 56.5 q62 39 104 99.5 q42 60.5 51 144.5 q9 81 -14 136 q-23 55 -68.5 88.5 q-45.5 33.5 -108.5 48 q-63 14.5 -135 16.5 l-179 1 l19 106 l165 -1 Z" /><glyph glyph-name="uni0418" unicode="&#x418;" d="M1250 1456 l127 0 l-254 -1456 l-122 0 l215 1235 l-1012 -1235 l-127 0 l253 1456 l123 0 l-215 -1234 l1012 1234 Z" /><glyph glyph-name="uni041B" unicode="&#x41b;" d="M1364 1456 l-253 -1456 l-122 0 l234 1351 l-593 0 l-121 -553 q-14 -75 -31 -164 q-17 -89 -41.5 -179 q-24.5 -90 -60.5 -173 q-36 -83 -90 -147 q-54 -64 -128 -101 q-74 -37 -175 -34 l-46 0 l12 103 l37 0 q80 0 138 36 q58 36 98.5 94 q40.5 58 67.5 132 q27 74 45 151 q18 77 30 150.5 q12 73.5 23 131.5 l143 658 l833 0 Z" /><glyph glyph-name="uni0423" unicode="&#x423;" d="M634 526 l562 930 l149 0 l-747 -1207 q-33 -57 -71 -107.5 q-38 -50.5 -84 -88 q-46 -37.5 -103 -58.5 q-57 -21 -129 -19 q-25 1 -49.5 4.5 q-24.5 3.5 -48.5 8.5 l22 100 q20 -4 40.5 -6 q20.5 -2 41.5 -2 q48 0 86 16.5 q38 16.5 69.5 44 q31.5 27.5 57.5 62.5 q26 35 49 72 l72 116 l-347 1064 l133 0 l297 -930 Z" /><glyph glyph-name="uni0424" unicode="&#x424;" d="M919 1307 l22 0 q120 -3 216.5 -47.5 q96.5 -44.5 161.5 -120.5 q65 -76 94.5 -178.5 q29.5 -102.5 16.5 -220.5 q-15 -130 -74 -238.5 q-59 -108.5 -149.5 -186 q-90.5 -77.5 -207 -120.5 q-116.5 -43 -245.5 -42 l-28 0 l-41 -213 l-120 0 l41 214 l-21 0 q-121 2 -217.5 46.5 q-96.5 44.5 -161 121 q-64.5 76.5 -94 179 q-29.5 102.5 -15.5 221.5 q15 130 74 238 q59 108 149.5 185.5 q90.5 77.5 206.5 120 q116 42.5 245 42.5 l27 0 l41 209 l115 0 l-36 -210 ZM908 1207 l-168 -953 l22 -1 q109 0 203 36 q94 36 166.5 100 q72.5 64 119.5 153.5 q47 89.5 61 197.5 q12 97 -7.5 181 q-19.5 84 -67.5 146 q-48 62 -123.5 99 q-75.5 37 -176.5 40 l-29 1 ZM766 1208 q-109 0 -203.5 -35.5 q-94.5 -35.5 -167 -99 q-72.5 -63.5 -119.5 -153 q-47 -89.5 -61 -197.5 q-12 -98 7 -182.5 q19 -84.5 67 -146.5 q48 -62 124 -99 q76 -37 178 -40 l26 0 l170 953 l-21 0 Z" /><glyph glyph-name="uni0426" unicode="&#x426;" d="M321 1456 l123 0 l-234 -1352 l796 0 l235 1352 l122 0 l-234 -1350 l138 0 l-88 -457 l-113 0 l61 351 l-1059 0 l253 1456 Z" /><glyph glyph-name="uni0427" unicode="&#x427;" d="M1292 1456 l-253 -1456 l-123 0 l119 662 q-94 -28 -190.5 -43.5 q-96.5 -15.5 -195.5 -13.5 q-107 2 -188.5 31.5 q-81.5 29.5 -133 86 q-51.5 56.5 -72.5 139.5 q-21 83 -8 192 l67 402 l123 0 l-66 -403 q-19 -162 49.5 -249.5 q68.5 -87.5 234.5 -90.5 q100 -2 197.5 13.5 q97.5 15.5 194.5 40.5 l122 689 l123 0 Z" /><glyph glyph-name="uni0428" unicode="&#x428;" d="M447 1456 l-235 -1352 l562 0 l235 1352 l122 0 l-235 -1352 l560 0 l235 1352 l122 0 l-253 -1456 l-1489 0 l253 1456 l123 0 Z" /><glyph glyph-name="uni0429" unicode="&#x429;" d="M447 1456 l-235 -1352 l562 0 l235 1352 l122 0 l-235 -1352 l560 0 l235 1352 l122 0 l-236 -1354 l136 0 l-88 -453 l-109 0 l61 351 l-1506 0 l253 1456 l123 0 Z" /><glyph glyph-name="uni042A" unicode="&#x42a;" d="M138 1456 l595 0 l-110 -632 l340 -1 q91 -2 169.5 -28.5 q78.5 -26.5 134 -77 q55.5 -50.5 83.5 -124.5 q28 -74 19 -172 q-10 -107 -57 -186.5 q-47 -79.5 -119.5 -132 q-72.5 -52.5 -164.5 -78 q-92 -25.5 -192 -24.5 l-478 0 l235 1354 l-474 0 l19 102 ZM605 719 l-106 -615 l341 -1 q76 0 145.5 20.5 q69.5 20.5 124.5 60.5 q55 40 91 100 q36 60 45 140 q8 71 -10 125.5 q-18 54.5 -57 91 q-39 36.5 -95.5 56 q-56.5 19.5 -123.5 21.5 l-355 1 Z" /><glyph glyph-name="uni042B" unicode="&#x42b;" d="M340 824 l340 -1 q91 -2 169.5 -28.5 q78.5 -26.5 134 -77 q55.5 -50.5 83.5 -124.5 q28 -74 19 -172 q-10 -107 -57 -186.5 q-47 -79.5 -119.5 -132 q-72.5 -52.5 -164.5 -78 q-92 -25.5 -192 -24.5 l-478 0 l253 1456 l122 0 l-110 -632 ZM322 719 l-106 -615 l341 -1 q76 0 145.5 20.5 q69.5 20.5 124.5 60.5 q55 40 91 100 q36 60 45 140 q8 71 -10 125.5 q-18 54.5 -57 91 q-39 36.5 -95.5 56 q-56.5 19.5 -123.5 21.5 l-355 1 ZM1367 0 l-122 0 l253 1456 l122 0 l-253 -1456 Z" /><glyph glyph-name="uni042C" unicode="&#x42c;" d="M332 824 l340 -1 q91 -2 169.5 -28.5 q78.5 -26.5 134 -77 q55.5 -50.5 83.5 -124.5 q28 -74 19 -172 q-10 -107 -57 -186.5 q-47 -79.5 -119.5 -132 q-72.5 -52.5 -164.5 -78 q-92 -25.5 -192 -24.5 l-478 0 l253 1456 l122 0 l-110 -632 ZM314 719 l-106 -615 l341 -1 q76 0 145.5 20.5 q69.5 20.5 124.5 60.5 q55 40 91 100 q36 60 45 140 q8 71 -10 125.5 q-18 54.5 -57 91 q-39 36.5 -95.5 56 q-56.5 19.5 -123.5 21.5 l-355 1 Z" /><glyph glyph-name="uni042D" unicode="&#x42d;" d="M232 454 q0 -83 19.5 -151 q19.5 -68 60 -116 q40.5 -48 103.5 -75 q63 -27 150 -29 q77 -2 142 20 q65 22 118 61.5 q53 39.5 94.5 93 q41.5 53.5 73 115.5 q31.5 62 52.5 129.5 q21 67.5 33 133.5 l7 43 l-595 0 l19 105 l588 0 l6 37 q9 60 9.5 123.5 q0.5 63.5 -10.5 124 q-11 60.5 -34.5 115 q-23.5 54.5 -62 95.5 q-38.5 41 -93.5 66 q-55 25 -128 27 q-93 3 -166.5 -23.5 q-73.5 -26.5 -129.5 -75.5 q-56 -49 -95.5 -118.5 q-39.5 -69.5 -64.5 -153.5 l-121 0 q25 109 76 197.5 q51 88.5 125 151 q74 62.5 170 96 q96 33.5 211 30.5 q90 -2 160.5 -30 q70.5 -28 122.5 -75 q52 -47 86 -110 q34 -63 52.5 -135.5 q18.5 -72.5 21.5 -151 q3 -78.5 -7 -156.5 l-28 -182 q-13 -83 -39.5 -164.5 q-26.5 -81.5 -66 -155 q-39.5 -73.5 -93 -136 q-53.5 -62.5 -120 -107.5 q-66.5 -45 -146 -70 q-79.5 -25 -172.5 -23 q-108 2 -192 36.5 q-84 34.5 -141.5 96.5 q-57.5 62 -87 149 q-29.5 87 -28.5 193 l121 -1 Z" /><glyph glyph-name="uni042E" unicode="&#x42e;" d="M1695 650 q-14 -86 -41 -170 q-27 -84 -68 -159 q-41 -75 -95.5 -138.5 q-54.5 -63.5 -123.5 -109 q-69 -45.5 -151 -70.5 q-82 -25 -178 -23 q-92 2 -164 30 q-72 28 -125 76 q-53 48 -88 112 q-35 64 -54 137.5 q-19 73.5 -22.5 153.5 q-3.5 80 7.5 160 l5 37 l-259 0 l-119 -686 l-122 0 l253 1456 l122 0 l-117 -669 l257 0 l3 18 q13 86 40.5 169.5 q27.5 83.5 69 158.5 q41.5 75 96.5 139 q55 64 124 110 q69 46 151 71 q82 25 178 23 q92 -2 164 -30.5 q72 -28.5 125 -76 q53 -47.5 87.5 -112 q34.5 -64.5 53.5 -138 q19 -73.5 22 -154 q3 -80.5 -8 -160.5 l-23 -155 ZM1597 809 q9 63 9 128 q0 65 -11.5 126.5 q-11.5 61.5 -35 116 q-23.5 54.5 -63 96 q-39.5 41.5 -96 66.5 q-56.5 25 -132.5 27 q-80 2 -147 -19.5 q-67 -21.5 -122 -61 q-55 -39.5 -99 -93.5 q-44 -54 -76.5 -117 q-32.5 -63 -53.5 -132.5 q-21 -69.5 -32 -138.5 l-24 -159 q-9 -62 -8.5 -127.5 q0.5 -65.5 11.5 -127 q11 -61.5 35 -116.5 q24 -55 63.5 -96.5 q39.5 -41.5 96 -66.5 q56.5 -25 132.5 -27 q80 -2 147 19 q67 21 122.5 60 q55.5 39 98.5 93 q43 54 75.5 117 q32.5 63 53.5 133 q21 70 32 140 l24 160 Z" /><glyph glyph-name="uni042F" unicode="&#x42f;" d="M828 0 l103 593 l-400 0 l-412 -593 l-139 0 l448 630 q-119 52 -172.5 151 q-53.5 99 -41.5 227 q10 112 57 196 q47 84 120.5 140 q73.5 56 168.5 84.5 q95 28.5 202 28.5 l442 -1 l-253 -1456 l-123 0 ZM337 1010 q-8 -67 6.5 -123 q14.5 -56 48.5 -97 q34 -41 86 -64.5 q52 -23.5 120 -26.5 l351 -1 l113 653 l-304 1 q-82 0 -154.5 -21 q-72.5 -21 -128.5 -64 q-56 -43 -92.5 -107 q-36.5 -64 -45.5 -150 Z" /><glyph glyph-name="uni0431" unicode="&#x431;" d="M628 1010 q102 -2 177.5 -42 q75.5 -40 123.5 -106 q48 -66 68.5 -152 q20.5 -86 12.5 -181 l-3 -34 q-12 -106 -55 -200.5 q-43 -94.5 -112 -165.5 q-69 -71 -162 -111.5 q-93 -40.5 -205 -37.5 q-107 2 -186.5 45.5 q-79.5 43.5 -129.5 114 q-50 70.5 -70 162.5 q-20 92 -9 191 l4 33 l1 8 l9 65 q11 86 33 173 q22 87 55.5 168 q33.5 81 80 153.5 q46.5 72.5 108 130 q61.5 57.5 139 97 q77.5 39.5 172.5 54.5 q44 7 92.5 16 q48.5 9 91.5 27.5 q43 18.5 74.5 50 q31.5 31.5 42.5 83.5 l102 0 q-10 -79 -45 -129 q-35 -50 -87.5 -81 q-52.5 -31 -117.5 -46.5 q-65 -15.5 -134 -25.5 q-94 -14 -166.5 -54 q-72.5 -40 -128.5 -99.5 q-56 -59.5 -97 -134.5 q-41 -75 -72 -159 q77 87 176 138 q99 51 217 49 ZM604 909 q-83 2 -153 -28.5 q-70 -30.5 -122.5 -83.5 q-52.5 -53 -86 -124 q-33.5 -71 -43.5 -149 l-3 -33 q-7 -74 4.5 -146.5 q11.5 -72.5 45.5 -130.5 q34 -58 91.5 -95 q57.5 -37 141.5 -39 q88 -2 159.5 32.5 q71.5 34.5 124 92.5 q52.5 58 84.5 134 q32 76 42 156 l3 33 q7 73 -7 141 q-14 68 -49.5 120.5 q-35.5 52.5 -93 85 q-57.5 32.5 -138.5 34.5 Z" /><glyph glyph-name="uni0432" unicode="&#x432;" d="M59 0 l187 1082 l379 -1 q67 -1 135.5 -14.5 q68.5 -13.5 123 -45 q54.5 -31.5 86.5 -85 q32 -53.5 26 -135.5 q-4 -50 -23.5 -89 q-19.5 -39 -50 -69.5 q-30.5 -30.5 -70 -53 q-39.5 -22.5 -82.5 -37.5 q43 -11 77.5 -33.5 q34.5 -22.5 58.5 -54.5 q24 -32 36.5 -71.5 q12.5 -39.5 9.5 -84.5 q-5 -86 -45 -145.5 q-40 -59.5 -101 -95.5 q-61 -36 -136 -52 q-75 -16 -150 -15 l-461 0 ZM264 498 l-70 -398 l329 -1 q52 0 105 10.5 q53 10.5 97 35 q44 24.5 74 65 q30 40.5 36 100.5 q6 52 -13 87.5 q-19 35.5 -52.5 57 q-33.5 21.5 -77 31.5 q-43.5 10 -86.5 11 l-342 1 ZM281 598 l287 -2 q50 1 102.5 10.5 q52.5 9.5 96.5 32.5 q44 23 74.5 61.5 q30.5 38.5 36.5 97.5 q6 57 -16 92.5 q-22 35.5 -60.5 55 q-38.5 19.5 -86.5 26 q-48 6.5 -93 7.5 l-275 1 l-66 -382 Z" /><glyph glyph-name="uni0433" unicode="&#x433;" d="M872 979 l-530 0 l-170 -979 l-119 0 l188 1082 l650 0 l-19 -103 Z" /><glyph glyph-name="uni0434" unicode="&#x434;" d="M37 99 q65 62 113 129.5 q48 67.5 83.5 141 q35.5 73.5 60 154 q24.5 80.5 42.5 167.5 l84 391 l623 0 l-170 -981 l108 0 l-73 -419 l-118 0 l56 318 l-786 0 l-56 -318 l-114 0 l74 419 l73 -2 ZM455 691 q-17 -83 -39 -163.5 q-22 -80.5 -54.5 -156 q-32.5 -75.5 -78.5 -144.5 q-46 -69 -109 -128 l579 2 l151 869 l-390 0 l-59 -279 Z" /><glyph glyph-name="uni0436" unicode="&#x436;" d="M940 500 l-142 0 l-87 -500 l-119 0 l87 500 l-131 0 l-475 -500 l-160 0 l538 561 l-292 521 l134 0 l262 -475 l142 0 l83 475 l119 0 l-83 -475 l135 0 l427 475 l154 0 l-485 -533 l336 -549 l-142 0 l-301 500 Z" /><glyph glyph-name="uni0437" unicode="&#x437;" d="M500 603 q52 0 102.5 9.5 q50.5 9.5 92 32.5 q41.5 23 69.5 61 q28 38 34 97 q6 53 -11.5 90.5 q-17.5 37.5 -50.5 61 q-33 23.5 -76.5 34.5 q-43.5 11 -90.5 12 q-51 1 -101 -12 q-50 -13 -91.5 -39.5 q-41.5 -26.5 -71.5 -66.5 q-30 -40 -42 -92 l-117 0 q10 78 51 137 q41 59 100 98 q59 39 131 58 q72 19 146 18 q69 -2 133.5 -19.5 q64.5 -17.5 113 -53.5 q48.5 -36 75.5 -92.5 q27 -56.5 21 -134.5 q-4 -48 -23.5 -87 q-19.5 -39 -50 -69.5 q-30.5 -30.5 -69 -54 q-38.5 -23.5 -80.5 -40.5 q83 -30 122.5 -94 q39.5 -64 33.5 -152 q-6 -86 -47 -148 q-41 -62 -103.5 -102 q-62.5 -40 -139 -58 q-76.5 -18 -153.5 -16 q-74 1 -141.5 23 q-67.5 22 -118 63.5 q-50.5 41.5 -78.5 102.5 q-28 61 -23 141 l117 -1 q-4 -55 15.5 -97.5 q19.5 -42.5 54.5 -71 q35 -28.5 81.5 -44 q46.5 -15.5 97.5 -16.5 q54 -1 108 11 q54 12 99 38.5 q45 26.5 75.5 69 q30.5 42.5 36.5 102.5 q6 58 -11 95.5 q-17 37.5 -50.5 60 q-33.5 22.5 -79 31.5 q-45.5 9 -94.5 10 l-169 1 l18 104 l155 -1 Z" /><glyph glyph-name="uni0438" unicode="&#x438;" d="M920 1082 l123 0 l-188 -1082 l-120 0 l154 879 l-713 -879 l-122 0 l188 1082 l118 0 l-153 -880 l713 880 Z" /><glyph glyph-name="uni043A" unicode="&#x43a;" d="M422 496 l-163 0 l-86 -496 l-120 0 l188 1082 l120 0 l-84 -480 l152 0 l469 480 l158 0 l-528 -531 l378 -551 l-145 0 l-339 496 Z" /><glyph glyph-name="uni043B" unicode="&#x43b;" d="M1044 1082 l-188 -1082 l-120 0 l171 979 l-427 0 l-78 -375 q-12 -61 -25 -130 q-13 -69 -32.5 -136.5 q-19.5 -67.5 -48 -129.5 q-28.5 -62 -71 -109 q-42.5 -47 -101 -74 q-58.5 -27 -138.5 -25 l-47 0 l15 106 l35 0 q59 1 101.5 26 q42.5 25 72.5 66 q30 41 49.5 93.5 q19.5 52.5 32.5 107.5 q13 55 21.5 108.5 q8.5 53.5 16.5 96.5 l100 478 l661 0 Z" /><glyph glyph-name="uni043C" unicode="&#x43c;" d="M654 165 l575 917 l150 0 l-189 -1082 l-119 0 l153 875 l-550 -875 l-85 0 l-254 909 l-158 -909 l-119 0 l188 1082 l152 0 l256 -917 Z" /><glyph glyph-name="uni043D" unicode="&#x43d;" d="M855 0 l-120 0 l87 496 l-563 0 l-86 -496 l-119 0 l188 1082 l119 0 l-85 -485 l563 0 l85 485 l119 0 l-188 -1082 Z" /><glyph glyph-name="uni043F" unicode="&#x43f;" d="M855 0 l-120 0 l171 979 l-563 0 l-170 -979 l-119 0 l188 1082 l801 0 l-188 -1082 Z" /><glyph glyph-name="uni0442" unicode="&#x442;" d="M972 980 l-381 0 l-171 -980 l-119 0 l170 980 l-368 0 l18 102 l870 0 l-19 -102 Z" /><glyph glyph-name="uni0444" unicode="&#x444;" d="M96 526 q8 64 24.5 132 q16.5 68 42.5 133 q26 65 62.5 122.5 q36.5 57.5 85.5 100.5 q49 43 111 67 q62 24 140 23 q47 -1 89.5 -12.5 q42.5 -11.5 81.5 -36.5 l87 481 l118 0 l-90 -485 q82 52 181 50 q73 -1 125 -28 q52 -27 86.5 -72 q34.5 -45 54 -103 q19.5 -58 27.5 -120.5 q8 -62.5 7 -125.5 q-1 -63 -7 -118 l-3 -22 q-8 -63 -25 -127.5 q-17 -64.5 -43.5 -124.5 q-26.5 -60 -63.5 -112 q-37 -52 -85.5 -90.5 q-48.5 -38.5 -109 -60.5 q-60.5 -22 -134.5 -20 q-48 1 -92.5 12.5 q-44.5 11.5 -85.5 36.5 l-81 -442 l-118 0 l82 441 q-41 -23 -84.5 -34.5 q-43.5 -11.5 -91.5 -10.5 q-69 1 -119.5 25 q-50.5 24 -85.5 64 q-35 40 -55.5 92.5 q-20.5 52.5 -29.5 110.5 q-9 58 -9 118 q0 60 6 114 l2 22 ZM1202 539 q5 40 7.5 89.5 q2.5 49.5 -1 100 q-3.5 50.5 -15.5 98.5 q-12 48 -36 85.5 q-24 37.5 -62.5 61 q-38.5 23.5 -95.5 24.5 q-86 3 -160 -41 l-146 -840 q32 -21 69.5 -30 q37.5 -9 76.5 -10 q90 -2 153.5 38.5 q63.5 40.5 106.5 105 q43 64.5 67 143 q24 78.5 34 153.5 l2 22 ZM212 505 q-5 -40 -6.5 -87 q-1.5 -47 2.5 -93.5 q4 -46.5 16.5 -90 q12.5 -43.5 36.5 -77 q24 -33.5 61.5 -54.5 q37.5 -21 92.5 -22 q42 -1 81 9 q39 10 77 30 l147 840 q-31 23 -67.5 32 q-36.5 9 -74.5 10 q-62 1 -111 -20 q-49 -21 -87 -57 q-38 -36 -66 -84.5 q-28 -48.5 -48 -101.5 q-20 -53 -32.5 -108 q-12.5 -55 -18.5 -105 l-3 -21 Z" /><glyph glyph-name="uni0446" unicode="&#x446;" d="M242 1082 l119 0 l-170 -981 l562 0 l171 981 l119 0 l-170 -981 l107 0 l-83 -422 l-110 0 l57 321 l-790 0 l188 1082 Z" /><glyph glyph-name="uni0447" unicode="&#x447;" d="M796 0 l-120 0 l84 455 q-67 -23 -136.5 -38 q-69.5 -15 -141.5 -15 q-97 1 -165.5 29 q-68.5 28 -110 80.5 q-41.5 52.5 -56.5 127.5 q-15 75 -4 169 l43 274 l119 0 l-44 -275 q-8 -68 -1 -123 q7 -55 32.5 -94.5 q25.5 -39.5 73 -61 q47.5 -21.5 120.5 -21.5 q72 -1 142.5 13 q70.5 14 139.5 36 l94 526 l119 0 l-188 -1082 Z" /><glyph glyph-name="uni0448" unicode="&#x448;" d="M361 1082 l-170 -981 l463 0 l171 981 l119 0 l-170 -981 l459 0 l171 981 l119 0 l-188 -1082 l-1281 0 l188 1082 l119 0 Z" /><glyph glyph-name="uni0449" unicode="&#x449;" d="M356 1082 l-170 -981 l463 0 l171 981 l119 0 l-170 -981 l459 0 l171 981 l119 0 l-171 -980 l128 0 l-83 -423 l-110 0 l56 321 l-1289 0 l188 1082 l119 0 Z" /><glyph glyph-name="uni044A" unicode="&#x44a;" d="M501 689 l291 -2 q75 -2 138.5 -25 q63.5 -23 109 -65 q45.5 -42 69 -103 q23.5 -61 17.5 -140 q-7 -87 -45 -153.5 q-38 -66.5 -98 -111.5 q-60 -45 -136 -67.5 q-76 -22.5 -158 -21.5 l-425 0 l170 980 l-336 0 l19 102 l453 0 l-69 -393 ZM484 587 l-85 -486 l294 -2 q59 1 113 17.5 q54 16.5 96 48 q42 31.5 70 79 q28 47.5 35 109.5 q6 54 -7.5 96.5 q-13.5 42.5 -43 72 q-29.5 29.5 -72 46 q-42.5 16.5 -94.5 18.5 l-306 1 Z" /><glyph glyph-name="uni044B" unicode="&#x44b;" d="M296 689 l291 -2 q75 -2 138.5 -25 q63.5 -23 109 -65 q45.5 -42 69 -103 q23.5 -61 17.5 -140 q-7 -87 -45 -153.5 q-38 -66.5 -98 -111.5 q-60 -45 -136 -67.5 q-76 -22.5 -158 -21.5 l-425 0 l188 1082 l118 0 l-69 -393 ZM279 587 l-85 -486 l294 -2 q59 1 113 17.5 q54 16.5 96 48 q42 31.5 70 79 q28 47.5 35 109.5 q6 54 -7.5 96.5 q-13.5 42.5 -43 72 q-29.5 29.5 -72 46 q-42.5 16.5 -94.5 18.5 l-306 1 ZM1218 0 l-120 0 l189 1082 l119 0 l-188 -1082 Z" /><glyph glyph-name="uni044C" unicode="&#x44c;" d="M296 689 l291 -2 q75 -2 138.5 -25 q63.5 -23 109 -65 q45.5 -42 69 -103 q23.5 -61 17.5 -140 q-7 -87 -45 -153.5 q-38 -66.5 -98 -111.5 q-60 -45 -136 -67.5 q-76 -22.5 -158 -21.5 l-425 0 l188 1082 l118 0 l-69 -393 ZM279 587 l-85 -486 l294 -2 q59 1 113 17.5 q54 16.5 96 48 q42 31.5 70 79 q28 47.5 35 109.5 q6 54 -7.5 96.5 q-13.5 42.5 -43 72 q-29.5 29.5 -72 46 q-42.5 16.5 -94.5 18.5 l-306 1 Z" /><glyph glyph-name="uni044D" unicode="&#x44d;" d="M571 1001 q-61 2 -115 -16 q-54 -18 -96.5 -51.5 q-42.5 -33.5 -72 -81.5 q-29.5 -48 -41.5 -107 l-113 -1 q11 81 51.5 148 q40.5 67 100.5 114.5 q60 47.5 135 73 q75 25.5 156 23.5 q111 -3 185.5 -51.5 q74.5 -48.5 118 -124.5 q43.5 -76 58 -171 q14.5 -95 4.5 -191 l-5 -43 q-13 -104 -54 -203 q-41 -99 -108.5 -175.5 q-67.5 -76.5 -159.5 -121.5 q-92 -45 -206 -42 q-83 2 -149.5 32 q-66.5 30 -111.5 81.5 q-45 51.5 -66 121.5 q-21 70 -14 151 l115 0 q-6 -58 6.5 -109 q12.5 -51 42 -89.5 q29.5 -38.5 75.5 -62 q46 -23.5 108 -25.5 q89 -3 156.5 33 q67.5 36 116.5 96 q49 60 80.5 135.5 q31.5 75.5 49.5 151.5 l-480 0 l19 101 l471 0 q7 69 -2 139.5 q-9 70.5 -38.5 128.5 q-29.5 58 -82.5 95.5 q-53 37.5 -134 40.5 Z" /><glyph glyph-name="uni044E" unicode="&#x44e;" d="M280 589 l295 0 q18 102 63.5 196 q45.5 94 115 165.5 q69.5 71.5 162 113 q92.5 41.5 204.5 38.5 q112 -3 190.5 -50.5 q78.5 -47.5 126 -123.5 q47.5 -76 64 -172 q16.5 -96 6.5 -196 l-4 -34 q-14 -108 -58 -207.5 q-44 -99.5 -114.5 -176 q-70.5 -76.5 -166 -121 q-95.5 -44.5 -212.5 -41.5 q-107 3 -183.5 46.5 q-76.5 43.5 -124.5 114.5 q-48 71 -68 161 q-20 90 -14 186 l-299 0 l-85 -488 l-120 0 l189 1082 l119 0 l-86 -493 ZM684 516 q-8 -74 1 -150 q9 -76 40.5 -139 q31.5 -63 88.5 -103.5 q57 -40.5 145 -43.5 q93 -3 166.5 36 q73.5 39 127.5 102.5 q54 63.5 87.5 144.5 q33.5 81 44.5 164 l4 32 q9 74 0 151 q-9 77 -41 141 q-32 64 -89.5 105.5 q-57.5 41.5 -145.5 44.5 q-93 3 -167 -36.5 q-74 -39.5 -127.5 -104 q-53.5 -64.5 -86.5 -146.5 q-33 -82 -44 -164 l-4 -34 Z" /><glyph glyph-name="uni044F" unicode="&#x44f;" d="M1002 1082 l-188 -1082 l-119 0 l76 436 l-319 0 l-333 -436 l-138 0 l348 454 q-48 18 -83 48 q-35 30 -56.5 69 q-21.5 39 -30.5 84.5 q-9 45.5 -5 95.5 q6 84 44 146.5 q38 62.5 97 104 q59 41.5 133 61.5 q74 20 152 20 l422 -1 ZM273 749 q-5 -47 5.5 -84.5 q10.5 -37.5 34.5 -64.5 q24 -27 60 -43 q36 -16 82 -18 l333 -1 l77 442 l-289 1 q-55 0 -106.5 -14.5 q-51.5 -14.5 -93 -43 q-41.5 -28.5 -69.5 -72 q-28 -43.5 -34 -102.5 Z" /><glyph glyph-name="uni0452" unicode="&#x452;" d="M678 1235 l-303 0 l-62 -336 q34 45 74 83 q40 38 86 65 q46 27 98 41.5 q52 14.5 110 13.5 q88 -2 145.5 -34.5 q57.5 -32.5 89.5 -87 q32 -54.5 41.5 -126 q9.5 -71.5 0.5 -150.5 l-46 -270 l5 0 l-87 -523 q-9 -73 -34.5 -137.5 q-25.5 -64.5 -68.5 -112.5 q-43 -48 -103.5 -75.5 q-60.5 -27.5 -139.5 -26.5 q-32 1 -63.5 6.5 q-31.5 5.5 -62.5 14.5 l22 99 q52 -16 108 -18 q53 0 92 21.5 q39 21.5 65.5 57 q26.5 35.5 42 80 q15.5 44.5 22.5 90.5 l15 90 l-3 0 l118 706 q6 57 1.5 109.5 q-4.5 52.5 -25.5 93 q-21 40.5 -61.5 64.5 q-40.5 24 -106.5 26 q-62 1 -115.5 -19.5 q-53.5 -20.5 -98 -56 q-44.5 -35.5 -80 -83 q-35.5 -47.5 -62.5 -98.5 l-128 -742 l-118 0 l214 1235 l-178 0 l18 102 l178 0 l35 199 l118 0 l-37 -199 l302 0 l-18 -102 Z" /><glyph glyph-name="uni0454" unicode="&#x454;" d="M464 80 q61 -2 115 15.5 q54 17.5 97 50.5 q43 33 74 80.5 q31 47.5 47 106.5 l113 0 q-15 -81 -57 -147 q-42 -66 -102.5 -112.5 q-60.5 -46.5 -135.5 -71.5 q-75 -25 -157 -23 q-113 3 -188 50.5 q-75 47.5 -118 123.5 q-43 76 -57 171 q-14 95 -3 193 l5 43 q13 106 53.5 205 q40.5 99 107.5 175 q67 76 159 120.5 q92 44.5 208 41.5 q84 -2 150.5 -32 q66.5 -30 112.5 -81 q46 -51 69 -121 q23 -70 19 -152 l-113 1 q2 58 -13 109 q-15 51 -46 89 q-31 38 -77.5 60.5 q-46.5 22.5 -107.5 24.5 q-89 3 -157 -31.5 q-68 -34.5 -117.5 -92 q-49.5 -57.5 -80.5 -132 q-31 -74.5 -45 -152.5 l481 0 l-18 -101 l-476 0 q-6 -71 1.5 -143 q7.5 -72 36 -131 q28.5 -59 81.5 -97 q53 -38 139 -40 Z" /><glyph glyph-name="uni0459" unicode="&#x459;" d="M1026 1082 l-75 -433 l291 -1 q71 -2 134.5 -22.5 q63.5 -20.5 110.5 -59.5 q47 -39 72.5 -97 q25.5 -58 19.5 -136 q-6 -86 -45.5 -149 q-39.5 -63 -99.5 -104 q-60 -41 -135 -61 q-75 -20 -153 -19 l-427 0 l170 979 l-425 0 l-63 -375 q-9 -63 -21.5 -132.5 q-12.5 -69.5 -32.5 -137.5 q-20 -68 -49.5 -129 q-29.5 -61 -73 -107.5 q-43.5 -46.5 -103.5 -73 q-60 -26.5 -141 -24.5 l-47 0 l14 101 l37 0 q60 0 103.5 25 q43.5 25 75 66 q31.5 41 52 94 q20.5 53 33.5 109 q13 56 21 110.5 q8 54.5 14 98.5 l80 478 l663 0 ZM934 548 l-78 -448 l293 -1 q56 0 109 15 q53 15 95.5 44 q42.5 29 71 73.5 q28.5 44.5 35.5 104.5 q6 53 -9.5 92 q-15.5 39 -46 65 q-30.5 26 -73.5 39 q-43 13 -91 15 l-306 1 Z" /><glyph glyph-name="uni045A" unicode="&#x45a;" d="M286 652 l563 0 l75 430 l119 0 l-76 -433 l292 -1 q71 -2 134.5 -22.5 q63.5 -20.5 110 -59.5 q46.5 -39 71.5 -97 q25 -58 19 -136 q-6 -86 -45 -149 q-39 -63 -99 -104 q-60 -41 -135 -61 q-75 -20 -153 -19 l-426 0 l96 551 l-563 0 l-96 -551 l-119 0 l188 1082 l119 0 l-75 -430 ZM950 548 l-78 -448 l293 -1 q56 0 109 15 q53 15 95.5 44 q42.5 29 70.5 73.5 q28 44.5 35 104.5 q6 53 -9 92 q-15 39 -45.5 65 q-30.5 26 -73 39 q-42.5 13 -90.5 15 l-307 1 Z" /><glyph glyph-name="uni045B" unicode="&#x45b;" d="M691 1247 l-314 0 l-64 -348 q34 45 74 83 q40 38 86 65 q46 27 98 41.5 q52 14.5 110 13.5 q88 -2 145.5 -34.5 q57.5 -32.5 89.5 -87 q32 -54.5 41.5 -126 q9.5 -71.5 0.5 -150.5 l-118 -704 l-118 0 l118 706 q6 57 1.5 109.5 q-4.5 52.5 -25.5 93 q-21 40.5 -61.5 64.5 q-40.5 24 -106.5 26 q-62 1 -115.5 -19.5 q-53.5 -20.5 -98 -56 q-44.5 -35.5 -80 -83 q-35.5 -47.5 -62.5 -98.5 l-128 -742 l-118 0 l217 1247 l-168 0 l18 102 l167 0 l33 187 l118 0 l-35 -187 l313 0 l-18 -102 Z" /><glyph glyph-name="uni045F" unicode="&#x45f;" d="M361 1082 l-170 -981 l562 0 l171 981 l119 0 l-188 -1082 l-337 0 l-62 -353 l-119 0 l62 353 l-345 0 l188 1082 l119 0 Z" /><glyph glyph-name="uni0460" unicode="&#x460;" d="M1748 1456 l-178 -1042 q-14 -92 -49.5 -172 q-35.5 -80 -92.5 -139.5 q-57 -59.5 -135 -92.5 q-78 -33 -177 -31 q-52 1 -100 15 q-48 14 -87 40 q-39 26 -67.5 64.5 q-28.5 38.5 -42.5 90.5 q-63 -102 -155 -158 q-92 -56 -213 -52 q-92 3 -156.5 39.5 q-64.5 36.5 -103.5 96 q-39 59.5 -52.5 137 q-13.5 77.5 -3.5 161.5 l177 1043 l124 0 l-178 -1044 q-6 -56 -0.5 -113.5 q5.5 -57.5 28 -105 q22.5 -47.5 65 -78 q42.5 -30.5 109.5 -33.5 q73 -3 129.5 24 q56.5 27 98 73.5 q41.5 46.5 66.5 107 q25 60.5 35 125.5 l178 1044 l126 0 l-177 -1044 q-6 -58 0.5 -116 q6.5 -58 30.5 -104.5 q24 -46.5 67.5 -77 q43.5 -30.5 111.5 -32.5 q72 -3 128 24.5 q56 27.5 96 74 q40 46.5 64.5 107 q24.5 60.5 33.5 124.5 l178 1044 l122 0 Z" /><glyph glyph-name="uni0461" unicode="&#x461;" d="M1548 1082 l-119 -699 q-12 -85 -44.5 -159.5 q-32.5 -74.5 -85 -130 q-52.5 -55.5 -124.5 -86.5 q-72 -31 -164 -29 q-47 1 -90 13.5 q-43 12.5 -78.5 36 q-35.5 23.5 -62 58 q-26.5 34.5 -39.5 81.5 q-58 -91 -141 -141.5 q-83 -50.5 -193 -47.5 q-86 3 -144.5 37.5 q-58.5 34.5 -93.5 90.5 q-35 56 -47 127.5 q-12 71.5 -4 148.5 l117 700 l118 0 l-117 -701 q-6 -50 -1 -103 q5 -53 25 -96.5 q20 -43.5 58 -72 q38 -28.5 99 -30.5 q66 -3 117.5 22 q51.5 25 88 67.5 q36.5 42.5 59 98 q22.5 55.5 31.5 114.5 l119 701 l119 0 l-118 -701 q-5 -52 1 -105 q6 -53 27.5 -96 q21.5 -43 60.5 -71 q39 -28 101 -30 q65 -3 115 22.5 q50 25.5 85.5 68.5 q35.5 43 57 98.5 q21.5 55.5 29.5 112.5 l118 701 l120 0 Z" /><glyph glyph-name="uni0463" unicode="&#x463;" d="M680 1082 l-315 0 l-66 -375 l291 -1 q76 -2 140 -26 q64 -24 108.5 -68 q44.5 -44 67 -107 q22.5 -63 15.5 -143 q-7 -88 -45 -156 q-38 -68 -97 -114 q-59 -46 -135.5 -69.5 q-76.5 -23.5 -160.5 -22.5 l-425 0 l187 1082 l-191 0 l18 101 l191 0 l63 364 l120 0 l-64 -364 l316 0 l-18 -101 ZM282 605 l-88 -504 l293 -1 q61 0 115 17.5 q54 17.5 96 51 q42 33.5 69.5 82 q27.5 48.5 34.5 111.5 q6 54 -6.5 98 q-12.5 44 -41 75 q-28.5 31 -71 49 q-42.5 18 -96.5 20 l-305 1 Z" /><glyph glyph-name="uni0464" unicode="&#x464;" d="M361 813 l248 0 l1 7 q13 84 40 166 q27 82 67.5 156 q40.5 74 94.5 136 q54 62 121.5 107 q67.5 45 148 69.5 q80.5 24.5 174.5 22.5 q108 -2 190.5 -37.5 q82.5 -35.5 138 -98.5 q55.5 -63 84 -149.5 q28.5 -86.5 27.5 -191.5 l-121 1 q0 80 -19 147.5 q-19 67.5 -58.5 116.5 q-39.5 49 -101 77.5 q-61.5 28.5 -146.5 30.5 q-116 3 -205 -44.5 q-89 -47.5 -153 -126.5 q-64 -79 -103 -178.5 q-39 -99.5 -55 -201.5 l-2 -9 l518 0 l-19 -102 l-515 0 l-11 -75 q-8 -59 -8.5 -122 q-0.5 -63 10 -123.5 q10.5 -60.5 32.5 -115 q22 -54.5 59.5 -96 q37.5 -41.5 91 -67 q53.5 -25.5 126.5 -27.5 q94 -3 169 22 q75 25 132 73.5 q57 48.5 97 118 q40 69.5 65 155.5 l119 1 q-25 -110 -76.5 -198.5 q-51.5 -88.5 -126.5 -151 q-75 -62.5 -172.5 -95 q-97.5 -32.5 -212.5 -29.5 q-89 2 -158.5 30 q-69.5 28 -120.5 75.5 q-51 47.5 -84.5 110.5 q-33.5 63 -51 135 q-17.5 72 -20.5 150 q-3 78 7 155 l11 74 l-250 0 l-123 -711 l-122 0 l253 1456 l122 0 l-112 -643 Z" /><glyph glyph-name="uni0465" unicode="&#x465;" d="M279 601 l237 0 q18 100 60 191.5 q42 91.5 108 161.5 q66 70 154.5 110.5 q88.5 40.5 199.5 37.5 q84 -2 150.5 -32 q66.5 -30 112.5 -81 q46 -51 69 -121 q23 -70 19 -152 l-113 1 q2 58 -13 109 q-15 51 -46 89 q-31 38 -77.5 60.5 q-46.5 22.5 -107.5 24.5 q-87 3 -155 -30.5 q-68 -33.5 -117.5 -89.5 q-49.5 -56 -80.5 -129.5 q-31 -73.5 -46 -149.5 l462 0 l-18 -101 l-457 0 q-5 -48 -3.5 -97 q1.5 -49 10.5 -95 q9 -46 27.5 -87 q18.5 -41 48.5 -71.5 q30 -30.5 73 -49 q43 -18.5 101 -20.5 q61 -2 115 15.5 q54 17.5 97 50.5 q43 33 74 80.5 q31 47.5 47 106.5 l113 0 q-15 -81 -57 -147 q-42 -66 -102.5 -112.5 q-60.5 -46.5 -135.5 -71.5 q-75 -25 -157 -23 q-111 3 -185 48.5 q-74 45.5 -117.5 119 q-43.5 73.5 -58.5 165.5 q-15 92 -7 188 l-241 0 l-87 -500 l-120 0 l189 1082 l119 0 l-84 -481 Z" /><glyph glyph-name="uni0466" unicode="&#x466;" d="M874 474 l-231 0 l-83 -474 l-120 0 l82 474 l-214 0 l-248 -474 l-132 0 l771 1456 l118 0 l261 -1456 l-121 0 l-83 474 ZM363 581 l493 0 l-123 704 l-370 -704 Z" /><glyph glyph-name="uni0467" unicode="&#x467;" d="M699 347 l-166 0 l-61 -347 l-119 0 l61 347 l-167 0 l-202 -347 l-129 0 l627 1082 l104 0 l252 -1082 l-117 0 l-83 347 ZM306 449 l368 0 l-87 366 l-13 119 l-62 -130 l-206 -355 Z" /><glyph glyph-name="uni0468" unicode="&#x468;" d="M338 581 l410 0 l464 875 l118 0 l261 -1456 l-121 0 l-83 474 l-231 0 l-83 -474 l-120 0 l82 474 l-214 0 l-248 -474 l-132 0 l251 475 l-373 0 l-82 -475 l-122 0 l253 1456 l122 0 l-152 -875 ZM876 581 l493 0 l-123 704 l-370 -704 Z" /><glyph glyph-name="uni0469" unicode="&#x469;" d="M287 449 l323 0 l367 633 l104 0 l252 -1082 l-117 0 l-83 347 l-166 0 l-61 -347 l-119 0 l61 347 l-167 0 l-202 -347 l-129 0 l201 347 l-282 0 l-60 -347 l-120 0 l189 1082 l119 0 l-110 -633 ZM740 449 l368 0 l-87 366 l-13 119 l-62 -130 l-206 -355 Z" /><glyph glyph-name="uni046A" unicode="&#x46a;" d="M47 0 l63 379 q15 105 56 181 q41 76 104.5 124.5 q63.5 48.5 149 72 q85.5 23.5 188.5 23.5 l106 -1 l-301 677 l1103 0 l-536 -677 l77 -1 q96 -3 169.5 -28.5 q73.5 -25.5 121.5 -75 q48 -49.5 68 -123 q20 -73.5 10 -172.5 l-62 -379 l-123 0 l62 380 q18 147 -41.5 218 q-59.5 71 -207.5 75 l-157 2 l-13 -16 l-117 -659 l-122 0 l120 664 l-3 10 l-159 2 q-78 1 -141.5 -15.5 q-63.5 -16.5 -111 -52 q-47.5 -35.5 -77.5 -92.5 q-30 -57 -41 -137 l-63 -379 l-122 0 ZM830 779 l15 0 l442 572 l-693 -1 l236 -571 Z" /><glyph glyph-name="uni046B" unicode="&#x46b;" d="M48 0 l30 194 q14 103 53 178.5 q39 75.5 100.5 125 q61.5 49.5 144.5 73.5 q83 24 185 24 l9 0 l-226 487 l899 0 l-407 -490 q186 -5 274 -107.5 q88 -102.5 67 -289.5 l-30 -195 l-119 0 l30 196 q9 70 0.5 124 q-8.5 54 -36.5 91.5 q-28 37.5 -76.5 57.5 q-48.5 20 -120.5 23 l-67 1 l-15 -17 l-84 -476 l-119 0 l88 483 l-3 9 l-70 1 q-157 2 -245 -69.5 q-88 -71.5 -111 -228.5 l-31 -195 l-120 0 ZM689 594 l20 0 l308 385 l-495 -1 l167 -384 Z" /><glyph glyph-name="uni046C" unicode="&#x46c;" d="M354 780 l761 0 l21 0 l58 0 l0 -1 l48 0 l-301 677 l1103 0 l-536 -677 l77 -1 q96 -3 169.5 -28.5 q73.5 -25.5 121.5 -75 q48 -49.5 68 -123 q20 -73.5 10 -172.5 l-62 -379 l-123 0 l62 380 q18 147 -41.5 218 q-59.5 71 -207.5 75 l-157 2 l-13 -16 l-117 -659 l-122 0 l120 664 l-3 10 l-159 2 q-78 1 -141.5 -15.5 q-63.5 -16.5 -111 -52 q-47.5 -35.5 -77.5 -92.5 q-30 -57 -41 -137 l-63 -379 l-122 0 l63 379 q14 102 53 175.5 q39 73.5 99 123.5 l-453 0 l-118 -678 l-122 0 l253 1456 l122 0 l-118 -676 ZM1358 779 l15 0 l442 572 l-693 -1 l236 -571 Z" /><glyph glyph-name="uni046D" unicode="&#x46d;" d="M280 594 l678 0 q10 0 19.5 0.5 q9.5 0.5 20.5 0.5 l9 0 l-226 487 l899 0 l-407 -490 q186 -5 274 -107.5 q88 -102.5 67 -289.5 l-30 -195 l-119 0 l30 196 q9 70 0.5 124 q-8.5 54 -36.5 91.5 q-28 37.5 -76.5 57.5 q-48.5 20 -120.5 23 l-67 1 l-15 -17 l-84 -476 l-119 0 l88 483 l-3 9 l-116 0 q-136 -8 -213 -80 q-77 -72 -97 -217 l-31 -195 l-120 0 l30 194 q14 101 50.5 174.5 q36.5 73.5 96.5 123.5 l-400 0 l-85 -492 l-120 0 l189 1082 l119 0 l-85 -488 ZM1126 594 l20 0 l308 385 l-495 -1 l167 -384 Z" /><glyph glyph-name="uni046E" unicode="&#x46e;" d="M602 1455 q85 -2 161.5 -25.5 q76.5 -23.5 133.5 -69.5 q57 -46 87 -115.5 q30 -69.5 22 -163.5 q-6 -66 -34 -119.5 q-28 -53.5 -70.5 -94.5 q-42.5 -41 -97 -71.5 q-54.5 -30.5 -112.5 -51.5 q117 -40 172.5 -128.5 q55.5 -88.5 45.5 -211.5 q-9 -107 -60 -185 q-51 -78 -128 -129 q-77 -51 -172 -75.5 q-95 -24.5 -191 -24.5 l-67 1 q-34 -1 -67.5 -7.5 q-33.5 -6.5 -60.5 -22 q-27 -15.5 -45.5 -41.5 q-18.5 -26 -22.5 -65 q-3 -33 7.5 -60.5 q10.5 -27.5 30 -49.5 q19.5 -22 45.5 -39 q26 -17 53 -29 l-52 -84 q-39 17 -75.5 43.5 q-36.5 26.5 -63.5 60.5 q-27 34 -42 74.5 q-15 40.5 -13 86.5 q3 64 30.5 109 q27.5 45 71 73 q43.5 28 98 40.5 q54.5 12.5 111.5 12.5 l64 -1 q73 0 146 17.5 q73 17.5 133 55 q60 37.5 101 96 q41 58.5 50 139.5 q9 81 -13.5 136.5 q-22.5 55.5 -68.5 90 q-46 34.5 -109.5 49.5 q-63.5 15 -135.5 17 l-137 1 l19 103 l122 -1 q73 0 144.5 14.5 q71.5 14.5 129 48 q57.5 33.5 97 89 q39.5 55.5 48.5 137.5 q7 70 -13 120 q-20 50 -60 82.5 q-40 32.5 -95.5 48 q-55.5 15.5 -118.5 17.5 l-320 1 l18 102 l304 -1 ZM740 1719 l202 191 l106 1 l0 -13 l-269 -260 l-86 0 l-189 261 l1 13 l105 -1 l130 -192 Z" /><glyph glyph-name="uni046F" unicode="&#x46f;" d="M390 600 q53 0 112.5 7.5 q59.5 7.5 110.5 30 q51 22.5 87.5 62.5 q36.5 40 43.5 105 q6 54 -17.5 87.5 q-23.5 33.5 -62 52 q-38.5 18.5 -85.5 25.5 q-47 7 -88 8 l-292 1 l18 103 l277 -1 q64 -2 131.5 -16 q67.5 -14 122 -46.5 q54.5 -32.5 87.5 -85.5 q33 -53 27 -131 q-4 -51 -26.5 -90.5 q-22.5 -39.5 -56.5 -70.5 q-34 -31 -76 -53.5 q-42 -22.5 -85 -39.5 q41 -14 75.5 -35.5 q34.5 -21.5 59 -50.5 q24.5 -29 37 -66.5 q12.5 -37.5 9.5 -83.5 q-4 -60 -27.5 -107.5 q-23.5 -47.5 -60.5 -83 q-37 -35.5 -84.5 -60.5 q-47.5 -25 -100 -40.5 q-52.5 -15.5 -107 -23 q-54.5 -7.5 -104.5 -7.5 l-45 1 q-34 -1 -67.5 -7.5 q-33.5 -6.5 -60.5 -22.5 q-27 -16 -45 -41.5 q-18 -25.5 -22 -64.5 q-3 -33 7 -60 q10 -27 29.5 -49.5 q19.5 -22.5 45 -39 q25.5 -16.5 52.5 -28.5 l-52 -85 q-39 17 -75 43.5 q-36 26.5 -63 60.5 q-27 34 -42.5 74.5 q-15.5 40.5 -13.5 86.5 q3 65 31 109.5 q28 44.5 72 72.5 q44 28 99 40 q55 12 112 12 l41 0 q53 0 113 9.5 q60 9.5 113 34 q53 24.5 90.5 66 q37.5 41.5 45.5 105.5 q7 63 -20.5 100.5 q-27.5 37.5 -72.5 57 q-45 19.5 -99.5 25.5 q-54.5 6 -101.5 7 l-136 1 l18 103 l122 -1 ZM566 1390 l202 191 l106 1 l0 -13 l-269 -260 l-86 0 l-189 261 l1 13 l105 -1 l130 -192 Z" /><glyph glyph-name="uni0472" unicode="&#x472;" d="M1226 650 q-13 -86 -40.5 -170 q-27.5 -84 -68.5 -159 q-41 -75 -96 -138.5 q-55 -63.5 -123 -109 q-68 -45.5 -150.5 -70.5 q-82.5 -25 -178.5 -23 q-92 2 -164 30 q-72 28 -125 76 q-53 48 -88 112 q-35 64 -54 137.5 q-19 73.5 -22.5 153.5 q-3.5 80 7.5 160 l23 156 q13 86 40.5 169.5 q27.5 83.5 69 158.5 q41.5 75 96.5 139 q55 64 124 110 q69 46 151 71 q82 25 178 23 q92 -2 164 -30.5 q72 -28.5 125 -76 q53 -47.5 87.5 -112 q34.5 -64.5 53.5 -138 q19 -73.5 22 -154 q3 -80.5 -8 -160.5 l-23 -155 ZM264 774 l858 0 l6 35 q8 63 8.5 128 q0.5 65 -11 126.5 q-11.5 61.5 -35 116 q-23.5 54.5 -63 96 q-39.5 41.5 -96 66.5 q-56.5 25 -132.5 27 q-80 2 -147 -19.5 q-67 -21.5 -122 -61 q-55 -39.5 -99 -93.5 q-44 -54 -76.5 -117 q-32.5 -63 -53.5 -132.5 q-21 -69.5 -32 -138.5 l-5 -33 ZM1107 673 l-858 0 l-4 -25 q-9 -62 -8.5 -127.5 q0.5 -65.5 11.5 -127 q11 -61.5 35 -116.5 q24 -55 63.5 -96.5 q39.5 -41.5 96 -66.5 q56.5 -25 132.5 -27 q80 -2 147 19 q67 21 122.5 60 q55.5 39 98.5 93 q43 54 75.5 117 q32.5 63 53.5 133 q21 70 32 140 l3 24 Z" /><glyph glyph-name="uni0473" unicode="&#x473;" d="M77 550 q13 108 57 209 q44 101 114.5 178 q70.5 77 166.5 122.5 q96 45.5 213 42.5 q112 -3 190.5 -50.5 q78.5 -47.5 126 -123.5 q47.5 -76 64 -172 q16.5 -96 6.5 -196 l-4 -34 q-14 -108 -58 -207.5 q-44 -99.5 -114.5 -176 q-70.5 -76.5 -166 -121 q-95.5 -44.5 -212.5 -41.5 q-74 2 -133.5 24 q-59.5 22 -105 59.5 q-45.5 37.5 -77 88 q-31.5 50.5 -49.5 110 q-18 59.5 -23.5 124.5 q-5.5 65 1.5 131 l4 33 ZM467 80 q88 -3 158.5 32 q70.5 35 123.5 93 q53 58 88 133.5 q35 75.5 50 153.5 l-697 0 q-6 -72 5 -144.5 q11 -72.5 43 -131 q32 -58.5 88 -96.5 q56 -38 141 -40 ZM621 1001 q-87 2 -157 -32 q-70 -34 -122.5 -92 q-52.5 -58 -87.5 -132 q-35 -74 -51 -151 l697 0 q4 71 -7.5 142.5 q-11.5 71.5 -44.5 129 q-33 57.5 -88.5 95 q-55.5 37.5 -138.5 40.5 Z" /><glyph glyph-name="uni0474" unicode="&#x474;" d="M469 252 l9 -101 l49 106 l455 950 q25 57 54.5 106.5 q29.5 49.5 69 85.5 q39.5 36 90 57 q50.5 21 117.5 21 l32 0 l-14 -108 l-10 1 q-45 1 -79.5 -14 q-34.5 -15 -61.5 -40.5 q-27 -25.5 -48 -60 q-21 -34.5 -38 -71.5 l-579 -1184 l-116 0 l-222 1456 l128 0 l164 -1204 Z" /><glyph glyph-name="uni0475" unicode="&#x475;" d="M365 260 l11 -121 l61 131 l295 629 q17 39 39.5 76.5 q22.5 37.5 52 67 q29.5 29.5 67 46.5 q37.5 17 84.5 16 q27 0 50.5 -6 q23.5 -6 47.5 -17 l-25 -96 q-14 5 -28 9 q-14 4 -29 5 q-27 1 -49 -10 q-22 -11 -39 -29 q-17 -18 -31 -40 q-14 -22 -24 -43 l-444 -878 l-96 0 l-180 1082 l118 0 l119 -822 Z" /><glyph glyph-name="uni047A" unicode="&#x47a;" d="M840 1248 l-118 0 l61 346 l118 0 l-61 -346 ZM599 -143 l-118 0 l61 351 l119 0 l-62 -351 ZM1226 650 q-13 -86 -40.5 -170 q-27.5 -84 -68.5 -159 q-41 -75 -96 -138.5 q-55 -63.5 -123 -109 q-68 -45.5 -150.5 -70.5 q-82.5 -25 -178.5 -23 q-92 2 -164 30 q-72 28 -125 76 q-53 48 -88 112 q-35 64 -54 137.5 q-19 73.5 -22.5 153.5 q-3.5 80 7.5 160 l23 156 q13 86 40.5 169.5 q27.5 83.5 69 158.5 q41.5 75 96.5 139 q55 64 124 110 q69 46 151 71 q82 25 178 23 q92 -2 164 -30.5 q72 -28.5 125 -76 q53 -47.5 87.5 -112 q34.5 -64.5 53.5 -138 q19 -73.5 22 -154 q3 -80.5 -8 -160.5 l-23 -155 ZM1128 809 q8 63 8.5 128 q0.5 65 -11 126.5 q-11.5 61.5 -35 116 q-23.5 54.5 -63 96 q-39.5 41.5 -96 66.5 q-56.5 25 -132.5 27 q-80 2 -147 -19.5 q-67 -21.5 -122 -61 q-55 -39.5 -99 -93.5 q-44 -54 -76.5 -117 q-32.5 -63 -53.5 -132.5 q-21 -69.5 -32 -138.5 l-24 -159 q-9 -62 -8.5 -127.5 q0.5 -65.5 11.5 -127 q11 -61.5 35 -116.5 q24 -55 63.5 -96.5 q39.5 -41.5 96 -66.5 q56.5 -25 132.5 -27 q80 -2 147 19 q67 21 122.5 60 q55.5 39 98.5 93 q43 54 75.5 117 q32.5 63 53.5 133 q21 70 32 140 l24 160 Z" /><glyph glyph-name="uni047B" unicode="&#x47b;" d="M661 875 l-119 0 l59 337 l119 0 l-59 -337 ZM486 -133 l-119 0 l59 337 l120 0 l-60 -337 ZM77 550 q13 108 57 209 q44 101 114.5 178 q70.5 77 166.5 122.5 q96 45.5 213 42.5 q112 -3 190.5 -50.5 q78.5 -47.5 126 -123.5 q47.5 -76 64 -172 q16.5 -96 6.5 -196 l-4 -34 q-14 -108 -58 -207.5 q-44 -99.5 -114.5 -176 q-70.5 -76.5 -166 -121 q-95.5 -44.5 -212.5 -41.5 q-74 2 -133.5 24 q-59.5 22 -105 59.5 q-45.5 37.5 -77 88 q-31.5 50.5 -49.5 110 q-18 59.5 -23.5 124.5 q-5.5 65 1.5 131 l4 33 ZM192 516 q-8 -74 1 -150 q9 -76 40.5 -139 q31.5 -63 88.5 -103.5 q57 -40.5 145 -43.5 q93 -3 166.5 36 q73.5 39 127.5 102.5 q54 63.5 87.5 144.5 q33.5 81 44.5 164 l4 32 q9 74 0 151 q-9 77 -41 141 q-32 64 -89.5 105.5 q-57.5 41.5 -145.5 44.5 q-93 3 -167 -36.5 q-74 -39.5 -127.5 -104 q-53.5 -64.5 -86.5 -146.5 q-33 -82 -44 -164 l-4 -34 Z" /><glyph glyph-name="uni047C" unicode="&#x47c;" d="M1352 1453 q94 -3 158 -42 q64 -39 101.5 -101.5 q37.5 -62.5 49.5 -142 q12 -79.5 2 -164.5 l-93 -573 q-13 -91 -47 -174 q-34 -83 -90 -145.5 q-56 -62.5 -134 -99 q-78 -36.5 -179 -33.5 q-51 1 -99.5 15 q-48.5 14 -88.5 40 q-40 26 -70 64.5 q-30 38.5 -45 89.5 q-62 -100 -153.5 -156 q-91.5 -56 -212.5 -53 q-95 3 -159 42.5 q-64 39.5 -101.5 102.5 q-37.5 63 -49.5 143 q-12 80 -3 164 l92 573 q14 97 49 179.5 q35 82.5 92.5 142.5 q57.5 60 137 94.5 q79.5 34.5 182.5 36.5 l-12 -104 q-75 -2 -131 -31.5 q-56 -29.5 -96 -77.5 q-40 -48 -64 -110 q-24 -62 -34 -130 l-93 -574 q-6 -56 -2 -116 q4 -60 26 -110.5 q22 -50.5 64 -84 q42 -33.5 111 -36.5 q73 -3 129.5 24 q56.5 27 98 73.5 q41.5 46.5 66.5 107 q25 60.5 35 125.5 l79 471 l123 0 l-78 -471 q-7 -59 0.5 -117.5 q7.5 -58.5 32.5 -105 q25 -46.5 70 -76 q45 -29.5 114 -32.5 q74 -3 129 27.5 q55 30.5 94 80.5 q39 50 62 113.5 q23 63.5 32 126.5 l93 575 q7 58 3.5 117.5 q-3.5 59.5 -24.5 108.5 q-21 49 -63 81.5 q-42 32.5 -111 37.5 l7 104 ZM1511 1681 l-8 -85 l-29 0 q-41 1 -77.5 13 q-36.5 12 -70.5 30 q-34 18 -67 38 q-33 20 -66 37.5 q-33 17.5 -67.5 29 q-34.5 11.5 -72.5 11.5 q-69 0 -114.5 -41 q-45.5 -41 -56.5 -107 l-2 -18 l-90 0 l3 31 q6 52 27 94 q21 42 55 71 q34 29 78.5 44.5 q44.5 15.5 97.5 14.5 q40 -1 76 -13 q36 -12 70 -29.5 q34 -17.5 67 -38.5 q33 -21 67.5 -38.5 q34.5 -17.5 71 -30 q36.5 -12.5 78.5 -13.5 l30 0 ZM935 1380 q35 30 59.5 63 q24.5 33 34.5 79 l17 97 l104 -1 l-14 -101 q-6 -32 -20.5 -59.5 q-14.5 -27.5 -35.5 -50.5 q-21 -23 -46.5 -42 q-25.5 -19 -52.5 -34 l-46 49 Z" /><glyph glyph-name="uni047D" unicode="&#x47d;" d="M1176 1093 q87 -4 145 -41 q58 -37 91 -95.5 q33 -58.5 43.5 -132.5 q10.5 -74 1.5 -151 l-40 -273 q-12 -84 -43 -161.5 q-31 -77.5 -82 -136.5 q-51 -59 -122.5 -93 q-71.5 -34 -165.5 -31 q-48 1 -92 13.5 q-44 12.5 -81 36 q-37 23.5 -64.5 58.5 q-27.5 35 -41.5 82 q-57 -91 -140.5 -142 q-83.5 -51 -193.5 -48 q-88 2 -147 39.5 q-59 37.5 -93 96.5 q-34 59 -44.5 134 q-10.5 75 -1.5 152 l40 273 q12 90 44 167 q32 77 84.5 133 q52.5 56 126 88.5 q73.5 32.5 169.5 34.5 l-12 -101 q-68 -2 -119 -29.5 q-51 -27.5 -87 -72 q-36 -44.5 -57.5 -102 q-21.5 -57.5 -30.5 -118.5 l-40 -274 q-6 -50 -2.5 -105.5 q3.5 -55.5 22.5 -102.5 q19 -47 57 -78.5 q38 -31.5 101 -34.5 q66 -3 117.5 22 q51.5 25 88.5 68 q37 43 59.5 98.5 q22.5 55.5 31.5 114.5 l39 245 l118 0 l-38 -245 q-6 -54 0.5 -107.5 q6.5 -53.5 29.5 -96 q23 -42.5 64 -70 q41 -27.5 104 -29.5 q67 -2 116.5 26.5 q49.5 28.5 84 75 q34.5 46.5 54.5 104.5 q20 58 28 115 l40 275 q6 52 3.5 106.5 q-2.5 54.5 -20.5 100 q-18 45.5 -55 75.5 q-37 30 -100 35 l10 102 ZM1374 1356 l-8 -86 l-29 0 q-41 1 -77.5 13 q-36.5 12 -70.5 29.5 q-34 17.5 -67 38 q-33 20.5 -66.5 38 q-33.5 17.5 -68 29 q-34.5 11.5 -72.5 11.5 q-69 0 -114 -40.5 q-45 -40.5 -57 -106.5 l-2 -18 l-89 0 l3 30 q6 52 27 94 q21 42 55 71.5 q34 29.5 79 45 q45 15.5 98 14.5 q60 -1 111.5 -26 q51.5 -25 101 -55 q49.5 -30 102 -55 q52.5 -25 114.5 -27 l30 0 ZM787 1044 q34 29 58.5 62 q24.5 33 33.5 79 l17 97 l106 -1 l-15 -101 q-6 -32 -20.5 -59 q-14.5 -27 -35.5 -50.5 q-21 -23.5 -46.5 -42.5 q-25.5 -19 -52.5 -34 l-45 50 Z" /><glyph glyph-name="uni047E" unicode="&#x47e;" d="M710 1697 l12 81 l735 0 l-13 -81 l-321 0 l-20 -114 l-110 0 l23 114 l-306 0 ZM1748 1456 l-178 -1042 q-14 -92 -49.5 -172 q-35.5 -80 -92.5 -139.5 q-57 -59.5 -135 -92.5 q-78 -33 -177 -31 q-52 1 -100 15 q-48 14 -87 40 q-39 26 -67.5 64.5 q-28.5 38.5 -42.5 90.5 q-63 -102 -155 -158 q-92 -56 -213 -52 q-92 3 -156.5 39.5 q-64.5 36.5 -103.5 96 q-39 59.5 -52.5 137 q-13.5 77.5 -3.5 161.5 l177 1043 l124 0 l-178 -1044 q-6 -56 -0.5 -113.5 q5.5 -57.5 28 -105 q22.5 -47.5 65 -78 q42.5 -30.5 109.5 -33.5 q73 -3 129.5 24 q56.5 27 98 73.5 q41.5 46.5 66.5 107 q25 60.5 35 125.5 l178 1044 l126 0 l-177 -1044 q-6 -58 0.5 -116 q6.5 -58 30.5 -104.5 q24 -46.5 67.5 -77 q43.5 -30.5 111.5 -32.5 q72 -3 128 24.5 q56 27.5 96 74 q40 46.5 64.5 107 q24.5 60.5 33.5 124.5 l178 1044 l122 0 Z" /><glyph glyph-name="uni047F" unicode="&#x47f;" d="M582 1375 l11 81 l734 0 l-12 -81 l-322 0 l-23 -130 l-111 0 l27 131 l-304 -1 ZM1548 1082 l-119 -699 q-12 -85 -44.5 -159.5 q-32.5 -74.5 -85 -130 q-52.5 -55.5 -124.5 -86.5 q-72 -31 -164 -29 q-47 1 -90 13.5 q-43 12.5 -78.5 36 q-35.5 23.5 -62 58 q-26.5 34.5 -39.5 81.5 q-58 -91 -141 -141.5 q-83 -50.5 -193 -47.5 q-86 3 -144.5 37.5 q-58.5 34.5 -93.5 90.5 q-35 56 -47 127.5 q-12 71.5 -4 148.5 l117 700 l118 0 l-117 -701 q-6 -50 -1 -103 q5 -53 25 -96.5 q20 -43.5 58 -72 q38 -28.5 99 -30.5 q66 -3 117.5 22 q51.5 25 88 67.5 q36.5 42.5 59 98 q22.5 55.5 31.5 114.5 l119 701 l119 0 l-118 -701 q-5 -52 1 -105 q6 -53 27.5 -96 q21.5 -43 60.5 -71 q39 -28 101 -30 q65 -3 115 22.5 q50 25.5 85.5 68.5 q35.5 43 57 98.5 q21.5 55.5 29.5 112.5 l118 701 l120 0 Z" /><glyph glyph-name="uni0480" unicode="&#x480;" d="M564 -365 l-123 0 l64 347 q-82 11 -144 45 q-62 34 -106 85 q-44 51 -71.5 115.5 q-27.5 64.5 -41.5 135.5 q-14 71 -15 145 q-1 74 9 144 l25 161 q13 83 39.5 165 q26.5 82 67 156.5 q40.5 74.5 94 138 q53.5 63.5 121 109.5 q67.5 46 147.5 71.5 q80 25.5 173 23.5 q107 -2 189.5 -37.5 q82.5 -35.5 138 -98 q55.5 -62.5 81 -149 q25.5 -86.5 18.5 -191.5 l-122 0 q4 79 -12.5 146.5 q-16.5 67.5 -54.5 117 q-38 49.5 -98.5 78 q-60.5 28.5 -144.5 30.5 q-76 2 -140.5 -20.5 q-64.5 -22.5 -118.5 -62.5 q-54 -40 -96.5 -94.5 q-42.5 -54.5 -74 -117 q-31.5 -62.5 -53 -129.5 q-21.5 -67 -31.5 -133 l-25 -165 q-8 -56 -9 -119 q-1 -63 8 -125.5 q9 -62.5 29.5 -119.5 q20.5 -57 56 -101 q35.5 -44 87.5 -71.5 q52 -27.5 124 -30.5 l87 -1 l-78 -448 Z" /><glyph glyph-name="uni0481" unicode="&#x481;" d="M462 -366 l-119 0 l65 349 q-100 15 -164.5 67 q-64.5 52 -100.5 126.5 q-36 74.5 -46.5 163.5 q-10.5 89 -1.5 177 l5 43 q13 104 54.5 203 q41.5 99 109 175.5 q67.5 76.5 159.5 121.5 q92 45 207 42 q83 -2 149 -32.5 q66 -30.5 110.5 -82 q44.5 -51.5 65.5 -121.5 q21 -70 14 -151 l-113 0 q5 58 -7.5 109 q-12.5 51 -42 89.5 q-29.5 38.5 -75.5 62 q-46 23.5 -107 25.5 q-61 2 -112.5 -15 q-51.5 -17 -94.5 -48.5 q-43 -31.5 -76.5 -74.5 q-33.5 -43 -58.5 -92.5 q-25 -49.5 -41 -103.5 q-16 -54 -23 -107 l-6 -42 q-5 -47 -5 -97 q0 -50 8.5 -97.5 q8.5 -47.5 26.5 -90.5 q18 -43 47.5 -76 q29.5 -33 71.5 -53.5 q42 -20.5 100 -22.5 l75 -1 l-74 -446 Z" /><glyph glyph-name="uni0482" unicode="&#x482;" d="M532 427 l251 -172 l-65 -89 l-253 169 l-239 -335 l-141 0 l291 403 l-251 171 l65 88 l254 -170 l286 399 l-253 171 l67 90 l252 -170 l261 360 l137 0 l-311 -427 l256 -171 l-70 -88 l-250 169 l-287 -398 Z" /><glyph glyph-name="uni0483" unicode="&#x483;" d="M-596 1339 l-23 -123 l-111 0 l36 202 l494 0 l19 108 l110 0 l-33 -187 l-492 0 Z" /><glyph glyph-name="uni0484" unicode="&#x484;" d="M-710 1394 q44 1 83.5 13.5 q39.5 12.5 77.5 30.5 q38 18 74.5 39 q36.5 21 74 38.5 q37.5 17.5 76 29 q38.5 11.5 81.5 11.5 q49 -1 88.5 -17 q39.5 -16 66 -45.5 q26.5 -29.5 39 -70 q12.5 -40.5 8.5 -89.5 l-3 -31 l-91 0 l2 19 q6 61 -22 101 q-28 40 -94 42 q-40 1 -78 -9.5 q-38 -10.5 -75 -28 q-37 -17.5 -73.5 -37.5 q-36.5 -20 -74.5 -38 q-38 -18 -78 -30 q-40 -12 -83 -13 l-35 0 l10 85 l26 0 Z" /><glyph glyph-name="uni0485" unicode="&#x485;" d="M-477 1506 l23 127 l137 0 l-26 -147 l40 -116 l-59 -44 l-115 180 Z" /><glyph glyph-name="uni0486" unicode="&#x486;" d="M-397 1326 l-53 48 l83 126 l22 133 l137 0 l-21 -133 l-168 -174 Z" /><glyph glyph-name="uni0488" unicode="&#x488;" d="M-8 1268 q6 43 23.5 78 q17.5 35 46 59.5 q28.5 24.5 66 37.5 q37.5 13 82.5 13 q88 -2 139 -52.5 q51 -50.5 49 -137.5 l-109 0 q1 21 -2 39.5 q-3 18.5 -11.5 32.5 q-8.5 14 -24.5 22 q-16 8 -40 8 q-47 0 -72 -29.5 q-25 -29.5 -36 -70.5 l-111 0 ZM516 991 q6 43 24 78 q18 35 46.5 59.5 q28.5 24.5 66 37.5 q37.5 13 82.5 13 q88 -2 140 -52 q52 -50 49 -138 l-110 0 q1 21 -2 39.5 q-3 18.5 -11.5 32.5 q-8.5 14 -24.5 22 q-16 8 -40 8 q-47 0 -72 -29.5 q-25 -29.5 -36 -70.5 l-112 0 ZM612 487 q6 44 23.5 79 q17.5 35 46 59.5 q28.5 24.5 66 37.5 q37.5 13 82.5 12 q88 -1 139 -51.5 q51 -50.5 49 -137.5 l-110 0 q1 21 -1.5 39.5 q-2.5 18.5 -11.5 32.5 q-9 14 -24.5 22 q-15.5 8 -39.5 8 q-47 0 -72.5 -29.5 q-25.5 -29.5 -36.5 -70.5 l-110 -1 ZM331 -32 q6 44 23.5 79 q17.5 35 46 59.5 q28.5 24.5 66 37.5 q37.5 13 82.5 12 q88 -1 139 -51.5 q51 -50.5 49 -137.5 l-110 0 q1 21 -1.5 39.5 q-2.5 18.5 -11.5 32.5 q-9 14 -24.5 22 q-15.5 8 -39.5 8 q-47 0 -72.5 -29.5 q-25.5 -29.5 -36.5 -70.5 l-110 -1 ZM-278 -315 q6 43 24 78 q18 35 46.5 59.5 q28.5 24.5 66 37.5 q37.5 13 82.5 13 q88 -2 139 -52.5 q51 -50.5 49 -137.5 l-110 0 q1 21 -2 39.5 q-3 18.5 -11.5 32.5 q-8.5 14 -24 22 q-15.5 8 -39.5 8 q-47 0 -72 -29.5 q-25 -29.5 -36 -70.5 l-112 0 ZM-612 991 q6 44 24 79 q18 35 46.5 59.5 q28.5 24.5 66.5 37 q38 12.5 83 12.5 q88 -2 139 -52.5 q51 -50.5 49 -137.5 l-109 0 q1 21 -2 39.5 q-3 18.5 -11.5 32.5 q-8.5 14 -24.5 22 q-16 8 -40 8 q-47 0 -72.5 -29.5 q-25.5 -29.5 -36.5 -70.5 l-112 0 ZM-868 487 q6 44 23.5 79 q17.5 35 46 59.5 q28.5 24.5 66 37.5 q37.5 13 82.5 12 q88 -1 139 -51.5 q51 -50.5 49 -137.5 l-110 0 q1 21 -2 39.5 q-3 18.5 -11.5 32.5 q-8.5 14 -24.5 22 q-16 8 -40 8 q-24 0 -41.5 -8 q-17.5 -8 -30.5 -21.5 q-13 -13.5 -22 -31.5 q-9 -18 -15 -39 l-109 -1 ZM-797 -32 q6 44 23.5 79 q17.5 35 46 59.5 q28.5 24.5 66 37.5 q37.5 13 82.5 12 q88 -1 139.5 -51 q51.5 -50 49.5 -138 l-111 0 q1 21 -2 39.5 q-3 18.5 -11.5 32.5 q-8.5 14 -24 22 q-15.5 8 -39.5 8 q-24 0 -41.5 -8 q-17.5 -8 -30.5 -21.5 q-13 -13.5 -22 -31.5 q-9 -18 -15 -39 l-110 -1 Z" /><glyph glyph-name="uni0489" unicode="&#x489;" d="M68 -59 l12 -17 l-174 -337 l-99 0 l127 352 l134 2 ZM91 1125 l-11 15 l172 338 l100 0 l-128 -351 l-133 -2 ZM656 632 l12 10 l309 -126 l-17 -94 l-323 70 l19 140 ZM-499 433 l-13 -11 l-309 126 l17 94 l323 -70 l-18 -139 ZM489 1002 l4 16 l335 154 l60 -74 l-313 -195 l-86 99 ZM-340 21 l-4 -17 l-334 -154 l-60 75 l313 195 l85 -99 ZM-327 860 l-16 2 l-93 332 l72 65 l146 -303 l-109 -96 ZM473 161 l19 -2 l92 -331 l-73 -67 l-145 303 l107 97 Z" /><glyph glyph-name="uni048D" unicode="&#x48d;" d="M727 1354 l-315 0 l-113 -647 l291 -1 q76 -2 140 -26.5 q64 -24.5 108.5 -68.5 q44.5 -44 67 -107 q22.5 -63 15.5 -142 q-7 -88 -45 -156 q-38 -68 -97 -114 q-59 -46 -135.5 -69.5 q-76.5 -23.5 -160.5 -22.5 l-425 0 l235 1354 l-192 0 l18 102 l191 0 l32 179 l119 0 l-32 -179 l316 0 l-18 -102 ZM282 605 l-88 -504 l293 -1 q61 1 115 18.5 q54 17.5 96 50.5 q42 33 69.5 81.5 q27.5 48.5 34.5 111.5 q6 54 -6.5 98 q-12.5 44 -41 75 q-28.5 31 -71 49 q-42.5 18 -96.5 20 l-305 1 Z" /><glyph glyph-name="uni048E" unicode="&#x48e;" d="M1120 552 l-80 -63 l-263 385 l80 63 l263 -385 ZM294 593 l-103 -593 l-122 0 l253 1456 l474 -1 q97 -3 176.5 -32.5 q79.5 -29.5 134 -83.5 q54.5 -54 81 -132.5 q26.5 -78.5 17.5 -178.5 q-11 -111 -57.5 -193 q-46.5 -82 -119 -136 q-72.5 -54 -167 -80.5 q-94.5 -26.5 -199.5 -26.5 l-368 1 ZM312 697 l355 -1 q79 0 150.5 20.5 q71.5 20.5 127 61.5 q55.5 41 92 103.5 q36.5 62.5 46.5 145.5 q8 74 -8.5 133 q-16.5 59 -55 100.5 q-38.5 41.5 -96 64.5 q-57.5 23 -130.5 25 l-367 1 l-114 -654 Z" /><glyph glyph-name="uni048F" unicode="&#x48f;" d="M873 -31 l-82 -62 l-224 367 l82 61 l224 -366 ZM984 537 q-9 -66 -26.5 -133.5 q-17.5 -67.5 -46 -130 q-28.5 -62.5 -67.5 -117 q-39 -54.5 -90 -94.5 q-51 -40 -114 -62.5 q-63 -22.5 -140 -20.5 q-93 2 -175.5 39.5 q-82.5 37.5 -133.5 117.5 l-100 -552 l-118 0 l260 1498 l110 0 l-28 -153 q67 85 155.5 130.5 q88.5 45.5 197.5 42.5 q73 -2 127 -26.5 q54 -24.5 92 -65 q38 -40.5 60.5 -94 q22.5 -53.5 33.5 -113.5 q11 -60 12 -123 q1 -63 -6 -122 l-3 -21 ZM868 558 q5 45 6 94.5 q1 49.5 -5.5 98 q-6.5 48.5 -22 92.5 q-15.5 44 -43 78 q-27.5 34 -69 55 q-41.5 21 -99.5 23 q-57 1 -106 -13.5 q-49 -14.5 -91 -42 q-42 -27.5 -76.5 -66 q-34.5 -38.5 -61.5 -85.5 l-89 -521 q32 -92 101.5 -140 q69.5 -48 166.5 -51 q62 -2 113 16.5 q51 18.5 91.5 52 q40.5 33.5 71.5 78.5 q31 45 53 96.5 q22 51.5 36 106 q14 54.5 21 107.5 l3 21 Z" /><glyph glyph-name="uni0490" unicode="&#x490;" d="M1157 1354 l-2 0 l0 -3 l-732 0 l-235 -1351 l-122 0 l253 1456 l738 0 l62 354 l118 0 l-80 -456 Z" /><glyph glyph-name="uni0491" unicode="&#x491;" d="M871 979 l-533 0 l-170 -979 l-119 0 l188 1082 l534 0 l60 345 l119 0 l-79 -448 Z" /><glyph glyph-name="uni0494" unicode="&#x494;" d="M1163 1351 l-732 0 l-91 -524 l194 -1 q127 -2 222 -43.5 q95 -41.5 155 -115.5 q60 -74 84.5 -177 q24.5 -103 10.5 -227 q-12 -111 -53 -209.5 q-41 -98.5 -108.5 -173 q-67.5 -74.5 -160 -119.5 q-92.5 -45 -209.5 -49 l7 100 q93 2 164 41.5 q71 39.5 121 102.5 q50 63 79.5 143.5 q29.5 80.5 39.5 164.5 q12 97 -3.5 180 q-15.5 83 -59 143.5 q-43.5 60.5 -116.5 95.5 q-73 35 -176 37 l-210 1 l-125 -721 l-122 0 l253 1456 l854 0 l-18 -105 Z" /><glyph glyph-name="uni0495" unicode="&#x495;" d="M868 979 l-530 0 l-62 -355 l130 0 q102 -2 186.5 -33 q84.5 -31 142 -88.5 q57.5 -57.5 85 -141 q27.5 -83.5 17.5 -189.5 q-9 -88 -47 -162 q-38 -74 -97 -130.5 q-59 -56.5 -134 -95 q-75 -38.5 -158 -56.5 l-21 95 q67 16 124.5 46.5 q57.5 30.5 101.5 74.5 q44 44 73 101.5 q29 57.5 38 127.5 q10 81 -8 144.5 q-18 63.5 -60 107.5 q-42 44 -105 67.5 q-63 23.5 -141 25.5 l-145 0 l-90 -518 l-119 0 l188 1082 l650 0 l-19 -103 Z" /><glyph glyph-name="uni049C" unicode="&#x49c;" d="M1293 1455 l-547 -710 l346 -745 l-145 0 l-307 688 l-90 0 l-50 -285 l-102 0 l50 285 l-137 0 l-120 -688 l-123 0 l253 1456 l123 0 l-115 -662 l137 0 l49 282 l102 0 l-50 -282 l88 0 l485 662 l153 -1 Z" /><glyph glyph-name="uni049D" unicode="&#x49d;" d="M1095 1082 l-432 -528 l285 -554 l-147 0 l-238 496 l-74 0 l-42 -238 l-102 0 l43 238 l-129 0 l-87 -496 l-120 0 l188 1082 l120 0 l-84 -480 l129 0 l43 241 l102 0 l-43 -241 l67 0 l364 480 l157 0 Z" /><glyph glyph-name="uni04A0" unicode="&#x4a0;" d="M884 683 l-196 0 l-119 -683 l-122 0 l235 1354 l-474 0 l18 102 l596 0 l-116 -668 l180 0 l663 668 l162 0 l-710 -722 l491 -734 l-141 0 l-467 683 Z" /><glyph glyph-name="uni04A1" unicode="&#x4a1;" d="M701 496 l-163 0 l-86 -496 l-120 0 l170 980 l-388 0 l18 102 l508 0 l-84 -480 l152 0 l469 480 l158 0 l-528 -531 l378 -551 l-145 0 l-339 496 Z" /><glyph glyph-name="uni04A4" unicode="&#x4a4;" d="M2057 1354 l-702 0 l-236 -1354 l-123 0 l122 698 l-804 0 l-122 -698 l-122 0 l253 1456 l122 0 l-114 -654 l804 0 l114 654 l826 0 l-18 -102 Z" /><glyph glyph-name="uni04A5" unicode="&#x4a5;" d="M1435 979 l-415 0 l-170 -979 l-120 0 l87 496 l-563 0 l-86 -496 l-119 0 l188 1082 l119 0 l-85 -485 l563 0 l85 485 l534 0 l-18 -103 Z" /><glyph glyph-name="uni04A6" unicode="&#x4a6;" d="M1251 834 l155 0 q127 -2 222 -43.5 q95 -41.5 155 -115.5 q60 -74 84.5 -177 q24.5 -103 10.5 -227 q-12 -111 -53 -209.5 q-41 -98.5 -108.5 -173 q-67.5 -74.5 -160 -119.5 q-92.5 -45 -209.5 -49 l7 100 q93 2 164 41.5 q71 39.5 121 102.5 q50 63 79.5 143.5 q29.5 80.5 39.5 164.5 q12 97 -3.5 180 q-15.5 83 -59 143.5 q-43.5 60.5 -116.5 95.5 q-73 35 -176 37 l-170 0 l-126 -728 l-123 0 l235 1351 l-796 0 l-235 -1351 l-122 0 l253 1456 l1040 0 l-108 -622 Z" /><glyph glyph-name="uni04A7" unicode="&#x4a7;" d="M958 624 l152 0 q102 -2 187.5 -32.5 q85.5 -30.5 145 -87.5 q59.5 -57 88.5 -140.5 q29 -83.5 19 -191.5 q-9 -87 -45.5 -160 q-36.5 -73 -93.5 -130 q-57 -57 -130.5 -96.5 q-73.5 -39.5 -155.5 -58.5 l-28 98 q66 15 123 45.5 q57 30.5 100.5 75 q43.5 44.5 71.5 101.5 q28 57 37 126 q10 82 -9 146 q-19 64 -62.5 107.5 q-43.5 43.5 -107.5 66.5 q-64 23 -143 25 l-167 0 l-90 -518 l-120 0 l171 979 l-563 0 l-170 -979 l-119 0 l188 1082 l801 0 l-80 -458 Z" /><glyph glyph-name="uni04A8" unicode="&#x4a8;" d="M1293 -26 q-93 2 -182.5 18 q-89.5 16 -175.5 52 q-75 -32 -154 -48.5 q-79 -16.5 -162 -15.5 q-95 2 -171.5 30.5 q-76.5 28.5 -134.5 77.5 q-58 49 -98 115 q-40 66 -62 143 q-22 77 -27 161 q-5 84 7 169 l32 207 q12 73 34 145.5 q22 72.5 55.5 138 q33.5 65.5 78.5 122 q45 56.5 102 98 q57 41.5 126 66 q69 24.5 151 26.5 l-11 -108 q-95 -3 -166 -48.5 q-71 -45.5 -121.5 -115.5 q-50.5 -70 -81 -155 q-30.5 -85 -43.5 -167 l-33 -210 q-9 -66 -7.5 -134.5 q1.5 -68.5 16 -133.5 q14.5 -65 43 -122.5 q28.5 -57.5 72.5 -100.5 q44 -43 104.5 -69 q60.5 -26 139.5 -27 q49 -1 96 6.5 q47 7.5 94 20.5 q-121 109 -169 255 q-48 146 -26 307 l40 255 q9 60 27 124 q18 64 46 124.5 q28 60.5 65.5 113.5 q37.5 53 86.5 92.5 q49 39.5 109 61.5 q60 22 132 20 q69 -2 120.5 -27 q51.5 -25 88 -66.5 q36.5 -41.5 59.5 -95.5 q23 -54 34 -113 q11 -59 12 -120 q1 -61 -6 -116 l-41 -264 q-28 -172 -111.5 -313 q-83.5 -141 -228.5 -241 q61 -17 123 -24 q62 -7 125 -8 l-7 -106 ZM742 674 q-11 -75 -5 -148.5 q6 -73.5 30.5 -139.5 q24.5 -66 69 -122.5 q44.5 -56.5 110.5 -98.5 q69 40 123 94.5 q54 54.5 94 119 q40 64.5 66 137.5 q26 73 39 150 l43 268 q5 37 7 83 q2 46 -2.5 93 q-4.5 47 -16.5 91.5 q-12 44.5 -35 79.5 q-23 35 -59 57 q-36 22 -88 24 q-54 2 -98.5 -17 q-44.5 -19 -79.5 -52 q-35 -33 -61.5 -77 q-26.5 -44 -45.5 -92.5 q-19 -48.5 -31 -97.5 q-12 -49 -19 -92 l-41 -260 Z" /><glyph glyph-name="uni04A9" unicode="&#x4a9;" d="M1019 -13 q-73 2 -143 14.5 q-70 12.5 -138 40.5 q-60 -30 -123 -46.5 q-63 -16.5 -130 -15.5 q-76 1 -136 26 q-60 25 -104.5 66.5 q-44.5 41.5 -74.5 97 q-30 55.5 -47 118 q-17 62.5 -21 130 q-4 67.5 4 132.5 l10 77 q12 86 42 170.5 q30 84.5 80.5 151.5 q50.5 67 123 109.5 q72.5 42.5 169.5 45.5 l-13 -105 q-68 -3 -117 -40 q-49 -37 -83 -91 q-34 -54 -54 -118 q-20 -64 -28 -121 l-11 -80 q-6 -48 -5.5 -101 q0.5 -53 9.5 -104 q9 -51 28 -97.5 q19 -46.5 50.5 -82 q31.5 -35.5 76 -57 q44.5 -21.5 105.5 -22.5 q36 0 70.5 6.5 q34.5 6.5 68.5 17.5 q-91 91 -124.5 207.5 q-33.5 116.5 -18.5 242.5 l15 106 q6 47 19 98 q13 51 33 100.5 q20 49.5 48 93.5 q28 44 65.5 77.5 q37.5 33.5 84 52 q46.5 18.5 104.5 16.5 q56 -2 96 -25 q40 -23 67 -60 q27 -37 43 -84.5 q16 -47.5 23.5 -97.5 q7.5 -50 7.5 -100 q0 -50 -5 -92 l-14 -104 q-19 -126 -76.5 -232.5 q-57.5 -106.5 -154.5 -190.5 q46 -14 93 -19 q47 -5 95 -6 l-10 -105 ZM604 556 q-7 -57 -2.5 -112.5 q4.5 -55.5 22.5 -105.5 q18 -50 50 -94 q32 -44 81 -78 q86 71 133.5 168 q47.5 97 63.5 206 l15 108 q3 24 5 58.5 q2 34.5 0.5 73 q-1.5 38.5 -8 76.5 q-6.5 38 -21 69.5 q-14.5 31.5 -39 51.5 q-24.5 20 -60.5 22 q-40 2 -71 -13.5 q-31 -15.5 -55 -42.5 q-24 -27 -41 -62.5 q-17 -35.5 -29 -73 q-12 -37.5 -19 -74.5 q-7 -37 -11 -66 l-14 -111 Z" /><glyph glyph-name="uni04B4" unicode="&#x4b4;" d="M549 1354 l-386 0 l18 101 l386 0 l0 1 l123 0 l0 -1 l415 0 l-18 -101 l-415 0 l-216 -1250 l796 0 l235 1352 l122 0 l-234 -1350 l138 0 l-88 -457 l-113 0 l61 351 l-1059 0 l235 1354 Z" /><glyph glyph-name="uni04B5" unicode="&#x4b5;" d="M384 981 l-291 0 l18 101 l689 0 l-18 -101 l-279 0 l-152 -880 l562 0 l171 981 l119 0 l-170 -981 l107 0 l-83 -422 l-110 0 l57 321 l-790 0 l170 981 Z" /><glyph glyph-name="uni04B8" unicode="&#x4b8;" d="M687 361 l-101 0 l120 691 l102 0 l-121 -691 ZM1292 1456 l-253 -1456 l-123 0 l119 662 q-94 -28 -190.5 -43.5 q-96.5 -15.5 -195.5 -13.5 q-107 2 -188.5 31.5 q-81.5 29.5 -133 86 q-51.5 56.5 -72.5 139.5 q-21 83 -8 192 l67 402 l123 0 l-66 -403 q-19 -162 49.5 -249.5 q68.5 -87.5 234.5 -90.5 q100 -2 197.5 13.5 q97.5 15.5 194.5 40.5 l122 689 l123 0 Z" /><glyph glyph-name="uni04B9" unicode="&#x4b9;" d="M563 236 l-103 0 l98 561 l103 0 l-98 -561 ZM837 0 l-120 0 l84 455 q-67 -23 -136.5 -38 q-69.5 -15 -141.5 -15 q-97 1 -165.5 29 q-68.5 28 -110 80.5 q-41.5 52.5 -56.5 127.5 q-15 75 -4 169 l43 274 l119 0 l-44 -275 q-8 -68 -1 -123 q7 -55 32.5 -94.5 q25.5 -39.5 73 -61 q47.5 -21.5 120.5 -21.5 q72 -1 142.5 13 q70.5 14 139.5 36 l94 526 l119 0 l-188 -1082 Z" /><glyph glyph-name="uni04BA" unicode="&#x4ba;" d="M262 0 l253 1456 l123 0 l-119 -662 q94 28 190.5 43.5 q96.5 15.5 195.5 13.5 q107 -2 188.5 -31.5 q81.5 -29.5 133 -86 q51.5 -56.5 72.5 -139.5 q21 -83 8 -192 l-67 -402 l-123 0 l66 403 q19 162 -49.5 249.5 q-68.5 87.5 -234.5 90.5 q-100 2 -197.5 -13.5 q-97.5 -15.5 -194.5 -40.5 l-122 -689 l-123 0 Z" /><glyph glyph-name="uni04BC" unicode="&#x4bc;" d="M817 -20 q-131 1 -229.5 48 q-98.5 47 -161 128 q-62.5 81 -87 190 q-24.5 109 -6.5 234 l27 155 q-68 11 -116.5 41 q-48.5 30 -78.5 75 q-30 45 -41.5 102.5 q-11.5 57.5 -5.5 123.5 l103 0 q-5 -46 -0.5 -86 q4.5 -40 22 -72 q17.5 -32 48.5 -54.5 q31 -22.5 79 -33.5 l5 31 q21 117 72 228.5 q51 111.5 130 198 q79 86.5 184.5 138 q105.5 51.5 236.5 48.5 q133 -3 222 -59 q89 -56 139 -146 q50 -90 64.5 -203 q14.5 -113 -1.5 -229 l-17 -108 l-926 0 l-24 -151 q-14 -100 1 -189 q15 -89 59.5 -156 q44.5 -67 120.5 -107.5 q76 -40.5 185 -42.5 q109 -2 208.5 29 q99.5 31 190.5 89 l29 -94 q-45 -37 -96.5 -62 q-51.5 -25 -107 -40 q-55.5 -15 -113.5 -21 q-58 -6 -115 -5 ZM491 826 l809 0 l7 44 q12 88 3 176 q-9 88 -45 159 q-36 71 -103 116 q-67 45 -170 48 q-107 3 -191 -41 q-84 -44 -145.5 -116.5 q-61.5 -72.5 -101 -165 q-39.5 -92.5 -56.5 -185.5 l-7 -35 Z" /><glyph glyph-name="uni04BD" unicode="&#x4bd;" d="M584 -20 q-109 2 -187 48 q-78 46 -125.5 120 q-47.5 74 -66 167.5 q-18.5 93.5 -9.5 191.5 l5 44 q0 3 0.5 5.5 q0.5 2.5 0.5 5.5 q-91 29 -133 105 q-42 76 -33 187 l99 0 q-8 -75 12.5 -124 q20.5 -49 74.5 -72 q24 88 70 169.5 q46 81.5 111 143.5 q65 62 148 98 q83 36 181 33 q104 -3 174.5 -46.5 q70.5 -43.5 111 -113 q40.5 -69.5 54 -157.5 q13.5 -88 3.5 -179 l-8 -73 l-749 0 l-5 -24 q-11 -73 0 -148 q11 -75 45 -136 q34 -61 92.5 -100.5 q58.5 -39.5 142.5 -42.5 q48 -2 91.5 8 q43.5 10 82.5 29 q39 19 74.5 46.5 q35.5 27.5 68.5 60.5 l70 -57 q-74 -94 -175 -142.5 q-101 -48.5 -221 -46.5 ZM726 1001 q-80 3 -144 -28.5 q-64 -31.5 -112.5 -84 q-48.5 -52.5 -83 -119 q-34.5 -66.5 -55.5 -134.5 l629 -1 l2 15 q9 62 -0.5 124 q-9.5 62 -38.5 111.5 q-29 49.5 -78 81.5 q-49 32 -119 35 Z" /><glyph glyph-name="uni04C3" unicode="&#x4c3;" d="M191 0 l-123 0 l253 1456 l123 0 l-114 -655 l163 0 l643 655 l156 0 l-651 -658 q124 -4 216 -47 q92 -43 149.5 -117.5 q57.5 -74.5 80 -176 q22.5 -101.5 9.5 -221.5 q-12 -112 -54 -211 q-42 -99 -110.5 -174 q-68.5 -75 -162.5 -119 q-94 -44 -212 -47 l11 101 q93 2 164.5 41 q71.5 39 121.5 101.5 q50 62.5 79.5 142.5 q29.5 80 39.5 165 q11 97 -4 179 q-15 82 -58.5 142 q-43.5 60 -115.5 95 q-72 35 -174 38 l-309 1 l-121 -691 Z" /><glyph glyph-name="uni04C4" unicode="&#x4c4;" d="M543 596 q88 -12 157.5 -47 q69.5 -35 115 -91 q45.5 -56 66 -130.5 q20.5 -74.5 11.5 -165.5 q-9 -88 -47 -160.5 q-38 -72.5 -97 -127.5 q-59 -55 -133.5 -92 q-74.5 -37 -156.5 -54 l-21 95 q65 16 122 45 q57 29 101.5 71.5 q44.5 42.5 73.5 98.5 q29 56 38 125 q11 83 -9.5 144.5 q-20.5 61.5 -64.5 102.5 q-44 41 -108.5 62 q-64.5 21 -142.5 23 l-190 1 l-86 -496 l-120 0 l188 1082 l120 0 l-84 -480 l123 0 l498 480 l158 0 l-512 -486 Z" /><glyph glyph-name="uni04C7" unicode="&#x4c7;" d="M450 1456 l-119 -683 l796 0 l119 683 l122 0 l-264 -1542 q-10 -74 -36 -138.5 q-26 -64.5 -69 -113 q-43 -48.5 -104 -76 q-61 -27.5 -141 -25.5 q-31 1 -60 6.5 q-29 5.5 -58 14.5 l25 101 q23 -8 48 -13.5 q25 -5.5 50 -5.5 q53 -1 92 20.5 q39 21.5 66 57 q27 35.5 42.5 80.5 q15.5 45 22.5 91 l127 755 l-796 0 l-116 -668 l-122 0 l253 1456 l122 0 Z" /><glyph glyph-name="uni04C8" unicode="&#x4c8;" d="M355 1082 l-84 -485 l562 0 l85 485 l119 0 l-199 -1171 q-10 -73 -35.5 -137.5 q-25.5 -64.5 -68 -112.5 q-42.5 -48 -103 -75.5 q-60.5 -27.5 -139.5 -26.5 q-30 1 -58 6.5 q-28 5.5 -57 13.5 l23 101 q23 -8 47 -13 q24 -5 48 -6 q53 -1 92 20.5 q39 21.5 66 57.5 q27 36 42.5 81 q15.5 45 22.5 91 l98 585 l-562 0 l-87 -496 l-119 0 l188 1082 l119 0 Z" /><glyph glyph-name="uni04D8" unicode="&#x4d8;" d="M806 1475 q145 -2 248 -57 q103 -55 165.5 -147 q62.5 -92 84.5 -212.5 q22 -120.5 4 -253.5 l-20 -134 q-13 -86 -42.5 -171 q-29.5 -85 -73 -162.5 q-43.5 -77.5 -101.5 -143.5 q-58 -66 -129.5 -114.5 q-71.5 -48.5 -155.5 -75 q-84 -26.5 -180 -24.5 q-138 2 -237 53.5 q-99 51.5 -159.5 137.5 q-60.5 86 -82 200.5 q-21.5 114.5 -3.5 242.5 l19 124 l1029 0 l13 68 q17 107 5 207.5 q-12 100.5 -58 179 q-46 78.5 -127 126.5 q-81 48 -202 50 q-115 2 -219 -30 q-104 -32 -202 -89 l-29 93 q48 37 102.5 62.5 q54.5 25.5 112.5 41.5 q58 16 118 22.5 q60 6.5 120 5.5 ZM612 84 q78 -2 145 19.5 q67 21.5 122.5 61 q55.5 39.5 100.5 92.5 q45 53 80 115.5 q35 62.5 60.5 130 q25.5 67.5 41.5 134.5 l-910 0 l-9 -54 q-16 -100 -1 -189.5 q15 -89.5 61.5 -157.5 q46.5 -68 123.5 -108.5 q77 -40.5 185 -43.5 Z" /><glyph glyph-name="uni04E0" unicode="&#x4e0;" d="M973 1351 l-704 0 l19 105 l849 0 l-16 -101 l-521 -518 q97 -4 171 -36 q74 -32 121.5 -88.5 q47.5 -56.5 68 -134.5 q20.5 -78 11.5 -175 q-9 -101 -53.5 -181 q-44.5 -80 -113.5 -135 q-69 -55 -158 -83.5 q-89 -28.5 -186 -26.5 q-93 2 -168 34.5 q-75 32.5 -126 88.5 q-51 56 -75 133.5 q-24 77.5 -16 170.5 l122 0 q-6 -67 9 -125 q15 -58 50 -101 q35 -43 88.5 -68.5 q53.5 -25.5 123.5 -26.5 q73 -2 139 19 q66 21 117 62 q51 41 84.5 100.5 q33.5 59.5 41.5 134.5 q8 77 -4 139 q-12 62 -46 106.5 q-34 44.5 -90.5 69 q-56.5 24.5 -135.5 26.5 l-126 1 l19 107 l505 503 Z" /><glyph glyph-name="uni04E1" unicode="&#x4e1;" d="M901 979 l-696 0 l18 103 l846 0 l-15 -98 l-519 -526 q94 -6 166.5 -38.5 q72.5 -32.5 120.5 -87.5 q48 -55 70 -132 q22 -77 13 -171 q-9 -100 -53.5 -179.5 q-44.5 -79.5 -113.5 -134.5 q-69 -55 -157.5 -83.5 q-88.5 -28.5 -185.5 -26.5 q-92 2 -166.5 34 q-74.5 32 -125.5 88 q-51 56 -75.5 133 q-24.5 77 -16.5 169 l119 0 q-6 -67 9.5 -125 q15.5 -58 51 -101.5 q35.5 -43.5 89.5 -69 q54 -25.5 123 -26.5 q74 -2 140 19 q66 21 117.5 62.5 q51.5 41.5 85 101 q33.5 59.5 41.5 134.5 q17 159 -58 247.5 q-75 88.5 -235 92.5 l-111 1 l19 109 l499 505 Z" /><glyph glyph-name="uni0500" unicode="&#x500;" d="M930 844 l107 612 l123 0 l-253 -1456 l-462 1 q-94 3 -172 31 q-78 28 -133 80.5 q-55 52.5 -81.5 128.5 q-26.5 76 -17.5 175 q10 107 57 187.5 q47 80.5 119.5 134 q72.5 53.5 164.5 80.5 q92 27 193 27 l355 -1 ZM802 104 l111 636 l-341 1 q-76 0 -145.5 -20.5 q-69.5 -20.5 -124 -61 q-54.5 -40.5 -91 -101 q-36.5 -60.5 -46.5 -139.5 q-9 -72 8 -129 q17 -57 54.5 -97 q37.5 -40 93.5 -62.5 q56 -22.5 126 -25.5 l355 -1 Z" /><glyph glyph-name="uni0502" unicode="&#x502;" d="M446 1 q-93 4 -171.5 32 q-78.5 28 -133 80.5 q-54.5 52.5 -81 128 q-26.5 75.5 -17.5 174.5 q10 107 56.5 187.5 q46.5 80.5 119 134 q72.5 53.5 164.5 80.5 q92 27 193 27 l356 -1 l107 612 l123 0 l-235 -1354 l112 -1 q69 1 122 25.5 q53 24.5 91.5 66.5 q38.5 42 62.5 97.5 q24 55.5 34 119.5 q14 85 13.5 170.5 q-0.5 85.5 -17.5 170.5 l112 -1 q13 -85 18.5 -169.5 q5.5 -84.5 -6.5 -170.5 q-12 -87 -46.5 -162.5 q-34.5 -75.5 -90 -131 q-55.5 -55.5 -130.5 -86.5 q-75 -31 -167 -30 l-589 1 ZM804 104 l111 636 l-342 1 q-76 0 -145.5 -20.5 q-69.5 -20.5 -124.5 -61 q-55 -40.5 -91.5 -101 q-36.5 -60.5 -45.5 -139.5 q-9 -72 8 -129 q17 -57 54.5 -97 q37.5 -40 93.5 -62.5 q56 -22.5 126 -25.5 l356 -1 Z" /><glyph glyph-name="uni0503" unicode="&#x503;" d="M96 526 q8 66 25.5 135.5 q17.5 69.5 46 134 q28.5 64.5 67.5 121.5 q39 57 90.5 98.5 q51.5 41.5 116 65 q64.5 23.5 143.5 21.5 q95 -2 172 -44.5 q77 -42.5 122 -128.5 l113 631 l119 0 l-206 -1216 q-5 -42 -2.5 -88 q2.5 -46 18 -84 q15.5 -38 46.5 -64 q31 -26 84 -28 q62 -2 112 16.5 q50 18.5 90 52 q40 33.5 70 79 q30 45.5 52 97 q22 51.5 36.5 105 q14.5 53.5 22.5 104.5 q16 100 17 199 q1 99 -12 199 l111 0 q11 -100 13 -198.5 q2 -98.5 -12 -198.5 q-15 -104 -52 -204.5 q-37 -100.5 -99.5 -179.5 q-62.5 -79 -151.5 -126.5 q-89 -47.5 -207 -45.5 q-100 2 -168.5 50.5 q-68.5 48.5 -85.5 151.5 q-68 -97 -160.5 -151.5 q-92.5 -54.5 -212.5 -51.5 q-71 2 -124.5 25.5 q-53.5 23.5 -91.5 62 q-38 38.5 -61.5 90 q-23.5 51.5 -35.5 109.5 q-12 58 -13.5 119 q-1.5 61 5.5 120 l3 22 ZM857 806 q-31 91 -95.5 141 q-64.5 50 -161.5 52 q-63 2 -114 -17.5 q-51 -19.5 -91.5 -54.5 q-40.5 -35 -71 -81.5 q-30.5 -46.5 -52 -99.5 q-21.5 -53 -35.5 -108.5 q-14 -55.5 -21 -107.5 l-2 -21 q-6 -45 -7 -93.5 q-1 -48.5 5.5 -95.5 q6.5 -47 21.5 -89 q15 -42 42 -74.5 q27 -32.5 68 -52.5 q41 -20 98 -21 q55 -2 103.5 11 q48.5 13 90 38.5 q41.5 25.5 76.5 62 q35 36.5 64 81.5 q2 17 3.5 34 q1.5 17 3.5 34 l75 462 Z" /><glyph glyph-name="uni0504" unicode="&#x504;" d="M667 383 q6 58 -3 110 q-9 52 -34.5 91 q-25.5 39 -68.5 62.5 q-43 23.5 -107 26.5 l-196 1 l19 106 l159 -1 q77 0 146 17 q69 17 122.5 53.5 q53.5 36.5 88 94.5 q34.5 58 43.5 141 q8 73 -13.5 123.5 q-21.5 50.5 -63.5 81 q-42 30.5 -100.5 44.5 q-58.5 14 -123.5 16 l-357 1 l19 105 l341 -1 q89 -2 169 -22.5 q80 -20.5 139.5 -65 q59.5 -44.5 91 -114.5 q31.5 -70 22.5 -170 q-6 -71 -33 -129 q-27 -58 -69.5 -103 q-42.5 -45 -98.5 -78 q-56 -33 -120 -55 q52 -22 84.5 -57.5 q32.5 -35.5 49 -80 q16.5 -44.5 19.5 -95.5 q3 -51 -2 -102 l-9 -80 q-3 -39 2.5 -77.5 q5.5 -38.5 22.5 -69.5 q17 -31 46.5 -51 q29.5 -20 74.5 -22 q59 -3 107 16.5 q48 19.5 87 54 q39 34.5 69 80.5 q30 46 51.5 97 q21.5 51 36 103.5 q14.5 52.5 22.5 99.5 q17 100 17 199.5 q0 99.5 -14 199.5 l116 -1 q11 -100 14 -198.5 q3 -98.5 -12 -198.5 q-10 -66 -30 -133.5 q-20 -67.5 -50.5 -130 q-30.5 -62.5 -72 -116.5 q-41.5 -54 -94 -94 q-52.5 -40 -117 -62 q-64.5 -22 -140.5 -21 q-73 1 -124 26.5 q-51 25.5 -82.5 69 q-31.5 43.5 -44 102.5 q-12.5 59 -7.5 128 l8 79 Z" /><glyph glyph-name="uni0505" unicode="&#x505;" d="M629 212 q-5 -65 20.5 -99 q25.5 -34 93.5 -36 q74 -2 129 28 q55 30 93.5 80 q38.5 50 61 113 q22.5 63 32.5 127 q12 79 8.5 157.5 q-3.5 78.5 -25.5 156.5 l116 -1 q13 -78 21 -156 q8 -78 -3 -157 q-12 -89 -46 -171 q-34 -82 -89 -144 q-55 -62 -132 -98.5 q-77 -36.5 -174 -35.5 q-115 2 -173.5 61 q-58.5 59 -51.5 177 l9 82 q4 49 -10 82.5 q-14 33.5 -41.5 54.5 q-27.5 21 -66 31 q-38.5 10 -81.5 12 l-214 1 l16 100 l195 -1 q49 0 98.5 10.5 q49.5 10.5 91 34 q41.5 23.5 70.5 61.5 q29 38 35 94 q6 54 -12 92.5 q-18 38.5 -52 63 q-34 24.5 -78.5 36.5 q-44.5 12 -91.5 14 l-262 1 l12 99 l252 -1 q69 -2 135 -19 q66 -17 116.5 -53 q50.5 -36 78.5 -92.5 q28 -56.5 22 -135.5 q-4 -50 -24 -89 q-20 -39 -50.5 -70 q-30.5 -31 -69.5 -54 q-39 -23 -82 -40 q78 -30 108 -90.5 q30 -60.5 23 -141.5 l-8 -84 l0 0 Z" /><glyph glyph-name="uni0506" unicode="&#x506;" d="M204 659 l18 101 l154 -1 q76 0 148.5 16 q72.5 16 130.5 52 q58 36 97 94 q39 58 48 142 q8 75 -10.5 128.5 q-18.5 53.5 -57.5 89 q-39 35.5 -96.5 53 q-57.5 17.5 -127.5 19.5 l-284 1 l18 101 l268 -1 q92 -2 171 -26 q79 -24 134.5 -72 q55.5 -48 83.5 -121.5 q28 -73.5 19 -173.5 q-6 -67 -32.5 -122 q-26.5 -55 -67.5 -99 q-41 -44 -94.5 -76.5 q-53.5 -32.5 -113.5 -54.5 q58 -19 97 -53 q39 -34 60.5 -78 q21.5 -44 28 -97 q6.5 -53 -0.5 -110 l-20 -138 q-8 -55 -5 -108.5 q3 -53.5 38 -99.5 l-4 -26 l-115 0 q-17 26 -25 55 q-8 29 -11 59.5 q-3 30.5 -1.5 61.5 q1.5 31 5.5 61 l19 134 q7 66 -7 118.5 q-14 52.5 -47.5 89.5 q-33.5 37 -84.5 57.5 q-51 20.5 -117 22.5 l-216 1 ZM858 15 q-16 -98 -64.5 -179 q-48.5 -81 -124.5 -144 l-67 55 q51 59 87 122.5 q36 63.5 50 141.5 l24 142 l116 0 l-21 -138 Z" /><glyph glyph-name="uni0507" unicode="&#x507;" d="M169 468 l17 101 l211 -1 q55 0 109 9.5 q54 9.5 97.5 33 q43.5 23.5 73 64 q29.5 40.5 36.5 103.5 q6 57 -10.5 95.5 q-16.5 38.5 -49 61.5 q-32.5 23 -77 33.5 q-44.5 10.5 -94.5 11.5 l-308 1 l20 101 l290 -1 q70 -2 135.5 -19 q65.5 -17 114.5 -52.5 q49 -35.5 76 -91.5 q27 -56 21 -137 q-4 -52 -23 -93 q-19 -41 -49.5 -72.5 q-30.5 -31.5 -70 -55.5 q-39.5 -24 -85.5 -41 q42 -15 70.5 -40 q28.5 -25 45 -57 q16.5 -32 21.5 -70.5 q5 -38.5 1 -81.5 l-13 -99 q-6 -39 -6.5 -77.5 q-0.5 -38.5 20.5 -73.5 l-3 -20 l-119 0 q-10 19 -14 40.5 q-4 21.5 -4 44 q0 22.5 2 45 q2 22.5 5 43.5 l13 97 q5 50 -7.5 86 q-12.5 36 -39.5 60 q-27 24 -65.5 36.5 q-38.5 12.5 -84.5 14.5 l-256 1 ZM803 22 q-16 -98 -64.5 -179 q-48.5 -81 -124.5 -144 l-67 55 q51 59 87 122.5 q36 63.5 50 141.5 l24 142 l116 0 l-21 -138 Z" /><glyph glyph-name="uni0508" unicode="&#x508;" d="M1345 1456 l-188 -1113 q-5 -42 -2.5 -87.5 q2.5 -45.5 18 -83.5 q15.5 -38 46.5 -63 q31 -25 84 -27 q61 -2 110.5 17 q49.5 19 89 52.5 q39.5 33.5 69.5 78.5 q30 45 52 96 q22 51 36 104.5 q14 53.5 22 103.5 q15 100 15.5 199 q0.5 99 -12.5 199 l115 0 q11 -100 13 -198.5 q2 -98.5 -12 -198.5 q-10 -69 -29.5 -137.5 q-19.5 -68.5 -50 -131 q-30.5 -62.5 -72 -116 q-41.5 -53.5 -94.5 -92.5 q-53 -39 -118.5 -60.5 q-65.5 -21.5 -144.5 -19.5 q-80 1 -132.5 32 q-52.5 31 -82.5 81.5 q-30 50.5 -39.5 116.5 q-9.5 66 -3.5 137 l170 1006 l-546 0 l-101 -583 q-12 -80 -28.5 -168 q-16.5 -88 -42.5 -173.5 q-26 -85.5 -64.5 -163 q-38.5 -77.5 -94.5 -136.5 q-56 -59 -132 -93.5 q-76 -34.5 -177 -33.5 l-56 0 l13 103 l38 0 q82 0 142.5 32 q60.5 32 105 85.5 q44.5 53.5 74 122.5 q29.5 69 49 143 q19.5 74 32 147 q12.5 73 21.5 135 l117 688 l791 0 Z" /><glyph glyph-name="uni0509" unicode="&#x509;" d="M880 979 l-395 0 l-61 -357 q-9 -61 -21.5 -131 q-12.5 -70 -32 -139.5 q-19.5 -69.5 -49 -133.5 q-29.5 -64 -73 -113 q-43.5 -49 -102.5 -77.5 q-59 -28.5 -139 -27.5 l-60 0 l15 106 l42 0 q60 1 104 27 q44 26 75.5 68.5 q31.5 42.5 52.5 97 q21 54.5 34.5 111.5 q13.5 57 21.5 112 q8 55 15 100 l77 460 l632 0 l-122 -738 q-4 -40 -2.5 -85.5 q1.5 -45.5 15.5 -84.5 q14 -39 43.5 -65.5 q29.5 -26.5 81.5 -28.5 q79 -3 137.5 32.5 q58.5 35.5 98.5 92.5 q40 57 63.5 127 q23.5 70 33.5 136 q15 94 14 188.5 q-1 94.5 -15 188.5 l110 0 q11 -94 16 -187.5 q5 -93.5 -9 -188.5 q-13 -94 -47 -183 q-34 -89 -90.5 -158 q-56.5 -69 -137 -110.5 q-80.5 -41.5 -185.5 -39.5 q-78 1 -129 32.5 q-51 31.5 -79 83 q-28 51.5 -36 117 q-8 65.5 -2 134.5 l105 634 Z" /><glyph glyph-name="uni050A" unicode="&#x50a;" d="M1304 1456 l-187 -1114 q-5 -42 -2.5 -87.5 q2.5 -45.5 18 -83 q15.5 -37.5 46.5 -63 q31 -25.5 84 -26.5 q61 -2 110.5 17 q49.5 19 89 52.5 q39.5 33.5 69.5 78.5 q30 45 51.5 96 q21.5 51 35.5 105 q14 54 22 104 q16 99 16.5 198 q0.5 99 -13.5 199 l115 0 q12 -100 14.5 -198.5 q2.5 -98.5 -12.5 -198.5 q-10 -69 -30 -137.5 q-20 -68.5 -50 -131 q-30 -62.5 -71.5 -116 q-41.5 -53.5 -95 -93 q-53.5 -39.5 -119 -61 q-65.5 -21.5 -144.5 -19.5 q-80 2 -132.5 33 q-52.5 31 -82.5 81.5 q-30 50.5 -39.5 116.5 q-9.5 66 -3.5 137 l51 322 l-727 0 l-116 -667 l-123 0 l253 1456 l123 0 l-119 -684 l727 0 l120 684 l122 0 Z" /><glyph glyph-name="uni050B" unicode="&#x50b;" d="M805 491 l-560 0 l-86 -491 l-119 0 l188 1082 l120 0 l-86 -491 l560 0 l85 491 l118 0 l-122 -738 q-5 -40 -3.5 -85.5 q1.5 -45.5 15.5 -84.5 q14 -39 43.5 -65.5 q29.5 -26.5 81.5 -28.5 q53 -2 96.5 13.5 q43.5 15.5 78.5 44 q35 28.5 61.5 67.5 q26.5 39 46 83 q19.5 44 32 90.5 q12.5 46.5 19.5 90.5 q15 94 13.5 188 q-1.5 94 -15.5 188 l110 0 q11 -94 16.5 -187.5 q5.5 -93.5 -8.5 -188.5 q-13 -93 -47 -182.5 q-34 -89.5 -90.5 -158.5 q-56.5 -69 -137 -111 q-80.5 -42 -185.5 -40 q-78 1 -129 33 q-51 32 -79 83.5 q-28 51.5 -36.5 117 q-8.5 65.5 -1.5 134.5 l21 146 Z" /><glyph glyph-name="uni050C" unicode="&#x50c;" d="M577 -21 q-84 2 -152.5 27 q-68.5 25 -121.5 68.5 q-53 43.5 -90 102 q-37 58.5 -58 126.5 q-21 68 -26.5 143 q-5.5 75 4.5 151 l41 262 q19 123 72 235.5 q53 112.5 135.5 198.5 q82.5 86 192 136 q109.5 50 242.5 49 q85 -1 166.5 -18 q81.5 -17 155.5 -61 l-50 -95 q-65 35 -134.5 52 q-69.5 17 -142.5 18 q-109 1 -196.5 -41.5 q-87.5 -42.5 -153 -114.5 q-65.5 -72 -107 -165 q-41.5 -93 -57.5 -192 l-42 -265 q-8 -59 -6 -119.5 q2 -60.5 15.5 -117 q13.5 -56.5 39 -106 q25.5 -49.5 65 -87 q39.5 -37.5 93 -60 q53.5 -22.5 122.5 -24.5 q81 -2 149.5 22.5 q68.5 24.5 120.5 70.5 q52 46 86.5 111 q34.5 65 47.5 144 q14 88 15 177.5 q1 89.5 -8 179.5 l117 -1 q5 -89 7 -178 q2 -89 -11 -178 q-15 -103 -60.5 -187 q-45.5 -84 -115.5 -143.5 q-70 -59.5 -160.5 -91 q-90.5 -31.5 -194.5 -29.5 Z" /><glyph glyph-name="uni050D" unicode="&#x50d;" d="M486 80 q56 -1 104.5 12.5 q48.5 13.5 86.5 42 q38 28.5 63 71 q25 42.5 34 99.5 q8 57 9.5 115.5 q1.5 58.5 -1.5 116.5 l110 0 q3 -57 4 -115.5 q1 -58.5 -7 -115.5 q-10 -81 -46 -143 q-36 -62 -91 -103.5 q-55 -41.5 -125 -62 q-70 -20.5 -148 -18.5 q-111 3 -187.5 50.5 q-76.5 47.5 -122.5 123.5 q-46 76 -62 171 q-16 95 -6 193 l5 43 q13 103 54 201.5 q41 98.5 107.5 175 q66.5 76.5 157 122.5 q90.5 46 203.5 45 q34 0 69 -3 q35 -3 68.5 -10.5 q33.5 -7.5 65 -20.5 q31.5 -13 60.5 -33 l-44 -93 q-51 31 -108 44.5 q-57 13.5 -116 14.5 q-90 1 -160 -38.5 q-70 -39.5 -119.5 -103 q-49.5 -63.5 -79 -143 q-29.5 -79.5 -40.5 -158.5 l-6 -42 q-6 -48 -4 -98.5 q2 -50.5 12 -98.5 q10 -48 30 -91.5 q20 -43.5 52 -76.5 q32 -33 76 -52.5 q44 -19.5 102 -20.5 Z" /><glyph glyph-name="uni050E" unicode="&#x50e;" d="M659 1351 l-498 0 l18 105 l1121 0 l-19 -105 l-499 0 l-170 -1007 q-5 -42 -2.5 -88 q2.5 -46 18 -84 q15.5 -38 47 -63.5 q31.5 -25.5 84.5 -26.5 q61 -2 110.5 17 q49.5 19 89 52.5 q39.5 33.5 69.5 78.5 q30 45 51.5 96 q21.5 51 35.5 105 q14 54 22 104 q16 99 16.5 198 q0.5 99 -13.5 199 l115 0 q11 -100 13.5 -198.5 q2.5 -98.5 -12.5 -198.5 q-10 -69 -30 -137 q-20 -68 -50 -131 q-30 -63 -71 -116.5 q-41 -53.5 -94 -93 q-53 -39.5 -118.5 -61 q-65.5 -21.5 -144.5 -19.5 q-80 2 -132.5 33 q-52.5 31 -83 81.5 q-30.5 50.5 -40 116 q-9.5 65.5 -3.5 137.5 l170 1006 Z" /><glyph glyph-name="uni050F" unicode="&#x50f;" d="M505 981 l-375 0 l18 101 l882 0 l-18 -101 l-387 0 l-105 -637 q-5 -43 -2.5 -89 q2.5 -46 18 -84 q15.5 -38 47 -63.5 q31.5 -25.5 84.5 -27.5 q77 -3 134.5 29 q57.5 32 98 84 q40.5 52 65 118 q24.5 66 34.5 132 q13 88 10.5 175 q-2.5 87 -18.5 174 l111 0 q12 -87 18.5 -174 q6.5 -87 -5.5 -175 q-13 -93 -47.5 -177.5 q-34.5 -84.5 -91.5 -149 q-57 -64.5 -136 -102.5 q-79 -38 -181 -36 q-80 1 -132.5 32 q-52.5 31 -83 81.5 q-30.5 50.5 -40.5 116.5 q-10 66 -4 137 l106 636 Z" /><glyph glyph-name="uni0510" unicode="&#x510;" d="M707 690 q-81 0 -162 -12.5 q-81 -12.5 -148.5 -47 q-67.5 -34.5 -113.5 -94 q-46 -59.5 -56 -153.5 q-9 -83 21.5 -140 q30.5 -57 84.5 -92.5 q54 -35.5 124 -51.5 q70 -16 140 -17 q78 -1 154.5 18 q76.5 19 139.5 59 q63 40 108 101 q45 61 61 143 l120 1 q-15 -110 -70 -190.5 q-55 -80.5 -136 -133 q-81 -52.5 -180 -77.5 q-99 -25 -202 -23 q-93 1 -184 24.5 q-91 23.5 -162 72.5 q-71 49 -111 125.5 q-40 76.5 -31 184.5 q6 77 36.5 136.5 q30.5 59.5 78 103.5 q47.5 44 109.5 74 q62 30 132 49 q-50 21 -91 51.5 q-41 30.5 -70.5 70 q-29.5 39.5 -44 88 q-14.5 48.5 -10.5 104.5 q6 76 33 136.5 q27 60.5 70 106.5 q43 46 98.5 79 q55.5 33 119 53.5 q63.5 20.5 131 29.5 q67.5 9 134.5 8 q89 -2 173 -28 q84 -26 148 -76.5 q64 -50.5 99.5 -125 q35.5 -74.5 27.5 -173.5 l-122 0 q7 74 -19 129.5 q-26 55.5 -73 92.5 q-47 37 -109.5 55.5 q-62.5 18.5 -129.5 20.5 q-75 2 -152.5 -13.5 q-77.5 -15.5 -142 -51.5 q-64.5 -36 -109 -94.5 q-44.5 -58.5 -54.5 -143.5 q-9 -80 18.5 -132.5 q27.5 -52.5 78 -83 q50.5 -30.5 116 -43.5 q65.5 -13 132.5 -14 l187 -1 l-19 -106 l-173 1 Z" /><glyph glyph-name="uni2000" unicode="&#x2000;" d="" /><glyph glyph-name="uni2001" unicode="&#x2001;" d="" /><glyph glyph-name="uni2002" unicode="&#x2002;" d="" /><glyph glyph-name="uni2003" unicode="&#x2003;" d="" /><glyph glyph-name="uni2004" unicode="&#x2004;" d="" /><glyph glyph-name="uni2005" unicode="&#x2005;" d="" /><glyph glyph-name="uni2006" unicode="&#x2006;" d="" /><glyph glyph-name="uni2007" unicode="&#x2007;" d="" /><glyph glyph-name="uni2008" unicode="&#x2008;" d="" /><glyph glyph-name="uni2009" unicode="&#x2009;" d="" /><glyph glyph-name="uni200A" unicode="&#x200a;" d="" /><glyph glyph-name="uni200B" unicode="&#x200b;" d="" /><glyph glyph-name="quoteleft" unicode="&#x2018;" d="M201 1231 q15 98 64 179.5 q49 81.5 124 144.5 l69 -54 q-51 -59 -86.5 -123 q-35.5 -64 -49.5 -142 l-20 -115 l-118 0 l17 110 Z" /><glyph glyph-name="quoteright" unicode="&#x2019;" d="M411 1421 q-15 -97 -62 -179 q-47 -82 -122 -145 l-71 56 q51 60 86 123.5 q35 63.5 49 141.5 l21 118 l117 0 l-18 -115 Z" /><glyph glyph-name="quotesinglbase" unicode="&#x201a;" d="M161 91 q-16 -98 -65 -179 q-49 -81 -124 -144 l-67 55 q51 59 85.5 122.5 q34.5 63.5 48.5 141.5 l21 118 l118 0 l-17 -114 Z" /><glyph glyph-name="quotedblbase" unicode="&#x201e;" d="M160 90 q-16 -100 -64.5 -183 q-48.5 -83 -125.5 -148 l-67 55 q51 61 86.5 127.5 q35.5 66.5 49.5 145.5 l26 149 l118 0 l-23 -146 ZM387 90 q-14 -98 -60 -182 q-46 -84 -120 -150 l-76 57 q52 61 86 127 q34 66 48 145 l26 149 l119 0 l-23 -146 Z" /><glyph glyph-name="dagger" unicode="&#x2020;" d="M1086 977 l-419 0 l-153 -977 l-119 0 l153 977 l-426 0 l17 105 l425 0 l59 374 l119 0 l-59 -374 l419 0 l-16 -105 Z" /><glyph glyph-name="daggerdbl" unicode="&#x2021;" d="M948 0 l-429 0 l-65 -416 l-121 0 l66 416 l-413 0 l17 101 l411 0 l138 878 l-413 0 l17 103 l412 0 l59 374 l120 0 l-59 -374 l430 0 l-17 -103 l-429 0 l-137 -878 l430 0 l-17 -101 Z" /><glyph glyph-name="bullet" unicode="&#x2022;" d="M169 776 q3 40 18 74 q15 34 40.5 59 q25.5 25 60 38.5 q34.5 13.5 75.5 13.5 q40 0 71.5 -13.5 q31.5 -13.5 53.5 -37.5 q22 -24 33.5 -57 q11.5 -33 10.5 -72 l-4 -65 q-4 -40 -19.5 -73 q-15.5 -33 -41 -56.5 q-25.5 -23.5 -59.5 -36.5 q-34 -13 -75 -13 q-38 0 -69 13 q-31 13 -53 36 q-22 23 -33.5 54 q-11.5 31 -11.5 69 l3 67 Z" /><glyph glyph-name="perthousand" unicode="&#x2030;" d="M775 356 q7 62 33 117.5 q26 55.5 67 97 q41 41.5 96 65.5 q55 24 121 23 q72 -2 129.5 -39.5 q57.5 -37.5 81.5 -106.5 q45 65 107.5 105.5 q62.5 40.5 144.5 38.5 q62 -1 109 -26.5 q47 -25.5 77.5 -67 q30.5 -41.5 44 -95 q13.5 -53.5 9.5 -111.5 l-8 -78 q-7 -62 -32.5 -117.5 q-25.5 -55.5 -67 -96.5 q-41.5 -41 -96 -65 q-54.5 -24 -120.5 -22 q-73 2 -132 38.5 q-59 36.5 -86 105.5 q-43 -65 -103.5 -105 q-60.5 -40 -141.5 -38 q-62 1 -109 26.5 q-47 25.5 -77.5 67 q-30.5 41.5 -44.5 95 q-14 53.5 -9 111.5 l7 77 ZM185 1175 q7 62 32 117.5 q25 55.5 66 97.5 q41 42 95.5 65.5 q54.5 23.5 119.5 22.5 q63 -2 110 -27.5 q47 -25.5 78 -67 q31 -41.5 45 -95.5 q14 -54 10 -112 l-8 -77 q-7 -62 -32.5 -117 q-25.5 -55 -66 -96 q-40.5 -41 -95 -65 q-54.5 -24 -119.5 -22 q-62 1 -109.5 26.5 q-47.5 25.5 -78.5 67 q-31 41.5 -45 95 q-14 53.5 -10 111.5 l8 76 ZM864 277 q-3 -39 3.5 -76.5 q6.5 -37.5 24.5 -67.5 q18 -30 48.5 -48.5 q30.5 -18.5 74.5 -19.5 q46 -1 82.5 16.5 q36.5 17.5 63.5 47.5 q27 30 43 69 q16 39 22 81 l8 79 q3 39 -3 76.5 q-6 37.5 -23.5 67.5 q-17.5 30 -48 49 q-30.5 19 -75.5 20 q-47 1 -83.5 -16.5 q-36.5 -17.5 -63.5 -47 q-27 -29.5 -43 -69 q-16 -39.5 -22 -81.5 l-8 -80 ZM1324 277 q-3 -39 3.5 -76.5 q6.5 -37.5 24 -67.5 q17.5 -30 47.5 -48.5 q30 -18.5 75 -19.5 q46 -1 82.5 16.5 q36.5 17.5 62.5 47.5 q26 30 42.5 69 q16.5 39 21.5 81 l9 79 q3 39 -3 76.5 q-6 37.5 -23.5 67.5 q-17.5 30 -47.5 49 q-30 19 -75 20 q-47 1 -83.5 -16.5 q-36.5 -17.5 -63 -47 q-26.5 -29.5 -43 -69 q-16.5 -39.5 -21.5 -81.5 l-8 -80 ZM275 1096 q-3 -38 3.5 -75.5 q6.5 -37.5 24.5 -67 q18 -29.5 48 -48 q30 -18.5 74 -19.5 q46 -1 82.5 16.5 q36.5 17.5 63 47.5 q26.5 30 43 68.5 q16.5 38.5 21.5 80.5 l9 78 q3 39 -3 76.5 q-6 37.5 -24 68 q-18 30.5 -48.5 49.5 q-30.5 19 -74.5 20 q-46 1 -82.5 -17 q-36.5 -18 -63.5 -48 q-27 -30 -43.5 -69 q-16.5 -39 -21.5 -81 l-8 -80 ZM334 122 l-72 53 l885 1131 l68 -49 l-881 -1135 Z" /><glyph glyph-name="guilsinglleft" unicode="&#x2039;" d="M217 549 l198 -382 l-95 0 l-225 378 l2 19 l348 380 l114 0 l-342 -395 Z" /><glyph glyph-name="guilsinglright" unicode="&#x203a;" d="M253 944 l224 -382 l-2 -20 l-348 -380 l-114 0 l341 394 l-197 388 l96 0 Z" /><glyph glyph-name="fraction" unicode="&#x2044;" d="M56 122 l-72 53 l885 1131 l68 -49 l-881 -1135 Z" /><glyph glyph-name="nsuperior" unicode="&#x207f;" d="M351 1454 l-11 -137 q45 66 107.5 108.5 q62.5 42.5 145.5 41.5 q68 -1 114.5 -26.5 q46.5 -25.5 73.5 -67.5 q27 -42 36 -97.5 q9 -55.5 3 -116.5 l-83 -508 l-111 0 l81 496 q4 43 0.5 83 q-3.5 40 -19.5 71.5 q-16 31.5 -47 50.5 q-31 19 -81 20 q-37 0 -73.5 -12 q-36.5 -12 -67 -34 q-30.5 -22 -53.5 -53 q-23 -31 -34 -67 l-94 -555 l-111 0 l139 802 l85 1 Z" /><glyph glyph-name="lira" unicode="&#x20a4;" d="M714 477 l-337 0 l-13 -109 q-11 -74 -36 -141.5 q-25 -67.5 -76 -124.5 l725 2 l-18 -104 l-970 0 l18 103 l92 -1 q38 14 63 44 q25 30 41.5 67 q16.5 37 25 77.5 q8.5 40.5 13.5 76.5 l13 110 l-184 0 l15 89 l182 0 l24 169 l-177 0 l16 90 l174 0 l27 214 q12 91 48.5 172 q36.5 81 95.5 141 q59 60 138.5 93.5 q79.5 33.5 176.5 31.5 q85 -2 150 -32.5 q65 -30.5 107 -82 q42 -51.5 60.5 -122 q18.5 -70.5 10.5 -152.5 l-122 0 q6 58 -4.5 109 q-10.5 51 -37.5 89.5 q-27 38.5 -71.5 61 q-44.5 22.5 -107.5 24.5 q-72 2 -127.5 -25.5 q-55.5 -27.5 -96 -74.5 q-40.5 -47 -64.5 -108 q-24 -61 -33 -125 l-28 -214 l348 0 l-16 -90 l-345 0 l-24 -169 l340 0 l-16 -89 Z" /><glyph glyph-name="peseta" unicode="&#x20a7;" d="M295 586 l-102 -586 l-119 0 l253 1456 l328 -1 q97 -3 173 -33.5 q76 -30.5 126.5 -85.5 q50.5 -55 73 -133 q22.5 -78 13.5 -175 q-11 -107 -54.5 -190 q-43.5 -83 -112.5 -139 q-69 -56 -159.5 -85 q-90.5 -29 -194.5 -29 l-225 1 ZM313 687 l212 -2 q80 0 148.5 23.5 q68.5 23.5 120.5 67 q52 43.5 85 107 q33 63.5 42 144.5 q9 72 -4 131.5 q-13 59.5 -47 102 q-34 42.5 -88.5 66.5 q-54.5 24 -129.5 26 l-224 1 l-115 -667 ZM1374 1359 l-48 -277 l217 0 l-17 -98 l-217 0 l-120 -722 q-3 -31 -2.5 -62 q0.5 -31 10.5 -55.5 q10 -24.5 31 -40 q21 -15.5 59 -16.5 q25 -1 49 1.5 q24 2.5 48 5.5 l-5 -98 q-59 -17 -120 -15 q-62 1 -101 24.5 q-39 23.5 -60 62.5 q-21 39 -26.5 89.5 q-5.5 50.5 -0.5 104.5 l119 721 l-194 0 l18 98 l192 0 l49 277 l119 0 Z" /><glyph glyph-name="Euro" unicode="&#x20ac;" d="M788 563 l-405 0 l-3 -18 q-12 -88 -1.5 -170 q10.5 -82 48 -146 q37.5 -64 103.5 -103 q66 -39 165 -41 q57 -1 111.5 8 q54.5 9 109.5 24 l-1 -107 q-56 -14 -112 -21.5 q-56 -7.5 -114 -6.5 q-122 1 -210.5 46.5 q-88.5 45.5 -142.5 122 q-54 76.5 -73.5 178.5 q-19.5 102 -1.5 216 l4 19 l-192 -1 l16 89 l185 0 l29 164 l-187 0 l17 91 l181 -5 l1 8 q24 121 73.5 225.5 q49.5 104.5 125 181 q75.5 76.5 179 119 q103.5 42.5 235.5 41.5 q58 -1 115 -10 q57 -9 114 -23 l-24 -108 q-51 17 -102.5 26.5 q-51.5 9.5 -105.5 10.5 q-109 2 -190.5 -33.5 q-81.5 -35.5 -140 -97.5 q-58.5 -62 -96.5 -147 q-38 -85 -60 -182 l-2 -12 l412 5 l-17 -90 l-405 0 l-30 -164 l408 0 l-16 -89 Z" /><glyph glyph-name="uni2105" unicode="&#x2105;" d="M712 1034 q-7 -53 -30.5 -96.5 q-23.5 -43.5 -59.5 -75 q-36 -31.5 -83.5 -48 q-47.5 -16.5 -101.5 -15.5 q-61 1 -106.5 27.5 q-45.5 26.5 -75.5 68.5 q-30 42 -43 95 q-13 53 -9 109 l7 77 q7 60 32 115 q25 55 65 97 q40 42 93.5 66.5 q53.5 24.5 117.5 23.5 q52 -1 95.5 -18.5 q43.5 -17.5 74 -48.5 q30.5 -31 47 -74.5 q16.5 -43.5 13.5 -95.5 l-95 0 q4 69 -33 109 q-37 40 -106 41 q-45 1 -80.5 -17.5 q-35.5 -18.5 -61.5 -49 q-26 -30.5 -42 -69.5 q-16 -39 -22 -78 l-9 -79 q-3 -35 3 -72.5 q6 -37.5 22.5 -68 q16.5 -30.5 45 -50.5 q28.5 -20 70.5 -20 q35 -1 64.5 9.5 q29.5 10.5 52.5 30 q23 19.5 39.5 46.5 q16.5 27 24.5 60 l91 1 ZM770 356 q7 62 32.5 117.5 q25.5 55.5 66.5 97 q41 41.5 96 65 q55 23.5 120 22.5 q62 -2 109 -27.5 q47 -25.5 78 -67 q31 -41.5 44.5 -95 q13.5 -53.5 9.5 -111.5 l-7 -78 q-7 -61 -32.5 -116.5 q-25.5 -55.5 -66 -97 q-40.5 -41.5 -95 -65.5 q-54.5 -24 -119.5 -22 q-62 1 -109.5 26.5 q-47.5 25.5 -78.5 67 q-31 41.5 -45 95 q-14 53.5 -10 112.5 l7 77 ZM861 276 q-3 -39 3.5 -76.5 q6.5 -37.5 24.5 -67 q18 -29.5 48 -48.5 q30 -19 75 -20 q46 -1 82.5 17 q36.5 18 62.5 48 q26 30 42.5 69 q16.5 39 21.5 81 l8 79 q3 39 -3 77 q-6 38 -23.5 68 q-17.5 30 -47.5 49 q-30 19 -75 20 q-46 1 -83 -16.5 q-37 -17.5 -63.5 -47.5 q-26.5 -30 -43 -69.5 q-16.5 -39.5 -21.5 -81.5 l-8 -81 ZM343 122 l-72 53 l885 1131 l68 -49 l-881 -1135 Z" /><glyph glyph-name="uni2113" unicode="&#x2113;" d="M587 -20 q-93 4 -154 44 q-61 40 -94.5 103 q-33.5 63 -41.5 142 q-8 79 4 161 l7 44 q-60 -21 -121.5 -30.5 q-61.5 -9.5 -125.5 -11.5 l14 113 q65 1 125.5 13.5 q60.5 12.5 121.5 35.5 l97 572 q5 41 15.5 85.5 q10.5 44.5 26.5 87 q16 42.5 38.5 81 q22.5 38.5 53.5 67 q31 28.5 71 45 q40 16.5 91 14.5 q61 -2 100 -33 q39 -31 60 -76.5 q21 -45.5 27 -100 q6 -54.5 2 -104.5 l-4 -37 q-12 -105 -52 -203 q-40 -98 -101.5 -184 q-61.5 -86 -141 -157 q-79.5 -71 -170.5 -122 l-16 -100 q-8 -57 -8 -116 q0 -59 17 -108.5 q17 -49.5 56.5 -82.5 q39.5 -33 109.5 -38 l-7 -104 ZM451 664 q63 46 119 105 q56 59 99.5 127 q43.5 68 72.5 143 q29 75 39 155 l4 37 q2 24 3.5 59.5 q1.5 35.5 -5.5 69 q-7 33.5 -25 57.5 q-18 24 -54 26 q-32 2 -56 -12 q-24 -14 -42 -37 q-18 -23 -29.5 -53 q-11.5 -30 -19.5 -61 q-8 -31 -12.5 -60.5 q-4.5 -29.5 -7.5 -52.5 l-86 -503 Z" /><glyph glyph-name="uni2116" unicode="&#x2116;" d="M1852 433 l-582 0 l18 97 l582 0 l-18 -97 ZM1358 1131 q9 72 37.5 135 q28.5 63 74.5 109.5 q46 46.5 108.5 73 q62.5 26.5 138.5 24.5 q72 -2 125.5 -30.5 q53.5 -28.5 87.5 -75 q34 -46.5 48.5 -107.5 q14.5 -61 8.5 -128 l-12 -108 q-9 -71 -37.5 -133.5 q-28.5 -62.5 -74.5 -109 q-46 -46.5 -108 -72.5 q-62 -26 -138 -24 q-72 2 -125.5 30 q-53.5 28 -87.5 74 q-34 46 -49 106.5 q-15 60.5 -9 128.5 l12 107 ZM1455 1022 q-4 -46 2.5 -89 q6.5 -43 26 -76.5 q19.5 -33.5 54 -54.5 q34.5 -21 87.5 -22 q54 -2 96 17.5 q42 19.5 72.5 53.5 q30.5 34 49 78.5 q18.5 44.5 24.5 94.5 l13 109 q4 45 -2.5 88 q-6.5 43 -26 77.5 q-19.5 34.5 -54 55.5 q-34.5 21 -86.5 23 q-54 1 -96.5 -18.5 q-42.5 -19.5 -73.5 -53 q-31 -33.5 -49.5 -79 q-18.5 -45.5 -24.5 -94.5 l-12 -110 ZM981 0 l-124 0 l-455 1248 l-217 -1248 l-119 0 l253 1456 l124 0 l456 -1249 l218 1249 l117 0 l-253 -1456 Z" /><glyph glyph-name="trademark" unicode="&#x2122;" d="M1103 1320 l-212 -400 l-51 -1 l-76 422 l-72 -422 l-73 0 l91 537 l88 0 l80 -426 l228 426 l93 0 l-92 -537 l-72 0 l68 401 ZM623 1387 l-157 0 l-79 -468 l-73 0 l78 468 l-151 0 l8 69 l382 0 l-8 -69 Z" /><glyph glyph-name="estimated" unicode="&#x212e;" d="M934 93 q-85 -52 -181 -83 q-96 -31 -197 -29 q-73 1 -134.5 24 q-61.5 23 -111 62 q-49.5 39 -86 91 q-36.5 52 -59.5 113 q-23 61 -31 127.5 q-8 66.5 -1 133.5 q8 71 34 141.5 q26 70.5 67 134.5 q41 64 95 119 q54 55 117.5 94.5 q63.5 39.5 135 61 q71.5 21.5 146.5 19.5 q73 -2 132.5 -24.5 q59.5 -22.5 106 -60.5 q46.5 -38 79.5 -89.5 q33 -51.5 53 -110.5 q20 -59 26.5 -124 q6.5 -65 0.5 -130 l-5 -49 l-746 0 l-58 -329 q48 -51 109 -78.5 q61 -27.5 131 -29.5 q52 -2 102 7 q50 9 97.5 25.5 q47.5 16.5 93.5 39 q46 22.5 90 48.5 l-6 -104 ZM727 1008 q-41 1 -79.5 -8.5 q-38.5 -9.5 -74.5 -26 q-36 -16.5 -69 -39 q-33 -22.5 -64 -47.5 l-49 -278 l521 0 l50 287 q-45 51 -105.5 80.5 q-60.5 29.5 -129.5 31.5 Z" /><glyph glyph-name="partialdiff" unicode="&#x2202;" d="M621 1022 q105 -2 194.5 -51 q89.5 -49 142.5 -141 q5 54 6 118 q1 64 -8 128.5 q-9 64.5 -28 124.5 q-19 60 -53.5 107.5 q-34.5 47.5 -86.5 76.5 q-52 29 -124 31 q-82 2 -154.5 -23 q-72.5 -25 -141.5 -67 l-15 96 q74 50 155 76 q81 26 171 24 q106 -1 178 -41.5 q72 -40.5 117.5 -107 q45.5 -66.5 68.5 -152.5 q23 -86 29.5 -177.5 q6.5 -91.5 1.5 -182 q-5 -90.5 -15 -166.5 l-9 -65 q-11 -75 -34 -153 q-23 -78 -58 -151 q-35 -73 -83 -137 q-48 -64 -109 -111.5 q-61 -47.5 -135 -74 q-74 -26.5 -161 -24.5 q-108 2 -185 45.5 q-77 43.5 -125 114 q-48 70.5 -66.5 162 q-18.5 91.5 -8.5 189.5 l4 34 q13 104 56.5 196 q43.5 92 112.5 160 q69 68 161 106.5 q92 38.5 202 35.5 ZM623 920 q-86 3 -157.5 -28.5 q-71.5 -31.5 -125.5 -86.5 q-54 -55 -88 -128 q-34 -73 -45 -153 l-4 -33 q-8 -73 2 -145 q10 -72 42.5 -130.5 q32.5 -58.5 89 -96 q56.5 -37.5 140.5 -40.5 q70 -2 128.5 20.5 q58.5 22.5 105.5 62.5 q47 40 83 93.5 q36 53.5 62.5 113.5 q26.5 60 44 122.5 q17.5 62.5 26.5 120.5 l9 58 q0 59 -30 105 q-30 46 -76.5 78 q-46.5 32 -101.5 49 q-55 17 -105 18 Z" /><glyph glyph-name="product" unicode="&#x220f;" d="M1006 -243 l-120 0 l250 1597 l-731 0 l-250 -1597 l-119 0 l265 1699 l970 0 l-265 -1699 Z" /><glyph glyph-name="summation" unicode="&#x2211;" d="M769 578 l-692 -745 l936 0 l-19 -102 l-1085 0 l17 97 l718 769 l-451 772 l16 87 l1020 0 l-18 -102 l-881 0 l442 -750 l-3 -26 Z" /><glyph glyph-name="minus" unicode="&#x2212;" d="M986 686 l-813 0 l19 102 l813 0 l-19 -102 Z" /><glyph glyph-name="radical" unicode="&#x221a;" d="M409 242 l5 -74 l31 79 l605 1209 l128 0 l-739 -1456 l-95 0 l-125 640 l-151 0 l18 102 l229 1 l94 -501 Z" /><glyph glyph-name="infinity" unicode="&#x221e;" d="M1958 528 q-13 -103 -56 -203 q-43 -100 -112.5 -178 q-69.5 -78 -163 -124.5 q-93.5 -46.5 -206.5 -43.5 q-86 3 -155 39 q-69 36 -120 94 q-51 58 -84 132 q-33 74 -49 151 q-43 -75 -95.5 -150.5 q-52.5 -75.5 -117.5 -135.5 q-65 -60 -144.5 -96.5 q-79.5 -36.5 -176.5 -34.5 q-108 3 -184 52 q-76 49 -121.5 126 q-45.5 77 -62.5 172 q-17 95 -7 190 l5 39 q13 103 56 202 q43 99 112.5 176.5 q69.5 77.5 162.5 123.5 q93 46 206 43 q86 -3 154.5 -39.5 q68.5 -36.5 119 -94.5 q50.5 -58 84 -132 q33.5 -74 48.5 -151 q44 76 97 151.5 q53 75.5 119 135.5 q66 60 146 96.5 q80 36.5 177 34.5 q72 -2 129 -25 q57 -23 100.5 -62 q43.5 -39 74 -90.5 q30.5 -51.5 48 -110.5 q17.5 -59 22.5 -122.5 q5 -63.5 -1 -125.5 l-5 -39 ZM221 514 q-5 -47 -3.5 -97 q1.5 -50 11.5 -98.5 q10 -48.5 30 -91.5 q20 -43 51 -75.5 q31 -32.5 74 -52.5 q43 -20 101 -21 q56 -1 108.5 18 q52.5 19 100 52.5 q47.5 33.5 89.5 78 q42 44.5 76.5 94.5 q34.5 50 61 102 q26.5 52 43.5 100 l9 41 q5 69 -20 144.5 q-25 75.5 -71 139.5 q-46 64 -109 106 q-63 42 -135 45 q-91 4 -163 -36 q-72 -40 -123.5 -105 q-51.5 -65 -83.5 -146 q-32 -81 -42 -160 l-5 -38 ZM1844 567 q5 46 3.5 96 q-1.5 50 -11.5 97.5 q-10 47.5 -29.5 91 q-19.5 43.5 -50 76.5 q-30.5 33 -73.5 53 q-43 20 -100 21 q-56 1 -108.5 -18 q-52.5 -19 -100.5 -52 q-48 -33 -90 -77.5 q-42 -44.5 -77 -94 q-35 -49.5 -61.5 -101.5 q-26.5 -52 -43.5 -100 l-9 -41 q-4 -46 6 -96 q10 -50 31 -98 q21 -48 52 -91.5 q31 -43.5 69 -76.5 q38 -33 82.5 -53.5 q44.5 -20.5 92.5 -22.5 q91 -3 163 36.5 q72 39.5 124 104.5 q52 65 83.5 146 q31.5 81 42.5 161 l5 39 Z" /><glyph glyph-name="integral" unicode="&#x222b;" d="M185 -97 q-9 -73 -34 -136 q-25 -63 -67 -109.5 q-42 -46.5 -102 -72.5 q-60 -26 -139 -24 q-30 0 -59 6.5 q-29 6.5 -58 15.5 l26 97 q21 -7 43 -12 q22 -5 45 -6 q53 -2 92.5 18 q39.5 20 67 53.5 q27.5 33.5 43.5 78 q16 44.5 23 91.5 l198 1314 q9 73 35 136 q26 63 69.5 109 q43.5 46 104.5 72 q61 26 140 25 q35 0 69.5 -6.5 q34.5 -6.5 69.5 -14.5 l-26 -95 q-26 7 -51.5 11 q-25.5 4 -52.5 4 q-54 0 -95.5 -18.5 q-41.5 -18.5 -71 -51.5 q-29.5 -33 -47.5 -77 q-18 -44 -25 -94 l-198 -1314 l0 0 Z" /><glyph glyph-name="approxequal" unicode="&#x2248;" d="M138 867 q51 57 114.5 93.5 q63.5 36.5 140.5 37.5 q64 0 115.5 -22 q51.5 -22 105.5 -53 q49 -29 96.5 -51 q47.5 -22 106.5 -22 q39 0 73.5 12 q34.5 12 66 31.5 q31.5 19.5 60 44.5 q28.5 25 54.5 51 l-11 -125 q-49 -54 -110.5 -91.5 q-61.5 -37.5 -136.5 -37.5 q-59 0 -107 21 q-48 21 -98 50 q-27 15 -52 29 q-25 14 -51 24.5 q-26 10.5 -54 16.5 q-28 6 -60 6 q-39 0 -74.5 -12 q-35.5 -12 -67.5 -31 q-32 -19 -61 -44 q-29 -25 -56 -51 l6 123 ZM67 465 q50 55 112.5 92 q62.5 37 139.5 38 q32 0 60 -5.5 q28 -5.5 54.5 -16 q26.5 -10.5 52 -24.5 q25.5 -14 52.5 -29 q49 -29 96.5 -51 q47.5 -22 106.5 -22 q39 0 74 11.5 q35 11.5 66.5 31 q31.5 19.5 59.5 45 q28 25.5 54 51.5 l-11 -125 q-24 -27 -51.5 -50.5 q-27.5 -23.5 -58.5 -41 q-31 -17.5 -65.5 -27.5 q-34.5 -10 -71.5 -10 q-29 0 -55.5 5.5 q-26.5 5.5 -51 15.5 q-24.5 10 -48.5 23 q-24 13 -49 27 q-27 15 -52 29.5 q-25 14.5 -51.5 25 q-26.5 10.5 -54.5 16.5 q-28 6 -59 6 q-39 0 -74.5 -12 q-35.5 -12 -68 -31.5 q-32.5 -19.5 -61.5 -44 q-29 -24.5 -55 -51.5 l10 124 Z" /><glyph glyph-name="notequal" unicode="&#x2260;" d="M923 418 l-507 0 l-191 -264 l-73 47 l159 217 l-199 0 l19 106 l258 0 l225 305 l-431 0 l19 106 l490 0 l200 272 l67 -42 l-167 -230 l222 0 l-19 -106 l-280 0 l-222 -305 l449 0 l-19 -106 Z" /><glyph glyph-name="lozenge" unicode="&#x25ca;" d="M594 1455 l98 1 l276 -736 l-520 -720 l-95 0 l-279 727 l520 728 ZM627 1322 l-426 -602 l215 -589 l426 603 l-215 588 Z" /><glyph glyph-name="quotedblx" unicode="&#xee02;" d="M225 669 l-102 0 l75 413 l92 0 l-65 -413 ZM489 669 l-102 0 l74 413 l93 0 l-65 -413 Z" /><glyph glyph-name="commaaccent" unicode="&#xf6c3;" d="M216 100 q-27 -172 -158 -283 l-67 55 q42 51 69 104.5 q27 53.5 39 118.5 l14 81 l115 0 l-12 -76 Z" /><glyph glyph-name="fi" unicode="&#xfb01;" d="M116 0 l171 984 l-175 0 l17 98 l175 0 l15 114 q12 83 44 150.5 q32 67.5 83.5 115 q51.5 47.5 121 72.5 q69.5 25 155.5 24 q71 -1 137.5 -18 q66.5 -17 131.5 -43 l-31 -102 q-57 26 -114.5 40.5 q-57.5 14.5 -119.5 15.5 q-123 1 -196.5 -67.5 q-73.5 -68.5 -91.5 -186.5 l-17 -115 l246 0 l-17 -98 l-245 0 l-171 -984 l-119 0 ZM798 0 l-120 0 l189 1082 l119 0 l-188 -1082 Z" /><glyph glyph-name="uniFEFF" unicode="&#xfeff;" d="" /><glyph glyph-name="uniFFFC" unicode="&#xfffc;" d="M782 469 q-6 -49 -26.5 -90 q-20.5 -41 -53.5 -70.5 q-33 -29.5 -76 -46 q-43 -16.5 -93 -15.5 q-48 1 -87 18 q-39 17 -65.5 46 q-26.5 29 -40 69 q-13.5 40 -10.5 88 l10 112 q5 49 25.5 90 q20.5 41 53 70 q32.5 29 75.5 45 q43 16 93 15 q48 -1 86.5 -18 q38.5 -17 65.5 -46.5 q27 -29.5 40.5 -69 q13.5 -39.5 11.5 -86.5 l-9 -111 ZM801 252 l95 549 l175 -1 q34 -1 68 -8 q34 -7 60.5 -23.5 q26.5 -16.5 42 -43.5 q15.5 -27 12.5 -68 q-3 -47 -30.5 -75.5 q-27.5 -28.5 -65.5 -49.5 q38 -15 59 -45.5 q21 -30.5 20 -72.5 q-2 -44 -20.5 -74.5 q-18.5 -30.5 -48.5 -50 q-30 -19.5 -67.5 -28.5 q-37.5 -9 -76.5 -10 l-223 1 ZM699 582 q2 29 -3 55.5 q-5 26.5 -18.5 46.5 q-13.5 20 -35.5 32.5 q-22 12.5 -54 12.5 q-33 1 -59.5 -10.5 q-26.5 -11.5 -46 -32 q-19.5 -20.5 -31.5 -47.5 q-12 -27 -16 -58 l-13 -114 q-2 -29 3 -55.5 q5 -26.5 18.5 -46.5 q13.5 -20 36 -32 q22.5 -12 55.5 -13 q33 -1 59 10.5 q26 11.5 45.5 31.5 q19.5 20 31 47 q11.5 27 16.5 58 l12 115 ZM1664 803 l96 0 l-59 -378 q-5 -40 -21.5 -71.5 q-16.5 -31.5 -42.5 -54 q-26 -22.5 -60 -34 q-34 -11.5 -74 -11.5 q-41 0 -74 10.5 q-33 10.5 -57 31 q-24 20.5 -37 51.5 q-13 31 -12 73 l91 -1 q-2 -44 17.5 -69 q19.5 -25 67.5 -24 q43 1 70.5 29.5 q27.5 28.5 35.5 68.5 l59 379 ZM-89 -398 l55 315 l113 0 l-36 -202 l191 0 l-20 -113 l-303 0 ZM1491 -398 l20 113 l193 0 l36 202 l110 0 l-55 -315 l-304 0 ZM182 1169 l50 285 l303 0 l-21 -116 l-189 0 l-30 -169 l-113 0 ZM1792 1338 l21 116 l303 0 l-50 -285 l-111 0 l31 169 l-194 0 ZM939 496 l-31 -169 l115 0 q43 2 78 22 q35 20 43 67 q5 38 -16.5 57 q-21.5 19 -56.5 22 l-4 0 l-128 1 ZM1405 1338 l21 116 l272 0 l-21 -116 l-272 0 ZM1018 1338 l21 116 l271 0 l-21 -116 l-271 0 ZM631 1338 l21 116 l270 0 l-21 -116 l-270 0 ZM1104 -398 l20 113 l273 0 l-20 -113 l-273 0 ZM717 -398 l20 113 l272 0 l-20 -113 l-272 0 ZM330 -398 l20 113 l271 0 l-20 -113 l-271 0 ZM946 565 l88 0 q21 1 43 5.5 q22 4.5 40.5 14 q18.5 9.5 32 25.5 q13.5 16 17.5 41 q3 22 -5 35 q-8 13 -22.5 19.5 q-14.5 6.5 -32.5 8.5 q-18 2 -35 2 l-92 1 l-34 -152 ZM164 416 l-112 0 l45 252 l112 0 l-45 -252 ZM230 794 l-113 0 l45 250 l112 0 l-44 -250 ZM99 41 l-112 0 l44 249 l113 0 l-45 -249 ZM1935 416 l-110 0 l45 252 l110 0 l-45 -252 ZM2001 794 l-111 0 l45 250 l110 0 l-44 -250 ZM1870 41 l-110 0 l44 249 l111 0 l-45 -249 Z" /><glyph glyph-name="uniFFFD" unicode="&#xfffd;" d="M1048 1618 l959 -975 l-959 -975 l-956 975 l956 975 ZM1131 402 q0 25 2.5 45 q2.5 20 10 36.5 q7.5 16.5 20 30.5 q12.5 14 33.5 28 q34 18 64 44 q30 26 52.5 57.5 q22.5 31.5 36 68.5 q13.5 37 13.5 78 q0 64 -21.5 115.5 q-21.5 51.5 -62 88 q-40.5 36.5 -99.5 56 q-59 19.5 -133 19.5 q-64 0 -119 -15 q-55 -15 -96.5 -47.5 q-41.5 -32.5 -65.5 -83 q-24 -50.5 -25 -120.5 l203 0 q1 27 9.5 46.5 q8.5 19.5 23 32 q14.5 12.5 32.5 18.5 q18 6 38 6 q57 0 85 -32 q28 -32 28 -84 q0 -52 -26.5 -90.5 q-26.5 -38.5 -66.5 -64.5 q-35 -25 -61 -46.5 q-26 -21.5 -43 -47 q-17 -25.5 -25.5 -58.5 q-8.5 -33 -8.5 -81 l202 0 ZM1131 311 l-202 0 l0 -170 l202 0 l0 170 ZM1056 -551 l4 0 l0 -4 l-4 0 l0 4 ZM1054 2163 l4 0 l0 -4 l-4 0 l0 4 Z" /><glyph glyph-name="Dcroat" unicode="&#x110;" d="M103 0 l119 689 l-145 0 l18 102 l145 0 l116 665 l388 -1 q138 -3 239 -58.5 q101 -55.5 163.5 -147 q62.5 -91.5 86 -209.5 q23.5 -118 7.5 -246 l-20 -133 q-21 -140 -81.5 -261 q-60.5 -121 -153.5 -210.5 q-93 -89.5 -216 -140 q-123 -50.5 -270 -49.5 l-396 0 ZM673 689 l-328 0 l-102 -585 l260 -1 q123 0 224.5 43.5 q101.5 43.5 178 119 q76.5 75.5 126 177.5 q49.5 102 67.5 218 l20 137 q14 102 0 200 q-14 98 -59.5 175.5 q-45.5 77.5 -124 125.5 q-78.5 48 -194.5 51 l-281 1 l-98 -560 l329 0 l-18 -102 Z" /><glyph glyph-name="Eth" unicode="ð" d="M103 0 l119 689 l-145 0 l18 102 l145 0 l116 665 l388 -1 q138 -3 239 -58.5 q101 -55.5 163.5 -147 q62.5 -91.5 86 -209.5 q23.5 -118 7.5 -246 l-20 -133 q-21 -140 -81.5 -261 q-60.5 -121 -153.5 -210.5 q-93 -89.5 -216 -140 q-123 -50.5 -270 -49.5 l-396 0 ZM673 689 l-328 0 l-102 -585 l260 -1 q123 0 224.5 43.5 q101.5 43.5 178 119 q76.5 75.5 126 177.5 q49.5 102 67.5 218 l20 137 q14 102 0 200 q-14 98 -59.5 175.5 q-45.5 77.5 -124 125.5 q-78.5 48 -194.5 51 l-281 1 l-98 -560 l329 0 l-18 -102 Z" /><glyph glyph-name="hbar" unicode="&#x127;" d="M739 1257 l-330 0 l-66 -358 q34 45 74 83 q40 38 86 65 q46 27 98 41.5 q52 14.5 110 13.5 q88 -2 145.5 -34.5 q57.5 -32.5 89.5 -87 q32 -54.5 41.5 -126 q9.5 -71.5 0.5 -150.5 l-118 -704 l-118 0 l118 706 q6 57 1.5 109.5 q-4.5 52.5 -25.5 93 q-21 40.5 -61.5 64.5 q-40.5 24 -106.5 26 q-62 1 -115.5 -19.5 q-53.5 -20.5 -98 -56 q-44.5 -35.5 -80 -83 q-35.5 -47.5 -62.5 -98.5 l-128 -742 l-118 0 l218 1257 l-151 0 l18 102 l151 0 l31 177 l118 0 l-33 -177 l329 0 l-18 -102 Z" /><glyph glyph-name="Tbar" unicode="&#x166;" d="M928 834 l-233 0 l-145 -834 l-122 0 l145 834 l-241 0 l18 102 l241 0 l72 415 l-484 0 l19 105 l1089 0 l-19 -105 l-483 0 l-72 -415 l233 0 l-18 -102 Z" /><glyph glyph-name="tbar" unicode="&#x167;" d="M612 617 l-273 0 l-59 -355 q-3 -31 -2.5 -62 q0.5 -31 10.5 -55.5 q10 -24.5 31 -40 q21 -15.5 59 -16.5 q25 -1 49 1.5 q24 2.5 48 5.5 l-5 -98 q-59 -17 -120 -15 q-62 1 -101 24.5 q-39 23.5 -60 62.5 q-21 39 -26.5 89.5 q-5.5 50.5 -0.5 104.5 l58 354 l-204 0 l18 102 l203 0 l44 265 l-194 0 l18 98 l192 0 l49 277 l119 0 l-48 -277 l217 0 l-17 -98 l-217 0 l-44 -265 l274 0 l-18 -102 Z" /><glyph glyph-name="Aogonek" unicode="&#x104;" d="M1085 0 l5 -3 q-30 -21 -64 -46 q-34 -25 -64 -54 q-30 -29 -51.5 -64 q-21.5 -35 -25.5 -75 q-8 -73 64 -76 q29 -1 55 9 q26 10 50 23 l7 -85 q-31 -20 -65 -31 q-34 -11 -72 -11 q-36 0 -64.5 11.5 q-28.5 11.5 -48 33.5 q-19.5 22 -29 51.5 q-9.5 29.5 -7.5 65.5 q2 44 21 82.5 q19 38.5 48 71 q29 32.5 65.5 59.5 q36.5 27 73.5 49 l-74 397 l-638 0 l-217 -408 l-133 0 l787 1456 l117 0 l281 -1456 l-21 0 ZM326 513 l563 0 l-144 789 l-419 -789 Z" /><glyph glyph-name="aogonek" unicode="&#x105;" d="M815 0 l5 -3 q-30 -21 -64 -46 q-34 -25 -64 -54 q-30 -29 -51.5 -64 q-21.5 -35 -25.5 -75 q-8 -73 64 -76 q29 -1 55 9 q26 10 50 23 l7 -85 q-31 -20 -65 -31 q-34 -11 -72 -11 q-36 0 -64.5 11.5 q-28.5 11.5 -48 33.5 q-19.5 22 -29 51.5 q-9.5 29.5 -7.5 65.5 q2 44 21 82.5 q19 38.5 48.5 71.5 q29.5 33 66 60 q36.5 27 72.5 49 q-4 35 -1.5 69.5 q2.5 34.5 9.5 69.5 q-75 -81 -171.5 -127 q-96.5 -46 -208.5 -44 q-65 1 -121.5 22.5 q-56.5 21.5 -97.5 60.5 q-41 39 -63 93.5 q-22 54.5 -17 122.5 q5 67 30.5 119 q25.5 52 65.5 91 q40 39 92 66 q52 27 109.5 43.5 q57.5 16.5 117 24 q59.5 7.5 116.5 7.5 l221 -1 l18 124 q6 57 -7 102.5 q-13 45.5 -42.5 77.5 q-29.5 32 -74 49.5 q-44.5 17.5 -101.5 19.5 q-53 1 -104.5 -12.5 q-51.5 -13.5 -94 -41 q-42.5 -27.5 -73.5 -69 q-31 -41.5 -43 -95.5 l-117 0 q11 79 54 139.5 q43 60.5 105 101 q62 40.5 136.5 60 q74.5 19.5 148.5 18.5 q79 -2 144 -26.5 q65 -24.5 109.5 -70 q44.5 -45.5 65.5 -110.5 q21 -65 12 -146 l-87 -524 q-8 -53 -11 -107 q-3 -54 8 -107 l-2 -12 l-23 0 ZM361 85 q59 -2 114 13 q55 15 103 43 q48 28 88.5 68 q40.5 40 71.5 89 l41 239 l-191 1 q-41 0 -87 -4.5 q-46 -4.5 -91.5 -15.5 q-45.5 -11 -87.5 -29 q-42 -18 -75.5 -45.5 q-33.5 -27.5 -55.5 -66 q-22 -38.5 -27 -88.5 q-5 -47 8.5 -84 q13.5 -37 40.5 -63.5 q27 -26.5 65.5 -41 q38.5 -14.5 82.5 -15.5 Z" /><glyph glyph-name="Eogonek" unicode="&#x118;" d="M977 698 l-660 0 l-104 -594 l760 0 l-18 -104 l-69 0 l5 -3 q-30 -21 -64 -46 q-34 -25 -64 -54 q-30 -29 -51.5 -64 q-21.5 -35 -25.5 -75 q-8 -73 64 -76 q29 -1 55 9 q26 10 50 23 l7 -85 q-31 -20 -65 -31 q-34 -11 -72 -11 q-36 0 -64.5 11.5 q-28.5 11.5 -48 33.5 q-19.5 22 -29 51.5 q-9.5 29.5 -7.5 65.5 q2 41 18.5 77.5 q16.5 36.5 43 67.5 q26.5 31 59.5 57.5 q33 26.5 67 48.5 l-691 0 l253 1456 l877 0 l-19 -105 l-754 0 l-96 -549 l661 0 l-18 -104 Z" /></font>
</defs>
</svg>
