<svg xmlns="http://www.w3.org/2000/svg" viewBox="0 0 40 40"><path fill="#FFF" d="M18.253 32.792c-.997-.287-1.616-.935-1.937-1.876-.261-.765-.455-1.553-.68-2.334l-5.324 2.249 1.9 2.425c.937 1.197 1.87 2.4 2.815 3.591.462.582 1.14.806 1.817.545.905-.35 1.802-.725 2.672-1.154.818-.403 1.035-1.335.565-2.113-.423-.702-1.073-1.116-1.828-1.333zM16.382 20.216l.462 1.095c1.133-.467 2.22-.977 3.2-1.67.617-.435 1.177-.953 1.748-1.45.093-.081.188-.277.152-.37-.268-.696-.569-1.38-.858-2.064-.773 2.286-2.613 3.488-4.704 4.459z"/><g fill="#FFF"><path d="M33.096 27.507h.038l-.038-.02v.02z"/><path d="M26.432 26.7v-1.19c0-1.525.789-2.661 2.05-3.113-.295-.462-.587-.926-.884-1.386-.027-.042-.037-.095-.072-.19.368-.155.735-.3 1.093-.463a3.678 3.678 0 0 0 2.087-3.852c-.37-2.438-2.83-3.8-5.163-2.858-.297.12-.59.25-.882.373-1.12-2.406-1.529-7.747-.678-9.084.204.09.43.165.63.284 1.053.632 1.877 1.517 2.65 2.451 1.89 2.28 3.269 4.863 4.406 7.578 1.004 2.393 1.785 4.858 2.15 7.44.185 1.314.292 2.634.071 3.955-.046.272-.137.55-.232.862h1.455c.37 0 .709.06 1.03.148.305-1.1.342-2.237.283-3.382-.118-2.306-.617-4.544-1.324-6.737-.244-.753-.498-1.503-.748-2.255l-.951-2.252c-.243-.472-.488-.944-.729-1.417-1.16-2.276-2.49-4.443-4.254-6.305a17.174 17.174 0 0 0-2.256-1.966c-.845-.626-1.817-.973-2.907-.794l-.577.244c-.719.568-1.082 1.347-1.35 2.198-.441 1.395-.882 2.79-1.379 4.165-.921 2.552-2.274 4.828-4.375 6.606-1.041.882-2.169 1.63-3.422 2.173-2.078.903-4.165 1.787-6.246 2.684-1.716.74-2.599 2.32-2.303 4.105.022.131.04.263.059.395l1.269 3.003c.136.183.265.371.409.547a3.677 3.677 0 0 0 4.28 1.07c2.093-.87 4.172-1.777 6.273-2.628 1.932-.782 3.94-1.23 6.038-1.225 1.568.003 3.064.297 4.5.816zM7.748 25.162c-.674-.88-.344-2.476.654-2.928 1.293-.587 2.612-1.115 3.92-1.667.027-.01.06-.006.106-.01l.943 2.23-5.623 2.375zm8.963-.928l-2.045-4.84c2.966-1.749 5.175-4.185 6.712-7.264A57.872 57.872 0 0 0 26.41 24.1c-1.655-.465-3.253-.694-4.885-.657-1.638.038-3.232.331-4.814.791z"/></g><path fill="#FFF" d="M31.096 32.172v3.996c0 .888-.444 1.332-1.332 1.332s-1.332-.444-1.332-1.332l.027-3.996h-4.017c-.892 0-1.34-.444-1.34-1.332s.445-1.333 1.334-1.333h3.996V25.51c0-.887.444-1.332 1.332-1.332s1.332.445 1.332 1.332v3.997h4.017c.892 0 1.338.444 1.338 1.333s-.446 1.332-1.338 1.332h-4.017z"/></svg>