<svg xmlns="http://www.w3.org/2000/svg" viewBox="0 0 40 40"><g fill="#FFF"><path d="M16.403 31.027c-1.181 0-2.165-.401-2.952-1.203-.787-.801-1.18-1.79-1.18-2.963 0-1.167.395-2.153 1.186-2.959s1.795-1.208 3.015-1.208c.698 0 1.285.113 1.761.34.476.226.929.55 1.358.972l-1.059 1.22c-.345-.315-.67-.543-.972-.685-.303-.142-.67-.213-1.1-.213-.675 0-1.233.244-1.674.731-.442.487-.662 1.088-.662 1.802 0 .705.22 1.304.662 1.795.441.491.999.736 1.675.736.429 0 .801-.076 1.116-.23.315-.153.649-.39 1.002-.713l1.127 1.208c-.437.468-.911.814-1.42 1.036-.511.223-1.139.334-1.883.334zM21.122 30.889v-8.057h3.683c1.02 0 1.804.273 2.348.817.46.46.69 1.082.69 1.865 0 1.235-.575 2.068-1.726 2.497l1.968 2.878h-2.072l-1.749-2.578h-1.37v2.578h-1.772zm1.772-4.144h1.796c.43 0 .764-.105 1.001-.316.238-.211.357-.493.357-.846 0-.376-.123-.662-.368-.858-.246-.195-.588-.293-1.024-.293h-1.762v2.313zM29.444 30.889v-8.057h1.91l2.117 3.407 2.118-3.407H37.5v8.057h-1.76v-5.26L33.47 29.07h-.045l-2.244-3.407v5.226h-1.738z"/></g><path fill="#FFF" d="M36.422 13.692l-5.435 5.435-1.02 1.021a.73.73 0 0 1-1.022 0l-1.02-1.021-2.718-2.717a.728.728 0 0 1 0-1.021l1.021-1.02a.728.728 0 0 1 1.021 0l2.207 2.213 4.924-4.931a.73.73 0 0 1 1.02 0l1.022 1.02a.728.728 0 0 1 0 1.021zM25.273 11.254a9.174 9.174 0 0 1 2.091-1.749 8.245 8.245 0 0 0-3.742-.487c-2.897.311-5.114 1.725-6.666 4.179-.143.224-.282.27-.523.238-1.798-.238-3.41.228-4.835 1.333-1.006.78-1.702 1.793-2.145 2.988h-.216c-3.15-.06-5.8 1.968-6.565 5.025-.06.239-.115.48-.172.72v1.641c.024.084.058.166.072.252a6.566 6.566 0 0 0 6.494 5.495h2.016a6.312 6.312 0 0 1-.135-1.296c0-.305.029-.602.07-.895h-1.71c-2.02-.002-3.617-1.04-4.306-2.783-1.079-2.732.848-5.788 3.775-5.948.62-.034 1.25.058 1.874.116.263.024.38-.065.46-.314.177-.551.357-1.105.588-1.636.647-1.492 2.457-3.03 5.08-2.415.3.07.606.11.906.176.182.04.293-.003.383-.178.205-.394.43-.777.65-1.163 1.336-2.356 3.985-3.677 6.556-3.3z"/></svg>