<svg xmlns="http://www.w3.org/2000/svg" viewBox="0 0 40 40"><g fill="#FFF"><path d="M24.12 25.233c.014-.084.036-.166.054-.249H5v-17.5h30v13.084a7.098 7.098 0 0 1 2.5 2.947V5.844c0-.573-.287-.86-.86-.86H3.36c-.575 0-.86.287-.86.86v20.78c0 .574.285.86.86.86H24.1a7.068 7.068 0 0 1 .019-2.251zM25.938 34.047c-.21-.157-.536-.364-.977-.625a9.646 9.646 0 0 1-1.016-.664c-.234-.182-.351-.352-.351-.508 0-.208-.028-1.38-.078-3.516h-7.032l-.078 3.516c0 .156-.117.326-.351.508a9.9 9.9 0 0 1-1.016.664c-.443.26-.77.468-.976.625-.21.156-.313.287-.313.39-.053.366.832.547 2.656.547h7.188l1.484-.078c1.197-.103 1.485-.39.86-.86z"/></g><path fill="#FFF" d="M36.267 35a.992.992 0 0 1-.65-.415l-2.212-3.117a5.554 5.554 0 0 1-7.807-5.982c.518-3.026 3.388-5.056 6.415-4.538s5.056 3.389 4.538 6.415a5.546 5.546 0 0 1-1.496 2.938l2.21 3.125A1.007 1.007 0 0 1 36.267 35zm-4.596-12.06a3.54 3.54 0 0 0-4.082 2.887 3.54 3.54 0 0 0 2.888 4.082 3.54 3.54 0 0 0 4.082-2.888 3.54 3.54 0 0 0-2.888-4.082zM7.621 23.999a1 1 0 0 1-1-1v-6.03a1 1 0 1 1 2 0V23a1 1 0 0 1-1 1zM11.621 23.999a1 1 0 0 1-1-1V13.86a1 1 0 1 1 2 0V23a1 1 0 0 1-1 1zM15.622 23.999a1 1 0 0 1-1-1v-7.232a1 1 0 1 1 2 0V23a1 1 0 0 1-1 1zM19.622 23.999a1 1 0 0 1-1-1V18.61a1 1 0 1 1 2 0V23a1 1 0 0 1-1 1zM23.622 23.999a1 1 0 0 1-1-1V11.58a1 1 0 1 1 2 0v11.419a1 1 0 0 1-1 1z"/></svg>