<svg xmlns="http://www.w3.org/2000/svg" viewBox="0 0 40 40"><g fill="#FFF"><path d="M36.72 32.915l-7.212-7.214a14.78 14.78 0 0 0 2.607-8.393c0-8.182-6.624-14.808-14.807-14.808S2.5 9.126 2.5 17.308s6.625 14.807 14.808 14.807c2.986 0 5.932-.904 8.393-2.608l7.213 7.193c.485.506 1.18.8 1.894.8a2.684 2.684 0 0 0 2.692-2.692c0-.716-.294-1.41-.78-1.893zm-19.412-3.681c-6.56 0-11.878-5.318-11.878-11.878S10.748 5.478 17.308 5.478s11.878 5.318 11.878 11.878-5.318 11.878-11.878 11.878z"/><path d="M19.935 14.898l1.514-.42 2.352 4.113-.428.453c-.411-.256-.78-.582-1.278-.495-.546.095-.63.585-.782 1.034-.67-.164-1.177.025-1.427.709-.131-.043-.234-.08-.338-.11-.612-.175-1.032.057-1.182.675-.047.194-.103.3-.33.342-.74.138-.957.602-.63 1.282.056.117.12.23.18.34-.309.315-.575.382-.894.23-.264-.126-.356-.353-.319-.622a.828.828 0 0 1 .17-.371c.204-.262.44-.498.635-.765.065-.09.106-.29.053-.354-.123-.15-.244-.02-.34.09-.369.425-.734.853-1.107 1.274-.28.316-.63.349-.966.105-.362-.264-.43-.61-.148-.958.335-.413.696-.805 1.045-1.206.053-.061.127-.114.153-.185.028-.08.013-.175.016-.263-.095.014-.223-.006-.28.049-.237.23-.452.483-.676.728-.244.267-.486.536-.732.8-.243.26-.526.282-.8.066-.353-.278-.455-.591-.239-.879.272-.36.577-.695.872-1.037.308-.357.63-.703.927-1.07.063-.077.042-.222.06-.335-.107.032-.25.03-.314.1-.662.729-1.311 1.469-1.964 2.206-.306.344-.61.37-.937.081-.335-.296-.369-.675-.084-.998 1.01-1.145 2-2.308 3.045-3.42.311-.333.783-.51 1.167-.777.407-.283.847-.378 1.336-.342.188.014.288.072.366.237.13.272.28.533.424.798.484.898 1.944.532 2.215-.073.055-.124.037-.312-.014-.445-.08-.213-.217-.404-.32-.587z"/><path d="M10.151 18.675c.843-1.068 1.45-2.231 1.899-3.472.124-.344.258-.513.646-.442.37.067.714-.058 1.029-.259.6-.383 1.192-.782 1.808-1.14.232-.134.517-.228.783-.243.62-.035 1.245-.003 1.867-.015.31-.005.518.127.658.388.355.664.711 1.328 1.06 1.995.143.275.07.47-.206.621-.512.28-1.172.091-1.451-.42-.15-.272-.278-.558-.446-.819-.062-.096-.208-.138-.317-.203-.015-.008-.04.001-.06-.001-1.317-.162-2.279.54-3.11 1.396-.963.993-1.833 2.077-2.731 3.132-.157.184-.27.208-.468.072-.303-.209-.626-.387-.96-.59zM6.514 18.196l2.765-5.705c.08.04.143.064.2.1.795.489 1.588.981 2.384 1.468.131.08.216.15.154.33-.594 1.74-1.448 3.326-2.725 4.668-.134.141-.246.185-.441.103-.702-.298-1.413-.574-2.12-.86-.073-.028-.141-.067-.217-.104zM27.015 17.786c-.79.314-1.542.618-2.3.908-.068.026-.198-.017-.254-.074a6.147 6.147 0 0 1-.511-.591c-.954-1.256-1.648-2.655-2.284-4.126l2.65-1.677 2.699 5.56zM20.637 21.731c.002.369-.202.647-.506.752-.284.098-.5.004-.678-.234-.221-.296-.466-.575-.692-.868-.218-.282-.175-.56.113-.814.262-.23.562-.232.8.013.278.286.552.578.816.879.08.092.12.22.147.272zM22.062 20.787c.008.322-.207.614-.5.738-.268.113-.482.04-.67-.172-.165-.188-.344-.363-.513-.547-.21-.231-.222-.44-.046-.672.218-.286.515-.412.75-.253.322.217.613.48.908.734.052.046.06.143.07.172zM21.66 19.464c-.004-.383.228-.603.629-.6.43.004.879.39.875.753-.004.38-.293.71-.63.718-.425.01-.872-.435-.875-.871zM19.034 22.47c.003.272-.15.428-.392.502-.227.07-.452.106-.61-.148-.117-.186-.283-.35-.362-.55-.061-.153-.095-.412-.01-.508a.837.837 0 0 1 .563-.253c.288-.001.806.667.81.958z"/></g></svg>