<svg xmlns="http://www.w3.org/2000/svg" viewBox="0 0 40 40"><g fill="#FFF"><path d="M5.625 19.987V5.04c0-1.167.735-2.147 1.84-2.445.2-.054.41-.089.615-.089 5.525-.005 11.05-.004 16.574-.005h7.799c.866.001 1.581.507 1.827 1.305.06.2.09.416.09.625.007 2.23.005 4.458.005 6.687v20.686c0 .74-.315 1.303-.946 1.69-.014.009-.028.022-.043.025-.247.051-.274.216-.267.438.017.546.007 1.092.006 1.638a1.876 1.876 0 0 1-1.91 1.906H8.169c-1.437 0-2.542-1.102-2.543-2.54V19.988zm6.25 12.513v-.19-21.55-.15a.627.627 0 0 1 .557-.607.618.618 0 0 1 .671.475c.02.084.021.173.021.26V32.5h19.317c.425 0 .684-.259.684-.685V4.44c0-.436-.255-.69-.69-.69H8.197c-.08 0-.16 0-.237.012-.67.11-1.086.609-1.086 1.3v27.823c.039-.018.065-.028.089-.042.412-.24.854-.35 1.335-.347 1.137.01 2.274.003 3.412.003h.164zm20 1.25h-.19c-7.799 0-15.597.001-23.395-.003-.344 0-.636.109-.9.31-.43.327-.598.775-.474 1.25.148.57.637.943 1.243.943H31.23a.627.627 0 0 0 .644-.648c.002-.18 0-.359 0-.538V33.75z"/><path d="M19.424 17.6c.005-.063.01-.102.011-.142l.09-3.373c.018-.729.035-1.458.054-2.186.032-1.19 1.112-1.932 2.238-1.537l.071.022c.09-.457.315-.821.716-1.063.276-.166.576-.238.896-.214.561.042 1.21.4 1.39 1.266.148-.035.294-.08.443-.104.938-.148 1.83.588 1.865 1.538.007.186.001.373.001.565.19-.038.35-.084.513-.1a1.655 1.655 0 0 1 1.812 1.56c.077 1.163.175 2.325.24 3.49.088 1.575.173 3.152.22 4.729.035 1.117-.141 2.215-.594 3.243-.571 1.298-1.595 2.02-2.997 2.208a3.616 3.616 0 0 1-.474.025c-1.087.002-2.175-.016-3.261.006a4.21 4.21 0 0 1-2.577-.801c-1.814-1.285-3.007-2.987-3.379-5.207-.122-.734-.189-1.477-.276-2.217-.059-.496-.101-.994-.166-1.49a1.199 1.199 0 0 1 1.532-1.323c.591.171 1.091.487 1.497.95l.135.155zm-1.909.115c.003.046.003.07.006.095.043.401.083.803.13 1.204.09.765.16 1.533.28 2.293.136.844.408 1.65.892 2.365.54.798 1.173 1.515 1.985 2.052.49.324 1.017.552 1.618.553 1.192.003 2.383.006 3.575 0a2.452 2.452 0 0 0 2.285-1.573 6.55 6.55 0 0 0 .437-2.106c.052-1.209-.047-2.415-.111-3.62-.053-.982-.122-1.963-.187-2.943-.047-.711-.099-1.421-.152-2.132-.024-.31-.34-.487-.6-.342-.165.092-.215.242-.214.422.002 1.116.001 2.233 0 3.35 0 .09-.004.185-.028.271-.09.323-.384.49-.768.445a.625.625 0 0 1-.539-.61l-.128-4.16-.046-1.387a.394.394 0 0 0-.39-.39c-.214-.003-.381.16-.394.385-.003.05-.002.1-.002.15v5.3c0 .16-.017.315-.115.45a.627.627 0 0 1-.697.239c-.281-.084-.458-.31-.47-.622-.03-.803-.054-1.607-.081-2.41l-.149-4.36c-.006-.167-.108-.278-.255-.282-.151-.004-.265.11-.27.28-.052 1.491-.102 2.982-.152 4.472-.026.779-.05 1.557-.08 2.336a.624.624 0 0 1-.715.608c-.335-.045-.561-.314-.562-.671v-5.375c0-.058 0-.117-.01-.174a.387.387 0 0 0-.371-.327.384.384 0 0 0-.394.315c-.013.065-.014.132-.015.199a5746.834 5746.834 0 0 0-.208 8.158.325.325 0 0 0 .025.132c.26.606.694 1.039 1.321 1.244.265.087.553.103.832.145a.622.622 0 0 1-.057 1.237 2.368 2.368 0 0 1-.4-.015c-1.379-.188-2.344-.922-2.885-2.206-.266-.632-.515-1.272-.778-1.906-.219-.528-.603-.885-1.163-1.089zM11.875 6.863v-1.2c.001-.385.265-.663.628-.662.356.001.62.278.622.656v2.435c-.001.377-.267.657-.622.658-.361.002-.627-.279-.628-.664V6.863zM9.38 5c.208 0 .417-.002.624.001A.624.624 0 0 1 10 6.25c-.416.004-.832.004-1.248 0a.623.623 0 0 1-.007-1.247C8.956 4.998 9.168 5 9.38 5zM9.371 9.375c-.204 0-.407.002-.611 0a.624.624 0 1 1 0-1.249 84 84 0 0 1 1.236 0 .624.624 0 0 1 0 1.248c-.209.003-.417.001-.625.001zM9.38 14.376c.208 0 .416-.003.624 0A.624.624 0 0 1 10 15.624c-.416.003-.832.003-1.248 0a.623.623 0 0 1-.009-1.248c.213-.003.425 0 .637 0zM9.378 20.626c.208 0 .416-.003.624 0a.624.624 0 1 1 0 1.248c-.416.004-.832.003-1.248 0a.623.623 0 1 1 0-1.248c.208-.003.416 0 .624 0zM9.369 25c-.204 0-.408.002-.612 0a.624.624 0 1 1-.006-1.249 74.24 74.24 0 0 1 1.248 0A.625.625 0 0 1 9.993 25c-.208.003-.416.001-.624.001zM9.369 12.5c-.204 0-.408.002-.612 0a.624.624 0 1 1-.006-1.248c.416-.004.832-.004 1.248 0a.624.624 0 0 1-.006 1.248c-.208.002-.416 0-.624 0zM9.363 18.75c-.204 0-.408.002-.612 0a.624.624 0 0 1-.007-1.248c.42-.004.84-.004 1.26 0a.625.625 0 0 1-.006 1.248c-.211.002-.423 0-.635 0zM9.383 26.876c.208 0 .416-.003.624 0a.624.624 0 1 1 .002 1.248 59.85 59.85 0 0 1-1.273 0 .622.622 0 0 1-.61-.63.621.621 0 0 1 .608-.617c.217-.005.433-.001.65-.001zM9.384 30c.208 0 .416-.002.624.001a.624.624 0 1 1 0 1.248c-.42.004-.84.003-1.26 0a.623.623 0 0 1 0-1.248c.212-.003.424 0 .636 0z"/></g></svg>