<svg xmlns="http://www.w3.org/2000/svg" viewBox="0 0 40 40"><g fill="#E58700"><path d="M6.534 29.408H3v-5.587h1.695l5.731-13.23h1.839l5.922 13.23h1.743v5.587h-3.51V27.57H6.534v1.84zM18.02 25.85v1.934h.262v-2.196h-1.409l-5.468-12.56h-.143l-5.277 12.56H4.648v2.196h.262V25.85h13.11zm-6.663-12.297l5.182 12.035H6.295l5.039-12.035h.023zm-2.34 10.22h4.728l-2.411-6.041-2.317 6.04zM37 27.522h-4.37v-6.71h-5.158v6.71h-4.37V10.807h4.37v6.065h5.158v-6.065H37v16.715zm-11.605-1.624v-6.901h9.313v6.9h.238v-13.49h-.238v6.303h-9.313v-6.303h-.263v13.49h.263z"/></g></svg>