<svg xmlns="http://www.w3.org/2000/svg" viewBox="0 0 40 40"><g fill="#E58700"><path d="M18.484 19.636h2.04v1.897c-.39.287-.884.399-1.362.399h-6.968c-1.275 0-2.128-.766-2.128-2.065 0-1.802.422-4.568 2.758-4.568.127 0 .215.056.311.135.781.598 1.538.973 2.543.973 1.005 0 1.762-.375 2.543-.973.096-.08.183-.135.31-.135.678 0 1.276.255 1.73.765h-1.777c-.558 0-1.02.463-1.02 1.02v1.531c0 .559.462 1.02 1.02 1.02zm-5.867-6.888a3.062 3.062 0 0 1 6.122 0 3.062 3.062 0 0 1-6.122 0zm13.52 4.082c.135 0 .255.12.255.255v1.53c0 .136-.12.255-.255.255h-2.806v2.807c0 .135-.12.255-.255.255h-1.53a.263.263 0 0 1-.256-.255V18.87h-2.806a.263.263 0 0 1-.255-.255v-1.53c0-.136.12-.255.255-.255h2.806v-2.806c0-.136.12-.256.255-.256h1.53c.136 0 .256.12.256.256v2.806h2.806z"/><path d="M36.72 32.915l-7.212-7.214a14.78 14.78 0 0 0 2.607-8.393c0-8.182-6.624-14.808-14.807-14.808S2.5 9.126 2.5 17.308s6.625 14.807 14.808 14.807c2.986 0 5.932-.904 8.393-2.608l7.213 7.193c.485.506 1.18.8 1.894.8a2.684 2.684 0 0 0 2.692-2.692c0-.716-.294-1.41-.78-1.893zm-19.412-3.681c-6.56 0-11.878-5.318-11.878-11.878S10.748 5.478 17.308 5.478s11.878 5.318 11.878 11.878-5.318 11.878-11.878 11.878z"/></g></svg>