<svg version="1" xmlns="http://www.w3.org/2000/svg" width="157.333" height="157.333" viewBox="0 0 118.000000 118.000000"><path d="M49.5 1.4C29.3 6.2 15.7 23.6 15.6 44.5c0 14.3 5 25.3 15.5 34 2.6 2.2 4.5 4.4 4.2 4.9-.4.5-.1.6.5.2.6-.3 2.6.2 4.4 1.2 3 1.7 5.1 2.4 11.3 3.9 1.1.2 4.9.3 8.5.2 3.6-.1 7.9-.2 9.7-.3 1.7 0 3-.3 2.8-.6-.2-.4 1.3-1.2 3.3-2 11.4-4 22.9-16.8 26.1-28.8C109.5 29 89.6 1.4 61 .5c-3.6-.2-8.8.3-11.5.9zm25 12.8c5.8 3 12.3 9.6 15.6 16 1.9 3.5 2.3 5.9 2.3 13.3 0 12.4-1.6 17.2-8.2 23.9-9.9 10.3-23 13.7-35.7 9.3-3.8-1.3-4-1.6-4.1-5.6 0-3.4.2-4.1 1.5-3.5 12.7 5.4 23.2 4.3 31.4-3.5 2-1.9 4.6-5.4 5.7-7.6 2.2-4.6 4.1-14.5 2.9-14.5-.5 0-.9-1-.9-2.3 0-5.7-7.6-15.3-14.9-18.9-5.9-2.9-15.3-2.9-21-.1-2.2 1.1-4.1 1.8-4.2 1.4-.1-.3-.2-2.3-.3-4.3-.2-3.5 0-3.8 3.8-5.3 6.5-2.4 19.8-1.5 26.1 1.7zM33.7 44.4c-.1 16.3-.4 21.2-1.3 20.5-2-1.6-4.6-7.8-3.8-9.1.5-.7.3-.8-.6-.3-1 .6-1.2.1-.8-1.8.3-1.6.1-2.4-.5-2-.6.4-.8-2.6-.5-8.3.3-6.7 1-10 2.7-13.4 2.3-4.3 4-7 4.6-7 .2 0 .3 9.6.2 21.4zm31.6-13c6.4 2.7 10.2 9.5 9.2 16.1-.6 3.9-5.6 11.1-6.9 9.8-.3-.3-.6-.1-.6.6 0 .8-.8 1.1-2 .8-1.1-.3-1.8-.1-1.4.4.6 1-6.5 1.2-9 .3-.9-.3-1.3-1-1-1.5.3-.5-.1-.6-.8-.4-1.4.6-4.7-2.6-6.7-6.3-.6-1.2-1.1-4.6-1.1-7.7 0-4.8.3-5.7 2.3-6.5 1.2-.5 1.6-.9.8-.9-1.1-.1-1-.6.4-2.1 1-1.2 2.4-1.9 3.1-1.6.7.3 1.5-.2 1.8-1 .7-1.8 7.6-1.9 11.9 0zM36.5 88c-.3.6.1.7.9.4 1.8-.7 2.1-1.4.7-1.4-.6 0-1.3.4-1.6 1zm18.2 28.1c.7.7 1.5 1 1.8.7.3-.3-.2-.9-1.2-1.2-1.4-.6-1.5-.5-.6.5z"/></svg>