<svg xmlns="http://www.w3.org/2000/svg" viewBox="0 0 47.5 47.67"><defs><style>.cls-1{fill:#33042f;}.cls-2{fill:#ff9600;}</style></defs><title>1</title><g id="Слой_2" data-name="Слой 2"><g id="контент"><path class="cls-1" d="M.79,7.35,3.38,9.95c1.24,1.24,2.47,2.49,3.73,3.72a2.48,2.48,0,0,0,3.67,0q1.3-1.28,2.57-2.57a2.5,2.5,0,0,0,0-3.72q-3-3-6-6C7.22,1.25,7,1.19,6.88,1A10.55,10.55,0,0,1,14.27.49,11,11,0,0,1,22.2,12.66a1.06,1.06,0,0,0,.36,1Q33.95,25,45.31,36.37a6.52,6.52,0,1,1-9,9.38Q24.71,34.21,13.19,22.66a1.29,1.29,0,0,0-1.13-.43,11,11,0,0,1-12-10.92A10.07,10.07,0,0,1,.79,7.35ZM41,37.94a3.4,3.4,0,1,0,3.41,3.37A3.4,3.4,0,0,0,41,37.94Z"/><path class="cls-2" d="M33.72,21.53,32,19.75l.37-.39,12-12a3,3,0,0,0,.37-.4A.7.7,0,0,0,44.63,6a.7.7,0,0,0-.93-.16,3,3,0,0,0-.53.46L31.31,18.21a5.28,5.28,0,0,0-.4.51l-2-2,.39-.42L41.21,4.35A4.28,4.28,0,0,0,41.58,4a.71.71,0,0,0-.06-1,.73.73,0,0,0-1-.06,3.52,3.52,0,0,0-.39.38L28.19,15.15a3.39,3.39,0,0,0-.34.46L26,13.76l.3-.32C30.23,9.53,34.13,5.6,38.07,1.7A5.22,5.22,0,0,1,43.76.33a5.22,5.22,0,0,1,3.67,4.44A5.08,5.08,0,0,1,46,9.26c-4,4.08-8.11,8.12-12.17,12.18Z"/><path class="cls-2" d="M16.06,28.84l2.72,2.7a2.41,2.41,0,0,0-.42.28q-3.29,3.27-6.56,6.56a1.54,1.54,0,0,0-.37.69c-.2.82-.35,1.66-.55,2.49a.84.84,0,0,1-.31.47q-4.2,2.79-8.43,5.55L2,47.67c-.63-.65-1.3-1.31-1.92-2-.08-.09,0-.4.06-.54C1.45,43,2.82,41,4.18,38.91c.32-.48.67-.95.95-1.45a1.59,1.59,0,0,1,1.39-.95,5.78,5.78,0,0,0,4.05-2.16c1.63-1.79,3.41-3.45,5.12-5.16Z"/></g></g></svg>