<svg xmlns="http://www.w3.org/2000/svg" viewBox="0 0 58.5 47.67"><defs><style>.cls-1{fill:#33042f;}</style></defs><title>2</title><g id="Слой_2" data-name="Слой 2"><g id="контент"><path class="cls-1" d="M58.5,36.84c0,2.51-2.64,2.17-4.33,2.17a8.67,8.67,0,1,1-17.33,0h-13A8.67,8.67,0,1,1,6.5,39H4.33C2.64,39,0,39.34,0,36.84a2.18,2.18,0,0,1,2.17-2.17V23.84c0-2.4-.34-5.08,1.52-6.94l6.7-6.7a5.92,5.92,0,0,1,3.69-1.52H19.5V2.17A2.18,2.18,0,0,1,21.67,0H56.34A2.18,2.18,0,0,1,58.5,2.17Zm-39-15.17V13H14.15a2,2,0,0,0-.75.3l-6.6,6.6a2,2,0,0,0-.3.75v1Zm-4.33,13A4.33,4.33,0,1,0,19.5,39,4.36,4.36,0,0,0,15.17,34.67Zm30.34,0A4.33,4.33,0,1,0,49.84,39,4.36,4.36,0,0,0,45.5,34.67Z"/></g></g></svg>