<svg xmlns="http://www.w3.org/2000/svg" viewBox="0 0 52.43 47.67"><defs><style>.cls-1{fill:#ff9600;}.cls-2{fill:#33042f;}</style></defs><title>3</title><g id="Слой_2" data-name="Слой 2"><g id="контент"><path class="cls-1" d="M26.22,28.6V31H9.54V28.61H7.23a2.38,2.38,0,0,1-2.45-2.46q0-5.9,0-11.79A4.74,4.74,0,0,1,8.62,9.63a4.89,4.89,0,0,1,1-.09c3.82,0,7.64,0,11.45,0a4.56,4.56,0,0,1,4.09,2.29Q28,16.56,30.9,21.32a.57.57,0,0,1,.08.28q0,2.28,0,4.56a2.37,2.37,0,0,1-2,2.42,2.71,2.71,0,0,1-.45,0H26.22Zm-1.07-7.16-.08-.15-3.92-6.85a.25.25,0,0,0-.25-.14H14.32v7.14Z"/><path class="cls-1" d="M17.88,47.67H7.25A7,7,0,0,1,1.7,45.13a6.76,6.76,0,0,1-1.61-5.6,7,7,0,0,1,4.82-5.79,6.69,6.69,0,0,1,2.32-.36q10.65,0,21.3,0a7.15,7.15,0,0,1,1.61,14.12,8,8,0,0,1-1.66.17C24.94,47.68,21.41,47.67,17.88,47.67ZM7.16,42.9a2.38,2.38,0,1,0-2.38-2.38A2.38,2.38,0,0,0,7.16,42.9Zm7.15,0a2.38,2.38,0,1,0-2.38-2.38A2.38,2.38,0,0,0,14.3,42.9Zm7.15,0a2.38,2.38,0,1,0-2.38-2.38A2.38,2.38,0,0,0,21.45,42.9Zm7.15,0a2.38,2.38,0,1,0-2.39-2.38A2.38,2.38,0,0,0,28.61,42.9Z"/><path class="cls-2" d="M38.11,28.61h4.78c0,.18,0,.35.07.52a2.38,2.38,0,1,0,2.37-2.91A2.38,2.38,0,0,1,43,24.53a2.79,2.79,0,0,1-.1-.77q0-6.33,0-12.65a.48.48,0,0,1,.08-.26l4.56-6.49.12-.16v.25q0,8.62,0,17.25a.26.26,0,0,0,.2.29,6.94,6.94,0,0,1,4.5,5.77,7.14,7.14,0,0,1-14.13,2.07C38.17,29.43,38.15,29,38.11,28.61Z"/><path class="cls-1" d="M47.67,0,33.16,20.76a1.42,1.42,0,0,1-.07-.13,8.33,8.33,0,0,0-.92-1.71c-.29-.43-.53-.9-.79-1.36s-.5-.88-.75-1.32a.24.24,0,0,1,0-.31l4.67-6.61.14-.2,0,0-6.28,4.53A31.79,31.79,0,0,0,26.6,9.53l.15-.12,13-9.31A.54.54,0,0,1,40.06,0h7.61Z"/></g></g></svg>