<svg xmlns="http://www.w3.org/2000/svg" viewBox="0 0 41.1 57.2"><defs><style>.cls-1{fill:#33042f;}.cls-2{fill:#e58700;}</style></defs><title>4</title><g id="Слой_2" data-name="Слой 2"><g id="контент"><path class="cls-1" d="M12.31,27.59A4.07,4.07,0,0,0,15,30.77a13,13,0,0,0,11.31-.08,4,4,0,0,0,2.54-3.19c.68.12,1.35.2,2,.36A13.52,13.52,0,0,1,41,42.59a5.7,5.7,0,0,1-4.11,5.07,24.63,24.63,0,0,1-8,.79l.43-.53a5.18,5.18,0,0,0,1.06-5.1,4.14,4.14,0,0,0-.92-1.57c-1.24-1.33-2.56-2.6-3.85-3.89a1.83,1.83,0,0,0-2.91,0c-.38.38-.77.75-1.14,1.14s-.69.76-1.06,1.16a5.25,5.25,0,0,0-3.93-1.92,1.42,1.42,0,0,0-.86.32c-.54.45-1,1-1.65,1.57.77.73,1.48,1.43,2.23,2.1a.93.93,0,0,1,.26,1.17.9.9,0,0,1-1.07.54,1.34,1.34,0,0,1-.56-.32c-.7-.7-1.38-1.41-2.18-2.23-.62.66-1.19,1.25-1.73,1.86a.89.89,0,0,0-.13.57,5.37,5.37,0,0,0,3.61,4.93l.59.22c-1.8,0-3.46.06-5.12,0A31.63,31.63,0,0,1,5.63,48C1.94,47.34.2,45.29,0,41.56a13.61,13.61,0,0,1,11.66-14A5.14,5.14,0,0,1,12.31,27.59Z"/><path class="cls-2" d="M25.21,1.92a10.49,10.49,0,0,1,5.68,9.15c.26,0,.5.05.74.11a1.49,1.49,0,0,1,0,2.9,2.88,2.88,0,0,1-.73.08H10.19a3,3,0,0,1-.73-.08,1.49,1.49,0,0,1,0-2.89c.24-.06.49-.07.75-.11A10.47,10.47,0,0,1,15.9,1.94l.57,3.17c.09.51.17,1,.26,1.52s.44.85.92.78.74-.48.64-1.07c-.28-1.63-.54-3.25-.87-4.87a.81.81,0,0,1,.4-1A3.21,3.21,0,0,1,19.07,0a28.73,28.73,0,0,1,3,0,2.59,2.59,0,0,1,1.05.3,1,1,0,0,1,.59,1.25c-.34,1.57-.6,3.16-.84,4.75a1.27,1.27,0,0,0,.3.92.79.79,0,0,0,.78.06,1.35,1.35,0,0,0,.47-.8C24.68,5,24.93,3.55,25.21,1.92Z"/><path class="cls-2" d="M12.8,42.47c.57.6,1.12,1.19,1.68,1.76a2.09,2.09,0,0,0,3.21-2,1.56,1.56,0,0,0-.47-1.07c-.53-.48-1-1-1.53-1.5.63-.93.82-1,1.8-.71a4.31,4.31,0,0,1,3,5.18.88.88,0,0,0,.28,1q3.91,3.88,7.8,7.79a1.79,1.79,0,0,1,.53,1.91A1.73,1.73,0,0,1,27.7,56,1.85,1.85,0,0,1,26,55.4c-2.55-2.56-5.11-5.11-7.65-7.67a1,1,0,0,0-1.12-.36,4.31,4.31,0,0,1-5.07-2.84C11.77,43.43,11.79,43.38,12.8,42.47ZM27.37,53.38a.9.9,0,0,0-.85.9.86.86,0,0,0,.9.83.83.83,0,0,0,.83-.88A.87.87,0,0,0,27.37,53.38Z"/><path class="cls-1" d="M29.62,15.71h1.26c-.31,1.38-.53,2.72-.9,4a14.48,14.48,0,0,1-3.26,6c-3.71,4-8.78,4-12.41-.11a16.57,16.57,0,0,1-3.78-8.48c-.06-.33-.09-.65-.13-1a4.1,4.1,0,0,1,0-.41h1c.41,1.55.72,3.09,1.23,4.56a10.9,10.9,0,0,0,4,5.52,6.49,6.49,0,0,0,8-.13,12,12,0,0,0,4.23-6.54C29.17,18,29.36,16.9,29.62,15.71Z"/><path class="cls-2" d="M24.18,46.88,22,44.62l1.19-1.18c.68-.68.7-1.13.08-2l-.5.41c-.34-.36-.69-.7-1-1.07a.72.72,0,0,1,0-1.05c.59-.6,1.19-1.2,1.8-1.79a.71.71,0,0,1,1.05,0c.37.32.72.67,1.09,1l-.57.65a4.23,4.23,0,0,0,.69.28c1.53.32,2.41,1.52,3.21,2.64a3.56,3.56,0,0,1,.2,3.4,5.64,5.64,0,0,1-1.92,2.38,3.52,3.52,0,0,0-.43-.62c-.27-.25-.42-.48-.17-.83a.72.72,0,0,0,.13-.53,2.06,2.06,0,0,0-.48-1c-.16-.12-.71.09-1,.3A13.28,13.28,0,0,0,24.18,46.88Z"/><path class="cls-2" d="M14.66,57.2a4.36,4.36,0,0,1-.75-.46c-.66-.63-1.3-1.27-1.93-1.93a.89.89,0,0,1,0-1.49c.58-.52,1.27-.93,1.85-1.46,1-.88,1.85-1.83,2.77-2.74.69-.68.85-.69,1.51,0l1.66,1.67c.45.46.46.71,0,1.19-1,1-2,1.9-2.88,2.9-.55.59-1,1.27-1.52,1.89A3.3,3.3,0,0,1,14.66,57.2Z"/></g></g></svg>