<svg xmlns="http://www.w3.org/2000/svg" viewBox="0 0 17 9.92"><defs><style>.cls-1{fill:#bbb3bf}</style></defs><title>eye</title><g id="Слой_2" data-name="Слой 2"><path class="cls-1" d="M17 5l-.27.27a26.93 26.93 0 0 1-3.45 3.05 8.57 8.57 0 0 1-4.78 1.6 7.53 7.53 0 0 1-3.3-.75 10.32 10.32 0 0 1-2.41-1.51Q1.95 6.91.31 5.27L0 5a25.77 25.77 0 0 1 4.21-3.67A8 8 0 0 1 8.5 0q4.16 0 8.5 5zM8.5.71a7 7 0 0 0-3.67 1A20.43 20.43 0 0 0 1 5a25.51 25.51 0 0 0 3.34 3A7.33 7.33 0 0 0 8.5 9.21a7 7 0 0 0 3.12-.77 11.42 11.42 0 0 0 2.43-1.53q.86-.75 2-1.9a18.31 18.31 0 0 0-3.28-2.92A7.71 7.71 0 0 0 8.5.71zM11 7.46a3.41 3.41 0 0 1-2.5 1 3.41 3.41 0 0 1-2.5-1A3.41 3.41 0 0 1 5 5a3.41 3.41 0 0 1 1-2.5 3.41 3.41 0 0 1 2.5-1 3.41 3.41 0 0 1 2.5 1A3.41 3.41 0 0 1 12 5a3.41 3.41 0 0 1-1 2.46zM10.49 3a2.78 2.78 0 0 0-4 0 2.72 2.72 0 0 0-.84 2 2.72 2.72 0 0 0 .84 2 2.78 2.78 0 0 0 4 0 2.78 2.78 0 0 0 0-4zm-.57 2h.71A2.12 2.12 0 0 1 8.5 7.08 2.12 2.12 0 0 1 6.38 5 2.12 2.12 0 0 1 8.5 2.83v.71a1.42 1.42 0 0 0-1 .4 1.26 1.26 0 0 0-.44 1 1.43 1.43 0 0 0 .42 1 1.33 1.33 0 0 0 1 .44A1.44 1.44 0 0 0 9.92 5z" id="контент"/></g></svg>