<svg xmlns="http://www.w3.org/2000/svg" viewBox="0 0 168.38 74.42"><defs><style>.cls-1,.cls-2{fill:#fff}.cls-2{font-size:31.02px;font-family:MuseoSansCyrl-300,Museo Sans Cyrl}.cls-3{font-size:17.23px;font-family:MuseoSansCyrl-100,Museo Sans Cyrl;letter-spacing:.01em}</style></defs><title>logo</title><g id="Слой_2" data-name="Слой 2"><g id="контент"><path class="cls-1" d="M136 74.42a1.26 1.26 0 0 1-.63-.17l-7.62-4.4a1.26 1.26 0 1 1 1.25-2.19l7 4 29.87-17.24V19.24a1.26 1.26 0 1 1 2.53 0v35.94a1.26 1.26 0 0 1-.63 1.09l-31.13 18a1.26 1.26 0 0 1-.64.15z"/><path class="cls-1" d="M116.39 63.1a1.26 1.26 0 0 1-.64-.18l-11.52-6.65a1.26 1.26 0 0 1-.63-1.09V19.24a1.26 1.26 0 0 1 .63-1.09l31.13-18a1.26 1.26 0 0 1 1.26 0l19.15 11.06a1.26 1.26 0 1 1-1.26 2.19L136 2.72 106.12 20v34.45l9 5.2V25.89a1.26 1.26 0 0 1 2.34-.66l17.26 28.36V37.21a1.26 1.26 0 1 1 2.53 0V58.1a1.26 1.26 0 0 1-2.34.66L117.65 30.4v31.44a1.26 1.26 0 0 1-1.26 1.26z"/><path class="cls-1" d="M147.44 54a1.26 1.26 0 0 1-1.26-1.26V30.59a1.26 1.26 0 0 1 2.33-.67l7.74 12.4 9.69-23.57a1.26 1.26 0 1 1 2.34 1l-10.63 25.81a1.26 1.26 0 0 1-2.24.19L148.71 35v17.75a1.26 1.26 0 0 1-1.27 1.25z"/><text class="cls-2" transform="translate(0 39.92)">NODE<tspan class="cls-3"><tspan x="34.58" y="16.54">mining</tspan></tspan></text></g></g></svg>