<svg xmlns="http://www.w3.org/2000/svg" viewBox="0 0 165.25 74.42"><defs><style>.cls-1{fill:#fff}</style></defs><title>logo</title><g id="Слой_2" data-name="Слой 2"><g id="контент"><path class="cls-1" d="M132.85 74.42a1.26 1.26 0 0 1-.63-.17l-7.62-4.4a1.26 1.26 0 1 1 1.26-2.19l7 4 29.87-17.24V19.24a1.26 1.26 0 1 1 2.53 0v35.94a1.26 1.26 0 0 1-.63 1.09l-31.13 18a1.26 1.26 0 0 1-.65.15z"/><path class="cls-1" d="M113.25 63.1a1.26 1.26 0 0 1-.64-.18l-11.52-6.65a1.26 1.26 0 0 1-.63-1.09V19.24a1.26 1.26 0 0 1 .63-1.09l31.13-18a1.26 1.26 0 0 1 1.26 0l19.15 11.06a1.26 1.26 0 1 1-1.26 2.19L132.85 2.72 103 20v34.45l9 5.2V25.89a1.26 1.26 0 0 1 2.34-.66l17.26 28.36V37.21a1.26 1.26 0 1 1 2.53 0V58.1a1.26 1.26 0 0 1-2.34.66L114.52 30.4v31.44a1.26 1.26 0 0 1-1.26 1.26z"/><path class="cls-1" d="M144.31 54a1.26 1.26 0 0 1-1.31-1.25V30.59a1.26 1.26 0 0 1 2.33-.67l7.74 12.4 9.69-23.57a1.26 1.26 0 1 1 2.34 1l-10.58 25.81a1.26 1.26 0 0 1-2.24.19L145.57 35v17.75a1.26 1.26 0 0 1-1.26 1.25zM0 18.11h2.08l11.14 15.7C14 34.89 15 36.75 15 36.75h.06s-.19-1.8-.19-2.95V18.11H17v21.81h-2L3.82 24.22C3.07 23.13 2 21.27 2 21.27s.19 1.8.19 2.95v15.7H0zm32.95-.37a10.88 10.88 0 0 1 11.1 11.1c0 6.42-4.72 11.45-11.11 11.45a11.08 11.08 0 0 1-11.1-11.45 10.9 10.9 0 0 1 11.11-11.1zm0 20.54c5.12 0 8.87-4.09 8.87-9.43a8.87 8.87 0 1 0-17.74 0c-.01 5.33 3.78 9.42 8.87 9.42zm15.94-20.17h7c6.58 0 11 4 11 10.89s-4.37 10.92-11 10.92h-7zM55.68 38c5.37 0 8.93-3.13 8.93-9s-3.57-9-8.93-9H51v18zm16.11-19.89H84V20H73.92v8h8.28v1.9h-8.28V38h10.7v1.92H71.79zM32.95 47.84h.72v1.52a3.64 3.64 0 0 1-.07.71 3.85 3.85 0 0 1 3.31-2.43A2.39 2.39 0 0 1 39.67 50 3.75 3.75 0 0 1 43 47.63c2.22 0 2.88 1.31 2.88 3.36v5.46h-.72v-5.2c0-1.62-.33-2.95-2.15-2.95s-3.2 1.95-3.2 3.86v4.29H39v-5.2c0-1.48-.21-2.95-2.1-2.95s-3.27 2-3.27 3.86v4.29h-.72zM49 44.39h.86v1.26H49zm0 3.45h.72v8.61H49zm4 0h.72v1.52a3.59 3.59 0 0 1-.07.71 4 4 0 0 1 3.65-2.43c2.24 0 2.84 1.33 2.84 3.36v5.46h-.72v-5.2c0-1.5-.19-2.91-2.12-2.91a3.69 3.69 0 0 0-3.62 3.82v4.29H53zm10.29-3.45h.86v1.26h-.86zm.07 3.45h.72v8.61h-.72zm3.97 0h.72v1.52a3.64 3.64 0 0 1-.07.71 4 4 0 0 1 3.65-2.43c2.24 0 2.84 1.33 2.84 3.36v5.46h-.72v-5.2c0-1.5-.19-2.91-2.12-2.91a3.69 3.69 0 0 0-3.62 3.82v4.29h-.72zm13.2 11.53c1.84 0 3.27-.88 3.27-3v-1a3.6 3.6 0 0 1 .07-.71 3 3 0 0 1-2.89 1.76c-2.24 0-3.82-1.76-3.82-4.44s1.46-4.38 3.7-4.38a3.1 3.1 0 0 1 3 1.69.9.9 0 0 1-.06-.29v-1.16h.72v8.56c0 2.64-1.89 3.67-3.94 3.67a5.93 5.93 0 0 1-2.71-.67l.34-.64a5.22 5.22 0 0 0 2.32.61zm.47-3.62c1.52 0 2.83-.95 2.83-3.74s-1.31-3.67-3-3.67c-1.84 0-2.95 1.34-2.95 3.67s1.27 3.74 3.12 3.74z"/></g></g></svg>