<svg id="Layer_1" data-name="Layer 1" xmlns="http://www.w3.org/2000/svg" viewBox="0 0 557.5 358.5"><defs><style>.cls-1{opacity:.07}.cls-2{fill:#888}.cls-3{fill:#007e4d}</style></defs><title>gitter-sizes</title><path d="M366.39 149.07c1.55.45 1.92.81 1.72 2.35a15.22 15.22 0 0 1-1.1 3.7 2.09 2.09 0 0 1-1.28 1.09c-2 .45-2.25 2.13-2.39 3.65a17 17 0 0 0 .1 5.75 6 6 0 0 0 2.74 3.11 78.06 78.06 0 0 0 7.16 3.46c1.65.76 3.29 1.56 5 2.2a7.84 7.84 0 0 1 4.38 4.45 74.43 74.43 0 0 0 3.44 6.8c2 3.36 4.14 6.67 6.39 9.88a63.12 63.12 0 0 1 5.69 9.28 6.28 6.28 0 0 1 .35 4.63 42.52 42.52 0 0 1-4.27 10c-1.81 3.11-3.69 6.18-5.52 9.28-.38.64-.76.74-1.39.33-.85-.55-1.74-1-2.64-1.54-.73.88-1.43 1.76-2.17 2.6a3.72 3.72 0 0 1-4.22 1.2 26.32 26.32 0 0 0-3.38-.57c.26.78.42 1.25.57 1.73.76 2.46 1.53 4.93 2.23 7.41a1.12 1.12 0 0 1-.39 1c-1.1.35-1.07 1.08-1 2a122.5 122.5 0 0 1-.28 21.58c-.44 4.45-1 8.88-1.41 13.33A89 89 0 0 0 375 297a122.54 122.54 0 0 1 .78 20.27 13 13 0 0 1-.7 3.51 4.48 4.48 0 0 0 .22 3.58c.2.39.37.79.55 1.19 1 2.08.81 3-.72 4.46a33.62 33.62 0 0 0 2.41 4.63c1.11 1.53 1.39 3.58 3.22 4.7 1.2.74 1.35 2.22 1.11 3.55a1.7 1.7 0 0 1-1 1.07 15.12 15.12 0 0 1-3.21.54 33.68 33.68 0 0 1-5 .08 8.18 8.18 0 0 1-7.5-7.95 11.13 11.13 0 0 1 0-1.31c0-.66-.08-1-.87-1.18-1.2-.23-2.34-2.23-2-3.6.48-2.27 0-4.43-.3-6.68a61 61 0 0 1-.5-10c.14-5.27.59-10.53.85-15.8a15.18 15.18 0 0 0-.39-2.42 3.15 3.15 0 0 1 0-1.48 4.93 4.93 0 0 0 0-3.78 26.8 26.8 0 0 1-.78-4.39c-1.16-6.55-2.4-13.09-3.47-19.66-.59-3.61-.92-7.27-1.51-11-.08.4-.19.79-.25 1.19-1.36 9-4.27 17.66-6.55 26.45-.59 2.28-.91 4.63-1.43 6.93-.23 1-.66 2-1 3a2.08 2.08 0 0 0-.17 1c1.13 4.44.53 8.9.18 13.35-.56 7.25-1.1 14.5-1.68 21.75a9.55 9.55 0 0 1-.56 2.88 4 4 0 0 1-1.54 1.7 1.44 1.44 0 0 0-.8 1.46 16.75 16.75 0 0 1-.15 2.39 4 4 0 0 1-1.33 2.64 5.58 5.58 0 0 0-1.39 2.29 2.41 2.41 0 0 1-1.94 1.68 23.54 23.54 0 0 1-8.14.24c-.79-.08-1.58-.25-2.37-.38a1.11 1.11 0 0 1-1-1.37c.28-1.91.6-3.78 2.06-5.27a10 10 0 0 0 2.58-5.44c.13-.74.3-1.46.46-2.21-1.11-.62-1.44-1.45-.68-2.55a4.42 4.42 0 0 0 .67-3.4c-.42-3 .14-5.87.39-8.8.36-4.13.57-8.27.82-12.41a149.55 149.55 0 0 1 2.22-18.4 61.73 61.73 0 0 0 .5-14c-.26-5.88-.23-11.78-.13-17.67.06-3.66.47-7.32.77-11a1 1 0 0 0-.7-1.15c-1.56-.78-1.61-.82-1-2.46.72-2 1.55-4 2.33-6 .2-.5.37-1 .58-1.57-2.5-.9-5.55.1-7.43-2.55l-3.79 2.62c-.38-.73-.73-1.31-1-1.92a114.35 114.35 0 0 0-7.19-13.54 32.52 32.52 0 0 1-2-4.59c-.29-.71-.44-1.47-.77-2.15a5.93 5.93 0 0 1 .81-6.64c1.81-2.37 3.86-4.58 5.49-7.06 2.35-3.58 4.43-7.33 6.6-11 1.09-1.84 2.13-3.71 3.2-5.56a7.13 7.13 0 0 0 .74-1.2 5.38 5.38 0 0 1 3.37-3.34c3.13-1.27 6.29-2.47 9.44-3.71a22 22 0 0 0 2.81-1.19c1.6-.9 2.81-2.11 2.77-4.17v-7.51a5.21 5.21 0 0 1-4.4-5.31c0-1 .31-1.73 1.51-1.77a31.7 31.7 0 0 1 0-4.82c.56-3.55 2.13-6.61 5.41-8.4 4-2.2 9.06-.64 12.06 3.53a10.86 10.86 0 0 1 1.91 5.93c-.04 1.07-.09 2.15-.09 3.22zm-29.1 47c-3.58 3.74-7.06 7.4-10.56 11a1.36 1.36 0 0 0-.18 2 4.63 4.63 0 0 1 1 3.46 2.25 2.25 0 0 0 .53 1.34c1.94 2.67 3.93 5.3 5.88 8 .16.22.17.55.33.79s.41.63.64.64a4.08 4.08 0 0 0 1.69-.23c1.1-.45 2.14-1 3.1-1.49a19.43 19.43 0 0 1-1-3.38c-.31-2.51-.3-5.07-.63-7.58a93.59 93.59 0 0 1-.71-13.48c-.01-.33-.06-.68-.09-1.06zm39.43 1.47v.53a79.14 79.14 0 0 1-2 16.09 20.14 20.14 0 0 0-.51 7.46 1.37 1.37 0 0 0 .27.74 25.85 25.85 0 0 0 2.65 2.25 2 2 0 0 0 1.48.16c.32-.09.58-.59.76-1a11.37 11.37 0 0 1 .63-1.73c2.82-4 5.63-8.09 6.68-13a33.77 33.77 0 0 1-9.96-11.49z" class="cls-1"/><path d="M465.82 313.38a16.11 16.11 0 0 0 0 2.16 19.37 19.37 0 0 0 2.14 6.94 5.12 5.12 0 0 1-.29 5.64c-1.27 2-2.27 4.18-3.42 6.27a15.78 15.78 0 0 1-1.22 1.88 2.89 2.89 0 0 1-2.5 1.21c-1.09 0-2.18-.11-3.27-.23a1.19 1.19 0 0 1-1.14-.91 1.34 1.34 0 0 1 .59-1.36 8.61 8.61 0 0 1 2-1.3 5.63 5.63 0 0 0 3.23-3.61 11.18 11.18 0 0 0-.33-8.65c-1.11-2.56-2.48-5-3.79-7.49a17.82 17.82 0 0 1-3.14-11c0-.47-.12-.64-.58-.69a16.94 16.94 0 0 0-12.1 2.81 32.94 32.94 0 0 1-11.35 5.32c-.82.2-1.65.33-2.47.54a.75.75 0 0 0-.49.42 20.8 20.8 0 0 0-.36 2.55c-.16 2.51-.31 5-.4 7.54-.06 1.79 0 3.58 0 5.37 0 2.54-.06 5.08-.16 7.62a2.17 2.17 0 0 1-1.56 2.18 2.4 2.4 0 0 0-1.54 2.24c-.1.82-.18 1.64-.35 2.45a2.81 2.81 0 0 1-1.86 2.11 7.77 7.77 0 0 1-3.83.56c-1.54-.18-2.23-1.42-1.41-2.73a12 12 0 0 1 1.72-1.84 5.41 5.41 0 0 1 .7-.6 4.18 4.18 0 0 0 1.67-3.28c.14-1.78.17-3.57.27-5.36a48.93 48.93 0 0 0-.61-9.82.7.7 0 0 0-.19-.38c-.07.7-.16 1.4-.22 2.11s-.14 1.46-.16 2.19v4.33c0 1 .23 2.06.26 3.09a14.79 14.79 0 0 1-.18 2.33.57.57 0 0 1-.46.33.77.77 0 0 0-.9.62 16.43 16.43 0 0 0-.67 2.61 3.58 3.58 0 0 1-3.35 3.43 10.5 10.5 0 0 1-4.12 0c-.53-.13-.6-.4-.51-.87a4.08 4.08 0 0 1 1.66-2.48l1-.71a5.51 5.51 0 0 0 2.3-4.14 39.13 39.13 0 0 0-.33-9.83c-.3-2.17-.66-4.33-.9-6.5-.14-1.3-.09-2.61-.15-3.92s-.13-2.88-.22-4.31a3.41 3.41 0 0 0-1.07-2.12 7.68 7.68 0 0 1-1.62-2.7 23.25 23.25 0 0 1-1.69-7.54c0-.4-.18-.88.29-1.19 0 0 0-.22-.09-.3-2-3-2.73-6.44-4-9.72a23.28 23.28 0 0 0-1.68-3.71 4.1 4.1 0 0 0-4.64-2c-1.7.28-3.42.42-5.13.63a10.1 10.1 0 0 1-3.49-.09 3.89 3.89 0 0 1-2.9-2.22 4.68 4.68 0 0 0-1.52-1.92 1.3 1.3 0 0 1 .06-2.27 27.76 27.76 0 0 1 3.39-1.79c.86-.41 1.8-.66 2.66-1.06a2.55 2.55 0 0 0 1.51-2.17 3.13 3.13 0 0 1 1.48-2.23 14.52 14.52 0 0 1 6.54-2.53 11.6 11.6 0 0 1 5.69.29 15.26 15.26 0 0 1 8 6.83c.32.53.6 1.07.88 1.62a15.24 15.24 0 0 0 2.64 3.55 34.68 34.68 0 0 1 2.33 3 1.51 1.51 0 0 0 .48.4 7.58 7.58 0 0 0 3.54.66 17.6 17.6 0 0 1 6.64 1.52 15.86 15.86 0 0 0 7.7.81 41 41 0 0 1 4.73.06c2.42.06 4.85.13 7.27.22a59.4 59.4 0 0 1 13.76 2 14.34 14.34 0 0 0 1.77.2 74.9 74.9 0 0 0 13.39 1.14c2.76-.1 5.55-.05 8.22-.93a41 41 0 0 0 7-3.26 37 37 0 0 1 3.85-1.64.94.94 0 0 1 .29 0 13.27 13.27 0 0 1-7.07 6.94 41.07 41.07 0 0 1-9.46 3.16 28 28 0 0 1-6.84.32c-.77-.05-1.54 0-2.35 0 1.09 2.73 1.25 5.65 1.78 8.48a37.29 37.29 0 0 1 .35 5.23 22.29 22.29 0 0 0 .68 5.82 4.9 4.9 0 0 0 .42 1.07 41.43 41.43 0 0 1 2.9 6.57 15.82 15.82 0 0 0 3.71 5.38 4.18 4.18 0 0 1 1.26 4 25.68 25.68 0 0 0 .14 9.74 3.69 3.69 0 0 1-.94 3.56 1.46 1.46 0 0 0-.29 1 1.53 1.53 0 0 1-1.06 1.49 6 6 0 0 1-3 .32c-.88-.08-1.74-.29-2.61-.43-.36-.06-.48-.25-.52-.62a2.48 2.48 0 0 1 1-2.43 5.11 5.11 0 0 0 2-4.09c.09-1.36.18-2.72.22-4.09a6.91 6.91 0 0 0-2-5c-3.77-4.14-7.49-8.32-11.24-12.49-.08-.08-.14-.18-.2-.28z" class="cls-1"/><path class="cls-2" d="M198.47 205.74h16.97v.5h-16.97zM198.45 194.41h16.97v.5h-16.97zM182.36 116.41h33.08v.5h-33.08zM198.48 127.78h16.97v.5h-16.97zM198.48 250.14h16.97v.5h-16.97zM198.48 261.51h16.97v.5h-16.97zM198.48 328.55h16.97v.5h-16.97zM182.36 339.93h33.08v.5h-33.08zM197.46 305.69a2.57 2.57 0 0 0 .32-1.18c0-.75-.42-1.05-.83-1-.62 0-.88.58-.88 1.18v.46h-.72v-.44c0-.46-.21-1-.73-1-.35 0-.65.26-.65.83a2.09 2.09 0 0 0 .33 1.06l-.71.22a2.81 2.81 0 0 1-.4-1.5c0-1.07.59-1.62 1.27-1.62a1.27 1.27 0 0 1 1.22 1 1.31 1.31 0 0 1 1.3-1.14c.88 0 1.58.74 1.58 2a2.84 2.84 0 0 1-.36 1.46zM194.27 301.19l1.65-1.62-1.65-1.57.45-.45 1.65 1.62 1.63-1.67.45.45-1.65 1.62 1.65 1.62-.45.45-1.62-1.64-1.65 1.62zM198.48 296.84h-.6l-.57-.62c-1.14-1.22-1.76-1.8-2.45-1.81a.82.82 0 0 0-.87.93 1.89 1.89 0 0 0 .43 1.11l-.7.29a2.57 2.57 0 0 1-.54-1.6 1.54 1.54 0 0 1 1.58-1.71c.91 0 1.65.66 2.49 1.56l.39.46v-2.13h.82zM195.85 288.88c1.67 0 2.72.66 2.72 1.9s-1.09 1.84-2.67 1.85-2.7-.69-2.7-1.9 1.11-1.85 2.65-1.85zm0 2.75c1.26 0 1.92-.34 1.92-.89s-.7-.88-2-.88-1.92.29-1.92.88.74.9 2.05.89zM195.85 284.59c1.67 0 2.72.66 2.72 1.89s-1.09 1.84-2.67 1.85-2.7-.69-2.7-1.9 1.11-1.84 2.65-1.84zm0 2.75c1.26 0 1.92-.34 1.92-.89s-.7-.88-2-.88-1.92.29-1.92.88.74.9 2.05.89zM197.46 171.76a2.57 2.57 0 0 0 .32-1.18c0-.75-.42-1.06-.83-1-.62 0-.88.58-.88 1.17v.46h-.72v-.44c0-.46-.21-1-.73-1-.35 0-.65.26-.65.83a2.09 2.09 0 0 0 .33 1.06l-.71.22a2.8 2.8 0 0 1-.4-1.49c0-1.07.59-1.62 1.27-1.62a1.27 1.27 0 0 1 1.22 1 1.31 1.31 0 0 1 1.3-1.14c.88 0 1.58.74 1.58 2a2.83 2.83 0 0 1-.36 1.46zM194.27 167.25l1.65-1.62-1.65-1.63.45-.45 1.65 1.61 1.66-1.61.45.45-1.65 1.62 1.65 1.62-.45.45-1.66-1.62-1.65 1.62zM198.48 162.9h-.6l-.57-.62c-1.14-1.22-1.76-1.8-2.45-1.81a.82.82 0 0 0-.87.93 1.9 1.9 0 0 0 .43 1.11l-.7.29a2.57 2.57 0 0 1-.54-1.6 1.54 1.54 0 0 1 1.58-1.71c.91 0 1.65.66 2.49 1.56l.39.46v-2.13h.82zM195.85 154.94c1.67 0 2.72.66 2.72 1.89s-1.09 1.84-2.67 1.85-2.7-.69-2.7-1.9 1.11-1.84 2.65-1.84zm0 2.75c1.26 0 1.92-.34 1.92-.89s-.7-.88-2-.88-1.92.29-1.92.88.74.9 2.05.89zM195.85 150.66c1.67 0 2.72.66 2.72 1.9s-1.09 1.84-2.67 1.85-2.7-.69-2.7-1.9 1.11-1.85 2.65-1.85zm0 2.75c1.26 0 1.92-.34 1.92-.89s-.7-.88-2-.88-1.92.29-1.92.88.74.89 2.05.89zM182.36 236.65h-.6l-.57-.62c-1.14-1.22-1.76-1.8-2.45-1.81a.82.82 0 0 0-.87.93 1.89 1.89 0 0 0 .43 1.11l-.7.29a2.57 2.57 0 0 1-.54-1.6 1.54 1.54 0 0 1 1.58-1.71c.91 0 1.65.66 2.49 1.56l.39.46v-2.13h.82zM179.73 228.69c1.67 0 2.72.66 2.72 1.89s-1.09 1.84-2.67 1.85-2.7-.69-2.7-1.9 1.12-1.84 2.65-1.84zm0 2.75c1.26 0 1.92-.34 1.92-.89s-.7-.88-2-.88-1.92.29-1.92.88.75.9 2.05.89zM181.35 227.87a2.57 2.57 0 0 0 .32-1.18c0-.75-.42-1.05-.83-1-.62 0-.88.58-.88 1.18v.46h-.72v-.44c0-.46-.21-1-.73-1-.35 0-.65.26-.65.83a2.09 2.09 0 0 0 .33 1.06l-.71.22a2.81 2.81 0 0 1-.4-1.5c0-1.07.59-1.62 1.27-1.62a1.27 1.27 0 0 1 1.22 1 1.31 1.31 0 0 1 1.3-1.14c.88 0 1.58.74 1.58 2a2.84 2.84 0 0 1-.36 1.46zM179.73 220.11c1.67 0 2.72.66 2.72 1.89s-1.09 1.84-2.67 1.85-2.7-.69-2.7-1.9 1.12-1.84 2.65-1.84zm0 2.75c1.26 0 1.92-.34 1.92-.89s-.7-.88-2-.88-1.92.29-1.92.88.75.9 2.05.89zM198.48 238.8h-.6l-.57-.62c-1.14-1.22-1.76-1.8-2.45-1.81a.82.82 0 0 0-.87.93 1.89 1.89 0 0 0 .43 1.11l-.7.29a2.57 2.57 0 0 1-.54-1.6 1.54 1.54 0 0 1 1.58-1.71c.91 0 1.65.66 2.49 1.56l.39.46v-2.14h.82zM194.27 234.1l1.65-1.62-1.65-1.62.45-.45 1.65 1.61 1.66-1.61.45.45-1.65 1.62 1.65 1.62-.45.45-1.66-1.62-1.65 1.62zM198.48 229.74h-.6l-.57-.62c-1.14-1.22-1.76-1.8-2.45-1.81a.82.82 0 0 0-.87.93 1.9 1.9 0 0 0 .43 1.11l-.7.29a2.57 2.57 0 0 1-.54-1.6 1.54 1.54 0 0 1 1.58-1.71c.91 0 1.65.66 2.49 1.56l.39.46v-2.13h.82zM195.85 221.79c1.67 0 2.72.66 2.72 1.89s-1.09 1.84-2.67 1.85-2.7-.69-2.7-1.9 1.11-1.84 2.65-1.84zm0 2.75c1.26 0 1.92-.34 1.92-.89s-.7-.88-2-.88-1.92.29-1.92.88.74.9 2.05.89zM195.85 217.5c1.67 0 2.72.66 2.72 1.9s-1.09 1.84-2.67 1.85-2.7-.69-2.7-1.9 1.11-1.85 2.65-1.85zm0 2.75c1.26 0 1.92-.34 1.92-.89s-.7-.88-2-.88-1.92.29-1.92.88.74.9 2.05.89z"/><path class="cls-3" d="M215.45 341.49a.5.5 0 0 1-.5-.5v-1.83a.5.5 0 0 1 .12-.33l3.72-4.34-3.72-4.34a.5.5 0 0 1-.12-.33v-69.08a.5.5 0 0 1 .12-.33l3.72-4.34-3.72-4.34a.5.5 0 0 1-.12-.33V205a.5.5 0 0 1 .13-.34l3.71-4.06-3.73-4.6a.5.5 0 0 1-.11-.31V127a.5.5 0 0 1 .12-.33l3.72-4.34-3.72-4.33a.5.5 0 0 1-.12-.33V113a.5.5 0 0 1 1 0v4.48l3.88 4.53a.5.5 0 0 1 0 .65l-3.88 4.53v68.31l3.89 4.82a.5.5 0 0 1 0 .65l-3.87 4.23v46l3.88 4.53a.5.5 0 0 1 0 .65l-3.88 4.53v68.71l3.88 4.53a.5.5 0 0 1 0 .65l-3.88 4.53V341a.5.5 0 0 1-.52.49z"/><path class="cls-2" d="M200.9 130.25h.5v62.2h-.5z"/><path class="cls-2" d="M201.87 191.95l-.72 2.71-.73-2.71h1.45zM201.87 130.74l-.72-2.71-.73 2.71h1.45zM185.45 118.87h.5v219.09h-.5z"/><path class="cls-2" d="M186.42 337.47l-.72 2.71-.73-2.71h1.45zM186.42 119.37l-.72-2.71-.73 2.71h1.45zM200.9 208.21h.5v39.97h-.5z"/><path class="cls-2" d="M201.87 247.68l-.72 2.71-.73-2.71h1.45zM201.87 208.7l-.72-2.71-.73 2.71h1.45zM200.9 263.98h.5v62.61h-.5z"/><path class="cls-2" d="M201.87 326.1l-.72 2.71-.73-2.71h1.45zM201.87 264.47l-.72-2.71-.73 2.71h1.45z"/><circle class="cls-3" cx="214.35" cy="116.66" r=".65"/><circle class="cls-3" cx="217.97" cy="122.31" r=".65"/><circle class="cls-3" cx="214.35" cy="128.03" r=".65"/><circle class="cls-3" cx="214.38" cy="250.36" r=".65"/><circle class="cls-3" cx="214.38" cy="228.2" r=".65"/><circle class="cls-3" cx="214.38" cy="205.99" r=".65"/><circle class="cls-3" cx="214.38" cy="194.66" r=".65"/><circle class="cls-3" cx="214.38" cy="173.33" r=".65"/><circle class="cls-3" cx="214.36" cy="149.49" r=".65"/><circle class="cls-3" cx="218.1" cy="200.62" r=".65"/><circle class="cls-3" cx="218" cy="256.01" r=".65"/><circle class="cls-3" cx="214.38" cy="261.73" r=".65"/><circle class="cls-3" cx="214.38" cy="283.87" r=".65"/><circle class="cls-3" cx="214.38" cy="306.99" r=".65"/><circle class="cls-3" cx="214.38" cy="328.8" r=".65"/><circle class="cls-3" cx="218" cy="334.46" r=".65"/><circle class="cls-3" cx="214.38" cy="340.18" r=".65"/><path class="cls-2" d="M90.92 166.74h16.97v.5H90.92zM90.91 155.41h16.97v.5H90.91zM74.82 67.41h33.08v.5H74.82zM90.94 78.78h16.97v.5H90.94zM90.94 250.14h16.97v.5H90.94zM90.94 261.51h16.97v.5H90.94zM90.94 328.55h16.97v.5H90.94zM74.82 339.93h33.08v.5H74.82zM89.92 305.69a2.57 2.57 0 0 0 .32-1.18c0-.75-.42-1.05-.83-1-.62 0-.88.58-.88 1.18v.46h-.72v-.44c0-.46-.21-1-.73-1-.35 0-.65.26-.65.83a2.09 2.09 0 0 0 .33 1.06l-.71.22a2.81 2.81 0 0 1-.4-1.5c0-1.07.59-1.62 1.27-1.62a1.27 1.27 0 0 1 1.22 1 1.31 1.31 0 0 1 1.3-1.14c.88 0 1.58.74 1.58 2a2.84 2.84 0 0 1-.36 1.46zM86.73 301.19l1.65-1.62-1.65-1.57.45-.45 1.65 1.62 1.66-1.62.45.45-1.65 1.62 1.65 1.62-.45.45-1.66-1.69-1.65 1.62zM90.94 296.84h-.6l-.57-.62c-1.14-1.22-1.76-1.8-2.45-1.81a.82.82 0 0 0-.87.93 1.89 1.89 0 0 0 .43 1.11l-.7.29a2.57 2.57 0 0 1-.54-1.6 1.54 1.54 0 0 1 1.58-1.71c.91 0 1.65.66 2.49 1.56l.39.46v-2.13h.82zM88.31 288.88c1.67 0 2.72.66 2.72 1.9s-1.09 1.84-2.67 1.85-2.7-.69-2.7-1.9 1.11-1.85 2.65-1.85zm0 2.75c1.26 0 1.92-.34 1.92-.89s-.7-.88-2-.88-1.92.29-1.92.88.69.9 2.04.89zM88.31 284.59c1.67 0 2.72.66 2.72 1.89s-1.09 1.84-2.67 1.85-2.7-.69-2.7-1.9 1.11-1.84 2.65-1.84zm0 2.75c1.26 0 1.92-.34 1.92-.89s-.7-.88-2-.88-1.92.29-1.92.88.69.9 2.04.89zM90.34 127.76a2.57 2.57 0 0 0 .32-1.18c0-.75-.42-1.06-.83-1-.62 0-.88.58-.88 1.17v.46h-.72v-.44c0-.46-.21-1-.73-1-.35 0-.65.26-.65.83a2.09 2.09 0 0 0 .33 1.06l-.71.22a2.8 2.8 0 0 1-.4-1.49c0-1.07.59-1.62 1.27-1.62a1.27 1.27 0 0 1 1.22 1 1.31 1.31 0 0 1 1.3-1.14c.88 0 1.58.74 1.58 2a2.83 2.83 0 0 1-.36 1.46zM87.15 123.25l1.65-1.62-1.65-1.63.45-.45 1.65 1.61 1.66-1.61.45.45-1.65 1.62 1.65 1.62-.45.45-1.66-1.62-1.65 1.62zM91.36 118.9h-.6l-.57-.62c-1.14-1.22-1.76-1.8-2.45-1.81a.82.82 0 0 0-.87.93 1.9 1.9 0 0 0 .43 1.11l-.7.29a2.57 2.57 0 0 1-.54-1.6 1.54 1.54 0 0 1 1.58-1.71c.91 0 1.65.66 2.49 1.56l.39.46v-2.13h.82zM88.73 110.94c1.67 0 2.72.66 2.72 1.89s-1.09 1.84-2.67 1.85-2.7-.69-2.7-1.9 1.11-1.84 2.65-1.84zm0 2.75c1.26 0 1.92-.34 1.92-.89s-.7-.88-2-.88-1.92.29-1.92.88.74.9 2.05.89zM88.73 106.66c1.67 0 2.72.66 2.72 1.9s-1.09 1.84-2.67 1.85-2.7-.69-2.7-1.9 1.11-1.85 2.65-1.85zm0 2.75c1.26 0 1.92-.34 1.92-.89s-.7-.88-2-.88-1.92.29-1.92.88.74.89 2.05.89zM74.82 212.24h-.6l-.57-.62c-1.14-1.22-1.76-1.8-2.45-1.81a.82.82 0 0 0-.87.93 1.89 1.89 0 0 0 .43 1.11l-.7.29a2.57 2.57 0 0 1-.54-1.6 1.54 1.54 0 0 1 1.58-1.71c.91 0 1.65.66 2.49 1.56l.39.46v-2.13h.82zM74.82 205.79H73.5v2.35h-.64L69.62 206v-1.16h3.13v-.67h.74v.67h1.32zm-2.06 0h-2.32c.33.16.59.3.88.46l1.42 1zM73.8 203.47a2.57 2.57 0 0 0 .32-1.18c0-.75-.42-1.05-.83-1-.62 0-.88.58-.88 1.18v.46h-.72v-.44c0-.46-.21-1-.73-1-.35 0-.65.26-.65.83a2.09 2.09 0 0 0 .33 1.06l-.71.22a2.81 2.81 0 0 1-.4-1.5c0-1.07.59-1.62 1.27-1.62a1.27 1.27 0 0 1 1.22 1 1.31 1.31 0 0 1 1.3-1.14c.88 0 1.58.74 1.58 2a2.84 2.84 0 0 1-.36 1.46zM72.19 195.71c1.67 0 2.72.66 2.72 1.89s-1.09 1.84-2.67 1.85-2.7-.69-2.7-1.9 1.11-1.84 2.65-1.84zm0 2.75c1.26 0 1.92-.34 1.92-.89s-.7-.88-2-.88-1.92.29-1.92.88.74.9 2.05.89zM91.36 217.13H90v2.35h-.6l-3.24-2.12v-1.16h3.14v-.67h.7v.67h1.32zm-2.06 0h-2.32c.33.16.59.3.88.46l1.42 1zM87.15 214.6l1.66-1.6-1.65-1.62.45-.45 1.65 1.61 1.66-1.61.45.45-1.66 1.62 1.65 1.62-.45.45-1.66-1.62L87.6 215zM91.36 210.24h-.6l-.57-.62c-1.14-1.22-1.76-1.8-2.45-1.81a.82.82 0 0 0-.87.93 1.9 1.9 0 0 0 .43 1.11l-.7.29a2.57 2.57 0 0 1-.54-1.6 1.54 1.54 0 0 1 1.58-1.71c.91 0 1.65.66 2.49 1.56l.39.46v-2.13h.82zM88.73 202.29c1.67 0 2.72.66 2.72 1.89S90.36 206 88.78 206s-2.7-.69-2.7-1.9 1.11-1.81 2.65-1.81zm0 2.75c1.26 0 1.92-.34 1.92-.89s-.7-.88-2-.88-1.92.29-1.92.88.74.85 2.05.85zM88.73 198c1.67 0 2.72.66 2.72 1.9s-1.09 1.84-2.67 1.85-2.7-.69-2.7-1.9 1.11-1.85 2.65-1.85zm0 2.75c1.26 0 1.92-.34 1.92-.89s-.7-.88-2-.88-1.92.29-1.92.88.74.9 2.05.89z"/><path class="cls-3" d="M107.9 341.49a.5.5 0 0 1-.5-.5v-1.83a.5.5 0 0 1 .12-.33l3.72-4.34-3.72-4.34a.5.5 0 0 1-.12-.33v-69.08a.5.5 0 0 1 .12-.33l3.72-4.34-3.72-4.34a.5.5 0 0 1-.12-.33V166a.5.5 0 0 1 .13-.34l3.71-4.06-3.73-4.6a.5.5 0 0 1-.11-.31V78a.5.5 0 0 1 .12-.33l3.72-4.34-3.72-4.33a.5.5 0 0 1-.12-.33V64a.5.5 0 0 1 1 0v4.48l3.88 4.52a.5.5 0 0 1 0 .65l-3.88 4.53v78.31l3.89 4.82a.5.5 0 0 1 0 .65l-3.87 4.23v85l3.88 4.53a.5.5 0 0 1 0 .65l-3.88 4.53v68.71l3.88 4.53a.5.5 0 0 1 0 .65l-3.88 4.53V341a.5.5 0 0 1-.52.49z"/><path class="cls-2" d="M93.35 81.25h.5v72.2h-.5z"/><path class="cls-2" d="M94.33 152.95l-.73 2.71-.72-2.71h1.45zM94.33 81.74l-.73-2.71-.72 2.71h1.45zM77.9 69.87h.5v268.29h-.5z"/><path class="cls-2" d="M78.88 337.67l-.73 2.71-.72-2.71h1.45zM78.88 70.37l-.73-2.71-.72 2.71h1.45zM93.35 169.21h.5v78.97h-.5z"/><path class="cls-2" d="M94.33 247.68l-.73 2.71-.72-2.71h1.45zM94.33 169.7l-.73-2.71-.72 2.71h1.45zM93.35 263.98h.5v62.61h-.5z"/><path class="cls-2" d="M94.33 326.1l-.73 2.71-.72-2.71h1.45zM94.33 264.47l-.73-2.71-.72 2.71h1.45z"/><circle class="cls-3" cx="106.8" cy="67.66" r=".65"/><circle class="cls-3" cx="110.43" cy="73.31" r=".65"/><circle class="cls-3" cx="106.8" cy="79.03" r=".65"/><circle class="cls-3" cx="106.83" cy="250.36" r=".65"/><circle class="cls-3" cx="106.83" cy="222.57" r=".65"/><circle class="cls-3" cx="106.83" cy="166.99" r=".65"/><circle class="cls-3" cx="106.83" cy="194.78" r=".65"/><circle class="cls-3" cx="106.83" cy="155.66" r=".65"/><circle class="cls-3" cx="106.83" cy="130.12" r=".65"/><circle class="cls-3" cx="106.82" cy="104.58" r=".65"/><circle class="cls-3" cx="110.55" cy="161.62" r=".65"/><circle class="cls-3" cx="110.46" cy="256.01" r=".65"/><circle class="cls-3" cx="106.83" cy="261.73" r=".65"/><circle class="cls-3" cx="106.83" cy="283.87" r=".65"/><circle class="cls-3" cx="106.83" cy="306.99" r=".65"/><circle class="cls-3" cx="106.83" cy="328.8" r=".65"/><circle class="cls-3" cx="110.46" cy="334.46" r=".65"/><circle class="cls-3" cx="106.83" cy="340.18" r=".65"/><path class="cls-2" d="M36.15 126.74h16.97v.5H36.15zM36.14 115.41h16.97v.5H36.14zM20.05 17.41h33.08v.5H20.05zM36.16 28.78h16.97v.5H36.16zM36.16 230.14h16.97v.5H36.16zM36.16 241.51h16.97v.5H36.16zM36.16 328.55h16.97v.5H36.16zM20.05 339.93h33.08v.5H20.05zM36.16 293.73h-1.32v2.35h-.64L31 294v-1.2h3.1v-.67h.74v.67h1.32zm-2.06 0h-2.31c.33.16.59.3.88.46l1.42 1zM32 291.19l1.65-1.62L32 288l.45-.45 1.65 1.62 1.66-1.62.45.45-1.65 1.62 1.65 1.62-.45.45-1.7-1.69-1.65 1.62zM36.16 286.84h-.6l-.57-.62c-1.14-1.22-1.76-1.8-2.45-1.81a.82.82 0 0 0-.87.93 1.89 1.89 0 0 0 .43 1.11l-.7.29a2.57 2.57 0 0 1-.54-1.6 1.54 1.54 0 0 1 1.58-1.71c.91 0 1.65.66 2.49 1.56l.39.46v-2.13h.82zM33.53 278.88c1.67 0 2.72.66 2.72 1.9s-1.09 1.84-2.67 1.85-2.7-.69-2.7-1.9 1.12-1.85 2.65-1.85zm0 2.75c1.26 0 1.92-.34 1.92-.89s-.7-.88-2-.88-1.92.29-1.92.88.75.9 2.05.89zM33.53 274.59c1.67 0 2.72.66 2.72 1.89s-1.09 1.84-2.67 1.85-2.7-.69-2.7-1.9 1.12-1.84 2.65-1.84zm0 2.75c1.26 0 1.92-.34 1.92-.89s-.7-.88-2-.88-1.92.29-1.92.88.75.9 2.05.89zM36.59 80.79h-1.32v2.35h-.64L31.39 81v-1.14h3.13v-.67h.74v.67h1.32zm-2.06 0h-2.32c.33.16.59.3.88.46l1.42 1zM32.38 78.25L34 76.63 32.38 75l.45-.45 1.65 1.61 1.66-1.61.45.45-1.65 1.62 1.65 1.62-.45.45-1.66-1.62-1.65 1.62zM36.59 73.9H36l-.57-.62c-1.14-1.22-1.76-1.8-2.45-1.81a.82.82 0 0 0-.87.93 1.9 1.9 0 0 0 .43 1.11l-.7.29a2.57 2.57 0 0 1-.54-1.6 1.54 1.54 0 0 1 1.58-1.71c.91 0 1.65.66 2.49 1.56l.39.46v-2.13h.82zM34 65.94c1.67 0 2.72.66 2.72 1.89s-1.13 1.85-2.72 1.86-2.7-.69-2.7-1.9 1.12-1.85 2.7-1.85zm0 2.75c1.26 0 1.92-.34 1.92-.89s-.7-.88-2-.88-1.92.29-1.92.88.7.9 2 .89zM34 61.66c1.67 0 2.72.66 2.72 1.9S35.59 65.39 34 65.4s-2.7-.69-2.7-1.9 1.12-1.84 2.7-1.84zm0 2.75c1.26 0 1.92-.34 1.92-.89s-.7-.88-2-.88-1.92.29-1.92.88.7.89 2 .89zM21 187.24h-.6l-.57-.62c-1.14-1.22-1.76-1.8-2.45-1.81a.82.82 0 0 0-.87.93 1.89 1.89 0 0 0 .43 1.11l-.7.29a2.57 2.57 0 0 1-.54-1.6 1.54 1.54 0 0 1 1.58-1.71c.91 0 1.65.66 2.49 1.56l.39.46v-2.13H21zM20.34 182.56a2.6 2.6 0 0 0 0-.54 2 2 0 0 0-.4-1.06 1.92 1.92 0 0 0-1.15-.66 1.44 1.44 0 0 1 .46 1.13 1.54 1.54 0 0 1-1.63 1.57 1.84 1.84 0 0 1-1.85-1.88c0-1.21 1-1.86 2.21-1.86a3.21 3.21 0 0 1 2.41.9 2.86 2.86 0 0 1 .71 1.84 3.85 3.85 0 0 1 0 .59zm-2.78-.56a.86.86 0 0 0 1-.86 1 1 0 0 0-.43-.84.59.59 0 0 0-.28-.06c-.7 0-1.31.26-1.31.89s.39.87 1.02.87zM20 178.47a2.57 2.57 0 0 0 .32-1.18c0-.75-.42-1.05-.83-1-.62 0-.88.58-.88 1.18v.46h-.72v-.44c0-.46-.21-1-.73-1-.35 0-.65.26-.65.83a2.09 2.09 0 0 0 .33 1.06l-.71.22a2.81 2.81 0 0 1-.4-1.5c0-1.07.59-1.62 1.27-1.62a1.27 1.27 0 0 1 1.22 1 1.31 1.31 0 0 1 1.3-1.14c.88 0 1.58.74 1.58 2a2.84 2.84 0 0 1-.36 1.46zM18.42 170.71c1.67 0 2.72.66 2.72 1.89s-1.09 1.84-2.67 1.85-2.7-.69-2.7-1.9 1.11-1.84 2.65-1.84zm0 2.75c1.26 0 1.92-.34 1.92-.89s-.7-.88-2-.88-1.92.29-1.92.88.74.9 2.04.89zM32.21 186v2l1 .15a2.67 2.67 0 0 1 0-.38 2.32 2.32 0 0 1 .34-1.26 1.49 1.49 0 0 1 1.32-.68 1.9 1.9 0 0 1 1.8 2.1 3 3 0 0 1-.3 1.38l-.74-.2a2.63 2.63 0 0 0 .27-1.11 1 1 0 0 0-1-1.13c-.59 0-1 .44-1 1.48a4.57 4.57 0 0 0 0 .71l-2.62-.34V186zM32.38 184.6L34 183l-1.65-1.62.45-.45 1.65 1.61 1.66-1.61.45.45-1.62 1.62 1.65 1.62-.45.45-1.66-1.62-1.65 1.55zM36.59 180.24H36l-.57-.62c-1.14-1.22-1.76-1.8-2.45-1.81a.82.82 0 0 0-.87.93 1.9 1.9 0 0 0 .43 1.11l-.7.29a2.57 2.57 0 0 1-.54-1.6 1.54 1.54 0 0 1 1.58-1.71c.91 0 1.65.66 2.49 1.56l.39.46v-2.13h.82zM34 172.29c1.67 0 2.72.66 2.72 1.89S35.59 176 34 176s-2.7-.69-2.7-1.9 1.12-1.81 2.7-1.81zm0 2.71c1.26 0 1.92-.34 1.92-.89s-.7-.88-2-.88-1.92.29-1.92.88.7.89 2 .89zM34 168c1.67 0 2.72.66 2.72 1.9s-1.09 1.84-2.67 1.85-2.7-.69-2.7-1.9S32.42 168 34 168zm0 2.75c1.26 0 1.92-.34 1.92-.89s-.7-.88-2-.88-1.92.29-1.92.88.7.9 2 .89z"/><path class="cls-3" d="M53.13 341.49a.5.5 0 0 1-.5-.5v-1.83a.5.5 0 0 1 .12-.33l3.72-4.34-3.72-4.34a.5.5 0 0 1-.12-.33v-89.08a.5.5 0 0 1 .12-.33l3.72-4.34-3.72-4.34a.5.5 0 0 1-.12-.33V126a.5.5 0 0 1 .13-.34l3.71-4.06-3.73-4.6a.5.5 0 0 1-.11-.31V28a.5.5 0 0 1 .12-.33l3.72-4.34L52.75 19a.5.5 0 0 1-.12-.33V14a.5.5 0 0 1 1 0v4.48L57.51 23a.5.5 0 0 1 0 .65l-3.88 4.53v88.31l3.89 4.82a.5.5 0 0 1 0 .65l-3.87 4.23v105l3.88 4.53a.5.5 0 0 1 0 .65l-3.88 4.53v88.71l3.88 4.53a.5.5 0 0 1 0 .65l-3.88 4.53V341a.5.5 0 0 1-.52.49z"/><path class="cls-2" d="M38.58 31.25h.5v82.2h-.5z"/><path class="cls-2" d="M39.56 112.95l-.73 2.71-.73-2.71h1.46zM39.56 31.74l-.73-2.71-.73 2.71h1.46zM23.13 19.87h.5v318.29h-.5z"/><path class="cls-2" d="M24.11 337.67l-.73 2.71-.73-2.71h1.46zM24.11 20.37l-.73-2.71-.73 2.71h1.46zM38.58 129.21h.5v98.97h-.5z"/><path class="cls-2" d="M39.56 227.68l-.73 2.71-.73-2.71h1.46zM39.56 129.7l-.73-2.71-.73 2.71h1.46zM38.58 243.98h.5v82.61h-.5z"/><path class="cls-2" d="M39.56 326.1l-.73 2.71-.73-2.71h1.46zM39.56 244.47l-.73-2.71-.73 2.71h1.46z"/><circle class="cls-3" cx="52.03" cy="17.66" r=".65"/><circle class="cls-3" cx="55.65" cy="23.31" r=".65"/><circle class="cls-3" cx="52.03" cy="29.03" r=".65"/><circle class="cls-3" cx="52.06" cy="230.36" r=".65"/><circle class="cls-3" cx="52.06" cy="189.01" r=".65"/><circle class="cls-3" cx="52.06" cy="168.34" r=".65"/><circle class="cls-3" cx="52.06" cy="209.68" r=".65"/><circle class="cls-3" cx="52.06" cy="126.99" r=".65"/><circle class="cls-3" cx="52.06" cy="147.66" r=".65"/><circle class="cls-3" cx="52.06" cy="115.66" r=".65"/><circle class="cls-3" cx="52.06" cy="94" r=".65"/><circle class="cls-3" cx="52.06" cy="72.35" r=".65"/><circle class="cls-3" cx="52.05" cy="50.69" r=".65"/><circle class="cls-3" cx="55.78" cy="121.62" r=".65"/><circle class="cls-3" cx="55.69" cy="236.01" r=".65"/><circle class="cls-3" cx="52.06" cy="241.73" r=".65"/><circle class="cls-3" cx="52.06" cy="285.27" r=".65"/><circle class="cls-3" cx="52.06" cy="263.5" r=".65"/><circle class="cls-3" cx="52.06" cy="307.04" r=".65"/><circle class="cls-3" cx="52.06" cy="328.8" r=".65"/><circle class="cls-3" cx="55.69" cy="334.46" r=".65"/><circle class="cls-3" cx="52.06" cy="340.18" r=".65"/><path class="cls-2" d="M143.69 203.53h16.97v.5h-16.97zM143.68 192.2h16.97v.5h-16.97zM127.59 94.2h33.08v.5h-33.08zM143.71 105.57h16.97v.5h-16.97zM143.71 285.93h16.97v.5h-16.97zM143.71 297.3h16.97v.5h-16.97zM128.59 339.93h32.08v.5h-32.08zM143.71 329.51h-.6l-.57-.62c-1.14-1.22-1.76-1.8-2.45-1.81a.82.82 0 0 0-.87.93 1.89 1.89 0 0 0 .43 1.11l-.7.29a2.57 2.57 0 0 1-.54-1.6 1.54 1.54 0 0 1 1.58-1.71c.91 0 1.65.66 2.49 1.56l.39.46V326h.82zM139.5 324.81l1.65-1.62-1.65-1.62.45-.45 1.65 1.62 1.66-1.62.45.45-1.65 1.62 1.65 1.62-.45.45-1.66-1.62-1.65 1.62zM143.71 320.46h-.6l-.57-.62c-1.14-1.22-1.76-1.8-2.45-1.81a.82.82 0 0 0-.87.93 1.89 1.89 0 0 0 .43 1.11l-.7.29a2.57 2.57 0 0 1-.54-1.6A1.54 1.54 0 0 1 140 317c.91 0 1.65.66 2.49 1.56l.39.46v-2.13h.82zM141.08 312.5c1.67 0 2.72.66 2.72 1.9s-1.09 1.84-2.67 1.85-2.7-.69-2.7-1.9 1.11-1.85 2.65-1.85zm0 2.75c1.26 0 1.92-.34 1.92-.89s-.7-.88-2-.88-1.92.29-1.92.88.74.9 2.05.89zM141.08 308.21c1.67 0 2.72.66 2.72 1.89s-1.09 1.84-2.67 1.85-2.7-.69-2.7-1.9 1.11-1.84 2.65-1.84zm0 2.75c1.26 0 1.92-.34 1.92-.89s-.7-.88-2-.88-1.92.29-1.92.88.74.93 2.05.93zM144.13 157.58h-1.32v2.35h-.64l-3.24-2.12v-1.16h3.13V156h.74v.67h1.32zm-2.06 0h-2.32c.33.16.59.3.88.46l1.42 1zM139.93 155l1.65-1.62-1.65-1.62.45-.45L142 153l1.66-1.61.45.45-1.65 1.62 1.65 1.62-.45.45-1.66-1.66-1.65 1.62zM144.13 150.69h-.6l-.57-.62c-1.14-1.22-1.76-1.8-2.45-1.81a.82.82 0 0 0-.87.93 1.9 1.9 0 0 0 .43 1.11l-.7.29a2.57 2.57 0 0 1-.54-1.6 1.54 1.54 0 0 1 1.58-1.71c.91 0 1.65.66 2.49 1.56l.39.46v-2.13h.82zM141.5 142.73c1.67 0 2.72.66 2.72 1.89s-1.09 1.84-2.67 1.85-2.7-.69-2.7-1.9 1.15-1.84 2.65-1.84zm0 2.75c1.26 0 1.92-.34 1.92-.89s-.7-.88-2-.88-1.92.29-1.92.88.75.9 2.05.89zM141.5 138.44c1.67 0 2.72.66 2.72 1.9s-1.09 1.84-2.67 1.85-2.7-.69-2.7-1.9 1.15-1.85 2.65-1.85zm0 2.75c1.26 0 1.92-.34 1.92-.89s-.7-.88-2-.88-1.92.29-1.92.88.75.9 2.05.9zM128.59 225.57H128l-.57-.62c-1.14-1.22-1.76-1.8-2.45-1.81a.82.82 0 0 0-.87.93 1.89 1.89 0 0 0 .43 1.11l-.7.29a2.57 2.57 0 0 1-.54-1.6 1.54 1.54 0 0 1 1.58-1.71c.91 0 1.65.66 2.49 1.56l.39.46V222h.82zM128.59 219.12h-1.32v2.35h-.64l-3.24-2.12v-1.16h3.13v-.67h.74v.67h1.32zm-2.06 0h-2.32c.33.16.59.3.88.46l1.42 1zM127.57 216.8a2.57 2.57 0 0 0 .32-1.18c0-.75-.42-1.05-.83-1-.62 0-.88.58-.88 1.18v.46h-.72v-.44c0-.46-.21-1-.73-1-.35 0-.65.26-.65.83a2.09 2.09 0 0 0 .33 1.06l-.71.22a2.81 2.81 0 0 1-.4-1.5c0-1.07.59-1.62 1.27-1.62a1.27 1.27 0 0 1 1.22 1 1.31 1.31 0 0 1 1.3-1.14c.88 0 1.58.74 1.58 2a2.84 2.84 0 0 1-.36 1.46zM126 209c1.67 0 2.72.66 2.72 1.89s-1.09 1.84-2.67 1.85-2.7-.69-2.7-1.9S124.42 209 126 209zm0 2.75c1.26 0 1.92-.34 1.92-.89s-.7-.88-2-.88-1.92.29-1.92.88.7.94 2 .93zM144.13 263.93h-1.32v2.35h-.64l-3.24-2.12V263h3.13v-.67h.74v.67h1.32zm-2.06 0h-2.32c.33.16.59.3.88.46l1.42 1zM139.93 261.39l1.65-1.62-1.65-1.62.45-.45 1.65 1.61 1.66-1.61.45.45-1.65 1.62 1.65 1.62-.45.45-1.69-1.63-1.65 1.62zM144.13 257h-.6l-.57-.62c-1.14-1.22-1.76-1.8-2.45-1.81a.82.82 0 0 0-.87.93 1.9 1.9 0 0 0 .43 1.11l-.7.29a2.57 2.57 0 0 1-.54-1.6 1.54 1.54 0 0 1 1.58-1.71c.91 0 1.65.66 2.49 1.56l.39.46v-2.13h.82zM141.5 249.08c1.67 0 2.72.66 2.72 1.89s-1.09 1.84-2.67 1.85-2.7-.69-2.7-1.9 1.15-1.84 2.65-1.84zm0 2.75c1.26 0 1.92-.34 1.92-.89s-.7-.88-2-.88-1.92.29-1.92.88.75.9 2.05.89zM141.5 244.79c1.67 0 2.72.66 2.72 1.9s-1.09 1.84-2.67 1.85-2.7-.69-2.7-1.9 1.15-1.85 2.65-1.85zm0 2.75c1.26 0 1.92-.34 1.92-.89s-.7-.88-2-.88-1.92.29-1.92.88.75.9 2.05.89z"/><path class="cls-3" d="M160.67 341.49a.5.5 0 0 1-.5-.5v-44.46a.5.5 0 0 1 .12-.33l3.72-4.34-3.72-4.34a.5.5 0 0 1-.12-.33v-84.41a.5.5 0 0 1 .13-.34l3.71-4.06-3.73-4.62a.5.5 0 0 1-.11-.31v-88.67a.5.5 0 0 1 .12-.33l3.72-4.34-3.72-4.34a.5.5 0 0 1-.12-.33v-4.66a.5.5 0 1 1 1 0v4.48l3.88 4.53a.5.5 0 0 1 0 .65l-3.88 4.56v88.31l3.89 4.82a.5.5 0 0 1 0 .65l-3.89 4.22v84l3.88 4.52a.5.5 0 0 1 0 .65l-3.88 4.53V341a.5.5 0 0 1-.5.49z"/><path class="cls-2" d="M146.12 108.04h.5v82.2h-.5z"/><path class="cls-2" d="M147.1 189.74l-.73 2.71-.72-2.71h1.45zM147.1 108.53l-.73-2.71-.72 2.71h1.45zM130.67 96.66h.5v241.37h-.5z"/><path class="cls-2" d="M131.65 337.53l-.73 2.71-.72-2.71h1.45zM131.65 97.16l-.73-2.71-.72 2.71h1.45zM146.12 206h.5v77.97h-.5z"/><path class="cls-2" d="M147.1 283.47l-.73 2.71-.72-2.71h1.45zM147.1 206.49l-.73-2.71-.72 2.71h1.45zM146.12 299.77h.5v38.26h-.5z"/><path class="cls-2" d="M147.1 337.53l-.73 2.71-.72-2.71h1.45zM147.1 300.26l-.73-2.71-.72 2.71h1.45z"/><circle class="cls-3" cx="159.57" cy="94.45" r=".65"/><circle class="cls-3" cx="163.2" cy="100.1" r=".65"/><circle class="cls-3" cx="159.57" cy="105.82" r=".65"/><circle class="cls-3" cx="159.6" cy="286.15" r=".65"/><circle class="cls-3" cx="159.6" cy="265.8" r=".65"/><circle class="cls-3" cx="159.6" cy="245.13" r=".65"/><circle class="cls-3" cx="159.6" cy="286.47" r=".65"/><circle class="cls-3" cx="159.6" cy="203.78" r=".65"/><circle class="cls-3" cx="159.6" cy="224.45" r=".65"/><circle class="cls-3" cx="159.6" cy="192.45" r=".65"/><circle class="cls-3" cx="159.6" cy="170.79" r=".65"/><circle class="cls-3" cx="159.6" cy="149.14" r=".65"/><circle class="cls-3" cx="159.59" cy="127.48" r=".65"/><circle class="cls-3" cx="163.32" cy="198.41" r=".65"/><circle class="cls-3" cx="163.23" cy="291.8" r=".65"/><circle class="cls-3" cx="159.6" cy="297.52" r=".65"/><circle class="cls-3" cx="159.6" cy="318.88" r=".65"/><circle class="cls-3" cx="159.6" cy="340.24" r=".65"/><path class="cls-2" d="M236.13 149.38h33.08v.5h-33.08zM252.25 160.6h16.97v.5h-16.97zM252.25 250.14h16.97v.5h-16.97zM252.25 261.51h16.97v.5h-16.97zM252.25 328.55h16.97v.5h-16.97zM236.13 339.93h33.08v.5h-33.08zM251.24 305.69a2.57 2.57 0 0 0 .32-1.18c0-.75-.42-1.05-.83-1-.62 0-.88.58-.88 1.18v.46h-.72v-.44c0-.46-.21-1-.73-1-.35 0-.65.26-.65.83a2.09 2.09 0 0 0 .33 1.06l-.71.22a2.81 2.81 0 0 1-.4-1.5c0-1.07.59-1.62 1.27-1.62a1.27 1.27 0 0 1 1.22 1 1.31 1.31 0 0 1 1.3-1.14c.88 0 1.58.74 1.58 2a2.84 2.84 0 0 1-.36 1.46zM248 301.19l1.65-1.62L248 298l.45-.45 1.65 1.62 1.66-1.62.45.45-1.65 1.62 1.65 1.62-.45.45-1.61-1.69-1.65 1.62zM252.25 296.84h-.6l-.57-.62c-1.14-1.22-1.76-1.8-2.45-1.81a.82.82 0 0 0-.87.93 1.89 1.89 0 0 0 .43 1.11l-.7.29a2.57 2.57 0 0 1-.54-1.6 1.54 1.54 0 0 1 1.58-1.71c.91 0 1.65.66 2.49 1.56l.39.46v-2.13h.82zM249.62 288.88c1.67 0 2.72.66 2.72 1.9s-1.09 1.84-2.67 1.85-2.7-.69-2.7-1.9 1.12-1.85 2.65-1.85zm0 2.75c1.26 0 1.92-.34 1.92-.89s-.7-.88-2-.88-1.92.29-1.92.88.75.9 2.05.89zM249.62 284.59c1.67 0 2.72.66 2.72 1.89s-1.09 1.84-2.67 1.85-2.7-.69-2.7-1.9 1.12-1.84 2.65-1.84zm0 2.75c1.26 0 1.92-.34 1.92-.89s-.7-.88-2-.88-1.92.29-1.92.88.75.9 2.05.89zM231.83 251.59l.48 1-.74.17-.62-1.26v-.82h5.2v1zM230.94 245.27h.63l4.57 2.2v1l-4.37-2.19v2.45h-.82zM235.12 244.35a2.57 2.57 0 0 0 .32-1.18c0-.75-.42-1.05-.83-1-.62 0-.88.58-.88 1.18v.46H233v-.44c0-.46-.21-1-.73-1-.35 0-.65.26-.65.83a2.09 2.09 0 0 0 .33 1.06l-.71.22a2.81 2.81 0 0 1-.4-1.5c0-1.07.59-1.62 1.27-1.62a1.27 1.27 0 0 1 1.22 1 1.31 1.31 0 0 1 1.3-1.14c.88 0 1.58.74 1.58 2a2.84 2.84 0 0 1-.36 1.46zM233.5 236.6c1.67 0 2.72.66 2.72 1.89s-1.09 1.84-2.67 1.85-2.7-.69-2.7-1.9 1.15-1.84 2.65-1.84zm0 2.75c1.26 0 1.92-.34 1.92-.89s-.7-.88-2-.88-1.92.29-1.92.88.75.89 2.05.89zM252.25 214.06h-1.32v2.35h-.64l-3.24-2.12v-1.16h3.13v-.67h.74v.67h1.32zm-2.06 0h-2.32c.33.16.59.3.88.46l1.42 1zM248 211.53l1.65-1.62-1.65-1.62.45-.45 1.65 1.61 1.66-1.61.45.45-1.65 1.62 1.65 1.62-.45.45-1.66-1.62-1.61 1.64zM252.25 207.17h-.6l-.57-.62c-1.14-1.22-1.76-1.8-2.45-1.81a.82.82 0 0 0-.87.93 1.9 1.9 0 0 0 .43 1.11l-.7.29a2.57 2.57 0 0 1-.54-1.6 1.54 1.54 0 0 1 1.58-1.71c.91 0 1.65.66 2.49 1.56l.39.46v-2.13h.82zM249.62 199.22c1.67 0 2.72.66 2.72 1.89s-1.09 1.84-2.67 1.85-2.7-.69-2.7-1.9 1.12-1.84 2.65-1.84zm0 2.75c1.26 0 1.92-.34 1.92-.89s-.7-.88-2-.88-1.92.29-1.92.88.75.92 2.05.92zM249.62 194.93c1.67 0 2.72.66 2.72 1.9s-1.09 1.84-2.67 1.85-2.7-.69-2.7-1.9 1.12-1.85 2.65-1.85zm0 2.75c1.26 0 1.92-.34 1.92-.89s-.7-.88-2-.88-1.92.29-1.92.88.75.9 2.05.89z"/><path class="cls-3" d="M269.12 341.49a.5.5 0 0 1-.5-.5v-1.81a.5.5 0 0 1 .12-.33l3.72-4.28-3.72-4.28a.5.5 0 0 1-.12-.33v-69.32a.5.5 0 0 1 .12-.33l3.72-4.28-3.72-4.28a.5.5 0 0 1-.12-.33l.09-91.6a.5.5 0 0 1 .12-.33l3.72-4.28-3.72-4.28a.5.5 0 0 1-.12-.33V146a.5.5 0 0 1 1 0v4.42l3.88 4.46a.5.5 0 0 1 0 .66l-3.87 4.46-.09 91.23 3.88 4.46a.5.5 0 0 1 0 .66l-3.88 4.46v69l3.88 4.46a.5.5 0 0 1 0 .66l-3.88 4.46V341a.5.5 0 0 1-.51.49z"/><path class="cls-2" d="M239.22 151.84h.5v186.12h-.5z"/><path class="cls-2" d="M240.19 337.47l-.72 2.71-.73-2.71h1.45zM240.19 152.34l-.72-2.71-.73 2.71h1.45zM254.67 163.07h.5v85.11h-.5z"/><path class="cls-2" d="M255.65 247.68l-.73 2.71-.73-2.71h1.46zM255.65 163.56l-.73-2.71-.73 2.71h1.46zM254.67 263.98h.5v62.61h-.5z"/><path class="cls-2" d="M255.64 326.1l-.72 2.71-.73-2.71h1.45zM255.64 264.47l-.72-2.71-.73 2.71h1.45z"/><ellipse class="cls-3" cx="268.12" cy="149.63" rx=".65" ry=".64"/><ellipse class="cls-3" cx="271.74" cy="155.21" rx=".65" ry=".64"/><ellipse class="cls-3" cx="268.12" cy="160.85" rx=".65" ry=".64"/><circle class="cls-3" cx="268.15" cy="250.36" r=".65"/><circle class="cls-3" cx="268.15" cy="228.2" r=".65"/><ellipse class="cls-3" cx="268.15" cy="205.54" rx=".65" ry=".64"/><ellipse class="cls-3" cx="268.14" cy="182.03" rx=".65" ry=".64"/><circle class="cls-3" cx="271.77" cy="256.01" r=".65"/><circle class="cls-3" cx="268.15" cy="261.73" r=".65"/><circle class="cls-3" cx="268.15" cy="283.87" r=".65"/><circle class="cls-3" cx="268.15" cy="306.99" r=".65"/><circle class="cls-3" cx="268.15" cy="328.8" r=".65"/><circle class="cls-3" cx="271.77" cy="334.46" r=".65"/><circle class="cls-3" cx="268.15" cy="340.18" r=".65"/><path class="cls-2" d="M289.91 168.13h33.08v.5h-33.08zM306.02 179.36h16.97v.5h-16.97zM306.02 250.14h16.97v.5h-16.97zM306.02 261.51h16.97v.5h-16.97zM306.02 328.55h16.97v.5h-16.97zM289.91 339.93h33.08v.5h-33.08zM305 305.69a2.57 2.57 0 0 0 .32-1.18c0-.75-.42-1.05-.83-1-.62 0-.88.58-.88 1.18v.46h-.72v-.44c0-.46-.21-1-.73-1-.35 0-.65.26-.65.83a2.09 2.09 0 0 0 .33 1.06l-.71.22a2.81 2.81 0 0 1-.4-1.5c0-1.07.59-1.62 1.27-1.62a1.27 1.27 0 0 1 1.22 1 1.31 1.31 0 0 1 1.3-1.14c.88 0 1.58.74 1.58 2a2.84 2.84 0 0 1-.36 1.46zM301.82 301.19l1.65-1.62-1.65-1.57.45-.45 1.65 1.62 1.66-1.62.45.45-1.65 1.62 1.65 1.62-.45.45-1.66-1.69-1.65 1.62zM306 296.84h-.6l-.57-.62c-1.14-1.22-1.76-1.8-2.45-1.81a.82.82 0 0 0-.87.93 1.89 1.89 0 0 0 .43 1.11l-.7.29a2.57 2.57 0 0 1-.54-1.6 1.54 1.54 0 0 1 1.58-1.71c.91 0 1.65.66 2.49 1.56l.39.46v-2.13h.84zM303.39 288.88c1.67 0 2.72.66 2.72 1.9s-1.09 1.84-2.67 1.85-2.7-.69-2.7-1.9 1.12-1.85 2.65-1.85zm0 2.75c1.26 0 1.92-.34 1.92-.89s-.7-.88-2-.88-1.92.29-1.92.88.75.9 2.05.89zM303.39 284.59c1.67 0 2.72.66 2.72 1.89s-1.09 1.84-2.67 1.85-2.7-.69-2.7-1.9 1.12-1.84 2.65-1.84zm0 2.75c1.26 0 1.92-.34 1.92-.89s-.7-.88-2-.88-1.92.29-1.92.88.75.9 2.05.89zM285.6 251.59l.48 1-.74.17-.62-1.26v-.82h5.2v1zM285.53 245.54v2l1 .15a2.67 2.67 0 0 1 0-.38 2.32 2.32 0 0 1 .34-1.26 1.49 1.49 0 0 1 1.32-.68 1.9 1.9 0 0 1 1.8 2.1 3 3 0 0 1-.3 1.38l-.74-.2a2.63 2.63 0 0 0 .27-1.14 1 1 0 0 0-1-1.13c-.59 0-1 .44-1 1.48a4.57 4.57 0 0 0 0 .71l-2.62-.34v-2.69zM288.89 244.35a2.57 2.57 0 0 0 .32-1.18c0-.75-.42-1.05-.83-1-.62 0-.88.58-.88 1.18v.46h-.72v-.44c0-.46-.21-1-.73-1-.35 0-.65.26-.65.83a2.09 2.09 0 0 0 .33 1.06l-.71.22a2.81 2.81 0 0 1-.4-1.5c0-1.07.59-1.62 1.27-1.62a1.27 1.27 0 0 1 1.22 1 1.31 1.31 0 0 1 1.3-1.14c.88 0 1.58.74 1.58 2a2.84 2.84 0 0 1-.36 1.46zM287.28 236.6c1.67 0 2.72.66 2.72 1.89s-1.09 1.84-2.67 1.85-2.7-.69-2.7-1.9 1.11-1.84 2.65-1.84zm0 2.75c1.26 0 1.92-.34 1.92-.89s-.7-.88-2-.88-1.92.29-1.92.88.72.89 2.04.89zM305 216a2.57 2.57 0 0 0 .32-1.18c0-.75-.42-1.06-.83-1-.62 0-.88.58-.88 1.17v.46h-.72V215c0-.46-.21-1-.73-1-.35 0-.65.26-.65.83a2.09 2.09 0 0 0 .33 1.06l-.71.22a2.8 2.8 0 0 1-.4-1.49c0-1.07.59-1.62 1.27-1.62a1.27 1.27 0 0 1 1.22 1 1.31 1.31 0 0 1 1.3-1.14c.88 0 1.58.74 1.58 2a2.83 2.83 0 0 1-.36 1.46zM301.82 211.53l1.65-1.62-1.65-1.62.45-.45 1.65 1.61 1.66-1.61.45.45-1.65 1.62 1.65 1.62-.45.45-1.66-1.62-1.65 1.64zM306 207.17h-.6l-.57-.62c-1.14-1.22-1.76-1.8-2.45-1.81a.82.82 0 0 0-.87.93 1.9 1.9 0 0 0 .43 1.11l-.7.29a2.57 2.57 0 0 1-.54-1.6 1.54 1.54 0 0 1 1.58-1.71c.91 0 1.65.66 2.49 1.56l.39.46v-2.13h.84zM303.39 199.22c1.67 0 2.72.66 2.72 1.89S305 203 303.44 203s-2.7-.69-2.7-1.9 1.12-1.88 2.65-1.88zm0 2.75c1.26 0 1.92-.34 1.92-.89s-.7-.88-2-.88-1.92.29-1.92.88.75.92 2.05.92zM303.39 194.93c1.67 0 2.72.66 2.72 1.9s-1.09 1.84-2.67 1.85-2.7-.69-2.7-1.9 1.12-1.85 2.65-1.85zm0 2.75c1.26 0 1.92-.34 1.92-.89s-.7-.88-2-.88-1.92.29-1.92.88.75.9 2.05.89z"/><path class="cls-3" d="M322.9 341.49a.5.5 0 0 1-.5-.5v-1.81a.5.5 0 0 1 .12-.33l3.72-4.28-3.72-4.28a.5.5 0 0 1-.12-.33v-69.32a.5.5 0 0 1 .12-.33l3.72-4.28-3.72-4.28a.5.5 0 0 1-.12-.33l.09-72.85a.5.5 0 0 1 .12-.33l3.72-4.28-3.72-4.28a.5.5 0 0 1-.12-.33v-4.61a.5.5 0 0 1 1 0v4.42l3.88 4.46a.5.5 0 0 1 0 .66l-3.88 4.46-.09 72.47 3.88 4.46a.5.5 0 0 1 0 .66l-3.88 4.46v69l3.88 4.46a.5.5 0 0 1 0 .66l-3.88 4.46V341a.5.5 0 0 1-.5.49z"/><path class="cls-2" d="M292.99 170.6h.5v167.37h-.5z"/><path class="cls-2" d="M293.97 337.47l-.73 2.71-.73-2.71h1.46zM293.97 171.09l-.73-2.71-.73 2.71h1.46zM308.44 181.82h.5v66.35h-.5z"/><path class="cls-2" d="M309.42 247.68l-.73 2.71-.73-2.71h1.46zM309.42 182.32l-.73-2.71-.73 2.71h1.46zM308.44 263.98h.5v62.61h-.5z"/><path class="cls-2" d="M309.42 326.1l-.73 2.71-.73-2.71h1.46zM309.42 264.47l-.73-2.71-.73 2.71h1.46z"/><ellipse class="cls-3" cx="321.89" cy="168.38" rx=".65" ry=".64"/><ellipse class="cls-3" cx="325.51" cy="173.96" rx=".65" ry=".64"/><ellipse class="cls-3" cx="321.89" cy="179.61" rx=".65" ry=".64"/><circle class="cls-3" cx="321.92" cy="250.36" r=".65"/><ellipse class="cls-3" cx="321.91" cy="226.79" rx=".65" ry=".64"/><ellipse class="cls-3" cx="321.89" cy="204.14" rx=".65" ry=".64"/><circle class="cls-3" cx="325.55" cy="256.01" r=".65"/><circle class="cls-3" cx="321.92" cy="261.73" r=".65"/><circle class="cls-3" cx="321.92" cy="283.87" r=".65"/><circle class="cls-3" cx="321.92" cy="306.99" r=".65"/><circle class="cls-3" cx="321.92" cy="328.8" r=".65"/><circle class="cls-3" cx="325.55" cy="334.46" r=".65"/><circle class="cls-3" cx="321.92" cy="340.18" r=".65"/><path class="cls-2" d="M343.68 204.13h33.08v.5h-33.08zM359.79 215.36h16.97v.5h-16.97zM359.79 328.55h16.97v.5h-16.97zM343.68 339.93h33.08v.5h-33.08zM355.41 279.52v2l1 .15a2.67 2.67 0 0 1 0-.38 2.32 2.32 0 0 1 .34-1.26 1.49 1.49 0 0 1 1.32-.68 1.9 1.9 0 0 1 1.8 2.1 3 3 0 0 1-.3 1.38l-.74-.2a2.63 2.63 0 0 0 .27-1.14 1 1 0 0 0-1-1.13c-.59 0-1 .44-1 1.48a4.57 4.57 0 0 0 0 .71l-2.62-.34v-2.69zM355.59 278.12l1.65-1.62-1.65-1.62.45-.45 1.65 1.61 1.66-1.61.45.45-1.65 1.62 1.65 1.62-.45.45-1.66-1.62-1.69 1.61zM359.8 273.76h-.6l-.57-.62c-1.14-1.22-1.76-1.8-2.45-1.81a.82.82 0 0 0-.87.93 1.9 1.9 0 0 0 .43 1.11l-.7.29a2.57 2.57 0 0 1-.54-1.6 1.54 1.54 0 0 1 1.58-1.71c.91 0 1.65.66 2.49 1.56l.39.46v-2.13h.82zM357.17 265.81c1.67 0 2.72.66 2.72 1.89s-1.09 1.84-2.67 1.85-2.7-.69-2.7-1.9 1.11-1.84 2.65-1.84zm0 2.75c1.26 0 1.92-.34 1.92-.89s-.7-.88-2-.88-1.92.29-1.92.88.74.89 2.04.89zM357.17 261.52c1.67 0 2.72.66 2.72 1.9s-1.09 1.84-2.67 1.85-2.7-.69-2.7-1.9 1.11-1.85 2.65-1.85zm0 2.75c1.26 0 1.92-.34 1.92-.89s-.7-.88-2-.88-1.92.29-1.92.88.74.9 2.04.89zM339.37 279l.48 1-.74.17-.62-1.26V278h5.2v1zM343.68 276.22h-.6l-.57-.62c-1.14-1.22-1.76-1.8-2.45-1.81a.82.82 0 0 0-.87.93 1.89 1.89 0 0 0 .43 1.11l-.7.29a2.57 2.57 0 0 1-.54-1.6 1.54 1.54 0 0 1 1.58-1.71c.91 0 1.65.66 2.49 1.56l.39.46v-2.13h.82zM342.66 271.74a2.57 2.57 0 0 0 .32-1.18c0-.75-.42-1.05-.83-1-.62 0-.88.58-.88 1.18v.46h-.72v-.44c0-.46-.21-1-.73-1-.35 0-.65.26-.65.83a2.09 2.09 0 0 0 .33 1.06l-.71.22a2.81 2.81 0 0 1-.4-1.5c0-1.07.59-1.62 1.27-1.62a1.27 1.27 0 0 1 1.22 1 1.31 1.31 0 0 1 1.3-1.14c.88 0 1.58.74 1.58 2a2.84 2.84 0 0 1-.36 1.46zM341 264c1.67 0 2.72.66 2.72 1.89s-1.09 1.84-2.67 1.85-2.7-.69-2.7-1.9S339.51 264 341 264zm0 2.75c1.26 0 1.92-.34 1.92-.89s-.7-.88-2-.88-1.92.29-1.92.88.79.88 2.1.87z"/><path class="cls-3" d="M376.67 341.49a.5.5 0 0 1-.5-.5v-1.81a.5.5 0 0 1 .12-.33l3.72-4.28-3.72-4.28a.5.5 0 0 1-.12-.33l.09-115.39a.5.5 0 0 1 .12-.33l3.72-4.24-3.72-4.28a.5.5 0 0 1-.12-.33v-4.61a.5.5 0 0 1 1 0v4.42l3.88 4.46a.5.5 0 0 1 0 .66l-3.88 4.46-.09 115 3.88 4.46a.5.5 0 0 1 0 .66l-3.88 4.46V341a.5.5 0 0 1-.5.49z"/><path class="cls-2" d="M346.76 206.6h.5v131.37h-.5z"/><path class="cls-2" d="M347.74 337.47l-.73 2.71-.72-2.71h1.45zM347.74 207.09l-.73-2.71-.72 2.71h1.45z"/><ellipse class="cls-3" cx="375.66" cy="204.38" rx=".65" ry=".64"/><ellipse class="cls-3" cx="379.29" cy="209.96" rx=".65" ry=".64"/><ellipse class="cls-3" cx="375.66" cy="215.61" rx=".65" ry=".64"/><circle class="cls-3" cx="375.69" cy="238.25" r=".65"/><circle class="cls-3" cx="375.68" cy="260.89" r=".65"/><circle class="cls-3" cx="375.67" cy="306.17" r=".65"/><circle class="cls-3" cx="375.69" cy="283.53" r=".65"/><circle class="cls-3" cx="375.69" cy="328.8" r=".65"/><circle class="cls-3" cx="379.32" cy="334.46" r=".65"/><circle class="cls-3" cx="375.69" cy="340.18" r=".65"/><path class="cls-2" d="M362.21 217.82h.5v108.77h-.5z"/><path class="cls-2" d="M363.19 326.1l-.73 2.71-.72-2.71h1.45zM363.19 218.32l-.73-2.71-.72 2.71h1.45zM397.45 229.13h33.08v.5h-33.08zM413.57 240.36h16.97v.5h-16.97zM413.57 328.55h16.97v.5h-16.97zM397.45 339.93h33.08v.5h-33.08zM413.57 293.15h-1.32v2.35h-.64l-3.24-2.12v-1.16h3.13v-.67h.74v.67h1.32zm-2.06 0h-2.32c.33.16.59.3.88.46l1.42 1zM409.36 290.61L411 289l-1.65-1.62.45-.45 1.65 1.62 1.66-1.62.45.45-1.64 1.62 1.65 1.62-.45.45-1.66-1.62-1.65 1.62zM413.57 286.26H413l-.57-.62c-1.14-1.22-1.76-1.8-2.45-1.81a.82.82 0 0 0-.87.93 1.89 1.89 0 0 0 .43 1.11l-.7.29a2.57 2.57 0 0 1-.54-1.6 1.54 1.54 0 0 1 1.58-1.71c.91 0 1.65.66 2.49 1.56l.39.46v-2.13h.82zM410.94 278.3c1.67 0 2.72.66 2.72 1.9s-1.09 1.8-2.66 1.8-2.7-.69-2.7-1.9 1.1-1.8 2.64-1.8zm0 2.75c1.26 0 1.92-.34 1.92-.89s-.7-.88-2-.88-1.92.29-1.92.88.74.9 2.06.89zM410.94 274c1.67 0 2.72.66 2.72 1.89s-1.09 1.84-2.67 1.85-2.7-.69-2.7-1.9 1.11-1.84 2.65-1.84zm0 2.75c1.26 0 1.92-.34 1.92-.89s-.7-.88-2-.88-1.92.29-1.92.88.74.91 2.06.91zM393.14 291.47l.48 1-.74.17-.62-1.26v-.82h5.2v1zM394.82 285.05c1.67 0 2.72.66 2.72 1.9s-1.09 1.84-2.67 1.85-2.7-.69-2.7-1.9 1.12-1.85 2.65-1.85zm0 2.75c1.26 0 1.92-.34 1.92-.89s-.7-.88-2-.88-1.92.29-1.92.88.74.9 2.05.89zM396.44 284.23a2.57 2.57 0 0 0 .32-1.18c0-.75-.42-1.06-.83-1-.62 0-.88.58-.88 1.17v.46h-.72v-.44c0-.46-.21-1-.73-1-.35 0-.65.26-.65.83a2.09 2.09 0 0 0 .33 1.06l-.71.22a2.8 2.8 0 0 1-.4-1.49c0-1.07.59-1.62 1.27-1.62a1.27 1.27 0 0 1 1.22 1A1.31 1.31 0 0 1 396 281c.88 0 1.58.74 1.58 2a2.83 2.83 0 0 1-.36 1.46zM394.82 276.48c1.67 0 2.72.66 2.72 1.9s-1.09 1.84-2.67 1.85-2.7-.69-2.7-1.9 1.12-1.85 2.65-1.85zm0 2.75c1.26 0 1.92-.34 1.92-.89s-.7-.88-2-.88-1.92.29-1.92.88.74.9 2.05.89z"/><path class="cls-3" d="M430.44 341.49a.5.5 0 0 1-.5-.5v-1.81a.5.5 0 0 1 .12-.33l3.72-4.28-3.72-4.28a.5.5 0 0 1-.12-.33l.09-90.39a.5.5 0 0 1 .12-.33l3.72-4.28-3.72-4.28a.5.5 0 0 1-.12-.33v-4.61a.5.5 0 1 1 1 0v4.42l3.88 4.46a.5.5 0 0 1 0 .66l-3.91 4.49-.09 90 3.88 4.46a.5.5 0 0 1 0 .66l-3.88 4.46V341a.5.5 0 0 1-.47.49z"/><path class="cls-2" d="M400.53 231.6h.5v106.37h-.5z"/><path class="cls-2" d="M401.51 337.47l-.73 2.71-.72-2.71h1.45zM401.51 232.09l-.73-2.71-.72 2.71h1.45zM415.98 242.82h.5v83.77h-.5z"/><path class="cls-2" d="M416.96 326.1l-.73 2.71-.72-2.71h1.45zM416.96 243.32l-.73-2.71-.72 2.71h1.45z"/><ellipse class="cls-3" cx="429.43" cy="229.38" rx=".65" ry=".64"/><ellipse class="cls-3" cx="433.06" cy="234.96" rx=".65" ry=".64"/><ellipse class="cls-3" cx="429.43" cy="240.61" rx=".65" ry=".64"/><circle class="cls-3" cx="429.46" cy="262.66" r=".65"/><circle class="cls-3" cx="429.45" cy="284.71" r=".65"/><circle class="cls-3" cx="429.44" cy="306.76" r=".65"/><circle class="cls-3" cx="429.46" cy="328.8" r=".65"/><circle class="cls-3" cx="433.09" cy="334.46" r=".65"/><circle class="cls-3" cx="429.46" cy="340.18" r=".65"/><path class="cls-3" d="M484.21 341.49a.5.5 0 0 1-.5-.5v-1.81a.5.5 0 0 1 .12-.33l3.72-4.28-3.72-4.28a.5.5 0 0 1-.12-.33l.09-42.39a.5.5 0 0 1 .12-.33l3.72-4.28-3.72-4.28a.5.5 0 0 1-.12-.33v-4.61a.5.5 0 1 1 1 0v4.42l3.88 4.46a.5.5 0 0 1 0 .66l-3.88 4.46-.09 42 3.88 4.46a.5.5 0 0 1 0 .66l-3.88 4.46V341a.5.5 0 0 1-.5.49z"/><ellipse class="cls-3" cx="486.83" cy="282.96" rx=".65" ry=".64"/><circle class="cls-3" cx="486.86" cy="334.46" r=".65"/><path class="cls-2" d="M451.22 277.13h33.08v.5h-33.08zM467.34 288.36h16.97v.5h-16.97zM466.89 308.46h16.97v.5h-16.97zM467.34 328.55h16.97v.5h-16.97zM451.22 339.93h33.08v.5h-33.08zM467.34 325.42h-.6l-.57-.62c-1.14-1.22-1.76-1.8-2.45-1.81a.82.82 0 0 0-.87.93 1.9 1.9 0 0 0 .43 1.11l-.7.29a2.57 2.57 0 0 1-.54-1.6 1.54 1.54 0 0 1 1.58-1.71c.91 0 1.65.66 2.49 1.56l.39.46v-2.13h.82zM463 319.59l.48 1-.74.17-.62-1.26v-.82h5.2v1zM463 313.54v2l1 .15a2.7 2.7 0 0 1 0-.38 2.32 2.32 0 0 1 .34-1.26 1.49 1.49 0 0 1 1.32-.68 1.9 1.9 0 0 1 1.8 2.1 3 3 0 0 1-.3 1.38l-.74-.2a2.63 2.63 0 0 0 .27-1.14 1 1 0 0 0-1-1.13c-.59 0-1 .44-1 1.48a4.55 4.55 0 0 0 0 .71l-2.62-.34v-2.69zM467.34 304.74h-.6l-.57-.62c-1.14-1.22-1.76-1.8-2.45-1.81a.82.82 0 0 0-.87.93 1.9 1.9 0 0 0 .43 1.11l-.7.29a2.57 2.57 0 0 1-.54-1.6 1.54 1.54 0 0 1 1.58-1.71c.91 0 1.65.66 2.49 1.56l.39.46v-2.13h.82zM463 298.91l.48 1-.74.17-.62-1.26V298h5.2v1zM463 292.86v2l1 .15a2.7 2.7 0 0 1 0-.38 2.32 2.32 0 0 1 .34-1.26 1.49 1.49 0 0 1 1.32-.68 1.9 1.9 0 0 1 1.8 2.1 3 3 0 0 1-.3 1.38l-.74-.2a2.63 2.63 0 0 0 .27-1.14 1 1 0 0 0-1-1.13c-.59 0-1 .44-1 1.48a4.55 4.55 0 0 0 0 .71l-2.62-.34v-2.69zM446.72 311.7a4 4 0 0 0 0 .5 1.84 1.84 0 0 0 1.52 1.74 1.49 1.49 0 0 1-.5-1.17 1.57 1.57 0 0 1 1.69-1.59 1.8 1.8 0 0 1 1.85 1.83 2 2 0 0 1-2.24 2 3.18 3.18 0 0 1-2.33-.9 3 3 0 0 1-.77-1.85 2.81 2.81 0 0 1 0-.5zm2.79.46a.91.91 0 0 0-1 .9 1 1 0 0 0 .54.85.67.67 0 0 0 .31.06c.69 0 1.25-.34 1.25-1s-.47-.81-1.1-.81zM450.21 310.38a2.57 2.57 0 0 0 .32-1.18c0-.75-.42-1.06-.83-1-.62 0-.88.58-.88 1.18v.46h-.72v-.44c0-.46-.21-1-.73-1-.35 0-.65.26-.65.83a2.08 2.08 0 0 0 .33 1.06l-.71.22a2.8 2.8 0 0 1-.4-1.5c0-1.07.59-1.62 1.27-1.62a1.27 1.27 0 0 1 1.22 1 1.31 1.31 0 0 1 1.3-1.14c.88 0 1.58.74 1.58 2a2.84 2.84 0 0 1-.36 1.46zM448.59 302.62c1.67 0 2.72.66 2.72 1.9s-1.09 1.84-2.67 1.85-2.7-.69-2.7-1.9 1.12-1.85 2.65-1.85zm0 2.75c1.26 0 1.92-.34 1.92-.89s-.7-.88-2-.88-1.92.29-1.92.88.75.9 2.05.89zM454.31 279.6h.5v58.37h-.5z"/><path class="cls-2" d="M455.28 337.47l-.72 2.71-.73-2.71h1.45zM455.28 280.09l-.72-2.71-.73 2.71h1.45zM469.76 310.92h.5v15.67h-.5z"/><path class="cls-2" d="M470.73 326.1l-.72 2.71-.73-2.71h1.45zM470.73 311.42l-.72-2.71-.73 2.71h1.45zM469.76 290.82h.5v15.67h-.5z"/><path class="cls-2" d="M470.73 306l-.72 2.71-.73-2.71h1.45zM470.73 291.32l-.72-2.71-.73 2.71h1.45z"/><ellipse class="cls-3" cx="483.21" cy="277.38" rx=".65" ry=".64"/><ellipse class="cls-3" cx="483.21" cy="288.61" rx=".65" ry=".64"/><circle class="cls-3" cx="483.23" cy="308.71" r=".65"/><circle class="cls-3" cx="483.24" cy="328.8" r=".65"/><circle class="cls-3" cx="483.24" cy="340.18" r=".65"/><path class="cls-2" d="M504.99 284.19h33.08v.5h-33.08zM521.11 286.27h16.97v.5h-16.97zM520.66 305.36h16.97v.5h-16.97zM521.11 337.93h16.97v.5h-16.97zM520.66 317.55h16.97v.5h-16.97z"/><path class="cls-2" d="M521.54 317.55h16.97v.5h-16.97zM504.99 339.93h33.08v.5h-33.08zM521.11 333.82h-.6l-.57-.62c-1.14-1.22-1.76-1.8-2.45-1.81a.82.82 0 0 0-.87.93 1.9 1.9 0 0 0 .43 1.11l-.7.29a2.57 2.57 0 0 1-.54-1.6 1.54 1.54 0 0 1 1.58-1.71c.91 0 1.65.66 2.49 1.56l.39.46v-2.13h.82zM516.8 328l.48 1-.74.17-.62-1.26V327h5.2v1zM518.48 321.57c1.67 0 2.72.66 2.72 1.9s-1.09 1.84-2.67 1.85-2.7-.69-2.7-1.9 1.12-1.85 2.65-1.85zm0 2.75c1.26 0 1.92-.34 1.92-.89s-.7-.88-2-.88-1.92.29-1.92.88.75.9 2.05.89zM521.11 304.74h-.6l-.57-.62c-1.14-1.22-1.76-1.8-2.45-1.81a.82.82 0 0 0-.87.93 1.9 1.9 0 0 0 .43 1.11l-.7.29a2.57 2.57 0 0 1-.54-1.6 1.54 1.54 0 0 1 1.58-1.71c.91 0 1.65.66 2.49 1.56l.39.46v-2.13h.82zM516.8 298.91l.48 1-.74.17-.62-1.26V298h5.2v1zM518.48 292.49c1.67 0 2.72.66 2.72 1.9s-1.09 1.84-2.67 1.85-2.7-.69-2.7-1.9 1.12-1.85 2.65-1.85zm0 2.75c1.26 0 1.92-.34 1.92-.89s-.7-.88-2-.88-1.92.29-1.92.88.75.9 2.05.9zM500.61 315.09v2l1 .15a2.7 2.7 0 0 1 0-.38 2.32 2.32 0 0 1 .34-1.26 1.49 1.49 0 0 1 1.32-.68 1.9 1.9 0 0 1 1.8 2.1 3 3 0 0 1-.3 1.38l-.74-.2a2.63 2.63 0 0 0 .27-1.14 1 1 0 0 0-1-1.13c-.59 0-1 .44-1 1.48a4.55 4.55 0 0 0 0 .71l-2.62-.34v-2.69zM504 313.91a2.57 2.57 0 0 0 .32-1.18c0-.75-.42-1.06-.83-1-.62 0-.88.58-.88 1.18v.46h-.72v-.44c0-.46-.21-1-.73-1-.35 0-.65.26-.65.83a2.08 2.08 0 0 0 .33 1.06l-.71.22a2.8 2.8 0 0 1-.4-1.5c0-1.07.59-1.62 1.27-1.62a1.27 1.27 0 0 1 1.22 1 1.31 1.31 0 0 1 1.3-1.14c.88 0 1.58.74 1.58 2a2.84 2.84 0 0 1-.36 1.46zM502.36 306.15c1.67 0 2.72.66 2.72 1.9s-1.09 1.84-2.67 1.85-2.7-.69-2.7-1.9 1.12-1.85 2.65-1.85zm0 2.75c1.26 0 1.92-.34 1.92-.89s-.7-.88-2-.88-1.92.29-1.92.88.75.9 2.05.89z"/><path class="cls-3" d="M538 341.49a.5.5 0 0 1-.5-.5v-1.81l.09-22.61a.5.5 0 0 1 .12-.33l3.72-4.28-3.72-4.28a.5.5 0 0 1-.12-.33v-23.59a.5.5 0 0 1 1 0v23.42l3.88 4.46a.5.5 0 0 1 0 .66l-3.88 4.46-.11 24.24a.5.5 0 0 1-.48.49z"/><path class="cls-2" d="M508.08 286.66h.5v51.31h-.5z"/><path class="cls-2" d="M509.06 337.47l-.73 2.71-.73-2.71h1.46zM509.06 287.15l-.73-2.71-.73 2.71h1.46zM523.53 320.02h.5v15.95h-.5z"/><path class="cls-2" d="M524.5 335.47l-.72 2.71-.73-2.71h1.45zM524.5 320.51l-.72-2.7-.73 2.7h1.45zM523.53 288.73h.5v14.66h-.5z"/><path class="cls-2" d="M524.5 302.9l-.72 2.71-.73-2.71h1.45zM524.5 289.23l-.72-2.71-.73 2.71h1.45z"/><ellipse class="cls-3" cx="536.98" cy="286.52" rx=".65" ry=".64"/><ellipse class="cls-3" cx="540.6" cy="311.96" rx=".65" ry=".64"/><ellipse class="cls-3" cx="536.98" cy="305.61" rx=".65" ry=".64"/><circle class="cls-3" cx="537.01" cy="317.8" r=".65"/><circle class="cls-3" cx="537.01" cy="338.18" r=".65"/></svg>