<svg id="Layer_1" data-name="Layer 1" xmlns="http://www.w3.org/2000/svg" viewBox="0 0 215.33 132.29"><defs><style>.cls-1{fill:#888}.cls-2{fill:#007e4d}</style></defs><title>gitter-scheme-c</title><path class="cls-1" d="M53.24 36.19h.5v26.06h-.5zM62.77 70.35h.5v45.15h-.5zM119.87 71.08h.5v45.15h-.5zM128.87 36.19h.5v26.06h-.5zM195.2 32.02h.5v30.69h-.5z"/><path class="cls-1" d="M194.72 62.22l.73 2.71.73-2.71h-1.46zM195.2 73.29h.5v11.23h-.5z"/><path class="cls-1" d="M194.72 73.78l.73-2.7.73 2.7h-1.46zM131.93 56.4l-.44-.23 8.99-17.23h27.39v.5h-27.09l-8.85 16.96z"/><path class="cls-1" d="M131.29 55.51l-.61 2.74 1.9-2.07-1.29-.67zM37.51 114.11H20.95v-.5h16.28l24.45-40.73.43.26-24.6 40.97z"/><path class="cls-1" d="M61.02 73.06l2.02-1.95-.78 2.7-1.24-.75zM55.71 38.94h71.2v.5h-71.2z"/><path class="cls-1" d="M56.2 39.91l-2.71-.72 2.71-.73v1.45zM126.41 39.91l2.71-.72-2.71-.73v1.45zM65.25 113.6h52.65v.5H65.25z"/><path class="cls-1" d="M65.75 114.58l-2.71-.72 2.71-.73v1.45zM117.41 114.58l2.71-.72-2.71-.73v1.45zM24.7 63.47h.5v19.82h-.5z"/><path class="cls-1" d="M24.22 63.96l.73-2.71.73 2.71h-1.46zM24.22 82.79l.73 2.71.73-2.71h-1.46z"/><path class="cls-1" d="M20.95 61h29.6v.5h-29.6zM20.95 85.25h67.38v.5H20.95z"/><path class="cls-1" d="M120.37 87.19h-.5a28.29 28.29 0 1 0-56.58 0h-.5a28.79 28.79 0 1 1 57.58 0zM21.68 17.21a13.31 13.31 0 0 1 2.17-.15 4.1 4.1 0 0 1 2.19.42 1.61 1.61 0 0 1 .89 1.45 1.68 1.68 0 0 1-1.22 1.58 1.86 1.86 0 0 1 1.47 1.83 2 2 0 0 1-.77 1.57 4.68 4.68 0 0 1-2.92.67 12.94 12.94 0 0 1-1.82-.11zM23.34 20h.55c.88 0 1.35-.36 1.35-.91s-.43-.86-1.19-.86a4.59 4.59 0 0 0-.72 0zm0 3.29a5.3 5.3 0 0 0 .65 0c.76 0 1.43-.29 1.43-1.07s-.67-1-1.51-1h-.57zM32.83 16.89a7.25 7.25 0 0 0-1.39 4.5 7.42 7.42 0 0 0 1.39 4.47h-.76a7.11 7.11 0 0 1-1.44-4.47 7.26 7.26 0 0 1 1.44-4.5zM34.21 19.2l1.17 3.15c.12.35.25.77.34 1.09.1-.32.21-.73.34-1.11l1.06-3.12h1L36.7 23a8.11 8.11 0 0 1-1.83 3.33 2.62 2.62 0 0 1-1.19.63l-.24-.81a2.56 2.56 0 0 0 .85-.47 2.93 2.93 0 0 0 .81-1.08.7.7 0 0 0 .08-.23.84.84 0 0 0-.07-.25l-2-4.91zM39 19.27a11.35 11.35 0 0 1 1.69-.12c.89 0 2.37.14 2.37 1.33a1.26 1.26 0 0 1-1.06 1.2c.78.11 1.35.55 1.35 1.32 0 1.4-1.76 1.57-2.81 1.57-.59 0-1.21 0-1.5-.07zm.91 4.62a5.83 5.83 0 0 0 .78 0c.65 0 1.62-.15 1.62-.92s-.77-.94-1.69-.94h-.7zm0-2.45h.73c.72 0 1.45-.21 1.45-.84s-.46-.78-1.43-.78a6.87 6.87 0 0 0-.75 0zM45.07 22a1.71 1.71 0 0 0 1.83 1.85 3.5 3.5 0 0 0 1.47-.27l.17.69a4.31 4.31 0 0 1-1.77.33 2.47 2.47 0 0 1-2.62-2.6 2.59 2.59 0 0 1 2.5-2.87 2.26 2.26 0 0 1 2.2 2.51 3.6 3.6 0 0 1 0 .45zm2.84-.69a1.38 1.38 0 0 0-1.34-1.57 1.6 1.6 0 0 0-1.49 1.57zM54.09 19.2v5.32h-1V20h-1.78v1.39c0 1.5-.14 2.5-.84 2.95a1.55 1.55 0 0 1-1.06.33l-.1-.76a1.19 1.19 0 0 0 .53-.22c.49-.36.55-1.11.55-2.3V19.2zM56.57 19.2v2.24c0 .85 0 1.38-.06 2.13.32-.65.51-1 .86-1.64l1.66-2.75h1.17v5.32h-.92v-2.23c0-.87 0-1.32.07-2.18-.34.68-.57 1.11-.88 1.65-.51.82-1.09 1.85-1.66 2.78h-1.15V19.2zM62.53 19.2V21c0 .67.25 1.13 1.1 1.13a2 2 0 0 0 1.14-.37V19.2h1v5.32h-1v-2.13a2.8 2.8 0 0 1-1.44.41 1.58 1.58 0 0 1-1.75-1.74V19.2zM67.85 22a1.71 1.71 0 0 0 1.83 1.85 3.5 3.5 0 0 0 1.47-.27l.17.69a4.31 4.31 0 0 1-1.77.33 2.47 2.47 0 0 1-2.62-2.6 2.59 2.59 0 0 1 2.5-2.87 2.26 2.26 0 0 1 2.2 2.51 3.6 3.6 0 0 1 0 .45zm2.84-.69a1.38 1.38 0 0 0-1.34-1.57 1.6 1.6 0 0 0-1.49 1.57zM73.76 19.2v2.15h2.53V19.2h1v5.32h-1v-2.4h-2.53v2.41h-1V19.2zM83.65 21.82A2.6 2.6 0 0 1 81 24.65a2.53 2.53 0 0 1-2.55-2.74 2.6 2.6 0 0 1 2.64-2.83 2.52 2.52 0 0 1 2.56 2.74zm-4.22.06c0 1.17.67 2 1.62 2s1.62-.87 1.62-2.07c0-.9-.45-2-1.6-2s-1.64 1.05-1.64 2.07zM84.29 25.86a7.45 7.45 0 0 0 1.39-4.5 7.29 7.29 0 0 0-1.39-4.47H85a7 7 0 0 1 1.44 4.48A7.14 7.14 0 0 1 85 25.86zM23 78.36h-.6l-.57-.62c-1.14-1.22-1.76-1.8-2.45-1.81a.82.82 0 0 0-.87.93 1.89 1.89 0 0 0 .44 1.14l-.7.29a2.57 2.57 0 0 1-.54-1.6 1.54 1.54 0 0 1 1.58-1.71c.91 0 1.65.66 2.49 1.56l.39.46v-2.17H23zM18.5 70.9a4 4 0 0 0 0 .5 1.84 1.84 0 0 0 1.5 1.75 1.5 1.5 0 0 1-.5-1.17 1.57 1.57 0 0 1 1.69-1.59 1.81 1.81 0 0 1 1.85 1.83 2 2 0 0 1-2.24 2 3.18 3.18 0 0 1-2.33-.9 3 3 0 0 1-.77-1.85 2.81 2.81 0 0 1 0-.5zm2.79.46a.91.91 0 0 0-1 .9 1 1 0 0 0 .54.85.67.67 0 0 0 .31.06c.69 0 1.25-.34 1.25-1s-.48-.8-1.1-.8zM90.26 107.62a4 4 0 0 0-.5 0 1.84 1.84 0 0 0-1.76 1.55 1.5 1.5 0 0 1 1.17-.5 1.57 1.57 0 0 1 1.59 1.69 1.81 1.81 0 0 1-1.76 1.85 2 2 0 0 1-2-2.21 3.18 3.18 0 0 1 .9-2.33 3 3 0 0 1 1.85-.77 2.81 2.81 0 0 1 .5 0zm-.46 2.79a.91.91 0 0 0-.9-1 1 1 0 0 0-.85.54.67.67 0 0 0-.06.31c0 .69.34 1.25 1 1.25s.81-.51.81-1.1zM95.05 109.5c0 1.67-.66 2.72-1.9 2.72s-1.84-1.09-1.85-2.67.69-2.7 1.9-2.7 1.85 1.15 1.85 2.65zm-2.75 0c0 1.26.34 1.92.89 1.92s.88-.7.88-2-.29-1.92-.88-1.92-.89.74-.89 2.04zM87.65 35.85a1.43 1.43 0 0 1 1-1.35 1.27 1.27 0 0 1-.79-1.15 1.55 1.55 0 0 1 1.74-1.42c1.12 0 1.63.67 1.63 1.31a1.3 1.3 0 0 1-.8 1.18 1.4 1.4 0 0 1 1 1.31c0 .93-.78 1.55-1.89 1.55s-1.89-.7-1.89-1.43zm2.74 0c0-.53-.39-.82-1-1a1 1 0 0 0-.77.91.82.82 0 0 0 .87.84.79.79 0 0 0 .9-.79zm-1.62-2.52c0 .42.35.68.85.82a.84.84 0 0 0 .65-.78.7.7 0 0 0-.74-.74.69.69 0 0 0-.76.66zM92 37.19v-.6l.62-.57c1.22-1.14 1.8-1.76 1.81-2.45a.82.82 0 0 0-.93-.87 1.89 1.89 0 0 0-1.11.43l-.29-.7a2.57 2.57 0 0 1 1.6-.54 1.54 1.54 0 0 1 1.71 1.58c0 .91-.66 1.65-1.56 2.49l-.46.39h2.13v.82zM26.69 106.81a9.33 9.33 0 0 1 1.49-.11 2.49 2.49 0 0 1 1.66.43 1.36 1.36 0 0 1 .46 1.08 1.44 1.44 0 0 1-1 1.35 1.37 1.37 0 0 1 .75 1 10.71 10.71 0 0 0 .42 1.5h-1a7.58 7.58 0 0 1-.36-1.27c-.15-.7-.41-.93-1-.94h-.5v2.21h-1zm1 2.38h.58c.66 0 1.08-.35 1.08-.89s-.42-.86-1.06-.86a2.79 2.79 0 0 0-.61 0zM33.18 107.76a1.13 1.13 0 0 1-1.18 1.13 1.09 1.09 0 0 1-1.14-1.1 1.13 1.13 0 0 1 1.14-1.14 1.1 1.1 0 0 1 1.18 1.11zm-1.74 0a.6.6 0 1 0 .6-.66.62.62 0 0 0-.6.68zM87.36 55.86a2.6 2.6 0 0 0 .54 0 2 2 0 0 0 1.06-.4 1.92 1.92 0 0 0 .66-1.15 1.44 1.44 0 0 1-1.14.46 1.54 1.54 0 0 1-1.58-1.62 1.84 1.84 0 0 1 1.88-1.85c1.21 0 1.85 1 1.85 2.21a3.21 3.21 0 0 1-.9 2.41 2.87 2.87 0 0 1-1.77.71 3.85 3.85 0 0 1-.59 0zm.51-2.78a.86.86 0 0 0 .86 1 1 1 0 0 0 .84-.43.59.59 0 0 0 .06-.28c0-.7-.26-1.31-.9-1.31s-.86.39-.86 1.02zM94.92 53.93c0 1.67-.66 2.72-1.9 2.72s-1.83-1.09-1.84-2.65.69-2.7 1.9-2.7 1.84 1.1 1.84 2.63zm-2.75 0c0 1.26.34 1.92.89 1.92s.88-.7.88-2-.29-1.85-.88-1.85-.9.68-.89 2zM97.7 52.2a1.13 1.13 0 0 1-1.15 1.13 1.09 1.09 0 0 1-1.14-1.1 1.13 1.13 0 0 1 1.14-1.14 1.1 1.1 0 0 1 1.15 1.11zm-1.74 0a.6.6 0 1 0 .6-.66.62.62 0 0 0-.56.68zM146.66 37.33l.47-.69a2.86 2.86 0 0 1-.73-2 2.57 2.57 0 0 1 2.54-2.8 2.35 2.35 0 0 1 1.26.34l.46-.65.57.38-.47.68a2.88 2.88 0 0 1 .7 2 2.54 2.54 0 0 1-2.53 2.82 2.34 2.34 0 0 1-1.25-.34l-.5.7zm3.09-4.44a1.27 1.27 0 0 0-.81-.28c-1 0-1.54.91-1.54 2a2.52 2.52 0 0 0 .29 1.19zm-1.59 3.46a1.14 1.14 0 0 0 .78.27c1 0 1.54-.88 1.54-2a2.37 2.37 0 0 0-.27-1.13zM154.26 37.31V36h-2.35v-.64l2.09-3.24h1.16v3.13h.67V36h-.67v1.32zm0-2.06v-1.42-.9c-.16.33-.3.59-.46.88l-1 1.42zM156.44 36.77a.6.6 0 0 1 .61-.63.63.63 0 0 1 0 1.26.6.6 0 0 1-.61-.63zM158.2 36a1.43 1.43 0 0 1 1-1.35 1.27 1.27 0 0 1-.79-1.15 1.55 1.55 0 0 1 1.71-1.5c1.12 0 1.63.67 1.63 1.31a1.3 1.3 0 0 1-.8 1.17 1.4 1.4 0 0 1 1 1.31c0 .93-.78 1.55-1.9 1.55s-1.85-.64-1.85-1.34zm2.74 0c0-.53-.39-.82-1-1a1 1 0 0 0-.77.91.82.82 0 0 0 .87.84.79.79 0 0 0 .9-.82zm-1.62-2.52c0 .42.35.68.85.82a.84.84 0 0 0 .65-.78.7.7 0 0 0-.74-.74.69.69 0 0 0-.76.63zM193.33 49.68l-.69-.47a2.86 2.86 0 0 1-2 .73 2.57 2.57 0 0 1-2.8-2.54 2.35 2.35 0 0 1 .34-1.26l-.65-.46.38-.57.68.47a2.88 2.88 0 0 1 2-.7 2.54 2.54 0 0 1 2.82 2.53 2.34 2.34 0 0 1-.34 1.25l.7.5zm-4.44-3.09a1.27 1.27 0 0 0-.28.81c0 1 .91 1.54 2 1.54a2.52 2.52 0 0 0 1.19-.29zm3.46 1.59a1.14 1.14 0 0 0 .27-.78c0-1-.88-1.54-2-1.54a2.37 2.37 0 0 0-1.13.27zM193.31 42.08H192v2.35h-.64l-3.24-2.12v-1.15h3.13v-.67h.75v.67h1.32zm-2.06 0h-2.32c.33.16.59.3.88.46l1.42 1zM192.77 39.9a.6.6 0 0 1-.63-.61.63.63 0 0 1 1.26 0 .6.6 0 0 1-.63.61zM192 38.15a1.43 1.43 0 0 1-1.35-1 1.27 1.27 0 0 1-1.15.79 1.55 1.55 0 0 1-1.5-1.71c0-1.12.67-1.63 1.31-1.63a1.3 1.3 0 0 1 1.17.8 1.4 1.4 0 0 1 1.31-1c.93 0 1.55.78 1.55 1.9s-.64 1.85-1.34 1.85zM189.41 37c.42 0 .68-.35.82-.85a.84.84 0 0 0-.78-.65.7.7 0 0 0-.74.74.69.69 0 0 0 .7.76zm2.52-1.62c-.53 0-.82.39-1 1a1 1 0 0 0 .91.77.82.82 0 0 0 .84-.87.79.79 0 0 0-.75-.88z"/><path class="cls-2" d="M91.12 95.44A10.25 10.25 0 0 1 84 92.26L63.62 71.93a3 3 0 0 1-.3-.35 6.88 6.88 0 0 0-3.43-.4H44.62s-3-.11-3-3a2.92 2.92 0 0 1 3-3h15.05c5.34-.25 7.55 1.56 8.4 2.71l20.17 20.18.12.13a4.33 4.33 0 0 0 2.76 1.25 4.08 4.08 0 0 0 2.59-1.08l20.76-20.77c.84-1 3-2.66 8.1-2.66h77.29s3 0 3 2.9a2.87 2.87 0 0 1-3 3.1h-77.24a7.26 7.26 0 0 0-3.6.59l-.16.17L98 92.56a10 10 0 0 1-6.88 2.88zm28.18-24.3zm0 0zm0 0zM63 71.11zm0 0zm0 0zm0 0zm0 0z"/><circle class="cls-2" cx="53.49" cy="61.25" r="3.93"/><circle class="cls-2" cx="129.12" cy="61.25" r="3.93"/><circle class="cls-2" cx="91.3" cy="85.5" r="3.93"/></svg>