<svg id="Layer_1" data-name="Layer 1" xmlns="http://www.w3.org/2000/svg" viewBox="0 0 449 287.33"><defs><style>.cls-1{fill:#888}.cls-2{fill:#007e4d}.cls-3{fill:#ccc}</style></defs><title>gitter-scheme</title><path class="cls-1" d="M383.99 119.29h16.97v.5h-16.97zM383.97 107.96h16.97v.5h-16.97zM38.09 25.73l-8.36-8.96H10v-.5h19.95l8.51 9.12-.37.34z"/><path class="cls-1" d="M37.41 25.69l2.38 1.49-1.32-2.48-1.06.99zM384 29.96h16.97v.5H384zM384 41.33h16.97v.5H384zM384 163.69h16.97v.5H384zM384 175.06h16.97v.5H384zM384 242.1h16.97v.5H384zM384 253.48h16.97v.5H384zM17.08 11.45l-.53 1.9h-1.73l2.27-7.42h2.2l2.3 7.42h-1.8l-.57-1.9zM19 10.2l-.5-1.58c-.13-.44-.26-1-.37-1.43-.11.44-.22 1-.34 1.43l-.44 1.57zM29.95 263.61H10v-.5h19.73l8.36-8.95.37.34-8.51 9.11z"/><path class="cls-1" d="M38.47 255.19l1.32-2.48-2.38 1.48 1.06 1zM20.29 252.88v1.36H17v1.28a7.81 7.81 0 0 1 .9-.05 3.56 3.56 0 0 1 2.09.61 2.08 2.08 0 0 1 .86 1.77 2.17 2.17 0 0 1-.7 1.67 4.62 4.62 0 0 1-3 .86 12.82 12.82 0 0 1-1.8-.11v-7.38zM17 259.07a3.91 3.91 0 0 0 .65 0 1.63 1.63 0 0 0 1.09-.38 1.13 1.13 0 0 0 .36-.86 1 1 0 0 0-.4-.84 1.85 1.85 0 0 0-1.11-.33 3.76 3.76 0 0 0-.59 0zM411.13 105.21l-.37-.34 8.51-9.12h19.95v.5h-19.73l-8.36 8.96z"/><path class="cls-1" d="M410.75 104.18l-1.32 2.48 2.38-1.49-1.06-.99zM426 85.54a13.31 13.31 0 0 1 2.17-.15 4.1 4.1 0 0 1 2.19.42 1.61 1.61 0 0 1 .89 1.45 1.68 1.68 0 0 1-1.22 1.58 1.86 1.86 0 0 1 1.47 1.83 2 2 0 0 1-.77 1.57 4.68 4.68 0 0 1-2.92.67 12.94 12.94 0 0 1-1.82-.11zm1.66 2.84h.55c.88 0 1.35-.36 1.35-.91s-.43-.86-1.19-.86a4.59 4.59 0 0 0-.72 0zm0 3.29a5.3 5.3 0 0 0 .65 0c.76 0 1.43-.29 1.43-1.07s-.67-1-1.51-1h-.57zM382.67 40.31a1.44 1.44 0 0 1-1.35-1 1.27 1.27 0 0 1-1.15.79 1.55 1.55 0 0 1-1.42-1.74c0-1.12.67-1.63 1.31-1.63a1.3 1.3 0 0 1 1.18.8 1.4 1.4 0 0 1 1.31-1c.93 0 1.55.78 1.55 1.9s-.71 1.88-1.43 1.88zm-2.57-1.12c.42 0 .68-.35.82-.85a.84.84 0 0 0-.78-.65.7.7 0 0 0-.74.74.69.69 0 0 0 .7.76zm2.52-1.62c-.53 0-.82.39-1 1a1 1 0 0 0 .91.77.82.82 0 0 0 .84-.87.79.79 0 0 0-.75-.9zM384 36h-.6l-.57-.62c-1.14-1.22-1.76-1.8-2.45-1.81a.82.82 0 0 0-.87.93 1.9 1.9 0 0 0 .43 1.11l-.7.29a2.57 2.57 0 0 1-.54-1.6 1.54 1.54 0 0 1 1.58-1.71c.91 0 1.65.66 2.49 1.56l.39.46v-2.19h.84zM382.67 174a1.43 1.43 0 0 1-1.35-1 1.27 1.27 0 0 1-1.15.79 1.55 1.55 0 0 1-1.42-1.73c0-1.12.67-1.63 1.31-1.63a1.3 1.3 0 0 1 1.18.8 1.4 1.4 0 0 1 1.31-1c.93 0 1.55.78 1.55 1.9s-.71 1.87-1.43 1.87zm-2.57-1.12c.42 0 .68-.35.82-.85a.84.84 0 0 0-.78-.65.7.7 0 0 0-.74.74.69.69 0 0 0 .7.8zm2.52-1.62c-.53 0-.82.39-1 1a1 1 0 0 0 .91.77.82.82 0 0 0 .84-.87.79.79 0 0 0-.75-.86zM384 169.68h-.6l-.57-.62c-1.14-1.22-1.76-1.8-2.45-1.81a.82.82 0 0 0-.87.93 1.89 1.89 0 0 0 .43 1.11l-.7.29a2.57 2.57 0 0 1-.54-1.6 1.54 1.54 0 0 1 1.58-1.71c.91 0 1.65.66 2.49 1.56l.39.46v-2.14h.84zM383 219.25a2.57 2.57 0 0 0 .32-1.18c0-.75-.42-1.06-.83-1-.62 0-.88.58-.88 1.17v.46h-.72v-.44c0-.46-.21-1-.73-1-.35 0-.65.26-.65.83a2.09 2.09 0 0 0 .33 1.06l-.71.22a2.8 2.8 0 0 1-.4-1.49c0-1.07.59-1.62 1.27-1.62a1.27 1.27 0 0 1 1.22 1 1.31 1.31 0 0 1 1.3-1.14c.88 0 1.58.74 1.58 2a2.83 2.83 0 0 1-.36 1.46zM379.79 214.75l1.65-1.62-1.65-1.62.45-.45 1.65 1.61 1.66-1.61.45.45-1.65 1.62 1.65 1.62-.45.45-1.66-1.62-1.65 1.62zM384 210.39h-.6l-.57-.62c-1.14-1.22-1.76-1.8-2.45-1.81a.82.82 0 0 0-.87.93 1.9 1.9 0 0 0 .43 1.11l-.7.29a2.57 2.57 0 0 1-.54-1.6 1.54 1.54 0 0 1 1.58-1.71c.91 0 1.65.66 2.49 1.56l.39.46v-2.13h.84zM381.37 202.44c1.67 0 2.72.66 2.72 1.89s-1.09 1.84-2.67 1.85-2.7-.69-2.7-1.9 1.11-1.84 2.65-1.84zm0 2.75c1.26 0 1.92-.34 1.92-.89s-.7-.88-2-.88-1.92.29-1.92.88.74.89 2.05.89zM381.37 198.15c1.67 0 2.72.66 2.72 1.9s-1.09 1.84-2.67 1.85-2.7-.69-2.7-1.9 1.11-1.85 2.65-1.85zm0 2.75c1.26 0 1.92-.34 1.92-.89s-.7-.88-2-.88-1.92.29-1.92.88.74.9 2.05.89zM383 85.68a2.57 2.57 0 0 0 .32-1.18c0-.75-.42-1.06-.83-1-.62 0-.88.58-.88 1.18v.46h-.72v-.44c0-.46-.21-1-.73-1-.35 0-.65.26-.65.83a2.09 2.09 0 0 0 .33 1.06l-.71.22a2.81 2.81 0 0 1-.4-1.5c0-1.07.59-1.62 1.27-1.62a1.27 1.27 0 0 1 1.22 1 1.31 1.31 0 0 1 1.3-1.14c.88 0 1.58.74 1.58 2a2.84 2.84 0 0 1-.36 1.46zM379.79 81.18l1.65-1.62-1.65-1.62.45-.45 1.65 1.61 1.66-1.61.45.45-1.65 1.62 1.65 1.61-.45.45L381.9 80l-1.65 1.62zM384 76.83h-.6l-.57-.62c-1.14-1.22-1.76-1.8-2.45-1.81a.82.82 0 0 0-.87.93 1.89 1.89 0 0 0 .43 1.11l-.7.29a2.57 2.57 0 0 1-.54-1.6 1.54 1.54 0 0 1 1.58-1.71c.91 0 1.65.66 2.49 1.56l.39.46V73.3h.84zM381.37 68.87c1.67 0 2.72.66 2.72 1.9s-1.09 1.84-2.67 1.85-2.7-.69-2.7-1.9 1.11-1.85 2.65-1.85zm0 2.75c1.26 0 1.92-.34 1.92-.89s-.7-.88-2-.88-1.92.29-1.92.88.74.9 2.05.89zM381.37 64.58c1.67 0 2.72.66 2.72 1.9s-1.09 1.84-2.67 1.85-2.7-.69-2.7-1.9 1.11-1.85 2.65-1.85zm0 2.75c1.26 0 1.92-.34 1.92-.89s-.7-.88-2-.88-1.92.29-1.92.88.74.9 2.05.89zM384 152.59h-.6l-.57-.62c-1.14-1.22-1.76-1.8-2.45-1.81a.82.82 0 0 0-.87.93 1.89 1.89 0 0 0 .43 1.11l-.7.29a2.57 2.57 0 0 1-.54-1.6 1.54 1.54 0 0 1 1.58-1.71c.91 0 1.65.66 2.49 1.56l.39.46v-2.13h.84zM379.79 147.89l1.65-1.62-1.65-1.62.45-.45 1.65 1.61 1.66-1.61.45.45-1.65 1.62 1.65 1.62-.45.45-1.66-1.62-1.65 1.62zM384 143.53h-.6l-.57-.62c-1.14-1.22-1.76-1.8-2.45-1.81a.82.82 0 0 0-.87.93 1.89 1.89 0 0 0 .43 1.11l-.7.29a2.57 2.57 0 0 1-.54-1.6 1.54 1.54 0 0 1 1.58-1.71c.91 0 1.65.66 2.49 1.56l.39.46V140h.84zM381.37 135.58c1.67 0 2.72.66 2.72 1.9s-1.09 1.84-2.67 1.85-2.7-.69-2.7-1.9 1.11-1.85 2.65-1.85zm0 2.75c1.26 0 1.92-.34 1.92-.89s-.7-.88-2-.88-1.92.29-1.92.88.74.89 2.05.89zM381.37 131.29c1.67 0 2.72.66 2.72 1.9S383 135 381.42 135s-2.7-.69-2.7-1.9 1.11-1.81 2.65-1.81zm0 2.75c1.26 0 1.92-.34 1.92-.89s-.7-.88-2-.88-1.92.29-1.92.88.74.85 2.05.85zM382.64 118.92a1.43 1.43 0 0 1-1.35-1 1.27 1.27 0 0 1-1.15.79 1.55 1.55 0 0 1-1.42-1.74c0-1.12.67-1.63 1.31-1.63a1.3 1.3 0 0 1 1.18.8 1.4 1.4 0 0 1 1.31-1c.93 0 1.55.78 1.55 1.9s-.7 1.88-1.43 1.88zm-2.57-1.12c.42 0 .68-.35.82-.85a.84.84 0 0 0-.78-.65.7.7 0 0 0-.74.74.69.69 0 0 0 .7.76zm2.52-1.62c-.53 0-.82.39-1 1a1 1 0 0 0 .91.77.82.82 0 0 0 .84-.87.79.79 0 0 0-.75-.9zM384 114.56h-.6l-.57-.62c-1.14-1.22-1.76-1.8-2.45-1.81a.82.82 0 0 0-.87.93 1.89 1.89 0 0 0 .43 1.11l-.7.29a2.57 2.57 0 0 1-.54-1.6 1.54 1.54 0 0 1 1.58-1.71c.91 0 1.65.66 2.49 1.56l.39.46V111h.84zM382.67 252.46a1.43 1.43 0 0 1-1.35-1 1.27 1.27 0 0 1-1.15.79 1.55 1.55 0 0 1-1.42-1.73c0-1.12.67-1.63 1.31-1.63a1.3 1.3 0 0 1 1.18.8 1.4 1.4 0 0 1 1.31-1c.93 0 1.55.78 1.55 1.9s-.71 1.87-1.43 1.87zm-2.57-1.12c.42 0 .68-.35.82-.85a.84.84 0 0 0-.78-.65.7.7 0 0 0-.74.74.69.69 0 0 0 .7.76zm2.52-1.62c-.53 0-.82.39-1 1a1 1 0 0 0 .91.77.82.82 0 0 0 .84-.87.79.79 0 0 0-.75-.91zM384 248.1h-.6l-.57-.62c-1.14-1.22-1.76-1.8-2.45-1.81a.82.82 0 0 0-.87.93 1.89 1.89 0 0 0 .43 1.11l-.7.29a2.57 2.57 0 0 1-.54-1.6 1.54 1.54 0 0 1 1.58-1.71c.91 0 1.65.66 2.49 1.56l.39.46v-2.14h.84z"/><path class="cls-2" d="M45.56 255a.5.5 0 0 1-.5-.5v-228a.5.5 0 1 1 1 0v228a.5.5 0 0 1-.5.5zM51.33 255a.5.5 0 0 1-.5-.5v-228a.5.5 0 1 1 1 0v228a.5.5 0 0 1-.5.5zM57.11 255a.5.5 0 0 1-.5-.5v-228a.5.5 0 1 1 1 0v228a.5.5 0 0 1-.5.5zM62.88 255a.5.5 0 0 1-.5-.5v-228a.5.5 0 1 1 1 0v228a.5.5 0 0 1-.5.5zM68.65 255a.5.5 0 0 1-.5-.5v-228a.5.5 0 1 1 1 0v228a.5.5 0 0 1-.5.5zM74.43 255a.5.5 0 0 1-.5-.5v-228a.5.5 0 1 1 1 0v228a.5.5 0 0 1-.5.5zM80.2 255a.5.5 0 0 1-.5-.5v-228a.5.5 0 1 1 1 0v228a.5.5 0 0 1-.5.5zM86 255a.5.5 0 0 1-.5-.5v-228a.5.5 0 1 1 1 0v228a.5.5 0 0 1-.5.5zM91.75 255a.5.5 0 0 1-.5-.5v-228a.5.5 0 1 1 1 0v228a.5.5 0 0 1-.5.5zM97.52 255a.5.5 0 0 1-.5-.5v-228a.5.5 0 1 1 1 0v228a.5.5 0 0 1-.5.5zM103.29 255a.5.5 0 0 1-.5-.5v-228a.5.5 0 1 1 1 0v228a.5.5 0 0 1-.5.5zM109.07 255a.5.5 0 0 1-.5-.5v-228a.5.5 0 1 1 1 0v228a.5.5 0 0 1-.5.5zM114.84 255a.5.5 0 0 1-.5-.5v-228a.5.5 0 1 1 1 0v228a.5.5 0 0 1-.5.5zM120.61 255a.5.5 0 0 1-.5-.5v-228a.5.5 0 1 1 1 0v228a.5.5 0 0 1-.5.5zM126.39 255a.5.5 0 0 1-.5-.5v-228a.5.5 0 1 1 1 0v228a.5.5 0 0 1-.5.5zM132.16 255a.5.5 0 0 1-.5-.5v-228a.5.5 0 0 1 1 0v228a.5.5 0 0 1-.5.5zM137.93 255a.5.5 0 0 1-.5-.5v-228a.5.5 0 0 1 1 0v228a.5.5 0 0 1-.5.5zM143.71 255a.5.5 0 0 1-.5-.5v-228a.5.5 0 0 1 1 0v228a.5.5 0 0 1-.5.5zM149.48 255a.5.5 0 0 1-.5-.5v-228a.5.5 0 0 1 1 0v228a.5.5 0 0 1-.5.5zM155.25 255a.5.5 0 0 1-.5-.5v-228a.5.5 0 0 1 1 0v228a.5.5 0 0 1-.5.5zM161 255a.5.5 0 0 1-.5-.5v-228a.5.5 0 0 1 1 0v228a.5.5 0 0 1-.5.5zM166.8 255a.5.5 0 0 1-.5-.5v-228a.5.5 0 0 1 1 0v228a.5.5 0 0 1-.5.5zM172.57 255a.5.5 0 0 1-.5-.5v-228a.5.5 0 0 1 1 0v228a.5.5 0 0 1-.5.5zM178.35 255a.5.5 0 0 1-.5-.5v-228a.5.5 0 0 1 1 0v228a.5.5 0 0 1-.5.5zM184.12 255a.5.5 0 0 1-.5-.5v-228a.5.5 0 0 1 1 0v228a.5.5 0 0 1-.5.5zM189.89 255a.5.5 0 0 1-.5-.5v-228a.5.5 0 0 1 1 0v228a.5.5 0 0 1-.5.5zM195.67 255a.5.5 0 0 1-.5-.5v-228a.5.5 0 0 1 1 0v228a.5.5 0 0 1-.5.5zM201.44 255a.5.5 0 0 1-.5-.5v-228a.5.5 0 0 1 1 0v228a.5.5 0 0 1-.5.5zM207.21 255a.5.5 0 0 1-.5-.5v-228a.5.5 0 0 1 1 0v228a.5.5 0 0 1-.5.5zM213 255a.5.5 0 0 1-.5-.5v-228a.5.5 0 0 1 1 0v228a.5.5 0 0 1-.5.5zM218.76 255a.5.5 0 0 1-.5-.5v-228a.5.5 0 0 1 1 0v228a.5.5 0 0 1-.5.5zM224.53 255a.5.5 0 0 1-.5-.5v-228a.5.5 0 0 1 1 0v228a.5.5 0 0 1-.5.5zM230.31 255a.5.5 0 0 1-.5-.5v-228a.5.5 0 0 1 1 0v228a.5.5 0 0 1-.5.5zM236.08 255a.5.5 0 0 1-.5-.5v-228a.5.5 0 0 1 1 0v228a.5.5 0 0 1-.5.5zM241.85 255a.5.5 0 0 1-.5-.5v-228a.5.5 0 0 1 1 0v228a.5.5 0 0 1-.5.5zM247.63 255a.5.5 0 0 1-.5-.5v-228a.5.5 0 1 1 1 0v228a.5.5 0 0 1-.5.5zM253.4 255a.5.5 0 0 1-.5-.5v-228a.5.5 0 1 1 1 0v228a.5.5 0 0 1-.5.5zM259.17 255a.5.5 0 0 1-.5-.5v-228a.5.5 0 1 1 1 0v228a.5.5 0 0 1-.5.5zM264.95 255a.5.5 0 0 1-.5-.5v-228a.5.5 0 1 1 1 0v228a.5.5 0 0 1-.5.5zM270.72 255a.5.5 0 0 1-.5-.5v-228a.5.5 0 1 1 1 0v228a.5.5 0 0 1-.5.5zM276.49 255a.5.5 0 0 1-.5-.5v-228a.5.5 0 1 1 1 0v228a.5.5 0 0 1-.5.5zM282.27 255a.5.5 0 0 1-.5-.5v-228a.5.5 0 1 1 1 0v228a.5.5 0 0 1-.5.5zM288 255a.5.5 0 0 1-.5-.5v-228a.5.5 0 1 1 1 0v228a.5.5 0 0 1-.5.5zM293.81 255a.5.5 0 0 1-.5-.5v-228a.5.5 0 1 1 1 0v228a.5.5 0 0 1-.5.5zM299.59 255a.5.5 0 0 1-.5-.5v-228a.5.5 0 1 1 1 0v228a.5.5 0 0 1-.5.5zM305.36 255a.5.5 0 0 1-.5-.5v-228a.5.5 0 1 1 1 0v228a.5.5 0 0 1-.5.5zM311.13 255a.5.5 0 0 1-.5-.5v-228a.5.5 0 1 1 1 0v228a.5.5 0 0 1-.5.5zM316.91 255a.5.5 0 0 1-.5-.5v-228a.5.5 0 1 1 1 0v228a.5.5 0 0 1-.5.5zM322.68 255a.5.5 0 0 1-.5-.5v-228a.5.5 0 1 1 1 0v228a.5.5 0 0 1-.5.5zM328.45 255a.5.5 0 0 1-.5-.5v-228a.5.5 0 1 1 1 0v228a.5.5 0 0 1-.5.5zM334.23 255a.5.5 0 0 1-.5-.5v-228a.5.5 0 1 1 1 0v228a.5.5 0 0 1-.5.5zM401 255a.5.5 0 0 1-.5-.5v-1.83a.5.5 0 0 1 .12-.33l3.72-4.34-3.72-4.34a.5.5 0 0 1-.12-.33v-69.04a.5.5 0 0 1 .12-.33l3.72-4.34-3.72-4.34a.5.5 0 0 1-.12-.33v-46.41a.5.5 0 0 1 .13-.34l3.71-4.06-3.73-4.62a.5.5 0 0 1-.11-.31V40.54a.5.5 0 0 1 .12-.33l3.72-4.34-3.72-4.34a.5.5 0 0 1-.12-.33v-4.66a.5.5 0 1 1 1 0V31l3.88 4.52a.5.5 0 0 1 0 .65l-3.88 4.53V109l3.89 4.82a.5.5 0 0 1 0 .65l-3.87 4.23v46l3.88 4.53a.5.5 0 0 1 0 .65l-3.88 4.53v68.71l3.88 4.53a.5.5 0 0 1 0 .65l-3.88 4.53v1.65a.5.5 0 0 1-.52.52z"/><path class="cls-2" d="M334.23 31.71H45.56a.5.5 0 0 1 0-1h288.67a.5.5 0 0 1 0 1zM334.23 36.38H45.56a.5.5 0 0 1 0-1h288.67a.5.5 0 0 1 0 1zM334.23 41H45.56a.5.5 0 0 1 0-1h288.67a.5.5 0 0 1 0 1zM334.06 109.71H45.39a.5.5 0 1 1 0-1h288.67a.5.5 0 0 1 0 1zM334.06 87.38H45.39a.5.5 0 0 1 0-1h288.67a.5.5 0 0 1 0 1zM334.23 63.54H45.56a.5.5 0 0 1 0-1h288.67a.5.5 0 0 1 0 1zM334.06 114.38H45.39a.5.5 0 0 1 0-1h288.67a.5.5 0 0 1 0 1zM334.06 119H45.39a.5.5 0 1 1 0-1h288.67a.5.5 0 0 1 0 1zM334.06 165.46H45.39a.5.5 0 0 1 0-1h288.67a.5.5 0 0 1 0 1zM334.06 142.25H45.39a.5.5 0 0 1 0-1h288.67a.5.5 0 0 1 0 1zM334.06 170.12H45.39a.5.5 0 0 1 0-1h288.67a.5.5 0 0 1 0 1zM45.39 173.79h288.67v1H45.39zM334.06 243.87H45.39a.5.5 0 0 1 0-1h288.67a.5.5 0 0 1 0 1zM334.06 221H45.39a.5.5 0 0 1 0-1h288.67a.5.5 0 0 1 0 1zM334.06 197.92H45.39a.5.5 0 0 1 0-1h288.67a.5.5 0 0 1 0 1zM334.06 248.54H45.39a.5.5 0 0 1 0-1h288.67a.5.5 0 0 1 0 1zM334.06 253.21H45.39a.5.5 0 0 1 0-1h288.67a.5.5 0 0 1 0 1z"/><path class="cls-3" d="M50.33 47.88h-.26a13.13 13.13 0 0 1-13.12-13.12v-.26a13.13 13.13 0 0 1 13.12-13.12h.26a13.13 13.13 0 0 1 13.12 13.11v.26a13.13 13.13 0 0 1-13.12 13.13zm-.26-24.5a11.13 11.13 0 0 0-11.12 11.11v.26a11.13 11.13 0 0 0 11.12 11.13h.26a11.13 11.13 0 0 0 11.12-11.12v-.26a11.13 11.13 0 0 0-11.12-11.12zM56.75 261.29a24.44 24.44 0 1 1 24.45-24.44 24.47 24.47 0 0 1-24.45 24.44zm0-46.89a22.44 22.44 0 1 0 22.45 22.45 22.47 22.47 0 0 0-22.45-22.45z"/><path class="cls-1" d="M45.14 253.84h.5v27.15h-.5zM333.98 253.84h.5v27.15h-.5zM334.65 26.62h27.15v.5h-27.15zM334.65 253.95h27.15v.5h-27.15zM48.1 273.33h283.74v.5H48.1z"/><path class="cls-1" d="M48.6 274.31l-2.71-.73 2.71-.73v1.46zM331.35 274.31l2.71-.73-2.71-.73v1.46zM357.07 29.42h.5v222.21h-.5z"/><path class="cls-1" d="M358.05 251.13l-.73 2.71-.73-2.71h1.46zM358.05 29.91l-.73-2.71-.73 2.71h1.46zM386.42 24.92h.5V28h-.5z"/><path class="cls-1" d="M387.39 27.5l-.72 2.71-.73-2.71h1.45zM386.42 30.21h.5v11.37h-.5zM386.42 43.8h.5V106h-.5z"/><path class="cls-1" d="M387.39 105.5l-.72 2.71-.73-2.71h1.45zM387.39 44.29l-.72-2.71-.73 2.71h1.45zM386.42 108.21h.5v11.33h-.5zM386.42 121.76h.5v39.97h-.5z"/><path class="cls-1" d="M387.39 161.23l-.72 2.71-.73-2.71h1.45zM387.39 122.25l-.72-2.71-.73 2.71h1.45zM386.42 163.94h.5v11.38h-.5zM386.42 177.53h.5v62.61h-.5z"/><path class="cls-1" d="M387.39 239.65l-.72 2.7-.73-2.7h1.45zM387.39 178.02l-.72-2.71-.73 2.71h1.45zM386.42 242.36h.5v11.37h-.5zM386.42 255.94h.5v2.72h-.5z"/><path class="cls-1" d="M387.39 256.44l-.72-2.71-.73 2.71h1.45zM175.07 271.12v-.6l.62-.57c1.22-1.14 1.8-1.76 1.81-2.45a.82.82 0 0 0-.93-.87 1.9 1.9 0 0 0-1.11.43l-.29-.7a2.57 2.57 0 0 1 1.6-.54 1.54 1.54 0 0 1 1.71 1.58c0 .91-.66 1.65-1.56 2.49l-.46.39h2.14v.82zM182.66 266.74h-2l-.15 1h.38a2.32 2.32 0 0 1 1.26.34 1.49 1.49 0 0 1 .68 1.32 1.9 1.9 0 0 1-2.1 1.8 3 3 0 0 1-1.37-.3l.2-.74a2.63 2.63 0 0 0 1.14.27 1 1 0 0 0 1.13-1c0-.59-.44-1-1.48-1a4.5 4.5 0 0 0-.71 0l.34-2.62h2.69zM187.31 268.49c0 1.67-.66 2.72-1.9 2.72s-1.84-1.09-1.85-2.67.69-2.7 1.9-2.7 1.85 1.16 1.85 2.65zm-2.75 0c0 1.26.34 1.92.89 1.92s.88-.7.88-2-.29-1.92-.88-1.92-.89.75-.89 2.05zM191.6 268.49c0 1.67-.66 2.72-1.9 2.72s-1.84-1.09-1.85-2.67.69-2.7 1.9-2.7 1.85 1.16 1.85 2.65zm-2.75 0c0 1.26.34 1.92.89 1.92s.88-.7.88-2-.29-1.92-.88-1.92-.9.75-.89 2.05zM194.59 266.52V268h1.73v.62h-1.73v1.5h-.66v-1.5h-1.73V268h1.73v-1.46zm1.73 4v.62h-4.12v-.62zM198.53 266.81l-1 .48-.17-.74 1.26-.62h.82v5.2h-1zM204.95 268.49c0 1.67-.66 2.72-1.9 2.72s-1.84-1.09-1.85-2.67.69-2.7 1.9-2.7 1.85 1.16 1.85 2.65zm-2.75 0c0 1.26.34 1.92.89 1.92s.88-.7.88-2-.29-1.92-.88-1.92-.9.75-.89 2.05zM354.95 157.33h-.6l-.57-.62c-1.14-1.22-1.76-1.8-2.45-1.81a.82.82 0 0 0-.87.93 1.89 1.89 0 0 0 .43 1.11l-.7.29a2.57 2.57 0 0 1-.54-1.6 1.54 1.54 0 0 1 1.58-1.71c.91 0 1.65.66 2.49 1.56l.39.46v-2.13h.82zM352.32 149.38c1.67 0 2.72.66 2.72 1.89s-1.09 1.84-2.67 1.85-2.7-.69-2.7-1.9 1.11-1.84 2.65-1.84zm0 2.75c1.26 0 1.92-.34 1.92-.89s-.7-.88-2-.88-1.92.29-1.92.88.74.89 2.05.89zM353.93 148.56a2.57 2.57 0 0 0 .32-1.18c0-.75-.42-1.05-.83-1-.62 0-.88.58-.88 1.18v.44h-.72v-.44c0-.46-.21-1-.73-1-.35 0-.65.26-.65.83a2.09 2.09 0 0 0 .33 1.06l-.71.22a2.81 2.81 0 0 1-.4-1.5c0-1.07.59-1.62 1.27-1.62a1.27 1.27 0 0 1 1.22 1 1.31 1.31 0 0 1 1.3-1.14c.88 0 1.58.74 1.58 2a2.84 2.84 0 0 1-.36 1.46zM352.32 140.8c1.67 0 2.72.66 2.72 1.9s-1.09 1.84-2.67 1.85-2.7-.69-2.7-1.9 1.11-1.85 2.65-1.85zm0 2.75c1.26 0 1.92-.34 1.92-.89s-.7-.88-2-.88-1.92.29-1.92.88.74.9 2.05.89zM350.34 137.81h1.46v-1.73h.62v1.73h1.5v.66h-1.5v1.73h-.62v-1.73h-1.46zm4-1.73h.62v4.13h-.62zM350.64 133.87l.48 1-.74.17-.62-1.26v-.82h5.2v1zM352.32 127.46c1.67 0 2.72.66 2.72 1.9s-1.09 1.84-2.67 1.85-2.7-.69-2.7-1.9 1.11-1.85 2.65-1.85zm0 2.75c1.26 0 1.92-.34 1.92-.89s-.7-.88-2-.88-1.92.29-1.92.88.74.89 2.05.89z"/><circle class="cls-2" cx="399.87" cy="30.21" r=".65"/><circle class="cls-2" cx="403.49" cy="35.86" r=".65"/><circle class="cls-2" cx="399.87" cy="41.58" r=".65"/><circle class="cls-2" cx="399.9" cy="163.91" r=".65"/><circle class="cls-2" cx="399.9" cy="141.75" r=".65"/><circle class="cls-2" cx="399.9" cy="119.54" r=".65"/><circle class="cls-2" cx="399.9" cy="108.21" r=".65"/><circle class="cls-2" cx="399.9" cy="86.87" r=".65"/><circle class="cls-2" cx="399.88" cy="63.04" r=".65"/><circle class="cls-2" cx="403.62" cy="114.17" r=".65"/><circle class="cls-2" cx="403.52" cy="169.56" r=".65"/><circle class="cls-2" cx="399.9" cy="175.28" r=".65"/><circle class="cls-2" cx="399.9" cy="197.42" r=".65"/><circle class="cls-2" cx="399.9" cy="220.54" r=".65"/><circle class="cls-2" cx="399.9" cy="242.35" r=".65"/><circle class="cls-2" cx="403.52" cy="248.01" r=".65"/><circle class="cls-2" cx="399.9" cy="253.73" r=".65"/><path class="cls-3" d="M401 124.94a11.43 11.43 0 1 1 11.43-11.43A11.44 11.44 0 0 1 401 124.94zm0-20.85a9.43 9.43 0 1 0 9.43 9.43 9.44 9.44 0 0 0-9.43-9.43z"/></svg>