<svg id="Layer_1" data-name="Layer 1" xmlns="http://www.w3.org/2000/svg" viewBox="0 0 126 108.68"><defs><style>.cls-1{fill:none}.cls-2{fill:#888}.cls-3{clip-path:url(#clip-path)}.cls-4{fill:#007e4d}.cls-5{fill:#ccc}</style><clipPath id="clip-path"><circle class="cls-1" cx="81.72" cy="62.86" r="29.46"/></clipPath></defs><title>gitter-scheme-a</title><path class="cls-2" d="M17.78 22.62l-.53 1.9h-1.73l2.27-7.42H20l2.3 7.42h-1.8l-.57-1.9zm1.88-1.25l-.46-1.57c-.13-.44-.26-1-.37-1.43-.11.44-.22 1-.34 1.43L18 21.37zM27.78 16.89a7.25 7.25 0 0 0-1.39 4.5 7.42 7.42 0 0 0 1.39 4.47H27a7.11 7.11 0 0 1-1.44-4.47 7.26 7.26 0 0 1 1.44-4.5zM29.16 19.2l1.17 3.15c.12.35.25.77.34 1.09.1-.32.21-.73.34-1.11l1.06-3.12h1L31.65 23a8.11 8.11 0 0 1-1.83 3.33 2.62 2.62 0 0 1-1.19.63l-.24-.81a2.56 2.56 0 0 0 .85-.47 2.93 2.93 0 0 0 .81-1.08.7.7 0 0 0 .08-.23.84.84 0 0 0-.07-.25l-2-4.91zM34 19.27a11.35 11.35 0 0 1 1.69-.12c.89 0 2.37.14 2.37 1.33a1.26 1.26 0 0 1-1.11 1.2c.78.11 1.35.55 1.35 1.32 0 1.4-1.76 1.57-2.81 1.57-.59 0-1.21 0-1.5-.07zm.91 4.62a5.83 5.83 0 0 0 .78 0c.65 0 1.62-.15 1.62-.92s-.77-.94-1.69-.94h-.7zm0-2.45h.73c.72 0 1.45-.21 1.45-.84s-.46-.78-1.43-.78a6.86 6.86 0 0 0-.75 0zM40 22a1.71 1.71 0 0 0 1.83 1.85 3.5 3.5 0 0 0 1.47-.27l.17.69a4.31 4.31 0 0 1-1.77.33 2.47 2.47 0 0 1-2.6-2.6 2.59 2.59 0 0 1 2.5-2.87 2.26 2.26 0 0 1 2.2 2.51 3.6 3.6 0 0 1 0 .45zm2.84-.69a1.38 1.38 0 0 0-1.34-1.57 1.6 1.6 0 0 0-1.5 1.61zM49 19.2v5.32h-1V20h-1.74v1.39c0 1.5-.14 2.5-.84 2.95a1.55 1.55 0 0 1-1.06.33l-.1-.76a1.19 1.19 0 0 0 .53-.22c.49-.36.55-1.11.55-2.3V19.2zM51.52 19.2v2.24c0 .85 0 1.38-.06 2.13.32-.65.51-1 .86-1.64L54 19.2h1.13v5.32h-.92v-2.25c0-.87 0-1.32.07-2.18-.34.68-.57 1.11-.88 1.65-.51.82-1.09 1.85-1.66 2.78H50.6V19.2zM57.48 19.2V21c0 .67.25 1.13 1.1 1.13a2 2 0 0 0 1.14-.37V19.2h1v5.32h-1v-2.13a2.8 2.8 0 0 1-1.44.41 1.58 1.58 0 0 1-1.75-1.74V19.2zM62.8 22a1.71 1.71 0 0 0 1.83 1.85 3.5 3.5 0 0 0 1.47-.27l.17.69a4.31 4.31 0 0 1-1.77.33 2.47 2.47 0 0 1-2.62-2.6 2.59 2.59 0 0 1 2.5-2.87 2.26 2.26 0 0 1 2.2 2.51 3.6 3.6 0 0 1 0 .45zm2.84-.69a1.38 1.38 0 0 0-1.34-1.57 1.6 1.6 0 0 0-1.49 1.57zM68.71 19.2v2.15h2.53V19.2h1v5.32h-1v-2.4h-2.53v2.41h-1V19.2zM78.6 21.82a2.6 2.6 0 0 1-2.65 2.83 2.53 2.53 0 0 1-2.55-2.74 2.6 2.6 0 0 1 2.6-2.83 2.52 2.52 0 0 1 2.6 2.74zm-4.22.06c0 1.17.67 2 1.62 2s1.62-.87 1.62-2.07c0-.9-.45-2-1.6-2s-1.65 1.05-1.65 2.06zM79.24 25.86a7.45 7.45 0 0 0 1.39-4.5 7.29 7.29 0 0 0-1.39-4.47H80a7 7 0 0 1 1.44 4.48A7.14 7.14 0 0 1 80 25.86z"/><g class="cls-3"><path class="cls-4" d="M63.76 42.57h4v50h-4zM78.22 42.57h4v50h-4zM92.68 42.57h4v50h-4z"/><path class="cls-4" d="M61.18 51.07h50v4h-50zM61.18 62.73h50v4h-50zM61.18 74.4h50v4h-50z"/></g><path class="cls-5" d="M81.72 93.32a30.46 30.46 0 1 1 30.46-30.46 30.49 30.49 0 0 1-30.46 30.46zm0-58.92a28.46 28.46 0 1 0 28.46 28.46A28.49 28.49 0 0 0 81.72 34.4z"/><path class="cls-2" d="M23.12 85.73h-.6l-.57-.62c-1.14-1.22-1.76-1.8-2.45-1.81a.82.82 0 0 0-.87.93 1.89 1.89 0 0 0 .43 1.11l-.7.29a2.57 2.57 0 0 1-.54-1.6 1.54 1.54 0 0 1 1.58-1.71c.91 0 1.65.66 2.49 1.56l.39.46v-2.13h.82zM20.49 77.77c1.67 0 2.72.66 2.72 1.9s-1.09 1.84-2.67 1.85-2.7-.69-2.7-1.9 1.16-1.85 2.65-1.85zm0 2.75c1.26 0 1.92-.34 1.92-.89s-.7-.88-2-.88-1.92.29-1.92.88.74.9 2.04.9zM22.1 77a2.57 2.57 0 0 0 .32-1.18c0-.75-.42-1.06-.83-1-.62 0-.88.58-.88 1.18v.46H20v-.44c0-.46-.21-1-.73-1-.35 0-.65.26-.65.83a2.09 2.09 0 0 0 .33 1.06l-.71.22a2.81 2.81 0 0 1-.4-1.5c0-1.07.59-1.62 1.27-1.62a1.27 1.27 0 0 1 1.22 1 1.31 1.31 0 0 1 1.3-1.14c.88 0 1.58.74 1.58 2a2.84 2.84 0 0 1-.36 1.46zM20.49 69.2c1.67 0 2.72.66 2.72 1.9s-1.09 1.84-2.67 1.85-2.7-.69-2.7-1.9S19 69.2 20.49 69.2zm0 2.75c1.26 0 1.92-.34 1.92-.89s-.7-.88-2-.88-1.92.29-1.92.88.74.94 2.04.89zM18.51 66.21H20v-1.73h.62v1.73h1.5v.66H20.6v1.73H20v-1.73h-1.49zm4-1.73h.62v4.12h-.62zM18.81 62.27l.48 1-.74.17-.62-1.26v-.82h5.2v1zM20.49 55.85c1.67 0 2.72.66 2.72 1.9s-1.09 1.84-2.67 1.85-2.7-.69-2.7-1.9 1.16-1.85 2.65-1.85zm0 2.75c1.26 0 1.92-.34 1.92-.89s-.7-.88-2-.88-1.92.29-1.92.88.74.9 2.04.89zM43.6 81.91a2.57 2.57 0 0 0 .32-1.18c0-.75-.42-1.06-.83-1-.62 0-.88.58-.88 1.18v.46h-.72v-.44c0-.46-.21-1-.73-1-.35 0-.65.26-.65.83a2.09 2.09 0 0 0 .33 1.06l-.71.22a2.81 2.81 0 0 1-.4-1.5c0-1.07.59-1.62 1.27-1.62a1.27 1.27 0 0 1 1.22 1 1.31 1.31 0 0 1 1.3-1.14c.88 0 1.58.74 1.58 2a2.84 2.84 0 0 1-.36 1.46zM42 74.15c1.67 0 2.72.66 2.72 1.9s-1.1 1.83-2.72 1.84-2.7-.69-2.7-1.9 1.15-1.84 2.7-1.84zm0 2.75c1.26 0 1.92-.34 1.92-.89s-.7-.88-2-.88-1.92.29-1.92.88.73.9 2 .89zM40 71.16h1.46v-1.73h.62v1.73h1.5v.66H42.1v1.73h-.62v-1.73H40zm4-1.73h.62v4.13H44zM44.62 68.76H44l-.57-.62c-1.14-1.22-1.76-1.8-2.45-1.81a.82.82 0 0 0-.87.93 1.89 1.89 0 0 0 .43 1.11l-.7.29a2.57 2.57 0 0 1-.54-1.6 1.54 1.54 0 0 1 1.58-1.71c.91 0 1.65.66 2.49 1.56l.39.46v-2.13h.82zM20.18 42.32h43.67v.5H20.18zM46.26 42.9h.5v10.17h-.5zM46.26 55.28h.5v29.64h-.5z"/><path class="cls-2" d="M47.24 55.78l-.73-2.71-.72 2.71h1.45zM46.26 32.4h.5v7.95h-.5z"/><path class="cls-2" d="M47.24 39.86l-.73 2.71-.72-2.71h1.45zM24.93 44.78h.5V87.9h-.5z"/><path class="cls-2" d="M25.91 45.28l-.73-2.71-.73 2.71h1.46zM43.35 52.82h17.83v.5H43.35z"/></svg>