<svg id="Layer_1" data-name="Layer 1" xmlns="http://www.w3.org/2000/svg" viewBox="0 0 128 128"><defs><style>.cls-1{fill:#fff}</style></defs><title>icon-warehouse</title><path class="cls-1" d="M34.63 62.72v39.11h-4.91V48.06h-4.91v-4.64c0-.24.48-.53.79-.67q11.44-5.17 22.89-10.31c4.5-2 9-4 13.49-6.08a1.92 1.92 0 0 1 1.71 0q19.18 8.19 38.38 16.34c.79.33 1.16.7 1.08 1.6a26.38 26.38 0 0 0 0 3.06c0 .54-.2.73-.73.72h-4.17v53.78h-4.9V62.72zm14.75-12.2v7.26h12.07v-7.26zm-14.72 7.24h12.1v-7.22h-12.1zm29.42 0h12.08v-7.22H64.09zm29.18-7.28H81.63c-.18 0-.49.44-.5.68V57.72h12.14z"/><path class="cls-1" d="M54.18 92H39.61v-7.3h14.57zM39.56 82.18v-7.24h14.63v7.24zM54.2 101.82H39.61v-7.28H54.2zM88.46 94.55v7.24H73.82v-7.24zM71.3 84.7V92H56.73v-7.3zM71.3 94.55v7.24H56.73v-7.24z"/></svg>