<svg id="Layer_1" data-name="Layer 1" xmlns="http://www.w3.org/2000/svg" viewBox="0 0 128 128"><defs><style>.cls-1{fill:#fff}</style></defs><title>icon-recreation</title><path class="cls-1" d="M60.24 85.45l-38.08-.08v5.9h9.24v8.54h5.68V91.4h23v8.39H66V91.2h10v-5.74zM104 47.92a2.93 2.93 0 0 1 .19-2.36 11.77 11.77 0 0 0 .91-10.15c-1.93-5.05-5.84-7.51-11.1-7.91-1.87-5.17-5.12-7.75-9.31-7.25-5.41.64-7.93 4.37-8.11 9.46a14 14 0 0 0-9.12 6.18 18.59 18.59 0 0 0 0 20.26c2.75 4 6.46 6.36 11.49 6.17 3.14-.12 4.48 1.18 4.49 4.43V97.9h5.64V67.45c.76.08 1.29.15 1.83.19 5.31.33 9.7-1.5 12.67-6s2.91-9.03.42-13.72zM67.66 70.33H30.13v11h37.53z"/></svg>