<svg id="Layer_1" data-name="Layer 1" xmlns="http://www.w3.org/2000/svg" viewBox="0 0 128 128"><defs><style>.cls-1{fill:#fff}</style></defs><title>icon-roads</title><path class="cls-1" d="M51.32 43a.53.53 0 0 1-.39.32H47.2l.51-1.62h-7.46a1 1 0 0 0-.65.45c-.66 1.09-1.29 2.21-1.92 3.32q-4.15 7.34-8.29 14.69c-4 7-8.84 14-12.83 21.07-.87 1.52-2.55 3-3.55 4.52v.16H28.7c.25 0 1.07-.27 1.18-.51.52-1.17 1.22-2.36 1.64-3.56a1 1 0 0 1 1.17-.7h8.94c.28 0 .58.6.92.63-.35 1.61-.65 3.22-1 5.22H57V42h-5.38c-.1 2-.16.64-.3 1zm-5.68 24.8c-.43 1.87-.86 3.74-1.25 5.62-.12.56-.33.79-1 .78h-8.53a7.67 7.67 0 0 1 .22-.79c1.9-4.75 3.81-9.5 5.68-14.26a.88.88 0 0 1 1-.65h5.96c-.72 3.17-1.39 6.23-2.08 9.3zm3.19-14c-.05.22-.34.53-.53.53h-5.56c.48-1.25.92-2.41 1.38-3.56.68-1.71 1.36-3.41 2.06-5.1.09-.21.32-.52.49-.53h4.14c-.68 3-1.31 5.86-1.98 8.66zM110.34 81H115c-2.3-2-4.44-5.07-6.61-7.53a1.26 1.26 0 0 0-.84-.29h-3.12a1.65 1.65 0 0 1-1.06-.47c-1.11-1.29-2.16-2.64-3.22-4-.65-.82-1.29-1.16-1.94-2 0-.07.07.26.1.26h3.59c-1.73-3-3.33-4.31-4.89-6.17-.43-.51-.91-1-1.53-.85-1.93.37-3.24.07-4.17-1.6-.35-.63-.88-1.39-1.45-1.39H93c-1.2-1-2.33-3.07-3.24-4.34s-1.76-2-3.15-1.74c-.34.05-.83.13-1.05-.08A7.83 7.83 0 0 1 84 49h2.67c-.81 0-1.55-1.88-2.13-2.7a1.84 1.84 0 0 0-1.83-.93c-.18 0-.38-.08-.56-.06-.85.12-1.22-.43-1.55-1.18l2.15-.13c-.57-.67-1-1.18-1.46-1.73s-.76-.47-1.36-.46c-5.79 0-11.59.18-17.38.18h-1v1.66c0 .42.16.49.57.48.61 0 1.23.31 1.84.31 1 0 1.06.54.73 1.54H61.6v2.27c0 .5-.3.47.18.45.88 0 1.24-.19 2.24-.19V50H60v5.81h3.74c.22 0 1 .17 1 .28 0 1.18.23 2.37.23 3.64h-2.75c-.58 0-1.57.13-1.53.76 0 .91-.74 1.81-.74 2.72v2.86h3.79c.73 0 1.43.15 1.43 1 0 1.79.28 3.46.32 5.25a7.53 7.53 0 0 0 .15.75H61.6v7.5c0 .44.22.59.6.59 1 0 2 .07 3 0 .72 0 .9.81.9 1.5 0 1.27.1 2.4.15 4.4h10.31c-.29-2-.57-3-.87-6h11.08c4.27 0 8.54.09 12.82.06a1.46 1.46 0 0 1 1.52.88c.6 1.16 1.37 2.24 2 3.37a1.07 1.07 0 0 0 1.08.61H113c.23 0 .45 0 .81-.05-1.25-1.59-2.42-3.12-3.59-4.6.05-.14.09-.33.12-.33zM68.89 44.1h.81c2.5 0 5-.08 7.5-.15.87 0 1.14 1.09 1.44 1.09h-1.27c-2.5 0-5 .09-7.5.14-.87-.03-1.13-.18-.98-1.08zm1 6.06a11.8 11.8 0 0 1-.31-1.58H79.6c.81 0 1.38.16 1.69 1a11.32 11.32 0 0 0 .71 1.06H70.53a.8.8 0 0 1-.61-.48zm1.6 9.39c-.14-1-.36-2.55-.57-2.55h.88c4.19 0 8.37-.59 12.56-.61.55 0 .89-.15 1.16.33.6 1.06 1.25 1.94 1.95 3.09a9.76 9.76 0 0 1-1 0c-4.67 0-9.33.25-14 .28-.56 0-.86.11-.94-.54zM94.83 73.2H75.12c-.74 0-1-.22-1.14-.95-.32-2-.72-4-1.11-6.15H90.61a1.31 1.31 0 0 1 1 .34c1.38 2.18 2.71 4.39 4.13 6.73-.44 0-.67.03-.91.03z"/></svg>