<svg width="18" height="10" viewBox="0 0 18 10" xmlns="http://www.w3.org/2000/svg"><title>Combined Shape</title><path d="M9 10c-2.14 0-4.232-.883-6.199-2.346a16.94 16.94 0 0 1-2.35-2.122 7.238 7.238 0 0 1-.183-.21L0 5l.268-.323a14.359 14.359 0 0 1 .688-.737 16.94 16.94 0 0 1 1.845-1.594C4.768.883 6.861 0 9 0c2.14 0 4.232.883 6.199 2.346a16.94 16.94 0 0 1 2.35 2.122c.087.098.149.169.183.21L18 5l-.268.323a14.359 14.359 0 0 1-.688.737 16.94 16.94 0 0 1-1.845 1.594C13.232 9.117 11.139 10 9 10zM1.645 5.346a15.96 15.96 0 0 0 1.736 1.5C5.195 8.196 7.101 9 9 9c1.899 0 3.805-.804 5.619-2.154A15.96 15.96 0 0 0 16.692 5a15.96 15.96 0 0 0-2.073-1.846C12.805 1.804 10.899 1 9 1c-1.899 0-3.805.804-5.619 2.154A15.96 15.96 0 0 0 1.308 5c.095.101.208.217.337.346zM9 8C7.371 8 6.05 6.657 6.05 5S7.372 2 9 2c1.629 0 2.95 1.343 2.95 3S10.628 8 9 8zm0-1c1.086 0 1.966-.895 1.966-2S10.086 3 9 3c-1.086 0-1.966.895-1.966 2S7.914 7 9 7zm0-1a.992.992 0 0 1-.983-1c0-.552.44-1 .983-1 .543 0 .983.448.983 1S9.543 6 9 6z" fill="#484848"/></svg>