<svg width="46" height="52" viewBox="0 0 46 52" xmlns="http://www.w3.org/2000/svg" xmlns:xlink="http://www.w3.org/1999/xlink"><title>Veneers_Ico_1_3</title><defs><linearGradient x1="100%" y1="50%" x2="0%" y2="50%" id="a"><stop stop-color="#67C6F2" offset="0%"/><stop stop-color="#AEEDF6" offset="100%"/></linearGradient><path d="M43.255 15.72a2.04 2.04 0 0 1 2.04 2.04V29.02c0 11.975-9.37 21.886-21.274 22.602h-2.747C9.371 50.903 0 40.992 0 29.017V17.76a2.04 2.04 0 0 1 2.04-2.04c2.558 0 5.062.43 7.44 1.26.991-4.66 3.336-8.701 6.574-12.12a29.863 29.863 0 0 1 3.739-3.34c.454-.34.88-.639 1.267-.892.262-.172.483-.308.628-.39.063-.033.123-.06.205-.094.09-.036.166-.06.37-.109A3.3 3.3 0 0 1 22.649 0c.104 0 .188.007.403.04.097.02.172.041.357.107.063.025.118.05.268.125.41.239 1.059.666 1.846 1.258a29.879 29.879 0 0 1 3.723 3.333c3.234 3.419 5.577 7.46 6.569 12.12a22.503 22.503 0 0 1 7.44-1.263zM41.214 29.02v-9.105c-9.322 1.022-16.525 8.952-16.525 18.454v9.105c9.322-1.022 16.525-8.951 16.525-18.454zM13.303 18.725a22.791 22.791 0 0 1 9.346 10.25 22.797 22.797 0 0 1 9.345-10.25C30.97 12.5 27.154 7.712 22.65 4.492c-4.506 3.234-8.328 8.03-9.348 14.234zm-9.22 1.189v9.105c0 9.503 7.202 17.432 16.524 18.453v-9.105c0-9.502-7.202-17.431-16.524-18.453z" id="b"/><filter x="-4.4%" y="-3.9%" width="108.8%" height="107.7%" filterUnits="objectBoundingBox" id="c"><feGaussianBlur stdDeviation="1.5" in="SourceAlpha" result="shadowBlurInner1"/><feOffset dy="1" in="shadowBlurInner1" result="shadowOffsetInner1"/><feComposite in="shadowOffsetInner1" in2="SourceAlpha" operator="arithmetic" k2="-1" k3="1" result="shadowInnerInner1"/><feColorMatrix values="0 0 0 0 0 0 0 0 0 0 0 0 0 0 0 0 0 0 0.1 0" in="shadowInnerInner1"/></filter></defs><g fill-rule="nonzero" fill="none"><use fill="url(#a)" fill-rule="evenodd" xlink:href="#b"/><use fill="#000" filter="url(#c)" xlink:href="#b"/></g></svg>