<svg width="47" height="28" viewBox="0 0 47 28" xmlns="http://www.w3.org/2000/svg"><title>Veneers_Ico_2_2</title><path d="M23.5 12.76c.26-2.67.63-4.964 1.14-6.602.278-.893 1.298-3.266 1.619-3.716.681-.958 1.627-1.724 3.022-1.971a15.8 15.8 0 0 1 .912-.137c.478-.056.948-.09 1.708-.124.218-.01 1.774-.073 2.381-.1 2.487-.112 4.849.269 6.222.79.126.047.448.16.499.18.077.029.147.058.217.09.297.142.507.294 1.175.831.866.696 1.636 2.386 2.471 5.216 1.027 4.7 1.977 12.158 2.131 16.449.084 2.304-2.203 3.007-7.607 3.367-.51.034-9.062.002-9.225-.007-3.78-.214-5.81-.578-6.666-1.645-.855 1.067-2.886 1.431-6.665 1.645-.27.015-3.043.037-8.317.064-2.81-.167-4.39-.338-5.68-.683C1 25.916-.048 25.032.002 23.666c.154-4.291 1.104-11.75 2.13-16.449.836-2.83 1.606-4.52 2.472-5.216.668-.537.878-.69 1.175-.83.07-.033.14-.062.217-.092.05-.019.372-.132.498-.18C7.868.38 10.23 0 12.716.11c.608.028 2.164.091 2.382.101.76.035 1.23.068 1.708.124.292.035.585.079.912.137 1.395.247 2.34 1.013 3.022 1.971.32.45 1.341 2.823 1.619 3.716.509 1.638.88 3.931 1.14 6.601zm-6.8 12.587c4.259-.24 5.308-.582 5.3-1.67-.06-6.874-.508-13.657-1.576-17.093-.234-.752-1.199-2.995-1.4-3.278-.422-.593-1-1.061-1.72-1.189-.283-.05-.531-.087-.778-.117-.409-.048-.828-.077-1.536-.11-.21-.009-1.766-.072-2.38-.1-2.165-.097-4.209.232-5.294.644-.161.061-.483.174-.498.18a.791.791 0 0 0-.058.023c-.09.043-.247.157-.775.581-.482.388-1.173 1.905-1.898 4.354C3.09 12.137 2.152 19.512 2 23.717c-.032.875 1.458 1.334 5.678 1.631 6.417-.05 8.134.05 9.02-.001zm13.6 0c.086.005 8.291.001 9.724-.049 3.64-.289 5.004-.762 4.974-1.58-.151-4.207-1.09-11.58-2.086-16.146-.725-2.449-1.416-3.966-1.898-4.354-.528-.424-.684-.538-.775-.58a.791.791 0 0 0-.058-.025c-.015-.005-.337-.118-.498-.18-1.085-.41-3.129-.74-5.294-.643-.614.028-2.17.091-2.38.1-.708.033-1.127.062-1.537.11-.246.03-.494.067-.778.117-.72.128-1.297.596-1.72 1.19-.2.282-1.165 2.525-1.399 3.277C25.507 10.02 25.058 16.803 25 23.677c-.01 1.088 1.04 1.43 5.3 1.67z" fill-rule="nonzero" fill="#4A90E2"/></svg>