<svg width="50" height="45" viewBox="0 0 50 45" xmlns="http://www.w3.org/2000/svg" xmlns:xlink="http://www.w3.org/1999/xlink"><title>Veneers_Ico_3_3</title><defs><linearGradient x1="100%" y1="50%" x2="0%" y2="50%" id="a"><stop stop-color="#67C6F2" offset="0%"/><stop stop-color="#AEEDF6" offset="100%"/></linearGradient><path d="M49.69 14.238a1.4 1.4 0 0 0 .085-.324l.002-.01c.013-.115.008-.23-.008-.345l-.014-.085a1.37 1.37 0 0 0-.091-.29c-.006-.013-.007-.027-.012-.039-.002-.004-.006-.007-.007-.011a1.395 1.395 0 0 0-.16-.256L39.685.57c-.009-.011-.02-.018-.03-.029a1.376 1.376 0 0 0-.139-.14c-.025-.022-.047-.046-.073-.065a1.348 1.348 0 0 0-.174-.109c-.027-.015-.052-.034-.08-.047l-.013-.008a1.385 1.385 0 0 0-.562-.124l-.016-.002H24.996 11.394l-.016.002c-.19.001-.38.04-.563.124l-.012.007c-.029.014-.054.033-.08.048-.061.033-.12.067-.175.109-.026.02-.048.043-.073.065-.05.044-.097.09-.14.14l-.029.028L.507 12.877a1.414 1.414 0 0 0-.16.256l-.007.012c-.006.012-.007.026-.012.038a1.37 1.37 0 0 0-.09.29c-.006.03-.012.058-.015.086a1.43 1.43 0 0 0-.008.344l.002.01a1.4 1.4 0 0 0 .12.404c.043.098.098.192.166.279.005.006.007.014.012.02l.01.013.004.005 23.388 28.872.002.002c.01.012.023.023.033.034.042.048.087.092.135.134.013.011.022.024.035.035l.012.008.016.014c.037.029.078.052.118.077.021.014.042.03.065.042.016.009.033.015.05.023.023.012.047.022.072.032l.013.006c.025.01.05.024.076.033.035.012.07.018.105.027.025.006.049.014.074.019.09.017.18.03.271.03h.003c.091 0 .182-.012.272-.03.025-.005.049-.013.074-.02.034-.008.07-.014.104-.026.026-.009.051-.023.077-.034a.122.122 0 0 0 .012-.005c.025-.01.05-.02.074-.032.015-.008.032-.014.048-.023.023-.012.044-.029.066-.043.04-.024.08-.047.117-.076l.016-.014.012-.008c.013-.01.022-.024.035-.035.048-.042.093-.086.136-.134l.032-.034.002-.002 23.388-28.872.004-.005.01-.013c.005-.006.008-.013.012-.02a1.354 1.354 0 0 0 .202-.358zM11.07 4.068l3.79 8.286H4.475L11.07 4.07zm2.485-1.245h8.92l-5.177 8.182-3.743-8.182zm6.176 9.53l5.265-8.32 5.265 8.32h-10.53zm11.412 2.778l-6.148 22.28-6.148-22.28h12.296zm1.55-4.128l-5.175-8.18h8.917l-3.742 8.18zm6.227-6.934l6.596 8.285H35.13l3.79-8.285zM15.966 15.13l5.922 21.457L4.505 15.131h11.461zm12.138 21.458l5.922-21.458h11.46L28.104 36.59z" id="b"/><filter x="-4%" y="-4.5%" width="108.1%" height="109.1%" filterUnits="objectBoundingBox" id="c"><feGaussianBlur stdDeviation="1.5" in="SourceAlpha" result="shadowBlurInner1"/><feOffset dy="1" in="shadowBlurInner1" result="shadowOffsetInner1"/><feComposite in="shadowOffsetInner1" in2="SourceAlpha" operator="arithmetic" k2="-1" k3="1" result="shadowInnerInner1"/><feColorMatrix values="0 0 0 0 0 0 0 0 0 0 0 0 0 0 0 0 0 0 0.1 0" in="shadowInnerInner1"/></filter></defs><g transform="translate(-.154 .186)" fill-rule="nonzero" fill="none"><use fill="url(#a)" fill-rule="evenodd" xlink:href="#b"/><use fill="#000" filter="url(#c)" xlink:href="#b"/></g></svg>