<svg width="44" height="33" viewBox="0 0 44 33" xmlns="http://www.w3.org/2000/svg"><title>Veneers_Ico_2_6</title><path d="M22.203 31.086c-1.136.514-2.87.76-5.369.927-.27.019-3.043.044-8.317.077-2.81-.198-4.39-.402-5.68-.812C1 30.694-.048 29.644.002 28.02c.154-5.1 1.104-13.964 2.13-19.55.836-3.364 1.606-5.371 2.472-6.198.668-.639.878-.82 1.175-.988.07-.04.14-.074.217-.109.05-.022.372-.156.498-.213C7.868.343 10.23-.109 12.716.023c.608.032 2.164.108 2.382.12.76.04 1.23.08 1.708.147.292.041.585.093.912.162 1.395.294 2.34 1.205 3.022 2.343.32.535 1.341 3.355 1.619 4.417l.049.192c.732-2.727 1.425-4.397 2.196-5.132.668-.639.878-.82 1.175-.988.07-.04.14-.074.217-.109.05-.022.372-.156.498-.213C27.868.343 30.23-.109 32.716.023c.608.032 2.164.108 2.382.12.76.04 1.23.08 1.708.147.292.041.585.093.912.162 1.395.294 2.34 1.205 3.022 2.343.32.535 1.341 3.355 1.619 4.417 1.128 4.313 1.58 12.443 1.64 20.808.02 2.92-1.83 3.635-7.165 3.993-.163.012-8.715.05-9.225.01-2.39-.19-4.17-.459-5.406-.937zm1.59-1.613c.77.2 1.815.36 3.179.488 1.432.06 9.638.063 9.724.057 4.26-.285 5.309-.691 5.3-1.984-.059-8.17-.507-16.231-1.576-20.316-.233-.893-1.198-3.56-1.4-3.895-.422-.706-1-1.262-1.718-1.413-.285-.06-.533-.104-.779-.14-.41-.057-.829-.092-1.536-.13-.211-.011-1.767-.087-2.38-.12-2.166-.115-4.21.277-5.294.766-.162.073-.484.207-.499.213a.73.73 0 0 0-.058.029c-.09.05-.246.186-.775.69-.482.46-1.173 2.264-1.898 5.175-.249 1.358-.495 2.926-.725 4.592.413 4.17.604 9.306.641 14.535.004.561-.061 1.041-.207 1.453zm-7.087.546c4.26-.286 5.31-.691 5.3-1.984-.058-8.17-.507-16.232-1.575-20.316-.234-.893-1.199-3.56-1.4-3.896-.422-.705-1-1.261-1.719-1.413-.284-.06-.532-.104-.779-.139-.409-.057-.828-.092-1.535-.13-.212-.012-1.767-.087-2.38-.12-2.166-.115-4.21.276-5.295.765-.161.073-.483.207-.498.214a.725.725 0 0 0-.058.028c-.09.051-.247.186-.775.69-.482.461-1.173 2.265-1.898 5.175-.996 5.426-1.935 14.19-2.086 19.19-.032 1.039 1.458 1.584 5.678 1.938 6.417-.06 8.134.058 9.02-.002z" fill="#4A90E2" fill-rule="evenodd"/></svg>