<svg width="60" height="60" viewBox="0 0 60 60" xmlns="http://www.w3.org/2000/svg" xmlns:xlink="http://www.w3.org/1999/xlink"><title>Veneers_Ico_1_1</title><defs><linearGradient x1="100%" y1="50%" x2="0%" y2="50%" id="a"><stop stop-color="#67C6F2" offset="0%"/><stop stop-color="#AEEDF6" offset="100%"/></linearGradient><path d="M30.428 13.571c9.305 0 16.856 7.552 16.856 16.857s-7.551 16.856-16.856 16.856c-9.305 0-16.857-7.551-16.857-16.856 0-9.305 7.552-16.857 16.857-16.857zm0 29.823c7.162 0 12.966-5.804 12.966-12.966 0-7.163-5.804-12.967-12.966-12.967-7.163 0-12.967 5.804-12.967 12.967 0 7.162 5.804 12.966 12.967 12.966zM28.483 10.33V2.55c0-1.071.874-1.945 1.945-1.945 1.07 0 1.945.874 1.945 1.945v7.78a1.949 1.949 0 0 1-1.945 1.945 1.949 1.949 0 0 1-1.945-1.945zm3.89 40.196v7.78a1.949 1.949 0 0 1-1.945 1.944 1.949 1.949 0 0 1-1.945-1.945v-7.78c0-1.07.874-1.944 1.945-1.944 1.07 0 1.945.873 1.945 1.945zM60.25 30.428a1.949 1.949 0 0 1-1.945 1.945h-7.78a1.949 1.949 0 0 1-1.944-1.945c0-1.071.873-1.945 1.945-1.945h7.78c1.07 0 1.944.874 1.944 1.945zm-47.975 0a1.949 1.949 0 0 1-1.945 1.945H2.55a1.949 1.949 0 0 1-1.945-1.945c0-1.071.874-1.945 1.945-1.945h7.78c1.071 0 1.945.874 1.945 1.945zM43.26 14.863l3.695-3.695a1.901 1.901 0 0 1 2.732 0c.772.772.772 1.96 0 2.732l-3.695 3.696c-.374.374-.86.579-1.366.579-.506 0-.992-.205-1.366-.58a1.901 1.901 0 0 1 0-2.732zM17.596 43.26c.771.772.771 1.96 0 2.732L13.9 49.687c-.374.374-.86.58-1.366.58-.505 0-.992-.206-1.366-.58a1.901 1.901 0 0 1 0-2.732l3.666-3.664c.708-.808 1.985-.808 2.762-.031zm32.091 3.695c.772.772.772 1.96 0 2.732-.374.374-.86.58-1.366.58-.505 0-.992-.206-1.366-.58l-3.695-3.695a1.901 1.901 0 0 1 0-2.732 1.901 1.901 0 0 1 2.732 0l3.695 3.695zM11.168 13.9a1.901 1.901 0 0 1 0-2.732 1.901 1.901 0 0 1 2.732 0l3.696 3.695c.771.772.771 1.96 0 2.733-.374.374-.86.579-1.366.579-.506 0-.992-.205-1.367-.58L11.168 13.9z" id="b"/><filter x="-3.4%" y="-3.4%" width="106.7%" height="106.7%" filterUnits="objectBoundingBox" id="c"><feGaussianBlur stdDeviation="1.5" in="SourceAlpha" result="shadowBlurInner1"/><feOffset dy="1" in="shadowBlurInner1" result="shadowOffsetInner1"/><feComposite in="shadowOffsetInner1" in2="SourceAlpha" operator="arithmetic" k2="-1" k3="1" result="shadowInnerInner1"/><feColorMatrix values="0 0 0 0 0 0 0 0 0 0 0 0 0 0 0 0 0 0 0.1 0" in="shadowInnerInner1"/></filter></defs><g transform="translate(-.428 -.428)" fill-rule="nonzero" fill="none"><use fill="url(#a)" fill-rule="evenodd" xlink:href="#b"/><use fill="#000" filter="url(#c)" xlink:href="#b"/></g></svg>