<svg xmlns="http://www.w3.org/2000/svg" viewBox="0 0 40 40"><g fill="#FFF"><path d="M9.474 6.205c.43 1.616 1.03 2.174 2.091 1.985.595-.107 1.102-.415 1.26-.989.143-.516.087-1.088.12-1.688l7.866-1.62c.047.224.091.454.141.682.2.901 1.09 1.457 2.024 1.265.932-.19 1.532-1.052 1.364-1.96-.041-.222-.09-.442-.155-.753.825-.118 1.621-.326 2.418-.324 1.154.004 2.073.89 2.322 2.082.602 2.89 1.195 5.784 1.79 8.676.847 4.11 1.692 8.22 2.545 12.33a.72.72 0 0 1-.117.596c-2.148 3.252-4.287 6.51-6.441 9.758a.866.866 0 0 1-.496.333c-3.85.807-7.702 1.598-11.555 2.39-1.587.327-2.897-.53-3.223-2.112-1.864-9.04-3.727-18.08-5.588-27.12-.33-1.602.516-2.884 2.112-3.217.5-.105 1-.207 1.522-.314zM32.105 25.28c-.018-.118-.025-.189-.039-.258-1.16-5.634-2.318-11.268-3.484-16.901-.257-1.242-1.334-1.932-2.572-1.677-5.576 1.149-11.146 2.32-16.73 3.431-1.445.288-2.103 1.54-1.839 2.8 1.665 7.96 3.294 15.928 4.935 23.892.228 1.107.963 1.59 2.068 1.363l10.507-2.165.375-.077-.093-.45c-.386-1.874-.776-3.747-1.157-5.623-.297-1.46.599-2.804 2.06-3.106l2.215-.456 3.754-.773zm-5.927 9.646l5.586-8.484c-.029.004-.122.016-.213.034-1.745.36-3.49.718-5.235 1.08-.941.197-1.452.976-1.26 1.918.355 1.734.714 3.467 1.07 5.2l.052.252z"/><path d="M11.703 5.462c.063.303.132.605.186.91.068.38-.13.668-.492.737-.352.067-.64-.11-.72-.468a67.532 67.532 0 0 1-.39-1.89c-.068-.363.125-.638.477-.715.361-.08.655.105.743.48.072.314.131.63.196.946zM23.076 3.097c.065.316.136.63.193.947.064.358-.127.638-.474.717-.345.077-.66-.096-.74-.443a47.199 47.199 0 0 1-.396-1.926c-.066-.356.149-.635.497-.704.353-.069.64.11.723.464.073.313.132.63.197.945zM20.119 10.604c2.035-.42 4.072-.837 6.106-1.26.263-.055.503-.059.683.172.257.33.065.754-.393.852-.853.182-1.708.355-2.562.53-3.24.669-6.48 1.339-9.723 1.998-.187.038-.433.05-.577-.042-.137-.087-.237-.324-.244-.5-.01-.271.203-.409.462-.462.878-.18 1.755-.362 2.633-.543l3.615-.745zM22.937 24.295l-6.107 1.259c-.059.012-.117.027-.176.035-.33.045-.597-.124-.655-.413-.058-.287.122-.554.45-.625.806-.173 1.615-.335 2.422-.501l9.968-2.054c.094-.02.191-.048.283-.037.3.035.489.206.496.513.007.329-.198.488-.503.55-1.358.278-2.715.56-4.072.84l-2.106.433zM21.416 16.932l5.973-1.23c.082-.018.164-.037.246-.05.348-.057.594.086.665.383.074.312-.095.575-.451.65-1.076.23-2.155.449-3.232.67l-9.066 1.867c-.093.02-.187.047-.282.05-.305.012-.514-.137-.567-.434-.05-.279.086-.487.356-.589.089-.033.186-.045.28-.064l6.078-1.253zM20.263 31.439c-.738.152-1.475.306-2.214.455-.394.08-.666-.061-.74-.371-.078-.321.124-.581.531-.666 1.487-.309 2.975-.615 4.463-.92.396-.081.658.056.733.373.078.335-.108.577-.524.665-.75.157-1.5.31-2.249.464zM12.171 20.157l.699-2.093c.034-.102.04-.236.11-.298.108-.095.26-.14.393-.207.061.136.203.297.17.405-.27.891-.569 1.773-.865 2.656-.095.281-.314.334-.544.2-.391-.23-.775-.477-1.133-.753-.092-.071-.076-.282-.11-.428.147-.027.33-.122.433-.068.282.148.53.36.847.586zM14.777 32.809l.68-2.04c.037-.114.047-.255.122-.333.1-.103.257-.228.378-.218.22.02.261.217.2.413-.123.388-.252.772-.38 1.158-.153.465-.303.93-.462 1.394-.127.37-.324.448-.65.246-.344-.215-.679-.447-1.019-.669-.186-.122-.273-.279-.137-.48.128-.19.304-.16.47-.045.254.177.502.361.798.574zM10.864 13.848l.714-2.141c.03-.09.034-.213.096-.265.112-.092.26-.142.392-.21.063.137.208.298.175.405a77.71 77.71 0 0 1-.881 2.687c-.09.26-.317.298-.528.173-.39-.23-.775-.477-1.132-.754-.092-.071-.077-.281-.11-.427.145-.028.33-.125.43-.07.28.152.526.368.844.602zM13.473 26.495c.25-.756.47-1.42.692-2.086.033-.102.04-.232.109-.299.104-.1.257-.228.378-.217.217.02.264.215.201.413-.118.375-.244.749-.367 1.123-.158.476-.313.952-.476 1.426-.127.372-.326.45-.649.25-.344-.215-.678-.447-1.018-.67-.185-.122-.272-.28-.136-.48.13-.19.307-.16.47-.044.253.179.5.366.796.584z"/></g></svg>