<svg xmlns="http://www.w3.org/2000/svg" viewBox="0 0 40 40"><g fill="#FFF"><path d="M28.157 21.71V16.94c.658.077 1.15.367 1.426.917.157.312.236.688.252 1.04.035.821.011 1.645.011 2.467v.345h.331c2.056 0 4.112-.005 6.168.002.897.003 1.373.708 1.057 1.547-.057.151-.127.3-.202.443-1.797 3.405-3.596 6.81-5.395 10.215-.205.389-.403.782-.619 1.164-.492.872-1.196 1.36-2.245 1.358-8.062-.008-16.124 0-24.186.006-.517 0-1.012-.066-1.438-.388-.579-.437-.818-1.029-.817-1.745.005-4.351.003-8.703.003-13.054l.001-5.853c.001-1.357.82-2.173 2.182-2.174H6.29c0 .525.007 1.02-.009 1.513-.002.058-.125.155-.196.16-.276.02-.554.007-.832.01-.743.004-1.067.325-1.067 1.07-.001 3.702 0 7.403.001 11.104 0 2.18 0 4.36.002 6.541 0 .801.328 1.13 1.126 1.13.258 0 .517-.01.774.004.181.01.269-.061.347-.22 1.88-3.813 3.762-7.625 5.655-11.432.15-.304.356-.588.575-.849.34-.403.79-.558 1.324-.557 4.6.008 9.2.005 13.8.005h.367z"/><path d="M26.937 20.647h-1.313c-.007-.128-.02-.247-.02-.366V10.153c0-.542-.068-.609-.61-.609h-2.726c-.657-.001-.894-.242-.894-.906V5.453c0-.43-.1-.535-.515-.535H9.239c-.383 0-.44.066-.44.488 0 7.192 0 14.384-.006 21.576 0 .2-.058.414-.142.597-.245.54-.516 1.067-.778 1.598-.037.073-.083.142-.162.277-.094-.152-.187-.25-.217-.365a1.99 1.99 0 0 1-.058-.51c-.003-7.737-.003-15.474-.002-23.21 0-1.142.656-1.808 1.793-1.81 4.198-.003 8.397 0 12.595-.004.347 0 .627.106.864.365 1.33 1.453 2.673 2.894 3.993 4.356.152.17.268.442.27.668.015 3.844.01 7.689.01 11.533 0 .047-.012.093-.022.17zM24.739 8.164l-1.981-2.15v2.15h1.98z"/><path d="M17.186 17.471c-2.036 0-4.072-.003-6.109.003-.283.001-.537-.06-.73-.265-.213-.227-.326-.5-.207-.815.124-.327.35-.541.71-.585.095-.012.192-.012.287-.012 4.044 0 8.087.001 12.131-.003.31 0 .596.04.809.283.208.237.3.513.176.823a.854.854 0 0 1-.7.563c-.104.015-.21.008-.316.008h-6.051zM17.195 12.598c-2.037 0-4.073-.001-6.11.001-.32 0-.605-.07-.805-.345-.387-.53-.091-1.228.562-1.321.094-.013.19-.011.286-.011 4.053 0 8.107 0 12.16-.003.344 0 .643.071.853.369a.81.81 0 0 1-.469 1.27 1.779 1.779 0 0 1-.426.039c-2.017.002-4.034.001-6.051.001zM12.842 20.7c-.53.258-.978.582-1.296 1.07-.041.064-.074.134-.119.195-.105.14-.196.37-.329.398-.32.07-.615-.057-.824-.335-.188-.25-.242-.522-.106-.805.157-.325.421-.517.79-.52.628-.008 1.256-.003 1.884-.003z"/></g></svg>