<svg xmlns="http://www.w3.org/2000/svg" viewBox="0 0 40 40"><path fill="#FFF" d="M34.426 17.369v1.045c0 4.146-.016 8.291.017 12.436.004.62-.197.855-.768 1.036-3.83 1.217-7.644 2.488-11.477 3.7-.439.139-1.004.146-1.436-.003-5.227-1.794-10.437-3.64-15.662-5.438-.574-.198-.766-.446-.76-1.058.033-3.345.017-6.691.017-10.037v-.982c-.307-.1-.556-.187-.809-.263-1.013-.305-1.34-1.004-.767-1.888A996.137 996.137 0 0 1 10.25 4.574c.134-.2.602-.3.885-.256 4.238.658 8.47 1.349 12.704 2.032.029.005.057.02.086.02 2.706-.008 4.664 1.31 6.444 3.265 2.13 2.338 4.505 4.452 6.749 6.69.222.221.464.753.357.911-.262.388-.537.955-1.261.64-.532-.233-1.125-.326-1.787-.507zm-23.997 1.137l-.318.222c.211.408.337 1.084.648 1.183 3.344 1.07 6.718 2.049 10.113 3.061l.94-1.64.163.072v12.708c1.14-.363 2.193-.73 3.265-1.028.591-.164.764-.466.756-1.071-.035-2.635-.024-5.27 0-7.905.002-.276.131-.728.314-.795 1.174-.435 2.379-.785 3.667-1.192v9.37c.887-.276 1.694-.559 2.52-.769.523-.133.688-.38.686-.924-.022-4.885-.009-9.771-.02-14.657-.001-.274-.042-.636-.214-.809-1.88-1.882-3.788-3.735-5.744-5.65l-7.027 12.724-9.75-2.9zM21.6 14.09l.24.055c.56-1.478 1.853-2.604 1.744-4.421-.125-2.098-.043-2.028-2.112-2.426-1.079-.207-1.769.193-2.534.896l2.662.49v5.406z"/></svg>