<svg xmlns="http://www.w3.org/2000/svg" viewBox="0 0 40 40"><g fill="#FFF"><path d="M32.109 16.608c.87.297 1.724.59 1.92 1.656.86 0 1.71-.002 2.56.001.65.003.907.263.91.908v.183c.001 1.024-.108 1.145-1.165 1.237v.382c0 4.596 0 9.192-.002 13.789 0 .738-.243.978-.987.98-1.198.002-1.316-.115-1.316-1.306V21.123v-.53H5.982v14.138c0 .786-.23 1.012-1.027 1.013-1.147 0-1.277-.13-1.277-1.273V21.01v-.375c-.05-.032-.07-.056-.089-.055-.935.03-1.14-.409-1.08-1.155.009-.096.001-.194.002-.292.006-.59.282-.868.876-.868 2.48-.002 4.961-.008 7.442.007.323.002.501-.082.638-.387.29-.65.626-1.28.977-1.987H7.472c-.957-.002-1.458-.506-1.459-1.467V5.714c.001-.957.504-1.457 1.467-1.457h13.425c.887 0 1.417.514 1.418 1.394.004 2.967.004 5.934 0 8.901 0 .801-.55 1.344-1.357 1.346-1.496.004-2.992 0-4.487 0h-.542c.033.108.047.189.082.259.306.62.608 1.244.934 1.854.06.113.223.241.34.242 3.587.012 7.174.01 10.76.008.036 0 .07-.015.106-.023.262-1.134 1.168-1.44 2.135-1.64.233-.047.358-.135.459-.339.555-1.12 1.115-2.24 1.69-3.35.108-.208.091-.335-.064-.506-.654-.718-1.293-1.45-1.952-2.193-.299.232-.5.45-.528.86-.026.37-.195.746-.364 1.088-.149.301-.382.318-.62.082-.969-.958-1.932-1.92-2.89-2.89-.253-.256-.238-.49.09-.64.378-.174.798-.255 1.196-.387.163-.054.348-.101.47-.21.344-.308.657-.65.987-.973.646-.635 1.497-.726 2.187-.24.658.465.861 1.273.49 2.074-.095.203-.027.306.094.442.745.834 1.485 1.673 2.227 2.51.362.406.39.592.144 1.08-.533 1.064-1.07 2.126-1.605 3.189-.064.128-.124.26-.196.413zm-17.974-3.013c1.823 0 3.645-.005 5.467.006.31.002.428-.081.425-.41-.012-2.065-.013-4.13 0-6.195.001-.328-.085-.444-.43-.443-3.609.011-7.217.013-10.825 0-.383-.002-.465.131-.462.485.014 2.041.013 4.082 0 6.123-.002.33.088.444.431.441 1.798-.015 3.596-.007 5.394-.007z"/><path d="M27.584 27.572h-4.302c-.701 0-.925-.217-.926-.906-.002-1.349-.002-2.698 0-4.047.001-.616.242-.851.87-.852h8.749c.614 0 .854.246.855.868.002 1.36.002 2.722 0 4.083-.001.612-.248.853-.87.854h-4.376zm-.008-3.471c.388 0 .776.008 1.164-.002.38-.01.628-.269.619-.618-.01-.332-.254-.57-.622-.574-.764-.008-1.529-.01-2.293-.001-.367.004-.607.242-.616.578-.01.35.237.604.62.614.375.011.751.003 1.128.003zM27.575 34.576H23.2c-.592 0-.844-.251-.845-.843-.002-1.385-.001-2.77.001-4.156.001-.546.26-.805.805-.806h8.823c.6.001.845.247.846.84.002 1.374.003 2.747 0 4.12-.002.596-.248.843-.844.844-1.47.003-2.94.001-4.411.001zm.018-3.472v.001c.377 0 .753.006 1.129-.001.388-.008.636-.248.637-.597 0-.35-.248-.593-.637-.597-.753-.008-1.505-.008-2.257 0-.387.003-.636.248-.637.597-.001.349.246.587.637.595.376.008.752.002 1.128.002z"/></g></svg>