<svg xmlns="http://www.w3.org/2000/svg" viewBox="0 0 40 40"><circle fill="#E58700" cx="20" cy="22.231" r="3.118"/><path fill="#E58700" d="M37.355 10.433l-.126-1.161c-.466-4.32-6.072-6.252-12.651-5.541l-10.97 1.185c-6.58.71-11.643 3.796-11.176 8.115l.125 1.16.003.03.127 1.174a3.288 3.288 0 0 0 3.622 2.916l2.89-.312a3.288 3.288 0 0 0 2.916-3.622l-.127-1.175c-.221-2.046 1.337-3.158 3.383-3.379l8.532-.921c2.046-.221 3.806.532 4.027 2.578l.127 1.174a3.288 3.288 0 0 0 3.622 2.916l2.89-.312a3.288 3.288 0 0 0 2.916-3.622l-.127-1.174-.003-.03z"/><path fill="#E58700" d="M33.157 19.93h-1.852a5.486 5.486 0 0 1-5.48-5.48v-1.182c0-.36-.106-.436-.19-.498-.263-.191-.765-.306-1.344-.306h-8.582c-.579 0-1.081.115-1.343.306-.085.062-.191.139-.191.498v1.181a5.486 5.486 0 0 1-5.48 5.48H6.843l-1.837 8.526a5.626 5.626 0 0 0 5.58 6.342h18.827a5.626 5.626 0 0 0 5.581-6.342l-1.837-8.525zm-6.176 9.282a1.42 1.42 0 0 1-1.008.418c-.364 0-.729-.14-1.007-.418l-1.681-1.681a6.235 6.235 0 1 1 2.015-2.015l1.681 1.681a1.425 1.425 0 0 1 0 2.015zM2.403 6.812a.999.999 0 0 1-.982-1.198c.478-2.362 2.8-3.892 5.15-3.42a1 1 0 1 1-.395 1.962A2.368 2.368 0 0 0 3.382 6.01a1.001 1.001 0 0 1-.98.802zM35.385 19.39c-.299.015-.603 0-.906-.045a1 1 0 1 1 .296-1.978 2.487 2.487 0 0 0 1.869-.465c.54-.4.892-.986.991-1.65a1 1 0 1 1 1.978.295 4.487 4.487 0 0 1-1.78 2.963 4.49 4.49 0 0 1-2.448.88z"/></svg>