<svg xmlns="http://www.w3.org/2000/svg" viewBox="0 0 40 40"><g fill="#E58700"><path d="M8.362 9.102V6.914c.001-.768.34-1.11 1.106-1.112.698-.002 1.396-.003 2.094-.007.02 0 .04-.016.104-.042v-2.03c0-.93.296-1.223 1.235-1.223h20.877c.839 0 1.164.323 1.164 1.158v26.063c0 .848-.313 1.165-1.149 1.166-.675 0-1.35.002-2.026.004-.022 0-.044.009-.111.024-.005.107-.016.227-.017.346-.001.653.005 1.305-.002 1.958-.007.6-.364.961-.965.968-.764.009-1.528.002-2.335.002 0 .787.003 1.539 0 2.29-.004.627-.339.98-.96 1.018-.09.005-.183.002-.274.002H6.225c-.676 0-1.027-.23-1.143-.75-.027-.121-.024-.25-.024-.376V10.208c0-.76.35-1.105 1.114-1.106h2.19zm18.112 1.885H6.944v24.63h19.53v-24.63zM10.228 9.102h16.925c.867 0 1.184.314 1.184 1.171V32.306h1.419V7.685H10.228v1.417zM33.07 4.384H13.528v1.418h16.91c.894 0 1.2.304 1.2 1.187V29.01h1.432V4.384z"/><path d="M16.734 21.616h6.903c.114 0 .266-.034.334.025.142.122.32.29.331.45.01.137-.173.315-.31.423-.083.065-.242.039-.367.039H9.785c-.102 0-.208.01-.307-.01-.256-.054-.403-.21-.393-.483.009-.258.165-.393.404-.436.1-.018.205-.008.308-.008h6.937zM16.697 16.758h6.9c.137.001.304-.027.402.04.135.09.292.253.302.394.009.141-.131.314-.248.432-.064.064-.215.057-.326.057-4.68.003-9.361.003-14.041.002-.402 0-.6-.149-.6-.45-.001-.248.114-.418.369-.459.123-.02.25-.016.376-.016h6.866zM16.702 28.916h6.797c.08 0 .16-.002.24 0 .386.012.6.182.591.471-.008.29-.224.458-.607.458H9.682c-.432 0-.656-.216-.59-.56.062-.317.301-.369.572-.369h7.038zM16.696 24.07h7.036c.384 0 .602.167.598.45-.004.284-.226.451-.607.451H9.652c-.387 0-.578-.165-.567-.476.01-.286.18-.424.54-.425h7.071zM16.703 15.239h-6.9c-.103 0-.206.002-.308-.005-.259-.02-.395-.17-.408-.421-.013-.269.128-.432.39-.481.088-.017.182-.007.273-.007h13.902c.102 0 .209-.01.307.013.246.055.372.226.358.471-.014.243-.143.407-.406.425-.103.006-.206.004-.309.004h-6.9zM16.654 20.1H9.788c-.103 0-.206.007-.308-.004-.257-.027-.388-.183-.393-.434-.006-.25.117-.415.369-.459.111-.02.228-.012.342-.012H23.77c.351.01.563.183.561.463-.001.275-.214.446-.57.446h-7.106zM16.7 27.397H9.8c-.103 0-.206.005-.308-.005-.255-.026-.394-.175-.405-.426-.012-.27.13-.43.393-.477.089-.016.182-.006.274-.006h13.902c.091 0 .185-.01.274.006.262.05.401.22.388.482-.012.244-.151.402-.41.421-.103.008-.206.005-.309.005h-6.9zM14.334 31.353l4.665.001c.358 0 .541.14.553.419.012.283-.12.455-.411.485-.046.005-.092.002-.137.002-3.122 0-6.243-.001-9.364.003-.252 0-.458-.049-.538-.316-.099-.332.115-.59.499-.592.857-.005 1.715-.002 2.572-.002h2.161z"/></g></svg>