<svg xmlns="http://www.w3.org/2000/svg" viewBox="0 0 40 40"><path fill="#E58700" d="M5.625 19.987V5.04c0-1.167.735-2.147 1.84-2.445.2-.054.41-.089.615-.089 5.525-.005 11.05-.004 16.574-.005h7.799c.866.001 1.581.507 1.827 1.305.06.2.09.416.09.625.007 2.23.005 4.458.005 6.687v20.686c0 .74-.315 1.303-.946 1.69-.014.009-.028.022-.043.025-.247.051-.274.216-.267.438.017.546.007 1.092.006 1.638a1.876 1.876 0 0 1-1.91 1.906H8.169c-1.437 0-2.542-1.102-2.543-2.54V19.988zm6.25 12.513v-.19-21.55-.15a.627.627 0 0 1 .557-.607.618.618 0 0 1 .671.475c.02.084.021.173.021.26V32.5h19.317c.425 0 .684-.259.684-.685V4.44c0-.436-.255-.69-.69-.69H8.197c-.08 0-.16 0-.237.012-.67.11-1.086.609-1.086 1.3v27.823c.039-.018.065-.028.089-.042.412-.24.854-.35 1.335-.347 1.137.01 2.274.003 3.412.003h.164zm20 1.25h-.19c-7.799 0-15.597.001-23.395-.003-.344 0-.636.109-.9.31-.43.327-.598.775-.474 1.25.148.57.637.943 1.243.943H31.23a.627.627 0 0 0 .644-.648c.002-.18 0-.359 0-.538V33.75z"/><path fill="#E58700" d="M11.875 6.863v-1.2c.001-.385.265-.663.628-.662.356.001.62.278.622.656v2.435c-.001.377-.267.657-.622.658-.361.002-.627-.279-.628-.664V6.863zM9.38 5c.208 0 .417-.002.624.001A.624.624 0 0 1 10 6.25c-.416.004-.832.004-1.248 0a.623.623 0 0 1-.007-1.247C8.956 4.998 9.168 5 9.38 5zM9.371 9.375c-.204 0-.407.002-.611 0a.624.624 0 1 1 0-1.249 84 84 0 0 1 1.236 0 .624.624 0 0 1 0 1.248c-.209.003-.417.001-.625.001zM9.38 14.376c.208 0 .416-.003.624 0A.624.624 0 0 1 10 15.624c-.416.003-.832.003-1.248 0a.623.623 0 0 1-.009-1.248c.213-.003.425 0 .637 0zM9.378 20.626c.208 0 .416-.003.624 0a.624.624 0 1 1 0 1.248c-.416.004-.832.003-1.248 0a.623.623 0 1 1 0-1.248c.208-.003.416 0 .624 0zM9.369 25c-.204 0-.408.002-.612 0a.624.624 0 1 1-.006-1.249 74.24 74.24 0 0 1 1.248 0A.625.625 0 0 1 9.993 25c-.208.003-.416.001-.624.001zM9.369 12.5c-.204 0-.408.002-.612 0a.624.624 0 1 1-.006-1.248c.416-.004.832-.004 1.248 0a.624.624 0 0 1-.006 1.248c-.208.002-.416 0-.624 0zM9.363 18.75c-.204 0-.408.002-.612 0a.624.624 0 0 1-.007-1.248c.42-.004.84-.004 1.26 0a.625.625 0 0 1-.006 1.248c-.211.002-.423 0-.635 0zM9.383 26.876c.208 0 .416-.003.624 0a.624.624 0 1 1 .002 1.248 59.85 59.85 0 0 1-1.273 0 .622.622 0 0 1-.61-.63.621.621 0 0 1 .608-.617c.217-.005.433-.001.65-.001zM9.384 30c.208 0 .416-.002.624.001a.624.624 0 1 1 0 1.248c-.42.004-.84.003-1.26 0a.623.623 0 0 1 0-1.248c.212-.003.424 0 .636 0zM20.209 18.553c-1.082-1.084-2.053-2.073-3.048-3.037-.123-.12-.374-.165-.558-.15-.345.028-.519-.104-.652-.414-.205-.479-.452-.94-.695-1.403-.087-.165-.086-.278.06-.41.288-.26.529-.693.85-.76.294-.06.668.267 1.006.425.121.057.235.135.36.175.492.16.787.436.667 1.006-.018.086.04.22.106.287.984.993 1.975 1.98 2.965 2.966.015.016.044.017.129.047.178-.192.397-.388.562-.624.073-.105.069-.294.042-.434-.438-2.34.975-4.73 3.23-5.424.322-.099.663-.142.998-.189.321-.046.578.078.718.379.147.314.06.59-.175.83-.256.26-.514.518-.768.78-.959.993-.952 2.484.013 3.438.955.944 2.42.94 3.412-.01.272-.26.534-.53.807-.791.244-.233.529-.303.835-.14.291.154.384.417.355.737-.233 2.603-2.693 4.615-5.284 4.216-.704-.108-1.017.206-1.426.694.36.342.723.695 1.098 1.032.057.052.18.058.266.046a1.657 1.657 0 0 1 1.44.463 52.287 52.287 0 0 1 1.727 1.73c.663.704.642 1.747-.02 2.395-.664.65-1.701.64-2.396-.035-.55-.533-1.083-1.084-1.628-1.622-.407-.4-.578-.877-.552-1.45.008-.164-.08-.365-.189-.497-.268-.328-.573-.625-.965-1.044-.109.18-.16.314-.251.407-1.337 1.346-2.669 2.697-4.023 4.025-1.32 1.294-3.523.709-3.994-1.057-.24-.904-.015-1.71.649-2.378 1.32-1.327 2.645-2.651 3.972-3.972.094-.093.223-.15.357-.237zm-3.36 5.799a.843.843 0 0 0 .824.847c.463.009.867-.39.866-.854a.84.84 0 0 0-.871-.835.82.82 0 0 0-.82.842z"/></svg>