<svg id="Layer_1" data-name="Layer 1" xmlns="http://www.w3.org/2000/svg" viewBox="0 0 207.46 207.58"><defs><style>.cls-1{opacity:.34}.cls-2,.cls-3{fill:#1a1a1a}.cls-3{opacity:.7}</style></defs><title>b_chip_shadow</title><g class="cls-1"><path class="cls-2" d="M110.31 195.78h-1.08l.11-5.25h1zm2.16 0l-.09-5.25h1l.17 5.25zm-5.41-.07l-1.08-.05.31-5.24h1zm8.65-.05l-.29-5.24 1-.06.35 5.23zm-11.88-.15l-1.08-.1.51-5.23c.33 0 .67.07 1 .09zm15.17-.11l-.5-5.23 1-.1.56 5.22zm-18.34-.25l-1.13-.15.71-5.2 1 .13zm21.57-.13l-.71-5.2 1-.14.75 5.19zm-24.79-.32l-1.07-.18.91-5.17 1 .17zm28-.17l-.9-5.17 1-.19 1 5.17zm-31.19-.42l-1-.22 1.1-5.13 1 .21zm34.38-.2l-1.11-5.13 1-.23 1.16 5.12zm-37.63-.5l-1-.27 1.32-5.08 1 .25zm40.7-.25l-1.31-5.08 1-.26 1.36 5.07zm-43.84-.58l-1-.31 1.51-5 1 .28zm47-.29l-1.51-5 1-.3 1.56 5zm-50.08-.67l-1-.34 1.7-5c.32.12.64.22 1 .33zm53.22-.32l-1.7-5 1-.34L139 191zm-56.24-.75l-1-.38 1.9-4.9c.32.13.63.25 1 .36zm59.3-.36l-1.89-4.9.94-.37 2 4.87zm-62.31-.82l-1-.43 2.09-4.81.92.39zM144 189l-2-4.86.93-.41 2.15 4.79zm-68.29-.9l-1-.46 2.29-4.77.91.43zm71.25-.45l-2.28-4.73.93-.45 2.31 4.71zm-74.16-1l-1-.5 2.44-4.64.9.46zm77.06-.5l-2.45-4.64.89-.48 2.52 4.6zm-79.92-1l-.94-.54 2.67-4.61.88.5zm82.77-.54l-2.59-4.61.87-.51 2.69 4.5zm-85.56-1.1l-.92-.57 2.8-4.44.86.53zm88.34-.59l-2.8-4.44.85-.54 2.86 4.4zm-91.07-1.16l-.89-.6 3-4.33.85.57zm93.78-.63l-3-4.32.83-.58 3 4.29zm-96.4-1.25l-.87-.64 3.13-4.24.82.6zm99.08-.67l-3.14-4.2.82-.62 3.18 4.17zm-101.67-1.28l-.84-.68 3.3-4.08.79.63zm104.24-.71l-3.3-4.08.79-.65 3.35 4zm-106.74-1.34l-.83-.71 3.46-3.95.76.65zm109.22-.75l-3.45-3.95.76-.67 3.51 3.9c-.27.25-.55.49-.82.72zm-111.66-1.4l-.79-.74 3.6-3.82.74.69zm114.07-.73l-3.61-3.82.73-.69 3.67 3.76zm-116.41-1.51l-.77-.77 3.75-3.72.71.72zm118.72-.81L166.9 167l.71-.72 3.8 3.62zm-121-1.53c-.25-.26-.49-.52-.73-.79l3.88-3.53.69.75zm123.21-.83l-3.86-3.53.69-.76 3.92 3.49zM47.5 166.74c-.24-.27-.47-.55-.7-.82l4-3.38c.21.26.43.52.66.77zm127.5-.86l-4-3.38.65-.78 4.06 3.33zm-129.57-1.64c-.23-.28-.45-.56-.67-.85l4.14-3.22.63.8zm131.62-.89l-4.15-3.22c.21-.26.42-.53.62-.8l4.19 3.17zm-133.6-1.69c-.21-.29-.43-.58-.63-.87l4.26-3.06.6.83zm135.55-.91l-4.27-3.05.59-.83 4.3 3zM41.58 159c-.21-.3-.41-.61-.61-.91l4.38-2.89.57.84zm139.24-.94l-4.38-2.88.55-.86 4.42 2.84c-.19.32-.41.62-.59.92zm-141-1.79c-.19-.31-.38-.61-.56-.92l4.49-2.72.53.86zm142.75-.94l-4.49-2.72c.18-.29.35-.58.52-.88l4.52 2.67c-.2.33-.38.6-.57.95zm-144.43-1.84c-.18-.31-.36-.62-.53-.94L42.2 150c.16.3.33.59.5.89zm146-1l-4.6-2.54.48-.88 4.63 2.47zm-147.6-1.9c-.17-.32-.33-.64-.49-1l4.69-2.36c.15.31.3.61.46.91zm149.11-1l-4.65-2.27c.15-.3.3-.6.44-.9l4.73 2.29zm-150.55-2c-.16-.33-.31-.66-.46-1l4.78-2.17.42.91zm152-1l-4.78-2.18c.14-.3.28-.61.41-.91l4.81 2.11zm-153.28-2l-.42-1 4.86-2 .39.93zm154.56-1l-4.86-2c.13-.31.26-.62.38-.94l4.89 1.93c-.15.54-.28.88-.42 1.21zm-155.78-2c-.12-.34-.25-.68-.38-1l4.94-1.79c.11.32.23.63.35 1zm157-1l-4.99-1.59c.12-.31.23-.63.34-.94l5 1.72c-.16.3-.28.65-.41.99zm-158-2.1c-.12-.35-.23-.69-.34-1l5-1.6c.1.32.21.65.32 1zm159.1-1l-5-1.6.3-1 5 1.54c-.18.57-.29.92-.4 1.26zm-160.17-1.93l-.3-1 5.06-1.4c.09.32.18.65.28 1zm161-1l-5.06-1.4.27-1 5.07 1.36c-.09.37-.18.72-.28 1.06zm-161.85-2.13c-.09-.35-.17-.7-.26-1.05l5.11-1.21.24 1zm162.66-1l-5.11-1.21.23-1 5.12 1.15zM29 129.26l-.21-1.06 5.15-1c.07.33.13.66.2 1zm164.08-1l-5.16-1 .19-1 5.16.95zm-164.73-2.19c-.06-.35-.11-.71-.17-1.06l5.19-.81c.05.33.1.67.16 1zm165.24-1l-5.19-.81.15-1 5.2.76zm-165.71-2.21c-.05-.35-.09-.71-.14-1.07l5.22-.6.12 1zm166.15-1l-5.22-.6.11-1 5.22.56zm-166.51-2.22l-.09-1.08 5.24-.4c0 .33 0 .67.08 1zm166.82-1l-5.24-.4.08-1 5.23.35zm-167-2.22c0-.36 0-.72-.05-1.08l5.24-.2v1zm167.23-1l-5.25-.2v-1l5.25.16zm-167.52-2.35a6.6 6.6 0 0 1-.15-1.18h5.25s.07.72.08 1.06zm167.56-.93h-5.26v-1l5.25-.07v1zm-162.15-2.22l-5.24-.14v-1.08l5.25.21c.01.33 0 .67-.01 1.01zm156.83-.82v-1l5.24-.25.05 1.07zm-156.68-2.22l-5.24-.34c0-.36.05-.72.07-1.08l5.24.41c-.03.34-.05.67-.07 1.01zm156.5-.82l-.08-1 5.23-.45.09 1.07zm-156.25-2.21l-5.22-.55.12-1.07 5.21.61c-.04.34-.07.67-.11 1.01zm156-.82c0-.34-.08-.67-.13-1l5.21-.66c.05.36.09.71.13 1.07zm-155.59-2.2l-5.2-.75c.05-.35.1-.71.16-1.06l5.19.81c-.09.33-.14.67-.18 1zm155.15-.83c0-.34-.11-.67-.16-1l5.18-.86c.06.35.11.71.17 1.06zM33.73 97.83l-5.17-1 .21-1.06 5.15 1-.19 1.06zM187.9 97c-.07-.33-.13-.67-.2-1l5.14-1 .21 1.06zM34.33 94.85l-5.12-1.15.24-1.06 5.11 1.22c-.08.33-.15.66-.23.99zM187.26 94l-.24-1 5.1-1.27c.08.35.17.7.25 1zM35.05 91.9L30 90.54c.1-.34.19-.69.29-1l5.05 1.41zm151.46-.8c-.09-.33-.19-.65-.28-1l5-1.46c.1.34.2.69.29 1zM35.89 89l-5-1.54c.1-.35.21-.69.32-1l5 1.61c-.12.25-.21.57-.32.93zm149.75-.79c-.11-.32-.21-.64-.32-1l5-1.67c.12.34.23.69.34 1zm-148.8-2.1l-5-1.74c.12-.34.24-.68.37-1l4.93 1.81c-.07.26-.14.58-.3.9zm147.81-.78l-.35-1 4.91-1.84.38 1zm-146.74-2.1L33 81.3c.13-.33.26-.67.4-1l4.86 2c-.1.3-.26.61-.35.93zm145.64-.78c-.12-.32-.25-.63-.38-.94l4.83-2.05.42 1zm-144.47-2l-4.8-2.12c.14-.33.29-.65.44-1l4.77 2.18zm143.27-.79l-.43-.91 4.75-2.24.46 1zm-142-2l-4.72-2.3.48-1 4.69 2.37q-.23.5-.44.95zM181 76.89c-.15-.3-.3-.6-.46-.89l4.66-2.43.49 1zM41.74 75l-4.62-2.5.51-1 4.6 2.54zm137.87-.78c-.16-.3-.33-.59-.5-.89l4.56-2.59.53.94zM43.23 72.34l-4.52-2.66c.18-.31.36-.62.55-.93l4.49 2.72c-.18.29-.35.58-.52.87zm134.86-.78l-.54-.86 4.45-2.78c.19.31.38.61.56.92zM44.82 69.75l-4.42-2.83.6-.92 4.38 2.9zM176.46 69l-.57-.86 4.36-2.93.59.9zm-130-1.76l-4.3-3 .62-.88 4.32 3.04c-.2.28-.4.6-.59.83zm128.23-.75l-.6-.83 4.23-3.11.63.88zM48.3 64.77l-4.19-3.17.66-.86L48.91 64zM172.91 64c-.2-.27-.41-.53-.63-.8l4.12-3.2.66.85zM50.18 62.38l-4.06-3.32.69-.83 4 3.37zM171 61.66l-.65-.77 4-3.43.7.83zM52.15 60.07l-3.93-3.48.72-.81 3.89 3.53zm116.85-.7l-.69-.75 3.84-3.57.74.79zM54.21 57.83l-3.79-3.63.75-.77 3.75 3.67zm112.7-.67l-.71-.72 3.7-3.73.76.77zM56.36 55.68l-3.65-3.78.78-.75 3.6 3.85zM164.74 55c-.24-.24-.49-.47-.74-.7l3.55-3.86.8.74zM58.59 53.6l-3.51-3.91.82-.69 3.44 4zm103.9-.6l-.77-.66 3.41-4 .87.66zm-101.6-1.38l-3.35-4 .84-.68 3.3 4.06zm99.27-.62l-.79-.64 3.25-4.12.84.67zm-96.89-1.28l-3.18-4.17.91-.65 3.13 4.21zm94.49-.56l-.81-.6 3.05-4.25.87.64zm-92-1.24l-3-4.29.89-.62 3 4.33c-.37.19-.65.38-.92.58zm89.56-.53l-.83-.56 2.91-4.37.9.61zm-87-1.18l-2.86-4.4.92-.59 2.79 4.44zm84.51-.49l-.86-.54 2.75-4.47.91.57zM70.84 44.6l-2.69-4.51.94-.55 2.63 4.55zm79.32-.46l-.87-.49 2.56-4.58c.32.17.63.35.94.53zm-76.67-1L71 38.48l1-.51 2.44 4.65c-.36.15-.66.31-.95.48zm74-.42l-.9-.47 2.41-4.71 1 .49zm-71.32-1L73.87 37l1-.48 2.27 4.74zm68.61-.38l-.92-.43 2.21-4.76 1 .46zM79 40.4l-2.14-4.8 1-.43L79.89 40zm63-.35l-.92-.39 2-4.85 1 .42zm-60.28-.84l-2-4.88 1-.39 1.89 4.9zm57.48-.31l-1-.36 1.84-4.92 1 .39zm-54.63-.77l-1.75-5 1-.35 1.7 5zm51.77-.27l-1-.33 1.64-5 1 .34zm-48.87-.7l-1.56-5 1-.31 1.49 5zm46-.23l-1-.29 1.53-5.05 1 .31zm-43-.61l-1.36-5.07 1-.28 1.3 5.09zm40.13-.21l-1-.25 1.25-5.1 1.05.26zm-37.17-.53l-1.17-5.11 1.06-.24 1.1 5.13zm34.21-.17c-.33-.08-.66-.15-1-.21l1.05-5.15 1.06.23zM96.36 35l-1-5.16 1.06-.2.9 5.18zm28.25-.15l-1-.17.85-5.18 1.06.18zm-25.25-.36l-.76-5.19 1.07-.15.7 5.2zm22.25-.11l-1-.13.64-5.21 1.08.14zm-19.23-.27l-.56-5.22 1.08-.11.49 5.23zm16.2-.08l-1-.1.43-5.23 1.08.1zm-13.17-.19l-.36-5.23 1.08-.07.29 5.24zm10.14-.05h-1l.23-5.25 1.09.06zm-7.1-.1l-.16-5.25h1.08l.1 5.25zm4.06 0h-1v-5.25h1.09z" transform="translate(-6.83 -7.35)"/><path class="cls-2" d="M110.88 203.07a92 92 0 1 1 92-92 92.08 92.08 0 0 1-92 92zm0-173.08a81.1 81.1 0 1 0 81.1 81.1A81.19 81.19 0 0 0 110.88 30z" transform="translate(-6.83 -7.35)"/><path class="cls-2" d="M110.88 31.8A81.19 81.19 0 0 1 192 112.49v-.41a81.1 81.1 0 0 0-162.2 0v.41a81.19 81.19 0 0 1 81.08-80.69zm92 80.69a92 92 0 0 1-184 0v.41a92 92 0 0 0 184 0z" transform="translate(-6.83 -7.35)"/><path class="cls-2" d="M110.88 20.09a92 92 0 1 0 92 92 92.09 92.09 0 0 0-92-92zm0 173.08A81.1 81.1 0 1 1 192 112.08a81.19 81.19 0 0 1-81.12 81.09z" transform="translate(-6.83 -7.35)"/><path class="cls-3" d="M109.56 11.06A101.94 101.94 0 1 0 211.49 113 101.93 101.93 0 0 0 109.56 11.06zM111 196.38a84.2 84.2 0 1 1 84.2-84.2 84.2 84.2 0 0 1-84.2 84.2z" transform="translate(-6.83 -7.35)"/><path class="cls-2" d="M110.37 176.89a68.1 68.1 0 1 1 68.06-68.14 68.18 68.18 0 0 1-68.06 68.14zm-.08-135.64a67.54 67.54 0 1 0 67.58 67.5 67.62 67.62 0 0 0-67.58-67.5zm0 136.77c-1.55 0-3.1-.05-4.62-.16l.18-2.81c1.46.1 3 .15 4.44.15zm4.62-.16l-.18-2.81c1.46-.09 3-.24 4.41-.44l.37 2.8c-1.51.2-3.05.35-4.58.45zm-13.85-.45c-1.52-.21-3-.46-4.56-.77l.56-2.76c1.44.29 2.92.54 4.38.73zm23-.76l-.55-2.77c1.44-.29 2.89-.63 4.31-1l.74 2.72c-1.45.4-2.96.74-4.47 1.05zM92 175.57c-1.48-.41-3-.87-4.42-1.37l.92-2.66c1.4.48 2.83.92 4.25 1.31zm41-1.36l-.92-2.66c1.39-.48 2.78-1 4.14-1.59l1.1 2.59c-1.41.6-2.86 1.16-4.32 1.66zm-49.73-1.68a48.8 48.8 0 0 1-4.2-2l1.27-2.51c1.32.67 2.67 1.3 4 1.88zm58.24-1.92l-1.27-2.51c1.32-.67 2.62-1.39 3.89-2.14l1.43 2.43c-1.3.78-2.67 1.53-4.04 2.22zM75 168.35c-1.32-.79-2.63-1.63-3.89-2.5l1.59-2.32c1.22.84 2.48 1.64 3.74 2.39zm74.45-2.45l-1.59-2.32c1.21-.83 2.41-1.72 3.57-2.63l1.74 2.21c-1.17.95-2.44 1.84-3.7 2.74zm-82.05-2.8c-1.2-.95-2.39-2-3.53-3l1.89-2.1c1.1 1 2.24 2 3.39 2.87zm89.32-2.93l-1.89-2.09c1.1-1 2.17-2 3.2-3.08l2 2a71.64 71.64 0 0 1-3.31 3.17zm-96.17-3.27a71.567 71.567 0 0 1-3.1-3.43l2.15-1.82c.95 1.12 1.95 2.23 3 3.29zm102.61-3.37l-2.16-1.82c1-1.12 1.88-2.29 2.75-3.48l2.27 1.68c-.91 1.23-1.87 2.45-2.86 3.62zm-108.58-3.69c-.91-1.23-1.79-2.52-2.62-3.81l2.38-1.52a64.07 64.07 0 0 0 2.51 3.66zm114.07-3.74l-2.37-1.52c.8-1.25 1.56-2.53 2.27-3.82l2.47 1.36c-.74 1.34-1.54 2.68-2.37 3.98zm-119-4c-.73-1.35-1.44-2.74-2.08-4.13l2.55-1.18c.62 1.33 1.3 2.66 2 3.95zm-3.89-8.38c-.55-1.43-1.06-2.9-1.51-4.37l2.69-.83c.43 1.4.92 2.81 1.45 4.19zm130.74-4.32l-2.69-.84c.44-1.41.83-2.85 1.18-4.28l2.74.65c-.41 1.46-.82 2.96-1.28 4.43zM43 124.85c-.36-1.49-.66-3-.92-4.54l2.78-.46c.24 1.45.54 2.92.88 4.35zm135.62-4.49l-2.78-.47c.24-1.45.44-2.93.59-4.39l2.8.28a86.92 86.92 0 0 1-.63 4.58zm-137.17-4.63c-.15-1.52-.25-3.07-.31-4.61L44 111c0 1.48.15 3 .29 4.43zm138.07-4.57l-2.82-.09v-4.59l2.82-.09v2.4c0 .75.03 1.59 0 2.37zM44 106.58l-2.82-.09c0-1.53.15-3.09.3-4.61l2.81.28c-.19 1.46-.29 2.95-.29 4.42zm132.44-4.53c-.15-1.46-.35-2.94-.59-4.39l2.78-.47c.25 1.51.46 3 .61 4.58zM44.83 97.76l-2.78-.47c.25-1.51.56-3 .92-4.53l2.74.65c-.34 1.44-.64 2.9-.88 4.35zm130.1-4.45c-.35-1.43-.74-2.87-1.18-4.28l2.69-.83c.46 1.46.87 3 1.23 4.46zm-128-4.18l-2.69-.83c.45-1.47 1-2.94 1.52-4.38l2.63 1c-.59 1.39-1.08 2.8-1.51 4.21zm125.41-4.29a66.22 66.22 0 0 0-1.73-4.07l2.55-1.19c.65 1.39 1.26 2.82 1.81 4.25zm-122.22-4l-2.55-1.19c.64-1.4 1.35-2.79 2.09-4.13l2.47 1.35c-.76 1.3-1.44 2.64-2.06 3.98zm118.48-4c-.71-1.28-1.47-2.57-2.26-3.81l2.37-1.52q1.25 2 2.36 4zM54.34 73.06L52 71.55c.83-1.3 1.71-2.58 2.62-3.82l2.27 1.68c-.89 1.18-1.75 2.41-2.55 3.65zm109.43-3.71C162.9 68.17 162 67 161 65.87l2.14-1.82c1 1.18 2 2.4 2.88 3.63zM59.61 65.92l-2.15-1.82c1-1.17 2-2.32 3.1-3.43l2 2c-1 1.02-2 2.13-2.95 3.25zm6.16-6.38l-1.89-2.08c1.14-1 2.33-2 3.53-3l1.75 2.21c-1.16.92-2.29 1.89-3.39 2.87zm85.68-2.9c-1.15-.91-2.35-1.8-3.57-2.63l1.59-2.33c1.27.88 2.53 1.8 3.73 2.75zM72.73 54l-1.6-2.32c1.26-.83 2.57-1.68 3.87-2.45l1.44 2.42c-1.24.75-2.5 1.56-3.71 2.35zm71.41-2.42c-1.27-.75-2.58-1.47-3.9-2.14l1.27-2.44c1.38.69 2.74 1.44 4.06 2.23zm-63.79-2.1L79.07 47c1.37-.69 2.78-1.34 4.19-2l1.1 2.6c-1.36.62-2.7 1.25-4.01 1.92zm55.86-1.91c-1.35-.57-2.74-1.11-4.14-1.59l.92-2.66c1.46.5 2.91 1.06 4.32 1.66zM88.5 46.05l-.92-2.66c1.45-.5 2.93-1 4.41-1.37l.75 2.72c-1.42.39-2.85.83-4.24 1.31zm39.32-1.34c-1.42-.39-2.87-.74-4.31-1l.55-2.76c1.51.31 3 .66 4.51 1.07zm-30.77-1L96.49 41c1.51-.31 3-.57 4.57-.77l.37 2.79c-1.43.15-2.93.4-4.38.69zm22.08-.71c-1.46-.19-2.94-.34-4.41-.43l.18-2.81c1.53.1 3.08.25 4.6.45zm-13.29-.42l-.18-2.81c.8 0 1.62-.09 2.42-.12s1.47 0 2.2 0v2.82h-2.11zM83.65 157a1.26 1.26 0 0 0 .19-.28.87.87 0 0 0 .06-.32 1.11 1.11 0 0 0 0-.17v-.15a1 1 0 0 0-.08-.15l-.11-.13a.88.88 0 0 0-.76-.23h-.16a.39.39 0 0 0-.14.08l-.13.1a.69.69 0 0 0-.11.13.35.35 0 0 0-.07.15.94.94 0 0 0-.06.15 1 1 0 0 0 0 .17.68.68 0 0 0 .07.32.84.84 0 0 0 .18.28.8.8 0 0 0 .27.18.88.88 0 0 0 .32.07.84.84 0 0 0 .53-.2zm-4-1.66a.83.83 0 0 1-.24-1.17.84.84 0 0 1 1.16-.25.85.85 0 0 1 .25 1.17.83.83 0 0 1-.71.38.84.84 0 0 1-.42-.09zm-2.83-2a.85.85 0 0 1-.17-1.18.84.84 0 0 1 1.18-.17.85.85 0 0 1 .17 1.18.86.86 0 0 1-.68.34.8.8 0 0 1-.46-.11zm-2.7-2.15a.84.84 0 0 1-.09-1.19.84.84 0 0 1 1.19-.1.85.85 0 0 1 .1 1.2.88.88 0 0 1-.64.3.82.82 0 0 1-.52-.15zm-2.56-2.31a.84.84 0 0 1 0-1.19.85.85 0 0 1 1.2 0 .86.86 0 0 1 0 1.2.89.89 0 0 1-.61.26.82.82 0 0 1-.55-.21zm-2.42-2.46a.85.85 0 0 1 0-1.2.85.85 0 0 1 1.19.05.85.85 0 0 1 0 1.2.89.89 0 0 1-.57.22.84.84 0 0 1-.58-.21zm-2.26-2.61a.85.85 0 0 1 .12-1.19.84.84 0 0 1 1.19.12.84.84 0 0 1-.12 1.19.82.82 0 0 1-.53.19.86.86 0 0 1-.62-.25zm-2.09-2.75a.85.85 0 0 1 .2-1.18.84.84 0 0 1 1.17.2.85.85 0 0 1-.19 1.18.81.81 0 0 1-.49.15.84.84 0 0 1-.65-.29zm-1.92-2.87a.84.84 0 0 1 .27-1.17.83.83 0 0 1 1.16.27.84.84 0 0 1-.26 1.16.81.81 0 0 1-.45.13.85.85 0 0 1-.68-.33zm-1.73-3a.84.84 0 0 1 .33-1.15.85.85 0 0 1 1.15.34.85.85 0 0 1-.34 1.15.8.8 0 0 1-.4.11.85.85 0 0 1-.7-.37zm-1.56-3.09a.85.85 0 0 1 .42-1.12.85.85 0 0 1 1.12.41.86.86 0 0 1-.41 1.13.92.92 0 0 1-.36.07.86.86 0 0 1-.73-.41zm-1.31-3.1a.84.84 0 0 1 .48-1.09.84.84 0 0 1 1.09.48.84.84 0 0 1-.48 1.09.81.81 0 0 1-.31.06.84.84 0 0 1-.78-.54zm-1.16-3.25a.84.84 0 0 1 .54-1.06.85.85 0 0 1 1.07.54.85.85 0 0 1-.55 1.07.75.75 0 0 1-.26 0 .85.85 0 0 1-.8-.54zm-1-3.31a.85.85 0 0 1 .62-1 .83.83 0 0 1 1 .61.84.84 0 0 1-.61 1 .71.71 0 0 1-.2 0 .86.86 0 0 1-.77-.6zm-.74-3.37a.84.84 0 0 1 .67-1 .85.85 0 0 1 1 .68.84.84 0 0 1-.68 1h-.15a.85.85 0 0 1-.8-.67zm-.54-3.41a.84.84 0 0 1 .73-.94.85.85 0 0 1 .95.73.84.84 0 0 1-.74.94h-.1a.85.85 0 0 1-.8-.72zm-.32-3.44a.83.83 0 0 1 .79-.89.84.84 0 0 1 .89.79.85.85 0 0 1-.79.9.85.85 0 0 1-.85-.79zm1.33-2.87a.8.8 0 0 0 .25-.59 1.11 1.11 0 0 0 0-.17.88.88 0 0 0 0-.15.52.52 0 0 0-.07-.15l-.11-.13a.83.83 0 0 0-.76-.23L55 108a.39.39 0 0 0-.14.08l-.13.1a.69.69 0 0 0-.11.13.71.71 0 0 0-.08.15.83.83 0 0 0 0 .15 1.11 1.11 0 0 0 0 .17.82.82 0 0 0 .25.59.83.83 0 0 0 1.19 0zm94.05 23.42l4.17-2-.24-.51-4.32 2.08v.07a45.72 45.72 0 1 1-.06-47.37v1.41l2.83 2.83.4-.4-2.67-2.65v-1.41a46.31 46.31 0 1 0 0 48zm4.4 4.29l-.48-.31a51.92 51.92 0 0 1-13.69 14.3l.32.46a52.49 52.49 0 0 0 13.89-14.44zm-25.79 20.75l-.19-.53a51.75 51.75 0 0 1-69.71-48.46 51.93 51.93 0 0 1 .67-8.37l-.56-.09a53 53 0 0 0-.67 8.46 52.32 52.32 0 0 0 70.5 49zm47.93-64.53h-12.58l-9.51-9.5v-3.25l-.05-.07a52.31 52.31 0 0 0-92.91 9.9l.53.2a51.75 51.75 0 0 1 91.87-9.86V84l9.84 9.83h12.85zm-40.12 25.9l41.71-14.35h-30.17l-9-8.95A31.17 31.17 0 0 0 115 77.83l-.08.56a30.62 30.62 0 0 1 23.46 17.79l9.25 9.24h30.44zm-.17-2.3h13.97l-9-8.91a34.35 34.35 0 0 0-45.24-16l.24.51a33.78 33.78 0 0 1 44.52 15.75l9.25 9.18h28zm-39.98 22.54a32.92 32.92 0 0 1-4-2.17l-.31.48a34.85 34.85 0 0 0 4 2.2zm45-15.56l-.51-.25a33.78 33.78 0 0 1-40.7 17.29l-.17.53a34.33 34.33 0 0 0 41.38-17.57zm2.22 2.23l-.49-.26a36.74 36.74 0 1 1 0-34.12l9.24 9.15h25.59v-.57h-25.36l-9-8.89a37.3 37.3 0 1 0 0 34.68zm-64.25 7.31a39.27 39.27 0 0 1-8.53-24.59 39.73 39.73 0 0 1 74.47-19.31l9.24 9.26h23.07v-.56h-22.83l-9-9A40.3 40.3 0 0 0 70 108.81a39.91 39.91 0 0 0 8.66 24.94zm43.23 13.86l-.17-.54a39.75 39.75 0 0 1-34.73-5.43l-.33.46a40.37 40.37 0 0 0 35.23 5.51zm23.23-18.95l-.5-.27a39.67 39.67 0 0 1-17 16.31l.26.5a40.31 40.31 0 0 0 17.24-16.54zm17.71 17.74v-8.46l4.43-4.43h6v-.56h-6.2l-4.77 4.77v8.43A64.57 64.57 0 0 1 129 170.21l.17.54a65.1 65.1 0 0 0 34.13-24.7zm-46.08 27.13l-.06-.56a64.19 64.19 0 1 1 45.59-100.89v8.37l4.77 4.76h6.13v-.57h-5.89l-4.44-4.44v-8.3l-.05-.08a64.76 64.76 0 1 0-52.89 102.08 67.87 67.87 0 0 0 6.84-.37zm30.57-42.69l3.94-8.22h25.14v-.56h-25.49l-4.09 8.52A42.73 42.73 0 1 1 92.47 70l-.24-.52a43.3 43.3 0 1 0 55.56 61.05zm5.59-37.64l-5.56-5.55v-.27a43.47 43.47 0 0 0-37.45-21.54 41.31 41.31 0 0 0-4.6.25l.06.56a42.79 42.79 0 0 1 41.47 21v.31l5.7 5.64zm21.08-6.52h-7.89L161 80.78v-6.93l-.05-.07a61.54 61.54 0 0 0-92.24-10.33l.38.41A61 61 0 0 1 160.44 74v7l5.9 5.89h8.12zM161 143.74v-7.07l5.56-5.57h7.89v-.56h-8.12l-5.89 5.9v7A61 61 0 0 1 56.24 80.6l-.5-.26A61.55 61.55 0 0 0 161 143.74zm-2.42-2.43l.05-.07v-5.33l7.25-7.26h9.42v-.56h-9.65l-7.58 7.58v5.4a57.67 57.67 0 0 1-60.2 24l-.12.55a58.26 58.26 0 0 0 60.84-24.28zM86.83 161.4A57.62 57.62 0 0 1 110.3 51.18 57 57 0 0 1 135 56.7l.24-.51a57.61 57.61 0 0 0-24.91-5.57 58.18 58.18 0 0 0-23.7 111.3zm88.41-72.6h-9.4l-7.26-7.24v-5.28l-.05-.07a58.36 58.36 0 0 0-11.21-12.32l-.36.43A58 58 0 0 1 158 76.46v5.33l7.59 7.58h9.63zm-18.75 50.43v-4.31l8.38-8.38h11V126h-11.2l-8.67 8.69V139a54.72 54.72 0 1 1 0-60.46v4.25l8.72 8.7h11.2v-.57h-11l-8.39-8.38v-4.25a55.3 55.3 0 1 0 0 60.94zm-10.82-24.31h32.22v-.56h-32.57l-4.68 9.27.51.25zm2.22 2.22h29.79v-.57h-30.14l-4.67 9.26.5.26zm1.66 2.78h27.77v-.56h-28.13l-4.1 8.71.5.24zm9.49 4.26h17.42v-.56h-17.7l-5 6.73.45.34zm-6.87 10.68l2.06-4.21-.51-.25-2.05 4.19a48.73 48.73 0 1 1-.07-51.72v2.52l11 11H177v-.57h-14.25l-10.63-10.65v-2.53a49.29 49.29 0 1 0 0 52.22zm2.2 2l-.11-6.39h-.56l.11 6.39zm18.44-55.2h-4.73l-3.24-3.24v-2.04h-.57v2.33l3.57 3.56h5zm-56 90a1.13 1.13 0 1 0 1.13 1.13 1.14 1.14 0 0 0-1.18-1.1zm12.63-2.4a1.13 1.13 0 1 0 1.13 1.13 1.14 1.14 0 0 0-1.18-1.1zm5.65-114a1.13 1.13 0 1 0 1.13 1.13 1.12 1.12 0 0 0-1.22-1.07zm-56.13 77a1.13 1.13 0 1 0 1.04 1.17 1.13 1.13 0 0 0-1.09-1.13zm8.65 8.38a1.13 1.13 0 1 0 1.12 1.12 1.12 1.12 0 0 0-1.17-1.08zm68.24-83.24a1.13 1.13 0 1 0 1.15 1.12 1.13 1.13 0 0 0-1.15-1.12zm16 78.91a1.13 1.13 0 1 0 1.13 1.12 1.13 1.13 0 0 0-1.16-1.12zm-43.65 20.21a1.13 1.13 0 1 0 1.12 1.13 1.13 1.13 0 0 0-1.15-1.13zm12.55-6.58a1.13 1.13 0 1 0 1.13 1.13 1.13 1.13 0 0 0-1.16-1.13zm-42.6 14.39a1.13 1.13 0 1 0 1.12 1.12 1.12 1.12 0 0 0-1.15-1.12zm-11.51-3.83a1.13 1.13 0 1 0 1.12 1.12 1.12 1.12 0 0 0-1.12-1.12zm35.47-14.58a1.13 1.13 0 1 0 1.13 1.12 1.13 1.13 0 0 0-1.13-1.12zm6.33-2.54a1.13 1.13 0 1 0 1.12 1.12 1.12 1.12 0 0 0-1.12-1.12zm42.23-44.91l-9.18 9.19v4.69l9.42 9.41h7.16V98.48zm8.89 10.28A69.64 69.64 0 0 0 158.48 59l-2 2a66.77 66.77 0 0 1 20.22 47.68 65.89 65.89 0 0 1-5.34 26.13L174 136a68.93 68.93 0 0 0 5.56-27.25zM154 129.4a1.12 1.12 0 0 0-1.13 1.12 1.13 1.13 0 1 0 2.25 0 1.11 1.11 0 0 0-1.12-1.12zm-1-37.72a1.14 1.14 0 0 0-1.13 1.13 1.13 1.13 0 0 0 2.26 0 1.14 1.14 0 0 0-1.13-1.13zm-.57-3.8a1.13 1.13 0 1 0 1.08 1.12 1.12 1.12 0 0 0-1.13-1.12zM110.3 61.65a1.13 1.13 0 1 0 1.13 1.12 1.12 1.12 0 0 0-1.13-1.12zm-24.92 3.81a1.13 1.13 0 1 0 1.12 1.13 1.14 1.14 0 0 0-1.12-1.13zM68.66 62.8a1.13 1.13 0 1 0 1.13 1.12 1.13 1.13 0 0 0-1.13-1.12zM55.71 79.67a1.13 1.13 0 1 0 1.13 1.13 1.12 1.12 0 0 0-1.13-1.13zm91.61-16.56a1.13 1.13 0 1 0 1.13 1.12 1.12 1.12 0 0 0-1.13-1.12zM92 68.69a1.13 1.13 0 1 0 1.42.71 1.11 1.11 0 0 0-1.42-.71zM105.66 65a1.13 1.13 0 1 0 1.13 1.13 1.14 1.14 0 0 0-1.13-1.13zM61.77 89a1.13 1.13 0 1 0 1.13 1.12A1.13 1.13 0 0 0 61.77 89zM59 99.53a1.13 1.13 0 1 0 1.13 1.13A1.14 1.14 0 0 0 59 99.53zm114.65 39.78a75 75 0 0 0 3.85-9.91 70.39 70.39 0 0 0 3-21 80.33 80.33 0 0 0-.88-10.61l-2.16.35a76.75 76.75 0 0 1 .85 10.27 75.12 75.12 0 0 1-.69 10.28 75.34 75.34 0 0 1-2.25 10.06 72.2 72.2 0 0 1-3.73 9.6zm-88.2 36.07a73.66 73.66 0 0 0 10.23 2.9 70.05 70.05 0 0 0 21.17 1c.89-.08 1.76-.22 2.65-.33l1.32-.18 1.3-.24c.88-.17 1.75-.3 2.62-.5l2.59-.61-.54-2.12-2.51.59c-.84.19-1.69.32-2.54.49l-1.27.23-1.28.17c-.85.11-1.7.25-2.56.32a67.94 67.94 0 0 1-20.52-1 69.5 69.5 0 0 1-9.91-2.81zM41.22 91A70.31 70.31 0 0 0 39 112a71.72 71.72 0 0 0 4.1 20.81l2.06-.74a69.39 69.39 0 0 1-4-20.17 68.3 68.3 0 0 1 2.18-20.4zm79.91-52a71.26 71.26 0 0 0-41.53 5.82l.93 2a69.09 69.09 0 0 1 40.25-5.61zm35.12 126.9l.93-.75c.31-.26.6-.53.9-.79l1.8-1.6 1.72-1.68.85-.84.82-.88 1.63-1.76 1.55-1.84c.25-.31.52-.61.76-.92l.73-1c.48-.64 1-1.26 1.45-1.91a74.41 74.41 0 0 0 9.1-16.86 73.12 73.12 0 0 0 2.84-9.17l.52-2.34c.19-.78.29-1.58.43-2.36.31-1.58.47-3.17.66-4.76.12-.79.13-1.59.2-2.39s.14-1.6.14-2.4c0-1.6.1-3.2 0-4.8a76.65 76.65 0 0 0-.86-9.56l-2.17.34a76 76 0 0 1 .85 9.28c.08 1.55 0 3.11 0 4.66 0 .78-.1 1.55-.14 2.32s-.08 1.56-.19 2.33c-.19 1.54-.35 3.08-.64 4.61-.15.76-.24 1.54-.42 2.29l-.51 2.28a69.24 69.24 0 0 1-2.76 8.89 71.8 71.8 0 0 1-8.82 16.36c-.46.63-.94 1.23-1.41 1.85l-.71.93c-.24.31-.49.6-.74.9l-1.5 1.78-1.58 1.71-.8.85-.83.82-1.66 1.63-1.75 1.55c-.29.25-.57.52-.87.77l-.91.73zm-90.81 1.79l1 .73 1 .68 2 1.37 2 1.26c.34.21.67.43 1 .63l1 .59c.7.39 1.39.79 2.1 1.16l2.15 1.07c.71.37 1.44.69 2.18 1s1.46.65 2.2.95a73.86 73.86 0 0 0 18.55 4.8 74.76 74.76 0 0 0 9.58.56l2.4-.07c.4 0 .8 0 1.2-.05l1.2-.09 2.39-.2 2.38-.31a73.12 73.12 0 0 0 18.47-5.05l-.84-2a71.59 71.59 0 0 1-17.93 4.9l-2.31.31-2.33.18-1.16.1h-1.16l-2.33.07a70.56 70.56 0 0 1-9.3-.55 71.34 71.34 0 0 1-18-4.65c-.72-.29-1.42-.62-2.13-.92s-1.43-.62-2.12-1l-2.09-1c-.68-.36-1.36-.75-2-1.13l-1-.56-1-.61-2-1.24-1.92-1.32-1-.66-.93-.71zM42 80l-.48 1.1-.42 1.13-.86 2.24-.74 2.28c-.13.38-.26.76-.37 1.15l-.34 1.1c-.21.78-.43 1.55-.63 2.32l-.52 2.35c-.08.39-.18.78-.25 1.17l-.2 1.16c-.13.79-.28 1.58-.4 2.37l-.28 2.39c0 .39-.11.79-.14 1.19l-.09 1.2-.16 2.39v4.8l.07 2.4c.05.8.13 1.6.19 2.4s.12 1.6.24 2.39a73.33 73.33 0 0 0 4.7 18.56c.3.75.59 1.49.91 2.23l1 2.18c.17.36.33.73.51 1.08l.55 1.07 1.12 2.12 1.22 2.07.62 1 .66 1c.44.66.87 1.34 1.32 2l1.42 1.94 1.75-1.31-1.4-1.8c-.44-.64-.86-1.3-1.29-1.95l-.64-1-.59-1-1.18-2-1.09-2.06-.54-1c-.18-.35-.33-.7-.5-1.05l-1-2.12c-.3-.71-.58-1.43-.88-2.15a71.82 71.82 0 0 1-4.56-18c-.12-.77-.17-1.55-.23-2.32s-.14-1.55-.19-2.32l-.07-2.33v-2.33l.05-2.33.16-2.33.08-1.16c0-.38.09-.77.13-1.15l.34-2.35c.12-.76.26-1.53.38-2.29l.2-1.15c.07-.38.16-.76.24-1.14l.51-2.28c.19-.75.41-1.49.61-2.24l.31-1.13c.11-.37.23-.74.35-1.11l.73-2.21.78-2.17.42-1.09.47-1.08zm79.61-43.75l-1.18-.2-1.19-.15-2.39-.29-2.39-.17-1.2-.08h-3.6c-.8 0-1.6 0-2.4.06-1.6 0-3.2.19-4.79.31A75.68 75.68 0 0 0 83.79 40 73.56 73.56 0 0 0 52.9 62.05l1.68 1.39A71.43 71.43 0 0 1 84.55 42a73.7 73.7 0 0 1 18.11-4.2c1.55-.12 3.1-.29 4.65-.3.78 0 1.56-.07 2.33-.06h3.5l1.16.08 2.32.17 2.32.28 1.15.14 1.15.2zM186.23 120a83.43 83.43 0 0 0 .79-11.6 86.25 86.25 0 0 0-1-11.57l-3 .47a74.67 74.67 0 0 1 .17 22.27zm-23.14 44.83a74.77 74.77 0 0 0 7.77-8.63c.57-.78 1.19-1.53 1.74-2.33l1.65-2.39c1-1.64 2.08-3.27 3-5l-2.64-1.48c-.87 1.64-1.89 3.2-2.88 4.78l-1.59 2.3c-.52.77-1.11 1.49-1.67 2.23a71.62 71.62 0 0 1-7.46 8.3zm-45.84 21c.48 0 1-.1 1.44-.16l1.44-.19 1.44-.2c.48-.06 1-.17 1.43-.25 1-.18 1.9-.34 2.85-.53l2.83-.67c.95-.21 1.87-.51 2.8-.77s1.86-.53 2.77-.87l2.75-.95 2.69-1.09-1.16-2.78-2.59 1-2.64.91c-.87.33-1.77.57-2.67.83s-1.78.55-2.69.74l-2.72.65c-.91.18-1.83.34-2.74.51-.46.08-.91.18-1.38.24l-1.38.19-1.38.18a13.12 13.12 0 0 1-1.39.15zM68.18 174.1a75 75 0 0 0 10.23 5.48l1.34.58c.44.2.88.39 1.34.56l2.71 1c1.84.61 3.68 1.25 5.56 1.73l.79-2.91c-1.81-.46-3.57-1.08-5.33-1.66l-2.61-1c-.44-.16-.87-.34-1.29-.53l-1.28-.56a72.14 72.14 0 0 1-9.84-5.28zm-31.39-39.5l.48 1.38c.17.45.36.9.54 1.35.37.89.71 1.8 1.1 2.69l1.22 2.64c.41.88.89 1.72 1.33 2.58a72.51 72.51 0 0 0 6.22 9.81l2.42-1.8a70.12 70.12 0 0 1-6-9.43c-.42-.82-.89-1.63-1.27-2.48l-1.18-2.54c-.38-.84-.7-1.72-1.06-2.58-.17-.43-.36-.86-.51-1.3l-.46-1.32zm-.34-50.44a72.8 72.8 0 0 0-2.88 11.25c-.16 1-.36 1.91-.47 2.87l-.34 2.89c-.11 1-.15 1.93-.22 2.9 0 .48-.08 1-.1 1.45v1.45l3 .07v-1.39c0-.47.06-.93.09-1.4.07-.92.11-1.85.21-2.78l.33-2.77c.11-.93.3-1.84.44-2.76a71.71 71.71 0 0 1 2.79-10.81zm30.84-39.92c-1.64 1-3.18 2.21-4.74 3.36l-2.27 1.83-.56.45-.54.49-1.09 1a75.69 75.69 0 0 0-8 8.38l2.32 1.92a72.59 72.59 0 0 1 7.73-8.05l1-.93.52-.47.54-.44L64.39 50c1.5-1.1 3-2.23 4.56-3.23zm48.9-12.39l-2.9-.21-2.9-.06h-2.91c-.97 0-1.94 0-2.9.14l-2.89.23c-1 .11-1.92.25-2.88.38-.48.06-1 .11-1.44.2l-1.43.26-1.43.26c-.47.09-1 .18-1.42.3l.65 2.94c.45-.11.9-.2 1.36-.28l1.38-.25 1.37-.25c.46-.09.92-.13 1.38-.2L102 35l2.78-.23c.93-.09 1.86-.09 2.79-.13s1.86-.07 2.79 0l2.8.06 2.78.19zm46.13 20.42c-1.4-1.34-2.9-2.56-4.39-3.8l-2.31-1.76c-.76-.6-1.58-1.12-2.37-1.68a75.57 75.57 0 0 0-10.05-5.81l-1.31 2.72a71.88 71.88 0 0 1 9.66 5.58c.76.54 1.55 1 2.28 1.61l2.22 1.7c1.43 1.19 2.88 2.36 4.22 3.65zm23.74 44.52a85.87 85.87 0 0 0-2.67-11.3 83.77 83.77 0 0 0-4.33-10.79l-2.7 1.3a81.45 81.45 0 0 1 4.16 10.36 84 84 0 0 1 2.56 10.86z" transform="translate(-6.83 -7.35)"/><path class="cls-2" d="M110 191.51c-1.73 0-3.47-.06-5.19-.17l.07-1c1.69.11 3.41.16 5.12.16zm5.25-.18l-.07-1c1.72-.11 3.45-.29 5.15-.51l.14 1c-1.78.18-3.53.4-5.27.51zm-15.71-.49c-1.73-.22-3.47-.5-5.18-.84l.2-1c1.69.34 3.41.61 5.11.84zm26.1-.88l-.2-1c1.69-.34 3.38-.73 5-1.18l.27 1c-1.71.44-3.41.84-5.12 1.22zm-36.44-1.14c-1.68-.45-3.37-1-5-1.51l.33-1c1.63.55 3.3 1 5 1.49zm46.52-1.57l-.33-1c1.62-.55 3.25-1.16 4.83-1.82l.4.95c-1.62.68-3.26 1.31-4.9 1.87zm-56.46-1.79c-1.61-.66-3.22-1.39-4.78-2.16l.45-.93c1.55.76 3.14 1.48 4.73 2.14zm66.13-2.23l-.46-.93c1.54-.76 3.07-1.59 4.56-2.45l.52.9c-1.51.87-3.01 1.71-4.62 2.48zm-75.55-2.4c-1.5-.87-3-1.81-4.46-2.78l.58-.86c1.43 1 2.91 1.88 4.4 2.74zm84.61-2.83l-.57-.86c1.43-1 2.84-2 4.2-3l.63.82c-1.38 1.04-2.81 2.04-4.26 3.04zm-93.33-3a80.657 80.657 0 0 1-4.06-3.33l.68-.78q1.95 1.71 4 3.29zm101.64-3.42l-.68-.78c1.29-1.13 2.56-2.33 3.78-3.54l.73.73a81.254 81.254 0 0 1-3.83 3.59zm-109.54-3.49a86.246 86.246 0 0 1-3.59-3.82l.78-.69c1.14 1.29 2.33 2.56 3.55 3.78zm117-3.93l-.77-.68a83.97 83.97 0 0 0 3.28-4l.82.63c-1.11 1.38-2.23 2.74-3.38 4.05zM46.3 160.22c-1.06-1.38-2.1-2.82-3.06-4.26l.86-.58c.95 1.43 2 2.84 3 4.2zm130.26-4.38l-.86-.58c1-1.43 1.88-2.91 2.74-4.4l.89.52c-.87 1.51-1.8 3.01-2.77 4.46zm-136.1-4.32c-.88-1.51-1.71-3.06-2.48-4.62l.93-.46c.76 1.54 1.58 3.07 2.44 4.56zm141.35-4.77l-.93-.46c.77-1.54 1.48-3.13 2.14-4.72l1 .4c-.71 1.61-1.44 3.22-2.21 4.78zm-146-4.62c-.67-1.6-1.3-3.25-1.86-4.9l1-.33a82.6 82.6 0 0 0 1.83 4.83zm150-5.08l-1-.33c.55-1.63 1.05-3.3 1.49-5l1 .27c-.4 1.72-.92 3.41-1.47 5.06zm-153.39-4.83c-.45-1.69-.85-3.4-1.19-5.11l1-.21c.34 1.69.73 3.39 1.18 5zm156.11-5.3l-1-.21c.33-1.68.61-3.4.84-5.1l1 .13c-.22 1.73-.51 3.47-.84 5.18zm-158.16-5c-.23-1.72-.4-3.48-.52-5.22l1-.07c.12 1.72.29 3.45.51 5.16zm159.51-5.41l-1-.07c.11-1.71.17-3.45.17-5.17v-.21h1v.2c-.05 1.74-.05 3.52-.17 5.26zm-159.17-5h-1v-.1c0-1.71 0-3.44.16-5.14l1 .06c-.1 1.68-.15 3.39-.15 5.08zm158.11-5.57c-.11-1.72-.29-3.45-.51-5.15l1-.14c.23 1.72.41 3.48.53 5.22zm-157.46-4.8l-1-.13c.22-1.73.5-3.47.84-5.18l1 .2a68.84 68.84 0 0 0-.84 5.11zm156.09-5.5c-.34-1.69-.73-3.38-1.18-5l1-.27c.45 1.68.86 3.4 1.2 5.11zM33.35 91l-1-.26c.45-1.69 1-3.38 1.52-5l1 .33c-.58 1.58-1.08 3.25-1.52 4.93zm151.4-5.33a76.11 76.11 0 0 0-1.84-4.83l1-.4c.67 1.6 1.3 3.25 1.86 4.89zm-148.1-4.5l-.95-.4c.66-1.61 1.39-3.22 2.16-4.78l.93.45c-.79 1.56-1.48 3.14-2.14 4.73zm144.11-5.06c-.76-1.53-1.58-3.06-2.45-4.55l.9-.52c.87 1.51 1.71 3.06 2.48 4.61zM41.23 71.87l-.9-.52c.87-1.51 1.8-3 2.77-4.46l.86.58c-.96 1.43-1.88 2.91-2.73 4.4zm134.33-4.69c-1-1.43-2-2.84-3-4.2l.82-.64c1.07 1.38 2.1 2.82 3.07 4.26zM47 63.25l-.82-.63a86.32 86.32 0 0 1 3.32-4.06l.78.68c-1.16 1.3-2.28 2.65-3.28 4.01zM169.24 59a79.36 79.36 0 0 0-3.55-3.77l.73-.74c1.23 1.23 2.44 2.51 3.59 3.82zM53.79 55.46l-.74-.73c1.24-1.24 2.52-2.45 3.83-3.6l.68.78C56.27 53 55 54.24 53.79 55.46zm108.11-3.78a87.83 87.83 0 0 0-4-3.27l.63-.83a86.32 86.32 0 0 1 4.06 3.32zM61.55 48.62l-.63-.82c1.38-1.07 2.81-2.1 4.26-3.07l.57.86c-1.42.96-2.83 1.97-4.2 3.03zm92.12-3.23c-1.43-1-2.91-1.87-4.4-2.73l.51-.89c1.52.87 3 1.8 4.47 2.76zm-83.53-2.55l-.52-.84c1.51-.88 3.06-1.71 4.61-2.49l.47.93c-1.54.71-3.07 1.56-4.56 2.4zm74.55-2.61a71.82 71.82 0 0 0-4.73-2.13l.4-1c1.61.66 3.22 1.39 4.79 2.16zm-65.29-2l-.4-1c1.6-.67 3.25-1.3 4.9-1.86l.33 1c-1.62.63-3.23 1.21-4.83 1.87zm55.71-2c-1.63-.54-3.3-1-5-1.48l.26-1c1.69.45 3.38 1 5 1.51zM89.18 34.9l-.27-1c1.68-.45 3.4-.86 5.11-1.2l.21 1c-1.69.35-3.39.75-5.05 1.2zm35.92-1.26c-1.69-.33-3.41-.61-5.11-.83l.13-1c1.73.22 3.47.5 5.18.83zm-25.77-.77l-.13-1a75.3 75.3 0 0 1 5.21-.52l.07 1c-1.71.12-3.48.29-5.15.52zm15.51-.54a76.56 76.56 0 0 0-5-.16h-.15v-1h.15c1.7 0 3.41.05 5.09.15z" transform="translate(-6.83 -7.35)"/><path class="cls-2" d="M191.15 104.19l.02-.49h-2.47l-.02.48 2.47.01zm-.03 1.2l.01-.49-2.47-.03-.01.47 2.47.05zm-.03 1.2l.01-.49-2.47-.07-.01.48 2.47.08zm-.04 1.19l.02-.48-2.47-.1-.02.47 2.47.11zm3.31-3.2l.03-.88h-2.47l-.03.86 2.47.02zm-.03 1.12l.03-.88-2.47-.03-.03.85 2.47.06zm-.03 1.11l.02-.87-2.47-.06-.02.85 2.47.08zm-.03 1.12l.02-.88-2.47-.08-.02.85 2.47.11zm4.26-3.97l.01-.26h-3.4l-.01.25 3.4.01zm-.01.59l.01-.27-3.41-.02-.01.26 3.41.03zm-.02.58l.01-.26-3.41-.04v.25l3.4.05zm-.01.59v-.27l-3.4-.06-.01.26 3.41.07zm-.02.58l.01-.27-3.41-.08v.26l3.4.09zm-.02.58l.01-.26-3.4-.1-.01.25 3.4.11zm-.01.59v-.27l-3.4-.12-.01.26 3.41.13zm-.02.58l.01-.26-3.4-.15-.01.26 3.4.15zm-.02.59l.01-.27-3.4-.16-.01.25 3.4.18zm-.01.58v-.27l-3.4-.18v.26l3.4.19zm-7.87 5.14l.07-.48-2.46-.28-.07.46 2.46.3zm-.17 1.19l.07-.49-2.45-.31-.07.47 2.45.33zm-.18 1.18l.07-.48-2.44-.35-.07.47 2.44.36zm-.17 1.19l.07-.48-2.44-.39-.07.47 2.44.4zm3.66-2.8l.13-.87-2.46-.28-.12.84 2.45.31zm-.16 1.1l.13-.87-2.45-.31-.13.85 2.45.33zm-.16 1.11l.13-.87-2.45-.34-.12.84 2.44.37zm-.16 1.11l.13-.87-2.45-.38-.12.85 2.44.4zm4.7-3.45l.03-.27-3.38-.39-.04.26 3.39.4zm-.09.57l.04-.26-3.38-.41-.04.25 3.38.42zm-.08.58l.04-.26-3.38-.43-.04.25 3.38.44zm-.08.58l.03-.26-3.37-.45-.04.25 3.38.46zm-.09.58l.04-.26-3.37-.48-.04.26 3.37.48zm-.08.58l.04-.26-3.37-.5-.04.26 3.37.5zm-.09.58l.04-.26-3.36-.52-.04.25 3.36.53zm-.08.58l.04-.27-3.36-.53-.04.25 3.36.55zm-.08.57l.03-.26-3.36-.55-.03.25 3.36.56zm-.09.58l.04-.26-3.36-.58-.03.26 3.35.58zm-8.41 4.2l.12-.48-2.4-.56-.12.45 2.4.59zm-.31 1.15l.12-.47-2.39-.6-.13.46 2.4.61zm-.31 1.16l.12-.47-2.39-.64-.12.46 2.39.65zm-.31 1.16l.13-.47-2.38-.67-.13.46 2.38.68zm3.96-2.36l.23-.85-2.41-.56-.22.82 2.4.59zm-.29 1.08l.23-.85-2.4-.59-.22.82 2.39.62zm-.29 1.08l.23-.85-2.39-.62-.22.82 2.38.65zm-.29 1.08l.23-.85-2.38-.65-.22.82 2.37.68zm5.07-2.88l.07-.25-3.32-.78-.06.24 3.31.79zm-.15.57l.07-.26-3.31-.8-.07.25 3.31.81zm-.15.56l.07-.25-3.31-.82-.06.24 3.3.83zm-.15.57l.07-.26-3.3-.84-.07.25 3.3.85zm-.15.56l.07-.25-3.3-.87-.06.25 3.29.87zm-.15.57l.07-.26-3.29-.88-.07.25 3.29.89zm-.15.56l.06-.25-3.28-.91-.06.25 3.28.91zm-.16.57l.07-.26-3.27-.92-.07.24 3.27.94zm-.15.56l.07-.25-3.27-.95-.06.25 3.26.95zm-.15.57l.07-.26-3.27-.96-.06.24 3.26.98zm-8.84 3.18l.18-.46-2.33-.84-.17.44 2.32.86zm-.45 1.11l.18-.46-2.31-.87-.17.44 2.3.89zm-.44 1.11l.18-.45-2.3-.91-.17.44 2.29.92zm-.44 1.11l.18-.45-2.29-.94-.17.44 2.28.95zm4.21-1.87l.32-.82-2.32-.84-.32.79 2.32.87zm-.42 1.04l.33-.82-2.31-.87-.32.79 2.3.9zm-.41 1.04l.33-.82-2.31-.9-.31.79 2.29.93zm-.41 1.04l.32-.82-2.29-.93-.31.79 2.28.96zm5.37-2.27l.09-.25-3.2-1.16-.09.24 3.2 1.17zm-.22.55l.1-.25-3.19-1.19-.1.24 3.19 1.2zm-.22.54l.1-.25-3.18-1.2-.1.23 3.18 1.22zm-.21.54l.1-.24-3.18-1.23-.09.24 3.17 1.23zm-.22.55l.1-.25-3.17-1.24-.09.23 3.16 1.26zm-.21.54l.09-.25-3.16-1.26-.09.24 3.16 1.27zm-.22.54l.1-.24-3.15-1.29-.1.24 3.15 1.29zm-.21.55l.09-.25-3.14-1.3-.1.23 3.15 1.32zm-.22.54l.1-.25-3.14-1.32-.1.24 3.14 1.33zm-.22.54l.1-.24-3.13-1.35-.09.24 3.12 1.35zm-9.16 2.12l.24-.43-2.21-1.11-.23.42 2.2 1.12zm-.57 1.05l.24-.43-2.2-1.14-.22.42 2.18 1.15zm-.57 1.06l.24-.43-2.18-1.17-.22.41 2.16 1.19zm-.56 1.05l.23-.43-2.16-1.2-.23.42 2.16 1.21zm4.39-1.37l.42-.77-2.21-1.11-.4.75 2.19 1.13zm-.53.98l.42-.77-2.19-1.14-.41.75 2.18 1.16zm-.53.99l.42-.77-2.18-1.17-.41.75 2.17 1.19zm-.53.98l.42-.77-2.17-1.19-.4.75 2.15 1.21zm5.6-1.62l.12-.23-3.04-1.53-.12.22 3.04 1.54zm-.28.52l.12-.24-3.03-1.55-.12.23 3.03 1.56zm-.28.51l.13-.23-3.03-1.57-.12.22 3.02 1.58zm-.28.51l.13-.23-3.01-1.59-.12.23 3 1.59zm-.28.52l.13-.23-3-1.61-.12.22 2.99 1.62zm-.27.51l.12-.23-2.99-1.63-.12.23 2.99 1.63zm-.28.52l.12-.24-2.98-1.64-.12.22 2.98 1.66zm-.28.51l.13-.23-2.98-1.66-.12.22 2.97 1.67zm-.28.51l.13-.23-2.96-1.68-.13.23 2.96 1.68zm-.28.52l.13-.23-2.95-1.7-.12.22 2.94 1.71zm-9.34 1.04l.28-.4-2.06-1.37-.27.39 2.05 1.38zm-.69.98l.28-.4-2.04-1.39-.27.38 2.03 1.41zm-.68.97l.28-.39-2.03-1.42-.27.39 2.02 1.42zm-.69.99l.28-.4-2.01-1.45-.27.39 2 1.46zm4.53-.85l.5-.72-2.06-1.36-.49.7 2.05 1.38zm-.65.91l.51-.72-2.05-1.38-.49.7 2.03 1.4zm-.64.92l.51-.72-2.03-1.41-.49.7 2.01 1.43zm-.64.91l.5-.72-2.01-1.43-.49.7 2 1.45zm5.75-.96l.15-.21-2.85-1.88-.14.21 2.84 1.88zm-.34.48l.15-.21-2.83-1.9-.15.21 2.83 1.9zm-.34.48l.16-.22-2.82-1.91-.15.21 2.81 1.92zm-.33.48l.15-.22-2.81-1.92-.14.2 2.8 1.94zm-.34.48l.16-.22-2.8-1.94-.15.2 2.79 1.96zm-.33.47l.15-.21-2.78-1.96-.15.2 2.78 1.97zm-.34.48l.15-.21-2.77-1.98-.14.21 2.76 1.98zm-.33.48l.15-.22-2.76-1.99-.15.21 2.76 2zm-.34.48l.15-.22-2.75-2.01-.14.21 2.74 2.02zm-.34.48l.16-.22-2.74-2.03-.15.21 2.73 2.04zm-9.4-.06l.33-.36-1.89-1.59-.32.35 1.88 1.6zm-.79.89l.32-.36-1.87-1.61-.31.35 1.86 1.62zm-.8.9l.33-.37-1.85-1.64-.32.36 1.84 1.65zm-.8.89l.33-.36-1.83-1.67-.31.36 1.81 1.67zm4.6-.32l.58-.65-1.89-1.59-.57.64 1.88 1.6zm-.74.84l.58-.66-1.87-1.61-.57.64 1.86 1.63zm-.75.83l.59-.65-1.85-1.64-.57.64 1.83 1.65zm-.74.84l.58-.66-1.83-1.66-.57.64 1.82 1.68zm5.82-.29l.17-.2-2.6-2.19-.17.19 2.6 2.2zm-.39.44l.17-.2-2.59-2.21-.17.19 2.59 2.22zm-.39.43l.18-.19-2.58-2.23-.17.19 2.57 2.23zm-.39.44l.18-.2-2.57-2.24-.17.19 2.56 2.25zm-.39.44l.18-.2-2.55-2.26-.17.19 2.54 2.27zm-.39.43l.18-.19-2.54-2.28-.17.19 2.53 2.28zm-.39.44l.18-.2-2.52-2.29-.17.19 2.51 2.3zm-.38.43l.17-.19-2.51-2.3-.17.19 2.51 2.3zm-.39.44l.17-.2-2.49-2.32-.17.19 2.49 2.33zm-.39.43l.17-.19-2.48-2.33-.17.19 2.48 2.33zm-9.33-1.14l.36-.32-1.69-1.8-.36.32 1.69 1.8zm-.9.8l.37-.32-1.67-1.82-.36.31 1.66 1.83zm-.89.8l.36-.33-1.64-1.84-.36.31 1.64 1.86zm-.9.79l.37-.32-1.62-1.87-.36.32 1.61 1.87zm4.61.22l.65-.58-1.69-1.8-.64.56 1.68 1.82zm-.84.74l.66-.58-1.68-1.82-.63.57 1.65 1.83zm-.84.74l.66-.58-1.65-1.84-.64.57 1.63 1.85zm-.83.75l.65-.59-1.62-1.86-.64.57 1.61 1.88zm5.81.38l.2-.17-2.34-2.48-.19.17 2.33 2.48zm-.44.39l.2-.17-2.32-2.5-.19.17 2.31 2.5zm-.43.39l.2-.18-2.31-2.5-.19.17 2.3 2.51zm-.44.39l.2-.18-2.29-2.52-.19.17 2.28 2.53zm-.43.39l.19-.18-2.27-2.53-.19.17 2.27 2.54zm-.44.39l.2-.18-2.26-2.55-.19.17 2.25 2.56zm-.44.38l.2-.17-2.24-2.56-.19.17 2.23 2.56zm-.43.39l.19-.17-2.22-2.58-.19.17 2.22 2.58zm-.44.39l.2-.18-2.22-2.59-.19.17 2.21 2.6zm-.44.39l.2-.18-2.2-2.6-.19.17 2.19 2.61zm-9.13-2.21l.4-.28-1.48-1.98-.39.27 1.47 1.99zm-.99.68l.4-.28-1.44-2-.39.27 1.43 2.01zm-.98.69l.4-.28-1.42-2.02-.39.27 1.41 2.03zm-.98.69l.4-.28-1.39-2.04-.39.27 1.38 2.05zm4.55.74l.72-.5-1.48-1.98-.7.49 1.46 1.99zm-.92.65l.72-.51-1.45-2-.7.49 1.43 2.02zm-.91.64l.72-.51-1.43-2.02-.7.49 1.41 2.04zm-.92.64l.72-.51-1.4-2.03-.7.49 1.38 2.05zm5.73 1.05l.22-.15-2.04-2.73-.21.15 2.03 2.73zm-.48.34l.22-.15-2.02-2.75-.21.15 2.01 2.75zm-.48.34l.22-.16-2-2.75-.21.14 1.99 2.77zm-.47.33l.21-.15-1.98-2.77-.21.15 1.98 2.77zm-.48.34l.21-.15-1.96-2.79-.21.15 1.96 2.79zm-.48.33l.21-.15-1.94-2.79-.21.14 1.94 2.8zm-.48.34l.22-.15-1.94-2.81-.2.15 1.92 2.81zm-.48.33l.22-.15-1.92-2.82-.21.15 1.91 2.82zm-.48.34l.22-.16-1.9-2.82-.21.14 1.89 2.84zm-.48.33l.22-.15-1.88-2.84-.21.15 1.87 2.84zm-8.82-3.25l.43-.24-1.23-2.14-.42.23 1.22 2.15zm-1.05.56l.43-.23-1.21-2.16-.41.23 1.19 2.16zm-1.06.57l.43-.23-1.17-2.18-.42.23 1.16 2.18zm-1.05.57l.43-.23-1.15-2.19-.41.22 1.13 2.2zm4.43 1.27l.77-.42-1.23-2.14-.75.41 1.21 2.15zm-.98.53l.77-.42-1.21-2.15-.75.4 1.19 2.17zm-.99.53l.77-.42-1.18-2.17-.75.41 1.16 2.18zm-.98.53l.77-.42-1.15-2.18-.76.4 1.14 2.2zm5.56 1.72l.24-.13-1.7-2.95-.23.12 1.69 2.96zm-.51.27l.23-.12-1.68-2.96-.22.12 1.67 2.96zm-.51.28l.23-.12-1.67-2.98-.22.13 1.66 2.97zm-.52.28l.23-.13-1.64-2.98-.23.12 1.64 2.99zm-.51.28l.23-.13-1.63-2.99-.22.12 1.62 3zm-.52.27l.23-.12-1.6-3-.23.12 1.6 3zm-.51.28l.23-.13-1.59-3-.22.12 1.58 3.01zm-.52.28l.24-.13-1.58-3.02-.22.12 1.56 3.03zm-.51.27l.23-.12-1.55-3.03-.23.12 1.55 3.03zm-.52.28l.24-.12-1.54-3.04-.22.12 1.52 3.04zm-8.38-4.26l.46-.18-.98-2.27-.44.17.96 2.28zm-1.11.44l.45-.18-.94-2.28-.44.17.93 2.29zm-1.11.44l.45-.18-.91-2.3-.44.18.9 2.3zm-1.12.44l.46-.18-.88-2.31-.45.18.87 2.31zm4.26 1.78l.81-.32-.98-2.27-.79.31.96 2.28zm-1.04.41l.81-.32-.95-2.28-.79.31.93 2.29zm-1.04.41l.81-.32-.92-2.29-.79.31.9 2.3zm-1.04.42l.81-.33-.89-2.3-.79.31.87 2.32zm5.33 2.35l.24-.1-1.34-3.13-.24.1 1.34 3.13zm-.55.22l.25-.1-1.33-3.14-.24.1 1.32 3.14zm-.54.21l.25-.1-1.31-3.14-.24.09 1.3 3.15zm-.54.22l.24-.1-1.29-3.15-.23.09 1.28 3.16zm-.55.21l.25-.09-1.27-3.16-.24.09 1.26 3.16zm-.54.22l.24-.1-1.24-3.17-.24.1 1.24 3.17zm-.55.21l.25-.09-1.23-3.18-.24.09 1.22 3.18zm-.54.22l.25-.1-1.21-3.18-.24.09 1.2 3.19zm-.54.21l.24-.09-1.19-3.2-.23.1 1.18 3.19zm-.55.22l.25-.1-1.17-3.2-.24.1 1.16 3.2zm-7.82-5.22l.48-.12-.71-2.37-.46.12.69 2.37zm-1.15.31l.47-.12-.67-2.38-.46.12.66 2.38zm-1.16.31l.47-.13-.64-2.38-.46.12.63 2.39zm-1.16.31l.47-.13-.6-2.4-.46.13.59 2.4zm4.01 2.26l.85-.23-.7-2.36-.83.21.68 2.38zm-1.08.29l.85-.23-.67-2.38-.83.22.65 2.39zm-1.08.28l.85-.22-.64-2.39-.83.22.62 2.39zm-1.08.29l.85-.22-.61-2.4-.83.22.59 2.4zm5.02 2.97l.25-.07-.97-3.27-.24.07.96 3.27zm-.56.15l.25-.07-.95-3.27-.25.06.95 3.28zm-.57.15l.26-.07-.93-3.28-.25.07.92 3.28zm-.56.15l.25-.07-.91-3.28-.24.06.9 3.29zm-.57.15l.26-.07-.89-3.29-.25.07.88 3.29zm-.57.15l.26-.07-.87-3.29-.24.06.85 3.3zm-.56.15l.26-.07-.85-3.3-.25.07.84 3.3zm-.56.15l.25-.07-.83-3.3-.24.06.82 3.31zm-.57.14l.26-.06-.81-3.31-.25.06.8 3.31zm-.57.15l.26-.06-.79-3.32-.24.07.77 3.31zm-7.15-6.09l.48-.07-.42-2.43-.47.06.41 2.44zm-1.19.17l.49-.07-.39-2.44-.47.07.37 2.44zm-1.18.17l.48-.07-.35-2.44-.47.06.34 2.45zm-1.19.17l.49-.07-.33-2.45-.47.07.31 2.45zm3.72 2.72l.87-.13-.42-2.43-.85.12.4 2.44zm-1.1.16l.87-.13-.4-2.44-.84.12.37 2.45zm-1.11.16l.87-.13-.36-2.44-.85.12.34 2.45zm-1.11.16l.87-.13-.33-2.45-.84.12.3 2.46zm4.64 3.53l.26-.04-.58-3.36-.25.04.57 3.36zm-.58.08l.26-.04-.56-3.36-.25.04.55 3.36zm-.58.08l.26-.03-.54-3.37-.25.04.53 3.36zm-.58.09l.27-.04-.52-3.37-.26.04.51 3.37zm-.58.08l.27-.04-.5-3.37-.25.04.48 3.37zm-.57.08l.26-.04-.48-3.37-.25.04.47 3.37zm-.58.08l.26-.03-.46-3.38-.25.04.45 3.37zm-.58.09l.26-.04-.44-3.38-.25.04.43 3.38zm-.58.08l.26-.04-.41-3.38-.26.04.41 3.38zm-.58.08l.26-.04-.39-3.38-.25.04.38 3.38zm-6.4-6.88l.49-.01-.14-2.47-.47.01.12 2.47zm-1.2.03l.49-.01-.1-2.47-.48.01.09 2.47zm-1.19.03l.48-.01-.07-2.47-.47.01.06 2.47zm-1.2.04l.49-.01-.04-2.48-.47.02.02 2.47zm3.38 3.12l.88-.02-.14-2.47-.85.03.11 2.46zm-1.12.04l.88-.03-.11-2.47-.85.03.08 2.47zm-1.11.03l.87-.03-.07-2.47-.86.03.06 2.47zm-1.12.03l.88-.03-.05-2.47-.85.03.02 2.47zm4.19 4.03h.27l-.19-3.4h-.26l.18 3.4zm-.58.02l.26-.01-.16-3.4-.26.01.16 3.4zm-.58.02l.26-.01-.15-3.4-.25.01.14 3.4zm-.59.01h.27l-.13-3.41-.26.01.12 3.4zm-.58.02l.26-.01-.1-3.4-.26.01.1 3.4zm-.59.02l.27-.01-.09-3.4h-.25l.07 3.41zm-.58.01h.27l-.07-3.41-.26.01.06 3.4zm-.58.02l.26-.01-.04-3.4h-.26l.04 3.41zm-.59.02l.27-.01-.03-3.41-.25.01.01 3.41zm-.58 0h.26v-3.4h-.25l-.01 3.4zm-5.57-7.57l.49.04.14-2.46-.47-.04-.16 2.46zm-1.19-.11l.48.05.18-2.47-.47-.04-.19 2.46zm-1.2-.1l.49.04.21-2.46-.47-.04-.23 2.46zm-1.19-.11l.49.05.24-2.46-.47-.04-.26 2.45zm3 3.5l.88.08.14-2.47-.85-.07-.17 2.46zm-1.11-.1l.87.08.18-2.46-.85-.08-.2 2.46zm-1.12-.1l.88.08.21-2.46-.86-.08-.23 2.46zm-1.11-.09l.87.07.24-2.46-.85-.07-.26 2.46zm3.7 4.49l.27.03.2-3.4-.25-.03-.22 3.4zm-.58-.05l.27.02.22-3.39-.25-.03-.24 3.4zm-.58-.05l.26.02.25-3.39-.26-.03-.25 3.4zm-.58-.05l.26.02.27-3.39-.26-.03-.27 3.4zm-.58-.05l.26.02.28-3.39-.25-.02-.29 3.39zm-.59-.05l.27.02.3-3.39-.25-.03-.32 3.4zm-.58-.06l.27.03.32-3.39-.25-.02-.34 3.38zm-.58-.05l.26.03.35-3.39-.25-.02-.36 3.38zm-.58-.05l.26.02.37-3.38-.25-.02-.38 3.38zm-.58-.05l.26.02.39-3.38-.26-.02-.39 3.38zm-4.66-8.17l.48.1.43-2.43-.46-.1-.45 2.43zm-1.17-.24l.48.1.46-2.43-.46-.1-.48 2.43zm-1.17-.25l.47.1.5-2.42-.46-.09-.51 2.41zm-1.18-.24l.48.1.53-2.41-.46-.1-.55 2.41zm2.58 3.82l.85.18.44-2.43-.84-.18-.45 2.43zm-1.1-.23l.86.18.46-2.42-.83-.18-.49 2.42zm-1.09-.22l.85.18.5-2.43-.84-.17-.51 2.42zm-1.1-.23l.86.18.52-2.42-.83-.17-.55 2.41zm3.16 4.9l.26.05.59-3.35-.25-.05-.6 3.35zm-.57-.12l.25.05.62-3.35-.25-.05-.62 3.35zm-.58-.12l.26.05.64-3.34-.25-.05-.65 3.34zm-.57-.12l.26.06.66-3.35-.25-.05-.67 3.34zm-.57-.12l.26.06.68-3.34-.25-.05-.69 3.33zm-.57-.12l.26.06.69-3.33-.25-.06-.7 3.33zm-.58-.12l.26.06.72-3.33-.25-.05-.73 3.32zm-.57-.11l.26.05.74-3.33-.25-.05-.75 3.33zm-.57-.13l.26.06.76-3.32-.25-.05-.77 3.31zm-.57-.12l.25.06.79-3.31-.25-.06-.79 3.31zm-3.67-8.65l.46.16.71-2.37-.45-.15-.72 2.36zm-1.14-.38l.46.16.75-2.36-.45-.15-.76 2.35zm-1.13-.38l.46.16.78-2.35-.45-.15-.79 2.34zm-1.14-.38l.46.16.81-2.34-.44-.15-.83 2.33zm2.11 4.1l.83.28.71-2.37-.81-.27-.73 2.36zm-1.06-.35l.83.27.74-2.35-.81-.27-.76 2.35zm-1.06-.36l.83.28.77-2.35-.81-.27-.79 2.34zm-1.06-.35l.83.28.8-2.34-.81-.27-.82 2.33zm2.56 5.23l.25.08.98-3.26-.24-.08-.99 3.26zm-.56-.18l.26.08 1-3.25-.24-.09-1.02 3.26zm-.55-.19l.25.08 1.02-3.24-.24-.08-1.03 3.24zm-.56-.18l.26.08 1.04-3.24-.24-.08-1.06 3.24zm-.55-.19l.25.08 1.06-3.23-.24-.08-1.07 3.23zm-.55-.18l.25.08 1.08-3.23-.24-.08-1.09 3.23zm-.56-.19l.25.08 1.11-3.22-.25-.08-1.11 3.22zm-.55-.18l.25.08 1.12-3.21-.24-.09-1.13 3.22zm-.56-.19l.25.08 1.15-3.2-.24-.09-1.16 3.21zm-.55-.19l.25.09 1.16-3.2-.24-.08-1.17 3.19zm-2.63-9.02l.44.21.99-2.27-.43-.2-1 2.26zm-1.09-.51l.45.21 1.01-2.26-.42-.2-1.04 2.25zm-1.08-.51l.44.21 1.05-2.24-.43-.2-1.06 2.23zm-1.08-.51l.44.21 1.08-2.23-.43-.2-1.09 2.22zm1.61 4.32l.79.37.99-2.27-.77-.36-1.01 2.26zm-1.01-.48l.79.37 1.02-2.25-.77-.36-1.04 2.24zm-1.01-.48l.79.38 1.04-2.24-.77-.37-1.06 2.23zm-1.01-.47l.79.37 1.07-2.23-.77-.36-1.09 2.22zm1.93 5.5l.24.11 1.36-3.13-.23-.1-1.37 3.12zm-.53-.25l.24.11 1.38-3.11-.23-.11-1.39 3.11zm-.53-.25l.24.11 1.4-3.1-.23-.11-1.41 3.1zm-.53-.25l.24.11 1.42-3.09-.23-.11-1.43 3.09zm-.53-.25l.24.11 1.44-3.08-.23-.11-1.45 3.08zm-.53-.25l.24.11 1.46-3.07-.23-.11-1.47 3.07zm-.53-.25l.24.12 1.48-3.07-.23-.11-1.49 3.06zm-.53-.25l.24.12 1.5-3.06-.23-.11-1.51 3.05zm-.52-.25l.24.12 1.51-3.05-.23-.11-1.52 3.04zm-.53-.25l.24.12 1.53-3.04-.23-.11-1.54 3.03zm-1.56-9.27l.41.26 1.25-2.13-.4-.25-1.26 2.12zm-1.02-.63l.42.26 1.27-2.12-.4-.25-1.29 2.11zm-1.01-.63l.41.26 1.3-2.1-.4-.25-1.31 2.09zm-1.02-.63l.41.25 1.33-2.08-.4-.25-1.34 2.08zm1.1 4.47l.74.47 1.25-2.14-.73-.45-1.26 2.12zm-.95-.59l.75.47 1.26-2.12-.72-.46-1.29 2.11zm-.95-.59l.75.46 1.29-2.1-.72-.45-1.32 2.09zm-.95-.59l.75.46 1.32-2.08-.73-.45-1.34 2.07zm1.28 5.68l.22.14 1.72-2.94-.22-.13-1.72 2.93zm-.5-.3l.23.14 1.73-2.94-.22-.13-1.74 2.93zm-.49-.31l.22.14 1.75-2.92-.22-.14-1.75 2.92zm-.5-.31l.22.14 1.77-2.91-.22-.14-1.77 2.91zm-.5-.31l.23.14 1.78-2.9-.21-.13-1.8 2.89zm-.49-.31l.22.14 1.81-2.89-.22-.13-1.81 2.88zm-.5-.31l.22.14 1.83-2.87-.22-.14-1.83 2.87zm-.49-.31l.22.14 1.84-2.86-.22-.14-1.84 2.86zm-.5-.3l.22.13 1.86-2.85-.22-.13-1.86 2.85zm-.5-.32l.23.15 1.87-2.85-.21-.13-1.89 2.83zm-.47-9.38l.39.3 1.48-1.97-.37-.3-1.5 1.97zm-.93-.75l.38.31 1.51-1.96-.37-.3-1.52 1.95zm-.94-.74l.38.3 1.54-1.94-.37-.29-1.55 1.93zm-.93-.75l.38.3 1.56-1.91-.37-.3-1.57 1.91zm.57 4.57l.68.55 1.49-1.98-.67-.53-1.5 1.96zm-.88-.7l.69.55 1.51-1.96-.67-.53-1.53 1.94zm-.87-.69l.69.55 1.53-1.94-.67-.54-1.55 1.93zm-.87-.7l.68.55 1.56-1.92-.67-.53-1.57 1.9zm.6 5.8l.21.16 2.04-2.72-.19-.16-2.06 2.72zm-.45-.37l.2.17 2.06-2.71-.2-.16-2.06 2.7zm-.46-.36l.21.16 2.07-2.69-.2-.16-2.08 2.69zm-.46-.37l.21.17 2.09-2.69-.2-.16-2.1 2.68zm-.45-.36l.2.17 2.11-2.68-.2-.16-2.11 2.67zm-.46-.36l.21.16 2.12-2.66-.2-.16-2.13 2.66zm-.46-.37l.21.17 2.14-2.65-.2-.16-2.15 2.64zm-.45-.36l.2.16 2.16-2.63-.2-.16-2.16 2.63zm-.46-.37l.21.17 2.17-2.62-.2-.16-2.18 2.61zm-.46-.36l.21.16 2.19-2.6-.2-.16-2.2 2.6zm.62-9.38l.35.35 1.7-1.79-.33-.34-1.72 1.78zm-.84-.85l.34.35 1.73-1.77-.33-.34-1.74 1.76zm-.84-.85l.34.35 1.75-1.75-.33-.33-1.76 1.73zm-.85-.85l.35.35 1.77-1.72-.33-.34-1.79 1.71zm.04 4.61l.62.62 1.7-1.79-.6-.61-1.72 1.78zm-.78-.79l.61.62 1.73-1.77-.6-.61-1.74 1.76zm-.79-.8l.62.63 1.74-1.75-.6-.61-1.76 1.73zm-.79-.79l.62.62 1.76-1.73-.6-.6-1.78 1.71zm-.07 5.83l.19.18 2.35-2.47-.18-.18-2.36 2.47zm-.41-.42l.19.19 2.36-2.46-.18-.18-2.37 2.45zm-.41-.41l.19.19 2.37-2.44-.18-.18-2.38 2.43zm-.41-.42l.18.19 2.39-2.42-.18-.18-2.39 2.41zm-.41-.41l.18.19 2.41-2.41-.18-.19-2.41 2.41zm-.42-.41l.19.18 2.42-2.39-.18-.19-2.43 2.4zm-.41-.42l.19.19 2.43-2.38-.18-.18-2.44 2.37zm-.41-.42l.19.19 2.45-2.36-.18-.18-2.46 2.35zm-.41-.41l.19.19 2.46-2.35-.18-.18-2.47 2.34zm-.41-.41l.18.18 2.48-2.33-.18-.18-2.48 2.33zm1.7-9.25l.3.38 1.9-1.58-.29-.37-1.91 1.57zm-.74-.94l.3.38 1.92-1.55-.29-.38-1.93 1.55zm-.74-.94l.3.38 1.94-1.53-.29-.37-1.95 1.52zm-.74-.94l.3.38 1.96-1.5-.29-.38-1.97 1.5zm-.49 4.58l.54.69 1.9-1.59-.53-.67-1.91 1.57zm-.7-.88l.55.69 1.91-1.56-.52-.67-1.94 1.54zm-.69-.88l.55.69 1.93-1.54-.53-.67-1.95 1.52zm-.69-.88l.55.69 1.95-1.51-.53-.67-1.97 1.49zm-.73 5.78l.16.21 2.61-2.18-.15-.2-2.62 2.17zm-.37-.46l.17.21 2.63-2.17-.16-.2-2.64 2.16zm-.36-.46l.16.21 2.65-2.15-.16-.2-2.65 2.14zm-.36-.46l.16.21 2.66-2.13-.16-.2-2.66 2.12zm-.36-.46l.16.21 2.67-2.11-.16-.21-2.67 2.11zm-.36-.46l.16.21 2.68-2.1-.16-.2-2.68 2.09zm-.36-.46l.16.21 2.69-2.08-.15-.2-2.7 2.07zm-.36-.46l.16.21 2.71-2.06-.16-.2-2.71 2.05zm-.36-.46l.16.21 2.72-2.05-.16-.2-2.72 2.04zm-.36-.46l.16.21 2.73-2.03-.16-.2-2.73 2.02zm2.75-8.98l.26.42 2.07-1.36-.25-.4-2.08 1.34zm-.62-1.02l.25.41 2.09-1.32-.25-.4-2.09 1.31zm-.63-1.02l.26.41 2.1-1.29-.25-.41-2.11 1.29zm-.62-1.02l.25.41 2.12-1.26-.24-.41-2.13 1.26zm-1.02 4.49l.46.75 2.06-1.36-.44-.72-2.08 1.33zm-.59-.95l.46.74 2.09-1.32-.45-.73-2.1 1.31zm-.58-.96l.46.75 2.1-1.3-.45-.73-2.11 1.28zm-.59-.95l.46.75 2.12-1.28-.45-.72-2.13 1.25zm-1.4 5.65l.14.23 2.85-1.86-.13-.22-2.86 1.85zm-.31-.49l.14.22 2.86-1.84-.13-.22-2.87 1.84zm-.3-.5l.14.22 2.87-1.82-.13-.22-2.88 1.82zm-.31-.5l.14.23 2.88-1.81-.13-.22-2.89 1.8zm-.3-.5l.13.23 2.9-1.79-.13-.22-2.9 1.78zm-.31-.5l.14.23 2.91-1.77-.14-.22-2.91 1.76zm-.3-.49l.13.22 2.92-1.76-.13-.21-2.92 1.75zm-.31-.5l.14.22 2.93-1.74-.14-.21-2.93 1.73zm-.3-.5l.13.22 2.94-1.72-.13-.21-2.94 1.71zm-.31-.5l.14.23 2.95-1.71-.13-.21-2.96 1.69zm3.79-8.6l.2.44 2.21-1.1-.2-.43-2.21 1.09zm-.51-1.09l.21.44 2.23-1.07-.2-.43-2.24 1.06zm-.5-1.09l.21.45 2.24-1.05-.2-.43-2.25 1.03zm-.5-1.08l.2.44 2.26-1.01-.2-.43-2.26 1zm-1.54 4.34l.37.8 2.21-1.11-.36-.77-2.22 1.08zm-.47-1.02l.37.8 2.23-1.07-.36-.78-2.24 1.05zm-.47-1.01l.37.8 2.24-1.05-.36-.78-2.25 1.03zm-.47-1.02l.37.8 2.25-1.02-.36-.77-2.26.99zm-2.05 5.46l.11.24 3.05-1.52-.11-.23-3.05 1.51zm-.25-.53l.12.24 3.05-1.5-.1-.23-3.07 1.49zm-.24-.53l.11.24 3.07-1.48-.11-.23-3.07 1.47zm-.25-.53l.12.24 3.07-1.46-.11-.24-3.08 1.46zm-.24-.53l.11.24 3.08-1.45-.1-.23-3.09 1.44zm-.25-.54l.11.25 3.1-1.43-.11-.23-3.1 1.41zm-.24-.53l.11.25 3.1-1.41-.11-.23-3.1 1.39zm-.25-.53l.11.24 3.11-1.38-.1-.23-3.12 1.37zm-.24-.53l.11.24 3.12-1.36-.11-.23-3.12 1.35zm-.25-.53l.11.24 3.13-1.34-.1-.24-3.14 1.34zm4.77-8.1l.15.46 2.33-.83-.15-.45-2.33.82zm-.37-1.14l.15.46 2.34-.8-.15-.45-2.34.79zm-.37-1.14l.15.47 2.35-.77-.15-.45-2.35.75zm-.37-1.13l.15.46 2.35-.74-.14-.45-2.36.73zm-2.04 4.13l.27.83 2.33-.83-.27-.81-2.33.81zm-.35-1.06l.27.83 2.34-.81-.27-.81-2.34.79zm-.35-1.07l.28.84 2.34-.78-.26-.81-2.36.75zm-.34-1.06l.27.84 2.35-.75-.26-.81-2.36.72zm-2.68 5.18l.08.25 3.21-1.15-.08-.25-3.21 1.15zm-.18-.56l.08.25 3.21-1.13-.08-.24-3.21 1.12zm-.18-.55l.08.25 3.22-1.12-.08-.24-3.22 1.11zm-.19-.56l.09.25 3.22-1.09-.08-.24-3.23 1.08zm-.18-.56l.08.25 3.24-1.07-.08-.24-3.24 1.06zm-.18-.55l.08.25 3.24-1.05-.08-.24-3.24 1.04zm-.18-.56l.08.25 3.25-1.03-.08-.24-3.25 1.02zm-.18-.55l.08.25 3.25-1.01-.08-.24-3.25 1zm-.18-.56l.08.25 3.26-.99-.08-.24-3.26.98zm-.18-.56l.08.26 3.26-.97-.08-.25-3.26.96zm5.68-7.48l.1.48 2.4-.56-.09-.46-2.41.54zm-.24-1.17l.1.47 2.41-.52-.09-.47-2.42.52zm-.23-1.18l.09.48 2.43-.49-.1-.47-2.42.48zm-.24-1.17l.1.48 2.43-.46-.1-.47-2.43.45zm-2.51 3.86l.18.86 2.41-.55-.17-.84-2.42.53zm-.21-1.09l.17.86 2.41-.53-.17-.84-2.41.51zm-.23-1.1l.18.86 2.42-.5-.17-.83-2.43.47zm-.22-1.09l.18.86 2.42-.47-.17-.84-2.43.45zm-3.26 4.82l.05.26 3.32-.77-.05-.25-3.32.76zm-.12-.57l.06.26 3.32-.75-.05-.25-3.33.74zm-.11-.57l.05.25 3.33-.72-.05-.25-3.33.72zm-.12-.58l.06.26 3.33-.7-.06-.25-3.33.69zm-.11-.57l.05.26 3.33-.69-.05-.25-3.33.68zm-.12-.57l.05.26 3.34-.67-.05-.25-3.34.66zm-.11-.58l.05.26 3.34-.64-.05-.25-3.34.63zm-.12-.57l.05.26 3.35-.62-.05-.25-3.35.61zm-.11-.57l.05.26 3.35-.61-.05-.25-3.35.6zm-.12-.58l.05.26 3.36-.58-.05-.25-3.36.57zm6.52-6.77l.04.49 2.46-.28-.04-.47-2.46.26zm-.1-1.19l.04.48 2.46-.24-.03-.47-2.47.23zm-.09-1.2l.04.49 2.46-.21-.04-.47-2.46.19zm-.1-1.19l.04.49 2.46-.18-.04-.47-2.46.16zm-2.94 3.55l.07.87 2.46-.27-.07-.85-2.46.25zm-.09-1.12l.07.88 2.46-.24-.07-.85-2.46.21zm-.09-1.11l.07.88 2.46-.22-.07-.85-2.46.19zm-.09-1.11l.07.87 2.46-.18-.07-.85-2.46.16zm-3.81 4.41l.02.26 3.39-.37-.02-.26-3.39.37zm-.05-.58l.03.26 3.38-.35-.02-.26-3.39.35zm-.05-.58l.03.26 3.38-.34-.02-.25-3.39.33zm-.04-.59l.02.27 3.39-.32-.02-.25-3.39.3zm-.05-.58l.02.26 3.39-.29-.02-.25-3.39.28zm-.05-.58l.02.26 3.4-.27-.02-.25-3.4.26zm-.05-.59l.02.27 3.4-.25-.02-.26-3.4.24zm-.04-.58l.02.27 3.39-.24-.02-.25-3.39.22zm-.05-.58l.02.26 3.4-.21-.02-.25-3.4.2zm-.05-.58l.02.26 3.4-.19-.02-.25-3.4.18zm7.26-5.98l-.02.49 2.47.01.02-.47-2.47-.03zm.04-1.19l-.02.48 2.47.05.02-.48-2.47-.05zm.04-1.2l-.02.49 2.47.07.02-.47-2.47-.09zm.04-1.2l-.02.49 2.47.11.01-.48-2.46-.12zm-3.33 3.19l-.03.88 2.47.01.03-.85-2.47-.04zm.04-1.12l-.03.88 2.47.04.03-.85-2.47-.07zm.04-1.11l-.03.87 2.47.07.02-.85-2.46-.09zm.03-1.12l-.03.87 2.47.11.03-.86-2.47-.12zm-4.28 3.95l-.01.26 3.4.01.01-.25-3.4-.02zm.02-.59l-.01.26 3.4.04.01-.25-3.4-.05zm.01-.58v.26l3.4.06.01-.26-3.41-.06zm.02-.59l-.01.27 3.41.07.01-.25-3.41-.09zm.02-.58l-.01.26 3.41.1.01-.25-3.41-.11zm.02-.58l-.01.26 3.41.12.01-.26-3.41-.12zm.02-.59l-.01.26 3.41.14v-.25l-3.4-.15zm.02-.58l-.01.26 3.4.16.01-.25-3.4-.17zm.02-.59l-.01.27 3.4.18.01-.26-3.4-.19zm.02-.58l-.01.26 3.4.21.01-.26-3.4-.21zm7.9-5.1l-.08.48 2.46.29.07-.46L17 92.7zm.17-1.19l-.07.49 2.45.32.07-.46-2.45-.35zm.18-1.18l-.07.48 2.44.36.08-.47-2.45-.37zm.18-1.19l-.07.49 2.44.39.07-.47-2.44-.41zm-3.67 2.79l-.13.86 2.45.3.13-.84-2.45-.32zm.16-1.11l-.13.87 2.45.32.13-.84-2.45-.35zm.17-1.1l-.13.86 2.44.36.13-.85-2.44-.37zm.17-1.11l-.14.87 2.44.38.13-.84-2.43-.41zm-4.72 3.42l-.04.27 3.38.4.04-.25-3.38-.42zm.09-.57l-.04.26 3.38.43.04-.26-3.38-.43zm.08-.58l-.03.26 3.37.45.04-.25-3.38-.46zm.09-.58l-.04.26 3.37.47.04-.25-3.37-.48zm.09-.58l-.04.26 3.37.49.04-.25-3.37-.5zm.08-.58l-.03.27 3.36.51.04-.25-3.37-.53zm.09-.57l-.04.26 3.36.53.04-.25-3.36-.54zm.09-.58l-.04.26 3.36.55.04-.25-3.36-.56zm.09-.58l-.04.26 3.35.58.04-.26-3.35-.58zm.08-.58l-.04.26 3.36.6.04-.25-3.36-.61zm8.44-4.15l-.13.47 2.4.58.13-.45-2.4-.6zm.31-1.15l-.12.47 2.39.61.13-.45-2.4-.63zm.32-1.16l-.13.47 2.39.65.12-.46-2.38-.66zm.31-1.15l-.12.47 2.37.68.13-.46-2.38-.69zm-3.97 2.33l-.23.85 2.4.58.23-.82-2.4-.61zm.3-1.08l-.24.85 2.4.61.22-.82-2.38-.64zm.29-1.08l-.23.85 2.39.64.22-.82-2.38-.67zm.29-1.08l-.23.85 2.38.67.23-.82-2.38-.7zm-5.08 2.86l-.07.25 3.31.8.07-.24-3.31-.81zm.16-.57l-.07.26 3.3.82.07-.25-3.3-.83zm.15-.56l-.07.25 3.3.85.07-.25-3.3-.85zm.15-.57l-.07.26 3.3.86.06-.25-3.29-.87zm.16-.56l-.07.26 3.29.88.06-.25-3.28-.89zm.15-.56l-.07.25 3.28.9.07-.24-3.28-.91zm.15-.57l-.07.26 3.28.92.07-.25-3.28-.93zm.16-.56l-.07.25 3.27.95.07-.25-3.27-.95zm.15-.57l-.07.26 3.27.96.07-.24-3.27-.98zm.16-.56l-.07.25 3.26.99.06-.25-3.25-.99zm8.86-3.13l-.18.45 2.32.86.17-.44-2.31-.87zm.45-1.11l-.18.45 2.3.89.18-.44-2.3-.9zm.45-1.11l-.19.45 2.3.92.18-.44-2.29-.93zm.45-1.11l-.19.45 2.28.95.18-.44-2.27-.96zm-4.22 1.85l-.33.81 2.32.86.32-.79-2.31-.88zm.42-1.04l-.33.82 2.3.88.32-.79-2.29-.91zm.41-1.03l-.32.81 2.29.92.32-.8-2.29-.93zm.42-1.04l-.33.81 2.29.95.32-.8-2.28-.96zm-5.38 2.24l-.1.24 3.2 1.18.09-.23-3.19-1.19zm.22-.55l-.1.25 3.19 1.2.09-.24-3.18-1.21zm.22-.54l-.1.25 3.18 1.22.09-.24-3.17-1.23zm.22-.54l-.1.24 3.17 1.25.09-.24-3.16-1.25zm.22-.54l-.1.24 3.16 1.26.09-.23-3.15-1.27zm.21-.55l-.09.25 3.15 1.28.1-.24-3.16-1.29zm.22-.54l-.1.25 3.15 1.3.1-.24-3.15-1.31zm.22-.54l-.1.25 3.14 1.32.1-.24-3.14-1.33zm.22-.54l-.1.24 3.13 1.34.1-.23-3.13-1.35zm.22-.54l-.1.24 3.13 1.36.09-.24-3.12-1.36zm9.17-2.08l-.23.43 2.2 1.12.23-.41-2.2-1.14zm.58-1.05l-.24.43 2.19 1.15.23-.41-2.18-1.17zm.57-1.05l-.23.43 2.17 1.18.22-.41-2.16-1.2zm.58-1.05l-.24.43 2.15 1.21.23-.41-2.14-1.23zm-4.41 1.35l-.42.77 2.2 1.12.41-.75-2.19-1.14zm.54-.98l-.43.77 2.19 1.15.41-.75-2.17-1.17zm.53-.98l-.42.77 2.17 1.18.41-.75-2.16-1.2zm.54-.98l-.42.77 2.16 1.2.41-.75-2.15-1.22zm-5.61 1.59l-.12.23 3.03 1.55.12-.23-3.03-1.55zm.29-.51l-.13.23 3.02 1.56.12-.22-3.01-1.57zm.28-.52l-.13.24 3.01 1.58.12-.22-3-1.6zm.27-.51l-.12.23 3 1.61.12-.23-3-1.61zm.29-.51l-.13.23 2.99 1.62.13-.22-2.99-1.63zm.28-.51l-.13.23 2.98 1.64.13-.23-2.98-1.64zm.28-.52l-.13.24 2.97 1.65.13-.22-2.97-1.67zm.28-.51l-.13.23 2.96 1.68.13-.23-2.96-1.68zm.28-.51l-.13.23 2.96 1.7.12-.23-2.95-1.7zm.28-.52l-.13.24 2.95 1.71.12-.22-2.94-1.73zm9.35-.98l-.29.39 2.06 1.37.28-.38-2.05-1.38zm.69-.98l-.28.4 2.04 1.4.27-.39-2.03-1.41zm.69-.98l-.28.4 2.02 1.43.27-.39-2.01-1.44zm.7-.97l-.28.4 1.99 1.45.28-.39-1.99-1.46zm-4.54.82l-.5.72 2.05 1.37.5-.7-2.05-1.39zm.65-.91l-.51.72 2.04 1.39.5-.69-2.03-1.42zm.65-.91l-.51.71 2.02 1.43.5-.7-2.01-1.44zm.64-.91l-.5.71 2 1.45.5-.7-2-1.46zm-5.75.93l-.15.21 2.83 1.89.15-.21-2.83-1.89zm.34-.48l-.15.22 2.82 1.9.15-.21-2.82-1.91zm.34-.48l-.15.22 2.81 1.92.14-.2-2.8-1.94zm.34-.47l-.15.21 2.79 1.94.15-.2-2.79-1.95zm.34-.48l-.16.22 2.79 1.95.15-.2-2.78-1.97zm.33-.48l-.15.22 2.77 1.98.15-.21-2.77-1.99zm.34-.47l-.15.21 2.76 2 .15-.21-2.76-2zm.34-.48l-.15.22 2.75 2.01.14-.21-2.74-2.02zm.34-.48l-.15.22 2.73 2.03.15-.21-2.73-2.04zm.34-.47l-.16.21 2.73 2.05.15-.21L28 46.7zm9.4.1l-.33.36 1.88 1.6.32-.35-1.87-1.61zm.8-.89l-.33.36 1.86 1.63.32-.35-1.85-1.64zm.8-.89l-.33.36 1.84 1.66.32-.36L39 45.02zm.8-.89l-.33.36 1.82 1.68.32-.35-1.81-1.69zm-4.6.3l-.58.65 1.88 1.6.57-.63-1.87-1.62zm.75-.83l-.59.65 1.87 1.62.57-.63-1.85-1.64zm.75-.83l-.59.65 1.84 1.64.58-.63-1.83-1.66zm.75-.83l-.59.65 1.82 1.67.57-.64-1.8-1.68zm-5.82.25l-.18.2 2.6 2.2.17-.18-2.59-2.22zm.39-.43l-.18.19 2.58 2.22.17-.18-2.57-2.23zm.39-.44l-.18.2 2.57 2.24.17-.19-2.56-2.25zm.39-.43l-.18.2 2.56 2.25.17-.19-2.55-2.26zm.39-.44l-.18.2 2.54 2.27.17-.19-2.53-2.28zm.39-.43l-.18.2 2.53 2.28.17-.19-2.52-2.29zm.39-.43l-.17.19 2.51 2.3.17-.19-2.51-2.3zm.39-.44l-.17.2 2.5 2.31.16-.18-2.49-2.33zm.4-.43l-.18.2 2.48 2.33.17-.19-2.47-2.34zm.39-.43l-.18.19 2.47 2.35.17-.19-2.46-2.35zm9.32 1.18l-.37.33 1.69 1.8.36-.31-1.68-1.82zm.9-.79l-.37.33 1.66 1.83.36-.32-1.65-1.84zm.9-.79l-.37.32 1.64 1.86.36-.32-1.63-1.86zm.9-.79l-.37.32 1.61 1.88.36-.32-1.6-1.88zm-4.6-.24l-.66.58 1.68 1.81.64-.56-1.66-1.83zm.84-.74l-.66.58 1.66 1.83.64-.56-1.64-1.85zm.83-.74l-.65.58 1.64 1.85.64-.56-1.63-1.87zm.84-.73l-.66.58 1.62 1.86.64-.56-1.6-1.88zm-5.81-.42l-.19.17 2.32 2.49.19-.16-2.32-2.5zm.44-.39l-.2.18 2.31 2.5.19-.17-2.3-2.51zm.44-.38l-.2.17 2.29 2.52.2-.17-2.29-2.52zm.44-.39l-.2.17 2.28 2.54.19-.17-2.27-2.54zm.44-.39l-.2.18 2.26 2.55.19-.17-2.25-2.56zm.44-.38l-.2.17 2.24 2.56.19-.17-2.23-2.56zm.44-.39l-.2.18 2.23 2.57.19-.17-2.22-2.58zm.43-.38l-.19.17 2.21 2.59.19-.17-2.21-2.59zm.44-.39l-.2.18 2.2 2.6.19-.17-2.19-2.61zm.44-.39l-.2.18 2.18 2.61.2-.16-2.18-2.63zm9.13 2.26l-.4.28 1.46 1.99.39-.27-1.45-2zm.98-.68l-.4.28 1.44 2.01.39-.27-1.43-2.02zm.99-.68l-.41.28 1.42 2.03.39-.27-1.4-2.04zm.98-.68l-.4.28 1.38 2.04.39-.27-1.37-2.05zm-4.54-.77l-.72.5 1.46 1.99.7-.49-1.44-2zm.92-.64l-.73.5 1.45 2.01.7-.49-1.42-2.02zm.91-.63l-.72.49 1.42 2.03.7-.49-1.4-2.03zm.92-.64l-.72.5 1.39 2.04.7-.49-1.37-2.05zm-5.72-1.09l-.22.15 2.02 2.74.21-.14-2.01-2.75zm.48-.33l-.22.15 2.01 2.75.21-.14-2-2.76zm.48-.33l-.22.15 1.99 2.76.21-.14-1.98-2.77zm.48-.34l-.22.15 1.97 2.78.21-.14-1.96-2.79zm.48-.33l-.22.15 1.96 2.79.21-.14-1.95-2.8zm.48-.33l-.21.15 1.93 2.8.21-.15-1.93-2.8zm.48-.34l-.21.16 1.91 2.81.21-.15-1.91-2.82zm.48-.33l-.21.15 1.9 2.83.21-.15-1.9-2.83zm.48-.33l-.21.15 1.88 2.84.21-.15-1.88-2.84zm.49-.33l-.22.15 1.86 2.85.21-.15-1.85-2.85zm8.8 3.3l-.43.23 1.22 2.14.42-.22-1.21-2.15zm1.05-.56l-.43.23 1.2 2.16.42-.22-1.19-2.17zm1.06-.57l-.43.23 1.17 2.18.41-.22-1.15-2.19zm1.06-.56l-.43.23 1.13 2.2.42-.23-1.12-2.2zm-4.42-1.29l-.78.41 1.23 2.15.75-.4-1.2-2.16zm.98-.53l-.77.41 1.2 2.17.75-.4L60.65 24zm.99-.52l-.77.41 1.16 2.18.76-.4-1.15-2.19zm.99-.53l-.78.41 1.14 2.2.76-.4-1.12-2.21zm-5.56-1.74l-.24.12 1.69 2.96.23-.12-1.68-2.96zm.51-.28l-.23.13 1.67 2.96.22-.11-1.66-2.98zm.52-.27l-.23.12 1.65 2.98.22-.12-1.64-2.98zm.52-.28l-.24.13 1.63 2.99.23-.12-1.62-3zm.51-.27l-.23.12 1.61 3 .22-.12-1.6-3zm.52-.28l-.24.13 1.6 3.01.22-.12-1.58-3.02zm.51-.27l-.23.12 1.58 3.02.22-.12-1.57-3.02zm.52-.27l-.23.12L62 22.44l.23-.12-1.55-3.03zm.52-.28l-.24.13 1.54 3.03.23-.12-1.53-3.04zm.51-.27l-.23.12L63 21.91l.22-.12-1.51-3.05zm8.36 4.3l-.46.18.97 2.27.44-.17-.95-2.28zm1.11-.43l-.45.17.93 2.29.45-.17-.93-2.29zm1.12-.44l-.45.18.9 2.3.44-.17-.89-2.31zm1.12-.43l-.46.17.87 2.32.44-.18-.85-2.31zm-4.25-1.81l-.81.32.96 2.28.8-.31-.95-2.29zm1.05-.4l-.82.32.93 2.29.8-.32-.91-2.29zm1.04-.41l-.82.32.91 2.3.79-.31-.88-2.31zm1.04-.4l-.82.32.88 2.3.8-.31-.86-2.31zm-5.32-2.39l-.25.1 1.33 3.14.24-.1-1.32-3.14zm.55-.21l-.25.1 1.31 3.14.24-.09-1.3-3.15zm.54-.21l-.25.09 1.29 3.16.24-.1-1.28-3.15zm.54-.21l-.24.09 1.27 3.16.24-.09-1.27-3.16zm.55-.22l-.25.1 1.26 3.17.23-.1-1.24-3.17zm.54-.21l-.24.1 1.23 3.17.24-.09-1.23-3.18zm.55-.21l-.25.09 1.22 3.19.23-.1-1.2-3.18zm.55-.21l-.25.09 1.19 3.19.24-.09-1.18-3.19zm.54-.22l-.25.1 1.18 3.2.23-.1-1.16-3.2zm.55-.21l-.25.1 1.15 3.2.24-.09-1.14-3.21zm7.79 5.26l-.48.12.7 2.37.46-.12-.68-2.37zm1.16-.3l-.48.12.66 2.38.46-.12-.64-2.38zm1.15-.31l-.47.13.63 2.39.46-.12-.62-2.4zm1.16-.3l-.47.13.59 2.4.46-.12-.58-2.41zm-4-2.28l-.85.22.7 2.37.82-.21-.67-2.38zm1.08-.29l-.84.23.66 2.38.82-.22-.64-2.39zm1.09-.28l-.85.22.63 2.39.82-.21-.6-2.4zm1.08-.28l-.85.22.6 2.4.83-.21-.58-2.41zm-5-2.99l-.26.07.95 3.27.25-.06-.94-3.28zm.56-.14l-.25.06.93 3.28.25-.07-.93-3.27zm.57-.15l-.26.07.92 3.28.24-.07-.9-3.28zm.56-.15l-.25.07.89 3.28.25-.06-.89-3.29zm.57-.15l-.26.07.88 3.29.24-.06-.86-3.3zm.56-.14l-.25.06.85 3.3.25-.06-.85-3.3zm.57-.15l-.26.07.84 3.3.24-.07-.82-3.3zm.57-.15l-.26.07.81 3.31.25-.07-.8-3.31zm.56-.14l-.25.06.79 3.32.24-.07-.78-3.31zm.57-.15l-.26.07.77 3.31.25-.06-.76-3.32zm7.12 6.13l-.48.07.41 2.43.47-.06-.4-2.44zm1.19-.16l-.48.06.37 2.45.47-.07-.36-2.44zm1.19-.17l-.49.07.35 2.45.47-.07-.33-2.45zm1.18-.16l-.48.07.31 2.45.47-.07-.3-2.45zm-3.7-2.74l-.87.12.41 2.44.84-.12-.38-2.44zm1.1-.15l-.87.12.38 2.44.85-.12-.36-2.44zm1.11-.15l-.87.11.35 2.45.85-.11-.33-2.45zm1.11-.16l-.87.12.32 2.45.84-.11-.29-2.46zm-4.62-3.55l-.26.04.56 3.35.26-.03-.56-3.36zm.58-.08l-.26.04.54 3.36.25-.04-.53-3.36zm.58-.08l-.26.03.52 3.37.25-.04-.51-3.36zm.58-.08l-.26.03.5 3.37.25-.03-.49-3.37zm.58-.08l-.27.03.49 3.37.25-.03-.47-3.37zm.58-.08l-.27.03.46 3.38.26-.04-.45-3.37zm.57-.08l-.26.03.44 3.38.26-.03-.44-3.38zm.58-.08l-.26.03.42 3.38.25-.03-.41-3.38zm.58-.08l-.26.03.4 3.39.25-.04-.39-3.38zm.58-.08l-.26.04.38 3.38.25-.04-.37-3.38zm6.37 6.91l-.49.02.12 2.46.48-.01-.11-2.47zm1.19-.03l-.48.02.09 2.46.47-.01-.08-2.47zm1.2-.03l-.49.02.06 2.47.48-.02-.05-2.47zm1.2-.03l-.49.02.03 2.47.47-.02-.01-2.47zm-3.37-3.13l-.87.02.12 2.47.85-.02-.1-2.47zm1.12-.03l-.88.02.1 2.47.85-.02-.07-2.47zm1.12-.03l-.88.02.07 2.47.85-.02-.04-2.47zm1.12-.03l-.88.03.03 2.47.86-.03-.01-2.47zm-4.18-4.05l-.26.01.17 3.4h.25l-.16-3.41zm.59-.01l-.27.01.15 3.4.26-.01-.14-3.4zm.58-.01h-.26l.13 3.4h.25l-.12-3.4zm.58-.02l-.26.01.11 3.4.25-.01-.1-3.4zm.59-.02l-.27.01.09 3.4h.26l-.08-3.41zm.58-.01l-.26.01.07 3.4.25-.01-.06-3.4zm.59-.02l-.27.01.05 3.41.25-.01-.03-3.41zm.58-.01l-.27.01.03 3.4h.26l-.02-3.41zm.58-.01h-.26v3.41h.26V8.94zm.59 0h-.27l-.01 3.41h.25l.03-3.41zm5.53 7.6l-.49-.04-.16 2.46.47.05.18-2.47zm1.19.12l-.49-.05-.19 2.46.47.05.21-2.46zm1.19.11l-.48-.05-.23 2.46.47.05.24-2.46zm1.2.11l-.49-.05-.26 2.46.47.05.28-2.46zm-2.99-3.51l-.87-.09-.16 2.47.85.08.18-2.46zm1.12.1l-.88-.08-.19 2.46.85.08.22-2.46zm1.11.1l-.87-.08-.22 2.46.85.08.24-2.46zm1.11.11l-.87-.08-.25 2.46.85.08.27-2.46zm-3.68-4.52l-.26-.02-.22 3.4.25.02.23-3.4zm.58.06l-.26-.03-.24 3.4.25.02.25-3.39zm.58.05l-.26-.02-.26 3.39.25.03.27-3.4zm.59.06l-.27-.03-.28 3.4.25.02.3-3.39zm.58.05l-.27-.02-.3 3.39.26.02.31-3.39zm.58.06l-.26-.03-.33 3.39.26.02.33-3.38zm.58.05l-.26-.03-.35 3.39.26.03.35-3.39zm.58.05l-.26-.02-.36 3.39.25.02.37-3.39zm.58.06l-.26-.03-.38 3.39.25.02.39-3.38zm.59.06l-.27-.03-.4 3.38.25.03.42-3.38zm4.61 8.18l-.48-.1-.44 2.43.46.1.46-2.43zm1.17.25l-.48-.1-.47 2.43.46.1.49-2.43zm1.17.25l-.47-.1-.52 2.42.47.1.52-2.42zm1.17.25l-.47-.1-.55 2.41.47.1.55-2.41zM121 14.76l-.86-.18-.44 2.43.83.17.47-2.42zm1.09.23l-.85-.18-.48 2.42.84.18.49-2.42zm1.1.23l-.86-.18-.5 2.42.83.18.53-2.42zm1.09.24l-.86-.18-.53 2.41.83.18.56-2.41zm-3.13-4.92l-.26-.05-.61 3.35.25.05.62-3.35zm.57.13l-.26-.06-.63 3.35.25.05.64-3.34zm.57.12l-.26-.06-.65 3.34.25.06.66-3.34zm.57.12l-.25-.05-.68 3.33.25.05.68-3.33zm.58.12l-.26-.05-.7 3.33.25.05.71-3.33zm.57.12l-.26-.05-.72 3.33.25.05.73-3.33zm.57.13l-.26-.06-.74 3.32.25.06.75-3.32zm.57.12l-.26-.06-.75 3.32.25.06.76-3.32zm.57.12l-.25-.05-.78 3.31.25.05.78-3.31zm.58.12l-.26-.05-.8 3.31.25.05.81-3.31zm3.62 8.68l-.46-.16-.73 2.36.45.16.74-2.36zm1.13.38l-.46-.15-.76 2.35.45.15.77-2.35zm1.14.39l-.46-.16-.79 2.34.44.16.81-2.34zm1.13.38l-.46-.15-.82 2.33.45.15.83-2.33zm-2.08-4.11l-.83-.28-.73 2.36.81.28.75-2.36zm1.05.36l-.83-.28-.75 2.36.81.27.77-2.35zm1.06.36l-.83-.28-.78 2.34.81.28.8-2.34zm1.06.36l-.83-.28-.81 2.34.8.27.84-2.33zm-2.53-5.24l-.25-.09-1 3.26.24.08 1.01-3.25zm.55.18l-.25-.08-1.02 3.25.24.08 1.03-3.25zm.55.19l-.25-.08-1.04 3.24.24.08 1.05-3.24zm.56.19l-.25-.08-1.06 3.23.24.08 1.07-3.23zm.55.19l-.25-.09-1.08 3.23.24.08 1.09-3.22zm.56.19l-.25-.09-1.11 3.22.24.09 1.12-3.22zm.55.18l-.25-.08-1.12 3.21.24.09 1.13-3.22zm.55.19l-.25-.08-1.14 3.21.24.08 1.15-3.21zm.56.19l-.25-.08-1.17 3.2.25.08 1.17-3.2zm.55.19l-.25-.08-1.18 3.19.24.08 1.19-3.19zm2.58 9.04l-.44-.21-1 2.26.43.2 1.01-2.25zm1.08.52l-.44-.22-1.03 2.25.43.21 1.04-2.24zm1.08.51l-.44-.21-1.06 2.23.43.21 1.07-2.23zm1.08.52l-.44-.21-1.09 2.21.43.21 1.1-2.21zm-1.59-4.33l-.79-.38-1 2.26.77.37 1.02-2.25zm1.01.48l-.79-.38-1.03 2.25.78.37 1.04-2.24zm1.01.48l-.79-.38-1.05 2.24.77.37 1.07-2.23zm1.01.48l-.79-.37-1.08 2.22.77.37 1.1-2.22zm-1.9-5.5l-.24-.12-1.38 3.12.23.11 1.39-3.11zm.53.25l-.24-.11-1.4 3.1.23.11 1.41-3.1zm.52.25l-.24-.11-1.41 3.09.23.11 1.42-3.09zm.53.25l-.24-.11-1.43 3.09.23.11 1.44-3.09zm.53.25l-.24-.11-1.45 3.08.23.11 1.46-3.08zm.53.25l-.24-.11-1.47 3.07.23.11 1.48-3.07zm.52.26l-.23-.12-1.49 3.06.23.11 1.49-3.05zm.53.25l-.24-.12-1.51 3.06.24.11 1.51-3.05zm.53.25l-.24-.11-1.53 3.04.23.11 1.54-3.04zm.53.25l-.24-.11-1.55 3.03.23.11 1.56-3.03zm1.51 9.28l-.42-.26-1.25 2.13.4.25 1.27-2.12zm1.01.64l-.41-.26-1.29 2.11.4.25 1.3-2.1zm1.01.64l-.41-.26-1.31 2.09.4.25 1.32-2.08zm1.02.63l-.42-.26-1.34 2.08.4.25 1.36-2.07zm-1.08-4.48l-.74-.46-1.26 2.13.72.45 1.28-2.12zm.95.6l-.75-.47-1.28 2.11.73.46 1.3-2.1zm.94.59l-.74-.46-1.31 2.09.73.46 1.32-2.09zm.95.6l-.74-.47-1.34 2.08.73.46 1.35-2.07zm-1.25-5.69l-.22-.14-1.73 2.93.21.14 1.74-2.93zm.5.31l-.23-.14-1.74 2.92.21.14 1.76-2.92zm.49.31l-.22-.14-1.77 2.91.22.14 1.77-2.91zm.5.31l-.23-.14-1.78 2.9.21.14 1.8-2.9zm.49.31l-.22-.14-1.8 2.89.21.14 1.81-2.89zm.49.31l-.22-.14-1.82 2.88.22.14 1.82-2.88zm.5.31l-.22-.14-1.84 2.87.22.14 1.84-2.87zm.49.32l-.22-.14-1.85 2.85.21.14 1.86-2.85zm.5.31l-.23-.14-1.87 2.84.22.14 1.88-2.84zm.49.31l-.22-.14-1.89 2.83.22.14 1.89-2.83zm.42 9.39l-.38-.31-1.49 1.97.37.3 1.5-1.96zm.93.75l-.38-.3-1.52 1.94.37.3 1.53-1.94zm.94.75l-.38-.3-1.55 1.92.37.3 1.56-1.92zm.93.75l-.38-.3-1.57 1.9.37.3 1.58-1.9zm-.55-4.57l-.68-.55-1.5 1.97.67.53 1.51-1.95zm.87.7l-.68-.55-1.52 1.95.67.53 1.53-1.93zm.87.7l-.68-.55-1.54 1.93.66.54 1.56-1.92zm.87.7l-.68-.55-1.57 1.91.67.54 1.58-1.9zm-.58-5.79l-.2-.17-2.06 2.71.2.16 2.06-2.7zm.46.36l-.21-.16-2.07 2.69.2.16 2.08-2.69zm.45.37l-.2-.17-2.09 2.69.2.16 2.09-2.68zm.46.36l-.21-.16-2.1 2.67.2.16 2.11-2.67zm.45.37l-.2-.17-2.12 2.67.19.15L163 29.8zm.46.36l-.21-.16-2.14 2.65.2.16 2.15-2.65zm.45.37l-.2-.16-2.16 2.63.2.16 2.16-2.63zm.46.37l-.21-.17-2.17 2.62.2.16 2.18-2.61zm.45.37l-.2-.17-2.19 2.61.2.16 2.19-2.6zm.46.36l-.21-.16-2.2 2.59.2.16 2.21-2.59zm-.67 9.38l-.34-.35-1.71 1.78.33.34 1.72-1.77zm.84.85l-.35-.35-1.73 1.76.33.34 1.75-1.75zm.84.86l-.35-.35-1.75 1.73.33.34 1.77-1.72zm.84.85l-.35-.35-1.78 1.71.34.34 1.79-1.7zm-.02-4.61l-.61-.62-1.72 1.78.6.61 1.73-1.77zm.78.8l-.61-.63-1.73 1.76.6.61 1.74-1.74zm.79.79l-.62-.62-1.75 1.74.6.61 1.77-1.73zm.78.8l-.61-.62-1.78 1.72.6.6 1.79-1.7zm.1-5.82l-.19-.19-2.36 2.46.18.18 2.37-2.45zm.41.41l-.19-.19-2.37 2.45.18.18 2.38-2.44zm.41.42l-.19-.19-2.39 2.43.18.18 2.4-2.42zm.41.42l-.19-.19-2.4 2.41.18.18 2.41-2.4zm.41.41l-.19-.19-2.42 2.4.18.18 2.43-2.39zm.41.42l-.19-.19-2.43 2.38.18.18 2.44-2.37zm.41.42l-.19-.19-2.45 2.36.18.19 2.46-2.36zm.41.41l-.19-.19-2.46 2.36.18.18 2.47-2.35zm.41.42l-.19-.19-2.48 2.34.18.18 2.49-2.33zm.4.42l-.18-.19-2.49 2.32.18.18 2.49-2.31zm-1.74 9.23l-.3-.38-1.91 1.57.29.37 1.92-1.56zm.73.95l-.3-.39-1.93 1.55.29.37 1.94-1.53zm.74.94l-.3-.38-1.95 1.52.29.37 1.96-1.51zm.73.95l-.3-.39-1.97 1.5.29.37 1.98-1.48zm.52-4.58l-.54-.69-1.91 1.57.53.67 1.92-1.55zm.68.88l-.53-.69-1.93 1.55.53.67 1.93-1.53zm.69.88l-.54-.69-1.94 1.53.52.67 1.96-1.51zm.69.89l-.54-.7-1.96 1.51.52.67 1.98-1.48zm.76-5.78l-.16-.21-2.62 2.17.15.2 2.63-2.16zm.36.46l-.16-.21-2.64 2.16.16.2 2.64-2.15zm.36.46l-.16-.21-2.65 2.14.15.2 2.66-2.13zm.36.46l-.16-.2-2.67 2.12.16.2 2.67-2.12zm.36.47l-.16-.21-2.68 2.1.16.2 2.68-2.09zm.36.46l-.16-.21-2.69 2.08.15.2 2.7-2.07zm.36.46l-.16-.21-2.71 2.07.16.2 2.71-2.06zm.36.46l-.16-.21-2.72 2.05.16.2 2.72-2.04zm.36.46l-.17-.21-2.73 2.04.16.2 2.74-2.03zm.35.46l-.16-.21-2.74 2.02.16.2 2.74-2.01zm-2.8 8.97l-.25-.41-2.08 1.34.24.4 2.09-1.33zm.62 1.03l-.25-.42-2.1 1.31.25.41 2.1-1.3zm.62 1.02l-.25-.41-2.12 1.28.25.41 2.12-1.28zm.62 1.03l-.25-.42-2.13 1.25.24.41 2.14-1.24zm1.04-4.49l-.45-.75-2.08 1.34.44.73 2.09-1.32zm.58.95l-.45-.75-2.09 1.32.44.73 2.1-1.3zm.58.96l-.45-.75-2.11 1.29.44.73 2.12-1.27zm.58.96l-.45-.75-2.13 1.26.45.73 2.13-1.24zm1.43-5.65l-.13-.23-2.86 1.85.13.22 2.86-1.84zm.31.5l-.14-.23-2.87 1.83.13.22 2.88-1.82zm.3.5l-.14-.23-2.88 1.82.13.21 2.89-1.8zm.3.5l-.13-.23-2.9 1.8.14.22 2.89-1.79zm.31.5l-.14-.23-2.9 1.78.13.22 2.91-1.77zm.3.5l-.14-.23-2.91 1.76.13.22 2.92-1.75zm.3.5l-.13-.23-2.93 1.74.13.22 2.93-1.73zm.3.5l-.13-.23-2.94 1.73.13.21 2.94-1.71zm.31.5l-.14-.23-2.95 1.71.14.22 2.95-1.7zm.3.5l-.14-.23-2.95 1.69.13.22 2.96-1.68zm-3.83 8.58l-.2-.44-2.22 1.09.2.43 2.22-1.08zm.5 1.09l-.21-.44-2.23 1.06.2.43 2.24-1.05zm.49 1.09l-.2-.44-2.25 1.03.2.43 2.25-1.02zm.5 1.09l-.2-.44-2.26 1 .19.43 2.27-.99zm1.56-4.33l-.36-.8-2.22 1.09.35.78 2.23-1.07zm.47 1.01l-.37-.79-2.23 1.06.35.77 2.25-1.04zm.46 1.02l-.37-.8-2.24 1.04.35.77 2.26-1.01zm.46 1.02l-.36-.8-2.26 1.01.36.77 2.26-.98zm2.08-5.44l-.11-.25-3.05 1.51.1.23 3.06-1.49zm.25.53l-.11-.24-3.07 1.48.11.23 3.07-1.47zm.24.53l-.11-.24-3.07 1.46.1.24 3.08-1.46zm.24.53l-.11-.24L186.5 65l.11.23 3.08-1.44zm.25.53l-.12-.24-3.09 1.43.11.23 3.1-1.42zm.24.53l-.11-.24-3.1 1.41.1.23 3.11-1.4zm.24.54l-.11-.24-3.11 1.38.11.24 3.11-1.38zm.24.53l-.11-.24-3.11 1.37.1.23 3.12-1.36zm.25.53l-.12-.24-3.12 1.35.11.23 3.13-1.34zm.24.53l-.11-.24-3.14 1.33.11.24 3.14-1.33zm-4.81 8.08l-.15-.46-2.33.82.14.45 2.34-.81zm.36 1.14l-.14-.46-2.35.79.15.45 2.34-.78zm.37 1.14l-.15-.46-2.35.76.14.44 2.36-.74zm.37 1.14l-.15-.46-2.37.72.15.45 2.37-.71zm2.05-4.12l-.27-.84-2.32.83.26.81 2.33-.8zm.35 1.06l-.27-.83-2.34.79.26.81 2.35-.77zm.34 1.07l-.27-.84-2.35.77.26.81 2.36-.74zm.34 1.06l-.27-.84-2.36.74.26.81 2.37-.71zm2.7-5.16l-.08-.25-3.21 1.13.08.25 3.21-1.13zm.18.56l-.08-.26-3.22 1.12.08.24 3.22-1.1zm.18.55l-.08-.25-3.22 1.1.07.24 3.23-1.09zm.18.56l-.08-.25-3.23 1.07.08.25 3.23-1.07zm.18.55l-.08-.25-3.24 1.06.08.24 3.24-1.05zm.18.56l-.08-.25-3.25 1.03.08.25 3.25-1.03zm.17.56l-.07-.25-3.26 1.01.08.24 3.25-1zm.18.55l-.08-.25-3.25 1 .07.24 3.26-.99zm.18.56l-.08-.25-3.26.97.08.25 3.26-.97zm.18.56l-.08-.25-3.27.95.08.24 3.27-.94zm-5.72 7.46l-.1-.48-2.41.54.09.47 2.42-.53zm.23 1.17l-.1-.48-2.41.51.09.47 2.42-.5zm.23 1.18l-.1-.48-2.42.48.09.46 2.43-.46zm.23 1.17l-.1-.48-2.43.45.09.46 2.44-.43zm2.52-3.85l-.16-.86-2.41.54.16.84 2.41-.52zm.22 1.09l-.17-.86-2.42.52.17.84 2.42-.5zm.21 1.1l-.17-.86-2.42.49.16.83 2.43-.46zm.22 1.1l-.17-.86-2.43.45.16.84 2.44-.43zm3.29-4.81l-.05-.26-3.33.75.05.25 3.33-.74zm.11.57l-.05-.26-3.33.73.05.26 3.33-.73zm.11.58l-.05-.26-3.33.71.05.25 3.33-.7zm.11.57l-.05-.26-3.33.69.05.25 3.33-.68zm.12.57l-.05-.25-3.34.66.05.25 3.34-.66zm.11.58l-.05-.26-3.34.65.04.25 3.35-.64zm.11.57l-.05-.26-3.35.63.05.25 3.35-.62zm.11.58l-.05-.26-3.35.6.05.25 3.35-.59zm.12.57l-.06-.26-3.35.58.05.26 3.36-.58zm.11.57l-.05-.26-3.36.57.05.25 3.36-.56zm-6.56 6.74l-.03-.49-2.46.27.03.47 2.46-.25zm.1 1.2l-.04-.49-2.46.23.03.47 2.47-.21zm.09 1.19l-.04-.49-2.46.2.03.47 2.47-.18zm.09 1.2l-.04-.49-2.46.16.03.47 2.47-.14zm2.96-3.54l-.07-.87-2.46.26.07.85 2.46-.24zm.08 1.12l-.07-.88-2.46.23.07.85 2.46-.2zm.09 1.11l-.07-.88-2.46.21.06.85 2.47-.18zm.08 1.11l-.06-.87-2.47.17.07.85 2.46-.15zm3.83-4.39l-.02-.26-3.39.36.02.25 3.39-.35zm.04.58l-.02-.26-3.38.34.02.25 3.38-.33zm.05.59l-.02-.27-3.39.32.02.25 3.39-.3zm.04.58l-.01-.27-3.4.3.02.26 3.39-.29zm.05.58l-.02-.26-3.39.27.01.26 3.4-.27zm.04.58l-.02-.26-3.39.26.02.25 3.39-.25zm.05.59l-.02-.27-3.4.24.02.25 3.4-.22zm.04.58l-.02-.26-3.39.21.01.25 3.4-.2zm.05.58l-.02-.26-3.4.19.02.25 3.4-.18zm.04.59l-.02-.27-3.4.17.02.26 3.4-.16z"/><path class="cls-2" d="M164.1 26.72l-1.47-.94c-.5-.31-1-.59-1.52-.89-1-.57-2-1.17-3-1.73-2.09-1.06-4.15-2.17-6.3-3.08s-4.3-1.81-6.47-2.68c-1.1-.39-2.22-.75-3.32-1.13-.56-.18-1.11-.38-1.67-.55l-1.68-.48a97.1 97.1 0 0 0-13.7-2.93l-3.47-.44c-1.17-.12-2.33-.18-3.5-.28l-1.75-.13c-.58 0-1.16 0-1.75-.05l-3.5-.09V9.15l3.58.09h1.79l1.78.14c1.19.09 2.38.16 3.57.29l3.55.44a98.56 98.56 0 0 1 14 3l1.72.49c.58.17 1.14.37 1.7.56 1.13.39 2.27.76 3.39 1.16 2.22.88 4.47 1.7 6.62 2.73s4.31 2.07 6.44 3.15c1 .57 2.07 1.18 3.11 1.77.51.3 1 .59 1.55.9l1.5 1zm18.45 157c.93-.85 1.77-1.79 2.65-2.7l1.3-1.37c.44-.45.84-.94 1.26-1.42.82-.95 1.66-1.89 2.46-2.87l2.33-3a107.51 107.51 0 0 0 8.23-12.69 110.16 110.16 0 0 0 6.27-13.77 111.2 111.2 0 0 0 4.14-14.55A102.31 102.31 0 0 0 168 25.71a110.7 110.7 0 0 0-13.14-7.49A102 102 0 0 0 126 9.45a112 112 0 0 0-15-1.1v.33a112.94 112.94 0 0 1 15 1.11 100.77 100.77 0 0 1 28.77 8.74A109.85 109.85 0 0 1 167.85 26a102 102 0 0 1 43 105.33 112.51 112.51 0 0 1-4.14 14.5 111.44 111.44 0 0 1-6.24 13.72 107.13 107.13 0 0 1-8.2 12.64l-2.33 3c-.8 1-1.64 1.91-2.46 2.86-.41.47-.8 1-1.24 1.42l-1.3 1.36c-.88.9-1.71 1.84-2.64 2.69zM26 50.33a105.45 105.45 0 0 0-10.87 19.41 102.19 102.19 0 0 0-6.47 21.31 104.18 104.18 0 0 0 54.6 112.22 104.22 104.22 0 0 0 146.19-58.39l-.32-.11a103.89 103.89 0 0 1-199-9.56A104.93 104.93 0 0 1 9 91.11a101.71 101.71 0 0 1 6.45-21.24 105.27 105.27 0 0 1 10.86-19.34zM110.29 7.7l-4.29.11c-1.44.08-2.88.21-4.31.31s-2.87.32-4.3.49l-2.14.28-2.13.38a99.55 99.55 0 0 0-16.71 4.4 104.44 104.44 0 0 0-15.71 7.17l-1.88 1.08c-.62.36-1.25.71-1.85 1.11l-3.67 2.34-3.52 2.51c-1.16.85-2.27 1.77-3.41 2.65a105.11 105.11 0 0 0-12.48 11.94l-1.41 1.63c-.47.55-1 1.08-1.39 1.66l-2.67 3.4-2.5 3.53c-.82 1.18-1.57 2.42-2.35 3.62a101.85 101.85 0 0 0-13 31.87 103.26 103.26 0 0 0 7.84 67.43 102.59 102.59 0 0 0 64.28 54c1.39.39 2.77.81 4.18 1.1l2.11.49c.7.16 1.4.33 2.12.45l4.25.75 4.29.55a110.56 110.56 0 0 0 17.26.47 103.08 103.08 0 0 0 91.27-68.65c.45-1.37.95-2.72 1.36-4.11l1.18-4.16c.34-1.4.65-2.81 1-4.21l.24-1 .19-1.07.38-2.13a106.6 106.6 0 0 0 1.48-17.2 103 103 0 0 0-5.68-33.95 104.59 104.59 0 0 0-7-15.8 103.19 103.19 0 0 0-9.58-14.37l-.13.11a101.89 101.89 0 0 1 9.56 14.34 105.1 105.1 0 0 1 7 15.77 103.23 103.23 0 0 1 5.68 33.9 106.47 106.47 0 0 1-1.54 17.11l-.38 2.12-.19 1.06c-.07.36-.16.7-.23 1.06-.33 1.4-.64 2.8-1 4.2l-1.18 4.16c-.41 1.37-.91 2.73-1.36 4.09a102.9 102.9 0 0 1-74 66.12 103.63 103.63 0 0 1-17.08 2.42 110.18 110.18 0 0 1-17.23-.47l-4.28-.54-4.25-.76c-.71-.11-1.41-.29-2.11-.44l-2.11-.49c-1.41-.29-2.78-.71-4.17-1.1a102.9 102.9 0 0 1-64.18-53.91 103.06 103.06 0 0 1-7.83-67.32 101.67 101.67 0 0 1 13-31.82c.78-1.2 1.53-2.44 2.35-3.62l2.5-3.52 2.66-3.4c.43-.57.92-1.1 1.38-1.65L34 42.58a103.89 103.89 0 0 1 12.47-11.92c1.14-.88 2.25-1.8 3.41-2.65l3.52-2.5 3.6-2.34c.59-.4 1.23-.75 1.85-1.11l1.9-1.06a103.72 103.72 0 0 1 15.69-7.16 99 99 0 0 1 16.68-4.4l2.12-.38 2.14-.27c1.43-.17 2.85-.41 4.29-.49s2.87-.24 4.33-.3l4.31-.11zm82 39.44a105.75 105.75 0 0 1 9.51 14.46 102.91 102.91 0 0 1 6.9 15.87 100.05 100.05 0 0 1 4.18 16.79 109.54 109.54 0 0 1 1.29 17.25l-.11 4.33-.32 4.31c0 .36-.05.72-.09 1.08l-.14 1.08-.27 2.14c-.1.72-.17 1.44-.29 2.15l-.38 2.13a99.83 99.83 0 0 1-4.42 16.73 105.41 105.41 0 0 1-7.21 15.73 100.64 100.64 0 0 1-9.72 14.31 106.26 106.26 0 0 1-12 12.48 100.57 100.57 0 0 1-13.88 10.33 105.93 105.93 0 0 1-15.42 7.85l-2 .79c-.67.26-1.33.54-2 .76l-4.11 1.39-4.16 1.19c-.69.21-1.4.36-2.1.53l-2.11.48a102.94 102.94 0 0 1-95.55-28 104.56 104.56 0 0 1-19.88-28.18 102.89 102.89 0 0 1-6.1-16.19l-.59-2.09c-.2-.69-.34-1.4-.51-2.1l-.48-2.11-.33-1.1-.19-1.06c-.25-1.42-.52-2.84-.76-4.27l-.54-4.29a108.56 108.56 0 0 1-.44-17.29l.33-4.32.54-4.3.14-1.07.19-1.07.38-2.13c.13-.71.24-1.42.4-2.13l.48-2.11A100.35 100.35 0 0 1 15.8 71a103.72 103.72 0 0 1 31-41A102.34 102.34 0 0 1 77 13.3l2-.7c.69-.23 1.37-.47 2.07-.66l4.17-1.18 4.22-1c.7-.18 1.41-.29 2.12-.42L93.72 9A108.35 108.35 0 0 1 111 7.51v-.16a108.71 108.71 0 0 0-17.31 1.47l-2.13.38c-.71.13-1.43.24-2.13.42l-4.23 1-4.2 1.16c-.7.19-1.38.43-2.07.66l-2 .7a103.58 103.58 0 0 0-53.29 42.43 105.72 105.72 0 0 0-8 15.37 102 102 0 0 0-5.27 16.51l-.49 2.12c-.15.7-.26 1.42-.39 2.13l-.38 2.14-.19 1.07L8.78 96l-.54 4.3-.33 4.33a111.19 111.19 0 0 0 .44 17.31l.55 4.31c.23 1.42.5 2.85.75 4.27l.2 1.07.24 1.05.49 2.12c.17.7.31 1.41.51 2.11l.59 2.08a102.89 102.89 0 0 0 6.11 16.22 103.7 103.7 0 0 0 48 48.35 103.62 103.62 0 0 0 67.63 8l2.12-.49c.7-.17 1.41-.32 2.1-.53l4.17-1.19 4.11-1.39c.69-.22 1.36-.5 2-.76l2-.8a104.83 104.83 0 0 0 15.45-7.86 101 101 0 0 0 13.9-10.34 106.57 106.57 0 0 0 12-12.5 100.17 100.17 0 0 0 9.73-14.39 104.68 104.68 0 0 0 7.22-15.75 100.22 100.22 0 0 0 4.44-16.76l.38-2.13c.12-.72.19-1.44.29-2.15l.27-2.16.13-1.07c0-.36.06-.72.09-1.08l.33-4.33.1-4.33A108.73 108.73 0 0 0 213 94.23a101.65 101.65 0 0 0-4.19-16.82 103.6 103.6 0 0 0-6.91-15.89A105.41 105.41 0 0 0 192.38 47zm20.11 58.06l-.27-3.57c-.05-.6-.07-1.19-.16-1.78l-.22-1.78c-.17-1.18-.28-2.37-.49-3.55l-.68-3.52-.16-.88-.2-.87-.4-1.74c-.28-1.17-.52-2.34-.87-3.48l-1-3.44c-.37-1.14-.76-2.27-1.14-3.4-.2-.56-.38-1.13-.59-1.69l-.66-1.67c-.45-1.1-.85-2.23-1.34-3.32l-1.48-3.26c-.23-.55-.51-1.08-.78-1.61l-.8-1.64-.82-1.6c-.27-.53-.59-1-.88-1.55-.6-1-1.18-2.08-1.8-3.1-1.29-2-2.54-4-4-6L191.89 53c1.39 1.88 2.61 3.88 3.88 5.84.6 1 1.17 2 1.76 3 .29.51.59 1 .86 1.53l.8 1.55.8 1.56c.27.52.54 1 .77 1.58l1.45 3.19c.48 1.06.87 2.17 1.31 3.25l.65 1.63c.2.55.38 1.1.57 1.66.37 1.1.76 2.21 1.12 3.32l1 3.37c.34 1.12.58 2.26.84 3.4l.4 1.71.2.85.15.86.62 3.45c.21 1.15.31 2.32.47 3.47l.23 1.74c.08.58.1 1.17.15 1.75l.27 3.49zm-38.22 84.88l1.4-1.11 1.36-1.17c.9-.78 1.82-1.55 2.69-2.36l2.59-2.47.65-.62.62-.65 1.23-1.29c.83-.87 1.66-1.72 2.42-2.64l2.34-2.71c1.47-1.89 3-3.73 4.33-5.71s2.67-3.95 4-6c.61-1 1.2-2.07 1.8-3.1.29-.52.6-1 .88-1.56l.81-1.6.82-1.59c.27-.53.55-1.06.78-1.61l1.47-3.26c.5-1.09.9-2.22 1.35-3.33l.65-1.66c.21-.56.39-1.13.59-1.7l-2.05-.71c-.2.55-.37 1.11-.57 1.66l-.65 1.63c-.44 1.08-.82 2.19-1.31 3.25l-1.53 3.23c-.23.54-.5 1.06-.77 1.58l-.8 1.56-.79 1.56c-.27.52-.58 1-.87 1.53-.58 1-1.15 2-1.75 3-1.27 2-2.48 4-3.88 5.84s-2.8 3.73-4.23 5.58l-2.29 2.65c-.75.9-1.56 1.74-2.37 2.59l-1.21 1.26-.6.64-.64.6-2.53 2.42c-.86.8-1.76 1.54-2.64 2.31l-1.33 1.15-1.37 1.08zm-158.93-46c.2.57.38 1.14.59 1.7l.66 1.66c.45 1.11.85 2.23 1.34 3.32l1.43 3.24c.23.55.51 1.08.78 1.61l.82 1.6.82 1.59c.28.53.59 1 .88 1.56.6 1 1.18 2.07 1.8 3.1 1.29 2 2.54 4 4 6s2.87 3.81 4.34 5.7l2.29 2.7c.77.91 1.6 1.77 2.43 2.63l1.23 1.3.62.64.65.62 2.59 2.47c.88.81 1.8 1.57 2.7 2.36l1.36 1.17 1.4 1.1 1.35-1.7-1.33-1.08-1.32-1.14c-.88-.77-1.78-1.52-2.64-2.31l-2.54-2.42-.64-.6-.6-.63L39 179c-.81-.85-1.62-1.68-2.37-2.58l-2.29-2.65c-1.44-1.85-2.93-3.65-4.25-5.58s-2.61-3.87-3.88-5.83c-.6-1-1.17-2-1.76-3-.29-.51-.59-1-.86-1.52l-.8-1.56-.8-1.56c-.27-.52-.54-1-.77-1.57l-1.45-3.2c-.48-1.06-.87-2.16-1.31-3.25l-.64-1.7c-.2-.54-.38-1.1-.57-1.65zm13.02-92.16c-1.42 1.92-2.67 4-4 6-.61 1-1.2 2.06-1.8 3.1-.29.52-.6 1-.88 1.56l-.81 1.59-.78 1.56c-.27.53-.54 1.06-.78 1.61l-1.47 3.27c-.5 1.09-.9 2.21-1.35 3.32l-.65 1.67c-.21.55-.39 1.13-.58 1.69-.38 1.13-.78 2.26-1.14 3.4l-1 3.44c-.35 1.15-.59 2.32-.86 3.48l-.4 1.74-.2.88-.16.88-.63 3.52c-.21 1.18-.32 2.37-.48 3.55l-.21 1.82c-.08.59-.1 1.19-.15 1.78l-.27 3.57 2.17.12.26-3.5c.05-.58.07-1.17.15-1.74l.22-1.74c.16-1.16.27-2.33.47-3.48l.62-3.45.15-.86.2-.85.39-1.71c.27-1.14.5-2.28.85-3.4l1-3.37c.36-1.12.74-2.22 1.11-3.33.2-.55.37-1.11.57-1.65l.65-1.64c.44-1.08.82-2.18 1.31-3.24l1.44-3.2c.23-.54.5-1.06.77-1.57l.8-1.57.79-1.56c.27-.51.58-1 .87-1.52.58-1 1.15-2 1.75-3 1.27-2 2.48-4 3.88-5.83zM111 9.15l-3.58.1c-.6 0-1.19 0-1.79.05l-1.79.14c-1.19.09-2.38.16-3.56.29l-3.56.45a98.16 98.16 0 0 0-14 3l-1.72.5c-.57.17-1.14.38-1.7.57-1.13.38-2.27.75-3.39 1.16-2.22.88-4.46 1.7-6.62 2.74s-4.3 2.07-6.43 3.16c-1 .57-2.07 1.18-3.11 1.77-.51.3-1 .59-1.54.9l-1.51 1 1.16 1.83 1.48-1c.49-.3 1-.58 1.51-.88 1-.58 2-1.18 3-1.74C66 22.15 68 21 70.15 20.12s4.31-1.81 6.48-2.68c1.1-.39 2.21-.75 3.32-1.13.55-.19 1.1-.39 1.66-.56l1.68-.48A95.74 95.74 0 0 1 97 12.33l3.47-.45c1.16-.12 2.33-.18 3.5-.28l1.74-.13 1.76-.06 3.5-.09zm-28.16 199a98.53 98.53 0 0 0 14 3l3.55.45c1.19.12 2.38.19 3.57.29l1.78.13c.6 0 1.2 0 1.79.05l3.58.09 3.58-.09c.6 0 1.2 0 1.79-.06l1.79-.13c1.19-.1 2.38-.17 3.56-.29l3.56-.46a98.16 98.16 0 0 0 14-3l-.6-2.08A97.16 97.16 0 0 1 125 209l-3.47.44c-1.16.12-2.33.19-3.5.28l-1.74.14c-.59 0-1.17 0-1.75.05l-3.51.09-3.5-.08c-.59 0-1.17 0-1.75-.06l-1.75-.13c-1.17-.09-2.33-.16-3.49-.28L97.1 209a95.71 95.71 0 0 1-13.7-3z" transform="translate(-6.83 -7.35)"/><path class="cls-2" d="M111.81 56.52a55.26 55.26 0 1 0 55.3 55.26 55.33 55.33 0 0 0-55.3-55.26zm-41.72 55.26A40 40 0 0 1 82.58 83v29.45l.08 1.61a29.8 29.8 0 0 0 59.53-2.16 30.66 30.66 0 0 0-9.06-21.65A29.23 29.23 0 0 0 112.42 82a7.51 7.51 0 0 0-7.42 7c-.13 3.14 1.94 6.81 7.21 7.51 8.92.33 15.65 7 15.65 15.45a15.48 15.48 0 0 1-30.95.29V73a40.26 40.26 0 0 1 15-2.93 41.72 41.72 0 1 1-41.72 41.72z" transform="translate(-6.83 -7.35)"/><path class="cls-2" d="M111.18 54.29a55.26 55.26 0 1 0 55.3 55.26 55.33 55.33 0 0 0-55.3-55.26zm-41.72 55.26A40.06 40.06 0 0 1 82 80.8v29.45l.08 1.6a29.8 29.8 0 0 0 59.53-2.15 30.63 30.63 0 0 0-9.06-21.65 29.16 29.16 0 0 0-20.7-8.26 7.51 7.51 0 0 0-7.48 6.94c-.13 3.14 1.94 6.82 7.21 7.52 8.93.33 15.65 7 15.65 15.45a15.48 15.48 0 0 1-30.95.29V70.75a40.44 40.44 0 0 1 15-2.92 41.72 41.72 0 1 1-41.72 41.72z" transform="translate(-6.83 -7.35)"/><path class="cls-2" d="M179.79 141.33a74.6 74.6 0 0 0 5.73-28.33h2.59v-.37a77.27 77.27 0 0 0-3.3-22.38l-2.49.72A74 74 0 0 0 167 63.58l2-1.71A77.49 77.49 0 0 0 151.45 47l-1.37 2.22A74.33 74.33 0 0 0 121.41 39l.41-2.65a78.89 78.89 0 0 0-10.82-.78 77.09 77.09 0 0 0-12.14 1l.39 2.68A74 74 0 0 0 71.3 49.81l-1.43-2.36a77.45 77.45 0 0 0-17.43 15l2.09 1.85a73.83 73.83 0 0 0-14.18 25.39l-2.7-.91a77.26 77.26 0 0 0-3.77 22.73l2.85.08a74.51 74.51 0 0 0 5 28l-2.67 1a77 77 0 0 0 11.47 19.95l2.23-1.78q1.44 1.83 3 3.58a74.64 74.64 0 0 0 18.91 15.14L73.36 180A76.5 76.5 0 0 0 95 188.15l.56-2.74a74.82 74.82 0 0 0 28.49.53l.53 2.69a76.71 76.71 0 0 0 21.79-7.38l-1.28-2.37A73.92 73.92 0 0 0 160.88 168a74.78 74.78 0 0 0 7.33-7.59l2 1.65a76.94 76.94 0 0 0 12-19.73zM157.64 164a69.78 69.78 0 1 1 5.2-98.55 69.79 69.79 0 0 1-5.2 98.55z" transform="translate(-6.83 -7.35)"/></g></svg>