<svg xmlns="http://www.w3.org/2000/svg" xmlns:xlink="http://www.w3.org/1999/xlink" width="27" height="27" viewBox="0 0 27 27"><defs><path id="a" d="M684.01 750.84a2.652 2.652 0 0 1-.243.902 2 2 0 0 1-.485.642 2.49 2.49 0 0 1-.728.422c-.29.113-.594.196-.912.249a9.332 9.332 0 0 1-1.092.108v1.84h-1.157v-1.81c-.4 0-.705-.003-.916-.008v1.818h-1.156v-1.84l-.405-.003a25.6 25.6 0 0 0-.413-.004H675l.233-1.32h.833c.25 0 .395-.123.435-.368v-2.9h.12a.811.811 0 0 0-.12-.008v-2.07c-.065-.328-.287-.491-.668-.491H675v-1.184l1.592.007c.32 0 .563-.002.728-.007v-1.818h1.156v1.782c.41-.01.716-.014.916-.014v-1.768h1.156v1.818c.396.034.746.088 1.052.163.305.074.588.182.848.324.26.142.467.33.62.563.152.233.244.508.274.826.09.875-.238 1.496-.984 1.861.586.135 1.023.383 1.314.744.29.36.403.875.338 1.544zm-5.51-4.762v2.215l.259.003a8.713 8.713 0 0 0 .724-.014c.166-.007.303-.02.413-.04.11-.019.24-.045.387-.08.147-.033.269-.077.364-.133a2.08 2.08 0 0 0 .278-.194.697.697 0 0 0 .203-.278.966.966 0 0 0 .067-.368c0-.159-.031-.3-.094-.422a1.004 1.004 0 0 0-.229-.303c-.09-.08-.21-.147-.36-.202a2.61 2.61 0 0 0-.413-.12 4.265 4.265 0 0 0-.462-.057 4.52 4.52 0 0 0-.435-.018 72.237 72.237 0 0 1-.702.01zm3.228 4.545a.931.931 0 0 0-.112-.462 1.093 1.093 0 0 0-.278-.331 1.446 1.446 0 0 0-.432-.22 3.783 3.783 0 0 0-.492-.134 4.603 4.603 0 0 0-.555-.065 8.458 8.458 0 0 0-1.003-.014c-.198.005-.316.007-.356.007v2.439l.277.003a10.248 10.248 0 0 0 1.198-.036c.123-.012.265-.032.428-.061.163-.029.302-.062.417-.101a2.59 2.59 0 0 0 .357-.152 1.04 1.04 0 0 0 .296-.216 1.01 1.01 0 0 0 .184-.289.924.924 0 0 0 .071-.368z"/><path id="b" d="M679.5 735c7.456 0 13.5 6.044 13.5 13.5s-6.044 13.5-13.5 13.5-13.5-6.044-13.5-13.5 6.044-13.5 13.5-13.5z"/><mask id="d" width="2" height="2" x="-1" y="-1"><path fill="#fff" d="M675 743h9v12h-9z"/><use xlink:href="#a"/></mask><filter id="c" width="35.5" height="38.9" x="662" y="730" filterUnits="userSpaceOnUse"><feOffset dx=".5" dy=".9" in="SourceGraphic" result="FeOffset1072Out"/><feGaussianBlur in="FeOffset1072Out" result="FeGaussianBlur1073Out" stdDeviation="1.2 1.2"/></filter><clipPath id="e"><use fill="#fff" xlink:href="#b"/></clipPath></defs><g transform="translate(-666 -735)"><g filter="url(#c)"><use fill="none" stroke-opacity=".25" stroke-width="0" mask="url(&quot;#d&quot;)" xlink:href="#a"/><use fill-opacity=".25" xlink:href="#a"/></g><use fill="#fff" xlink:href="#a"/><use fill="#fff" xlink:href="#a"/></g><use fill="#fff" fill-opacity="0" stroke="#fff" stroke-miterlimit="50" stroke-width="4" clip-path="url(&quot;#e&quot;)" xlink:href="#b" transform="translate(-666 -735)"/></svg>