<svg id="Слой_1" xmlns="http://www.w3.org/2000/svg" viewBox="0 0 211.1 211.1"><style>.st0{fill:url(#SVGID_1_)}.st1{fill:url(#SVGID_2_)}.st2{fill:url(#SVGID_3_)}.st3{fill:url(#SVGID_4_)}.st4{fill:#4d4d4d}.st5{fill:url(#SVGID_5_)}.st6{fill:url(#SVGID_6_)}.st7{fill:url(#SVGID_7_)}.st8{fill:url(#SVGID_8_)}.st9{fill:url(#SVGID_9_)}</style><title>btc_chip</title><g id="Layer_1"><linearGradient id="SVGID_1_" gradientUnits="userSpaceOnUse" x1="-5.942" y1="-42.864" x2="97.513" y2="60.601" gradientTransform="scale(1 -1) rotate(9.009 803.615 335.983)"><stop offset="0" stop-color="#fff"/><stop offset="0" stop-color="#f7fdff"/><stop offset=".05" stop-color="#dbe3e6"/><stop offset=".15" stop-color="#94a1a8"/><stop offset=".15" stop-color="#929fa6"/><stop offset=".22" stop-color="#95a1a8"/><stop offset=".26" stop-color="#9da9b0"/><stop offset=".3" stop-color="#abb6bc"/><stop offset=".33" stop-color="#bfc9ce"/><stop offset=".36" stop-color="#d9e1e5"/><stop offset=".38" stop-color="#f7fdff"/><stop offset=".5" stop-color="#afb6bd"/><stop offset=".58" stop-color="#7e8791"/><stop offset=".63" stop-color="#6c7580"/><stop offset=".67" stop-color="#858e99"/><stop offset=".73" stop-color="#a2abb6"/><stop offset=".78" stop-color="#b4bdc8"/><stop offset=".82" stop-color="#bac3ce"/><stop offset="1" stop-color="#fff"/></linearGradient><path class="st0" d="M106.9 170.2c-35.6 0-64.5-28.9-64.5-64.5s28.9-64.5 64.5-64.5 64.5 28.9 64.5 64.5-28.9 64.5-64.5 64.5zm-.1-128.4c-35.3 0-64 28.7-64 64s28.7 64 64 64 64-28.7 64-64v-.1c0-35.3-28.7-63.9-64-63.9zm0 129.5c-1.5 0-2.9 0-4.4-.1l.2-2.7c1.4.1 2.8.1 4.2.1v2.7zm4.4-.1l-.2-2.7c1.4-.1 2.8-.2 4.2-.4l.3 2.6c-1.4.2-2.8.3-4.3.5zm-13.1-.5c-1.4-.2-2.9-.4-4.3-.7l.5-2.6c1.4.3 2.8.5 4.2.7l-.4 2.6zm21.8-.7l-.5-2.6c1.4-.3 2.8-.6 4.1-1l.7 2.6c-1.4.3-2.9.7-4.3 1zm-30.4-1c-1.4-.4-2.8-.8-4.2-1.3l.9-2.5c1.3.5 2.7.9 4 1.2l-.7 2.6zm38.8-1.3l-.9-2.5c1.3-.4 2.6-1 3.9-1.5l1 2.4c-1.2.6-2.6 1.1-4 1.6zm-47.1-1.6c-1.3-.6-2.7-1.2-4-1.9l1.2-2.4c1.2.6 2.5 1.2 3.8 1.8l-1 2.5zm55.2-1.9l-1.2-2.4c1.2-.6 2.5-1.3 3.7-2l1.4 2.3c-1.3.8-2.6 1.5-3.9 2.1zm-63-2.1c-1.2-.8-2.5-1.5-3.7-2.4l1.5-2.2c1.2.8 2.3 1.6 3.5 2.3l-1.3 2.3zm70.5-2.3l-1.5-2.2c1.1-.8 2.3-1.6 3.4-2.5l1.6 2.1c-1.1.9-2.3 1.8-3.5 2.6zm-77.7-2.7c-1.1-.9-2.3-1.9-3.3-2.8l1.8-2c1 .9 2.1 1.9 3.2 2.7l-1.7 2.1zm84.6-2.8l-1.8-2c1-.9 2.1-1.9 3-2.9l1.9 1.9c-1 1.1-2 2.1-3.1 3zm-91.1-3.1c-1-1-2-2.1-2.9-3.2l2-1.7c.9 1.1 1.8 2.1 2.8 3.1l-1.9 1.8zm97.2-3.1l-2-1.7c.9-1.1 1.8-2.2 2.6-3.3l2.1 1.6c-.8 1.1-1.8 2.3-2.7 3.4zm-102.8-3.5c-.9-1.2-1.7-2.4-2.5-3.6l2.2-1.4c.8 1.2 1.6 2.3 2.4 3.5l-2.1 1.5zm108-3.6l-2.2-1.4c.8-1.2 1.5-2.4 2.1-3.6l2.3 1.3c-.7 1.2-1.4 2.5-2.2 3.7zm-112.8-3.8c-.7-1.3-1.4-2.6-2-3.9l2.4-1.1c.6 1.3 1.2 2.5 1.9 3.8l-2.3 1.2zm-3.7-7.9c-.5-1.4-1-2.7-1.4-4.1l2.5-.8c.4 1.3.9 2.7 1.4 4l-2.5.9zm123.9-4.1l-2.6-.8c.4-1.3.8-2.7 1.1-4.1l2.6.6c-.3 1.5-.7 2.9-1.1 4.3zM43 120.9c-.3-1.4-.6-2.8-.9-4.3l2.6-.4c.2 1.4.5 2.8.8 4.1l-2.5.6zm128.5-4.2l-2.6-.4.6-4.2 2.6.3c-.1 1.4-.3 2.8-.6 4.3zm-129.9-4.4c-.2-1.4-.2-2.9-.3-4.4l2.7-.1c0 1.4.1 2.8.3 4.2l-2.7.3zm130.8-4.4l-2.7-.1v-4.3l2.7-.1v4.5zM44 103.6l-2.7-.1c0-1.5.2-2.9.3-4.4l2.7.3c-.2 1.4-.3 2.8-.3 4.2zm125.4-4.3c-.1-1.4-.3-2.8-.6-4.2l2.6-.4c.2 1.4.4 2.9.6 4.3l-2.6.3zM44.8 95.2l-2.6-.5c.2-1.4.5-2.9.9-4.3l2.6.6c-.4 1.5-.7 2.9-.9 4.2zM168 91c-.3-1.4-.7-2.7-1.1-4l2.6-.8 1.2 4.2-2.7.6zM46.8 87l-2.5-.8c.4-1.4.9-2.8 1.4-4.1l2.5 1c-.6 1.3-1 2.7-1.4 3.9zm118.8-4c-.5-1.3-1.1-2.6-1.6-3.9l2.4-1.1c.6 1.3 1.2 2.7 1.7 4l-2.5 1zM49.8 79.2l-2.4-1.1c.6-1.3 1.3-2.6 2-3.9l2.3 1.3c-.7 1.2-1.3 2.5-1.9 3.7zM162 75.4l-2.1-3.6 2.2-1.4c.8 1.2 1.5 2.5 2.2 3.8l-2.3 1.2zM53.8 71.8l-2.2-1.4c.8-1.2 1.6-2.4 2.5-3.6l2.2 1.6c-.9 1.1-1.7 2.3-2.5 3.4zm103.7-3.5c-.8-1.1-1.7-2.2-2.6-3.3l2-1.7c.9 1.1 1.9 2.3 2.7 3.4l-2.1 1.6zm-98.7-3.2l-2-1.7c.9-1.1 1.9-2.2 2.9-3.2l1.9 1.8c-.9 1-1.9 2-2.8 3.1zm5.9-6l-1.8-2c1.1-1 2.2-1.9 3.3-2.8l1.7 2.1c-1.1.8-2.2 1.7-3.2 2.7zm81.1-2.8c-1.1-.9-2.2-1.7-3.4-2.5l1.5-2.2c1.2.8 2.4 1.7 3.5 2.6l-1.6 2.1zm-74.6-2.5l-1.5-2.2c1.2-.8 2.4-1.6 3.7-2.4l1.4 2.3c-1.2.8-2.4 1.5-3.6 2.3zm67.7-2.3c-1.2-.7-2.4-1.4-3.7-2l1.2-2.4 3.9 2.1-1.4 2.3zm-60.5-1.9l-1.2-2.4c1.3-.7 2.6-1.3 4-1.8l1 2.5c-1.2.4-2.5 1-3.8 1.7zm53-1.8l-3.9-1.5.9-2.5c1.4.5 2.8 1 4.1 1.6l-1.1 2.4zm-45.2-1.5l-.9-2.5c1.4-.5 2.8-.9 4.2-1.3l.7 2.6c-1.4.3-2.7.7-4 1.2zm37.2-1.3c-1.3-.4-2.7-.7-4.1-1l.5-2.6c1.4.3 2.9.6 4.3 1l-.7 2.6zm-29.1-.9l-.5-2.6c1.4-.3 2.9-.5 4.3-.7l.4 2.7c-1.5 0-2.9.3-4.2.6zm20.9-.8c-1.4-.2-2.8-.3-4.2-.4l.2-2.7c1.4.1 2.9.2 4.4.4l-.4 2.7zm-12.6-.4l-.2-2.7c.8 0 1.5-.1 2.3-.1h2.1v2.6h-2c-.7 0-1.5.2-2.2.2zm-21 108.5c.1-.1.1-.2.2-.3 0-.1.1-.2.1-.3v-.3s0-.1-.1-.1l-.1-.1c-.2-.2-.5-.3-.7-.2l-.2.1c-.1 0-.1 0-.1.1l-.1.1-.1.1-.1.1s0 .1-.1.1v.2c0 .2.1.4.2.6.1.1.2.1.3.2.1 0 .2.1.3.1.2-.2.4-.3.5-.4zm-3.8-1.6c-.4-.2-.5-.7-.2-1.1.2-.4.7-.5 1.1-.2.4.2.5.7.2 1.1-.2.2-.4.4-.7.4-.1 0-.2-.1-.4-.2zm-2.6-1.9c-.4-.3-.4-.8-.2-1.1.3-.3.8-.4 1.1-.2.4.3.4.8.2 1.1-.2.2-.4.3-.6.3-.2.1-.4.1-.5-.1zm-2.6-2c-.3-.3-.4-.8-.1-1.1.3-.3.8-.4 1.1-.1.3.3.4.8.1 1.1-.2.2-.4.3-.6.3-.2 0-.4 0-.5-.2zm-2.4-2.1c-.3-.3-.3-.8 0-1.1.3-.3.8-.3 1.1 0 .3.3.3.8 0 1.1-.1.2-.4.3-.6.2-.2 0-.4-.1-.5-.2zm-2.3-2.4c-.3-.3-.3-.8.1-1.1.3-.3.8-.3 1.1 0 .3.3.3.8 0 1.1-.1.1-.3.2-.5.2-.3.1-.6 0-.7-.2zm-2.2-2.5c-.3-.3-.2-.8.1-1.1.3-.3.8-.2 1.1.1.3.3.2.8-.1 1.1-.1.1-.3.2-.5.2s-.4-.1-.6-.3zm-2-2.6c-.3-.4-.2-.9.2-1.1.3-.3.8-.2 1.1.2.3.4.2.9-.2 1.1-.1.1-.3.1-.5.1-.2.1-.4-.1-.6-.3zm-1.8-2.7c-.2-.4-.1-.9.2-1.1.4-.2.9-.1 1.1.3.2.4.1.9-.2 1.1-.1.1-.3.1-.4.1-.3 0-.5-.2-.7-.4zm-1.6-2.8c-.2-.4-.1-.9.3-1.1.4-.2.9-.1 1.1.3.2.4.1.9-.3 1.1-.1.1-.2.1-.4.1-.3 0-.6-.2-.7-.4zm-1.5-3c-.2-.4 0-.9.4-1.1.4-.2.9 0 1.1.4.2.4 0 .9-.4 1.1-.1.1-.2.1-.3.1-.4 0-.6-.2-.8-.5zm-1.3-3c-.1-.4.1-.8.5-1 .4-.1.8.1 1 .5.1.4-.1.8-.4 1-.1 0-.2.1-.3.1-.4-.1-.6-.3-.8-.6zm-1.1-3c-.1-.4.1-.9.5-1 .4-.1.9.1 1 .5.1.4-.1.9-.5 1h-.2c-.4 0-.7-.2-.8-.5zm-.9-3.2c-.1-.4.1-.8.5-1h.1c.4-.1.9.1 1 .5.1.4-.1.9-.5 1h-.2c-.4.1-.8-.1-.9-.5zm-.7-3.2c-.1-.4.2-.9.6-.9.4-.1.8.2.9.6.1.4-.2.9-.6.9h-.1c-.4.1-.7-.2-.8-.6zm-.5-3.2c-.1-.4.3-.8.7-.9.4-.1.8.2.9.7.1.4-.3.8-.7.9h-.1c-.4 0-.7-.3-.8-.7zm-.3-3.3c0-.4.3-.8.8-.8.4 0 .8.3.8.7 0 .4-.3.8-.8.8-.4.1-.8-.2-.8-.7zm1.2-2.7c.2-.2.2-.4.2-.6v-.4s0-.1-.1-.1l-.1-.1c-.2-.2-.5-.3-.7-.2-.1 0-.1 0-.2.1-.1 0-.1 0-.1.1l-.1.1-.1.1s0 .1-.1.1v.4c0 .2.1.4.2.6.1.1.4.2.6.2.2 0 .4-.1.5-.3zm89.2 22.2l3.9-1.9-.2-.5-4.1 2v.1c-12.4 20.5-39 27.1-59.5 14.7-20.5-12.4-27.1-39-14.7-59.5s39-27.1 59.5-14.7c6 3.6 11 8.6 14.6 14.6v1.3l2.7 2.7.4-.4-2.6-2.6v-1.3.1c-12.5-20.7-39.5-27.3-60.2-14.8s-27.3 39.5-14.8 60.2 39.5 27.3 60.2 14.8c6.1-3.7 11.1-8.7 14.8-14.8zm4.2 4.1l-.4-.3c-3.4 5.3-7.8 9.9-13 13.5l.3.4c5.1-3.6 9.6-8.3 13.1-13.6zm-24.5 19.6l-.2-.5c-25.4 9.4-53.6-3.5-63-28.8-3-8-3.8-16.6-2.4-25l-.5-.1c-4.4 27 14 52.5 41 56.9 8.4 1.3 17.1.5 25.1-2.5zM169.5 91h-12l-9-9v-3.2C133.7 55.9 103 49.3 80 64.1c-8.9 5.8-15.7 14.2-19.5 24.1l.5.2c9.5-25.3 37.8-38.1 63.1-28.6 9.8 3.7 18.2 10.4 23.9 19.2v3.2l9.3 9.3h12.2V91zm-76.1 43.7c-1.3-.6-2.5-1.3-3.7-2.1l-.3.4c1.2.8 2.5 1.5 3.8 2.1l.2-.4zM136 120l-.5-.2c-5.3 11-16.5 18-28.7 17.9-3.3 0-6.7-.5-9.9-1.5l-.2.5c15.5 4.9 32.2-2.2 39.3-16.7zm2.1 2.1l-.5-.2c-8.9 17-30 23.6-47 14.7s-23.6-30-14.7-47c8.9-17 30-23.6 47-14.7 6.3 3.3 11.4 8.4 14.7 14.7l8.8 8.7h24.2v-.5h-24l-8.5-8.4c-9.1-17.3-30.4-23.9-47.7-14.9s-23.9 30.4-14.9 47.7 30.4 23.9 47.7 14.9c6.4-3.5 11.6-8.7 14.9-15zM77.3 129c-12.9-16.3-10.1-40 6.2-52.9 6.7-5.3 14.9-8.1 23.4-8.1 13.7 0 26.3 7.4 32.9 19.4l8.8 8.8h21.9v-.5h-21.6l-8.5-8.5C130 68.7 106.7 62 88.3 72.3 76.2 79 68.6 91.9 68.7 105.8c0 8.6 2.9 16.9 8.2 23.6l.4-.4zm41 13.1l-.2-.5c-11.2 3.5-23.3 1.6-32.9-5.2l-.3.4c9.7 6.9 22.1 8.9 33.4 5.3zm22-18l-.5-.2c-3.7 6.7-9.3 12-16.1 15.4l.2.5c6.9-3.4 12.6-8.9 16.4-15.7zm16.8 16.8v-8l4.2-4.2h5.7v-.5h-6l-4.5 4.6v8c-7.8 11-19.1 19.2-32 23.1l.1.5c13.2-4 24.5-12.2 32.5-23.5zm-43.7 25.8l-.1-.5c-2.1.2-4.3.3-6.4.3-33.6 0-60.8-27.2-60.9-60.8 0-33.6 27.2-60.8 60.8-60.9 19.8 0 38.3 9.6 49.7 25.7v7.9l4.5 4.5h5.8v-.5h-5.6l-4.2-4.2v-8C137.5 42.6 99.2 36 71.6 55.5s-34.2 57.8-14.7 85.4c12.8 18.3 34.4 28.1 56.5 25.8zm29-40.5l3.7-7.8h23.8v-.5h-24.2l-3.9 8.1c-11.2 19.3-36 25.9-55.3 14.7-19.3-11.2-25.9-36-14.7-55.3C76 78.2 82.3 72.5 89.9 69l-.2-.5c-20.6 9.5-29.5 33.8-20 54.4s33.8 29.5 54.4 20c7.6-3.6 14-9.4 18.3-16.7zm5.3-35.6l-5.3-5.3V85c-7.4-12.6-20.9-20.4-35.5-20.4-1.5 0-2.9.1-4.4.2l.1.5c1.4-.2 2.9-.2 4.3-.2 14.4 0 27.7 7.7 35 20.1v.3l5.4 5.4.4-.3zm20-6.2h-7.5l-5.3-5.3v-6.6c-18.2-26.5-54.5-33.2-81-14.9-2.3 1.6-4.4 3.3-6.4 5.2l.4.4c23.5-21.6 60-20 81.6 3.4 1.8 1.9 3.4 4 4.9 6.2v6.6L160 85h7.7v-.6zm-12.9 54.4v-6.7l5.3-5.3h7.5v-.5h-7.7l-5.6 5.6v6.7c-18.4 26.1-54.4 32.3-80.5 13.9-23.5-16.7-31.2-47.9-18.2-73.5l-.5-.2c-14.7 28.6-3.5 63.8 25.2 78.5 26 13.4 57.8 5.4 74.5-18.5zm-2.2-2.3v-5.1l6.9-6.9h9v-.5h-9.1l-7.2 7.2v5.1c-12.6 18.5-35.1 27.5-57 22.7l-.1.5c3.9.9 8 1.3 12 1.3 18.2 0 35.2-9.1 45.5-24.3zm-68 19c-27.6-12.1-40.1-44.3-28-71.9s44.3-40.1 71.9-28c.6.2 1.1.5 1.7.8l.2-.5c-7.4-3.5-15.4-5.3-23.6-5.3-30.4 0-55.1 24.6-55.2 55.1 0 21.8 12.8 41.6 32.8 50.4l.2-.6zm83.7-68.7h-8.9l-6.9-6.9v-5l-.1-.1c-3-4.4-6.5-8.3-10.6-11.7l-.3.4c4 3.3 7.5 7.2 10.5 11.5v5.1l7.2 7.2h9.1v-.5zm-17.7 47.7v-4.1l7.9-8h10.4v-.5h-10.6l-8.2 8.3v4.1c-15.8 23.9-48 30.4-71.8 14.6s-30.4-48-14.6-71.8 48-30.4 71.8-14.6c5.8 3.8 10.7 8.8 14.6 14.6v4l8.2 8.2H169v-.5h-10.4l-7.9-7.9v-4.1C134.7 52.6 102.2 46 78 61.9s-30.8 48.4-14.9 72.6 48.4 30.8 72.6 14.9c6-4 11-9 14.9-14.9zm-10.3-23h30.5v-.5H140l-4.4 8.8.5.2 4.2-8.5zm2.1 2.1h28.2v-.5H142l-4.4 8.8.5.2 4.3-8.5zm1.6 2.7h26.3v-.5h-26.6l-3.9 8.2.5.2 3.7-7.9zm9 4h16.5v-.5h-16.8l-4.8 6.4.4.3 4.7-6.2zm-6.5 10.1l2-4-.5-.2-1.9 4c-13.5 21.6-42 28.2-63.6 14.7s-28.2-42-14.7-63.6 42-28.2 63.6-14.7c5.9 3.7 10.9 8.7 14.6 14.6v2.4L156.4 94h13.7v-.5h-13.6l-10.1-10.1v-2.5C132.7 59 103.9 52.4 82.1 66s-28.5 42.5-14.9 64.3 42.5 28.5 64.3 14.9c6.1-3.7 11.1-8.8 15-14.8zm2.1 1.9l-.1-6.1h-.5l.1 6.1h.5zM166.1 80h-4.5l-3.1-3.1v-2h-.5v2.2l3.4 3.4h4.7V80zm-53.2 85.3c-.6 0-1.1.5-1.1 1.1 0 .6.5 1.1 1.1 1.1s1.1-.5 1.1-1.1c0-.6-.5-1.1-1.1-1.1.1 0 0 0 0 0zM125 163c-.6 0-1.1.5-1.1 1.1 0 .6.5 1.1 1.1 1.1.6 0 1.1-.5 1.1-1.1-.1-.6-.6-1.1-1.1-1.1zm5.3-108c-.6 0-1.1.5-1.1 1.1 0 .6.5 1.1 1.1 1.1.6 0 1.1-.5 1.1-1.1-.1-.6-.5-1.1-1.1-1.1zm-53.2 73c-.6 0-1.1.5-1.1 1.1 0 .6.5 1.1 1.1 1.1s1.1-.5 1.1-1.1c0-.7-.5-1.1-1.1-1.1zm8.2 7.9c-.6 0-1.1.5-1.1 1.1 0 .6.5 1.1 1.1 1.1s1.1-.5 1.1-1.1c-.1-.6-.5-1.1-1.1-1.1zM150 57c-.6 0-1.1.5-1.1 1.1 0 .6.5 1.1 1.1 1.1.6 0 1.1-.5 1.1-1.1-.1-.6-.5-1.1-1.1-1.1zm15.1 74.8c-.6 0-1.1.5-1.1 1.1s.5 1.1 1.1 1.1 1.1-.5 1.1-1.1-.5-1.1-1.1-1.1zm-41.3 19.1c-.6 0-1.1.5-1.1 1.1 0 .6.5 1.1 1.1 1.1.6 0 1.1-.5 1.1-1.1-.1-.6-.6-1.1-1.1-1.1zm11.8-6.2c-.6 0-1.1.5-1.1 1.1s.5 1.1 1.1 1.1c.6 0 1.1-.5 1.1-1.1 0-.6-.4-1.1-1.1-1.1.1 0 .1 0 0 0zm-40.3 13.6c-.6 0-1.1.5-1.1 1.1 0 .6.5 1.1 1.1 1.1s1.1-.5 1.1-1.1c0-.6-.5-1.1-1.1-1.1zm-10.9-3.6c-.6 0-1.1.5-1.1 1.1 0 .6.5 1.1 1.1 1.1.6 0 1.1-.5 1.1-1.1 0-.6-.5-1.1-1.1-1.1zm33.6-13.8c-.6 0-1.1.5-1.1 1.1 0 .6.5 1.1 1.1 1.1s1.1-.5 1.1-1.1c0-.7-.5-1.1-1.1-1.1zm6-2.4c-.6 0-1.1.5-1.1 1.1s.5 1.1 1.1 1.1c.6 0 1.1-.5 1.1-1.1 0-.7-.5-1.1-1.1-1.1zm40-42.6l-8.7 8.7v4.4l8.9 8.9h6.8V96l-7-.1zm8.4 9.8c-.1-17.7-7.3-34.7-20-47.1l-1.9 1.9c12.2 11.9 19.1 28.1 19.2 45.2 0 8.5-1.7 16.9-5.1 24.7l2.5 1c3.5-8.1 5.3-16.9 5.3-25.7zm-24.2 19.5c-.6 0-1.1.5-1.1 1.1s.5 1.1 1.1 1.1 1.1-.5 1.1-1.1c0-.6-.5-1.1-1.1-1.1zm-1-35.7c-.6 0-1.1.5-1.1 1.1s.5 1.1 1.1 1.1c.6 0 1.1-.5 1.1-1.1-.1-.6-.5-1.1-1.1-1.1zm-.6-3.6c-.6 0-1.1.5-1.1 1.1s.5 1.1 1.1 1.1 1.1-.5 1.1-1.1c0-.6-.4-1.1-1.1-1.1zM106.8 61c-.6 0-1.1.5-1.1 1.1s.5 1.1 1.1 1.1 1.1-.5 1.1-1.1c0-.6-.5-1.1-1.1-1.1zm-23.6 3.7c-.6 0-1.1.5-1.1 1.1s.5 1.1 1.1 1.1c.6 0 1.1-.5 1.1-1 0-.7-.5-1.2-1.1-1.2zm-15.8-2.6c-.6 0-1.1.4-1.1 1s.4 1.1 1 1.1 1.1-.4 1.1-1v-.1c0-.5-.4-.9-1-1zm-12.3 16c-.6-.1-1.1.4-1.2 1-.1.6.4 1.1 1 1.2h.2c.6 0 1-.4 1.1-.9v-.1c0-.7-.4-1.2-1.1-1.2.1 0 0 0 0 0zm86.8-15.7c-.6-.1-1.1.4-1.2 1-.1.6.4 1.1 1 1.2h.2c.6-.1 1-.6 1-1.2-.1-.5-.5-.9-1-1zm-52.4 5.4c-.6.2-.9.8-.7 1.3.2.6.8.9 1.3.7.6-.2.9-.8.7-1.3s-.7-.9-1.3-.7zm12.9-3.6c-.6 0-1.1.5-1.1 1.1s.5 1.1 1.1 1.1 1.1-.5 1.1-1.1c0-.6-.5-1.1-1.1-1.1zM60.9 87c-.6 0-1.1.5-1.1 1.1s.5 1.1 1.1 1.1 1.1-.5 1.1-1.1c-.1-.6-.6-1.1-1.1-1.1zm-2.7 9.9c-.6 0-1.1.5-1.1 1.1 0 .6.5 1.1 1.1 1.1.6 0 1.1-.5 1.1-1.1 0-.6-.5-1.1-1.1-1.1zm108.6 37.7c1.4-3 2.7-6.2 3.6-9.4 1-3.2 1.7-6.5 2.2-9.8.5-3.3.7-6.7.7-10-.1-3.3-.3-6.7-.8-10l-2 .3c.5 3.2.8 6.5.8 9.7 0 3.3-.2 6.5-.7 9.7-.5 3.2-1.2 6.4-2.1 9.5-1 3.1-2.1 6.1-3.5 9.1l1.8.9zm-83.6 34.2c3.2 1.2 6.4 2.1 9.7 2.7 3.3.7 6.6 1.1 10 1.3 3.4.1 6.7 0 10.1-.3.8-.1 1.7-.2 2.5-.3l1.2-.2 1.2-.2c.8-.2 1.7-.3 2.5-.5l2.5-.6-.5-2-2.4.6c-.8.2-1.6.3-2.4.4l-1.2.2-1.2.2-2.4.3c-3.2.3-6.5.4-9.8.3-3.3-.2-6.5-.6-9.7-1.2-3.2-.6-6.3-1.5-9.4-2.7l-.7 2zm-41.8-80c-1.7 6.5-2.4 13.3-2.1 20 .3 6.7 1.6 13.4 3.9 19.7l2-.7c-2.2-6.1-3.5-12.6-3.8-19.1-.3-6.5.4-13 2-19.3l-2-.6zm75.7-49.2c-13.4-2.2-27.1-.3-39.4 5.5l.9 1.9c11.9-5.6 25.2-7.4 38.1-5.3l.4-2.1zm33.3 120.2l.9-.7.9-.8 1.7-1.5 1.6-1.6.8-.8.8-.8 1.5-1.7 1.5-1.7c.2-.3.5-.6.7-.9l.7-.9c.4-.6.9-1.2 1.4-1.8 3.6-4.9 6.4-10.3 8.6-16 1.1-2.8 2-5.7 2.7-8.7l.5-2.2c.2-.7.3-1.5.4-2.2.3-1.5.4-3 .6-4.5.1-.8.1-1.5.2-2.3s.1-1.5.1-2.3c0-1.5.1-3 0-4.6-.1-3-.4-6-.8-9l-2.1.3c.4 2.9.7 5.8.8 8.8.1 1.5 0 2.9 0 4.4 0 .7-.1 1.5-.1 2.2s-.1 1.5-.2 2.2c-.2 1.5-.3 2.9-.6 4.4-.1.7-.2 1.5-.4 2.2l-.5 2.2c-.7 2.9-1.6 5.7-2.6 8.4-2.1 5.5-4.9 10.7-8.4 15.5-.4.6-.9 1.2-1.3 1.8l-.7.9-.7.8-1.4 1.7-1.5 1.6-.8.8-.8.8-1.6 1.6-1.7 1.4-.8.7-.9.7 1.5 1.6zm-86 1.7l.9.7.9.6 1.9 1.3 1.9 1.2c.3.2.6.4 1 .6l1 .6c.7.4 1.3.7 2 1.1l2 1c.7.4 1.4.6 2.1 1s1.4.6 2.1.9c5.6 2.3 11.5 3.8 17.6 4.6 3 .4 6 .5 9.1.5l2.3-.1h1.1l1.1-.1 2.3-.2 2.2-.3c6-.8 11.9-2.4 17.5-4.8l-.8-1.9c-5.4 2.3-11.2 3.8-17 4.6l-2.2.3-2.2.2-1.1.1H109l-2.2.1c-2.9 0-5.9-.2-8.8-.5-5.8-.7-11.6-2.2-17-4.4-.7-.3-1.3-.6-2-.9-.6-.3-1.3-.6-2-.9l-2-1c-.6-.3-1.3-.7-1.9-1.1l-1-.5-.9-.6-1.9-1.2-1.8-1.2-.9-.6-.9-.7-1.3 1.6zM42.1 78.4l-.5 1-.4 1.1-.8 2.2-.7 2.1c-.1.4-.2.7-.3 1.1l-.3 1.1c-.2.7-.4 1.5-.6 2.2l-.5 2.2c-.1.4-.2.7-.2 1.1l-.2 1.1c-.1.8-.3 1.5-.4 2.2l-.3 2.3c0 .4-.1.8-.1 1.1l-.1 1.1-.2 2.3v4.5l.1 2.3c0 .8.1 1.5.2 2.3s.1 1.5.2 2.3c.7 6 2.2 11.9 4.5 17.6.3.7.6 1.4.8 2.1l1 2.1c.2.3.3.7.5 1l.5 1 1.1 2 1.2 2c.2.3.4.7.6 1l.6.9c.4.6.8 1.3 1.2 1.9l1.3 1.8 1.7-1.2-1.3-1.8-1.2-1.8-.6-.9-.6-.9-1.2-1.9-1-1.9-.5-1c-.2-.3-.3-.7-.5-1l-.9-2c-.3-.7-.5-1.4-.8-2-2.2-5.5-3.7-11.2-4.3-17-.1-.7-.2-1.5-.2-2.2s-.1-1.5-.2-2.2l-.1-2.2v-4.6l.2-2.2.1-1.1c0-.4.1-.7.1-1.1l.3-2.2c.1-.7.2-1.4.4-2.2l.2-1.1c.1-.4.2-.7.2-1.1l.5-2.2.6-2.1.3-1.1c.1-.4.2-.7.3-1l.7-2.1.8-2.1.4-1 .4-1-2-.8zm75.4-41.5l-1.1-.2-1.1-.1-2.3-.3c-.8-.1-1.5-.1-2.3-.2l-1.1-.1h-3.4c-.8 0-1.5 0-2.3.1-1.5 0-3 .2-4.5.3-6 .6-12 2-17.7 4.1C70.3 44.8 60.2 52 52.4 61.4l1.6 1.3c7.5-9.1 17.3-16.2 28.4-20.3 5.5-2.1 11.3-3.4 17.1-4 1.5-.1 2.9-.3 4.4-.3.7 0 1.5-.1 2.2-.1h3.3l1.1.1 2.2.2 2.2.3 1.1.1 1.1.2.4-2zm61.3 79.4c.5-3.6.8-7.3.7-11 0-3.7-.3-7.4-.9-11l-2.8.4c.5 3.5.8 7 .9 10.5 0 3.5-.2 7.1-.7 10.6l2.8.5zm-22 42.5c2.7-2.5 5.1-5.3 7.4-8.2.5-.7 1.1-1.4 1.6-2.2l1.6-2.3c1-1.6 2-3.1 2.8-4.7l-2.5-1.4c-.8 1.6-1.8 3-2.7 4.5l-1.5 2.2c-.5.7-1.1 1.4-1.6 2.1-2.2 2.8-4.5 5.4-7.1 7.9l2 2.1zm-43.4 19.9c.5 0 .9-.1 1.4-.2l1.4-.2 1.4-.2c.4-.1.9-.2 1.3-.2.9-.2 1.8-.3 2.7-.5l2.7-.6c.9-.2 1.8-.5 2.7-.7s1.8-.5 2.6-.8l2.6-.9 2.6-1-1.1-2.6-2.4 1-2.5.9c-.8.3-1.7.5-2.5.8s-1.7.5-2.6.7l-2.6.6c-.9.2-1.7.3-2.6.5-.4.1-.9.2-1.3.2l-1.3.2-1.3.2c-.4.1-.9.1-1.3.1l.1 2.7zm-46.5-11.2c3.1 2 6.3 3.7 9.7 5.2l1.3.6c.4.2.8.4 1.3.5l2.6 1c1.7.6 3.5 1.2 5.2 1.6l.8-2.8c-1.7-.4-3.4-1-5-1.6l-2.5-1c-.4-.1-.8-.3-1.2-.5l-1.2-.5c-3.2-1.4-6.3-3.1-9.3-5l-1.7 2.5zm-29.7-37.4l.5 1.3c.2.4.3.9.5 1.3.3.9.7 1.7 1 2.5l1.3 2.5c.4.8.8 1.6 1.3 2.4 1.7 3.3 3.7 6.4 5.9 9.3l2.3-1.7c-2.1-2.8-4-5.8-5.7-8.9l-1.2-2.4L42 134c-.4-.8-.7-1.6-1-2.4-.2-.4-.3-.8-.5-1.2l-.4-1.2-2.9.9zm-.3-47.7c-1.2 3.5-2.1 7-2.7 10.7-.2.9-.3 1.8-.4 2.7l-.3 2.7c-.1.9-.1 1.8-.2 2.7 0 .5-.1.9-.1 1.4v1.4H36v-1.3c0-.4.1-.9.1-1.3.1-.9.1-1.8.2-2.6l.3-2.6c.1-.9.3-1.7.4-2.6.6-3.5 1.5-6.9 2.6-10.2l-2.7-1zm29.2-37.8c-1.6 1-3 2.1-4.5 3.2l-2.2 1.7-.5.4-.5.4-1 .9c-2.7 2.4-5.3 5.1-7.6 7.9L52 61c2.2-2.7 4.7-5.3 7.3-7.6l1-.9.5-.4.5-.4 2-1.7c1.4-1 2.8-2.1 4.3-3l-1.5-2.4zm46.3-11.8l-2.8-.2-2.8-.1H104c-1 0-1.8 0-2.8.1l-2.8.2-2.7.3c-.5.1-.9.1-1.4.2l-1.4.3-1 .4c-.4.1-.9.2-1.3.3l.6 2.8c.4-.1.9-.2 1.3-.3l1.3-.2 1.3-.2c.4-.1.9-.1 1.3-.2.9-.1 1.8-.2 2.6-.3l2.6-.2c.9-.1 1.8-.1 2.6-.1.9 0 1.8-.1 2.7 0l2.6.1 2.6.2.3-3.1zm43.7 19.4c-1.3-1.3-2.8-2.4-4.2-3.6l-2.2-1.7c-.7-.6-1.5-1-2.2-1.6-3-2.1-6.2-3.9-9.5-5.5l-1.2 2.6c3.2 1.5 6.2 3.3 9.1 5.3.7.5 1.5 1 2.2 1.5l2.1 1.6c1.4 1.1 2.7 2.2 4 3.5l1.9-2.1zm22.5 42.1c-.6-3.6-1.4-7.2-2.5-10.7-1.1-3.5-2.5-6.9-4.1-10.2l-2.6 1.3c1.5 3.2 2.9 6.5 3.9 9.8 1 3.4 1.8 6.8 2.4 10.3l2.9-.5z"/><linearGradient id="SVGID_2_" gradientUnits="userSpaceOnUse" x1="111.51" y1="2.08" x2="111.51" y2="204.22" gradientTransform="matrix(1 0 0 -1 -5.59 209.76)"><stop offset="0"/><stop offset=".15" stop-color="#030303"/><stop offset=".25" stop-color="#0b0b0b"/><stop offset=".33" stop-color="#1a1a1a"/><stop offset=".4" stop-color="#2f2f2f"/><stop offset=".46" stop-color="#4a4a4a"/><stop offset=".49" stop-color="#595959"/><stop offset=".5" stop-color="#565656"/><stop offset=".53" stop-color="#3b3b3b"/><stop offset=".58" stop-color="#252525"/><stop offset=".62" stop-color="#141414"/><stop offset=".68" stop-color="#090909"/><stop offset=".77" stop-color="#020202"/><stop offset="1"/></linearGradient><path class="st1" d="M105.9 207.7h-.9v-5h.9v5zm2.3 0l-.1-5h1l.2 5h-1.1zm-5.2 0h-1l.2-5h1l-.2 5zm8.3-.1l-.3-5 1-.1.3 5-1 .1zm-11.4 0l-1-.1.3-5 1 .1-.3 5zm14.4-.2l-.4-5 1-.1.5 5-1.1.1zm-17.5 0l-1-.1.5-5 1 .1-.5 5zm20.6-.3l-.6-5 1-.1.6 5-1 .1zm-23.7 0l-1-.1.6-5 1 .1-.6 5zm26.8-.3l-.7-5 1-.1.8 5-1.1.1zm-29.8-.1l-1-.2.8-5 1 .1-.8 5.1zm32.9-.4l-.9-5 1-.2.9 4.9-1 .3zm-36-.1l-1-.2 1-4.9 1 .2-1 4.9zm39-.5l-1-4.9 1-.2 1.1 4.9-1.1.2zm-42-.1l-1-.2 1.1-4.9 1 .2-1.1 4.9zm45.1-.6l-1.3-5 1-.2 1.2 4.9-.9.3zm-48.1-.2l-1-.2 1.3-4.9.9.2-1.2 4.9zm51-.7l-1.3-4.9.9-.3 1.4 4.8-1 .4zm-54-.1l-1-.3 1.4-4.8.9.3-1.3 4.8zm57-.7l-1.5-4.8.9-.3 1.5 4.8-.9.3zm-60-.2l-1-.3 1.6-4.8.9.3-1.5 4.8zm63-.8l-1.6-4.8.9-.3 1.7 4.8-1 .3zm-66-.2l-1-.4 1.7-4.7.9.3-1.6 4.8zm68.9-.9l-1.8-4.7.9-.4 1.8 4.7-.9.4zm-71.8-.2l-1-.4 1.9-4.7.9.4-1.8 4.7zm74.7-.9l-1.9-4.6.9-.4 2 4.6-1 .4zm-77.5-.2l-.9-.4 2-4.6.9.4-2 4.6zm80.3-1l-2.1-4.6.9-.4 2.1 4.6-.9.4zm-83.2-.2l-.9-.4 2.1-4.6.9.4-2.1 4.6zm86-1.1l-2.2-4.5.9-.4 2.2 4.5-.9.4zm-88.8-.3l-.9-.5 2.3-4.5.9.4-2.3 4.6zm91.6-1.1l-2.3-4.5.9-.5 2.4 4.4-1 .6zm-94.3-.3l-.9-.5L60 191l.9.5-2.4 4.4zm97-1.2l-2.5-4.4.9-.5 2.5 4.4-.9.5zm-99.8-.3l-.9-.5 2.6-4.4.8.5-2.5 4.4zm102.5-1.3l-2.6-4.3.8-.5 2.7 4.3-.9.5zm-105.1-.2l-.9-.5 2.7-4.3.8.5-2.6 4.3zm107.7-1.4l-2.7-4.2.8-.5 2.8 4.2-.9.5zm-110.3-.3l-.9-.6 2.8-4.2.8.5-2.7 4.3zm112.9-1.4l-2.9-4.1.8-.6 2.9 4.1-.8.6zm-115.5-.3l-.8-.6 2.9-4.1.8.6-2.9 4.1zm118-1.6l-3-4 .8-.6 3 4-.8.6zm-120.5-.3l-.8-.6 3.1-4 .8.6-3.1 4zm123-1.6l-3.1-4 .8-.6 3.1 3.9-.8.7zM43 185.8l-.8-.6 3.2-3.9.8.6-3.2 3.9zm127.8-1.7l-3.2-3.9.8-.6 3.3 3.8-.9.7zm-130.2-.3l-.8-.7 3.3-3.8.7.6-3.2 3.9zm132.6-1.8l-3.3-3.8.7-.6 3.4 3.7-.8.7zm-134.9-.2l-.8-.7 3.4-3.7.7.7-3.3 3.7zm137.1-1.9l-3.5-3.7.7-.7 3.5 3.6-.7.8zM36 179.6l-.7-.7 3.5-3.6.7.7-3.5 3.6zm141.7-1.8l-3.6-3.6.7-.7 3.6 3.5-.7.8zm-143.9-.3l-.7-.8 3.6-3.5.7.7-3.6 3.6zm146-2l-3.7-3.4c.2-.2.4-.5.6-.7l3.7 3.4-.6.7zm-148.1-.3c-.2-.2-.5-.5-.7-.8l3.7-3.4.7.7-3.7 3.5zm150.2-2l-3.8-3.3c.2-.2.4-.5.6-.7l3.8 3.3c-.1.3-.4.5-.6.7zm-152.3-.3l-.7-.8 3.8-3.3.6.7-3.7 3.4zm154.3-2l-3.9-3.2.6-.8 3.9 3.2-.6.8zm-156.3-.4l-.7-.8 3.9-3.1c.2.3.4.5.6.8l-3.8 3.1zm158.2-2l-4-3.1c.2-.2.4-.5.6-.8l4 3-.6.9zm-160.1-.4l-.6-.8 4-3 .6.8-4 3zm162-2.1l-4.1-3 .6-.8 4.1 2.9-.6.9zm-163.9-.4l-.6-.8 4.1-2.9.6.8-4.1 2.9zm165.7-2.1l-4.1-2.8.5-.8 4.2 2.8-.6.8zM22 163.1l-.6-.9 4.2-2.8.5.8-4.1 2.9zm169.2-2.2l-4.2-2.7.5-.8 4.3 2.7-.6.8zm-170.9-.4c-.2-.3-.4-.6-.5-.9l4.3-2.6.5.8-4.3 2.7zm172.5-2.3l-4.3-2.6.5-.9 4.4 2.5-.6 1zm-174.1-.4l-.5-.9 4.4-2.5.5.9-4.4 2.5zm175.7-2.2l-4.4-2.4.5-.9 4.4 2.4-.5.9zm-177.2-.5l-.5-.9 4.4-2.4.5.9-4.4 2.4zm178.6-2.3l-4.5-2.3.4-.9 4.5 2.3-.4.9zm-180.1-.4l-.5-.9 4.5-2.2c.1.3.3.6.4.9l-4.4 2.2zm181.5-2.3l-4.5-2.2.4-.9 4.6 2.1c-.2.4-.4.7-.5 1zm-182.8-.5l-.4-.9 4.6-2.1.4.9-4.6 2.1zm184.1-2.3l-4.6-2 .4-.9 4.6 2-.4.9zm-185.4-.5c-.1-.3-.3-.6-.4-1l4.6-1.9c.1.3.2.6.4.9l-4.6 2zm186.6-2.4l-4.7-1.9.4-.9 4.7 1.9-.4.9zm-187.8-.5c-.1-.3-.2-.6-.4-1l4.7-1.8.4.9-4.7 1.9zm188.9-2.4l-4.7-1.8.3-.9 4.7 1.7c-.1.4-.2.7-.3 1zm-190-.5c-.1-.3-.2-.6-.4-1l4.8-1.7.3.9-4.7 1.8zm191-2.4L197 137l.3-.9 4.8 1.6-.3.9zm-192-.6l-.3-1 4.8-1.5.3.9-4.8 1.6zm193-2.4l-4.8-1.4.3-1 4.8 1.4-.3 1zm-193.9-.5c-.1-.3-.2-.7-.3-1l4.8-1.3.3.9-4.8 1.4zm194.7-2.4l-4.9-1.3.2-1 4.9 1.3-.2 1zm-195.5-.6c-.1-.3-.2-.7-.3-1l4.9-1.2.2 1-4.8 1.2zm196.3-2.4l-4.9-1.1.2-1 4.9 1.1c-.1.3-.2.6-.2 1zm-197-.6l-.2-1 4.9-1.1.2 1-4.9 1.1zm197.7-2.5l-4.9-1 .2-1 4.9.9-.2 1.1zm-198.4-.5c-.1-.3-.1-.7-.2-1l4.9-.9.2 1-4.9.9zm199-2.5l-5-.8.2-1 5 .8-.2 1zM6.2 123c0-.3-.1-.7-.2-1l5-.8.1 1-4.9.8zm199.9-2.5l-5-.7c0-.3.1-.7.1-1l5 .6c-.1.4-.1.8-.1 1.1zm-200.4-.6l-.1-1 5-.6.1 1-5 .6zm200.7-2.4l-5-.5.1-1 5 .5-.1 1zm-201.1-.6c0-.3-.1-.7-.1-1l5-.5.1 1-5 .5zm201.4-2.5l-5-.4.1-1 5 .3-.1 1.1zM5 113.8c0-.3 0-.7-.1-1l5-.3c0 .3 0 .7.1 1l-5 .3zm201.9-2.5l-5-.2v-1l5 .2v1zm-202-.6v-1l5-.2v1l-5 .2zm202.1-2.5l-5-.1v-1h5v1.1zm-202-.7c0-.3.2-.3.2-1.1h5.3v.1c0 .4-.3.7-.3 1H5zm197-2.4v-1l5-.1v1l-5 .1zm-192.2-.6l-5-.1v-1l5 .2v.9zm192-2.3v-1l5-.3v1l-5 .3zm-191.9-.7l-5-.3.1-1 5 .3c0 .4-.1.7-.1 1zm191.8-2.2l-.1-1 5-.4.1 1-5 .4zm-191.6-.7l-5-.4c0-.3 0-.7.1-1l5 .5-.1.9zm191.3-2.3l-.1-1 5-.6.1 1-5 .6zm-191-.6l-5-.6.1-1 5 .6c0 .3 0 .6-.1 1zm190.7-2.3c0-.3-.1-.7-.1-1l5-.7.1 1-5 .7zm-190.3-.6l-5-.7.1-1 5 .8-.1.9zm189.8-2.2l-.2-1 4.9-.9.2 1-4.9.9zm-189.3-.7l-5-.9.2-1 5 .9c-.1.3-.2.6-.2 1zm188.8-2.2l-.2-1 4.9-1 .2 1-4.9 1zm-188.3-.8l-4.9-1c.1-.3.1-.7.2-1L12 86c0 .3-.1.6-.2.9zm187.7-2.1c-.1-.3-.1-.6-.2-1l4.9-1.2.2 1-4.9 1.2zm-187-.7l-4.9-1.2c.1-.3.2-.7.2-1l4.9 1.2c-.1.3-.2.7-.2 1zm186.3-2.2l-.2-.9 4.9-1.4.3 1-5 1.3zm-185.6-.7l-4.9-1.3.3-1 4.8 1.4-.2.9zM198 79.1l-.3-.9 4.8-1.5.3 1-4.8 1.4zm-184-.7l-4.8-1.5c.1-.3.2-.7.3-1l4.8 1.5c-.1.4-.2.7-.3 1zm183-2.2l-.3-.9 4.8-1.7.3 1-4.8 1.6zm-182.1-.6L10.1 74l.3-1 4.8 1.7-.3.9zm181.2-2.1l-.3-.9 4.7-1.8c.1.3.2.7.4 1l-4.8 1.7zm-180.2-.7L11.2 71l.4-1 4.7 1.8-.4 1zM195 70.7c-.1-.3-.2-.6-.4-.9l4.6-1.9.4 1-4.6 1.8zm-178-.6l-4.7-1.9c.1-.3.3-.6.4-1l4.6 2-.3.9zM193.9 68l-.4-.9 4.6-2.1c.1.3.3.6.4 1l-4.6 2zm-175.8-.6l-4.6-2.1c.1-.3.3-.6.4-.9l4.6 2.1-.4.9zm174.6-2.1c-.1-.3-.3-.6-.4-.9l4.5-2.2.4.9-4.5 2.2zm-173.3-.5l-4.5-2.2.5-.9 4.5 2.2-.5.9zm172-2.1c-.1-.3-.3-.6-.5-.9l4.4-2.3.5.9-4.4 2.3zm-170.7-.6l-4.5-2.3c.1-.3.3-.6.5-.9l4.4 2.4-.4.8zm169.3-2c-.1-.3-.3-.6-.5-.8l4.4-2.5.5.9-4.4 2.4zm-167.9-.6L17.7 57l.5-.9 4.4 2.5-.5.9zm166.4-2c-.2-.3-.3-.6-.5-.8l4.3-2.6.5.9-4.3 2.5zM23.6 57l-4.3-2.6c.2-.3.4-.6.5-.9l4.3 2.7c-.2.2-.3.5-.5.8zm163.3-2l-.5-.8 4.2-2.8.6.9-4.3 2.7zm-161.8-.5l-4.2-2.7.6-.9 4.2 2.8-.6.8zm160.2-2l-.6-.8 4.1-2.9.6.8-4.1 2.9zM26.8 52l-4.1-2.9.6-.8 4.1 2.9-.6.8zm156.8-1.9c-.2-.3-.4-.5-.6-.8l4-3c.2.3.4.6.6.8l-4 3zm-155.1-.4l-4.1-3 .6-.8 4 3-.5.8zm153.4-1.9l-.6-.8 3.9-3.1.6.8-3.9 3.1zm-151.7-.5l-4-3.1.6-.8 3.9 3.2-.5.7zM180 45.4l-.6-.8 3.9-3.2.7.8-4 3.2zM32.1 45l-3.9-3.3.7-.8 3.8 3.3-.6.8zm146-1.8l-.7-.7 3.8-3.4.7.8-3.8 3.3zM34 42.8l-3.8-3.3.7-.8 3.7 3.4-.6.7zM176.1 41l-.7-.7 3.6-3.5.7.8-3.6 3.4zM36 40.6l-3.7-3.5.7-.7 3.6 3.5c-.1.3-.4.5-.6.7zm138.1-1.7l-.7-.7 3.5-3.6.7.7-3.5 3.6zm-136-.4l-3.6-3.6.7-.7 3.5 3.6-.6.7zM172 36.8l-.7-.7 3.4-3.7c.3.2.5.5.8.7l-3.5 3.7zm-131.8-.3l-3.5-3.7.8-.7 3.4 3.7-.7.7zm129.6-1.6l-.7-.7 3.3-3.8.8.7-3.4 3.8zm-127.4-.4L39 30.8l.8-.7 3.3 3.8-.7.6zm125.2-1.6l-.8-.6 3.2-3.9.8.7-3.2 3.8zm-123-.3l-3.2-3.9.8-.7 3.2 3.9-.8.7zm120.8-1.5l-.8-.6 3.1-4 .8.6-3.1 4zm-118.5-.3l-3.1-4 .8-.6 3 4-.7.6zM163 29.3l-.8-.6 2.9-4.1.8.6-2.9 4.1zm-113.8-.4l-3-4.1.8-.6 2.9 4.1-.7.6zm111.4-1.3l-.8-.5 2.8-4.2.9.6-2.9 4.1zm-108.9-.4l-2.8-4.1.8-.6 2.8 4.2-.8.5zm106.4-1.3l-.8-.5 2.7-4.2.9.6-2.8 4.1zm-104-.3l-2.7-4.2.9-.6 2.7 4.3-.9.5zm101.6-1.2l-.8-.5 2.6-4.3.9.5-2.7 4.3zm-99-.3L54 19.8l.9-.5 2.5 4.3-.7.5zm96.5-1.2l-.9-.5 2.4-4.4.9.5-2.4 4.4zm-94-.3l-2.5-4.4.9-.5 2.4 4.4-.8.5zm91.4-1.1l-.9-.5 2.3-4.5.9.5-2.3 4.5zm-88.8-.3l-2.4-4.4.9-.5 2.3 4.5-.8.4zm86.2-1l-.9-.4 2.2-4.5.9.4-2.2 4.5zm-83.6-.3l-2.2-4.6.9-.4 2.1 4.6-.8.4zm80.9-1l-.9-.4 2-4.6.9.4-2 4.6zm-78.2-.3l-2-4.6.9-.4 2 4.6-.9.4zm75.5-.9l-.9-.4 1.9-4.7 1 .4-2 4.7zm-72.8-.2l-1.9-4.7 1-.4 1.9 4.7-1 .4zm70-.8l-.9-.3 1.7-4.7 1 .4-1.8 4.6zm-67.3-.3l-1.8-4.7 1-.4 1.7 4.8-.9.3zm64.5-.7l-.9-.3 1.6-4.8 1 .3-1.7 4.8zm-61.7-.3l-1.6-4.8 1-.3 1.6 4.8-1 .3zm59-.6l-.9-.3 1.4-4.8 1 .3-1.5 4.8zm-56.1-.2l-1.4-4.8 1-.3 1.4 4.8-1 .3zm53.2-.7l-.9-.3 1.3-4.9 1 .3-1.4 4.9zM81 13.8l-1.3-4.9 1-.3 1.2 4.9-.9.3zm47.6-.6l-1-.2 1.1-4.9 1 .2-1.1 4.9zM83.9 13l-1.2-4.9 1-.2 1.1 4.9-.9.2zm41.8-.4l-1-.2 1-4.9 1 .2-1 4.9zm-39-.2l-1-4.9 1-.2 1 4.9-1 .2zm36.1-.4l-1-.2.8-5 1 .2-.8 5zm-33.2-.1l-.9-5 1-.2.8 5-.9.2zm30.3-.4l-1-.1.7-5 1 .1-.7 5zm-27.4-.1l-.7-5 1-.1.6 5-.9.1zm24.5-.2l-1-.1.5-5 1 .1-.5 5zm-21.5-.1l-.5-5 1-.1.5 5-1 .1zm18.6-.2l-1-.1.4-5 1 .1-.4 5zm-15.7-.1l-.4-5 1-.1.3 5-.9.1zm12.8-.2h-1l.2-5 1 .1-.2 4.9zm-9.8 0l-.2-5 1-.1.2 5-1 .1zm6.8-.1h-1l.1-5h1l-.1 5zm-3.9 0l-.1-5h1v5h-.9z"/><linearGradient id="SVGID_3_" gradientUnits="userSpaceOnUse" x1="111.34" y1="22.91" x2="111.34" y2="183.4" gradientTransform="matrix(1 0 0 -1 -5.59 209.76)"><stop offset="0" stop-color="#af8436"/><stop offset=".34" stop-color="#fef5ba"/><stop offset=".53" stop-color="#dfae45"/><stop offset=".81" stop-color="#fcd160"/><stop offset="1" stop-color="#b18638"/></linearGradient><path class="st2" d="M105.3 186.8h-1l.1-5h1l-.1 5zm2.1 0l-.1-5h1l.2 5h-1.1zm-5.2 0h-1l.3-5h1l-.3 5zm8.3 0l-.3-5 1-.1.3 5-1 .1zm-11.4-.2l-1-.1.5-5 1 .1-.5 5zm14.5-.1l-.5-5 1-.1.5 5-1 .1zm-17.6-.2l-1-.1.7-5 1 .1-.7 5zm20.7-.1l-.7-5 1-.1.7 5-1 .1zm-23.8-.3l-1-.2.9-5 1 .2-.9 5zm26.9-.2l-.9-5 1-.2.9 5-1 .2zm-29.9-.4l-1-.2 1.1-4.9.9.2-1 4.9zm33-.2l-1.1-4.9 1-.2 1.1 4.9-1 .2zm-36-.5l-1-.3 1.3-4.9.9.2-1.2 5zm39-.2l-1.3-4.9.9-.2 1.3 4.9-.9.2zm-42.1-.6l-1-.3 1.4-4.8.9.3-1.3 4.8zm45.1-.3l-1.5-4.8.9-.3 1.5 4.8-.9.3zm-48-.7l-1-.3 1.6-4.8.9.3-1.5 4.8zm51-.3l-1.7-4.8.9-.3 1.7 4.8-.9.3zm-54-.7l-1-.4 1.8-4.7.9.3-1.7 4.8zm56.9-.3l-1.8-4.7.9-.4 1.9 4.7-1 .4zm-59.7-.8l-1-.4 2-4.6.9.4-1.9 4.6zm62.6-.4l-2-4.6.9-.4 2.1 4.6-1 .4zm-65.5-.9l-.9-.4 2.1-4.5.9.4-2.1 4.5zm68.4-.4l-2.2-4.5.9-.4 2.2 4.5-.9.4zm-71.2-.9l-.9-.5 2.3-4.5.9.4-2.3 4.6zm73.9-.5l-2.3-4.5.9-.5 2.4 4.4-1 .6zm-76.6-1l-.9-.5 2.5-4.3.8.5-2.4 4.3zm79.4-.5l-2.5-4.3.8-.5 2.6 4.3-.9.5zM64 175l-.9-.5 2.7-4.3.8.5L64 175zm84.7-.5l-2.7-4.3.8-.5 2.8 4.2-.9.6zm-87.3-1.1l-.9-.6 2.8-4.2.8.6-2.7 4.2zm89.9-.6l-2.9-4.1.8-.6 2.9 4.1-.8.6zm-92.5-1.2l-.8-.6 3-4 .8.6-3 4zm95-.7l-3-4 .8-.6 3.1 4-.9.6zm-97.5-1.1c-.3-.2-.5-.4-.8-.6l3.2-3.9.7.6-3.1 3.9zm100-.7l-3.2-3.9.8-.6 3.2 3.9-.8.6zm-102.4-1.3l-.8-.7 3.3-3.8.7.6-3.2 3.9zm104.8-.8l-3.3-3.8.7-.6 3.4 3.8-.8.6zm-107.1-1.3c-.3-.2-.5-.5-.8-.7l3.5-3.7.7.7-3.4 3.7zM161 165l-3.5-3.7.7-.7 3.5 3.6-.7.8zm-111.7-1.5l-.7-.7 3.6-3.5.7.7-3.6 3.5zm113.9-.7l-3.6-3.5.7-.7 3.6 3.5c-.2.2-.5.4-.7.7zm-116-1.5c-.2-.2-.5-.5-.7-.8l3.7-3.4.7.7-3.7 3.5zm118.2-.8l-3.7-3.4.6-.7 3.8 3.4c-.3.2-.5.5-.7.7zM45.1 159l-.7-.8 3.8-3.2.6.7-3.7 3.3zm122.3-.8l-3.9-3.2.6-.8 3.9 3.2-.6.8zm-124.3-1.6l-.7-.8 4-3.1.6.8-3.9 3.1zm126.2-.8l-4-3.1.6-.8 4 3c-.1.3-.3.6-.6.9zm-128.1-1.7l-.6-.8 4.1-2.9.6.8-4.1 2.9zm130-.8l-4.1-2.9.6-.8 4.1 2.9-.6.8zm-131.8-1.7l-.6-.9 4.2-2.8.5.8-4.1 2.9zm133.6-.9l-4.2-2.8.5-.8 4.2 2.7-.5.9zM37.7 149l-.5-.9 4.3-2.6.5.8-4.3 2.7zm136.9-.9l-4.3-2.6c.2-.3.3-.6.5-.8l4.3 2.6-.5.8zm-138.5-1.8l-.5-.9L40 143l.5.9-4.4 2.4zm140.1-.9l-4.4-2.4.5-.9 4.4 2.4c-.2.3-.3.6-.5.9zm-141.6-1.8l-.5-.9 4.5-2.3.5.9-4.5 2.3zm143-1l-4.5-2.3.4-.9 4.5 2.2-.4 1zm-144.4-1.8c-.1-.3-.3-.6-.4-.9l4.6-2.1c.1.3.3.6.4.9l-4.6 2.1zm145.8-1l-4.6-2.1c.1-.3.3-.6.4-.9l4.6 2c-.1.4-.3.7-.4 1zm-147-1.9c-.1-.3-.3-.6-.4-1l4.7-1.9c.1.3.2.6.4.9l-4.7 2zm148.2-.9l-4.7-1.9c.1-.3.2-.6.4-.9l4.7 1.8-.4 1zm-149.4-2c-.1-.3-.2-.6-.4-1l4.7-1.7.3.9-4.6 1.8zm150.5-.9l-4.7-1.7.3-.9 4.8 1.6-.4 1zm-151.6-2c-.1-.3-.2-.7-.3-1l4.8-1.5.3.9-4.8 1.6zm152.7-1l-4.8-1.5.3-.9 4.8 1.5c-.1.3-.3.6-.3.9zm-153.6-2c-.1-.3-.2-.7-.3-1l4.9-1.4.3.9-4.9 1.5zm154.4-.9l-4.8-1.4.3-1 4.9 1.3-.4 1.1zM28 126.1c-.1-.3-.2-.7-.2-1l4.9-1.2c.1.3.2.6.2 1l-4.9 1.2zm156-1l-4.9-1.2.2-1 4.9 1.1c0 .5-.1.8-.2 1.1zm-156.7-2c-.1-.3-.1-.7-.2-1l4.9-1c.1.3.1.6.2 1l-4.9 1zm157.4-1l-4.9-1 .2-1 4.9.9-.2 1.1zm-158-2.1c-.1-.3-.1-.7-.2-1l5-.8.2 1-5 .8zm158.5-1l-5-.8.1-1 5 .7-.1 1.1zm-159-2.2c0-.3-.1-.7-.1-1l5-.6.1 1-5 .6zm159.4-1l-5-.6.1-1 5 .5-.1 1.1zm-159.7-2l-.1-1 5-.4c0 .3 0 .7.1 1l-5 .4zm160-1l-5-.4.1-1 5 .3-.1 1.1zm-160.2-2v-1l5-.2v1l-5 .2zm160.4-1l-5-.2v-1l5 .1v1.1zm-160.6-2.3c-.1-.4-.1-.7-.1-1.1h5s.1.7.1 1l-5 .1zm160.7-.9h-5v-1l5-.1v1.1zm-155.5-2.1l-5-.1v-1l5 .2v.9zm150.4-.7v-1l5-.2v1l-5 .2zm-150.3-2.2l-5-.3c0-.3 0-.7.1-1l5 .4c-.1.2-.1.6-.1.9zm150.1-.8l-.1-1 5-.4.1 1-5 .4zM31 98.7l-5-.5.1-1 5 .6c0 .2 0 .5-.1.9zm149.6-.8l-.1-1 5-.6.1 1-5 .6zM31.4 95.8l-5-.7.2-1 5 .8c-.1.2-.2.6-.2.9zm148.9-.8l-.1-1 5-.8c.1.3.1.7.2 1l-5.1.8zM31.9 92.9l-5-.9c.1-.3.1-.7.2-1l4.9 1-.1.9zm147.9-.8c-.1-.3-.1-.6-.2-1l4.9-1c.1.3.1.7.2 1l-4.9 1zM32.4 90l-4.9-1.1c.1-.3.2-.7.2-1l4.9 1.2c0 .3-.1.7-.2.9zm146.7-.7c-.1-.3-.1-.6-.2-1l4.9-1.2.2 1-4.9 1.2zm-146-2.1l-4.9-1.3.3-1 4.9 1.4-.3.9zm145.3-.8l-.3-.9 4.8-1.4c.1.3.2.7.3 1l-4.8 1.3zm-144.5-2L29.1 83c.1-.3.2-.7.3-1l4.8 1.6c-.1.2-.2.5-.3.8zm143.7-.7l-.3-.9 4.8-1.6.3 1-4.8 1.5zm-142.7-2L30.1 80c.1-.3.2-.7.3-1l4.7 1.8-.2.9zm141.7-.8l-.4-.9 4.7-1.8.4 1-4.7 1.7zm-140.7-2l-4.7-1.8.4-1 4.7 1.9-.4.9zm139.7-.7c-.1-.3-.2-.6-.4-.9l4.6-2 .4 1-4.6 1.9zM37 76.2l-4.6-2 .4-.9 4.6 2.1-.4.8zm137.4-.7c-.1-.3-.3-.6-.4-.9l4.6-2.2c.1.3.3.6.4 1l-4.6 2.1zM38.2 73.6l-4.5-2.2c.2-.3.3-.6.5-.9l4.5 2.3-.5.8zm135-.8c-.1-.3-.3-.6-.4-.9l4.5-2.3c.2.3.3.6.5.9l-4.6 2.3zM39.6 71l-4.4-2.4.5-.9 4.4 2.4-.5.9zm132.2-.8l-.5-.8 4.4-2.5.5.9-4.4 2.4zM41 68.5l-4.3-2.6.5-.9 4.3 2.6-.5.9zm129.3-.7l-.5-.8 4.3-2.7.5.9-4.3 2.6zM42.5 66l-4.2-2.7.6-.9 4.2 2.8-.6.8zm126.3-.8l-.6-.8 4.2-2.8.6.8-4.2 2.8zM44.1 63.6L40 60.7l.6-.8 4.1 2.9c-.2.2-.4.5-.6.8zm123-.8l-.6-.8 4.1-3 .6.8-4.1 3zM45.8 61.2l-4-3 .6-.8 4 3.1c-.2.2-.4.4-.6.7zm119.6-.7l-.6-.8 3.9-3.1.6.8-3.9 3.1zM47.7 58.9l-3.9-3.1.7-.8 3.8 3.2-.6.7zm115.8-.7l-.6-.7 3.8-3.3.7.8-3.9 3.2zm-114-1.5l-3.8-3.3.7-.8 3.7 3.4-.6.7zm112.1-.7l-.7-.7 3.7-3.4.7.8-3.7 3.3zM51.5 54.5L47.9 51l.7-.7 3.6 3.5c-.2.3-.5.5-.7.7zm108.1-.6l-.7-.7 3.6-3.6.7.7-3.6 3.6zm-106-1.4l-3.5-3.6.8-.7 3.4 3.6-.7.7zm104-.7l-.7-.7 3.4-3.7.8.7-3.5 3.7zM55.7 50.5l-3.4-3.7.8-.7 3.3 3.8-.7.6zm99.7-.6l-.7-.6 3.3-3.8.8.7-3.4 3.7zm-97.5-1.3l-3.2-3.9.8-.7 3.2 3.9-.8.7zm95.3-.6l-.8-.6 3.1-4 .8.7-3.1 3.9zm-93-1.2l-3-4 .8-.6 3 4-.8.6zm90.7-.6l-.8-.6 3-4.1.8.6-3 4.1zM62.6 45l-2.9-4.1.9-.6 2.9 4.2-.9.5zm85.9-.5l-.8-.5 2.8-4.2.9.6-2.9 4.1zM65 43.4l-2.7-4.2.9-.6 2.7 4.3-.9.5zm81-.5l-.8-.5 2.6-4.3.9.6-2.7 4.2zm-78.5-1.1l-2.6-4.3.9-.5 2.5 4.4-.8.4zm76.1-.4l-.8-.5 2.5-4.4.9.5-2.6 4.4zm-73.6-1L67.6 36l.9-.5 2.4 4.5-.9.4zm71-.4l-.9-.5 2.3-4.5c.3.2.6.3.9.5L141 40zm-68.4-1l-2.2-4.5.9-.5 2.2 4.5-.9.5zm65.8-.3l-.9-.4 2.1-4.5.9.4-2.1 4.5zm-63.2-.9l-2-4.6.9-.4 2 4.6-.9.4zm60.6-.3l-.9-.4 1.9-4.7 1 .4-2 4.7zm-57.9-.8L76.1 32l1-.4 1.8 4.7-1 .4zm55.2-.3l-.9-.3 1.8-4.7 1 .4-1.9 4.6zm-52.4-.8L79 30.9l1-.3 1.6 4.8-.9.2zm49.6-.2l-.9-.3 1.6-4.8 1 .3-1.7 4.8zm-46.8-.6L82 29.9l1-.3 1.4 4.8-.9.4zm44.1-.3l-.9-.3 1.4-4.8 1 .3-1.5 4.8zm-41.3-.6L85 29.1l1-.3 1.2 4.9-.9.2zm38.5-.1l-1-.2 1.2-4.9 1 .2-1.2 4.9zm-35.7-.6L88 28.3l1-.2 1 4.9-.9.2zm32.8-.1l-1-.2 1-4.9 1 .2-1 4.9zm-30-.4l-.9-5 1-.2.9 5-1 .2zm27.1-.2l-1-.2.8-5 1 .2-.8 5zm-24.2-.3l-.7-5 1-.1.7 5-1 .1zm21.3-.1l-1-.1.6-5 1 .1-.6 5zm-18.4-.3l-.5-5 1-.1.5 5-1 .1zm15.6-.1l-1-.1.4-5 1 .1-.4 5zm-12.7-.2l-.4-5 1-.1.3 5-.9.1zm9.8-.1h-1l.2-5 1 .1-.2 4.9zm-6.8 0l-.2-5h1l.1 5h-.9zm3.8 0h-1v-5h1v5z"/><linearGradient id="SVGID_4_" gradientUnits="userSpaceOnUse" x1="17.87" y1="104.2" x2="205.07" y2="104.2" gradientTransform="matrix(1 0 0 -1 -5.59 209.76)"><stop offset="0" stop-color="#af8436"/><stop offset=".34" stop-color="#fef5ba"/><stop offset=".53" stop-color="#dfae45"/><stop offset=".81" stop-color="#fcd160"/><stop offset="1" stop-color="#b18638"/></linearGradient><path class="st3" d="M105.9 199.2c-51.7 0-93.6-41.9-93.6-93.6S54.2 12 105.9 12s93.6 41.9 93.6 93.6c-.1 51.6-42 93.5-93.6 93.6zm0-176.2c-45.6 0-82.5 37-82.5 82.6s36.9 82.5 82.5 82.5 82.5-36.9 82.5-82.5-37-82.5-82.5-82.6z"/><path class="st4" d="M105.9 24.9c45.4 0 82.2 36.7 82.5 82.1v-.4c-1.2-45.6-39.2-81.5-84.7-80.3-43.8 1.2-79.1 36.4-80.3 80.3v.4c.3-45.4 37.1-82 82.5-82.1zm93.6 82.1c-.5 51.7-42.9 93.2-94.6 92.6-50.9-.5-92.1-41.7-92.6-92.6v.4c0 51.7 41.9 93.6 93.6 93.6 51.7 0 93.6-41.9 93.6-93.6v-.4z"/><linearGradient id="SVGID_5_" gradientUnits="userSpaceOnUse" x1="111.66" y1="5.15" x2="111.66" y2="200.83" gradientTransform="matrix(1 0 0 -1 -5.59 209.76)"><stop offset="0" stop-color="#fff"/><stop offset="0" stop-color="#f7fdff"/><stop offset=".03" stop-color="#dbe3e6"/><stop offset=".09" stop-color="#94a1a8"/><stop offset=".1" stop-color="#929fa6"/><stop offset=".13" stop-color="#95a1a8"/><stop offset=".14" stop-color="#9da9af"/><stop offset=".16" stop-color="#abb5bb"/><stop offset=".17" stop-color="#bfc7cb"/><stop offset=".18" stop-color="#dadee1"/><stop offset=".19" stop-color="#fafafb"/><stop offset=".2" stop-color="#fff"/><stop offset=".34" stop-color="#f7fdff"/><stop offset=".39" stop-color="#bbc0c4"/><stop offset=".45" stop-color="#6e7479"/><stop offset=".5" stop-color="#3e444a"/><stop offset=".52" stop-color="#2c3138"/><stop offset=".56" stop-color="#353a42"/><stop offset=".63" stop-color="#4c535c"/><stop offset=".7" stop-color="#6c7580"/><stop offset=".74" stop-color="#858e99"/><stop offset=".79" stop-color="#a2abb6"/><stop offset=".84" stop-color="#b4bdc8"/><stop offset=".88" stop-color="#bac3ce"/><stop offset="1" stop-color="#fff"/></linearGradient><path class="st5" d="M106.1 8.9c-54 0-97.8 43.8-97.8 97.8s43.8 97.8 97.8 97.8 97.8-43.8 97.8-97.8c-.1-53.9-43.8-97.7-97.8-97.8zm0 184.1c-47.6 0-86.3-38.6-86.3-86.2S58.4 20.5 106 20.5s86.3 38.6 86.3 86.2c0 47.7-38.6 86.3-86.2 86.3z"/><linearGradient id="SVGID_6_" gradientUnits="userSpaceOnUse" x1="39.507" y1="31.607" x2="183.236" y2="175.336" gradientTransform="matrix(1 0 0 -1 -5.59 209.76)"><stop offset="0" stop-color="#af8436"/><stop offset=".34" stop-color="#fef5ba"/><stop offset=".53" stop-color="#dfae45"/><stop offset=".81" stop-color="#fcd160"/><stop offset="1" stop-color="#b18638"/></linearGradient><path class="st6" d="M105.8 4.7C49.7 4.7 4.2 50.2 4.2 106.3c0 56.1 45.5 101.6 101.6 101.6 56.1 0 101.6-45.5 101.6-101.6 0-56.1-45.5-101.6-101.6-101.6zM106 196c-49.3 0-89.3-40-89.3-89.3s40-89.3 89.3-89.3 89.3 40 89.3 89.3-40 89.3-89.3 89.3z"/><linearGradient id="SVGID_7_" gradientUnits="userSpaceOnUse" x1="5.546" y1="104.175" x2="216.612" y2="104.175" gradientTransform="matrix(1 0 0 -1 -5.59 209.76)"><stop offset="0" stop-color="#fff"/><stop offset="0" stop-color="#f7fdff"/><stop offset=".03" stop-color="#dbe3e6"/><stop offset=".09" stop-color="#94a1a8"/><stop offset=".1" stop-color="#929fa6"/><stop offset=".13" stop-color="#95a1a8"/><stop offset=".14" stop-color="#9da9af"/><stop offset=".16" stop-color="#abb5bb"/><stop offset=".17" stop-color="#bfc7cb"/><stop offset=".18" stop-color="#dadee1"/><stop offset=".19" stop-color="#fafafb"/><stop offset=".2" stop-color="#fff"/><stop offset=".34" stop-color="#f7fdff"/><stop offset=".39" stop-color="#bbc0c4"/><stop offset=".45" stop-color="#6e7479"/><stop offset=".5" stop-color="#3e444a"/><stop offset=".52" stop-color="#2c3138"/><stop offset=".56" stop-color="#353a42"/><stop offset=".63" stop-color="#4c535c"/><stop offset=".7" stop-color="#6c7580"/><stop offset=".74" stop-color="#858e99"/><stop offset=".79" stop-color="#a2abb6"/><stop offset=".84" stop-color="#b4bdc8"/><stop offset=".88" stop-color="#bac3ce"/><stop offset="1" stop-color="#fff"/></linearGradient><path class="st7" d="M104.9 187.4c-1.8 0-3.5 0-5.3-.2l.1-1.1c1.7.1 3.5.2 5.2.2v1.1zm5.4-.2l-.1-1c1.7-.1 3.5-.3 5.2-.5l.1 1.1c-1.7.1-3.4.3-5.2.4zm-16-.5c-1.8-.2-3.5-.5-5.3-.9l.2-1c1.7.3 3.5.6 5.2.9l-.1 1zm26.5-.9l-.2-1 5.1-1.2.3 1c-1.7.5-3.4.9-5.2 1.2zm-37-1.1l-5.1-1.5.3-1c1.7.6 3.3 1.1 5 1.5l-.2 1zm47.4-1.6l-.3-1c1.6-.6 3.3-1.2 4.9-1.9l.4 1c-1.7.6-3.4 1.3-5 1.9zm-57.5-1.9c-1.6-.7-3.3-1.4-4.9-2.2l.5-.9c1.6.8 3.2 1.5 4.8 2.2l-.4.9zM141 179l-.5-.9c1.6-.8 3.1-1.6 4.6-2.5l.5.9c-1.4.8-3 1.7-4.6 2.5zm-76.9-2.5c-1.5-.9-3.1-1.8-4.5-2.8l.6-.9c1.5 1 3 1.9 4.5 2.8l-.6.9zm86.1-2.9l-.6-.9c1.5-1 2.9-2 4.3-3.1l.6.8c-1.3 1.2-2.8 2.2-4.3 3.2zm-95-3c-1.4-1.1-2.8-2.2-4.1-3.4l.7-.8c1.3 1.2 2.7 2.3 4.1 3.4l-.7.8zm103.4-3.5l-.7-.8c1.3-1.1 2.6-2.4 3.8-3.6l.8.7c-1.2 1.4-2.5 2.5-3.9 3.7zm-111.4-3.5c-1.2-1.2-2.5-2.6-3.7-3.9l.8-.7 3.6 3.9-.7.7zm119-4l-.8-.7c1.1-1.3 2.3-2.7 3.3-4.1l.8.6c-1 1.4-2.1 2.8-3.3 4.2zm-126-4c-1.1-1.4-2.1-2.9-3.1-4.3l.9-.6c1 1.4 2 2.9 3.1 4.3l-.9.6zm132.6-4.5l-.9-.6c1-1.5 1.9-3 2.8-4.5l.9.5c-.9 1.6-1.9 3.1-2.8 4.6zm-138.5-4.4c-.9-1.5-1.7-3.1-2.5-4.7l.9-.5c.8 1.6 1.6 3.1 2.5 4.6l-.9.6zm143.8-4.8l-1-.5c.8-1.6 1.5-3.2 2.2-4.8l1 .4c-.7 1.6-1.4 3.3-2.2 4.9zm-148.6-4.7c-.7-1.6-1.3-3.3-1.9-5l1-.3c.6 1.6 1.2 3.3 1.9 4.9l-1 .4zm152.7-5.2l-1-.3c.6-1.7 1.1-3.4 1.5-5l1 .3c-.5 1.6-1 3.3-1.5 5zM26 127.1c-.5-1.7-.9-3.5-1.2-5.2l1-.2c.3 1.7.7 3.5 1.2 5.1l-1 .3zm158.9-5.4l-1-.2c.3-1.7.6-3.5.9-5.2l1 .1c-.3 1.8-.6 3.5-.9 5.3zM24 116.6c-.2-1.8-.4-3.5-.5-5.3l1-.1c.1 1.8.3 3.5.5 5.2l-1 .2zm162.3-5.5l-1.1-.1c.1-1.8.2-3.5.2-5.3v-.2h1v.2c0 1.8 0 3.6-.1 5.4zm-162-5.1h-1v-.1c0-1.7 0-3.5.2-5.2l1 .1c-.1 1.7-.2 3.4-.2 5.2zm160.9-5.7c-.1-1.8-.3-3.5-.5-5.2l1-.1c.2 1.8.4 3.5.5 5.3h-1zM25 95.4l-1-.1c.2-1.8.5-3.5.9-5.3l1 .2c-.4 1.8-.7 3.5-.9 5.2zm158.8-5.6c-.3-1.7-.8-3.4-1.2-5.1l1-.3c.5 1.7.9 3.4 1.2 5.2l-1 .2zM27 85.1l-1-.3 1.5-5.1 1 .3c-.5 1.8-1.1 3.4-1.5 5.1zm154.1-5.4c-.6-1.7-1.2-3.3-1.9-4.9l1-.4c.7 1.6 1.3 3.3 1.9 5l-1 .3zM30.3 75.1l-.9-.3c.7-1.6 1.4-3.3 2.2-4.9l.9.5c-.7 1.5-1.5 3.1-2.2 4.7zM177 70c-.8-1.6-1.6-3.1-2.5-4.6l.9-.5c.9 1.5 1.7 3.1 2.5 4.7l-.9.4zM35 65.7l-.9-.5c.9-1.5 1.8-3.1 2.8-4.5l.9.6c-1 1.3-1.9 2.8-2.8 4.4zm136.7-4.8c-1-1.5-2-2.9-3.1-4.3l.8-.6c1.1 1.4 2.1 2.9 3.1 4.3l-.8.6zm-130.9-4l-.8-.7c1.1-1.4 2.2-2.8 3.4-4.1l.8.7c-1.2 1.3-2.3 2.7-3.4 4.1zm124.4-4.4c-1.2-1.3-2.4-2.6-3.6-3.8l.7-.8c1.3 1.2 2.5 2.5 3.7 3.9l-.8.7zM47.8 48.9l-.8-.7c1.2-1.3 2.6-2.5 3.9-3.7l.7.8c-1.3 1.2-2.6 2.5-3.8 3.6zm110-3.8c-1.3-1.2-2.7-2.3-4.1-3.3l.6-.8c1.4 1.1 2.8 2.2 4.1 3.4l-.6.7zM55.7 42l-.7-.8c1.4-1.1 2.9-2.1 4.4-3.1l.6.9c-1.5.9-2.9 1.9-4.3 3zm93.7-3.2c-1.4-1-3-1.9-4.5-2.8l.5-.9c1.5.9 3.1 1.8 4.5 2.8l-.5.9zm-85-2.7l-.5-.9c1.5-.9 3.1-1.7 4.7-2.5l.5.9c-1.6.8-3.2 1.6-4.7 2.5zm75.9-2.6c-1.6-.8-3.2-1.5-4.8-2.2l.4-1c1.6.7 3.3 1.4 4.9 2.2l-.5 1zm-66.5-2l-.4-1c1.6-.7 3.3-1.3 5-1.9l.3 1c-1.6.5-3.2 1.2-4.9 1.9zm56.7-2c-1.6-.6-3.4-1.1-5-1.5l.3-1 5.1 1.5-.4 1zM83.8 28l-.3-1c1.7-.5 3.5-.9 5.2-1.2l.2 1-5.1 1.2zm36.6-1.2c-1.7-.3-3.5-.6-5.2-.8l.1-1c1.8.2 3.5.5 5.3.9l-.2.9zM94.1 26l-.1-1c1.8-.2 3.5-.4 5.3-.5l.1 1c-1.8.1-3.5.3-5.3.5zm15.8-.6c-1.7-.1-3.4-.1-5.1-.1h-.2v-1.1h.2c1.7 0 3.5.1 5.2.2l-.1 1zm84.6 80.6v-.5H192v.5h2.5zm0 1.2v-.5H192v.5h2.5zm0 1.3v-.5l-2.5-.1v.5l2.5.1zm0 1.2v-.5l-2.5-.1v.5l2.5.1zm3.4-3.3v-.9h-2.5v.9h2.5zm0 1.2v-.9h-2.5v.9h2.5zm0 1.1v-.9l-2.5-.1v.9l2.5.1zm0 1.1v-.9l-2.5-.1v.9l2.5.1zm4.3-4v-.3h-3.5v.2l3.5.1zm0 .6v-.3h-3.5v.3h3.5zm0 .6v-.3h-3.5v.3h3.5zm0 .6v-.3l-3.5-.1v.3l3.5.1zm0 .6v-.3l-3.5-.1v.3l3.5.1zm0 .6v-.3l-3.5-.1v.3l3.5.1zm0 .6v-.3l-3.5-.1v.3l3.5.1zm0 .6v-.3l-3.5-.2v.2l3.5.3zm0 .6v-.3l-3.5-.2v.3l3.5.2zm0 .6v-.3l-3.5-.2v.3l3.5.2zm-8 5.2l.1-.5-2.5-.3-.1.5 2.5.3zm-.1 1.2l.1-.5-2.5-.3-.1.5 2.5.3zm-.6 1.2l.1-.5-2.5-.4-.1.5 2.5.4zm-.2 1.2l.1-.5-2.5-.4-.1.5 2.5.4zm3.8-2.9l.1-.9-2.5-.3-.1.9 2.5.3zm-.2 1.1l.1-.9-2.5-.3-.1.9 2.5.3zm-.2 1.2l.1-.9-2.5-.3-.1.9 2.5.3zm-.1 1.1l.1-.9-2.5-.4-.1.9 2.5.4zm4.8-3.5v-.3l-3.4-.4v.2l3.4.5zm-.1.6v-.3l-3.4-.4v.2l3.4.5zm-.1.6v-.3l-3.4-.4v.3l3.4.4zm-.1.5v-.3l-3.4-.5v.3l3.4.5zm-.1.6v-.3l-3.4-.5v.2l3.4.6zm-.1.6v-.3l-3.4-.5v.2l3.4.6zm-.1.6v-.3l-3.4-.5v.3l3.4.5zm0 .6v-.3l-3.4-.6v.3l3.4.6zm-.1.6v-.3l-3.4-.6v.3l3.4.6zm-.1.6v-.3l-3.4-.6v.2l3.4.7zm-8.6 4.2l.1-.5-2.4-.6-.1.5 2.4.6zm-.3 1.3l.1-.5-2.4-.6-.1.5 2.4.6zm-.3 1.1l.1-.5-2.4-.6-.1.5 2.4.6zm-.3 1.2l.1-.5-2.4-.7-.1.5 2.4.7zm4-2.4l.2-.9-2.4-.6-.2.8 2.4.7zm-.3 1.1l.2-.9-2.4-.6-.2.8 2.4.7zm-.3 1.1l.2-.9-2.4-.6-.2.8 2.4.7zm-.3 1.1l.2-.9-2.4-.7-.2.8 2.4.8zm5.2-2.9l.1-.3-3.4-.8-.1.2 3.4.9zm-.2.6l.1-.3-3.4-.8-.1.2 3.4.9zm-.1.5l.1-.3-3.4-.8-.1.2 3.4.9zm-.2.6l.1-.3-3.4-.9-.1.2 3.4 1zm-.2.6l.1-.3-3.4-.9-.1.2 3.4 1zm-.1.6l.1-.3-3.4-.9-.1.2 3.4 1zm-.2.5l.1-.3-3.3-.9-.1.2 3.3 1zm-.1.6l.1-.3-3.3-.9-.1.2 3.3 1zm-.2.6l.1-.3-3.3-1-.1.2 3.3 1.1zm-.1.6l.1-.3-3.3-1-.1.2 3.3 1.1zm-9 3.2l.2-.5-2.4-.9-.2.4 2.4 1zm-.5 1.1l.2-.5-2.4-.9-.2.4 2.4 1zm-.4 1.2l.2-.5-2.3-.9-.2.4 2.3 1zm-.5 1.1l.2-.5-2.3-1-.2.4 2.3 1.1zm4.3-1.9l.3-.8-2.4-.9-.3.8 2.4.9zm-.4 1l.3-.8-2.4-.9-.3.8 2.4.9zm-.4 1.1l.3-.8-2.3-.9-.3.8 2.3.9zm-.5 1l.3-.8-2.3-1-.3.8 2.3 1zm5.5-2.3l.1-.2-3.2-1.2-.1.2 3.2 1.2zm-.2.6l.1-.2-3.2-1.2-.1.2 3.2 1.2zm-.2.5l.1-.2-3.2-1.2-.1.2 3.2 1.2zm-.3.6l.1-.2-3.2-1.2-.1.2 3.2 1.2zm-.2.5l.1-.2-3.2-1.3-.1.2 3.2 1.3zm-.2.6l.1-.2-3.2-1.3-.1.2 3.2 1.3zm-.2.5l.1-.2-3.2-1.3-.1.2 3.2 1.3zm-.2.6l.1-.2-3.2-1.3-.1.2 3.2 1.3zm-.3.5l.1-.2-3.2-1.4-.1.2 3.2 1.4zm-.2.6l.1-.2-3.2-1.4-.1.2 3.2 1.4zm-9.3 2.1l.2-.4-2.2-1.1-.2.4 2.2 1.1zm-.6 1.1l.2-.4-2.2-1.2-.2.4 2.2 1.2zm-.6 1.1l.2-.4-2.2-1.2-.2.4 2.2 1.2zm-.5 1.1l.2-.4-2.2-1.2-.2.4 2.2 1.2zm4.4-1.4l.4-.8-2.2-1.1-.4.8 2.2 1.1zm-.5 1l.4-.8-2.2-1.2-.4.8 2.2 1.2zm-.5 1l.4-.8-2.2-1.2-.4.8 2.2 1.2zm-.6 1l.4-.8-2.2-1.2-.4.8 2.2 1.2zm5.7-1.7l.1-.2-3.1-1.6-.1.2 3.1 1.6zm-.3.5l.1-.2-3.1-1.6-.1.2 3.1 1.6zm-.2.6l.1-.2-3.1-1.6-.1.2 3.1 1.6zm-.3.5l.1-.2-3.1-1.6-.1.2 3.1 1.6zm-.3.5l.1-.2-3-1.6-.1.2 3 1.6zm-.3.5l.1-.2-3-1.6-.1.2 3 1.6zm-.3.6l.1-.2-3-1.7-.1.2 3 1.7zm-.3.5l.1-.2-3-1.7-.1.2 3 1.7zm-.2.5l.1-.2-3-1.7-.1.2 3 1.7zm-.3.5l.1-.2-3-1.7-.1.2 3 1.7zm-9.5 1l.3-.4-2.1-1.4-.3.4 2.1 1.4zm-.7 1l.3-.4-2.1-1.4-.3.4 2.1 1.4zm-.7 1l.3-.4-2-1.4-.3.4 2 1.4zm-.7 1l.3-.4-2.1-1.5-.3.4 2.1 1.5zm4.6-.8l.5-.7-2.1-1.4-.5.7 2.1 1.4zm-.7.9l.5-.7-2.1-1.4-.5.7 2.1 1.4zm-.6.9l.5-.7-2-1.3-.5.7 2 1.3zm-.7 1l.5-.7-2.1-1.5-.5.7 2.1 1.5zm5.9-1l.2-.2-2.9-1.8-.1.2 2.8 1.8zm-.4.4l.2-.2-2.9-1.9-.1.2 2.8 1.9zm-.3.5l.2-.2-2.9-1.9-.1.2 2.8 1.9zm-.4.5l.2-.2-2.9-2-.1.2 2.8 2zm-.3.5l.1-.2-2.8-2-.1.2 2.8 2zm-.3.5l.1-.2-2.8-2-.1.2 2.8 2zm-.4.5l.1-.2-2.8-2-.1.2 2.8 2zm-.3.5l.2-.2-2.8-2-.1.2 2.7 2zm-.4.4l.2-.2-2.8-2-.1.2 2.7 2zm-.3.5l.1-.2-2.8-2.1-.1.2 2.8 2.1zm-9.6 0l.3-.4-1.9-1.6-.3.4 1.9 1.6zm-.8.9l.3-.4-1.9-1.6-.3.4 1.9 1.6zm-.8.9l.3-.4-1.9-1.7-.3.4 1.9 1.7zm-.8.9l.3-.4-1.8-1.6-.3.4 1.8 1.6zm4.7-.3l.6-.7-1.9-1.6-.6.6 1.9 1.7zm-.8.8l.6-.7-1.9-1.6-.6.6 1.9 1.7zm-.7.9l.6-.7-1.9-1.7-.6.6 1.9 1.8zm-.8.8l.6-.7-1.8-1.6-.6.6 1.8 1.7zm5.9-.3l.2-.2-2.6-2.2-.2.2 2.6 2.2zm-.4.5l.2-.2-2.6-2.2-.2.2 2.6 2.2zm-.4.4l.2-.2-2.6-2.3-.2.2 2.6 2.3zm-.4.5l.2-.2-2.6-2.3-.2.2 2.6 2.3zm-.4.4l.2-.2-2.6-2.3-.2.2 2.6 2.3zm-.4.5l.2-.2-2.6-2.3-.2.2 2.6 2.3zm-.4.4l.2-.2-2.6-2.3-.2.2 2.6 2.3zm-.4.4l.2-.2-2.6-2.3-.2.2 2.6 2.3zm-.3.5l.2-.2-2.5-2.4-.2.2 2.5 2.4zm-.4.4l.2-.2-2.5-2.4-.2.2 2.5 2.4zm-9.5-1.1l.4-.3-1.7-1.8-.4.3 1.7 1.8zm-.9.8l.4-.3-1.7-1.9-.4.3 1.7 1.9zm-1 .8l.4-.3-1.7-1.9-.4.3 1.7 1.9zm-.9.8l.4-.3-1.6-1.9-.4.3 1.6 1.9zm4.7.2l.7-.6-1.7-1.8-.6.6 1.6 1.8zm-.8.8l.7-.6-1.7-1.9-.6.6 1.6 1.9zm-.9.7l.7-.6-1.7-1.8-.6.6 1.6 1.8zm-.8.8l.7-.6-1.6-1.9-.6.6 1.5 1.9zm5.9.4l.2-.2-2.4-2.5-.2.2 2.4 2.5zm-.5.4l.2-.2-2.4-2.5-.2.2 2.4 2.5zm-.4.4l.2-.2-2.3-2.6-.2.2 2.3 2.6zm-.5.4l.2-.2-2.3-2.6-.2.2 2.3 2.6zm-.4.4l.2-.2-2.3-2.5-.2.2 2.3 2.5zm-.4.4l.2-.2-2.3-2.6-.2.2 2.3 2.6zm-.5.4l.2-.2-2.3-2.6-.2.2 2.3 2.6zm-.4.5l.2-.2-2.3-2.6-.2.2 2.3 2.6zm-.4.4l.2-.2-2.2-2.6-.2.2 2.2 2.6zm-.5.3l.2-.2-2.2-2.6-.2.2 2.2 2.6zm-9.3-2.2l.4-.3-1.5-2-.4.3 1.5 2zm-1 .7l.4-.3-1.5-2-.4.3 1.5 2zm-1 .7l.4-.3-1.4-2.1-.4.3 1.4 2.1zm-1 .7l.4-.3-1.4-2.1-.4.3 1.4 2.1zm4.7.8l.7-.5-1.5-2-.7.5 1.5 2zm-1 .6l.7-.5-1.5-2-.7.5 1.5 2zm-.9.7l.7-.5-1.5-2-.7.5 1.5 2zm-.9.6l.7-.5-1.4-2.1-.7.5 1.4 2.1zm5.8 1.1l.2-.1-2.1-2.8-.2.1 2.1 2.8zm-.5.3l.2-.1-2.1-2.8-.2.1 2.1 2.8zm-.5.4l.2-.1-2-2.8-.2.1 2 2.8zm-.5.3l.2-.2-2-2.8-.2.1 2 2.9zm-.5.4l.2-.2-2-2.8-.2.1 2 2.9zm-.4.3l.2-.2-2-2.8-.2.1 2 2.9zm-.5.3l.2-.2-2-2.9-.2.1 2 3zm-.5.4l.2-.1-1.9-2.9-.2.1 1.9 2.9zm-.5.3l.2-.1-1.9-2.9-.2.1 1.9 2.9zm-.5.4l.2-.1-1.9-2.9-.2.1 1.9 2.9zm-9-3.4l.4-.2-1.3-2.2-.4.2 1.3 2.2zm-1.1.6l.4-.2-1.2-2.2-.4.2 1.2 2.2zm-1 .6l.4-.2-1.2-2.2-.4.2 1.2 2.2zm-1.1.6l.4-.2-1.2-2.2-.4.2 1.2 2.2zm4.5 1.3l.8-.4-1.3-2.2-.8.4 1.3 2.2zm-1 .5l.8-.4-1.2-2.2-.8.4 1.2 2.2zm-1 .5l.8-.4-1.2-2.2-.8.4 1.2 2.2zm-1 .6l.8-.4-1.2-2.2-.8.4 1.2 2.2zm5.7 1.7l.2-.1-1.7-3-.2.1 1.7 3zm-.6.3l.2-.1-1.7-3-.2.1 1.7 3zm-.5.3l.2-.1-1.7-3-.2.1 1.7 3zm-.5.3l.2-.1-1.7-3-.2.1 1.7 3zm-.5.3l.2-.1-1.7-3-.2.1 1.7 3zm-.6.2l.2-.1-1.7-3.1-.2.1 1.7 3.1zm-.5.3l.2-.1-1.6-3.1-.2.1 1.6 3.1zm-.5.3l.2-.1-1.6-3.1-.2.1 1.6 3.1zm-.5.3l.2-.1-1.6-3.1-.2.1 1.6 3.1zm-.6.3l.2-.1-1.6-3.1-.2.1 1.6 3.1zm-8.5-4.4l.5-.2-1-2.3-.4.2.9 2.3zm-1.1.5l.5-.2-1-2.3-.4.2.9 2.3zm-1.1.4l.5-.2-.9-2.3-.4.2.8 2.3zm-1.2.5l.5-.2-.9-2.3-.4.2.8 2.3zm4.3 1.8l.8-.3-1-2.3-.8.3 1 2.3zm-1 .4l.8-.3-1-2.3-.8.3 1 2.3zm-1.1.4l.8-.3-.9-2.3-.8.3.9 2.3zm-1 .4l.8-.3-.9-2.4-.8.3.9 2.4zm5.4 2.4l.2-.1-1.4-3.2-.2.1 1.4 3.2zm-.6.3l.2-.1-1.4-3.2-.2.1 1.4 3.2zm-.5.2l.2-.1-1.3-3.2-.2.1 1.3 3.2zm-.6.2l.2-.1-1.3-3.2-.2.1 1.3 3.2zm-.5.2l.2-.1-1.3-3.2-.2.1 1.3 3.2zm-.6.2l.2-.1-1.3-3.2-.2.1 1.3 3.2zm-.5.3l.2-.1-1.2-3.2-.2.1 1.2 3.2zm-.6.2l.2-.1-1.2-3.2-.2.1 1.2 3.2zm-.5.2l.2-.1-1.2-3.2-.2.1 1.2 3.2zm-.6.2l.2-.1-1.2-3.2-.2.1 1.2 3.2zm-7.9-5.3l.5-.1-.7-2.4-.5.1.7 2.4zm-1.2.3l.5-.1-.7-2.4-.5.1.7 2.4zm-1.2.3l.5-.1-.6-2.4-.5.1.6 2.4zm-1.2.3l.5-.1-.6-2.4-.5.1.6 2.4zm4.1 2.4l.9-.2-.7-2.4-.8.2.6 2.4zm-1.1.2l.9-.2-.7-2.4-.8.2.6 2.4zm-1.1.3l.9-.2-.7-2.4-.8.2.6 2.4zm-1.1.3l.9-.2-.6-2.4-.8.2.5 2.4zm5.1 3l.3-.1-1-3.3-.2.1.9 3.3zm-.6.2l.3-.1-1-3.3-.2.1.9 3.3zm-.5.1l.3-.1-1-3.3-.2.1.9 3.3zm-.6.2l.3-.1-.9-3.3-.2.1.8 3.3zm-.6.1l.3-.1-.9-3.3-.2.1.8 3.3zm-.6.2l.3-.1-.9-3.4-.2.1.8 3.4zm-.5.1l.3-.1-.9-3.4-.2.1.8 3.4zm-.6.2l.3-.1-.8-3.4-.2.1.7 3.4zm-.6.1l.3-.1-.8-3.4-.2.1.7 3.4zm-.6.2l.3-.1-.8-3.4-.2.1.7 3.4zm-7.2-6.2l.5-.1-.4-2.5-.5.1.4 2.5zm-1.2.2l.5-.1-.4-2.5-.5.1.4 2.5zm-1.3.1l.5-.1-.4-2.5-.5.1.4 2.5zm-1.2.2l.5-.1-.3-2.5-.5.1.3 2.5zm3.8 2.8l.9-.1-.4-2.5-.9.1.4 2.5zm-1.1.2l.9-.1-.4-2.5-.9.1.4 2.5zm-1.1.1l.9-.1-.4-2.5-.9.1.4 2.5zm-1.1.2l.9-.1-.3-2.5-.9.1.3 2.5zm4.7 3.6h.3l-.6-3.4h-.3l.6 3.4zm-.6.1h.3l-.6-3.4h-.3l.6 3.4zm-.6 0h.3l-.6-3.4h-.3l.6 3.4zm-.6.1h.3l-.5-3.4h-.2l.4 3.4zm-.6.1h.3l-.5-3.4h-.3l.5 3.4zm-.6.1h.3l-.5-3.4h-.3l.5 3.4zm-.6.1h.3l-.5-3.4h-.3l.5 3.4zm-.5.1h.3l-.4-3.4h-.2l.3 3.4zm-.6 0h.3l-.4-3.4h-.3l.4 3.4zm-.6.1h.3l-.4-3.4h-.3l.4 3.4zm-6.5-7h.5l-.1-2.5h-.5l.1 2.5zm-1.3 0h.5l-.1-2.5h-.5l.1 2.5zm-1.2 0h.5l-.1-2.5h-.5l.1 2.5zm-1.2 0h.5v-2.5h-.5v2.5zm3.5 3.2h.9l-.1-2.5h-.9l.1 2.5zm-1.2 0h.9l-.1-2.5h-.9l.1 2.5zm-1.1 0h.9l-.1-2.5h-.9l.1 2.5zm-1.2.2h.9v-2.5h-.9v2.5zm4.3 4.1h.3l-.2-3.5h-.3l.2 3.5zm-.6 0h.3l-.2-3.5h-.2l.1 3.5zm-.6 0h.3l-.2-3.5h-.2l.1 3.5zm-.6 0h.3l-.1-3.5h-.3l.1 3.5zm-.6 0h.3l-.1-3.5h-.3l.1 3.5zm-.6 0h.3l-.1-3.5h-.3l.1 3.5zm-.6 0h.3l-.1-3.5h-.3l.1 3.5zm-.6 0h.3v-3.5h-.3v3.5zm-.6 0h.3v-3.5h-.3v3.5zm-.6 0h.3v-3.5h-.2l-.1 3.5zm-5.6-7.7h.5l.1-2.5-.5-.1-.1 2.6zm-1.2-.2l.5.1.2-2.5h-.5l-.2 2.4zm-1.3-.1h.5l.2-2.5h-.5l-.2 2.5zm-1.2-.1h.5l.2-2.5h-.5l-.2 2.5zm3 3.6l.9.1.1-2.5-.9-.1-.1 2.5zm-1.1-.1l.9.1.2-2.5-.9-.1-.2 2.5zm-1.1-.1l.9.1.2-2.5-.9-.1-.2 2.5zm-1.2-.1l.9.1.2-2.5-.9-.1-.2 2.5zm3.8 4.6h.3l.2-3.5h-.3l-.2 3.5zm-.6-.1h.3l.2-3.4H99l-.2 3.4zm-.6 0h.3l.2-3.4h-.3l-.2 3.4zm-.6 0h.3l.3-3.4h-.3l-.3 3.4zm-.6-.1h.3l.3-3.5h-.3l-.3 3.5zm-.6 0h.3l.3-3.4h-.3l-.3 3.4zm-.6 0h.3l.3-3.4h-.3l-.3 3.4zm-.6-.1h.3l.4-3.4h-.3l-.4 3.4zm-.5-.1h.3l.4-3.4H95l-.3 3.4zm-.6 0h.3l.4-3.4h-.2l-.5 3.4zm-4.7-8.2l.5.1.4-2.5-.5-.1-.4 2.5zm-1.2-.3l.5.1.5-2.5-.5-.1-.5 2.5zm-1.2-.2l.5.1.5-2.5-.5-.1-.5 2.5zm-1.2-.3l.5.1.5-2.5-.5-.1-.5 2.5zm2.6 3.9l.9.2.4-2.5-.9-.2-.4 2.5zm-1.1-.2l.9.2.5-2.5-.8-.2-.6 2.5zm-1.1-.2l.9.2.5-2.5-.8-.2-.6 2.5zm-1.1-.3l.9.2.5-2.5-.9-.2-.5 2.5zm3.2 5l.3.1.6-3.4-.2-.1-.7 3.4zm-.6-.1l.3.1.6-3.4-.2-.1-.7 3.4zm-.6-.1l.3.1.6-3.4-.2-.1-.7 3.4zm-.5-.1l.3.1.7-3.4-.3-.1-.7 3.4zm-.6-.1l.3.1.7-3.4h-.3l-.7 3.3zm-.6-.2l.3.1.8-3.4-.2-.1-.9 3.4zm-.6-.1h.3l.7-3.4-.2-.1-.8 3.5zm-.6-.1h.3l.8-3.4H85l-.8 3.4zm-.6-.1l.3.1.8-3.4h-.2l-.9 3.3zm-.5-.2l.3.1.8-3.4-.3-.1-.8 3.4zm-3.8-8.8l.5.1.7-2.4-.4-.2-.8 2.5zm-1.1-.3l.5.2.8-2.4-.5-.1-.8 2.3zm-1.2-.4l.5.2.8-2.4-.5-.1-.8 2.3zm-1.1-.4l.5.2.8-2.4-.5-.1-.8 2.3zm2.1 4.2l.9.3.7-2.4-.8-.3-.8 2.4zm-1.1-.4l.9.3.8-2.4-.8-.3-.9 2.4zm-1-.4l.8.3.8-2.4-.8-.3-.8 2.4zm-1.1-.3l.8.3.8-2.4-.8-.3-.8 2.4zm2.6 5.3l.3.1 1-3.3-.2-.1-1.1 3.3zm-.5-.2l.2.1 1-3.3-.2-.1-1 3.3zm-.6-.2l.3.1 1-3.3-.2-.1-1.1 3.3zm-.6-.2l.3.1 1.1-3.3-.2-.1-1.2 3.3zm-.5-.2l.2.1 1.1-3.3-.2-.1-1.1 3.3zm-.6-.2l.3.1 1.1-3.3-.2-.1-1.2 3.3zm-.6-.2l.2.1 1.1-3.3-.2-.1-1.1 3.3zm-.5-.2l.3.1 1.1-3.3-.2-.1-1.2 3.3zm-.6-.2l.2.1 1.2-3.3-.2-.1-1.2 3.3zm-.6-.1l.3.1 1.2-3.3-.2-.1-1.3 3.3zm-2.6-9.2l.4.2 1-2.3-.4-.2-1 2.3zm-1.1-.5l.4.2 1-2.3-.4-.2-1 2.3zm-1.1-.6l.4.2 1.1-2.3-.4-.2-1.1 2.3zm-1.1-.5l.4.2 1.1-2.3-.4-.2-1.1 2.3zm1.6 4.4l.8.4 1-2.3-.8-.4-1 2.3zm-1-.5l.8.4 1-2.3-.8-.4-1 2.3zm-1-.5l.8.4 1.1-2.3-.8-.4-1.1 2.3zm-1-.4l.8.4 1.1-2.3-.8-.4-1.1 2.3zm2 5.6l.2.1 1.4-3.2-.2-.1L67 194zm-.5-.3l.2.1 1.4-3.2-.2-.1-1.4 3.2zm-.6-.3l.2.1 1.2-3.2-.2-.1-1.2 3.2zm-.5-.2l.2.1 1.4-3.1-.2-.1-1.4 3.1zm-.6-.3l.2.1 1.3-3.1-.2-.1-1.3 3.1zm-.5-.2l.2.1 1.5-3.1-.2-.1-1.5 3.1zm-.5-.3l.2.1 1.5-3.1-.2-.1-1.5 3.1zm-.6-.2l.2.1 1.5-3.1-.2-.1-1.5 3.1zm-.5-.3l.2.1 1.5-3.1-.2-.1-1.5 3.1zm-.5-.2l.2.1 1.6-3.1-.2-.1-1.6 3.1zm-1.8-9.5l.4.3 1.3-2.2-.4-.3-1.3 2.2zm-1-.6l.4.3 1.3-2.1-.4-.3-1.3 2.1zm-1-.6l.4.3 1.3-2.1-.4-.2-1.3 2zm-1-.7l.4.3 1.3-2.1-.4-.3-1.3 2.1zm1 4.6l.8.5 1.2-2.2-.7-.4-1.3 2.1zm-1-.6l.8.5 1.3-2.2-.7-.5-1.4 2.2zm-1-.6l.8.5 1.3-2.1-.7-.5-1.4 2.1zm-1-.6l.8.5 1.3-2.1-.7-.5-1.4 2.1zm1.3 5.7l.2.1 1.7-3-.2-.1-1.7 3zm-.5-.3l.2.1 1.8-3-.2-.1-1.8 3zm-.5-.3l.2.1 1.8-3-.2-.1-1.8 3zm-.5-.3l.2.1 1.8-3-.2-.1-1.8 3zm-.5-.3l.2.1 1.9-3-.2-.1-1.9 3zm-.5-.3l.2.1 2-2.9-.2-.1-2 2.9zm-.5-.3l.2.1 1.8-2.9-.2-.1-1.8 2.9zm-.5-.4l.2.1 2-2.9-.2-.1-2 2.9zm-.5-.3l.2.1 1.9-2.9-.2-.1-1.9 2.9zm-.5-.3l.2.1 2-2.9-.2-.1-2 2.9zm-.5-9.5l.4.3 1.5-2-.4-.3-1.5 2zm-1-.8l.4.3 1.5-2-.3-.3-1.6 2zm-1-.8l.4.3 1.6-2-.4-.3-1.6 2zm-1-.7l.4.3 1.6-2-.4-.3-1.6 2zm.6 4.6l.7.6 1.5-2-.7-.5-1.5 1.9zm-.9-.7l.7.6 1.5-2-.7-.5-1.5 1.9zm-.9-.7l.7.6 1.6-2-.7-.5-1.6 1.9zm-.8-.7l.7.6 1.6-1.9-.7-.5-1.6 1.8zm.6 5.9l.2.2 2.1-2.8-.2-.2-2.1 2.8zm-.5-.4l.2.2 2.1-2.8-.2-.2-2.1 2.8zm-.5-.3l.2.2 2.1-2.7-.2-.2-2.1 2.7zm-.4-.4l.2.2 2.3-2.7-.2-.2-2.3 2.7zm-.5-.4l.2.2 2.2-2.7-.2-.2-2.2 2.7zm-.4-.3l.2.2 2.2-2.7-.2-.2-2.2 2.7zm-.5-.4l.2.2 2.2-2.7-.2-.2-2.2 2.7zm-.5-.4l.2.2 2.2-2.7-.2-.2L44 180zm-.4-.4l.2.2 2.2-2.7-.2-.2-2.2 2.7zm-.5-.3l.2.2 2.4-2.7-.2-.2-2.4 2.7zm.6-9.6l.3.4 1.7-1.8-.3-.4-1.7 1.8zm-.8-.8l.3.4 1.8-1.8-.3-.3-1.8 1.7zm-.9-.9l.3.4 1.8-1.8-.3-.3L42 168zm-.8-.9l.3.4 2-1.7-.3-.3-2 1.6zm0 4.7l.6.6 1.7-1.8-.6-.6-1.7 1.8zm-.8-.8l.6.6 1.8-1.8-.6-.6-1.8 1.8zm-.9-.8l.6.6 1.8-1.8-.6-.6-1.8 1.8zm-.8-.8l.6.6 1.8-1.8-.6-.6-1.8 1.8zm0 5.9l.2.2 2.4-2.5-.2-.2-2.4 2.5zm-.4-.4l.2.2 2.4-2.5-.2-.2-2.4 2.5zm-.5-.4l.2.2 2.4-2.5-.2-.2-2.4 2.5zm-.4-.4l.2.2 2.7-2.5-.2-.2-2.7 2.5zm-.4-.4l.2.2 2.5-2.4-.2-.2-2.5 2.4zm-.4-.5l.2.2 2.5-2.4-.2-.2-2.5 2.4zm-.4-.4l.2.2 2.5-2.4-.2-.2-2.5 2.4zm-.5-.4l.2.2 2.5-2.4-.2-.2-2.5 2.4zm-.4-.4l.2.2 2.5-2.4-.2-.2-2.5 2.4zm-.4-.5l.2.2 2.5-2.4-.2-.2-2.5 2.4zm1.7-9.4l.3.4 1.9-1.6-.3-.4-1.9 1.6zm-.7-1l.3.4 2.2-1.6-.3-.4-2.2 1.6zm-.8-1l.3.4 2-1.6-.3-.4-2 1.6zm-.7-1l.3.4 2-1.5-.3-.4-2 1.5zm-.5 4.7l.6.7 1.9-1.6-.5-.7-2 1.6zm-.7-.9l.5.7 2-1.6-.3-.6-2.2 1.5zm-.7-.9l.5.7 2-1.6-.5-.7-2 1.6zm-.7-.9l.5.7 2-1.5-.5-.7-2 1.5zM31 167l.2.2 2.7-2.2-.2-.2L31 167zm-.3-.5l.2.2 2.7-2.2-.2-.2-2.7 2.2zm-.4-.4l.2.2 3-2.1-.2-.2-3 2.1zm-.4-.5l.2.2 2.7-2.2-.2-.2-2.7 2.2zm-.4-.5l.2.2 2.7-2.1-.2-.2-2.7 2.1zm-.1-.3l.2.2 2.7-2.1-.2-.2-2.7 2.1zm-.4-.5l.2.2 2.7-2.1-.2-.2-2.7 2.1zm-.3-.5l.2.2 2.8-2.1-.2-.2-2.8 2.1zm-.4-.4l.2.2 2.8-2.1-.2-.2-2.8 2.1zm-.4-.5l.2.2 2.8-2.1-.2-.2-2.8 2.1zm2.9-9.1l.2.4 2.1-1.4-.2-.4-2.1 1.4zm-.7-1l.3.4 2.1-1.3-.2-.4-2.2 1.3zm-.6-1l.3.4 2.1-1.4-.2-.4-2.2 1.4zm-.6-1l.3.4 2.2-1.4-.2-.4-2.3 1.4zm-1 4.5l.5.8 2.1-1.5-.5-.7-2.1 1.4zm-.6-1l.5.8 2.1-1.4-.5-.7-2.1 1.3zm-.6-1l.5.8 2.1-1.3-.5-.7-2.1 1.2zm-.6-1l.5.8 2.2-1.3-.5-.7-2.2 1.2zm-1.5 5.8l.1.2 2.9-1.9-.1-.2-2.9 1.9zm-.3-.5l.1.2 2.9-1.9-.1-.2-2.9 1.9zm-.3-.5l.1.2 2.9-1.9-.1-.2-2.9 1.9zm-.3-.5l.1.2 2.9-1.8-.2-.2-2.8 1.8zm-.3-.5l.1.2 2.9-1.8-.1-.2-2.9 1.8zm-.3-.6l.1.2 3-1.8-.2-.2-2.9 1.8zm-.3-.5l.1.2 3-1.8-.1-.2-3 1.8zm-.3-.5l.1.2 3-1.8-.2-.2-2.9 1.8zm-.3-.5l.1.2 3-1.8-.1-.2-3 1.8zm-.4-.5l.1.2 3-1.7-.2-.3-2.9 1.8zm3.9-8.7l.2.4 2.2-1.1-.2-.4-2.2 1.1zm-.6-1.2l.2.5 2.3-1.1-.2-.4-2.3 1zm-.5-1.1l.2.4 2.3-1.1-.2-.4-2.3 1.1zm-.5-1.1l.2.4 2.3-1-.2-.4-2.3 1zm-1.5 4.5l.4.8 2.2-1.1-.4-.8-2.2 1.1zm-.5-1l.4.8 2.3-1.1-.3-.8-2.4 1.1zm-.5-1l.4.8 2.3-1.1-.4-.8-2.3 1.1zm-.5-1l.4.8 2.3-1-.4-.9-2.3 1.1zm-2.1 5.5l.1.2 3.1-1.6-.1-.2-3.1 1.6zm-.2-.5l.1.2 3.1-1.5-.1-.2-3.1 1.5zm-.3-.6l.1.2 3.1-1.5-.1-.2-3.1 1.5zm-.2-.5l.1.2 3.1-1.5-.1-.2-3.1 1.5zm-.3-.5l.1.2 3.1-1.5-.1-.2-3.1 1.5zm-.2-.6l.1.2 3.1-1.4-.1-.2-3.1 1.4zm-.3-.5l.1.2 3.2-1.4-.1-.2-3.2 1.4zm-.2-.6l.1.1 3.2-1.4-.1-.2-3.2 1.5zm-.3-.5l.1.2 3.2-1.4-.1-.2-3.2 1.4zm-.2-.5l.1.2 3.2-1.4-.1-.2-3.2 1.4zm4.8-8.3l.2.5 2.4-.9-.1-.5-2.5.9zm-.3-1.1l.2.5 2.4-.8-.1-.4-2.5.7zm-.4-1.2l.1.5 2.4-.8-.1-.5-2.4.8zm-.4-1.2l.1.5 2.4-.8-.1-.5-2.4.8zm-2.1 4.1l.3.9 2.4-.9-.3-.8-2.4.8zm-.4-1.1l.3.9 2.4-.8-.3-.8-2.4.7zm-.3-1l.3.9 2.4-.8-.3-.8-2.4.7zm-.3-1.1l.3.9 2.4-.8-.3-.8-2.4.7zm-2.7 5.2l.1.3L18 137l-.1-.2-3.2 1.1zm-.2-.5l.1.2 3.3-1.1-.1-.2-3.3 1.1zm-.2-.6l.1.3 3.3-1.1-.1-.2-3.3 1zm-.2-.5l.1.2 3.3-1.1-.1-.2-3.3 1.1zm-.2-.6l.1.3 3.3-1.1-.1-.2-3.3 1zm-.1-.6l.1.2 3.3-1.1-.1-.2-3.3 1.1zm-.2-.5l.1.3 3.3-1.1-.1-.2-3.3 1zm-.2-.6l.1.2 3.3-1-.1-.2-3.3 1zm-.2-.6l.1.3 3.3-1-.1-.2-3.3.9zm-.2-.5l.1.3 3.3-1-.1-.2-3.3.9zm5.8-7.7l.1.5 2.5-.6-.1-.5-2.5.6zm-.2-1.2l.1.5 2.5-.5-.1-.5-2.5.5zm-.3-1.1l.1.5 2.5-.5-.1-.5-2.5.5zm-.2-1.2l.1.5 2.5-.5-.1-.5-2.5.5zm-2.6 3.9l.2.9 2.5-.6-.2-.9-2.5.6zm-.2-1.1l.2.9 2.5-.5-.2-.9-2.5.5zm-.2-1.1l.2.9 2.5-.5-.2-.9-2.5.5zm-.2-1.2l.2.9 2.5-.5-.2-.8-2.5.4zm-3.4 5v.3l3.4-.8v-.2l-3.4.7zm-.1-.6v.3l3.4-.8v-.2l-3.4.7zm-.1-.6l.1.3 3.4-.7v-.2l-3.5.6zm-.2-.6l.1.3 3.4-.7v-.3l-3.5.7zm-.1-.6v.3l3.4-.7v-.3l-3.4.7zm-.1-.6v.3l3.4-.7v-.2l-3.4.6zm-.1-.5l.1.3 3.4-.7v-.2l-3.5.6zm-.1-.6v.3l3.4-.6-.1-.2-3.3.5zm-.1-.6v.3l3.4-.6v-.3l-3.4.6zm-.2-.6l.1.3 3.4-.6v-.3l-3.5.6zm6.7-6.9v.5l2.5-.3v-.5l-2.5.3zm-.1-1.2v.5l2.5-.2v-.5l-2.5.2zm-.1-1.2v.5l2.5-.2v-.5l-2.5.2zm-.1-1.2v.5l2.5-.2v-.5l-2.5.2zm-3 3.6l.1.9 2.5-.3-.1-.9-2.5.3zm-.1-1.1l.1.9 2.5-.2-.1-.9-2.5.2zm-.1-1.1l.1.9 2.5-.2-.1-.9-2.5.2zm-.1-1.2l.1.9 2.5-.2-.1-.9-2.5.2zm-3.8 4.5v.3l3.4-.4v-.2l-3.4.3zm-.1-.6v.3l3.5-.4v-.3l-3.5.4zm0-.6v.3l3.5-.3v-.3l-3.5.3zm0-.6v.3l3.4-.3v-.3l-3.4.3zm-.2-.5v.3l3.5-.3v-.3l-3.5.3zm0-.6v.3l3.5-.3v-.3l-3.5.3zm0-.6v.3l3.4-.2v-.3l-3.4.2zm0-.6v.3l3.4-.2v-.2l-3.4.1zm-.1-.6v.3l3.5-.2v-.3l-3.5.2zm0-.6v.3l3.5-.2v-.3l-3.5.2zm7.4-6.1v.5h2.5v-.5h-2.5zm0-1.2v.5h2.5v-.5h-2.5zm0-1.2v.5l2.5.1v-.5l-2.5-.1zm0-1.2v.5l2.5.1v-.5l-2.5-.1zm-3.4 3.2v.9h2.5v-.9h-2.5zm0-1.1v.9h2.5v-.9h-2.5zm0-1.2v.9l2.5.1v-.9l-2.5-.1zm0-1.1v.9l2.5.1v-.9l-2.5-.1zm-4.3 4v.3h3.5v-.2l-3.5-.1zm0-.6v.3h3.5v-.3H9zm0-.6v.3l3.5.1v-.3l-3.5-.1zm0-.6v.3l3.5.1v-.3l-3.5-.1zm0-.6v.2l3.5.1v-.3H9zm0-.6v.3l3.5.1v-.3l-3.5-.1zm0-.6v.3l3.5.2v-.3l-3.5-.2zm0-.6v.3l3.5.2v-.3l-3.5-.2zm0-.6v.3l3.5.2v-.3l-3.5-.2zm0-.6v.2l3.5.2v-.2L9 99.5zm8-5.1l-.1.5 2.5.3.1-.5-2.5-.3zm.2-1.2l-.1.5 2.5.3.1-.5-2.5-.3zm.2-1.3l-.1.5 2.5.4.1-.5-2.5-.4zm.1-1.2l-.1.5 2.5.4.1-.5-2.5-.4zm-3.7 2.9l-.1.9 2.5.3.1-.9-2.5-.3zm.2-1.2l-.1.9 2.5.3.1-.9-2.5-.3zm.4-1.1l-.1.9 2.5.4.1-.9-2.5-.4zm.2-1.1l-.2.8 2.5.4.1-.9-2.4-.3zm-4.8 3.5v.3l3.4.4v-.3l-3.4-.4zm.1-.6v.3l3.4.4v-.3l-3.4-.4zm.1-.6v.3l3.4.4V93l-3.4-.5zm0-.6v.3l3.4.5v-.3l-3.4-.5zm.1-.6v.3l3.4.5v-.3l-3.4-.5zm.1-.6v.3l3.4.5v-.2l-3.4-.6zm.1-.6v.3l3.4.6v-.3l-3.4-.6zm.1-.6v.2l3.4.6V90l-3.4-.5zm.1-.6v.3l3.4.6v-.3l-3.4-.6zm.1-.5v.3l3.4.6V89l-3.4-.6zm8.6-4.3l-.2.5 2.4.6.1-.5-2.3-.6zm.3-1.1l-.1.5 2.4.6.1-.5-2.4-.6zm.3-1.2l-.1.5 2.4.7.1-.5-2.4-.7zm.3-1.2l-.1.5 2.4.7.1-.5-2.4-.7zm-4 2.4l-.2.9 2.5.6.2-.8-2.5-.7zm.3-1.1l-.2.9 2.4.6.2-.8-2.4-.7zm.3-1.1l-.2.9 2.4.7.2-.8-2.4-.8zm.3-1.1l-.2.9 2.4.7.2-.8-2.4-.8zm-5.1 2.9l-.1.3 3.4.8.1-.2-3.4-.9zm.1-.6v.3l3.4.8.1-.2L12 82zm.2-.6l-.1.3 3.3.9.1-.3-3.3-.9zm.1-.5l-.1.3 3.4.9.1-.2-3.4-1zm.2-.6l-.1.3 3.4.9.1-.2-3.4-1zm.2-.6l-.1.3 3.3.9.1-.3-3.3-.9zm.1-.6l-.1.3 3.3.9.1-.2-3.3-1zm.2-.5l-.1.3 3.3 1 .1-.2-3.3-1.1zm.1-.6l-.1.3 3.3 1 .1-.3-3.3-1zm.2-.6l-.1.3 3.3 1 .1-.2-3.3-1.1zm9-3.2l-.2.5 2.4.9.2-.4-2.4-1zm.4-1.1l-.2.5 2.3.9.2-.4-2.3-1zm.5-1.1l-.2.4 2.3.9.2-.4-2.3-.9zm.5-1.2l-.2.5 2.3 1 .2-.4-2.3-1.1zm-4.4 2l-.3.8 2.4.9.3-.8-2.4-.9zm.5-1l-.3.8 2.4.9.3-.8-2.4-.9zm.4-1.1l-.3.8 2.3.9.3-.8-2.3-.9zm.4-1l-.3.8 2.3 1 .3-.8-2.3-1zM15.1 72l-.1.2 3.2 1.2.1-.2-3.2-1.2zm.3-.6l-.1.2 3.2 1.1.1-.2-3.2-1.1zm.2-.5l-.1.2 3.2 1.2.1-.2-3.2-1.2zm.2-.6l-.1.2 3.2 1.3.1-.2-3.2-1.3zm.2-.5l-.1.2 3.2 1.3.1-.2-3.2-1.3zm.2-.6l-.1.2 3.3 1.2.1-.2-3.3-1.2zm.3-.5l-.1.1 3.2 1.3.1-.2-3.2-1.2zm.2-.6l-.1.2 3.2 1.3.1-.2-3.2-1.3zm.2-.5l-.1.2 3.2 1.4.1-.2-3.2-1.4zm.2-.6l-.1.3 3.2 1.4.1-.2-3.2-1.5zm9.4-2.2l-.2.4 2.2 1.2.2-.4-2.2-1.2zm.6-1.1l-.2.4 2.2 1.2.2-.4-2.2-1.2zm.6-1.1l-.2.4 2.2 1.2.2-.4-2.2-1.2zm.5-1l-.2.4 2.2 1.2.2-.4-2.2-1.2zm-4.4 1.3l-.4.8 2.2 1.2.4-.8-2.2-1.2zm.5-1l-.4.8 2.2 1.2.4-.8-2.2-1.2zm.5-1l-.4.8 2.2 1.2.4-.8-2.2-1.2zm.6-1l-.4.8 2.2 1.2.4-.8-2.2-1.2zm-5.7 1.7l-.1.2 3.1 1.6.1-.2-3.1-1.6zm.3-.6l-.1.2 3.1 1.6.1-.2L20 61zm.3-.5l-.1.2 3.1 1.6.1-.2-3.1-1.6zm.2-.5l-.1.2 3.1 1.6.1-.2-3.1-1.6zm.3-.5l-.1.2 3 1.7.1-.2-3-1.7zm.3-.5l-.1.2 3 1.7.1-.2-3-1.7zm.3-.6l-.1.2 3 1.7.1-.2-3-1.7zm.3-.5l-.1.2 3 1.7.1-.2-3-1.7zm.3-.5l-.1.2 3 1.7.1-.2-3-1.7zm.3-.5l-.1.2 3 1.7.1-.2-3-1.7zm9.5-1l-.3.4 2.1 1.4.3-.4-2.1-1.4zm.7-1l-.3.4 2.1 1.4.3-.4-2.1-1.4zm.7-1l-.3.4 2 1.5.3-.4-2-1.5zm.7-1l-.3.4 2 1.5.3-.4-2-1.5zm-4.6.9l-.5.7 2.1 1.4.5-.7-2.1-1.4zm.6-1l-.5.7 2.1 1.4.5-.7-2.1-1.4zm.7-.9l-.5.7 2.1 1.4.5-.7-2.1-1.4zm.6-.9l-.5.7 2 1.5.5-.7-2-1.5zm-5.8.9l-.1.2 2.9 1.9.2-.2-3-1.9zm.4-.5l-.2.2 2.8 1.9.2-.2-2.8-1.9zm.3-.5l-.2.2 2.9 2 .2-.2-2.9-2zm.3-.5l-.1.2 2.8 2 .2-.2-2.9-2zm.4-.5l-.2.2 2.8 2 .2-.2-2.8-2zm.3-.5l-.1.3 2.8 2 .2-.2-2.9-2.1zm.4-.4l-.2.2 2.8 2 .2-.2-2.8-2zm.3-.5l-.2.2 2.8 2.1.2-.2-2.8-2.1zm.4-.5l-.2.2 2.8 2.1.2-.2-2.8-2.1zm.3-.5l-.2.2 2.8 2.1.2-.2-2.8-2.1zm9.6.1l-.4.4 1.9 1.6.3-.4-1.8-1.6zm.8-.9l-.3.4 1.9 1.7.3-.4-1.9-1.7zm.8-.9l-.3.4 1.9 1.7.3-.4-1.9-1.7zm.8-.9l-.3.4L42 47l.3-.4-1.8-1.7zm-4.7.3l-.6.7 1.9 1.6.6-.6-1.9-1.7zm.8-.8l-.6.6 1.9 1.7.6-.6-1.9-1.7zm.8-.9l-.6.7 1.9 1.7.6-.6-1.9-1.8zm.7-.8l-.6.7 1.9 1.7.6-.7-1.9-1.7zm-5.9.2l-.2.2 2.6 2.2.2-.2-2.6-2.2zm.4-.4l-.2.2L35 45l.2-.2-2.6-2.3zm.4-.5l-.2.2 2.6 2.3.2-.2L33 42zm.4-.4l-.2.2 2.6 2.3.2-.2-2.6-2.3zm.4-.4l-.2.2 2.6 2.3.2-.2-2.6-2.3zm.4-.5l-.2.2 2.6 2.3.2-.2-2.6-2.3zm.4-.4l-.2.2 2.5 2.3.2-.2-2.5-2.3zm.4-.5l-.2.2 2.5 2.3.2-.2-2.5-2.3zm.4-.4l-.2.2 2.5 2.4.2-.2-2.5-2.4zm.4-.4l-.2.2 2.5 2.4.2-.2-2.5-2.4zm9.5 1.2l-.4.3 1.7 1.8.4-.3-1.7-1.8zm.9-.8l-.4.3 1.7 1.9.4-.3-1.7-1.9zm.9-.8l-.4.3 1.7 1.9.4-.3-1.7-1.9zm.9-.8l-.4.3 1.6 1.9.4-.3-1.6-1.9zm-4.7-.3l-.7.6 1.8 1.8.7-.6-1.8-1.8zm.9-.7l-.7.6 1.7 1.9.7-.6-1.7-1.9zm.8-.8l-.7.6 1.7 1.9.7-.6L45 36zm.9-.8l-.7.6 1.6 1.9.7-.6-1.6-1.9zm-5.9-.4l-.2.2 2.4 2.5.2-.2-2.4-2.5zm.4-.4l-.2.2 2.3 2.6.2-.2-2.3-2.6zm.5-.4l-.2.2 2.3 2.5.2-.2-2.3-2.5zm.4-.3l-.2.2 2.3 2.6.2-.2-2.3-2.6zm.5-.5l-.2.2 2.3 2.6.2-.2-2.3-2.6zm.4-.3l-.2.1 2.3 2.6.2-.2-2.3-2.5zm.5-.4l-.2.2 2.2 2.6.2-.2-2.2-2.6zm.4-.4l-.2.2 2.3 2.6.2-.2-2.3-2.6zm.4-.4l-.2.2 2.2 2.6.2-.2-2.2-2.6zm.5-.4l-.2.2 2.2 2.7.2-.2-2.2-2.7zm9.3 2.3l-.4.3 1.5 2 .4-.3-1.5-2zm1-.7l-.4.3 1.5 2 .4-.3-1.5-2zm1-.7l-.4.3 1.4 2.1.4-.3-1.4-2.1zm1-.7l-.4.3 1.4 2.1.4-.3-1.4-2.1zm-4.6-.7l-.7.5 1.5 2 .7-.5-1.5-2zm.9-.7l-.7.5 1.5 2 .7-.5-1.5-2zm.9-.6l-.7.5 1.5 2.1.7-.5-1.5-2.1zm.9-.7l-.7.5 1.4 2.1.7-.5-1.4-2.1zm-5.8-1.2l-.2.2 2 2.8.2-.2-2-2.8zm.5-.3l-.2.1 2 2.8.2-.2-2-2.7zm.5-.3l-.2.1 2 2.8.2-.2-2-2.7zm.5-.4l-.2.1 2 2.8.2-.2-2-2.7zm.4-.3l-.2.1 2 2.8.2-.2-2-2.7zm.5-.3l-.2.1 2 2.9.2-.2-2-2.8zm.5-.4l-.2.2 2 2.9.2-.2-2-2.9zm.5-.3l-.2.2 1.9 2.9.2-.1-1.9-3zm.5-.4l-.2.1 1.9 2.9.2-.1-1.9-2.9zm.5-.3l-.2.2 1.9 2.9.2-.1-1.9-3zm9 3.4l-.4.2 1.2 2.2.4-.2L62 28zm1.1-.6l-.4.2 1.2 2.2.4-.2-1.2-2.2zm1-.6l-.4.2 1.2 2.2.4-.2-1.2-2.2zm1.1-.6l-.4.2 1.1 2.3.4-.2-1.1-2.3zm-4.5-1.3l-.8.4 1.2 2.2.8-.4-1.2-2.2zm1-.5l-.8.4 1.2 2.2.8-.4-1.2-2.2zm1-.5l-.8.4 1.2 2.2.8-.4-1.2-2.2zm1-.6l-.8.4 1.2 2.2.8-.4-1.2-2.2zm-5.6-1.7l-.2.1 1.7 3 .2-.1-1.7-3zm.5-.3l-.2.1 1.7 3 .2-.1-1.7-3zm.5-.3l-.2.1 1.7 3 .2-.1-1.7-3zm.5-.3l-.2.1 1.7 3 .2-.1-1.7-3zm.6-.3l-.2.1 1.6 3 .2-.1-1.6-3zm.5-.2l-.2.1 1.6 3.1.2-.1-1.6-3.1zm.5-.3l-.2.1 1.6 3.1.2-.1-1.6-3.1zm.5-.3l-.2.2 1.6 3.1.2-.1-1.6-3.2zm.6-.3l-.3.1 1.6 3.1.2-.1-1.5-3.1zm.5-.3l-.2.1 1.5 3.1.2-.1-1.5-3.1zm8.5 4.4l-.5.2 1 2.3.4-.2-.9-2.3zm1.1-.4l-.5.2 1 2.3.4-.2-.9-2.3zm1.2-.4l-.4.2.9 2.3.4-.2-.9-2.3zm1.1-.5l-.5.2.9 2.4.4-.2-.8-2.4zm-4.3-1.8l-.8.3 1 2.3.8-.3-1-2.3zm1-.4l-.8.3 1 2.3.8-.3-1-2.3zm1.1-.4l-.8.3.9 2.3.9-.4-1-2.2zm1-.5l-.8.3.9 2.4.8-.3-.9-2.4zm-5.4-2.4l-.2.1 1.3 3.2.2-.1-1.3-3.2zm.6-.2l-.2.1 1.3 3.2.2-.1-1.3-3.2zm.5-.2l-.2.1 1.3 3.2.2-.1-1.3-3.2zm.6-.2l-.2.1 1.3 3.2.2-.1-1.3-3.2zm.6-.2l-.2.1 1.2 3.2.2-.1-1.2-3.2zm.6-.3l-.2.1 1.2 3.2.2-.1-1.2-3.2zm.5-.2l-.2.1 1.2 3.2.2-.1-1.2-3.2zm.6-.2l-.2.1 1.2 3.2.2-.1-1.2-3.2zm.5-.2l-.2.1 1.2 3.3.2-.1-1.2-3.3zm.6-.2l-.2.1 1.2 3.3.2-.1-1.2-3.3zm7.9 5.3l-.5.1.7 2.4.5-.1-.7-2.4zm1.2-.2l-.5.1.6 2.4.5-.1-.6-2.4zm1.1-.4l-.5.1.6 2.4.5-.1-.6-2.4zm1.2-.3l-.5.1.6 2.4.5-.1-.6-2.4zm-4.1-2.3l-.8.2.7 2.4.8-.2-.7-2.4zm1.1-.3l-.9.2.6 2.4.8-.2-.5-2.4zm1.1-.3l-.9.2.6 2.4.8-.2-.5-2.4zm1.1-.3l-.8.2.6 2.4.8-.2-.6-2.4zm-5-3l-.3.1 1 3.3.2-.1-.9-3.3zm.5-.2l-.3.1 1 3.3.2-.1-.9-3.3zm.6-.1l-.3.1.9 3.3.2-.1-.8-3.3zm.6-.2l-.3.1.9 3.3.3-.1-.9-3.3zm.6-.1l-.3.1.9 3.4.2-.1-.8-3.4zm.5-.2l-.3.1.9 3.4.2-.1-.8-3.4zm.6-.1l-.3.1.8 3.4.3-.1-.8-3.4zm.6-.1l-.3.1.8 3.4.2-.1-.7-3.4zm.6-.2l-.3.1.8 3.4.3-.1-.8-3.4zm.5-.1l-.3.1.8 3.4.2-.1-.7-3.4zm7.3 6.2l-.5.1.4 2.5.5-.1-.4-2.5zm1.2-.2l-.5.1.4 2.5.5-.1-.4-2.5zm1.2-.2l-.5.1.3 2.5.5-.1-.3-2.5zm1.2-.1l-.5.1.3 2.5.5-.1-.3-2.5zM91 14.5l-.9.1.4 2.5.8-.1-.3-2.5zm1.2-.2l-.9.1.4 2.5.9-.1-.4-2.5zm1.1-.1l-.9.1.3 2.5.9-.1-.3-2.5zm1.1-.2l-.9.1.3 2.5.9-.1-.3-2.5zm-4.7-3.6h-.3l.6 3.4h.2l-.5-3.4zm.6-.1H90l.6 3.4h.3l-.6-3.4zm.6-.1h-.3l.5 3.4h.3l-.5-3.4zm.6 0h-.3l.5 3.4h.3l-.5-3.4zm.6-.1h-.3l.5 3.4h.3l-.5-3.4zm.6-.1h-.3l.5 3.4h.2l-.4-3.4zm.5-.1H93l.4 3.5h.3l-.5-3.5zm.6-.1h-.3l.4 3.4h.3l-.4-3.4zm.6 0h-.3l.4 3.4h.3l-.4-3.4zm.6-.1h-.3l.4 3.4h.3L95 9.7zm6.5 7h-.5l.1 2.5h.5l-.1-2.5zm1.2 0h-.5l.1 2.5h.5l-.1-2.5zm1.2 0h-.5l.1 2.5h.5l-.1-2.5zm1.2 0h-.5v2.5h.5v-2.5zm-3.4-3.2h-.9l.1 2.5h.9l-.1-2.5zm1.2 0h-.9l.1 2.5h.9l-.1-2.5zm1.1 0h-.9l.1 2.5h.9l-.1-2.5zm1.1 0h-.9V16h.9v-2.5zm-4.2-4.1h-.3l.2 3.5h.3l-.2-3.5zm.6 0h-.3l.2 3.3h.3l-.2-3.3zm.6 0h-.3l.1 3.5h.3l-.1-3.5zm.6 0h-.2l.1 3.5h.3l-.2-3.5zm.5 0h-.2l.1 3.5h.3l-.2-3.5zm.6 0h-.3l.1 3.5h.3l-.1-3.5zm.6 0h-.3v3.5h.3V9.4zm.6 0h-.3v3.5h.3V9.4zm.6 0h-.2v3.2h.3l-.1-3.2zm.6 0h-.3v3.2h.3V9.4zm5.6 7.7l-.4-.3-.2 2.5h.5l.1-2.2zm1.3.1h-.5l-.2 2.5h.5l.2-2.5zm1.2.1h-.5l-.2 2.5h.5l.2-2.5zm1.2.1h-.5l-.3 2.5h.5l.3-2.5zm-3-3.5l-.9-.1-.2 2.2.9.1.2-2.2zm1.1.1l-.9-.1-.2 2.5.9.1.2-2.5zm1.2.1l-.9-.1-.2 2.5.9.1.2-2.5zm1.1.1l-.9-.1-.2 2.5.9.1.2-2.5zm-3.8-4.6h-.3l-.2 3.2h.3l.2-3.2zm.6.1h-.3l-.2 3.5h.3l.2-3.5zm.6 0h-.3l-.3 3.5h.2l.4-3.5zm.6.1h-.3l-.3 3.4h.3l.3-3.4zm.6 0h-.3l-.3 3.4h.3l.3-3.4zm.6 0h-.3l-.3 3.5h.3l.3-3.5zm.6.1h-.3l-.3 3.4h.3l.3-3.4zm.6 0h-.3l-.4 3.5h.3l.4-3.5zm.6.1h-.3l-.4 3.4h.3l.4-3.4zm.6 0h-.3l-.4 3.4h.3l.4-3.4zm4.7 8.4l-.5-.1-.4 2.5.5.1.4-2.5zm1.2.2l-.5-.1-.5 2.2.5.1.5-2.2zm1.1.3l-.5-.1-.5 2.5.5.1.5-2.5zm1.2.2l-.5-.1-.6 2.5.5.1.6-2.5zm-2.6-3.9l-.9-.2-.4 2.5.9.2.4-2.5zm1.2.3l-.8-.4-.5 2.5.9.2.4-2.3zm1.1.2l-.9-.2-.5 2.2.9.2.5-2.2zm1.1.3l-.9-.2-.5 2.5.9.2.5-2.5zm-3.2-5l-.3-.1-.6 3.2h.2l.7-3.1zm.6.1l-.3-.1-.6 3.4h.3l.6-3.3zm.6.1l-.3-.1-.7 3.4h.3l.7-3.3zm.5.1l-.3-.1-.7 3.4h.3l.7-3.3zm.6.1l-.3-.1-.7 3.4h.3l.7-3.3zm.6.2l-.3-.1-.7 3.4h.3l.7-3.3zm.6.1l-.3-.1-.8 3.1h.2l.9-3zm.6.1h-.3l-.8 3.4h.2l.9-3.4zm.5.1l-.3-.1-.8 3.4h.2l.9-3.3zm.6.2h-.3l-.9 3.1h.2l1-3.1zm3.7 8.8l-.5-.2-.7 2.4.5.2.7-2.4zm1.2.4l-.5-.2-.8 2.4.5.1.8-2.3zm1.1.4l-.5-.2-.8 2.4.5.1.8-2.3zm1.2.4l-.5-.2-.8 2.1.4.1.9-2zm-2.1-4.2l-.8-.3-.8 2.4.8.3.8-2.4zm1 .4l-.9-.3-.8 2.4.8.3.9-2.4zm1.1.3l-.8-.3-.8 2.4.8.3.8-2.4zm1.1.4l-.8-.3-.8 2.4.8.3.8-2.4zm-2.6-5.4l-.2-.1-1 3.3.2.1 1-3.3zm.6.2l-.3-.1-1 3.3.2.1 1.1-3.3zm.5.2l-.3-.1-1.1 3.3.2.1 1.2-3.3zm.6.2l-.2-.1-1.1 3.3.2.1 1.1-3.3zm.6.2l-.3-.1-1.1 3.3.2.1 1.2-3.3zm.5.2l-.3-.1-1.1 3.3.2.1 1.2-3.3zm.6.2l-.2-.1-1.2 3 .2.1 1.2-3zm.6.2l-.3-.1-1.2 3.3.2.1 1.3-3.3zm.5.2l-.3-.1-1.2 3.3.2.1 1.3-3.3zm.6.2l-.2-.1-1.2 3.2.2.1 1.2-3.2zm2.6 9.2l-.4-.2-1 2.3.4.2 1-2.3zm1.1.5l-.4-.2-1 2.3.4.2 1-2.3zm1.1.5l-.4-.2-1.1 2.3.4.2 1.1-2.3zm1.1.5l-.4-.2-1.1 2.3.4.2 1.1-2.3zm-1.6-4.4l-.8-.4-1 2.3.8.4 1-2.3zm1 .5l-.8-.4-1 2.3.8.4 1-2.3zm1 .5l-.8-.4-1.1 2.3.8.4 1.1-2.3zm1 .5l-.8-.4-1.1 2.3.8.4 1.1-2.3zm-1.9-5.6l-.2-.1-1.4 3.2.2.1 1.4-3.2zm.5.3l-.2-.1-1.4 3.2.2.1 1.4-3.2zm.5.2l-.2-.1-1.4 3.1.2.1 1.4-3.1zm.6.3l-.2-.1-1.4 3.1.2.1 1.4-3.1zm.5.2l-.2-.1-1.5 3.1.2.1 1.5-3.1zm.5.3l-.2-.1-1.5 3.1.2.1 1.5-3.1zm.6.2l-.2-.1-1.5 3.1.2.1 1.5-3.1zm.5.3l-.2-.1-1.5 3.1.2.1 1.5-3.1zm.5.3l-.2-.1-1.6 3.1.2.1 1.6-3.1zm.6.2l-.2-.1-1.6 3.1.2.1 1.6-3.1zm1.5 9.5l-.4-.3-1.2 1.9.4.3 1.2-1.9zm1 .6l-.4-.3-1.2 1.9.4.3L152 30zm1 .7l-.4-.3-1.2 1.9.4.3 1.2-1.9zm1 .6l-.4-.3-1.2 1.9.4.3 1.2-1.9zm-1.1-4.6l-.8-.5-1.3 2.2.7.5 1.4-2.2zm1 .6l-.8-.5-1.2 1.9.7.5 1.3-1.9zm1 .7l-.8-.5-1.3 2.1.7.5 1.4-2.1zm1 .6l-.8-.5-1.4 2.1.7.5 1.5-2.1zm-1.3-5.8l-.2-.1-1.8 3 .2.1 1.8-3zm.5.3l-.2-.1-1.8 3 .2.1 1.8-3zm.6.3l-.2-.1-1.8 3 .2.1 1.8-3zm.5.3l-.2-.1-1.8 3 .2.1 1.8-3zm.5.3l-.2-.1-1.8 2.9.2.1 1.8-2.9zm.5.4l-.2-.1-1.9 2.9.2.1 1.9-2.9zm.5.3l-.2-.1-1.9 2.9.2.1 1.9-2.9zm.5.3l-.2-.1-1.9 2.9.2.1 1.9-2.9zm.5.3l-.2-.1-1.9 2.9.2.1 1.9-2.9zm.5.3l-.2-.1-1.9 2.9.2.1 1.9-2.9zm.4 9.6l-.4-.3-1.5 2 .4.3 1.5-2zm1 .7l-.4-.3-1.6 2 .4.3 1.6-2zm.9.8l-.4-.3-1.6 2 .4.3 1.6-2zm1 .8l-.4-.3-1.6 1.9.4.3 1.6-1.9zm-.6-4.7l-.7-.6-1.5 2 .7.5 1.5-1.9zm.9.7l-.7-.6-1.6 2 .7.5 1.6-1.9zm.9.7l-.7-.6-1.6 2 .7.5 1.6-1.9zm.9.8l-.7-.6-1.6 1.9.7.6 1.6-1.9zm-.6-5.9l-.2-.2-2.1 2.8.2.2 2.1-2.8zm.5.3l-.2-.2-2.1 2.5.2.2 2.1-2.5zm.4.4l-.2-.2-2.1 2.7.2.2 2.1-2.7zm.5.4l-.2-.2-2.1 2.7.2.2 2.1-2.7zm.5.3l-.2-.2-2.2 2.7.2.2 2.2-2.7zm.4.4l-.2-.2-2.2 2.7.2.2 2.2-2.7zm.5.4l-.2-.2-2.2 2.5.2.2 2.2-2.5zm.5.4l-.2-.2-2.2 2.7.2.2 2.2-2.7zm.4.3l-.2-.2-2.2 2.7.2.2 2.2-2.7zm.5.4l-.2-.2-2.2 2.7.2.2 2.2-2.7zm-.7 9.4l-.4-.3-1.7 1.8.3.3 1.8-1.8zm.9.8l-.3-.3-1.8 1.8.3.3 1.8-1.8zm.8.9l-.4-.3L167 45l.3.3 1.9-1.8zm.9.9l-.4-.3-1.8 1.7.3.3 1.9-1.7zm0-4.7l-.6-.6-1.7 1.8.6.6 1.7-1.8zm.8.8l-.6-.6-1.8 1.8.6.6 1.8-1.8zm.8.8l-.6-.6-1.8 1.8.6.6 1.8-1.8zm.8.8l-.6-.6-1.8 1.8.6.6 1.8-1.8zm0-5.9l-.2-.2-2.4 2.5.2.2 2.4-2.5zm.5.4l-.2-.2-2.4 2.5.2.2 2.4-2.5zm.4.4l-.2-.2-2.4 2.5.2.2 2.4-2.5zm.4.5l-.2-.2-2.4 2.5.2.2 2.4-2.5zm.4.4l-.2-.2-2.4 2.4.2.2 2.4-2.4zm.4.4l-.2-.2-2.5 2.4.2.2 2.5-2.4zm.5.4l-.2-.2-2.4 2.4.2.2 2.4-2.4zm.4.4l-.2-.2-2.5 2.4.2.2 2.5-2.4zm.4.5l-.2-.2-2.5 2.4.2.2 2.5-2.4zm.4.4l-.2-.2-2.5 2.4.2.2 2.5-2.4zm-1.8 9.4l-.3-.4-1.9 1.6.3.4 1.9-1.6zm.8 1l-.3-.4-2 1.6.3.4 2-1.6zm.7 1l-.3-.4-2 1.5.3.4 2-1.5zm.8 1l-.3-.4-2 1.5.3.4 2-1.5zm.5-4.7l-.6-.7-1.9 1.6.5.7 2-1.6zm.7.9l-.6-.9-2 1.6.5.7 2.1-1.4zm.7.9l-.5-.7-2 1.5.5.7 2-1.5zm.7.9l-.6-.7-2 1.5.6.5 2-1.3zm.8-5.9l-.2-.2-2.7 2.2.2.2 2.7-2.2zm.3.5l-.2-.2-2.7 2.2.2.2 2.7-2.2zm.4.5l-.2-.2-2.7 2.2.2.2 2.7-2.2zm.4.5l-.2-.2-2.7 2 .2.2 2.7-2zm.3.4l-.2-.2-2.7 2.1.1.2 2.8-2.1zm.4.5l-.2-.2-2.7 2.1.2.2 2.7-2.1zm.4.5l-.2-.2-2.8 1.9.2.2 2.8-1.9zm.3.4l-.2-.2-2.8 2.1.2.2 2.8-2.1zm.4.5l-.2-.2-2.8 2.1.2.2 2.8-2.1zm.3.5l-.2-.2-2.8 2 .1.2 2.9-2zm-2.8 9l-.2-.4-2.1 1.4.2.4 2.1-1.4zm.6 1l-.3-.4-2.1 1.4.2.4 2.2-1.4zm.7 1l-.3-.4-2.2 1.4.2.4 2.3-1.4zm.6 1l-.3-.4-2.2 1.4.2.4 2.3-1.4zm1-4.6l-.5-.8-2.1 1.4.4.7 2.2-1.3zm.6 1l-.5-.8-2.1 1.3.4.8 2.2-1.3zm.6 1l-.5-.8-2.1 1.3.4.7 2.2-1.2zm.6 1l-.5-.8-2.2 1.3.4.7 2.3-1.2zm1.5-5.8l-.1-.2-2.9 1.9.1.2 2.9-1.9zm.3.6l-.1-.2-2.9 1.9.1.2 2.9-1.9zm.3.5l-.1-.2-2.9 1.8.1.2 2.9-1.8zm.3.5l-.1-.2-2.9 1.8.1.2 2.9-1.8zm.3.5l-.1-.2-2.9 1.8.1.2 2.9-1.8zm.3.5l-.1-.2-3 1.8.1.2 3-1.8zm.3.5l-.1-.2-3 1.8.1.2 3-1.8zm.3.5l-.1-.2-3 1.8.1.2 3-1.8zm.3.5l-.1-.2-3 1.7.1.2 3-1.7zm.3.5l-.1-.2-3 1.7.1.2 3-1.7zm-3.9 8.8l-.2-.4-2.3 1.1.2.4 2.3-1.1zm.5 1.1l-.2-.4-2.3 1.1.2.4 2.3-1.1zm.5 1.1l-.2-.4-2.3 1 .2.4 2.3-1zm.6 1.1l-.2-.4-2.3 1 .2.4 2.3-1zm1.6-4.3l-.4-.8-2.3 1.1.4.8 2.3-1.1zm.4 1l-.4-.8-2.3 1.1.4.8 2.3-1.1zm.5 1l-.4-.8-2.3 1 .4.8 2.3-1zm.5 1l-.4-.8-2.3 1 .4.8 2.3-1zm2.1-5.6l-.1-.2-3.1 1.5.1.2 3.1-1.5zm.2.6l-.1-.2-3.1 1.5.1.2 3.1-1.5zm.3.5l-.1-.2-3.1 1.5.1.2 3.1-1.5zm.2.6l-.1-.2-3.1 1.5.1.2 3.1-1.5zm.3.5l-.1-.2-3.1 1.4.1.2 3.1-1.4zm.2.5l-.1-.2-3.2 1.4.1.2 3.2-1.4zm.3.6l-.1-.2-3.2 1.4.1.2 3.2-1.4zm.2.5l-.1-.2-3.2 1.4.1.2L194 67zm.3.6l-.1-.2-3.2 1.4.1.2 3.2-1.4zm.2.5l-.1-.2-3.2 1.3.1.2 3.2-1.3zm-4.9 8.2l-.1-.5-2.4.8.1.5 2.4-.8zm.4 1.2l-.1-.5-2.4.8.1.5 2.4-.8zm.4 1.1l-.1-.5-2.4.8.1.5 2.4-.8zm.3 1.2l-.1-.5-2.4.7.1.5 2.4-.7zm2.1-4.2l-.3-.8-2.4.8.3.8 2.4-.8zm.4 1.1l-.3-.8-2.4.8.3.8 2.4-.8zm.3 1.1l-.3-.8-2.4.8.3.8 2.4-.8zm.4 1.1l-.3-.8-2.4.8.3.8 2.4-.8zm2.7-5.3l-.1-.3-3.3 1.2.1.2 3.3-1.1zm.2.6l-.1-.2-3.3 1.2.1.2 3.3-1.2zm.2.5l-.1-.3-3.3 1.1.1.2 3.3-1zm.2.6l-.1-.3-3.3 1.1.1.2 3.3-1zm.1.6l-.1-.2-3.3 1.1.1.2 3.3-1.1zm.2.5l-.1-.3-3.3 1 .1.2 3.3-.9zm.2.6l-.1-.2-3.3 1 .1.2 3.3-1zm.2.6l-.1-.3-3.3 1 .1.2 3.3-.9zm.2.5l-.1-.3-3.3 1 .1.2 3.3-.9zm.1.6l-.1-.2-3.3 1 .1.2 3.3-1zm-5.8 7.6l-.1-.5-2.4.6.1.5 2.4-.6zm.2 1.2l-.1-.5-2.5.5.1.5 2.5-.5zm.3 1.2l-.1-.5-2.5.5.1.5 2.5-.5zm.2 1.2l-.1-.5-2.5.4.1.5 2.5-.4zm2.6-3.9l-.2-.9-2.4.6.2.8 2.4-.5zm.2 1.1l-.2-.9-2.5.5.2.8 2.5-.4zm.2 1.1l-.2-.9-2.5.5.2.8 2.5-.4zm.3 1.2l-.2-.9-2.5.5.2.9 2.5-.5zm3.4-4.9v-.3l-3.4.8v.3l3.4-.8zm.1.5v-.3l-3.4.8-.1.2 3.5-.7zm.1.6l-.1-.3-3.4.7v.2l3.5-.6zm.1.6v-.3l-3.4.7.1.3 3.3-.7zm.1.6l-.1-.3-3.4.7v.3l3.5-.7zm.1.6l-.1-.3-3.4.7.1.2 3.4-.6zm.1.6v-.3l-3.4.6v.2l3.4-.5zm.1.5l-.1-.3-3.4.6.1.3 3.4-.6zm.2.6l-.1-.3-3.4.6v.2l3.5-.5zm.1.6v-.3l-3.4.6.1.2 3.3-.5zm-6.7 6.9v-.5l-2.5.3v.5l2.5-.3zm.1 1.2v-.5l-2.5.2v.5l2.5-.2zm.1 1.2v-.5l-2.5.2v.5l2.5-.2zm.1 1.2v-.5l-2.5.2v.5l2.5-.2zm3-3.6l-.1-.9-2.5.3.1.9 2.5-.3zm0 1.2l-.1-.9-2.5.2.1.9 2.5-.2zm.1 1.1l-.1-.9-2.5.2.1.9 2.5-.2zm.1 1.1l-.1-.9-2.5.2.1.9 2.5-.2zm3.9-4.4v-.3l-3.4.4v.3l3.4-.4zm0 .5v-.3l-3.4.3v.2l3.4-.2zm0 .6v-.3l-3.4.3v.3l3.4-.3zm.1.6V97l-3.4.3v.3l3.4-.3zm0 .6v-.3l-3.4.3v.3l3.4-.3zm0 .6v-.3l-3.5.3v.3l3.5-.3zm0 .6v-.3l-3.5.2v.3l3.5-.2zm0 .6v-.3l-3.5.2v.2l3.5-.1zm0 .6v-.3l-3.5.2v.3l3.5-.2zm0 .6v-.3l-3.2.1v.3l3.2-.1zM160 19.8l-1.5-1-1.5-.9c-1-.6-2.1-1.2-3.1-1.8-2.1-1.1-4.2-2.2-6.4-3.1l-6.6-2.7c-1.1-.4-2.2-.8-3.4-1.1-.6-.2-1.1-.4-1.7-.6l-1.7-.6c-4.6-1.3-9.2-2.3-13.9-3l-3.5-.4-3.6-.3-1.8-.1c-.6 0-1.2 0-1.8-.1L106 4V1.8l3.6.1c.6 0 1.2 0 1.8.1l1.8.1 3.6.3 3.6.4c4.8.7 9.6 1.7 14.2 3.1l1.8.5c.6.2 1.2.4 1.7.6 1.1.4 2.3.8 3.4 1.2 2.3.9 4.6 1.7 6.7 2.8s4.4 2.1 6.6 3.2c1.1.6 2.1 1.2 3.2 1.8.5.3 1.1.6 1.6.9l1.5 1-1.1 1.9zm18.8 159.7c.9-.9 1.8-1.8 2.7-2.8l1.3-1.4c.4-.5.8-1 1.3-1.4.8-1 1.7-1.9 2.5-2.9l2.4-3c3.1-4.1 5.9-8.4 8.4-12.9 2.4-4.5 4.6-9.2 6.4-14 1.7-4.8 3.1-9.8 4.2-14.8 8.6-41.4-8.8-84-44-107.5-4.3-2.8-8.8-5.4-13.4-7.6-9.3-4.4-19.2-7.4-29.4-8.9-5-.9-10.1-1.3-15.2-1.3v.3c5.1 0 10.2.4 15.3 1.1 10.1 1.5 20 4.5 29.3 8.9 4.6 2.2 9.1 4.8 13.3 7.6 35 23.5 52.3 65.9 43.8 107.2-1.1 5-2.5 9.9-4.2 14.8-1.8 4.8-3.9 9.5-6.4 14-2.5 4.5-5.3 8.8-8.3 12.9l-2.4 3c-.8 1-1.7 1.9-2.5 2.9-.4.5-.8 1-1.3 1.4l-1.3 1.4c-.9.9-1.7 1.9-2.7 2.7l.2.3zM19.5 43.8C15.1 50 11.4 56.6 8.4 63.5c-3 7-5.2 14.2-6.6 21.7-8.9 46.2 13.8 92.7 55.5 114.2 52.1 26.8 116 6.4 142.9-45.7 2.3-4.4 4.3-9 5.9-13.7l-.3-.1c-19.2 55.1-79.5 84.2-134.6 65-33.8-11.8-59.4-39.9-67.9-74.8-3.5-14.7-3.9-30-1.1-44.9 1.4-7.4 3.6-14.7 6.6-21.6 3-6.9 6.7-13.5 11.1-19.7l-.4-.1zM105.3.4l-4.4.1c-1.5.1-2.9.2-4.4.3-1.5.1-2.9.3-4.4.5l-2.2.3-2.1.4c-5.8 1-11.5 2.5-17 4.5s-10.9 4.4-16 7.3l-1.9 1.1c-.6.4-1.3.7-1.9 1.1l-3.7 2.4-3.6 2.5c-1.2.9-2.3 1.8-3.5 2.7-4.6 3.7-8.8 7.8-12.7 12.2l-1.4 1.7c-.5.5-1 1.1-1.4 1.7L22 42.6l-2.6 3.5c-.8 1.2-1.6 2.5-2.4 3.7-6.2 10-10.7 20.9-13.2 32.4-5.1 23.1-2.3 47.3 8 68.6 10.4 21.3 27.6 38.5 49 48.7 5.3 2.5 10.8 4.6 16.5 6.2 1.4.4 2.8.8 4.2 1.1l2.1.5c.7.2 1.4.3 2.2.4l4.3.8 4.4.6c5.8.6 11.7.8 17.6.5 5.9-.3 11.7-1.2 17.4-2.5 35-8 63.5-33.5 75.5-67.4.5-1.4 1-2.8 1.4-4.2l1.2-4.2c.4-1.4.7-2.9 1-4.3.1-.4.2-.7.2-1.1l.2-1.1.4-2.2c1-5.8 1.5-11.6 1.5-17.5 0-11.8-2-23.4-5.9-34.6-1.9-5.5-4.3-10.9-7.1-16.1-2.8-5.1-6.1-10-9.8-14.6l-.1.1c3.6 4.6 6.9 9.5 9.7 14.6 8.5 15.5 12.9 32.9 12.9 50.5 0 5.9-.5 11.7-1.5 17.5l-.4 2.2-.2 1.1c-.1.4-.2.7-.2 1.1-.3 1.4-.6 2.9-1 4.3l-1.2 4.2c-.4 1.4-.9 2.8-1.4 4.2-14 39.8-50.6 67.3-92.7 69.7-5.8.3-11.7.1-17.5-.5l-4.4-.6-4.3-.7c-.7-.1-1.4-.3-2.1-.5l-2.1-.5c-1.4-.3-2.8-.7-4.2-1.1-17-4.8-32.5-13.9-45-26.4-8.3-8.3-15.2-17.9-20.3-28.5C1.8 129.2-1 105.1 4.1 82c2.6-11.5 7-22.4 13.3-32.3.8-1.2 1.6-2.5 2.4-3.7l2.5-3.6 2.7-3.5c.4-.6.9-1.1 1.4-1.7l1.4-1.7c3.9-4.4 8.1-8.4 12.7-12.1 1.2-.9 2.3-1.8 3.5-2.7l3.6-2.6 3.7-2.4c.6-.4 1.2-.8 1.9-1.1l1.9-1.1c5.1-2.9 10.5-5.3 16-7.3s11.2-3.5 17-4.5l1.9.1 2.2-.3c1.4-.2 2.9-.4 4.4-.5 1.5-.1 2.9-.2 4.4-.3l4.4-.1V.4zm83.4 40.1c3.6 4.6 6.8 9.6 9.7 14.7 2.8 5.2 5.1 10.6 7 16.2 1.9 5.6 3.3 11.3 4.2 17.1.9 5.8 1.3 11.7 1.3 17.6l-.1 4.4-.3 4.4c0 .4-.1.7-.1 1.1l-.1 1.1-.3 2.2c-.1.7-.2 1.5-.3 2.2l-.4 2.2c-1 5.8-2.5 11.5-4.5 17s-4.5 10.9-7.3 16c-2.9 5.1-6.2 10-9.9 14.6-3.7 4.5-7.8 8.8-12.2 12.7-4.4 3.9-9.1 7.4-14.1 10.5-5 3.1-10.3 5.8-15.7 8l-2 .8c-.7.3-1.4.6-2.1.8l-4.2 1.4-4.2 1.2c-.7.2-1.4.4-2.1.5l-2.1.5c-35.2 7.8-71.9-3-97.2-28.5-8.3-8.4-15.2-18-20.3-28.6-2.5-5.3-4.6-10.8-6.2-16.5l-.6-2.1c-.2-.7-.3-1.4-.5-2.1l-.5-2.1-.2-1.1-.4-1.4c-.2-1.4-.5-2.9-.8-4.3l-.6-4.4c-.5-5.9-.6-11.8-.3-17.6l.3-4.4.5-4.4.2-1.1.2-1.1.4-2.2c.1-.7.2-1.4.4-2.2l.5-2.2C5.1 75.7 6.9 70 9.2 64.6c2.3-5.4 5-10.6 8.1-15.6C29.9 29.1 49 13.9 71.4 6.1l2.1-.7c.7-.2 1.4-.5 2.1-.7l4.2-1.2 4.3-1c.7-.2 1.4-.3 2.2-.4l2.1-.4C94.2.7 100.1.2 105.9.2V0C100 0 94.2.5 88.4 1.5l-2.2.4c-.7.1-1.4.2-2.2.4l-4.3 1-4.3 1.2c-.7.2-1.4.4-2.1.7l-2.1.7C48.9 13.8 29.8 29 17.1 49.1c-3.1 5-5.9 10.2-8.1 15.7-2.3 5.4-4.1 11-5.4 16.8l-.5 2.2c-.2.7-.3 1.4-.4 2.2l-.4 2-.2 1.1-.1 1.1-.6 4.4-.3 4.4c-.3 5.9-.2 11.8.4 17.6l.6 4.4c.2 1.5.5 2.9.8 4.3l.2 1.1.2 1.1.5 2.1c.2.7.3 1.4.5 2.1l.6 2.1c1.6 5.7 3.7 11.2 6.2 16.5 10.3 21.4 27.5 38.8 48.8 49.2 21.4 10.4 45.6 13.2 68.8 8.1l2.1-.5c.7-.2 1.4-.3 2.1-.5l4.2-1.2 4.2-1.4c.7-.2 1.4-.5 2.1-.8l2-.8c5.5-2.2 10.7-4.9 15.7-8 5-3.1 9.7-6.6 14.1-10.5 4.4-3.9 8.5-8.2 12.2-12.7 3.7-4.6 7-9.4 9.9-14.6 2.9-5.1 5.3-10.5 7.4-16 2-5.5 3.5-11.2 4.5-17l.4-2.2c.1-.7.2-1.5.3-2.2l.3-2.2.1-1.1c0-.4.1-.7.1-1.1l.3-4.4.1-4.4c0-5.9-.4-11.8-1.3-17.6-.9-5.8-2.3-11.5-4.2-17.1-1.9-5.6-4.2-11-7-16.2-2.7-5.1-5.9-10-9.6-14.6zm20.4 59.1l-.3-3.6c-.1-.6-.1-1.2-.2-1.8l-.2-1.8c-.2-1.2-.3-2.4-.5-3.6l-.6-3.6-.2-.9-.2-.9-.4-1.8c-.3-1.2-.5-2.4-.9-3.5l-1-3.5c-.4-1.2-.8-2.3-1.2-3.4-.2-.6-.4-1.2-.6-1.7l-.7-1.7c-.5-1.1-.9-2.3-1.4-3.4l-1.5-3.3c-.2-.6-.5-1.1-.8-1.6l-.8-1.6-.8-1.6c-.3-.5-.6-1.1-.9-1.6-.6-1.1-1.2-2.1-1.8-3.2-1.3-2-2.6-4.1-4-6.1l-1.8 1.3c1.4 1.9 2.7 3.9 4 5.9.6 1 1.2 2.1 1.8 3.1.3.5.6 1 .9 1.6l.8 1.6.8 1.6c.3.5.6 1.1.8 1.6l1.5 3.2c.5 1.1.9 2.2 1.3 3.3l.7 1.7c.2.6.4 1.1.6 1.7.4 1.1.8 2.2 1.1 3.4l1 3.4c.4 1.1.6 2.3.9 3.4l.4 1.7.2.9.2.9.6 3.5c.2 1.2.3 2.4.5 3.5l.2 1.8c.1.6.1 1.2.1 1.8l.3 3.6 2.1-.3zm-38.9 86.3l1.4-1.1 1.4-1.2c.9-.8 1.9-1.6 2.7-2.4l2.6-2.5.7-.6.6-.7 1.3-1.3c.8-.9 1.7-1.8 2.5-2.7l2.4-2.8c1.5-1.9 3-3.8 4.4-5.8s2.7-4 4-6.1c.6-1 1.2-2.1 1.8-3.2.3-.5.6-1 .9-1.6l.8-1.6.8-1.6c.3-.5.6-1.1.8-1.6l1.5-3.3c.5-1.1.9-2.2 1.4-3.4l.7-1.7c.2-.6.4-1.1.6-1.7l-2.1-.7c-.2.6-.4 1.1-.6 1.7l-.7 1.7c-.4 1.1-.8 2.2-1.3 3.3l-1.5 3.3c-.2.6-.5 1.1-.8 1.6l-.8 1.6-.7 1.5c-.3.5-.6 1-.9 1.6-.6 1-1.2 2.1-1.8 3.1-1.3 2-2.5 4-4 5.9s-2.9 3.8-4.3 5.7l-2.3 2.7c-.8.9-1.6 1.8-2.4 2.6l-1.2 1.3-.6.6-.6.6-2.6 2.5-2.7 2.4-1.4 1.2-1.4 1.1 1.4 1.6zM8.5 139.1c.2.6.4 1.2.6 1.7l.7 1.7c.5 1.1.9 2.3 1.4 3.4l1.5 3.3c.2.6.5 1.1.8 1.6l.8 1.6.8 1.6c.3.5.6 1.1.9 1.6.6 1.1 1.2 2.1 1.8 3.1 1.3 2 2.6 4.1 4 6.1s2.9 3.9 4.4 5.8l2.4 2.8c.8.9 1.6 1.8 2.5 2.7l1.3 1.3.6.7.7.6 2.6 2.5c.9.8 1.8 1.6 2.8 2.4l1.4 1.2 1.4 1.1 1.4-1.7-1.4-1.1-1.3-1.2c-.9-.8-1.8-1.5-2.7-2.4l-2.6-2.5-.6-.6-.6-.6-1.2-1.3c-.8-.9-1.7-1.7-2.4-2.6l-2.3-2.7c-1.5-1.9-3-3.7-4.3-5.7s-2.7-3.9-4-5.9c-.6-1-1.2-2.1-1.8-3.1-.3-.5-.6-1-.9-1.6l-.8-1.6-.8-1.6c-.3-.5-.5-1.1-.8-1.6l-1.5-3.2c-.5-1.1-.9-2.2-1.3-3.3l-.7-1.7c-.2-.6-.4-1.1-.6-1.7l-2.2.9zm13.3-93.8c-1.5 2-2.7 4-4 6.1-.6 1.1-1.2 2.1-1.8 3.2-.3.5-.6 1-.9 1.6l-.9 1.6-.8 1.7c-.3.5-.6 1.1-.8 1.6l-1.5 3.3c-.5 1.1-.9 2.2-1.4 3.4L9 69.5c-.2.6-.4 1.2-.6 1.7-.4 1.2-.8 2.3-1.2 3.4l-1 3.5c-.4 1.2-.6 2.3-.9 3.5L5 83.4l-.2.9-.2.9-.6 3.6c-.2 1.2-.3 2.4-.5 3.6l-.2 1.8c-.1.6-.1 1.2-.2 1.8l-.3 3.6 2.2.1.3-3.6c0-.6.1-1.2.1-1.8l.2-1.8c.2-1.2.3-2.4.5-3.5l.6-3.5.3-.7.2-.9.4-1.7c.3-1.2.5-2.3.9-3.5l1-3.4c.4-1.1.8-2.2 1.1-3.4.2-.6.4-1.1.6-1.7l.7-1.7c.4-1.1.8-2.2 1.3-3.3l1.5-3.2c.2-.6.5-1.1.8-1.6l.8-1.6.8-1.6.9-1.5c.6-1 1.2-2.1 1.8-3.1 1.3-2 2.5-4 4-5.9l-2-1.4zM106 1.8l-3.6.1h-1.8l-1.8.1-3.6.3-3.6.5c-4.8.7-9.6 1.7-14.2 3.1l-1.8.5c-.6.2-1.2.4-1.7.6-1.1.4-2.3.8-3.4 1.2-2.5.9-4.8 1.7-7 2.8-2.2 1-4.4 2.1-6.5 3.2-1.1.6-2.1 1.2-3.2 1.8-.5.3-1.1.6-1.6.9l-1.5 1 1.2 1.8 1.5-1 1.5-.9c1-.6 2.1-1.2 3.1-1.8 2.1-1.1 4.2-2.2 6.4-3.1 2.2-.9 4.4-1.9 6.6-2.7 1.1-.4 2.2-.8 3.4-1.2.6-.2 1.1-.4 1.7-.6l1.7-.4c4.6-1.3 9.2-2.3 13.9-3l3.5-.4 3.6-.3 1.8-.1c.6 0 1.2 0 1.8-.1L106 4V1.8zM77.3 204.3c4.7 1.4 9.4 2.4 14.2 3.1l3.6.5 3.6.3 1.8.1c.6 0 1.2 0 1.8.1l3.6.1 3.6-.1h1.8l1.8-.1 3.6-.3 3.6-.5c4.8-.7 9.6-1.7 14.2-3.1l-.6-2.1c-4.6 1.3-9.2 2.3-13.9 3l-3.5.4-3.6.3-1.8.1c-.6 0-1.2 0-1.8.1l-3.6.1-3.6-.1c-.6 0-1.2 0-1.8-.1l-1.8-.1-3.6-.3-3.5-.4c-4.7-.7-9.4-1.7-13.9-3l-.2 2z"/><linearGradient id="SVGID_8_" gradientUnits="userSpaceOnUse" x1="83.18" y1="104" x2="141.803" y2="104" gradientTransform="matrix(1 0 0 -1 -5.59 209.76)"><stop offset="0" stop-color="#af8436"/><stop offset=".34" stop-color="#fef5ba"/><stop offset=".53" stop-color="#dfae45"/><stop offset=".81" stop-color="#fcd160"/><stop offset="1" stop-color="#b18638"/></linearGradient><path class="st8" d="M109.4 69.3v4.3c3.1 0 6.2.2 9.3.6 2.4.4 4.7 1.3 6.7 2.7 2 1.4 3.7 3.2 4.9 5.4 1.3 2.3 2 4.9 2 7.5 0 6-3.5 11.5-9 14 3.6.9 6.7 3 9 5.8 2.1 2.8 3.2 6.2 3.2 9.7 0 3-.7 5.9-2.1 8.6-1.3 2.7-3.2 4.9-5.6 6.6-2.6 1.7-5.6 2.8-8.7 3.1-1.6.2-4.9.3-9.8.4v4.3H100V138h-2.6v4.2H88V138h-9.8v-11h3.4V84.6h-3.4v-11H88v-4.2h9.4v4.2h2.6v-4.2h9.4M94.6 99.2s16.8-.1 18-.2c2-.1 3.8-1 5.2-2.3 1.3-1.3 2-3.1 1.9-5 .1-1.8-.5-3.5-1.6-4.9-1.3-1.3-3-2.1-4.9-2.3-1.3-.2-18.6-.2-18.6-.2v14.9m0 28h12.1c3 .1 6 0 8.9-.4 1.8-.3 3.5-1.2 4.7-2.6 1.3-1.5 1.9-3.5 1.8-5.5.1-1.7-.4-3.5-1.4-4.9-1-1.4-2.4-2.4-4.1-2.9-1.8-.6-5.6-.9-11.5-.9H94.6v17.2m15.5-58.6H99.4v4.2h-1.3v-4.2H87.4v4.2h-9.8v12.3H81v41.1h-3.4v12.3h9.8v4.2h10.7v-4.2h1.3v4.2h10.7v-4.3c4.6-.1 7.7-.2 9.2-.4 3.2-.3 6.3-1.4 9-3.2 2.5-1.8 4.5-4.1 5.8-6.9 1.4-2.7 2.1-5.8 2.1-8.8.1-3.6-1.1-7.2-3.3-10.1-2-2.6-4.8-4.5-7.9-5.6 4.9-2.9 8-8.1 8-13.8 0-2.8-.7-5.5-2.1-7.9-1.3-2.2-3-4.1-5.1-5.6-2.1-1.4-4.5-2.4-7-2.8-2.9-.4-5.8-.6-8.8-.6l.1-4.1zM95.3 98.5V84.9c5.2 0 16.9.1 17.9.2 1.7.1 3.3.8 4.5 2 1 1.2 1.6 2.8 1.5 4.4.1 1.7-.5 3.4-1.7 4.6-1.3 1.2-3.1 2-4.9 2.1-1 .2-12.3.3-17.3.3zm0 12h9.8c5.8 0 9.6.3 11.3.9 1.5.5 2.8 1.4 3.8 2.7.9 1.3 1.3 2.9 1.3 4.6.1 1.8-.5 3.6-1.7 5-1.1 1.3-2.7 2.1-4.4 2.4-2.9.4-5.9.5-8.8.4H95.3v-16z"/><linearGradient id="SVGID_9_" gradientUnits="userSpaceOnUse" x1="85.47" y1="104.16" x2="139.544" y2="104.16" gradientTransform="matrix(1 0 0 -1 -5.59 209.76)"><stop offset="0" stop-color="#af8436"/><stop offset=".34" stop-color="#fef5ba"/><stop offset=".53" stop-color="#dfae45"/><stop offset=".81" stop-color="#fcd160"/><stop offset="1" stop-color="#b18638"/></linearGradient><path class="st9" d="M127 133c2.2-1.5 3.9-3.6 5.1-6 1.2-2.4 1.9-5.1 1.9-7.8.1-3.1-.9-6.2-2.8-8.7-2.1-2.6-5-4.4-8.2-5.3l-4.2-1.2 4-1.8c2.4-1.1 4.5-2.8 5.9-5.1 1.4-2.2 2.2-4.8 2.2-7.4 0-2.4-.6-4.7-1.8-6.7-1.1-1.9-2.6-3.6-4.5-4.9-1.8-1.2-3.9-2.1-6.1-2.4-3-.4-6-.6-9.1-.6h-1.6v-4.3h-6.1V75h-5.9v-4.2h-6.1V75h-9.8v7.8h3.4v45.7h-3.4v7.7h9.8v4.2h6.1v-4.2h5.9v4.2h6.1v-4.3h1.6c4.9-.1 8.1-.2 9.6-.4 2.9-.2 5.6-1.1 8-2.7zM93 82.5h1.6c2.9 0 17.5.1 18.8.2 2.3.2 4.4 1.2 5.9 2.8 1.4 1.7 2.1 3.8 2 5.9.1 2.3-.8 4.5-2.4 6.2-1.7 1.6-3.9 2.6-6.2 2.8-1.3.2-15.4.2-18.2.2H93V82.5zm13.7 46.1H93v-20.5h12.1c6.2 0 10.1.3 12.1 1 2 .6 3.7 1.9 4.9 3.6 1.2 1.7 1.8 3.8 1.7 5.9.1 2.4-.7 4.7-2.2 6.6-1.5 1.6-3.5 2.7-5.6 3.1-3.2.2-6.3.4-9.3.3z"/></g></svg>