<svg xmlns="http://www.w3.org/2000/svg" xmlns:xlink="http://www.w3.org/1999/xlink" width="19" height="19" viewBox="0 0 19 19"><defs><path id="a" d="M1642.674 748.146a1.87 1.87 0 0 1-.171.635c-.09.183-.204.334-.341.452a1.749 1.749 0 0 1-.513.297c-.204.08-.418.138-.642.175-.223.038-.48.063-.768.077v1.294h-.814v-1.274c-.282 0-.497-.002-.645-.005v1.28h-.814v-1.295l-.285-.003a23.386 23.386 0 0 0-.29-.002h-1.057l.164-.93h.586c.176 0 .278-.086.307-.259v-2.04h.084a.569.569 0 0 0-.084-.006v-1.457c-.046-.23-.203-.345-.47-.345h-.587v-.833l1.12.005c.226 0 .396-.002.512-.005v-1.28h.814v1.255c.29-.007.504-.01.645-.01v-1.245h.813v1.28c.279.024.525.062.74.114.215.053.414.129.597.229s.329.232.436.396c.107.164.172.357.193.581.063.616-.167 1.053-.692 1.31.412.095.72.27.925.523.204.254.283.616.237 1.086zm-3.878-3.35v1.558l.182.003a6.334 6.334 0 0 0 .51-.01c.117-.005.213-.015.29-.028.078-.014.17-.033.273-.056a.918.918 0 0 0 .256-.094c.067-.039.132-.085.196-.137a.492.492 0 0 0 .142-.196.68.68 0 0 0 .048-.259.644.644 0 0 0-.066-.297.712.712 0 0 0-.161-.213.799.799 0 0 0-.254-.142 1.865 1.865 0 0 0-.29-.084 3.02 3.02 0 0 0-.325-.04 3.183 3.183 0 0 0-.307-.013 46.303 46.303 0 0 1-.494.007zm2.272 3.198a.655.655 0 0 0-.08-.325.769.769 0 0 0-.195-.233 1.02 1.02 0 0 0-.304-.155 2.633 2.633 0 0 0-.346-.094 3.233 3.233 0 0 0-.39-.046 5.903 5.903 0 0 0-.706-.01l-.251.005v1.716l.195.003c.103.002.187.002.254.002a7.15 7.15 0 0 0 .59-.027 4.05 4.05 0 0 0 .3-.044 2.21 2.21 0 0 0 .294-.07c.08-.028.164-.063.25-.107a.728.728 0 0 0 .21-.153.714.714 0 0 0 .129-.203.65.65 0 0 0 .05-.259z"/><path id="b" d="M1639.5 737a9.5 9.5 0 1 1 0 19 9.5 9.5 0 0 1 0-19z"/><mask id="d" width="2" height="2" x="-1" y="-1"><path fill="#fff" d="M1636 742h7v10h-7z"/><use xlink:href="#a"/></mask><filter id="c" width="33.5" height="36.9" x="1623" y="729" filterUnits="userSpaceOnUse"><feOffset dx=".5" dy=".9" in="SourceGraphic" result="FeOffset1067Out"/><feGaussianBlur in="FeOffset1067Out" result="FeGaussianBlur1068Out" stdDeviation="1.2 1.2"/></filter><clipPath id="e"><use fill="#fff" xlink:href="#b"/></clipPath></defs><g transform="translate(-1630 -737)"><g filter="url(#c)"><use fill="none" stroke-opacity=".25" stroke-width="0" mask="url(&quot;#d&quot;)" xlink:href="#a"/><use fill-opacity=".25" xlink:href="#a"/></g><use fill="#fff" xlink:href="#a"/><use fill="#0f0" xlink:href="#a"/></g><use fill="#fff" fill-opacity="0" stroke="#0c0" stroke-miterlimit="50" stroke-width="4" clip-path="url(&quot;#e&quot;)" xlink:href="#b" transform="translate(-1630 -737)"/></svg>