<svg xmlns="http://www.w3.org/2000/svg" xmlns:xlink="http://www.w3.org/1999/xlink" width="20" height="20" viewBox="0 0 20 20"><defs><path id="a" d="M1642.341 791.733a1.962 1.962 0 0 1-.18.668 1.48 1.48 0 0 1-.36.476 1.845 1.845 0 0 1-.539.313c-.215.083-.44.145-.675.184-.236.04-.505.066-.81.08v1.363h-.856v-1.341c-.297 0-.523-.002-.679-.006v1.347h-.856v-1.363c-.067 0-.167 0-.3-.002a25.155 25.155 0 0 0-.306-.003h-1.113l.173-.978h.617c.185 0 .293-.09.323-.273v-2.148h.089a.608.608 0 0 0-.09-.006v-1.533c-.048-.243-.213-.364-.494-.364h-.618v-.876l1.18.005c.237 0 .416-.002.539-.005v-1.347h.856v1.32c.304-.007.53-.011.679-.011v-1.31h.856v1.348c.293.025.553.064.779.12.226.055.436.135.628.24.193.105.346.244.46.417.112.173.18.377.202.612.067.648-.176 1.108-.728 1.379.433.1.758.283.973.55.215.268.299.649.25 1.144zm-4.082-3.527v1.64l.192.003a6.556 6.556 0 0 0 .843-.04c.081-.014.177-.034.286-.059a.96.96 0 0 0 .27-.099c.07-.04.139-.089.206-.144a.516.516 0 0 0 .15-.206.717.717 0 0 0 .05-.272.68.68 0 0 0-.07-.313.746.746 0 0 0-.17-.224.835.835 0 0 0-.266-.15 1.943 1.943 0 0 0-.306-.088 3.165 3.165 0 0 0-.342-.043 3.42 3.42 0 0 0-.323-.013 57.484 57.484 0 0 1-.52.008zm2.392 3.367a.69.69 0 0 0-.084-.342.81.81 0 0 0-.206-.246 1.07 1.07 0 0 0-.32-.163 2.763 2.763 0 0 0-.364-.099 3.408 3.408 0 0 0-.411-.048 6.278 6.278 0 0 0-.743-.01l-.264.005v1.806l.206.003.267.002a7.43 7.43 0 0 0 .62-.029c.09-.009.196-.024.317-.045.12-.022.223-.047.309-.075.085-.029.173-.066.264-.113a.77.77 0 0 0 .22-.16c.055-.06.1-.132.136-.214a.685.685 0 0 0 .053-.272z"/><path id="b" d="M1639 780c5.523 0 10 4.477 10 10s-4.477 10-10 10-10-4.477-10-10 4.477-10 10-10z"/><mask id="d" width="2" height="2" x="-1" y="-1"><path fill="#fff" d="M1635 785h8v10h-8z"/><use xlink:href="#a"/></mask><filter id="c" width="34.5" height="36.9" x="1622" y="772" filterUnits="userSpaceOnUse"><feOffset dx=".5" dy=".9" in="SourceGraphic" result="FeOffset1095Out"/><feGaussianBlur in="FeOffset1095Out" result="FeGaussianBlur1096Out" stdDeviation="1.2 1.2"/></filter><clipPath id="e"><use fill="#fff" xlink:href="#b"/></clipPath></defs><g transform="translate(-1629 -780)"><g filter="url(#c)"><use fill="none" stroke-opacity=".25" stroke-width="0" mask="url(&quot;#d&quot;)" xlink:href="#a"/><use fill-opacity=".25" xlink:href="#a"/></g><use fill="#fff" xlink:href="#a"/><use fill="#675886" xlink:href="#a"/></g><use fill="#fff" fill-opacity="0" stroke="#5f517c" stroke-miterlimit="50" stroke-width="4" clip-path="url(&quot;#e&quot;)" xlink:href="#b" transform="translate(-1629 -780)"/></svg>