<svg xmlns="http://www.w3.org/2000/svg" xmlns:xlink="http://www.w3.org/1999/xlink" viewBox="0 0 220 220"><defs><style>.cls-1{isolation:isolate}.cls-2,.cls-6{mix-blend-mode:lighten}.cls-3{fill:url(#linear-gradient)}.cls-4{fill:url(#linear-gradient-2)}.cls-5{fill:#4e4e4e}.cls-6{fill:url(#linear-gradient-3)}.cls-7{fill:#ed2224}.cls-7,.cls-72{mix-blend-mode:overlay}.cls-8{fill:url(#Безымянный_градиент_19)}.cls-9{fill:url(#Безымянный_градиент_19-2)}.cls-10{fill:url(#Безымянный_градиент_19-3)}.cls-11{fill:url(#Безымянный_градиент_19-4)}.cls-12{fill:url(#Безымянный_градиент_19-5)}.cls-13{fill:url(#Безымянный_градиент_19-6)}.cls-14{fill:url(#Безымянный_градиент_19-7)}.cls-15{fill:url(#Безымянный_градиент_19-8)}.cls-16{fill:url(#Безымянный_градиент_19-9)}.cls-17{fill:url(#Безымянный_градиент_19-10)}.cls-18{fill:url(#Безымянный_градиент_19-11)}.cls-19{fill:url(#Безымянный_градиент_19-12)}.cls-20{fill:url(#Безымянный_градиент_19-13)}.cls-21{fill:url(#Безымянный_градиент_19-14)}.cls-22{fill:url(#Безымянный_градиент_19-15)}.cls-23{fill:url(#Безымянный_градиент_19-16)}.cls-24{fill:url(#Безымянный_градиент_19-17)}.cls-25{fill:url(#Безымянный_градиент_19-18)}.cls-26{fill:url(#Безымянный_градиент_19-19)}.cls-27{fill:url(#Безымянный_градиент_19-20)}.cls-28{fill:url(#Безымянный_градиент_19-21)}.cls-29{fill:url(#Безымянный_градиент_19-22)}.cls-30{fill:url(#Безымянный_градиент_19-23)}.cls-31{fill:url(#Безымянный_градиент_19-24)}.cls-32{fill:url(#Безымянный_градиент_19-25)}.cls-33{fill:url(#Безымянный_градиент_19-26)}.cls-34{fill:url(#Безымянный_градиент_19-27)}.cls-35{fill:url(#Безымянный_градиент_19-28)}.cls-36{fill:url(#Безымянный_градиент_19-29)}.cls-37{fill:url(#Безымянный_градиент_19-30)}.cls-38{fill:url(#Безымянный_градиент_19-31)}.cls-39{fill:url(#Безымянный_градиент_19-32)}.cls-40{fill:url(#Безымянный_градиент_19-33)}.cls-41{fill:url(#Безымянный_градиент_19-34)}.cls-42{fill:url(#Безымянный_градиент_19-35)}.cls-43{fill:url(#Безымянный_градиент_19-36)}.cls-44{fill:url(#Безымянный_градиент_19-37)}.cls-45{fill:url(#Безымянный_градиент_19-38)}.cls-46{fill:url(#Безымянный_градиент_19-39)}.cls-47{fill:url(#Безымянный_градиент_19-40)}.cls-48{fill:url(#Безымянный_градиент_19-41)}.cls-49{fill:url(#Безымянный_градиент_19-42)}.cls-50{fill:url(#Безымянный_градиент_19-43)}.cls-51{fill:url(#Безымянный_градиент_19-44)}.cls-52{fill:url(#Безымянный_градиент_19-45)}.cls-53{fill:url(#Безымянный_градиент_19-46)}.cls-54{fill:url(#Безымянный_градиент_19-47)}.cls-55{fill:url(#Безымянный_градиент_19-48)}.cls-56{fill:url(#Безымянный_градиент_19-49)}.cls-57{fill:url(#Безымянный_градиент_19-50)}.cls-58{fill:url(#Безымянный_градиент_19-51)}.cls-59{fill:url(#Безымянный_градиент_19-52)}.cls-60{fill:url(#Безымянный_градиент_19-53)}.cls-61{fill:url(#Безымянный_градиент_19-54)}.cls-62{fill:url(#Безымянный_градиент_19-55)}.cls-63{fill:url(#Безымянный_градиент_19-56)}.cls-64{fill:url(#Безымянный_градиент_19-57)}.cls-65{fill:url(#Безымянный_градиент_19-58)}.cls-66{fill:url(#Безымянный_градиент_19-59)}.cls-67{fill:url(#Безымянный_градиент_19-60)}.cls-68{fill:url(#Безымянный_градиент_19-61)}.cls-69{fill:url(#Безымянный_градиент_19-62)}.cls-70{fill:url(#linear-gradient-4)}.cls-71{fill:url(#linear-gradient-5)}.cls-72{fill:url(#linear-gradient-6)}.cls-73{fill:url(#Безымянный_градиент_19-63)}.cls-74{fill:url(#linear-gradient-7)}.cls-75{mix-blend-mode:screen}.cls-76{fill:#fff}</style><linearGradient id="linear-gradient" x1="109.38" y1="211.9" x2="109.38" y2="10.37" gradientUnits="userSpaceOnUse"><stop offset="0" stop-color="#ed2224"/><stop offset=".17" stop-color="#ed2527"/><stop offset=".29" stop-color="#ee2d2f"/><stop offset=".38" stop-color="#ef3c3e"/><stop offset=".46" stop-color="#f05152"/><stop offset=".49" stop-color="#f15b5c"/><stop offset=".51" stop-color="#e25152"/><stop offset=".55" stop-color="#c73f41"/><stop offset=".59" stop-color="#b13133"/><stop offset=".63" stop-color="#a02628"/><stop offset=".69" stop-color="#951e21"/><stop offset=".77" stop-color="#8e191c"/><stop offset="1" stop-color="#8c181b"/></linearGradient><linearGradient id="linear-gradient-2" x1="109.23" y1="198.5" x2="109.23" y2="23.77" xlink:href="#linear-gradient"/><linearGradient id="linear-gradient-3" x1="108.64" y1="209.9" x2="108.64" y2="12.37" xlink:href="#linear-gradient"/><linearGradient id="Безымянный_градиент_19" x1="109.85" y1="172.25" x2="109.92" y2="48.47" gradientTransform="rotate(-.03 114.532 229.213)" gradientUnits="userSpaceOnUse"><stop offset="0" stop-color="#fff"/><stop offset="0" stop-color="#f7fcfe"/><stop offset=".03" stop-color="#dbe2e6"/><stop offset=".09" stop-color="#94a0a8"/><stop offset=".1" stop-color="#929ea6"/><stop offset=".13" stop-color="#95a0a8"/><stop offset=".14" stop-color="#9da8af"/><stop offset=".16" stop-color="#abb4bb"/><stop offset=".17" stop-color="#bfc6cb"/><stop offset=".18" stop-color="#dadee1"/><stop offset=".19" stop-color="#fafafb"/><stop offset=".2" stop-color="#fff"/><stop offset=".34" stop-color="#f7fcfe"/><stop offset=".39" stop-color="#bbc1c4"/><stop offset=".45" stop-color="#6f747a"/><stop offset=".5" stop-color="#3f444b"/><stop offset=".52" stop-color="#2c3239"/><stop offset=".56" stop-color="#353b43"/><stop offset=".63" stop-color="#4d545d"/><stop offset=".7" stop-color="#6d7680"/><stop offset=".74" stop-color="#868f99"/><stop offset=".79" stop-color="#a2abb6"/><stop offset=".84" stop-color="#b4bdc8"/><stop offset=".88" stop-color="#bac3ce"/><stop offset="1" stop-color="#fff"/></linearGradient><linearGradient id="Безымянный_градиент_19-2" x1="109.86" y1="173.27" x2="109.93" y2="47.45" xlink:href="#Безымянный_градиент_19"/><linearGradient id="Безымянный_градиент_19-3" x1="85.07" y1="154.42" x2="85.07" y2="152.88" xlink:href="#Безымянный_градиент_19"/><linearGradient id="Безымянный_градиент_19-4" x1="71.18" y1="152.8" x2="71.2" y2="112.65" xlink:href="#Безымянный_градиент_19"/><linearGradient id="Безымянный_градиент_19-5" x1="59.86" y1="111.08" x2="59.86" y2="109.54" xlink:href="#Безымянный_градиент_19"/><linearGradient id="Безымянный_градиент_19-6" x1="108.71" y1="152.43" x2="108.76" y2="68.29" xlink:href="#Безымянный_градиент_19"/><linearGradient id="Безымянный_градиент_19-7" x1="143.4" y1="149.21" x2="143.41" y2="135.8" xlink:href="#Безымянный_градиент_19"/><linearGradient id="Безымянный_градиент_19-8" x1="94.37" y1="157.87" x2="94.4" y2="102.69" xlink:href="#Безымянный_градиент_19"/><linearGradient id="Безымянный_градиент_19-9" x1="117.7" y1="96.79" x2="117.72" y2="62.84" xlink:href="#Безымянный_градиент_19"/><linearGradient id="Безымянный_градиент_19-10" x1="142.74" y1="107.31" x2="142.75" y2="82.24" xlink:href="#Безымянный_градиент_19"/><linearGradient id="Безымянный_градиент_19-11" x1="134.01" y1="105.22" x2="134.03" y2="79.2" xlink:href="#Безымянный_градиент_19"/><linearGradient id="Безымянный_градиент_19-12" x1="95.05" y1="138.65" x2="95.05" y2="136.22" xlink:href="#Безымянный_градиент_19"/><linearGradient id="Безымянный_градиент_19-13" x1="119.07" y1="141.54" x2="119.08" y2="123.83" xlink:href="#Безымянный_градиент_19"/><linearGradient id="Безымянный_градиент_19-14" x1="123.52" y1="144.27" x2="123.56" y2="76.47" xlink:href="#Безымянный_градиент_19"/><linearGradient id="Безымянный_градиент_19-15" x1="122.02" y1="133.05" x2="122.06" y2="73.74" xlink:href="#Безымянный_градиент_19"/><linearGradient id="Безымянный_градиент_19-16" x1="104.79" y1="146.98" x2="104.79" y2="139.89" xlink:href="#Безымянный_градиент_19"/><linearGradient id="Безымянный_градиент_19-17" x1="133.95" y1="143.14" x2="133.96" y2="127.86" xlink:href="#Безымянный_градиент_19"/><linearGradient id="Безымянный_градиент_19-18" x1="147.16" y1="166.69" x2="147.18" y2="132.01" xlink:href="#Безымянный_градиент_19"/><linearGradient id="Безымянный_градиент_19-19" x1="109.19" y1="169.21" x2="109.26" y2="51.51" xlink:href="#Безымянный_градиент_19"/><linearGradient id="Безымянный_градиент_19-20" x1="120.42" y1="149.71" x2="120.46" y2="74.61" xlink:href="#Безымянный_градиент_19"/><linearGradient id="Безымянный_градиент_19-21" x1="127.35" y1="96.25" x2="127.36" y2="71.02" xlink:href="#Безымянный_градиент_19"/><linearGradient id="Безымянный_градиент_19-22" x1="120.12" y1="90.48" x2="120.14" y2="54.43" xlink:href="#Безымянный_градиент_19"/><linearGradient id="Безымянный_градиент_19-23" x1="111.04" y1="166.29" x2="111.08" y2="84.51" xlink:href="#Безымянный_градиент_19"/><linearGradient id="Безымянный_градиент_19-24" x1="133.64" y1="163.24" x2="133.66" y2="127.9" xlink:href="#Безымянный_градиент_19"/><linearGradient id="Безымянный_градиент_19-25" x1="94.73" y1="158.63" x2="94.79" y2="57.49" xlink:href="#Безымянный_градиент_19"/><linearGradient id="Безымянный_градиент_19-26" x1="156.03" y1="92.74" x2="156.04" y2="69.58" xlink:href="#Безымянный_градиент_19"/><linearGradient id="Безымянный_градиент_19-27" x1="114.52" y1="160.61" x2="114.57" y2="60.11" xlink:href="#Безымянный_градиент_19"/><linearGradient id="Безымянный_градиент_19-28" x1="154.35" y1="124.1" x2="154.35" y2="115.43" xlink:href="#Безымянный_градиент_19"/><linearGradient id="Безымянный_градиент_19-29" x1="155.26" y1="126.12" x2="155.26" y2="117.45" xlink:href="#Безымянный_градиент_19"/><linearGradient id="Безымянный_градиент_19-30" x1="156.1" y1="128.12" x2="156.11" y2="119.97" xlink:href="#Безымянный_градиент_19"/><linearGradient id="Безымянный_градиент_19-31" x1="159.65" y1="130.29" x2="159.65" y2="123.86" xlink:href="#Безымянный_градиент_19"/><linearGradient id="Безымянный_градиент_19-32" x1="117.75" y1="155.16" x2="117.8" y2="65.57" xlink:href="#Безымянный_градиент_19"/><linearGradient id="Безымянный_градиент_19-33" x1="149.58" y1="135.94" x2="149.59" y2="130.13" gradientTransform="rotate(.97 150.553 130.453)" xlink:href="#Безымянный_градиент_19"/><linearGradient id="Безымянный_градиент_19-34" x1="162.8" y1="86.29" x2="162.8" y2="80.94" xlink:href="#Безымянный_градиент_19"/><linearGradient id="Безымянный_градиент_19-35" x1="115.69" y1="169.58" x2="115.69" y2="167.53" xlink:href="#Безымянный_градиент_19"/><linearGradient id="Безымянный_градиент_19-36" x1="127.17" y1="167.4" x2="127.17" y2="165.35" xlink:href="#Безымянный_градиент_19"/><linearGradient id="Безымянный_градиент_19-37" x1="132.37" y1="63.83" x2="132.37" y2="61.78" xlink:href="#Безымянный_градиент_19"/><linearGradient id="Безымянный_градиент_19-38" x1="81.32" y1="133.76" x2="81.32" y2="131.71" xlink:href="#Безымянный_градиент_19"/><linearGradient id="Безымянный_градиент_19-39" x1="89.17" y1="141.37" x2="89.17" y2="139.33" xlink:href="#Безымянный_градиент_19"/><linearGradient id="Безымянный_градиент_19-40" x1="151.27" y1="65.73" x2="151.27" y2="63.68" xlink:href="#Безымянный_градиент_19"/><linearGradient id="Безымянный_градиент_19-41" x1="165.75" y1="137.45" x2="165.75" y2="135.4" xlink:href="#Безымянный_градиент_19"/><linearGradient id="Безымянный_градиент_19-42" x1="126.07" y1="155.8" x2="126.07" y2="153.75" xlink:href="#Безымянный_градиент_19"/><linearGradient id="Безымянный_градиент_19-43" x1="137.48" y1="149.82" x2="137.48" y2="147.78" xlink:href="#Безымянный_градиент_19"/><linearGradient id="Безымянный_градиент_19-44" x1="98.75" y1="162.87" x2="98.75" y2="160.83" xlink:href="#Безымянный_градиент_19"/><linearGradient id="Безымянный_градиент_19-45" x1="88.32" y1="159.39" x2="88.32" y2="157.34" xlink:href="#Безымянный_градиент_19"/><linearGradient id="Безымянный_градиент_19-46" x1="120.57" y1="146.15" x2="120.57" y2="144.11" xlink:href="#Безымянный_градиент_19"/><linearGradient id="Безымянный_градиент_19-47" x1="126.32" y1="143.85" x2="126.32" y2="141.8" xlink:href="#Безымянный_градиент_19"/><linearGradient id="Безымянный_градиент_19-48" x1="163.9" y1="122.17" x2="163.91" y2="101.01" xlink:href="#Безымянный_градиент_19"/><linearGradient id="Безымянный_градиент_19-49" x1="162.31" y1="135.11" x2="162.35" y2="65.18" xlink:href="#Безымянный_градиент_19"/><linearGradient id="Безымянный_градиент_19-50" x1="149.54" y1="131.16" x2="149.54" y2="129.11" xlink:href="#Безымянный_градиент_19"/><linearGradient id="Безымянный_градиент_19-51" x1="148.62" y1="96.88" x2="148.62" y2="94.83" xlink:href="#Безымянный_градиент_19"/><linearGradient id="Безымянный_градиент_19-52" x1="148.11" y1="93.43" x2="148.11" y2="91.38" xlink:href="#Безымянный_градиент_19"/><linearGradient id="Безымянный_градиент_19-53" x1="109.88" y1="69.57" x2="109.88" y2="67.52" xlink:href="#Безымянный_градиент_19"/><linearGradient id="Безымянный_градиент_19-54" x1="87.23" y1="73.02" x2="87.23" y2="70.98" xlink:href="#Безымянный_градиент_19"/><linearGradient id="Безымянный_градиент_19-55" x1="72.04" y1="70.59" x2="72.04" y2="68.54" xlink:href="#Безымянный_градиент_19"/><linearGradient id="Безымянный_градиент_19-56" x1="60.26" y1="85.92" x2="60.26" y2="83.87" xlink:href="#Безымянный_градиент_19"/><linearGradient id="Безымянный_градиент_19-57" x1="143.52" y1="70.91" x2="143.53" y2="68.86" xlink:href="#Безымянный_градиент_19"/><linearGradient id="Безымянный_градиент_19-58" x1="93.56" y1="75.9" x2="93.56" y2="73.85" xlink:href="#Безымянный_градиент_19"/><linearGradient id="Безымянный_градиент_19-59" x1="105.66" y1="72.64" x2="105.66" y2="70.59" xlink:href="#Безымянный_градиент_19"/><linearGradient id="Безымянный_градиент_19-60" x1="65.76" y1="94.43" x2="65.76" y2="92.38" xlink:href="#Безымянный_градиент_19"/><linearGradient id="Безымянный_градиент_19-61" x1="63.2" y1="103.97" x2="63.2" y2="101.92" xlink:href="#Безымянный_градиент_19"/><linearGradient id="Безымянный_градиент_19-62" x1="109.82" y1="180.62" x2="109.82" y2="40.1" xlink:href="#Безымянный_градиент_19"/><linearGradient id="linear-gradient-4" x1="51.11" y1="140.6" x2="153.8" y2="144.18" gradientTransform="rotate(2.15 902.665 304.26)" xlink:href="#linear-gradient"/><linearGradient id="linear-gradient-5" x1="49.92" y1="139.49" x2="153.77" y2="143.11" gradientTransform="rotate(2.15 902.665 304.26)" xlink:href="#linear-gradient"/><linearGradient id="linear-gradient-6" x1="49.75" y1="142.11" x2="153.68" y2="142.11" gradientTransform="rotate(2.15 902.665 304.26)" xlink:href="#linear-gradient"/><linearGradient id="Безымянный_градиент_19-63" x1="28.99" y1="110.06" x2="189.64" y2="110.06" xlink:href="#Безымянный_градиент_19"/><linearGradient id="linear-gradient-7" x1="3.84" y1="110.14" x2="214.23" y2="110.14" gradientUnits="userSpaceOnUse"><stop offset="0" stop-color="#fff"/><stop offset="0" stop-color="#f7fcfe"/><stop offset=".05" stop-color="#dbe2e6"/><stop offset=".15" stop-color="#94a0a8"/><stop offset=".15" stop-color="#929ea6"/><stop offset=".22" stop-color="#95a0a8"/><stop offset=".26" stop-color="#9da8b0"/><stop offset=".3" stop-color="#abb5bc"/><stop offset=".33" stop-color="#bfc8ce"/><stop offset=".36" stop-color="#d9e0e4"/><stop offset=".38" stop-color="#f7fcfe"/><stop offset=".5" stop-color="#b0b7bd"/><stop offset=".58" stop-color="#7f8891"/><stop offset=".63" stop-color="#6d7680"/><stop offset=".67" stop-color="#868f99"/><stop offset=".73" stop-color="#a2abb6"/><stop offset=".78" stop-color="#b4bdc8"/><stop offset=".82" stop-color="#bac3ce"/><stop offset="1" stop-color="#fff"/></linearGradient></defs><title>r_chip</title><g class="cls-1"><g id="Layer_1" data-name="Layer 1"><g class="cls-2"><path class="cls-3" d="M109.36 211.9h-.91v-5h.93zm2.28 0l-.12-5h1l.17 5zm-5.15 0h-1l.19-5h1zm8.23-.1l-.26-5 1-.05.31 5zm-11.31 0l-1-.06.34-5 1 .06zm14.39-.17l-.41-5 1-.09.47 5zm-17.47-.06l-1-.09.5-5 1 .1zm20.55-.25l-.58-5 1-.12.62 5zm-23.62-.07l-1-.12.65-5 1 .12zm26.68-.32l-.72-5 1-.14.76 4.95zm-29.74-.09l-1-.16.79-5 1 .15zm32.78-.4l-.86-4.94.95-.18.93 4.93zm-35.82-.11l-1-.19 1-4.92 1 .18zm38.86-.48l-1-4.91 1-.2 1.08 4.9zm-41.9-.12l-1-.22 1.1-4.89 1 .21zm44.91-.55l-1.17-4.88.95-.23 1.22 4.86zM85.12 209l-1-.26 1.25-4.85.95.24zm50.9-.63l-1.32-4.84.94-.26 1.38 4.82zm-53.89-.16l-1-.28 1.4-4.82.94.27zm56.86-.7l-1.48-4.8.94-.29 1.53 4.78zm-59.82-.18l-1-.31 1.55-4.78.93.3zm62.77-.78l-1.62-4.75.93-.32 1.67 4.73zm-65.7-.19l-1-.34 1.76-4.75.92.32zm68.62-.86l-1.77-4.69.92-.35 1.81 4.68zm-71.52-.2l-1-.37 1.84-4.67.91.35zm74.4-.93l-1.91-4.64.9-.38 2 4.62zm-77.26-.21l-1-.41 2-4.61.89.38zm80.1-1l-2.05-4.59.88-.4 2.12 4.55zm-82.92-.23c-.32-.14-.63-.28-.93-.43l2.12-4.54.89.41zm85.73-1.09l-2.2-4.51.88-.43 2.25 4.48zm-88.52-.23l-.91-.45 2.26-4.48.88.44zm91.28-1.16l-2.33-4.45.87-.46 2.37 4.42zm-94-.24l-.9-.49 2.4-4.4.86.46zm96.74-1.24l-2.47-4.38.85-.48 2.52 4.34zm-99.44-.25l-.88-.51 2.53-4.33.85.49zm102.11-1.32l-2.6-4.29.83-.51 2.65 4.26zm-104.76-.25l-.87-.54 2.67-4.25.83.52zm107.38-1.39l-2.73-4.21.81-.54 2.78 4.18zm-110-.25l-.86-.57 2.8-4.17.81.54zM166.73 194l-2.86-4.12.8-.56 2.9 4.1zm-115.1-.26l-.84-.59 2.92-4.08.8.57zm117.61-1.53l-3-4 .78-.58 3 4zm-120.11-.27l-.82-.62 3-4 .77.59zm122.56-1.61l-3.1-3.94.77-.62 3.14 3.92zm-125-.27l-.8-.65 3.16-3.89.76.61zm127.4-1.68l-3.22-3.84.74-.64 3.27 3.81zm-129.78-.28l-.79-.67 3.28-3.79.74.63zm132.12-1.74l-3.34-3.75.72-.65 3.39 3.7zM42 186.07l-.76-.7 3.39-3.7.72.66zm136.72-1.81l-3.45-3.64.7-.68 3.5 3.6zm-139-.3l-.74-.71 3.5-3.6.71.69zm141.19-1.86l-3.56-3.53.68-.7 3.6 3.49zm-143.39-.3l-.72-.74 3.62-3.48.67.69zm145.53-1.92l-3.67-3.43.66-.71 3.71 3.37zm-147.66-.32c-.23-.25-.47-.5-.7-.76l3.72-3.37.66.72zm149.73-2l-3.77-3.31.64-.74 3.81 3.27zm-151.79-.33l-.68-.78 3.82-3.25.64.74zm153.79-2l-3.87-3.2.62-.75 3.9 3.15zm-155.79-.33l-.65-.8 3.92-3.1.62.76zM189 172.83l-4-3.08c.2-.25.4-.51.59-.77l4 3zm-159.63-.35l-.62-.82 4-3 .59.78zm161.49-2.11l-4.06-3 .57-.79 4.09 2.91zM27.56 170l-.59-.83 4.1-2.9.57.8zm165.11-2.16l-4.14-2.84.54-.8 4.18 2.78c-.19.3-.38.58-.58.86zm-166.87-.37l-.57-.86 4.18-2.77.55.82zm168.57-2.2l-4.23-2.7.53-.83 4.25 2.67zm-170.26-.39c-.18-.29-.37-.58-.55-.88l4.27-2.63.52.82zM196 162.65l-4.31-2.57.49-.84 4.34 2.52zm-173.5-.41l-.52-.89 4.35-2.51c.16.28.32.57.49.84zm175-2.26l-4.39-2.43.47-.87 4.41 2.4zM21 159.55l-.5-.91 4.43-2.37.46.86zm178-2.28l-4.48-2.27.44-.87 4.48 2.26zm-179.46-.46c-.16-.3-.31-.61-.46-.92l4.49-2.23.44.87zm180.83-2.3l-4.53-2.17c.14-.29.28-.58.41-.88l4.56 2.12zM18.16 154l-.44-.93 4.56-2.1.42.9zm183.47-2.32l-4.59-2 .39-.9 4.61 2zm-184.75-.5c-.14-.31-.27-.63-.41-1l4.63-1.94c.12.3.25.6.38.89zm186-2.33l-4.7-1.85.36-.91 4.67 1.84zm-187.14-.53l-.38-1 4.64-1.74c.11.31.23.61.35.92zm188.2-2.32l-4.71-1.73.34-.92 4.72 1.68c-.11.32-.23.64-.35.97zm-189.35-.53l-.35-1 4.76-1.65.33.92zM205 143.08l-4.77-1.59.31-.93 4.78 1.54zm-191.39-.56l-.32-1 4.76-1.52.3.93zm192.32-2.39l-4.81-1.44.28-.94 4.82 1.4zm-193.24-.56c-.09-.33-.19-.66-.28-1l4.83-1.36.27.94zm194.08-2.41l-4.85-1.29.25-1 4.86 1.25zm-194.9-.57c-.09-.33-.17-.66-.26-1l4.87-1.21.24 1zm195.65-2.42L202.6 133c.08-.31.15-.63.22-1l4.9 1.09c-.08.41-.15.74-.23 1.08zm-196.38-.58l-.23-1 4.91-1.07.21 1zm197-2.44l-4.92-1 .18-1 4.93.94zm-197.68-.58c-.07-.34-.13-.67-.19-1l4.93-.91.18 1zm198.24-2.46l-5-.84.16-1 5 .8zm-198.78-.58c-.05-.34-.11-.68-.16-1l5-.76.15 1zm199.26-2.47l-5-.69c0-.32.09-.64.13-1l5 .63c-.04.38-.08.72-.13 1.06zm-199.71-.59l-.13-1 5-.61.13 1zM209.56 122l-5-.53.1-1 5 .48zm-200.45-.59c0-.34-.06-.68-.1-1l5-.45.09 1zm200.73-2.49l-5-.38.07-1 5 .34zm-201-.59c0-.34 0-.68-.07-1l5-.3.06 1zM210 115.84l-5-.23v-1l5 .18c.06.36 0 .71 0 1.05zm-201.32-.59v-1l5-.15v1zm201.44-2.5l-5-.07v-1h5zM8.8 112.07c0-.34.2-.28.2-1.11h5.33v.12c0 .38-.25.66-.25 1zm196.31-2.33v-1l5-.12v1zM13.64 109l-5-.11v-1l5 .15zM205 106.81c0-.33 0-.65-.05-1l5-.28c0 .35 0 .69.05 1zm-191.28-.7l-5-.26.06-1 5 .31zm191.1-2.23l-.07-1 5-.42.08 1zm-190.9-.7l-5-.41c0-.34.05-.69.09-1l5 .47c-.01.29-.01.61-.07.94zM204.58 101l-.11-1 5-.57.11 1zm-190.36-.7l-5-.57.12-1 5 .62zm190-2.22c0-.32-.09-.64-.14-1l5-.74c.06.34.1.68.15 1zM14.6 97.35l-5-.72.15-1 5 .77zm189.19-2.21l-.17-1 4.94-.89.18 1zm-188.73-.69l-4.94-.87.18-1 4.93.92c-.06.31-.11.63-.17.95zm188.2-2.19l-.2-1 4.91-1 .21 1zm-187.65-.69l-4.91-1 .21-1 4.91 1.07zm187-2.18c-.08-.32-.15-.64-.23-1l4.87-1.19c.09.33.17.67.24 1zm-186.36-.68l-4.88-1.17c.08-.34.17-.67.25-1l4.87 1.22zm185.68-2.17l-.26-.94 4.84-1.34.27 1zM17 85.87l-4.84-1.33.28-1 4.82 1.37zm184.15-2.15l-.28-.94 4.79-1.48.3 1zM17.8 83.05L13 81.58c.1-.33.2-.66.31-1l4.78 1.52c-.09.32-.2.64-.29.95zm182.45-2.14c-.1-.31-.21-.62-.32-.93l4.75-1.64.33 1zM18.7 80.25L14 78.64c.11-.33.22-.65.34-1L19 79.33c-.09.31-.19.67-.3.92zm180.58-2.12c-.12-.3-.23-.61-.34-.91l4.68-1.79c.13.32.25.65.37 1zM19.69 77.5L15 75.73l.37-1L20 76.58zm178.53-2.12l-.37-.9 4.63-1.93c.14.32.27.64.4 1zm-177.46-.62l-4.64-1.9c.13-.32.26-.64.4-1l4.62 2zm176.32-2.09l-.4-.89 4.57-2.07.42.94zm-175.17-.59l-4.58-2c.14-.31.28-.63.43-.94l4.56 2.1zM195.85 70l-.42-.88 4.5-2.21c.16.31.31.62.46.93zm-172.7-.57l-4.52-2.19c.15-.31.3-.62.46-.92l4.49 2.23zm171.4-2.07l-.45-.87 4.43-2.34.48.91zm-170.09-.55L20 64.49l.48-.91L24.92 66c-.15.24-.3.53-.46.81zm168.7-2l-.48-.85 4.32-2.53.51.91zm-167.3-.53l-4.37-2.46.51-.89 4.34 2.5zm165.84-2l-.51-.84 4.29-2.61.53.88zm-164.36-.57L23 59.12l.54-.88 4.26 2.64c-.13.28-.3.55-.46.83zm162.82-2l-.54-.82 4.21-2.75.55.87zm-161.27-.48l-4.22-2.72.57-.87 4.18 2.77zm159.65-2l-.56-.81 4.12-2.87.58.85zm-158-.47l-4.12-2.86.58-.8 4.07 2.9zm156.33-1.94l-.57-.78 4-3 .61.83zm-154.65-.41l-4-3 .61-.82 4 3zm152.86-1.9l-.6-.76 3.93-3.12.64.81zM34 52.08L30 49l.64-.81 3.92 3.14c-.17.23-.37.49-.56.75zm149.25-1.86l-.62-.75 3.84-3.23.66.79zM35.84 49.8L32 46.58l.67-.79 3.81 3.26zm145.5-1.8c-.21-.25-.43-.49-.65-.74l3.74-3.34c.23.25.46.51.68.77zm-143.59-.42L34 44.24l.68-.76 3.72 3.37zm141.62-1.77l-.67-.71 3.63-3.46c.24.24.48.49.71.75zm-139.64-.4L36.08 42l.71-.75 3.61 3.49zm137.61-1.72l-.69-.68 3.52-3.57.73.72zm-135.57-.38l-3.54-3.55L39 39l3.51 3.59zm133.47-1.66c-.23-.23-.47-.45-.71-.67l3.41-3.68.75.7zm-131.36-.38l-3.43-3.66.76-.7 3.39 3.7zm129.2-1.61l-.73-.65 3.31-3.77.76.67zm-127-.37l-3.32-3.76.77-.67 3.29 3.79zm124.8-1.55l-.74-.62 3.18-3.88.79.66zm-122.59-.35l-3.2-3.87.79-.65 3.17 3.9zm120.3-1.5l-.77-.6 3.07-4 .8.63zm-118-.34l-3.09-4 .82-.63 3 4zm115.68-1.44l-.79-.57 2.95-4.07.82.61zm-113.35-.33l-3-4.06.83-.6 2.93 4.08zm111-1.37l-.81-.56 2.82-4.15.85.58zm-108.6-.33l-2.84-4.14.86-.58 2.79 4.17zm106.13-1.31l-.83-.53 2.7-4.23.86.55zm-103.68-.31l-2.71-4.22.87-.56 2.66 4.25zM159 29.22l-.84-.51 2.56-4.31.88.53zm-98.7-.31l-2.58-4.3.89-.53 2.53 4.33zm96.17-1.17l-.85-.48 2.38-4.39.9.5zm-93.63-.3l-2.44-4.38.9-.5L63.67 27zm91.06-1.11l-.86-.44 2.29-4.47.91.47zm-88.5-.28l-2.3-4.46.91-.47 2.27 4.48zm85.86-1l-.88-.42 2.16-4.53.92.44zM68 24.74l-2.16-4.53.93-.44 2.12 4.55zm80.58-1l-.89-.39 2-4.6.94.41zm-77.88-.23l-2-4.6.95-.41 2 4.62c-.35.12-.65.26-.95.39zm75.23-.9l-.9-.37 1.87-4.65c.32.12.63.25.95.39zm-72.51-.25l-1.89-4.65 1-.38 1.8 4.67zm69.79-.83l-.92-.34 1.71-4.71 1 .36zm-67.05-.23l-1.74-4.71 1-.35L77.08 21zm64.29-.76l-.94-.31 1.59-4.77 1 .33zm-61.51-.22l-1.6-4.76 1-.32L79.87 20zm58.72-.69l-.94-.28 1.43-4.81 1 .29zm-55.91-.2l-1.45-4.81 1-.29 1.39 4.82zm53.09-.62l-1-.26 1.28-4.85 1 .27zm-50.27-.19l-1.3-4.84 1-.26 1.24 4.86zm47.43-.55l-.95-.22 1.13-4.85c.33.08.67.15 1 .24zm-44.59-.16L86.27 13l1-.24 1.1 4.9zm41.73-.48l-1-.2 1-4.92 1 .21zm-38.86-.15l-1-4.91 1-.2.95 4.93zm36-.41l-1-.17.83-4.95 1 .18zm-33.1-.12l-.84-4.95 1-.17.79 5zm30.2-.35l-1-.14.68-5 1 .14zm-27.3-.1l-.68-5 1-.14.64 5zm24.37-.3l-1-.11.52-5 1 .11zM99 15.94l-.53-5 1-.1.49 5zm18.56-.21l-1-.08.38-5 1 .09zm-15.63-.06l-.39-5 1-.08.34 5zm12.7-.15h-1l.22-5h1zm-9.77 0l-.24-5 1-.05.19 5zm6.85-.08h-1l.07-5h1zm-3.92 0l-.08-5h1v5z"/></g><g class="cls-2"><path class="cls-4" d="M108.77 198.5h-1.13l.11-5.47h1.07zm2.26 0l-.1-5.48h1l.18 5.48zm-5.65-.08c-.37 0-.75 0-1.12-.06l.32-5.47c.35 0 .71 0 1.06.06zm9 0l-.3-5.47 1.06-.07.37 5.47zM102 198.2l-1.13-.11.53-5.45 1 .1zm15.78-.1l-.52-5.45 1.06-.11.58 5.45zm-19.15-.25l-1.12-.15.74-5.43 1 .14zm22.52-.14l-.74-5.43 1.06-.15.79 5.43zm-25.88-.34l-1.11-.19 1-5.39 1 .17zm29.23-.18l-1-5.39 1-.19 1 5.39zm-32.5-.43l-1.1-.23 1.1-5.35 1 .21zm35.88-.21l-1.15-5.36 1-.23 1.21 5.35zM88.65 196l-1.1-.28 1.37-5.3 1 .25zm42.48-.26l-1.36-5.31 1-.27 1.42 5.3zm-45.76-.61l-1.09-.32 1.58-5.24 1 .29zm49-.3l-1.58-5.24 1-.31 1.63 5.23zm-52.28-.69l-1.06-.36 1.77-5.19 1 .34zm55.51-.34l-1.77-5.18 1-.36 1.83 5.17zm-58.7-.78l-1.06-.4 2-5.11 1 .37zm61.9-.38l-2-5.11 1-.39 2 5.08c-.27.18-.62.31-.97.45zm-65-.86l-1-.44 2.18-5 1 .41zm68.19-.43l-2.18-5 1-.42 2.24 5zm-71.28-.93l-1-.48 2.34-4.94.94.44zm74.37-.48l-2.39-4.94 1-.47 2.42 4.91zm-77.41-1l-1-.52 2.55-4.85.94.49zm80.44-.52l-2.56-4.85.93-.49 2.63 4.8zm-83.42-1.08l-1-.55 2.74-4.75.92.52zm86.39-.56l-2.74-4.75.91-.53 2.81 4.7zm-89.31-1.14l-.95-.6 2.92-4.64.9.56zm92.21-.62l-2.92-4.63.89-.57 3 4.59zm-95.06-1.21l-.93-.63 3.1-4.52c.29.2.58.4.88.59zm97.89-.66l-3.1-4.51.87-.61 3.16 4.48zm-100.67-1.24l-.91-.67 3.27-4.4.86.63zm103.42-.7l-3.28-4.39.85-.64 3.33 4.35zm-106.12-1.34l-.89-.71L58 174.9l.82.66zm108.8-.74l-3.44-4.26.82-.67 3.49 4.22zm-111.42-1.4L52 177l3.61-4.13.79.69zm114-.78l-3.6-4.13.79-.7 3.66 4.08zm-116.54-1.47l-.83-.77 3.77-4 .77.72zm119.06-.81l-3.76-4 .76-.73 3.82 3.93zm-121.5-1.52l-.8-.81 3.96-3.83.74.74zm123.92-.85l-3.92-3.83.74-.76 4 3.78zm-126.29-1.59l-.76-.83 4-3.68.72.78zm128.61-.87l-4.08-3.68.71-.8 4.09 3.65zm-130.87-1.65l-.73-.86 4.19-3.53.69.81zm133.1-.9l-4.2-3.52.68-.82 4.23 3.48zm-135.26-1.71c-.24-.29-.47-.58-.7-.88l4.32-3.37.66.84zm137.38-.92l-4.32-3.36.64-.84 4.37 3.3zM39 162.89l-.66-.91 4.45-3.19.63.86zm141.48-.95l-4.48-3.18.61-.87 4.5 3.14zM37 160.13l-.63-.94 4.57-3 .59.87zm145.34-1l-4.57-3 .57-.89 4.62 3zm-147.16-1.85c-.2-.32-.4-.64-.59-1l4.68-2.84.56.9zm149-1l-4.69-2.84.55-.91 4.71 2.79zm-150.74-1.92c-.19-.32-.37-.65-.55-1l4.79-2.65.52.93zm152.43-1l-4.79-2.65.5-.92 4.83 2.57c-.17.35-.35.64-.54 1.01zm-154.06-2l-.51-1 4.89-2.46c.16.31.32.63.49.94zm155.64-1l-4.89-2.47c.15-.31.31-.62.46-.94l4.93 2.39c-.16.37-.33.71-.5 1.05zm-157.14-2l-.48-1 5-2.26c.14.32.29.64.44 1zm158.6-1l-5-2.27c.14-.32.28-.64.43-1l5 2.2c-.12.36-.27.71-.43 1.05zm-160-2.09l-.44-1.05 5.07-2.08c.14.33.27.66.41 1zm161.33-1l-5.07-2.08c.14-.32.27-.65.39-1l5.1 2zm-162.6-2.15l-.38-1.12 5.15-1.87.36 1zm163.82-1l-5.14-1.88c.12-.33.24-.66.35-1l5.18 1.8c-.12.33-.24.69-.38 1.04zm-165-2.19c-.12-.36-.24-.72-.35-1.08l5.22-1.67c.1.34.21.67.33 1zm166.06-1l-5.21-1.67c.1-.33.21-.67.31-1l5.24 1.6c-.06.3-.17.66-.29 1.01zM25.5 135.65c-.11-.36-.21-.72-.31-1.09l5.28-1.47c.09.35.19.69.29 1zm168.05-1l-5.28-1.47.28-1 5.29 1.41-.29 1.04zm-168.94-2.27l-.27-1.1 5.34-1.28c.08.34.16.69.25 1zm169.78-1l-5.33-1.25.24-1 5.34 1.2c-.08.29-.16.67-.25 1.01zm-170.54-2.31c-.07-.36-.15-.73-.22-1.1l5.38-1 .21 1zm171.26-1l-5.38-1 .2-1 5.39 1zm-171.88-2.33q-.11-.55-.18-1.11l5.41-.84c.05.35.11.7.17 1zm172.47-1l-5.42-.84.16-1.06 5.42.79zm-173-2.31c-.05-.37-.1-.74-.14-1.12l5.44-.63c0 .36.09.71.13 1zm173.42-1l-5.44-.63.12-1.06 5.45.58zM22.36 119l-.09-1.13 5.46-.42.09 1.06zm174.12-1l-5.46-.42.07-1.07 5.47.37zm-174.36-2.35c0-.38 0-.75-.05-1.13l5.48-.21c0 .35 0 .71.05 1.06zm174.56-1.06l-5.48-.21v-1.07l5.47.16zm-174.81-2.42a5.91 5.91 0 0 1-.16-1.23h5.48s.08.75.08 1.11zm174.89-1h-5.49v-1l5.49-.06v1zm-169.24-2.29l-5.52-.15v-1.12l5.47.22zm163.69-.88l-.05-1.07 5.47-.26.05 1.12zm-163.55-2.29l-5.46-.35c0-.38.05-.76.08-1.13l5.46.42c-.03.35-.05.71-.08 1.06zm163.34-.85l-.09-1.07 5.46-.47.09 1.12zm-163.1-2.31l-5.42-.55c0-.38.08-.75.13-1.12l5.44.63zm162.8-.86c0-.35-.09-.7-.13-1L196 100c.05.37.1.74.14 1.12zM28.32 99.4l-5.42-.78c.05-.38.11-.75.17-1.12l5.41.85c-.05.35-.11.7-.16 1.05zm162-.85c-.05-.35-.11-.7-.16-1l5.4-.9.18 1.11zM28.83 96.26l-5.38-1q.09-.55.21-1.11L29 95.22c0 .35-.1.69-.17 1.04zm160.93-.84l-.21-1 5.37-1.11c.07.36.14.73.22 1.1zM29.47 93.15L24.12 92c.08-.36.17-.73.26-1.1l5.33 1.27c-.09.29-.16.64-.24.98zm159.62-.84c-.08-.34-.16-.68-.25-1l5.32-1.31c.09.37.18.73.26 1.1zM30.22 90.07l-5.29-1.41c.09-.36.19-.73.29-1.09l5.28 1.48c-.09.34-.19.68-.28 1.02zm158.08-.83c-.09-.34-.19-.68-.28-1l5.26-1.53.3 1.09zM31.1 87l-5.24-1.6c.11-.37.22-.73.34-1.08L31.41 86zm156.3-.82l-.33-1 5.19-1.75.36 1.09zM32.09 84l-5.17-1.82c.13-.35.25-.7.38-1.06L32.45 83zm154.28-.82l-.37-1 5.13-1.93.39 1.06zM33.2 81l-5.1-2c.14-.35.28-.7.43-1.05L33.6 80c-.14.37-.27.7-.4 1zm152-.81c-.13-.33-.26-.65-.4-1l5-2.14.44 1zM34.42 78.1l-5-2.21c.15-.34.31-.68.46-1l5 2.28zM184 77.28c-.14-.32-.29-.64-.44-1l4.91-2.28c.17.34.33.68.48 1zm-148.2-2l-4.93-2.41.5-1 4.9 2.47c-.2.26-.36.58-.51.9zm146.83-.83l-.48-.94 4.85-2.57.52 1zm-145.39-2l-4.83-2.6.54-1 4.8 2.66zm143.91-.82l-.52-.92 4.72-2.71c.19.33.37.66.55 1zm-142.4-1.97L34 66.88c.19-.33.39-.65.58-1l4.69 2.84c-.16.33-.34.63-.52.94zm140.77-.81L179 68l4.61-3 .59 1zM40.42 67l-4.62-3c.21-.32.41-.64.62-1l4.57 3zm137.4-.79l-.6-.89 4.55-3.06.62.93zM42.18 64.32l-4.49-3.13c.21-.31.43-.62.65-.92l4.45 3.19zM176 63.54l-.63-.86 4.42-3.25.66.92zM44 61.76l-4.36-3.31.68-.9 4.33 3.37zM174.12 61l-.66-.84 4.29-3.41.7.89zM46 59.27l-4.24-3.48.72-.86 4.19 3.52c-.21.27-.44.55-.67.82zm126.11-.76l-.68-.8 4.14-3.58c.25.29.5.57.74.86zm-124-1.66L44 53.22l.76-.84 4.05 3.68c-.27.26-.51.52-.74.79zm122-.73l-.71-.78 4-3.73c.26.27.52.55.77.83zm-119.9-1.6l-4-3.8.78-.8L51 53.75c-.29.25-.54.51-.79.77zm117.65-.71l-.75-.75 3.89-3.89.8.8zm-115.4-1.55l-3.81-3.93.81-.79 3.76 4zm113.13-.67l-.78-.73 3.71-4 .83.77zM54.78 50.1L51.12 46l.85-.75 3.6 4.13zm108.46-.65l-.8-.69 3.56-4.17.85.74zM57.19 48l-3.49-4.19.87-.72L58 47.36zm103.62-.62l-.83-.66 3.39-4.3.88.7zM59.67 46.05l-3.32-4.36.9-.68 3.27 4.4zm98.63-.59c-.28-.21-.56-.42-.85-.62l3.22-4.44.91.67zm-96.06-1.29l-3.16-4.48L60 39l3.1 4.52zm93.49-.55l-.87-.59 3-4.56.94.63zm-90.86-1.24l-3-4.59 1-.61 2.92 4.63zm88.21-.51l-.9-.56 2.87-4.67 1 .6zm-85.51-1.16L64.77 36c.32-.2.65-.39 1-.57l2.75 4.74zm82.8-.48l-.92-.52 2.68-4.78 1 .56zm-80-1.1l-2.62-4.81 1-.54 2.55 4.85zm77.26-.44l-.94-.48 2.5-4.88 1 .52zm-74.44-1l-2.43-4.91 1-.5 2.37 4.94zm71.61-.4l-1-.45 2.3-5 1 .48zM76 36.31l-2.23-5 1-.45 2.18 5zm65.89-.31l-1-.41 2.1-5.05 1 .44zM79 35.08l-2-5.09 1-.42 2 5.12zm60-.32l-1-.38 1.92-5.13 1.06.4zM82 34l-1.83-5.16 1.07-.38L83 33.6zm54-.28l-1-.34 1.72-5.21 1.06.36zm-51-.73l-1.62-5.23 1.08-.33 1.54 5.2zm48-.25l-1-.3 1.5-5.26 1.09.32zm-45-.68l-1.42-5.3 1.09-.28 1.36 5.31zm41.88-.22l-1-.26 1.31-5.32 1.09.27zm-38.79-.55L89.89 26c.36-.08.73-.17 1.1-.24l1.15 5.35zm35.71-.18l-1-.22 1.09-5.37 1.11.23zm-32.61-.46l-1-5.39 1.11-.2.94 5.4zm29.49-.16l-1-.17.88-5.41 1.11.19zm-26.35-.37l-.8-5.42 1.12-.15.75 5.45zm23.23-.12l-1-.13.66-5.44 1.12.14zm-20.06-.28l-.59-5.45 1.12-.11.52 5.45zm16.91-.09l-1-.09.45-5.46 1.13.1zm-13.75-.19l-.38-5.44 1.13-.07.31 5.47zm10.58-.05l-1-.06.24-5.47 1.13.06zm-7.41-.1l-.17-5.48h1.13l.1 5.48zm4.24 0H110v-5.48h1.13z"/></g><path class="cls-5" d="M109.36 29.72a82.33 82.33 0 0 1 82.24 81.83v-.42a82.25 82.25 0 0 0-164.49 0v.42a82.34 82.34 0 0 1 82.25-81.83zm93.28 81.83a93.28 93.28 0 0 1-186.55 0v.42a93.29 93.29 0 0 0 186.57 0c-.01-.14-.02-.28-.02-.42z"/><path class="cls-6" d="M108.64 12.37a98.77 98.77 0 1 0 98.76 98.76 98.87 98.87 0 0 0-98.76-98.76zm0 183a84.29 84.29 0 1 1 84.29-84.29 84.38 84.38 0 0 1-84.29 84.34z"/><path class="cls-7" d="M197.69 110.59v-.5h-2.49v.49zm0 1.21v-.49h-2.5v.48zm0 1.22v-.5l-2.51-.06v.48zm0 1.21v-.49l-2.5-.1v.48zM201 111v-.89h-2.5v.87zm0 1.13v-.89h-2.5v.86zm0 1.14v-.89l-2.51-.06v.86zm0 1.13v-.89l-2.51-.09v.87zm4.33-4v-.27h-3.45v.26zm0 .59v-.27h-3.45v.26zm0 .59v-.27h-3.45v.26zm0 .59v-.26l-3.46-.07v.26zm0 .6v-.27l-3.45-.08v.25zm0 .59v-.27l-3.45-.1v.26zm0 .59v-.27l-3.45-.12v.26zm0 .59v-.27l-3.45-.14v.26zm0 .59v-.26l-3.45-.17v.26zm0 .6v-.27l-3.45-.19v.26zm-8 5.21l.07-.49-2.49-.28-.07.47zm-.18 1.2l.07-.49-2.48-.32-.07.48zm-.17 1.21l.07-.49-2.48-.36-.07.48zm-.17 1.2l.07-.49-2.48-.39-.07.48zm3.71-2.84l.12-.88-2.49-.29-.12.86zm-.17 1.12l.13-.88-2.49-.32-.12.86zm-.16 1.12L200 123l-2.48-.35-.13.86zm-.16 1.12l.13-.88-2.48-.38-.13.86zm4.76-3.5v-.26l-3.43-.4v.26zm-.08.59v-.26l-3.42-.42v.26zm-.09.59v-.27L201 122v.25zm-.08.59v-.27l-3.42-.46v.26zm-.09.58v-.26l-3.42-.48v.25zm-.08.59v-.27l-3.41-.5v.26zm-.09.59v-.27l-3.41-.52v.25zm-.08.58v-.26l-3.41-.55v.26zm-.09.59V126l-3.41-.56v.26zm-.09.59v-.27l-3.4-.59v.26zm-8.53 4.25l.13-.48-2.72-.63-.12.47zm-.31 1.17l.13-.48-2.44-.61-.12.47zm-.32 1.17l.13-.47-2.42-.65-.12.47zm-.31 1.18l.13-.48-2.42-.68-.12.47zm4-2.39l.23-.86-2.44-.58-.23.84zm-.29 1.09l.22-.86-2.43-.6-.22.84zm-.3 1.1l.23-.86-2.42-.64-.23.84zm-.29 1.1l.23-.86-2.42-.67-.22.84zm5.14-2.92l.07-.26-3.36-.8-.07.25zm-.15.57l.06-.26-3.35-.81-.07.25zm-.16.57l.07-.26-3.35-.83-.07.25zm-.15.58l.07-.26-3.35-.86-.06.25zm-.15.57l.07-.26-3.34-.88-.07.25zm-.16.57l.07-.26-3.33-.9-.07.25zm-.15.57l.07-.25-3.33-.92-.07.25zm-.15.58l.07-.26-3.33-.94-.06.25zm-.16.57l.07-.26-3.31-1-.07.25zm-.15.57l.07-.26-3.31-1-.07.25zm-9 3.23l.18-.46-2.35-.86-.18.44zm-.45 1.12l.18-.46-2.34-.89-.18.45zm-.45 1.13l.18-.46-2.33-.92-.18.45zm-.45 1.13l.18-.46-2.31-1-.18.44zm4.27-1.9l.33-.83-2.36-.85-.32.8zm-.42 1l.33-.82-2.34-.89-.32.8zm-.42 1.06l.33-.83-2.33-.92-.32.81zm-.42 1.05l.33-.83-2.32-.94-.32.8zm5.45-2.3l.1-.25-3.25-1.18-.09.24zm-.22.55l.1-.24-3.42-1.2-.09.24zm-.22.56l.1-.25-3.23-1.22-.1.24zm-.22.55l.1-.25-3.22-1.24-.1.24zm-.22.55l.1-.25-3.44-1.24-.1.24zm-.22.55l.1-.25-3.2-1.28-.1.24zm-.22.55l.1-.25-3.19-1.3-.1.24zm-.22.55l.1-.25-3.19-1.32-.09.24zm-.21.55l.09-.25-3.18-1.34-.09.24zm-.22.55l.09-.25-3.17-1.36-.09.24zm-9.29 2.15l.23-.43-2.23-1.13-.23.42zm-.58 1.07l.24-.43-2.23-1.16-.23.42zm-.58 1.07l.24-.44-2.21-1.18-.23.42zm-.57 1.07l.23-.44-2.42-1.16-.23.43zm4.46-1.39l.42-.78-2.43-1.12-.41.76zm-.54 1l.42-.79-2.22-1.15-.67.73zm-.54 1l.42-.78-2.21-1.18-.41.76zm-.54 1l.42-.78-2.19-1.21-.62.78zm5.68-1.64l.12-.24-3.08-1.55-.12.22zm-.29.52l.13-.24-3.07-1.57-.13.23zm-.28.52l.13-.24-3.07-1.59-.12.23zm-.28.52l.13-.23-3.06-1.61-.12.22zm-.28.52l.13-.23-3.05-1.63-.12.23zm-.28.52l.12-.23-3-1.65-.12.23zm-.29.53l.13-.24-3-1.67-.13.23zm-.28.52L193 157l-3-1.68-.13.22zm-.28.52l.13-.24-3-1.7-.12.23zm-.28.52l.12-.24-3-1.72-.12.23zm-9.48 1.05l.29-.4-2.34-1.38-.28.39zm-.69 1l.28-.4-2.07-1.41-.28.39zm-.7 1l.28-.41-2.05-1.43-.28.39zm-.7 1l.28-.4-2-1.47-.28.4zm4.59-.86l.51-.73-2.09-1.38-.5.71zm-.65.93l.51-.73-2.07-1.4-.5.7zm-.65.93l.51-.73-2.06-1.43-.49.71zm-.65.92l.51-.72-2-1.46-.5.71zm5.83-1l.15-.22-2.88-1.9-.15.21zm-.34.49l.15-.22-2.87-1.92-.15.21zm-.34.48l.15-.22-2.86-1.93-.15.21zm-.34.49l.15-.22-2.85-2-.15.22zm-.34.48L188 165l-2.84-2-.14.21zm-.35.49l.16-.22-2.82-2-.15.21zm-.34.48l.16-.22-2.81-2-.15.21zm-.34.49l.16-.22-2.8-2-.15.21zm-.34.48l.16-.22-2.79-2-.15.21zm-.34.49l.16-.22-2.78-2.06-.15.21zm-9.53-.06l.33-.37-2.16-1.6-.32.36zm-.81.91l.33-.37-1.9-1.64-.32.36zm-.81.9l.33-.36-1.87-1.67-.32.36zm-.8.91l.32-.37-1.85-1.69-.32.36zm4.66-.32l.59-.67-1.92-1.61-.58.65zm-.76.84l.59-.66-1.89-1.64-.58.65zm-.75.85l.59-.66-2.15-1.65-.57.64zm-.76.85l.6-.67-1.86-1.68-.58.65zm5.9-.29l.18-.2-2.88-2.22-.17.2zm-.39.44l.18-.2-2.63-2.24-.17.19zm-.39.44l.17-.2-2.61-2.25-.17.19zm-.4.44l.18-.2-2.6-2.27-.17.2zm-.39.45l.18-.2-2.59-2.29-.17.19zm-.4.44l.18-.2-2.57-2.3-.17.19zm-.39.44l.18-.2-2.56-2.32-.17.19zm-.4.44l.18-.2-2.54-2.33-.17.19zm-.39.44l.18-.2-2.73-2.34-.17.2zm-.39.44l.17-.19-2.51-2.37-.17.19zm-9.7-1.16l.37-.33-1.71-1.82-.36.32zm-.9.81l.37-.33-1.7-1.85-.36.32zm-.91.8l.37-.33-1.67-1.87-.36.32zm-.91.81l.37-.33-1.64-1.89-.36.32zm4.67.22l.66-.59-1.72-1.83-.64.58zm-.85.75l.67-.59-1.7-1.84-.65.57zm-.85.76l.67-.6-1.67-1.86-.65.57zm-.84.75l.66-.59-1.65-1.89-.65.58zm5.89.39l.2-.18-2.37-2.51-.19.17zm-.44.4l.2-.18-2.35-2.51-.2.17zm-.44.39l.2-.18-2.34-2.54-.19.17zm-.45.39l.2-.17-2.32-2.56-.19.17zm-.44.4l.2-.18-2.3-2.57-.2.17zm-.44.39l.2-.18-2.29-2.58-.19.17zm-.44.39l.2-.17-2.31-2.58-.19.17zm-.45.4l.2-.18-2.26-2.61-.19.17zm-.44.39l.2-.18-2.24-2.62-.2.17zm-.44.39l.2-.17-2.23-2.66-.19.17zm-9.27-2.24l.41-.28-1.5-2-.39.27zm-1 .7l.4-.28-1.47-2-.39.28zm-1 .7l.41-.29-1.45-2.05-.39.28zm-1 .69l.4-.28-1.41-2.07-.4.27zm4.61.76l.73-.51-1.5-2-.71.49zm-.93.65l.73-.51-1.47-2-.71.5zm-.93.65l.73-.51-1.45-2.05-.71.5zm-.93.65l.73-.51-1.42-2.07-.71.5zm5.81 1.07l.22-.15-2.06-2.77-.21.15zm-.48.34l.21-.15-2-2.78-.21.14zm-.49.34l.22-.15-2-2.8-.21.15zm-.49.34l.22-.15-2-2.81-.21.15zm-.48.34l.22-.15-2-2.82-.22.15zm-.49.34l.29-.16-2-2.83-.21.15zm-.48.34l.22-.15-2-2.85-.21.15zm-.49.34l.22-.15-1.96-2.84-.21.15zm-.48.34l.22-.15-1.93-2.87-.21.15zm-.49.34l.22-.15-1.91-2.88-.21.15zm-8.94-3.3l.43-.23-1.26-2.16-.42.23zm-1.07.57l.43-.23-1.19-2.17-.42.23zm-1.07.58l.43-.23L150 186l-.42.23zm-1.07.58l.44-.24-1.17-2.22-.42.23zm4.49 1.29l.79-.43-1.26-2.17-.76.41zm-1 .53l.79-.42-1.23-2.19-.76.42zm-1 .54l.78-.42-1.2-2.2-.76.41zm-1 .54l.78-.42-1.17-2.22-.76.41zm5.64 1.74l.24-.13-1.73-3-.22.12zm-.52.28l.24-.13-1.71-3-.23.12zm-.52.28l.29-.15-1.69-3-.23.13zm-.52.28l.24-.12-1.67-3-.23.13zm-.52.29l.23-.13-1.65-3-.23.12zm-.52.28l.23-.13-1.63-3-.23.12zm-.53.28l.24-.13-1.61-3-.23.12zm-.52.28l.24-.13-1.6-3.06-.23.12zm-.52.28l.24-.13-1.58-3.07-.23.12zm-.52.28l.23-.13-1.55-3.08-.23.12zm-8.5-4.32l.46-.18-1-2.31-.45.18zm-1.13.44l.46-.18-1-2.31-.45.17zm-1.13.45l.46-.18-.93-2.33-.44.18zm-1.13.45l.46-.18-.89-2.34-.45.17zm4.31 1.8l.83-.32-1-2.31-.8.32zm-1 .42l.83-.33-1-2.31-.8.32zm-1.06.42l.83-.33-.93-2.33-.81.32zm-1.05.41l.83-.32-.91-2.34-.8.32zm5.41 2.39l.25-.1-1.37-3.17-.24.1zm-.56.22l.25-.1-1.34-3.18-.24.1zm-.55.22l.25-.1-1.32-3.19-.24.1zm-.55.22l.25-.1-1.3-3.2-.24.1zm-.55.22l.25-.1-1.29-3.21-.24.1zm-.55.22l.25-.1-1.27-3.2-.24.1zm-.55.21l.25-.09-1.25-3.22-.24.09zm-.55.22l.25-.1-1.23-3.22-.24.09zm-.55.22l.24-.1-1.2-3.23-.24.09zm-.56.22l.25-.1-1.18-3.24-.24.09zm-7.93-5.29l.48-.13-.71-2.4-.47.12zm-1.17.31l.48-.13-.68-2.41-.47.13zm-1.17.31l.47-.12-.64-2.42-.47.12zm-1.18.31l.48-.12-.61-2.43-.47.12zm4.07 2.3l.86-.23-.71-2.4-.84.22zm-1.09.29l.86-.23-.69-2.41-.83.23zm-1.1.29l.86-.22-.65-2.42-.84.22zm-1.09.29l.86-.22-.63-2.43-.83.22zm5.08 3l.26-.07-1-3.31-.25.07zm-.57.15l.26-.07-1-3.31-.25.06zm-.57.16l.26-.07-1-3.33-.25.07zm-.58.15l.26-.07-.92-3.33-.25.07zm-.57.15l.26-.07-.9-3.33-.25.06zm-.57.15l.26-.07-.88-3.34-.25.07zm-.57.15l.25-.06-.86-3.35-.25.07zm-.58.16l.26-.07-.84-3.35-.25.06zm-.57.15l.26-.07-.82-3.36-.25.07zm-.57.15l.26-.07-.8-3.36-.25.07zm-7.26-6.18l.49-.07-.43-2.47-.48.07zm-1.2.17l.49-.07-.4-2.47-.47.07zm-1.21.17l.49-.07-.36-2.48-.47.07zm-1.2.18l.49-.07-.32-2.49-.48.07zm3.77 2.75l.89-.12-.43-2.47-.86.12zm-1.12.17l.88-.13-.39-2.48-.86.13zm-1.12.16l.88-.13-.37-2.48-.85.12zm-1.12.16l.88-.13-.34-2.48-.85.12zm4.7 3.58h.26l-.58-3.4h-.26zm-.59.08h.27l-.57-3.4h-.26zm-.58.09h.26l-.55-3.41h-.25zm-.59.08h.26l-.52-3.41h-.26zm-.59.08h.27l-.51-3.42h-.25zm-.58.09h.26l-.48-3.42h-.26zm-.59.08h.26l-.46-3.42h-.25zm-.59.09h.27L121 202h-.26zm-.58.08h.26l-.42-3.43h-.26zm-.59.08h.26l-.4-3.43h-.25zm-6.49-7h.45l-.14-2.5h-.48zm-1.22 0h.5l-.11-2.5h-.48zm-1.21 0h.49l-.07-2.51H111zm-1.22 0h.5v-2.51h-.48zm3.43 3.17h.89l-.13-2.5h-.87zm-1.13 0h.89l-.11-2.5h-.86zm-1.13 0h.89l-.08-2.5h-.87zm-1.13 0h.88v-2.5h-.87zm4.25 4.09h.27l-.19-3.44H114zm-.59 0h.26l-.17-3.45h-.25zm-.6 0h.27l-.15-3.45h-.25zm-.59 0h.27l-.13-3.45h-.26zm-.59 0h.27l-.11-3.45h-.26zm-.59 0h.27l-.09-3.45h-.26zm-.59 0h.26l-.06-3.46h-.26zm-.6 0h.27v-3.45H110zm-.59 0h.27v-3.46h-.26zm-.59 0h.27v-3.45h-.26zm-5.65-7.68h.5l.14-2.5h-.47zm-1.21-.1h.5l.18-2.5h-.48zm-1.21-.11h.5l.21-2.49h-.48zm-1.21-.11l.5.05.25-2.5h-.48zm3 3.55l.88.08.15-2.5-.86-.08zm-1.13-.1l.88.08.18-2.5-.86-.08zm-1.13-.1l.88.08.21-2.5-.86-.08zm-1.13-.1l.88.08.24-2.5-.86-.07zm3.81 4.95h.26l.21-3.44h-.26zm-.6 0h.27l.23-3.44h-.26zm-.59-.05h.27l.25-3.44h-.26zm-.59-.06h.27l.27-3.45h-.26zm-.59-.05h.27l.29-3.45h-.26zm-.59 0h.27l.31-3.44h-.26zm-.59-.05h.27l.33-3.44h-.26zm-.59-.06h.27l.35-3.44h-.26zm-.59 0h.27l.37-3.44h-.26zm-.59-.05h.27l.39-3.43h-.25zm-4.72-8.28l.48.1.44-2.47-.47-.1zm-1.19-.25l.48.1.48-2.46-.47-.1zm-1.19-.25l.49.1.5-2.45-.47-.1zm-1.19-.24l.49.1.54-2.45-.47-.1zm2.61 3.72l.87.18.44-2.46-.85-.18zm-1.11-.23l.87.18.47-2.46-.85-.18zm-1.13-.25l.87.18.5-2.45-.85-.18zm-1.11-.23l.87.18.53-2.45-.85-.17zm3.2 5l.27.05.6-3.4h-.25zm-.58-.12l.27.05.62-3.4h-.25zm-.58-.12h.26l.65-3.39-.25-.05zm-.58-.12h.26l.67-3.39-.25-.05zm-.58-.13l.26.06.69-3.38-.25-.06zm-.58-.12l.26.06.71-3.38-.25-.05zm-.58-.12l.26.06.73-3.38-.25-.05zm-.58-.12l.26.06.75-3.37-.25-.06zm-.58-.12l.26.06.77-3.37h-.25zm-.58-.12l.26.05.79-3.36-.25-.05zm-3.72-8.78l.47.16.72-2.4-.46-.15zm-1.15-.38l.46.15.76-2.39-.45-.15zm-1.16-.39l.47.16.79-2.38-.45-.15zm-1.15-.38l.47.15.82-2.36-.45-.16zm2.14 4.15l.84.29.73-2.4-.82-.28zm-1.08-.36l.85.29.75-2.39-.82-.28zm-1.07-.36l.84.29.79-2.38-.83-.28zm-1.08-.35l.85.28.81-2.37-.82-.28zm2.6 5.3l.26.09 1-3.31-.24-.08zm-.56-.18l.25.08 1-3.3-.24-.08zm-.56-.19l.25.08 1-3.29-.25-.08zm-.57-.19l.26.09 1.06-3.29-.25-.08zm-.56-.19l.26.09 1.08-3.28-.25-.08zm-.56-.19l.25.09 1.1-3.28-.24-.09zm-.56-.18l.25.08 1.16-3.27-.24-.09zm-.57-.19l.26.08 1.14-3.26-.25-.08zm-.56-.19l.26.09 1.16-3.26-.25-.08zm-.56-.19l.25.09 1.18-3.25-.24-.08zm-2.67-9.15l.45.21 1-2.3-.43-.2zm-1.09-.52l.44.21 1-2.28-.43-.21zm-1.1-.51l.44.21 1.07-2.27-.44-.21zm-1.1-.52l.45.21 1.09-2.26-.44-.2zm1.63 4.38l.81.37 1-2.29-.78-.37zm-1-.49l.8.38 1-2.28-.78-.37zm-1-.48l.81.38 1-2.27-.78-.37zm-1-.48l.8.38 1.09-2.26-.79-.37zm2 5.57l.25.12 1.38-3.17-.24-.11zm-.53-.25l.24.11 1.4-3.15-.24-.11zm-.54-.25l.24.11 1.26-3.16-.23-.11zm-.54-.25l.25.11 1.43-3.14-.23-.11zm-.53-.26l.24.12 1.33-3.14-.24-.11zm-.54-.25l.24.12 1.36-3.1-.23-.11zm-.53-.25l.24.11 1.4-3.12-.23-.11zm-.54-.25l.24.11 1.52-3.1-.24-.11zm-.54-.26l.25.12 1.53-3.1-.24-.11zm-.53-.25l.24.12 1.43-3.09-.23-.11zm-1.58-9.4l.42.26 1.26-2.16-.41-.26zm-1-.64l.42.26 1.14-2.19-.41-.25zm-1-.64l.42.26 1.32-2.13-.41-.26zm-1-.64l.42.26 1.35-2.12-.4-.25zm1.12 4.53l.75.47 1.27-2.16-.74-.46zm-1-.6l.75.47 1.29-2.15-.74-.45zm-1-.59l.76.47 1.31-2.14-.73-.46zm-1-.6l.76.47 1.34-2.12-.74-.46zm1.3 5.76l.22.14 1.74-3-.22-.14zm-.51-.31l.23.14L62 190l-.22-.14zm-.5-.31l.23.14 1.77-3-.22-.14zm-.5-.32l.22.14 1.8-3-.22-.13zm-.51-.31l.23.14 1.81-2.94-.22-.13zm-.5-.31l.23.14 1.7-2.94-.22-.14zm-.5-.32l.22.15 1.85-2.92-.22-.14zM57 191l.23.14 1.87-2.9-.22-.14zm-.5-.31l.23.14 1.88-2.9-.22-.13zm-.5-.32l.22.14 1.91-2.88-.22-.13zm-.48-9.52l.39.31 1.5-2-.37-.3zm-.95-.75l.39.3 1.53-2-.37-.3zm-1-.76l.39.31 1.56-2-.38-.3zm-1-.76l.39.31 1.59-1.94-.38-.3zm.58 4.64l.7.55 1.5-2-.67-.54zm-.88-.71l.73.49 1.53-2-.67-.54zm-.89-.7l.7.55 1.55-2-.68-.53zm-.88-.71l.69.56 1.58-2-.68-.54zm.61 5.88l.21.16 2.07-2.76-.2-.16zm-.46-.37l.21.16L53 184l-.2-.16zm-.47-.37l.21.17 2.11-2.74-.2-.16zm-.46-.37l.28.13 2.12-2.73-.2-.16zm-.46-.37l.21.17 2.14-2.71-.21-.16zm-.47-.37l.21.17 2.16-2.7-.2-.16zm-.46-.37l.21.17 2.17-2.69-.2-.16zm-.46-.37l.21.17 2.19-2.67-.21-.16zm-.47-.37l.21.17 2.21-2.66-.2-.16zm-.4-.42l.21.17 2.22-2.64-.2-.16zm.63-9.51l.35.35 1.73-1.81-.34-.34zm-.85-.86l.35.35 1.75-1.79-.34-.34zm-.86-.86l.35.35L48 171l-.34-.34zm-.85-.86l.34.35 1.8-1.75-.34-.34zm0 4.67l.62.63 1.76-1.81-.61-.61zm-.8-.8l.62.63 1.75-1.8-.61-.61zm-.8-.81l.63.63 1.77-1.77-.61-.62zm-.8-.8l.63.63 1.79-1.75-.61-.62zm-.07 5.91l.19.19 2.38-2.51-.18-.18zm-.41-.42l.18.19L44.8 177l-.18-.19zm-.42-.42l.23.16 2.41-2.48-.19-.18zm-.42-.42l.19.19 2.46-2.46-.18-.19zM41 178l.19.19 2.44-2.45-.18-.18zm-.42-.43l.19.19 2.46-2.42-.19-.19zm-.41-.42l.19.19 2.46-2.41-.18-.18zm-.42-.42l.19.19 2.48-2.4-.18-.18zm-.42-.42l.19.19 2.5-2.38-.18-.18zm-.42-.42l.19.19 2.52-2.37-.19-.18zm1.73-9.37l.31.39 1.92-1.61-.3-.38zm-.75-1l.31.39 1.94-1.58-.3-.38zm-.75-.95l.3.39 2-1.56-.29-.37zm-.75-1l.3.39 2-1.52-.3-.38zm-.5 4.65l.55.7 1.92-1.61-.53-.68zm-.7-.89l.55.7 1.94-1.58-.53-.69zm-.7-.89l.55.7 2-1.56-.54-.68zm-.7-.9l.55.7 2-1.53-.54-.68zm-.79 5.95l.16.21 2.66-2.22-.16-.2zm-.37-.47l.17.21 2.66-2.2-.16-.2zm-.37-.47l.17.21 2.68-2.17-.16-.21zm-.36-.46l.16.21 2.7-2.16-.16-.21zm-.37-.47l.17.21 2.7-2.14-.16-.21zm-.37-.46l.17.21 2.72-2.13-.16-.21zm-.36-.47l.16.21 2.74-2.11-.16-.2zm-.37-.47l.17.22 2.74-2.1-.16-.2zm-.36-.46l.16.21 2.77-2.08-.16-.2zm-.37-.47l.17.21 2.77-2.06-.16-.2zm2.8-9.11l.26.42 2.1-1.37-.25-.41zm-.63-1l.25.43 2.12-1.35-.25-.41zm-.64-1l.26.42 2.13-1.31-.25-.41zm-.63-1l.25.42 2.15-1.39-.25-.41zm-1 4.56l.47.76 2.05-1.5-.45-.74zm-.59-1l.46.76 2.12-1.34-.45-.74zm-.59-1l.46.76 2.12-1.36-.45-.74zm-.6-1l.47.76 2.15-1.29-.46-.74zm-1.42 5.73l.14.23 2.89-1.89-.13-.22zm-.31-.5l.14.23 2.9-1.87-.13-.23zm-.31-.51l.14.23 2.91-1.85-.13-.22zm-.31-.5l.14.23 2.92-1.84-.13-.22zm-.31-.51l.14.23 2.94-1.82-.14-.22zm-.31-.5l.14.23 2.95-1.8-.14-.22zm-.31-.51l.14.23 3-1.78-.14-.22zm-.31-.5l.14.23 3-1.77-.14-.22zm-.31-.51l.14.23 3-1.74-.13-.22zm-.31-.5l.14.22 3-1.72-.13-.22zm3.84-8.73l.21.45 2.24-1.12-.2-.43zm-.51-1.1l.21.45 2.26-1.09-.2-.44zm-.51-1.1l.21.45 2.27-1.06-.2-.44zm-.51-1.11l.21.45 2.29-1-.2-.44zm-1.56 4.41l.38.81 2.2-1.11-.36-.79zm-.47-1l.37.81 2.22-1.11-.37-.79zm-.48-1l.37.81L28 148l-.37-.79zm-.47-1l.37.81 2.28-1-.36-.79zm-2.09 5.53l.12.25 3.03-1.64-.11-.24zm-.25-.54l.12.25 3.1-1.52-.11-.24zm-.24-.53l.11.24 3.11-1.5-.11-.24zm-.25-.54l.11.24 3.12-1.48-.11-.24zm-.25-.54l.11.24 3.13-1.46-.11-.23zm-.25-.54l.11.25 3.14-1.45-.11-.23zm-.25-.54l.11.25 3.15-1.43-.11-.23zm-.25-.54l.11.25 3.16-1.41-.11-.23zm-.25-.53l.12.24 3.16-1.39-.11-.23zm-.24-.54l.11.24 3.17-1.36-.11-.24zm4.83-8.22l.15.47 2.36-.85-.15-.45zm-.45-1.25l.16.47 2.37-.82-.15-.45zm-.38-1.16l.16.47 2.38-.78-.16-.45zm-.37-1.15l.15.47 2.39-.75-.15-.46zm-2.07 4.19l.28.85 2.36-.85-.27-.82zm-.35-1.08l.28.85 2.37-.82-.27-.82zm-.35-1.07l.27.84 2.38-.79-.27-.82zm-.35-1.08l.27.84 2.39-.75-.27-.83zm-2.72 5.25l.08.25 3.25-1.17-.08-.24zm-.18-.57l.08.26L21.6 141l-.08-.25zm-.19-.56l.09.25 3.26-1.12-.08-.25zm-.18-.56l.14.27 3.27-1.11-.08-.24zm-.19-.57l.09.26 3.27-1.09-.08-.25zm-.18-.56l.08.25 3.29-1.06-.08-.25zm-.18-.56l.08.25 3.29-1-.08-.24zm-.19-.57l.09.26 3.29-1-.08-.24zm-.18-.56l.08.25 3.31-1-.08-.25zm-.18-.57l.08.26 3.31-1-.08-.24zm5.76-7.59l.1.49 2.44-.57-.1-.47zm-.24-1.19l.1.49 2.45-.53-.1-.48zm-.24-1.19l.1.49 2.45-.5-.09-.47zm-.24-1.19l.1.49 2.46-.47-.09-.47zm-2.54 3.92l.17.87 2.45-.56-.17-.85zm-.19-1.1l.17.87 2.45-.53-.17-.85zm-.23-1.11l.18.87 2.45-.5-.17-.85zm-.22-1.11l.17.87 2.46-.47-.17-.85zm-3.31 4.89v.26l3.37-.77-.06-.26zm-.12-.58l.05.26 3.37-.75-.05-.26zm-.12-.58l.06.26 3.37-.77-.05-.26zm-.11-.58v.26l3.38-.71-.05-.26zm-.12-.58l.05.26 3.38-.7-.05-.25zm-.12-.58v.26l3.39-.68-.05-.25zm-.11-.58l.05.26 3.39-.66-.05-.25zm-.12-.59v.27l3.4-.64-.05-.25zm-.12-.58l.06.27 3.39-.62-.05-.25zm-.11-.58l.05.26 3.4-.59-.05-.25zm6.61-6.87v.5l2.49-.28v-.48zm-.1-1.21v.5l2.49-.25v-.48zm-.1-1.21v.5l2.5-.21v-.48zm-.1-1.21v.49l2.5-.17v-.48zm-3 3.6l.07.89 2.49-.28-.07-.86zm-.09-1.13l.07.89 2.49-.25-.07-.86zm-.1-1.13l.08.89 2.49-.22-.07-.86zm-.09-1.13l.07.89 2.5-.19-.07-.86zm-3.86 4.48v.26l3.43-.38v-.26zm0-.59v.26l3.43-.36v-.26zm0-.6v.27l3.43-.34v-.26zm0-.59v.27l3.44-.32v-.25zm-.05-.59v.27l3.44-.3v-.25zm0-.59v.27l3.44-.28v-.25zm-.05-.59v.27l3.45-.26v-.25zm-.05-.59v.27l3.44-.24v-.25zm0-.59v.27l3.44-.21v-.26zm-.28-.6v.27l3.45-.19v-.26zm7.36-6.06v.5h2.51v-.48zm0-1.21v.49h2.51v-.48zm0-1.22v.5l2.51.08v-.48zm0-1.21v.49l2.51.12v-.49zm-3.38 3.23v.89h2.62v-.86zm0-1.13v.89h2.51v-.86zm0-1.13v.89l2.5.07v-.87zm0-1.14v.89l2.5.11v-.87zm-4.35 4v.26h3.46v-.26zm0-.6v.27h3.45v-.26zm0-.59v.27l3.45.06v-.26zm0-.59v.27l3.45.08v-.26zm0-.59v.26l3.45.1v-.25zm0-.6v.27l3.45.12v-.26zm0-.59v.27l3.45.14V106zm0-.59v.27l3.45.16v-.26zm0-.59v.31l3.45.18v-.26zm0-.59v.26l3.45.21v-.26zm8-5.18l-.07.49 2.49.3.07-.48zm.19-1.2l-.08.49 2.49.33.07-.47zm.18-1.2l-.08.49 2.48.37.07-.48zm.18-1.2l-.08.49 2.48.4.07-.48zm-3.73 2.82l-.13.88 2.49.3.13-.86zm.61-1.14l-.13.88 2.48.33.13-.86zm.17-1.12l-.13.88 2.48.36.12-.86zm.17-1.12l-.14.88 2.48.39.13-.86zm-4.78 3.47v.27l3.43.41v-.26zm.08-.59v.27l3.43.43v-.25zm.09-.58v.26l3.42.46v-.26zm.09-.59v.27l3.42.47v-.25zm.09-.59v.27l3.41.5v-.26zm.09-.58v.26l3.41.52v-.25zm.08-.59v.27l3.41.54v-.26zm.09-.58v.26l3.37.61v-.25zm.09-.59v.26l3.4.59v-.26zm.09-.59v.27l3.4.6v-.25zM23 88.78l-.13.47 2.44.59.13-.46zm.32-1.18l-.13.48 2.43.62.13-.46zm.32-1.17l-.13.48 2.42.66.07-.47zm.32-1.17l-.13.48 2.41.69.13-.47zm-4 2.37l-.23.86 2.44.58.22-.83zm.3-1.1l-.23.86 2.43.62.22-.83zm.3-1.09l-.23.86 2.42.65.22-.84zm.3-1.09l-.24.86 2.42.67.22-.83zm-5.15 2.89l-.07.26 3.35.81.07-.25zm.15-.57l-.07.26 3.35.83.07-.25zm.16-.58l-.07.26 3.34.86.07-.25zm.15-.57l-.07.26 3.34.87.07-.25zm.16-.57l-.07.26 3.33.89.07-.25zm.15-.57l-.07.26 3.33.91.07-.25zm.16-.57l-.07.25 3.32.94.07-.25zm.16-.58l-.07.26 3.31 1-.04-.29zm.15-.57l-.07.26 3.31 1 .07-.25zm.16-.57l-.07.26 3.31 1 .06-.25zm9-3.18l-.19.46 2.35.87.18-.44zm.45-1.12l-.18.46 2.34.9.18-.45zm.46-1.13l-.19.46 2.33.93.18-.44zm.45-1.12l-.18.45 2.31 1 .18-.45zm-4.28 1.87l-.33.83 2.35.87.33-.8zm.43-1l-.34.83 2.34.9.33-.81zm.42-1l-.33.83 2.33.92.32-.8zm.43-1l-.34.83 2.32 1 .32-.8zm-5.46 2.27l-.1.25L22.07 78l.1-.24zm.22-.55l-.1.25 3.23 1.22.1-.24zm.22-.55l-.1.25 3.23 1.24.09-.24zm.23-.55l-.11.25 3.22 1.26.1-.24zm.22-.55l-.1.25 3.2 1.28.1-.24zm.22-.55l-.1.25 3.2 1.3.1-.24zm.22-.55l-.1.25 3.19 1.32.1-.24zm.22-.55l-.1.25 3.19 1.34.09-.24zm.23-.55l-.1.25 3.17 1.36.1-.24zm.22-.55l-.1.25L24 73.21l.1-.24zm9.3-2.1l-.24.43 2.23 1.14.23-.42zm.58-1.07l-.24.44 2.14 1 .23-.43zm.58-1.06l-.23.43 2.2 1.2.23-.42zm.53-1.22l-.24.44L33.92 68l.23-.43zm-4.47 1.37l-.43.78 2.23 1.14.42-.76zm.54-1l-.43.78 2.22 1.17.42-.76zm.55-1l-.43.78 2.2 1.19.42-.76zm.54-1l-.43.79 2.19 1.22.42-.76zm-5.68 1.62l-.13.23 3.07 1.57.13-.22zm.28-.52l-.13.23 3.07 1.59.12-.22zm.28-.52l-.12.23L27 67.08l.13-.23zm.29-.52l-.13.23 3.05 1.63.12-.23zm.28-.52l-.13.23 3 1.65.13-.23zm.29-.52l-.13.23 3 1.67.12-.23zm.28-.52l-.13.23 3 1.69.12-.23zm.29-.52l-.13.23 3 1.7.13-.22zm.28-.52l-.13.23 3 1.72.12-.22zm.25-.51l-.13.23 3 1.74.13-.22zm9.48-1l-.29.4 2.09 1.39.27-.39zm.7-1l-.29.4L38 61.43l.28-.39zm.7-1l-.28.4 2 1.45.28-.4zm.71-1l-.29.4 2 1.47.27-.39zm-4.6.83l-.52.73 2.09 1.39.5-.71zm.66-.92l-.52.72 2.07 1.42.5-.71zm.65-.93l-.51.73 2 1.44.5-.7zm.66-.92l-.52.72 2 1.47.51-.7zm-5.83.94l-.16.22 2.87 1.92.15-.21zm.34-.48l-.16.22 2.86 1.93.15-.21zm.34-.49l-.15.22 2.84 1.95.15-.21zm.34-.48l-.15.25 2.83 2 .15-.21zm.35-.48l-.16.22 2.83 2 .15-.21zm.34-.49l-.16.22 2.82 2 .15-.21zm.34-.48l-.15.22 2.8 2 .15-.21zm.35-.48l-.16.22 2.79 2 .15-.22zm.34-.48l-.16.21 2.8 2.05.15-.21zm.34-.49l-.15.22 2.76 2.07.15-.21zm9.53.11l-.33.36 1.91 1.63.32-.36zm.82-.9l-.34.36 1.89 1.65.32-.36zm.81-.91l-.33.37 1.86 1.67.32-.35zm.81-.9l-.33.37 1.84 1.7.32-.36zm-4.66.3l-.6.66 1.91 1.62.58-.64zm.76-.84l-.6.66 1.89 1.64.58-.64zm.76-.84l-.6.66 1.87 1.67.58-.65zm.75-.85l-.59.66 1.85 1.7.58-.65zm-5.9.26l-.18.2 2.64 2.24.17-.19zm.4-.44l-.18.2 2.62 2.25.17-.19zm.4-.44l-.18.2 2.6 2.27.17-.19zm.39-.44l-.18.2 2.59 2.29.17-.2zm.4-.44l-.18.2 2.57 2.3.18-.19zm.39-.44l-.18.2L40.28 48l.17-.2zm.4-.44l-.18.2 2.55 2.33.17-.19zm.4-.44l-.18.2L41 47.18l.17-.19zm.39-.44l-.17.2 2.51 2.36.18-.19zm.4-.44l-.18.2 2.51 2.38.17-.19zM48.94 45l-.37.32 1.71 1.84.36-.32zm.91-.81l-.37.33 1.68 1.86.36-.32zm.91-.8l-.37.33 1.66 1.88.36-.32zm.91-.8l-.37.33 1.64 1.9.36-.32zM47 42.31l-.67.59 1.71 1.83.65-.57zm.85-.75l-.67.59 1.7 1.85.65-.57zm.85-.75l-.7.59 1.66 1.87.65-.57zm.85-.75l-.67.59 1.64 1.89.65-.57zm-5.89-.42l-.2.17 2.35 2.53.2-.17zm.44-.39l-.2.17L46.25 42l.19-.17zm.45-.4l-.21.18 2.33 2.55.19-.17zm.44-.39l-.2.18 2.31 2.57.2-.21zm.45-.39l-.21.18 2.3 2.58.19-.17zm.44-.39l-.2.18L48 40.45l.19-.17zm.45-.39l-.21.17 2.26 2.61.2-.17zm.44-.39l-.2.17 2.24 2.63.2-.17zm.45-.39l-.21.17 2.23 2.64.2-.17zm.44-.4l-.2.18 2.21 2.65.2-.17zm9.25 2.29l-.4.28 1.48 2 .4-.27zm1-.69l-.4.28L59 40l.4-.27zm1-.69l-.4.28L60 39.36l.39-.27zm1-.69l-.41.28 1.41 2.08.39-.28zm-4.61-.78l-.73.51 1.49 2 .71-.49zm.93-.65l-.73.51 1.46 2 .72-.5zm.94-.64l-.73.5 1.43 2.06.71-.49zm.93-.65l-.73.51 1.41 2.07.71-.49zm-5.81-1.1l-.22.15 2.05 2.78.21-.14zm.49-.34l-.22.16 2 2.79.21-.15zm.49-.34l-.22.16 2 2.8.21-.14zm.49-.33l-.22.15 2 2.82.21-.15zm.48-.34l-.22.15 2 2.83.21-.14zm.49-.34l-.22.15 2 2.85.21-.15zm.49-.33l-.22.15 2 2.85.21-.15zm.49-.34l-.23.15 1.93 2.87.21-.15zm.48-.34L56 30l1.91 2.88.21-.15zm.49-.34l-.22.16 1.89 2.89.21-.15zm8.93 3.35l-.44.23 1.24 2.18.42-.22zm1.07-.57l-.44.23 1.21 2.2.43-.23zm1.07-.57l-.44.23 1.18 2.21.43-.22zm1.07-.57l-.43.23 1.15 2.23.42-.23zm-4.47-1.31l-.79.42 1.24 2.17.77-.4zm1-.53l-.79.41 1.22 2.2.76-.41zm1-.54l-.79.42 1.19 2.21.76-.41zm1-.53l-.79.42 1.16 2.22.77-.41zm-5.64-1.77l-.23.13 1.71 3 .22-.12zm.53-.28l-.24.13 1.69 3 .23-.12zm.52-.28l-.24.13 1.67 3 .23-.12zm.52-.27l-.24.12 1.66 3 .23-.12zm.52-.28l-.23.12 1.63 3 .23-.12zm.53-.28l-.24.12 1.62 3.06.23-.13zm.52-.28l-.23.13L66.21 28l.23-.12zm.53-.28l-.24.13 1.58 3.07.23-.12zm.52-.28l-.24.13 1.56 3.08.23-.12zm.52-.27l-.23.12 1.54 3.09L68 27zm8.48 4.36l-.46.18 1 2.31.45-.18zm1.1-.44l-.46.18.94 2.32.45-.17zm1.13-.44l-.46.18.91 2.33.45-.17zm1.16-.41l-.46.18.88 2.34.45-.17zM74 25.14l-.83.32 1 2.31.81-.31zm1.06-.41l-.83.32 1 2.32.8-.31zm1-.41l-.83.32.96 2.36.81-.31zm1.06-.41l-.83.32.89 2.34.81-.31zm-5.39-2.42l-.25.1 1.34 3.18.25-.1zm.55-.22l-.25.1 1.33 3.19.24-.1zm.55-.21l-.25.09 1.31 3.2.24-.09zm.55-.22l-.25.1 1.29 3.2.24-.09zm.56-.21l-.25.09L75 23.93l.25-.09zm.55-.22l-.25.1 1.25 3.22.24-.1zm.55-.21l-.25.09 1.23 3.23.24-.09zm.55-.22l-.25.1 1.21 3.23.24-.09zm.56-.21l-.25.09 1.18 3.24.25-.09zm.55-.22l-.25.1 1.17 3.25.24-.1zm7.9 5.33l-.48.12.7 2.41.47-.12zm1.18-.31l-.48.13.7 2.41.46-.12zm1.17-.3l-.48.12.64 2.43.46-.12zm1.22-.27l-.48.13.6 2.43.46-.12zm-4.06-2.32l-.86.23.7 2.4.84-.21zm1.1-.28l-.86.22L85 24l.83-.22zm1.09-.29l-.86.23.64 2.42.84-.22zm1.1-.28l-.86.22.61 2.43.84-.22zm-5.07-3l-.26.06 1 3.32.25-.07zm.57-.15l-.26.07 1 3.32.25-.07zm.58-.15l-.26.07.92 3.32.25-.06zm.57-.15l-.26.07.91 3.33.25-.07zm.57-.15l-.26.07.89 3.33.25-.06zm.58-.23l-.26.07.86 3.34.25-.06zm.57-.15l-.26.07.84 3.35.25-.07zm.58-.15l-.26.07.82 3.35.25-.06zm.57-.15l-.26.07.8 3.36.25-.07zm.57-.15l-.26.07.77 3.38.25-.07zm7.23 6.22l-.49.07.41 2.47.48-.07zm1.2-.16l-.49.06.38 2.48.48-.07zm1.2-.17l-.49.07.37 2.49.48-.07zm1.21-.17l-.49.07.31 2.49.48-.07zm-3.76-2.77l-.88.12.41 2.53.86-.12zm1.12-.16l-.88.12.39 2.48.85-.12zm1.12-.15l-.88.12.36 2.48.85-.12zm1.13-.16l-.88.12.32 2.49.86-.12zm-4.68-3.6h-.27l.57 3.41h.26zm.58-.08h-.26l.55 3.41h.25zm.59-.09h-.27l.53 3.41h.26zM95 15h-.27l.51 3.42h.26zm.6 0h-.26l.49 3.42h.25zm.59-.08h-.26l.46 3.42h.26zm.59-.08h-.27l.49 3.42h.25zm.59-.08h-.27l.42 3.42h.26zm.58-.08h-.26l.4 3.43h.26zm.59-.08h-.27l.39 3.4h.25zm6.45 7h-.49l.13 2.51h.48zm1.22 0h-.5l.1 2.51h.48zm1.21 0h-.49L107 24h.48zm1.22 0h-.5v2.51h.48zm-3.42-3.18h-.88l.12 2.5h.87zm1.14 0h-.89l.09 2.51h.87zm1.13 0h-.89l.07 2.51h.86zm1.13 0h-.89v2.51h.87zm-4.23-4.1h-.27l.18 3.45h.26zm.59 0h-.26l.15 3.45h.26zm.6 0h-.27l.13 3.45h.26zm.59 0h-.27l.11 3.45h.26zm.59 0h-.27l.09 3.46h.26zm.59 0h-.27l.07 3.45h.26zm.59 0h-.26v3.46h.32zm.6 0h-.27v3.45h.25zm.59 0h-.27v3.46h.25zm.59 0h-.27v3.46h.26zm5.61 7.71h-.49l-.17 2.5h.48zm1.21.12l-.49-.05-.2 2.5h.48zm1.21.11l-.49-.05-.23 2.5h.47zM119 22h-.49l-.27 2.49h.48zm-3-3.56l-.88-.08-.16 2.5.86.08zm1.13.11l-.88-.09L116 21l.87.08zm1.13.1l-.89-.08-.22 2.49.86.09zm1.13.11l-.89-.09-.25 2.5.86.08zm-3.74-4.58h-.26l-.22 3.45h.25zm.6 0h-.27l-.25 3.44h.26zm.59.06h-.27l-.27 3.45h.26zm.59.05h-.27l-.29 3.44h.26zm.59.06h-.27l-.31 3.44h.26zm.59.05h-.27l-.33 3.44h.26zm.59.06h-.27l-.42 3.54h.26zm.59 0h-.27l-.44 3.54h.26zm.59.06h-.27l-.39 3.43h.26zm.59.06h-.27l-.41 3.43h.25zm4.68 8.3l-.49-.1-.45 2.46.47.1zm1.18.26l-.48-.11-.49 2.46.47.1zm1.19.25l-.48-.1-.54 2.59.47.1zm1.19.25l-.49-.1-.55 2.44.47.1zm-2.59-3.89l-.87-.18-.45 2.46.84.18zm1.11.24l-.87-.19-.48 2.46.84.18zm1.11.24l-.87-.19-.51 2.45.84.18zm1.11.23l-.87-.18-.55 2.44.85.18zm-3.18-5l-.26-.06-.62 3.4.25.05zm.58.12l-.26-.05-.65 3.39.26.05zm.58.13l-.26-.06-.67 3.39.26.05zm.58.12l-.26-.06-.69 3.39.26.05zm.58.12l-.26-.05-.71 3.38h.25zm.58.13l-.26-.06-.73 3.38.25.05zm.58.12l-.26-.06-.75 3.38.25.05zm.58.12l-.26-.05-.77 3.36.25.06zm.58.13l-.26-.06-.79 3.36.25.06zm.58.12l-.26-.05-.88 3.48.25.06zm3.67 8.8l-.46-.16-.74 2.39.45.16zm1.15.39l-.46-.16-.77 2.39.45.15zm1.15.39l-.46-.16-.81 2.38.46.15zm1.15.39l-.46-.16-.84 2.37.46.15zM137 22.37l-.84-.28-.74 2.39.82.28zm1.07.37l-.84-.29-.84 2.55.82.28zm1.08.36l-.85-.28-.79 2.37.82.28zm1.07.37l-.84-.29-.83 2.37.82.28zm-2.57-5.32l-.26-.09-1 3.3.24.09zm.56.19l-.25-.09-1 3.3.25.08zm.56.19l-.25-.09-1.06 3.29.25.08zm.56.19l-.25-.09-1.08 3.28.25.09zm.56.19l-.25-.09-1.1 3.28.25.08zm.57.19l-.26-.09-1.2 3.43.24.09zm.56.19l-.26-.08-1.13 3.26.24.08zm.56.19l-.26-.08-1.15 3.25.24.08zm.56.19l-.25-.08-1.25 3.41.24.09zm.56.2l-.25-.09-1.2 3.24.24.08zm2.62 9.16l-.52-.03-1 2.29.44.21zm1.1.52l-.45-.21-1 2.28.43.21zm1.09.53L147 30l-1.08 2.27.44.21zm1.1.52l-.45-.21L147 32.8l.43.2zM147 26.21l-.81-.38-1 2.29.78.38zm1 .49l-.8-.38-1 2.28.78.37zm1 .49l-.8-.38-1.07 2.26.78.38zm1 .49l-.81-.39-1.09 2.26.78.37zm-1.93-5.59l-.25-.11-1.39 3.16.23.11zm.53.26l-.24-.12-1.36 3.31.23.11zm.54.25l-.25-.11-1.43 3.14.23.11zm.53.26l-.24-.12L148 26l.23.12zm.54.25l-.24-.11-1.48 3.12.24.11zm.53.26l-.24-.12-1.5 3.28.23.11zm.54.25l-.24-.11-1.52 3.1.24.11zm.53.26l-.24-.12L150 27l.23.11zm.54.25l-.24-.11-1.55 3.08.23.12zm.53.26l-.24-.12-1.57 3.08.24.11zm1.53 9.61l-.42-.27-1.27 2.16.41.26zm1 .65l-.42-.27-1.3 2.14.41.26zm1 .64l-.42-.26-1.33 2.12.4.26zm1 .65l-.42-.26-1.36 2.1.4.26zm-1.1-4.54l-.75-.48-1.18 2.08.73.46zm1 .6l-.75-.47-1.3 2.14.73.46zm1 .6l-.75-.47-1.32 2.13.73.46zm1 .61l-.75-.48-1.35 2.11.73.46zM158 27.4l-.23-.15-1.75 3 .22.14zm.5.31l-.23-.14-1.77 3 .22.14zm.5.32l-.23-.15-1.79 3 .22.13zm.5.31l-.22-.14-1.81 2.94.22.14zm.5.32l-.22-.15-1.78 2.94.22.13zm.51.31l-.23-.14-1.84 2.92.21.14zm.5.32l-.23-.14-1.86 2.9.22.14zm.5.32l-.23-.15-1.88 2.9.22.14zm.5.31l-.23-.14-1.89 2.88.21.14zm.5.32l-.22-.15-1.9 2.91.22.14zm.43 9.52l-.39-.31-1.51 2 .37.3zm.94.76l-.38-.31-1.54 2 .37.3zm.95.76l-.39-.31-1.57 2 .38.3zm.94.76l-.38-.31-1.6 1.94.38.3zm-.55-4.63l-.69-.56-1.52 2 .67.55zm.88.71l-.69-.56-1.54 2 .67.54zm.88.71l-.69-.56-1.56 2 .67.54zm.89.71l-.7-.56-1.58 1.94.67.54zm-.59-5.88l-.21-.17-2.07 2.75.21.16zm.46.37l-.21-.17-2.1 2.74.2.16zm.46.37l-.21-.17-2.1 2.77.21.16zm.46.37l-.2-.17-2.14 2.72.2.16zm.47.37l-.21-.16-2.16 2.7.21.16zm.46.38l-.21-.17-2.15 2.65.2.17zm.46.37l-.21-.17-2.19 2.67.2.16zm.46.37l-.21-.17-2.2 2.66.2.16zm.46.37l-.21-.17-2.22 2.65.2.16zm.46.37l-.21-.16-2.22 2.63.2.16zm-.68 9.51l-.34-.35-1.72 1.84.34.34zm.85.87l-.34-.36-1.76 1.79.33.34zm.86.86l-.35-.35-1.79 1.76.34.34zm.85.87l-.35-.35-1.81 1.73.34.34zm0-4.67l-.62-.64-1.69 1.81.61.62zm.8.8l-.63-.63-1.76 1.79.61.61zm.79.81l-.62-.63-1.78 1.76.6.62zm.79.81l-.62-.63-1.8 1.77.61.62zm.1-5.91l-.19-.19-2.39 2.49.18.19zm.42.43l-.19-.2-2.41 2.48.18.19zm.41.42l-.19-.19-2.43 2.46.18.18zm.42.42l-.19-.19-2.44 2.45.19.18zm.41.42l-.18-.19-2.46 2.43.19.19zm.42.42l-.19-.19-2.46 2.42.18.18zm.42.43l-.19-.19-2.48 2.4.18.18zm.41.42l-.19-.19-2.51 2.39.18.18zm.42.42l-.19-.19-2.51 2.37.18.19zm.41.43l-.19-.2-2.52 2.36.18.19zm-1.77 9.36l-.31-.39-1.93 1.6.3.38zm.74 1l-.3-.39-2 1.57.3.38zm.75 1l-.31-.39-2 1.54.29.38zm.74 1l-.3-.39-2 1.51.3.38zm.53-4.65l-.55-.7-1.97 1.48.53.68zm.69.9l-.54-.7-1.95 1.57.53.68zm.7.89l-.55-.7-2 1.55.53.68zm.7.9l-.55-.7-2 1.52.53.68zm.77-5.86l-.16-.21-2.66 2.2.16.2zm.37.47l-.17-.21-2.67 2.18.16.2zm.36.47l-.16-.21-2.69 2.16.16.21zm.37.47l-.17-.22-2.7 2.15.16.21zm.36.46l-.16-.21L182 53l.16.21zm.37.47l-.17-.21-2.73 2.11.16.21zm.36.47l-.17-.21-2.74 2.1.16.2zm.36.47l-.16-.22-2.77 1.97.16.2zm.37.46l-.17-.21-2.77 2.07.16.2zm.36.47l-.17-.21-2.78 2 .16.2zm-2.85 9.1l-.25-.42-2.11 1.36.25.41zm.63 1l-.25-.42-2.13 1.33.25.41zm.63 1l-.25-.42-2.15 1.3.25.41zm.63 1l-.26-.43-2.15 1.28.25.41zm1.06-4.55l-.46-.77-2.11 1.37.45.74zm.59 1l-.46-.76-2.12 1.34.44.74zm.59 1l-.47-.76-2.13 1.31.45.74zm.58 1l-.46-.76-2.15 1.28.45.75zm1.48-5.82l-.14-.23-2.9 1.87.13.22zm.3.5l-.14-.23-2.91 1.86.14.22zm.31.51l-.14-.23-2.92 1.84.13.22zm.31.51l-.14-.23-2.93 1.82.13.22zm.31.5l-.14-.23-2.95 1.81.14.22zm.3.51l-.14-.23-3 1.79.13.22zm.31.51l-.14-.23-3 1.76.14.23zm.31.51l-.14-.23-3 1.74.13.22zm.3.5l-.13-.23-3 1.73.13.22zm.31.51l-.14-.23-3 1.71.14.22zm-3.88 8.7l-.21-.45-2.25 1.11.2.44zm.5 1.11l-.21-.45-2.26 1.08.2.43zm.5 1.1l-.2-.44-2.28 1 .2.44zm.51 1.11l-.21-.45-2.29 1 .2.44zm1.58-4.4l-.37-.81-2.25 1.11.36.79zm.47 1l-.37-.81-2.26 1.08.36.79zm.47 1l-.37-.81-2.27 1 .35.78zm.47 1l-.37-.81-2.29 1 .36.79zm2.09-5.42l-.11-.25-3.1 1.53.11.23zm.25.54l-.11-.25-3.11 1.51.11.23zm.24.54l-.11-.25-3.11 1.49.1.23zm.25.54l-.11-.25-3.1 1.47.11.23zm.25.54l-.11-.25-3.14 1.45.11.23zm.24.54l-.11-.25-3.14 1.43.1.23zm.25.53l-.11-.24-3.16 1.41.11.23zm.24.54l-.11-.24-3.16 1.39.11.23zm.25.54l-.11-.24-3.17 1.37.11.23zm.25.54l-.12-.24L194.4 74l.1.23zm-4.88 8.2l-.15-.48-2.36.84.14.46zm.37 1.15l-.15-.47-2.37.8.14.46zm.37 1.16l-.15-.47-2.39.77.15.45zm.37 1.15l-.15-.47-2.39.74.14.46zm2.08-4.18l-.27-.84-2.37.83.27.83zm.35 1.08l-.28-.85-2.37.81.26.82zm.34 1.08l-.27-.85-2.38.78.26.82zm.35 1.08l-.27-.85-2.4.75.27.82zm2.74-5.23l-.08-.26-3.26 1.15.08.25zm.18.56l-.08-.25-3.26 1.13.08.24zm.18.57l-.08-.26-3.27 1.11.08.25zm.19.56l-.09-.26-3.24 1.09.08.25zm.18.56l-.09-.25-3.28 1.07.08.24zm.18.57l-.08-.26-3.29 1 .08.25zm.18.56l-.08-.25-3.3 1 .08.24zm.18.57L201 82l-3.3 1 .07.25zm.18.56l-.08-.25-3.31 1 .08.25zm.18.57l-.08-.26-3.32 1 .08.25zM195.62 91l-.1-.49-2.44.56.09.47zm.23 1.19l-.09-.48-2.46.51.1.48zm.23 1.19l-.09-.48-2.46.48.09.47zm.24 1.19l-.1-.48-2.46.45.09.47zm2.56-3.9l-.17-.88-2.45.56.17.85zm.22 1.11l-.17-.87-2.46.52.17.85zm.21 1.11l-.17-.87-2.45.49.16.85zm.22 1.11l-.17-.87-2.46.46.16.85zm3.34-4.87l-.05-.27-3.37.77.05.25zm.11.58v-.26l-3.37.74.05.25zm.12.58v-.26l-3.38.72.05.25zm.11.58l-.05-.26-3.38.7.05.25zm.12.58l-.06-.26-3.38.68.05.25zm.11.59l-.05-.27-3.39.66.05.25zm.11.58l-.05-.27-3.39.64v.25zm.12.58l-.06-.26-3.39.61.05.26zm.11.58l-.05-.26-3.4.59v.26zm.11.58v-.26l-3.4.57.05.26zm-6.64 6.84v-.5l-2.49.27v.48zm.09 1.21v-.5l-2.49.24v.47zm.09 1.21v-.49l-2.49.19v.48zm.1 1.21v-.49l-2.5.16v.48zm3-3.58l-.06-.89-2.5.26.07.87zm.09 1.13l-.07-.89-2.49.23.06.87zm.09 1.13l-.07-.89-2.5.2.07.87zm.08 1.13l-.06-.89-2.5.17.06.87zm3.89-4.46v-.26l-3.43.36v.26zm0 .59v-.26l-3.44.34v.26zm0 .59v-.26l-3.44.32v.26zm0 .6v-.27l-3.44.3v.26zm0 .59v-.27l-3.44.28v.26zm0 .59v-.27l-3.44.26v.26zm.05.59v-.27l-3.45.24v.26zm0 .59v-.27l-3.44.22v.26zm.05.59v-.27l-3.45.2v.26zm0 .59v-.27l-3.45.18v.25zm-41.44-80.93l-1.5-1c-.5-.31-1-.59-1.53-.89-1-.58-2.05-1.19-3.09-1.76-2.12-1.07-4.2-2.2-6.39-3.13s-4.36-1.83-6.56-2.71c-1.12-.4-2.25-.76-3.37-1.14-.56-.19-1.12-.39-1.69-.56l-1.71-.49a98.08 98.08 0 0 0-13.89-3l-3.52-.45c-1.18-.12-2.36-.18-3.54-.28l-1.78-.13L113 9h-3.56V6.76l3.63.09c.61 0 1.21 0 1.82.05l1.81.1c1.2.1 2.41.17 3.62.3l3.6.45a100 100 0 0 1 14.2 3l1.74.49c.58.18 1.15.39 1.73.58 1.14.39 2.29.76 3.43 1.17 2.25.89 4.53 1.73 6.72 2.77s4.36 2.1 6.52 3.2c1.06.57 2.1 1.19 3.16 1.79.52.31 1.05.6 1.57.92l1.53 1zm18.71 159.22c.94-.86 1.79-1.82 2.68-2.74l1.33-1.39c.44-.45.84-1 1.27-1.43.83-1 1.68-1.93 2.49-2.92l2.37-3a109.77 109.77 0 0 0 8.35-12.87 113.85 113.85 0 0 0 6.35-14 113.19 113.19 0 0 0 4.21-14.75 103.8 103.8 0 0 0-43.77-107.14A110.3 110.3 0 0 0 154 16a103.17 103.17 0 0 0-29.27-8.9 115 115 0 0 0-15.29-1.12v.34a114.16 114.16 0 0 1 15.24 1.08 108.65 108.65 0 0 1 14.92 3.34 110 110 0 0 1 14.26 5.52 110.88 110.88 0 0 1 13.28 7.57 103.42 103.42 0 0 1 43.62 106.82 112 112 0 0 1-4.19 14.7 111.06 111.06 0 0 1-6.33 13.92 110.22 110.22 0 0 1-8.32 12.82l-2.36 3c-.81 1-1.66 1.93-2.49 2.9-.42.48-.82 1-1.26 1.44l-1.32 1.38c-.89.92-1.74 1.87-2.68 2.73zM23.32 48.52a106.51 106.51 0 0 0-11 19.68A103.29 103.29 0 0 0 5.7 89.81a105.65 105.65 0 0 0 55.37 113.8 105.69 105.69 0 0 0 148.26-59.2l-.32-.12A105.36 105.36 0 0 1 7.14 134.6 106.58 106.58 0 0 1 6 89.87a103.74 103.74 0 0 1 6.55-21.53 105.88 105.88 0 0 1 11-19.62zm85.44-43.24l-4.38.12c-1.46.08-2.91.21-4.37.31s-2.9.33-4.36.5l-2.17.28-2.16.38a100.4 100.4 0 0 0-16.94 4.47 106 106 0 0 0-15.94 7.27l-1.9 1.09c-.63.37-1.27.72-1.88 1.13L51 23.2l-3.6 2.54c-1.18.87-2.3 1.8-3.46 2.7a106.39 106.39 0 0 0-12.65 12.1l-1.44 1.66c-.47.55-1 1.1-1.41 1.68l-2.7 3.45-2.54 3.57c-.83 1.21-1.59 2.46-2.38 3.68A103.34 103.34 0 0 0 7.61 86.9a104.77 104.77 0 0 0 8 68.39 104.79 104.79 0 0 0 48.81 48.56 105.55 105.55 0 0 0 16.39 6.2c1.41.39 2.81.82 4.24 1.12l2.14.49c.71.16 1.42.34 2.14.45l4.32.77 4.35.55a111.16 111.16 0 0 0 17.5.48 104.54 104.54 0 0 0 92.5-69.62c.46-1.39 1-2.76 1.38-4.16l1.19-4.22c.35-1.42.67-2.85 1-4.28l.24-1.07.19-1.07.38-2.16a107.54 107.54 0 0 0 1.51-17.45 104.51 104.51 0 0 0-5.76-34.43 106.51 106.51 0 0 0-7.1-16 102.88 102.88 0 0 0-9.72-14.57l-.13.1a104 104 0 0 1 9.7 14.55 106.58 106.58 0 0 1 7.09 16 104.25 104.25 0 0 1 5.75 34.38 108.29 108.29 0 0 1-1.5 17.42l-.39 2.15-.19 1.08c-.07.36-.16.71-.24 1.07-.33 1.42-.64 2.85-1 4.26l-1.2 4.22c-.41 1.4-.91 2.77-1.37 4.15a104.39 104.39 0 0 1-75.09 67.05 105.48 105.48 0 0 1-17.32 2.46 110.78 110.78 0 0 1-17.42-.51l-4.35-.55-4.31-.77c-.72-.11-1.43-.29-2.14-.45L85 211c-1.43-.3-2.83-.72-4.23-1.12a104.86 104.86 0 0 1-16.37-6.18 104.58 104.58 0 0 1-48.72-48.49 104.54 104.54 0 0 1-7.9-68.27A103.14 103.14 0 0 1 21 54.67c.8-1.22 1.55-2.47 2.38-3.67l2.54-3.57L28.58 44c.44-.59.93-1.13 1.4-1.68l1.43-1.66a107.67 107.67 0 0 1 12.64-12.09c1.15-.9 2.28-1.83 3.45-2.69l3.57-2.54L54.75 21c.61-.4 1.25-.75 1.88-1.12l1.89-1.09a106.76 106.76 0 0 1 15.92-7.29A100.74 100.74 0 0 1 91.35 7l2.16-.38 2.17-.29c1.45-.16 2.89-.41 4.35-.49s2.9-.24 4.36-.31l4.37-.12zm83.12 40a108.68 108.68 0 0 1 9.64 14.66 105.91 105.91 0 0 1 7 16.1 101.67 101.67 0 0 1 4.23 17 109 109 0 0 1 1.31 17.49L214 115l-.33 4.38c0 .36-.05.73-.09 1.09l-.13 1.09-.28 2.18c-.1.72-.17 1.45-.29 2.17l-.39 2.17A101.38 101.38 0 0 1 208 145a105.88 105.88 0 0 1-7.31 15.95 100.79 100.79 0 0 1-9.86 14.52 107.49 107.49 0 0 1-12.14 12.65 101.19 101.19 0 0 1-14.08 10.47 106.45 106.45 0 0 1-15.64 8l-2 .81c-.68.26-1.36.55-2.06.77l-4.16 1.41-4.22 1.21c-.7.21-1.42.36-2.13.53l-2.14.49a104.38 104.38 0 0 1-96.9-28.44A106.32 106.32 0 0 1 15.2 154.8a103.55 103.55 0 0 1-6.18-16.43l-.6-2.11c-.2-.7-.34-1.42-.52-2.13l-.49-2.14-.25-1.07-.2-1.09c-.25-1.44-.52-2.88-.76-4.32l-.56-4.36a111.53 111.53 0 0 1-.44-17.53l.33-4.38.47-4.41.14-1.08.19-1.09.37-2.16c.14-.72.25-1.44.41-2.16l.49-2.14a102.29 102.29 0 0 1 5.34-16.72A105.86 105.86 0 0 1 21 53.92 104.82 104.82 0 0 1 75 11l2.08-.71c.69-.23 1.38-.48 2.09-.66l4.23-1.2 4.28-1c.71-.18 1.43-.29 2.15-.43L92 6.59a110.19 110.19 0 0 1 17.48-1.5v-.17a110.57 110.57 0 0 0-17.51 1.5l-2.16.39c-.72.13-1.45.24-2.16.42l-4.29 1-4.27 1.2c-.71.18-1.4.43-2.1.66l-2.08.71a105 105 0 0 0-54 43 106.29 106.29 0 0 0-8.12 15.59 102.55 102.55 0 0 0-5.36 16.77l-.49 2.15c-.16.71-.27 1.44-.4 2.16l-.39 2.17L6 93.72l-.14 1.09-.55 4.37-.33 4.38a111.94 111.94 0 0 0 .44 17.56l.56 4.36c.24 1.45.51 2.89.77 4.34l.19 1.08.21 1.1.5 2.14c.17.72.31 1.44.51 2.14l.6 2.12A103.86 103.86 0 0 0 15 154.82a104.73 104.73 0 0 0 117.2 57.11l2.15-.5c.71-.16 1.43-.32 2.13-.53l4.23-1.21 4.17-1.41c.7-.22 1.38-.51 2.06-.77l2.05-.81a106.72 106.72 0 0 0 15.66-8 101.72 101.72 0 0 0 14.1-10.49 108 108 0 0 0 12.17-12.68 101.77 101.77 0 0 0 9.87-14.53 106.26 106.26 0 0 0 7.32-16 102 102 0 0 0 4.5-17l.39-2.17c.12-.72.19-1.45.29-2.18l.27-2.18.14-1.09c0-.37.06-.73.09-1.1l.33-4.38.11-4.4a109.42 109.42 0 0 0-1.31-17.5 102.28 102.28 0 0 0-4.24-17 105.19 105.19 0 0 0-7-16.12 107.45 107.45 0 0 0-9.68-14.7zm20.39 58.88l-.28-3.62c-.05-.6-.07-1.21-.16-1.81l-.22-1.8c-.17-1.2-.28-2.41-.5-3.6l-.64-3.57-.16-.9-.2-.88-.41-1.77c-.28-1.18-.53-2.37-.88-3.53l-1-3.49c-.37-1.15-.77-2.3-1.15-3.44-.2-.58-.38-1.15-.6-1.72l-.66-1.69c-.46-1.12-.87-2.26-1.37-3.37l-1.5-3.31c-.24-.55-.52-1.09-.79-1.63l-.83-1.61-.83-1.62c-.28-.54-.6-1-.9-1.58-.6-1-1.2-2.1-1.82-3.14-1.31-2-2.58-4.1-4-6l-1.79 1.28c1.41 1.9 2.65 3.93 3.94 5.92.6 1 1.18 2.05 1.78 3.07.29.52.6 1 .87 1.55l.81 1.58.82 1.58c.27.53.54 1 .78 1.6l1.42 3.18c.49 1.08.89 2.2 1.34 3.3l.65 1.65c.21.56.38 1.12.58 1.68.38 1.12.77 2.24 1.13 3.37l1 3.42c.34 1.13.58 2.29.86 3.45l.4 1.73.2.86.15.88.63 3.5c.21 1.16.32 2.35.48 3.52l.23 1.76c.08.59.1 1.18.15 1.77l.27 3.55zm-38.77 86.08l1.43-1.12 1.38-1.19c.91-.8 1.84-1.57 2.73-2.39l2.62-2.51.66-.63.63-.65 1.25-1.32c.84-.87 1.68-1.74 2.45-2.67L189 175c1.49-1.92 3-3.78 4.4-5.79s2.7-4 4-6.05c.62-1 1.21-2.1 1.82-3.14.3-.53.62-1.05.89-1.58l.83-1.62.83-1.62c.28-.54.55-1.07.79-1.63l1.5-3.31c.5-1.1.9-2.25 1.36-3.37l.66-1.69c.22-.57.4-1.14.59-1.72l-2.07-.72c-.2.56-.37 1.13-.58 1.68l-.65 1.65c-.45 1.1-.84 2.22-1.33 3.3l-1.47 3.24c-.23.54-.5 1.07-.77 1.6l-.81 1.58-.81 1.58c-.28.53-.59 1-.88 1.55-.59 1-1.17 2.06-1.77 3.08-1.29 2-2.52 4-3.94 5.92s-2.84 3.79-4.29 5.66l-2.3 2.7c-.75.91-1.58 1.76-2.4 2.62l-1.22 1.28-.62.65-.64.61-2.57 2.46c-.87.8-1.78 1.56-2.67 2.34l-1.35 1.16-1.4 1.1zM12.34 143.6c.19.58.37 1.15.59 1.72l.67 1.68c.45 1.12.86 2.26 1.36 3.37l1.5 3.31c.24.55.52 1.09.79 1.63l.83 1.61.83 1.62c.28.54.6 1 .9 1.58.6 1.05 1.2 2.1 1.82 3.14 1.31 2 2.58 4.1 4 6s2.91 3.87 4.4 5.78l2.38 2.74c.77.93 1.61 1.8 2.45 2.68l1.26 1.31.62.66.66.62 2.63 2.51c.89.82 1.82 1.59 2.73 2.39l1.38 1.18 1.43 1.12 1.43-1.66-1.4-1.1-1.35-1.16c-.89-.78-1.8-1.53-2.67-2.34L39 181.54l-.64-.61-.62-.64-1.26-1.29c-.82-.85-1.65-1.7-2.41-2.62l-2.32-2.68c-1.46-1.87-3-3.7-4.31-5.66s-2.65-3.93-3.93-5.92c-.61-1-1.19-2.05-1.79-3.07-.29-.52-.6-1-.87-1.55l-.85-1.58-.81-1.58c-.28-.53-.55-1.05-.78-1.6L17 149.51c-.49-1.08-.89-2.2-1.33-3.3l-.67-1.65c-.21-.56-.38-1.12-.58-1.68zm13.24-93.47c-1.44 1.94-2.7 4-4 6-.62 1-1.21 2.09-1.82 3.14-.3.53-.61 1-.89 1.58L18 62.52l-.83 1.62c-.27.54-.55 1.07-.79 1.63l-1.5 3.31c-.5 1.1-.9 2.25-1.36 3.37l-.66 1.69c-.22.57-.4 1.14-.59 1.72-.39 1.14-.79 2.29-1.16 3.44l-1 3.5c-.35 1.15-.6 2.34-.87 3.52l-.41 1.77-.2.89-.16.89-.64 3.58c-.21 1.19-.32 2.4-.49 3.59l-.23 1.81c-.08.6-.1 1.2-.15 1.81l-.27 3.62 2.19.11.27-3.54c.05-.59.07-1.19.15-1.77l.23-1.77c.16-1.17.26-2.35.47-3.52l.62-3.5.16-.87.2-.87.4-1.73c.27-1.16.51-2.32.86-3.45l1-3.42c.36-1.13.75-2.25 1.12-3.37.2-.56.37-1.13.58-1.68l.65-1.66c.45-1.09.84-2.21 1.33-3.29l1.47-3.24c.23-.55.5-1.07.77-1.6l.84-1.58.79-1.53c.28-.53.59-1 .88-1.55.59-1 1.17-2.06 1.78-3.08 1.28-2 2.51-4 3.93-5.92zm83.86-43.37l-3.63.09c-.6 0-1.21 0-1.81.05l-1.81.1c-1.21.1-2.42.17-3.62.3L95 7.8a99.71 99.71 0 0 0-14.2 3.05l-1.74.5c-.58.17-1.15.38-1.73.57-1.14.39-2.29.77-3.43 1.18-2.25.9-4.53 1.73-6.71 2.78s-4.36 2.1-6.52 3.2c-1.06.58-2.1 1.2-3.16 1.8-.52.31-1 .6-1.57.92l-1.52 1 1.18 1.85 1.49-1c.51-.31 1-.59 1.54-.89 1-.59 2-1.2 3.08-1.76 2.12-1.08 4.2-2.21 6.38-3.14s4.37-1.84 6.57-2.72c1.11-.4 2.24-.76 3.36-1.15.56-.18 1.12-.39 1.69-.56l1.68-.43a96.9 96.9 0 0 1 13.88-3l3.53-.45c1.18-.13 2.36-.19 3.54-.29l1.77-.14h1.78l3.55-.12zM80.89 208.53a99.55 99.55 0 0 0 14.19 3l3.6.45c1.21.13 2.42.2 3.62.29l1.81.14c.61 0 1.21 0 1.82.05l3.63.09 3.63-.09c.6 0 1.21 0 1.81-.06l1.81-.13c1.21-.1 2.42-.17 3.62-.3l3.61-.46a99.87 99.87 0 0 0 14.19-3.05l-.62-2.11a96.6 96.6 0 0 1-13.88 3l-3.53.45c-1.18.13-2.36.19-3.54.29l-1.77.14c-.59 0-1.19 0-1.78.05l-3.55.09-3.56-.08-1.77-.06-1.77-.13c-1.18-.1-2.37-.16-3.55-.29l-3.52-.44a98.08 98.08 0 0 1-13.89-3z"/><path class="cls-8" d="M109.86 172.25a61.89 61.89 0 1 1 61.85-61.92 62 62 0 0 1-61.85 61.92zM109.79 49a61.38 61.38 0 1 0 61.41 61.34A61.44 61.44 0 0 0 109.79 49z"/><path class="cls-9" d="M109.8 173.27c-1.4 0-2.81 0-4.2-.13l.17-2.56c1.33.09 2.69.13 4 .13zm4.2-.14l-.16-2.55c1.33-.09 2.68-.22 4-.4l.33 2.54c-1.37.18-2.77.28-4.17.41zm-12.58-.41a63.84 63.84 0 0 1-4.14-.7l.5-2.51c1.31.27 2.65.49 4 .67zm20.91-.69l-.51-2.51c1.32-.27 2.64-.58 3.93-.93l.67 2.47c-1.34.36-2.72.69-4.09.94zm-29.14-1c-1.35-.37-2.7-.79-4-1.25l.84-2.42c1.26.44 2.56.85 3.85 1.2zm37.25-1.23l-.84-2.42c1.26-.44 2.53-.93 3.76-1.45l1 2.36c-1.29.56-2.61 1.07-3.92 1.53zm-45.2-1.53c-1.29-.55-2.57-1.15-3.82-1.78l1.16-2.28c1.2.6 2.43 1.18 3.66 1.7zm52.93-1.75l-1.17-2.26c1.2-.61 2.39-1.26 3.54-1.94l1.3 2.2a62.12 62.12 0 0 1-3.67 2.02zm-60.43-2.06c-1.2-.71-2.39-1.47-3.54-2.26l1.45-2.11c1.1.76 2.24 1.49 3.4 2.17zm67.65-2.22l-1.45-2.11c1.1-.75 2.19-1.56 3.25-2.39l1.58 2c-1.09.9-2.23 1.74-3.38 2.52zm-74.58-2.54a63.79 63.79 0 0 1-3.2-2.72l1.71-1.9c1 .9 2 1.78 3.08 2.61zm81.19-2.64l-1.71-1.9c1-.9 2-1.84 2.9-2.8l1.84 1.78c-1.03 1-2.03 1.98-3.03 2.92zm-87.4-3c-1-1-1.91-2.05-2.81-3.12l1.95-1.65c.87 1 1.78 2 2.7 3zm93.23-3.06l-2-1.65c.86-1 1.7-2.09 2.5-3.16l2.06 1.52c-.78 1.14-1.66 2.29-2.56 3.29zm-98.67-3.35c-.83-1.12-1.63-2.29-2.38-3.46l2.16-1.38a67.31 67.31 0 0 0 2.28 3.32zm103.67-3.41l-2.16-1.38a60.61 60.61 0 0 0 2.06-3.46l2.25 1.23c-.68 1.24-1.4 2.46-2.15 3.63zm-108.19-3.65a65.6 65.6 0 0 1-1.9-3.74l2.32-1.08a67.08 67.08 0 0 0 1.82 3.59zM51.1 133c-.5-1.3-1-2.64-1.38-4l2.45-.76c.4 1.28.84 2.56 1.32 3.81zm118.81-3.93l-2.44-.76c.4-1.28.75-2.59 1.06-3.89l2.49.6c-.32 1.33-.69 2.7-1.11 4.03zM48.62 125c-.33-1.36-.61-2.75-.84-4.12l2.53-.43c.22 1.32.49 2.65.8 4zm123.24-4.08l-2.52-.43c.22-1.32.4-2.66.53-4l2.55.25c-.14 1.36-.33 2.76-.56 4.14zm-124.63-4.25c-.14-1.38-.23-2.79-.28-4.19l2.56-.09c0 1.34.13 2.7.26 4zm125.47-4.15l-2.56-.09v-4.21l2.56-.08v2.13c0 .63.02 1.53 0 2.25zm-123.2-4.16l-2.5-.09c0-1.39.13-2.8.27-4.19l2.55.25c-.18 1.33-.27 2.67-.32 4.03zm120.37-4.12c-.14-1.33-.32-2.68-.54-4l2.52-.43c.23 1.37.42 2.77.56 4.16zm-119.57-3.9l-2.53-.43c.23-1.37.51-2.76.84-4.12l2.49.6c-.31 1.3-.58 2.61-.8 3.95zm118.23-4c-.31-1.3-.67-2.6-1.07-3.88l2.44-.76c.42 1.33.79 2.69 1.12 4zM52.16 92.5l-2.44-.76c.41-1.33.87-2.67 1.38-4l2.38.92c-.48 1.28-.92 2.56-1.32 3.84zm114-3.9c-.48-1.25-1-2.49-1.57-3.7l2.32-1.09a69 69 0 0 1 1.64 3.87zM55.06 85l-2.32-1.08c.59-1.27 1.23-2.53 1.9-3.76l2.24 1.24a48.4 48.4 0 0 0-1.82 3.6zm107.67-3.7c-.64-1.17-1.33-2.33-2.06-3.46l2.16-1.38c.75 1.17 1.48 2.39 2.15 3.61zM58.94 77.9l-2.15-1.38a59.09 59.09 0 0 1 2.38-3.47l2.06 1.52c-.8 1.08-1.57 2.2-2.29 3.33zm99.45-3.38c-.8-1.07-1.64-2.14-2.51-3.16l2-1.65c.9 1.06 1.78 2.17 2.61 3.29zm-94.66-3.11l-2-1.66c.91-1.06 1.85-2.11 2.82-3.11l1.84 1.77c-.89.97-1.8 1.97-2.66 3zm5.6-5.8l-1.72-1.9c1-.93 2.12-1.85 3.21-2.71l1.59 2c-1.05.83-2.09 1.71-3.08 2.61zM147.19 63c-1-.83-2.14-1.63-3.24-2.39l1.44-2.11c1.16.79 2.3 1.63 3.39 2.49zm-71.54-2.39L74.2 58.5c1.15-.79 2.34-1.55 3.54-2.26l1.3 2.2c-1.15.68-2.29 1.41-3.39 2.17zm64.9-2.2c-1.16-.69-2.35-1.34-3.54-1.94l1.15-2.29c1.25.63 2.49 1.31 3.69 2zm-58-1.91l-1.15-2.29c1.24-.63 2.52-1.22 3.8-1.77l1 2.36c-1.2.52-2.44 1.09-3.63 1.7zm50.78-1.73c-1.23-.53-2.5-1-3.77-1.45l.84-2.42c1.32.46 2.64 1 3.93 1.51zM90 53.35l-.84-2.42c1.31-.46 2.66-.88 4-1.25l.68 2.47c-1.3.36-2.59.76-3.84 1.2zm35.73-1.23c-1.29-.35-2.61-.66-3.92-.92l.5-2.51c1.37.27 2.75.6 4.1 1zm-28-.9l-.51-2.51c1.37-.28 2.76-.51 4.14-.7l.34 2.54c-1.29.18-2.63.45-3.94.67zm20.06-.69a60.78 60.78 0 0 0-4-.39l.17-2.56c1.39.09 2.79.23 4.18.41zm-12.07-.38l-.17-2.56c.73-.05 1.47-.08 2.2-.11s1.33 0 2 0V50h-1.92c-.67.06-1.38.1-2.08.15z"/><path class="cls-10" d="M85 154.43a.77.77 0 0 1-.3-.06.67.67 0 0 1-.25-.16.76.76 0 0 1-.16-.25.73.73 0 0 1-.06-.3.86.86 0 0 1 0-.15 1.21 1.21 0 0 1 0-.14.52.52 0 0 1 .06-.13l.1-.12.12-.09.13-.07a.66.66 0 0 1 .15-.05.79.79 0 0 1 .69.21l.09.12a.57.57 0 0 1 .08.13v.14a.81.81 0 0 1 0 .15 1 1 0 0 1 0 .3 1 1 0 0 1-.17.25.79.79 0 0 1-.48.22z"/><path class="cls-11" d="M82 152.7a.75.75 0 0 1-.22-1.06.75.75 0 0 1 1.06-.22.77.77 0 0 1 .22 1.06.77.77 0 0 1-.64.34.79.79 0 0 1-.42-.12zm-2.57-1.79a.78.78 0 0 1-.16-1.08.77.77 0 0 1 1.07-.16.77.77 0 0 1 .16 1.08.76.76 0 0 1-.62.3.73.73 0 0 1-.47-.14zM77 149a.75.75 0 0 1-.09-1.08.78.78 0 0 1 1.09-.09.76.76 0 0 1 .09 1.08.77.77 0 0 1-.58.28.8.8 0 0 1-.51-.19zm-2.33-2.1a.75.75 0 0 1 0-1.08.77.77 0 0 1 1.09 0 .78.78 0 0 1 0 1.09.76.76 0 0 1-.56.23.73.73 0 0 1-.58-.29zm-2.2-2.24a.77.77 0 0 1 0-1.08.77.77 0 0 1 1.09 0 .78.78 0 0 1 0 1.09.77.77 0 0 1-.52.2.77.77 0 0 1-.62-.26zm-2-2.37a.77.77 0 0 1 .12-1.08.77.77 0 0 1 1.08.11.78.78 0 0 1-.11 1.08.77.77 0 0 1-.49.17.78.78 0 0 1-.7-.33zm-1.9-2.5a.78.78 0 0 1 .18-1.07.77.77 0 0 1 1.07.18.76.76 0 0 1-.18 1.07.72.72 0 0 1-.44.14.77.77 0 0 1-.73-.37zm-1.74-2.6a.77.77 0 0 1 .25-1.06.75.75 0 0 1 1 .25.76.76 0 0 1-.24 1 .75.75 0 0 1-.4.12.79.79 0 0 1-.71-.36zm-1.58-2.71a.78.78 0 0 1 .31-1.05.77.77 0 0 1 1 .31.76.76 0 0 1-.31 1 .68.68 0 0 1-.36.1.79.79 0 0 1-.74-.41zm-1.41-2.81a.77.77 0 0 1 .38-1 .77.77 0 0 1 1 .38.77.77 0 0 1-.38 1 .71.71 0 0 1-.32.07.78.78 0 0 1-.78-.5zm-1.23-2.88a.76.76 0 0 1 .44-1 .76.76 0 0 1 1 .43.77.77 0 0 1-.43 1 1 1 0 0 1-.29 0 .78.78 0 0 1-.82-.48zm-1-3a.77.77 0 0 1 .49-1 .77.77 0 0 1 1 .5.76.76 0 0 1-.5 1 .59.59 0 0 1-.23 0 .77.77 0 0 1-.91-.5zm-.87-3a.76.76 0 0 1 .56-.93.76.76 0 0 1 .93.55.77.77 0 0 1-.56.94h-.18a.77.77 0 0 1-.9-.58zm-.68-3.06a.78.78 0 0 1 .62-.9.77.77 0 0 1 .89.62.76.76 0 0 1-.61.89h-.14a.76.76 0 0 1-.91-.63zm-.49-3.1a.76.76 0 0 1 .67-.85.77.77 0 0 1 .86.66.77.77 0 0 1-.67.86h-.09a.78.78 0 0 1-.92-.69zm-.29-3.12a.76.76 0 0 1 .72-.81.76.76 0 0 1 .81.72.76.76 0 0 1-.71.81h-.2a.77.77 0 0 1-.77-.74z"/><path class="cls-12" d="M59.8 111.11a.74.74 0 0 1-.54-.23.73.73 0 0 1-.23-.54.89.89 0 0 1 0-.15.74.74 0 0 1 0-.14.54.54 0 0 1 .07-.13.58.58 0 0 1 .1-.12.31.31 0 0 1 .11-.09l.14-.07a.34.34 0 0 1 .14 0 .77.77 0 0 1 .69.21.58.58 0 0 1 .1.12s.05.08.07.13a.74.74 0 0 1 0 .14.89.89 0 0 1 0 .15.73.73 0 0 1-.23.54.76.76 0 0 1-.42.18z"/><path class="cls-13" d="M109.85 152.43a42.07 42.07 0 1 1 36-63.85v1.28l2.43 2.42-.37.36-2.57-2.57v-1.28a41.56 41.56 0 1 0 .06 43v-.06l3.93-1.89.22.46-3.79 1.82a41.76 41.76 0 0 1-35.91 20.31z"/><path class="cls-14" d="M137.23 149.19l-.3-.42a46.91 46.91 0 0 0 12.44-13l.44.28a47.66 47.66 0 0 1-12.58 13.14z"/><path class="cls-15" d="M109.85 157.88a47.58 47.58 0 0 1-47.55-47.49 48.15 48.15 0 0 1 .62-7.69l.5.09a48.1 48.1 0 0 0-.61 7.6 47 47 0 0 0 63.39 44.05l.17.48a47.32 47.32 0 0 1-16.52 2.96z"/><path class="cls-16" d="M169.93 96.79h-11.68l-8.94-8.93v-3a47 47 0 0 0-83.48 9l-.48-.18a47.54 47.54 0 0 1 84.44-9v3.06l8.64 8.63h11.47z"/><path class="cls-17" d="M171.37 107.28h-27.66l-8.41-8.39A27.83 27.83 0 0 0 114 82.73l.08-.5a28.33 28.33 0 0 1 21.69 16.42l8.17 8.13h27.45z"/><path class="cls-18" d="M171.22 105.19h-25.46l-8.4-8.34a30.69 30.69 0 0 0-40.46-14.3l-.22-.47A31.22 31.22 0 0 1 137.8 96.6l8.17 8.09h25.25z"/><path class="cls-19" d="M96.73 138.66a31.49 31.49 0 0 1-3.65-2l.27-.43a31.23 31.23 0 0 0 3.59 2z"/><path class="cls-20" d="M109.84 141.53a31 31 0 0 1-9.62-1.5l.16-.49a30.71 30.71 0 0 0 37-15.71l.46.23a31 31 0 0 1-28 17.47z"/><path class="cls-21" d="M109.84 144.26a33.9 33.9 0 1 1 30-49.69l8.17 8.07h23v.51h-23.25l-8.4-8.32a33.39 33.39 0 1 0 0 31l.45.24a33.83 33.83 0 0 1-29.97 18.19z"/><path class="cls-22" d="M81.07 133.05a36.63 36.63 0 0 1 28.73-59.31 36.68 36.68 0 0 1 32 18.81l8.18 8.19h20.75v.51h-21l-8.39-8.42a36.12 36.12 0 0 0-67.69 17.55 35.79 35.79 0 0 0 7.76 22.35z"/><path class="cls-23" d="M109.84 147a36.36 36.36 0 0 1-21.1-6.67l.3-.42a36.17 36.17 0 0 0 31.57 4.94l.15.49a36.55 36.55 0 0 1-10.92 1.66z"/><path class="cls-24" d="M126.19 143.13l-.23-.46a36.13 36.13 0 0 0 15.46-14.82l.44.25a36.54 36.54 0 0 1-15.67 15.03z"/><path class="cls-25" d="M127 166.67l-.15-.49A58.56 58.56 0 0 0 157.49 144v-7.66l4.33-4.34h5.64v.51H162l-4 4v7.68a59.18 59.18 0 0 1-31 22.48z"/><path class="cls-26" d="M109.86 169.21a58.85 58.85 0 1 1 48.06-92.76l.05.07v7.55l4 4h5.35v.51h-5.57l-4.33-4.33v-7.57a58.34 58.34 0 1 0-47.6 92 57.55 57.55 0 0 0 6.17-.33v.51a58.48 58.48 0 0 1-6.13.35z"/><path class="cls-27" d="M109.85 149.71a39.35 39.35 0 0 1-16.47-75.1l.21.46a38.84 38.84 0 1 0 49.82 54.77l3.71-7.74h23.17v.51h-22.84l-3.58 7.46a39.52 39.52 0 0 1-34.02 19.64z"/><path class="cls-28" d="M148.58 96.24l-5.17-5.16v-.28a39 39 0 0 0-33.61-19.27 40.31 40.31 0 0 0-4.12.21l-.05-.5a38.56 38.56 0 0 1 4.17-.24 39.52 39.52 0 0 1 34 19.57v.25l5.05 5z"/><path class="cls-29" d="M168.1 90.47h-7.38l-5.35-5.35v-6.35a55.42 55.42 0 0 0-83-9.24l-.37-.37a55.93 55.93 0 0 1 83.83 9.39v6.36l5.06 5h7.16z"/><path class="cls-30" d="M109.86 166.29a55.95 55.95 0 0 1-49.65-81.78l.46.23a55.43 55.43 0 0 0 94.73 57.16v-6.4l5.36-5.36h7.38v.52H161l-5.05 5.06v6.41a56 56 0 0 1-46.09 24.16z"/><path class="cls-31" d="M109.85 163.23A53.19 53.19 0 0 1 98.37 162l.11-.5a52.38 52.38 0 0 0 54.71-21.78v-4.91l6.89-6.89h8.77v.51h-8.56L153.7 135v4.85l-.05.07a52.86 52.86 0 0 1-43.8 23.31z"/><path class="cls-32" d="M88.26 158.64a52.88 52.88 0 1 1 44.18-96.08l-.22.47a51.75 51.75 0 0 0-22.43-5 52.36 52.36 0 0 0-21.32 100.15z"/><path class="cls-33" d="M168.81 92.71h-8.75l-6.9-6.88V81a52.44 52.44 0 0 0-10-11l.33-.39a53.46 53.46 0 0 1 10.19 11.2v4.85l6.6 6.59h8.54z"/><path class="cls-34" d="M109.85 160.61a50.25 50.25 0 1 1 41.89-78v3.86l7.62 7.61h10v.51h-10.17l-7.92-7.91v-3.81a49.74 49.74 0 1 0 0 54.94v-3.91l7.91-7.92h10.18v.51h-10l-7.61 7.62v3.96a50.17 50.17 0 0 1-41.9 22.54z"/><path class="cls-35" d="M137.83 124.08l-.46-.24 4.25-8.42 29.6-.01v.51l-29.29.02-4.1 8.14z"/><path class="cls-36" d="M139.85 126.09l-.46-.23 4.25-8.42 27.38-.02.01.52-27.08.01-4.1 8.14z"/><path class="cls-37" d="M141.87 128.09l-.46-.21 3.73-7.92 25.56-.01v.51l-25.23.01-3.6 7.62z"/><path class="cls-38" d="M149.69 130.26l-.41-.3 4.55-6.12 16.09-.01v.51l-15.83.01-4.4 5.91z"/><path class="cls-39" d="M109.85 155.16a44.8 44.8 0 1 1 38-68.56v2.29l9.66 9.66h12.89v.51h-13.15l-10-10 .05-2.29a44.28 44.28 0 1 0 .07 47l1.86-3.81.46.22-1.88 3.84a44.6 44.6 0 0 1-37.96 21.14z"/><path class="cls-40" transform="rotate(-1 149.534 133.092)" d="M149.28 130.11h.51v5.81h-.51z"/><path class="cls-41" d="M166.6 86.26h-4.51l-3.24-3.24-.01-2.11h.52v1.9l2.94 2.94h4.3v.51z"/><path class="cls-42" d="M116.69 168.55a1 1 0 1 1-1-1 1 1 0 0 1 1 1z"/><path class="cls-43" d="M128.17 166.37a1 1 0 1 1-1-1 1 1 0 0 1 1 1z"/><path class="cls-44" d="M133.31 62.79a1 1 0 1 1-1-1 1 1 0 0 1 1 1z"/><circle class="cls-45" cx="81.27" cy="132.75" r="1.02"/><path class="cls-46" d="M90.15 140.36a1 1 0 1 1-1-1 1 1 0 0 1 1 1z"/><path class="cls-47" d="M152.21 64.68a1 1 0 1 1-1-1 1 1 0 0 1 1 1z"/><circle class="cls-48" cx="165.7" cy="136.39" r="1.02"/><path class="cls-49" d="M127.06 154.77a1 1 0 1 1-1-1 1 1 0 0 1 1 1z"/><path class="cls-50" d="M138.47 148.79a1 1 0 1 1-1-1 1 1 0 0 1 1 1z"/><path class="cls-51" d="M99.75 161.86a1 1 0 1 1-1-1 1 1 0 0 1 1 1z"/><path class="cls-52" d="M89.31 158.38a1 1 0 1 1-1-1 1 1 0 0 1 1 1z"/><circle class="cls-53" cx="120.53" cy="145.13" r="1.02"/><circle class="cls-54" cx="126.28" cy="142.82" r="1.02"/><path class="cls-55" d="M164.66 100.99l-8.35 8.35.01 4.26 8.55 8.55 6.51-.01-.01-21.16-6.71.01z"/><path class="cls-56" d="M167.68 135.08l-2.36-1a60 60 0 0 0 4.86-23.75A60.67 60.67 0 0 0 151.8 67l1.78-1.84a62.9 62.9 0 0 1 14.1 69.92z"/><path class="cls-57" d="M150.51 130.11a1 1 0 1 1-1-1 1 1 0 0 1 1 1z"/><path class="cls-58" d="M149.58 95.84a1 1 0 1 1-1-1 1 1 0 0 1 1 1z"/><path class="cls-59" d="M149.07 92.38a1 1 0 1 1-1-1 1 1 0 0 1 1 1z"/><path class="cls-60" d="M110.82 68.54a1 1 0 1 1-1-1 1 1 0 0 1 1 1z"/><path class="cls-61" d="M88.17 72a1 1 0 1 1-1-1 1 1 0 0 1 1 1z"/><path class="cls-62" d="M73 69.59a1 1 0 1 1-1-1 1 1 0 0 1 1 1z"/><path class="cls-63" d="M61.21 84.92a1 1 0 1 1-1-1 1 1 0 0 1 1 1z"/><path class="cls-64" d="M144.47 69.87a1 1 0 1 1-1-1 1 1 0 0 1 1 1z"/><path class="cls-65" d="M94.46 74.57a1 1 0 1 1-1.3-.65 1 1 0 0 1 1.3.65z"/><circle class="cls-66" cx="105.58" cy="71.62" r="1.02"/><path class="cls-67" d="M66.72 93.43a1 1 0 1 1-1-1 1 1 0 0 1 1 1z"/><path class="cls-68" d="M64.16 103a1 1 0 1 1-2 0 1 1 0 0 1 2 0z"/><path class="cls-69" d="M160.66 145.6a65.86 65.86 0 0 0 4.71-8.09 69.43 69.43 0 0 0 3.44-8.71 69.57 69.57 0 0 0 2.08-9.12 71.35 71.35 0 0 0 .69-9.35h2a65 65 0 0 1-2.86 19.06 70.25 70.25 0 0 1-3.55 9 68.81 68.81 0 0 1-4.86 8.35zM78 166.6a65 65 0 0 0 8.77 4.05 66.88 66.88 0 0 0 9.28 2.68 68.76 68.76 0 0 0 9.59 1.25c.8.06 1.61 0 2.41.08h2.42c.81 0 1.62 0 2.42-.08l2.41-.18-.18-2-2.34.18c-.78.05-1.56 0-2.34.07h-2.35c-.78 0-1.56 0-2.34-.07a68.83 68.83 0 0 1-9.29-1.21 65.08 65.08 0 0 1-9-2.6 63.5 63.5 0 0 1-8.5-3.93zm-27.69-82a63.91 63.91 0 0 0-5 18.61 65.14 65.14 0 0 0 .74 19.26l1.95-.37a63.2 63.2 0 0 1-.71-18.67 62 62 0 0 1 4.84-18zm79.09-35.27a64.65 64.65 0 0 0-38.11-.69l.56 1.91a62.67 62.67 0 0 1 36.93.67zm13.53 118.89l.95-.55.92-.58 1.83-1.18 1.78-1.27.89-.63.86-.67 1.71-1.35 1.65-1.43c.27-.24.56-.48.82-.72l.79-.76c.52-.5 1.06-1 1.57-1.51a67.22 67.22 0 0 0 14.41-21.67l.8-2c.28-.67.48-1.37.72-2.06.5-1.37.87-2.77 1.27-4.17.22-.7.34-1.42.52-2.12s.35-1.42.46-2.13c.25-1.44.54-2.86.69-4.31a68.62 68.62 0 0 0 .58-8.71h-2a68 68 0 0 1-.56 8.44c-.15 1.41-.43 2.79-.67 4.18-.11.7-.3 1.38-.45 2.07s-.29 1.38-.5 2.06c-.39 1.35-.75 2.72-1.23 4-.24.66-.43 1.34-.7 2l-.78 2a62.24 62.24 0 0 1-3.74 7.6 65.22 65.22 0 0 1-10.24 13.43c-.5.5-1 1-1.52 1.47l-.77.73c-.26.24-.53.46-.8.7l-1.6 1.38-1.59 1.25-.83.66-.86.61-1.73 1.23-1.78 1.14c-.3.19-.59.39-.89.57l-.92.53zM61.17 156.9l.76.79.79.75 1.58 1.5 1.7 1.43c.27.24.54.48.82.71l.86.68c.58.44 1.14.9 1.72 1.34l1.78 1.26c.59.43 1.2.82 1.82 1.21s1.22.8 1.84 1.17a67.15 67.15 0 0 0 24.49 8.8l2.16.27 1.09.14 1.08.08 2.18.16 2.18.06a66.75 66.75 0 0 0 17.3-1.92l-.47-1.93a64.61 64.61 0 0 1-16.85 1.86h-2.12l-2.11-.16-1.06-.08-1-.13-2.1-.27A65.41 65.41 0 0 1 75.82 166c-.61-.36-1.2-.75-1.79-1.13s-1.2-.75-1.76-1.17l-1.73-1.23c-.56-.42-1.11-.87-1.67-1.3l-.83-.65-.81-.69-1.6-1.39L64.1 157l-.77-.73-.73-.77zm-8.61-82.09l-.59.92-.54.94-1.09 1.9-1 1.94c-.16.32-.34.65-.49 1l-.45 1c-.3.66-.61 1.32-.89 2l-.8 2c-.13.34-.28.68-.4 1l-.35 1c-.23.69-.47 1.38-.69 2.07l-.59 2.1c-.1.35-.21.7-.29 1l-.25 1.07-.48 2.25-.38 2.15-.19 1.08-.09 1.04-.27 2.16c-.07.73-.12 1.45-.17 2.18s-.12 1.45-.13 2.18A67.29 67.29 0 0 0 44 125.12c.17.71.33 1.42.5 2.13l.6 2.09c.1.35.19.71.3 1l.35 1 .71 2.06.8 2c.13.34.26.68.4 1l.45 1c.31.66.6 1.33.91 2l1 2 1.76-.93-1-1.88c-.3-.64-.58-1.29-.88-1.93l-.44-1-.39-1-.78-2-.68-2-.34-1c-.11-.34-.2-.68-.29-1l-.58-2c-.17-.68-.32-1.37-.49-2.06a64.68 64.68 0 0 1-1.54-16.82c0-.7.07-1.41.12-2.11s.1-1.41.17-2.11l.26-2.1.14-1.05.18-1 .37-2.08.48-2.06.23-1c.09-.34.19-.68.29-1l.57-2c.22-.67.45-1.34.68-2l.33-1c.12-.34.26-.66.39-1l.77-2c.28-.65.58-1.29.87-1.93l.43-1c.15-.32.32-.63.48-.94l1-1.89 1-1.83.53-.92.57-.9zm77.66-28l-1-.35c-.35-.11-.7-.2-1.05-.3l-2.1-.6-2.13-.49-1.06-.25c-.36-.08-.72-.13-1.07-.2l-2.15-.38c-.72-.12-1.44-.19-2.17-.29-1.44-.21-2.89-.28-4.34-.4a69.35 69.35 0 0 0-17.4 1.25 66.88 66.88 0 0 0-30.86 15.47l1.32 1.48a65 65 0 0 1 29.94-15 67.17 67.17 0 0 1 16.85-1.2c1.4.11 2.82.18 4.21.39.7.09 1.4.16 2.1.27l2.09.38c.34.06.69.11 1 .19l1 .24c.69.16 1.38.31 2.06.48l2 .57c.34.1.68.19 1 .3l1 .34zm46.15 84.33a76 76 0 0 0 2.35-10.3 77.22 77.22 0 0 0 .78-10.52h-2.74a68 68 0 0 1-3 20zm-27.12 37a68.76 68.76 0 0 0 8.19-6.65c.63-.61 1.29-1.2 1.89-1.84l1.82-1.91c1.16-1.33 2.34-2.64 3.4-4l-2.16-1.74c-1 1.35-2.15 2.6-3.26 3.88l-1.75 1.84c-.58.62-1.22 1.18-1.82 1.77a65.19 65.19 0 0 1-7.87 6.39zm-44.14 12.38q.66.06 1.32.06h3.96c.87 0 1.75 0 2.63-.08l2.64-.2c.87 0 1.74-.19 2.62-.29s1.75-.21 2.61-.38l2.6-.47 2.58-.6-.66-2.66-2.47.57-2.5.45c-.83.17-1.67.26-2.51.37s-1.68.24-2.52.28l-2.53.19c-.85 0-1.69.05-2.54.08h-3.8c-.43 0-.85 0-1.27-.06zM62.73 163a68.55 68.55 0 0 0 8.41 6.37l1.11.72c.37.24.74.47 1.13.68l2.29 1.32c1.56.8 3.12 1.64 4.74 2.33l1.12-2.5c-1.55-.66-3-1.47-4.55-2.24l-2.2-1.26q-.56-.31-1.08-.66l-1.07-.69a63.36 63.36 0 0 1-8.08-6.07zm-22.58-39.9l.24 1.3c.08.43.19.86.29 1.29.2.86.38 1.72.61 2.57l.72 2.54c.24.85.55 1.67.83 2.51A67 67 0 0 0 47 143l2.42-1.28a64.28 64.28 0 0 1-4-9.3c-.27-.81-.57-1.6-.8-2.42l-.69-2.44c-.22-.81-.39-1.64-.59-2.47-.09-.41-.2-.82-.28-1.24l-.22-1.24zM47 77.78a68.06 68.06 0 0 0-4.18 9.69c-.27.84-.58 1.67-.82 2.51l-.72 2.55c-.23.85-.41 1.71-.61 2.57-.09.43-.2.85-.29 1.29l-.23 1.3 2.7.49.22-1.25c.08-.42.18-.83.28-1.24.19-.82.36-1.65.58-2.47l.69-2.44c.23-.82.53-1.61.79-2.41a65.64 65.64 0 0 1 4-9.32zm33.34-31.46c-1.62.7-3.17 1.53-4.73 2.34L73.32 50l-.58.33-.55.36-1.11.71a67.77 67.77 0 0 0-8.4 6.38l1.81 2.06a65.87 65.87 0 0 1 8.08-6.14l1.07-.7.53-.34.55-.32 2.2-1.26c1.5-.78 3-1.58 4.55-2.25zM126 42.13l-2.57-.6-2.6-.46c-.86-.17-1.74-.27-2.61-.38s-1.75-.25-2.63-.29l-2.59-.2c-.88 0-1.76-.05-2.64-.07h-3.96c-.43 0-.87 0-1.31.06l.11 2.81c.42 0 .84 0 1.27-.06h3.8c.85 0 1.69 0 2.54.07l2.53.19c.84 0 1.68.18 2.52.28s1.68.19 2.51.36l2.5.45 2.47.57zM164.5 67c-1.06-1.4-2.24-2.71-3.4-4l-1.82-1.91c-.6-.64-1.26-1.22-1.89-1.84a69.58 69.58 0 0 0-8.2-6.64l-1.56 2.25a66.26 66.26 0 0 1 7.88 6.39c.6.59 1.24 1.15 1.82 1.77l1.75 1.83c1.11 1.28 2.25 2.53 3.27 3.88zm15 43.32a78.87 78.87 0 0 0-.79-10.52 75.54 75.54 0 0 0-2.36-10.29l-2.61.81a74.51 74.51 0 0 1 2.26 9.89 76.06 76.06 0 0 1 .76 10.11z"/><path class="cls-70" d="M109.26 61.35a51.13 51.13 0 1 0 51.21 51.23 51.42 51.42 0 0 0-51.21-51.23zm-.33 89.73A37.37 37.37 0 0 1 95 148.35l.14-36.3a14.31 14.31 0 0 1 14.43-14 14 14 0 0 1 11.37 6 6.71 6.71 0 0 0 .67 1v.06a6.59 6.59 0 0 0 11.75-4.11 6.46 6.46 0 0 0-1.43-4.09c-5-7.16-12.88-12.13-22.27-12.15A27.71 27.71 0 0 0 82 110.3l-.09 1.48L81.8 139a36.89 36.89 0 0 1-11.51-26.62 38.8 38.8 0 1 1 38.64 38.67z"/><path class="cls-71" d="M108.69 59.66a51.71 51.71 0 1 0 51.79 51.81 52 52 0 0 0-51.79-51.81zm-.34 90.75a38 38 0 0 1-14-2.76l.14-36.72a14.46 14.46 0 0 1 14.6-14.14 14.17 14.17 0 0 1 11.49 6.06 6.37 6.37 0 0 0 .68 1 .43.43 0 0 0 0 .07 6.65 6.65 0 0 0 10.35-8.35c-5-7.24-13-12.27-22.53-12.28a28 28 0 0 0-28 25.86l-.09 1.5-.1 27.57a37.32 37.32 0 0 1-11.61-26.92 39.24 39.24 0 1 1 39.07 39.11z"/><path class="cls-72" d="M108.53 60.46a51.71 51.71 0 1 0 51.79 51.81 52 52 0 0 0-51.79-51.81zm-.34 90.75a38 38 0 0 1-14-2.76l.14-36.72a14.46 14.46 0 0 1 14.6-14.14 14.17 14.17 0 0 1 11.49 6.06 6.37 6.37 0 0 0 .68 1 .43.43 0 0 0 0 .07 6.65 6.65 0 0 0 10.35-8.35c-5-7.24-13-12.27-22.53-12.28A28 28 0 0 0 81 110l-.09 1.5-.15 27.5a37.32 37.32 0 0 1-11.64-26.9 39.24 39.24 0 1 1 39.07 39.11z"/><path class="cls-73" d="M181 140.5a77.55 77.55 0 0 0 6-29.48h2.69v-.39a80.49 80.49 0 0 0-3.44-23.31l-2.59.75a77.16 77.16 0 0 0-15.93-28.59l2-1.79a80.77 80.77 0 0 0-18.26-15.45L150 44.61a77.11 77.11 0 0 0-29.83-10.71l.42-2.76a81.13 81.13 0 0 0-23.93.2l.41 2.8a76.88 76.88 0 0 0-29.1 11l-1.5-2.46a80.93 80.93 0 0 0-18.14 15.71l2.18 1.93a77 77 0 0 0-14.78 26.4l-2.81-1A80.52 80.52 0 0 0 29 109.45l3 .08a77.39 77.39 0 0 0 5.24 29.21l-2.78 1.08a80.37 80.37 0 0 0 11.91 20.78l2.33-1.84c1 1.26 2 2.5 3.14 3.72a77.38 77.38 0 0 0 19.69 15.77l-1.41 2.56a79.42 79.42 0 0 0 22.52 8.46l.58-2.85a77.93 77.93 0 0 0 29.67.55l.55 2.8a79.76 79.76 0 0 0 22.7-7.69l-1.33-2.46a77.79 77.79 0 0 0 16.47-11.37 76.66 76.66 0 0 0 7.63-7.9l2.14 1.72a80.24 80.24 0 0 0 12.45-20.56zm-23.1 23.65a72.68 72.68 0 1 1 5.42-102.65 72.68 72.68 0 0 1-5.42 102.65z"/><path class="cls-74" d="M163.34 24.57l-1.5-1c-.5-.31-1-.59-1.53-.89-1-.58-2.05-1.19-3.09-1.76-2.12-1.07-4.2-2.2-6.39-3.13s-4.36-1.83-6.56-2.71c-1.12-.4-2.25-.76-3.37-1.14-.56-.19-1.12-.39-1.69-.56l-1.71-.49a98.08 98.08 0 0 0-13.89-3l-3.52-.45c-1.18-.12-2.36-.18-3.54-.28l-1.78-.13L113 9h-3.56V6.76l3.63.09c.61 0 1.21 0 1.82.05l1.81.1c1.2.1 2.41.17 3.62.3l3.6.45a100 100 0 0 1 14.2 3l1.74.49c.58.18 1.15.39 1.73.58 1.14.39 2.29.76 3.43 1.17 2.25.89 4.53 1.73 6.72 2.77s4.36 2.1 6.52 3.2c1.06.57 2.1 1.19 3.16 1.79.52.31 1.05.6 1.57.92l1.53 1zm18.71 159.22c.94-.86 1.79-1.82 2.68-2.74l1.33-1.39c.44-.45.84-1 1.27-1.43.83-1 1.68-1.93 2.49-2.92l2.37-3a109.77 109.77 0 0 0 8.35-12.87 113.85 113.85 0 0 0 6.35-14 113.19 113.19 0 0 0 4.21-14.75 103.8 103.8 0 0 0-43.77-107.14A110.3 110.3 0 0 0 154 16a103.17 103.17 0 0 0-29.27-8.9 115 115 0 0 0-15.29-1.12v.34a114.16 114.16 0 0 1 15.24 1.08 108.65 108.65 0 0 1 14.92 3.34 110 110 0 0 1 14.26 5.52 110.88 110.88 0 0 1 13.28 7.57 103.42 103.42 0 0 1 43.62 106.82 112 112 0 0 1-4.19 14.7 111.06 111.06 0 0 1-6.33 13.92 110.22 110.22 0 0 1-8.32 12.82l-2.36 3c-.81 1-1.66 1.93-2.49 2.9-.42.48-.82 1-1.26 1.44l-1.32 1.38c-.89.92-1.74 1.87-2.68 2.73zM23.32 48.52a106.51 106.51 0 0 0-11 19.68A103.29 103.29 0 0 0 5.7 89.81a105.65 105.65 0 0 0 55.37 113.8 105.69 105.69 0 0 0 148.26-59.2l-.32-.12A105.36 105.36 0 0 1 7.14 134.6 106.58 106.58 0 0 1 6 89.87a103.74 103.74 0 0 1 6.55-21.53 105.88 105.88 0 0 1 11-19.62zm85.44-43.24l-4.38.12c-1.46.08-2.91.21-4.37.31s-2.9.33-4.36.5l-2.17.28-2.16.38a100.4 100.4 0 0 0-16.94 4.47 106 106 0 0 0-15.94 7.27l-1.9 1.09c-.63.37-1.27.72-1.88 1.13L51 23.2l-3.6 2.54c-1.18.87-2.3 1.8-3.46 2.7a106.39 106.39 0 0 0-12.65 12.1l-1.44 1.66c-.47.55-1 1.1-1.41 1.68l-2.7 3.45-2.54 3.57c-.83 1.21-1.59 2.46-2.38 3.68A103.34 103.34 0 0 0 7.61 86.9a104.77 104.77 0 0 0 8 68.39 104.79 104.79 0 0 0 48.81 48.56 105.55 105.55 0 0 0 16.39 6.2c1.41.39 2.81.82 4.24 1.12l2.14.49c.71.16 1.42.34 2.14.45l4.32.77 4.35.55a111.16 111.16 0 0 0 17.5.48 104.54 104.54 0 0 0 92.5-69.62c.46-1.39 1-2.76 1.38-4.16l1.19-4.22c.35-1.42.67-2.85 1-4.28l.24-1.07.19-1.07.38-2.16a107.54 107.54 0 0 0 1.51-17.45 104.51 104.51 0 0 0-5.76-34.43 106.51 106.51 0 0 0-7.1-16 102.88 102.88 0 0 0-9.72-14.57l-.13.1a104 104 0 0 1 9.7 14.55 106.58 106.58 0 0 1 7.09 16 104.25 104.25 0 0 1 5.75 34.38 108.29 108.29 0 0 1-1.5 17.42l-.39 2.15-.19 1.08c-.07.36-.16.71-.24 1.07-.33 1.42-.64 2.85-1 4.26l-1.2 4.22c-.41 1.4-.91 2.77-1.37 4.15a104.39 104.39 0 0 1-75.09 67.05 105.48 105.48 0 0 1-17.32 2.46 110.78 110.78 0 0 1-17.42-.51l-4.35-.55-4.31-.77c-.72-.11-1.43-.29-2.14-.45L85 211c-1.43-.3-2.83-.72-4.23-1.12a104.86 104.86 0 0 1-16.37-6.18 104.58 104.58 0 0 1-48.72-48.49 104.54 104.54 0 0 1-7.9-68.27A103.14 103.14 0 0 1 21 54.67c.8-1.22 1.55-2.47 2.38-3.67l2.54-3.57L28.58 44c.44-.59.93-1.13 1.4-1.68l1.43-1.66a107.67 107.67 0 0 1 12.64-12.09c1.15-.9 2.28-1.83 3.45-2.69l3.57-2.54L54.75 21c.61-.4 1.25-.75 1.88-1.12l1.89-1.09a106.76 106.76 0 0 1 15.92-7.29A100.74 100.74 0 0 1 91.35 7l2.16-.38 2.17-.29c1.45-.16 2.89-.41 4.35-.49s2.9-.24 4.36-.31l4.37-.12zm83.12 40a108.68 108.68 0 0 1 9.64 14.66 105.91 105.91 0 0 1 7 16.1 101.67 101.67 0 0 1 4.23 17 109 109 0 0 1 1.31 17.49L214 115l-.33 4.38c0 .36-.05.73-.09 1.09l-.13 1.09-.28 2.18c-.1.72-.17 1.45-.29 2.17l-.39 2.17A101.38 101.38 0 0 1 208 145a105.88 105.88 0 0 1-7.31 15.95 100.79 100.79 0 0 1-9.86 14.52 107.49 107.49 0 0 1-12.14 12.65 101.19 101.19 0 0 1-14.08 10.47 106.45 106.45 0 0 1-15.64 8l-2 .81c-.68.26-1.36.55-2.06.77l-4.16 1.41-4.22 1.21c-.7.21-1.42.36-2.13.53l-2.14.49a104.38 104.38 0 0 1-96.9-28.44A106.32 106.32 0 0 1 15.2 154.8a103.55 103.55 0 0 1-6.18-16.43l-.6-2.11c-.2-.7-.34-1.42-.52-2.13l-.49-2.14-.25-1.07-.2-1.09c-.25-1.44-.52-2.88-.76-4.32l-.56-4.36a111.53 111.53 0 0 1-.44-17.53l.33-4.38.47-4.41.14-1.08.19-1.09.37-2.16c.14-.72.25-1.44.41-2.16l.49-2.14a102.29 102.29 0 0 1 5.34-16.72A105.86 105.86 0 0 1 21 53.92 104.82 104.82 0 0 1 75 11l2.08-.71c.69-.23 1.38-.48 2.09-.66l4.23-1.2 4.28-1c.71-.18 1.43-.29 2.15-.43L92 6.59a110.19 110.19 0 0 1 17.48-1.5v-.17a110.57 110.57 0 0 0-17.51 1.5l-2.16.39c-.72.13-1.45.24-2.16.42l-4.29 1-4.27 1.2c-.71.18-1.4.43-2.1.66l-2.08.71a105 105 0 0 0-54 43 106.29 106.29 0 0 0-8.12 15.59 102.55 102.55 0 0 0-5.36 16.77l-.49 2.15c-.16.71-.27 1.44-.4 2.16l-.39 2.17L6 93.72l-.14 1.09-.55 4.37-.33 4.38a111.94 111.94 0 0 0 .44 17.56l.56 4.36c.24 1.45.51 2.89.77 4.34l.19 1.08.21 1.1.5 2.14c.17.72.31 1.44.51 2.14l.6 2.12A103.86 103.86 0 0 0 15 154.82a104.73 104.73 0 0 0 117.2 57.11l2.15-.5c.71-.16 1.43-.32 2.13-.53l4.23-1.21 4.17-1.41c.7-.22 1.38-.51 2.06-.77l2.05-.81a106.72 106.72 0 0 0 15.66-8 101.72 101.72 0 0 0 14.1-10.49 108 108 0 0 0 12.17-12.68 101.77 101.77 0 0 0 9.87-14.53 106.26 106.26 0 0 0 7.32-16 102 102 0 0 0 4.5-17l.39-2.17c.12-.72.19-1.45.29-2.18l.27-2.18.14-1.09c0-.37.06-.73.09-1.1l.33-4.38.11-4.4a109.42 109.42 0 0 0-1.31-17.5 102.28 102.28 0 0 0-4.24-17 105.19 105.19 0 0 0-7-16.12 107.45 107.45 0 0 0-9.68-14.7zm20.39 58.88l-.28-3.62c-.05-.6-.07-1.21-.16-1.81l-.22-1.8c-.17-1.2-.28-2.41-.5-3.6l-.64-3.57-.16-.9-.2-.88-.41-1.77c-.28-1.18-.53-2.37-.88-3.53l-1-3.49c-.37-1.15-.77-2.3-1.15-3.44-.2-.58-.38-1.15-.6-1.72l-.66-1.69c-.46-1.12-.87-2.26-1.37-3.37l-1.5-3.31c-.24-.55-.52-1.09-.79-1.63l-.83-1.61-.83-1.62c-.28-.54-.6-1-.9-1.58-.6-1-1.2-2.1-1.82-3.14-1.31-2-2.58-4.1-4-6l-1.79 1.28c1.41 1.9 2.65 3.93 3.94 5.92.6 1 1.18 2.05 1.78 3.07.29.52.6 1 .87 1.55l.81 1.58.82 1.58c.27.53.54 1 .78 1.6l1.42 3.18c.49 1.08.89 2.2 1.34 3.3l.65 1.65c.21.56.38 1.12.58 1.68.38 1.12.77 2.24 1.13 3.37l1 3.42c.34 1.13.58 2.29.86 3.45l.4 1.73.2.86.15.88.63 3.5c.21 1.16.32 2.35.48 3.52l.23 1.76c.08.59.1 1.18.15 1.77l.27 3.55zm-38.77 86.08l1.43-1.12 1.38-1.19c.91-.8 1.84-1.57 2.73-2.39l2.62-2.51.66-.63.63-.65 1.25-1.32c.84-.87 1.68-1.74 2.45-2.67L189 175c1.49-1.92 3-3.78 4.4-5.79s2.7-4 4-6.05c.62-1 1.21-2.1 1.82-3.14.3-.53.62-1.05.89-1.58l.83-1.62.83-1.62c.28-.54.55-1.07.79-1.63l1.5-3.31c.5-1.1.9-2.25 1.36-3.37l.66-1.69c.22-.57.4-1.14.59-1.72l-2.07-.72c-.2.56-.37 1.13-.58 1.68l-.65 1.65c-.45 1.1-.84 2.22-1.33 3.3l-1.47 3.24c-.23.54-.5 1.07-.77 1.6l-.81 1.58-.81 1.58c-.28.53-.59 1-.88 1.55-.59 1-1.17 2.06-1.77 3.08-1.29 2-2.52 4-3.94 5.92s-2.84 3.79-4.29 5.66l-2.3 2.7c-.75.91-1.58 1.76-2.4 2.62l-1.22 1.28-.62.65-.64.61-2.57 2.46c-.87.8-1.78 1.56-2.67 2.34l-1.35 1.16-1.4 1.1zM12.34 143.6c.19.58.37 1.15.59 1.72l.67 1.68c.45 1.12.86 2.26 1.36 3.37l1.5 3.31c.24.55.52 1.09.79 1.63l.83 1.61.83 1.62c.28.54.6 1 .9 1.58.6 1.05 1.2 2.1 1.82 3.14 1.31 2 2.58 4.1 4 6s2.91 3.87 4.4 5.78l2.38 2.74c.77.93 1.61 1.8 2.45 2.68l1.26 1.31.62.66.66.62 2.63 2.51c.89.82 1.82 1.59 2.73 2.39l1.38 1.18 1.43 1.12 1.43-1.66-1.4-1.1-1.35-1.16c-.89-.78-1.8-1.53-2.67-2.34L39 181.54l-.64-.61-.62-.64-1.26-1.29c-.82-.85-1.65-1.7-2.41-2.62l-2.32-2.68c-1.46-1.87-3-3.7-4.31-5.66s-2.65-3.93-3.93-5.92c-.61-1-1.19-2.05-1.79-3.07-.29-.52-.6-1-.87-1.55l-.85-1.58-.81-1.58c-.28-.53-.55-1.05-.78-1.6L17 149.51c-.49-1.08-.89-2.2-1.33-3.3l-.67-1.65c-.21-.56-.38-1.12-.58-1.68zm13.24-93.47c-1.44 1.94-2.7 4-4 6-.62 1-1.21 2.09-1.82 3.14-.3.53-.61 1-.89 1.58L18 62.52l-.83 1.62c-.27.54-.55 1.07-.79 1.63l-1.5 3.31c-.5 1.1-.9 2.25-1.36 3.37l-.66 1.69c-.22.57-.4 1.14-.59 1.72-.39 1.14-.79 2.29-1.16 3.44l-1 3.5c-.35 1.15-.6 2.34-.87 3.52l-.41 1.77-.2.89-.16.89-.64 3.58c-.21 1.19-.32 2.4-.49 3.59l-.23 1.81c-.08.6-.1 1.2-.15 1.81l-.27 3.62 2.19.11.27-3.54c.05-.59.07-1.19.15-1.77l.23-1.77c.16-1.17.26-2.35.47-3.52l.62-3.5.16-.87.2-.87.4-1.73c.27-1.16.51-2.32.86-3.45l1-3.42c.36-1.13.75-2.25 1.12-3.37.2-.56.37-1.13.58-1.68l.65-1.66c.45-1.09.84-2.21 1.33-3.29l1.47-3.24c.23-.55.5-1.07.77-1.6l.84-1.58.79-1.53c.28-.53.59-1 .88-1.55.59-1 1.17-2.06 1.78-3.08 1.28-2 2.51-4 3.93-5.92zm83.86-43.37l-3.63.09c-.6 0-1.21 0-1.81.05l-1.81.1c-1.21.1-2.42.17-3.62.3L95 7.8a99.71 99.71 0 0 0-14.2 3.05l-1.74.5c-.58.17-1.15.38-1.73.57-1.14.39-2.29.77-3.43 1.18-2.25.9-4.53 1.73-6.71 2.78s-4.36 2.1-6.52 3.2c-1.06.58-2.1 1.2-3.16 1.8-.52.31-1 .6-1.57.92l-1.52 1 1.18 1.85 1.49-1c.51-.31 1-.59 1.54-.89 1-.59 2-1.2 3.08-1.76 2.12-1.08 4.2-2.21 6.38-3.14s4.37-1.84 6.57-2.72c1.11-.4 2.24-.76 3.36-1.15.56-.18 1.12-.39 1.69-.56l1.68-.43a96.9 96.9 0 0 1 13.88-3l3.53-.45c1.18-.13 2.36-.19 3.54-.29l1.77-.14h1.78l3.55-.12zM80.89 208.53a99.55 99.55 0 0 0 14.19 3l3.6.45c1.21.13 2.42.2 3.62.29l1.81.14c.61 0 1.21 0 1.82.05l3.63.09 3.63-.09c.6 0 1.21 0 1.81-.06l1.81-.13c1.21-.1 2.42-.17 3.62-.3l3.61-.46a99.87 99.87 0 0 0 14.19-3.05l-.62-2.11a96.6 96.6 0 0 1-13.88 3l-3.53.45c-1.18.13-2.36.19-3.54.29l-1.77.14c-.59 0-1.19 0-1.78.05l-3.55.09-3.56-.08-1.77-.06-1.77-.13c-1.18-.1-2.37-.16-3.55-.29l-3.52-.44a98.08 98.08 0 0 1-13.89-3z"/><g id="Arrows" class="cls-75"><path class="cls-76" d="M44.75 42.35l.94 3.87 2.88-2.76-3.82-1.11zm-2.84 132.34l3.87-.95-2.76-2.88-1.11 3.83zm132.34 2.83l-.95-3.87-2.88 2.76 3.83 1.11zm2.83-132.34l-3.86.95 2.75 2.88 1.11-3.83zM15.92 107.93l3.41 2.07.08-3.99-3.49 1.92zm91.57 95.58l2.07-3.4-3.98-.09 1.91 3.49zm95.58-91.57l-3.4-2.06-.09 3.98 3.49-1.92zM111.5 16.36l-2.06 3.4 3.98.09-1.92-3.49z"/></g></g></g></svg>