<svg xmlns="http://www.w3.org/2000/svg" viewBox="0 0 220 220"><defs><style>.cls-1{isolation:isolate}.cls-2{opacity:.32}.cls-3,.cls-5{mix-blend-mode:lighten}.cls-4,.cls-5,.cls-6{fill:#1a1a1a}.cls-6{mix-blend-mode:overlay}.cls-7{mix-blend-mode:screen}</style></defs><title>r_chip_shadow</title><g class="cls-1"><g class="cls-2" id="Layer_1" data-name="Layer 1"><g class="cls-3"><path class="cls-4" d="M109.67 211.08h-.91v-5h.93zm2.28 0l-.12-5h1l.16 5zm-5.15 0h-1l.19-5h1zm8.23-.1l-.26-5 1-.06.3 5zm-11.31 0l-1-.07.33-5 1 .07zm14.39-.18l-.41-5 1-.09.47 5zm-17.47 0l-1-.1.5-5 1 .09zm20.55-.25l-.58-5 1-.11.62 5zm-23.62-.07l-1-.13.65-5 1 .13zm26.68-.33l-.72-5 1-.15.76 5zm-29.74-.09l-1-.15.79-5 1 .15zm32.78-.4l-.86-4.94.95-.17.93 4.93zm-35.82-.1l-1-.19 1-4.93 1 .18zm38.86-.48l-1-4.91 1-.21 1.07 4.9zm-41.9-.12l-1-.23 1.1-4.89 1 .21zm44.91-.56l-1.17-4.88 1-.23 1.22 4.87zm-47.91-.14l-1-.25 1.25-5.01.95.24zm50.9-.62l-1.33-4.97.94-.26 1.38 4.83zm-53.89-.17l-1-.28 1.4-4.82.94.27zm56.86-.7l-1.48-4.79.94-.3 1.52 4.78zm-59.82-.17l-1-.32 1.55-4.77.93.3zm62.77-.78l-1.62-4.82.93-.32 1.67 4.73zm-65.7-.19l-1-.35 1.69-4.72.92.32zm68.62-.86L143.4 200l.92-.35 1.81 4.68zm-71.52-.2l-1-.38 1.84-4.67.91.36zm74.4-.94l-1.92-4.64.91-.37 2 4.61zm-77.26-.21l-1-.4 2-4.61.9.38zm80.1-1l-2-4.58.88-.4 2.12 4.55zM68 202.07l-.93-.43 2.13-4.55.89.41zm85.7-1.07l-2.2-4.52.88-.43 2.25 4.49zm-88.52-.23l-.91-.46 2.26-4.48.88.44zm91.28-1.17l-2.33-4.44.87-.46 2.37 4.42zm-94-.23l-.9-.49 2.4-4.41.86.47zm96.74-1.25l-2.47-4.37.85-.49 2.51 4.35zm-99.44-.24l-.88-.51 2.51-4.37.85.5zm102.11-1.32l-2.6-4.29.83-.52 2.65 4.27zm-104.76-.25l-.87-.54 2.67-4.25.83.52zm107.38-1.4l-2.73-4.21.81-.53 2.78 4.17c-.3.17-.59.37-.88.55zm-110-.25l-.86-.57 2.8-4.16.81.54zM167 193.17l-2.86-4.12.8-.57 2.9 4.1zm-115.1-.26l-.84-.59 2.94-4.09.8.57zm117.61-1.54l-3-4 .78-.58 3 4zm-120.07-.27l-.82-.62 3.05-4 .77.58zM172 189.49l-3.1-3.94.77-.61 3.14 3.92zm-125-.27l-.8-.64 3.16-3.9.76.61zm127.4-1.68l-3.22-3.84.74-.63 3.27 3.81zm-129.78-.27l-.79-.67 3.28-3.8.74.63zm132.12-1.75l-3.34-3.74.72-.65 3.39 3.7zm-134.45-.28l-.76-.7 3.39-3.69.72.65zM179 183.43l-3.45-3.64.7-.67 3.5 3.6zm-139-.29l-.74-.72 3.5-3.59.71.68zm141.19-1.87l-3.57-3.53.69-.7 3.6 3.5zM37.83 181l-.72-.74 3.61-3.48.68.7zm145.52-1.92l-3.66-3.43.66-.71 3.71 3.38zm-147.65-.34c-.23-.26-.47-.51-.7-.76l3.72-3.38q.33.38.66.72zm149.73-2l-3.77-3.31.63-.73 3.82 3.26zm-151.79-.32l-.68-.78 3.82-3.26.64.74zm153.79-2l-3.87-3.19c.21-.25.41-.5.61-.76l3.91 3.16zm-155.79-.33l-.65-.81 3.92-3.13.62.76zM189.35 172l-4-3.08c.2-.26.4-.51.59-.77l4 3zm-159.63-.36l-.62-.81 4-3 .59.78zm161.49-2.11l-4.06-2.95.57-.8 4.09 2.92zm-163.34-.37l-.59-.83 4.1-2.9.57.81zM193 167l-4.14-2.83.54-.81 4.18 2.78c-.21.31-.4.6-.58.86zm-166.87-.38l-.57-.85 4.16-2.77.55.82zm168.57-2.2l-4.23-2.69.52-.83 4.26 2.66zm-170.26-.38l-.55-.88 4.27-2.64c.17.28.34.56.52.83zm171.88-2.24l-4.32-2.55.49-.84 4.34 2.53zm-173.49-.4c-.18-.3-.35-.6-.52-.9l4.35-2.5c.16.28.32.56.49.84zm175-2.27l-4.39-2.43.47-.86 4.41 2.39zm-176.56-.42l-.5-.91 4.43-2.37.46.86zm178-2.29l-4.46-2.3.44-.87 4.48 2.26zM19.83 156l-.46-.92 4.49-2.24c.14.3.29.59.44.88zm180.83-2.31l-4.53-2.16c.14-.3.28-.59.41-.88l4.55 2.11zm-182.2-.47l-.43-.94 4.56-2.09.42.89zm183.48-2.33l-4.59-2 .39-.89 4.61 2zm-184.75-.49c-.14-.32-.27-.64-.41-.95l4.63-1.95c.12.3.25.6.38.9zm186-2.34l-4.66-1.88c.13-.3.25-.61.37-.91l4.67 1.84c-.18.3-.31.62-.43.94zM16 147.52c-.13-.31-.25-.63-.38-1l4.69-1.8c.11.3.23.61.35.91zm188.25-2.35l-4.71-1.74.34-.92 4.72 1.69c-.11.32-.23.65-.35.97zm-189.35-.54c-.12-.32-.23-.65-.35-1l4.74-1.63.33.92zm190.38-2.38l-4.77-1.59.31-.93 4.77 1.55zm-191.39-.55l-.32-1 4.79-1.51.3.94zm192.32-2.39l-4.81-1.44.28-.94 4.82 1.39zM13 138.74c-.09-.32-.19-.65-.28-1l4.83-1.36.27.94zm194.08-2.4L202.2 135l.25-.94 4.86 1.24zm-194.9-.57c-.09-.34-.17-.67-.26-1l4.87-1.21.24.94zm195.65-2.43l-4.89-1.14c.08-.32.15-.63.22-.95l4.9 1.08c-.06.34-.18.67-.26 1.01zm-196.38-.58l-.23-1 4.91-1.06.21 1zm197-2.44l-4.92-1 .18-1 4.93.94zm-197.68-.58c-.07-.33-.13-.67-.2-1l4.94-.91.18 1zM209 127.29l-5-.84.16-1 5 .79zm-198.77-.59c-.05-.34-.11-.67-.16-1l5-.76.15 1zm199.26-2.46l-5-.69c0-.33.09-.65.13-1l5 .63c-.04.37-.08.71-.13 1.06zm-199.71-.59l-.13-1 5-.61.12 1zm200.08-2.48l-5-.53.1-1 5 .48zm-200.44-.59c0-.34-.07-.68-.1-1l5-.46.09 1zm200.73-2.48l-5-.39.07-1 5 .34zm-201-.59c0-.35-.05-.69-.07-1l5-.3.06 1zM210.33 115l-5-.24v-1l5 .17c.04.4.02.74 0 1.07zM9 114.42v-1l5-.16v1zm201.44-2.49l-5-.08v-1h5zm-201.33-.68c0-.34.2-.29.2-1.12h5.33v.13c0 .38-.26.66-.25 1zm196.31-2.33v-1l5-.12v1zm-191.48-.7l-5-.12v-1l5 .16zM205.33 106c0-.32 0-.65-.05-1l5-.28c0 .34 0 .69.05 1zm-191.28-.7L9 105l.06-1 5 .3zm191.1-2.22l-.07-1 5-.43.08 1zm-190.9-.71l-5-.41q0-.51.09-1l5 .46c-.04.28-.07.58-.09.93zm190.64-2.22l-.11-1 5-.58.11 1zm-190.36-.7l-5-.56c0-.34.08-.68.12-1l5 .61zm190-2.22c0-.32-.09-.64-.14-1l5-.73c.06.34.1.68.15 1zm-189.62-.71l-5-.71.15-1 5 .77zm189.19-2.2l-.17-1 4.94-.88.17 1zm-188.73-.69l-4.94-.87.18-1 4.93.92c-.06.32-.11.62-.17.95zm188.2-2.2l-.2-1 4.91-1 .21 1zm-187.65-.68l-4.91-1 .21-1 4.91 1.07zm187-2.19c-.07-.32-.14-.63-.22-1l4.87-1.19c.09.34.17.67.24 1zm-186.36-.68l-4.88-1.17c.08-.33.16-.67.25-1l4.87 1.22zm185.68-2.16l-.26-1 4.84-1.33.27 1zM17.29 85l-4.84-1.32.28-1 4.82 1.37zm184.15-2.15l-.28-.93 4.84-1.45.3 1zm-183.33-.63l-4.8-1.47c.1-.33.2-.66.31-1l4.78 1.52c-.1.33-.2.64-.29.95zm182.45-2.14c-.1-.3-.21-.61-.32-.92l4.76-1.64.33 1zM19 79.43l-4.75-1.62c.11-.32.22-.65.34-1l4.73 1.67c-.1.33-.21.64-.32.95zm180.58-2.12l-.35-.92 4.69-1.79c.13.33.25.65.37 1zM20 76.67l-4.7-1.77.37-1 4.68 1.81zm178.53-2.11l-.37-.91 4.63-1.92q.21.48.39 1zm-177.46-.63L16.43 72l.39-1 4.63 2c-.13.34-.26.63-.38.93zm176.32-2.08L197 71l4.57-2.07.42 1zm-175.17-.6l-4.58-2c.14-.31.28-.62.43-.93l4.56 2.09zm173.94-2.08l-.42-.88 4.5-2.21c.15.31.31.62.45.93zm-172.7-.57l-4.52-2.19.45-.92 4.5 2.24zm171.4-2.06c-.15-.29-.3-.58-.46-.87l4.44-2.35.48.92zM24.77 66l-4.44-2.33.48-.91 4.42 2.38zm168.7-2l-.48-.85 4.36-2.48.51.9zm-167.3-.52L21.8 61l.5-.89 4.35 2.51zm165.84-2l-.51-.83 4.29-2.62.53.89zm-164.36-.5l-4.3-2.59.53-.88 4.27 2.64c-.15.18-.34.46-.5.74zm162.81-2l-.53-.82 4.2-2.74c.19.28.38.57.56.87zM29.2 58.4L25 55.68c.19-.29.38-.57.56-.86l4.19 2.77c-.2.27-.38.54-.55.81zm159.65-2l-.56-.81 4.12-2.86.58.84zM30.82 56l-4.12-2.89.58-.83 4.1 2.89zm156.33-2l-.57-.79 4-3c.21.27.41.55.61.83zm-154.63-.42l-4-3 .61-.83 4 3zm152.87-1.89l-.6-.77 3.93-3.12.64.82zM34.3 51.25l-3.95-3.1.64-.8 3.92 3.13zm149.25-1.85c-.2-.26-.41-.51-.62-.75l3.84-3.24.66.8zM36.14 49l-3.85-3.21c.22-.27.44-.53.67-.79l3.81 3.26zm145.51-1.81l-.65-.73 3.74-3.35c.23.26.46.51.68.77zm-143.59-.44l-3.75-3.33.68-.77L38.71 46zM179.68 45c-.22-.24-.44-.48-.67-.71l3.63-3.47.71.75zM40 44.59l-3.65-3.45c.24-.25.47-.5.71-.74l3.61 3.48zm137.61-1.72l-.69-.69 3.52-3.57.73.73zm-135.53-.38l-3.54-3.56.73-.72 3.51 3.59zm133.47-1.67l-.71-.67 3.41-3.68.75.71zm-131.36-.37l-3.43-3.67.76-.7 3.39 3.7zm129.2-1.61l-.73-.66 3.3-3.77.77.68zm-127-.37l-3.32-3.76.77-.68 3.28 3.8zm124.8-1.55l-.75-.63 3.19-3.88.79.66zM48.6 36.56l-3.2-3.86.79-.65 3.17 3.89zm120.3-1.49l-.78-.61 3.08-4 .8.62zm-118-.35l-3.09-4 .82-.63 3 4zm115.68-1.43l-.79-.58 2.95-4.06.82.6zM53.23 33l-3-4.06.83-.6L54 32.38zm111-1.38l-.81-.55 2.82-4.15.85.58zm-108.6-.36l-2.84-4.14.85-.58 2.8 4.17zM161.76 30l-.83-.53 2.7-4.23.86.55zm-103.68-.37l-2.71-4.22.87-.55 2.66 4.25zm101.2-1.24l-.84-.5 2.56-4.32.88.53zm-98.7-.31L58 23.78l.89-.53 2.53 4.34zm96.17-1.17c-.28-.16-.56-.32-.85-.47l2.42-4.4.9.5zm-93.63-.29l-2.44-4.39.9-.5L64 26.14zm91.06-1.11l-.86-.45 2.29-4.47.91.48zm-88.47-.28l-2.3-4.46.91-.47 2.27 4.48zm85.86-1l-.88-.43 2.16-4.53.92.45zm-83.23-.28l-2.16-4.52.93-.44 2.12 4.54zm80.58-1l-.89-.4 2-4.6.94.42zM71 22.68l-2-4.59 1-.41 2 4.61zm75.23-.89l-.91-.37 1.88-4.66.95.39zm-72.51-.26l-1.89-4.65 1-.38 1.84 4.67zm69.78-.82l-.92-.34 1.74-4.72 1 .36zm-67-.24l-1.74-4.71 1-.35 1.69 4.73zm64.28-.76l-.93-.31 1.59-4.76 1 .33zm-61.5-.22l-1.6-4.76 1-.32 1.54 4.78zM138 18.8l-.93-.28 1.43-4.81 1 .3zm-55.9-.2l-1.45-4.8 1-.3L83 18.32zm53.05-.6l-1-.25 1.28-4.85 1 .26zm-50.27-.2l-1.3-4.8 1-.26 1.24 4.86zm47.43-.55l-1-.23 1.14-4.89 1 .24zm-44.59-.17l-1.14-4.88 1-.23 1.1 4.9zm41.73-.48l-1-.2 1-4.92 1 .21zm-38.86-.14l-1-4.92 1-.2 1 4.93zm36-.42l-1-.16.83-5 1 .17zm-33.09-.12L92.63 11l1-.17.79 4.95zm30.2-.35l-1-.14.68-5 1 .15zm-27.3-.1l-.69-5 1-.13.64 5zm24.39-.28l-1-.11.52-5 1 .12zm-21.48-.08l-.53-5 1-.1.49 5zm18.56-.21l-1-.08.38-5 1 .08zm-15.63-.06l-.39-5 1-.07.33 5zm12.7-.14h-1l.23-5h1zm-9.77 0l-.24-5h1l.18 5zm6.84-.08h-1l.07-5h1zm-3.91 0l-.08-5h1v5z"/></g><g class="cls-3"><path class="cls-4" d="M109.08 197.67H108l.11-5.48h1.07zm2.26 0l-.1-5.48h1.05l.18 5.47zm-5.65-.07l-1.12-.06.32-5.47 1.06.05zm9-.06l-.3-5.47 1.06-.06.37 5.46zm-12.4-.16l-1.13-.1.53-5.45 1 .09zm15.78-.09l-.52-5.46 1.06-.11.58 5.45zM99 197l-1.12-.14.74-5.43 1 .14zm22.52-.13l-.74-5.43 1.06-.15.79 5.42zm-25.88-.34l-1.11-.19 1-5.4 1 .18zm29.23-.18l-.95-5.4 1-.19 1 5.39zm-32.56-.43l-1.11-.23 1.16-5.36 1 .22zm35.88-.22l-1.19-5.33 1-.23 1.21 5.34zM89 195.2l-1.1-.27 1.36-5.31 1 .26zm42.48-.25l-1.36-5.31 1-.27 1.42 5.29zm-45.76-.61l-1.13-.34 1.58-5.25 1 .3zm49-.3l-1.58-5.25 1-.31 1.63 5.23zm-52.28-.7l-1.07-.34 1.77-5.18 1 .34zm55.51-.34l-1.77-5.18 1-.35 1.82 5.16zm-58.7-.78l-1.06-.4 2-5.11 1 .38zm61.89-.38l-2-5.11q.5-.18 1-.39l2 5.09zm-65-.85l-1-.45 2.17-5 1 .41zm68.18-.43l-2.17-5 1-.43 2.24 5zM73 189.62c-.34-.15-.69-.31-1-.48l2.37-4.94 1 .45zm74.37-.47l-2.37-4.94 1-.47 2.42 4.92zm-77.41-1l-1-.52 2.55-4.85.94.48zm80.43-.52l-2.55-4.85.93-.5 2.63 4.81zM67 186.55l-1-.55 2.74-4.74.92.52zm86.39-.57l-2.74-4.74.91-.54 2.81 4.71zm-89.31-1.14l-.95-.6 2.87-4.63.9.56zm92.21-.61l-2.92-4.64.89-.57 3 4.6zM61.22 183q-.47-.3-.93-.63l3.1-4.52.88.6zm97.89-.65l-3.1-4.52.87-.6 3.16 4.47zm-100.66-1.27l-.91-.67 3.27-4.41.86.63zm103.42-.7l-3.28-4.38.85-.65 3.33 4.36zM55.75 179l-.89-.7 3.45-4.26.82.66zm108.8-.73L161.1 174l.83-.67 3.49 4.22zM53.13 176.9l-.86-.74 3.61-4.16.79.68zm114-.77l-3.6-4.13.79-.7 3.66 4.08zm-116.54-1.47l-.83-.77 3.76-4 .78.72zm119.06-.81l-3.76-4 .76-.72 3.82 3.92zm-121.51-1.53l-.79-.8 3.91-3.84.74.75zm123.93-.84l-3.92-3.84.74-.76 4 3.78c-.29.28-.56.55-.82.82zm-126.29-1.59l-.76-.83 4-3.69.72.79zm128.61-.89l-4-3.69.71-.79 4.09 3.64zm-130.87-1.64c-.25-.28-.49-.57-.73-.85L47 163l.69.81zm133.1-.9l-4.2-3.52.68-.82 4.23 3.48c-.23.29-.47.58-.71.86zm-135.26-1.7l-.7-.89 4.34-3.36.66.84zm137.38-.93l-4.32-3.36.64-.84 4.37 3.31zm-139.45-1.76l-.66-.91 4.45-3.2.63.86zm141.48-.95l-4.46-3.19.61-.87 4.49 3.14zM37.34 159.3l-.63-.94 4.57-3 .59.88zm145.34-1l-4.57-3 .57-.89 4.62 3zm-147.19-1.84c-.2-.32-.4-.64-.59-1l4.68-2.84.56.91zm149-1l-4.69-2.83.54-.92 4.72 2.79zm-150.74-1.92l-.56-1L38 149.9c.17.31.34.62.52.93zm152.43-1l-4.79-2.65c.16-.31.33-.61.5-.92l4.83 2.57c-.17.34-.36.68-.54 1.01zm-154.06-2l-.51-1 4.89-2.46.5.92zm155.64-1l-4.89-2.47.46-.93 4.93 2.38c-.16.37-.33.7-.5 1.04zm-157.14-2l-.48-1 5-2.27c.14.32.29.64.44 1zm158.6-1l-5-2.28.42-1 5 2.2c-.11.37-.26.71-.42 1.06zm-160-2.1c-.15-.35-.3-.7-.44-1l5.07-2.07.41 1zm161.33-1l-5.07-2.07c.13-.33.27-.66.39-1l5.1 2zM28 141.27l-.39-1.07 5.15-1.87.36 1zm163.82-1l-5.14-1.89c.12-.32.24-.65.35-1l5.18 1.8zm-165-2.2c-.12-.36-.24-.71-.35-1.08l5.21-1.67c.11.34.22.68.34 1zm166.06-1l-5.21-1.67c.1-.34.21-.68.31-1l5.24 1.6c-.11.33-.22.69-.34 1.05zM25.8 134.82l-.3-1.08 5.28-1.47c.09.34.19.68.29 1zm168.06-1l-5.28-1.46.28-1 5.29 1.41c-.09.31-.15.67-.29 1.03zm-168.94-2.27l-.27-1.1 5.35-1.26c.08.35.16.69.25 1zm169.78-1l-5.33-1.26.24-1 5.34 1.2c-.08.3-.16.66-.25 1.03zm-170.54-2.3c-.07-.37-.15-.74-.22-1.11l5.38-1c.06.35.13.69.21 1zm171.26-1l-5.38-1 .2-1 5.39 1zm-171.88-2.33c-.07-.37-.13-.74-.19-1.11l5.42-.85c.05.35.11.7.17 1.05zm172.47-1l-5.42-.84.16-1 5.42.78zm-173-2.3c-.05-.38-.1-.75-.14-1.12l5.44-.63c0 .35.09.7.13 1.05zm173.42-1.06l-5.44-.62.12-1.07 5.45.58zM22.67 118.2l-.09-1.13 5.46-.41.09 1zm174.12-1.06l-5.46-.42.07-1.06 5.47.37zm-174.36-2.32c0-.37 0-.75-.05-1.13l5.48-.2v1.05zM197 113.76l-5.47-.21v-1.06l5.47.16zm-174.8-2.42a5.79 5.79 0 0 1-.16-1.23h5.46s.08.76.08 1.11zm174.89-1h-5.49v-1.05l5.49-.07v1zm-169.26-2.29l-5.48-.14v-1.13l5.47.22zm163.69-.85l-.05-1.07 5.47-.25.06 1.12zM28 104.88l-5.46-.35c0-.38 0-.75.08-1.13l5.46.43c-.08.35-.08.7-.08 1.05zm163.34-.88l-.09-1.06 5.46-.47.09 1.11zm-163.1-2.31l-5.45-.57c0-.37.08-.75.13-1.12l5.44.64zm162.8-.85c0-.35-.09-.71-.13-1.06l5.43-.69c0 .37.1.75.14 1.12zM28.63 98.57l-5.42-.78c.05-.37.11-.74.17-1.11l5.41.84c-.05.35-.11.7-.16 1.05zm162-.85c-.05-.35-.11-.7-.17-1l5.41-.9.18 1.11zM29.14 95.44l-5.39-1c.07-.37.14-.74.22-1.11l5.37 1.06c-.07.35-.13.7-.2 1.05zm160.93-.85l-.21-1 5.36-1.11c.08.37.15.74.23 1.11zM29.78 92.33l-5.35-1.2c.08-.37.17-.74.26-1.11L30 91.3c-.07.34-.15.7-.22 1.03zm159.62-.84c-.08-.35-.16-.69-.25-1l5.32-1.32c.09.36.18.73.26 1.09zM30.53 89.25l-5.29-1.42c.09-.36.19-.72.29-1.08l5.28 1.47c-.09.34-.19.68-.28 1.03zm158.08-.84c-.09-.34-.19-.68-.28-1l5.26-1.52.3 1.08zm-157.2-2.22l-5.24-1.61c.11-.36.22-.72.34-1.08l5.21 1.68c-.1.34-.21.67-.31 1.01zm156.3-.82l-.33-1 5.19-1.75.36 1.08zM32.4 83.18l-5.17-1.82c.12-.36.25-.71.38-1.06l5.15 1.88zm154.28-.82l-.37-1 5.13-1.92.39 1zM33.51 80.2l-5.1-2c.14-.35.28-.7.43-1l5.06 2.08zm152-.82l-.4-1 5-2.15.44 1zm-150.8-2.1l-5-2.21c.15-.35.3-.69.46-1l5 2.28zm149.54-.82c-.14-.32-.29-.64-.44-1l4.95-2.34c.17.35.32.69.48 1zm-148.21-2L31.14 72l.5-1 4.89 2.47c-.15.31-.31.62-.47.94zm146.84-.82l-.48-.94 4.86-2.53.52 1zm-145.39-2L32.68 69l.54-1L38 70.66zm143.91-.82l-.52-.92 4.76-2.71.55 1zM39.06 68.83l-4.72-2.78c.19-.32.39-.64.58-1l4.69 2.84zM179.83 68l-.56-.9 4.65-2.9.59 1zm-139.1-1.87l-4.62-3 .62-.94 4.57 3zm137.4-.8l-.6-.89 4.55-3.06.62.94zM42.49 63.5L38 60.36l.64-.92 4.46 3.19zm133.84-.79l-.63-.86 4.42-3.24.66.91zm-132-1.78L40 57.63l.69-.9L45 60.09zm130.08-.77l-.66-.84 4.29-3.4.7.88zM46.32 58.44L42.08 55l.72-.87 4.2 3.5zm126.11-.75l-.68-.81 4.14-3.57c.25.28.5.57.74.86zM48.38 56l-4.11-3.63.76-.84 4 3.69zm122-.73l-.71-.77 4-3.74c.26.28.52.55.77.83zM50.52 53.69l-4-3.79.78-.81 3.91 3.84zM168.16 53c-.24-.26-.49-.51-.74-.76l3.86-3.88c.27.26.53.53.79.8zM52.77 51.44L49 47.5l.81-.78 3.76 4zm113.13-.68l-.78-.72 3.71-4 .83.77zM55.09 49.27l-3.66-4.08.85-.75 3.6 4.13zm108.45-.65l-.79-.68 3.55-4.18.85.74zM57.5 47.2L54 43l.88-.71 3.44 4.26zm103.62-.62l-.83-.66 3.39-4.3.88.7zM60 45.23l-3.32-4.36.9-.68 3.27 4.4zm98.63-.59l-.85-.63 3.22-4.43.91.67zm-96.06-1.3l-3.16-4.48.93-.64 3.1 4.52zm93.43-.55l-.86-.59 3-4.56.94.64zm-90.82-1.23l-3-4.6.95-.61L66.07 41zm88.21-.56l-.9-.55 2.87-4.67 1 .59zm-85.51-1.12l-2.8-4.71 1-.57 2.75 4.74zm82.8-.48l-.92-.52 2.68-4.78 1 .56zm-80-1.09L68 33.49c.33-.18.66-.36 1-.53l2.55 4.85zm77.26-.44l-.94-.49 2.5-4.88 1 .52zm-74.44-1L71 31.93l1-.49 2.37 4.94zm71.61-.4l-1-.45 2.3-5 1 .48zm-68.73-.95l-2.23-5 1-.46 2.18 5zm65.85-.36l-1-.41 2.1-5.06 1 .44zm-62.92-.88l-2-5.09 1-.41 2 5.11zm60-.32l-1-.38 1.92-5.13 1.06.4zm-57-.8L80.43 28l1.07-.37 1.77 5.19zm54-.29l-1-.34L137 27.3l1.06.36zm-51-.72l-1.62-5.23q.54-.18 1.08-.33l1.56 5.25zm48-.25l-1-.3 1.51-5.27 1.09.32zm-44.94-.64l-1.42-5.29 1.05-.32L89.36 31zm41.84-.26l-1-.25 1.31-5.33 1.09.28zm-38.79-.54l-1.22-5.33 1.1-.25 1.15 5.36zm35.71-.19l-1-.22 1.09-5.37 1.11.24zm-32.61-.46l-1-5.38 1.11-.2.94 5.39zm29.48-.14l-1-.18.88-5.41 1.11.19zm-26.35-.37l-.79-5.42 1.14-.16.74 5.43zm23.22-.12l-1-.14.66-5.44 1.12.15zm-20.06-.28l-.59-5.45 1.12-.11.52 5.45zm16.91-.09l-1-.1.45-5.46 1.13.11zM104 28.62l-.38-5.47 1.13-.07.3 5.47zm10.58-.06h-1l.24-5.48 1.13.06zm-7.41-.1L107 23h1.13l.1 5.47zm4.24 0h-1.06v-5.48h1.13z"/></g><path class="cls-4" d="M109.67 28.9a82.33 82.33 0 0 1 82.24 81.83v-.42a82.25 82.25 0 1 0-164.49 0v.42a82.34 82.34 0 0 1 82.25-81.83zM203 110.73a93.28 93.28 0 0 1-186.56 0v.41a93.29 93.29 0 1 0 186.57 0c-.01-.14-.01-.27-.01-.41z"/><path class="cls-5" d="M109 11.54a98.77 98.77 0 1 0 98.76 98.77A98.88 98.88 0 0 0 109 11.54zm0 183.05a84.29 84.29 0 1 1 84.28-84.28A84.38 84.38 0 0 1 109 194.59z"/><path class="cls-6" d="M198 109.76v-.49h-2.51v.48zm0 1.22v-.5h-2.5v.48zm0 1.21v-.49l-2.51-.07v.48zm0 1.22v-.5l-2.5-.1v.48zm3.36-3.25v-.89h-2.5v.86zm0 1.13v-.89h-2.51v.87zm0 1.13v-.89l-2.51-.06v.87zm0 1.14v-.89l-2.51-.09v.86zm4.33-4v-.27H202v.25zm0 .59v-.26h-3.46v.25zm0 .6v-.27h-3.45v.26zm0 .59V111H202v.26zm0 .59v-.27l-3.45-.08v.26zm0 .59v-.27l-3.45-.1v.26zm0 .59v-.26l-3.45-.13v.28zm0 .6v-.27l-3.45-.15v.26zm0 .59v-.3l-3.45-.16v.25zm0 .59v-.27l-3.44-.18v.26zm-8 5.22l.07-.49-2.49-.29-.07.48zm-.18 1.2l.07-.49-2.48-.32-.07.47zm-.17 1.2l.07-.49-2.48-.35-.07.47zm-.18 1.2l.08-.49-2.48-.39-.07.48zm3.72-2.84l.12-.88-2.49-.29-.12.86zm-.17 1.12l.13-.88-2.49-.31-.12.85zm-.16 1.13l.13-.88-2.48-.35-.13.85zm-.16 1.12l.12-.88-2.47-.38-.13.86zm4.76-3.5v-.27l-3.43-.39v.25zm-.09.59v-.27l-3.43-.42v.26zm-.08.58v-.26l-3.43-.44v.26zm-.08.59v-.27l-3.42-.45v.25zm-.09.59v-.27l-3.42-.48v.26zm-.08.58v-.26l-3.41-.5v.25zm-.09.59v-.27l-3.41-.52v.26zm-.09.59v-.27l-3.41-.54v.25zm-.08.58v-.26l-3.41-.57v.26zm-.09.59v-.26l-3.4-.59v.26zm-8.53 4.25l.13-.48-2.44-.57-.13.46zm-.31 1.18l.12-.48-2.43-.61-.12.46zm-.32 1.17l.13-.48-2.42-.64-.13.46zm-.31 1.17l.13-.48-2.42-.67-.12.46zm4-2.39l.23-.86-2.44-.57-.23.83zm-.3 1.1l.23-.86-2.74-.64-.22.84zm-.29 1.09l.23-.85-2.42-.64-.23.84zm-.29 1.1l.23-.86-2.42-.67-.22.84zm5.14-2.92l.07-.26-3.36-.79-.07.25zm-.16.57l.07-.26-3.35-.81-.07.25zm-.15.58l.07-.26-3.35-.84-.07.25zm-.15.57l.07-.26-3.35-.85-.06.25zm-.15.57l.07-.26-3.63-.9-.07.25zm-.16.58l.07-.26-3.33-.9-.07.25zm-.15.57l.07-.26-3.33-.92-.07.25zm-.15.57l.07-.26-3.33-.94-.06.25zm-.16.57l.07-.25-3.32-1-.06.25zm-.15.58l.07-.26-3.31-1-.07.25zm-9 3.22l.18-.46-2.35-.86-.18.45zm-.45 1.13l.18-.46-2.34-.89-.18.45zm-.45 1.13l.18-.46-2.33-.93-.18.45zm-.45 1.12l.18-.45-2.31-1-.18.45zm4.27-1.9l.33-.82-2.36-.86-.32.8zm-.42 1.06l.33-.83-2.34-.89-.32.81zm-.42 1.05l.33-.83-2.33-.91-.32.8zm-.42 1.06l.33-.83-2.32-.95-.32.81zm5.45-2.3l.1-.25-3.53-1.25-.09.24zm-.22.55l.1-.25-3.24-1.2-.1.24zm-.22.55l.1-.25-3.23-1.22-.1.24zm-.22.55l.1-.25-3.22-1.24-.1.24zm-.22.55l.1-.25-3.21-1.26-.1.24zm-.22.55l.1-.25-3.2-1.28-.1.24zm-.22.55l.1-.24-3.2-1.31-.09.24zm-.22.56l.1-.25-3.46-1.35-.09.24zm-.22.55l.1-.25-3.18-1.34-.09.24zm-.22.55l.1-.25-3.17-1.36-.1.24zm-9.28 2.15l.23-.44-2.52-1.17-.22.43zm-.58 1.06l.24-.43-2.23-1.16-.23.42zm-.58 1.07l.24-.43-2.21-1.19-.23.42zm-.58 1.07l.24-.43-2.19-1.22-.23.42zm4.47-1.39l.42-.78-2.24-1.13-.41.76zm-.54 1l.42-.78-2.22-1.16-.42.76zm-.54 1l.42-.79-2.21-1.18-.41.76zm-.54 1l.42-.78-2.19-1.21-.41.76zm5.67-1.64l.13-.24-3.36-1.54-.13.23zm-.28.52l-.14-.3-3.07-1.58-.13.23zm-.28.52l.13-.23-3.35-1.59-.12.22zm-.28.53l.13-.24-3.06-1.61-.12.23zm-.28.52l.13-.24-3.33-1.63-.12.23zm-.28.52l.12-.24-3-1.64-.12.22zm-.29.52l.13-.24-3-1.66-.13.23zm-.28.52l.13-.23-3-1.69-.12.23zm-.28.52l.13-.23L190 155l-.12.23zm-.28.52l.12-.23-3-1.72-.12.22zm-9.48 1.06l.29-.41-2.09-1.38-.28.39zm-.7 1l.29-.41-2.07-1.4-.28.39zm-.69 1l.28-.4-2.3-1.5-.28.39zm-.7 1l.28-.41-2-1.46-.6.34zm4.59-.86l.51-.73-2.09-1.38-.5.71zm-.65.92l.51-.72-2.07-1.41-.5.71zm-.65.93l.51-.73-2.06-1.43-.49.71zm-.65.93l.51-.73-2-1.45-.5.7zm5.82-1l.16-.22-2.88-1.9-.15.21zm-.34.48l.16-.22-2.87-1.92-.15.22zm-.33.49l.15-.22-2.86-1.94-.15.21zm-.35.48l.16-.22-2.85-2-.15.21zm-.34.49l.16-.22-2.84-2-.14.21zm-.34.48l.16-.22-2.82-2-.15.22zm-.34.49l.16-.22-2.81-2-.15.21zm-.34.48l.16-.22-2.8-2-.15.21zm-.34.49l.16-.22-2.79-2-.15.21zm-.34.48l.15-.22-2.77-2.06-.15.22zm-9.53-.05l.33-.37-1.92-1.61-.32.35zm-.81.9l.33-.37-1.9-1.64-.32.36zm-.81.91l.33-.37-1.87-1.66-.32.35zm-.81.91l.33-.37-2.09-1.72-.32.36zm4.67-.33l.59-.66-1.92-1.61-.58.64zm-.76.85l.59-.66-1.89-1.64-.58.64zm-.75.85l.59-.67-1.88-1.66-.57.65zm-.76.84l.6-.66-1.86-1.69-.9.66zm5.9-.29l.18-.2-2.92-2.2-.17.19zm-.39.44l.18-.2-2.63-2.24-.17.2zm-.39.45l.17-.2-2.61-2.26-.17.19zm-.4.44l.18-.2-2.6-2.27-.17.19zm-.39.44l.18-.2-2.59-2.29-.17.2zm-.4.44l.18-.2-2.57-2.3-.17.19zm-.39.44l.18-.2-2.88-2.34-.17.19zm-.4.45l.18-.2-2.54-2.34-.17.2zm-.39.44l.18-.2-2.53-2.35-.17.19zm-.4.44l.18-.2-2.51-2.36-.17.19zm-9.46-1.16l.37-.32-2-1.9-.36.32zm-.91.81l.37-.33-1.69-1.84-.36.31zm-.9.81l.37-.33-1.67-1.87-.36.32zm-.91.81l.37-.33-1.64-1.9-.36.32zm4.67.21l.66-.59-1.72-1.82-.94.55zm-.85.76l.67-.59-1.7-1.85-.65.58zm-.85.75l.67-.59-1.97-1.9-.64.58zm-.84.75l.66-.59-1.65-1.88-.65.57zm5.89.4l.2-.18-2.37-2.52-.19.18zm-.44.39l.2-.18-2.35-2.53-.2.18zm-.44.39l.2-.17-2.34-2.55-.19.18zm-.45.4l.2-.18-2.32-2.56-.19.18zm-.44.39l.2-.18-2.31-2.57-.19.18zm-.44.4l.2-.18-2.29-2.59-.2.18zm-.45.39l.2-.18-2.27-2.6-.19.17zm-.44.39l.2-.17-2.26-2.62-.19.17zm-.44.4l.2-.18-2.24-2.63-.2.17zm-.45.39l.2-.18-2.22-2.64-.19.17zm-9.26-2.24l.41-.29-1.5-2-.39.28zm-1 .69l.41-.28-1.47-2-.39.27zm-1 .7l.4-.28-1.44-2.05-.39.27zm-1 .7l.41-.29-1.41-2.07-.4.28zm4.62.75l.72-.51-1.49-2-.71.5zm-.93.65l.73-.51-1.48-2-.7.49zm-.93.65l.73-.51-1.45-2-.71.49zm-.93.65l.73-.51L160 183l-.71.5zm5.81 1.08l.22-.16-2.06-2.77-.21.15zm-.74.31l.22-.16-2-2.78-.21.15zm-.48.34l.22-.16-2-2.79-.21.15zm-.49.34l.22-.16-2-2.8-.21.14zm-.48.34l.22-.16-2-2.82-.22.15zm-.49.34l.22-.16-2-2.83-.21.15zm-.48.34l.22-.16-2-2.84-.21.15zm-.49.34l.22-.16-1.96-2.88-.21.15zm-.48.34l.22-.16-1.93-2.87-.21.15zm-.49.34l.22-.16-1.91-2.88-.21.15zm-8.94-3.31l.43-.23-1.27-2.18-.42.23zm-1.07.58l.43-.23-1.22-2.19-.42.23zm-1.07.58l.43-.24-1.19-2.2-.42.22zm-1.07.57l.43-.23-1.16-2.22-.42.22zm4.49 1.29l.78-.42-1.24-2.17-.76.41zm-1 .54l.79-.42-1.25-2.19-.76.41zm-1 .54l.78-.43-1.2-2.2-.76.41zm-1 .53l.78-.42-1.17-2.21-.76.41zm5.64 1.74l.24-.12-1.73-3-.22.12zm-.52.29l.24-.13-1.71-3-.23.12zm-.52.28l.24-.13-1.69-3-.23.12zm-.52.28l.23-.13-1.67-3-.22.12zm-.52.28l.23-.13-1.65-3-.23.12zm-.53.28l.24-.13-1.63-3-.23.12zm-.52.28l.24-.12-1.61-3.06-.23.12zm-.52.28l.24-.12-1.6-3.07-.23.13zm-.52.28l.23-.12-1.57-3.08-.23.13zm-.52.28l.23-.12-1.55-3.09-.23.13zM143.9 191l.46-.18-1-2.3-.45.17zm-1.13.45l.46-.18-1-2.32-.45.18zm-1.13.45l.46-.19-.93-2.32-.44.17zm-1.13.44l.46-.18-.89-2.34-.45.18zm4.31 1.81l.83-.33-1-2.3-.81.32zm-1 .42l.83-.33-1-2.32-.8.32zm-1.06.41l.83-.32-.93-2.33-.81.32zm-1.05.42l.83-.33-.91-2.34-.8.32zm5.4 2.39l.25-.1-1.36-3.18-.24.09zm-.55.22l.25-.1-1.34-3.18-.24.09zm-.55.22l.25-.1-1.32-3.19-.24.09zm-.55.21l.25-.09-1.3-3.2-.25.09zm-.55.22l.25-.1-1.29-3.2-.24.09zm-.55.22l.25-.1-1.27-3.21-.24.09zm-.55.22l.25-.1-1.25-3.22-.24.1zm-.55.22l.25-.1-1.28-3.22-.24.1zm-.56.21l.25-.09-1.2-3.24-.24.1zm-.55.22l.25-.1-1.18-3.24-.24.1zm-7.93-5.28l.48-.13-.71-2.4-.47.12zm-1.17.31l.48-.13-.68-2.41-.47.12zm-1.17.31l.47-.13-.64-2.42-.47.12zm-1.18.31l.48-.13-.61-2.43-.47.13zm4.07 2.3l.86-.23-.71-2.4-.84.22zm-1.09.29l.86-.23-.69-2.41-.83.22zm-1.1.29l.86-.23-.65-2.42-.84.22zm-1.1.29l.86-.23-.62-2.43-.84.23zm5.09 3l.26-.07-1-3.31-.25.06zm-.57.15l.26-.07-1-3.32-.25.07zm-.57.15l.26-.07-.95-3.32-.25.07zm-.58.15l.26-.07-.92-3.32-.25.06zm-.57.16l.26-.07-.9-3.34-.25.07zm-.57.15l.26-.07-.88-3.34-.25.07zm-.58.15l.26-.07-.86-3.34-.25.06zm-.57.15l.26-.07-.84-3.35-.25.07zm-.57.15l.26-.07-.82-3.35-.25.07zm-.58.15l.26-.06-.79-3.36-.25.06zm-7.25-6.17l.49-.07-.43-2.47-.48.06zm-1.21.17l.49-.07-.39-2.48-.48.07zm-1.2.17l.49-.07-.36-2.48-.47.07zm-1.2.17l.49-.07-.33-2.48-.47.07zm3.77 2.76l.88-.13-.42-2.47-.86.13zm-1.12.16l.88-.13-.39-2.47-.86.12zm-1.12.16l.88-.13-.37-2.47-.85.12zm-1.12.16l.88-.12-.34-2.49-.85.12zm4.7 3.58h.26l-.59-3.4h-.25zm-.59.09h.27l-.57-3.41h-.26zm-.58.08h.26l-.55-3.41h-.25zm-.59.08h.26l-.52-3.42h-.26zm-.59.09h.27L123 201h-.25zm-.58.08h.26l-.48-3.42h-.26zm-.59.09h.26l-.46-3.42h-.26zm-.59.08h.27l-.45-3.42h-.25zm-.59.08h.27l-.42-3.43h-.26zm-.58.09h.26l-.4-3.43h-.25zm-6.49-7h.49l-.14-2.5h-.48zm-1.22 0h.5l-.11-2.51h-.48zm-1.21 0h.49l-.07-2.5h-.48zm-1.22 0h.5v-2.51h-.48zm3.43 3.17h.89l-.14-2.5h-.86zm-1.13 0h.89l-.11-2.51h-.86zm-1.13 0h.89l-.08-2.51h-.87zm-1.14 0h.89v-2.51h-.87zm4.26 4.1h.27l-.2-3.45h-.25zm-.59 0h.26l-.17-3.45h-.25zm-.6 0h.27l-.15-3.45h-.26zm-.59 0h.25l-.13-3.45h-.26zm-.59 0h.27l-.11-3.45H112zm-.59 0h.27l-.14-3.12h-.26zm-.59 0h.26l-.06-3.45h-.26zm-.6 0h.27v-3.46h-.26zm-.59 0h.21v-3.45h-.26zm-.59 0h.27V202h-.25zm-5.65-7.68h.5l.14-2.5h-.48zm-1.21-.11h.49l.19-2.5h-.48zm-1.21-.11l.49.05.22-2.5h-.48zm-1.21-.1h.49l.26-2.49h-.48zm3 3.54l.89.08.15-2.5-.86-.08zm-1.12-.1l.88.08.18-2.5-.86-.07zm-1.13-.1l.88.08.21-2.49-.86-.08zm-1.13-.1l.88.08.24-2.49-.86-.08zm3.75 4.56h.27l.21-3.45h-.26zm-.59-.05h.27l.23-3.45h-.26zm-.59-.05h.27l.25-3.44h-.26zm-.59 0h.27l.27-3.44h-.26zm-.59-.05h.27l.29-3.44h-.26zm-.59-.06h.27l.31-3.44h-.26zm-.59 0h.27l.33-3.44h-.26zm-.59-.05h.27l.35-3.43h-.26zm-.59 0h.27l.37-3.43h-.26zm-.57.14h.27l.39-3.43h-.26zm-4.72-8.28l.48.1.44-2.46-.47-.1zm-1.19-.25l.48.11.48-2.47-.47-.09zm-1.22-.27l.48.1.51-2.46-.47-.09zm-1.19-.25l.49.1.54-2.45-.48-.09zm2.61 3.88l.87.18.44-2.47-.85-.18zm-1.11-.23l.87.18.47-2.46-.85-.18zm-1.11-.23l.87.18.5-2.46-.85-.18zM89 199l.87.19.53-2.45-.85-.18zm3.2 5h.27l.6-3.4-.25-.05zm-.58-.12l.26.05.63-3.39-.25-.05zm-.58-.12l.26.05.65-3.39h-.25zm-.58-.12l.26.05.67-3.38-.25-.06zm-.58-.12l.26.05.69-3.38-.25-.05zm-.58-.12h.26l.71-3.38L90 200zm-.58-.12h.26l.73-3.37-.25-.06zm-.58-.12h.26l.75-3.37-.25-.05zm-.58-.12l.26.05.77-3.37-.25-.05zm-.58-.13l.26.06.79-3.36-.25-.06zm-3.72-8.77l.47.15.72-2.4-.46-.15zm-1.15-.39l.46.16.76-2.39-.45-.15zm-1.16-.38l.47.15.79-2.37-.45-.16zm-1.15-.39l.47.16.82-2.37-.45-.15zm2.14 4.16l.84.28.73-2.4-.82-.27zm-1.08-.36l.85.28.75-2.39-.82-.27zm-1.07-.36l.84.28.78-2.38-.82-.27zm-1.12-.42l.85.28.81-2.37-.82-.27zm2.6 5.31l.26.08 1-3.3-.24-.09zm-.56-.19l.25.09 1-3.3-.24-.09zm-.56-.19l.25.09 1-3.3-.25-.08zm-.57-.18l.26.08 1.06-3.29-.25-.08zm-.56-.19l.25.08 1.08-3.28-.24-.08zm-.56-.19l.25.08 1.1-3.27-.24-.08zm-.56-.19l.25.09 1.12-3.27-.25-.08zm-.57-.19l.26.09 1.14-3.26-.25-.08zm-.56-.19l.26.09 1.16-3.25-.25-.08zm-.56-.18l.25.08 1.18-3.24-.24-.09zm-2.67-9.16l.45.22 1-2.3-.43-.21zm-1.1-.51l.45.21 1-2.29-.43-.2zm-1.09-.52l.44.21 1.07-2.27-.44-.2zm-1.1-.52l.44.21 1.1-2.25-.44-.21zm1.63 4.38l.81.38 1-2.3-.79-.37zm-1-.48l.8.38 1-2.29-.78-.37zm-1-.48l.81.37 1-2.27-.78-.37zm-1-.49l.81.38 1-2.22-.78-.37zm2 5.58l.25.11 1.37-3.16-.23-.11zm-.53-.25l.24.11 1.4-3.16-.24-.11zm-.54-.26l.24.12 1.42-3.15-.23-.11zm-.54-.25l.25.12 1.43-3.14-.23-.11zm-.53-.25l.24.11 1.46-3.13-.24-.11zm-.54-.25l.24.11 1.48-3.12-.24-.11zm-.54-.26l.25.12 1.49-3.11-.23-.11zm-.53-.25l.24.12 1.51-3.11-.23-.11zm-.54-.25l.24.11 1.54-3.09-.37-.12zm-.53-.25l.24.11 1.55-3.08-.23-.11zm-1.58-9.4l.42.26 1.1-2.18-.41-.25zm-1-.65l.42.26 1.1-2.15-.41-.26zm-1-.64l.42.26 1.1-2.14-.41-.25zm-1-.64l.42.26L63 182l-.41-.25zm1.12 4.54l.75.47 1.26-2.17-.73-.46zm-1-.6l.75.47 1.29-2.15-.74-.46zm-1-.6l.76.47 1.31-2.13-.73-.46zm-1-.6l.76.47 1.34-2.12-.74-.45zm1.3 5.77l.22.14 1.74-3-.22-.13zm-.51-.32l.23.15 1.76-3-.22-.13zm-.5-.31l.23.14 1.77-3-.22-.14zm-.5-.31l.22.14 1.8-3-.22-.14zm-.51-.31l.23.14 1.81-2.94-.22-.14zm-.5-.32l.23.14 1.72-2.9-.22-.13zm-.5-.31l.22.14 1.85-2.92-.22-.13zm-.51-.31l.23.14 1.86-2.91-.21-.14zm-.5-.32l.13.18 1.88-2.89-.22-.14zm-.5-.31l.22.14 1.9-2.88-.21-.14zm-.59-9.51l.39.31 1.5-2-.37-.3zm-1-.76l.39.31 1.53-2-.37-.3zm-.95-.76l.39.31 1.56-2-.38-.3zm-1-.75l.39.31 1.59-2-.38-.29zm.58 4.63l.7.56 1.5-2-.67-.54zm-.88-.7l.69.55 1.53-2-.67-.54zm-.89-.71l.7.56 1.55-2-.68-.54zm-.89-.7l.7.55 1.58-1.95-.68-.54zm.62 5.87l.21.17 2.07-2.76-.2-.17zm-.46-.37l.21.17 2.09-2.75-.11-.17zm-.47-.37l.21.17 2.11-2.74-.2-.16zm-.46-.37l.21.17 2.12-2.72-.2-.16zm-.46-.36l.21.16 2.27-2.73-.21-.16zm-.47-.37l.21.16 2.16-2.69-.2-.17zm-.46-.37l.21.16 2.17-2.68-.2-.16zm-.46-.37l.21.16 2.29-2.7-.21-.16zm-.47-.37l.21.16 2.21-2.65-.2-.16zm-.46-.37l.21.16 2.22-2.64-.2-.16zm.63-9.51l.35.35L50 171.8l-.34-.34zm-.85-.86l.35.35 1.75-1.8-.34-.34zm-.86-.87l.35.35 1.77-1.76-.33-.35zm-.86-.86l.35.35 1.8-1.74-.34-.34zm0 4.68l.74.62 1.73-1.82-.61-.62zm-.8-.81l.62.63 1.92-1.81-.61-.62zm-.8-.8l.62.63 1.77-1.78-.61-.61zm-.8-.81l.63.63 1.79-1.75-.61-.61zm-.07 5.91l.19.19 2.38-2.5-.18-.19zm-.42-.42l.19.19 2.4-2.49-.19-.18zm-.41-.42l.19.19 2.4-2.47-.18-.19zm-.42-.42l.19.19 2.42-2.46-.18-.18zm-.42-.42l.19.19 2.44-2.44-.18-.19zm-.42-.42l.19.19 2.46-2.43-.19-.18zm-.41-.42l.18.19 2.47-2.42-.18-.18zm-.42-.42l.19.19 2.48-2.4-.18-.18zm-.42-.42l.19.19 2.5-2.39-.18-.18zm-.42-.42l.19.19 2.52-2.37-.19-.19zm1.73-9.38l.3.39 1.93-1.6-.3-.38zm-.75-.95l.3.39 1.95-1.58-.3-.38zm-.75-1l.3.39 2-1.55-.3-.38zm-.75-.95l.3.39 2-1.53-.3-.38zm-.5 4.64l.55.7 1.92-1.6-.53-.68zm-.7-.89l.55.7L40 165.7l-.53-.68zm-.7-.89l.55.7 2-1.56-.54-.68zm-.7-.89l.55.7 2-1.53-.54-.68zm-.75 5.86l.16.21 2.65-2.21-.16-.2zm-.37-.47l.17.21 2.66-2.19-.16-.2zm-.37-.46l.17.21 2.68-2.18-.16-.2zm-.36-.47l.16.21 2.69-2.16-.16-.2zm-.37-.46l.31.22 2.7-2.15-.16-.2zm-.37-.47l.17.21 2.72-2.13-.16-.2zm-.36-.46l.16.21L36 166l-.15-.2zm-.37-.47l.17.21 2.74-2.1-.16-.2zm-.36-.47l.16.21 2.76-2.08-.16-.2zm-.37-.46l.17.21 2.97-2.04-.16-.21zm2.8-9.12l.26.43 2.1-1.37-.26-.42zm-.63-1l.25.42 2.12-1.34-.1-.41zm-.64-1l.26.42 2.13-1.31-.25-.41zm-.63-1l.25.42 2.16-1.28-.26-.41zm-1 4.55l.46.76 2.1-1.37-.45-.74zm-.59-1l.46.76 2.12-1.35-.46-.74zm-.6-1l.47.76 2.13-1.32-.45-.74zm-.59-1l.47.75 2.14-1.29-.45-.74zm-1.42 5.73l.14.23 3-1.84-.14-.22zm-.31-.51l.14.23 2.9-1.87-.13-.22zm-.31-.5l.14.23L31.1 159l-.13-.22zm-.31-.51l.14.23 2.92-1.83-.13-.22zm-.31-.5l.14.23L30.5 158l-.13-.22zm-.31-.51l.14.23 2.95-1.8-.14-.22zm-.31-.5l.14.23 3-1.78-.14-.23zm-.31-.51l.14.23 3-1.76-.14-.22zm-.31-.5l.14.23 3-1.75-.13-.22zm-.31-.51l.14.23 3-1.73-.13-.22zm3.84-8.72l.21.45 2.24-1.12-.2-.44zm-.51-1.11l.21.45 2.26-1.08-.2-.44zm-.51-1.1l.21.45 2.27-1.06-.2-.43zm-.51-1.1l.21.45 2.29-1-.2-.43zm-1.56 4.4l.38.81 2.24-1.12-.36-.78zm-.47-1l.37.81 2.26-1.09-.37-.78zm-.48-1l.37.8 2.27-1.06-.36-.78zm-.47-1l.37.8 2.28-1-.36-.78zm-2.09 5.53l.12.24 3.09-1.54-.11-.23zm-.25-.54l.12.24 3.1-1.52-.11-.23zm-.25-.54l.12.24 3.11-1.5-.11-.23zm-.24-.54l.11.25 3.12-1.49-.11-.23zm-.25-.54l.11.25 3.13-1.46-.11-.24zm-.25-.53l.11.24 3.25-1.51-.11-.24zm-.25-.54l.11.24 3.15-1.42-.11-.24zm-.25-.54l.11.24 3.16-1.4-.11-.24zm-.25-.54l.11.24 3.17-1.38-.11-.23zm-.25-.54l.12.25 3.17-1.37-.11-.23zm4.84-8.21l.15.47 2.36-.85-.15-.46zm-.38-1.16l.15.47 2.37-.81-.14-.46zm-.23-1.2l.16.47 2.38-.78-.15-.46zm-.37-1.15l.15.46 2.39-.74-.15-.46zm-2.07 4.19l.28.84 2.36-.85-.27-.82zm-.35-1.08l.28.84 2.36-.81-.26-.83zm-.35-1.08l.27.85 2.38-.79-.27-.82zm-.35-1.08l.27.85 2.39-.76-.27-.82zm-2.72 5.25l.08.26 3.25-1.17-.08-.25zm-.18-.56l.08.25 3.26-1.15-.08-.24zm-.19-.57l.08.26 3.27-1.13-.08-.24zm-.18-.56l.08.26 3.27-1.11-.08-.25zm-.19-.56l.09.25 3.27-1.08-.08-.25zm-.18-.57l.08.26L21.2 138l-.08-.24zm-.19-.56l.09.26 3.23-1.05-.08-.25zm-.18-.56l.08.25 3.3-1-.08-.25zm-.18-.57l.08.26 3.3-1-.08-.24zm-.19-.56l.09.25 3.31-1-.08-.25zm5.77-7.59l.09.48 2.45-.56-.1-.47zm-.24-1.19l.1.48 2.45-.53-.1-.47zm-.24-1.19l.1.48 2.45-.5-.09-.47zm-.24-1.19l.1.48 2.46-.46-.09-.47zm-2.54 3.92l.17.87 2.45-.57-.17-.84zm-.23-1.11l.18.87 2.41-.54-.17-.85zm-.22-1.12l.18.88 2.45-.51-.17-.85zm-.22-1.11l.17.88 2.46-.48-.17-.85zm-3.31 4.9l.05.26 3.36-.78-.05-.25zm-.12-.58l.05.26 3.37-.76-.05-.25zm-.12-.59l.06.27 3.37-.74v-.25zm-.11-.58l.05.27 3.38-.72-.06-.25zm-.12-.58v.27l3.38-.7v-.25zm-.12-.58l.05.26 3.39-.67v-.25zm-.12-.58l.06.26 3.39-.65-.05-.25zm-.11-.58v.26l3.4-.63-.06-.25zm-.12-.58l.05.26 3.4-.61-.05-.25zm-.11-.58v.26l3.4-.59L18 125zm6.61-6.87v.49l2.49-.28v-.47zm-.1-1.21v.49l2.49-.24v-.48zm-.1-1.21v.49l2.5-.21v-.48zm-.1-1.21v.49l2.5-.18v-.48zm-3 3.6l.07.88 2.49-.27-.07-.87zm-.09-1.13l.07.88 2.49-.24-.07-.87zm-.1-1.13l.08.88 2.49-.21-.07-.87zm-.09-1.13l.07.88 2.5-.18-.07-.87zm-3.86 4.47v.27l3.44-.38v-.26zm0-.59v.27l3.43-.36v-.26zm-.05-.59v.27l3.43-.34v-.26zm0-.59v.27l3.44-.32v-.26zm0-.59v.27l3.44-.3v-.26zm-.05-.59v.26l3.44-.27v-.26zm0-.59v.26l3.45-.25V116zm-.05-.59v.26l3.45-.23v-.26zm0-.59v.26l3.44-.21v-.26zm-.05-.59v.26l3.45-.19v-.26zm7.36-6.06v.49h2.51v-.48zm0-1.22v.5h2.51v-.48zm0-1.21v.49l2.51.08v-.48zm0-1.22v.5l2.5.11v-.48zM17.43 108v.89h2.51v-.87zm0-1.14v.89h2.51v-.87zm0-1.13v.89l2.5.07v-.86zm0-1.13v.89l2.5.1v-.87zm-4.35 4v.27h3.46v-.25zm0-.59v.27h3.45v-.26zm0-.59v.26l3.45.06v-.26zm0-.6v.27l3.45.08v-.26zm0-.59v.27l3.45.1v-.26zm0-.59v.27l3.45.12v-.26zm0-.59v.27l3.45.14v-.26zm0-.6v.27l3.45.17v-.26zm0-.59v.27l3.45.18v-.25zm0-.59v.27l3.45.2v-.26zm8-5.17l-.07.49 2.49.29.07-.47zm.18-1.21l-.07.49 2.48.34.08-.48zm.18-1.2l-.07.49 2.48.37.07-.47zm.19-1.2l-.08.49 2.48.4.07-.47zm-3.43 2.83l-.13.88 2.49.3.13-.85zm.17-1.12l-.13.88 2.48.33.13-.85zm.17-1.12l-.14.92 2.48.36.13-.85zm.17-1.08l-.14.88 2.48.39.13-.85zm-4.78 3.48v.26l3.42.41v-.25zm.08-.59v.26l3.43.44v-.26zm.09-.59v.27l3.42.45v-.25zm.09-.58v.26l3.42.48v-.26zm.09-.59v.26l3.41.5v-.25zm.08-.59v.27l3.42.52v-.26zm.09-.58v.26l3.41.54v-.25zm.09-.59v.27l3.41.56v-.26zm.09-.59v.27l3.4.58v-.25zm.09-.58v.26l3.4.61v-.26zm8.55-4.2l-.13.48 2.44.59.13-.47zm.32-1.17l-.13.48 2.43.62.13-.47zm.32-1.17l-.13.47 2.42.66.13-.46zm.32-1.17l-.13.47 2.41.69.13-.46zm-4 2.36l-.23.86 2.43.59.23-.84zm.3-1.09l-.23.86 2.43.62.22-.84zm.3-1.09l-.24.85 2.43.65.22-.83zm.3-1.1l-.24.86 2.42.68.22-.84zm-5.16 2.89l-.07.26 3.36.81.07-.25zm.16-.57l-.13.21 3.35.83.07-.25zm.16-.57l-.07.26 3.34.85.07-.25zm.15-.57l-.07.26 3.34.87.07-.25zm.16-.58l-.07.26 3.33.9.04-.33zm.15-.57l-.07.26 3.33.92.07-.25zm.16-.57l-.07.26 3.32.93.07-.25zm.16-.57l-.07.26 3.31 1 .07-.25zm.15-.57l-.07.26 3.31 1 .07-.25zm.16-.58l-.07.26 3.3 1 .07-.25zm9-3.17l-.19.46 2.35.87.18-.45zm.41-1.14l-.18.46 2.34.9.18-.44zm.46-1.12l-.19.46 2.33.93.18-.45zm.45-1.13l-.18.46 2.31 1 .18-.45zm-4.28 1.88l-.33.82 2.35.87.32-.8zm.43-1l-.34.82 2.34.9.33-.8zm.42-1.05l-.33.82 2.33.93.32-.8zm.43-1.06l-.34.83 2.32 1 .32-.81zm-5.46 2.18l-.1.25 3.24 1.2.09-.24zm.22-.55l-.1.25 3.23 1.22.1-.24zm.22-.55l-.1.25 3.23 1.24.09-.24zm.22-.55l-.1.25 3.2 1.26.1-.24zm.23-.55l-.1.25 3.2 1.25.1-.24zm.22-.55l-.1.25 3.2 1.3.09-.24zm.22-.55l-.1.25L23.66 74l.1-.24zm.22-.55l-.1.25 3.19 1.34.12-.24zm.21-.55l-.11.25 3.18 1.36.1-.24zm.22-.55l-.1.25 3.16 1.38.1-.24zm9.3-2.1l-.24.44 2.23 1.14.23-.43zm.58-1.06l-.24.43 2.22 1.17.23-.42zm.58-1.07l-.23.44 2.2 1.2.23-.43zm.59-1.06l-.24.43 2.18 1.23.23-.42zm-4.47 1.36l-.43.78 2.23 1.14.4-.74zm.54-1l-.43.78 2.22 1.16.42-.75zm.55-1l-.43.78 2.2 1.2.42-.76zm.54-1l-.43.78 2.19 1.22.42-.76zm-5.68 1.61l-.13.24 3.07 1.57.13-.23zm.28-.52l-.13.24 3.1 1.61.12-.23zm.28-.52l-.12.24 3.05 1.61.13-.23zm.29-.52l-.13.24 3.05 1.62.12-.22zm.28-.52l-.13.24 3 1.64.12-.22zm.29-.52l-.13.24 3 1.66.12-.23zm.28-.52l-.13.24 3 1.68.12-.23zm.29-.52l-.13.24 3 1.7.13-.23zm.28-.52l-.13.24 3 1.72L29 63zm.29-.52l-.11.25 3 1.74.13-.23zm9.48-1l-.29.4 2.09 1.4.27-.4zm.7-1l-.29.4 2.07 1.42.28-.39zm.7-1l-.28.4 2 1.45.28-.39zm.71-1l-.29.4 2 1.48.27-.39zm-4.6.84l-.52.72 2.09 1.39.5-.7zm.65-.93l-.51.73 2.07 1.41.5-.7zm.66-.92l-.51.72L36.17 58l.5-.71zm.66-.93l-.52.73 2 1.47.5-.71zm-5.84 1l-.13.19 2.87 1.91.15-.21zm.35-.49l-.16.22 2.86 1.94.15-.22zm.34-.48l-.16.22L32.83 57l.17-.2zm.34-.48l-.15.21 2.83 2 .15-.21zm.35-.49l-.16.22 2.83 2 .14-.21zm.34-.48l-.16.22 2.82 2 .19-.21zm.34-.48l-.15.21 2.8 2 .15-.21zm.34-.49l-.15.22 2.79 2 .15-.21zm.35-.48l-.16.22 2.78 2.05.2-.21zm.34-.48l-.15.22 2.76 2.07.15-.21zm9.53.1l-.33.37 1.91 1.62.37-.35zm.82-.9l-.34.37 1.89 1.65.32-.36zm.81-.9l-.33.37 1.86 1.67.32-.36zm.81-.9l-.33.36 1.84 1.7.32-.35zm-4.66.29l-.6.66 1.91 1.63.58-.64zm.76-.84L40 49l1.89 1.65.58-.64zm.75-.84l-.59.66 1.87 1.67.58-.64zm.76-.84l-.59.66L43.38 49l.58-.64zm-5.9.26l-.18.2 2.63 2.23.18-.19zm.4-.44l-.18.2 2.62 2.25.17-.19zM37 46l-.17.2 2.6 2.26.17-.19zm.4-.44l-.18.2 2.59 2.28.17-.19zm.4-.44l-.18.2 2.57 2.3.18-.2zm.39-.44l-.18.2 2.57 2.31.17-.19zm.4-.44l-.18.2L41 46.78l.17-.2zm.4-.44l-.18.2 2.53 2.34.17-.19zm.39-.44l-.18.2 2.52 2.36.18-.19zm.4-.44l-.18.2 2.51 2.37.17-.19zm9.46 1.2l-.38.33 1.71 1.83L51 46zm.91-.8l-.37.33 1.68 1.85.36-.32zm.91-.8l-.37.32 1.66 1.88.36-.32zm.91-.81l-.37.33L53.24 44l.37-.32zm-4.66-.24l-.67.59 1.71 1.83.65-.57zm.85-.75l-.67.59 1.69 1.85.65-.57zM49 40l-.67.59L50 42.45l.65-.58zm.85-.74l-.67.58 1.64 1.9.65-.57zM44 38.81l-.21.18 2.36 2.52.19-.17zm.44-.39l-.2.18 2.34 2.54.19-.17zm.44-.39l-.2.18L47 40.76l.19-.17zm.45-.39l-.2.17 2.31 2.57.19-.17zm.44-.39l-.2.17L47.85 40l.19-.17zm.45-.4L46 37l2.28 2.6.19-.17zm.44-.39l-.2.18 2.26 2.61.2-.17zm.45-.39l-.2.18 2.24 2.62.2-.17zm.44-.39l-.2.18 2.23 2.63.2-.17zm.45-.39l-.2.18 2.2 2.65.2-.17zm9.25 2.29l-.4.28 1.48 2 .4-.28zm1-.69l-.4.28 1.45 2 .4-.28zm1-.69l-.41.28 1.43 2.06.4-.28zm1-.7l-.41.29 1.4 2.07.4-.27zm-4.61-.78l-.73.51 1.49 2 .71-.49zm.93-.64l-.73.5 1.46 2 .72-.49zm.94-.65l-.74.51L58.19 36l.71-.49zm.93-.64l-.73.5 1.41 2.08.71-.5zm-5.81-1.1l-.22.15 2 2.78.21-.15zm.49-.34l-.22.15 2 2.79.21-.14zm.49-.34l-.22.15 2 2.81.21-.15zm.48-.34l-.22.15 2 2.82.21-.14zm.49-.34l-.22.16 2 2.83.21-.15zm.49-.33l-.22.15 2 2.84.21-.14zm.49-.34l-.22.15 1.94 2.86.21-.15zm.48-.34l-.22.16 1.93 2.86.21-.15zm.49-.33l-.22.15L58.2 32l.21-.15zm.49-.34l-.22.15 1.89 2.89.21-.15zm8.9 3.35l-.43.23 1.24 2.18.42-.23zm1.08-.57l-.44.23 1.21 2.19.43-.22zm1.07-.57l-.44.23 1.18 2.21.43-.23zm1.07-.57l-.44.23 1.16 2.22.42-.22zM64.66 29l-.79.42 1.24 2.18.77-.41zm1-.53l-.79.42 1.22 2.19.76-.4zm1-.53l-.79.42 1.19 2.2.76-.4zm1-.53l-.79.41L68 30l.77-.41zM62 25.61l-.24.12 1.72 3 .22-.12zm.52-.28l-.23.12 1.69 3 .23-.12zm.53-.28l-.24.13 1.67 3 .23-.13zm.52-.28l-.24.13 1.66 3 .23-.12zm.52-.28l-.23.13 1.63 3 .23-.12zm.53-.28l-.24.13L66 27.39l.23-.12zm.52-.28l-.24.13 1.6 3.06.23-.12zm.52-.27l-.23.12L67 26.85l.23-.12zm.53-.28l-.19.12 1.56 3.09.23-.13zm.52-.28l-.23.13L68 26.32l.22-.12zm8.48 4.37l-.46.18 1 2.3.45-.17zm1.15-.47l-.46.18.94 2.32.45-.18zm1.13-.45l-.46.18.91 2.34.45-.18zm1.13-.44l-.46.18.86 2.38.45-.18zm-4.3-1.82l-.83.32 1 2.31.81-.32zm1.06-.42l-.83.33 1 2.32.8-.32zm1-.41l-.83.33.92 2.33.81-.32zm1.06-.41l-.83.32.89 2.35.81-.32zm-5.39-2.42l-.25.1 1.34 3.18.24-.09zm.55-.21l-.25.1 1.33 3.18.24-.09zm.55-.22l-.25.1 1.31 3.2.24-.1zm.55-.21l-.25.09 1.29 3.21.24-.1zm.55-.22l-.25.1 1.27 3.21.24-.09zm.56-.21l-.25.09 1.25 3.22.24-.09zm.55-.22l-.25.1 1.23 3.22.24-.09zm.55-.21l-.25.09 1.21 3.24.24-.1zm.56-.22l-.25.1 1.18 3.24.25-.09zm.55-.21l-.25.09L78 22.07l.24-.09zm8 5.35l-.48.13.7 2.4.47-.12zm1.18-.3l-.48.12.67 2.42.46-.12zm1.17-.31l-.48.13.59 2.43.46-.12zm1.18-.3l-.48.12.6 2.44.46-.13zm-4.06-2.32l-.86.22.7 2.41.84-.22zm1.1-.29l-.87.23.68 2.41.83-.22zm1.09-.28l-.86.22.64 2.43.84-.22zm1.1-.29l-.86.23.61 2.43.84-.22zm-5.07-3l-.26.07 1 3.31.25-.06zm.57-.15l-.26.07 1 3.32.25-.06zm.58-.15l-.26.07.87 3.27h.25zm.57-.15l-.26.07.9 3.33.25-.06zm.57-.15l-.26.07.89 3.34.25-.07zm.58-.15l-.26.07.86 3.35.25-.07zm.57-.14l-.26.06.84 3.35.25-.06zm.57-.15l-.26.06.83 3.36.25-.07zm.58-.15l-.26.07.8 3.35.18-.09zm.57-.15l-.26.07.73 3.31.25-.06zM95 21.81l-.49.06.49 2.47.48-.06zm1.2-.17l-.49.07.38 2.47.48-.06zm1.2-.17l-.49.07.38 2.46.48-.06zm1.21-.16l-.49.07.31 2.48.48-.06zm-3.76-2.78l-.88.12.41 2.47.86-.11zm1.15-.15l-.88.12.38 2.5.86-.11zm1.12-.16l-.88.12.36 2.48.85-.11zm1.13-.15l-.88.12.32 2.48.86-.12zm-4.69-3.61h-.26l.57 3.41h.26zm.59-.08h-.26l.55 3.41h.25zm.59-.08h-.27l.53 3.45h.26zm.59-.08h-.27l.51 3.42h.26zm.58-.08h-.26l.49 3.42h.25zm.59-.08h-.27l.47 3.42h.26zm.59-.09h-.27l.45 3.43h.25zm.58-.08h-.26l.42 3.43h.26zm.59-.08H98l.4 3.43h.26zm.59-.08h-.27L99 17.2h.25zm6.45 7h-.49l.12 2.5h.49zm1.22 0h-.5l.1 2.5h.48zm1.21 0h-.49l.06 2.5h.48zm1.22 0h-.5v2.51h.55zm-3.42-3.18h-.89l.13 2.5h.87zm1.14 0h-.89l.09 2.5h.87zm1.13 0h-.89l.07 2.5h.86zm1.13 0h-.89v2.51h.86zm-4.23-4.11h-.27l.18 3.45h.25zm.59 0H105l.16 3.45h.26zm.59 0h-.26l.13 3.45h.25zm.6 0h-.27l.11 3.45h.26zm.59 0h-.27l.09 3.45h.26zm.59 0h-.27l.07 3.46h.26zm.59 0H108v3.45h.26zm.6 0h-.27v3.46h.26zm.59 0h-.27v3.45h.25zm.59 0h-.27v3.45h.24zm5.61 7.71l-.49-.05-.17 2.5.48.05zm1.21.11h-.5l-.19 2.5h.48zm1.21.11h-.5l-.22 2.49.47.05zm1.21.12h-.5l-.26 2.49.48.05zm-3-3.57l-.88-.08-.17 2.5.87.08zm1.13.11l-.89-.08-.19 2.5.86.08zm1.13.11l-.89-.09-.22 2.5.86.08zm1.13.1l-.89-.08-.25 2.49.86.08zm-3.74-4.58h-.26l-.23 3.44h.26zm.59.06h-.26l-.25 3.15h.26zm.59.05h-.26l-.27 3.44h.26zm.59.06h-.26l-.32 3.17h.26zm.59 0h-.26l-.34 3.17h.26zm.6.06h-.27l-.33 3.44h.26zm.59.05h-.27l-.35 3.43h.26zm.59.06h-.27l-.37 3.44h.26zm.59.06h-.27l-.38 3.18h.25zm.59.05h-.27l-.41 3.42h.25zm4.67 8.31l-.48-.11-.43 2.25.47.1zm1.19.25l-.48-.1-.49 2.46.47.1zm1.19.25l-.48-.1-.52 2.45.47.1zm1.19.26l-.49-.11-.55 2.45.47.1zm-2.59-3.89l-.87-.19-.45 2.47.84.18zm1.11.23l-.87-.18-.48 2.46.84.18zm1.11.24l-.87-.19-.52 2.46.85.18zm1.11.24l-.87-.19-.58 2.19.85.18zm-3.18-5h-.26l-.62 3.4.25.05zm.58.13l-.26-.06-.65 3.39.26.06zm.58.12l-.26-.06-.67 3.39.26.06zm.58.12l-.26-.05-.69 3.38.26.06zm.58.13l-.26-.06-.71 3.38.25.06zm.58.12l-.26-.06-.73 3.38.25.05zm.58.12h-.26l-.75 3.37h.25zm.58.13l-.26-.06L130 19l.25.05zm.58.12h-.26l-.79 3.36.25.05zm.58.13l-.26-.06-.81 3.36.25.05zm3.67 8.79l-.46-.16-.74 2.4.45.15zm1.15.39l-.46-.15-.77 2.38.45.16zm1.15.4l-.47-.16-.8 2.37.46.16zm1.15.39l-.47-.16-.83 2.36.45.15zm-2.11-4.17l-.84-.29-.74 2.4.82.28zm1.07.36l-.84-.28-.77 2.38.82.28zm1.07.37l-.84-.29-.79 2.38.82.28zm1.08.36l-.84-.28-.83 2.36.82.28zm-2.57-5.32l-.26-.08-1 3.3.24.08zm.56.19l-.26-.08-1 3.29.24.08zm.56.19l-.25-.08-1.06 3.29.25.08zm.56.19l-.25-.08-1.08 3.28.25.08zm.56.19l-.25-.08-1.1 3.27.25.09zm.57.2l-.26-.09-1.12 3.27.25.08zm.56.19l-.26-.09-1.13 3.26.24.08zm.56.19l-.26-.09-1.18 3.06.24.09zm.56.19l-.25-.09-1.16 3.04.24.08zm.56.19l-.25-.09-1.2 3.24.24.09zm2.62 9.17l-.45-.22-1 2.3.43.2zm1.1.52l-.45-.21-1 2.28.43.2zm1.09.52l-.44-.21-1.08 2.26.43.21zm1.1.52l-.45-.21L147.3 32l.43.21zm-1.61-4.38l-.81-.38-1 2.29.78.37zm1 .49l-.8-.39-1.05 2.28.79.38zm1 .48l-.8-.38-1.07 2.27.78.37zm1 .49l-.81-.38-1.09 2.25.78.38zm-1.93-5.58l-.25-.12-1.39 3.16.23.11zm.53.25l-.24-.11-1.42 3.15.24.11zm.54.26l-.25-.12-1.39 2.97.23.12zm.53.25l-.24-.11-1.45 3.13.23.11zm.54.26l-.25-.12-1.47 3.13.24.11zm.53.25l-.24-.11-1.49 3.11.23.11zm.54.26l-.25-.12-1.47 2.95.24.11zm.53.25l-.24-.11-1.53 3.09.23.12zm.54.26l-.25-.12-1.54 3.09.23.11zm.53.26l-.24-.12-1.57 3.08.23.11zm1.53 9.4l-.42-.26L153 35l.41.26zm1 .65l-.42-.26-1.26 1.93.4.26zm1 .65l-.42-.27-1.26 1.92.4.25zm1 .64l-.41-.26-1.27 1.9.4.25zm-1.09-4.54l-.75-.47-1.27 2.16.73.46zm1 .6l-.75-.47-1.3 2.14.73.46zm1 .61l-.75-.48-1.33 2.13.74.46zm1 .6l-.75-.47-1.35 1.92.73.46zm-1.26-5.77l-.23-.14-1.75 3 .22.14zm.5.32l-.23-.15-1.77 3 .22.14zm.5.31l-.23-.14-1.79 3 .22.14zm.5.32l-.22-.15-1.81 2.95.22.13zm.5.31l-.22-.14-1.83 2.93.22.14zm.51.32l-.23-.14-1.85 2.91.22.14zm.5.31l-.23-.14-1.86 2.91.22.14zm.5.32l-.23-.14-1.88 2.89.22.14zm.5.32l-.23-.15-1.89 2.89.21.14zm.5.31l-.23-.14-1.91 2.87.22.14zm.43 9.52l-.39-.31-1.51 2 .37.3zm.94.77l-.38-.31-1.55 2 .38.3zm.95.76l-.39-.31-1.57 2 .38.3zm.94.76l-.38-.31-1.6 1.93.38.3zm-.55-4.64l-.7-.56-1.51 2 .67.54zm.88.71l-.69-.56-1.54 2 .67.54zm.88.71l-.69-.56-1.56 2 .67.55zm.89.71l-.7-.56-1.58 1.94.67.55zm-.59-5.88l-.21-.16-2.09 2.75.2.16zm.46.38l-.21-.17-2.1 2.74.2.16zm.46.37l-.21-.17-2.12 2.72.2.17zm.47.21l-.2-.17-2.14 2.71.2.16zm.47.37l-.21-.17-2.16 2.7.2.16zm.46.37l-.21-.17-2.17 2.69.2.16zm.46.37l-.21-.17-2.18 2.63.2.16zm.46.37l-.21-.16-2.2 2.66.2.16zm.46.38l-.21-.17-2.22 2.64.2.17zm.46.37l-.21-.17-2.23 2.63.2.16zm-.68 9.5l-.35-.35-1.74 1.76.34.34zm.85.87l-.34-.35-1.77 1.75.33.35zm.85.87l-.34-.36-1.79 1.77.34.34zm.86.86l-.35-.35-1.81 1.74.34.34zm0-4.67L173 43l-1.74 1.8.61.62zm.79.81l-.62-.64-1.82 1.74.61.62zm.8.81l-.62-.64-1.78 1.77.6.61zm.76.72l-.62-.64-1.8 1.74.61.62zm.1-5.91l-.19-.19-2.39 2.49.18.18zm.42.42l-.19-.19-2.41 2.48.18.18zm.41.42l-.19-.19-2.42 2.46.18.19zm.42.42l-.19-.19-2.44 2.45.18.18zm.41.43l-.18-.19-2.46 2.43.19.18zm.42.42l-.19-.19-2.47 2.42.19.18zm.41.42l-.18-.19-2.48 2.4.18.19zm.42.43l-.19-.2-2.49 2.39.18.18zm.41.42l-.18-.19-2.51 2.37.18.18zm.42.42l-.19-.19-2.52 2.36.18.18zm-1.77 9.37l-.31-.39-1.93 1.59.29.38zm.74 1l-.3-.39-2 1.56.3.38zm.75 1l-.31-.39-2 1.55.29.38zm.74 1l-.3-.39-2 1.52.3.38zm.53-4.64l-.55-.7-1.93 1.59.53.69zm.69.89l-.54-.7-2 1.57.54.69zm.7.9l-.55-.7-2 1.54.53.69zm.7.89l-.55-.7-2 1.52.53.69zm.77-5.85l-.16-.21-2.66 2.19.15.21zm.37.46l-.17-.21-2.67 2.19.16.2zm.36.47l-.16-.21-2.69 2.17.16.2zm.37.47l-.17-.21-2.7 2.15.16.2zm.36.47L185 50l-2.72 2.13.16.2zm.36.47l-.16-.22-2.73 2.12.16.2zm.37.46l-.17-.21-2.71 2.01.16.2zm.36.47l-.16-.21-2.76 2.08.16.21zm.37.47l-.17-.21-2.77 2.02.16.21zm.36.47l-.17-.21-2.78 2 .16.21zm-2.85 9.1l-.25-.43-2.11 1.36.24.31zm.63 1l-.25-.42-2.13 1.33.25.41zm.63 1l-.26-.42-2.12 1.28.25.41zm.63 1l-.26-.42-2.15 1.27.24.41zm1.06-4.55l-.46-.76-2.11 1.36.45.74zm.59 1l-.46-.76-2.13 1.33.45.74zm.59 1l-.47-.76-2.13 1.31.44.74zm.58 1l-.46-.76-2.15 1.28.45.74zm1.46-5.73l-.14-.23-2.9 1.88.13.22zm.3.51l-.14-.23-2.91 1.86.14.22zm.31.51l-.14-.23-2.92 1.73.13.23zm.31.5l-.14-.23-2.94 1.82.14.22zm.31.51l-.14-.23-2.95 1.72.14.22zm.3.51l-.14-.23-3 1.78.13.22zm.31.5l-.14-.23L189 62l.14.22zm.31.51l-.14-.23-3 1.75.13.22zm.3.51l-.14-.23-3 1.73.13.22zm.31.51l-.14-.23-3 1.71.14.22zm-3.89 8.7l-.2-.45-2.25 1.11.2.43zm.51 1.1l-.21-.45-2.26 1.08.2.44zm.5 1.11l-.2-.45-2.28 1 .2.44zm.51 1.1l-.21-.45-2.29 1 .2.43zm1.58-4.39l-.37-.81-2.25 1.1.36.79zm.47 1l-.37-.81-2.26 1.04.36.79zm.47 1l-.37-.81-2.27 1.05.35.79zm.47 1l-.37-.81-2.29 1 .36.79zm2.11-5.52l-.11-.24-3.1 1.52.11.24zm.25.54l-.11-.24-3.11 1.55.11.24zm.24.54l-.11-.24-3.11 1.48.1.24zm.25.54l-.11-.24-3.13 1.47.11.24zm.25.54l-.11-.24-3.14 1.44.11.24zm.24.54l-.11-.24-3.14 1.42.1.24zm.25.54l-.11-.24-3.15 1.42.11.24zm.24.54l-.11-.24-3.16 1.38.11.24zm.25.54l-.11-.25-3.17 1.37.11.24zm.25.53l-.11-.25-3.17 1.35.1.24zm-4.87 8.19l-.15-.47-2.36.83.14.46zm.37 1.16l-.15-.47-2.38.8.15.46zm.37 1.15l-.15-.47-2.39.77.15.46zm.37 1.16l-.15-.47-2.4.73.15.46zm2.09-4.18l-.27-.85-2.37.84.27.82zm.35 1.08l-.28-.85-2.37.81.26.82zm.34 1.08l-.27-.85-2.38.78.26.82zm.35 1.07l-.27-.84-2.4.74.27.83zm2.74-5.23l-.08-.25-3.26 1.15.08.24zm.18.57l-.08-.26-3.27 1.21.08.25zm.18.56l-.08-.26-3.27 1.12.08.24zm.18.56l-.08-.25-3.28 1.08.08.25zm.19.57l-.09-.26-3.28 1.07.08.25zm.18.56l-.08-.25-3.29 1 .07.24zm.18.57l-.08-.26-3.3 1 .08.25zm.18.56l-.08-.25-3.31 1 .08.24zm.18.57l-.08-.26-3.31 1 .08.25zm.18.56l-.08-.25-3.32 1 .08.25zm-5.8 7.56l-.1-.48-2.44.55.09.47zm.23 1.2l-.09-.49-2.46.52.1.47zm.23 1.19l-.09-.49-2.46.49.09.47zm.24 1.19l-.1-.49-2.46.45.09.48zm2.56-3.91L199 89l-2.45.55.17.85zm.22 1.11l-.17-.87-2.46.52.17.85zm.21 1.12l-.17-.88-2.45.49.16.85zm.22 1.11l-.17-.87-2.46.46.16.85zm3.34-4.88l-.05-.26-3.37.76.05.25zm.11.58v-.26l-3.37.74v.26zm.12.59l-.06-.27-3.36.75.05.26zm.11.58l-.05-.27-3.38.7v.26zm.11.58v-.26l-3.44.68.05.26zm.12.58l-.05-.26-3.39.65.05.26zm.11.58l-.05-.26-3.39.64.05.25zm.12.58l-.06-.26-3.39.62.05.25zm.11.59l-.05-.27-3.4.6.05.25zm.11.58v-.27l-3.41.58v.25zm-6.64 6.83v-.49l-2.49.26v.48zm.09 1.21v-.49l-2.49.23v.48zm.09 1.21v-.49l-2.49.2v.48zm.09 1.22v-.5l-2.5.16v.48zm3-3.59l-.06-.89-2.5.27.07.86zm.09 1.13l-.07-.89-2.49.24.06.86zm.09 1.13l-.07-.89-2.5.21.07.86zm.08 1.13l-.06-.88-2.5.17.06.86zm3.9-4.42v-.27l-3.43.36v.26zm.05.59v-.27l-3.44.34v.26zm0 .59v-.27l-3.44.32v.26zm0 .59v-.27l-3.44.3v.26zm0 .59v-.27l-3.44.28v.26zm0 .59v-.27l-3.44.26v.26zm.05.59v-.26l-3.45.23v.26zm0 .59v-.26l-3.44.21v.26zm.05.59v-.26l-3.45.19v.26zm0 .59v-.26l-3.45.17v.26zm-41.73-80.9l-1.5-1c-.5-.31-1-.6-1.54-.89-1-.59-2-1.2-3.08-1.76-2.12-1.08-4.2-2.2-6.39-3.13s-4.37-1.83-6.57-2.71c-1.11-.4-2.24-.77-3.36-1.15-.56-.18-1.12-.39-1.69-.56l-1.71-.48a96.71 96.71 0 0 0-13.89-3l-3.52-.45c-1.18-.12-2.36-.19-3.55-.29l-1.77-.13h-1.77l-3.56-.09V5.93l3.63.09c.61 0 1.21 0 1.82.05l1.81.14c1.2.1 2.41.16 3.62.29l3.6.46a99.52 99.52 0 0 1 14.19 3l1.75.5c.58.17 1.15.38 1.73.57 1.14.39 2.29.77 3.43 1.17 2.25.9 4.53 1.73 6.72 2.77s4.36 2.1 6.52 3.2c1.06.58 2.1 1.2 3.16 1.8.52.3 1.05.59 1.57.91l1.53 1zM182.36 183c.94-.87 1.79-1.82 2.68-2.74l1.33-1.39c.44-.46.84-1 1.27-1.44.83-1 1.68-1.92 2.49-2.91l2.37-3a111.06 111.06 0 0 0 8.35-12.87 112.51 112.51 0 0 0 6.35-14 110.75 110.75 0 0 0 4.2-14.75 103.79 103.79 0 0 0-43.76-107.18 113.05 113.05 0 0 0-13.33-7.59A102.72 102.72 0 0 0 125 6.24a113.39 113.39 0 0 0-15.29-1.13v.34A114.29 114.29 0 0 1 125 6.57a103.09 103.09 0 0 1 29.18 8.87A112.19 112.19 0 0 1 167.45 23a103.44 103.44 0 0 1 43.62 106.82 112.55 112.55 0 0 1-4.19 14.71 110.93 110.93 0 0 1-6.33 13.91 110.22 110.22 0 0 1-8.32 12.82l-2.36 3c-.81 1-1.66 1.94-2.49 2.91-.42.47-.82 1-1.27 1.43l-1.31 1.4c-.89.91-1.74 1.86-2.68 2.72zM23.63 47.69a107 107 0 0 0-11.06 19.69A104 104 0 0 0 6 89a105.67 105.67 0 0 0 55.38 113.79 105.7 105.7 0 0 0 148.26-59.21l-.33-.11a105.35 105.35 0 0 1-201.86-9.7 106.53 106.53 0 0 1-1.11-44.72 103.22 103.22 0 0 1 6.55-21.54 105.88 105.88 0 0 1 11-19.62zm85.44-43.23l-4.38.11c-1.46.08-2.91.21-4.37.32s-2.9.32-4.36.49l-2.17.28-2.16.39a100.37 100.37 0 0 0-16.94 4.46 107 107 0 0 0-15.94 7.27l-1.9 1.1c-.63.36-1.27.72-1.88 1.12l-3.69 2.38-3.57 2.54c-1.18.86-2.31 1.79-3.46 2.69A105.68 105.68 0 0 0 31.6 39.72l-1.44 1.65c-.47.56-1 1.1-1.41 1.68l-2.7 3.46-2.54 3.57c-.83 1.2-1.59 2.45-2.38 3.68A103.24 103.24 0 0 0 7.92 86.08a104.75 104.75 0 0 0 8 68.38A104.79 104.79 0 0 0 64.68 203a105.55 105.55 0 0 0 16.39 6.2c1.41.4 2.81.82 4.24 1.12l2.13.49c.72.16 1.43.34 2.15.46l4.32.76 4.35.56a111.16 111.16 0 0 0 17.5.47 104.54 104.54 0 0 0 92.56-69.62c.46-1.38 1-2.76 1.38-4.16l1.19-4.22c.35-1.42.66-2.85 1-4.27l.24-1.07.19-1.08.38-2.16a107.35 107.35 0 0 0 1.51-17.45 104.59 104.59 0 0 0-5.76-34.43 106.4 106.4 0 0 0-7.1-16 102.41 102.41 0 0 0-9.72-14.6l-.13.11a102.84 102.84 0 0 1 9.7 14.55 105.69 105.69 0 0 1 7.09 16 104.49 104.49 0 0 1 5.71 34.39 108.09 108.09 0 0 1-1.5 17.42l-.39 2.16-.19 1.08c-.07.35-.16.71-.24 1.06-.33 1.42-.65 2.85-1 4.27l-1.2 4.21c-.41 1.4-.91 2.77-1.37 4.16a104.29 104.29 0 0 1-92.41 69.5 110.93 110.93 0 0 1-17.48-.47l-4.34-.55-4.31-.77c-.72-.11-1.43-.29-2.14-.45l-2.13-.49c-1.43-.3-2.83-.73-4.24-1.12a105.17 105.17 0 0 1-16.36-6.19A104.7 104.7 0 0 1 16 154.39a104.64 104.64 0 0 1-7.91-68.28 103.18 103.18 0 0 1 13.18-32.26c.8-1.23 1.55-2.47 2.38-3.67l2.54-3.57 2.7-3.45c.44-.58.93-1.12 1.4-1.68l1.43-1.65a106.22 106.22 0 0 1 12.64-12.09c1.15-.89 2.28-1.82 3.45-2.68l3.57-2.54 3.68-2.37c.6-.41 1.24-.76 1.88-1.13l1.89-1.09a106.76 106.76 0 0 1 15.92-7.26 99.76 99.76 0 0 1 16.91-4.45l2.16-.39L96 5.55c1.45-.17 2.89-.41 4.34-.49s2.91-.24 4.37-.32l4.37-.11zm83.12 40a108 108 0 0 1 9.64 14.66 105.8 105.8 0 0 1 7 16.09 101.92 101.92 0 0 1 4.23 17 110.21 110.21 0 0 1 1.31 17.49l-.11 4.39-.33 4.38c0 .36-.05.73-.09 1.09l-.14 1.09-.27 2.18c-.1.73-.17 1.46-.29 2.18l-.39 2.16a101.75 101.75 0 0 1-4.49 17 106.79 106.79 0 0 1-7.31 16 101.25 101.25 0 0 1-9.86 14.51A107.58 107.58 0 0 1 179 187.29a102.81 102.81 0 0 1-14.08 10.47 107.44 107.44 0 0 1-15.64 8l-2 .8c-.68.27-1.36.56-2.06.78l-4.22 1.37-4.22 1.2c-.7.21-1.42.37-2.13.53l-2.14.5a104.45 104.45 0 0 1-96.9-28.44 106.22 106.22 0 0 1-20.16-28.58 103.44 103.44 0 0 1-6.21-16.42l-.6-2.11c-.2-.71-.35-1.43-.52-2.14l-.49-2.14-.25-1.11-.2-1c-.25-1.44-.52-2.88-.76-4.33l-.56-4.35a111.59 111.59 0 0 1-.44-17.53l.33-4.38L6.3 94l.14-1.09.19-1.08.37-2.15c.14-.72.25-1.45.41-2.16l.49-2.14a102 102 0 0 1 5.33-16.72 107.51 107.51 0 0 1 8.11-15.57 105 105 0 0 1 53.93-43l2.08-.7c.69-.24 1.38-.48 2.09-.67l4.23-1.2 4.28-1c.71-.18 1.43-.29 2.15-.42l2.16-.39a111.37 111.37 0 0 1 17.48-1.49V4.1a111.75 111.75 0 0 0-17.5 1.49L90.08 6c-.72.13-1.45.25-2.16.43l-4.29 1L79.4 8.6c-.71.19-1.4.43-2.1.67l-2.08.7a105 105 0 0 0-54 43 107.22 107.22 0 0 0-8.11 15.59 102.66 102.66 0 0 0-5.37 16.78l-.49 2.14c-.16.72-.27 1.45-.4 2.17l-.39 2.16-.19 1.09-.14 1.1-.55 4.36-.33 4.39a112 112 0 0 0 .44 17.56l.56 4.36c.24 1.45.51 2.89.77 4.33l.19 1.08.25 1.08.5 2.14c.17.71.31 1.43.51 2.14l.6 2.11a104 104 0 0 0 6.2 16.45 105.26 105.26 0 0 0 48.65 49 105.07 105.07 0 0 0 68.59 8.07l2.15-.49c.71-.17 1.43-.32 2.13-.54l4.23-1.2 4.17-1.41c.7-.22 1.38-.51 2.06-.78l2.05-.81a106.72 106.72 0 0 0 15.66-8 101.72 101.72 0 0 0 14.1-10.49 107.07 107.07 0 0 0 12.16-12.67 101.66 101.66 0 0 0 9.88-14.54 107.26 107.26 0 0 0 7.32-16 101.75 101.75 0 0 0 4.5-17l.38-2.17c.13-.72.2-1.45.3-2.18l.27-2.18.14-1.09c0-.36.06-.73.09-1.09l.33-4.39.11-4.39a110.5 110.5 0 0 0-1.31-17.52A103 103 0 0 0 209 75.16 104.77 104.77 0 0 0 202 59a107.55 107.55 0 0 0-9.66-14.69zm20.39 58.87l-.28-3.62c-.05-.6-.07-1.2-.16-1.8l-.23-1.81c-.16-1.2-.27-2.4-.49-3.59l-.64-3.58-.16-.89-.2-.89-.42-1.77c-.28-1.18-.53-2.36-.88-3.52l-1-3.5c-.37-1.15-.77-2.29-1.15-3.44-.2-.57-.38-1.15-.6-1.72l-.66-1.69c-.46-1.12-.87-2.26-1.37-3.36l-1.5-3.31c-.24-.56-.52-1.09-.79-1.63l-.83-1.62-.82-1.59c-.28-.54-.6-1.06-.9-1.58-.6-1-1.2-2.11-1.82-3.15-1.31-2-2.58-4.1-4-6l-1.79 1.27c1.41 1.91 2.65 3.93 3.94 5.92.6 1 1.18 2.05 1.78 3.08.29.51.6 1 .87 1.54l.81 1.58.82 1.58c.27.53.54 1.06.77 1.6l1.45 3.16c.49 1.08.89 2.2 1.34 3.29l.65 1.66c.21.55.38 1.12.58 1.68.38 1.12.77 2.24 1.13 3.36l1 3.42c.35 1.14.59 2.3.87 3.45l.4 1.73.2.87.15.87.63 3.5c.21 1.17.32 2.35.48 3.52l.23 1.77c.08.58.1 1.18.15 1.77l.27 3.54zm-38.77 86.08l1.43-1.12 1.38-1.18c.9-.8 1.84-1.58 2.73-2.4l2.62-2.5.66-.63.63-.66 1.25-1.31c.84-.88 1.68-1.75 2.45-2.68l2.37-2.75c1.49-1.91 3-3.78 4.4-5.78s2.7-4 4-6.05c.62-1 1.21-2.1 1.82-3.15.3-.53.61-1 .89-1.58l.83-1.62.83-1.61c.28-.54.55-1.08.79-1.64l1.5-3.31c.5-1.1.9-2.24 1.36-3.36l.66-1.69c.22-.57.4-1.15.59-1.72l-2.07-.72c-.2.56-.37 1.12-.58 1.68l-.65 1.65c-.45 1.1-.84 2.22-1.33 3.29l-1.47 3.24c-.23.55-.5 1.08-.77 1.6l-.81 1.58-.81 1.59c-.28.52-.59 1-.88 1.54-.59 1-1.17 2.06-1.78 3.08-1.28 2-2.51 4-3.93 5.92s-2.84 3.79-4.29 5.66l-2.33 2.69c-.75.92-1.58 1.77-2.4 2.62l-1.22 1.29-.62.64-.64.62-2.57 2.45c-.87.81-1.78 1.56-2.67 2.34l-1.35 1.16-1.4 1.1zM12.64 142.78c.2.57.38 1.15.6 1.71l.66 1.69c.46 1.13.87 2.27 1.37 3.37l1.5 3.31c.24.56.52 1.09.79 1.63l.83 1.62.83 1.61c.28.54.6 1.06.9 1.58.6 1 1.2 2.11 1.82 3.15 1.31 2 2.58 4.1 4 6s2.91 3.87 4.4 5.78l2.39 2.77c.78.93 1.62 1.8 2.46 2.67l1.26 1.33.62.66.66.63 2.63 2.5c.89.82 1.82 1.59 2.73 2.39l1.38 1.19 1.43 1.12 1.37-1.73-1.4-1.09-1.35-1.16c-.89-.78-1.8-1.54-2.68-2.34l-2.57-2.45-.64-.62-.62-.64-1.22-1.28c-.82-.86-1.65-1.71-2.41-2.62l-2.32-2.69c-1.46-1.87-3-3.69-4.31-5.65s-2.65-3.93-3.94-5.92c-.6-1-1.18-2.05-1.78-3.08-.29-.51-.6-1-.87-1.54l-.81-1.58-.82-1.59c-.27-.52-.54-1-.78-1.59l-1.46-3.24c-.49-1.08-.89-2.2-1.34-3.29l-.65-1.66c-.21-.55-.38-1.12-.58-1.68zM25.89 49.3c-1.44 2-2.7 4-4 6.05-.62 1-1.21 2.1-1.82 3.15-.3.52-.61 1-.89 1.58l-.83 1.62-.83 1.61c-.28.54-.55 1.08-.79 1.63l-1.5 3.32c-.5 1.1-.9 2.24-1.36 3.36l-.66 1.69c-.22.57-.4 1.15-.59 1.72-.39 1.15-.79 2.29-1.16 3.45l-1 3.49c-.35 1.16-.6 2.35-.87 3.53l-.41 1.77-.2.88-.17.85-.63 3.58c-.22 1.19-.32 2.4-.49 3.6L7.46 98c-.08.6-.1 1.21-.15 1.81L7 103.45l2.19.11.31-3.56c.05-.59.07-1.18.15-1.77l.22-1.76c.17-1.18.27-2.36.48-3.53l.65-3.47.16-.88.2-.87.4-1.73c.27-1.15.51-2.31.86-3.45l1-3.42c.37-1.12.76-2.24 1.13-3.37.2-.56.37-1.12.58-1.68l.65-1.65c.45-1.1.84-2.22 1.33-3.3l1.47-3.24c.23-.54.5-1.07.77-1.59l.81-1.59.81-1.58c.28-.52.59-1 .88-1.55.59-1 1.17-2.06 1.78-3.07 1.28-2 2.51-4 3.93-5.92zm83.86-43.37l-3.63.07c-.6 0-1.21 0-1.81.06l-1.81.14c-1.21.1-2.42.17-3.62.29l-3.6.51a99.74 99.74 0 0 0-14.2 3l-1.74.49c-.58.18-1.15.39-1.73.58-1.14.39-2.29.77-3.43 1.17-2.25.9-4.53 1.74-6.71 2.78S63.1 17.16 61 18.26c-1.07.58-2.11 1.2-3.16 1.8-.52.3-1 .59-1.57.91L54.7 22l1.18 1.86 1.49-1c.5-.31 1-.6 1.54-.9 1-.58 2-1.19 3.08-1.76 2.11-1.07 4.2-2.2 6.38-3.13s4.37-1.84 6.57-2.72c1.11-.4 2.24-.77 3.36-1.15.56-.19 1.12-.39 1.69-.57l1.71-.48a98.31 98.31 0 0 1 13.88-3l3.53-.45c1.18-.12 2.36-.19 3.54-.29l1.77-.13c.59 0 1.19 0 1.78-.06l3.55-.09zM81.2 207.71a99.52 99.52 0 0 0 14.19 3l3.6.46c1.21.12 2.42.19 3.62.29l1.81.14c.61 0 1.21 0 1.82.05l3.63.09 3.63-.1h1.81l1.81-.14c1.21-.1 2.42-.17 3.62-.29l3.6-.46a99.74 99.74 0 0 0 14.2-3.06l-.62-2.11a98.31 98.31 0 0 1-13.88 3l-3.53.45c-1.18.12-2.36.19-3.54.29l-1.77.13-1.78.06-3.55.09-3.56-.09h-1.77l-1.77-.14c-1.19-.09-2.37-.16-3.55-.28l-3.52-.45a96.71 96.71 0 0 1-13.89-3z"/><path class="cls-4" d="M110.17 171.42A61.89 61.89 0 1 1 172 109.5a61.95 61.95 0 0 1-61.83 61.92zm-.07-123.26a61.38 61.38 0 1 0 61.41 61.34 61.45 61.45 0 0 0-61.41-61.34z"/><path class="cls-4" d="M110.11 172.45c-1.4 0-2.81 0-4.2-.14l.17-2.55c1.33.08 2.69.13 4 .13zm4.2-.14l-.17-2.56c1.34-.08 2.69-.22 4-.39l.33 2.53c-1.36.19-2.77.33-4.16.42zm-12.58-.42c-1.38-.18-2.78-.42-4.14-.69l.5-2.51c1.31.26 2.65.49 4 .67zm20.91-.69l-.51-2.51c1.32-.26 2.64-.57 3.93-.93l.67 2.47c-1.35.37-2.73.7-4.09.97zm-29.14-1c-1.35-.36-2.7-.78-4-1.24l.85-2.42c1.26.44 2.56.84 3.85 1.2zm37.25-1.2l-.84-2.42c1.26-.43 2.53-.92 3.76-1.44l1 2.35c-1.29.51-2.61 1.05-3.92 1.51zm-45.2-1.53a60.14 60.14 0 0 1-3.82-1.78l1.16-2.28c1.19.61 2.43 1.18 3.66 1.7zm52.93-1.74l-1.16-2.29c1.2-.6 2.39-1.25 3.54-1.93l1.3 2.2c-1.16.7-2.44 1.38-3.68 2.01zm-60.43-2.06c-1.2-.71-2.4-1.48-3.55-2.27l1.5-2.12c1.1.76 2.24 1.49 3.39 2.18zm67.65-2.22l-1.45-2.11c1.1-.76 2.19-1.56 3.25-2.39l1.58 2c-1.08.86-2.23 1.7-3.38 2.49zm-74.58-2.55c-1.12-.9-2.12-1.79-3.21-2.72l1.72-1.9c1 .9 2 1.78 3.08 2.61zm81.17-2.66l-1.71-1.9c1-.89 2-1.84 2.9-2.8l1.84 1.78c-.97.99-1.99 1.98-3.03 2.91zm-87.4-3c-1-1-1.91-2.05-2.82-3.11l2-1.65c.86 1 1.77 2 2.7 3zm93.25-3.05l-1.95-1.66c.86-1 1.7-2.08 2.5-3.16l2.06 1.52c-.83 1.11-1.75 2.24-2.61 3.31zm-98.67-3.36c-.83-1.12-1.63-2.28-2.38-3.46l2.16-1.37a59 59 0 0 0 2.28 3.32zm103.66-3.4l-2.13-1.37c.72-1.13 1.42-2.3 2.06-3.47l2.24 1.23c-.69 1.23-1.41 2.44-2.17 3.62zM55 139.77a65.88 65.88 0 0 1-1.9-3.75l2.32-1.08c.57 1.21 1.18 2.42 1.82 3.6zm-3.54-7.61c-.5-1.3-1-2.64-1.38-4l2.45-.76c.39 1.28.84 2.56 1.32 3.81zm118.81-3.93l-2.44-.76c.39-1.28.75-2.59 1.06-3.89l2.49.59c-.38 1.36-.74 2.72-1.16 4.06zm-121.29-4.1c-.33-1.36-.61-2.74-.84-4.12l2.53-.42c.22 1.32.49 2.65.8 4zm123.24-4.08l-2.52-.42c.22-1.32.4-2.67.53-4l2.55.26c-.19 1.39-.38 2.79-.61 4.16zm-124.63-4.2c-.14-1.39-.23-2.8-.28-4.2l2.56-.08c0 1.34.13 2.69.26 4zM173 111.69l-2.56-.08v-4.2l2.56-.09v4.37zm-123.2-4.16l-2.56-.08c0-1.4.14-2.81.28-4.19l2.55.25c-.07 1.33-.21 2.68-.26 4.02zm120.37-4.11c-.14-1.34-.32-2.68-.54-4l2.52-.43c.23 1.38.42 2.78.56 4.17zM50.61 99.51l-2.53-.42c.23-1.37.51-2.76.84-4.12l2.49.59c-.31 1.3-.58 2.63-.8 3.95zm118.22-4c-.31-1.3-.66-2.61-1.06-3.89l2.44-.76c.42 1.34.79 2.7 1.11 4.06zM52.47 91.67L50 90.91c.42-1.33.88-2.67 1.38-4l2.39.92c-.46 1.28-.9 2.56-1.3 3.84zm114-3.89c-.48-1.25-1-2.5-1.57-3.71l2.29-1.07c.58 1.26 1.14 2.56 1.64 3.86zm-111.1-3.64l-2.32-1.08a65.88 65.88 0 0 1 1.9-3.75l2.24 1.23c-.64 1.18-1.26 2.39-1.82 3.6zM163 80.48c-.64-1.17-1.33-2.34-2.06-3.46l2.16-1.39a73.02 73.02 0 0 1 2.15 3.61zM59.25 77.07l-2.16-1.38a64.3 64.3 0 0 1 2.39-3.46l2.06 1.52c-.8 1.07-1.54 2.19-2.29 3.32zm99.45-3.37a58.94 58.94 0 0 0-2.51-3.16l2-1.66c.9 1.07 1.78 2.18 2.61 3.3zM64 70.58l-2-1.65c.9-1.07 1.85-2.12 2.82-3.12l1.84 1.78c-.85.96-1.76 1.97-2.66 2.99zm5.6-5.8l-1.72-1.89C69 62 70 61 71.13 60.17l1.59 2a64.26 64.26 0 0 0-3.08 2.61zm77.86-2.63c-1.05-.83-2.14-1.64-3.24-2.4l1.44-2.11c1.16.79 2.3 1.63 3.39 2.5zM76 59.78l-1.45-2.1c1.15-.8 2.34-1.56 3.54-2.27l1.3 2.2c-1.19.68-2.33 1.39-3.39 2.17zm64.89-2.2c-1.15-.68-2.34-1.33-3.53-1.94l1.15-2.28c1.25.63 2.49 1.31 3.69 2zm-58-1.91l-1.15-2.28c1.24-.63 2.52-1.23 3.8-1.77l1 2.35c-1.24.53-2.47 1.1-3.66 1.7zm50.78-1.73c-1.24-.52-2.5-1-3.77-1.45l.84-2.42c1.32.46 2.64 1 3.93 1.51zM90.3 52.52l-.85-2.42c1.32-.45 2.67-.87 4-1.24l.68 2.47c-1.28.35-2.57.75-3.83 1.19zM126 51.3c-1.29-.35-2.61-.66-3.92-.93l.5-2.51c1.37.28 2.75.6 4.09 1zm-28-.91l-.51-2.51c1.37-.27 2.76-.51 4.14-.69l.34 2.54c-1.25.17-2.59.4-3.9.66zm20.06-.68c-1.33-.18-2.68-.31-4-.4l.17-2.55c1.39.09 2.79.23 4.18.41zm-12.07-.39l-.18-2.55c.74-.05 1.48-.09 2.21-.11h2v2.56h-1.92c-.63.02-1.34.06-2.04.1zM85.34 153.61a.72.72 0 0 1-.29-.06.82.82 0 0 1-.25-.16.71.71 0 0 1-.16-.26.72.72 0 0 1-.06-.29.76.76 0 0 1 0-.15.58.58 0 0 1 0-.14.59.59 0 0 1 .06-.14l.1-.12.12-.09.13-.07h.14a.84.84 0 0 1 .7.21l.09.12a.83.83 0 0 1 .07.13.88.88 0 0 1 0 .15.76.76 0 0 1 0 .15.93.93 0 0 1 0 .29.92.92 0 0 1-.17.25.76.76 0 0 1-.48.18zm-3.05-1.73a.76.76 0 0 1-.22-1.07.77.77 0 0 1 1.06-.22.77.77 0 0 1 .22 1.06.76.76 0 0 1-.64.35.76.76 0 0 1-.42-.12zm-2.57-1.8a.77.77 0 0 1-.16-1.07.76.76 0 0 1 1.07-.16.77.77 0 0 1 .16 1.07.74.74 0 0 1-.62.31.74.74 0 0 1-.45-.15zm-2.46-2a.76.76 0 0 1-.09-1.08.76.76 0 0 1 1.08-.1.78.78 0 0 1 .09 1.09.76.76 0 0 1-.58.27.79.79 0 0 1-.5-.13zM74.93 146a.76.76 0 0 1 0-1.09.77.77 0 0 1 1.09 0A.77.77 0 0 1 76 146a.77.77 0 0 1-.56.24.77.77 0 0 1-.51-.24zm-2.2-2.24a.78.78 0 0 1 0-1.09.75.75 0 0 1 1.08.05.76.76 0 0 1 0 1.08.72.72 0 0 1-.52.2.8.8 0 0 1-.56-.21zm-2-2.38a.78.78 0 0 1 .12-1.08.78.78 0 0 1 1.08.11.77.77 0 0 1-.12 1.08.74.74 0 0 1-.48.18.79.79 0 0 1-.65-.26zm-1.9-2.49a.78.78 0 0 1 .18-1.07.76.76 0 0 1 .99.18.77.77 0 0 1-.18 1.08.72.72 0 0 1-.44.14.77.77 0 0 1-.6-.3zM67 136.31a.75.75 0 0 1 .25-1.05.75.75 0 0 1 1 .24.76.76 0 0 1-.24 1.06.76.76 0 0 1-.4.11.75.75 0 0 1-.61-.36zm-1.58-2.71a.77.77 0 0 1 .31-1 .77.77 0 0 1 1 .31.76.76 0 0 1-.31 1 .68.68 0 0 1-.36.1.78.78 0 0 1-.6-.41zm-1.41-2.8a.76.76 0 0 1 .38-1 .77.77 0 0 1 1 .37.77.77 0 0 1-.38 1 .71.71 0 0 1-.32.07.77.77 0 0 1-.64-.44zm-1.23-2.88a.77.77 0 0 1 .44-1 .76.76 0 0 1 1 .44.77.77 0 0 1-.43 1 .75.75 0 0 1-.29.06.78.78 0 0 1-.68-.5zm-1-3a.78.78 0 0 1 .49-1 .78.78 0 0 1 1 .5.77.77 0 0 1-.5 1 .85.85 0 0 1-.23 0 .76.76 0 0 1-.77-.42zm-.87-3a.78.78 0 0 1 .56-.94.77.77 0 0 1 .93.56.76.76 0 0 1-.56.93.57.57 0 0 1-.18 0 .77.77 0 0 1-.76-.47zm-.68-3.06a.77.77 0 0 1 .62-.9.76.76 0 0 1 .89.61.77.77 0 0 1-.61.9H61a.78.78 0 0 1-.78-.58zm-.49-3.1a.77.77 0 0 1 .67-.86.78.78 0 0 1 .86.67.76.76 0 0 1-.67.85h-.1a.77.77 0 0 1-.77-.63zm-.29-3.12a.78.78 0 0 1 .72-.82.78.78 0 0 1 .81.72.77.77 0 0 1-.72.82.77.77 0 0 1-.82-.69zm.66-2.36a.72.72 0 0 1-.54-.22.74.74 0 0 1-.23-.54.77.77 0 0 1 0-.15.65.65 0 0 1 .11-.28l.1-.12.11-.09a.61.61 0 0 1 .14-.07h.14a.77.77 0 0 1 .69.21l.1.12a.75.75 0 0 1 .06.13.44.44 0 0 1 0 .15.77.77 0 0 1 0 .15.76.76 0 0 1-.23.54.75.75 0 0 1-.45.17zm50.05 41.33a42.08 42.08 0 1 1 36-63.85V89l2.43 2.42-.37.36-2.57-2.57V88a41.57 41.57 0 1 0 .06 43.05v-.07l3.93-1.88.22.46-3.79 1.82a41.81 41.81 0 0 1-35.91 20.23zm27.38-3.24l-.3-.42a46.91 46.91 0 0 0 12.44-13l.43.27a47.38 47.38 0 0 1-12.57 13.15z"/><path class="cls-4" d="M110.16 157.06a47.59 47.59 0 0 1-47.55-47.5 49.21 49.21 0 0 1 .61-7.68l.51.08a48.19 48.19 0 0 0-.61 7.6 47 47 0 0 0 63.39 44.06l.17.48a47.32 47.32 0 0 1-16.52 2.96zM170.24 96h-11.68l-8.94-9v-3a47 47 0 0 0-83.48 9l-.48-.18a47.54 47.54 0 0 1 84.44-9v3.07l8.64 8.64h11.47z"/><path class="cls-4" d="M171.68 106.46H144l-8.41-8.39a27.82 27.82 0 0 0-21.32-16.17l.08-.51a28.32 28.32 0 0 1 21.69 16.43l8.17 8.13h27.45z"/><path class="cls-4" d="M171.53 104.37h-25.46L137.66 96a30.7 30.7 0 0 0-40.45-14.28l-.21-.46a31.18 31.18 0 0 1 41.1 14.51l8.18 8.1h25.25zM97 137.83a29.33 29.33 0 0 1-3.65-2l.27-.43a29.84 29.84 0 0 0 3.59 2zm13.15 2.88a31.31 31.31 0 0 1-9.62-1.51l.16-.48a30.87 30.87 0 0 0 9.46 1.48 30.5 30.5 0 0 0 27.53-17.2l.46.22a31 31 0 0 1-27.99 17.49z"/><path class="cls-4" d="M110.15 143.43a33.9 33.9 0 1 1 30-49.69l8.17 8.08h23v.51h-23.23l-8.4-8.33a33.38 33.38 0 1 0 0 31l.45.24a33.82 33.82 0 0 1-29.99 18.19z"/><path class="cls-4" d="M81.38 132.22a36.3 36.3 0 0 1-7.87-22.66 36.62 36.62 0 0 1 68.62-17.83l8.19 8.18h20.75v.51h-21L141.7 92A36.11 36.11 0 0 0 74 109.56a35.76 35.76 0 0 0 7.76 22.34zm28.77 13.94a36.43 36.43 0 0 1-21.1-6.67l.3-.42a36.15 36.15 0 0 0 31.56 4.93l.16.49a36.55 36.55 0 0 1-10.92 1.67zm16.35-3.85l-.23-.46A36.11 36.11 0 0 0 141.72 127l.45.25a36.66 36.66 0 0 1-15.67 15.06zm.78 23.54l-.15-.49a58.7 58.7 0 0 0 30.67-22.19v-7.67l4.33-4.33h5.64v.52h-5.43l-4 4v7.68a59.19 59.19 0 0 1-31.06 22.48z"/><path class="cls-4" d="M110.17 168.38a58.85 58.85 0 1 1 48.06-92.76l.05.07v7.56l4 4h5.35v.51h-5.53l-4.33-4.33v-7.58a58.34 58.34 0 1 0-47.6 92 60.26 60.26 0 0 0 6.17-.32v.51a61.24 61.24 0 0 1-6.17.34z"/><path class="cls-4" d="M110.16 148.88a39.35 39.35 0 0 1-16.47-75.1l.21.47A38.84 38.84 0 1 0 143.72 129l3.71-7.74h23.17v.51h-22.84l-3.58 7.47a39.51 39.51 0 0 1-34.02 19.64zm38.73-53.46l-5.17-5.17v-.28a39 39 0 0 0-33.61-19.27 40.31 40.31 0 0 0-4.12.22l-.06-.51a38.88 38.88 0 0 1 4.18-.22 39.5 39.5 0 0 1 34 19.57v.25l5.05 5z"/><path class="cls-4" d="M168.41 89.64H161l-5.36-5.35V78a55.42 55.42 0 0 0-83-9.24l-.35-.38a55.93 55.93 0 0 1 83.83 9.39v6.36l5.05 5h7.17zm-58.25 75.83a56 56 0 0 1-49.64-81.79l.46.24a55.42 55.42 0 0 0 94.73 57.15v-6.4l5.36-5.36h7.38v.51h-7.17l-5.05 5.06v6.35l-.05.07a56 56 0 0 1-46.02 24.17z"/><path class="cls-4" d="M110.16 162.4a53.19 53.19 0 0 1-11.48-1.24l.11-.5a52.45 52.45 0 0 0 54.71-21.79V134l6.89-6.9h8.77v.51h-8.56l-6.59 6.6v4.85a52.84 52.84 0 0 1-43.85 23.34zm-21.59-4.58A52.88 52.88 0 0 1 110.1 56.67a52.39 52.39 0 0 1 22.64 5.07l-.21.46a52.37 52.37 0 1 0-43.75 95.15zm80.55-65.94h-8.75l-6.9-6.88v-4.85a52.63 52.63 0 0 0-10.05-11l.33-.4a53.46 53.46 0 0 1 10.19 11.2v4.86l6.6 6.59h8.54z"/><path class="cls-4" d="M110.16 159.78a50.25 50.25 0 1 1 41.89-78v3.86l7.62 7.62h10v.51H159.5l-7.92-7.91V82a49.74 49.74 0 1 0 0 54.94v-3.91l7.91-7.92h10.21v.51h-10l-7.61 7.62v3.92a50.17 50.17 0 0 1-41.93 22.62z"/><path class="cls-4" d="M138.14 123.25l-.46-.23 4.25-8.42 29.6-.02v.51l-29.29.02-4.1 8.14z"/><path class="cls-4" d="M140.16 125.27l-.46-.23 4.25-8.42 27.38-.02v.51l-27.07.02-4.1 8.14z"/><path class="cls-4" d="M142.18 127.27l-.46-.22 3.73-7.91 25.56-.02v.51l-25.23.02-3.6 7.62z"/><path class="cls-4" d="M150 129.44l-.41-.31 4.55-6.12 16.09-.01v.52l-15.83.01-4.4 5.91z"/><path class="cls-4" d="M110.16 154.33a44.8 44.8 0 1 1 38-68.56v2.3l9.66 9.65h12.94v.51h-13.2l-10-10v-2.3a44.28 44.28 0 1 0 .07 47l1.86-3.81.46.23-1.88 3.83a44.55 44.55 0 0 1-37.91 21.15z"/><path class="cls-4" transform="rotate(-1 150.112 132.524)" d="M149.59 129.29h.51v5.81h-.51z"/><path class="cls-4" d="M166.91 85.44h-4.51l-3.24-3.24v-2.11l.51-.01v1.9l2.94 2.95 4.3-.01v.52zM117 167.73a1 1 0 1 1-1-1 1 1 0 0 1 1 1zm11.48-2.19a1 1 0 1 1-1-1 1 1 0 0 1 1 1zM133.61 62a1 1 0 0 1-1 1 1 1 0 1 1 1-1z"/><circle class="cls-4" cx="81.58" cy="131.93" r="1.02"/><path class="cls-4" d="M90.46 139.54a1 1 0 0 1-2 0 1 1 0 1 1 2 0zm62.06-75.68a1 1 0 1 1-1-1 1 1 0 0 1 1 1z"/><circle class="cls-4" cx="166.01" cy="135.57" r="1.02"/><path class="cls-4" d="M127.37 153.94a1 1 0 1 1-1-1 1 1 0 0 1 1 1zm11.41-5.94a1 1 0 1 1-2.05 0 1 1 0 0 1 2.05 0zm-38.72 13a1 1 0 1 1-1-1 1 1 0 0 1 1 1zm-10.44-3.45a1 1 0 1 1-1-1 1 1 0 0 1 1 1z"/><circle class="cls-4" cx="120.84" cy="144.3" r="1.02"/><circle class="cls-4" cx="126.59" cy="141.99" r="1.02"/><path class="cls-4" d="M164.97 100.16l-8.34 8.35v4.27l8.55 8.54h6.51l-.01-21.16h-6.71z"/><path class="cls-4" d="M168 134.26l-2.35-1a59.85 59.85 0 0 0 4.85-23.75 60.61 60.61 0 0 0-18.4-43.34l1.79-1.84A63.28 63.28 0 0 1 173 109.5a62.36 62.36 0 0 1-5 24.76zm-17.18-4.97a1 1 0 1 1-1-1 1 1 0 0 1 1 1zM149.89 95a1 1 0 1 1-1-1 1 1 0 0 1 1 1zm-.52-3.44a1 1 0 1 1-1-1 1 1 0 0 1 1 1zm-38.24-23.84a1 1 0 1 1-1-1 1 1 0 0 1 1 1zm-22.65 3.47a1 1 0 0 1-2 0 1 1 0 1 1 2 0zm-15.19-2.43a1 1 0 1 1-1-1 1 1 0 0 1 1 1zM61.52 84.1a1 1 0 1 1-1-1 1 1 0 0 1 1 1zM144.78 69a1 1 0 1 1-1-1 1 1 0 0 1 1 1zm-50.01 4.74a1 1 0 1 1-1.3-.65 1 1 0 0 1 1.3.65z"/><circle class="cls-4" cx="105.89" cy="70.79" r="1.02"/><path class="cls-4" d="M67 92.61a1 1 0 1 1-1-1 1 1 0 0 1 1 1zm-2.53 9.54a1 1 0 1 1-1-1 1 1 0 0 1 1 1zM161 144.78a66.61 66.61 0 0 0 4.71-8.09 69.43 69.43 0 0 0 3.44-8.71 67.75 67.75 0 0 0 2.07-9.13 69.4 69.4 0 0 0 .7-9.34h2a74.19 74.19 0 0 1-.72 9.64 63.15 63.15 0 0 1-5.69 18.4 70.27 70.27 0 0 1-4.86 8.36zm-82.65 21a67.56 67.56 0 0 0 8.77 4.05 63.84 63.84 0 0 0 18.88 3.93c.8.05 1.61.05 2.41.07h2.42c.81 0 1.62 0 2.42-.07l2.41-.19-.18-2-2.34.18c-.78 0-1.56 0-2.35.08h-2.34c-.78 0-1.57 0-2.34-.08a65.77 65.77 0 0 1-9.29-1.21 65.08 65.08 0 0 1-9-2.6 62.87 62.87 0 0 1-8.5-3.92zM50.63 83.72a64 64 0 0 0-5 18.61 65.14 65.14 0 0 0 .74 19.26l2-.37a63.19 63.19 0 0 1-.71-18.67 62 62 0 0 1 4.84-18zm79.09-35.27a64.81 64.81 0 0 0-38.11-.69l.56 1.91a62.72 62.72 0 0 1 36.92.67zm13.53 118.89l.95-.54.92-.59L147 165l1.78-1.26.89-.63.86-.68 1.71-1.35 1.65-1.43c.27-.24.55-.47.82-.72l.79-.75c.52-.51 1.06-1 1.57-1.51a67.42 67.42 0 0 0 10.56-13.85 66.69 66.69 0 0 0 3.85-7.82l.8-2c.28-.68.48-1.38.72-2.06.5-1.37.87-2.78 1.27-4.18.21-.69.34-1.41.52-2.12s.35-1.41.46-2.13c.25-1.43.54-2.86.69-4.31a70.23 70.23 0 0 0 .58-8.7h-2a68.26 68.26 0 0 1-.56 8.45c-.15 1.4-.43 2.79-.67 4.18-.11.69-.3 1.37-.45 2.06s-.29 1.39-.5 2.06c-.39 1.36-.75 2.72-1.23 4.05-.24.67-.43 1.35-.7 2l-.78 2a62.85 62.85 0 0 1-3.74 7.59 65.22 65.22 0 0 1-10.24 13.43c-.5.5-1 1-1.52 1.47l-.77.73c-.26.24-.53.47-.8.7l-1.6 1.39-1.66 1.31-.83.65-.86.62-1.73 1.23-1.78 1.14-.89.57-.92.52zm-81.77-11.27l.76.79.78.75 1.59 1.51 1.65 1.43c.27.23.54.48.82.71l.86.67c.58.45 1.14.9 1.72 1.34l1.78 1.27c.59.43 1.2.82 1.82 1.21s1.22.79 1.84 1.16a66.47 66.47 0 0 0 16 6.94 68.45 68.45 0 0 0 8.52 1.87l2.16.27 1.09.13 1.08.08 2.18.17h2.18a66.31 66.31 0 0 0 17.3-1.91l-.47-1.93a65 65 0 0 1-16.79 1.86l-2.12-.06-2.11-.16-1.06-.08c-.35 0-.7-.08-1-.13l-2.1-.26a67 67 0 0 1-8.27-1.81 64.52 64.52 0 0 1-15.48-6.73c-.61-.36-1.2-.76-1.79-1.13s-1.2-.76-1.76-1.18l-1.73-1.22-1.67-1.31-.83-.65c-.28-.22-.54-.46-.81-.69l-1.6-1.39-1.53-1.45-.77-.74-.73-.76zM52.87 74l-.59.92-.54.95-1.09 1.89-1 1.94c-.16.33-.34.65-.49 1l-.45 1c-.3.67-.61 1.33-.89 2l-.8 2c-.13.33-.28.67-.4 1l-.35 1c-.23.69-.47 1.37-.69 2.07L45 91.9c-.1.35-.21.7-.3 1l-.24 1.1-.46 2.14-.38 2.15-.19 1.07-.14 1.08-.29 2.17c-.07.72-.12 1.45-.17 2.17s-.12 1.45-.13 2.18a67.41 67.41 0 0 0 1.59 17.34c.17.7.32 1.41.5 2.12l.6 2.1c.1.35.19.7.3 1l.35 1 .71 2.07.8 2c.13.33.26.67.4 1l.45 1c.31.66.6 1.33.91 2l1 1.94 1.76-.92-1-1.89c-.3-.64-.59-1.28-.88-1.93l-.44-1-.39-1-.78-2-.68-2-.34-1c-.11-.33-.2-.68-.29-1l-.58-2c-.18-.68-.33-1.37-.49-2.06A64.68 64.68 0 0 1 44.68 107c0-.71.07-1.41.12-2.12s.1-1.41.17-2.11l.26-2.1.13-1 .19-1 .37-2.09.47-2.06.24-1c.09-.34.19-.68.29-1l.57-2c.22-.67.45-1.34.67-2l.34-1c.12-.33.26-.66.38-1l.78-2c.28-.64.58-1.28.87-1.93l.43-1c.15-.32.32-.63.48-1l1-1.88 1.05-1.84.53-.92.57-.89zm77.66-28l-1-.35c-.35-.11-.7-.2-1.05-.3l-2.1-.59c-.71-.18-1.42-.33-2.13-.5l-1.09-.26c-.36-.08-.72-.14-1.07-.2l-2.15-.39c-.72-.11-1.45-.19-2.17-.28-1.44-.22-2.89-.28-4.34-.4A68.88 68.88 0 0 0 96.06 44 66.86 66.86 0 0 0 65.2 59.44l1.32 1.49a64.86 64.86 0 0 1 29.94-15 67.17 67.17 0 0 1 16.86-1.21c1.4.12 2.81.18 4.21.39.7.1 1.4.17 2.1.28l2.09.37 1 .19 1 .24 2.06.48 2 .58 1 .29 1 .34zm46.15 84.33A75.85 75.85 0 0 0 179 120a77.37 77.37 0 0 0 .78-10.53h-2.74a67.82 67.82 0 0 1-3 20zm-27.12 37a69.76 69.76 0 0 0 8.19-6.65c.63-.62 1.29-1.2 1.89-1.85l1.82-1.91c1.16-1.32 2.34-2.63 3.4-4l-2.16-1.69c-1 1.35-2.15 2.61-3.26 3.88l-1.75 1.84c-.58.62-1.22 1.18-1.82 1.77A65.29 65.29 0 0 1 148 165zm-44.14 12.38c.44 0 .88.05 1.32.06h3.95l2.64-.07 2.63-.21c.88 0 1.75-.19 2.63-.29s1.75-.21 2.61-.38l2.6-.47 2.58-.59-.66-2.67-2.47.58-2.5.45c-.83.16-1.67.25-2.51.36s-1.68.24-2.52.29l-2.53.19-2.54.07h-3.8c-.43 0-.85 0-1.27-.06zM63 162.18a67.64 67.64 0 0 0 8.41 6.38l1.11.71c.37.24.74.47 1.13.69l2.35 1.31c1.56.81 3.12 1.64 4.74 2.34l1.12-2.5c-1.55-.67-3-1.47-4.55-2.25l-2.2-1.26c-.37-.2-.73-.43-1.09-.66l-1.06-.68a66.13 66.13 0 0 1-8.09-6.13zm-22.58-39.9l.24 1.3c.08.44.19.86.29 1.29.2.86.38 1.72.61 2.57l.72 2.55c.24.84.55 1.67.82 2.51a68 68 0 0 0 4.2 9.68l2.42-1.27a65.58 65.58 0 0 1-4-9.31c-.26-.8-.56-1.6-.79-2.41l-.69-2.44c-.22-.82-.39-1.65-.59-2.47-.09-.42-.2-.83-.28-1.24l-.22-1.25zM47.3 77a68.18 68.18 0 0 0-4.18 9.7c-.27.84-.58 1.66-.82 2.51l-.72 2.54c-.23.85-.41 1.71-.61 2.57-.1.43-.2.86-.29 1.29l-.23 1.3 2.69.49.23-1.25c.08-.41.18-.82.28-1.24.19-.82.36-1.65.58-2.47l.69-2.44c.23-.81.53-1.61.79-2.41a64.4 64.4 0 0 1 4-9.31zm33.35-31.5c-1.62.69-3.17 1.53-4.74 2.34l-2.29 1.31-.57.34-.55.35-1.11.72A66.8 66.8 0 0 0 63 56.94L64.8 59a65.11 65.11 0 0 1 8.08-6.14l1.06-.68.54-.34.55-.32 2.2-1.27c1.5-.77 3-1.58 4.55-2.25zm45.65-4.2l-2.57-.59-2.6-.47c-.87-.17-1.74-.26-2.61-.38s-1.75-.24-2.63-.29l-2.63-.2-2.64-.07h-3.96c-.44 0-.88 0-1.31.06l.16 2.74a10.63 10.63 0 0 1 1.26-.06h3.81l2.54.07 2.53.19c.84.05 1.68.18 2.52.28s1.68.2 2.51.36l2.5.45 2.47.57zm38.51 24.87c-1.06-1.4-2.24-2.71-3.4-4l-1.82-1.91c-.6-.65-1.27-1.23-1.89-1.84a69.58 69.58 0 0 0-8.2-6.64L147.94 54a67 67 0 0 1 7.88 6.38c.6.59 1.24 1.15 1.82 1.77l1.75 1.85c1.11 1.27 2.25 2.53 3.27 3.88zm15 43.33A78.74 78.74 0 0 0 179 99a75.67 75.67 0 0 0-2.36-10.3l-2.64.8a72.52 72.52 0 0 1 2.27 9.88 76.21 76.21 0 0 1 .76 10.12z"/><path class="cls-4" d="M109.57 60.53a51.13 51.13 0 1 0 51.21 51.22 51.41 51.41 0 0 0-51.21-51.22zm-.33 89.73a37.57 37.57 0 0 1-13.89-2.73l.14-36.31a14.3 14.3 0 0 1 14.43-14 14 14 0 0 1 11.37 6 6.23 6.23 0 0 0 .67 1v.07a6.58 6.58 0 0 0 11.66-4.15 6.49 6.49 0 0 0-1.43-4.1c-5-7.15-12.88-12.13-22.27-12.14a27.71 27.71 0 0 0-27.68 25.57l-.03 1.53-.1 27.25a36.91 36.91 0 0 1-11.51-26.66 38.8 38.8 0 1 1 38.64 38.67z"/><path class="cls-4" d="M181.28 139.68a77.55 77.55 0 0 0 6-29.48h2.69v-.39a80.51 80.51 0 0 0-3.44-23.32l-2.59.75A77.16 77.16 0 0 0 168 58.7l2-1.79a81 81 0 0 0-18.26-15.45l-1.43 2.32a77.49 77.49 0 0 0-29.86-10.71l.42-2.75a80.23 80.23 0 0 0-23.93.2l.41 2.79a77.21 77.21 0 0 0-29.1 11l-1.5-2.46a80.72 80.72 0 0 0-18.11 15.72l2.17 1.93A76.9 76.9 0 0 0 36 85.9l-2.81-1a80.63 80.63 0 0 0-3.93 23.68l3 .08a77.61 77.61 0 0 0 5.25 29.22L34.74 139a80.37 80.37 0 0 0 11.94 20.78l2.32-1.85c1 1.26 2 2.51 3.14 3.72a77.21 77.21 0 0 0 19.69 15.78l-1.4 2.57A79.73 79.73 0 0 0 93 188.45l.58-2.85a77.73 77.73 0 0 0 29.67.54l.55 2.8a79.43 79.43 0 0 0 22.7-7.68l-1.33-2.47a77.38 77.38 0 0 0 16.47-11.36 78.91 78.91 0 0 0 7.63-7.91l2.14 1.72a80.3 80.3 0 0 0 12.45-20.55zm-23.07 23.64a72.68 72.68 0 1 1 5.42-102.64 72.69 72.69 0 0 1-5.42 102.64z"/><path class="cls-4" d="M163.65 23.75l-1.5-1c-.5-.31-1-.6-1.54-.89-1-.59-2-1.2-3.08-1.76-2.12-1.08-4.2-2.2-6.39-3.13s-4.37-1.83-6.57-2.71c-1.11-.4-2.24-.77-3.36-1.15-.56-.18-1.12-.39-1.69-.56l-1.71-.48a96.71 96.71 0 0 0-13.89-3l-3.52-.45c-1.18-.12-2.36-.19-3.55-.29l-1.77-.13h-1.77l-3.56-.09V5.93l3.63.09c.61 0 1.21 0 1.82.05l1.81.14c1.2.1 2.41.16 3.62.29l3.6.46a99.52 99.52 0 0 1 14.19 3l1.75.5c.58.17 1.15.38 1.73.57 1.14.39 2.29.77 3.43 1.17 2.25.9 4.53 1.73 6.72 2.77s4.36 2.1 6.52 3.2c1.06.58 2.1 1.2 3.16 1.8.52.3 1.05.59 1.57.91l1.53 1zM182.36 183c.94-.87 1.79-1.82 2.68-2.74l1.33-1.39c.44-.46.84-1 1.27-1.44.83-1 1.68-1.92 2.49-2.91l2.37-3a111.06 111.06 0 0 0 8.35-12.87 112.51 112.51 0 0 0 6.35-14 110.75 110.75 0 0 0 4.2-14.75 103.79 103.79 0 0 0-43.76-107.18 113.05 113.05 0 0 0-13.33-7.59A102.72 102.72 0 0 0 125 6.24a113.39 113.39 0 0 0-15.29-1.13v.34A114.29 114.29 0 0 1 125 6.57a103.09 103.09 0 0 1 29.18 8.87A112.19 112.19 0 0 1 167.45 23a103.44 103.44 0 0 1 43.62 106.82 112.55 112.55 0 0 1-4.19 14.71 110.93 110.93 0 0 1-6.33 13.91 110.22 110.22 0 0 1-8.32 12.82l-2.36 3c-.81 1-1.66 1.94-2.49 2.91-.42.47-.82 1-1.27 1.43l-1.31 1.4c-.89.91-1.74 1.86-2.68 2.72zM23.63 47.69a107 107 0 0 0-11.06 19.69A104 104 0 0 0 6 89a105.67 105.67 0 0 0 55.38 113.79 105.7 105.7 0 0 0 148.26-59.21l-.33-.11a105.35 105.35 0 0 1-201.86-9.7 106.53 106.53 0 0 1-1.11-44.72 103.22 103.22 0 0 1 6.55-21.54 105.88 105.88 0 0 1 11-19.62zm85.44-43.23l-4.38.11c-1.46.08-2.91.21-4.37.32s-2.9.32-4.36.49l-2.17.28-2.16.39a100.37 100.37 0 0 0-16.94 4.46 107 107 0 0 0-15.94 7.27l-1.9 1.1c-.63.36-1.27.72-1.88 1.12l-3.69 2.38-3.57 2.54c-1.18.86-2.31 1.79-3.46 2.69A105.68 105.68 0 0 0 31.6 39.72l-1.44 1.65c-.47.56-1 1.1-1.41 1.68l-2.7 3.46-2.54 3.57c-.83 1.2-1.59 2.45-2.38 3.68A103.24 103.24 0 0 0 7.92 86.08a104.75 104.75 0 0 0 8 68.38A104.79 104.79 0 0 0 64.68 203a105.55 105.55 0 0 0 16.39 6.2c1.41.4 2.81.82 4.24 1.12l2.13.49c.72.16 1.43.34 2.15.46l4.32.76 4.35.56a111.16 111.16 0 0 0 17.5.47 104.54 104.54 0 0 0 92.56-69.62c.46-1.38 1-2.76 1.38-4.16l1.19-4.22c.35-1.42.66-2.85 1-4.27l.24-1.07.19-1.08.38-2.16a107.35 107.35 0 0 0 1.51-17.45 104.59 104.59 0 0 0-5.76-34.43 106.4 106.4 0 0 0-7.1-16 102.41 102.41 0 0 0-9.72-14.6l-.13.11a102.84 102.84 0 0 1 9.7 14.55 105.69 105.69 0 0 1 7.09 16 104.49 104.49 0 0 1 5.71 34.39 108.09 108.09 0 0 1-1.5 17.42l-.39 2.16-.19 1.08c-.07.35-.16.71-.24 1.06-.33 1.42-.65 2.85-1 4.27l-1.2 4.21c-.41 1.4-.91 2.77-1.37 4.16a104.29 104.29 0 0 1-92.41 69.5 110.93 110.93 0 0 1-17.48-.47l-4.34-.55-4.31-.77c-.72-.11-1.43-.29-2.14-.45l-2.13-.49c-1.43-.3-2.83-.73-4.24-1.12a105.17 105.17 0 0 1-16.36-6.19A104.7 104.7 0 0 1 16 154.39a104.64 104.64 0 0 1-7.91-68.28 103.18 103.18 0 0 1 13.18-32.26c.8-1.23 1.55-2.47 2.38-3.67l2.54-3.57 2.7-3.45c.44-.58.93-1.12 1.4-1.68l1.43-1.65a106.22 106.22 0 0 1 12.64-12.09c1.15-.89 2.28-1.82 3.45-2.68l3.57-2.54 3.68-2.37c.6-.41 1.24-.76 1.88-1.13l1.89-1.09a106.76 106.76 0 0 1 15.92-7.26 99.76 99.76 0 0 1 16.91-4.45l2.16-.39L96 5.55c1.45-.17 2.89-.41 4.34-.49s2.91-.24 4.37-.32l4.37-.11zm83.12 40a108 108 0 0 1 9.64 14.66 105.8 105.8 0 0 1 7 16.09 101.92 101.92 0 0 1 4.23 17 110.21 110.21 0 0 1 1.31 17.49l-.11 4.39-.33 4.38c0 .36-.05.73-.09 1.09l-.14 1.09-.27 2.18c-.1.73-.17 1.46-.29 2.18l-.39 2.16a101.75 101.75 0 0 1-4.49 17 106.79 106.79 0 0 1-7.31 16 101.25 101.25 0 0 1-9.86 14.51A107.58 107.58 0 0 1 179 187.29a102.81 102.81 0 0 1-14.08 10.47 107.44 107.44 0 0 1-15.64 8l-2 .8c-.68.27-1.36.56-2.06.78l-4.22 1.37-4.22 1.2c-.7.21-1.42.37-2.13.53l-2.14.5a104.45 104.45 0 0 1-96.9-28.44 106.22 106.22 0 0 1-20.16-28.58 103.44 103.44 0 0 1-6.21-16.42l-.6-2.11c-.2-.71-.35-1.43-.52-2.14l-.49-2.14-.25-1.11-.2-1c-.25-1.44-.52-2.88-.76-4.33l-.56-4.35a111.59 111.59 0 0 1-.44-17.53l.33-4.38L6.3 94l.14-1.09.19-1.08.37-2.15c.14-.72.25-1.45.41-2.16l.49-2.14a102 102 0 0 1 5.33-16.72 107.51 107.51 0 0 1 8.11-15.57 105 105 0 0 1 53.93-43l2.08-.7c.69-.24 1.38-.48 2.09-.67l4.23-1.2 4.28-1c.71-.18 1.43-.29 2.15-.42l2.16-.39a111.37 111.37 0 0 1 17.48-1.49V4.1a111.75 111.75 0 0 0-17.5 1.49L90.08 6c-.72.13-1.45.25-2.16.43l-4.29 1L79.4 8.6c-.71.19-1.4.43-2.1.67l-2.08.7a105 105 0 0 0-54 43 107.22 107.22 0 0 0-8.11 15.59 102.66 102.66 0 0 0-5.37 16.78l-.49 2.14c-.16.72-.27 1.45-.4 2.17l-.39 2.16-.19 1.09-.14 1.1-.55 4.36-.33 4.39a112 112 0 0 0 .44 17.56l.56 4.36c.24 1.45.51 2.89.77 4.33l.19 1.08.25 1.08.5 2.14c.17.71.31 1.43.51 2.14l.6 2.11a104 104 0 0 0 6.2 16.45 105.26 105.26 0 0 0 48.65 49 105.07 105.07 0 0 0 68.59 8.07l2.15-.49c.71-.17 1.43-.32 2.13-.54l4.23-1.2 4.17-1.41c.7-.22 1.38-.51 2.06-.78l2.05-.81a106.72 106.72 0 0 0 15.66-8 101.72 101.72 0 0 0 14.1-10.49 107.07 107.07 0 0 0 12.16-12.67 101.66 101.66 0 0 0 9.88-14.54 107.26 107.26 0 0 0 7.32-16 101.75 101.75 0 0 0 4.5-17l.38-2.17c.13-.72.2-1.45.3-2.18l.27-2.18.14-1.09c0-.36.06-.73.09-1.09l.33-4.39.11-4.39a110.5 110.5 0 0 0-1.31-17.52A103 103 0 0 0 209 75.16 104.77 104.77 0 0 0 202 59a107.55 107.55 0 0 0-9.66-14.69zm20.39 58.87l-.28-3.62c-.05-.6-.07-1.2-.16-1.8l-.23-1.81c-.16-1.2-.27-2.4-.49-3.59l-.64-3.58-.16-.89-.2-.89-.42-1.77c-.28-1.18-.53-2.36-.88-3.52l-1-3.5c-.37-1.15-.77-2.29-1.15-3.44-.2-.57-.38-1.15-.6-1.72l-.66-1.69c-.46-1.12-.87-2.26-1.37-3.36l-1.5-3.31c-.24-.56-.52-1.09-.79-1.63l-.83-1.62-.82-1.59c-.28-.54-.6-1.06-.9-1.58-.6-1-1.2-2.11-1.82-3.15-1.31-2-2.58-4.1-4-6l-1.79 1.27c1.41 1.91 2.65 3.93 3.94 5.92.6 1 1.18 2.05 1.78 3.08.29.51.6 1 .87 1.54l.81 1.58.82 1.58c.27.53.54 1.06.77 1.6l1.45 3.16c.49 1.08.89 2.2 1.34 3.29l.65 1.66c.21.55.38 1.12.58 1.68.38 1.12.77 2.24 1.13 3.36l1 3.42c.35 1.14.59 2.3.87 3.45l.4 1.73.2.87.15.87.63 3.5c.21 1.17.32 2.35.48 3.52l.23 1.77c.08.58.1 1.18.15 1.77l.27 3.54zm-38.77 86.08l1.43-1.12 1.38-1.18c.9-.8 1.84-1.58 2.73-2.4l2.62-2.5.66-.63.63-.66 1.25-1.31c.84-.88 1.68-1.75 2.45-2.68l2.37-2.75c1.49-1.91 3-3.78 4.4-5.78s2.7-4 4-6.05c.62-1 1.21-2.1 1.82-3.15.3-.53.61-1 .89-1.58l.83-1.62.83-1.61c.28-.54.55-1.08.79-1.64l1.5-3.31c.5-1.1.9-2.24 1.36-3.36l.66-1.69c.22-.57.4-1.15.59-1.72l-2.07-.72c-.2.56-.37 1.12-.58 1.68l-.65 1.65c-.45 1.1-.84 2.22-1.33 3.29l-1.47 3.24c-.23.55-.5 1.08-.77 1.6l-.81 1.58-.81 1.59c-.28.52-.59 1-.88 1.54-.59 1-1.17 2.06-1.78 3.08-1.28 2-2.51 4-3.93 5.92s-2.84 3.79-4.29 5.66l-2.33 2.69c-.75.92-1.58 1.77-2.4 2.62l-1.22 1.29-.62.64-.64.62-2.57 2.45c-.87.81-1.78 1.56-2.67 2.34l-1.35 1.16-1.4 1.1zM12.64 142.78c.2.57.38 1.15.6 1.71l.66 1.69c.46 1.13.87 2.27 1.37 3.37l1.5 3.31c.24.56.52 1.09.79 1.63l.83 1.62.83 1.61c.28.54.6 1.06.9 1.58.6 1 1.2 2.11 1.82 3.15 1.31 2 2.58 4.1 4 6s2.91 3.87 4.4 5.78l2.39 2.77c.78.93 1.62 1.8 2.46 2.67l1.26 1.33.62.66.66.63 2.63 2.5c.89.82 1.82 1.59 2.73 2.39l1.38 1.19 1.43 1.12 1.37-1.73-1.4-1.09-1.35-1.16c-.89-.78-1.8-1.54-2.68-2.34l-2.57-2.45-.64-.62-.62-.64-1.22-1.28c-.82-.86-1.65-1.71-2.41-2.62l-2.32-2.69c-1.46-1.87-3-3.69-4.31-5.65s-2.65-3.93-3.94-5.92c-.6-1-1.18-2.05-1.78-3.08-.29-.51-.6-1-.87-1.54l-.81-1.58-.82-1.59c-.27-.52-.54-1-.78-1.59l-1.46-3.24c-.49-1.08-.89-2.2-1.34-3.29l-.65-1.66c-.21-.55-.38-1.12-.58-1.68zM25.89 49.3c-1.44 2-2.7 4-4 6.05-.62 1-1.21 2.1-1.82 3.15-.3.52-.61 1-.89 1.58l-.83 1.62-.83 1.61c-.28.54-.55 1.08-.79 1.63l-1.5 3.32c-.5 1.1-.9 2.24-1.36 3.36l-.66 1.69c-.22.57-.4 1.15-.59 1.72-.39 1.15-.79 2.29-1.16 3.45l-1 3.49c-.35 1.16-.6 2.35-.87 3.53l-.41 1.77-.2.88-.17.85-.63 3.58c-.22 1.19-.32 2.4-.49 3.6L7.46 98c-.08.6-.1 1.21-.15 1.81L7 103.45l2.19.11.31-3.56c.05-.59.07-1.18.15-1.77l.22-1.76c.17-1.18.27-2.36.48-3.53l.65-3.47.16-.88.2-.87.4-1.73c.27-1.15.51-2.31.86-3.45l1-3.42c.37-1.12.76-2.24 1.13-3.37.2-.56.37-1.12.58-1.68l.65-1.65c.45-1.1.84-2.22 1.33-3.3l1.47-3.24c.23-.54.5-1.07.77-1.59l.81-1.59.81-1.58c.28-.52.59-1 .88-1.55.59-1 1.17-2.06 1.78-3.07 1.28-2 2.51-4 3.93-5.92zm83.86-43.37l-3.63.07c-.6 0-1.21 0-1.81.06l-1.81.14c-1.21.1-2.42.17-3.62.29l-3.6.51a99.74 99.74 0 0 0-14.2 3l-1.74.49c-.58.18-1.15.39-1.73.58-1.14.39-2.29.77-3.43 1.17-2.25.9-4.53 1.74-6.71 2.78S63.1 17.16 61 18.26c-1.07.58-2.11 1.2-3.16 1.8-.52.3-1 .59-1.57.91L54.7 22l1.18 1.86 1.49-1c.5-.31 1-.6 1.54-.9 1-.58 2-1.19 3.08-1.76 2.11-1.07 4.2-2.2 6.38-3.13s4.37-1.84 6.57-2.72c1.11-.4 2.24-.77 3.36-1.15.56-.19 1.12-.39 1.69-.57l1.71-.48a98.31 98.31 0 0 1 13.88-3l3.53-.45c1.18-.12 2.36-.19 3.54-.29l1.77-.13c.59 0 1.19 0 1.78-.06l3.55-.09zM81.2 207.71a99.52 99.52 0 0 0 14.19 3l3.6.46c1.21.12 2.42.19 3.62.29l1.81.14c.61 0 1.21 0 1.82.05l3.63.09 3.63-.1h1.81l1.81-.14c1.21-.1 2.42-.17 3.62-.29l3.6-.46a99.74 99.74 0 0 0 14.2-3.06l-.62-2.11a98.31 98.31 0 0 1-13.88 3l-3.53.45c-1.18.12-2.36.19-3.54.29l-1.77.13-1.78.06-3.55.09-3.56-.09h-1.77l-1.77-.14c-1.19-.09-2.37-.16-3.55-.28l-3.52-.45a96.71 96.71 0 0 1-13.89-3z"/><g id="Arrows" class="cls-7"><path class="cls-4" d="M45.05 41.52l.95 3.87 2.88-2.75-3.83-1.12zm-2.83 132.34l3.87-.95-2.76-2.87-1.11 3.82zm132.34 2.84l-.95-3.87-2.88 2.75 3.83 1.12zm2.83-132.34l-3.87.95 2.76 2.87 1.11-3.82zM16.23 107.11l3.41 2.06.08-3.98-3.49 1.92zm91.57 95.58l2.07-3.41-3.99-.09 1.92 3.5zm95.58-91.58l-3.4-2.06-.09 3.98 3.49-1.92zm-91.57-95.58l-2.06 3.41 3.98.08-1.92-3.49z"/></g></g></g></svg>