<svg id="Layer_1" data-name="Layer 1" xmlns="http://www.w3.org/2000/svg" xmlns:xlink="http://www.w3.org/1999/xlink" viewBox="0 0 217.45 61.31"><defs><style>.cls-1{fill:url(#linear-gradient)}.cls-2{fill:url(#linear-gradient-2)}.cls-3{fill:url(#linear-gradient-3)}.cls-4{fill:url(#linear-gradient-4)}.cls-5{fill:url(#linear-gradient-5)}.cls-6{fill:url(#linear-gradient-6)}.cls-7{fill:url(#linear-gradient-7)}.cls-8{fill:url(#linear-gradient-8)}.cls-9{fill:url(#linear-gradient-9)}</style><linearGradient id="linear-gradient" x1="40.71" y1="6.35" x2="40.71" y2="52.24" gradientUnits="userSpaceOnUse"><stop offset="0" stop-color="#ed2224"/><stop offset=".08" stop-color="#ed2527"/><stop offset=".15" stop-color="#ee2f31"/><stop offset=".21" stop-color="#ef4041"/><stop offset=".26" stop-color="#f15759"/><stop offset=".32" stop-color="#f47577"/><stop offset=".37" stop-color="#f79a9b"/><stop offset=".42" stop-color="#fac7c7"/><stop offset=".47" stop-color="#fef8f8"/><stop offset=".47" stop-color="#fff"/><stop offset=".47" stop-color="#595a5c"/><stop offset=".5" stop-color="#4e4f50"/><stop offset=".58" stop-color="#323334"/><stop offset=".66" stop-color="#1c1d1d"/><stop offset=".76" stop-color="#0d0d0d"/><stop offset=".86" stop-color="#040404"/><stop offset="1" stop-color="#010101"/></linearGradient><linearGradient id="linear-gradient-2" x1="96.4" y1="6.38" x2="96.4" y2="52.22" xlink:href="#linear-gradient"/><linearGradient id="linear-gradient-3" x1="153.82" y1="5.8" x2="153.82" y2="52.73" xlink:href="#linear-gradient"/><linearGradient id="linear-gradient-4" x1="210.01" y1="5.5" x2="210.01" y2="52.44" xlink:href="#linear-gradient"/><linearGradient id="linear-gradient-5" x1="38.96" y1="5.91" x2="38.96" y2="51.8" gradientUnits="userSpaceOnUse"><stop offset="0" stop-color="#a3a3a2"/><stop offset=".37" stop-color="#fff"/><stop offset=".48" stop-color="#a3a3a2"/><stop offset=".48" stop-color="#1c1c1c"/><stop offset=".64" stop-color="#fff"/><stop offset=".76" stop-color="#525252"/><stop offset=".82" stop-color="#4c4c4c"/><stop offset=".9" stop-color="#3d3d3d"/><stop offset=".98" stop-color="#232323"/><stop offset="1" stop-color="#1c1c1c"/></linearGradient><linearGradient id="linear-gradient-6" x1="94.65" y1="5.95" x2="94.65" y2="51.78" xlink:href="#linear-gradient-5"/><linearGradient id="linear-gradient-7" x1="152.06" y1="5.37" x2="152.06" y2="52.29" xlink:href="#linear-gradient-5"/><linearGradient id="linear-gradient-8" x1="208.26" y1="5.07" x2="208.26" y2="52.01" xlink:href="#linear-gradient-5"/><linearGradient id="linear-gradient-9" x1="124.79" y1="14.59" x2="124.79" y2="7.62" gradientTransform="matrix(1 0 0 -1 0 74)" gradientUnits="userSpaceOnUse"><stop offset="0" stop-color="#7e7e7e"/><stop offset=".26" stop-color="#9999a4"/><stop offset=".28" stop-color="#a8a9b4"/><stop offset=".31" stop-color="#b8b9c4"/><stop offset=".34" stop-color="#c5c5d0"/><stop offset=".38" stop-color="#ccccd8"/><stop offset=".44" stop-color="#cecfda"/><stop offset=".69" stop-color="#686873"/><stop offset="1" stop-color="#a7a6b1"/></linearGradient></defs><title>RBNC_logo</title><path class="cls-1" d="M40.71 6.35a22.95 22.95 0 1 0 22.93 23 23 23 0 0 0-22.93-23zm0 42.13a19 19 0 0 1-7.2-1.48h-.17V29.52a7.37 7.37 0 0 1 1.15-3.82 7.93 7.93 0 0 1 10.92-2 2.09 2.09 0 0 0 2.84-.7 2.18 2.18 0 0 0-.7-2.89 11.48 11.48 0 0 0-8.66-1.88 12.16 12.16 0 0 0-7.61 4.84l-.28.33a11.85 11.85 0 0 0-1.8 6.07v15.08l-.45-.36a19.06 19.06 0 1 1 11.94 4.29z" transform="translate(-16.02 -5.07)"/><path class="cls-2" d="M96.39 6.38a22.92 22.92 0 1 0 22.93 22.92A22.95 22.95 0 0 0 96.39 6.38zm0 42.07A19.17 19.17 0 0 1 77.23 29.3a18.81 18.81 0 0 1 7.09-14.43l.45-.36v15.73a11.88 11.88 0 0 0 23.72-.87 12.14 12.14 0 0 0-3.63-8.64 11.34 11.34 0 0 0-8-3.29h-.2a2.2 2.2 0 0 0-2.23 2 2.12 2.12 0 0 0 2.13 2.15 7.76 7.76 0 1 1-7.76 7.88v-17.7l.2-.07a18.83 18.83 0 0 1 7.37-1.55 19.15 19.15 0 1 1 0 38.3z" transform="translate(-16.02 -5.07)"/><path class="cls-3" d="M153.8 5.8a23.47 23.47 0 1 0 23.48 23.46A23.49 23.49 0 0 0 153.8 5.8zm18.3 30.74h-.19l-18-.06a8.2 8.2 0 0 1-4.12-1.24 7.8 7.8 0 0 1-2.09-10.76 7.93 7.93 0 0 1 10.92-2 2.07 2.07 0 0 0 2.83-.67 2.18 2.18 0 0 0-.7-2.91 11.43 11.43 0 0 0-8.63-1.9 12.11 12.11 0 0 0-7.83 5.13 11.88 11.88 0 0 0 9.87 18.55h15.24l-.34.44A19.25 19.25 0 0 1 153.8 49a19.75 19.75 0 1 1 18.37-12.6z" transform="translate(-16.02 -5.07)"/><path class="cls-4" d="M229.66 16.16a23.45 23.45 0 1 0-39.3 25.61 23.29 23.29 0 0 0 14.82 10.16 22.39 22.39 0 0 0 4.82.51 23.59 23.59 0 0 0 23-18.63 23.24 23.24 0 0 0-3.34-17.65zM229.29 33a19.34 19.34 0 0 1-7.08 11.31l-.45.35V28.14a12 12 0 0 0-3.39-8.63 12.18 12.18 0 0 0-17.12.52l-.1.14a11.61 11.61 0 0 0-3.37 7.08v10.39a2.14 2.14 0 0 0 4.11-.11v-.23c0-.37 0-8.74.06-9.2.5-4.11 4.09-7.57 7.84-7.57a7.64 7.64 0 0 1 7.75 7.54v19.07l-.17.07A19.46 19.46 0 0 1 210 48.7a19.93 19.93 0 0 1-4.06-.43 19.75 19.75 0 0 1-15.23-23.36A19.8 19.8 0 0 1 210 9.26a20.92 20.92 0 0 1 4.05.43A19.7 19.7 0 0 1 229.29 33z" transform="translate(-16.02 -5.07)"/><path class="cls-5" d="M39 5.91a22.95 22.95 0 1 0 22.93 23A23 23 0 0 0 39 5.91zM39 48a19 19 0 0 1-7.2-1.43l-.17-.07V29.08a7.36 7.36 0 0 1 1.15-3.81 7.92 7.92 0 0 1 10.92-2 2.08 2.08 0 0 0 2.84-.68 2.19 2.19 0 0 0-.7-2.9 11.52 11.52 0 0 0-8.66-1.88 12.2 12.2 0 0 0-7.61 4.84l-.24.32A11.75 11.75 0 0 0 27.49 29v15.09l-.49-.33A19.07 19.07 0 1 1 39 48z" transform="translate(-16.02 -5.07)"/><path class="cls-6" d="M94.64 6a22.92 22.92 0 1 0 22.93 22.91A22.94 22.94 0 0 0 94.64 6zm0 42.07a19.18 19.18 0 0 1-19.16-19.21 18.79 18.79 0 0 1 7.09-14.42l.45-.37v15.74a11.88 11.88 0 0 0 23.72-.88 12.11 12.11 0 0 0-3.63-8.63 11.3 11.3 0 0 0-8-3.3H95a2.2 2.2 0 0 0-2.23 2c0 .86.49 1.94 2.13 2.16a7.75 7.75 0 1 1-7.76 7.87v-17.7l.17-.07a18.83 18.83 0 0 1 7.37-1.55 19.16 19.16 0 1 1 0 38.31z" transform="translate(-16.02 -5.07)"/><path class="cls-7" d="M152.05 5.37a23.46 23.46 0 1 0 23.48 23.46 23.48 23.48 0 0 0-23.48-23.46zm18.3 30.73h-.19l-18-.05a8.2 8.2 0 0 1-4.16-1.24 7.79 7.79 0 0 1-2-10.76 7.92 7.92 0 0 1 10.92-2 2.08 2.08 0 0 0 2.83-.67 2.19 2.19 0 0 0-.7-2.92 11.43 11.43 0 0 0-8.63-1.87 12.12 12.12 0 0 0-7.83 5.14 11.88 11.88 0 0 0 9.87 18.54h15.24l-.34.44a19.25 19.25 0 0 1-15.26 7.82 19.75 19.75 0 1 1 18.37-12.6z" transform="translate(-16.02 -5.07)"/><path class="cls-8" d="M227.91 15.72a23.46 23.46 0 1 0-24.48 35.78 22.39 22.39 0 0 0 4.82.51 23.59 23.59 0 0 0 23-18.64 23.26 23.26 0 0 0-3.34-17.65zm-.37 16.87a19.35 19.35 0 0 1-7.08 11.3l-.45.36V27.73a12 12 0 0 0-3.39-8.63 12.2 12.2 0 0 0-17.12.51l-.1.15a11.58 11.58 0 0 0-3.37 7.08v10.42a2.14 2.14 0 0 0 4.11-.11v-.24c0-.37 0-8.74.06-9.2.5-4.1 4.09-7.56 7.84-7.56a7.63 7.63 0 0 1 7.75 7.53v19.03l-.17.07a19.64 19.64 0 0 1-7.45 1.48 19.25 19.25 0 0 1-4.06-.43A19.75 19.75 0 0 1 189 24.48a19.82 19.82 0 0 1 19.25-15.65 20.17 20.17 0 0 1 4.05.43 19.7 19.7 0 0 1 15.24 23.33z" transform="translate(-16.02 -5.07)"/><path class="cls-9" d="M22.32 62.05a2.43 2.43 0 0 1-1.2 2.18l1.39 2h-2l-1-1.67h-1.22v1.67h-1.62v-6.69h3.25a2.38 2.38 0 0 1 2.4 2.51zm-4-1v2h1.4a1 1 0 0 0 0-2zm12.49-1.5V61h-3.56v1.16h2.95v1.4h-2.95v1.15h3.53v1.51h-5.15v-6.69zm9.82 3.35a3.33 3.33 0 0 1-3.55 3.38h-3v-6.74h3a3.24 3.24 0 0 1 3.52 3.34zm-4.91 1.87h1.36A1.8 1.8 0 0 0 39 62.88 1.72 1.72 0 0 0 37.05 61h-1.36zm18.19-.46c0 1.1-.71 2-2.54 2H48v-6.78h2.92c2 0 2.56.76 2.56 1.84a1.72 1.72 0 0 1-.63 1.29 1.77 1.77 0 0 1 1.03 1.63zM52 61.58c0-.45-.3-.67-.92-.67h-1.4v1.4H51c.74 0 1-.2 1-.73zm-.81 2h-1.5v1.31h1.5c.65 0 1-.22 1-.65s-.41-.69-1.04-.69zm7.45 1.2h3.54v1.51H57v-6.75h1.63v5.21zm11.68.45H67l-.45 1h-1.68l2.88-6.72h1.81l2.89 6.72h-1.73zm-.56-1.32l-1-2.51-1.16 2.48zm11.6.74a3.6 3.6 0 0 1-3.14 1.76 3.49 3.49 0 1 1 0-7 3.56 3.56 0 0 1 3.16 1.68L80 61.9a2 2 0 0 0-3.79 1 2 2 0 0 0 3.77 1zm7-2.38l2.81 4H89l-1.84-2.78L86 64.74v1.52h-1.62v-6.72H86v3l2.57-3h2zm16.56 2.38a3.61 3.61 0 0 1-3.15 1.76 3.49 3.49 0 1 1 0-7 3.57 3.57 0 0 1 3.17 1.68l-1.38.81a1.9 1.9 0 0 0-1.79-1 1.92 1.92 0 0 0-2 2 2 2 0 0 0 3.77 1zm9.36-1.73a3.47 3.47 0 1 1-3.47-3.48 3.48 3.48 0 0 1 3.41 3.45zm-5.46 0a2 2 0 1 0 2-2 2 2 0 0 0-2.06 1.97zm15.07 3.36h-1.69l-3.4-4.12v4.12h-1.63v-6.75h1.63l3.4 4.1v-4.1h1.63zm9.4-5.22h-2.38v5.22h-1.64V61h-2.39v-1.5h6.42V61zm8.72 1a2.41 2.41 0 0 1-1.2 2.18l1.39 2h-2l-1-1.67h-1.18v1.67h-1.72v-6.7h3.25a2.38 2.38 0 0 1 2.45 2.51zm-4-1v2h1.39a1 1 0 0 0 1-1 1 1 0 0 0-1-1zm13.64 1.86a3.47 3.47 0 1 1-3.47-3.48 3.48 3.48 0 0 1 3.39 3.45zm-5.46 0a2 2 0 1 0 2-2 2 2 0 0 0-2.08 1.97zm10.13 1.86h3.53v1.51h-5.15v-6.75h1.63v5.21zm17.54 1.5h-1.64l-3.4-4.12v4.12h-1.63v-6.75h1.63l3.4 4.1v-4.1h1.64zm8.53-6.72V61h-3.53v1.16h2.95v1.4h-2.95v1.15h3.53v1.51h-5.15v-6.69zm9.31 1.5h-2.39v5.22h-1.64V61h-2.38v-1.5h6.41V61zm13.79-1.5l-2.52 6.72h-1.66l-1.41-4.38-1.59 4.38h-1.68l-2.24-6.72h1.74l1.4 4.36 1.47-4.39h1.77l1.37 4.34 1.56-4.34zm8.88 3.36a3.47 3.47 0 1 1-3.47-3.48 3.48 3.48 0 0 1 3.39 3.45zm-5.47 0a2 2 0 1 0 2-2 2 2 0 0 0-2.08 1.97zm14.05-.84a2.43 2.43 0 0 1-1.19 2.18l1.38 2h-2l-1-1.67h-1.18v1.67h-1.62v-6.72h3.25a2.38 2.38 0 0 1 2.28 2.51zm-4-1v2h1.4a1 1 0 0 0 0-2zm11.25 1.21l2.81 4h-2.21l-1.8-2.81-1.16 1.26v1.52h-1.63v-6.72h1.63v3l2.57-3h2z" transform="translate(-16.02 -5.07)"/></svg>