<svg id="Layer_1" xmlns="http://www.w3.org/2000/svg" viewBox="0 0 220 220"><style>.st0{fill:url(#SVGID_1_)}.st1{fill:url(#SVGID_2_)}.st2{fill:#4e4e4e}.st3{fill:url(#SVGID_3_)}.st4{fill:url(#SVGID_4_)}.st5{fill:url(#SVGID_5_)}.st6{fill:url(#SVGID_6_)}</style><title>rnd_chip</title><linearGradient id="SVGID_1_" gradientUnits="userSpaceOnUse" x1="110.57" y1="8.31" x2="110.57" y2="209.71" gradientTransform="matrix(1 0 0 -1 0 220)"><stop offset="0" stop-color="#424143"/><stop offset=".07" stop-color="#3d3c3e"/><stop offset=".15" stop-color="#2f2f30"/><stop offset=".24" stop-color="#191819"/><stop offset=".3" stop-color="#010101"/><stop offset=".44" stop-color="#313132"/><stop offset=".54" stop-color="#595a5c"/><stop offset=".78" stop-color="#0f0f10"/><stop offset=".94" stop-color="#424143"/></linearGradient><path class="st0" d="M110.6 211.7h-.9v-5h.9v5zm2.2 0l-.1-5h1l.2 5h-1.1zm-5.1 0h-1l.2-5h1l-.2 5zm8.2-.1l-.3-5 1-.1.3 5-1 .1zm-11.3 0l-1-.1.3-5 1 .1-.3 5zm14.4-.2l-.4-5c.3 0 .7-.1 1-.1l.5 5-1.1.1zm-17.5 0l-1-.1.5-5 1 .1-.5 5zm20.6-.3l-.6-5 1-.1.6 5-1 .1zm-23.7-.1l-1-.1.7-5 1 .1-.7 5zm26.7-.3l-.7-5 1-.1.8 5-1.1.1zm-29.7-.1l-1-.2.8-5 1 .1-.8 5.1zm32.8-.4l-.9-4.9 1-.2.9 4.9-1 .2zm-35.9-.1l-1-.2 1-4.9 1 .2-1 4.9zm38.9-.5l-1-4.9 1-.2 1.1 4.9-1.1.2zm-41.9-.1l-1-.2 1.1-4.9 1 .2-1.1 4.9zm44.9-.6L133 204l1-.2 1.2 4.9-1 .2zm-47.9-.1l-1-.2 1.2-4.9 1 .2-1.2 4.9zm50.9-.6l-1.3-4.9.9-.3 1.4 4.8-1 .4zm-53.9-.2l-1-.3 1.4-4.8 1 .3-1.4 4.8zm56.9-.7l-1.5-4.8.9-.3 1.5 4.8-.9.3zm-59.9-.2l-1-.3 1.6-4.8.9.3-1.5 4.8zm62.8-.8l-1.6-4.8.9-.3 1.7 4.7-1 .4zm-65.7-.2l-1-.4 1.7-4.7.9.3-1.6 4.8zm68.6-.8l-1.8-4.7.9-.4 1.8 4.7-.9.4zm-71.5-.2l-1-.4 1.9-4.7.9.4-1.8 4.7zm74.4-1l-1.9-4.7.9-.4 2 4.6-1 .5zm-77.2-.2l-.9-.4 2-4.6.9.4-2 4.6zm80.1-1l-2.1-4.6.9-.4 2.1 4.6-.9.4zm-83-.2l-.9-.4 2.1-4.6.9.4-2.1 4.6zm85.8-1.1l-2.2-4.5.9-.4 2.2 4.5-.9.4zm-88.5-.2l-.9-.5 2.3-4.5.9.4-2.3 4.6zm91.2-1.2l-2.3-4.5.9-.5 2.4 4.4-1 .6zm-94-.2l-.9-.5 2.4-4.4.8.5-2.3 4.4zm96.8-1.2l-2.5-4.4.9-.5 2.5 4.3-.9.6zm-99.5-.3l-.9-.5 2.5-4.3.8.5-2.4 4.3zm102.1-1.3l-2.6-4.3.8-.5 2.6 4.3-.8.5zM58 196.9l-.9-.5 2.7-4.2.8.5-2.6 4.2zm107.4-1.4l-2.7-4.2c.3-.2.6-.4.8-.5l2.8 4.2-.9.5zm-110-.3l-.9-.6 2.8-4.2.8.5-2.7 4.3zm112.5-1.4l-2.9-4.1.8-.6 2.9 4.1-.8.6zm-115.1-.3l-.8-.6 2.9-4.1.8.6-2.9 4.1zm117.6-1.5l-3-4 .8-.6 3 4-.8.6zm-120.1-.3l-.8-.6 3-4 .8.6-3 4zm122.6-1.6l-3.1-4 .8-.6 3.1 3.9-.8.7zm-125-.2l-.8-.6 3.2-3.9.8.6-3.2 3.9zm127.4-1.7l-3.2-3.8.8-.6 3.3 3.8-.9.6zm-129.8-.3l-.8-.7 3.3-3.8.7.6-3.2 3.9zm132.1-1.7l-3.3-3.8c.2-.2.5-.4.7-.6l3.4 3.7-.8.7zm-134.4-.3l-.8-.7 3.4-3.7.7.6-3.3 3.8zm136.7-1.9l-3.4-3.6.7-.7 3.5 3.6-.8.7zm-139-.3l-.7-.7 3.5-3.6.7.7-3.5 3.6zm141.2-1.8l-3.6-3.5.7-.7 3.6 3.5-.7.7zm-143.4-.4l-.7-.7 3.6-3.5.7.7-3.6 3.5zm145.5-1.9l-3.7-3.4.6-.7 3.7 3.4c-.1.3-.3.5-.6.7zm-147.6-.3l-.7-.8 3.7-3.4.7.7-3.7 3.5zm149.7-2l-3.8-3.3c.2-.2.4-.5.6-.7l3.8 3.3c-.1.3-.4.5-.6.7zM34.5 177l-.7-.8 3.8-3.2c.2.2.4.5.6.7l-3.7 3.3zm153.8-2l-3.9-3.2.6-.8 3.9 3.1-.6.9zm-155.8-.3l-.6-.8 3.9-3.1c.2.3.4.5.6.8l-3.9 3.1zm157.7-2.1l-4-3.1.6-.8 4 3-.6.9zm-159.6-.3l-.6-.8 4-3 .6.8-4 3zm161.5-2.1l-4.1-3 .6-.8 4.1 2.9-.6.9zm-163.3-.4l-.6-.8 4.1-2.9.6.8-4.1 2.9zm165.1-2.2l-4.1-2.8.6-.8 4.2 2.8c-.4.3-.5.6-.7.8zM27 167.2l-.6-.9 4.2-2.8.5.8-4.1 2.9zm168.6-2.1l-4.2-2.7.5-.8 4.2 2.7-.5.8zm-170.3-.4l-.5-.9 4.2-2.6.5.8-4.2 2.7zm171.9-2.3l-4.3-2.6.5-.9 4.3 2.5-.5 1zM23.7 162l-.5-.9 4.4-2.5.5.8-4.4 2.6zm175-2.3l-4.4-2.4.5-.9 4.4 2.4-.5.9zm-176.6-.4c-.2-.3-.3-.6-.5-.9L26 156l.5.9-4.4 2.4zm178-2.3l-4.5-2.3.4-.9 4.5 2.3-.4.9zm-179.4-.4c-.1-.3-.3-.6-.5-.9l4.5-2.2.4.9-4.4 2.2zm180.8-2.3l-4.5-2.2.4-.9 4.6 2.1c-.2.4-.3.7-.5 1zm-182.2-.5l-.4-.9 4.6-2.1.4.9-4.6 2.1zm183.5-2.3l-4.6-2 .4-.9 4.6 2-.4.9zM18.1 151c-.1-.3-.3-.6-.4-.9l4.6-2 .4.9-4.6 2zm186-2.3l-4.6-1.9.4-.9 4.7 1.8c-.3.3-.5.6-.5 1zm-187.2-.6c-.1-.3-.3-.6-.4-1l4.7-1.8.4.9-4.7 1.9zm188.3-2.3l-4.8-1.8.3-.9 4.7 1.7c0 .3-.2.7-.2 1zm-189.4-.6c-.1-.3-.2-.6-.4-1l4.7-1.7.3.9-4.6 1.8zm190.4-2.3l-4.8-1.6.3-.9 4.8 1.6-.3.9zm-191.4-.6l-.3-1 4.8-1.5.3.9-4.8 1.6zm192.3-2.4l-4.8-1.4.3-.9 4.8 1.4-.3.9zm-193.2-.6c-.1-.3-.2-.6-.3-1l4.8-1.3.3.9-4.8 1.4zm194-2.3l-4.9-1.3.2-.9 4.9 1.2-.2 1zM13 136.4c-.1-.3-.2-.7-.2-1l4.9-1.2.2.9-4.9 1.3zm195.7-2.4l-4.9-1.1.2-.9 4.9 1.1c-.1.2-.1.5-.2.9zm-196.4-.6l-.2-1 4.9-1.1.2 1-4.9 1.1zm197-2.4l-4.9-1 .2-1 4.9.9-.2 1.1zm-197.7-.6c-.1-.3-.1-.7-.2-1l4.9-.9c.1.3.1.6.2 1l-4.9.9zm198.3-2.5l-4.9-.8.1-1 5 .8-.2 1zm-198.8-.5c-.1-.3-.1-.7-.2-1l5-.8c0 .3.1.6.1 1l-4.9.8zm199.2-2.5l-5-.7c.1-.3.1-.7.1-1l5 .6c.1.4 0 .7-.1 1.1zm-199.7-.6l-.1-1 5-.6.1 1-5 .6zm200.1-2.5l-5-.5.1-1 5 .5-.1 1zm-200.4-.6c0-.3-.1-.7-.1-1l5-.4.1 1-5 .4zm200.7-2.5l-5-.4.1-1 5 .3-.1 1.1zm-201-.6c0-.3 0-.7-.1-1l5-.3c0 .3 0 .7.1 1l-5 .3zm201.2-2.5l-5-.2v-1l5 .2v1zM9.9 115v-1l5-.2v1l-5 .2zm201.4-2.5l-5-.1v-1h5v1.1zM10 111.9c0-.3.2-.3.2-1.1h5.3v.1c0 .4-.2.7-.2 1H10zm196.3-2.4v-1l5-.1v1l-5 .1zm-191.5-.7l-5-.1v-1l5 .2v.9zm191.4-2.2v-1l5-.3c0 .3 0 .7.1 1l-5.1.3zm-191.3-.7l-5-.2.1-1 5 .3c0 .2-.1.6-.1.9zm191.1-2.2l-.1-1 5-.4.1 1-5 .4zM15.1 103l-5-.4.1-1 5 .5-.1.9zm190.7-2.2l-.1-1 5-.6.1 1-5 .6zm-190.4-.7l-5-.6.1-1 5 .6c0 .3-.1.6-.1 1zm190-2.2c0-.3-.1-.7-.1-1l5-.7.1 1-5 .7zm-189.6-.8l-5-.7.2-1 5 .8-.2.9zM205 94.9l-.2-1 4.9-.9.2 1-4.9.9zm-188.8-.7l-4.9-.9c.1-.3.1-.7.2-1l4.9.9c0 .4-.1.7-.2 1zM204.4 92l-.2-1 4.9-1 .2 1-4.9 1zm-187.6-.6l-4.9-1c.1-.3.1-.7.2-1l4.9 1c-.1.3-.1.6-.2 1zm187-2.2c-.1-.3-.1-.6-.2-.9l4.9-1.2.2 1-4.9 1.1zm-186.4-.7l-4.9-1.2.2-1 4.9 1.2c0 .4-.1.7-.2 1zm185.7-2.2l-.2-1 4.8-1.3.3 1-4.9 1.3zm-184.9-.6l-4.8-1.3.3-1 4.8 1.4-.3.9zm184.1-2.2l-.3-.9 4.8-1.5.3 1-4.8 1.4zM19 82.8l-4.8-1.5c.1-.3.2-.7.3-1l4.8 1.5c-.1.4-.2.7-.3 1zm182.4-2.1l-.3-.9 4.7-1.6c.1.3.2.7.3 1l-4.7 1.5zM19.9 80l-4.8-1.6c.1-.3.2-.7.3-1l4.7 1.7c0 .3-.1.6-.2.9zm180.6-2.1l-.3-.9 4.7-1.8.4 1-4.8 1.7zm-179.6-.6l-4.7-1.8.4-1 4.7 1.8-.4 1zm178.5-2.1c-.1-.3-.2-.6-.4-.9l4.6-1.9.4 1-4.6 1.8zM22 74.6l-4.7-1.9c.1-.3.3-.6.4-1l4.6 2c-.1.3-.2.5-.3.9zm176.3-2.1l-.4-.9 4.6-2.1.4.9-4.6 2.1zm-175.2-.6l-4.6-2 .4-.9 4.6 2.1-.4.8zM197 69.8l-.4-.9 4.5-2.2.4.9-4.5 2.2zm-172.7-.6L19.8 67l.5-.9 4.5 2.2-.5.9zm171.4-2l-.4-.9 4.4-2.3c.2.3.3.6.5.9l-4.5 2.3zm-170.1-.6l-4.4-2.3.5-.9 4.4 2.4c-.1.2-.3.5-.5.8zm168.7-2l-.5-.8 4.4-2.5c.2.3.3.6.5.9l-4.4 2.4zM27 64l-4.4-2.5.5-.9 4.4 2.5-.5.9zm165.8-2c-.2-.3-.3-.6-.5-.8l4.3-2.6c.2.3.4.6.5.9l-4.3 2.5zm-164.3-.5l-4.3-2.6.5-.9 4.2 2.6-.4.9zm162.8-2l-.5-.8L195 56l.6.9-4.3 2.6zM30.1 59l-4.2-2.7.6-.9 4.2 2.8-.6.8zm159.6-2l-.6-.8 4.1-2.9.6.8-4.1 2.9zm-158-.5l-4.1-2.8.6-.8 4.1 2.9-.6.7zM188 54.7l-.6-.8 4-3 .6.8-4 3zm-154.6-.5l-4-3 .6-.8 4 3-.6.8zm152.9-1.9l-.6-.8 3.9-3.1c.2.3.4.5.6.8l-3.9 3.1zm-151.1-.4l-3.9-3.1.6-.8 3.9 3.1-.6.8zM184.4 50l-.6-.8 3.8-3.2.7.8-3.9 3.2zM37 49.6l-3.8-3.2.7-.8 3.8 3.3-.7.7zm145.5-1.8l-.6-.7 3.7-3.3c.2.3.4.5.7.8l-3.8 3.2zm-143.6-.4L35.2 44l.7-.8 3.7 3.4-.7.8zm141.7-1.8l-.7-.7 3.6-3.5.7.8-3.6 3.4zm-139.7-.4l-3.6-3.5.7-.7 3.6 3.5-.7.7zm137.6-1.7l-.7-.7 3.5-3.6.7.7-3.5 3.6zM43 43.1l-3.5-3.6.7-.7 3.5 3.6-.7.7zm133.5-1.7l-.7-.7 3.4-3.7.8.7-3.5 3.7zm-131.4-.3l-3.4-3.7.8-.7 3.4 3.7-.8.7zm129.2-1.6l-.7-.7 3.3-3.8.8.7-3.4 3.8zm-127-.4L44 35.3l.8-.7 3.3 3.8-.8.7zm124.8-1.6l-.8-.6 3.2-3.9.8.7-3.2 3.8zm-122.6-.3l-3.2-3.9.8-.7 3.2 3.9-.8.7zm120.3-1.5l-.8-.6 3.1-4 .8.6-3.1 4zm-118-.4l-3.1-4c.3-.2.5-.4.8-.6l3 4-.7.6zm115.6-1.4l-.8-.6 2.9-4.1.8.6-2.9 4.1zm-113.3-.3l-3-4.1.8-.6 3 4.1-.8.6zm111-1.4l-.8-.5 2.8-4.1.8.6-2.8 4zm-108.6-.3l-2.8-4.1.8-.6 2.8 4.2-.8.5zm106.1-1.3l-.8-.5 2.7-4.2.9.5-2.8 4.2zM59 30.2L56.2 26l.9-.5 2.7 4.2-.8.5zM160.1 29l-.8-.5 2.6-4.3.9.5-2.7 4.3zm-98.7-.3l-2.6-4.3.9-.5 2.5 4.3-.8.5zm96.2-1.2l-.8-.5 2.4-4.4.9.5-2.5 4.4zM64 27.2l-2.4-4.4.9-.5 2.4 4.4-.9.5zm91.1-1.1l-.9-.5 2.3-4.5.9.5-2.3 4.5zm-88.5-.3l-2.3-4.5.9-.5 2.3 4.5-.9.5zm85.9-1l-.9-.4 2.1-4.5.9.5-2.1 4.4zm-83.3-.2L67.1 20l.9-.4 2.1 4.5-.9.5zm80.6-1l-.9-.4 2-4.6.9.4-2 4.6zm-77.9-.3l-2-4.6 1-.4 2 4.6-1 .4zm75.2-.9l-.9-.4 1.9-4.7 1 .4-2 4.7zm-72.5-.3l-1.9-4.6 1-.4 1.8 4.7-.9.3zm69.8-.8l-.9-.3 1.7-4.7 1 .4-1.8 4.6zm-67-.2l-1.8-4.7 1-.4 1.7 4.7-.9.4zm64.3-.8l-1-.3 1.6-4.8 1 .3-1.6 4.8zm-61.6-.2l-1.6-4.8 1-.3 1.5 4.8-.9.3zm58.7-.7l-.9-.3 1.4-4.8 1 .3-1.5 4.8zm-55.9-.2l-1.4-4.8 1-.3 1.4 4.8-1 .3zm53.1-.6l-.9-.2 1.3-4.9c.3.1.7.2 1 .3l-1.4 4.8zm-50.3-.2l-1.3-4.9 1-.3 1.2 4.9-.9.3zm47.5-.5l-1-.2 1.1-4.9 1 .2-1.1 4.9zm-44.6-.2l-1.2-4.9 1-.2 1.1 4.9-.9.2zm41.7-.5l-1-.2 1-4.9 1 .2-1 4.9zm-38.8-.1l-1-4.9 1-.2 1 4.9-1 .2zm36-.4l-1-.2.8-4.9 1 .2-.8 4.9zm-33.1-.2l-.8-4.9 1-.2.8 5-1 .1zm30.2-.3l-1-.1.7-5 1 .1-.7 5zm-27.3-.1l-.7-5 1-.1.6 5-.9.1zm24.4-.3l-1-.1.5-5 1 .1-.5 5zm-21.5-.1l-.5-5 1-.1.5 5-1 .1zm18.5-.2l-1-.1.4-5 1 .1-.4 5zm-15.6 0l-.4-5 1-.1.3 5-.9.1zm12.7-.1l-1-.1.2-5 1 .1-.2 5zm-9.8 0l-.2-5h1l.2 5h-1zm6.9-.1h-1l.1-5h1l-.1 5zm-3.9 0l-.1-5h1v5h-.9z"/><linearGradient id="SVGID_2_" gradientUnits="userSpaceOnUse" x1="110.42" y1="29.07" x2="110.42" y2="189" gradientTransform="matrix(1 0 0 -1 0 220)"><stop offset="0" stop-color="#424143"/><stop offset=".07" stop-color="#3d3c3e"/><stop offset=".15" stop-color="#2f2f30"/><stop offset=".24" stop-color="#191819"/><stop offset=".3" stop-color="#010101"/><stop offset=".44" stop-color="#313132"/><stop offset=".54" stop-color="#595a5c"/><stop offset=".78" stop-color="#0f0f10"/><stop offset=".94" stop-color="#424143"/></linearGradient><path class="st1" d="M110 190.9h-1l.1-5h1l-.1 5zm2.1 0l-.1-5h1l.2 5h-1.1zm-5.2 0h-1l.3-5 1 .1-.3 4.9zm8.3 0l-.3-5c.3 0 .7 0 1-.1l.3 5-1 .1zm-11.4-.2l-1-.1.5-5 1 .1-.5 5zm14.5-.1l-.5-5 1-.1.5 5-1 .1zm-17.6-.2l-1-.1.7-5 1 .1-.7 5zm20.6-.1l-.7-5 1-.1.7 5-1 .1zm-23.7-.3l-1-.2.9-4.9 1 .2-.9 4.9zm26.8-.2l-.9-4.9 1-.2.9 4.9-1 .2zm-29.8-.4c-.3-.1-.7-.1-1-.2l1.1-4.9 1 .2-1.1 4.9zm32.9-.2l-1.1-4.9 1-.2 1.1 4.9-1 .2zm-35.9-.5l-1-.2 1.2-4.9.9.2-1.1 4.9zm38.9-.2l-1.2-4.9.9-.2 1.3 4.9-1 .2zm-41.9-.6l-1-.3 1.4-4.8.9.3-1.3 4.8zm44.9-.2l-1.5-4.9.9-.3 1.5 4.8-.9.4zm-47.9-.7l-1-.3 1.6-4.8.9.3-1.5 4.8zm50.8-.3l-1.6-4.8.9-.3 1.7 4.7-1 .4zm-53.7-.7l-1-.4 1.8-4.7.9.4-1.7 4.7zm56.6-.4l-1.8-4.7.9-.4 1.9 4.6-1 .5zm-59.5-.8l-1-.4 2-4.6.9.4-1.9 4.6zm62.4-.4l-2-4.6.9-.4 2.1 4.6-1 .4zm-65.2-.8l-.9-.4 2.2-4.5.9.4-2.2 4.5zm68.1-.5l-2.2-4.5.9-.4 2.2 4.5-.9.4zm-70.9-.9l-.9-.5 2.3-4.4.9.4-2.3 4.5zm73.7-.5l-2.3-4.4.9-.5 2.4 4.4-1 .5zm-76.4-1c-.3-.2-.6-.3-.9-.5l2.5-4.3.8.5-2.4 4.3zm79.1-.5l-2.5-4.4.8-.5 2.6 4.3-.9.6zm-81.8-1l-.9-.6 2.7-4.2.8.5-2.6 4.3zm84.5-.5l-2.7-4.2.8-.5 2.7 4.2-.8.5zm-87-1.1l-.9-.6 2.8-4.1.8.5-2.7 4.2zm89.6-.6l-2.9-4.2.8-.6 2.9 4.1-.8.7zm-92.2-1.2l-.8-.6 3-4 .8.6-3 4zm94.7-.7l-3-4 .8-.6 3 4-.8.6zm-97.2-1.2l-.8-.6 3.2-3.9.8.6-3.2 3.9zm99.7-.7l-3.1-3.9.8-.6 3.2 3.9-.9.6zm-102-1.2l-.8-.7 3.3-3.8c.2.2.5.4.7.6l-3.2 3.9zm104.4-.8l-3.3-3.8.7-.6 3.4 3.7-.8.7zm-106.9-1.3l-.8-.7 3.4-3.6.7.7-3.3 3.6zm109-.8l-3.4-3.6.7-.7 3.5 3.6-.8.7zm-111.2-1.4l-.7-.7 3.6-3.5.7.7-3.6 3.5zm113.5-.8l-3.6-3.5c.2-.2.4-.5.7-.7l3.6 3.5-.7.7zM52 165.5l-.7-.8 3.7-3.4.7.7-3.7 3.5zm117.8-.8l-3.7-3.4.7-.7 3.8 3.3-.8.8zM50 163.2l-.7-.8 3.8-3.2.6.7-3.7 3.3zm121.9-.9l-3.9-3.2.6-.8 3.9 3.2-.6.8zM48 160.8l-.6-.8 4-3.1c.2.3.4.5.6.8l-4 3.1zm125.8-.9l-4-3.1c.2-.2.4-.5.6-.8l4 3c-.2.4-.4.7-.6.9zm-127.7-1.6l-.6-.8 4.1-2.9.6.8-4.1 2.9zm129.6-.8l-4.1-2.9.6-.8 4.1 2.9-.6.8zm-131.4-1.7l-.6-.9 4.2-2.8.5.8-4.1 2.9zm133.1-.9l-4.2-2.8.5-.8 4.3 2.7-.6.9zm-134.8-1.7l-.5-.9 4.3-2.6.5.8-4.3 2.7zm136.5-.9l-4.3-2.6.5-.8 4.3 2.6c-.2.2-.4.5-.5.8zM41 150.5l-.5-.9 4.4-2.4c.2.3.3.6.5.9l-4.4 2.4zm139.6-.9l-4.4-2.4c.2-.3.3-.6.5-.9l4.4 2.4c-.2.3-.3.6-.5.9zm-141.1-1.8c-.2-.3-.3-.6-.5-.9l4.5-2.2.5.9-4.5 2.2zm142.5-.9l-4.5-2.3c.1-.3.3-.6.4-.9l4.5 2.2c0 .3-.2.7-.4 1zM38.1 145c-.2-.3-.3-.6-.4-.9l4.6-2.1c.1.3.3.6.4.9l-4.6 2.1zm145.3-.9l-4.6-2.1.4-.9 4.6 2-.4 1zm-146.5-1.9l-.4-1 4.7-1.9c.1.3.2.6.4.9l-4.7 2zm147.7-1l-4.6-1.9c.1-.3.2-.6.4-.9l4.7 1.8c-.2.4-.3.7-.5 1zm-148.9-2l-.4-1 4.7-1.7.3.9-4.6 1.8zm150-.9l-4.7-1.7.3-.9 4.7 1.6c0 .4-.1.7-.3 1zm-151.1-2l-.3-1 4.8-1.5.3.9-4.8 1.6zm152.1-.9l-4.7-1.5.3-.9 4.8 1.5c-.1.3-.2.6-.4.9zm-153-2c-.1-.3-.2-.7-.3-1l4.9-1.4.3.9-4.9 1.5zm153.9-.9l-4.8-1.4.3-.9 4.9 1.3-.4 1zm-154.7-2.1c-.1-.3-.2-.7-.2-1l4.9-1.1c.1.3.2.6.2.9l-4.9 1.2zm155.5-1l-4.9-1.1.2-1 4.9 1.1c0 .4-.1.7-.2 1zm-156.2-2.1c-.1-.3-.1-.7-.2-1l4.9-1c.1.3.1.6.2 1l-4.9 1zm156.9-.9l-4.9-1 .2-1 4.9.9-.2 1.1zm-157.5-2.1c-.1-.3-.1-.7-.2-1l5-.8c0 .3.1.6.2 1l-5 .8zm158-1l-5-.8.1-1 5 .7-.1 1.1zm-158.4-2.1l-.1-1 5-.6.1 1-5 .6zm158.8-1l-5-.6.1-1 5 .5-.1 1.1zm-159.1-2l-.1-1 5-.4c0 .3 0 .7.1 1l-5 .4zm159.4-1l-5-.4.1-1 5 .3-.1 1.1zm-159.7-2.1v-1l5-.2v1l-5 .2zm159.9-1l-5-.2v-1l5 .2v1zm-160.1-2.2c-.1-.4-.1-.7-.1-1.1h5s.1.7.1 1l-5 .1zm160.2-.9h-5v-1l5-.1v1.1zm-155-2.1l-5-.1v-1l5 .2v.9zm149.9-.8v-1l5-.2v1l-5 .2zM35.7 106l-5-.3c0-.3 0-.7.1-1l5 .4c0 .2-.1.5-.1.9zm149.6-.8l-.1-1 5-.4.1 1-5 .4zM36 103.1l-5-.5c0-.3.1-.7.1-1l5 .6c-.1.2-.1.5-.1.9zm149.1-.8c0-.3-.1-.6-.1-1l5-.6c.1.3.1.7.1 1l-5 .6zm-148.7-2.1l-5-.7.1-1 5 .8c-.1.2-.1.5-.1.9zm148.3-.8c0-.3-.1-.6-.1-1l5-.8c.1.3.1.7.2 1l-5.1.8zM36.8 97.3l-4.9-.9c.1-.3.1-.7.2-1l4.9 1c-.1.3-.2.6-.2.9zm147.4-.8c-.1-.3-.1-.6-.2-1l4.9-1c.1.3.1.7.2 1l-4.9 1zM37.4 94.4l-4.9-1.1c.1-.3.2-.7.2-1l4.9 1.2-.2.9zm146.1-.7c-.1-.3-.1-.6-.2-.9l4.9-1.2.2 1-4.9 1.1zM38.1 91.6l-4.8-1.3.3-1 4.8 1.3c-.2.4-.3.7-.3 1zm144.7-.7l-.3-.9 4.8-1.4.3 1-4.8 1.3zm-144-2L34 87.4c.1-.3.2-.7.3-1l4.8 1.5c-.1.3-.1.6-.3 1zm143.2-.8l-.3-.9 4.8-1.6c.1.3.2.7.3 1l-4.8 1.5zm-142.2-2L35 84.4l.3-1 4.7 1.7c0 .4-.1.7-.2 1zm141.3-.8l-.3-.9 4.7-1.8.4 1-4.8 1.7zm-140.3-2l-4.7-1.8c.1-.3.2-.6.4-1l4.7 1.9c-.2.3-.3.6-.4.9zm139.2-.7c-.1-.3-.2-.6-.4-.9l4.6-2 .4 1-4.6 1.9zM41.9 80.7l-4.6-2 .4-1 4.6 2.1c-.1.3-.3.6-.4.9zm137-.8c-.1-.3-.3-.6-.4-.9l4.5-2.1c.1.3.3.6.4.9l-4.5 2.1zM43.1 78l-4.5-2.2.5-.9 4.5 2.3c-.2.3-.3.6-.5.8zm134.5-.8c-.1-.3-.3-.6-.4-.9l4.4-2.3.5.9-4.5 2.3zM44.5 75.5L40 73.1c.2-.3.3-.6.5-.9l4.4 2.4c-.1.3-.3.6-.4.9zm131.7-.8l-.5-.8 4.4-2.5c.2.3.3.6.5.9l-4.4 2.4zM45.9 72.9l-4.3-2.5.5-.9 4.3 2.6-.5.8zm128.9-.7l-.5-.8 4.2-2.7.6.9-4.3 2.6zM47.4 70.5l-4.2-2.7.6-.9 4.2 2.8-.6.8zm125.8-.8l-.5-.8 4.2-2.8.6.9-4.3 2.7zM49 68.1l-4.1-2.9.6-.8 4.1 2.9c-.2.2-.4.5-.6.8zm122.6-.8l-.6-.8 4-3 .6.8-4 3zM50.7 65.7l-4-3 .6-.8 4 3.1-.6.7zm119.1-.7l-.6-.8 3.9-3.1.6.8-3.9 3.1zM52.5 63.4l-3.9-3.2.7-.8 3.8 3.2-.6.8zm115.5-.7c-.2-.2-.4-.5-.6-.7l3.8-3.3.7.8-3.9 3.2zM54.4 61.2l-3.8-3.3.7-.8 3.7 3.4-.6.7zm111.7-.7l-.7-.7 3.7-3.4.7.8-3.7 3.3zM56.4 59.1l-3.6-3.5.7-.7 3.5 3.5c-.2.2-.4.4-.6.7zm107.7-.7l-.7-.7 3.6-3.6.7.7-3.6 3.6zM58.4 57l-3.5-3.6.8-.7 3.4 3.7-.7.6zm103.6-.6l-.7-.7 3.4-3.7.8.7-3.5 3.7zM60.5 55l-3.3-3.7.8-.7 3.3 3.8-.8.6zm99.4-.6l-.7-.6 3.3-3.8.8.7-3.4 3.7zm-97.2-1.3l-3.2-3.9.8-.7 3.2 3.9-.8.7zm94.9-.6l-.8-.6L160 48l.8.7-3.2 3.8zM65 51.3l-3-4 .8-.6 3 4-.8.6zm90.3-.5l-.8-.6 2.9-4.1.8.6-2.9 4.1zm-88-1.2l-2.9-4.1.9-.6 2.9 4.1-.9.6zm85.7-.5l-.8-.5 2.8-4.2.9.6-2.9 4.1zM69.8 48l-2.7-4.2.9-.6 2.7 4.2-.9.6zm80.8-.5l-.8-.5 2.6-4.3.9.5-2.7 4.3zm-78.3-1.1l-2.6-4.3.9-.5 2.5 4.3-.8.5zm75.8-.4l-.8-.5 2.5-4.4.9.5-2.6 4.4zm-73.3-1l-2.4-4.4.9-.5 2.3 4.4-.8.5zm70.7-.4l-.9-.5 2.3-4.5.9.5-2.3 4.5zm-68.1-.9l-2.2-4.5.9-.5 2.2 4.5-.9.5zm65.6-.4l-.9-.4 2.1-4.5.9.4-2.1 4.5zm-63-.9l-2-4.6 1-.4 2 4.6-1 .4zm60.3-.3l-.9-.4 1.9-4.6.9.4-1.9 4.6zm-57.6-.8l-1.9-4.7 1-.4 1.8 4.7-.9.4zm54.9-.3l-.9-.3 1.8-4.7 1 .4-1.9 4.6zm-52.2-.7l-1.7-4.8 1-.3 1.6 4.8-.9.3zm49.5-.3l-.9-.3 1.6-4.8 1 .3-1.7 4.8zm-46.7-.7l-1.5-4.8c.3-.1.7-.2 1-.3l1.4 4.8-.9.3zm44-.2l-.9-.3 1.3-4.8 1 .3-1.4 4.8zM91 38.5l-1.3-4.8 1-.3 1.2 4.9-.9.2zm38.4-.2l-.9-.2 1.2-4.9 1 .2-1.3 4.9zm-35.6-.5l-1.1-4.9 1-.2 1.1 4.9-1 .2zm32.7-.2l-1-.2 1-4.9 1 .2-1 4.9zm-29.8-.4l-.9-4.9 1-.2.9 4.9-1 .2zm27-.1l-1-.2.8-5 1 .2-.8 5zm-24.2-.4l-.7-5 1-.1.7 5-1 .1zm21.3-.1l-1-.1.6-5 1 .1-.6 5zm-18.4-.2l-.5-5 1-.1.5 5-1 .1zm15.5-.1l-1-.1.4-5 1 .1-.4 5zm-12.6-.2l-.3-5 1-.1.3 5-1 .1zm9.7 0h-1l.2-5h1l-.2 5zm-6.8-.1l-.2-5h1l.1 5h-.9zm3.9 0h-1v-5h1v5z"/><path class="st2" d="M110.6 29.5c45.2.1 82 36.6 82.2 81.8v-.4c-.5-45.4-37.7-81.8-83.2-81.3-44.7.5-80.8 36.6-81.3 81.3v.4c.3-45.2 37-81.7 82.3-81.8zm93.2 81.8c0 51.5-41.8 93.3-93.3 93.3s-93.3-41.8-93.3-93.3v.4c-.5 51.5 40.8 93.7 92.3 94.3s93.7-40.8 94.3-92.3v-2.4z"/><linearGradient id="SVGID_3_" gradientUnits="userSpaceOnUse" x1="109.83" y1="10.32" x2="109.83" y2="207.84" gradientTransform="matrix(1 0 0 -1 0 220)"><stop offset="0" stop-color="#fff"/><stop offset="0" stop-color="#f7fcfe"/><stop offset=".05" stop-color="#dbe2e6"/><stop offset=".15" stop-color="#94a0a8"/><stop offset=".15" stop-color="#929ea6"/><stop offset=".22" stop-color="#95a0a8"/><stop offset=".26" stop-color="#9da8b0"/><stop offset=".3" stop-color="#abb5bc"/><stop offset=".33" stop-color="#bfc8ce"/><stop offset=".36" stop-color="#d9e0e4"/><stop offset=".38" stop-color="#f7fcfe"/><stop offset=".5" stop-color="#b0b7bd"/><stop offset=".58" stop-color="#7f8891"/><stop offset=".63" stop-color="#6d7680"/><stop offset=".67" stop-color="#868f99"/><stop offset=".73" stop-color="#a2abb6"/><stop offset=".78" stop-color="#b4bdc8"/><stop offset=".82" stop-color="#bac3ce"/><stop offset="1" stop-color="#fff"/></linearGradient><path class="st3" d="M109.8 12.2C55.3 12.2 11 56.4 11 111s44.2 98.8 98.8 98.8c54.5 0 98.8-44.2 98.8-98.8-.1-54.6-44.3-98.8-98.8-98.8zm0 183c-46.6 0-84.3-37.7-84.3-84.3s37.7-84.3 84.3-84.3 84.3 37.7 84.3 84.3c0 46.6-37.7 84.3-84.3 84.3z"/><linearGradient id="SVGID_4_" gradientUnits="userSpaceOnUse" x1="4.987" y1="110.06" x2="215.442" y2="110.06" gradientTransform="matrix(1 0 0 -1 0 220)"><stop offset="0" stop-color="#fff"/><stop offset="0" stop-color="#f7fcfe"/><stop offset=".03" stop-color="#dbe2e6"/><stop offset=".09" stop-color="#94a0a8"/><stop offset=".1" stop-color="#929ea6"/><stop offset=".13" stop-color="#95a0a8"/><stop offset=".14" stop-color="#9da8af"/><stop offset=".16" stop-color="#abb4bb"/><stop offset=".17" stop-color="#bfc6cb"/><stop offset=".18" stop-color="#dadee1"/><stop offset=".19" stop-color="#fafafb"/><stop offset=".2" stop-color="#fff"/><stop offset=".34" stop-color="#f7fcfe"/><stop offset=".39" stop-color="#bbc1c4"/><stop offset=".45" stop-color="#6f747a"/><stop offset=".5" stop-color="#3f444b"/><stop offset=".52" stop-color="#2c3239"/><stop offset=".56" stop-color="#353b43"/><stop offset=".63" stop-color="#4d545d"/><stop offset=".7" stop-color="#6d7680"/><stop offset=".74" stop-color="#868f99"/><stop offset=".79" stop-color="#a2abb6"/><stop offset=".84" stop-color="#b4bdc8"/><stop offset=".88" stop-color="#bac3ce"/><stop offset="1" stop-color="#fff"/></linearGradient><path class="st4" d="M109.6 191.5c-1.8 0-3.5-.1-5.3-.2l.1-1.1c1.7.1 3.5.2 5.2.2v1.1zm5.3-.2l-.1-1.1c1.7-.1 3.5-.3 5.2-.5l.1 1c-1.6.3-3.4.5-5.2.6zm-15.9-.5c-1.8-.2-3.5-.5-5.2-.9l.2-1c1.7.3 3.4.6 5.2.8l-.2 1.1zm26.5-.9l-.2-1c1.7-.3 3.4-.7 5.1-1.2l.3 1c-1.8.5-3.5.9-5.2 1.2zm-36.9-1.1c-1.7-.4-3.4-1-5.1-1.5l.3-1c1.7.6 3.3 1.1 5 1.5l-.2 1zm47.1-1.7l-.3-1c1.6-.6 3.3-1.2 4.9-1.9l.4 1c-1.6.8-3.3 1.4-5 1.9zm-57.2-1.8c-1.6-.7-3.3-1.4-4.8-2.2l.5-.9c1.6.8 3.2 1.5 4.8 2.2l-.5.9zm67-2.2l-.5-.9c1.6-.8 3.1-1.6 4.6-2.5l.5.9c-1.4.8-3 1.7-4.6 2.5zm-76.6-2.5c-1.5-.9-3.1-1.8-4.5-2.8l.6-.8c1.5 1 3 1.9 4.5 2.8l-.6.8zm85.8-2.8l-.6-.9c1.4-1 2.9-2 4.3-3.1l.6.8c-1.3 1.1-2.8 2.2-4.3 3.2zm-94.6-3c-1.4-1.1-2.8-2.2-4.1-3.4l.7-.8c1.3 1.1 2.7 2.3 4.1 3.3l-.7.9zm103.1-3.5l-.7-.8c1.3-1.1 2.6-2.4 3.8-3.6l.7.7c-1.2 1.3-2.5 2.5-3.8 3.7zm-111.1-3.6c-1.2-1.2-2.5-2.6-3.6-3.9l.8-.7c1.2 1.3 2.4 2.6 3.6 3.8l-.8.8zm118.6-4l-.8-.7c1.1-1.3 2.3-2.7 3.3-4.1l.8.6c-1 1.5-2.2 2.9-3.3 4.2zm-125.7-4c-1.1-1.4-2.1-2.9-3.1-4.3l.9-.6c1 1.4 2 2.9 3.1 4.3l-.9.6zm132.2-4.4l-.9-.6c1-1.4 1.9-3 2.8-4.5l.9.5c-.9 1.6-1.9 3.1-2.8 4.6zm-138-4.4c-.9-1.5-1.7-3.1-2.5-4.7l1-.5c.8 1.6 1.6 3.1 2.5 4.6l-1 .6zm143.3-4.8l-.9-.5c.8-1.6 1.5-3.2 2.2-4.8l1 .4c-.8 1.7-1.5 3.3-2.3 4.9zm-148.1-4.7c-.7-1.6-1.3-3.3-1.9-5l1-.3c.6 1.6 1.2 3.3 1.8 4.9l-.9.4zm152.2-5.2l-1-.3c.6-1.6 1.1-3.3 1.5-5l1 .3c-.5 1.7-1 3.4-1.5 5zM31 131.3c-.5-1.7-.9-3.4-1.2-5.2l1-.2c.3 1.7.7 3.4 1.2 5.1l-1 .3zm158.3-5.3l-1-.2c.3-1.7.6-3.4.9-5.2l1 .1c-.3 1.8-.6 3.5-.9 5.3zm-160.4-5c-.2-1.8-.4-3.5-.5-5.3l1-.1c.1 1.7.3 3.5.5 5.2l-1 .2zm161.8-5.5l-1-.1c.1-1.7.2-3.5.2-5.2v-.2h1.1v.2c-.2 1.7-.2 3.5-.3 5.3zm-161.5-5.2h-1v-.1c0-1.7.1-3.5.2-5.2l1 .1c-.1 1.7-.2 3.4-.2 5.1v.1zm160.4-5.6c-.1-1.7-.3-3.5-.5-5.2l1-.1c.2 1.8.4 3.5.5 5.3h-1zM29.9 99.8l-1-.1c.2-1.7.5-3.5.9-5.2l1 .2c-.4 1.7-.7 3.4-.9 5.1zm158.3-5.6c-.3-1.7-.8-3.4-1.2-5.1l1-.3c.5 1.7.9 3.4 1.2 5.2l-1 .2zM31.9 89.5l-1-.3 1.5-5.1 1 .3c-.5 1.8-1 3.4-1.5 5.1zm153.6-5.4c-.6-1.7-1.2-3.3-1.9-4.9l1-.4c.7 1.6 1.3 3.3 1.9 5l-1 .3zM35.3 79.6l-1-.4c.7-1.6 1.4-3.3 2.2-4.8l1 .5c-.8 1.4-1.6 3.1-2.2 4.7zm146.1-5.2c-.8-1.6-1.6-3.1-2.5-4.6l.9-.5c.9 1.5 1.7 3.1 2.5 4.7l-.9.4zM39.9 70.2l-.9-.6c.9-1.5 1.8-3.1 2.8-4.5l.9.6c-1 1.4-1.9 2.9-2.8 4.5zm136.2-4.8c-1-1.5-2-2.9-3.1-4.3l.8-.6c1.1 1.4 2.1 2.9 3.1 4.3l-.8.6zm-130.4-4l-.8-.6c1.1-1.4 2.2-2.8 3.4-4.1l.8.7c-1.2 1.3-2.3 2.6-3.4 4zm124-4.3c-1.2-1.3-2.4-2.6-3.6-3.8l.7-.8c1.2 1.2 2.5 2.5 3.6 3.9l-.7.7zm-117-3.6l-.8-.7c1.2-1.3 2.6-2.5 3.9-3.6l.7.8c-1.3 1-2.6 2.3-3.8 3.5zm109.6-3.8c-1.3-1.1-2.7-2.3-4.1-3.3l.6-.8c1.4 1.1 2.8 2.2 4.1 3.4l-.6.7zM60.5 46.6l-.6-.8c1.4-1.1 2.8-2.1 4.3-3.1l.6.9c-1.5.9-2.9 1.9-4.3 3zm93.4-3.3c-1.4-1-2.9-1.9-4.5-2.8l.5-.9c1.5.9 3.1 1.8 4.5 2.8l-.5.9zm-84.7-2.6l-.5-.9c1.5-.9 3.1-1.7 4.7-2.5l.5.9c-1.6.8-3.2 1.6-4.7 2.5zm75.6-2.6c-1.6-.8-3.2-1.5-4.8-2.2l.4-1c1.6.7 3.3 1.4 4.9 2.2l-.5 1zm-66.2-2l-.4-1c1.6-.7 3.3-1.3 5-1.9l.3 1c-1.6.6-3.3 1.2-4.9 1.9zm56.5-2c-1.7-.6-3.4-1.1-5-1.5l.3-1 5.1 1.5-.4 1zm-46.5-1.4l-.3-1c1.7-.5 3.4-.9 5.2-1.2l.2 1c-1.7.3-3.5.7-5.1 1.2zm36.4-1.3c-1.7-.3-3.5-.6-5.2-.8l.1-1c1.8.2 3.5.5 5.2.8l-.1 1zm-26.1-.8l-.1-1c1.7-.2 3.5-.4 5.3-.5l.1 1c-1.9.1-3.6.3-5.3.5zm15.7-.6c-1.7-.1-3.4-.1-5.1-.1h-.2v-1h.2c1.7 0 3.5 0 5.2.1l-.1 1zm84.3 80.3v-.5h-2.5v.5h2.5zm0 1.3v-.5h-2.5v.5h2.5zm0 1.2v-.5l-2.5-.1v.5l2.5.1zm0 1.2v-.5l-2.5-.1v.5l2.5.1zm3.3-3.3v-.9h-2.5v.9h2.5zm0 1.2v-.9h-2.5v.9h2.5zm0 1.1v-.9l-2.5-.1v.9l2.5.1zm0 1.1v-.9l-2.5-.1v.9l2.5.1zm4.4-4v-.3h-3.4v.2l3.4.1zm0 .6v-.3h-3.4v.3h3.4zm0 .6v-.3h-3.5v.3h3.5zm0 .6v-.3l-3.4-.1v.3l3.4.1zm0 .6v-.3l-3.4-.1v.3l3.4.1zm0 .6v-.3l-3.4-.1v.3l3.4.1zm0 .6v-.3l-3.4-.1v.3l3.4.1zm0 .6v-.3l-3.4-.1v.2l3.4.2zm0 .6v-.3l-3.4-.2v.3l3.4.2zm0 .6v-.3l-3.4-.2v.3l3.4.2zm-8 5.2l.1-.5-2.5-.3-.1.5 2.5.3zm-.2 1.2l.1-.5-2.5-.3-.1.5 2.5.3zm-.2 1.2l.1-.5-2.5-.3-.1.5 2.5.3zm-.2 1.2l.1-.5-2.5-.4-.1.5 2.5.4zm3.7-2.9l.1-.9-2.5-.3-.1.8 2.5.4zm-.1 1.2l.1-.9-2.5-.3-.1.8 2.5.4zm-.2 1.1l.1-.9-2.5-.3-.1.9 2.5.3zm-.1 1.1l.1-.9-2.5-.4-.1.9 2.5.4zm4.7-3.5v-.3l-3.4-.4v.3l3.4.4zm-.1.6v-.3l-3.4-.4v.2l3.4.5zm-.1.6v-.3l-3.4-.4v.3l3.4.4zm0 .6v-.3l-3.4-.5v.2l3.4.6zm-.1.6v-.3l-3.4-.5v.3l3.4.5zm-.1.5v-.2l-3.4-.5v.2l3.4.5zm-.1.6v-.3l-3.4-.5v.3l3.4.5zm-.1.6v-.3l-3.4-.5v.3l3.4.5zm-.4.6v-.3l-3.4-.6v.2l3.4.7zm-.1.6v-.3l-3.4-.6v.3l3.4.6zm-8.5 4.2l.1-.5-2.4-.6-.1.5 2.4.6zm-.3 1.2l.1-.5-2.4-.6-.1.5 2.4.6zm-.3 1.2l.1-.5-2.4-.6-.1.5 2.4.6zm-.4 1.1l.1-.5-2.4-.7-.1.5 2.4.7zm4-2.3l.2-.9-2.4-.6-.2.8 2.4.7zm-.3 1.1l.2-.9-2.4-.6-.2.8 2.4.7zm-.2 1.1l.2-.9-2.4-.6-.2.8 2.4.7zm-.3 1l.2-.9-2.4-.7-.2.8 2.4.8zm5.1-2.9l.1-.3-3.4-.8-.1.2 3.4.9zm-.1.6l.1-.3-3.4-.8-.1.2 3.4.9zm-.2.6l.1-.3-3.4-.8-.1.2 3.4.9zm-.2.6l.1-.3-3.3-.8-.1.2 3.3.9zm-.1.5l.1-.2-3.3-.9-.1.2 3.3.9zm-.2.6l.1-.2-3.3-.9-.1.2 3.3.9zm-.1.6l.1-.3-3.3-.9-.1.2 3.3 1zm-.2.5l.1-.3-3.3-.9-.1.2 3.3 1zm-.1.6l.1-.3-3.3-1-.1.2 3.3 1.1zm-.2.6l.1-.3-3.3-1-.1.2 3.3 1.1zm-9 3.2l.2-.5-2.4-.9-.2.4 2.4 1zm-.4 1.1l.2-.5-2.4-.9-.2.4 2.4 1zm-.5 1.2l.2-.5-2.3-.9-.2.4 2.3 1zm-.4 1.1l.2-.5-2.3-1-.2.4 2.3 1.1zm4.2-1.9l.3-.8-2.4-.9-.3.8 2.4.9zm-.4 1.1l.3-.8-2.3-.9-.3.8 2.3.9zm-.4 1l.3-.8-2.3-.9-.3.8 2.3.9zm-.4 1l.3-.8-2.3-1-.3.8 2.3 1zm5.4-2.3l.1-.2-3.2-1.2-.1.2 3.2 1.2zm-.2.6l.1-.2-3.2-1.2-.1.2 3.2 1.2zm-.2.5l.1-.2-3.2-1.2-.1.2 3.2 1.2zm-.2.6l.1-.2-3.2-1.2-.1.2 3.2 1.2zm-.2.5l.1-.2-3.2-1.3-.1.2 3.2 1.3zm-.3.6l.1-.2-3.2-1.3-.1.2 3.2 1.3zm-.2.5l.1-.2-3.2-1.3-.1.2 3.2 1.3zm-.2.6l.1-.2-3.2-1.3-.1.2 3.2 1.3zm-.2.5l.1-.2-3.2-1.3-.1.2 3.2 1.3zm-.2.6l.1-.2-3.2-1.4-.1.2 3.2 1.4zm-9.3 2.1l.2-.4-2.2-1.1-.2.4 2.2 1.1zm-.6 1.1l.2-.4-2.2-1.2-.2.4 2.2 1.2zm-.6 1.1l.2-.4-2.2-1.2-.2.4 2.2 1.2zm-.6 1l.2-.4-2.2-1.2-.2.4 2.2 1.2zm4.6-1.3l.4-.8-2.2-1.1-.4.8 2.2 1.1zm-.5 1l.4-.8-2.2-1.2-.4.8 2.2 1.2zm-.6 1l.4-.8-2.2-1.2-.4.8 2.2 1.2zm-.5 1l.4-.8-2.2-1.2-.4.8 2.2 1.2zm5.7-1.6l.1-.2-3.1-1.6-.1.2 3.1 1.6zm-.3.5l.1-.2-3.1-1.6-.1.2 3.1 1.6zm-.3.5l.1-.2-3.1-1.6-.1.2 3.1 1.6zm-.3.5l.1-.2-3.1-1.6-.1.2 3.1 1.6zm-.3.5l.1-.2-3-1.6-.1.2 3 1.6zm-.2.6l.1-.2-3-1.6-.1.2 3 1.6zm-.3.5l.1-.2-3-1.7-.1.2 3 1.7zm-.3.5l.1-.2-3-1.7-.1.2 3 1.7zm-.3.5l.1-.2-3-1.7-.1.2 3 1.7zm-.3.6l.1-.2-3-1.7-.1.2 3 1.7zm-9.4 1l.3-.4-2.1-1.4-.3.4 2.1 1.4zm-.7 1l.3-.4-2.1-1.4-.3.4 2.1 1.4zm-.7 1l.3-.4-2.1-1.4-.3.4 2.1 1.4zm-.7 1l.3-.4-2-1.5-.3.4 2 1.5zm4.6-.9l.5-.7-2.1-1.4-.5.7 2.1 1.4zm-.7.9l.5-.7-2.1-1.4-.5.7 2.1 1.4zm-.7.9l.5-.7-2.1-1.4-.5.7 2.1 1.4zm-.6 1l.5-.7-2-1.4-.5.7 2 1.4zm5.8-1l.1-.2-2.9-1.9-.1.2 2.9 1.9zm-.3.5l.1-.2-2.9-1.9-.1.2 2.9 1.9zm-.4.4l.1-.2-2.9-1.9-.1.2 2.9 1.9zm-.3.5l.1-.2-2.8-2-.1.2 2.8 2zm-.4.6l.1-.2-2.8-2-.1.2 2.8 2zm-.3.5l.1-.2-2.8-2-.1.2 2.8 2zm-.4.5l.1-.2-2.8-2-.1.2 2.8 2zm-.3.4l.1-.2-2.8-2-.1.2 2.8 2zm-.4.5l.1-.2-2.8-2-.1.2 2.8 2zm-.3.5l.2-.2-2.8-2-.1.2 2.7 2zm-9.5 0l.3-.4-1.9-1.6-.3.4 1.9 1.6zm-.8.9l.3-.4-1.9-1.6-.3.4 1.9 1.6zm-.8.9l.3-.4-1.9-1.7-.3.4 1.9 1.7zm-.9.9l.3-.4-1.8-1.8-.3.4 1.8 1.8zm4.7-.3l.6-.7-1.9-1.6-.6.6 1.9 1.7zm-.7.9l.6-.7-1.9-1.6-.6.6 1.9 1.7zm-.8.8l.6-.7-1.9-1.7-.6.6 1.9 1.8zm-.8.9l.6-.7-1.9-1.7-.6.6 1.9 1.8zm5.9-.3l.2-.2-2.6-2.2-.2.2 2.6 2.2zm-.4.4l.2-.2-2.6-2.3-.2.2 2.6 2.3zm-.3.5l.2-.2-2.6-2.3-.2.2 2.6 2.3zm-.4.4l.2-.2-2.6-2.3-.2.2 2.6 2.3zm-.4.4l.2-.2-2.6-2.3-.2.2 2.6 2.3zm-.4.5l.2-.2-2.6-2.3-.2.2 2.6 2.3zm-.4.4l.2-.2-2.6-2.3-.2.2 2.6 2.3zm-.4.5l.2-.2-2.6-2.3-.2.2 2.6 2.3zm-.4.4l.2-.2-2.5-2.4-.2.2 2.5 2.4zm-.4.4l.2-.2-2.5-2.4-.2.2 2.5 2.4zm-9.5-1.1l.4-.3-1.7-1.8-.4.3 1.7 1.8zm-.9.8l.4-.3-1.7-1.8-.4.3 1.7 1.8zm-.9.8l.4-.3-1.7-1.9-.4.3 1.7 1.9zm-.9.8l.4-.3-1.6-2-.4.3 1.6 2zm4.7.2l.7-.6-1.7-1.9-.6.6 1.6 1.9zm-.9.8l.7-.6-1.7-1.9-.6.6 1.6 1.9zm-.8.7l.7-.6-1.7-1.9-.6.6 1.6 1.9zm-.9.8l.7-.6-1.6-1.9-.6.6 1.5 1.9zm5.9.4l.2-.2-2.4-2.5-.2.2 2.4 2.5zm-.4.4l.2-.2-2.4-2.5-.2.2 2.4 2.5zm-.5.4l.2-.2-2.3-2.5-.2.2 2.3 2.5zm-.4.4l.2-.2-2.3-2.6-.2.2 2.3 2.6zm-.4.4l.2-.2-2.3-2.6-.2.2 2.3 2.6zm-.5.4l.2-.2-2.3-2.6-.2.2 2.3 2.6zm-.4.3l.2-.2-2.3-2.6-.2.2 2.3 2.6zm-.5.4l.2-.2-2.3-2.6-.2.2 2.3 2.6zm-.4.4l.2-.2-2.2-2.6-.2.2 2.2 2.6zm-.5.4l.2-.2-2.2-2.6-.2.2 2.2 2.6zm-9.2-2.2l.4-.3-1.5-2-.4.3 1.5 2zm-1 .7l.4-.3-1.5-2-.4.3 1.5 2zm-1 .7l.4-.3-1.4-2-.4.3 1.4 2zm-1 .7l.4-.3-1.4-2.1-.4.3 1.4 2.1zm4.6.7l.7-.5-1.5-2-.7.5 1.5 2zm-.9.7l.7-.5-1.5-2-.7.5 1.5 2zm-1 .6l.7-.5-1.4-2-.7.5 1.4 2zm-.9.7l.7-.5-1.4-2.1-.7.5 1.4 2.1zm5.8 1l.2-.2-2.1-2.8-.2.1 2.1 2.9zm-.5.4l.2-.2-2-2.9-.2.1 2 3zm-.5.3l.2-.1-2-2.8-.2.1 2 2.8zm-.4.4l.2-.1-2-2.8-.2.1 2 2.8zm-.5.3l.2-.1-2-2.8-.2.1 2 2.8zm-.5.3l.2-.1-2-2.8-.2.1 2 2.8zm-.5.4l.2-.1-2-2.9-.2.1 2 2.9zm-.5.3l.2-.2-1.9-2.9-.2.1 1.9 3zm-.5.4l.2-.2-1.9-2.9-.2.1 1.9 3zm-.5.3l.2-.2-1.9-2.9-.2.1 1.9 3zM154 187l.4-.2-1.3-2.2-.4.2 1.3 2.2zm-1.1.6l.4-.2-1.2-2.2-.4.2 1.2 2.2zm-1 .6l.4-.2-1.2-2.2-.4.2 1.2 2.2zm-1.1.5l.4-.2-1.2-2.2-.4.2 1.2 2.2zm4.5 1.3l.8-.4-1.2-2.2-.8.4 1.2 2.2zm-1 .6l.8-.4-1.2-2.1-.8.4 1.2 2.1zm-1 .5l.8-.4-1.2-2.2-.8.4 1.2 2.2zm-1 .5l.8-.4-1.1-2.2-.8.4 1.1 2.2zm5.7 1.8l.2-.1-1.7-3-.2.1 1.7 3zm-.5.3l.2-.1-1.7-3-.2.1 1.7 3zm-.6.3l.2-.1-1.7-3-.2.1 1.7 3zm-.5.2l.2-.1-1.7-3-.2.1 1.7 3zm-.5.3l.2-.1-1.6-3-.2.1 1.6 3zm-.5.3l.2-.1-1.6-3-.2.1 1.6 3zm-.5.3l.2-.1-1.6-3.1-.2.1 1.6 3.1zm-.6.3l.2-.1-1.6-3.1-.2.1 1.6 3.1zm-.5.2l.2-.1-1.6-3.1-.2.1 1.6 3.1zm-.5.3l.2-.1-1.5-3.1-.2.1 1.5 3.1zm-8.5-4.3l.5-.2-1-2.3-.4.2.9 2.3zm-1.1.4l.5-.2-.9-2.3-.4.2.8 2.3zm-1.2.5l.5-.2-.9-2.3-.4.2.8 2.3zm-1.1.4l.5-.2-.9-2.3-.4.2.8 2.3zm4.3 1.8l.8-.3-1-2.3-.8.3 1 2.3zm-1 .5l.8-.3-1-2.3-.8.3 1 2.3zm-1 .4l.8-.3-.9-2.3-.8.3.9 2.3zm-1.1.4l.8-.3-.9-2.3-.8.3.9 2.3zm5.4 2.4l.2-.1-1.4-3.2-.2.1 1.4 3.2zm-.5.2l.2-.1-1.4-3.2-.2.1 1.4 3.2zm-.6.2l.2-.1-1.3-3.2-.2.1 1.3 3.2zm-.5.2l.2-.1-1.3-3.2-.2.1 1.3 3.2zm-.6.3l.2-.1-1.4-3.2-.2.1 1.4 3.2zm-.5.2l.2-.1-1.3-3.2-.2.1 1.3 3.2zm-.6.2l.2-.1-1.2-3.2-.2.1 1.2 3.2zm-.5.2l.2-.1-1.2-3.2-.2.1 1.2 3.2zm-.6.2l.2-.1-1.2-3.2-.2.1 1.2 3.2zm-.5.2l.2-.1-1.3-3.2-.2.1 1.3 3.2zm-8-5.2l.5-.1-.7-2.4-.5.1.7 2.4zm-1.2.3l.5-.1-.7-2.4-.5.1.7 2.4zm-1.1.3l.5-.1-.6-2.4-.5.1.6 2.4zm-1.2.3l.5-.1-.6-2.4-.5.1.6 2.4zm4.1 2.3l.9-.2-.7-2.4-.8.2.6 2.4zm-1.1.3l.9-.2-.7-2.4-.8.2.6 2.4zm-1.1.3l.9-.2-.7-2.4-.8.2.6 2.4zm-1.1.3l.9-.2-.6-2.4-.8.2.5 2.4zm5.1 3l.3-.1-1-3.3-.2.1.9 3.3zm-.6.1l.3-.1-1-3.3-.2.1.9 3.3zm-.6.2l.3-.1-.9-3.3-.2.1.8 3.3zm-.5.1l.3-.1-.9-3.3-.2.1.8 3.3zm-.6.2l.2-.1-.9-3.3-.2.1.9 3.3zm-.6.1l.3-.1-.9-3.3-.2.1.8 3.3zm-.6.2l.3-.1-.9-3.3-.2.1.8 3.3zm-.5.1l.3-.1-.8-3.4-.2.1.7 3.4zm-.6.2l.3-.1-.8-3.4h-.3l.8 3.5zm-.6.1l.3-.1-.8-3.4-.2.1.7 3.4zm-7.3-6.1l.5-.1-.4-2.5-.5.1.4 2.5zm-1.2.1l.5-.1-.4-2.5-.5.1.4 2.5zm-1.2.2l.5-.1-.4-2.5-.5.1.4 2.5zm-1.2.2l.5-.1-.3-2.5-.5.1.3 2.5zm3.8 2.7l.9-.1-.5-2.5-.9.1.5 2.5zm-1.1.2l.9-.1-.4-2.5-.9.1.4 2.5zm-1.2.2l.9-.1-.4-2.5-.9.1.4 2.5zm-1.1.1l.9-.1-.3-2.5-.9.1.3 2.5zm4.7 3.6h.3l-.6-3.4h-.3l.6 3.4zm-.6.1h.3l-.6-3.4h-.2l.5 3.4zm-.6.1h.3l-.6-3.4h-.3l.6 3.4zm-.6.1h.3l-.5-3.4h-.2l.4 3.4zm-.5 0h.3l-.5-3.4h-.3l.5 3.4zm-.6.1h.3l-.5-3.4h-.3l.5 3.4zm-.6.1h.3l-.5-3.4h-.3l.5 3.4zm-.6.1h.3l-.4-3.4h-.3l.4 3.4zm-.6.1h.3l-.4-3.4h-.2l.3 3.4zm-.6.1h.3l-.4-3.4h-.3l.4 3.4zm-6.5-7h.5l-.1-2.5h-.5l.1 2.5zm-1.2 0h.5l-.1-2.5h-.5l.1 2.5zm-1.2 0h.5l-.1-2.5h-.5l.1 2.5zm-1.2 0h.5V196h-.6l.1 2.5zm3.4 3.1h.9l-.1-2.5h-.9l.1 2.5zm-1.1 0h.9l-.1-2.5h-.9l.1 2.5zm-1.1 0h.9l-.1-2.5h-.9l.1 2.5zm-1.2 0h.9v-2.5h-.9v2.5zm4.3 4.1h.3l-.2-3.4h-.3l.2 3.4zm-.6 0h.2l-.2-3.4h-.3l.3 3.4zm-.6 0h.3l-.2-3.4h-.3l.2 3.4zm-.6 0h.3l-.1-3.4h-.3l.1 3.4zm-.6 0h.3l-.1-3.4h-.3l.1 3.4zm-.6 0h.3l-.1-3.5h-.2v3.5zm-.6 0h.3l-.1-3.4h-.3l.1 3.4zm-.6 0h.3v-3.4h-.3v3.4zm-.6 0h.3v-3.4h-.3v3.4zm-.6 0h.3v-3.4h-.3v3.4zm-5.6-7.7h.5l.2-2.5h-.5l-.2 2.5zm-1.2-.1l.5.1.2-2.5-.5-.1-.2 2.5zm-1.2-.1h.5l.2-2.5h-.5l-.2 2.5zm-1.2-.1h.5l.2-2.5h-.5l-.2 2.5zm3 3.6l.9.1.2-2.5-.9-.1-.2 2.5zm-1.2-.1l.9.1.2-2.5-.9-.1-.2 2.5zm-1.1-.1l.9.1.2-2.5-.9-.1-.2 2.5zm-1.1-.1l.9.1.2-2.5-.9-.1-.2 2.5zm3.7 4.5h.3l.2-3.4h-.3l-.2 3.4zm-.5 0h.3l.2-3.4h-.3l-.2 3.4zm-.6-.1h.3l.2-3.4h-.3l-.2 3.4zm-.6 0h.3l.3-3.4h-.2l-.4 3.4zm-.6 0h.3l.3-3.4h-.2l-.4 3.4zm-.6-.1h.3l.3-3.4h-.2l-.4 3.4zm-.6 0h.3l.3-3.4h-.3l-.3 3.4zm-.6 0h.3l.4-3.4h-.3l-.4 3.4zm-.6-.1h.3l.4-3.4h-.3l-.4 3.4zm-.6-.1h.3l.4-3.4h-.3l-.4 3.4zm-4.7-8.2l.5.1.4-2.5-.5-.1-.4 2.5zm-1.2-.3l.5.1.5-2.5-.5-.1-.5 2.5zm-1.2-.2l.5.1.5-2.5-.5-.1-.5 2.5zm-1.2-.3l.5.1.5-2.4-.5-.1-.5 2.4zm2.7 3.9l.9.2.4-2.5-.8-.2-.5 2.5zm-1.1 0l.9.2.5-2.5-.8-.2-.6 2.5zm-1.1-.2l.9.2.5-2.5-.8-.2-.6 2.5zm-1.1-.2l.9.2.5-2.4-.8-.2-.6 2.4zm3.2 5l.3.1.6-3.4-.2-.1-.7 3.4zm-.6-.1l.3.1.6-3.4-.2-.1-.7 3.4zm-.6-.2l.3.1.6-3.4-.2-.1-.7 3.4zm-.6-.1l.3.1.7-3.4H92l-.7 3.3zm-.5-.1l.3.1.7-3.4h-.3l-.7 3.3zm-.6-.1l.3.1.7-3.4-.3-.1-.7 3.4zm-.6-.1l.3.1.7-3.4-.3-.1-.7 3.4zm-.6-.2l.3.1.8-3.4h-.3l-.8 3.3zm-.6-.1h.3l.8-3.4-.3-.1-.8 3.5zm-.6-.2l.3.1.8-3.4-.3-.1-.8 3.4zm-3.7-8.7l.5.2.7-2.4-.4-.2-.8 2.4zm-1.1-.4l.5.2.8-2.4-.5-.1-.8 2.3zm-1.2-.4l.5.1.8-2.4-.5-.2-.8 2.5zm-1.1-.4l.5.2.8-2.4-.5-.1-.8 2.3zm2.1 4.2l.8.3.7-2.4-.8-.3-.7 2.4zm-1.1-.4l.8.3.8-2.4-.8-.3-.8 2.4zm-1.1-.3l.8.3.8-2.4-.8-.3-.8 2.4zm-1-.4l.8.3.8-2.4-.8-.3-.8 2.4zm2.6 5.3l.2.1 1-3.3-.2-.1-1 3.3zm-.6-.1l.3.1 1-3.3-.2-.1-1.1 3.3zm-.6-.2l.2.1 1-3.3-.2-.1-1 3.3zm-.5-.2l.2.1 1.1-3.3-.2-.1-1.1 3.3zm-.6-.2l.2.1 1.1-3.3-.2-.1-1.1 3.3zm-.6-.2l.3.1 1.1-3.3-.2-.1-1.2 3.3zm-.5-.2l.2.1 1.1-3.3-.2-.1-1.1 3.3zm-.6-.2l.2.1 1.1-3.3-.2-.1-1.1 3.3zm-.5-.2l.2.1 1.2-3.2-.2-.1-1.2 3.2zm-.6-.1l.3.1 1.2-3.2-.2-.1-1.3 3.2zm-2.7-9.2l.4.2 1-2.3-.4-.2-1 2.3zm-1.1-.5l.4.2 1-2.3-.4-.2-1 2.3zm-1.1-.5l.4.2 1.1-2.3-.4-.2-1.1 2.3zm-1.1-.6l.4.2 1.1-2.3-.4-.2-1.1 2.3zm1.7 4.4l.8.4 1-2.3-.8-.4-1 2.3zm-1-.5l.8.4 1-2.3-.8-.4-1 2.3zm-1-.4l.8.4 1-2.4-.8-.4-1 2.4zm-1-.5l.8.4 1.1-2.3-.8-.4-1.1 2.3zm2 5.6l.2.1 1.3-3.2-.2-.1-1.3 3.2zm-.6-.3l.2.1 1.4-3.2-.2-.1-1.4 3.2zm-.5-.2l.2.1 1.4-3.1-.2-.1-1.4 3.1zm-.5-.3l.2.1 1.4-3.1-.2-.1-1.4 3.1zm-.6-.2l.2.1 1.3-3.2-.2-.1-1.3 3.2zm-.5-.3l.2.1 1.5-3.1-.2-.1-1.5 3.1zm-.6-.2l.2.1 1.5-3.1-.2-.1-1.5 3.1zm-.5-.3l.2.1 1.5-3.1-.2-.1-1.5 3.1zm-.5-.3l.2.1 1.4-3.2-.2-.1-1.4 3.2zm-.6-.2l.2.1 1.6-3.1-.2-.1-1.6 3.1zm-1.5-9.4l.4.3 1.3-2.2-.4-.2-1.3 2.1zm-1-.7l.4.3 1.3-2.1-.4-.3-1.3 2.1zm-1-.6l.4.3 1.3-2.1-.4-.2-1.3 2zm-1-.6l.4.3 1.3-2.1-.4-.2-1.3 2zm.8 4.5l.8.5 1.3-2.2-.7-.4-1.4 2.1zm-1-.6l.8.5 1.3-2.1-.7-.5-1.4 2.1zm-1-.6l.8.5 1.3-2.1-.7-.5-1.4 2.1zm-1-.6l.8.5 1.3-2.1-.7-.5-1.4 2.1zm1.3 5.8l.2.1 1.7-3-.2-.1-1.7 3zm-.5-.4l.2.1 1.8-3-.2-.1-1.8 3zm-.5-.3l.2.1 1.8-3-.2-.1-1.8 3zm-.5-.3l.2.1 1.8-2.9v-.2l-2 3zm-.5-.3l.2.1 1.8-2.9-.2-.1-1.8 2.9zm-.5-.3l.2.1 1.8-2.9-.2-.1-1.8 2.9zm-.5-.3l.2.1 1.8-2.9-.2-.1-1.8 2.9zm-.5-.3l.2.1 2-2.9-.2-.1-2 2.9zm-.5-.3l.2.1 1.9-2.9-.2-.1-1.9 2.9zm-.5-.4l.2.1 1.9-2.9-.2-.1-1.9 2.9zm-.5-9.5l.4.3 1.5-2-.4-.3-1.5 2zm-.9-.7l.4.3 1.5-2-.4-.3-1.5 2zm-1-.8l.4.3 1.5-2-.4-.3-1.5 2zm-1-.7l.4.3 1.6-1.9-.4-.3-1.6 1.9zm.6 4.6l.7.6 1.5-2-.7-.5-1.5 1.9zm-.9-.7l.7.6 1.5-2-.7-.5-1.5 1.9zm-.8-.7l.7.6 1.5-2-.7-.5-1.5 1.9zm-.9-.7l.7.6 1.7-2-.7-.5-1.7 1.9zm.6 5.8l.2.2 2.1-2.8-.2-.2-2.1 2.8zm-.5-.3l.2.2 2.1-2.8-.2-.2-2.1 2.8zm-.4-.4l.2.2 2.1-2.7-.2-.2-2.1 2.7zm-.5-.4l.2.2 2.1-2.7-.2-.2-2.1 2.7zm-.5-.3l.2.2 2.1-2.7-.2-.2-2.1 2.7zm-.4-.4l.2.2 2.2-2.7-.2-.2-2.2 2.7zm-.5-.4l.2.2L52 182l-.2-.2-2.4 2.7zm-.5-.3l.2.2 2.2-2.7-.2-.2-2.2 2.7zm-.4-.4l.2.2 2.2-2.7-.2-.2-2.2 2.7zm-.5-.4l.2.2 2.2-2.6-.2-.2-2.2 2.6zm.6-9.5l.3.4 1.7-1.8-.3-.3-1.7 1.7zm-.6-.9l.3.4 1.8-1.8-.3-.3L48 173zm-.8-.9l.3.4 1.8-1.8-.3-.3-1.8 1.7zm-.9-.8l.3.4 1.8-1.7-.3-.3-1.8 1.6zm0 4.6l.6.6 1.7-1.8-.6-.6-1.7 1.8zm-.8-.8l.6.6 1.7-1.8-.6-.6-1.7 1.8zm-.8-.8l.6.6 1.8-1.8-.6-.6-1.8 1.8zm-.8-.8l.6.6 1.8-1.8-.6-.6-1.8 1.8zm-.1 5.9l.2.2 2.4-2.5-.2-.1-2.4 2.4zm-.4-.4l.2.2 2.4-2.4-.2-.2-2.4 2.4zm-.4-.4l.2.2 2.4-2.5-.2-.2-2.4 2.5zm-.4-.4l.2.2 2.4-2.5-.2-.2-2.4 2.5zm-.4-.5l.2.2 2.4-2.4-.2-.2-2.4 2.4zm-.5-.4l.2.2 2.5-2.4-.2-.2-2.5 2.4zm-.4-.4l.2.2 2.5-2.4-.2-.2-2.5 2.4zm-.4-.4l.2.2 2.5-2.4-.2-.2-2.5 2.4zm-.4-.4l.2.2 2.5-2.4-.2-.2-2.5 2.4zm-.4-.5l.2.2 2.5-2.4-.2-.2-2.5 2.4zm1.7-9.3l.3.4 1.9-1.6-.3-.4-1.9 1.6zm-.8-1l.3.4 2-1.6-.3-.4-2 1.6zm-.7-1l.3.4 2-1.6-.3-.4-2 1.6zm-.8-1l.3.4 2-1.5-.3-.4-2 1.5zM39 168l.5.7 1.9-1.6-.5-.6L39 168zm-.7-.9l.5.7 2-1.6-.5-.7-2 1.6zm-.7-.9l.5.7 2-1.6-.5-.7-2 1.6zm-.7-.9l.5.7 2-1.5-.5-.7-2 1.5zm-.7 5.8l.2.2 2.6-2.1-.2-.2-2.6 2.1zm-.4-.4l.2.3 2.7-2.2-.2-.2-2.7 2.1zm-.3-.5l.2.2 2.7-2.2-.2-.2-2.7 2.2zm-.4-.5l.2.2 2.7-2.2-.2-.2-2.7 2.2zm-.4-.4l.2.2 2.7-2.1-.2-.2-2.7 2.1zm-.3-.5l.2.2 2.7-2-.2-.2-2.7 2zm-.4-.5l.2.2 2.7-2.1-.2-.2-2.7 2.1zm-.4-.4l.2.2 2.8-2.1-.2-.2-2.8 2.1zm-.3-.5l.2.2 2.8-2.1-.2-.2-2.8 2.1zm-.4-.5l.2.2 2.8-2.1-.2-.2-2.8 2.1zm2.8-8.9l.3.4 2-1.4-.2-.4-2.1 1.4zm-.7-1l.3.4 2.1-1.4-.2-.4L35 157zm-.6-1l.2.4 2.1-1.4-.2-.4-2.1 1.4zm-.6-1l.3.4 2.2-1.4-.2-.4-2.3 1.4zm-1 4.6l.5.8 2.1-1.4-.5-.7-2.1 1.3zm-.6-1l.5.8 2.1-1.4-.5-.7-2.1 1.3zm-.6-1l.5.8 2.1-1.3-.5-.7-2.1 1.2zm-.6-1l.5.8 2.2-1.3-.5-.7-2.2 1.2zm-1.4 5.7l.1.2 2.9-1.9-.1-.2-2.9 1.9zm-.3-.5l.1.2 2.9-1.9-.1-.2-2.9 1.9zm-.3-.5l.1.2 2.9-1.9-.1-.2-2.9 1.9zm-.4-.5l.1.2 2.9-1.8-.1-.2-2.9 1.8zm-.3-.5l.1.2 2.9-1.8-.1-.2-2.9 1.8zm-.3-.5l.1.2 3-1.8-.1-.2-3 1.8zm-.3-.5l.1.2 3-1.8-.1-.2-3 1.8zm-.3-.5l.1.2 3-1.8-.1-.2-3 1.8zm-.3-.5l.1.2 3-1.8-.1-.2-3 1.8zm-.3-.6l.1.2 3-1.7-.1-.2-3 1.7zm3.8-8.7l.2.4 2.3-1.1-.2-.4-2.3 1.1zm-.5-1.1l.2.4 2.3-1.1-.2-.4-2.3 1.1zm-.5-1.1l.2.4 2.3-1.1-.2-.4-2.3 1.1zm-.5-1.1l.2.4 2.3-1-.2-.4-2.3 1zm-1.6 4.4l.4.8 2.2-1.1-.4-.8-2.2 1.1zm-.5-1l.4.8 2.3-1.1-.4-.8-2.3 1.1zm-.4-1l.4.8 2.3-1.1-.4-.8-2.3 1.1zm-.5-1l.4.8 2.3-1-.4-.8-2.3 1zm-2.1 5.4l.1.2 3.1-1.5-.1-.2-3.1 1.5zm-.2-.5l.1.2 3.1-1.5-.1-.2-3.1 1.5zm-.3-.6l.1.2 3.1-1.5-.1-.2-3.1 1.5zm-.3-.5l.1.2 3.1-1.5-.1-.2-3.1 1.5zm-.2-.5l.1.2 3.1-1.5-.1-.2-3.1 1.5zm-.2-.6l.1.2 3.1-1.4-.1-.2-3.1 1.4zm-.3-.5l.1.2 3.1-1.4-.1-.2-3.1 1.4zm-.2-.5l.1.2 3.1-1.4-.1-.2-3.1 1.4zm-.3-.6l.1.2 3.2-1.4-.1-.2-3.2 1.4zm-.2-.5l.1.2 3.1-1.4-.1-.2-3.1 1.4zm4.8-8.2l.2.5 2.4-.9-.1-.5-2.5.9zm-.4-1.2l.1.5 2.4-.8-.1-.5-2.4.8zm-.4-1.1l.1.5 2.4-.8-.1-.5-2.4.8zm-.3-1.2l.2.5 2.4-.8-.1-.5-2.5.8zm-2.1 4.2l.3.8 2.4-.9-.3-.8-2.4.9zm-.4-1.1l.3.9 2.4-.8-.3-.8-2.4.7zm-.3-1.1l.3.9 2.4-.8-.3-.8-2.4.7zm-.4-1l.3.8 2.4-.8-.3-.8-2.4.8zm-2.7 5.2l.1.3 3.3-1.2-.1-.2-3.3 1.1zm-.2-.5l.1.2 3.3-1.1-.1-.2-3.3 1.1zm-.1-.6l.1.2 3.3-1.1-.1-.2-3.3 1.1zm-.2-.5l.1.3 3.3-1.1-.1-.2-3.3 1zm-.2-.6l.1.2 3.3-1.1-.1-.2-3.3 1.1zm-.2-.6l.1.2 3.3-1.1-.1-.2-3.3 1.1zm-.2-.5l.1.3 3.3-1.1-.1-.2-3.3 1zm-.2-.6l.1.2 3.3-1-.1-.2-3.3 1zm-.2-.6l.1.3 3.3-1-.1-.2-3.3.9zm-.1-.5l.1.3 3.3-1-.1-.2-3.3.9zm5.7-7.6l.1.5 2.4-.6-.1-.5-2.4.6zm-.2-1.2l.1.5 2.4-.6-.1-.5-2.4.6zm-.3-1.2l.1.5 2.5-.5-.1-.5-2.5.5zM23 126l.1.5 2.5-.5-.1-.5-2.5.5zm-2.5 3.9l.2.9 2.4-.6-.2-.9-2.4.6zm-.3-1.1l.2.9 2.5-.5-.2-.8-2.5.4zm-.2-1.1l.2.9 2.5-.5-.2-.8-2.5.4zm-.2-1.2l.2.9 2.5-.5-.2-.8-2.5.4zm-3.3 4.9l.1.3 3.4-.8v-.2l-3.5.7zm-.2-.5l.1.3 3.4-.8v-.2l-3.5.7zm-.1-.6v.3l3.4-.7v-.2l-3.4.6zm-.1-.6v.3l3.4-.7v-.2l-3.4.6zm-.1-.6l.1.3 3.4-.7v-.2l-3.5.6zm-.1-.6l.1.3 3.4-.7-.1-.2-3.4.6zm-.1-.5l.1.3 3.4-.7v-.2l-3.5.6zm-.2-.6l.1.3 3.4-.6v-.2l-3.5.5zm-.1-.6v.3l3.4-.6.1-.2-3.5.5zm-.1-.6l.1.3 3.4-.6-.1-.2-3.4.5zm6.6-6.9v.5l2.5-.3v-.5l-2.5.3zm-.1-1.2v.5l2.5-.2v-.5l-2.5.2zm-.1-1.2v.5l2.5-.2v-.5l-2.5.2zm-.1-1.2v.5l2.5-.2v-.5l-2.5.2zm-3 3.6l.1.9 2.5-.3-.1-.9-2.5.3zm-.1-1.1l.1.9 2.5-.2-.1-.9-2.5.2zm-.1-1.1l.1.9 2.5-.2-.1-.9-2.5.2zm-.1-1.2l.1.9 2.5-.2-.1-.9-2.5.2zm-3.8 4.5v.3l3.4-.4v-.3l-3.4.4zm-.1-.6v.3l3.4-.4v-.3l-3.4.4zm0-.6v.3l3.4-.3v-.3l-3.4.3zm0-.6v.3l3.4-.3v-.3l-3.4.3zm-.1-.6v.3l3.4-.3v-.3l-3.4.3zm0-.5v.3l3.4-.3v-.3l-3.4.3zm0-.6v.3l3.4-.3v-.3l-3.4.3zm0-.6v.3l3.4-.2v-.4l-3.4.3zm0-.6v.3l3.4-.2v-.3l-3.4.2zm-.1-.6v.3l3.5-.2v-.3l-3.5.2zm7.3-6.1v.5h2.5v-.5h-2.5zm0-1.2v.5h2.5v-.5h-2.5zm0-1.2v.5l2.5.1v-.5l-2.5-.1zm0-1.3v.5l2.5.1v-.5l-2.5-.1zm-3.4 3.3v.9h2.5v-.9h-2.5zm0-1.1v.9h2.5v-.9h-2.5zm0-1.2v.9l2.5.1v-.9l-2.5-.1zm0-1.1v.9l2.5.1v-.9l-2.5-.1zm-4.4 4v.3h3.5v-.3h-3.5zm0-.6v.3h3.5v-.2l-3.5-.1zm0-.6v.3h3.5v-.3h-3.5zm0-.6v.3l3.5.1v-.3l-3.5-.1zm0-.6v.3l3.5.1v-.2l-3.5-.2zm0-.6v.3l3.5.1v-.3l-3.5-.1zm0-.6v.3l3.5.1v-.3l-3.5-.1zm0-.5v.3l3.5.2v-.3l-3.5-.2zm0-.6v.3l3.5.2v-.3l-3.5-.2zm0-.6v.3l3.5.2v-.2l-3.5-.3zm8-5.2l-.1.5 2.5.3.1-.5-2.5-.3zm.2-1.2v.5l2.5.3.1-.5-2.6-.3zm.2-1.2l-.1.5 2.5.4.1-.5-2.5-.4zm.2-1.2l-.1.5 2.5.4.1-.5-2.5-.4zm-3.7 2.8l-.1.9 2.5.3.1-.9-2.5-.3zm.1-1.1l-.1.9 2.9.3.1-.9-2.9-.3zm.2-1.1l-.1.9 2.5.4.1-.8-2.5-.5zm.2-1.2l-.2.9 2.5.4.1-.8-2.4-.5zm-4.4 3.6v.3l3.4.4v-.2l-3.4-.5zm.1-.6v.3l3.4.4v-.3l-3.4-.4zm.1-.6v.3l3.4.4v-.2l-3.4-.5zm.1-.6v.3l3.4.5v-.3l-3.4-.5zm.1-.6v.3l3.4.5v-.2l-3.4-.6zm0-.6v.3l3.4.5v-.3l-3.4-.5zm.1-.6v.3l3.4.5v-.2l-3.4-.6zm.1-.6v.3l3.4.6v-.3l-3.4-.6zm.1-.5v.3l3.4.6V94l-3.4-.6zm.1-.6v.2l3.4.6v-.3l-3.4-.5zm8.6-4.2l-.2.4 2.4.6.1-.5-2.3-.5zm.3-1.2l-.1.5 2.4.6.1-.5-2.4-.6zm.3-1.2l-.1.5 2.4.7.1-.5-2.4-.7zm.3-1.1l-.1.4 2.4.7.1-.5-2.4-.6zm-4 2.3l-.2.9 2.4.6.2-.8-2.4-.7zm.3-1.1l-.2.9 2.4.6.2-.8-2.4-.7zm.3-1.1l-.2.9 2.4.6.2-.8-2.4-.7zm.3-1.1l-.2.9 2.4.7.2-.8-2.4-.8zM16.8 87l-.1.2 3.4.8.1-.2-3.4-.8zm.2-.6l-.1.3 3.4.8.1-.2-3.4-.9zm.1-.6l-.1.3 3.4.8.1-.2-3.4-.9zm.2-.5l-.1.3 3.3.9.1-.2-3.3-1zm.1-.6v.3l3.3.9.1-.2-3.4-1zm.2-.6l-.1.3 3.3.9.1-.2-3.3-1zm.1-.5l-.1.3 3.3.9.1-.2-3.3-1zm.2-.6l-.1.3 3.3 1 .1-.2-3.3-1.1zm.2-.6l-.1.3 3.3 1 .1-.2-3.3-1.1zm.1-.6l-.1.2 3.3 1 .1-.2-3.3-1zm9-3.1l-.2.4 2.4.9.2-.4-2.4-.9zm.5-1.2l-.2.5 2.3.9.2-.4-2.3-1zm.4-1.1l-.2.5 2.3.9.2-.4-2.3-1zm.5-1.1l-.2.5 2.3 1 .2-.4-2.3-1.1zm-4.3 1.9l-.3.8 2.4.9.3-.8-2.4-.9zm.4-1l-.3.8 2.3.9.3-.8-2.3-.9zm.4-1.1l-.3.9 2.3.9.3-.8-2.3-1zm.5-1l-.4.9 2.3 1 .3-.8-2.2-1.1zm-5.5 2.3l-.1.3 3.2 1.2.1-.2-3.2-1.3zm.2-.5l-.1.2 3.2 1.2.1-.2-3.2-1.2zm.3-.6l-.1.2 3.2 1.2.1-.2-3.2-1.2zm.2-.5l-.1.2 3.2 1.3.1-.3-3.2-1.2zm.2-.6l-.1.2 3.2 1.3.1-.2-3.2-1.3zm.2-.5l-.1.2 3.2 1.3.1-.2-3.2-1.3zm.2-.6l-.1.2 3.2 1.3.1-.2-3.2-1.3zm.3-.5l-.1.2 3.2 1.3.1-.2-3.2-1.3zm.2-.6l-.1.2 3.2 1.3.1-.2-3.2-1.3zm.2-.5l-.1.2 3.2 1.3.1-.2-3.2-1.3zm9.3-2.1l-.2.4 2.2 1.1.2-.4-2.2-1.1zm.6-1.2l-.2.4 2.2 1.2.2-.4-2.2-1.2zm.6-1.1l-.2.4 2.2 1.2.2-.4-2.2-1.2zm.6-1l-.2.4 2.2 1.2.2-.4-2.2-1.2zm-4.5 1.3l-.4.8 2.2 1.1.4-.8-2.2-1.1zm.6-1l-.4.8 2.2 1.2.4-.8-2.2-1.2zm.5-1l-.4.8 2.2 1.2.4-.8-2.2-1.2zm.5-1l-.4.8 2.2 1.2.4-.8-2.2-1.2zm-5.6 1.7l-.1.2 3.1 1.6.1-.2-3.1-1.6zm.2-.6l-.1.2 3.1 1.6.1-.2-3.1-1.6zm.3-.5l-.1.2 3.1 1.6.1-.2-3.1-1.6zm.3-.5l-.1.2 3 1.6.1-.2-3-1.6zm.3-.5l-.1.2 3 1.6.1-.2-3-1.6zm.3-.6l-.1.2 3 1.7.1-.2-3-1.7zm.3-.5l-.1.2 3 1.7.1-.2-3-1.7zm.2-.5l-.1.2 3 1.7.1-.2-3-1.7zm.3-.5l-.1.2 3 1.7.1-.2-3-1.7zm.3-.5l-.1.2 3 1.7.1-.2-3-1.7zm9.5-1l-.3.4 2.1 1.4.3-.4-2.1-1.4zm.7-1l-.3.4 2.1 1.4.3-.4-2.1-1.4zm.7-1l-.3.4 2 1.4.3-.4-2-1.4zm.7-1l-.3.4 2 1.5.3-.4-2-1.5zm-4.6.8l-.5.7 2.1 1.4.5-.7-2.1-1.4zm.7-.9l-.6.7 2.1 1.4.5-.7-2-1.4zm.6-.9l-.5.7 2 1.4.5-.7-2-1.4zm.7-1l-.5.7 2 1.5.5-.7-2-1.5zm-5.9 1l-.2.2 2.9 1.9.2-.2-2.9-1.9zm.4-.5l-.1.2 2.9 1.9.2-.2-3-1.9zm.3-.5l-.1.2 2.8 2 .2-.2-2.9-2zm.4-.5l-.2.2 2.8 2 .2-.2-2.8-2zm.3-.5l-.1.2 2.8 2 .2-.2-2.9-2zm.3-.4l-.1.2 2.8 2 .2-.2-2.9-2zm.3-.5l-.2.2 2.8 2 .2-.2-2.8-2zm.4-.5l-.2.2 2.8 2 .2-.2-2.8-2zm.3-.5l-.2.2 2.8 2.1.2-.2-2.8-2.1zm.4-.4l-.2.2 2.8 2.1.2-.2-2.8-2.1zm9.5.1l-.3.4 1.9 1.6.3-.3-1.9-1.7zm.8-.9l-.3.4 1.9 1.7.3-.4-1.9-1.7zm.8-.9l-.3.4 1.9 1.7.3-.4-1.9-1.7zm.8-.9l-.3.3 1.8 1.7.3-.3-1.8-1.7zm-4.6.3l-.6.7L42 52l.6-.6-1.9-1.6zm.7-.9l-.6.7 1.9 1.7.6-.6-1.9-1.8zm.8-.8l-.6.7 1.9 1.7.6-.6-1.9-1.8zm.8-.9l-.6.7 1.8 1.7.6-.6-1.8-1.8zm-5.9.3l-.2.2 2.6 2.2.2-.2-2.6-2.2zm.3-.4l-.2.2 2.6 2.2.2-.2-2.6-2.2zm.4-.5l-.2.2 2.6 2.3.2-.2-2.6-2.3zm.4-.4l-.2.2 2.6 2.3.2-.2-2.6-2.3zm.4-.5l-.2.2 2.6 2.3.2-.2-2.6-2.3zm.4-.4l-.2.2 2.6 2.3.2-.2-2.6-2.3zm.4-.4l-.2.2 2.5 2.3.2-.2-2.5-2.3zm.4-.5l-.2.2 2.6 2.4.2-.2-2.6-2.4zm.4-.4l-.2.2 2.5 2.4.2-.2-2.5-2.4zm.4-.5l-.2.2 2.5 2.4.2-.2-2.5-2.4zm9.5 1.2l-.4.3 1.7 1.8.4-.3-1.7-1.8zm.9-.8l-.4.3 1.7 1.8.4-.3-1.7-1.8zm.9-.8l-.4.3 1.7 1.9.4-.3-1.7-1.9zm.9-.8l-.4.3 1.6 1.9.4-.3-1.6-1.9zm-4.6-.2l-.7.6 1.7 1.8.7-.6-1.7-1.8zm.8-.8l-.7.6 1.7 1.9.7-.6-1.7-1.9zm.8-.7l-.7.6 1.7 1.9.7-.6-1.7-1.9zm.9-.7l-.7.5 1.6 1.9.7-.6-1.6-1.8zm-5.9-.5l-.2.2 2.4 2.5.2-.1-2.4-2.6zm.5-.4l-.2.2 2.3 2.5.2-.2-2.3-2.5zm.4-.4l-.2.2 2.3 2.5.2-.2-2.3-2.5zm.5-.4l-.2.2 2.3 2.6.2-.2-2.3-2.6zm.4-.4l-.2.2 2.3 2.6.2-.2-2.3-2.6zm.5-.4l-.2.2 2.3 2.6.2-.2-2.3-2.6zm.4-.4l-.2.2 2.3 2.6.2-.2-2.3-2.6zm.5-.3l-.2.2 2.2 2.6.2-.2-2.2-2.6zm.4-.4l-.2.2 2.2 2.6.2-.2-2.2-2.6zm.5-.4l-.2.2 2.2 2.7.2-.2-2.2-2.7zm9.2 2.3l-.4.3 1.5 2 .4-.3-1.5-2zm1-.7l-.4.3 1.5 2 .4-.3-1.5-2zm1-.7l-.4.3 1.4 2.1.4-.3-1.4-2.1zm1-.7l-.4.3 1.4 2.1.4-.3-1.4-2.1zm-4.6-.8l-.7.5 1.5 2 .7-.5-1.5-2zm.9-.6l-.7.5 1.5 2 .7-.5-1.5-2zm1-.7l-.7.5 1.4 2 .7-.5-1.4-2zm.9-.6l-.7.5L60 36l.7-.5-1.4-2.1zm-5.8-1.1l-.2.2 2 2.8.2-.2-2-2.8zm.5-.3l-.2.2 2 2.8.2-.2-2-2.8zm.5-.3l-.2.1 2 2.8.2-.2-2-2.7zm.5-.4l-.2.2 2 2.8.2-.1-2-2.9zm.5-.3l-.2.1 2 2.8.2-.2-2-2.7zm.4-.4l-.2.1 2 2.8.2-.1-2-2.8zm.5-.3l-.2.1 1.9 2.9.2-.2-1.9-2.8zm.5-.3l-.2.2 1.9 2.9.2-.1-1.9-3zm.5-.4l-.2.1 1.9 2.9.2-.2-1.9-2.8zm.5-.3l-.2.1 1.9 2.9.2-.1-1.9-2.9zm8.9 3.3l-.4.2 1.2 2.1.4-.2-1.2-2.1zm1.1-.6l-.4.2 1.2 2.2.4-.2-1.2-2.2zm1-.6l-.4.2 1.2 2.2.4-.2-1.2-2.2zm1.1-.5l-.4.2 1.2 2.2.4-.2-1.2-2.2zm-4.5-1.3l-.8.4 1.3 2.2.8-.4-1.3-2.2zm1-.6l-.8.4 1.3 2.2.8-.4-1.3-2.2zm1-.5l-.8.4 1.2 2.2.8-.4-1.2-2.2zm1-.5l-.8.4 1.2 2.2.8-.4-1.2-2.2zm-5.6-1.8l-.2.1 1.7 3 .2-.1-1.7-3zm.5-.3l-.2.1 1.7 3 .2-.1-1.7-3zm.5-.2l-.2.1 1.7 3 .2-.1-1.7-3zm.6-.3l-.2.1 1.7 3 .2-.1-1.7-3zm.5-.3l-.2.1 1.6 3 .2-.1-1.6-3zm.5-.3l-.2.1 1.6 3.1.2-.1-1.6-3.1zm.5-.3l-.2.1 1.6 3.1.2-.1-1.6-3.1zm.6-.2l-.2.1 1.6 3.1.2-.1-1.6-3.1zm.5-.3l-.2.1 1.6 3.1.2-.1-1.6-3.1zm.5-.3l-.2.1 1.5 3.1.2-.1-1.5-3.1zm8.5 4.4l-.5.2 1 2.3.4-.2-.9-2.3zm1.1-.5l-.5.2 1 2.3.4-.2-.9-2.3zm1.1-.4l-.5.2.9 2.3.4-.2-.8-2.3zm1.2-.5l-.5.2.9 2.4.4-.2-.8-2.4zm-4.3-1.8l-.8.3 1 2.3.8-.3-1-2.3zm1-.4l-.8.3.9 2.3.8-.3-.9-2.3zm1.1-.4l-.8.3.9 2.3.8-.3-.9-2.3zm1-.4l-.8.3.9 2.4.8-.3-.9-2.4zM73 21.3l-.2.1 1.3 3.2.2-.1-1.3-3.2zm.6-.2l-.2.1 1.3 3.2.2-.1-1.3-3.2zm.5-.3l-.2.1 1.3 3.2.2-.1-1.3-3.2zm.6-.2l-.2.1 1.3 3.2.2-.1-1.3-3.2zm.5-.2l-.2.1 1.3 3.2.2-.1-1.3-3.2zm.6-.2l-.2.1 1.2 3.2.2-.1-1.2-3.2zm.5-.2l-.2.1 1.2 3.2.2-.1-1.2-3.2zm.6-.2l-.2.1 1.2 3.2.1-.1-1.1-3.2zm.5-.2l-.2.1 1.2 3.2.2-.1-1.2-3.2zm.6-.3l-.2.1 1.2 3.2.2-.1-1.2-3.2zm7.9 5.4l-.5.1.7 2.4.5-.1-.7-2.4zm1.1-.3l-.5.1.7 2.4.5-.1-.7-2.4zm1.2-.3l-.5.1.6 2.4.5-.1-.6-2.4zm1.1-.3l-.5.1.6 2.4.5-.1-.6-2.4zm-4-2.4l-.9.2.7 2.4.8-.2-.6-2.4zm1.1-.2l-.9.2.7 2.4.8-.2-.6-2.4zm1.1-.3l-.9.2.6 2.4.8-.2-.5-2.4zm1.1-.3l-.9.2.6 2.4.8-.2-.5-2.4zm-5.1-3l-.3.1 1 3.3.2-.1-.9-3.3zm.6-.2l-.3.1.9 3.3.2-.1-.8-3.3zm.6-.1l-.3.1.9 3.3.2-.1-.8-3.3zm.5-.2l-.2.1.9 3.3.2-.1-.9-3.3zm.6-.1h-.3l.9 3.3.2-.1-.8-3.2zm.6-.2l-.3.1.9 3.3.2-.1-.8-3.3zm.6-.1l-.3.1.8 3.4.2-.1-.7-3.4zm.5-.2l-.3.1.8 3.4.2-.1-.7-3.4zm.6-.1l-.3.1.8 3.4.2-.1-.7-3.4zm.6-.2l-.3.1.8 3.4.2-.1-.7-3.4zm7.2 6.3l-.5.1.4 2.5.5-.1-.4-2.5zm1.2-.2l-.5.1.4 2.4.5-.1-.4-2.4zm1.2-.2l-.5.1.3 2.5.5-.1-.3-2.5zm1.2-.1H99l.3 2.5.5-.1-.3-2.4zm-3.8-2.8l-.9.1.4 2.5.8-.1-.3-2.5zm1.2-.2l-.9.1.4 2.5.9-.1-.4-2.5zm1.1-.2l-.9.2.3 2.5.9-.1-.3-2.6zm1.1-.1l-.9.1.3 2.5.9-.1-.3-2.5zm-4.7-3.6h-.3l.6 3.4h.3l-.6-3.4zm.6-.1h-.3l.6 3.4h.3L95 15zm.6-.1h-.3l.5 3.4h.2l-.4-3.4zm.6-.1h-.3l.5 3.4h.3l-.5-3.4zm.6 0h-.3l.5 3.4h.3l-.5-3.4zm.5-.1H97l.5 3.4h.2l-.4-3.4zm.6-.1h-.3L98 18h.3l-.4-3.4zm.6-.1h-.3l.5 3.5h.3l-.5-3.5zm.6-.1h-.3l.4 3.4h.3l-.4-3.4zm.6 0h-.3l.4 3.4h.3l-.4-3.4zm6.4 7h-.5l.1 2.5h.5l-.1-2.5zm1.3 0h-.5l.1 2.5h.5l-.1-2.5zm1.2 0h-.5l.1 2.5h.5l-.1-2.5zm1.2 0h-.5v2.5h.5v-2.5zm-3.4-3.2h-.9l.1 2.5h.9l-.1-2.5zm1.1 0h-.9l.1 2.5h.9l-.1-2.5zm1.1 0h-.9l.1 2.5h.9l-.1-2.5zm1.2 0h-.9v2.5h.9v-2.5zm-4.3-4.1h-.3l.2 3.5h.3l-.2-3.5zm.6 0h-.3l.2 3.4h.3l-.2-3.4zm.6 0h-.3l.1 3.5h.3l-.1-3.5zm.6 0h-.3l.1 3.5h.3l-.1-3.5zm.6 0h-.3l.1 3.5h.3l-.1-3.5zm.6 0h-.3l.1 3.5h.3l-.1-3.5zm.6 0h-.3v3.5h.3v-3.5zm.6 0h-.3v3.5h.3v-3.5zm.6 0h-.3v3.5h.3v-3.5zm.6 0h-.3v3.5h.3v-3.5zm5.6 7.7h-.5l-.2 2.5h.5l.2-2.5zm1.2.1h-.5l-.2 2.5h.5l.2-2.5zm1.2.1h-.5l-.2 2.5h.5l.2-2.5zm1.2.1h-.5l-.3 2.5h.5l.3-2.5zm-3-3.5l-.9-.1-.2 2.5.9.1.2-2.5zm1.1.1l-.9-.1-.2 2.5.9.1.2-2.5zm1.2.1l-.9-.1-.2 2.5.9.1.2-2.5zm1.1.1l-.9-.1-.2 2.2.9.1.2-2.2zm-3.7-4.9h-.3l-.2 3.5h.3l.2-3.5zm.6.1h-.3l-.2 3.4h.3l.2-3.4zm.5 0h-.3l-.3 3.4h.3l.3-3.4zm.6 0h-.3l-.3 3.5h.2l.4-3.5zm.6.1h-.3l-.3 3.4h.2l.4-3.4zm.6 0h-.3l-.3 3.4h.3l.3-3.4zm.6.1h-.3l-.3 3.4h.3l.3-3.4zm.6 0h-.3l-.4 3.4h.3l.4-3.4zm.6.1h-.3l-.4 3.4h.3l.4-3.4zm.6.1h-.3l-.4 3.4h.3l.4-3.4zm4.7 8.3l-.5-.1-.5 2.5.5.1.5-2.5zm1.1.2l-.5-.1-.5 2.5.5.1.5-2.5zm1.2.3l-.5-.1-.5 2.5.5.1.5-2.5zm1.2.2l-.5-.1-.6 2.4.5.1.6-2.4zm-2.6-3.9l-.9-.2-.4 2.6.8.2.5-2.6zm1.1.3l-.9-.2-.5 2.5.9.2.5-2.5zm1.1.2l-.9-.2-.5 2.5.9.2.5-2.5zm1.2.2l-.9-.2-.5 2.5.8.2.6-2.5zm-3.2-5l-.3-.1-.6 3.4h.2l.7-3.3zm.6.2l-.3-.1-.6 3.4h.2l.7-3.3zm.5.1l-.3-.1-.7 3.5.2.1.8-3.5zm.6.1h-.3l-.7 3.4.2.1.8-3.5zm.6.1l-.3-.1-.7 3.4.2.1.8-3.4zm.6.2h-.3l-.7 3.4.2.1.8-3.5zm.6.1l-.3-.1-.8 3.4.3.1.8-3.4zm.5.1l-.3-.1-.8 3.4h.3l.8-3.3zm.6.1h-.3l-.8 3.4h.2l.9-3.4zm.6.2l-.3-.1-.8 3.4h.2l.9-3.3zm3.7 8.7l-.5-.1-.7 2.4.5.2.7-2.5zm1.1.4l-.5-.2-.8 2.4.5.2.8-2.4zm1.2.4l-.5-.2-.8 2.4.4.2.9-2.4zm1.1.4l-.5-.2-.8 2.4.5.2.8-2.4zm-2.1-4.2l-.8-.3-.7 2.4.8.3.7-2.4zm1.1.4l-.9-.3-.8 2.4.8.3.9-2.4zm1.1.4l-.8-.3-.8 2.4.8.3.8-2.4zm1 .3l-.8-.3-.8 2.4.8.3.8-2.4zm-2.5-5.3l-.2-.1-1 3.3.2.1 1-3.3zm.5.2l-.2-.1-1 3.3.2.1 1-3.3zm.6.2l-.3-.1-1 3.3.2.1 1.1-3.3zm.5.2l-.3-.1-1.1 3.3.2.1 1.2-3.3zm.6.2l-.3-.1-1.1 3.3.2.1 1.2-3.3zm.6.2l-.2-.1-1.1 3.3.2.1 1.1-3.3zm.5.2l-.2-.1-1.1 3.3.2.1 1.1-3.3zm.6.2l-.2-.1-1.2 3.3.2.1 1.2-3.3zm.5.2l-.2-.1-1.2 3.2.2.1 1.2-3.2zm.6.1l-.3-.1-1.2 3.3.2.1 1.3-3.3zm2.6 9.3l-.4-.2-1 2.3.4.2 1-2.3zm1.1.5l-.4-.2-1 2.3.4.2 1-2.3zm1.1.5l-.4-.2-1.1 2.3.4.2 1.1-2.3zm1.1.6l-.4-.2-1.1 2.2.4.2 1.1-2.2zm-1.6-4.4l-.8-.4-1 2.3.8.4 1-2.3zm1 .5l-.8-.4-1 2.3.8.4 1-2.3zm1 .5l-.8-.4-1 2.2.8.4 1-2.2zm1 .4l-.8-.4-1.1 2.2.8.4 1.1-2.2zm-1.9-5.6l-.2-.1-1.4 3.2.2.1 1.4-3.2zm.6.2l-.2-.1-1.4 3.1.2.1 1.4-3.1zm.5.3l-.2-.1-1.4 3.1.2.1 1.4-3.1zm.6.3l-.2-.1-1.4 3.1.2.1 1.4-3.1zm.5.2l-.2-.1-1.5 3.1.2.1 1.5-3.1zm.5.3l-.2-.1-1.5 3.1.2.1 1.5-3.1zm.6.2l-.2-.1-1.5 3.1.2.1 1.5-3.1zm.5.3l-.2-.1-1.5 3.1.2.1 1.5-3.1zm.5.2l-.2-.1-1.6 3.1.2.1 1.6-3.1zm.6.3l-.2-.1-1.6 3.1.2.1 1.6-3.1zm1.5 9.4l-.4-.3-1.3 2.2.4.3 1.3-2.2zm1 .7l-.4-.3-1.3 2.1.4.3 1.3-2.1zm1 .6l-.4-.3-1.3 2.2.4.3 1.3-2.2zm1 .7l-.4-.3-1.4 2.1.4.2 1.4-2zm-1.1-4.6l-.8-.5-1.3 2.2.7.5 1.4-2.2zm1 .6l-.8-.5-1.3 2.2.7.5 1.4-2.2zm1 .6l-.8-.5-1.3 2.2.7.5 1.4-2.2zm1 .6l-.8-.5-1.4 2.1.7.5 1.5-2.1zm-1.3-5.8l-.2-.1-1.8 3 .2.1 1.8-3zm.5.4l-.2-.1-1.8 3 .2.1 1.8-3zm.5.3l-.2-.1-1.8 3 .2.1 1.8-3zm.5.3l-.2-.1-1.8 2.9.2.1 1.8-2.9zm.5.3l-.2-.1-1.8 2.9.2.1 1.8-2.9zm.5.3l-.2-.1-1.8 2.9.2.1 1.8-2.9zm.5.3l-.2-.1-1.9 2.9.2.1 1.9-2.9zm.5.4l-.2-.1-1.9 2.9.2.1 1.9-2.9zm.5.3l-.2-.1-1.9 2.9.2.1 1.9-2.9zm.6.3l-.2-.1-1.9 2.9.2.1 1.9-2.9zm.4 9.5l-.4-.3-1.5 2 .4.3 1.5-2zm1 .8l-.5-.3-1.5 2 .4.3 1.6-2zm.9.7l-.4-.3-1.6 2 .4.3 1.6-2zm1 .8l-.4-.3-1.7 2 .4.3 1.7-2zm-.6-4.7l-.7-.6-1.5 2 .7.5 1.5-1.9zm.9.8l-.7-.6-1.5 2 .7.5 1.5-1.9zm.9.7l-.7-.6-1.6 2 .7.5 1.6-1.9zm.9.7l-.7-.5-1.6 1.9.7.5 1.6-1.9zm-.6-5.9l-.2-.2-2.2 2.8.2.2 2.2-2.8zm.4.4l-.2-.2-2.1 2.7.2.2 2.1-2.7zm.5.3l-.3-.1-2.1 2.7.2.2 2.2-2.8zm.5.4l-.2-.2-2.1 2.7.2.2 2.1-2.7zm.4.4l-.2-.2-2.2 2.7.2.2 2.2-2.7zm.5.4l-.2-.2-2.2 2.7.2.2 2.2-2.7zm.4.3l-.2-.2-2.2 2.7.2.2 2.2-2.7zm.5.4l-.2-.2-2.2 2.7.2.2 2.2-2.7zm.5.4l-.2-.2-2.2 2.6.1.2 2.3-2.6zm.4.3l-.2-.2-2.2 2.6.2.2 2.2-2.6zm-.7 9.6l-.4-.4-1.7 1.8.3.3 1.8-1.7zm.9.9l-.4-.3-1.8 1.8.3.3 1.9-1.8zm.8.8l-.4-.3-1.8 1.8.3.3 1.9-1.8zm.9.9l-.4-.3-1.8 1.7.3.3 1.9-1.7zm0-4.7l-.6-.6-1.7 1.8.6.6 1.7-1.8zm.8.8l-.6-.6-1.8 1.8.6.6 1.8-1.8zm.7.8l-.6-.6-1.8 1.8.6.6 1.8-1.8zm.8.9l-.6-.6-1.8 1.8.6.6 1.8-1.8zm.1-6l-.2-.2-2.5 2.4.2.2 2.5-2.4zm.5.5l-.3-.2-2.4 2.5.2.2 2.5-2.5zm.4.4l-.2-.2-2.4 2.5.2.2 2.4-2.5zm.4.4l-.2-.2-2.4 2.5.2.2 2.4-2.5zm.4.4l-.2-.2-2.5 2.4.2.2 2.5-2.4zm.4.4l-.2-.2-2.5 2.4.2.2 2.5-2.4zm.4.5l-.2-.2-2.5 2.4.2.2 2.5-2.4zm.4.4l-.2-.2-2.5 2.4.2.2 2.5-2.4zm.5.4l-.2-.2-2.6 2.4.2.2 2.6-2.4zm.4.4l-.2-.2-2.6 2.4.2.2 2.6-2.4zm-1.8 9.4l-.3-.4-1.9 1.6.3.4 1.9-1.6zm.8 1l-.3-.4-1.9 1.6.3.4 1.9-1.6zm.7 1l-.3-.4-2 1.5.3.4 2-1.5zm.7 1l-.3-.4-2 1.5.3.4 2-1.5zm.6-4.6l-.5-.7-2 1.4.5.7 2-1.4zm.7.9l-.6-.7-2 1.4.5.7 2.1-1.4zm.7.9l-.5-.7-2 1.5.5.7 2-1.5zm.7.9l-.6-.7-2 1.5.5.7 2.1-1.5zm.7-5.9l-.2-.2-2.7 2.1.2.2 2.7-2.1zm.4.5l-.2-.2-2.7 2.2.2.2 2.7-2.2zm.4.4l-.2-.2-2.7 2.2.2.2 2.7-2.2zm.3.5l-.2-.2-2.7 2.2.2.2 2.7-2.2zm.4.5l-.2-.2-2.7 2.1.2.2 2.7-2.1zm.4.4l-.2-.2-2.7 2.1.1.2 2.8-2.1zm.3.5l-.2-.2-2.7 2.1.2.2 2.7-2.1zm.4.5l-.2-.4-2.8 2.1.2.2 2.8-1.9zm.3.4l-.2-.2-2.8 2.1.2.2 2.8-2.1zm.4.5l-.2-.2-2.8 1.9.2.2 2.8-1.9zm-2.9 9l-.3-.4-2.1 1.4.2.4 2.2-1.4zm.6 1l-.3-.4-2.1 1.3.2.4 2.2-1.3zm.7 1l-.3-.4-2.1 1.3.2.4 2.2-1.3zm.6 1l-.3-.4-2.2 1.3.2.4 2.3-1.3zm1-4.6l-.5-.8-2.1 1.4.4.7 2.2-1.3zm.6 1l-.5-.8-2.1 1.4.4.8 2.2-1.4zm.6 1l-.5-.8-2.1 1.3.5.8 2.1-1.3zm.6 1l-.5-.8-2.2 1.3.4.7 2.3-1.2zm1.5-5.7l-.1-.2-2.9 1.9.1.2 2.9-1.9zm.3.5l-.1-.2-2.9 1.9.1.2 2.9-1.9zm.3.5l-.1-.2-2.9 1.8.1.2 2.9-1.8zm.3.5l-.1-.2-2.9 1.8.1.2 2.9-1.8zm.3.5l-.1-.2-2.9 1.8.1.2 2.9-1.8zm.3.5l-.1-.2-3 1.8.1.2 3-1.8zm.3.5l-.1-.2-3 1.8.1.2 3-1.8zm.3.5l-.1-.2-3 1.8.1.2 3-1.8zm.3.6l-.1-.2-3 1.7.1.2 3-1.7zm.3.5l-.1-.2-3 1.7.1.2 3-1.7zm-3.9 8.7l-.2-.4-2.2 1.2.2.4 2.2-1.2zm.5 1.1l-.2-.4-2.2 1 .2.4 2.2-1zm.5 1.1l-.2-.4-2.3 1 .2.4 2.3-1zm.5 1.1l-.2-.4-2.3 1 .2.4 2.3-1zm1.6-4.4l-.4-.8-2.2 1.1.4.8 2.2-1.1zm.5 1l-.4-.8-2.2 1.1.4.8 2.2-1.1zm.4 1l-.4-.8-2.3 1.1.4.8 2.3-1.1zm.5 1l-.4-.8-2.3 1 .4.8 2.3-1zm2.1-5.5l-.1-.2-3.1 1.5.1.2 3.1-1.5zm.3.5l-.1-.2-3.1 1.5.1.2 3.1-1.5zm.2.6l-.1-.2-3.1 1.5.1.2 3.1-1.5zm.3.5l-.1-.2-3.1 1.5.1.2 3.1-1.5zm.2.6l-.1-.2-3.1 1.4.1.2 3.1-1.4zm.3.5l-.1-.2-3.1 1.4.1.2 3.1-1.4zm.2.5l-.1-.2-3.1 1.4.1.2 3.1-1.4zm.2.6l-.1-.2-3.2 1.4.1.2 3.2-1.4zm.3.5l-.1-.2-3.2 1.4.1.2 3.2-1.4zm.2.6l-.1-.2-3.2 1.3.1.2 3.2-1.3zm-4.8 8.2l-.1-.5-2.4.8.1.4 2.4-.7zm.4 1.2l-.1-.5-2.4.8.1.5 2.4-.8zm.3 1.1l-.1-.5-2.4.8.1.5 2.4-.8zm.4 1.2l-.2-.5-2.4.7.1.5 2.5-.7zm2.1-4.2l-.3-.8-2.4.8.3.8 2.4-.8zm.4 1.1l-.3-.8-2.4.8.3.8 2.4-.8zm.3 1.1l-.3-.8-2.4.8.3.8 2.4-.8zm.3 1.1l-.3-.8-2.4.8.3.8 2.4-.8zm2.8-5.3l-.1-.2-3.3 1.1.1.2 3.3-1.1zm.2.6l-.1-.3-3.3 1.1.1.2 3.3-1zm.2.5l-.1-.2-3.3 1.1.1.2 3.3-1.1zm.1.6l-.1-.3-3.3 1.1.1.2 3.3-1zm.2.6l-.1-.3-3.3 1.1.1.2 3.3-1zm.2.5l-.1-.2-3.3 1 .1.2 3.3-1zm.2.6l-.1-.3-3.3 1 .1.2 3.3-.9zm.2.6l-.1-.2-3.3 1 .1.2 3.3-1zm.1.5l-.1-.3-3.3 1 .1.2 3.3-.9zm.2.6l-.1-.2-3.3 1 .1.2 3.3-1zm-5.8 7.6l-.1-.5-2.4.6.1.5 2.4-.6zm.2 1.2l-.1-.5-2.4.5.1.5 2.4-.5zm.2 1.2l-.1-.5-2.5.5.1.5 2.5-.5zm.3 1.2l-.1-.5-2.5.5.1.5 2.5-.5zm2.5-3.9l-.2-.9-2.4.6.2.8 2.4-.5zm.2 1.1l-.2-.9-2.4.5.2.8 2.4-.4zm.3 1.1l-.2-.9-2.5.5.2.8 2.5-.4zm.2 1.1l-.2-.9-2.5.5.2.8 2.5-.4zm3.3-4.9l-.1-.3-3.4.8.1.3 3.4-.8zm.1.6v-.3l-3.4.7v.3l3.4-.7zm.1.6l-.1-.3-3.4.7.1.3 3.4-.7zm.2.6l-.1-.3-3.4.7v.3l3.5-.7zm.1.6V91l-3.4.7.1.2 3.3-.6zm.1.5l-.1-.3-3.4.7v.2l3.5-.6zm.1.6l-.1-.3-3.4.6.1.2 3.4-.5zm.1.6v-.3l-3.4.6v.2l3.4-.5zm.1.6l-.1-.3-3.4.6.1.2 3.4-.5zm.1.6l-.1-.3-3.4.6v.2l3.5-.5zm-6.6 6.8v-.5l-2.5.3v.5l2.5-.3zm.1 1.2v-.5l-2.5.3v.5l2.5-.3zm.1 1.2v-.5l-2.5.2v.5l2.5-.2zm.1 1.2v-.5l-2.5.2v.5l2.5-.2zm3-3.5l-.1-.9-2.5.3.1.9 2.5-.3zm.1 1.1l-.1-.9-2.5.2.1.9 2.5-.2zm.1 1.1l-.1-.9-2.5.2.1.9 2.5-.2zm.1 1.1l-.1-.9-2.5.2.1.9 2.5-.2zm3.8-4.4v-.3l-3.4.4v.2l3.4-.3zm.1.6v-.3l-3.4.3v.2l3.4-.2zm0 .6v-.3l-3.4.3v.2l3.4-.2zm0 .6v-.3l-3.4.3v.3l3.4-.3zm0 .5v-.3l-3.4.3v.3l3.4-.3zm.1.6v-.3l-3.4.2v.3l3.4-.2zm0 .6v-.3l-3.4.2v.3l3.4-.2zm0 .6v-.3l-3.4.2v.3l3.4-.2zm0 .6v-.3l-3.4.2v.3l3.4-.2zm0 .6v-.3l-3.4.2v.3l3.4-.2zm-41.5-80.9l-1.5-1-1.5-.9c-1-.6-2.1-1.2-3.1-1.8-2.1-1.1-4.2-2.2-6.4-3.1l-6.6-2.7c-1.1-.4-2.2-.8-3.4-1.1-.6-.2-1.1-.4-1.7-.6l-1.7-.5c-4.6-1.3-9.2-2.3-13.9-3l-3.5-.4c-1.2-.1-2.4-.2-3.5-.3l-1.7-.1c-.6 0-1.2 0-1.8-.1l-3.6-.1V6.5l3.6.1h1.8l1.8.1 3.6.3 3.6.5c4.8.7 9.5 1.7 14.2 3l1.8.5c.6.2 1.1.4 1.7.6 1.1.4 2.3.8 3.4 1.2 2.2.9 4.5 1.7 6.7 2.8s4.4 2.1 6.5 3.2c1.1.6 2.1 1.2 3.2 1.8.5.3 1.1.6 1.6.9l1.5 1-1.1 1.9zm18.7 159.2c1-.9 1.8-1.8 2.7-2.7l1.3-1.4c.4-.5.9-1 1.3-1.4.8-1 1.7-1.9 2.5-2.9l2.4-3c3.1-4.1 5.9-8.4 8.3-12.9 4.9-9 8.5-18.7 10.6-28.7 8.5-41.3-8.7-83.7-43.8-107.2-4.3-2.8-8.7-5.4-13.3-7.6-9.3-4.4-19.1-7.4-29.3-8.9-5.1-.7-10.2-1.1-15.3-1.1v.3c5.1 0 10.2.4 15.2 1.1 5 .8 10 1.9 14.9 3.3 4.9 1.5 9.6 3.4 14.2 5.5 4.6 2.2 9 4.7 13.3 7.6 35 23.4 52.3 65.7 43.8 106.8-1.1 5-2.5 9.9-4.2 14.7-1.8 4.8-3.9 9.4-6.3 13.9-2.5 4.5-5.2 8.8-8.3 12.8l-2.4 3c-.8 1-1.7 1.9-2.5 2.9-.4.5-.8 1-1.3 1.4l-1.3 1.4c-.9.9-1.7 1.9-2.7 2.7l.2.4zM24.5 48.3c-4.4 6.2-8.1 12.8-11.1 19.7-3 6.9-5.2 14.2-6.6 21.6-8.8 46 13.7 92.3 55.4 113.8 51.9 26.7 115.6 6.4 142.4-45.5 2.3-4.4 4.2-9 5.9-13.7l-.3-.1c-19.1 55-79.2 84-134.1 64.9-33.8-11.8-59.3-39.8-67.7-74.6-3.5-14.7-3.9-29.9-1.1-44.7 1.4-7.4 3.6-14.6 6.5-21.5 3-6.9 6.7-13.5 11-19.6l-.3-.3zM110 5.1l-4.4.1c-1.5.1-2.9.2-4.4.3s-2.9.3-4.3.5l-2.2.3-2.2.4c-5.8 1-11.5 2.5-17 4.5s-10.8 4.4-15.9 7.3l-1.9 1.1c-.6.4-1.3.7-1.9 1.1L52.2 23l-3.6 2.5c-1.2.9-2.3 1.8-3.5 2.7-4.5 3.7-8.8 7.7-12.6 12.1L31 42c-.5.5-1 1.1-1.4 1.7l-2.7 3.5-2.5 3.6c-.8 1.2-1.6 2.5-2.4 3.7-6.2 9.9-10.6 20.9-13.2 32.3-5.1 23-2.3 47.1 8 68.4 10.3 21.2 27.5 38.3 48.8 48.6 5.3 2.5 10.8 4.6 16.4 6.2 1.4.4 2.8.8 4.2 1.1l2.1.5c.7.2 1.4.3 2.1.5l4.3.8 4.3.6c5.8.6 11.7.8 17.5.5 42.1-2.4 78.6-29.9 92.6-69.6.5-1.4 1-2.8 1.4-4.2l1.2-4.2c.3-1.4.7-2.9 1-4.3.1-.4.2-.7.2-1.1l.2-1.1.4-2.2c1-5.8 1.5-11.6 1.5-17.4 0-11.7-1.9-23.4-5.8-34.4-1.9-5.5-4.3-10.9-7.1-16s-6.1-10-9.7-14.6l-.1.1c3.6 4.6 6.9 9.4 9.7 14.5 2.8 5.1 5.2 10.5 7.1 16 3.8 11.1 5.8 22.7 5.8 34.4 0 5.8-.5 11.7-1.5 17.4l-.4 2.2-.2 1.1c-.1.4-.2.7-.2 1.1-.3 1.4-.6 2.9-1 4.3l-1.2 4.2c-.4 1.4-.9 2.8-1.4 4.2-14 39.7-50.4 67.1-92.4 69.5-5.8.3-11.7.1-17.5-.5l-4.3-.6-4.3-.8c-.7-.1-1.4-.3-2.1-.4l-2.1-.5c-1.4-.3-2.8-.7-4.2-1.1-5.6-1.6-11.1-3.7-16.4-6.2-21.3-10.2-38.4-27.3-48.8-48.5-10.3-21.5-13-45.6-7.9-68.6 2.5-11.4 7-22.3 13.1-32.3.8-1.2 1.5-2.5 2.4-3.7l2.5-3.6 2.7-3.5c.4-.6.9-1.1 1.4-1.7l1.4-1.7c3.9-4.4 8.1-8.4 12.6-12.1 1.2-.9 2.3-1.8 3.5-2.7l3.6-2.5 3.7-2.4c.6-.4 1.2-.8 1.9-1.1l1.9-1.1c5.1-2.9 10.4-5.3 15.9-7.3s11.2-3.5 16.9-4.5l2.2-.4 2.2-.3c1.4-.2 2.9-.4 4.3-.5s2.9-.2 4.4-.3l4.4-.1v.2zm83.1 40c3.6 4.6 6.8 9.5 9.6 14.7 5.6 10.3 9.4 21.5 11.2 33.1.9 5.8 1.3 11.6 1.3 17.5l-.1 4.4-.3 4.4c0 .4-.1.7-.1 1.1l-.1 1.1-.3 2.2c-.1.7-.2 1.5-.3 2.2l-.4 2.2c-1 5.8-2.5 11.5-4.5 17s-4.4 10.8-7.3 15.9c-2.9 5.1-6.2 9.9-9.9 14.5-3.7 4.5-7.8 8.8-12.1 12.7-4.4 3.9-9.1 7.4-14.1 10.5-5 3.1-10.2 5.8-15.6 8l-2.1.8c-.7.3-1.4.6-2.1.8l-4.2 1.4-4.2 1.2c-.7.2-1.4.4-2.1.5l-2.1.5c-35 7.8-71.6-2.9-96.9-28.4-8.3-8.4-15.1-18-20.2-28.6-2.5-5.3-4.6-10.8-6.2-16.4l-.5-2.4c-.2-.7-.3-1.4-.5-2.1l-.5-2.1-.2-1.1-.2-1.1c-.3-1.4-.5-2.9-.8-4.3l-.6-4.4c-.6-5.8-.8-11.7-.4-17.5l.3-4.4.5-4.4.1-1.1.2-1.1.4-2.2c.1-.7.2-1.4.4-2.2l.6-2c1.3-5.7 3.1-11.3 5.3-16.7 2.3-5.4 5-10.6 8.1-15.6 12.6-20 31.6-35.2 53.9-43l2.1-.7c.7-.2 1.4-.5 2.1-.7l4.2-1.2 4.3-1c.7-.1 1.5-.3 2.2-.4l2.2-.4c5.8-1 11.6-1.5 17.5-1.5v-.1c-5.9 0-11.7.5-17.5 1.5l-2.2.4c-.7.1-1.4.2-2.2.4l-4.3 1-4.2 1.2c-.7.2-1.4.4-2.1.7l-2.1.7c-22.3 7.8-41.4 23-54 43-3.1 5-5.8 10.2-8.1 15.6S9.9 80.3 8.6 86l-.5 2.2c-.2.7-.3 1.4-.4 2.2l-.4 2.2-.2 1.1-.1 1-.5 4.3-.3 4.4c-.3 5.9-.2 11.7.4 17.6l.6 4.4c.2 1.4.5 2.9.8 4.3l.2 1.1.2 1.1.5 2.1c.2.7.3 1.4.5 2.1l.6 2.1c1.6 5.6 3.7 11.2 6.2 16.4 10.2 21.3 27.4 38.6 48.7 49 21.3 10.3 45.5 13.2 68.6 8.1l2.1-.5c.7-.2 1.4-.3 2.1-.5l4.2-1.2 4.2-1.4c.7-.2 1.4-.5 2.1-.8l2-.8c5.4-2.2 10.7-4.9 15.7-8 5-3.1 9.8-6.6 14.1-10.5 4.4-3.9 8.5-8.1 12.2-12.7 3.7-4.5 7-9.4 9.9-14.5 2.9-5.1 5.3-10.5 7.3-16s3.5-11.2 4.5-17l.4-2.2c.1-.7.2-1.5.3-2.2l.3-2.2.1-1.1c0-.4.1-.7.1-1.1l.3-4.4.1-4.4c0-5.9-.4-11.7-1.3-17.5-.9-5.8-2.3-11.5-4.2-17.1-1.9-5.6-4.2-11-7-16.1-2.9-5-6.2-9.9-9.9-14.4zm20.3 58.9l-.3-3.6c-.1-.6-.1-1.2-.2-1.8l-.2-1.8c-.2-1.2-.3-2.4-.5-3.6l-.6-3.6-.2-.9-.2-.9-.4-1.8c-.3-1.2-.5-2.4-.9-3.5l-1-3.5c-.4-1.2-.8-2.3-1.2-3.4-.2-.6-.4-1.2-.6-1.7l-.7-1.7c-.5-1.1-.9-2.3-1.4-3.4l-1.5-3.3c-.2-.6-.5-1.1-.8-1.6l-.8-1.6-.8-1.6c-.3-.5-.6-1.1-.9-1.6-.6-1-1.2-2.1-1.8-3.2-1.3-2-2.6-4.1-4-6l-1.8 1.3c1.4 1.9 2.6 3.9 3.9 5.9.6 1 1.2 2 1.8 3.1l.9 1.5.8 1.6.8 1.5c.3.5.6 1 .8 1.6l1.5 3.2c.5 1.1.9 2.2 1.3 3.3l.6 1.7c.2.6.4 1.1.6 1.7.4 1.1.8 2.2 1.1 3.4l1 3.4c.4 1.1.6 2.3.9 3.4l.4 1.7.2.9.2.9.6 3.5c.2 1.2.3 2.3.5 3.5l.2 1.8c.1.6.1 1.2.2 1.8l.3 3.5 2.2-.1zm-38.7 86l1.4-1.1 1.4-1.2 2.7-2.4 2.6-2.5.6-.6.6-.7 1.2-1.3c.8-.9 1.7-1.8 2.5-2.7l2.4-2.8c1.5-1.9 3-3.8 4.4-5.8s2.7-4 4-6c.6-1 1.2-2.1 1.8-3.1.3-.5.6-1 .9-1.6l.8-1.6.9-1.6c.3-.5.6-1.1.8-1.6l1.5-3.3c.5-1.1.9-2.2 1.4-3.4l.7-1.7c.2-.6.4-1.1.6-1.7l-2.1-.7c-.2.6-.4 1.1-.6 1.7l-.6 1.6c-.4 1.1-.8 2.2-1.3 3.3l-1.5 3.2c-.2.5-.5 1.1-.8 1.6l-.8 1.6-.8 1.6c-.3.5-.6 1-.9 1.6-.6 1-1.2 2.1-1.8 3.1-1.3 2-2.5 4-3.9 5.9s-2.9 3.8-4.3 5.7l-2.3 2.7c-.8.9-1.6 1.8-2.4 2.6l-1.3 1.3-.6.6-.6.6-2.6 2.4-2.7 2.4-1.3 1.2-1.4 1.1 1.4 1.6zM13.5 143.4c.2.6.4 1.1.6 1.7l.7 1.7c.5 1.1.9 2.3 1.4 3.4l1.5 3.3c.2.6.5 1.1.8 1.6l.8 1.6.8 1.6c.3.5.6 1.1.9 1.6.6 1 1.2 2.1 1.8 3.1 1.3 2 2.6 4.1 4 6s2.9 3.9 4.4 5.8l2.4 2.8c.8.9 1.6 1.8 2.5 2.7l1.2 1.3.6.6.7.6 2.6 2.5 2.7 2.4 1.4 1.2 1.4 1.1 1.4-1.7-1.4-1.1-1.3-1.2c-.9-.8-1.8-1.5-2.7-2.3l-2.6-2.4-.7-.6-.6-.6-1.2-1.3c-.8-.9-1.6-1.7-2.4-2.6l-2.3-2.7c-1.5-1.9-3-3.7-4.3-5.6S26 164 24.7 162c-.6-1-1.2-2-1.8-3.1l-.9-1.5-.8-1.6-.8-1.6c-.3-.5-.5-1.1-.8-1.6l-1.5-3.2c-.5-1.1-.9-2.2-1.3-3.3l-.6-1.7c-.2-.6-.4-1.1-.6-1.7l-2.1.7zm13.3-93.5c-1.4 2-2.7 4-4 6-.6 1-1.2 2.1-1.8 3.2-.3.5-.6 1-.9 1.6l-.8 1.6-.8 1.6c-.3.5-.6 1.1-.8 1.6l-1.5 3.3c-.5 1.1-.9 2.2-1.4 3.4l-.7 1.7c-.2.6-.4 1.1-.6 1.7-.4 1.2-.8 2.3-1.1 3.4l-1 3.5c-.4 1.2-.6 2.3-.9 3.5l-.5 1.9-.2.9-.2.9-.6 3.5c-.2 1.2-.3 2.4-.5 3.6l-.2 1.8c-.1.6-.1 1.2-.2 1.8l-.3 3.6 2.2.1.3-3.6c.1-.6.1-1.2.2-1.8l.2-1.8c.2-1.2.3-2.4.5-3.5l.6-3.5.2-.9.2-.9.4-1.7c.3-1.2.5-2.3.9-3.4l1-3.4c.4-1.1.8-2.2 1.1-3.4.2-.6.4-1.1.6-1.7l.6-1.7c.4-1.1.8-2.2 1.3-3.3l1.5-3.2c.2-.6.5-1.1.8-1.6l.8-1.6.8-1.6.9-1.5c.6-1 1.2-2.1 1.8-3.1 1.3-2 2.5-4 3.9-5.9l-1.8-1.1zm83.8-43.4l-3.6.1c-.6 0-1.2 0-1.8.1l-1.8.1-3.6.3-3.6.4c-4.8.7-9.5 1.7-14.2 3.1l-1.8.5c-.6.2-1.2.4-1.7.6-1.2.4-2.3.8-3.4 1.2-2.2.9-4.5 1.7-6.7 2.8s-4.4 2.1-6.6 3.2c-1.1.6-2.1 1.2-3.2 1.8-.5.3-1.1.6-1.6.9l-1.5 1 1.2 1.9 1.5-1 1.5-.9c1-.6 2-1.2 3.1-1.8 2.1-1.1 4.2-2.2 6.4-3.1l6.6-2.7c1.1-.4 2.2-.8 3.4-1.1.6-.2 1.1-.4 1.7-.6l1.7-.5c4.6-1.3 9.2-2.3 13.9-3l3.5-.4 3.6-.3 1.8-.1c.6 0 1.2 0 1.8-.1l3.6-.1-.2-2.3zM82.1 208.3c4.7 1.3 9.4 2.3 14.2 3l3.6.5 3.6.3 1.8.1h1.8l3.6.1 3.6-.1 1.8-.1 1.8-.1 3.6-.3 3.6-.5c4.8-.7 9.5-1.7 14.2-3.1l-.6-2.1c-4.6 1.3-9.2 2.3-13.9 3l-3.5.4-3.6.3-1.8.1-1.8.1-3.6.1-3.6-.1c-.6 0-1.2 0-1.8-.1l-1.8-.1c-1.2-.1-2.4-.2-3.5-.3l-3.5-.4c-4.7-.7-9.3-1.7-13.9-3l-.3 2.3z"/><linearGradient id="SVGID_5_" gradientUnits="userSpaceOnUse" x1="33.267" y1="109.306" x2="183.919" y2="109.306" gradientTransform="matrix(1 0 0 -1 0 220)"><stop offset="0" stop-color="#fff"/><stop offset="0" stop-color="#f7fcfe"/><stop offset=".05" stop-color="#dbe2e6"/><stop offset=".15" stop-color="#94a0a8"/><stop offset=".15" stop-color="#929ea6"/><stop offset=".22" stop-color="#95a0a8"/><stop offset=".26" stop-color="#9da8b0"/><stop offset=".3" stop-color="#abb5bc"/><stop offset=".33" stop-color="#bfc8ce"/><stop offset=".36" stop-color="#d9e0e4"/><stop offset=".38" stop-color="#f7fcfe"/><stop offset=".5" stop-color="#b0b7bd"/><stop offset=".58" stop-color="#7f8891"/><stop offset=".63" stop-color="#6d7680"/><stop offset=".67" stop-color="#868f99"/><stop offset=".73" stop-color="#a2abb6"/><stop offset=".78" stop-color="#b4bdc8"/><stop offset=".82" stop-color="#bac3ce"/><stop offset="1" stop-color="#fff"/></linearGradient><path class="st5" d="M108.8 175.3c-35.6 0-64.4-28.8-64.4-64.4s28.8-64.4 64.4-64.4c35.6 0 64.4 28.8 64.4 64.3 0 35.6-28.8 64.5-64.4 64.5zM108.7 47c-35.3 0-63.9 28.6-63.8 63.9 0 35.3 28.6 63.9 63.9 63.8s63.9-28.6 63.8-63.9c0-35.2-28.6-63.7-63.9-63.8zm0 129.4c-1.5 0-2.9 0-4.4-.1l.2-2.6c1.4.1 2.8.1 4.2.1v2.6zm4.4-.2l-.2-2.7c1.4-.1 2.8-.2 4.2-.4l.3 2.6c-1.4.3-2.8.4-4.3.5zm-13.1-.4c-1.4-.2-2.9-.4-4.3-.7l.5-2.6c1.4.3 2.8.5 4.1.7l-.3 2.6zm21.8-.7l-.5-2.6c1.4-.3 2.7-.6 4.1-1l.7 2.6c-1.4.4-2.9.7-4.3 1zm-30.3-1c-1.4-.4-2.8-.8-4.2-1.3l.9-2.5c1.3.5 2.7.9 4 1.2l-.7 2.6zm38.7-1.3l-.9-2.5c1.3-.4 2.6-1 3.9-1.5l1 2.4c-1.2.6-2.6 1.1-4 1.6zm-47-1.5c-1.3-.6-2.7-1.2-4-1.9l1.2-2.4c1.2.6 2.5 1.2 3.8 1.8l-1 2.5zm55.1-1.9l-1.2-2.4c1.2-.6 2.5-1.3 3.7-2l1.4 2.3-3.9 2.1zm-62.9-2.1c-1.2-.7-2.5-1.5-3.7-2.4l1.5-2.2c1.1.8 2.3 1.6 3.5 2.3l-1.3 2.3zm70.4-2.3l-1.5-2.2c1.1-.8 2.3-1.6 3.4-2.5l1.6 2.1c-1.1.8-2.3 1.7-3.5 2.6zm-77.6-2.7c-1.1-.9-2.3-1.9-3.3-2.8l1.8-2c1 .9 2.1 1.9 3.2 2.7l-1.7 2.1zm84.5-2.7l-1.8-2c1-.9 2-1.9 3-2.9l1.9 1.9c-1 .9-2.1 1.9-3.1 3zm-91-3.1c-1-1-2-2.1-2.9-3.2l2-1.7c.9 1.1 1.8 2.1 2.8 3.1l-1.9 1.8zm97-3.2l-2-1.7c.9-1.1 1.8-2.2 2.6-3.3l2.1 1.6c-.8 1.1-1.7 2.2-2.7 3.4zm-102.6-3.6c-.9-1.2-1.7-2.4-2.5-3.6l2.2-1.4c.8 1.2 1.5 2.3 2.4 3.5l-2.1 1.5zm107.8-3.5l-2.2-1.4c.8-1.2 1.5-2.4 2.1-3.6l2.3 1.3c-.6 1.2-1.4 2.5-2.2 3.7zm-112.5-3.8c-.7-1.3-1.4-2.6-2-3.9l2.4-1.1c.6 1.3 1.2 2.5 1.9 3.7l-2.3 1.3zm-3.7-7.9c-.5-1.4-1-2.8-1.4-4.1l2.5-.8c.4 1.3.9 2.7 1.4 4l-2.5.9zm123.6-4.1l-2.5-.8c.4-1.3.8-2.7 1.1-4l2.6.6-1.2 4.2zm-126.2-4.3c-.3-1.4-.6-2.9-.9-4.3l2.6-.4c.2 1.4.5 2.8.8 4.1l-2.5.6zm128.2-4.3l-2.6-.4.6-4.2 2.6.3c-.1 1.5-.3 2.9-.6 4.3zm-129.7-4.3c-.1-1.4-.2-2.9-.3-4.4l2.7-.1c0 1.4.1 2.8.3 4.2l-2.7.3zm130.6-4.4l-2.7-.1v-4.3l2.7-.1v4.5zM46 108.8l-2.7-.1c0-1.5.1-2.9.3-4.4l2.7.3-.3 4.2zm125.3-4.2c-.1-1.4-.3-2.8-.6-4.2l2.6-.4c.2 1.4.4 2.9.6 4.3l-2.6.3zm-124.5-4.1l-2.6-.4c.2-1.4.5-2.9.9-4.3l2.6.6c-.3 1.3-.6 2.7-.9 4.1zm123-4.2c-.3-1.3-.7-2.7-1.1-4l2.5-.8 1.2 4.2-2.6.6zm-121.1-4l-2.5-.8c.4-1.4.9-2.8 1.4-4.1l2.5 1c-.4 1.3-.9 2.6-1.4 3.9zm118.7-4.1c-.5-1.3-1.1-2.6-1.6-3.8l2.4-1.1c.6 1.3 1.2 2.7 1.7 4l-2.5.9zM51.8 84.5l-2.4-1.1c.6-1.3 1.3-2.6 2-3.9l2.3 1.3c-.7 1.2-1.3 2.4-1.9 3.7zm112-3.8l-2.1-3.6 2.2-1.4c.8 1.2 1.5 2.5 2.2 3.8l-2.3 1.2zm-108-3.6l-2.3-1.4c.8-1.2 1.6-2.4 2.5-3.6l2.1 1.6c-.7 1.1-1.5 2.3-2.3 3.4zm103.5-3.5c-.8-1.1-1.7-2.2-2.6-3.3l2-1.7c1 1.1 1.9 2.3 2.7 3.4l-2.1 1.6zm-98.5-3.2l-2-1.7c.9-1.1 1.9-2.2 2.9-3.2l1.9 1.8c-.9 1-1.9 2-2.8 3.1zm5.8-6l-1.8-2c1.1-1 2.2-1.9 3.3-2.8l1.7 2.1c-1 .8-2.1 1.7-3.2 2.7zm81-2.8c-1.1-.9-2.2-1.7-3.4-2.5l1.5-2.2c1.2.8 2.4 1.7 3.5 2.6l-1.6 2.1zm-74.4-2.5l-1.5-2.2c1.2-.8 2.4-1.6 3.7-2.4l1.4 2.3c-1.2.8-2.4 1.6-3.6 2.3zm67.6-2.3c-1.2-.7-2.4-1.4-3.7-2l1.2-2.4c1.3.7 2.6 1.4 3.8 2.1l-1.3 2.3zm-60.4-2l-1.2-2.4c1.3-.7 2.6-1.3 4-1.8l1 2.5c-1.3.5-2.5 1.1-3.8 1.7zm52.9-1.8c-1.3-.5-2.6-1.1-3.9-1.5l.9-2.5c1.4.5 2.8 1 4.1 1.6l-1.1 2.4zm-45.2-1.4l-.9-2.5c1.4-.5 2.8-.9 4.2-1.3l.7 2.6c-1.3.3-2.6.7-4 1.2zm37.2-1.3c-1.3-.4-2.7-.7-4.1-1l.5-2.6c1.4.3 2.8.6 4.3 1l-.7 2.6zm-29.1-.9l-.5-2.6c1.4-.3 2.9-.5 4.3-.7l.3 2.6c-1.3.1-2.7.4-4.1.7zm20.9-.7c-1.4-.2-2.8-.3-4.2-.4l.2-2.7c1.4.1 2.9.2 4.3.4l-.3 2.7zm-12.5-.4l-.2-2.7c.8 0 1.5-.1 2.3-.1h2.1v2.7h-2c-.8 0-1.5 0-2.2.1zm-21 108.2c.1-.1.1-.2.2-.3 0-.1.1-.2.1-.3v-.3s0-.1-.1-.1l-.1-.1c-.2-.2-.5-.3-.7-.2h-.2l-.1.1-.1.1-.1.1-.1.1s0 .1-.1.1v.2c0 .1 0 .2.1.3 0 .1.1.2.2.3.1.1.2.1.3.2.1 0 .2.1.3.1.1-.1.2-.1.4-.3zm-3.8-1.5c-.4-.2-.5-.7-.3-1.1.2-.4.7-.5 1.1-.2.4.2.5.7.2 1.1-.1.2-.4.4-.7.4 0-.1-.2-.1-.3-.2zm-2.6-1.9c-.4-.3-.4-.8-.2-1.1.3-.3.7-.4 1.1-.2.4.3.4.8.2 1.1-.2.2-.4.3-.7.3-.1.1-.3 0-.4-.1zm-2.6-2c-.3-.3-.4-.8-.1-1.1.3-.3.7-.4 1.1-.1.3.3.4.8.1 1.1-.2.2-.4.3-.6.3-.2 0-.4-.1-.5-.2zm-2.4-2.3c-.3-.3-.3-.8 0-1.1.3-.3.8-.3 1.1 0 .3.3.3.8 0 1.1-.2.2-.4.2-.6.2-.2.1-.4 0-.5-.2zm-2.3-2.3c-.3-.3-.3-.8 0-1.1.3-.3.8-.3 1.1 0 .3.3.3.8 0 1.1-.1.1-.3.2-.5.2-.3.1-.5 0-.6-.2zm-2.2-2.5c-.3-.3-.2-.8.1-1.1.3-.3.8-.2 1.1.1.3.3.2.8-.1 1.1-.1.1-.3.2-.5.2-.2.1-.4 0-.6-.3zm-2-2.5c-.3-.4-.2-.9.2-1.1.4-.3.9-.2 1.1.2.3.4.2.8-.2 1.1-.1.1-.3.2-.5.1-.2 0-.4-.1-.6-.3zm-1.8-2.8c-.2-.4-.1-.9.2-1.1.4-.2.9-.1 1.1.3.2.4.1.9-.2 1.1-.1.1-.3.1-.4.1-.3 0-.5-.1-.7-.4zm-1.6-2.8c-.2-.4-.1-.9.3-1.1.4-.2.9-.1 1.1.3.2.4.1.9-.3 1.1-.1.1-.2.1-.4.1-.3 0-.6-.1-.7-.4zm-1.5-2.9c-.2-.4 0-.9.4-1.1.4-.2.9 0 1.1.4.2.4 0 .9-.4 1.1-.1.1-.2.1-.3.1-.4 0-.6-.2-.8-.5zm-1.3-3c-.1-.4.1-.8.5-1 .4-.1.8.1 1 .4.1.4-.1.8-.5 1-.1 0-.2.1-.3.1-.2 0-.5-.2-.7-.5zm-1.1-3.1c-.1-.4.1-.9.5-1 .4-.1.9.1 1 .5.1.4-.1.9-.5 1h-.2c-.3 0-.6-.1-.8-.5zm-.8-3.1c-.1-.4.1-.9.5-1 .4-.1.9.1 1 .5.1.4-.1.9-.5 1h-.2c-.4.1-.7-.1-.8-.5zm-.7-3.1c-.1-.4.2-.8.6-.9.4-.1.8.2.9.6.1.4-.2.9-.6.9h-.1c-.4 0-.8-.3-.8-.6zm-.5-3.3c-.1-.4.3-.8.7-.9.4-.1.8.2.9.7.1.4-.3.8-.7.9h-.1c-.5 0-.8-.3-.8-.7zm-.3-3.2c0-.4.3-.8.7-.8.4 0 .8.3.8.7 0 .4-.3.8-.7.8-.5.1-.8-.3-.8-.7zm1.2-2.7c.1-.1.2-.3.2-.6v-.4s0-.1-.1-.1l-.1-.1c-.2-.2-.5-.3-.7-.2h-.2l-.1.1-.1.1-.1.1-.1.1v.4c0 .2.1.4.2.6.1.2.3.2.6.2.2 0 .4-.1.5-.2zm89 22.1l3.9-1.9-.2-.5-4.1 2v.1c-12.3 20.5-38.9 27-59.4 14.7s-27-38.9-14.7-59.4 38.9-27 59.4-14.7c6 3.6 11 8.6 14.6 14.6v1.3l2.7 2.7.4-.4-2.5-2.5v-1.4C133.8 67.6 106.9 61 86.2 73.5s-27.3 39.4-14.8 60.1 39.4 27.3 60.1 14.8c6.1-3.7 11.2-8.7 14.8-14.8zm4.1 4.1l-.4-.3c-3.4 5.3-7.8 9.9-13 13.5l.3.4c5.2-3.6 9.6-8.3 13.1-13.6zM126 157.3l-.2-.5c-25.4 9.4-53.6-3.6-63-29-2-5.4-3-11.1-3-16.9 0-2.6.2-5.3.6-7.9H60c-4.4 27 13.9 52.4 40.9 56.8 8.4 1.3 17 .5 25.1-2.5zm45.4-61h-12l-9-9v-3.2C135.6 61.2 105 54.6 82 69.4c-8.9 5.7-15.7 14.2-19.5 24.1l.5.2c9.6-25.3 37.8-38 63.1-28.5 9.8 3.7 18.1 10.4 23.8 19.1v3.2l9.3 9.3h12.1l.1-.5zm1.5 10.9h-28.6l-8.5-8.5c-4.1-9.2-12.6-15.6-22.6-17.1l-.1.5c9.8 1.4 18.2 7.8 22.2 16.8l8.8 8.7h28.8m-77.5 32.2c-1.3-.6-2.5-1.3-3.7-2l-.3.4c1.2.8 2.5 1.5 3.8 2.1l.2-.5zm42.5-14.7l-.5-.2c-7 14.3-23.4 21.2-38.5 16.3l-.2.5c15.5 5 32.1-2.1 39.2-16.6zm2.1 2.1l-.5-.2c-8.9 17-29.9 23.5-46.9 14.6S69.1 111.7 78 94.7s29.9-23.5 46.9-14.6c6.3 3.3 11.4 8.4 14.6 14.6l8.7 8.7h24.2v-.5h-24l-8.5-8.4c-9.1-17.2-30.4-23.9-47.6-14.8S68.5 110 77.5 127.2s30.4 23.9 47.6 14.8c6.4-3.3 11.6-8.4 14.9-14.8zm-60.7 7c-5.3-6.6-8.1-14.8-8.1-23.3 0-20.8 16.8-37.6 37.6-37.6 13.7 0 26.2 7.4 32.9 19.3l8.8 8.8h21.8v-.6h-21.6l-8.5-8.5c-10.2-18.4-33.4-25-51.8-14.8s-25 33.4-14.8 51.8c1 1.8 2.1 3.5 3.4 5.1l.3-.2zm40.9 13.1l-.2-.5c-11.2 3.5-23.3 1.6-32.8-5.1l-.3.4c9.6 6.8 22 8.7 33.3 5.2zm22-18l-.5-.3c-3.7 6.7-9.3 12.1-16.1 15.4l.2.5c6.9-3.3 12.6-8.8 16.4-15.6zm16.7 16.8v-8l4.2-4.2h5.6v-.5h-5.9l-4.5 4.5v8c-7.8 11-19 19.1-31.9 23.1l.2.5c13-3.9 24.4-12.2 32.3-23.4zm-43.6 25.7v-.5c-2.1.2-4.3.3-6.4.3-33.5 0-60.7-27.1-60.8-60.7s27.1-60.7 60.7-60.8c19.7 0 38.2 9.5 49.6 25.6v7.9l4.5 4.5h5.8v-.5h-5.6l-4.2-4.2v-7.9l-.1-.1c-19.4-27.4-57.7-34-85.3-14.5s-34.2 57.7-14.8 85.3c11.5 16.3 30.2 26 50.1 25.9 2.2.1 4.4 0 6.5-.3zm28.9-40.3l3.7-7.8h23.8v-.5h-24.1l-3.9 8c-11.2 19.3-35.9 25.9-55.2 14.6s-25.9-35.9-14.6-55.2c4.2-7.2 10.5-12.9 18-16.4l-.2-.5C71.1 83.1 62 107.4 71.3 128s33.7 29.7 54.3 20.3c7.9-3.5 14.3-9.5 18.6-16.8zm5.3-35.7l-5.3-5.2v-.3C136.9 77.8 123.4 70 108.8 70c-1.5 0-2.9.1-4.3.2l.1.5c15.8-1.7 31.2 6.1 39.2 19.8v.3l5.4 5.4.3-.4zm19.9-6.1H162l-5.3-5.3v-6.7c-18.3-26.4-54.5-33-81-14.8-2.2 1.5-4.3 3.2-6.3 5l.4.4c23.5-21.5 60-19.9 81.5 3.6 1.7 1.9 3.4 3.9 4.8 6.1v6.6l5.6 5.6h7.7v-.5zM156.7 144v-6.7l5.2-5.3h7.5v-.5h-7.6l-5.6 5.6v6.7c-18.2 26.2-54.1 32.6-80.3 14.4-23.8-16.6-31.6-48.2-18.3-73.9l-.4-.3c-15 28.4-4.1 63.6 24.4 78.6 26.1 13.8 58.4 5.8 75.1-18.6zm-2.3-2.3v-5.1l6.9-6.9h8.9v-.5H161l-7.2 7.2v5.1c-10.1 15-27 24-45.1 24-4 0-7.9-.4-11.8-1.3l-.1.5c22.1 4.9 44.9-4.2 57.6-23zm-67.8 19c-27.5-12.3-39.8-44.5-27.5-72 8.8-19.6 28.2-32.2 49.7-32.3 8.1 0 16 1.8 23.3 5.2l.2-.5c-7.4-3.5-15.4-5.3-23.6-5.3-30.4 0-55 24.6-55.1 54.9 0 21.7 12.8 41.5 32.6 50.3l.4-.3zM170.2 92h-8.9l-6.9-6.8v-5l-.1-.1c-3-4.4-6.5-8.3-10.6-11.7l-.3.4c4 3.3 7.5 7.2 10.5 11.5v5.1l7.2 7.2h9.1V92zm-17.8 47.7v-4.1l7.9-7.9h10.4v-.5h-10.6l-8.2 8.2v4.1c-15.8 23.8-47.9 30.4-71.7 14.6s-30.4-47.9-14.6-71.7 47.9-30.4 71.7-14.6c5.8 3.8 10.7 8.8 14.6 14.6v4l8.2 8.2h10.6V94h-10.4l-7.9-7.9V82C136.5 57.9 104.1 51.3 80 67.2s-30.7 48.4-14.8 72.4 48.4 30.7 72.4 14.8c5.9-3.8 11-8.9 14.8-14.7zm-10.2-23h30.5v-.5h-30.8l-4.4 8.8.5.2 4.2-8.5zm2.1 2.1h28.2v-.5H144l-4.4 8.8.5.2 4.2-8.5zm1.6 2.6h26.3v-.6h-26.6l-3.9 8.2.5.2 3.7-7.8zm9 4h16.5v-.5h-16.8l-4.7 6.4.4.3 4.6-6.2zm-6.5 10.1l2-4-.5-.2-1.9 4c-13.5 21.6-41.9 28.2-63.5 14.7s-28.2-41.9-14.7-63.5 41.9-28.2 63.5-14.7c5.9 3.7 10.9 8.7 14.6 14.6l-.1 2.5 10.4 10.4h13.7v-.5h-13.5l-10.1-10 .1-2.3-.1-.1c-13.6-21.8-42.4-28.5-64.2-14.8S55.6 114 69.3 135.8s42.4 28.5 64.2 14.8c6-3.8 11.1-8.8 14.8-14.8l.1-.3zm2.1 2l-.1-6h-.5l.1 6h.5zm17.4-52.2h-4.5l-3.1-3.1v-2h-.5v2.2l3.3 3.4h4.7l.1-.5zm-53 85.1c-.6.1-1 .6-1 1.2 0 .5.5.9 1 1 .6.1 1.1-.4 1.2-1 .1-.6-.4-1.1-1-1.2h-.2zm11.9-2.3c-.6 0-1.1.5-1.1 1 0 .6.5 1.1 1.1 1.1s1.1-.5 1.1-1.1c0-.5-.4-1-1.1-1 .1 0 .1 0 0 0zm5.4-107.8c-.6 0-1.1.5-1.1 1.1s.5 1.1 1.1 1.1 1.1-.5 1.1-1.1c-.1-.6-.5-1-1.1-1.1zm-53.1 72.8c-.6 0-1.1.5-1.1 1.1 0 .6.5 1.1 1.1 1.1s1.1-.5 1.1-1.1c-.1-.6-.5-1-1.1-1.1zm8.1 8c-.6 0-1.1.5-1.1 1.1 0 .6.5 1.1 1.1 1.1s1.1-.5 1.1-1.1-.5-1.1-1.1-1.1zm64.6-78.8c-.6 0-1.1.5-1.1 1.1s.5 1.1 1.1 1.1 1.1-.5 1.1-1.1c0-.6-.5-1.1-1.1-1.1zm15.1 74.6c-.6-.1-1.1.4-1.2 1-.1.6.4 1.1 1 1.2h.2c.6-.1 1-.6 1-1.2-.1-.5-.5-.9-1-1zm-41.2 19.2c-.6-.1-1.1.4-1.2 1-.1.6.4 1.1 1 1.2h.2c.6-.1 1-.6 1-1.2-.1-.6-.5-1-1-1zm11.9-6.3c-.6 0-1.1.5-1.1 1.1s.5 1.1 1.1 1.1 1.1-.5 1.1-1.1c-.1-.6-.5-1.1-1.1-1.1zm-40.3 13.6c-.6 0-1.1.5-1.1 1.1 0 .6.5 1.1 1.1 1.1s1.1-.5 1.1-1.1c0-.6-.5-1.1-1.1-1.1zm-10.9-3.6c-.6.1-1 .6-1 1.2 0 .5.5.9 1 1 .6.1 1.1-.4 1.2-1 .1-.6-.4-1.1-1-1.2h-.2zm33.5-13.7c-.6 0-1.1.5-1.1 1.1 0 .6.5 1.1 1.1 1.1s1.1-.5 1.1-1.1c0-.7-.5-1.2-1.1-1.1 0-.1 0-.1 0 0zm6-2.4c-.6 0-1.1.5-1.1 1.1 0 .6.5 1.1 1.1 1.1s1.1-.5 1.1-1.1c0-.7-.5-1.2-1.1-1.1 0-.1 0-.1 0 0zm40-42.5l-8.7 8.7v4.4l8.9 8.9h6.8v-22h-7zm8.4 9.7c-.1-17.7-7.2-34.7-19.9-47l-1.9 1.9c12.2 11.8 19 28.1 19.1 45 0 8.5-1.7 16.9-5 24.7l2.4 1c3.5-8.1 5.3-16.8 5.3-25.6zm-24.2 19.5c-.6 0-1.1.5-1.1 1.1s.5 1.1 1.1 1.1c.6 0 1.1-.5 1.1-1.1 0-.6-.5-1.1-1.1-1.1zm-1-35.6c-.6 0-1.1.5-1.1 1.1s.5 1.1 1.1 1.1c.6 0 1.1-.5 1.1-1.1 0-.6-.5-1.1-1.1-1.1 0-.1 0-.1 0 0zm-.6-3.6c-.6 0-1.1.5-1.1 1.1s.5 1.1 1.1 1.1c.6 0 1.1-.5 1.1-1.1 0-.6-.4-1.1-1.1-1.1.1-.1.1-.1 0 0zm-39.7-24.8c-.6 0-1.1.5-1.1 1.1s.5 1.1 1.1 1.1 1.1-.5 1.1-1.1c-.1-.7-.5-1.1-1.1-1.1 0-.1 0-.1 0 0zm-23.6 3.5c-.6.1-1 .6-1 1.2 0 .5.5.9 1 1 .6.1 1.1-.4 1.2-1 .1-.6-.4-1.1-1-1.2h-.2zm-15.8-2.5c-.6.1-1 .6-1 1.2 0 .5.5.9 1 1 .6.1 1.1-.4 1.2-1 .1-.6-.4-1.1-1-1.2h-.2zm-12.3 16c-.6-.1-1.1.4-1.2 1-.1.6.4 1.1 1 1.2h.2c.6 0 1-.4 1.1-.9v-.1c0-.7-.4-1.2-1.1-1.2.1 0 .1 0 0 0zm86.7-15.7c-.6 0-1.1.5-1.1 1.1s.5 1.1 1.1 1.1c.6 0 1.1-.5 1.1-1.1-.1-.6-.5-1.1-1.1-1.1zM91.4 73c-.6.2-.9.8-.7 1.4.2.6.8.9 1.4.7.6-.2.9-.8.7-1.4-.2-.6-.8-.9-1.4-.7zm13-3.5c-.6.1-1 .6-1 1.2 0 .5.5.9 1 1 .6.1 1.1-.4 1.2-1 .1-.6-.4-1.1-1-1.2h-.2zM62.9 92.2c-.6 0-1.1.5-1.1 1.1 0 .6.5 1.1 1.1 1.1s1.1-.5 1.1-1.1c-.1-.6-.5-1.1-1.1-1.1zm-2.7 10c-.6-.1-1.1.4-1.2 1-.1.6.4 1.1 1 1.2h.2c.6 0 1-.4 1.1-.9v-.1c0-.8-.5-1.2-1.1-1.2zm103.2 46.6c1.9-2.8 3.6-5.7 5.1-8.7 2.9-6 4.9-12.5 5.9-19.2.5-3.3.7-6.7.8-10h-2.1c0 3.3-.3 6.5-.7 9.7-1 6.4-2.9 12.7-5.7 18.5-1.4 2.9-3.1 5.7-4.9 8.4l1.6 1.3zm-87.7 20.6c2.9 1.6 6 3 9.1 4.2 3.1 1.2 6.4 2.1 9.7 2.8 3.3.7 6.6 1.1 10 1.3.8.1 1.7 0 2.5.1h2.6c.8 0 1.7 0 2.5-.1l2.5-.2-.2-2.1-2.4.2c-.8 0-1.6 0-2.4.1H107c-.8 0-1.6 0-2.4-.1-3.2-.2-6.5-.6-9.7-1.3-6.4-1.3-12.5-3.6-18.2-6.8l-1 1.9zM46.9 84.1c-2.7 6.2-4.5 12.7-5.2 19.4-.7 6.7-.5 13.4.8 20l2-.4c-1.2-6.4-1.5-13-.7-19.4.7-6.5 2.4-12.8 5-18.8l-1.9-.8zm82.3-36.8c-12.8-4.2-26.7-4.5-39.6-.7l.6 2c12.6-3.6 26-3.4 38.4.7l.6-2zm14 123.8l1-.6 1-.6 1.9-1.2 1.9-1.3.9-.7.9-.7 1.8-1.4 1.7-1.5c.3-.2.6-.5.9-.8l.8-.8c.5-.5 1.1-1 1.6-1.6 4.3-4.3 8-9.1 11-14.4 1.5-2.6 2.8-5.3 4-8.1l.8-2.1c.3-.7.5-1.4.8-2.1.5-1.4.9-2.9 1.3-4.4.2-.7.4-1.5.5-2.2s.4-1.5.5-2.2c.3-1.5.6-3 .7-4.5.4-3 .6-6 .6-9.1h-2.1c0 2.9-.2 5.9-.6 8.8-.1 1.5-.4 2.9-.7 4.3-.1.7-.3 1.4-.5 2.2s-.3 1.4-.5 2.1c-.4 1.4-.8 2.8-1.3 4.2-.2.7-.4 1.4-.7 2.1l-.8 2.1c-1.1 2.7-2.4 5.4-3.9 7.9-2.9 5.1-6.5 9.8-10.6 14-.5.5-1.1 1-1.6 1.5l-.8.8c-.3.2-.6.5-.8.7l-1.7 1.4-1.7 1.4-.9.7-.9.6-1.7 1.4-1.9 1.2-.9.6-1 .6 1 1.7zm-85-11.8l.8.8.8.8 1.6 1.6 1.7 1.5.9.7.9.7c.6.5 1.2.9 1.8 1.4l1.9 1.3c.6.4 1.2.9 1.9 1.3s1.3.8 1.9 1.2c5.2 3.1 10.8 5.5 16.6 7.2 2.9.8 5.9 1.5 8.9 1.9l2.2.3 1.1.1 1.1.1 2.3.2h2.3c6.1.1 12.1-.5 18-2l-.5-2c-5.7 1.4-11.6 2.1-17.5 1.9l-2.2-.1-2.2-.2-1.1-.1-1.1-.1-2.2-.3c-2.9-.4-5.8-1.1-8.6-1.9-5.7-1.6-11.1-4-16.1-7-.6-.4-1.2-.8-1.9-1.2s-1.2-.8-1.8-1.2l-1.8-1.3-1.7-1.3-.9-.7c-.3-.2-.6-.5-.8-.7l-1.7-1.4-1.6-1.5-.8-.8-.8-.8-1.4 1.6zm-9-85.4l-.6.9-.6 1-1.1 2-1 2c-.2.3-.3.7-.5 1l-.5 1-.9 2.1-.9 2.1c-.1.3-.3.7-.4 1.1l-.4 1.1c-.2.7-.5 1.4-.7 2.2l-.6 2.1c-.1.4-.2.7-.3 1.1l-.2 1.1-.5 2.2-.4 2.3-.2 1.1-.2 1.1-.3 2.2c-.1.8-.1 1.5-.2 2.3s-.1 1.5-.1 2.3c-.2 6 .3 12.1 1.7 18 .2.7.3 1.5.5 2.2l.6 2.2c.1.4.2.7.3 1.1l.4 1.1.7 2.1.8 2.1.4 1.1.5 1c.3.7.6 1.4 1 2.1l1 2 1.8-1-1-2c-.3-.7-.6-1.3-.9-2l-.5-1c-.1-.3-.3-.7-.4-1l-.8-2.1-.7-2.1-.3-1c-.1-.4-.2-.7-.3-1.1l-.6-2.1c-.2-.7-.3-1.4-.5-2.2-1.3-5.7-1.8-11.6-1.6-17.5 0-.7.1-1.5.1-2.2s.1-1.5.2-2.2l.3-2.2.1-1.1.2-1 .4-2.2.5-2.2.2-1.1c.1-.4.2-.7.3-1.1l.6-2.1c.2-.7.5-1.4.7-2.1l.4-1c.1-.3.3-.7.4-1l.8-2c.3-.7.6-1.3.9-2l.5-1c.2-.3.3-.7.5-1l1-2 1.1-1.9.5-1 .6-.9-1.8-.9zM130 44.8l-1.1-.4-1.1-.3-2.2-.6-2.2-.5-1.1-.2c-.4-.1-.8-.1-1.1-.2l-2.2-.4c-.7-.1-1.5-.2-2.2-.3-1.5-.2-3-.3-4.5-.4-6.1-.3-12.1.1-18.1 1.3-11.9 2.5-23 8-32.1 16.1l1.4 1.5c8.8-7.8 19.6-13.2 31.2-15.6 5.8-1.2 11.7-1.6 17.5-1.2 1.5.1 2.9.2 4.4.4.7.1 1.5.2 2.2.3l2.2.4c.4.1.7.1 1.1.2l.9.1c.7.2 1.4.3 2.2.5l2.1.6 1.1.3 1 .3.6-1.9zm48 87.7c1.1-3.5 1.9-7.1 2.5-10.7.5-3.6.8-7.3.8-11h-2.9c0 3.5-.3 7-.8 10.5s-1.3 6.9-2.4 10.3l2.8.9zM149.8 171c3-2.1 5.9-4.4 8.5-6.9.7-.6 1.3-1.2 2-1.9l1.9-2c1.2-1.4 2.4-2.7 3.5-4.2l-2.2-1.8c-1.1 1.4-2.2 2.7-3.4 4l-1.8 1.9c-.6.6-1.3 1.2-1.9 1.8-2.6 2.4-5.3 4.6-8.2 6.6l1.6 2.5zm-46 12.9c.4 0 .9 0 1.4.1h4.2c.9 0 1.8 0 2.8-.1l2.7-.2 2.7-.3c.9-.1 1.8-.2 2.7-.4l2.7-.5 2.7-.6-.7-2.8-2.6.6-2.6.5c-.9.2-1.7.3-2.6.4s-1.8.2-2.6.3l-2.6.2c-.9 0-1.8.1-2.6.1h-3.9c-.4 0-.9 0-1.3-.1l-.4 2.8zm-44-18.2c2.8 2.4 5.7 4.7 8.8 6.6l1.2.7c.4.2.8.5 1.2.7l2.4 1.4c1.6.8 3.2 1.7 4.9 2.4l1.2-2.6c-1.6-.7-3.2-1.5-4.7-2.3l-2.3-1.3c-.4-.2-.8-.4-1.1-.7l-1.1-.7c-3-1.9-5.8-4-8.4-6.4l-2.1 2.2zm-23.5-41.5l.2 1.3c.1.4.2.9.3 1.3l.6 2.7.8 2.6c.2.9.6 1.7.9 2.6 1.2 3.5 2.6 6.8 4.4 10l2.5-1.3c-1.6-3.1-3-6.3-4.2-9.7-.3-.8-.6-1.7-.8-2.5l-.7-2.5c-.2-.9-.4-1.7-.6-2.6-.1-.4-.2-.9-.3-1.3l-.2-1.3-2.9.7zM43.4 77c-1.7 3.2-3.2 6.6-4.3 10.1-.3.9-.6 1.7-.9 2.6l-.8 2.7-.6 2.7c-.1.4-.2.9-.3 1.3l-.2 1.3 2.8.5.2-1.3c.1-.4.2-.9.3-1.3.2-.8.4-1.7.6-2.6l.7-2.5c.2-.8.5-1.7.8-2.5 1.1-3.3 2.5-6.6 4.2-9.7L43.4 77zm34.7-32.7c-1.7.7-3.3 1.6-4.9 2.4l-2.4 1.4-.6.3-.6.4-1.2.7c-3.1 2-6 4.2-8.7 6.7l1.8 2.1c2.6-2.3 5.4-4.5 8.4-6.4l1.1-.7.6-.4.6-.3 2.4-1.3c1.6-.8 3.1-1.7 4.7-2.3l-1.2-2.6zm47.5-4.4l-2.7-.6-2.7-.5c-.9-.2-1.8-.3-2.7-.4s-1.8-.3-2.7-.3l-2.7-.2c-.9 0-1.8 0-2.7-.1h-4.1c-.5 0-.9 0-1.4.1l.2 2.8c.4 0 .9 0 1.3-.1h3.9l2.6.1 2.6.2c.9 0 1.8.2 2.6.3s1.8.2 2.6.4l2.6.5 2.6.6.7-2.8zm40.1 25.9c-1.1-1.5-2.3-2.8-3.5-4.2l-1.9-2c-.6-.7-1.3-1.3-2-1.9-2.7-2.5-5.5-4.8-8.5-6.9l-1.6 2.3c2.9 2 5.6 4.2 8.2 6.6.6.6 1.3 1.2 1.9 1.8l1.8 1.9c1.2 1.3 2.3 2.6 3.4 4l2.2-1.6zm15.6 45c0-3.7-.3-7.4-.8-11-.6-3.6-1.4-7.2-2.4-10.7l-2.7.8c2.1 6.8 3.1 13.8 3.1 20.9h2.8zM108.7 186c-1.6 0-3.3-.1-4.9-.1l.1-1c1.6.1 3.2.1 4.8.1v1zm4.9-.2l-.1-1c1.6-.1 3.2-.3 4.8-.5l.1 1c-1.5.3-3.1.5-4.8.5zm-14.7-.4c-1.6-.2-3.3-.5-4.9-.8l.2-1c1.6.3 3.2.6 4.8.8l-.1 1zm24.5-.8l-.2-1c1.6-.3 3.2-.7 4.7-1.1l.2.9c-1.5.4-3.1.9-4.7 1.2zm-34.2-1.1c-1.6-.4-3.2-.9-4.7-1.4l.3-.9c1.5.5 3.1 1 4.7 1.4l-.3.9zm43.7-1.5l-.3-.9c1.5-.5 3.1-1.1 4.5-1.7l.4.9c-1.5.6-3.1 1.2-4.6 1.7zm-53-1.7c-1.5-.6-3-1.3-4.5-2l.4-.9c1.4.7 2.9 1.4 4.4 2l-.3.9zm62.1-2.1l-.4-.9c1.4-.7 2.9-1.5 4.3-2.3l.5.8c-1.5 1-3 1.7-4.4 2.4zM71 176c-1.4-.8-2.8-1.7-4.2-2.6l.5-.8c1.3.9 2.7 1.8 4.1 2.6l-.4.8zm79.5-2.7l-.5-.8c1.3-.9 2.7-1.9 4-2.8l.6.8c-1.4.9-2.7 1.9-4.1 2.8zm-87.7-2.8c-1.3-1-2.6-2-3.8-3.1l.6-.7c1.2 1.1 2.5 2.1 3.8 3.1l-.6.7zm95.5-3.2l-.6-.7 3.6-3.3.7.7c-1.3 1.1-2.4 2.2-3.7 3.3zM55.4 164c-1.2-1.2-2.3-2.4-3.4-3.6l.7-.6 3.3 3.6-.6.6zm109.9-3.7l-.7-.6c1.1-1.2 2.1-2.5 3.1-3.8l.8.6c-1.1 1.3-2.2 2.6-3.2 3.8zm-116.4-3.7c-1-1.3-2-2.6-2.9-4l.8-.5c.9 1.3 1.8 2.7 2.8 4l-.7.5zm122.4-4.1l-.8-.5c.9-1.4 1.8-2.7 2.6-4.1l.8.5c-.9 1.4-1.7 2.8-2.6 4.1zm-127.9-4c-.8-1.4-1.6-2.9-2.3-4.3l.9-.4c.7 1.4 1.5 2.9 2.3 4.3l-.9.4zm132.8-4.5l-.9-.4c.7-1.4 1.4-2.9 2-4.4l.9.4c-.6 1.4-1.3 2.9-2 4.4zm-137.1-4.3c-.6-1.5-1.2-3.1-1.7-4.6l.9-.3c.5 1.5 1.1 3 1.7 4.5l-.9.4zm140.9-4.9l-.9-.3c.5-1.5 1-3.1 1.4-4.7l.9.2c-.4 1.8-.9 3.3-1.4 4.8zm-144.1-4.5c-.4-1.6-.8-3.2-1.1-4.8l1-.2c.3 1.6.7 3.2 1.1 4.7l-1 .3zm146.6-5l-.9-.2c.3-1.6.6-3.2.8-4.8l1 .1c-.3 1.7-.6 3.4-.9 4.9zm-148.6-4.6c-.2-1.6-.4-3.3-.5-4.9l1-.1c.1 1.6.3 3.2.5 4.8l-1 .2zm149.9-5.1l-1-.1c.1-1.6.2-3.2.1-4.9v-.2h1v.2c0 1.7 0 3.4-.1 5zm-149.5-4.8h-1v-.1c0-1.6 0-3.2.2-4.8l1 .1c-.1 1.6-.2 3.2-.2 4.8zm148.5-5.2c-.1-1.6-.3-3.2-.5-4.8l1-.1c.2 1.6.4 3.3.5 4.9h-1zm-147.9-4.4l-1-.1c.2-1.6.5-3.3.8-4.9l1 .2c-.4 1.5-.6 3.2-.8 4.8zM181.5 96c-.3-1.6-.7-3.2-1.1-4.7l.9-.2c.4 1.6.8 3.2 1.1 4.8l-.9.1zM36.7 91.6l-.9-.2c.4-1.6.9-3.2 1.4-4.7l.9.3c-.5 1.5-.9 3.1-1.4 4.6zm142.3-5c-.5-1.5-1.1-3.1-1.7-4.5l.9-.4c.6 1.5 1.2 3.1 1.8 4.6l-1 .3zM39.9 82.4L39 82c.6-1.5 1.3-3 2-4.5l.9.4c-.8 1.5-1.4 3-2 4.5zm135.3-4.7c-.7-1.4-1.5-2.9-2.3-4.3l.8-.5c.8 1.4 1.6 2.9 2.3 4.3l-.8.5zm-131.1-4l-.8-.5c.8-1.4 1.7-2.8 2.6-4.2l.8.5c-.9 1.3-1.7 2.8-2.6 4.2zm126.2-4.5c-.9-1.3-1.9-2.7-2.9-3.9l.8-.6c1 1.3 2 2.6 2.9 4l-.8.5zM49.6 65.6l-.8-.6c1-1.3 2-2.6 3.1-3.8l.7.6c-1 1.2-2 2.5-3 3.8zm114.8-4c-1.1-1.2-2.2-2.4-3.3-3.5l.7-.7c1.1 1.2 2.3 2.4 3.4 3.6l-.8.6zM55.9 58.3l-.7-.7c1.2-1.2 2.4-2.3 3.6-3.4l.6.7c-1.1 1.1-2.3 2.2-3.5 3.4zm101.6-3.6c-1.2-1.1-2.5-2.1-3.8-3.1l.6-.8c1.3 1 2.6 2 3.8 3.1l-.6.8zm-94.3-2.9l-.6-.8c1.3-1 2.6-2 4-2.9l.5.8c-1.3.9-2.6 1.9-3.9 2.9zm86.6-3c-1.4-.9-2.7-1.8-4.1-2.6l.5-.8c1.4.8 2.8 1.7 4.2 2.6l-.6.8zm-78.5-2.4l-.5-.8c1.4-.8 2.9-1.6 4.3-2.3l.4.9c-1.4.6-2.8 1.4-4.2 2.2zm70-2.5c-1.4-.7-2.9-1.4-4.4-2l.4-.9c1.5.6 3 1.3 4.5 2l-.5.9zM80 42.1l-.4-.9c1.5-.6 3.1-1.2 4.6-1.7l.3.9c-1.5.4-3 1.1-4.5 1.7zm52.3-1.9c-1.5-.5-3.1-1-4.7-1.4l.2-.9c1.6.4 3.2.9 4.7 1.4l-.2.9zm-43.1-1.3l-.3-.9c1.6-.4 3.2-.8 4.8-1.1l.2 1c-1.6.2-3.2.6-4.7 1zm33.7-1.1c-1.6-.3-3.2-.6-4.8-.8l.1-1c1.6.2 3.3.5 4.9.8l-.2 1zM98.7 37l-.1-1c1.6-.2 3.3-.4 4.9-.5l.1 1c-1.7.2-3.3.3-4.9.5zm14.6-.5c-1.6-.1-3.2-.2-4.7-.2h-.1v-1h.1c1.6 0 3.2 0 4.8.2l-.1 1z"/><linearGradient id="SVGID_6_" gradientUnits="userSpaceOnUse" x1="139.257" y1="178.141" x2="66.797" y2="13.641" gradientTransform="matrix(1 0 0 -1 0 220)"><stop offset="0" stop-color="#fff"/><stop offset="0" stop-color="#f7fcfe"/><stop offset=".05" stop-color="#dbe2e6"/><stop offset=".15" stop-color="#94a0a8"/><stop offset=".15" stop-color="#929ea6"/><stop offset=".22" stop-color="#95a0a8"/><stop offset=".26" stop-color="#9da8b0"/><stop offset=".3" stop-color="#abb5bc"/><stop offset=".33" stop-color="#bfc8ce"/><stop offset=".36" stop-color="#d9e0e4"/><stop offset=".38" stop-color="#f7fcfe"/><stop offset=".5" stop-color="#b0b7bd"/><stop offset=".58" stop-color="#7f8891"/><stop offset=".63" stop-color="#6d7680"/><stop offset=".67" stop-color="#868f99"/><stop offset=".73" stop-color="#a2abb6"/><stop offset=".78" stop-color="#b4bdc8"/><stop offset=".82" stop-color="#bac3ce"/><stop offset="1" stop-color="#fff"/></linearGradient><path class="st6" d="M116.9 159.7c-.1-.7.3-1.4 1-1.5.7-.1 1.4.3 1.5 1 .1.7-.3 1.4-1 1.5h-.2c-.7 0-1.2-.4-1.3-1zm5-1.1c-.2-.7.2-1.4.9-1.6.7-.2 1.4.2 1.6.9.2.7-.2 1.4-.9 1.6-.1 0-.2 0-.4.1-.5 0-1-.4-1.2-1zm4.9-1.6c-.3-.7 0-1.4.7-1.7.7-.3 1.4 0 1.7.7.3.7 0 1.4-.7 1.7-.2.1-.3.1-.5.1-.5 0-1-.3-1.2-.8zm4.8-2.1c-.3-.6-.1-1.4.5-1.7.6-.3 1.4-.1 1.8.5.3.6.1 1.4-.5 1.7-.2.1-.4.2-.6.2-.6 0-1-.2-1.2-.7zm4.4-2.5c-.4-.6-.2-1.4.3-1.8.6-.4 1.4-.2 1.8.3.4.6.3 1.4-.3 1.8-.2.2-.5.2-.7.2-.4.1-.9-.1-1.1-.5zm4.2-3c-.5-.5-.4-1.4.2-1.8.5-.5 1.3-.4 1.8.1s.4 1.3-.1 1.8c-.2.2-.5.3-.8.3-.5.1-.8-.1-1.1-.4zm3.9-3.4c-.5-.5-.5-1.3 0-1.8s1.3-.5 1.8 0 .5 1.3 0 1.8c-.2.2-.6.4-.9.4-.4 0-.7-.2-.9-.4zm3.5-3.8c-.6-.4-.7-1.2-.2-1.8.4-.6 1.2-.7 1.8-.2.6.4.7 1.2.2 1.8-.2.3-.6.5-1 .5-.3-.1-.6-.2-.8-.3zm3-4.2c-.6-.4-.8-1.2-.4-1.8.4-.6 1.2-.8 1.8-.4.6.4.8 1.2.4 1.8-.2.4-.7.6-1.1.6-.2 0-.4-.1-.7-.2zm2.7-4.4c-.6-.3-.9-1.1-.6-1.7.3-.6 1.1-.9 1.7-.6.6.3.9 1.1.6 1.7-.2.4-.7.7-1.1.7-.2 0-.4 0-.6-.1zm2.1-4.7c-.7-.3-1-1-.8-1.7.3-.7 1-1 1.7-.8.7.3 1 1 .8 1.7-.2.5-.7.8-1.2.8-.2.1-.3.1-.5 0zm1.7-4.9c-.7-.2-1.1-.9-.9-1.6.2-.7.9-1.1 1.6-.9.7.2 1.1.9.9 1.5-.1.6-.7 1-1.3 1-.1.1-.2.1-.3 0zm1.2-5c-.7-.1-1.2-.7-1.1-1.4.1-.7.8-1.2 1.5-1.1.7.1 1.2.8 1.1 1.4-.1.6-.6 1.1-1.3 1.1h-.2zm.6-5.1c-.7 0-1.3-.6-1.2-1.3 0-.7.6-1.3 1.3-1.2.7 0 1.3.6 1.2 1.3 0 .7-.6 1.2-1.3 1.2zm-101-2.5c0-.7.6-1.3 1.3-1.3.7 0 1.3.5 1.3 1.2s-.5 1.3-1.3 1.3c-.7.1-1.3-.5-1.3-1.2zm1.3-3.9c-.7-.1-1.2-.7-1.2-1.4.1-.7.7-1.2 1.4-1.2.7.1 1.2.7 1.2 1.4-.1.7-.6 1.2-1.3 1.2h-.1zm.6-5.1c-.7-.1-1.1-.8-1-1.5.2-.7.8-1.1 1.5-1 .7.1 1.1.8 1 1.5-.1.6-.6 1.1-1.3 1.1l-.2-.1zm1.1-5c-.7-.2-1.1-.9-.9-1.6.2-.7.9-1.1 1.6-.9.7.2 1.1.9.9 1.6-.2.5-.7.9-1.2.9h-.4zm1.6-4.9c-.7-.3-1-1-.7-1.7.3-.7 1-1 1.7-.7.7.3 1 1 .7 1.7-.2.5-.7.8-1.2.8-.2 0-.3-.1-.5-.1zm2.1-4.7c-.6-.3-.9-1.1-.5-1.7V86c.3-.6 1.1-.9 1.8-.5.6.3.8 1.1.5 1.8-.2.4-.7.7-1.1.7-.3-.1-.5-.2-.7-.2zm2.6-4.5c-.6-.4-.7-1.2-.3-1.8.4-.6 1.2-.7 1.8-.3.6.4.7 1.1.3 1.7-.2.3-.6.5-1 .6-.3 0-.6-.1-.8-.2zm3-4.1c-.5-.5-.6-1.3-.1-1.8s1.3-.6 1.8-.1.6 1.3.2 1.8c-.2.3-.6.5-1 .5-.4-.2-.7-.3-.9-.4zm3.4-3.9c-.5-.5-.5-1.3 0-1.8s1.3-.5 1.8 0 .5 1.3 0 1.8c-.2.2-.6.4-.9.4-.3-.1-.6-.2-.9-.4zm3.8-3.5c-.4-.6-.3-1.4.2-1.8.6-.4 1.4-.3 1.8.2.4.5.3 1.3-.2 1.7-.2.2-.5.3-.8.3-.3.1-.7-.1-1-.4zm4.2-3c-.4-.6-.2-1.4.4-1.8.6-.4 1.4-.2 1.8.4.4.6.2 1.4-.4 1.8-.2.1-.4.2-.7.2-.4 0-.8-.3-1.1-.6zm4.4-2.6c-.3-.6-.1-1.4.6-1.7.6-.3 1.4 0 1.7.6.3.6.1 1.4-.6 1.7-.2.1-.4.1-.6.1-.4 0-.8-.4-1.1-.7zm4.8-2.2c-.2-.7.1-1.4.8-1.7.7-.2 1.4.1 1.7.8.2.7-.1 1.4-.8 1.7-.1.1-.3.1-.4.1-.6-.1-1.1-.4-1.3-.9zm4.9-1.7c-.2-.7.3-1.4.9-1.6.7-.2 1.4.2 1.6.9.2.7-.2 1.4-.9 1.6H97c-.7.1-1.2-.3-1.3-.9zm5-1.1c-.1-.7.4-1.4 1.1-1.5.7-.1 1.4.4 1.5 1.1.1.7-.4 1.4-1.1 1.5h-.2c-.7 0-1.2-.5-1.3-1.1zm5.1-.6c0-.7.5-1.3 1.2-1.3s1.3.5 1.3 1.2-.5 1.3-1.2 1.3h-.1c-.6 0-1.2-.5-1.2-1.2zm-1 16.4l4.2 7.5 4.4-7.4-8.6-.1zm8.6 66.2l-4.2-7.5-4.4 7.4 8.6.1zm-25-42c-3.5 0-6.3-2.8-6.3-6.3s2.8-6.3 6.3-6.3 6.3 2.8 6.3 6.3c0 3.4-2.8 6.3-6.3 6.3 0 0-.1 0 0 0zm0-9.5c-1.7 0-3.1 1.4-3.1 3.1s1.4 3.1 3.1 3.1 3.1-1.4 3.1-3.1c0-1.7-1.4-3.1-3.1-3.1zm12-2.9h-3.2v12h3.2v-12zm-7.1 14.7h-3.2v12h3.2v-12zm-6.1 0H84v12h3.2v-12zm21.9-2.3c-3.5 0-6.3-2.8-6.3-6.3s2.8-6.3 6.3-6.3 6.3 2.8 6.3 6.3c0 3.4-2.8 6.3-6.3 6.3zm0-9.5c-1.7 0-3.1 1.4-3.1 3.1s1.4 3.1 3.1 3.1 3.1-1.4 3.1-3.1c0-1.7-1.4-3.1-3.1-3.1zm-7 24.1c-3.5 0-6.3-2.8-6.3-6.3s2.8-6.3 6.3-6.3 6.3 2.8 6.3 6.3-2.8 6.4-6.3 6.3c0 .1 0 .1 0 0zm0-9.4c-1.7 0-3.1 1.4-3.1 3.1 0 1.7 1.4 3.1 3.1 3.1 1.7 0 3.1-1.4 3.1-3.1 0-1.7-1.4-3.1-3.1-3.1zm12-2.9h-3.2v12h3.2v-12zm8.7 12.3c-3.5 0-6.3-2.8-6.3-6.3s2.8-6.3 6.3-6.3 6.3 2.8 6.3 6.3-2.8 6.3-6.3 6.3zm0-9.4c-1.7 0-3.1 1.4-3.1 3.1 0 1.7 1.4 3.1 3.1 3.1 1.7 0 3.1-1.4 3.1-3.1 0-1.7-1.4-3-3.1-3.1zm12.2-2.9h-3.2v12h3.2v-12zm-4.9-2.3c-3.5 0-6.3-2.8-6.3-6.4 0-3.5 2.8-6.3 6.4-6.3 3.5 0 6.3 2.8 6.3 6.3 0 3.6-2.9 6.4-6.4 6.4zm0-9.5c-1.7 0-3.1 1.4-3.1 3.1 0 1.7 1.4 3.1 3.1 3.1 1.7 0 3.1-1.4 3.1-3.1.1-1.7-1.3-3.1-3.1-3.1zm-9-2.9h-3.2v12h3.2v-12zm-32.5 42.5c-3.5 0-6.3-2.8-6.3-6.3s2.8-6.3 6.3-6.3 6.3 2.8 6.3 6.3c0 3.4-2.8 6.3-6.3 6.3zm0-9.5c-1.7 0-3.1 1.4-3.1 3.1s1.4 3.1 3.1 3.1 3.1-1.4 3.1-3.1c0-1.7-1.4-3.1-3.1-3.1zm11.8-2.9h-3.2v12h3.2v-12zm8.7 12.4c-3.5 0-6.3-2.8-6.3-6.3s2.8-6.3 6.3-6.3 6.3 2.8 6.3 6.3c0 3.4-2.8 6.3-6.3 6.3zm0-9.5c-1.7 0-3.1 1.4-3.1 3.1s1.4 3.1 3.1 3.1 3.1-1.4 3.1-3.1c0-1.7-1.4-3.1-3.1-3.1zm14.3 9.5c-3.5 0-6.3-2.8-6.3-6.4 0-3.5 2.8-6.3 6.4-6.3 3.5 0 6.3 2.8 6.3 6.3-.1 3.5-2.9 6.4-6.4 6.4zm0-9.5c-1.7 0-3.1 1.4-3.1 3.1s1.4 3.1 3.1 3.1 3.1-1.4 3.1-3.1c0-1.7-1.4-3.1-3.1-3.1zm11.6-2.9h-3.2v12h3.2v-12zm-21.3 32.6c-1.1.1-2.3.2-3.4.2l-.1-3.4c1 0 2.1-.1 3.1-.2l.7-.1.4 3.3-.7.2zm4.8-.8l-.8-3.3c1.2-.3 2.5-.7 3.7-1.1l1.1 3.2c-1.3.5-2.6.9-4 1.2zm-12.4 1c-1.4-.1-2.8-.3-4.1-.5l.6-3.3c1.2.2 2.5.4 3.8.4l-.3 3.4zm20.3-3.7l-1.4-3c1.2-.5 2.3-1.1 3.4-1.8l1.7 2.9c-1.2.6-2.5 1.3-3.7 1.9zm-28.5 2.3c-1.4-.4-2.7-.8-4-1.3l1.2-3.1c1.2.5 2.4.9 3.6 1.2l-.8 3.2zm35.7-6.6l-2-2.7 3-2.4 2.3 2.5c-1.1.9-2.2 1.8-3.3 2.6zm-43.5 3.6c-1.2-.6-2.4-1.3-3.6-2.1l1.8-2.8c1.1.7 2.2 1.3 3.3 1.9l-1.5 3zm49.6-9.2l-2.5-2.2c.9-.9 1.7-1.9 2.4-3l2.7 2c-.8 1.1-1.7 2.2-2.6 3.2zm-56.6 4.7C82 141.9 81 141 80 140l2.3-2.4c.9.9 1.9 1.7 2.9 2.5l-2.1 2.7zm61.5-11.4l-2.9-1.7c.7-1.1 1.2-2.2 1.8-3.4l3.1 1.4c-.6 1.3-1.2 2.5-2 3.7zm3.5-7.6l-3.1-1.1c.4-1.2.8-2.4 1.1-3.7l3.3.8c-.4 1.4-.8 2.7-1.3 4zm1.9-8.1l-3.3-.4c.2-1.3.3-2.5.3-3.8l3.4.1c-.1 1.4-.2 2.8-.4 4.1zm-79-1.8l-3.3.3c-.1-1.4-.2-2.8-.2-4.2h3.4c0 1.3 0 2.6.1 3.9zm0-7.7l-3.3-.4c.2-1.4.4-2.8.7-4.1l3.3.7c-.3 1.3-.5 2.6-.7 3.8zm1.6-7.4l-3.2-1c.5-1.3 1-2.6 1.6-3.9l3.1 1.3-1.5 3.6zm64.9-13.5c-.8-1-1.6-1.9-2.5-2.8l2.3-2.5c1 .9 2 2 2.9 3l-2.7 2.3zm-61.7 6.5l-2.9-1.7c.7-1.2 1.4-2.4 2.2-3.5l2.8 1.9c-.8 1.1-1.5 2.1-2.1 3.3zM132 80.1c-1-.8-2.1-1.5-3.2-2.2l1.8-2.9c1.2.7 2.3 1.5 3.4 2.4l-2 2.7zm-51.8 5.4l-2.6-2.2c.9-1 1.9-2.1 2.9-3l2.3 2.4c-.9.9-1.8 1.8-2.6 2.8zm45.3-9.4c-1.2-.6-2.3-1.1-3.5-1.5l1.2-3.2c1.3.5 2.6 1 3.9 1.6l-1.6 3.1zm-39.8 4.1l-2.1-2.7c1.1-.9 2.2-1.6 3.4-2.4l1.8 2.9c-1 .7-2.1 1.5-3.1 2.2zm32.6-6.7c-1.2-.3-2.5-.6-3.8-.8l.5-3.3c1.4.2 2.7.5 4.1.8l-.8 3.3zm-26.1 2.7l-1.5-3c1.2-.6 2.5-1.2 3.8-1.6l1.2 3.2c-1.2.3-2.4.8-3.5 1.4zm18.6-3.8c-1.3-.1-2.6-.1-3.8 0l-.2-3.4c1.4-.1 2.8-.1 4.2 0l-.2 3.4zm-11.4 1.1l-.8-3.3c1.3-.3 2.7-.6 4.1-.8l.5 3.3c-1.3.3-2.6.5-3.8.8zm8 84.7c-21.4-.8-39.6-15.7-44.7-36.4l11.7 7.8 1.8-2.7-16.1-10.7-9.5 16.9 2.8 1.6 6.4-11.3c5.7 21.8 25 37.3 47.6 38.1h.1c.9-.1 1.6-.9 1.5-1.7-.2-.9-.8-1.5-1.6-1.6zm57.7-71.5L158.7 98c-5.5-21.2-23.9-36.5-45.8-38-.9-.1-1.7.5-1.8 1.4-.1.9.5 1.7 1.4 1.8h.1c20.8 1.4 38.2 16.1 43.1 36.4L144 91.8l-1.8 2.7 16.1 10.7 9.5-16.9-2.7-1.6z"/></svg>