<svg xmlns="http://www.w3.org/2000/svg" viewBox="0 0 37 37"><defs><style>.cls-1{fill:#232323;}</style></defs><title>Ресурс 15</title><g id="Слой_2" data-name="Слой 2"><g id="контент"><path class="cls-1" d="M4.63,0H37V34a3,3,0,0,1-3,3H3a2.88,2.88,0,0,1-2.12-.87A2.88,2.88,0,0,1,0,34V4.63H3.08V6.17H1.54V34A1.39,1.39,0,0,0,2,35a1.39,1.39,0,0,0,1,.43H34A1.48,1.48,0,0,0,35.46,34V1.54H6.17V32.38H4.63V0ZM9.25,6.17V4.63H21.58V6.17Zm0,7.71V12.33H32.38v1.54Zm0,7.71V20h18.5v1.54Zm0,7.71V27.75H32.38v1.54Z"/></g></g></svg>