<svg xmlns="http://www.w3.org/2000/svg" viewBox="0 0 59 59"><defs><style>.cls-1{fill:#e58700;}</style></defs><title>Ресурс 3</title><g id="Слой_2" data-name="Слой 2"><g id="контент"><path class="cls-1" d="M54.79,16.86,59,59H0L4.21,16.86h8.43v-.53A15.72,15.72,0,0,1,17.45,4.81,15.72,15.72,0,0,1,29,0H30A15.72,15.72,0,0,1,41.55,4.81a15.72,15.72,0,0,1,4.81,11.52v.53Zm-50,37.93H54.26L51,21.07H46.36v4.74a4.21,4.21,0,1,1-4.21,0V21.07H16.86v4.74a4.21,4.21,0,0,1-2.11,7.9,4.24,4.24,0,0,1-2.11-7.9V21.07H8ZM16.86,16.33v.53H42.14v-.53a11.67,11.67,0,0,0-3.56-8.56A11.67,11.67,0,0,0,30,4.21H29a11.67,11.67,0,0,0-8.56,3.56A11.67,11.67,0,0,0,16.86,16.33Z"/></g></g></svg>