<?xml version="1.0" standalone="no"?><!DOCTYPE svg PUBLIC "-//W3C//DTD SVG 1.1//EN" "http://www.w3.org/Graphics/SVG/1.1/DTD/svg11.dtd" ><svg xmlns="http://www.w3.org/2000/svg"><metadata></metadata><defs><font id="TheHoeflerTypeFoundry,Inc: Gotham Pro Light: 2007" horiz-adv-x="2412"><font-face font-family="Gotham Pro Light" font-weight="400" font-stretch="normal" units-per-em="2048" panose-1="2 0 5 3 3 0 0 2 0 4" ascent="1839" descent="-478" x-height="4" bbox="-37 -334 2310 1839" underline-thickness="40" underline-position="-251" unicode-range="U+0000-e000" /><missing-glyph horiz-adv-x="748" d="M68 0 l0 1365 l544 0 l0 -1365 l-544 0 ZM136 68 l408 0 l0 1229 l-408 0 l0 -1229 Z" /><glyph glyph-name=".null" unicode="" d="" /><glyph glyph-name="nonmarkingreturn" unicode="" d="" /><glyph glyph-name="space" unicode=" " d="" /><glyph glyph-name="exclam" unicode="!" d="M190 0 l0 174 l136 0 l0 -174 l-136 0 ZM199 1290 l0 144 l118 0 l0 -144 l-30 -915 l-58 0 l-30 915 Z" /><glyph glyph-name="quotedbl" unicode="&quot;" d="M139 913 l72 521 l133 0 l0 -11 l-145 -510 l-60 0 ZM508 913 l72 521 l133 0 l0 -11 l-146 -510 l-59 0 Z" /><glyph glyph-name="numbersign" unicode="#" d="M100 383 l0 96 l265 0 l84 484 l-267 0 l0 96 l283 0 l63 375 l99 0 l-64 -375 l424 0 l64 375 l98 0 l-64 -375 l246 0 l0 -96 l-262 0 l-84 -484 l264 0 l0 -96 l-280 0 l-66 -383 l-98 0 l65 383 l-424 0 l-65 -383 l-98 0 l65 383 l-248 0 ZM463 479 l424 0 l84 484 l-424 0 l-84 -484 Z" /><glyph glyph-name="dollar" unicode="$" d="M123 221 l67 80 q99 -93 200.5 -144 q101.5 -51 221.5 -61 l0 582 q-231 51 -332.5 141.5 q-101.5 90.5 -101.5 245.5 q0 154 121.5 259.5 q121.5 105.5 308.5 109.5 l0 118 l99 0 l0 -122 q114 -9 207 -50 q93 -41 188 -118 l-68 -80 q-151 134 -332 155 l0 -575 q233 -49 338 -141 q105 -92 105 -244 q0 -161 -122 -265 q-122 -104 -316 -112 l0 -201 l-99 0 l0 203 q-265 23 -485 219 ZM283 1069 q0 -107 69.5 -173.5 q69.5 -66.5 259.5 -113.5 l0 559 q-147 -3 -238 -80.5 q-91 -77.5 -91 -191.5 ZM702 92 q152 4 245 82.5 q93 78.5 93 198.5 q0 73 -27.5 122.5 q-27.5 49.5 -102.5 90.5 q-75 41 -208 71 l0 -565 Z" /><glyph glyph-name="percent" unicode="%" d="M113 1083 q0 97 39 180.5 q39 83.5 112.5 135 q73.5 51.5 165.5 51.5 q137 0 225 -108.5 q88 -108.5 88 -258.5 q0 -149 -89 -257.5 q-89 -108.5 -228 -108.5 q-137 0 -225 107.5 q-88 107.5 -88 258.5 ZM219 1083 q0 -120 61.5 -199 q61.5 -79 149.5 -79 q90 0 148.5 79.5 q58.5 79.5 58.5 198.5 q0 119 -62 199 q-62 80 -149 80 q-90 0 -148.5 -81 q-58.5 -81 -58.5 -198 ZM262 0 l1053 1434 l110 0 l-1052 -1434 l-111 0 ZM944 350 q0 149 89.5 258 q89.5 109 228.5 109 q137 0 225 -108.5 q88 -108.5 88 -258.5 q0 -149 -89.5 -257.5 q-89.5 -108.5 -228.5 -108.5 q-137 0 -225 107.5 q-88 107.5 -88 258.5 ZM1051 350 q0 -120 61.5 -199 q61.5 -79 149.5 -79 q90 0 148 79.5 q58 79.5 58 198.5 q0 119 -62 199 q-62 80 -149 80 q-89 0 -147.5 -81 q-58.5 -81 -58.5 -198 Z" /><glyph glyph-name="ampersand" unicode="&amp;" d="M100 381 q0 142 96 248 q96 106 275 172 q-86 95 -123 169 q-37 74 -37 163 q0 139 101.5 232 q101.5 93 257.5 93 q139 0 234 -91.5 q95 -91.5 95 -223.5 q0 -249 -352 -371 l377 -387 q97 135 186 348 l97 -39 q-109 -242 -213 -381 l264 -272 l-84 -70 l-248 256 q-211 -247 -485 -247 q-191 0 -316 112 q-125 112 -125 289 ZM207 381 q0 -132 95 -220.5 q95 -88.5 241 -88.5 q222 0 415 225 l-423 438 q-164 -57 -246 -149.5 q-82 -92.5 -82 -204.5 ZM418 1133 q0 -68 35.5 -131 q35.5 -63 130.5 -164 q309 99 309 305 q0 95 -65 160 q-65 65 -162 65 q-108 0 -178 -67 q-70 -67 -70 -168 Z" /><glyph glyph-name="quotesingle" unicode="&#39;" d="M139 913 l72 521 l133 0 l0 -11 l-145 -510 l-60 0 Z" /><glyph glyph-name="parenleft" unicode="(" d="M145 588 q0 274 147 497 q147 223 421 379 l43 -67 q-504 -310 -504 -809 q0 -499 504 -809 l-43 -68 q-274 156 -421 379 q-147 223 -147 498 Z" /><glyph glyph-name="parenright" unicode=")" d="M125 -221 q504 310 504 809 q0 499 -504 809 l43 67 q274 -156 420.5 -378.5 q146.5 -222.5 146.5 -497.5 q0 -275 -146.5 -498 q-146.5 -223 -420.5 -379 l-43 68 Z" /><glyph glyph-name="asterisk" unicode="*" d="M154 1020 l241 115 l-241 114 l45 76 l217 -147 l-19 260 l86 0 l-18 -260 l217 147 l45 -76 l-242 -114 l242 -115 l-45 -76 l-217 148 l18 -261 l-86 0 l19 261 l-217 -148 l-45 76 Z" /><glyph glyph-name="plus" unicode="+" d="M160 672 l0 98 l444 0 l0 440 l103 0 l0 -440 l444 0 l0 -98 l-444 0 l0 -441 l-103 0 l0 441 l-444 0 Z" /><glyph glyph-name="comma" unicode="," d="M109 -168 q62 31 88 65 q26 34 26 85 l0 18 l-55 0 l0 174 l135 0 l0 -151 q0 -95 -39 -151 q-39 -56 -131 -91 l-24 51 Z" /><glyph glyph-name="hyphen" unicode="-" d="M143 551 l0 115 l549 0 l0 -115 l-549 0 Z" /><glyph glyph-name="period" unicode="." d="M168 0 l0 174 l135 0 l0 -174 l-135 0 Z" /><glyph glyph-name="slash" unicode="/" d="M-37 -262 l967 1896 l100 0 l-967 -1896 l-100 0 Z" /><glyph glyph-name="zero" unicode="0" d="M133 717 q0 148 42.5 282.5 q42.5 134.5 118 236 q75.5 101.5 189 162 q113.5 60.5 246.5 60.5 q133 0 245.5 -59.5 q112.5 -59.5 187.5 -161 q75 -101.5 117 -236 q42 -134.5 42 -284.5 q0 -148 -42.5 -282.5 q-42.5 -134.5 -118 -236.5 q-75.5 -102 -189 -162.5 q-113.5 -60.5 -246.5 -60.5 q-133 0 -245.5 60 q-112.5 60 -187.5 161.5 q-75 101.5 -117 236 q-42 134.5 -42 284.5 ZM244 717 q0 -125 34.5 -241 q34.5 -116 96 -206 q61.5 -90 154 -144 q92.5 -54 200.5 -54 q108 0 200 53.5 q92 53.5 152.5 143 q60.5 89.5 94.5 206 q34 116.5 34 242.5 q0 125 -34.5 241.5 q-34.5 116.5 -96 206 q-61.5 89.5 -154 143.5 q-92.5 54 -200.5 54 q-87 0 -164 -34.5 q-77 -34.5 -134 -95.5 q-57 -61 -99 -142 q-42 -81 -63 -176.5 q-21 -95.5 -21 -196.5 Z" /><glyph glyph-name="one" unicode="1" d="M61 1323 l328 121 l82 0 l0 -1444 l-104 0 l0 1333 l-277 -94 l-29 84 Z" /><glyph glyph-name="two" unicode="2" d="M98 0 l0 80 l535 483 q178 162 247.5 269 q69.5 107 69.5 221 q0 136 -95 221.5 q-95 85.5 -228 85.5 q-131 0 -228.5 -65 q-97.5 -65 -191.5 -201 l-80 53 q50 76 98 129 q48 53 108.5 95 q60.5 42 136 62.5 q75.5 20.5 167.5 20.5 q183 0 304.5 -113.5 q121.5 -113.5 121.5 -283.5 q0 -74 -19.5 -137 q-19.5 -63 -66.5 -130.5 q-47 -67.5 -109 -132.5 q-62 -65 -163 -157 l-439 -398 l811 0 l0 -102 l-979 0 Z" /><glyph glyph-name="three" unicode="3" d="M111 233 l82 68 q182 -229 446 -229 q150 0 252 90 q102 90 102 231 q0 147 -123.5 229.5 q-123.5 82.5 -322.5 82.5 l-78 0 l-27 59 l494 569 l-752 0 l0 101 l897 0 l0 -76 l-485 -555 q76 -5 145.5 -21 q69.5 -16 136.5 -48.5 q67 -32.5 116.5 -77.5 q49.5 -45 79.5 -113 q30 -68 30 -150 q0 -121 -65 -218 q-65 -97 -171.5 -148.5 q-106.5 -51.5 -230.5 -51.5 q-168 0 -301 69 q-133 69 -225 189 Z" /><glyph glyph-name="four" unicode="4" d="M98 430 l820 1014 l96 0 l0 -1002 l233 0 l0 -92 l-233 0 l0 -350 l-103 0 l0 350 l-776 0 l-37 80 ZM227 442 l684 0 l0 848 l-684 -848 Z" /><glyph glyph-name="five" unicode="5" d="M117 207 l76 76 q211 -211 430 -211 q168 0 276.5 104.5 q108.5 104.5 108.5 259.5 q0 149 -110.5 244.5 q-110.5 95.5 -283.5 95.5 q-158 0 -323 -90 l-82 53 l41 695 l805 0 l0 -103 l-711 0 l-35 -536 q157 77 318 77 q210 0 350.5 -122 q140.5 -122 140.5 -314 q0 -202 -141.5 -331.5 q-141.5 -129.5 -358.5 -129.5 q-138 0 -269 64.5 q-131 64.5 -232 167.5 Z" /><glyph glyph-name="six" unicode="6" d="M175 339.5 q-44 126.5 -44 342.5 q0 216 71 392 q71 176 205 280 q134 104 308 104 q117 0 214.5 -42 q97.5 -42 198.5 -124 l-67 -82 q-87 76 -171.5 114 q-84.5 38 -182.5 38 q-211 0 -340 -196.5 q-129 -196.5 -129 -512.5 l0 -35 q158 267 448 267 q130 0 242.5 -54.5 q112.5 -54.5 182 -156.5 q69.5 -102 69.5 -228 q0 -133 -66 -241 q-66 -108 -181 -169 q-115 -61 -255 -61 q-108 0 -203.5 39 q-95.5 39 -161.5 105 q-94 94 -138 220.5 ZM281 432 q0 -154 116 -257 q116 -103 289 -103 q170 0 276.5 107.5 q106.5 107.5 106.5 266.5 q0 149 -110 247 q-110 98 -279 98 q-86 0 -161.5 -31 q-75.5 -31 -127 -81 q-51.5 -50 -81 -115 q-29.5 -65 -29.5 -132 Z" /><glyph glyph-name="seven" unicode="7" d="M139 1331 l0 103 l951 0 l0 -78 l-654 -1356 l-117 0 l652 1331 l-832 0 Z" /><glyph glyph-name="eight" unicode="8" d="M113 387 q0 121 88 214.5 q88 93.5 229 139.5 q-118 48 -193 132.5 q-75 84.5 -75 205.5 q0 108 69 195 q69 87 179 133.5 q110 46.5 235 46.5 q125 0 234.5 -46.5 q109.5 -46.5 179 -134.5 q69.5 -88 69.5 -198 q0 -119 -75 -202.5 q-75 -83.5 -193 -131.5 q142 -46 230 -140 q88 -94 88 -218 q0 -117 -70.5 -209.5 q-70.5 -92.5 -192 -143 q-121.5 -50.5 -270.5 -50.5 q-228 0 -380 114 q-152 114 -152 293 ZM223 379 q0 -127 115.5 -215 q115.5 -88 306.5 -88 q192 0 307 89 q115 89 115 218 q0 132 -122.5 219.5 q-122.5 87.5 -299.5 87.5 q-177 0 -299.5 -88 q-122.5 -88 -122.5 -223 ZM272 1075 q0 -129 108.5 -212 q108.5 -83 264.5 -83 q156 0 264.5 83.5 q108.5 83.5 108.5 215.5 q0 121 -107.5 200 q-107.5 79 -265.5 79 q-158 0 -265.5 -80 q-107.5 -80 -107.5 -203 Z" /><glyph glyph-name="nine" unicode="9" d="M135 977 q0 202 142 341.5 q142 139.5 362 139.5 q220 0 365 -145 q88 -88 134 -221.5 q46 -133.5 46 -341.5 q0 -222 -76 -399.5 q-76 -177.5 -209.5 -276.5 q-133.5 -99 -298.5 -99 q-124 0 -227.5 47 q-103.5 47 -204.5 132 l68 82 q182 -164 366 -164 q209 0 342 193 q133 193 133 497 l0 49 q-154 -276 -446 -276 q-215 0 -355.5 126.5 q-140.5 126.5 -140.5 315.5 ZM246 977 q0 -151 109.5 -249.5 q109.5 -98.5 279.5 -98.5 q89 0 165 31.5 q76 31.5 126.5 83.5 q50.5 52 79 118 q28.5 66 28.5 135 q0 154 -115.5 259.5 q-115.5 105.5 -291.5 105.5 q-86 0 -158.5 -31.5 q-72.5 -31.5 -120.5 -85 q-48 -53.5 -75 -123 q-27 -69.5 -27 -145.5 Z" /><glyph glyph-name="colon" unicode=":" d="M178 0 l0 174 l135 0 l0 -174 l-135 0 ZM178 870 l0 174 l135 0 l0 -174 l-135 0 Z" /><glyph glyph-name="semicolon" unicode=";" d="M119 -168 q62 31 88 65 q26 34 26 85 l0 18 l-55 0 l0 174 l135 0 l0 -151 q0 -95 -39 -151 q-39 -56 -131 -91 l-24 51 ZM178 870 l0 174 l135 0 l0 -174 l-135 0 Z" /><glyph glyph-name="less" unicode="&lt;" d="M150 680 l0 82 l950 493 l0 -110 l-826 -422 l826 -426 l0 -111 l-950 494 Z" /><glyph glyph-name="equal" unicode="=" d="M190 438 l0 105 l930 0 l0 -105 l-930 0 ZM190 899 l0 105 l930 0 l0 -105 l-930 0 Z" /><glyph glyph-name="greater" unicode="&gt;" d="M211 186 l0 111 l825 422 l-825 426 l0 110 l950 -493 l0 -82 l-950 -494 Z" /><glyph glyph-name="question" unicode="?" d="M70 1208 q62 77 126.5 128.5 q64.5 51.5 153 83.5 q88.5 32 193.5 32 q198 0 321 -116 q123 -116 123 -287 q0 -92 -34 -167.5 q-34 -75.5 -94 -126 q-60 -50.5 -137.5 -82 q-77.5 -31.5 -168.5 -42.5 l-18 -256 l-66 0 l-27 332 l11 10 q202 4 314 92.5 q112 88.5 112 239.5 q0 130 -93.5 219.5 q-93.5 89.5 -246.5 89.5 q-225 0 -396 -211 l-73 61 ZM434 0 l0 174 l135 0 l0 -174 l-135 0 Z" /><glyph glyph-name="at" unicode="@" d="M109 561 q0 181 70 346 q70 165 189.5 286 q119.5 121 286 193 q166.5 72 351.5 72 q184 0 350.5 -66.5 q166.5 -66.5 284.5 -177 q118 -110.5 187.5 -259 q69.5 -148.5 69.5 -308.5 q0 -126 -33 -224.5 q-33 -98.5 -88 -156 q-55 -57.5 -119 -87 q-64 -29.5 -132 -29.5 q-106 0 -179 50.5 q-73 50.5 -100 139.5 q-72 -89 -155 -139.5 q-83 -50.5 -195 -50.5 q-152 0 -257 102 q-105 102 -105 262 q0 106 42.5 202.5 q42.5 96.5 110 163 q67.5 66.5 153 105.5 q85.5 39 171.5 39 q114 0 189 -51.5 q75 -51.5 116 -130.5 l29 153 l98 -12 l-76 -432 q-18 -108 -18 -148 q0 -87 48 -133.5 q48 -46.5 136 -46.5 q56 0 107 25 q51 25 94 74.5 q43 49.5 68.5 133.5 q25.5 84 25.5 191 q0 140 -63 275 q-63 135 -171 239 q-108 104 -263 168 q-155 64 -326 64 q-174 0 -328.5 -66 q-154.5 -66 -263.5 -178 q-109 -112 -172.5 -265.5 q-63.5 -153.5 -63.5 -322.5 q0 -170 63 -322.5 q63 -152.5 173 -263.5 q110 -111 268 -176 q158 -65 340 -65 q149 0 269 34 q120 34 243 105 l31 -51 q-253 -154 -543 -154 q-129 0 -249.5 32.5 q-120.5 32.5 -220.5 90.5 q-100 58 -183 140.5 q-83 82.5 -140 180.5 q-57 98 -88.5 213 q-31.5 115 -31.5 236 ZM641 522 q0 -128 75 -202 q75 -74 197 -74 q94 0 180 56.5 q86 56.5 137.5 148 q51.5 91.5 51.5 190.5 q0 122 -76.5 203.5 q-76.5 81.5 -193.5 81.5 q-144 0 -257.5 -118.5 q-113.5 -118.5 -113.5 -285.5 Z" /><glyph glyph-name="A" unicode="a" d="M90 0 l668 1444 l102 0 l668 -1444 l-117 0 l-182 401 l-846 0 l-182 -401 l-111 0 ZM428 498 l756 0 l-377 829 l-379 -829 Z" /><glyph glyph-name="B" unicode="b" d="M213 0 l0 1434 l592 0 q211 0 338 -97 q127 -97 127 -260 q0 -70 -21 -128 q-21 -58 -58 -98.5 q-37 -40.5 -77 -67.5 q-40 -27 -88 -46 q324 -85 324 -346 q0 -179 -140.5 -285 q-140.5 -106 -373.5 -106 l-623 0 ZM319 98 l521 0 q185 0 293 79.5 q108 79.5 108 217.5 q0 133 -112.5 206 q-112.5 73 -323.5 73 l-486 0 l0 -576 ZM319 772 l474 0 q166 0 267 78 q101 78 101 221 q0 120 -94.5 192 q-94.5 72 -263.5 72 l-484 0 l0 -563 Z" /><glyph glyph-name="C" unicode="c" d="M150 717 q0 201 91.5 370.5 q91.5 169.5 257 270 q165.5 100.5 367.5 100.5 q93 0 172 -17 q79 -17 146 -51 q67 -34 119.5 -72.5 q52.5 -38.5 113.5 -94.5 l-69 -72 q-104 101 -219 156 q-115 55 -265 55 q-127 0 -239 -50 q-112 -50 -192 -135.5 q-80 -85.5 -126.5 -205 q-46.5 -119.5 -46.5 -254.5 q0 -134 47 -253.5 q47 -119.5 127.5 -205.5 q80.5 -86 193 -136 q112.5 -50 238.5 -50 q149 0 264 55 q115 55 230 168 l72 -70 q-125 -123 -258 -186.5 q-133 -63.5 -312 -63.5 q-201 0 -365 98.5 q-164 98.5 -255.5 268 q-91.5 169.5 -91.5 375.5 Z" /><glyph glyph-name="D" unicode="d" d="M213 0 l0 1434 l477 0 q166 0 309 -55 q143 -55 242 -150.5 q99 -95.5 155 -228 q56 -132.5 56 -283.5 q0 -150 -56 -282 q-56 -132 -155 -228 q-99 -96 -242 -151.5 q-143 -55.5 -309 -55.5 l-477 0 ZM319 98 l371 0 q146 0 269.5 48 q123.5 48 206.5 131.5 q83 83.5 129 197 q46 113.5 46 242.5 q0 127 -46 240 q-46 113 -129 196.5 q-83 83.5 -206.5 132.5 q-123.5 49 -269.5 49 l-371 0 l0 -1237 Z" /><glyph glyph-name="E" unicode="e" d="M213 0 l0 1434 l1020 0 l0 -99 l-914 0 l0 -563 l822 0 l0 -98 l-822 0 l0 -576 l924 0 l0 -98 l-1030 0 Z" /><glyph glyph-name="F" unicode="f" d="M213 0 l0 1434 l1010 0 l0 -99 l-904 0 l0 -587 l811 0 l0 -99 l-811 0 l0 -649 l-106 0 Z" /><glyph glyph-name="G" unicode="g" d="M150 717 q0 145 51 279 q51 134 141.5 236.5 q90.5 102.5 225 164 q134.5 61.5 290.5 61.5 q167 0 288.5 -46.5 q121.5 -46.5 235.5 -141.5 l-69 -80 q-96 83 -203 127.5 q-107 44.5 -258 44.5 q-170 0 -306.5 -88 q-136.5 -88 -211 -235.5 q-74.5 -147.5 -74.5 -321.5 q0 -139 42.5 -257.5 q42.5 -118.5 120.5 -205 q78 -86.5 194 -135.5 q116 -49 257 -49 q130 0 252 46 q122 46 205 117 l0 412 l-479 0 l0 98 l582 0 l0 -553 q-106 -94 -253 -154.5 q-147 -60.5 -311 -60.5 q-166 0 -303 58.5 q-137 58.5 -227.5 159.5 q-90.5 101 -140 236 q-49.5 135 -49.5 288 Z" /><glyph glyph-name="H" unicode="h" d="M213 0 l0 1434 l106 0 l0 -664 l918 0 l0 664 l106 0 l0 -1434 l-106 0 l0 672 l-918 0 l0 -672 l-106 0 Z" /><glyph glyph-name="I" unicode="i" d="M227 0 l0 1434 l107 0 l0 -1434 l-107 0 Z" /><glyph glyph-name="J" unicode="j" d="M76 248 l88 55 q69 -117 149.5 -172 q80.5 -55 202.5 -55 q137 0 224 100.5 q87 100.5 87 282.5 l0 975 l107 0 l0 -967 q0 -242 -131 -373 q-114 -114 -293 -114 q-285 0 -434 268 Z" /><glyph glyph-name="K" unicode="k" d="M213 0 l0 1434 l106 0 l0 -942 l914 942 l145 0 l-626 -633 l653 -801 l-139 0 l-590 725 l-357 -360 l0 -365 l-106 0 Z" /><glyph glyph-name="L" unicode="l" d="M213 0 l0 1434 l106 0 l0 -1336 l842 0 l0 -98 l-948 0 Z" /><glyph glyph-name="M" unicode="m" d="M213 0 l0 1434 l100 0 l576 -848 l575 848 l101 0 l0 -1434 l-107 0 l0 1245 l-567 -825 l-8 0 l-568 825 l0 -1245 l-102 0 Z" /><glyph glyph-name="N" unicode="n" d="M213 0 l0 1434 l100 0 l990 -1248 l0 1248 l102 0 l0 -1434 l-80 0 l-1010 1274 l0 -1274 l-102 0 Z" /><glyph glyph-name="O" unicode="o" d="M150 717 q0 146 52.5 280.5 q52.5 134.5 145 236.5 q92.5 102 229.5 163 q137 61 295 61 q159 0 295 -60.5 q136 -60.5 228 -162 q92 -101.5 144 -236 q52 -134.5 52 -282.5 q0 -146 -52.5 -280.5 q-52.5 -134.5 -145.5 -237 q-93 -102.5 -230 -163.5 q-137 -61 -295 -61 q-159 0 -295 60.5 q-136 60.5 -227.5 162.5 q-91.5 102 -143.5 236.5 q-52 134.5 -52 282.5 ZM260 717 q0 -176 78.5 -323.5 q78.5 -147.5 219.5 -234.5 q141 -87 314 -87 q173 0 313.5 86.5 q140.5 86.5 218 233.5 q77.5 147 77.5 325 q0 131 -46.5 250 q-46.5 119 -127 205.5 q-80.5 86.5 -195 138 q-114.5 51.5 -244.5 51.5 q-173 0 -313 -86.5 q-140 -86.5 -217.5 -233.5 q-77.5 -147 -77.5 -325 Z" /><glyph glyph-name="P" unicode="p" d="M213 0 l0 1434 l520 0 q240 0 386.5 -118 q146.5 -118 146.5 -325 q0 -110 -45 -198 q-45 -88 -122.5 -143.5 q-77.5 -55.5 -177.5 -85 q-100 -29.5 -214 -29.5 l-388 0 l0 -535 l-106 0 ZM319 633 l394 0 q201 0 323.5 97 q122.5 97 122.5 259 q0 166 -118 256 q-118 90 -316 90 l-406 0 l0 -702 Z" /><glyph glyph-name="Q" unicode="q" d="M150 717 q0 146 52.5 280.5 q52.5 134.5 145 236.5 q92.5 102 229.5 163 q137 61 295 61 q159 0 295 -60.5 q136 -60.5 228 -162 q92 -101.5 144 -236 q52 -134.5 52 -282.5 q0 -143 -48.5 -274 q-48.5 -131 -139.5 -232 l205 -172 l-76 -82 l-201 182 q-195 -164 -463 -164 q-159 0 -295 60.5 q-136 60.5 -227.5 162.5 q-91.5 102 -143.5 236.5 q-52 134.5 -52 282.5 ZM260 717 q0 -176 78.5 -323.5 q78.5 -147.5 219.5 -234.5 q141 -87 314 -87 q220 0 381 135 l-278 237 l76 84 l274 -249 q156 183 156 438 q0 131 -46.5 250 q-46.5 119 -127 205.5 q-80.5 86.5 -195 138 q-114.5 51.5 -244.5 51.5 q-173 0 -313 -86.5 q-140 -86.5 -217.5 -233.5 q-77.5 -147 -77.5 -325 Z" /><glyph glyph-name="R" unicode="r" d="M213 0 l0 1434 l602 0 q129 0 233.5 -38 q104.5 -38 170.5 -104 q108 -108 108 -270 q0 -174 -115 -279 q-115 -105 -305 -131 l473 -612 l-135 0 l-457 594 l-469 0 l0 -594 l-106 0 ZM319 690 l484 0 q185 0 301.5 88.5 q116.5 88.5 116.5 243.5 q0 146 -109 229.5 q-109 83.5 -303 83.5 l-490 0 l0 -645 Z" /><glyph glyph-name="S" unicode="s" d="M121 209 l69 80 q122 -112 241 -162.5 q119 -50.5 274 -50.5 q160 0 261 81 q101 81 101 208 q0 80 -32.5 133 q-32.5 53 -122 96 q-89.5 43 -250.5 76 q-259 53 -371.5 147.5 q-112.5 94.5 -112.5 259.5 q0 161 131 269 q131 108 330 108 q152 0 265 -41.5 q113 -41.5 226 -132.5 l-67 -84 q-99 86 -202.5 124 q-103.5 38 -225.5 38 q-156 0 -253 -78.5 q-97 -78.5 -97 -196.5 q0 -81 32.5 -134.5 q32.5 -53.5 125 -99 q92.5 -45.5 259.5 -79.5 q249 -51 360.5 -145 q111.5 -94 111.5 -254 q0 -172 -134 -281.5 q-134 -109.5 -342 -109.5 q-169 0 -307.5 56 q-138.5 56 -269.5 173 Z" /><glyph glyph-name="T" unicode="t" d="M111 1335 l0 99 l1106 0 l0 -99 l-500 0 l0 -1335 l-107 0 l0 1335 l-499 0 Z" /><glyph glyph-name="U" unicode="u" d="M190 596 l0 838 l107 0 l0 -828 q0 -252 128.5 -392 q128.5 -140 356.5 -140 q223 0 350.5 134 q127.5 134 127.5 388 l0 838 l106 0 l0 -826 q0 -302 -160 -466.5 q-160 -164.5 -428 -164.5 q-129 0 -237 41 q-108 41 -186 118 q-78 77 -121.5 194.5 q-43.5 117.5 -43.5 265.5 Z" /><glyph glyph-name="V" unicode="v" d="M90 1434 l119 0 l561 -1319 l563 1319 l113 0 l-631 -1444 l-94 0 l-631 1444 Z" /><glyph glyph-name="W" unicode="w" d="M102 1434 l119 0 l451 -1276 l420 1280 l82 0 l419 -1280 l451 1276 l110 0 l-520 -1444 l-86 0 l-420 1245 l-419 -1245 l-86 0 l-521 1444 Z" /><glyph glyph-name="X" unicode="x" d="M104 0 l572 731 l-551 703 l127 0 l489 -631 l488 631 l125 0 l-549 -701 l569 -733 l-127 0 l-510 662 l-508 -662 l-125 0 Z" /><glyph glyph-name="Y" unicode="y" d="M66 1434 l133 0 l536 -770 l539 770 l127 0 l-615 -865 l0 -569 l-106 0 l0 567 l-614 867 Z" /><glyph glyph-name="Z" unicode="z" d="M139 0 l0 59 l981 1278 l-946 0 l0 97 l1098 0 l0 -60 l-981 -1278 l981 0 l0 -96 l-1133 0 Z" /><glyph glyph-name="bracketleft" unicode="[" d="M201 -266 l0 1700 l559 0 l0 -78 l-465 0 l0 -1544 l465 0 l0 -78 l-559 0 Z" /><glyph glyph-name="backslash" unicode="\" d="M-6 1634 l100 0 l967 -1896 l-100 0 l-967 1896 Z" /><glyph glyph-name="bracketright" unicode="]" d="M121 -188 l465 0 l0 1544 l-465 0 l0 78 l559 0 l0 -1700 l-559 0 l0 78 Z" /><glyph glyph-name="asciicircum" unicode="^" d="M143 1010 l324 430 l90 0 l324 -430 l-109 0 l-262 342 l-262 -342 l-105 0 Z" /><glyph glyph-name="underscore" unicode="_" d="M-4 -238 l1237 0 l0 -90 l-1237 0 l0 90 Z" /><glyph glyph-name="grave" unicode="`" d="M322 1430 l124 61 l181 -272 l-86 0 l-219 211 Z" /><glyph glyph-name="a" unicode="a" d="M104 307 q0 160 125.5 250 q125.5 90 331.5 90 q179 0 346 -45 l0 45 q0 156 -90.5 238 q-90.5 82 -253.5 82 q-162 0 -327 -84 l-37 88 q195 90 370 90 q215 0 330 -115 q107 -107 107 -295 l0 -651 l-99 0 l0 174 q-62 -86 -162 -142.5 q-100 -56.5 -237 -56.5 q-75 0 -146 21.5 q-71 21.5 -129 61.5 q-58 40 -93.5 104.5 q-35.5 64.5 -35.5 144.5 ZM211 309 q0 -110 88.5 -174.5 q88.5 -64.5 214.5 -64.5 q163 0 279 90.5 q116 90.5 116 230.5 l0 119 q-180 47 -354 47 q-163 0 -253.5 -67 q-90.5 -67 -90.5 -181 Z" /><glyph glyph-name="b" unicode="b" d="M190 0 l0 1495 l101 0 l0 -684 q169 258 430 258 q95 0 185.5 -38 q90.5 -38 162.5 -106 q72 -68 116 -173 q44 -105 44 -230 q0 -123 -44 -228 q-44 -105 -116 -173.5 q-72 -68.5 -162.5 -107 q-90.5 -38.5 -185.5 -38.5 q-266 0 -430 250 l0 -225 l-101 0 ZM285 520 q0 -129 61.5 -233.5 q61.5 -104.5 158.5 -159.5 q97 -55 206 -55 q176 0 292.5 121 q116.5 121 116.5 329 q0 100 -33 185.5 q-33 85.5 -89 143 q-56 57.5 -130.5 90 q-74.5 32.5 -156.5 32.5 q-81 0 -158 -33.5 q-77 -33.5 -136.5 -91.5 q-59.5 -58 -95.5 -144 q-36 -86 -36 -184 Z" /><glyph glyph-name="c" unicode="c" d="M119 522 q0 148 70 273.5 q70 125.5 192.5 199.5 q122.5 74 269.5 74 q244 0 416 -195 l-70 -71 q-80 82 -160.5 127 q-80.5 45 -187.5 45 q-114 0 -211 -60.5 q-97 -60.5 -154 -165 q-57 -104.5 -57 -227.5 q0 -189 125 -320.5 q125 -131.5 305 -131.5 q187 0 347 178 l73 -66 q-87 -99 -188.5 -153 q-101.5 -54 -237.5 -54 q-148 0 -270.5 73.5 q-122.5 73.5 -192 199 q-69.5 125.5 -69.5 274.5 Z" /><glyph glyph-name="d" unicode="d" d="M123 522 q0 123 44 228 q44 105 116 173.5 q72 68.5 162.5 107 q90.5 38.5 185.5 38.5 q266 0 430 -250 l0 676 l100 0 l0 -1495 l-100 0 l0 233 q-169 -258 -430 -258 q-95 0 -185.5 38 q-90.5 38 -162.5 106 q-72 68 -116 173 q-44 105 -44 230 ZM231 522 q0 -100 33.5 -185.5 q33.5 -85.5 89.5 -143 q56 -57.5 130.5 -89.5 q74.5 -32 156.5 -32 q81 0 158 33 q77 33 136.5 91 q59.5 58 95.5 144 q36 86 36 184 q0 129 -61.5 233.5 q-61.5 104.5 -158.5 160 q-97 55.5 -206 55.5 q-176 0 -293 -121.5 q-117 -121.5 -117 -329.5 Z" /><glyph glyph-name="e" unicode="e" d="M119 524 q0 112 38 212.5 q38 100.5 103 173.5 q65 73 157.5 116 q92.5 43 196.5 43 q143 0 253.5 -72.5 q110.5 -72.5 168.5 -196.5 q58 -124 58 -278 q0 -25 -2 -41 l-867 0 q13 -188 131.5 -299.5 q118.5 -111.5 278.5 -111.5 q206 0 358 163 l70 -61 q-88 -95 -189.5 -146 q-101.5 -51 -242.5 -51 q-102 0 -195.5 40 q-93.5 40 -163.5 110.5 q-70 70.5 -111.5 174 q-41.5 103.5 -41.5 224.5 ZM225 571 l760 0 q-5 81 -31 152.5 q-26 71.5 -71 129 q-45 57.5 -115.5 91 q-70.5 33.5 -157.5 33.5 q-154 0 -262.5 -116 q-108.5 -116 -122.5 -290 Z" /><glyph glyph-name="f" unicode="f" d="M100 952 l0 92 l152 0 l0 103 q0 180 92 272 q82 82 219 82 q85 0 156 -24 l0 -95 q-89 27 -156 27 q-107 0 -159 -65 q-52 -65 -52 -199 l0 -101 l365 0 l0 -92 l-365 0 l0 -952 l-100 0 l0 952 l-152 0 Z" /><glyph glyph-name="g" unicode="g" d="M123 573 q0 109 43 203.5 q43 94.5 113.5 157.5 q70.5 63 160.5 99 q90 36 185 36 q146 0 255 -65 q109 -65 181 -168 l0 208 l100 0 l0 -882 q0 -222 -133 -355 q-139 -139 -379 -139 q-263 0 -479 160 l59 82 q193 -148 422 -148 q186 0 298 105 q112 105 112 301 l0 151 q-168 -241 -436 -241 q-95 0 -185 35.5 q-90 35.5 -160.5 98 q-70.5 62.5 -113.5 157 q-43 94.5 -43 204.5 ZM231 573 q0 -115 56 -207 q56 -92 148.5 -142 q92.5 -50 199.5 -50 q81 0 159 29 q78 29 138.5 80 q60.5 51 97.5 127.5 q37 76.5 37 164.5 q0 116 -63 209 q-63 93 -161 141 q-98 48 -208 48 q-110 0 -201.5 -47.5 q-91.5 -47.5 -147 -140 q-55.5 -92.5 -55.5 -212.5 Z" /><glyph glyph-name="h" unicode="h" d="M190 0 l0 1495 l101 0 l0 -645 q125 219 377 219 q194 0 305.5 -119 q111.5 -119 111.5 -311 l0 -639 l-100 0 l0 621 q0 163 -88 259.5 q-88 96.5 -244 96.5 q-155 0 -258.5 -105.5 q-103.5 -105.5 -103.5 -267.5 l0 -604 l-101 0 Z" /><glyph glyph-name="i" unicode="i" d="M193 1317 l0 137 l124 0 l0 -137 l-124 0 ZM205 0 l0 1044 l100 0 l0 -1044 l-100 0 Z" /><glyph glyph-name="j" unicode="j" d="M-2 -238 q38 -6 82 -6 q57 0 91 37.5 q34 37.5 34 108.5 l0 1142 l100 0 l0 -1136 q0 -120 -59.5 -181 q-59.5 -61 -163.5 -61 q-43 0 -84 8 l0 88 ZM193 1317 l0 137 l124 0 l0 -137 l-124 0 Z" /><glyph glyph-name="k" unicode="k" d="M190 0 l0 1495 l101 0 l0 -1120 l647 669 l133 0 l-457 -462 l471 -582 l-127 0 l-413 510 l-254 -256 l0 -254 l-101 0 Z" /><glyph glyph-name="l" unicode="l" d="M205 0 l0 1495 l100 0 l0 -1495 l-100 0 Z" /><glyph glyph-name="m" unicode="m" d="M190 0 l0 1044 l101 0 l0 -186 q29 46 58 80 q29 34 70.5 65.5 q41.5 31.5 97 48.5 q55.5 17 122.5 17 q128 0 216.5 -62.5 q88.5 -62.5 135.5 -162.5 q131 225 377 225 q185 0 293 -119 q108 -119 108 -317 l0 -633 l-100 0 l0 621 q0 168 -82 262 q-82 94 -227 94 q-138 0 -234 -100 q-96 -100 -96 -269 l0 -608 l-100 0 l0 627 q0 162 -82.5 256 q-82.5 94 -222.5 94 q-140 0 -237 -108.5 q-97 -108.5 -97 -266.5 l0 -602 l-101 0 Z" /><glyph glyph-name="n" unicode="n" d="M190 0 l0 1044 l101 0 l0 -194 q125 219 377 219 q194 0 305.5 -119 q111.5 -119 111.5 -311 l0 -639 l-100 0 l0 621 q0 163 -88 259.5 q-88 96.5 -244 96.5 q-155 0 -258.5 -105.5 q-103.5 -105.5 -103.5 -267.5 l0 -604 l-101 0 Z" /><glyph glyph-name="o" unicode="o" d="M119 522 q0 109 41 209 q41 100 111 174.5 q70 74.5 171 119 q101 44.5 215 44.5 q151 0 274.5 -74.5 q123.5 -74.5 192 -200 q68.5 -125.5 68.5 -272.5 q0 -146 -69 -271 q-69 -125 -193.5 -200.5 q-124.5 -75.5 -276.5 -75.5 q-113 0 -213 44 q-100 44 -170 118 q-70 74 -110.5 174.5 q-40.5 100.5 -40.5 210.5 ZM227 522 q0 -189 124.5 -320.5 q124.5 -131.5 305.5 -131.5 q114 0 212 60.5 q98 60.5 156 164.5 q58 104 58 227 q0 188 -126 320.5 q-126 132.5 -304 132.5 q-116 0 -214 -60.5 q-98 -60.5 -155 -165 q-57 -104.5 -57 -227.5 Z" /><glyph glyph-name="p" unicode="p" d="M190 -328 l0 1372 l101 0 l0 -233 q169 258 430 258 q95 0 185.5 -38 q90.5 -38 162.5 -106 q72 -68 116 -173 q44 -105 44 -230 q0 -123 -44 -228 q-44 -105 -116 -173.5 q-72 -68.5 -162.5 -107 q-90.5 -38.5 -185.5 -38.5 q-266 0 -430 250 l0 -553 l-101 0 ZM285 520 q0 -129 61.5 -233.5 q61.5 -104.5 158.5 -159.5 q97 -55 206 -55 q176 0 292.5 121 q116.5 121 116.5 329 q0 100 -33 185.5 q-33 85.5 -89 143 q-56 57.5 -130.5 90 q-74.5 32.5 -156.5 32.5 q-81 0 -158 -33.5 q-77 -33.5 -136.5 -91.5 q-59.5 -58 -95.5 -144 q-36 -86 -36 -184 Z" /><glyph glyph-name="q" unicode="q" d="M123 522 q0 123 44 228 q44 105 116 173.5 q72 68.5 162.5 107 q90.5 38.5 185.5 38.5 q266 0 430 -250 l0 225 l100 0 l0 -1372 l-100 0 l0 561 q-169 -258 -430 -258 q-95 0 -185.5 38 q-90.5 38 -162.5 106 q-72 68 -116 173 q-44 105 -44 230 ZM231 522 q0 -100 33.5 -185.5 q33.5 -85.5 89.5 -143 q56 -57.5 130.5 -89.5 q74.5 -32 156.5 -32 q81 0 158 33 q77 33 136.5 91 q59.5 58 95.5 144 q36 86 36 184 q0 129 -61.5 233.5 q-61.5 104.5 -158.5 160 q-97 55.5 -206 55.5 q-176 0 -293 -121.5 q-117 -121.5 -117 -329.5 Z" /><glyph glyph-name="r" unicode="r" d="M190 0 l0 1044 l101 0 l0 -296 q64 144 188 232 q116 82 256 81 q10 0 19 0 l0 -111 l-11 0 q-92 0 -173 -34.5 q-81 -34.5 -143.5 -98.5 q-62.5 -64 -99 -164.5 q-36.5 -100.5 -36.5 -224.5 l0 -428 l-101 0 Z" /><glyph glyph-name="s" unicode="s" d="M100 131 l60 80 q179 -137 375 -137 q108 0 179.5 55 q71.5 55 71.5 147 q0 36 -16 65.5 q-16 29.5 -38.5 49.5 q-22.5 20 -62.5 38.5 q-40 18.5 -73.5 29.5 q-33.5 11 -85.5 26 q-40 12 -57.5 17 q-17.5 5 -55.5 17.5 q-38 12.5 -56 21 q-18 8.5 -49.5 23.5 q-31.5 15 -47 28.5 q-15.5 13.5 -36.5 34 q-21 20.5 -31 42 q-10 21.5 -17.5 49 q-7.5 27.5 -7.5 58.5 q0 126 96 207.5 q96 81.5 248 81.5 q93 0 192 -31 q99 -31 178 -84 l-53 -84 q-160 105 -321 105 q-106 0 -172 -52.5 q-66 -52.5 -66 -134.5 q0 -28 10 -52 q10 -24 33 -43 q23 -19 45 -33 q22 -14 62 -28.5 q40 -14.5 66.5 -23 q26.5 -8.5 74.5 -22.5 q50 -14 85 -25.5 q35 -11.5 78.5 -30 q43.5 -18.5 72.5 -40.5 q29 -22 55.5 -50.5 q26.5 -28.5 39.5 -66.5 q13 -38 13 -84 q0 -137 -103.5 -221 q-103.5 -84 -257.5 -84 q-113 0 -228.5 41.5 q-115.5 41.5 -199.5 109.5 Z" /><glyph glyph-name="t" unicode="t" d="M94 952 l0 92 l152 0 l0 334 l100 0 l0 -334 l367 0 l0 -92 l-367 0 l0 -673 q0 -203 209 -203 q73 0 154 37 l0 -95 q-76 -36 -170 -36 q-130 0 -211.5 72 q-81.5 72 -81.5 214 l0 684 l-152 0 Z" /><glyph glyph-name="u" unicode="u" d="M170 406 l0 638 l100 0 l0 -620 q0 -163 88 -259.5 q88 -96.5 244 -96.5 q155 0 259 105 q104 105 104 267 l0 604 l100 0 l0 -1044 l-100 0 l0 195 q-125 -220 -377 -220 q-194 0 -306 119.5 q-112 119.5 -112 311.5 Z" /><glyph glyph-name="v" unicode="v" d="M84 1044 l117 0 l395 -931 l399 931 l113 0 l-469 -1052 l-86 0 l-469 1052 Z" /><glyph glyph-name="w" unicode="w" d="M100 1044 l113 0 l315 -917 l316 922 l80 0 l315 -922 l315 917 l109 0 l-383 -1052 l-86 0 l-311 895 l-314 -895 l-86 0 l-383 1052 Z" /><glyph glyph-name="x" unicode="x" d="M92 0 l428 532 l-411 512 l124 0 l353 -442 l352 442 l121 0 l-412 -509 l428 -535 l-125 0 l-368 465 l-369 -465 l-121 0 Z" /><glyph glyph-name="y" unicode="y" d="M80 1044 l117 0 l434 -933 l377 933 l110 0 l-452 -1081 q-67 -160 -150 -228.5 q-83 -68.5 -199 -68.5 q-104 0 -206 45 l34 88 q79 -39 179 -39 q83 0 141.5 55.5 q58.5 55.5 116.5 190.5 l-502 1038 Z" /><glyph glyph-name="z" unicode="z" d="M119 0 l0 57 l753 897 l-725 0 l0 90 l875 0 l0 -57 l-754 -897 l754 0 l0 -90 l-903 0 Z" /><glyph glyph-name="braceleft" unicode="{" d="M121 549 l0 78 l53 0 q137 0 191.5 65.5 q54.5 65.5 54.5 194.5 l0 162 q0 87 16.5 146.5 q16.5 59.5 61.5 113.5 q45 54 132 91.5 q87 37.5 222 63.5 l14 -65 q-79 -20 -134.5 -39.5 q-55.5 -19.5 -94.5 -44.5 q-39 -25 -61.5 -49.5 q-22.5 -24.5 -35 -61.5 q-12.5 -37 -16.5 -74 q-4 -37 -4 -94 l0 -153 q0 -129 -54 -196 q-54 -67 -159 -99 q110 -36 161.5 -100.5 q51.5 -64.5 51.5 -194.5 l0 -154 q0 -57 4 -93.5 q4 -36.5 16.5 -74 q12.5 -37.5 35 -61.5 q22.5 -24 61.5 -49 q39 -25 94.5 -44.5 q55.5 -19.5 134.5 -39.5 l-14 -66 q-109 21 -186 50.5 q-77 29.5 -124.5 64.5 q-47.5 35 -75 83.5 q-27.5 48.5 -37 98.5 q-9.5 50 -9.5 119 l0 162 q0 129 -54.5 194.5 q-54.5 65.5 -191.5 65.5 l-53 0 Z" /><glyph glyph-name="bar" unicode="|" d="M248 -262 l0 1896 l90 0 l0 -1896 l-90 0 Z" /><glyph glyph-name="braceright" unicode="}" d="M117 -223 q79 20 134.5 39.5 q55.5 19.5 94.5 44.5 q39 25 61.5 49 q22.5 24 35 61.5 q12.5 37.5 16.5 74 q4 36.5 4 93.5 l0 154 q0 129 54 196 q54 67 159 99 q-110 36 -161.5 100.5 q-51.5 64.5 -51.5 194.5 l0 153 q0 57 -4 94 q-4 37 -16.5 74 q-12.5 37 -35 61.5 q-22.5 24.5 -61.5 49.5 q-39 25 -94.5 44.5 q-55.5 19.5 -134.5 39.5 l14 65 q135 -26 222 -63.5 q87 -37.5 132 -91.5 q45 -54 61.5 -113.5 q16.5 -59.5 16.5 -146.5 l0 -162 q0 -129 54.5 -194.5 q54.5 -65.5 191.5 -65.5 l53 0 l0 -78 l-53 0 q-137 0 -191.5 -65.5 q-54.5 -65.5 -54.5 -194.5 l0 -162 q0 -69 -9.5 -119 q-9.5 -50 -37 -98.5 q-27.5 -48.5 -75 -83.5 q-47.5 -35 -124.5 -64.5 q-77 -29.5 -186 -50.5 l-14 66 Z" /><glyph glyph-name="asciitilde" unicode="~" d="M168 514 q28 107 68 149 q40 42 104 42 q40 0 134 -42 q94 -42 128 -42 q36 0 58 21.5 q22 21.5 45 80.5 l69 -18 q-28 -107 -68 -149 q-40 -42 -104 -42 q-40 0 -134 42 q-94 42 -128 42 q-36 0 -57 -21.5 q-21 -21.5 -45 -80.5 l-70 18 Z" /><glyph glyph-name="nonbreakingspace" unicode=" ê" d="" /><glyph glyph-name="cent" unicode="¢" d="M127 727 q0 145 70 270.5 q70 125.5 193 201 q123 75.5 269 75.5 l31 0 l33 172 l102 0 l-37 -186 q151 -37 289 -179 l-71 -73 q-59 61 -116 100.5 q-57 39.5 -126 56.5 l-170 -884 q40 -7 72 -7 q193 0 350 175 l69 -62 q-87 -99 -188.5 -153 q-101.5 -54 -237.5 -54 q-39 0 -79 6 l-39 -198 l-103 0 l45 223 q-159 56 -257.5 198 q-98.5 142 -98.5 318 ZM236 727 q0 -143 75 -257.5 q75 -114.5 197 -164.5 l168 875 l-19 0 q-178 0 -299.5 -131 q-121.5 -131 -121.5 -322 Z" /><glyph glyph-name="sterling" unicode="£" d="M143 0 l0 51 l176 41 l0 533 l-176 0 l0 98 l176 0 l0 242 q0 236 134 370 q119 119 307 119 q149 0 250 -57 q101 -57 180 -160 l-82 -63 q-72 90 -151.5 137 q-79.5 47 -198.5 47 q-144 0 -232 -88 q-102 -102 -102 -303 l0 -244 l610 0 l0 -98 l-610 0 l0 -529 l766 0 l0 -96 l-1047 0 Z" /><glyph glyph-name="yen" unicode="¥" d="M66 1434 l129 0 l510 -764 l512 764 l122 0 l-551 -793 l402 0 l0 -92 l-436 0 l0 -201 l436 0 l0 -92 l-436 0 l0 -256 l-103 0 l0 256 l-436 0 l0 92 l436 0 l0 201 l-436 0 l0 92 l399 0 l-548 793 Z" /><glyph glyph-name="dieresis" unicode="¨¬" d="M274 1219 l0 163 l142 0 l0 -163 l-142 0 ZM608 1219 l0 163 l142 0 l0 -163 l-142 0 Z" /><glyph glyph-name="copyright" unicode="©" d="M109 717 q0 149 58 285.5 q58 136.5 157 236.5 q99 100 237 159.5 q138 59.5 291 59.5 q153 0 290.5 -59 q137.5 -59 235.5 -158.5 q98 -99.5 155.5 -236 q57.5 -136.5 57.5 -287.5 q0 -149 -58 -285.5 q-58 -136.5 -157 -237 q-99 -100.5 -237 -160 q-138 -59.5 -291 -59.5 q-204 0 -374.5 100 q-170.5 100 -267.5 270.5 q-97 170.5 -97 371.5 ZM170 713 q0 -186 88 -341.5 q88 -155.5 244 -247 q156 -91.5 346 -91.5 q191 0 348 92.5 q157 92.5 245.5 250.5 q88.5 158 88.5 345 q0 186 -88 341.5 q-88 155.5 -244 247 q-156 91.5 -346 91.5 q-191 0 -348 -92.5 q-157 -92.5 -245.5 -250.5 q-88.5 -158 -88.5 -345 ZM485 729 q0 158 109 272.5 q109 114.5 266 114.5 q92 0 158 -32 q66 -32 131 -93 l-62 -63 q-110 106 -229 106 q-121 0 -202 -89 q-81 -89 -81 -218 q0 -125 83.5 -215 q83.5 -90 201.5 -90 q71 0 124.5 25.5 q53.5 25.5 111.5 80.5 l57 -57 q-67 -65 -134.5 -98 q-67.5 -33 -160.5 -33 q-157 0 -265 113.5 q-108 113.5 -108 275.5 Z" /><glyph glyph-name="guillemotleft" unicode="«ç" d="M104 514 l0 16 l328 428 l76 -49 l-281 -385 l281 -389 l-76 -49 l-328 428 ZM522 514 l0 16 l328 428 l76 -49 l-281 -385 l281 -389 l-76 -49 l-328 428 Z" /><glyph glyph-name="uni00AD" unicode="­" d="M143 551 l0 115 l549 0 l0 -115 l-549 0 Z" /><glyph glyph-name="registered" unicode="®" d="M109 717 q0 149 58 285.5 q58 136.5 157 236.5 q99 100 237 159.5 q138 59.5 291 59.5 q153 0 290.5 -59 q137.5 -59 235.5 -158.5 q98 -99.5 155.5 -236 q57.5 -136.5 57.5 -287.5 q0 -149 -58 -285.5 q-58 -136.5 -157 -237 q-99 -100.5 -237 -160 q-138 -59.5 -291 -59.5 q-204 0 -374.5 100 q-170.5 100 -267.5 270.5 q-97 170.5 -97 371.5 ZM170 713 q0 -186 88 -341.5 q88 -155.5 244 -247 q156 -91.5 346 -91.5 q191 0 348 92.5 q157 92.5 245.5 250.5 q88.5 158 88.5 345 q0 186 -88 341.5 q-88 155.5 -244 247 q-156 91.5 -346 91.5 q-191 0 -348 -92.5 q-157 -92.5 -245.5 -250.5 q-88.5 -158 -88.5 -345 ZM565 362 l0 750 l336 0 q143 0 219 -76 q58 -58 58 -143 q0 -88 -55 -142.5 q-55 -54.5 -150 -72.5 l250 -316 l-115 0 l-242 302 l-213 0 l0 -302 l-88 0 ZM653 745 l234 0 q88 0 143 38.5 q55 38.5 55 109.5 q0 62 -50.5 98.5 q-50.5 36.5 -137.5 36.5 l-244 0 l0 -283 Z" /><glyph glyph-name="acute" unicode="´" d="M397 1219 l181 272 l124 -61 l-219 -211 l-86 0 Z" /><glyph glyph-name="cedilla" unicode="¸ü" d="M332 -250 l184 270 l88 0 l-160 -323 l-112 53 Z" /><glyph glyph-name="guillemotright" unicode="»è" d="M129 135 l281 385 l-281 389 l76 49 l327 -428 l0 -16 l-327 -428 l-76 49 ZM547 135 l280 385 l-280 389 l76 49 l327 -428 l0 -16 l-327 -428 l-76 49 Z" /><glyph glyph-name="odieresis" unicode="ö&#x2c6;" d="M266 1219 l205 249 l82 0 l205 -249 l-96 0 l-152 139 l-152 -139 l-92 0 Z" /><glyph glyph-name="ucircumflex" unicode="û&#x2da;" d="M311 1409 q0 77 60.5 133.5 q60.5 56.5 140.5 56.5 q81 0 141 -56.5 q60 -56.5 60 -137.5 q0 -77 -60.5 -134 q-60.5 -57 -140.5 -57 q-81 0 -141 57 q-60 57 -60 138 ZM385 1405 q0 -51 38 -88 q38 -37 89 -37 q52 0 89.5 38 q37.5 38 37.5 91 q0 51 -37.5 88 q-37.5 37 -89.5 37 q-53 0 -90 -37.5 q-37 -37.5 -37 -91.5 Z" /><glyph glyph-name="divide" unicode="÷&#x2dc;" d="M209 1219 q28 107 68 148.5 q40 41.5 104 41.5 q40 0 134 -42 q94 -42 128 -42 q36 0 57 21.5 q21 21.5 45 80.5 l70 -18 q-28 -107 -68 -148.5 q-40 -41.5 -104 -41.5 q-40 0 -134 42 q-94 42 -128 42 q-36 0 -57 -22 q-21 -22 -45 -81 l-70 19 Z" /><glyph glyph-name="afii10023" unicode="&#x401;" d="M213 0 l0 1434 l1020 0 l0 -99 l-914 0 l0 -563 l822 0 l0 -98 l-822 0 l0 -576 l924 0 l0 -98 l-1030 0 ZM489 1567 l0 164 l142 0 l0 -164 l-142 0 ZM823 1567 l0 164 l142 0 l0 -164 l-142 0 Z" /><glyph glyph-name="afii10051" unicode="&#x402;" d="M111 1335 l0 99 l1106 0 l0 -99 l-562 0 l0 -573 q115 91 233.5 136.5 q118.5 45.5 262.5 45.5 q212 0 343.5 -127 q131.5 -127 131.5 -350 q0 -227 -131.5 -359.5 q-131.5 -132.5 -339.5 -132.5 q-105 0 -207 45 l35 89 q75 -37 178 -37 q49 0 97 12 q48 12 96 41.5 q48 29.5 84.5 73 q36.5 43.5 59 112.5 q22.5 69 22.5 154 q0 170 -101 276.5 q-101 106.5 -262 106.5 q-151 0 -267.5 -48 q-116.5 -48 -234.5 -153 l0 -647 l-106 0 l0 1335 l-438 0 Z" /><glyph glyph-name="afii10052" unicode="&#x403;" d="M213 0 l0 1434 l895 0 l0 -99 l-789 0 l0 -1335 l-106 0 ZM553 1567 l180 272 l125 -61 l-219 -211 l-86 0 Z" /><glyph glyph-name="afii10053" unicode="&#x404;" d="M150 713 q0 152 54 289 q54 137 148 237.5 q94 100.5 228 159.5 q134 59 286 59 q177 0 300 -58.5 q123 -58.5 249 -174.5 l-67 -74 q-104 101 -219 156 q-115 55 -265 55 q-161 0 -295 -77 q-134 -77 -215 -212 q-81 -135 -92 -301 l772 0 l0 -98 l-774 0 q11 -170 93 -307.5 q82 -137.5 217 -216 q135 -78.5 296 -78.5 q149 0 264 55 q115 55 230 168 l72 -74 q-118 -121 -253.5 -183.5 q-135.5 -62.5 -316.5 -62.5 q-151 0 -284 57.5 q-133 57.5 -226.5 156.5 q-93.5 99 -147.5 235 q-54 136 -54 289 Z" /><glyph glyph-name="afii10054" unicode="&#x405;" d="M121 209 l69 80 q122 -112 241 -162.5 q119 -50.5 274 -50.5 q160 0 261 81 q101 81 101 208 q0 80 -32.5 133 q-32.5 53 -122 96 q-89.5 43 -250.5 76 q-259 53 -371.5 147.5 q-112.5 94.5 -112.5 259.5 q0 161 131 269 q131 108 330 108 q152 0 265 -41.5 q113 -41.5 226 -132.5 l-67 -84 q-99 86 -202.5 124 q-103.5 38 -225.5 38 q-156 0 -253 -78.5 q-97 -78.5 -97 -196.5 q0 -81 32.5 -134.5 q32.5 -53.5 125 -99 q92.5 -45.5 259.5 -79.5 q249 -51 360.5 -145 q111.5 -94 111.5 -254 q0 -172 -134 -281.5 q-134 -109.5 -342 -109.5 q-169 0 -307.5 56 q-138.5 56 -269.5 173 Z" /><glyph glyph-name="afii10055" unicode="&#x406;" d="M227 0 l0 1434 l107 0 l0 -1434 l-107 0 Z" /><glyph glyph-name="afii10056" unicode="&#x407;" d="M43 1567 l0 164 l141 0 l0 -164 l-141 0 ZM227 0 l0 1434 l107 0 l0 -1434 l-107 0 ZM377 1567 l0 164 l141 0 l0 -164 l-141 0 Z" /><glyph glyph-name="afii10057" unicode="&#x408;" d="M76 248 l88 55 q69 -117 149.5 -172 q80.5 -55 202.5 -55 q137 0 224 100.5 q87 100.5 87 282.5 l0 975 l107 0 l0 -967 q0 -242 -131 -373 q-114 -114 -293 -114 q-285 0 -434 268 Z" /><glyph glyph-name="afii10058" unicode="&#x409;" d="M0 20 l33 89 q52 -25 137 -25 q29 0 53 6 q24 6 57.5 31.5 q33.5 25.5 60.5 68.5 q27 43 55 124 q28 81 46.5 191 q18.5 110 30.5 278 q12 168 12 376 l0 275 l879 0 l0 -576 l424 0 q84 0 159 -14 q75 -14 142 -46 q67 -32 115.5 -79 q48.5 -47 77 -117 q28.5 -70 28.5 -156 q0 -205 -140.5 -325.5 q-140.5 -120.5 -371.5 -120.5 l-541 0 l0 1335 l-669 0 l0 -180 q0 -217 -12.5 -391.5 q-12.5 -174.5 -33.5 -295 q-21 -120.5 -53 -209 q-32 -88.5 -66 -140.5 q-34 -52 -78.5 -82.5 q-44.5 -30.5 -84 -40.5 q-39.5 -10 -88.5 -10 q-38 0 -89.5 10.5 q-51.5 10.5 -82.5 23.5 ZM1364 98 l416 0 q198 0 309 87 q111 87 111 257 q0 157 -114.5 237.5 q-114.5 80.5 -318.5 80.5 l-403 0 l0 -662 Z" /><glyph glyph-name="afii10059" unicode="&#x40a;" d="M213 0 l0 1434 l106 0 l0 -617 l918 0 l0 617 l106 0 l0 -617 l445 0 q83 0 156.5 -14 q73.5 -14 137.5 -45 q64 -31 110 -76 q46 -45 72 -110.5 q26 -65.5 26 -145.5 q0 -193 -132.5 -309.5 q-132.5 -116.5 -359.5 -116.5 l-561 0 l0 719 l-918 0 l0 -719 l-106 0 ZM1343 98 l437 0 q194 0 296.5 83 q102.5 83 102.5 241 q0 145 -106 221 q-106 76 -306 76 l-424 0 l0 -621 Z" /><glyph glyph-name="afii10060" unicode="&#x40b;" d="M111 1335 l0 99 l1106 0 l0 -99 l-562 0 l0 -604 q115 91 233.5 136.5 q118.5 45.5 262.5 45.5 q214 0 344.5 -106.5 q130.5 -106.5 130.5 -304.5 l0 -502 l-106 0 l0 512 q0 137 -100.5 221 q-100.5 84 -262.5 84 q-151 0 -267.5 -48 q-116.5 -48 -234.5 -153 l0 -616 l-106 0 l0 1335 l-438 0 Z" /><glyph glyph-name="afii10061" unicode="&#x40c;" d="M213 0 l0 1434 l106 0 l0 -942 l914 942 l145 0 l-626 -633 l653 -801 l-139 0 l-590 725 l-357 -360 l0 -365 l-106 0 ZM621 1567 l180 272 l125 -61 l-219 -211 l-86 0 Z" /><glyph glyph-name="afii10062" unicode="&#x40e;" d="M90 1434 l125 0 l576 -998 l491 998 l117 0 l-570 -1143 q-82 -163 -189.5 -239.5 q-107.5 -76.5 -225.5 -76.5 q-121 0 -230 50 l41 92 q83 -41 189 -41 q198 0 323 250 l-647 1108 ZM514 1798 l84 19 q41 -150 193 -150 q151 0 192 150 l84 -19 q-19 -102 -94.5 -168.5 q-75.5 -66.5 -181.5 -66.5 q-106 0 -182 66.5 q-76 66.5 -95 168.5 Z" /><glyph glyph-name="afii10145" unicode="&#x40f;" d="M213 0 l0 1434 l106 0 l0 -1336 l898 0 l0 1336 l106 0 l0 -1434 l-489 0 l0 -328 l-111 0 l0 328 l-510 0 Z" /><glyph glyph-name="afii10017" unicode="&#x410;" d="M90 0 l668 1444 l102 0 l668 -1444 l-117 0 l-182 401 l-846 0 l-182 -401 l-111 0 ZM428 498 l756 0 l-377 829 l-379 -829 Z" /><glyph glyph-name="afii10018" unicode="&#x411;" d="M213 0 l0 1434 l999 0 l0 -99 l-893 0 l0 -508 l484 0 q115 0 207.5 -23 q92.5 -23 163 -70 q70.5 -47 109 -125.5 q38.5 -78.5 38.5 -182.5 q0 -205 -132 -315.5 q-132 -110.5 -370 -110.5 l-606 0 ZM319 98 l480 0 q411 0 411 328 q0 150 -109.5 226.5 q-109.5 76.5 -312.5 76.5 l-469 0 l0 -631 Z" /><glyph glyph-name="afii10019" unicode="&#x412;" d="M213 0 l0 1434 l592 0 q211 0 338 -97 q127 -97 127 -260 q0 -70 -21 -128 q-21 -58 -58 -98.5 q-37 -40.5 -77 -67.5 q-40 -27 -88 -46 q324 -85 324 -346 q0 -179 -140.5 -285 q-140.5 -106 -373.5 -106 l-623 0 ZM319 98 l521 0 q185 0 293 79.5 q108 79.5 108 217.5 q0 133 -112.5 206 q-112.5 73 -323.5 73 l-486 0 l0 -576 ZM319 772 l474 0 q166 0 267 78 q101 78 101 221 q0 120 -94.5 192 q-94.5 72 -263.5 72 l-484 0 l0 -563 Z" /><glyph glyph-name="afii10020" unicode="&#x413;" d="M213 0 l0 1434 l895 0 l0 -99 l-789 0 l0 -1335 l-106 0 Z" /><glyph glyph-name="afii10021" unicode="&#x414;" d="M20 98 l154 0 q110 154 169.5 425 q59.5 271 59.5 607 l0 304 l879 0 l0 -1336 l195 0 l-21 -426 l-90 0 l0 328 l-1235 0 l-20 -328 l-91 0 l0 426 ZM297 98 l879 0 l0 1237 l-668 0 l0 -282 q0 -292 -56.5 -551.5 q-56.5 -259.5 -154.5 -403.5 Z" /><glyph glyph-name="afii10022" unicode="&#x415;" d="M213 0 l0 1434 l1020 0 l0 -99 l-914 0 l0 -563 l822 0 l0 -98 l-822 0 l0 -576 l924 0 l0 -98 l-1030 0 Z" /><glyph glyph-name="afii10024" unicode="&#x416;" d="M47 0 l604 817 l-563 617 l135 0 l821 -914 l0 914 l107 0 l0 -914 l821 914 l135 0 l-563 -617 l604 -817 l-133 0 l-545 737 l-319 -350 l0 -387 l-107 0 l0 387 l-321 350 l-543 -737 l-133 0 Z" /><glyph glyph-name="afii10025" unicode="&#x417;" d="M82 205 l70 80 q121 -111 242.5 -162 q121.5 -51 275.5 -51 q159 0 264.5 85 q105.5 85 105.5 222 q0 139 -112 218 q-112 79 -312 79 l-155 0 l0 94 l157 0 q168 0 275.5 81 q107.5 81 107.5 222 q0 125 -100.5 206 q-100.5 81 -255.5 81 q-236 0 -434 -162 l-64 82 q112 90 230.5 133 q118.5 43 271.5 43 q205 0 334 -108 q129 -108 129 -275 q0 -71 -23 -129.5 q-23 -58.5 -63.5 -98.5 q-40.5 -40 -86 -67 q-45.5 -27 -99.5 -45 q142 -41 226.5 -130 q84.5 -89 84.5 -226 q0 -169 -136.5 -285.5 q-136.5 -116.5 -348.5 -116.5 q-170 0 -311.5 56.5 q-141.5 56.5 -272.5 173.5 Z" /><glyph glyph-name="afii10026" unicode="&#x418;" d="M213 0 l0 1434 l106 0 l0 -1280 l932 1280 l105 0 l0 -1434 l-107 0 l0 1280 l-930 -1280 l-106 0 Z" /><glyph glyph-name="afii10027" unicode="&#x419;" d="M213 0 l0 1434 l106 0 l0 -1280 l932 1280 l105 0 l0 -1434 l-107 0 l0 1280 l-930 -1280 l-106 0 ZM510 1788 l84 18 q40 -149 192 -149 q153 0 193 149 l84 -18 q-19 -102 -95 -169 q-76 -67 -182 -67 q-106 0 -181.5 67 q-75.5 67 -94.5 169 Z" /><glyph glyph-name="afii10028" unicode="&#x41a;" d="M213 0 l0 1434 l106 0 l0 -942 l914 942 l145 0 l-626 -633 l653 -801 l-139 0 l-590 725 l-357 -360 l0 -365 l-106 0 Z" /><glyph glyph-name="afii10029" unicode="&#x41b;" d="M0 20 l33 89 q52 -25 137 -25 q29 0 53 6 q24 6 57.5 31.5 q33.5 25.5 60.5 68.5 q27 43 55 124 q28 81 46.5 191 q18.5 110 30.5 278 q12 168 12 376 l0 275 l879 0 l0 -1434 l-107 0 l0 1335 l-669 0 l0 -180 q0 -217 -12.5 -391.5 q-12.5 -174.5 -33.5 -295 q-21 -120.5 -53 -209 q-32 -88.5 -66 -140.5 q-34 -52 -78.5 -82.5 q-44.5 -30.5 -84 -40.5 q-39.5 -10 -88.5 -10 q-38 0 -89.5 10.5 q-51.5 10.5 -82.5 23.5 Z" /><glyph glyph-name="afii10030" unicode="&#x41c;" d="M213 0 l0 1434 l100 0 l576 -848 l575 848 l101 0 l0 -1434 l-107 0 l0 1245 l-567 -825 l-8 0 l-568 825 l0 -1245 l-102 0 Z" /><glyph glyph-name="afii10031" unicode="&#x41d;" d="M213 0 l0 1434 l106 0 l0 -664 l918 0 l0 664 l106 0 l0 -1434 l-106 0 l0 672 l-918 0 l0 -672 l-106 0 Z" /><glyph glyph-name="afii10032" unicode="&#x41e;" d="M150 717 q0 146 52.5 280.5 q52.5 134.5 145 236.5 q92.5 102 229.5 163 q137 61 295 61 q159 0 295 -60.5 q136 -60.5 228 -162 q92 -101.5 144 -236 q52 -134.5 52 -282.5 q0 -146 -52.5 -280.5 q-52.5 -134.5 -145.5 -237 q-93 -102.5 -230 -163.5 q-137 -61 -295 -61 q-159 0 -295 60.5 q-136 60.5 -227.5 162.5 q-91.5 102 -143.5 236.5 q-52 134.5 -52 282.5 ZM260 717 q0 -176 78.5 -323.5 q78.5 -147.5 219.5 -234.5 q141 -87 314 -87 q173 0 313.5 86.5 q140.5 86.5 218 233.5 q77.5 147 77.5 325 q0 131 -46.5 250 q-46.5 119 -127 205.5 q-80.5 86.5 -195 138 q-114.5 51.5 -244.5 51.5 q-173 0 -313 -86.5 q-140 -86.5 -217.5 -233.5 q-77.5 -147 -77.5 -325 Z" /><glyph glyph-name="afii10033" unicode="&#x41f;" d="M213 0 l0 1434 l1110 0 l0 -1434 l-106 0 l0 1335 l-898 0 l0 -1335 l-106 0 Z" /><glyph glyph-name="afii10034" unicode="&#x420;" d="M213 0 l0 1434 l520 0 q240 0 386.5 -118 q146.5 -118 146.5 -325 q0 -110 -45 -198 q-45 -88 -122.5 -143.5 q-77.5 -55.5 -177.5 -85 q-100 -29.5 -214 -29.5 l-388 0 l0 -535 l-106 0 ZM319 633 l394 0 q201 0 323.5 97 q122.5 97 122.5 259 q0 166 -118 256 q-118 90 -316 90 l-406 0 l0 -702 Z" /><glyph glyph-name="afii10035" unicode="&#x421;" d="M150 717 q0 201 91.5 370.5 q91.5 169.5 257 270 q165.5 100.5 367.5 100.5 q93 0 172 -17 q79 -17 146 -51 q67 -34 119.5 -72.5 q52.5 -38.5 113.5 -94.5 l-69 -72 q-104 101 -219 156 q-115 55 -265 55 q-127 0 -239 -50 q-112 -50 -192 -135.5 q-80 -85.5 -126.5 -205 q-46.5 -119.5 -46.5 -254.5 q0 -134 47 -253.5 q47 -119.5 127.5 -205.5 q80.5 -86 193 -136 q112.5 -50 238.5 -50 q149 0 264 55 q115 55 230 168 l72 -70 q-125 -123 -258 -186.5 q-133 -63.5 -312 -63.5 q-201 0 -365 98.5 q-164 98.5 -255.5 268 q-91.5 169.5 -91.5 375.5 Z" /><glyph glyph-name="afii10036" unicode="&#x422;" d="M111 1335 l0 99 l1106 0 l0 -99 l-500 0 l0 -1335 l-107 0 l0 1335 l-499 0 Z" /><glyph glyph-name="afii10037" unicode="&#x423;" d="M90 1434 l125 0 l576 -998 l491 998 l117 0 l-570 -1143 q-82 -163 -189.5 -239.5 q-107.5 -76.5 -225.5 -76.5 q-121 0 -230 50 l41 92 q83 -41 189 -41 q198 0 323 250 l-647 1108 Z" /><glyph glyph-name="afii10038" unicode="&#x424;" d="M146.5 481 q-44.5 111 -44.5 238 q0 127 44.5 238 q44.5 111 127 195 q82.5 84 209 132.5 q126.5 48.5 279.5 48.5 l67 0 l0 146 l107 0 l0 -146 l68 0 q153 0 279 -48.5 q126 -48.5 208.5 -132.5 q82.5 -84 127 -195 q44.5 -111 44.5 -238 q0 -127 -44.5 -238 q-44.5 -111 -127 -194.5 q-82.5 -83.5 -208 -132 q-125.5 -48.5 -279.5 -48.5 l-68 0 l0 -159 l-107 0 l0 159 l-67 0 q-154 0 -280 48.5 q-126 48.5 -208.5 132 q-82.5 83.5 -127 194.5 ZM358 1091 q-145 -142 -145 -372 q0 -230 145 -371 q145 -141 404 -145 l67 0 l0 1034 l-67 0 q-259 -4 -404 -146 ZM936 203 l68 0 q259 4 403.5 145 q144.5 141 144.5 371 q0 230 -144.5 372 q-144.5 142 -403.5 146 l-68 0 l0 -1034 Z" /><glyph glyph-name="afii10039" unicode="&#x425;" d="M104 0 l572 731 l-551 703 l127 0 l489 -631 l488 631 l125 0 l-549 -701 l569 -733 l-127 0 l-510 662 l-508 -662 l-125 0 Z" /><glyph glyph-name="afii10040" unicode="&#x426;" d="M213 0 l0 1434 l106 0 l0 -1336 l898 0 l0 1336 l106 0 l0 -1336 l195 0 l-21 -426 l-90 0 l0 328 l-1194 0 Z" /><glyph glyph-name="afii10041" unicode="&#x427;" d="M164 901 l0 533 l106 0 l0 -543 q0 -139 91 -222 q91 -83 251 -83 q112 0 240.5 44 q128.5 44 241.5 109 l0 695 l106 0 l0 -1434 l-106 0 l0 639 q-99 -54 -234 -102 q-135 -48 -242 -48 q-211 0 -332.5 106 q-121.5 106 -121.5 306 Z" /><glyph glyph-name="afii10042" unicode="&#x428;" d="M213 0 l0 1434 l106 0 l0 -1336 l754 0 l0 1336 l107 0 l0 -1336 l753 0 l0 1336 l107 0 l0 -1434 l-1827 0 Z" /><glyph glyph-name="afii10043" unicode="&#x429;" d="M213 0 l0 1434 l106 0 l0 -1336 l754 0 l0 1336 l107 0 l0 -1336 l753 0 l0 1336 l107 0 l0 -1336 l194 0 l-20 -426 l-90 0 l0 328 l-1911 0 Z" /><glyph glyph-name="afii10044" unicode="&#x42a;" d="M102 1335 l0 99 l496 0 l0 -576 l424 0 q84 0 159 -14 q75 -14 142 -46 q67 -32 115.5 -79 q48.5 -47 77 -117 q28.5 -70 28.5 -156 q0 -205 -140.5 -325.5 q-140.5 -120.5 -371.5 -120.5 l-540 0 l0 1335 l-390 0 ZM598 98 l416 0 q198 0 309 87 q111 87 111 257 q0 157 -114.5 237.5 q-114.5 80.5 -318.5 80.5 l-403 0 l0 -662 Z" /><glyph glyph-name="afii10045" unicode="&#x42b;" d="M213 0 l0 1434 l106 0 l0 -576 l424 0 q106 0 197 -23.5 q91 -23.5 165.5 -71 q74.5 -47.5 117.5 -129 q43 -81.5 43 -188.5 q0 -205 -140.5 -325.5 q-140.5 -120.5 -371.5 -120.5 l-541 0 ZM319 98 l416 0 q198 0 309 87 q111 87 111 257 q0 157 -114 237.5 q-114 80.5 -318 80.5 l-404 0 l0 -662 ZM1462 0 l0 1434 l107 0 l0 -1434 l-107 0 Z" /><glyph glyph-name="afii10046" unicode="&#x42c;" d="M213 0 l0 1434 l106 0 l0 -576 l424 0 q106 0 197 -23.5 q91 -23.5 165.5 -71 q74.5 -47.5 117.5 -129 q43 -81.5 43 -188.5 q0 -205 -140.5 -325.5 q-140.5 -120.5 -371.5 -120.5 l-541 0 ZM319 98 l416 0 q198 0 309 87 q111 87 111 257 q0 157 -114 237.5 q-114 80.5 -318 80.5 l-404 0 l0 -662 Z" /><glyph glyph-name="afii10047" unicode="&#x42d;" d="M80 221 l72 74 q115 -113 229.5 -168 q114.5 -55 263.5 -55 q162 0 296.5 78.5 q134.5 78.5 216 216 q81.5 137.5 91.5 307.5 l-772 0 l0 98 l772 0 q-19 254 -188.5 422 q-169.5 168 -413.5 168 q-150 0 -264 -55 q-114 -55 -219 -156 l-68 74 q126 116 249 174.5 q123 58.5 300 58.5 q203 0 368 -100.5 q165 -100.5 257 -271 q92 -170.5 92 -373.5 q0 -204 -92 -373 q-92 -169 -256 -267 q-164 -98 -365 -98 q-181 0 -316 62.5 q-135 62.5 -253 183.5 Z" /><glyph glyph-name="afii10048" unicode="&#x42e;" d="M213 0 l0 1434 l106 0 l0 -664 l322 0 q11 193 97 349 q86 156 236 247.5 q150 91.5 337 91.5 q195 0 348 -98 q153 -98 235 -266 q82 -168 82 -375 q0 -155 -49 -291.5 q-49 -136.5 -135.5 -236.5 q-86.5 -100 -212 -158 q-125.5 -58 -272.5 -58 q-189 0 -339 92 q-150 92 -234 250 q-84 158 -93 355 l-322 0 l0 -672 l-106 0 ZM752 717 q0 -181 71 -328 q71 -147 199.5 -232 q128.5 -85 288.5 -85 q160 0 287.5 84 q127.5 84 197.5 231 q70 147 70 330 q0 181 -71 328 q-71 147 -199.5 232 q-128.5 85 -288.5 85 q-160 0 -287.5 -84 q-127.5 -84 -197.5 -231 q-70 -147 -70 -330 Z" /><glyph glyph-name="afii10049" unicode="&#x42f;" d="M98 0 l457 592 q-186 25 -294.5 135 q-108.5 110 -108.5 289 q0 181 139.5 299.5 q139.5 118.5 372.5 118.5 l602 0 l0 -1434 l-107 0 l0 573 l-485 0 l-441 -573 l-135 0 ZM258 1008 q0 -153 117.5 -245.5 q117.5 -92.5 300.5 -92.5 l483 0 l0 665 l-489 0 q-193 0 -302.5 -89 q-109.5 -89 -109.5 -238 Z" /><glyph glyph-name="afii10065" unicode="&#x430;" d="M104 307 q0 160 125.5 250 q125.5 90 331.5 90 q179 0 346 -45 l0 45 q0 156 -90.5 238 q-90.5 82 -253.5 82 q-162 0 -327 -84 l-37 88 q195 90 370 90 q215 0 330 -115 q107 -107 107 -295 l0 -651 l-99 0 l0 174 q-62 -86 -162 -142.5 q-100 -56.5 -237 -56.5 q-110 0 -200 36 q-90 36 -147 113 q-57 77 -57 183 ZM213 309 q0 -112 82 -175.5 q82 -63.5 219 -63.5 q163 0 279 90.5 q116 90.5 116 230.5 l0 119 q-180 47 -354 47 q-163 0 -252.5 -67 q-89.5 -67 -89.5 -181 Z" /><glyph glyph-name="afii10066" unicode="&#x431;" d="M143 549 q0 67 1 115 q1 48 5 110 q4 62 11.5 107 q7.5 45 21.5 98 q14 53 33 91.5 q19 38.5 47 78.5 q28 40 64 68.5 q36 28.5 84 52.5 q48 24 106 39 l594 149 l29 -90 l-574 -151 q-165 -44 -236.5 -137 q-71.5 -93 -86.5 -277 q148 246 452 246 q135 0 251 -73 q116 -73 183.5 -196 q67.5 -123 67.5 -264 q0 -145 -67.5 -268.5 q-67.5 -123.5 -189.5 -198 q-122 -74.5 -271 -74.5 q-230 0 -377.5 158 q-147.5 158 -147.5 416 ZM370.5 825.5 q-118.5 -128.5 -118.5 -313.5 q0 -185 121.5 -313.5 q121.5 -128.5 298.5 -128.5 q179 0 297 128.5 q118 128.5 118 313.5 q0 185 -121 313.5 q-121 128.5 -298 128.5 q-179 0 -297.5 -128.5 Z" /><glyph glyph-name="afii10067" unicode="&#x432;" d="M190 0 l0 1044 l478 0 q153 0 245.5 -70.5 q92.5 -70.5 92.5 -189.5 q0 -165 -177 -239 q104 -27 170 -92 q66 -65 66 -168 q0 -130 -103 -207.5 q-103 -77.5 -272 -77.5 l-500 0 ZM291 90 l387 0 q131 0 207 56 q76 56 76 153 q0 92 -79.5 143.5 q-79.5 51.5 -228.5 51.5 l-362 0 l0 -404 ZM291 578 l362 0 q112 0 181 52 q69 52 69 148 q0 80 -64 128 q-64 48 -180 48 l-368 0 l0 -376 Z" /><glyph glyph-name="afii10068" unicode="&#x433;" d="M190 0 l0 1044 l691 0 l0 -90 l-590 0 l0 -954 l-101 0 Z" /><glyph glyph-name="afii10069" unicode="&#x434;" d="M29 90 l137 0 q153 253 153 733 l0 221 l701 0 l0 -954 l168 0 l-21 -385 l-82 0 l0 295 l-952 0 l-20 -295 l-84 0 l0 385 ZM276 90 l644 0 l0 864 l-504 0 l0 -188 q0 -205 -38.5 -387.5 q-38.5 -182.5 -101.5 -288.5 Z" /><glyph glyph-name="afii10070" unicode="&#x435;" d="M119 524 q0 112 38 212.5 q38 100.5 103 173.5 q65 73 157.5 116 q92.5 43 196.5 43 q143 0 253.5 -72.5 q110.5 -72.5 168.5 -196.5 q58 -124 58 -278 q0 -25 -2 -41 l-867 0 q13 -188 131.5 -299.5 q118.5 -111.5 278.5 -111.5 q206 0 358 163 l70 -61 q-88 -95 -189.5 -146 q-101.5 -51 -242.5 -51 q-102 0 -195.5 40 q-93.5 40 -163.5 110.5 q-70 70.5 -111.5 174 q-41.5 103.5 -41.5 224.5 ZM225 571 l760 0 q-5 81 -31 152.5 q-26 71.5 -71 129 q-45 57.5 -115.5 91 q-70.5 33.5 -157.5 33.5 q-154 0 -262.5 -116 q-108.5 -116 -122.5 -290 Z" /><glyph glyph-name="afii10072" unicode="&#x436;" d="M53 0 l443 592 l-416 452 l127 0 l598 -665 l0 665 l100 0 l0 -665 l598 665 l127 0 l-418 -452 l445 -592 l-123 0 l-385 520 l-244 -264 l0 -256 l-100 0 l0 256 l-244 266 l-385 -522 l-123 0 Z" /><glyph glyph-name="afii10073" unicode="&#x437;" d="M92 135 l62 82 q169 -143 360 -143 q111 0 198 62 q87 62 87 153 q0 93 -77.5 146.5 q-77.5 53.5 -213.5 53.5 l-143 0 l0 91 l145 0 q113 0 186.5 55 q73.5 55 73.5 149 q0 83 -72 134 q-72 51 -180 51 q-84 0 -170.5 -26.5 q-86.5 -26.5 -154.5 -80.5 l-60 80 q165 121 387 121 q163 0 262 -77.5 q99 -77.5 99 -201.5 q0 -170 -168 -241 q194 -68 194 -256 q0 -127 -109.5 -217 q-109.5 -90 -279.5 -90 q-236 0 -426 155 Z" /><glyph glyph-name="afii10074" unicode="&#x438;" d="M190 0 l0 1044 l101 0 l0 -911 l708 911 l101 0 l0 -1044 l-101 0 l0 911 l-708 -911 l-101 0 Z" /><glyph glyph-name="afii10075" unicode="&#x439;" d="M190 0 l0 1044 l101 0 l0 -911 l708 911 l101 0 l0 -1044 l-101 0 l0 911 l-708 -911 l-101 0 ZM369 1450 l84 18 q40 -149 192 -149 q153 0 193 149 l84 -18 q-19 -102 -95 -169 q-76 -67 -182 -67 q-106 0 -181.5 67 q-75.5 67 -94.5 169 Z" /><glyph glyph-name="afii10076" unicode="&#x43a;" d="M190 0 l0 1044 l101 0 l0 -669 l647 669 l133 0 l-457 -462 l471 -582 l-127 0 l-413 510 l-254 -256 l0 -254 l-101 0 Z" /><glyph glyph-name="afii10077" unicode="&#x43b;" d="M8 0 l19 92 q49 -14 79 -14 q34 0 57.5 5.5 q23.5 5.5 50.5 26.5 q27 21 45 59 q18 38 35.5 105 q17.5 67 28 162.5 q10.5 95.5 17.5 234.5 q7 139 8 318 l0 55 l711 0 l0 -1044 l-101 0 l0 954 l-514 0 l0 -28 q0 -183 -8.5 -324.5 q-8.5 -141.5 -22 -240.5 q-13.5 -99 -36.5 -168.5 q-23 -69.5 -47 -110 q-24 -40.5 -60 -63 q-36 -22.5 -68.5 -29 q-32.5 -6.5 -78.5 -6.5 q-57 0 -115 16 Z" /><glyph glyph-name="afii10078" unicode="&#x43c;" d="M190 0 l0 1044 l91 0 l426 -600 l426 600 l90 0 l0 -1044 l-101 0 l0 870 l-420 -577 l-415 577 l0 -870 l-97 0 Z" /><glyph glyph-name="afii10079" unicode="&#x43d;" d="M190 0 l0 1044 l101 0 l0 -464 l694 0 l0 464 l100 0 l0 -1044 l-100 0 l0 489 l-694 0 l0 -489 l-101 0 Z" /><glyph glyph-name="afii10080" unicode="&#x43e;" d="M119 522 q0 109 41 209 q41 100 111 174.5 q70 74.5 171 119 q101 44.5 215 44.5 q151 0 274.5 -74.5 q123.5 -74.5 192 -200 q68.5 -125.5 68.5 -272.5 q0 -146 -69 -271 q-69 -125 -193.5 -200.5 q-124.5 -75.5 -276.5 -75.5 q-113 0 -213 44 q-100 44 -170 118 q-70 74 -110.5 174.5 q-40.5 100.5 -40.5 210.5 ZM227 522 q0 -189 124.5 -320.5 q124.5 -131.5 305.5 -131.5 q114 0 212 60.5 q98 60.5 156 164.5 q58 104 58 227 q0 188 -126 320.5 q-126 132.5 -304 132.5 q-116 0 -214 -60.5 q-98 -60.5 -155 -165 q-57 -104.5 -57 -227.5 Z" /><glyph glyph-name="afii10081" unicode="&#x43f;" d="M190 0 l0 1044 l869 0 l0 -1044 l-101 0 l0 954 l-667 0 l0 -954 l-101 0 Z" /><glyph glyph-name="afii10082" unicode="&#x440;" d="M190 -328 l0 1372 l101 0 l0 -233 q169 258 430 258 q95 0 185.5 -38 q90.5 -38 162.5 -106 q72 -68 116 -173 q44 -105 44 -230 q0 -123 -44 -228 q-44 -105 -116 -173.5 q-72 -68.5 -162.5 -107 q-90.5 -38.5 -185.5 -38.5 q-266 0 -430 250 l0 -553 l-101 0 ZM285 520 q0 -129 61.5 -233.5 q61.5 -104.5 158.5 -159.5 q97 -55 206 -55 q176 0 292.5 121 q116.5 121 116.5 329 q0 100 -33 185.5 q-33 85.5 -89 143 q-56 57.5 -130.5 90 q-74.5 32.5 -156.5 32.5 q-81 0 -158 -33.5 q-77 -33.5 -136.5 -91.5 q-59.5 -58 -95.5 -144 q-36 -86 -36 -184 Z" /><glyph glyph-name="afii10083" unicode="&#x441;" d="M119 522 q0 148 70 273.5 q70 125.5 192.5 199.5 q122.5 74 269.5 74 q244 0 416 -195 l-70 -71 q-80 82 -160.5 127 q-80.5 45 -187.5 45 q-114 0 -211 -60.5 q-97 -60.5 -154 -165 q-57 -104.5 -57 -227.5 q0 -189 125 -320.5 q125 -131.5 305 -131.5 q187 0 347 178 l73 -66 q-87 -99 -188.5 -153 q-101.5 -54 -237.5 -54 q-148 0 -270.5 73.5 q-122.5 73.5 -192 199 q-69.5 125.5 -69.5 274.5 Z" /><glyph glyph-name="afii10084" unicode="&#x442;" d="M61 954 l0 90 l883 0 l0 -90 l-391 0 l0 -954 l-100 0 l0 954 l-392 0 Z" /><glyph glyph-name="afii10085" unicode="&#x443;" d="M80 1044 l117 0 l434 -933 l377 933 l110 0 l-452 -1081 q-67 -160 -150 -228.5 q-83 -68.5 -199 -68.5 q-104 0 -206 45 l34 88 q79 -39 179 -39 q83 0 141.5 55.5 q58.5 55.5 116.5 190.5 l-502 1038 Z" /><glyph glyph-name="afii10086" unicode="&#x444;" d="M123 526 q0 252 117 397.5 q117 145.5 309 145.5 q87 0 148.5 -31.5 q61.5 -31.5 127.5 -91.5 l0 488 l101 0 l0 -488 q64 60 126 91.5 q62 31.5 150 31.5 q192 0 309 -146.5 q117 -146.5 117 -400.5 q0 -252 -117.5 -399.5 q-117.5 -147.5 -308.5 -147.5 q-50 0 -90 8.5 q-40 8.5 -75 28.5 q-35 20 -55.5 35.5 q-20.5 15.5 -55.5 46.5 l0 -422 l-101 0 l0 422 q-68 -58 -129.5 -88.5 q-61.5 -30.5 -146.5 -30.5 q-192 0 -309 148 q-117 148 -117 403 ZM231 518 q0 -446 328 -446 q150 0 266 125 l0 651 q-116 125 -266 125 q-161 0 -244.5 -120.5 q-83.5 -120.5 -83.5 -334.5 ZM926 197 q116 -125 266 -125 q328 0 328 450 q0 211 -83.5 331 q-83.5 120 -244.5 120 q-150 0 -266 -125 l0 -651 Z" /><glyph glyph-name="afii10087" unicode="&#x445;" d="M92 0 l428 532 l-411 512 l124 0 l353 -442 l352 442 l121 0 l-412 -509 l428 -535 l-125 0 l-368 465 l-369 -465 l-121 0 Z" /><glyph glyph-name="afii10088" unicode="&#x446;" d="M190 0 l0 1044 l101 0 l0 -954 l667 0 l0 954 l101 0 l0 -954 l168 0 l-21 -385 l-82 0 l0 295 l-934 0 Z" /><glyph glyph-name="afii10089" unicode="&#x447;" d="M141 653 l0 391 l101 0 l0 -393 q0 -96 63 -152.5 q63 -56.5 172 -56.5 q94 0 200 32 q106 32 179 83 l0 487 l100 0 l0 -1044 l-100 0 l0 457 q-72 -41 -177 -74 q-105 -33 -198 -33 q-158 0 -249 78 q-91 78 -91 225 Z" /><glyph glyph-name="afii10090" unicode="&#x448;" d="M190 0 l0 1044 l101 0 l0 -954 l577 0 l0 954 l101 0 l0 -954 l577 0 l0 954 l101 0 l0 -1044 l-1457 0 Z" /><glyph glyph-name="afii10091" unicode="&#x449;" d="M190 0 l0 1044 l101 0 l0 -954 l577 0 l0 954 l101 0 l0 -954 l577 0 l0 954 l101 0 l0 -954 l168 0 l-21 -385 l-82 0 l0 295 l-1522 0 Z" /><glyph glyph-name="afii10092" unicode="&#x44a;" d="M41 954 l0 90 l434 0 l0 -401 l311 0 q84 0 154.5 -18 q70.5 -18 126.5 -54.5 q56 -36.5 87.5 -96.5 q31.5 -60 31.5 -138 q0 -152 -104.5 -244 q-104.5 -92 -276.5 -92 l-430 0 l0 954 l-334 0 ZM475 90 l313 0 q133 0 211 64 q78 64 78 178 q0 105 -79.5 163 q-79.5 58 -217.5 58 l-305 0 l0 -463 Z" /><glyph glyph-name="afii10093" unicode="&#x44b;" d="M190 0 l0 1044 l101 0 l0 -401 l311 0 q83 0 154 -18 q71 -18 126.5 -54.5 q55.5 -36.5 87 -96.5 q31.5 -60 31.5 -138 q0 -152 -104 -244 q-104 -92 -276 -92 l-431 0 ZM291 90 l313 0 q133 0 211 64 q78 64 78 178 q0 105 -79.5 163 q-79.5 58 -217.5 58 l-305 0 l0 -463 ZM1210 0 l0 1044 l101 0 l0 -1044 l-101 0 Z" /><glyph glyph-name="afii10094" unicode="&#x44c;" d="M190 0 l0 1044 l101 0 l0 -401 l311 0 q83 0 154 -18 q71 -18 126.5 -54.5 q55.5 -36.5 87 -96.5 q31.5 -60 31.5 -138 q0 -152 -104 -244 q-104 -92 -276 -92 l-431 0 ZM291 90 l313 0 q133 0 211 64 q78 64 78 178 q0 105 -79.5 163 q-79.5 58 -217.5 58 l-305 0 l0 -463 Z" /><glyph glyph-name="afii10095" unicode="&#x44d;" d="M92 182 l74 64 q158 -176 346 -176 q171 0 293.5 119.5 q122.5 119.5 134.5 299.5 l-549 0 l0 91 l547 0 q-19 167 -139.5 281 q-120.5 114 -278.5 114 q-108 0 -189.5 -45 q-81.5 -45 -158.5 -127 l-68 69 q57 59 108 98 q51 39 132 69 q81 30 174 30 q150 0 273 -75.5 q123 -75.5 191.5 -201.5 q68.5 -126 68.5 -274 q0 -145 -69.5 -269.5 q-69.5 -124.5 -193 -199 q-123.5 -74.5 -270.5 -74.5 q-257 0 -426 207 Z" /><glyph glyph-name="afii10096" unicode="&#x44e;" d="M190 0 l0 1044 l101 0 l0 -473 l258 0 q16 210 155 354 q139 144 353 144 q150 0 266.5 -75 q116.5 -75 177 -199 q60.5 -124 60.5 -273 q0 -147 -61 -271 q-61 -124 -178.5 -200 q-117.5 -76 -268.5 -76 q-144 0 -257 68 q-113 68 -175.5 181.5 q-62.5 113.5 -71.5 254.5 l-258 0 l0 -479 l-101 0 ZM657 522 q0 -193 111 -322.5 q111 -129.5 289 -129.5 q121 0 212 61 q91 61 137 163 q46 102 46 228 q0 193 -110.5 323 q-110.5 130 -288.5 130 q-121 0 -212 -61.5 q-91 -61.5 -137.5 -163.5 q-46.5 -102 -46.5 -228 Z" /><glyph glyph-name="afii10097" unicode="&#x44f;" d="M106 0 l330 416 q-131 24 -216 108 q-85 84 -85 209 q0 140 102.5 225.5 q102.5 85.5 280.5 85.5 l467 0 l0 -1044 l-100 0 l0 401 l-344 0 l-312 -401 l-123 0 ZM244 727 q0 -107 82.5 -171 q82.5 -64 210.5 -64 l348 0 l0 462 l-353 0 q-135 0 -211.5 -61.5 q-76.5 -61.5 -76.5 -165.5 Z" /><glyph glyph-name="afii10071" unicode="&#x451;" d="M119 524 q0 112 38 212.5 q38 100.5 103 173.5 q65 73 157.5 116 q92.5 43 196.5 43 q143 0 253.5 -72.5 q110.5 -72.5 168.5 -196.5 q58 -124 58 -278 q0 -25 -2 -41 l-867 0 q13 -188 131.5 -299.5 q118.5 -111.5 278.5 -111.5 q206 0 358 163 l70 -61 q-88 -95 -189.5 -146 q-101.5 -51 -242.5 -51 q-102 0 -195.5 40 q-93.5 40 -163.5 110.5 q-70 70.5 -111.5 174 q-41.5 103.5 -41.5 224.5 ZM225 571 l760 0 q-5 81 -31 152.5 q-26 71.5 -71 129 q-45 57.5 -115.5 91 q-70.5 33.5 -157.5 33.5 q-154 0 -262.5 -116 q-108.5 -116 -122.5 -290 ZM371 1219 l0 163 l141 0 l0 -163 l-141 0 ZM705 1219 l0 163 l141 0 l0 -163 l-141 0 Z" /><glyph glyph-name="afii10099" unicode="&#x452;" d="M20 1188 l0 92 l170 0 l0 215 l101 0 l0 -215 l469 0 l0 -92 l-469 0 l0 -338 q125 219 377 219 q194 0 305.5 -119 q111.5 -119 111.5 -311 l0 -233 q0 -192 -111.5 -311.5 q-111.5 -119.5 -305.5 -119.5 q-105 0 -207 45 l35 89 q79 -39 178 -39 q135 0 223 97.5 q88 97.5 88 256.5 l0 197 q0 163 -88 259.5 q-88 96.5 -244 96.5 q-155 0 -258.5 -105.5 q-103.5 -105.5 -103.5 -267.5 l0 -604 l-101 0 l0 1188 l-170 0 Z" /><glyph glyph-name="afii10100" unicode="&#x453;" d="M190 0 l0 1044 l691 0 l0 -90 l-590 0 l0 -954 l-101 0 ZM422 1219 l180 272 l125 -61 l-219 -211 l-86 0 Z" /><glyph glyph-name="afii10101" unicode="&#x454;" d="M119 518 q0 110 40.5 211 q40.5 101 110 176 q69.5 75 169 119.5 q99.5 44.5 212.5 44.5 q93 0 174 -30 q81 -30 132 -69 q51 -39 108 -98 l-68 -69 q-77 82 -158.5 127 q-81.5 45 -189.5 45 q-158 0 -279 -114 q-121 -114 -141 -281 l549 0 l0 -91 l-551 0 q14 -180 136 -299.5 q122 -119.5 294 -119.5 q189 0 347 176 l73 -64 q-169 -207 -426 -207 q-147 0 -270 74.5 q-123 74.5 -192.5 199 q-69.5 124.5 -69.5 269.5 Z" /><glyph glyph-name="afii10102" unicode="&#x455;" d="M100 131 l60 80 q179 -137 375 -137 q108 0 179.5 55 q71.5 55 71.5 147 q0 36 -16 65.5 q-16 29.5 -38.5 49.5 q-22.5 20 -62.5 38.5 q-40 18.5 -73.5 29.5 q-33.5 11 -85.5 26 q-40 12 -57.5 17 q-17.5 5 -55.5 17.5 q-38 12.5 -56 21 q-18 8.5 -49.5 23.5 q-31.5 15 -47 28.5 q-15.5 13.5 -36.5 34 q-21 20.5 -31 42 q-10 21.5 -17.5 49 q-7.5 27.5 -7.5 58.5 q0 126 96 207.5 q96 81.5 248 81.5 q93 0 192 -31 q99 -31 178 -84 l-53 -84 q-160 105 -321 105 q-106 0 -172 -52.5 q-66 -52.5 -66 -134.5 q0 -28 10 -52 q10 -24 33 -43 q23 -19 45 -33 q22 -14 62 -28.5 q40 -14.5 66.5 -23 q26.5 -8.5 74.5 -22.5 q50 -14 85 -25.5 q35 -11.5 78.5 -30 q43.5 -18.5 72.5 -40.5 q29 -22 55.5 -50.5 q26.5 -28.5 39.5 -66.5 q13 -38 13 -84 q0 -137 -103.5 -221 q-103.5 -84 -257.5 -84 q-113 0 -228.5 41.5 q-115.5 41.5 -199.5 109.5 Z" /><glyph glyph-name="afii10103" unicode="&#x456;" d="M193 1317 l0 137 l124 0 l0 -137 l-124 0 ZM205 0 l0 1044 l100 0 l0 -1044 l-100 0 Z" /><glyph glyph-name="afii10104" unicode="&#x457;" d="M18 1219 l0 163 l142 0 l0 -163 l-142 0 ZM205 0 l0 1044 l100 0 l0 -1044 l-100 0 ZM352 1219 l0 163 l142 0 l0 -163 l-142 0 Z" /><glyph glyph-name="afii10105" unicode="&#x458;" d="M-2 -238 q38 -6 82 -6 q57 0 91 37.5 q34 37.5 34 108.5 l0 1142 l100 0 l0 -1136 q0 -120 -59.5 -181 q-59.5 -61 -163.5 -61 q-43 0 -84 8 l0 88 ZM193 1317 l0 137 l124 0 l0 -137 l-124 0 Z" /><glyph glyph-name="afii10106" unicode="&#x459;" d="M8 0 l19 92 q49 -14 79 -14 q34 0 57.5 5.5 q23.5 5.5 50.5 26.5 q27 21 45 59 q18 38 35.5 105 q17.5 67 28 162.5 q10.5 95.5 17.5 234.5 q7 139 8 318 l0 55 l711 0 l0 -401 l311 0 q83 0 154 -18 q71 -18 126.5 -54.5 q55.5 -36.5 87 -96.5 q31.5 -60 31.5 -138 q0 -152 -104 -244 q-104 -92 -276 -92 l-431 0 l0 954 l-514 0 l0 -28 q0 -183 -8.5 -324.5 q-8.5 -141.5 -22 -240.5 q-13.5 -99 -36.5 -168.5 q-23 -69.5 -47 -110 q-24 -40.5 -60 -63 q-36 -22.5 -68.5 -29 q-32.5 -6.5 -78.5 -6.5 q-57 0 -115 16 ZM1059 90 l313 0 q133 0 211 64 q78 64 78 178 q0 105 -79.5 163 q-79.5 58 -217.5 58 l-305 0 l0 -463 Z" /><glyph glyph-name="afii10107" unicode="&#x45a;" d="M190 0 l0 1044 l101 0 l0 -430 l694 0 l0 430 l100 0 l0 -430 l312 0 q85 0 154.5 -16 q69.5 -16 125.5 -49 q56 -33 87.5 -91 q31.5 -58 31.5 -136 q0 -151 -103.5 -236.5 q-103.5 -85.5 -277.5 -85.5 l-430 0 l0 524 l-694 0 l0 -524 l-101 0 ZM1085 90 l314 0 q136 0 212.5 57 q76.5 57 76.5 170 q0 103 -78.5 155 q-78.5 52 -218.5 52 l-306 0 l0 -434 Z" /><glyph glyph-name="afii10108" unicode="&#x45b;" d="M20 1188 l0 92 l170 0 l0 215 l101 0 l0 -215 l469 0 l0 -92 l-469 0 l0 -338 q125 219 377 219 q194 0 305.5 -119 q111.5 -119 111.5 -311 l0 -639 l-100 0 l0 621 q0 163 -88 259.5 q-88 96.5 -244 96.5 q-155 0 -258.5 -105.5 q-103.5 -105.5 -103.5 -267.5 l0 -604 l-101 0 l0 1188 l-170 0 Z" /><glyph glyph-name="afii10109" unicode="&#x45c;" d="M190 0 l0 1044 l101 0 l0 -669 l647 669 l133 0 l-457 -462 l471 -582 l-127 0 l-413 510 l-254 -256 l0 -254 l-101 0 ZM457 1219 l180 272 l125 -61 l-219 -211 l-86 0 Z" /><glyph glyph-name="afii10110" unicode="&#x45e;" d="M80 1044 l117 0 l434 -933 l377 933 l110 0 l-452 -1081 q-67 -160 -150 -228.5 q-83 -68.5 -199 -68.5 q-104 0 -206 45 l34 88 q79 -39 179 -39 q83 0 141.5 55.5 q58.5 55.5 116.5 190.5 l-502 1038 ZM354 1450 l84 18 q40 -149 193 -149 q152 0 192 149 l84 -18 q-19 -102 -94.5 -169 q-75.5 -67 -181.5 -67 q-106 0 -182 67 q-76 67 -95 169 Z" /><glyph glyph-name="afii10193" unicode="&#x45f;" d="M190 0 l0 1044 l101 0 l0 -952 l667 0 l0 952 l101 0 l0 -1044 l-375 0 l0 -295 l-102 0 l0 295 l-392 0 Z" /><glyph glyph-name="afii10050" unicode="&#x490;" d="M213 0 l0 1434 l784 0 l0 327 l90 0 l21 -426 l-789 0 l0 -1335 l-106 0 Z" /><glyph glyph-name="afii10098" unicode="&#x491;" d="M190 0 l0 1044 l588 0 l0 295 l82 0 l21 -385 l-590 0 l0 -954 l-101 0 Z" /><glyph glyph-name="uni2000" unicode="&#x2000;" d="" /><glyph glyph-name="uni2001" unicode="&#x2001;" d="" /><glyph glyph-name="uni2002" unicode="&#x2002;" d="" /><glyph glyph-name="uni2003" unicode="&#x2003;" d="" /><glyph glyph-name="uni2004" unicode="&#x2004;" d="" /><glyph glyph-name="uni2005" unicode="&#x2005;" d="" /><glyph glyph-name="uni2006" unicode="&#x2006;" d="" /><glyph glyph-name="uni2007" unicode="&#x2007;" d="" /><glyph glyph-name="uni2008" unicode="&#x2008;" d="" /><glyph glyph-name="uni2009" unicode="&#x2009;" d="" /><glyph glyph-name="uni200A" unicode="&#x200a;" d="" /><glyph glyph-name="uni2010" unicode="&#x2010;" d="M143 551 l0 115 l549 0 l0 -115 l-549 0 Z" /><glyph glyph-name="uni2011" unicode="&#x2011;" d="M143 551 l0 115 l549 0 l0 -115 l-549 0 Z" /><glyph glyph-name="figuredash" unicode="&#x2012;" d="M143 551 l0 115 l549 0 l0 -115 l-549 0 Z" /><glyph glyph-name="Eth" unicode="ð&#x2013;" d="M143 555 l0 107 l795 0 l0 -107 l-795 0 Z" /><glyph glyph-name="Ntilde" unicode="ñ&#x2014;" d="M143 555 l0 107 l1553 0 l0 -107 l-1553 0 Z" /><glyph glyph-name="Ocircumflex" unicode="ô&#x2018;" d="M158 1051 l0 151 q0 95 39 151 q39 56 131 91 l24 -51 q-62 -31 -88 -65 q-26 -34 -26 -85 l0 -18 l55 0 l0 -174 l-135 0 Z" /><glyph glyph-name="Otilde" unicode="õ&#x2019;" d="M119 1092 q62 31 88 64.5 q26 33.5 26 84.5 l0 19 l-55 0 l0 174 l135 0 l0 -152 q0 -95 -39 -151 q-39 -56 -131 -91 l-24 52 Z" /><glyph glyph-name="acircumflex" unicode="â&#x201a;" d="M109 -168 q62 31 88 65 q26 34 26 85 l0 18 l-55 0 l0 174 l135 0 l0 -151 q0 -95 -39 -151 q-39 -56 -131 -91 l-24 51 Z" /><glyph glyph-name="Ograve" unicode="ò&#x201c;" d="M158 1051 l0 151 q0 95 39 151 q39 56 131 91 l24 -51 q-62 -31 -88 -65 q-26 -34 -26 -85 l0 -18 l55 0 l0 -174 l-135 0 ZM526 1051 l0 151 q0 95 39 151 q39 56 131 91 l25 -51 q-62 -31 -88.5 -65 q-26.5 -34 -26.5 -85 l0 -18 l56 0 l0 -174 l-136 0 Z" /><glyph glyph-name="Oacute" unicode="ó&#x201d;" d="M119 1092 q62 31 88 64.5 q26 33.5 26 84.5 l0 19 l-55 0 l0 174 l135 0 l0 -152 q0 -95 -39 -151 q-39 -56 -131 -91 l-24 52 ZM487 1092 q62 31 88.5 65 q26.5 34 26.5 84 l0 19 l-55 0 l0 174 l135 0 l0 -152 q0 -95 -39 -151 q-39 -56 -131 -91 l-25 52 Z" /><glyph glyph-name="atilde" unicode="ã&#x201e;" d="M109 -168 q62 31 88 65 q26 34 26 85 l0 18 l-55 0 l0 174 l135 0 l0 -151 q0 -95 -39 -151 q-39 -56 -131 -91 l-24 51 ZM477 -168 q62 31 88.5 65 q26.5 34 26.5 85 l0 18 l-55 0 l0 174 l135 0 l0 -151 q0 -95 -39 -151 q-39 -56 -131 -91 l-25 51 Z" /><glyph glyph-name="Eacute" unicode="é&#x2026;" d="M168 0 l0 170 l131 0 l0 -170 l-131 0 ZM631 0 l0 170 l131 0 l0 -170 l-131 0 ZM1094 0 l0 170 l131 0 l0 -170 l-131 0 Z" /><glyph glyph-name="uni202F" unicode="&#x202f;" d="" /><glyph glyph-name="Udieresis" unicode="ü&#x2039;" d="M104 514 l0 16 l328 428 l76 -49 l-281 -385 l281 -389 l-76 -49 l-328 428 Z" /><glyph glyph-name="Yacute" unicode="ý&#x203a;" d="M129 135 l281 385 l-281 389 l76 49 l327 -428 l0 -16 l-327 -428 l-76 49 Z" /><glyph glyph-name="uni205F" unicode="&#x205f;" d="" /><glyph glyph-name="Ucircumflex" unicode="û&#x20ac;" d="M121 502 l0 98 l170 0 q-6 56 -6 117 q0 70 10 135 l-174 0 l0 98 l192 0 q57 224 206 366 q149 142 343 142 q87 0 162 -21 q75 -21 134.5 -61.5 q59.5 -40.5 105.5 -90 q46 -49.5 90 -114.5 l-82 -55 q-59 85 -114 136.5 q-55 51.5 -130 81.5 q-75 30 -170 30 q-152 0 -270 -114 q-118 -114 -170 -300 l581 0 l0 -98 l-600 0 q-10 -62 -10 -135 q0 -59 6 -117 l604 0 l0 -98 l-585 0 q48 -195 174 -313.5 q126 -118.5 295 -118.5 q126 0 221 67.5 q95 67.5 176 194.5 l78 -51 q-94 -144 -208.5 -225 q-114.5 -81 -272.5 -81 q-210 0 -364.5 144.5 q-154.5 144.5 -207.5 382.5 l-184 0 Z" /><glyph glyph-name="ordfeminine" unicode="ª&#x2122;" d="M53 1364 l0 70 l486 0 l0 -70 l-207 0 l0 -561 l-72 0 l0 561 l-207 0 ZM682 803 l0 631 l76 0 l246 -375 l245 375 l74 0 l0 -631 l-72 0 l0 504 l-243 -365 l-11 0 l-243 365 l0 -504 l-72 0 Z" /><glyph glyph-name="uniE000" unicode="&#xe000;" d="M0 0 l0 1044 l1044 0 l0 -1044 l-1044 0 Z" /></font>
</defs>
</svg>
