<?xml version="1.0" standalone="no"?><!DOCTYPE svg PUBLIC "-//W3C//DTD SVG 1.1//EN" "http://www.w3.org/Graphics/SVG/1.1/DTD/svg11.dtd" ><svg xmlns="http://www.w3.org/2000/svg"><metadata></metadata><defs><font id="TheHoeflerTypeFoundry,Inc: Gotham Pro Light Italic: 2007" horiz-adv-x="1203"><font-face font-family="Gotham Pro Light" font-weight="400" font-stretch="normal" units-per-em="1000" panose-1="2 0 5 3 4 0 0 9 0 4" ascent="730" descent="-200" x-height="4" bbox="-121 -214 1206 898" underline-thickness="20" underline-position="-123" unicode-range="U+0020-fb04" /><missing-glyph horiz-adv-x="500" d="M0 0 l0 700 l500 0 l0 -700 l-500 0 ZM81 49 l339 0 l-170 255 l-169 -255 ZM49 96 l171 254 l-171 254 l0 -508 ZM450 96 l0 508 l-171 -254 l171 -254 ZM250 395 l170 255 l-339 0 l169 -255 Z" /><glyph glyph-name="space" unicode=" " d="" /><glyph glyph-name="exclam" unicode="!" d="M24 0 l23 85 l66 0 l-23 -85 l-66 0 ZM92 183 l105 447 l19 70 l58 0 l-19 -70 l-135 -447 l-28 0 Z" /><glyph glyph-name="quotedbl" unicode="&quot;" d="M101 446 l93 254 l63 0 l0 -5 l-127 -249 l-29 0 ZM281 446 l93 254 l63 0 l0 -5 l-127 -249 l-29 0 Z" /><glyph glyph-name="numbersign" unicode="#" d="M91 0 l65 187 l-121 0 l12 47 l125 0 l83 236 l-133 0 l12 47 l137 0 l64 183 l48 0 l-64 -183 l207 0 l64 183 l48 0 l-64 -183 l121 0 l-12 -47 l-125 0 l-83 -236 l133 0 l-12 -47 l-137 0 l-65 -187 l-48 0 l65 187 l-207 0 l-65 -187 l-48 0 ZM221 234 l206 0 l83 236 l-207 0 l-82 -236 Z" /><glyph glyph-name="dollar" unicode="$" d="M190 -98 l28 103 q-136 21 -219 117 l38 33 q74 -86 198 -104 l77 288 q-98 37 -138.5 75.5 q-40.5 38.5 -40.5 98.5 q0 80 66.5 133.5 q66.5 53.5 165.5 53.5 q16 0 44 -2 l16 60 l49 0 l-18 -67 q101 -19 172 -89 l-36 -36 q-61 61 -153 80 l-73 -272 q92 -33 132.5 -74 q40.5 -41 40.5 -102 q0 -92 -75.5 -145 q-75.5 -53 -198.5 -53 l-26 -98 l-49 0 ZM278 47 l11 0 q86 0 141.5 40.5 q55.5 40.5 55.5 105.5 q0 42 -30 72.5 q-30 30.5 -103 59.5 l-75 -278 ZM325 389 l71 262 q-12 2 -36 2 q-75 0 -124.5 -39 q-49.5 -39 -49.5 -96 q0 -44 31.5 -72.5 q31.5 -28.5 107.5 -56.5 Z" /><glyph glyph-name="percent" unicode="%" d="M65 0 l682 700 l60 0 l-682 -700 l-60 0 ZM588 -7 q-60 0 -98.5 41.5 q-38.5 41.5 -38.5 101.5 q0 86 56 152.5 q56 66.5 135 66.5 q60 0 98.5 -41.5 q38.5 -41.5 38.5 -101.5 q0 -86 -56 -152.5 q-56 -66.5 -135 -66.5 ZM592 36 q56 0 97 53.5 q41 53.5 41 117.5 q0 48 -24 76.5 q-24 28.5 -68 28.5 q-56 0 -97 -53.5 q-41 -53.5 -41 -117.5 q0 -48 24 -76.5 q24 -28.5 68 -28.5 ZM230 346 q-60 0 -98.5 41.5 q-38.5 41.5 -38.5 101.5 q0 86 56 152.5 q56 66.5 135 66.5 q60 0 98.5 -41.5 q38.5 -41.5 38.5 -101.5 q0 -86 -56 -152.5 q-56 -66.5 -135 -66.5 ZM234 389 q56 0 97 53.5 q41 53.5 41 117.5 q0 48 -24 76.5 q-24 28.5 -68 28.5 q-56 0 -97 -53.5 q-41 -53.5 -41 -117.5 q0 -48 24 -76.5 q24 -28.5 68 -28.5 Z" /><glyph glyph-name="ampersand" unicode="&amp;" d="M572 -14 l-85 121 q-61 -60 -120 -88.5 q-59 -28.5 -136 -28.5 q-86 0 -143 47 q-57 47 -57 128 q0 85 62.5 146.5 q62.5 61.5 182.5 91.5 q-47 76 -47 133 q0 75 54.5 125.5 q54.5 50.5 129.5 50.5 q74 0 119 -40 q45 -40 45 -105 q0 -131 -226 -192 l142 -201 q58 66 116 167 l39 -23 q-68 -112 -127 -178 l90 -128 l-39 -26 ZM237 36 q116 0 223 105 l-159 225 q-109 -26 -163 -78 q-54 -52 -54 -117 q0 -62 41.5 -98.5 q41.5 -36.5 111.5 -36.5 ZM326 411 q200 52 200 154 q0 46 -31.5 74.5 q-31.5 28.5 -83.5 28.5 q-53 0 -92 -38.5 q-39 -38.5 -39 -92.5 q0 -56 46 -126 Z" /><glyph glyph-name="quotesingle" unicode="&#39;" d="M101 446 l93 254 l63 0 l0 -5 l-127 -249 l-29 0 Z" /><glyph glyph-name="parenleft" unicode="(" d="M273 -140 q-174 155 -174 358 q0 154 99.5 287.5 q99.5 133.5 296.5 213.5 l17 -37 q-95 -41 -166.5 -95 q-71.5 -54 -113 -115 q-41.5 -61 -61.5 -124 q-20 -63 -20 -129 q0 -103 39 -179.5 q39 -76.5 111 -150.5 l-28 -29 Z" /><glyph glyph-name="parenright" unicode=")" d="M-47 -139 l-17 37 q95 41 166.5 95 q71.5 54 113 115 q41.5 61 61.5 124 q20 63 20 129 q0 103 -39 179.5 q-39 76.5 -111 150.5 l28 29 q174 -155 174 -358 q0 -154 -99.5 -287.5 q-99.5 -133.5 -296.5 -213.5 Z" /><glyph glyph-name="asterisk" unicode="*" d="M270 406 l-41 10 l42 121 l-121 -42 l-12 41 l129 24 l-100 84 l31 30 l84 -97 l24 125 l41 -10 l-42 -121 l121 42 l12 -41 l-129 -24 l100 -84 l-31 -30 l-84 97 l-24 -125 Z" /><glyph glyph-name="plus" unicode="+" d="M256 113 l58 215 l-217 0 l13 48 l217 0 l57 215 l50 0 l-57 -215 l217 0 l-13 -48 l-217 0 l-58 -215 l-50 0 Z" /><glyph glyph-name="comma" unicode="," d="M-32 -106 l-7 24 q69 24 80 82 l-27 0 l23 85 l66 0 l-20 -74 q-15 -52 -40 -77.5 q-25 -25.5 -75 -39.5 Z" /><glyph glyph-name="hyphen" unicode="-" d="M74 269 l15 56 l268 0 l-15 -56 l-268 0 Z" /><glyph glyph-name="period" unicode="." d="M14 0 l23 85 l66 0 l-23 -85 l-66 0 Z" /><glyph glyph-name="slash" unicode="/" d="M-121 -128 l716 926 l54 0 l-716 -926 l-54 0 Z" /><glyph glyph-name="zero" unicode="0" d="M317 -12 q-112 0 -173.5 72.5 q-61.5 72.5 -61.5 189.5 q0 114 46 220 q46 106 130 174 q84 68 184 68 q112 0 173.5 -72.5 q61.5 -72.5 61.5 -189.5 q0 -114 -46 -220 q-46 -106 -130 -174 q-84 -68 -184 -68 ZM320 35 q79 0 150 61 q71 61 112 156.5 q41 95.5 41 197.5 q0 94 -48 154.5 q-48 60.5 -136 60.5 q-79 0 -150 -61 q-71 -61 -112 -156.5 q-41 -95.5 -41 -197.5 q0 -94 48 -154.5 q48 -60.5 136 -60.5 Z" /><glyph glyph-name="one" unicode="1" d="M93 0 l173 645 l-147 -46 l-2 47 l176 59 l41 0 l-189 -705 l-52 0 Z" /><glyph glyph-name="two" unicode="2" d="M-19 0 l9 39 l418 325 q64 50 93.5 90.5 q29.5 40.5 29.5 87.5 q0 53 -40 87 q-40 34 -110 34 q-106 0 -200 -100 l-37 32 q111 115 239 115 q89 0 145.5 -46.5 q56.5 -46.5 56.5 -120.5 q0 -58 -35.5 -107 q-35.5 -49 -109.5 -106 l-362 -280 l404 0 l-13 -50 l-488 0 Z" /><glyph glyph-name="three" unicode="3" d="M250 -12 q-87 0 -148.5 36.5 q-61.5 36.5 -91.5 100.5 l43 24 q59 -114 200 -114 q93 0 154 49.5 q61 49.5 61 126.5 q0 66 -52.5 99.5 q-52.5 33.5 -143.5 33.5 l-29 0 l-11 26 l312 282 l-375 0 l14 48 l450 0 l-10 -37 l-307 -277 q89 -4 148 -48.5 q59 -44.5 59 -122.5 q0 -98 -80 -162.5 q-80 -64.5 -193 -64.5 Z" /><glyph glyph-name="four" unicode="4" d="M369 0 l46 171 l-379 0 l-8 39 l533 495 l48 0 l-131 -489 l114 0 l-12 -45 l-114 0 l-46 -171 l-51 0 ZM99 216 l328 0 l109 406 l-437 -406 Z" /><glyph glyph-name="five" unicode="5" d="M252 -12 q-153 0 -236 125 l43 27 q72 -107 196 -107 q99 0 162.5 58 q63.5 58 63.5 138 q0 70 -47 110 q-47 40 -121 40 q-82 0 -161 -44 l-33 26 l111 339 l378 0 l-14 -48 l-332 0 l-86 -259 q23 13 64.5 23 q41.5 10 72.5 10 q102 0 162 -52.5 q60 -52.5 60 -142.5 q0 -101 -79 -172 q-79 -71 -204 -71 Z" /><glyph glyph-name="six" unicode="6" d="M317 -12 q-102 0 -166 64 q-68 68 -68 193 q0 112 38.5 208 q38.5 96 101.5 159 q100 100 224 100 q126 0 204 -93 l-38 -33 q-70 79 -169 79 q-99 0 -181 -82 q-49 -49 -83 -121.5 q-34 -72.5 -39 -144.5 q35 52 90.5 85 q55.5 33 127.5 33 q102 0 163 -60 q61 -60 61 -144 q0 -99 -76 -171 q-76 -72 -190 -72 ZM320 34 q90 0 149.5 58 q59.5 58 59.5 139 q0 62 -45 109 q-45 47 -128 47 q-93 0 -153.5 -56.5 q-60.5 -56.5 -60.5 -129.5 q0 -72 46 -118 q49 -49 132 -49 Z" /><glyph glyph-name="seven" unicode="7" d="M80 0 l471 650 l-403 0 l14 50 l464 0 l-11 -38 l-475 -662 l-60 0 Z" /><glyph glyph-name="eight" unicode="8" d="M295 -10 q-113 0 -184 53 q-71 53 -71 130 q0 81 60 132.5 q60 51.5 154 65.5 q-46 17 -76.5 56 q-30.5 39 -30.5 93 q0 81 72 135.5 q72 54.5 177 54.5 q101 0 166.5 -50 q65.5 -50 65.5 -129 q0 -71 -52 -119.5 q-52 -48.5 -129 -62.5 q51 -18 87 -60 q36 -42 36 -98 q0 -87 -78.5 -144 q-78.5 -57 -196.5 -57 ZM298 37 q98 0 158 43.5 q60 43.5 60 112.5 q0 59 -55.5 101.5 q-55.5 42.5 -146.5 42.5 q-99 0 -159.5 -46 q-60.5 -46 -60.5 -112 q0 -63 56 -102.5 q56 -39.5 148 -39.5 ZM375 380 q93 0 146 44.5 q53 44.5 53 103.5 q0 59 -49.5 97 q-49.5 38 -128.5 38 q-87 0 -141 -42 q-54 -42 -54 -105 q0 -58 49 -97 q49 -39 125 -39 Z" /><glyph glyph-name="nine" unicode="9" d="M243 -13 q-128 0 -210 99 l38 33 q75 -85 175 -85 q108 0 199.5 103.5 q91.5 103.5 102.5 241.5 q-83 -123 -220 -123 q-102 0 -162.5 60.5 q-60.5 60.5 -60.5 145.5 q0 102 77 175.5 q77 73.5 191 73.5 q106 0 169.5 -67 q63.5 -67 63.5 -190 q0 -102 -31.5 -191 q-31.5 -89 -83 -148.5 q-51.5 -59.5 -116.5 -93.5 q-65 -34 -132 -34 ZM335 304 q90 0 151 59.5 q61 59.5 61 136.5 q0 75 -52 120 q-52 45 -126 45 q-89 0 -149.5 -59.5 q-60.5 -59.5 -60.5 -141.5 q0 -65 44.5 -112.5 q44.5 -47.5 131.5 -47.5 Z" /><glyph glyph-name="colon" unicode=":" d="M19 0 l23 85 l66 0 l-23 -85 l-66 0 ZM133 425 l23 85 l66 0 l-23 -85 l-66 0 Z" /><glyph glyph-name="semicolon" unicode=";" d="M-27 -106 l-7 24 q69 24 80 82 l-27 0 l23 85 l66 0 l-20 -74 q-15 -52 -40 -77.5 q-25 -25.5 -75 -39.5 ZM133 425 l23 85 l66 0 l-23 -85 l-66 0 Z" /><glyph glyph-name="less" unicode="&lt;" d="M478 91 l-400 241 l11 40 l529 241 l-15 -59 l-458 -206 l347 -208 l-14 -49 Z" /><glyph glyph-name="equal" unicode="=" d="M81 214 l14 51 l454 0 l-14 -51 l-454 0 ZM142 439 l13 51 l454 0 l-13 -51 l-454 0 Z" /><glyph glyph-name="greater" unicode="&gt;" d="M51 91 l15 59 l458 206 l-347 208 l14 49 l400 -241 l-11 -40 l-529 -241 Z" /><glyph glyph-name="question" unicode="?" d="M128 0 l23 85 l66 0 l-23 -85 l-66 0 ZM194 183 l30 162 l7 5 q113 8 181.5 56.5 q68.5 48.5 68.5 126.5 q0 61 -43 95 q-43 34 -109 34 q-108 0 -196 -88 l-32 34 q101 101 232 101 q92 0 146.5 -49 q54.5 -49 54.5 -126 q0 -94 -75 -152 q-75 -58 -190 -74 l-43 -125 l-32 0 Z" /><glyph glyph-name="at" unicode="@" d="M486 -161 q-191 0 -305.5 107.5 q-114.5 107.5 -114.5 284.5 q0 127 66 238 q66 111 179.5 177 q113.5 66 245.5 66 q181 0 286 -100 q105 -100 105 -253 q0 -132 -65 -209 q-65 -77 -141 -77 q-52 0 -83 26.5 q-31 26.5 -38 73.5 q-79 -102 -186 -102 q-67 0 -112 45.5 q-45 45.5 -45 120.5 q0 107 75 186 q75 79 168 79 q60 0 98.5 -30.5 q38.5 -30.5 55.5 -77.5 l30 98 l47 -13 l-75 -242 q-8 -27 -8 -48 q0 -36 20 -57.5 q20 -21.5 58 -21.5 q59 0 112.5 66 q53.5 66 53.5 183 q0 138 -96 229.5 q-96 91.5 -260 91.5 q-186 0 -321 -134 q-135 -134 -135 -315 q0 -162 105.5 -261 q105.5 -99 279.5 -99 q108 0 207 45 l14 -29 q-105 -48 -221 -48 ZM445 118 q76 0 141 64.5 q65 64.5 65 142.5 q0 57 -35 93.5 q-35 36.5 -93 36.5 q-78 0 -133.5 -64 q-55.5 -64 -55.5 -152 q0 -56 31 -88.5 q31 -32.5 80 -32.5 Z" /><glyph glyph-name="A" unicode="a" d="M-34 0 l515 705 l50 0 l137 -705 l-53 0 l-36 196 l-413 0 l-142 -196 l-58 0 ZM200 243 l369 0 l-75 405 l-294 -405 Z" /><glyph glyph-name="B" unicode="b" d="M36 0 l188 700 l259 0 q96 0 153 -42.5 q57 -42.5 57 -116.5 q0 -74 -52 -123.5 q-52 -49.5 -133 -65.5 q60 -16 97 -52 q37 -36 37 -94 q0 -91 -79 -148.5 q-79 -57.5 -212 -57.5 l-315 0 ZM101 48 l253 0 q109 0 172 42 q63 42 63 116 q0 59 -51 91 q-51 32 -134 32 l-228 0 l-75 -281 ZM189 377 l216 0 q106 0 170 44 q64 44 64 115 q0 57 -42.5 86.5 q-42.5 29.5 -118.5 29.5 l-215 0 l-74 -275 Z" /><glyph glyph-name="C" unicode="c" d="M378 -13 q-120 0 -203 77.5 q-83 77.5 -83 206.5 q0 112 55.5 214 q55.5 102 153 164.5 q97.5 62.5 209.5 62.5 q92 0 157.5 -41.5 q65.5 -41.5 99.5 -109.5 l-45 -24 q-36 63 -86.5 95.5 q-50.5 32.5 -128.5 32.5 q-148 0 -254.5 -120 q-106.5 -120 -106.5 -272 q0 -109 66.5 -173.5 q66.5 -64.5 170.5 -64.5 q74 0 129.5 26.5 q55.5 26.5 107.5 78.5 l35 -32 q-116 -121 -277 -121 Z" /><glyph glyph-name="D" unicode="d" d="M36 0 l188 700 l157 0 q178 0 272 -94 q77 -77 77 -200 q0 -162 -109 -271 q-64 -64 -156.5 -99.5 q-92.5 -35.5 -199.5 -35.5 l-229 0 ZM101 48 l171 0 q190 0 310 120 q94 94 94 234 q0 108 -65 171 q-79 79 -233 79 l-115 0 l-162 -604 Z" /><glyph glyph-name="E" unicode="e" d="M36 0 l188 700 l493 0 l-13 -48 l-441 0 l-74 -275 l396 0 l-13 -48 l-396 0 l-75 -281 l446 0 l-13 -48 l-498 0 Z" /><glyph glyph-name="F" unicode="f" d="M36 0 l188 700 l493 0 l-13 -48 l-441 0 l-77 -287 l396 0 l-13 -48 l-396 0 l-85 -317 l-52 0 Z" /><glyph glyph-name="G" unicode="g" d="M643 62 q-115 -75 -247 -75 q-132 0 -217 81 q-85 81 -85 214 q0 108 55 206.5 q55 98.5 154.5 161 q99.5 62.5 217.5 62.5 q173 0 256 -130 l-41 -27 q-35 53 -85 81.5 q-50 28.5 -135 28.5 q-102 0 -188 -56 q-86 -56 -133 -143 q-47 -87 -47 -182 q0 -116 69 -183 q69 -67 182 -67 q116 0 202 57 l64 224 l-233 0 l13 48 l284 0 l-86 -301 Z" /><glyph glyph-name="H" unicode="h" d="M36 0 l188 700 l52 0 l-87 -324 l443 0 l87 324 l52 0 l-188 -700 l-52 0 l88 328 l-443 0 l-88 -328 l-52 0 Z" /><glyph glyph-name="I" unicode="i" d="M43 0 l188 700 l52 0 l-188 -700 l-52 0 Z" /><glyph glyph-name="J" unicode="j" d="M196 -10 q-83 0 -132.5 44 q-49.5 44 -68.5 117 l46 16 q40 -130 153 -130 q75 0 127 52 q50 50 78 153 l123 458 l52 0 l-125 -465 q-31 -117 -93 -179 q-66 -66 -160 -66 Z" /><glyph glyph-name="K" unicode="k" d="M36 0 l188 700 l52 0 l-122 -455 l560 455 l77 0 l-389 -313 l212 -387 l-60 0 l-195 357 l-224 -182 l-47 -175 l-52 0 Z" /><glyph glyph-name="L" unicode="l" d="M36 0 l188 700 l52 0 l-175 -652 l411 0 l-13 -48 l-463 0 Z" /><glyph glyph-name="M" unicode="m" d="M36 0 l188 700 l43 0 l170 -414 l392 414 l55 0 l-188 -700 l-52 0 l163 608 l-385 -403 l-4 0 l-169 403 l-163 -608 l-50 0 Z" /><glyph glyph-name="N" unicode="n" d="M36 0 l188 700 l48 0 l315 -613 l165 613 l50 0 l-188 -700 l-38 0 l-322 626 l-168 -626 l-50 0 Z" /><glyph glyph-name="O" unicode="o" d="M398 -13 q-131 0 -216.5 86.5 q-85.5 86.5 -85.5 214.5 q0 108 53.5 206 q53.5 98 147 158 q93.5 60 202.5 60 q131 0 216.5 -86.5 q85.5 -86.5 85.5 -214.5 q0 -108 -53.5 -206 q-53.5 -98 -147 -158 q-93.5 -60 -202.5 -60 ZM398 34 q96 0 177 54 q81 54 126.5 140.5 q45.5 86.5 45.5 182.5 q0 109 -69 181.5 q-69 72.5 -179 72.5 q-96 0 -177 -54 q-81 -54 -126.5 -140.5 q-45.5 -86.5 -45.5 -182.5 q0 -109 69 -181.5 q69 -72.5 179 -72.5 Z" /><glyph glyph-name="P" unicode="p" d="M36 0 l188 700 l218 0 q130 0 193 -63 q48 -48 48 -125 q0 -118 -93 -184 q-93 -66 -253 -66 l-178 0 l-71 -262 l-52 0 ZM171 309 l168 0 q141 0 216.5 52.5 q75.5 52.5 75.5 148.5 q0 57 -36 93 q-49 49 -154 49 l-178 0 l-92 -343 Z" /><glyph glyph-name="Q" unicode="q" d="M692 -24 l-72 85 q-103 -74 -222 -74 q-131 0 -216.5 86.5 q-85.5 86.5 -85.5 214.5 q0 108 53.5 206 q53.5 98 147 158 q93.5 60 202.5 60 q131 0 216.5 -86.5 q85.5 -86.5 85.5 -214.5 q0 -90 -39 -175 q-39 -85 -107 -146 l75 -82 l-38 -32 ZM398 34 q103 0 190 63 l-117 130 l38 33 l114 -134 q58 54 91 129.5 q33 75.5 33 155.5 q0 109 -69 181.5 q-69 72.5 -179 72.5 q-96 0 -177 -54 q-81 -54 -126.5 -140.5 q-45.5 -86.5 -45.5 -182.5 q0 -109 69 -181.5 q69 -72.5 179 -72.5 Z" /><glyph glyph-name="R" unicode="r" d="M36 0 l188 700 l251 0 q126 0 188 -62 q44 -44 44 -114 q0 -84 -62 -146 q-68 -68 -206 -83 l154 -295 l-60 0 l-150 290 l-217 0 l-78 -290 l-52 0 ZM178 337 l210 0 q149 0 220 71 q47 47 47 113 q0 52 -31 83 q-48 48 -151 48 l-210 0 l-85 -315 Z" /><glyph glyph-name="S" unicode="s" d="M299 -10 q-184 0 -279 134 l40 29 q46 -59 104 -87.5 q58 -28.5 140 -28.5 q86 0 144 43.5 q58 43.5 58 109.5 q0 46 -34 77 q-34 31 -119 64 q-111 43 -155.5 83 q-44.5 40 -44.5 103 q0 81 70 137 q70 56 181 56 q76 0 139.5 -29.5 q63.5 -29.5 103.5 -77.5 l-40 -32 q-80 92 -208 92 q-87 0 -140 -42 q-53 -42 -53 -100 q0 -47 38 -77.5 q38 -30.5 129 -65.5 q100 -38 143 -79.5 q43 -41.5 43 -104.5 q0 -86 -74 -145 q-74 -59 -186 -59 Z" /><glyph glyph-name="T" unicode="t" d="M209 0 l175 652 l-244 0 l13 48 l540 0 l-13 -48 l-244 0 l-175 -652 l-52 0 Z" /><glyph glyph-name="U" unicode="u" d="M348 -11 q-122 0 -187 61 q-65 61 -65 159 q0 54 14 108 l102 383 l52 0 l-108 -407 q-9 -36 -9 -80 q0 -79 52 -128 q52 -49 153 -49 q99 0 171 72 q65 65 98 186 l109 406 l52 0 l-112 -417 q-35 -130 -111 -206 q-88 -88 -211 -88 Z" /><glyph glyph-name="V" unicode="v" d="M259 -5 l-117 705 l54 0 l99 -644 l446 644 l59 0 l-495 -705 l-46 0 Z" /><glyph glyph-name="W" unicode="w" d="M215 -5 l-65 705 l54 0 l53 -623 l372 625 l40 0 l38 -625 l387 623 l58 0 l-443 -705 l-42 0 l-42 608 l-368 -608 l-42 0 Z" /><glyph glyph-name="X" unicode="x" d="M-23 0 l366 362 l-186 338 l56 0 l167 -308 l310 308 l67 0 l-352 -347 l192 -353 l-56 0 l-173 323 l-324 -323 l-67 0 Z" /><glyph glyph-name="Y" unicode="y" d="M234 0 l76 284 l-183 416 l57 0 l161 -376 l364 376 l70 0 l-421 -429 l-72 -271 l-52 0 Z" /><glyph glyph-name="Z" unicode="z" d="M-19 0 l8 29 l636 624 l-452 0 l13 47 l533 0 l-8 -29 l-636 -624 l472 0 l-13 -47 l-553 0 Z" /><glyph glyph-name="bracketleft" unicode="[" d="M16 -130 l223 830 l273 0 l-11 -38 l-227 0 l-202 -754 l227 0 l-10 -38 l-273 0 Z" /><glyph glyph-name="backslash" unicode="\" d="M368 -128 l-221 926 l44 0 l221 -926 l-44 0 Z" /><glyph glyph-name="bracketright" unicode="]" d="M-67 -130 l11 38 l227 0 l202 754 l-227 0 l10 38 l273 0 l-223 -830 l-273 0 Z" /><glyph glyph-name="asciicircum" unicode="^" d="M129 493 l214 210 l44 0 l102 -210 l-47 0 l-83 167 l-173 -167 l-57 0 Z" /><glyph glyph-name="underscore" unicode="_" d="M-114 -160 l12 44 l605 0 l-12 -44 l-605 0 Z" /><glyph glyph-name="grave" unicode="`" d="M368 595 l-79 103 l62 30 l52 -133 l-35 0 Z" /><glyph glyph-name="a" unicode="a" d="M190 -12 q-69 0 -118 37.5 q-49 37.5 -49 105.5 q0 84 64 134.5 q64 50.5 166 50.5 q90 0 196 -29 l4 14 q7 26 7 51 q0 58 -39.5 89 q-39.5 31 -114.5 31 q-70 0 -148 -27 l-9 44 q81 29 161 29 q93 0 145.5 -42.5 q52.5 -42.5 52.5 -116.5 q0 -29 -10 -67 l-78 -292 l-48 0 l23 88 q-84 -100 -205 -100 ZM199 33 q75 0 141.5 47.5 q66.5 47.5 86.5 122.5 l12 45 q-96 24 -193 24 q-76 0 -123.5 -37.5 q-47.5 -37.5 -47.5 -97.5 q0 -47 33.5 -75.5 q33.5 -28.5 90.5 -28.5 Z" /><glyph glyph-name="b" unicode="b" d="M312 -13 q-79 0 -130 40.5 q-51 40.5 -73 102.5 l-35 -130 l-49 0 l196 730 l49 0 l-87 -320 q94 112 212 112 q89 0 147 -60.5 q58 -60.5 58 -154.5 q0 -134 -86 -227 q-86 -93 -202 -93 ZM310 33 q101 0 169 80 q68 80 68 188 q0 78 -44 126.5 q-44 48.5 -114 48.5 q-96 0 -175.5 -82 q-79.5 -82 -79.5 -183 q0 -75 49.5 -126.5 q49.5 -51.5 126.5 -51.5 Z" /><glyph glyph-name="c" unicode="c" d="M272 -12 q-89 0 -155.5 60 q-66.5 60 -66.5 160 q0 126 89.5 220 q89.5 94 210.5 94 q73 0 123.5 -35 q50.5 -35 76.5 -88 l-41 -23 q-57 100 -162 100 q-97 0 -170.5 -80 q-73.5 -80 -73.5 -185 q0 -82 50.5 -129.5 q50.5 -47.5 121.5 -47.5 q87 0 165 73 l33 -32 q-90 -87 -201 -87 Z" /><glyph glyph-name="d" unicode="d" d="M259 -13 q-89 0 -147 60.5 q-58 60.5 -58 154.5 q0 134 86 227 q86 93 202 93 q79 0 130 -40.5 q51 -40.5 73 -102.5 l94 351 l49 0 l-195 -730 l-49 0 l26 99 q-94 -112 -211 -112 ZM265 33 q96 0 175.5 82 q79.5 82 79.5 183 q0 75 -49.5 126.5 q-49.5 51.5 -126.5 51.5 q-101 0 -169 -80 q-68 -80 -68 -188 q0 -78 44 -126.5 q44 -48.5 114 -48.5 Z" /><glyph glyph-name="e" unicode="e" d="M272 -12 q-98 0 -160 60 q-62 60 -62 154 q0 123 87 221.5 q87 98.5 208 98.5 q92 0 142.5 -56 q50.5 -56 50.5 -139 q0 -49 -14 -89 l-419 0 q-2 -22 -2 -34 q0 -77 47 -123.5 q47 -46.5 122 -46.5 q91 0 174 68 l29 -35 q-95 -79 -203 -79 ZM114 282 l370 0 q4 18 4 42 q0 66 -36.5 109.5 q-36.5 43.5 -107.5 43.5 q-82 0 -144.5 -56 q-62.5 -56 -85.5 -139 Z" /><glyph glyph-name="f" unicode="f" d="M55 0 l125 465 l-74 0 l12 45 l74 0 l20 74 q39 146 163 146 q57 0 102 -24 l-12 -44 q-51 24 -92 24 q-86 0 -115 -113 l-17 -63 l184 0 l-12 -45 l-184 0 l-125 -465 l-49 0 Z" /><glyph glyph-name="g" unicode="g" d="M236 -162 q-67 0 -131 25.5 q-64 25.5 -110 69.5 l36 36 q90 -85 207 -85 q100 0 157 57 q45 45 70 134 l18 64 q-95 -101 -210 -101 q-86 0 -149.5 54.5 q-63.5 54.5 -63.5 143.5 q0 123 88 204.5 q88 81.5 201 81.5 q140 0 199 -136 l33 124 l49 0 l-119 -447 q-27 -99 -80 -152 q-73 -73 -195 -73 ZM282 84 q95 0 169.5 70.5 q74.5 70.5 74.5 157.5 q0 65 -49.5 114 q-49.5 49 -129.5 49 q-93 0 -163.5 -67 q-70.5 -67 -70.5 -169 q0 -73 50 -114 q50 -41 119 -41 Z" /><glyph glyph-name="h" unicode="h" d="M25 0 l196 730 l49 0 l-85 -315 q89 107 193 107 q76 0 121.5 -44.5 q45.5 -44.5 45.5 -117.5 q0 -28 -11 -72 l-76 -288 l-49 0 l78 292 q8 30 8 63 q0 57 -35 90 q-35 33 -96 33 q-67 0 -129 -54 q-62 -54 -84 -136 l-77 -288 l-49 0 Z" /><glyph glyph-name="i" unicode="i" d="M32 0 l137 510 l49 0 l-137 -510 l-49 0 ZM199 643 l18 67 l61 0 l-18 -67 l-61 0 Z" /><glyph glyph-name="j" unicode="j" d="M-52 -163 q-33 0 -63 10 l12 44 q28 -8 47 -8 q56 0 75 69 l150 558 l49 0 l-151 -562 q-14 -53 -45 -82 q-31 -29 -74 -29 ZM199 643 l18 67 l61 0 l-18 -67 l-61 0 Z" /><glyph glyph-name="k" unicode="k" d="M25 0 l196 730 l49 0 l-145 -541 l396 321 l71 0 l-284 -228 l152 -282 l-57 0 l-136 252 l-160 -128 l-33 -124 l-49 0 Z" /><glyph glyph-name="l" unicode="l" d="M32 0 l196 730 l49 0 l-196 -730 l-49 0 Z" /><glyph glyph-name="m" unicode="m" d="M25 0 l136 510 l49 0 l-25 -95 q43 53 84.5 80 q41.5 27 98.5 27 q64 0 102 -36.5 q38 -36.5 47 -88.5 q76 125 214 125 q69 0 114 -45.5 q45 -45.5 45 -116.5 q0 -20 -13 -72 l-76 -288 l-49 0 l78 292 q8 30 8 63 q0 56 -33 89.5 q-33 33.5 -88 33.5 q-62 0 -122 -54.5 q-60 -54.5 -81 -135.5 l-76 -288 l-49 0 l78 292 q8 30 8 63 q0 56 -33 89.5 q-33 33.5 -88 33.5 q-62 0 -122 -54.5 q-60 -54.5 -81 -135.5 l-77 -288 l-49 0 Z" /><glyph glyph-name="n" unicode="n" d="M25 0 l136 510 l49 0 l-25 -95 q89 107 193 107 q76 0 121.5 -44.5 q45.5 -44.5 45.5 -117.5 q0 -28 -11 -72 l-76 -288 l-49 0 l78 292 q8 30 8 63 q0 57 -35 90 q-35 33 -96 33 q-67 0 -129 -54 q-62 -54 -84 -136 l-77 -288 l-49 0 Z" /><glyph glyph-name="o" unicode="o" d="M278 -12 q-101 0 -164 63.5 q-63 63.5 -63 162.5 q0 122 91 215 q91 93 212 93 q101 0 164 -63.5 q63 -63.5 63 -162.5 q0 -124 -92 -216 q-92 -92 -211 -92 ZM283 34 q95 0 170 78 q75 78 75 182 q0 85 -49 133.5 q-49 48.5 -130 48.5 q-97 0 -171 -79 q-74 -79 -74 -181 q0 -85 49 -133.5 q49 -48.5 130 -48.5 Z" /><glyph glyph-name="p" unicode="p" d="M-18 -160 l180 670 l48 0 l-27 -100 q94 112 212 112 q89 0 147 -60.5 q58 -60.5 58 -154.5 q0 -134 -86 -227 q-86 -93 -202 -93 q-79 0 -130 40.5 q-51 40.5 -73 102.5 l-78 -290 l-49 0 ZM310 33 q101 0 169 80 q68 80 68 188 q0 78 -44 126.5 q-44 48.5 -114 48.5 q-96 0 -175.5 -82 q-79.5 -82 -79.5 -183 q0 -75 49.5 -126.5 q49.5 -51.5 126.5 -51.5 Z" /><glyph glyph-name="q" unicode="q" d="M391 -200 l80 300 q-94 -113 -212 -113 q-89 0 -147 60.5 q-58 60.5 -58 154.5 q0 134 86 227 q86 93 202 93 q80 0 130.5 -40.5 q50.5 -40.5 72.5 -101.5 l35 130 l49 0 l-189 -710 l-49 0 ZM265 33 q96 0 175.5 82.5 q79.5 82.5 79.5 183.5 q0 75 -49.5 126 q-49.5 51 -126.5 51 q-101 0 -169 -80 q-68 -80 -68 -188 q0 -78 44 -126.5 q44 -48.5 114 -48.5 Z" /><glyph glyph-name="r" unicode="r" d="M25 0 l136 510 l49 0 l-38 -145 q115 161 262 153 l-14 -54 l-4 0 q-92 0 -173.5 -69 q-81.5 -69 -112.5 -186 l-56 -209 l-49 0 Z" /><glyph glyph-name="s" unicode="s" d="M217 -11 q-128 0 -216 88 l35 35 q81 -78 187 -78 q51 0 91.5 28.5 q40.5 28.5 40.5 72.5 q0 31 -23.5 54 q-23.5 23 -87.5 47 q-76 28 -109.5 58.5 q-33.5 30.5 -33.5 78.5 q0 62 52.5 105 q52.5 43 136.5 43 q103 0 184 -68 l-32 -37 q-73 60 -157 60 q-61 0 -96.5 -28 q-35.5 -28 -35.5 -67 q0 -31 23 -52 q23 -21 92 -48 q76 -30 107.5 -61 q31.5 -31 31.5 -77 q0 -66 -56 -110 q-56 -44 -134 -44 Z" /><glyph glyph-name="t" unicode="t" d="M206 -9 q-54 0 -88 25.5 q-34 25.5 -34 75.5 q0 23 6 49 l87 324 l-74 0 l12 45 l74 0 l44 163 l49 0 l-44 -163 l176 0 l-12 -45 l-176 0 l-87 -325 q-5 -22 -5 -43 q0 -61 83 -61 q32 0 74 16 l-13 -48 q-35 -13 -72 -13 Z" /><glyph glyph-name="u" unicode="u" d="M231 -12 q-76 0 -121.5 44.5 q-45.5 44.5 -45.5 117.5 q0 28 11 72 l76 288 l49 0 l-78 -292 q-8 -30 -8 -63 q0 -57 35 -90 q35 -33 96 -33 q67 0 129 54 q62 54 84 136 l77 288 l49 0 l-136 -510 l-49 0 l25 95 q-89 -107 -193 -107 Z" /><glyph glyph-name="v" unicode="v" d="M179 -4 l-90 514 l53 0 l71 -455 l313 455 l59 0 l-364 -514 l-42 0 Z" /><glyph glyph-name="w" unicode="w" d="M148 -4 l-49 514 l50 0 l37 -444 l273 446 l39 0 l35 -446 l275 444 l54 0 l-325 -514 l-43 0 l-35 437 l-270 -437 l-41 0 Z" /><glyph glyph-name="x" unicode="x" d="M-29 0 l284 264 l-135 246 l56 0 l112 -215 l224 215 l66 0 l-268 -250 l141 -260 l-56 0 l-118 229 l-240 -229 l-66 0 Z" /><glyph glyph-name="y" unicode="y" d="M20 -163 q-58 0 -108 35 l27 40 q36 -29 87 -29 q40 0 78.5 27.5 q38.5 27.5 84.5 92.5 l-104 507 l52 0 l89 -456 l307 456 l59 0 l-363 -528 q-54 -78 -103.5 -111.5 q-49.5 -33.5 -105.5 -33.5 Z" /><glyph glyph-name="z" unicode="z" d="M-17 0 l8 28 l475 438 l-344 0 l12 44 l424 0 l-8 -28 l-475 -438 l361 0 l-12 -44 l-441 0 Z" /><glyph glyph-name="braceleft" unicode="{" d="M312 -141 q-82 18 -120 63 q-38 45 -38 104 q0 36 23 120 q9 32 9 55 q0 67 -95 67 l-26 0 l10 38 l26 0 q77 0 112.5 40.5 q35.5 40.5 56.5 143.5 q21 108 79.5 162.5 q58.5 54.5 191.5 62.5 l-3 -37 q-105 -6 -153.5 -53 q-48.5 -47 -66.5 -140 q-20 -103 -53.5 -146 q-33.5 -43 -99.5 -54 q69 -21 69 -83 q0 -27 -9 -57 q-22 -75 -22 -115 q0 -106 123 -140 l-14 -31 Z" /><glyph glyph-name="bar" unicode="|" d="M141 -128 l0 926 l44 0 l0 -926 l-44 0 Z" /><glyph glyph-name="braceright" unicode="}" d="M-44 -141 l3 37 q105 6 153.5 53 q48.5 47 66.5 140 q20 103 53.5 146 q33.5 43 99.5 54 q-69 21 -69 83 q0 27 9 57 q22 75 22 115 q0 106 -123 140 l14 31 q82 -18 120 -63 q38 -45 38 -104 q0 -36 -23 -120 q-9 -32 -9 -55 q0 -67 95 -67 l26 0 l-10 -38 l-26 0 q-77 0 -112.5 -40.5 q-35.5 -40.5 -56.5 -143.5 q-22 -108 -80 -162.5 q-58 -54.5 -191 -62.5 Z" /><glyph glyph-name="asciitilde" unicode="~" d="M125 245 l-38 15 q25 50 49 73 q24 23 55 23 q20 0 33.5 -8 q13.5 -8 33.5 -27 q31 -30 48 -30 q15 0 27.5 14 q12.5 14 31.5 46 l38 -15 q-25 -50 -49 -73 q-24 -23 -55 -23 q-20 0 -33.5 8 q-13.5 8 -33.5 27 q-31 30 -48 30 q-15 0 -27.5 -14 q-12.5 -14 -31.5 -46 Z" /><glyph glyph-name="nonbreakingspace" unicode=" " d="" /><glyph glyph-name="exclamdown" unicode="¡" d="M28 0 l19 70 l135 447 l28 0 l-105 -447 l-19 -70 l-58 0 ZM189 615 l23 85 l66 0 l-23 -85 l-66 0 Z" /><glyph glyph-name="cent" unicode="¢" d="M160 -6 l44 111 q-59 25 -94 78 q-35 53 -35 120 q0 130 90 224 q90 94 215 94 q18 0 27 -1 l34 86 l50 0 l-38 -94 q95 -24 135 -113 l-41 -23 q-42 76 -114 93 l-170 -433 q17 -3 36 -3 q98 0 179 73 l33 -32 q-94 -87 -215 -87 q-22 0 -47 5 l-39 -98 l-50 0 ZM223 148 l168 427 l-14 0 q-103 0 -176 -80 q-73 -80 -73 -191 q0 -54 25 -95.5 q25 -41.5 70 -60.5 Z" /><glyph glyph-name="sterling" unicode="£" d="M-2 0 l7 25 l91 20 l70 260 l-86 0 l13 48 l86 0 l35 131 q27 102 80 155 q68 68 163 68 q126 0 186 -110 l-43 -26 q-55 89 -146 89 q-71 0 -121 -50 q-46 -46 -70 -135 l-33 -122 l298 0 l-13 -48 l-298 0 l-69 -258 l374 0 l-13 -47 l-511 0 Z" /><glyph glyph-name="currency" unicode="¤" d="M372 -12 q-103 0 -170.5 69.5 q-67.5 69.5 -72.5 187.5 l-92 0 l13 48 l80 0 q3 65 21 123 l-69 0 l13 48 l73 0 q45 111 130.5 179.5 q85.5 68.5 194.5 68.5 q83 0 139 -44 q56 -44 80 -115 l-45 -18 q-27 64 -69.5 97 q-42.5 33 -113.5 33 q-82 0 -151.5 -55 q-69.5 -55 -109.5 -146 l301 0 l-13 -48 l-306 0 q-19 -62 -22 -123 l296 0 l-13 -48 l-283 0 q5 -95 55 -152.5 q50 -57.5 135 -57.5 q113 0 201 98 l35 -30 q-103 -115 -237 -115 Z" /><glyph glyph-name="yen" unicode="¥" d="M251 0 l33 125 l-210 0 l12 45 l210 0 l26 98 l-210 0 l12 45 l190 0 l-170 387 l59 0 l161 -376 l364 376 l68 0 l-380 -387 l184 0 l-12 -45 l-214 0 l-26 -98 l214 0 l-12 -45 l-214 0 l-33 -125 l-52 0 Z" /><glyph glyph-name="brokenbar" unicode="¦" d="M138 411 l-54 0 l0 250 l54 0 l0 -250 ZM138 -89 l-54 0 l0 250 l54 0 l0 -250 Z" /><glyph glyph-name="section" unicode="§" d="M288 -10 q-66 0 -126 23.5 q-60 23.5 -95 58.5 l33 37 q33 -31 85 -52.5 q52 -21.5 110 -21.5 q52 0 87 21.5 q35 21.5 35 56.5 q0 31 -32 54 q-32 23 -107 49 q-100 35 -144 67 q-44 32 -44 79 q0 58 56 93 q56 35 142 35 q-77 34 -77 96 q0 57 52 90.5 q52 33.5 129 33.5 q66 0 126 -23.5 q60 -23.5 95 -58.5 l-33 -37 q-33 31 -85 52.5 q-52 21.5 -110 21.5 q-52 0 -87 -21.5 q-35 -21.5 -35 -56.5 q0 -31 32 -54 q32 -23 107 -49 q100 -35 144 -67 q44 -32 44 -79 q0 -58 -56 -93 q-56 -35 -142 -35 q77 -34 77 -96 q0 -57 -52 -90.5 q-52 -33.5 -129 -33.5 ZM392 245 q62 0 104 26 q42 26 42 63 q0 29 -30.5 52 q-30.5 23 -102.5 48 q-62 21 -117 21 q-62 0 -104 -26 q-42 -26 -42 -63 q0 -29 30.5 -52 q30.5 -23 102.5 -48 q60 -21 117 -21 Z" /><glyph glyph-name="dieresis" unicode="¨" d="M213 595 l22 80 l69 0 l-22 -80 l-69 0 ZM376 595 l22 80 l69 0 l-22 -80 l-69 0 Z" /><glyph glyph-name="copyright" unicode="©" d="M696 95 q-106 -107 -257 -107 q-151 0 -256 106 q-105 106 -105 255 q0 149 106 256 q106 107 257 107 q151 0 256 -106 q105 -106 105 -255 q0 -149 -106 -256 ZM203 113 q95 -97 236 -97 q141 0 237 98 q96 98 96 237 q0 139 -95 236 q-95 97 -236 97 q-141 0 -237 -98 q-96 -98 -96 -237 q0 -139 95 -236 ZM444 166 q-77 0 -129.5 55 q-52.5 55 -52.5 134 q0 78 52.5 134 q52.5 56 130.5 56 q77 0 141 -61 l-30 -31 q-54 52 -112 52 q-60 0 -99 -43.5 q-39 -43.5 -39 -105.5 q0 -62 40.5 -106 q40.5 -44 98.5 -44 q60 0 115 52 l28 -28 q-66 -64 -144 -64 Z" /><glyph glyph-name="ordfeminine" unicode="ª" d="M58 293 l10 40 l244 0 l-10 -40 l-244 0 ZM191 410 q-36 0 -60.5 20.5 q-24.5 20.5 -24.5 54.5 q0 48 36.5 77 q36.5 29 94.5 29 q39 0 97 -15 l2 6 q4 14 4 27 q0 58 -78 58 q-38 0 -80 -15 l-7 35 q48 17 94 17 q53 0 82 -23.5 q29 -23.5 29 -64.5 q0 -13 -6 -39 l-43 -161 l-40 0 l14 50 q-51 -56 -114 -56 ZM201 442 q38 0 75 27.5 q37 27.5 47 64.5 l4 14 q-50 12 -90 12 q-39 0 -64 -20 q-25 -20 -25 -51 q0 -21 14.5 -34 q14.5 -13 38.5 -13 Z" /><glyph glyph-name="guillemotleft" unicode="«" d="M149 42 l-104 209 l2 8 l216 209 l36 -28 l-192 -192 l83 -184 l-41 -22 ZM353 42 l-104 209 l2 8 l216 209 l36 -28 l-192 -192 l83 -184 l-41 -22 Z" /><glyph glyph-name="logicalnot" unicode="¬" d="M524 259 l-50 0 l48 180 l-404 0 l14 51 l454 0 l-62 -231 Z" /><glyph glyph-name="uni00AD" unicode="­" d="M74 269 l15 56 l268 0 l-15 -56 l-268 0 Z" /><glyph glyph-name="registered" unicode="®" d="M696 95 q-106 -107 -257 -107 q-151 0 -256 106 q-105 106 -105 255 q0 149 106 256 q106 107 257 107 q151 0 256 -106 q105 -106 105 -255 q0 -149 -106 -256 ZM203 113 q95 -97 236 -97 q141 0 237 98 q96 98 96 237 q0 139 -95 236 q-95 97 -236 97 q-141 0 -237 -98 q-96 -98 -96 -237 q0 -139 95 -236 ZM301 177 l0 366 l164 0 q59 0 97 -29 q38 -29 38 -77 q0 -43 -27 -70 q-27 -27 -73 -36 l122 -154 l-56 0 l-116 147 l-106 0 l0 -147 l-43 0 ZM344 364 l114 0 q43 0 70 18.5 q27 18.5 27 52.5 q0 31 -24.5 49 q-24.5 18 -67.5 18 l-119 0 l0 -138 Z" /><glyph glyph-name="macron" unicode="¯" d="M190 600 l14 53 l300 0 l-14 -53 l-300 0 Z" /><glyph glyph-name="degree" unicode="°" d="M214 411 q-55 0 -90.5 36 q-35.5 36 -35.5 90 q0 67 49.5 117.5 q49.5 50.5 116.5 50.5 q55 0 90.5 -36 q35.5 -36 35.5 -90 q0 -67 -49.5 -117.5 q-49.5 -50.5 -116.5 -50.5 ZM219 453 q46 0 81 36.5 q35 36.5 35 84.5 q0 41 -24 65 q-24 24 -62 24 q-46 0 -81 -36.5 q-35 -36.5 -35 -84.5 q0 -41 24 -65 q24 -24 62 -24 Z" /><glyph glyph-name="plusminus" unicode="±" d="M567 294 l-222 0 l-47 -178 l-53 0 l47 178 l-222 0 l13 48 l222 0 l48 177 l53 0 l-48 -177 l222 0 l-13 -48 ZM494 22 l-497 0 l13 48 l497 0 l-13 -48 Z" /><glyph glyph-name="twosuperior" unicode="²" d="M0 0 l0 700 l500 0 l0 -700 l-500 0 ZM81 49 l339 0 l-170 255 l-169 -255 ZM49 96 l171 254 l-171 254 l0 -508 ZM450 96 l0 508 l-171 -254 l171 -254 ZM250 395 l170 255 l-339 0 l169 -255 Z" /><glyph glyph-name="threesuperior" unicode="³" d="M0 0 l0 700 l500 0 l0 -700 l-500 0 ZM81 49 l339 0 l-170 255 l-169 -255 ZM49 96 l171 254 l-171 254 l0 -508 ZM450 96 l0 508 l-171 -254 l171 -254 ZM250 395 l170 255 l-339 0 l169 -255 Z" /><glyph glyph-name="acute" unicode="´" d="M251 595 l124 133 l62 -30 l-135 -103 l-51 0 Z" /><glyph glyph-name="mu" unicode="µ" d="M226 -12 q-96 0 -131 91 l-63 -239 l-49 0 l179 670 l49 0 l-81 -303 q-9 -33 -9 -61 q0 -53 31.5 -83 q31.5 -30 92.5 -30 q76 0 140.5 51.5 q64.5 51.5 85.5 130.5 l79 295 l49 0 l-136 -510 l-49 0 l24 89 q-84 -101 -212 -101 Z" /><glyph glyph-name="paragraph" unicode="¶" d="M260 0 l70 263 q-101 6 -164.5 50 q-63.5 44 -63.5 133 q0 119 87 186.5 q87 67.5 239 67.5 l73 0 l-188 -700 l-53 0 Z" /><glyph glyph-name="periodcentered" unicode="·" d="M82 255 l23 85 l66 0 l-23 -85 l-66 0 Z" /><glyph glyph-name="cedilla" unicode="¸" d="M118 -148 l-48 26 l125 132 l43 0 l-120 -158 Z" /><glyph glyph-name="onesuperior" unicode="¹" d="M0 0 l0 700 l500 0 l0 -700 l-500 0 ZM81 49 l339 0 l-170 255 l-169 -255 ZM49 96 l171 254 l-171 254 l0 -508 ZM450 96 l0 508 l-171 -254 l171 -254 ZM250 395 l170 255 l-339 0 l169 -255 Z" /><glyph glyph-name="ordmasculine" unicode="º" d="M60 293 l10 40 l268 0 l-10 -40 l-268 0 ZM245 407 q-58 0 -94 36.5 q-36 36.5 -36 92.5 q0 67 49.5 118 q49.5 51 117.5 51 q57 0 93.5 -36.5 q36.5 -36.5 36.5 -92.5 q0 -67 -49.5 -118 q-49.5 -51 -117.5 -51 ZM248 444 q49 0 85 39 q36 39 36 91 q0 42 -25 68 q-25 26 -65 26 q-50 0 -86 -39 q-36 -39 -36 -91 q0 -42 25.5 -68 q25.5 -26 65.5 -26 Z" /><glyph glyph-name="guillemotright" unicode="»" d="M47 41 l-36 28 l192 192 l-83 184 l41 22 l104 -209 l-2 -8 l-216 -209 ZM251 41 l-36 28 l192 192 l-83 184 l41 22 l104 -209 l-2 -8 l-216 -209 Z" /><glyph glyph-name="onequarter" unicode="¼" d="M0 0 l0 700 l500 0 l0 -700 l-500 0 ZM81 49 l339 0 l-170 255 l-169 -255 ZM49 96 l171 254 l-171 254 l0 -508 ZM450 96 l0 508 l-171 -254 l171 -254 ZM250 395 l170 255 l-339 0 l169 -255 Z" /><glyph glyph-name="onehalf" unicode="½" d="M0 0 l0 700 l500 0 l0 -700 l-500 0 ZM81 49 l339 0 l-170 255 l-169 -255 ZM49 96 l171 254 l-171 254 l0 -508 ZM450 96 l0 508 l-171 -254 l171 -254 ZM250 395 l170 255 l-339 0 l169 -255 Z" /><glyph glyph-name="threequarters" unicode="¾" d="M0 0 l0 700 l500 0 l0 -700 l-500 0 ZM81 49 l339 0 l-170 255 l-169 -255 ZM49 96 l171 254 l-171 254 l0 -508 ZM450 96 l0 508 l-171 -254 l171 -254 ZM250 395 l170 255 l-339 0 l169 -255 Z" /><glyph glyph-name="questiondown" unicode="¿" d="M252 -9 q-92 0 -146.5 49 q-54.5 49 -54.5 126 q0 94 75 152 q75 58 190 74 l43 125 l32 0 l-30 -162 l-7 -5 q-113 -8 -181.5 -56.5 q-68.5 -48.5 -68.5 -126.5 q0 -61 43 -95 q43 -34 109 -34 q108 0 196 88 l32 -34 q-101 -101 -232 -101 ZM368 615 l23 85 l66 0 l-23 -85 l-66 0 Z" /><glyph glyph-name="Agrave" unicode="à" d="M-34 0 l515 705 l50 0 l137 -705 l-53 0 l-36 196 l-413 0 l-142 -196 l-58 0 ZM200 243 l369 0 l-75 405 l-294 -405 ZM517 765 l-79 103 l62 30 l52 -133 l-35 0 Z" /><glyph glyph-name="Aacute" unicode="á" d="M-34 0 l515 705 l50 0 l137 -705 l-53 0 l-36 196 l-413 0 l-142 -196 l-58 0 ZM200 243 l369 0 l-75 405 l-294 -405 ZM489 765 l124 133 l62 -30 l-135 -103 l-51 0 Z" /><glyph glyph-name="Acircumflex" unicode="â" d="M-34 0 l515 705 l50 0 l137 -705 l-53 0 l-36 196 l-413 0 l-142 -196 l-58 0 ZM200 243 l369 0 l-75 405 l-294 -405 ZM401 765 l133 122 l40 0 l67 -122 l-44 0 l-52 68 l-96 -68 l-48 0 Z" /><glyph glyph-name="Atilde" unicode="ã" d="M-34 0 l515 705 l50 0 l137 -705 l-53 0 l-36 196 l-413 0 l-142 -196 l-58 0 ZM200 243 l369 0 l-75 405 l-294 -405 ZM416 763 l-38 15 q25 50 49 73 q24 23 55 23 q20 0 33.5 -8 q13.5 -8 33.5 -27 q31 -30 48 -30 q15 0 27.5 13.5 q12.5 13.5 31.5 46.5 l38 -15 q-25 -50 -49 -73 q-24 -23 -55 -23 q-20 0 -33.5 8 q-13.5 8 -33.5 27 q-31 30 -48 30 q-15 0 -27.5 -13.5 q-12.5 -13.5 -31.5 -46.5 Z" /><glyph glyph-name="Adieresis" unicode="ä" d="M-34 0 l515 705 l50 0 l137 -705 l-53 0 l-36 196 l-413 0 l-142 -196 l-58 0 ZM200 243 l369 0 l-75 405 l-294 -405 ZM412 765 l22 80 l69 0 l-22 -80 l-69 0 ZM575 765 l22 80 l69 0 l-22 -80 l-69 0 Z" /><glyph glyph-name="Aring" unicode="å" d="M-24 0 l498 681 q-46 22 -46 71 q0 42 31.5 72 q31.5 30 74.5 30 q42 0 69 -23 q27 -23 27 -59 q0 -36 -23.5 -64 q-23.5 -28 -59.5 -36 l131 -672 l-53 0 l-36 196 l-413 0 l-142 -196 l-58 0 ZM210 243 l369 0 l-75 405 l-294 -405 ZM479.5 716 q15.5 -14 44.5 -14 q29 0 49.5 20.5 q20.5 20.5 20.5 49.5 q0 22 -15.5 36 q-15.5 14 -44.5 14 q-29 0 -49.5 -20.5 q-20.5 -20.5 -20.5 -49.5 q0 -22 15.5 -36 Z" /><glyph glyph-name="AE" unicode="æ" d="M-32 0 l611 700 l541 0 l-13 -48 l-431 0 l-74 -275 l386 0 l-13 -48 l-386 0 l-75 -281 l436 0 l-13 -48 l-488 0 l53 196 l-301 0 l-170 -196 l-63 0 ZM242 243 l272 0 l110 410 l-27 0 l-355 -410 Z" /><glyph glyph-name="Ccedilla" unicode="ç" d="M271 -148 l-48 26 l107 113 q-104 16 -171 90.5 q-67 74.5 -67 189.5 q0 112 55.5 214 q55.5 102 153 164.5 q97.5 62.5 209.5 62.5 q92 0 157.5 -41.5 q65.5 -41.5 99.5 -109.5 l-45 -24 q-36 63 -86.5 95.5 q-50.5 32.5 -128.5 32.5 q-148 0 -254.5 -120 q-106.5 -120 -106.5 -272 q0 -109 66.5 -173.5 q66.5 -64.5 170.5 -64.5 q74 0 129.5 26.5 q55.5 26.5 107.5 78.5 l35 -32 q-116 -121 -277 -121 l-4 0 l-103 -135 Z" /><glyph glyph-name="Egrave" unicode="è" d="M36 0 l188 700 l493 0 l-13 -48 l-441 0 l-74 -275 l396 0 l-13 -48 l-396 0 l-75 -281 l446 0 l-13 -48 l-498 0 ZM480 765 l-79 103 l62 30 l52 -133 l-35 0 Z" /><glyph glyph-name="Eacute" unicode="é" d="M36 0 l188 700 l493 0 l-13 -48 l-441 0 l-74 -275 l396 0 l-13 -48 l-396 0 l-75 -281 l446 0 l-13 -48 l-498 0 ZM413 765 l124 133 l62 -30 l-135 -103 l-51 0 Z" /><glyph glyph-name="Ecircumflex" unicode="ê" d="M36 0 l188 700 l493 0 l-13 -48 l-441 0 l-74 -275 l396 0 l-13 -48 l-396 0 l-75 -281 l446 0 l-13 -48 l-498 0 ZM355 765 l133 122 l40 0 l67 -122 l-44 0 l-52 68 l-96 -68 l-48 0 Z" /><glyph glyph-name="Edieresis" unicode="ë" d="M36 0 l188 700 l493 0 l-13 -48 l-441 0 l-74 -275 l396 0 l-13 -48 l-396 0 l-75 -281 l446 0 l-13 -48 l-498 0 ZM365 765 l22 80 l69 0 l-22 -80 l-69 0 ZM528 765 l22 80 l69 0 l-22 -80 l-69 0 Z" /><glyph glyph-name="Igrave" unicode="ì" d="M43 0 l188 700 l52 0 l-188 -700 l-52 0 ZM264 765 l-79 103 l62 30 l52 -133 l-35 0 Z" /><glyph glyph-name="Iacute" unicode="í" d="M43 0 l188 700 l52 0 l-188 -700 l-52 0 ZM232 765 l124 133 l62 -30 l-135 -103 l-51 0 Z" /><glyph glyph-name="Icircumflex" unicode="î" d="M43 0 l188 700 l52 0 l-188 -700 l-52 0 ZM148 765 l133 122 l40 0 l67 -122 l-44 0 l-52 68 l-96 -68 l-48 0 Z" /><glyph glyph-name="Idieresis" unicode="ï" d="M43 0 l188 700 l52 0 l-188 -700 l-52 0 ZM159 765 l22 80 l69 0 l-22 -80 l-69 0 ZM322 765 l22 80 l69 0 l-22 -80 l-69 0 Z" /><glyph glyph-name="Eth" unicode="ð" d="M66 0 l88 328 l-75 0 l13 48 l75 0 l87 324 l157 0 q178 0 272 -94 q77 -77 77 -200 q0 -162 -109 -271 q-64 -64 -156.5 -99.5 q-92.5 -35.5 -199.5 -35.5 l-229 0 ZM131 48 l171 0 q190 0 310 120 q94 94 94 234 q0 108 -65 171 q-79 79 -233 79 l-115 0 l-74 -276 l232 0 l-13 -48 l-232 0 l-75 -280 Z" /><glyph glyph-name="Ntilde" unicode="ñ" d="M36 0 l188 700 l48 0 l315 -613 l165 613 l50 0 l-188 -700 l-38 0 l-322 626 l-168 -626 l-50 0 ZM407 763 l-38 15 q25 50 49 73 q24 23 55 23 q20 0 33.5 -8 q13.5 -8 33.5 -27 q31 -30 48 -30 q15 0 27.5 13.5 q12.5 13.5 31.5 46.5 l38 -15 q-25 -50 -49 -73 q-24 -23 -55 -23 q-20 0 -33.5 8 q-13.5 8 -33.5 27 q-31 30 -48 30 q-15 0 -27.5 -13.5 q-12.5 -13.5 -31.5 -46.5 Z" /><glyph glyph-name="Ograve" unicode="ò" d="M398 -13 q-131 0 -216.5 86.5 q-85.5 86.5 -85.5 214.5 q0 108 53.5 206 q53.5 98 147 158 q93.5 60 202.5 60 q131 0 216.5 -86.5 q85.5 -86.5 85.5 -214.5 q0 -108 -53.5 -206 q-53.5 -98 -147 -158 q-93.5 -60 -202.5 -60 ZM398 34 q96 0 177 54 q81 54 126.5 140.5 q45.5 86.5 45.5 182.5 q0 109 -69 181.5 q-69 72.5 -179 72.5 q-96 0 -177 -54 q-81 -54 -126.5 -140.5 q-45.5 -86.5 -45.5 -182.5 q0 -109 69 -181.5 q69 -72.5 179 -72.5 ZM546 765 l-79 103 l62 30 l52 -133 l-35 0 Z" /><glyph glyph-name="Oacute" unicode="ó" d="M398 -13 q-131 0 -216.5 86.5 q-85.5 86.5 -85.5 214.5 q0 108 53.5 206 q53.5 98 147 158 q93.5 60 202.5 60 q131 0 216.5 -86.5 q85.5 -86.5 85.5 -214.5 q0 -108 -53.5 -206 q-53.5 -98 -147 -158 q-93.5 -60 -202.5 -60 ZM398 34 q96 0 177 54 q81 54 126.5 140.5 q45.5 86.5 45.5 182.5 q0 109 -69 181.5 q-69 72.5 -179 72.5 q-96 0 -177 -54 q-81 -54 -126.5 -140.5 q-45.5 -86.5 -45.5 -182.5 q0 -109 69 -181.5 q69 -72.5 179 -72.5 ZM469 765 l124 133 l62 -30 l-135 -103 l-51 0 Z" /><glyph glyph-name="Ocircumflex" unicode="ô" d="M398 -13 q-131 0 -216.5 86.5 q-85.5 86.5 -85.5 214.5 q0 108 53.5 206 q53.5 98 147 158 q93.5 60 202.5 60 q131 0 216.5 -86.5 q85.5 -86.5 85.5 -214.5 q0 -108 -53.5 -206 q-53.5 -98 -147 -158 q-93.5 -60 -202.5 -60 ZM398 34 q96 0 177 54 q81 54 126.5 140.5 q45.5 86.5 45.5 182.5 q0 109 -69 181.5 q-69 72.5 -179 72.5 q-96 0 -177 -54 q-81 -54 -126.5 -140.5 q-45.5 -86.5 -45.5 -182.5 q0 -109 69 -181.5 q69 -72.5 179 -72.5 ZM420 765 l133 122 l40 0 l67 -122 l-44 0 l-52 68 l-96 -68 l-48 0 Z" /><glyph glyph-name="Otilde" unicode="õ" d="M398 -13 q-131 0 -216.5 86.5 q-85.5 86.5 -85.5 214.5 q0 108 53.5 206 q53.5 98 147 158 q93.5 60 202.5 60 q131 0 216.5 -86.5 q85.5 -86.5 85.5 -214.5 q0 -108 -53.5 -206 q-53.5 -98 -147 -158 q-93.5 -60 -202.5 -60 ZM398 34 q96 0 177 54 q81 54 126.5 140.5 q45.5 86.5 45.5 182.5 q0 109 -69 181.5 q-69 72.5 -179 72.5 q-96 0 -177 -54 q-81 -54 -126.5 -140.5 q-45.5 -86.5 -45.5 -182.5 q0 -109 69 -181.5 q69 -72.5 179 -72.5 ZM421 763 l-38 15 q25 50 49 73 q24 23 55 23 q20 0 33.5 -8 q13.5 -8 33.5 -27 q31 -30 48 -30 q15 0 27.5 13.5 q12.5 13.5 31.5 46.5 l38 -15 q-25 -50 -49 -73 q-24 -23 -55 -23 q-20 0 -33.5 8 q-13.5 8 -33.5 27 q-31 30 -48 30 q-15 0 -27.5 -13.5 q-12.5 -13.5 -31.5 -46.5 Z" /><glyph glyph-name="Odieresis" unicode="ö" d="M398 -13 q-131 0 -216.5 86.5 q-85.5 86.5 -85.5 214.5 q0 108 53.5 206 q53.5 98 147 158 q93.5 60 202.5 60 q131 0 216.5 -86.5 q85.5 -86.5 85.5 -214.5 q0 -108 -53.5 -206 q-53.5 -98 -147 -158 q-93.5 -60 -202.5 -60 ZM398 34 q96 0 177 54 q81 54 126.5 140.5 q45.5 86.5 45.5 182.5 q0 109 -69 181.5 q-69 72.5 -179 72.5 q-96 0 -177 -54 q-81 -54 -126.5 -140.5 q-45.5 -86.5 -45.5 -182.5 q0 -109 69 -181.5 q69 -72.5 179 -72.5 ZM421 765 l22 80 l69 0 l-22 -80 l-69 0 ZM584 765 l22 80 l69 0 l-22 -80 l-69 0 Z" /><glyph glyph-name="multiply" unicode="×" d="M589 154 l-37 -37 l-197 198 l-196 -198 l-37 37 l197 197 l-197 197 l37 37 l196 -198 l197 198 l37 -37 l-197 -197 l197 -197 Z" /><glyph glyph-name="Oslash" unicode="ø" d="M398 -13 q-144 0 -232 103 l-114 -95 l-69 0 l157 131 q-44 74 -44 162 q0 108 53.5 206 q53.5 98 147 158 q93.5 60 202.5 60 q140 0 227 -97 l107 90 l69 0 l-149 -125 q48 -77 48 -169 q0 -108 -53.5 -206 q-53.5 -98 -147 -158 q-93.5 -60 -202.5 -60 ZM398 34 q96 0 177 54 q81 54 126.5 140.5 q45.5 86.5 45.5 182.5 q0 76 -34 136 l-509 -425 q69 -88 194 -88 ZM180 159 l508 424 q-71 82 -189 82 q-96 0 -177 -54 q-81 -54 -126.5 -140.5 q-45.5 -86.5 -45.5 -182.5 q0 -72 30 -129 Z" /><glyph glyph-name="Ugrave" unicode="ù" d="M348 -11 q-122 0 -187 61 q-65 61 -65 159 q0 54 14 108 l102 383 l52 0 l-108 -407 q-9 -36 -9 -80 q0 -79 52 -128 q52 -49 153 -49 q99 0 171 72 q65 65 98 186 l109 406 l52 0 l-112 -417 q-35 -130 -111 -206 q-88 -88 -211 -88 ZM506 765 l-79 103 l62 30 l52 -133 l-35 0 Z" /><glyph glyph-name="Uacute" unicode="ú" d="M348 -11 q-122 0 -187 61 q-65 61 -65 159 q0 54 14 108 l102 383 l52 0 l-108 -407 q-9 -36 -9 -80 q0 -79 52 -128 q52 -49 153 -49 q99 0 171 72 q65 65 98 186 l109 406 l52 0 l-112 -417 q-35 -130 -111 -206 q-88 -88 -211 -88 ZM439 765 l124 133 l62 -30 l-135 -103 l-51 0 Z" /><glyph glyph-name="Ucircumflex" unicode="û" d="M348 -11 q-122 0 -187 61 q-65 61 -65 159 q0 54 14 108 l102 383 l52 0 l-108 -407 q-9 -36 -9 -80 q0 -79 52 -128 q52 -49 153 -49 q99 0 171 72 q65 65 98 186 l109 406 l52 0 l-112 -417 q-35 -130 -111 -206 q-88 -88 -211 -88 ZM387 765 l133 122 l40 0 l67 -122 l-44 0 l-52 68 l-96 -68 l-48 0 Z" /><glyph glyph-name="Udieresis" unicode="ü" d="M348 -11 q-122 0 -187 61 q-65 61 -65 159 q0 54 14 108 l102 383 l52 0 l-108 -407 q-9 -36 -9 -80 q0 -79 52 -128 q52 -49 153 -49 q99 0 171 72 q65 65 98 186 l109 406 l52 0 l-112 -417 q-35 -130 -111 -206 q-88 -88 -211 -88 ZM392 765 l22 80 l69 0 l-22 -80 l-69 0 ZM555 765 l22 80 l69 0 l-22 -80 l-69 0 Z" /><glyph glyph-name="Yacute" unicode="ý" d="M234 0 l76 284 l-183 416 l57 0 l161 -376 l364 376 l70 0 l-421 -429 l-72 -271 l-52 0 ZM395 765 l124 133 l62 -30 l-135 -103 l-51 0 Z" /><glyph glyph-name="Thorn" unicode="þ" d="M36 0 l188 700 l51 0 l-33 -127 l166 0 q130 0 193 -63 q48 -48 48 -125 q0 -118 -93 -184 q-93 -66 -253 -66 l-178 0 l-37 -135 l-52 0 ZM137 182 l168 0 q141 0 216.5 52.5 q75.5 52.5 75.5 148.5 q0 57 -36 93 q-49 49 -154 49 l-178 0 l-92 -343 Z" /><glyph glyph-name="germandbls" unicode="ß" d="M220 -2 l12 44 q130 1 195.5 46.5 q65.5 45.5 65.5 113.5 q0 107 -181 140 l12 45 q222 52 222 187 q0 52 -37 84.5 q-37 32.5 -101 32.5 q-73 0 -125.5 -54.5 q-52.5 -54.5 -78.5 -151.5 l-130 -485 l-49 0 l134 500 q29 109 87 167 q70 70 166 70 q81 0 134 -45.5 q53 -45.5 53 -115.5 q0 -152 -212 -211 q159 -42 159 -164 q0 -89 -88 -146.5 q-88 -57.5 -238 -56.5 Z" /><glyph glyph-name="agrave" unicode="à" d="M190 -12 q-69 0 -118 37.5 q-49 37.5 -49 105.5 q0 84 64 134.5 q64 50.5 166 50.5 q90 0 196 -29 l4 14 q7 26 7 51 q0 58 -39.5 89 q-39.5 31 -114.5 31 q-70 0 -148 -27 l-9 44 q81 29 161 29 q93 0 145.5 -42.5 q52.5 -42.5 52.5 -116.5 q0 -29 -10 -67 l-78 -292 l-48 0 l23 88 q-84 -100 -205 -100 ZM199 33 q75 0 141.5 47.5 q66.5 47.5 86.5 122.5 l12 45 q-96 24 -193 24 q-76 0 -123.5 -37.5 q-47.5 -37.5 -47.5 -97.5 q0 -47 33.5 -75.5 q33.5 -28.5 90.5 -28.5 ZM363 595 l-79 103 l62 30 l52 -133 l-35 0 Z" /><glyph glyph-name="aacute" unicode="á" d="M190 -12 q-69 0 -118 37.5 q-49 37.5 -49 105.5 q0 84 64 134.5 q64 50.5 166 50.5 q90 0 196 -29 l4 14 q7 26 7 51 q0 58 -39.5 89 q-39.5 31 -114.5 31 q-70 0 -148 -27 l-9 44 q81 29 161 29 q93 0 145.5 -42.5 q52.5 -42.5 52.5 -116.5 q0 -29 -10 -67 l-78 -292 l-48 0 l23 88 q-84 -100 -205 -100 ZM199 33 q75 0 141.5 47.5 q66.5 47.5 86.5 122.5 l12 45 q-96 24 -193 24 q-76 0 -123.5 -37.5 q-47.5 -37.5 -47.5 -97.5 q0 -47 33.5 -75.5 q33.5 -28.5 90.5 -28.5 ZM301 595 l124 133 l62 -30 l-135 -103 l-51 0 Z" /><glyph glyph-name="acircumflex" unicode="â" d="M190 -12 q-69 0 -118 37.5 q-49 37.5 -49 105.5 q0 84 64 134.5 q64 50.5 166 50.5 q90 0 196 -29 l4 14 q7 26 7 51 q0 58 -39.5 89 q-39.5 31 -114.5 31 q-70 0 -148 -27 l-9 44 q81 29 161 29 q93 0 145.5 -42.5 q52.5 -42.5 52.5 -116.5 q0 -29 -10 -67 l-78 -292 l-48 0 l23 88 q-84 -100 -205 -100 ZM199 33 q75 0 141.5 47.5 q66.5 47.5 86.5 122.5 l12 45 q-96 24 -193 24 q-76 0 -123.5 -37.5 q-47.5 -37.5 -47.5 -97.5 q0 -47 33.5 -75.5 q33.5 -28.5 90.5 -28.5 ZM246 595 l133 122 l40 0 l67 -122 l-44 0 l-52 68 l-96 -68 l-48 0 Z" /><glyph glyph-name="atilde" unicode="ã" d="M190 -12 q-69 0 -118 37.5 q-49 37.5 -49 105.5 q0 84 64 134.5 q64 50.5 166 50.5 q90 0 196 -29 l4 14 q7 26 7 51 q0 58 -39.5 89 q-39.5 31 -114.5 31 q-70 0 -148 -27 l-9 44 q81 29 161 29 q93 0 145.5 -42.5 q52.5 -42.5 52.5 -116.5 q0 -29 -10 -67 l-78 -292 l-48 0 l23 88 q-84 -100 -205 -100 ZM199 33 q75 0 141.5 47.5 q66.5 47.5 86.5 122.5 l12 45 q-96 24 -193 24 q-76 0 -123.5 -37.5 q-47.5 -37.5 -47.5 -97.5 q0 -47 33.5 -75.5 q33.5 -28.5 90.5 -28.5 ZM258 593 l-38 15 q25 50 49 73 q24 23 55 23 q20 0 33.5 -8 q13.5 -8 33.5 -27 q31 -30 48 -30 q15 0 27.5 13.5 q12.5 13.5 31.5 46.5 l38 -15 q-25 -50 -49 -73 q-24 -23 -55 -23 q-20 0 -33.5 8 q-13.5 8 -33.5 27 q-31 30 -48 30 q-15 0 -27.5 -13.5 q-12.5 -13.5 -31.5 -46.5 Z" /><glyph glyph-name="adieresis" unicode="ä" d="M190 -12 q-69 0 -118 37.5 q-49 37.5 -49 105.5 q0 84 64 134.5 q64 50.5 166 50.5 q90 0 196 -29 l4 14 q7 26 7 51 q0 58 -39.5 89 q-39.5 31 -114.5 31 q-70 0 -148 -27 l-9 44 q81 29 161 29 q93 0 145.5 -42.5 q52.5 -42.5 52.5 -116.5 q0 -29 -10 -67 l-78 -292 l-48 0 l23 88 q-84 -100 -205 -100 ZM199 33 q75 0 141.5 47.5 q66.5 47.5 86.5 122.5 l12 45 q-96 24 -193 24 q-76 0 -123.5 -37.5 q-47.5 -37.5 -47.5 -97.5 q0 -47 33.5 -75.5 q33.5 -28.5 90.5 -28.5 ZM248 595 l22 80 l69 0 l-22 -80 l-69 0 ZM411 595 l22 80 l69 0 l-22 -80 l-69 0 Z" /><glyph glyph-name="aring" unicode="å" d="M190 -12 q-69 0 -118 37.5 q-49 37.5 -49 105.5 q0 84 64 134.5 q64 50.5 166 50.5 q90 0 196 -29 l4 14 q7 26 7 51 q0 58 -39.5 89 q-39.5 31 -114.5 31 q-70 0 -148 -27 l-9 44 q81 29 161 29 q93 0 145.5 -42.5 q52.5 -42.5 52.5 -116.5 q0 -29 -10 -67 l-78 -292 l-48 0 l23 88 q-84 -100 -205 -100 ZM199 33 q75 0 141.5 47.5 q66.5 47.5 86.5 122.5 l12 45 q-96 24 -193 24 q-76 0 -123.5 -37.5 q-47.5 -37.5 -47.5 -97.5 q0 -47 33.5 -75.5 q33.5 -28.5 90.5 -28.5 ZM384 595 q-42 0 -69 23 q-27 23 -27 59 q0 42 31.5 72 q31.5 30 74.5 30 q42 0 69 -23 q27 -23 27 -59 q0 -42 -31.5 -72 q-31.5 -30 -74.5 -30 ZM339.5 641 q15.5 -14 44.5 -14 q29 0 49.5 20.5 q20.5 20.5 20.5 49.5 q0 22 -15.5 36 q-15.5 14 -44.5 14 q-29 0 -49.5 -20.5 q-20.5 -20.5 -20.5 -49.5 q0 -22 15.5 -36 Z" /><glyph glyph-name="ae" unicode="æ" d="M200 -12 q-77 0 -127 39 q-50 39 -50 109 q0 82 66 131 q66 49 168 49 q97 0 192 -29 l4 14 q7 26 7 51 q0 58 -39.5 89 q-39.5 31 -114.5 31 q-70 0 -148 -27 l-9 44 q81 29 161 29 q80 0 130.5 -32 q50.5 -32 63.5 -89 q42 57 100.5 91 q58.5 34 124.5 34 q92 0 142.5 -56 q50.5 -56 50.5 -139 q0 -49 -14 -89 l-419 0 q-2 -22 -2 -34 q0 -77 47 -123.5 q47 -46.5 122 -46.5 q91 0 174 68 l29 -35 q-95 -79 -200 -79 q-75 0 -127.5 33.5 q-52.5 33.5 -76.5 91.5 q-120 -125 -255 -125 ZM204 33 q123 0 238 125 q-4 20 -4 48 q0 22 3 43 q-81 23 -191 23 q-76 0 -125.5 -37 q-49.5 -37 -49.5 -93 q0 -50 34 -79.5 q34 -29.5 95 -29.5 ZM498 282 l370 0 q4 18 4 42 q0 66 -36.5 109.5 q-36.5 43.5 -107.5 43.5 q-82 0 -144.5 -56 q-62.5 -56 -85.5 -139 Z" /><glyph glyph-name="ccedilla" unicode="ç" d="M166 -148 l-48 26 l108 114 q-75 15 -125.5 72 q-50.5 57 -50.5 144 q0 126 89.5 220 q89.5 94 210.5 94 q73 0 123.5 -35 q50.5 -35 76.5 -88 l-41 -23 q-57 100 -162 100 q-97 0 -170.5 -80 q-73.5 -80 -73.5 -185 q0 -82 50.5 -129.5 q50.5 -47.5 121.5 -47.5 q87 0 165 73 l33 -32 q-90 -87 -201 -87 l-3 0 l-103 -136 Z" /><glyph glyph-name="egrave" unicode="è" d="M272 -12 q-98 0 -160 60 q-62 60 -62 154 q0 123 87 221.5 q87 98.5 208 98.5 q92 0 142.5 -56 q50.5 -56 50.5 -139 q0 -49 -14 -89 l-419 0 q-2 -22 -2 -34 q0 -77 47 -123.5 q47 -46.5 122 -46.5 q91 0 174 68 l29 -35 q-95 -79 -203 -79 ZM114 282 l370 0 q4 18 4 42 q0 66 -36.5 109.5 q-36.5 43.5 -107.5 43.5 q-82 0 -144.5 -56 q-62.5 -56 -85.5 -139 ZM367 595 l-79 103 l62 30 l52 -133 l-35 0 Z" /><glyph glyph-name="eacute" unicode="é" d="M272 -12 q-98 0 -160 60 q-62 60 -62 154 q0 123 87 221.5 q87 98.5 208 98.5 q92 0 142.5 -56 q50.5 -56 50.5 -139 q0 -49 -14 -89 l-419 0 q-2 -22 -2 -34 q0 -77 47 -123.5 q47 -46.5 122 -46.5 q91 0 174 68 l29 -35 q-95 -79 -203 -79 ZM114 282 l370 0 q4 18 4 42 q0 66 -36.5 109.5 q-36.5 43.5 -107.5 43.5 q-82 0 -144.5 -56 q-62.5 -56 -85.5 -139 ZM310 595 l124 133 l62 -30 l-135 -103 l-51 0 Z" /><glyph glyph-name="ecircumflex" unicode="ê" d="M272 -12 q-98 0 -160 60 q-62 60 -62 154 q0 123 87 221.5 q87 98.5 208 98.5 q92 0 142.5 -56 q50.5 -56 50.5 -139 q0 -49 -14 -89 l-419 0 q-2 -22 -2 -34 q0 -77 47 -123.5 q47 -46.5 122 -46.5 q91 0 174 68 l29 -35 q-95 -79 -203 -79 ZM114 282 l370 0 q4 18 4 42 q0 66 -36.5 109.5 q-36.5 43.5 -107.5 43.5 q-82 0 -144.5 -56 q-62.5 -56 -85.5 -139 ZM244 595 l133 122 l40 0 l67 -122 l-44 0 l-52 68 l-96 -68 l-48 0 Z" /><glyph glyph-name="edieresis" unicode="ë" d="M272 -12 q-98 0 -160 60 q-62 60 -62 154 q0 123 87 221.5 q87 98.5 208 98.5 q92 0 142.5 -56 q50.5 -56 50.5 -139 q0 -49 -14 -89 l-419 0 q-2 -22 -2 -34 q0 -77 47 -123.5 q47 -46.5 122 -46.5 q91 0 174 68 l29 -35 q-95 -79 -203 -79 ZM114 282 l370 0 q4 18 4 42 q0 66 -36.5 109.5 q-36.5 43.5 -107.5 43.5 q-82 0 -144.5 -56 q-62.5 -56 -85.5 -139 ZM252 595 l22 80 l69 0 l-22 -80 l-69 0 ZM415 595 l22 80 l69 0 l-22 -80 l-69 0 Z" /><glyph glyph-name="igrave" unicode="ì" d="M32 0 l137 510 l49 0 l-137 -510 l-49 0 ZM180 595 l-79 103 l62 30 l52 -133 l-35 0 Z" /><glyph glyph-name="iacute" unicode="í" d="M32 0 l137 510 l49 0 l-137 -510 l-49 0 ZM181 595 l124 133 l62 -30 l-135 -103 l-51 0 Z" /><glyph glyph-name="icircumflex" unicode="î" d="M32 0 l137 510 l49 0 l-137 -510 l-49 0 ZM87 595 l133 122 l40 0 l67 -122 l-44 0 l-52 68 l-96 -68 l-48 0 Z" /><glyph glyph-name="idieresis" unicode="ï" d="M32 0 l137 510 l49 0 l-137 -510 l-49 0 ZM96 595 l22 80 l69 0 l-22 -80 l-69 0 ZM259 595 l22 80 l69 0 l-22 -80 l-69 0 Z" /><glyph glyph-name="eth" unicode="ð" d="M271 -11 q-96 0 -160 61.5 q-64 61.5 -64 151.5 q0 116 84.5 199.5 q84.5 83.5 195.5 83.5 q92 0 154 -53 l-82 195 l-154 -68 l-22 40 l158 70 l-26 61 l59 0 l16 -40 l111 49 l22 -40 l-116 -51 l73 -184 q47 -118 47 -190 q0 -112 -85 -198.5 q-85 -86.5 -211 -86.5 ZM276 35 q97 0 167.5 70 q70.5 70 70.5 167 q0 71 -50.5 120 q-50.5 49 -135.5 49 q-93 0 -160.5 -70.5 q-67.5 -70.5 -67.5 -165.5 q0 -78 49 -124 q49 -46 127 -46 Z" /><glyph glyph-name="ntilde" unicode="ñ" d="M25 0 l136 510 l49 0 l-25 -95 q89 107 193 107 q76 0 121.5 -44.5 q45.5 -44.5 45.5 -117.5 q0 -28 -11 -72 l-76 -288 l-49 0 l78 292 q8 30 8 63 q0 57 -35 90 q-35 33 -96 33 q-67 0 -129 -54 q-62 -54 -84 -136 l-77 -288 l-49 0 ZM278 593 l-38 15 q25 50 49 73 q24 23 55 23 q20 0 33.5 -8 q13.5 -8 33.5 -27 q31 -30 48 -30 q15 0 27.5 13.5 q12.5 13.5 31.5 46.5 l38 -15 q-25 -50 -49 -73 q-24 -23 -55 -23 q-20 0 -33.5 8 q-13.5 8 -33.5 27 q-31 30 -48 30 q-15 0 -27.5 -13.5 q-12.5 -13.5 -31.5 -46.5 Z" /><glyph glyph-name="ograve" unicode="ò" d="M278 -12 q-101 0 -164 63.5 q-63 63.5 -63 162.5 q0 122 91 215 q91 93 212 93 q101 0 164 -63.5 q63 -63.5 63 -162.5 q0 -124 -92 -216 q-92 -92 -211 -92 ZM283 34 q95 0 170 78 q75 78 75 182 q0 85 -49 133.5 q-49 48.5 -130 48.5 q-97 0 -171 -79 q-74 -79 -74 -181 q0 -85 49 -133.5 q49 -48.5 130 -48.5 ZM378 595 l-79 103 l62 30 l52 -133 l-35 0 Z" /><glyph glyph-name="oacute" unicode="ó" d="M278 -12 q-101 0 -164 63.5 q-63 63.5 -63 162.5 q0 122 91 215 q91 93 212 93 q101 0 164 -63.5 q63 -63.5 63 -162.5 q0 -124 -92 -216 q-92 -92 -211 -92 ZM283 34 q95 0 170 78 q75 78 75 182 q0 85 -49 133.5 q-49 48.5 -130 48.5 q-97 0 -171 -79 q-74 -79 -74 -181 q0 -85 49 -133.5 q49 -48.5 130 -48.5 ZM322 595 l124 133 l62 -30 l-135 -103 l-51 0 Z" /><glyph glyph-name="ocircumflex" unicode="ô" d="M278 -12 q-101 0 -164 63.5 q-63 63.5 -63 162.5 q0 122 91 215 q91 93 212 93 q101 0 164 -63.5 q63 -63.5 63 -162.5 q0 -124 -92 -216 q-92 -92 -211 -92 ZM283 34 q95 0 170 78 q75 78 75 182 q0 85 -49 133.5 q-49 48.5 -130 48.5 q-97 0 -171 -79 q-74 -79 -74 -181 q0 -85 49 -133.5 q49 -48.5 130 -48.5 ZM278 595 l133 122 l40 0 l67 -122 l-44 0 l-52 68 l-96 -68 l-48 0 Z" /><glyph glyph-name="otilde" unicode="õ" d="M278 -12 q-101 0 -164 63.5 q-63 63.5 -63 162.5 q0 122 91 215 q91 93 212 93 q101 0 164 -63.5 q63 -63.5 63 -162.5 q0 -124 -92 -216 q-92 -92 -211 -92 ZM283 34 q95 0 170 78 q75 78 75 182 q0 85 -49 133.5 q-49 48.5 -130 48.5 q-97 0 -171 -79 q-74 -79 -74 -181 q0 -85 49 -133.5 q49 -48.5 130 -48.5 ZM282 593 l-38 15 q25 50 49 73 q24 23 55 23 q20 0 33.5 -8 q13.5 -8 33.5 -27 q31 -30 48 -30 q15 0 27.5 13.5 q12.5 13.5 31.5 46.5 l38 -15 q-25 -50 -49 -73 q-24 -23 -55 -23 q-20 0 -33.5 8 q-13.5 8 -33.5 27 q-31 30 -48 30 q-15 0 -27.5 -13.5 q-12.5 -13.5 -31.5 -46.5 Z" /><glyph glyph-name="odieresis" unicode="ö" d="M278 -12 q-101 0 -164 63.5 q-63 63.5 -63 162.5 q0 122 91 215 q91 93 212 93 q101 0 164 -63.5 q63 -63.5 63 -162.5 q0 -124 -92 -216 q-92 -92 -211 -92 ZM283 34 q95 0 170 78 q75 78 75 182 q0 85 -49 133.5 q-49 48.5 -130 48.5 q-97 0 -171 -79 q-74 -79 -74 -181 q0 -85 49 -133.5 q49 -48.5 130 -48.5 ZM269 595 l22 80 l69 0 l-22 -80 l-69 0 ZM432 595 l22 80 l69 0 l-22 -80 l-69 0 Z" /><glyph glyph-name="divide" unicode="÷" d="M123 328 l14 51 l454 0 l-14 -51 l-454 0 ZM264 129 l23 85 l66 0 l-23 -85 l-66 0 ZM362 493 l22 85 l66 0 l-22 -85 l-66 0 Z" /><glyph glyph-name="oslash" unicode="ø" d="M278 -12 q-104 0 -169 70 l-77 -63 l-67 0 l118 96 q-32 53 -32 123 q0 122 91 215 q91 93 212 93 q105 0 169 -69 l79 64 l67 0 l-120 -98 q32 -53 32 -123 q0 -124 -92 -216 q-92 -92 -211 -92 ZM283 34 q95 0 170 78 q75 78 75 182 q0 51 -19 92 l-363 -298 q48 -54 137 -54 ZM123 124 l363 298 q-49 54 -137 54 q-97 0 -171 -79 q-74 -79 -74 -181 q0 -51 19 -92 Z" /><glyph glyph-name="ugrave" unicode="ù" d="M231 -12 q-76 0 -121.5 44.5 q-45.5 44.5 -45.5 117.5 q0 28 11 72 l76 288 l49 0 l-78 -292 q-8 -30 -8 -63 q0 -57 35 -90 q35 -33 96 -33 q67 0 129 54 q62 54 84 136 l77 288 l49 0 l-136 -510 l-49 0 l25 95 q-89 -107 -193 -107 ZM370 595 l-79 103 l62 30 l52 -133 l-35 0 Z" /><glyph glyph-name="uacute" unicode="ú" d="M231 -12 q-76 0 -121.5 44.5 q-45.5 44.5 -45.5 117.5 q0 28 11 72 l76 288 l49 0 l-78 -292 q-8 -30 -8 -63 q0 -57 35 -90 q35 -33 96 -33 q67 0 129 54 q62 54 84 136 l77 288 l49 0 l-136 -510 l-49 0 l25 95 q-89 -107 -193 -107 ZM330 595 l124 133 l62 -30 l-135 -103 l-51 0 Z" /><glyph glyph-name="ucircumflex" unicode="û" d="M231 -12 q-76 0 -121.5 44.5 q-45.5 44.5 -45.5 117.5 q0 28 11 72 l76 288 l49 0 l-78 -292 q-8 -30 -8 -63 q0 -57 35 -90 q35 -33 96 -33 q67 0 129 54 q62 54 84 136 l77 288 l49 0 l-136 -510 l-49 0 l25 95 q-89 -107 -193 -107 ZM263 595 l133 122 l40 0 l67 -122 l-44 0 l-52 68 l-96 -68 l-48 0 Z" /><glyph glyph-name="udieresis" unicode="ü" d="M231 -12 q-76 0 -121.5 44.5 q-45.5 44.5 -45.5 117.5 q0 28 11 72 l76 288 l49 0 l-78 -292 q-8 -30 -8 -63 q0 -57 35 -90 q35 -33 96 -33 q67 0 129 54 q62 54 84 136 l77 288 l49 0 l-136 -510 l-49 0 l25 95 q-89 -107 -193 -107 ZM268 595 l22 80 l69 0 l-22 -80 l-69 0 ZM431 595 l22 80 l69 0 l-22 -80 l-69 0 Z" /><glyph glyph-name="yacute" unicode="ý" d="M20 -163 q-58 0 -108 35 l27 40 q36 -29 87 -29 q40 0 78.5 27.5 q38.5 27.5 84.5 92.5 l-104 507 l52 0 l89 -456 l307 456 l59 0 l-363 -528 q-54 -78 -103.5 -111.5 q-49.5 -33.5 -105.5 -33.5 ZM295 595 l124 133 l62 -30 l-135 -103 l-51 0 Z" /><glyph glyph-name="thorn" unicode="þ" d="M-18 -160 l239 890 l49 0 l-87 -320 q94 112 212 112 q89 0 147 -60.5 q58 -60.5 58 -154.5 q0 -134 -86 -227 q-86 -93 -202 -93 q-79 0 -130 40.5 q-51 40.5 -73 102.5 l-78 -290 l-49 0 ZM310 33 q101 0 169 80 q68 80 68 188 q0 78 -44 126.5 q-44 48.5 -114 48.5 q-96 0 -175.5 -82 q-79.5 -82 -79.5 -183 q0 -75 49.5 -126.5 q49.5 -51.5 126.5 -51.5 Z" /><glyph glyph-name="ydieresis" unicode="ÿ" d="M20 -163 q-58 0 -108 35 l27 40 q36 -29 87 -29 q40 0 78.5 27.5 q38.5 27.5 84.5 92.5 l-104 507 l52 0 l89 -456 l307 456 l59 0 l-363 -528 q-54 -78 -103.5 -111.5 q-49.5 -33.5 -105.5 -33.5 ZM242 595 l22 80 l69 0 l-22 -80 l-69 0 ZM405 595 l22 80 l69 0 l-22 -80 l-69 0 Z" /><glyph glyph-name="dotlessi" unicode="&#x131;" d="M32 0 l137 510 l49 0 l-137 -510 l-49 0 Z" /><glyph glyph-name="Lslash" unicode="&#x141;" d="M86 0 l85 316 l-80 -23 l12 48 l81 23 l90 336 l52 0 l-86 -320 l243 69 l-13 -48 l-243 -69 l-76 -284 l411 0 l-13 -48 l-463 0 Z" /><glyph glyph-name="lslash" unicode="&#x142;" d="M62 0 l90 335 l-81 -23 l13 50 l81 23 l93 345 l49 0 l-89 -330 l84 24 l-14 -50 l-83 -24 l-94 -350 l-49 0 Z" /><glyph glyph-name="OE" unicode="&#x152;" d="M441 0 q-178 0 -272 94 q-77 77 -77 200 q0 162 109 271 q64 64 156.5 99.5 q92.5 35.5 199.5 35.5 l649 0 l-13 -48 l-430 0 l-74 -275 l385 0 l-13 -48 l-385 0 l-75 -281 l435 0 l-13 -48 l-582 0 ZM444 48 l105 0 l162 604 l-161 0 q-190 0 -310 -120 q-94 -94 -94 -234 q0 -106 65 -171 q79 -79 233 -79 Z" /><glyph glyph-name="oe" unicode="&#x153;" d="M275 -12 q-97 0 -160.5 64 q-63.5 64 -63.5 162 q0 122 91 215 q91 93 212 93 q84 0 139 -46 q55 -46 71 -117 q88 163 246 163 q92 0 142.5 -56 q50.5 -56 50.5 -139 q0 -49 -14 -89 l-419 0 q-2 -22 -2 -34 q0 -77 47 -123.5 q47 -46.5 122 -46.5 q91 0 174 68 l29 -35 q-95 -79 -200 -79 q-81 0 -138 42.5 q-57 42.5 -73 112.5 q-41 -68 -106 -111.5 q-65 -43.5 -148 -43.5 ZM283 34 q94 0 169.5 77 q75.5 77 75.5 178 q0 88 -49 137.5 q-49 49.5 -130 49.5 q-97 0 -171 -79 q-74 -79 -74 -181 q0 -85 49 -133.5 q49 -48.5 130 -48.5 ZM579 282 l370 0 q4 18 4 42 q0 66 -36.5 109.5 q-36.5 43.5 -107.5 43.5 q-82 0 -144.5 -56 q-62.5 -56 -85.5 -139 Z" /><glyph glyph-name="Scaron" unicode="&#x160;" d="M299 -10 q-184 0 -279 134 l40 29 q46 -59 104 -87.5 q58 -28.5 140 -28.5 q86 0 144 43.5 q58 43.5 58 109.5 q0 46 -34 77 q-34 31 -119 64 q-111 43 -155.5 83 q-44.5 40 -44.5 103 q0 81 70 137 q70 56 181 56 q76 0 139.5 -29.5 q63.5 -29.5 103.5 -77.5 l-40 -32 q-80 92 -208 92 q-87 0 -140 -42 q-53 -42 -53 -100 q0 -47 38 -77.5 q38 -30.5 129 -65.5 q100 -38 143 -79.5 q43 -41.5 43 -104.5 q0 -86 -74 -145 q-74 -59 -186 -59 ZM420 765 l-67 122 l44 0 l52 -68 l96 68 l48 0 l-133 -122 l-40 0 Z" /><glyph glyph-name="scaron" unicode="&#x161;" d="M217 -11 q-128 0 -216 88 l35 35 q81 -78 187 -78 q51 0 91.5 28.5 q40.5 28.5 40.5 72.5 q0 31 -23.5 54 q-23.5 23 -87.5 47 q-76 28 -109.5 58.5 q-33.5 30.5 -33.5 78.5 q0 62 52.5 105 q52.5 43 136.5 43 q103 0 184 -68 l-32 -37 q-73 60 -157 60 q-61 0 -96.5 -28 q-35.5 -28 -35.5 -67 q0 -31 23 -52 q23 -21 92 -48 q76 -30 107.5 -61 q31.5 -31 31.5 -77 q0 -66 -56 -110 q-56 -44 -134 -44 ZM308 595 l-67 122 l44 0 l52 -68 l96 68 l48 0 l-133 -122 l-40 0 Z" /><glyph glyph-name="Ydieresis" unicode="&#x178;" d="M234 0 l76 284 l-183 416 l57 0 l161 -376 l364 376 l70 0 l-421 -429 l-72 -271 l-52 0 ZM343 765 l22 80 l69 0 l-22 -80 l-69 0 ZM506 765 l22 80 l69 0 l-22 -80 l-69 0 Z" /><glyph glyph-name="Zcaron" unicode="&#x17d;" d="M-19 0 l8 29 l636 624 l-452 0 l13 47 l533 0 l-8 -29 l-636 -624 l472 0 l-13 -47 l-553 0 ZM426 765 l-67 122 l44 0 l52 -68 l96 68 l48 0 l-133 -122 l-40 0 Z" /><glyph glyph-name="zcaron" unicode="&#x17e;" d="M-17 0 l8 28 l475 438 l-344 0 l12 44 l424 0 l-8 -28 l-475 -438 l361 0 l-12 -44 l-441 0 ZM330 595 l-67 122 l44 0 l52 -68 l96 68 l48 0 l-133 -122 l-40 0 Z" /><glyph glyph-name="florin" unicode="&#x192;" d="M33 -10 q-30 0 -56 8 l13 43 q21 -7 47 -7 q35 0 61.5 25.5 q26.5 25.5 51.5 81.5 l107 243 l-107 0 l12 45 l114 0 l59 134 q64 147 178 147 q43 0 83 -15 l-15 -42 q-37 13 -70 13 q-80 0 -131 -115 l-54 -122 l162 0 l-12 -45 l-169 0 l-112 -255 q-33 -76 -71.5 -107.5 q-38.5 -31.5 -90.5 -31.5 Z" /><glyph glyph-name="circumflex" unicode="&#x2c6;" d="M222 595 l133 122 l40 0 l67 -122 l-44 0 l-52 68 l-96 -68 l-48 0 Z" /><glyph glyph-name="caron" unicode="&#x2c7;" d="M321 595 l-67 122 l44 0 l52 -68 l96 68 l48 0 l-133 -122 l-40 0 Z" /><glyph glyph-name="breve" unicode="&#x2d8;" d="M339 593 q-48 0 -76 24 q-28 24 -28 67 q0 16 4 33 l40 0 q0 -37 15.5 -55 q15.5 -18 55.5 -18 q70 0 109 73 l46 0 q-19 -58 -64.5 -91 q-45.5 -33 -101.5 -33 Z" /><glyph glyph-name="dotaccent" unicode="&#x2d9;" d="M307 593 l23 85 l66 0 l-23 -85 l-66 0 Z" /><glyph glyph-name="ring" unicode="&#x2da;" d="M359 595 q-42 0 -69 23 q-27 23 -27 59 q0 42 31.5 72 q31.5 30 74.5 30 q42 0 69 -23 q27 -23 27 -59 q0 -42 -31.5 -72 q-31.5 -30 -74.5 -30 ZM314.5 641 q15.5 -14 44.5 -14 q29 0 49.5 20.5 q20.5 20.5 20.5 49.5 q0 22 -15.5 36 q-15.5 14 -44.5 14 q-29 0 -49.5 -20.5 q-20.5 -20.5 -20.5 -49.5 q0 -22 15.5 -36 Z" /><glyph glyph-name="ogonek" unicode="&#x2db;" d="M226 -164 q-72 -2 -108 20.5 q-36 22.5 -36 61.5 q0 40 36 92 l43 0 q-25 -48 -25 -82 q0 -56 98 -61 l-8 -31 Z" /><glyph glyph-name="tilde" unicode="&#x2dc;" d="M233 593 l-38 15 q25 50 49 73 q24 23 55 23 q20 0 33.5 -8 q13.5 -8 33.5 -27 q31 -30 48 -30 q15 0 27.5 13.5 q12.5 13.5 31.5 46.5 l38 -15 q-25 -50 -49 -73 q-24 -23 -55 -23 q-20 0 -33.5 8 q-13.5 8 -33.5 27 q-31 30 -48 30 q-15 0 -27.5 -13.5 q-12.5 -13.5 -31.5 -46.5 Z" /><glyph glyph-name="hungarumlaut" unicode="&#x2dd;" d="M192 595 l125 133 l47 -29 l-129 -104 l-43 0 ZM344 595 l125 133 l47 -29 l-129 -104 l-43 0 Z" /><glyph glyph-name="Omega" unicode="&#x3a9;" d="M636 0 l-240 0 l47 176 q110 18 183.5 97.5 q73.5 79.5 73.5 194.5 q0 83 -60 136.5 q-60 53.5 -150 53.5 q-130 0 -227 -85 q-97 -85 -97 -220 q0 -68 35 -118.5 q35 -50.5 100 -58.5 l-47 -176 l-240 0 l12 47 l197 0 l24 90 q-64 19 -99.5 80 q-35.5 61 -35.5 136 q0 104 56.5 187 q56.5 83 143 125 q86.5 42 183.5 42 q117 0 188.5 -68 q71.5 -68 71.5 -170 q0 -117 -79.5 -209 q-79.5 -92 -200.5 -123 l-24 -90 l197 0 l-12 -47 Z" /><glyph glyph-name="pi" unicode="&#x3c0;" d="M0 0 l0 700 l500 0 l0 -700 l-500 0 ZM81 49 l339 0 l-170 255 l-169 -255 ZM49 96 l171 254 l-171 254 l0 -508 ZM450 96 l0 508 l-171 -254 l171 -254 ZM250 395 l170 255 l-339 0 l169 -255 Z" /><glyph glyph-name="afii10023" unicode="&#x401;" d="M36 0 l188 700 l493 0 l-13 -48 l-441 0 l-74 -275 l396 0 l-13 -48 l-396 0 l-75 -281 l446 0 l-13 -48 l-498 0 ZM365 765 l22 80 l69 0 l-22 -80 l-69 0 ZM528 765 l22 80 l69 0 l-22 -80 l-69 0 Z" /><glyph glyph-name="afii10051" unicode="&#x402;" d="M492 -12 q-78 0 -111 22 l25 43 q34 -18 88 -18 q104 0 166 66 q62 66 62 165 q0 58 -42.5 95.5 q-42.5 37.5 -106.5 37.5 q-74 0 -131.5 -21 q-57.5 -21 -128.5 -72 l-82 -306 l-52 0 l175 652 l-214 0 l13 48 l540 0 l-13 -48 l-274 0 l-78 -290 q70 45 124.5 64.5 q54.5 19.5 124.5 19.5 q86 0 143 -48 q57 -48 57 -130 q0 -120 -79 -200 q-79 -80 -206 -80 Z" /><glyph glyph-name="afii10052" unicode="&#x403;" d="M36 0 l187 700 l437 0 l-12 -48 l-385 0 l-175 -652 l-52 0 ZM382 765 l124 133 l62 -30 l-135 -103 l-51 0 Z" /><glyph glyph-name="afii10053" unicode="&#x404;" d="M378 -13 q-120 0 -203 77.5 q-83 77.5 -83 206.5 q0 112 55.5 214 q55.5 102 153 164.5 q97.5 62.5 209.5 62.5 q85 0 147.5 -35.5 q62.5 -35.5 98.5 -95.5 l-45 -26 q-72 110 -204 110 q-121 0 -217 -83.5 q-96 -83.5 -130 -204.5 l371 0 l-13 -48 l-368 0 q-4 -25 -4 -56 q0 -109 66.5 -173.5 q66.5 -64.5 170.5 -64.5 q74 0 129.5 26.5 q55.5 26.5 107.5 78.5 l35 -32 q-116 -121 -277 -121 Z" /><glyph glyph-name="afii10054" unicode="&#x405;" d="M299 -10 q-184 0 -279 134 l40 29 q46 -59 104 -87.5 q58 -28.5 140 -28.5 q86 0 144 43.5 q58 43.5 58 109.5 q0 46 -34 77 q-34 31 -119 64 q-111 43 -155.5 83 q-44.5 40 -44.5 103 q0 81 70 137 q70 56 181 56 q76 0 139.5 -29.5 q63.5 -29.5 103.5 -77.5 l-40 -32 q-80 92 -208 92 q-87 0 -140 -42 q-53 -42 -53 -100 q0 -47 38 -77.5 q38 -30.5 129 -65.5 q100 -38 143 -79.5 q43 -41.5 43 -104.5 q0 -86 -74 -145 q-74 -59 -186 -59 Z" /><glyph glyph-name="afii10055" unicode="&#x406;" d="M43 0 l188 700 l52 0 l-188 -700 l-52 0 Z" /><glyph glyph-name="afii10056" unicode="&#x407;" d="M43 0 l188 700 l52 0 l-188 -700 l-52 0 ZM153 765 l22 80 l69 0 l-22 -80 l-69 0 ZM316 765 l22 80 l69 0 l-22 -80 l-69 0 Z" /><glyph glyph-name="afii10057" unicode="&#x408;" d="M196 -10 q-83 0 -132.5 44 q-49.5 44 -68.5 117 l46 16 q40 -130 153 -130 q75 0 127 52 q50 50 78 153 l123 458 l52 0 l-125 -465 q-31 -117 -93 -179 q-66 -66 -160 -66 Z" /><glyph glyph-name="afii10058" unicode="&#x409;" d="M13 -7 q-57 0 -87 19 l26 41 q22 -12 63 -12 q20 0 39 7 q19 7 50 37.5 q31 30.5 61 83 q30 52.5 68.5 155 q38.5 102.5 76.5 242.5 l36 134 l429 0 l-76 -282 l181 0 q126 0 186 -60 q45 -45 45 -118 q0 -114 -90 -177 q-90 -63 -246 -63 l-240 0 l175 652 l-327 0 l-24 -88 q-39 -147 -78.5 -253.5 q-39.5 -106.5 -72.5 -167 q-33 -60.5 -69 -95 q-36 -34.5 -64 -45 q-28 -10.5 -62 -10.5 ZM600 48 l177 0 q136 0 209 49 q73 49 73 141 q0 53 -33 86 q-46 46 -147 46 l-193 0 l-86 -322 Z" /><glyph glyph-name="afii10059" unicode="&#x40a;" d="M36 0 l188 700 l52 0 l-80 -296 l443 0 l80 296 l52 0 l-81 -296 l193 0 q123 0 181 -58 q43 -43 43 -113 q0 -111 -88 -172 q-88 -61 -241 -61 l-247 0 l95 356 l-443 0 l-95 -356 l-52 0 ZM595 48 l185 0 q133 0 204 47.5 q71 47.5 71 135.5 q0 50 -31 81 q-44 44 -142 44 l-204 0 l-83 -308 Z" /><glyph glyph-name="afii10060" unicode="&#x40b;" d="M179 0 l175 652 l-214 0 l13 48 l540 0 l-13 -48 l-274 0 l-75 -279 q147 71 245 71 q88 0 140 -36.5 q52 -36.5 52 -105.5 q0 -29 -8 -57 l-65 -245 l-52 0 l67 250 q6 23 6 41 q0 51 -36.5 79.5 q-36.5 28.5 -102.5 28.5 q-109 0 -259 -75 l-87 -324 l-52 0 Z" /><glyph glyph-name="afii10061" unicode="&#x40c;" d="M36 0 l188 700 l52 0 l-122 -455 l560 455 l77 0 l-389 -313 l212 -387 l-60 0 l-195 357 l-224 -182 l-47 -175 l-52 0 ZM414 765 l124 133 l62 -30 l-135 -103 l-51 0 Z" /><glyph glyph-name="afii10062" unicode="&#x40e;" d="M119 -12 q-79 0 -114 26 l30 43 q36 -20 86 -20 q97 0 190 124 l-170 539 l56 0 l152 -490 l370 490 l61 0 l-423 -558 q-116 -154 -238 -154 ZM558 796.5 q-42 -31.5 -94 -31.5 q-52 0 -84 31.5 q-32 31.5 -34 81.5 l42 9 q5 -36 22.5 -54.5 q17.5 -18.5 54.5 -18.5 q39 0 68 19.5 q29 19.5 43 53.5 l40 -9 q-16 -50 -58 -81.5 Z" /><glyph glyph-name="afii10145" unicode="&#x40f;" d="M242 -160 l43 160 l-249 0 l188 700 l52 0 l-175 -652 l429 0 l175 652 l52 0 l-188 -700 l-230 0 l-43 -160 l-54 0 Z" /><glyph glyph-name="afii10017" unicode="&#x410;" d="M-34 0 l515 705 l50 0 l137 -705 l-53 0 l-36 196 l-413 0 l-142 -196 l-58 0 ZM200 243 l369 0 l-75 405 l-294 -405 Z" /><glyph glyph-name="afii10018" unicode="&#x411;" d="M36 0 l188 700 l477 0 l-12 -48 l-426 0 l-67 -248 l217 0 q123 0 181 -58 q43 -43 43 -113 q0 -111 -88 -172 q-88 -61 -241 -61 l-272 0 ZM101 48 l209 0 q133 0 204 47.5 q71 47.5 71 135.5 q0 50 -31 81 q-44 44 -142 44 l-228 0 l-83 -308 Z" /><glyph glyph-name="afii10019" unicode="&#x412;" d="M36 0 l188 700 l259 0 q96 0 153 -42.5 q57 -42.5 57 -116.5 q0 -74 -52 -123.5 q-52 -49.5 -133 -65.5 q60 -16 97 -52 q37 -36 37 -94 q0 -91 -79 -148.5 q-79 -57.5 -212 -57.5 l-315 0 ZM101 48 l253 0 q109 0 172 42 q63 42 63 116 q0 59 -51 91 q-51 32 -134 32 l-228 0 l-75 -281 ZM189 377 l216 0 q106 0 170 44 q64 44 64 115 q0 57 -42.5 86.5 q-42.5 29.5 -118.5 29.5 l-215 0 l-74 -275 Z" /><glyph glyph-name="afii10020" unicode="&#x413;" d="M36 0 l187 700 l437 0 l-12 -48 l-385 0 l-175 -652 l-52 0 Z" /><glyph glyph-name="afii10021" unicode="&#x414;" d="M-100 -160 l56 208 l70 0 q154 158 245 485 l46 167 l429 0 l-175 -652 l95 0 l-66 -208 l-44 0 l43 160 l-603 0 l-52 -160 l-44 0 ZM90 48 l429 0 l162 604 l-327 0 l-43 -157 q-38 -142 -95.5 -259 q-57.5 -117 -125.5 -188 Z" /><glyph glyph-name="afii10022" unicode="&#x415;" d="M36 0 l188 700 l493 0 l-13 -48 l-441 0 l-74 -275 l396 0 l-13 -48 l-396 0 l-75 -281 l446 0 l-13 -48 l-498 0 Z" /><glyph glyph-name="afii10024" unicode="&#x416;" d="M-43 0 l402 404 l-190 296 l60 0 l282 -446 l119 446 l52 0 l-117 -440 l511 440 l73 0 l-358 -303 l188 -397 l-59 0 l-170 362 l-205 -173 l-50 -189 l-52 0 l51 195 l-108 167 l-359 -362 l-70 0 Z" /><glyph glyph-name="afii10025" unicode="&#x417;" d="M260 -12 q-87 0 -152.5 34.5 q-65.5 34.5 -100.5 91.5 l45 27 q70 -106 211 -106 q89 0 145.5 44.5 q56.5 44.5 56.5 109.5 q0 69 -55.5 105 q-55.5 36 -130.5 36 l-60 0 l12 46 l70 0 q103 0 169 43 q66 43 66 115 q0 59 -46 94 q-46 35 -118 35 q-102 0 -190 -69 l-32 35 q99 81 222 81 q92 0 155.5 -46.5 q63.5 -46.5 63.5 -126.5 q0 -77 -56 -124.5 q-56 -47.5 -155 -63.5 q62 -18 101 -57.5 q39 -39.5 39 -100.5 q0 -86 -75.5 -144.5 q-75.5 -58.5 -184.5 -58.5 Z" /><glyph glyph-name="afii10026" unicode="&#x418;" d="M36 0 l188 700 l52 0 l-167 -621 l621 621 l51 0 l-187 -700 l-52 0 l166 621 l-620 -621 l-52 0 Z" /><glyph glyph-name="afii10027" unicode="&#x419;" d="M36 0 l188 700 l52 0 l-167 -621 l621 621 l51 0 l-187 -700 l-52 0 l166 621 l-620 -621 l-52 0 ZM590 796.5 q-42 -31.5 -94 -31.5 q-52 0 -84 31.5 q-32 31.5 -34 81.5 l42 9 q5 -36 22.5 -54.5 q17.5 -18.5 54.5 -18.5 q39 0 68 19.5 q29 19.5 43 53.5 l40 -9 q-16 -50 -58 -81.5 Z" /><glyph glyph-name="afii10028" unicode="&#x41a;" d="M36 0 l188 700 l52 0 l-122 -455 l560 455 l77 0 l-389 -313 l212 -387 l-60 0 l-195 357 l-224 -182 l-47 -175 l-52 0 Z" /><glyph glyph-name="afii10029" unicode="&#x41b;" d="M13 -7 q-57 0 -87 19 l26 41 q22 -12 63 -12 q20 0 39 7 q19 7 50 37.5 q31 30.5 61 83 q30 52.5 68.5 155 q38.5 102.5 76.5 242.5 l36 134 l429 0 l-188 -700 l-52 0 l175 652 l-327 0 l-24 -88 q-39 -147 -78.5 -253.5 q-39.5 -106.5 -72.5 -167 q-33 -60.5 -69 -95 q-36 -34.5 -64 -45 q-28 -10.5 -62 -10.5 Z" /><glyph glyph-name="afii10030" unicode="&#x41c;" d="M36 0 l188 700 l43 0 l170 -414 l392 414 l55 0 l-188 -700 l-52 0 l163 608 l-385 -403 l-4 0 l-169 403 l-163 -608 l-50 0 Z" /><glyph glyph-name="afii10031" unicode="&#x41d;" d="M36 0 l188 700 l52 0 l-87 -324 l443 0 l87 324 l52 0 l-188 -700 l-52 0 l88 328 l-443 0 l-88 -328 l-52 0 Z" /><glyph glyph-name="afii10032" unicode="&#x41e;" d="M398 -13 q-131 0 -216.5 86.5 q-85.5 86.5 -85.5 214.5 q0 108 53.5 206 q53.5 98 147 158 q93.5 60 202.5 60 q131 0 216.5 -86.5 q85.5 -86.5 85.5 -214.5 q0 -108 -53.5 -206 q-53.5 -98 -147 -158 q-93.5 -60 -202.5 -60 ZM398 34 q96 0 177 54 q81 54 126.5 140.5 q45.5 86.5 45.5 182.5 q0 109 -69 181.5 q-69 72.5 -179 72.5 q-96 0 -177 -54 q-81 -54 -126.5 -140.5 q-45.5 -86.5 -45.5 -182.5 q0 -109 69 -181.5 q69 -72.5 179 -72.5 Z" /><glyph glyph-name="afii10033" unicode="&#x41f;" d="M36 0 l188 700 l533 0 l-188 -700 l-52 0 l175 652 l-429 0 l-175 -652 l-52 0 Z" /><glyph glyph-name="afii10034" unicode="&#x420;" d="M36 0 l188 700 l218 0 q130 0 193 -63 q48 -48 48 -125 q0 -118 -93 -184 q-93 -66 -253 -66 l-178 0 l-71 -262 l-52 0 ZM171 309 l168 0 q141 0 216.5 52.5 q75.5 52.5 75.5 148.5 q0 57 -36 93 q-49 49 -154 49 l-178 0 l-92 -343 Z" /><glyph glyph-name="afii10035" unicode="&#x421;" d="M378 -13 q-120 0 -203 77.5 q-83 77.5 -83 206.5 q0 112 55.5 214 q55.5 102 153 164.5 q97.5 62.5 209.5 62.5 q92 0 157.5 -41.5 q65.5 -41.5 99.5 -109.5 l-45 -24 q-36 63 -86.5 95.5 q-50.5 32.5 -128.5 32.5 q-148 0 -254.5 -120 q-106.5 -120 -106.5 -272 q0 -109 66.5 -173.5 q66.5 -64.5 170.5 -64.5 q74 0 129.5 26.5 q55.5 26.5 107.5 78.5 l35 -32 q-116 -121 -277 -121 Z" /><glyph glyph-name="afii10036" unicode="&#x422;" d="M209 0 l175 652 l-244 0 l13 48 l540 0 l-13 -48 l-244 0 l-175 -652 l-52 0 Z" /><glyph glyph-name="afii10037" unicode="&#x423;" d="M119 -12 q-79 0 -114 26 l30 43 q36 -20 86 -20 q97 0 190 124 l-170 539 l56 0 l152 -490 l370 490 l61 0 l-423 -558 q-116 -154 -238 -154 Z" /><glyph glyph-name="afii10038" unicode="&#x424;" d="M329 -26 l21 78 q-132 1 -205.5 76 q-73.5 75 -73.5 187 q0 137 106.5 236.5 q106.5 99.5 281.5 99.5 l51 0 l19 71 l52 0 l-19 -71 q132 -1 205 -76.5 q73 -75.5 73 -186.5 q0 -137 -106.5 -236.5 q-106.5 -99.5 -281.5 -99.5 l-50 0 l-21 -78 l-52 0 ZM362 99 l135 505 l-45 0 q-150 0 -238.5 -81.5 q-88.5 -81.5 -88.5 -204.5 q0 -97 62 -158 q62 -61 175 -61 ZM414 99 l45 0 q150 0 238.5 81.5 q88.5 81.5 88.5 204.5 q0 97 -62 158 q-62 61 -175 61 l-135 -505 Z" /><glyph glyph-name="afii10039" unicode="&#x425;" d="M-23 0 l366 362 l-186 338 l56 0 l167 -308 l310 308 l67 0 l-352 -347 l192 -353 l-56 0 l-173 323 l-324 -323 l-67 0 Z" /><glyph glyph-name="afii10040" unicode="&#x426;" d="M566 -160 l43 160 l-573 0 l188 700 l52 0 l-175 -652 l429 0 l175 652 l52 0 l-176 -652 l95 0 l-66 -208 l-44 0 Z" /><glyph glyph-name="afii10041" unicode="&#x427;" d="M460 0 l83 312 q-147 -71 -235 -71 q-88 0 -140 36.5 q-52 36.5 -52 105.5 q0 29 8 57 l69 260 l52 0 l-71 -265 q-6 -23 -6 -41 q0 -51 36.5 -79.5 q36.5 -28.5 102.5 -28.5 q99 0 249 75 l91 339 l52 0 l-187 -700 l-52 0 Z" /><glyph glyph-name="afii10042" unicode="&#x428;" d="M36 0 l188 700 l52 0 l-175 -652 l367 0 l175 652 l52 0 l-175 -652 l368 0 l176 652 l52 0 l-188 -700 l-892 0 Z" /><glyph glyph-name="afii10043" unicode="&#x429;" d="M926 -160 l43 160 l-933 0 l188 700 l52 0 l-175 -652 l367 0 l175 652 l52 0 l-175 -652 l368 0 l176 652 l52 0 l-175 -652 l95 0 l-66 -208 l-44 0 Z" /><glyph glyph-name="afii10044" unicode="&#x42a;" d="M156 0 l175 652 l-191 0 l13 48 l243 0 l-76 -282 l181 0 q126 0 186 -60 q45 -45 45 -118 q0 -114 -90 -177 q-90 -63 -246 -63 l-240 0 ZM221 48 l177 0 q136 0 209 49 q73 49 73 141 q0 53 -33 86 q-46 46 -147 46 l-193 0 l-86 -322 Z" /><glyph glyph-name="afii10045" unicode="&#x42b;" d="M36 0 l188 700 l52 0 l-76 -282 l181 0 q126 0 186 -60 q45 -45 45 -118 q0 -114 -90 -177 q-90 -63 -246 -63 l-240 0 ZM101 48 l177 0 q136 0 209 49 q73 49 73 141 q0 53 -33 86 q-46 46 -147 46 l-193 0 l-86 -322 ZM646 0 l187 700 l52 0 l-187 -700 l-52 0 Z" /><glyph glyph-name="afii10046" unicode="&#x42c;" d="M36 0 l188 700 l52 0 l-76 -282 l181 0 q126 0 186 -60 q45 -45 45 -118 q0 -114 -90 -177 q-90 -63 -246 -63 l-240 0 ZM101 48 l177 0 q136 0 209 49 q73 49 73 141 q0 53 -33 86 q-46 46 -147 46 l-193 0 l-86 -322 Z" /><glyph glyph-name="afii10047" unicode="&#x42d;" d="M285 -13 q-92 0 -157.5 41.5 q-65.5 41.5 -99.5 109.5 l45 24 q36 -63 86.5 -95.5 q50.5 -32.5 128.5 -32.5 q125 0 219 84.5 q94 84.5 122 210.5 l-363 0 l13 48 l358 0 q2 26 2 39 q0 110 -67 179 q-67 69 -170 69 q-74 0 -129.5 -26.5 q-55.5 -26.5 -107.5 -78.5 l-35 32 q116 121 277 121 q119 0 202.5 -82 q83.5 -82 83.5 -212 q0 -113 -53 -211.5 q-53 -98.5 -147.5 -159 q-94.5 -60.5 -207.5 -60.5 Z" /><glyph glyph-name="afii10048" unicode="&#x42e;" d="M613 -13 q-125 0 -201.5 82.5 q-76.5 82.5 -76.5 209.5 q0 23 3 49 l-162 0 l-88 -328 l-52 0 l188 700 l52 0 l-88 -324 l157 0 q30 145 135.5 240.5 q105.5 95.5 237.5 95.5 q126 0 202 -82.5 q76 -82.5 76 -209.5 q0 -178 -114 -305.5 q-114 -127.5 -269 -127.5 ZM613 34 q134 0 231 115 q97 115 97 271 q0 108 -61 176.5 q-61 68.5 -162 68.5 q-134 0 -231 -114 q-97 -114 -97 -271 q0 -108 61 -177 q61 -69 162 -69 Z" /><glyph glyph-name="afii10049" unicode="&#x42f;" d="M-9 0 l296 286 q-73 14 -110 53 q-45 45 -45 119 q0 114 90.5 178 q90.5 64 246.5 64 l259 0 l-187 -700 l-52 0 l75 279 l-218 0 l-286 -279 l-69 0 ZM365 327 l211 0 l88 325 l-197 0 q-136 0 -209.5 -50 q-73.5 -50 -73.5 -142 q0 -54 33 -87 q46 -46 148 -46 Z" /><glyph glyph-name="afii10065" unicode="&#x430;" d="M190 -12 q-69 0 -118 37.5 q-49 37.5 -49 105.5 q0 84 64 134.5 q64 50.5 166 50.5 q90 0 196 -29 l4 14 q7 26 7 51 q0 58 -39.5 89 q-39.5 31 -114.5 31 q-70 0 -148 -27 l-9 44 q81 29 161 29 q93 0 145.5 -42.5 q52.5 -42.5 52.5 -116.5 q0 -29 -10 -67 l-78 -292 l-48 0 l23 88 q-84 -100 -205 -100 ZM199 33 q75 0 141.5 47.5 q66.5 47.5 86.5 122.5 l12 45 q-96 24 -193 24 q-76 0 -123.5 -37.5 q-47.5 -37.5 -47.5 -97.5 q0 -47 33.5 -75.5 q33.5 -28.5 90.5 -28.5 Z" /><glyph glyph-name="afii10066" unicode="&#x431;" d="M361 506 q102 0 164.5 -60 q62.5 -60 62.5 -157 q0 -118 -92.5 -209.5 q-92.5 -91.5 -203.5 -91.5 q-112 0 -170.5 63 q-58.5 63 -58.5 163 q0 46 8 95.5 q8 49.5 28.5 105 q20.5 55.5 50.5 101 q30 45.5 78 81 q48 35.5 108 48.5 l299 64 l11 -44 l-295 -66 q-83 -19 -131 -65 q-48 -46 -75 -129 l4 0 q87 101 212 101 ZM354 462 q-96 0 -167.5 -74.5 q-71.5 -74.5 -71.5 -176.5 q0 -77 45.5 -127 q45.5 -50 131.5 -50 q90 0 166 78.5 q76 78.5 76 178.5 q0 79 -47.5 125 q-47.5 46 -132.5 46 Z" /><glyph glyph-name="afii10067" unicode="&#x432;" d="M25 0 l137 510 l215 0 q70 0 111.5 -31 q41.5 -31 41.5 -85 q0 -53 -37.5 -87 q-37.5 -34 -97.5 -46 q43 -10 70.5 -39 q27.5 -29 27.5 -72 q0 -66 -57.5 -108 q-57.5 -42 -155.5 -42 l-255 0 ZM85 44 l191 0 q76 0 120.5 29 q44.5 29 44.5 80 q0 41 -36 64 q-36 23 -93 23 l-174 0 l-53 -196 ZM149 282 l164 0 q74 0 119 29.5 q45 29.5 45 78.5 q0 76 -111 76 l-167 0 l-50 -184 Z" /><glyph glyph-name="afii10068" unicode="&#x433;" d="M25 0 l137 510 l337 0 l-12 -44 l-288 0 l-125 -466 l-49 0 Z" /><glyph glyph-name="afii10069" unicode="&#x434;" d="M-87 -144 l49 188 l62 0 q109 124 171 358 l29 108 l342 0 l-125 -466 l82 0 l-60 -188 l-40 0 l39 144 l-460 0 l-49 -144 l-40 0 ZM78 44 l314 0 l114 422 l-246 0 l-25 -92 q-27 -101 -69.5 -190 q-42.5 -89 -87.5 -140 Z" /><glyph glyph-name="afii10070" unicode="&#x435;" d="M272 -12 q-98 0 -160 60 q-62 60 -62 154 q0 123 87 221.5 q87 98.5 208 98.5 q92 0 142.5 -56 q50.5 -56 50.5 -139 q0 -49 -14 -89 l-419 0 q-2 -22 -2 -34 q0 -77 47 -123.5 q47 -46.5 122 -46.5 q91 0 174 68 l29 -35 q-95 -79 -203 -79 ZM114 282 l370 0 q4 18 4 42 q0 66 -36.5 109.5 q-36.5 43.5 -107.5 43.5 q-82 0 -144.5 -56 q-62.5 -56 -85.5 -139 Z" /><glyph glyph-name="afii10072" unicode="&#x436;" d="M-43 0 l297 293 l-141 217 l56 0 l206 -325 l87 325 l49 0 l-86 -322 l374 322 l66 0 l-263 -223 l138 -287 l-55 0 l-121 255 l-156 -132 l-33 -123 l-49 0 l35 130 l-82 126 l-257 -256 l-65 0 Z" /><glyph glyph-name="afii10073" unicode="&#x437;" d="M204 -10 q-121 0 -200 76 l37 40 q70 -70 164 -70 q61 0 109.5 35.5 q48.5 35.5 48.5 86.5 q0 38 -33 59.5 q-33 21.5 -92 21.5 l-70 0 l12 44 l66 0 q59 0 102.5 31.5 q43.5 31.5 43.5 82.5 q0 35 -30 55.5 q-30 20.5 -78 20.5 q-94 0 -168 -52 l-22 39 q89 59 195 59 q71 0 114.5 -35 q43.5 -35 43.5 -86 q0 -92 -105 -133 q35 -13 55 -42 q20 -29 20 -66 q0 -70 -59 -118.5 q-59 -48.5 -154 -48.5 Z" /><glyph glyph-name="afii10074" unicode="&#x438;" d="M25 0 l137 510 l49 0 l-118 -439 l456 439 l49 0 l-137 -510 l-49 0 l119 441 l-457 -441 l-49 0 Z" /><glyph glyph-name="afii10075" unicode="&#x439;" d="M25 0 l137 510 l49 0 l-118 -439 l456 439 l49 0 l-137 -510 l-49 0 l119 441 l-457 -441 l-49 0 ZM482 626.5 q-42 -31.5 -94 -31.5 q-52 0 -84 31.5 q-32 31.5 -34 81.5 l42 9 q5 -36 22.5 -54.5 q17.5 -18.5 54.5 -18.5 q39 0 68 19.5 q29 19.5 43 53.5 l40 -9 q-16 -50 -58 -81.5 Z" /><glyph glyph-name="afii10076" unicode="&#x43a;" d="M25 0 l137 510 l49 0 l-86 -321 l396 321 l71 0 l-284 -228 l152 -282 l-57 0 l-136 252 l-160 -128 l-33 -124 l-49 0 Z" /><glyph glyph-name="afii10077" unicode="&#x43b;" d="M-3 -8 q-42 0 -60 9 l20 44 q14 -7 36 -7 q30 0 51 12 q21 12 50 54 q29 42 62 135.5 q33 93.5 74 243.5 l8 27 l344 0 l-137 -510 l-49 0 l125 466 l-248 0 l-4 -14 q-34 -124 -63.5 -209.5 q-29.5 -85.5 -54 -135 q-24.5 -49.5 -51.5 -75.5 q-27 -26 -49 -33 q-22 -7 -54 -7 Z" /><glyph glyph-name="afii10078" unicode="&#x43c;" d="M25 0 l137 510 l39 0 l128 -296 l290 296 l47 0 l-137 -510 l-49 0 l114 425 l-280 -282 l-126 284 l-114 -427 l-49 0 Z" /><glyph glyph-name="afii10079" unicode="&#x43d;" d="M25 0 l137 510 l49 0 l-61 -227 l331 0 l61 227 l49 0 l-137 -510 l-49 0 l64 239 l-331 0 l-64 -239 l-49 0 Z" /><glyph glyph-name="afii10080" unicode="&#x43e;" d="M278 -12 q-101 0 -164 63.5 q-63 63.5 -63 162.5 q0 122 91 215 q91 93 212 93 q101 0 164 -63.5 q63 -63.5 63 -162.5 q0 -124 -92 -216 q-92 -92 -211 -92 ZM283 34 q95 0 170 78 q75 78 75 182 q0 85 -49 133.5 q-49 48.5 -130 48.5 q-97 0 -171 -79 q-74 -79 -74 -181 q0 -85 49 -133.5 q49 -48.5 130 -48.5 Z" /><glyph glyph-name="afii10081" unicode="&#x43f;" d="M25 0 l137 510 l416 0 l-137 -510 l-49 0 l125 466 l-318 0 l-125 -466 l-49 0 Z" /><glyph glyph-name="afii10082" unicode="&#x440;" d="M312 -13 q-79 0 -130 40.5 q-51 40.5 -73 102.5 l-78 -290 l-49 0 l180 670 l48 0 l-27 -100 q94 112 212 112 q89 0 147 -60.5 q58 -60.5 58 -154.5 q0 -134 -86 -227 q-86 -93 -202 -93 ZM310 33 q101 0 169 80 q68 80 68 188 q0 78 -44 126.5 q-44 48.5 -114 48.5 q-96 0 -175.5 -82 q-79.5 -82 -79.5 -183 q0 -75 49.5 -126.5 q49.5 -51.5 126.5 -51.5 Z" /><glyph glyph-name="afii10083" unicode="&#x441;" d="M272 -12 q-89 0 -155.5 60 q-66.5 60 -66.5 160 q0 126 89.5 220 q89.5 94 210.5 94 q73 0 123.5 -35 q50.5 -35 76.5 -88 l-41 -23 q-57 100 -162 100 q-97 0 -170.5 -80 q-73.5 -80 -73.5 -185 q0 -82 50.5 -129.5 q50.5 -47.5 121.5 -47.5 q87 0 165 73 l33 -32 q-90 -87 -201 -87 Z" /><glyph glyph-name="afii10084" unicode="&#x442;" d="M146 0 l125 466 l-191 0 l12 44 l431 0 l-12 -44 l-191 0 l-125 -466 l-49 0 Z" /><glyph glyph-name="afii10085" unicode="&#x443;" d="M20 -163 q-58 0 -108 35 l27 40 q36 -29 87 -29 q40 0 78.5 27.5 q38.5 27.5 84.5 92.5 l-104 507 l52 0 l89 -456 l307 456 l59 0 l-363 -528 q-54 -78 -103.5 -111.5 q-49.5 -33.5 -105.5 -33.5 Z" /><glyph glyph-name="afii10086" unicode="&#x444;" d="M292 -160 l55 206 q-69 -58 -143 -58 q-74 0 -116.5 44 q-42.5 44 -42.5 130 q0 81 29.5 161 q29.5 80 95 139.5 q65.5 59.5 152.5 59.5 q81 0 136 -65 l64 243 l49 0 l-63 -238 q27 21 43.5 31.5 q16.5 10.5 43 19.5 q26.5 9 56.5 9 q72 0 115.5 -48.5 q43.5 -48.5 43.5 -132.5 q0 -59 -18 -120 q-18 -61 -51 -113.5 q-33 -52.5 -87.5 -86 q-54.5 -33.5 -120.5 -33.5 q-86 0 -137 58 l-55 -206 l-49 0 ZM214 35 q71 0 148 65 l84 314 q-41 61 -124 61 q-71 0 -124.5 -50.5 q-53.5 -50.5 -77 -119.5 q-23.5 -69 -23.5 -141 q0 -60 29 -94.5 q29 -34.5 88 -34.5 ZM533 35 q55 0 99 28 q44 28 70.5 73.5 q26.5 45.5 40 98 q13.5 52.5 13.5 106.5 q0 61 -29 97.5 q-29 36.5 -86 36.5 q-74 0 -146 -61 l-86 -318 q41 -61 124 -61 Z" /><glyph glyph-name="afii10087" unicode="&#x445;" d="M-29 0 l284 264 l-135 246 l56 0 l112 -215 l224 215 l66 0 l-268 -250 l141 -260 l-56 0 l-118 229 l-240 -229 l-66 0 Z" /><glyph glyph-name="afii10088" unicode="&#x446;" d="M434 -144 l39 144 l-448 0 l137 510 l49 0 l-125 -466 l318 0 l125 466 l49 0 l-125 -466 l82 0 l-61 -188 l-40 0 Z" /><glyph glyph-name="afii10089" unicode="&#x447;" d="M345 0 l60 223 q-106 -52 -190 -52 q-62 0 -98 29 q-36 29 -36 81 q0 23 7 47 l49 182 l49 0 l-51 -192 q-5 -18 -5 -31 q0 -33 24 -52 q24 -19 68 -19 q99 0 196 56 l64 238 l49 0 l-137 -510 l-49 0 Z" /><glyph glyph-name="afii10090" unicode="&#x448;" d="M25 0 l137 510 l49 0 l-125 -466 l278 0 l125 466 l49 0 l-125 -466 l278 0 l125 466 l49 0 l-137 -510 l-703 0 Z" /><glyph glyph-name="afii10091" unicode="&#x449;" d="M721 -144 l39 144 l-735 0 l137 510 l49 0 l-125 -466 l278 0 l125 466 l49 0 l-125 -466 l278 0 l125 466 l49 0 l-125 -466 l82 0 l-61 -188 l-40 0 Z" /><glyph glyph-name="afii10092" unicode="&#x44a;" d="M115 0 l125 466 l-160 0 l12 44 l209 0 l-55 -205 l146 0 q92 0 136 -44 q33 -33 33 -86 q0 -83 -65.5 -129 q-65.5 -46 -179.5 -46 l-201 0 ZM176 44 l136 0 q95 0 146 33.5 q51 33.5 51 95.5 q0 45 -35.5 66.5 q-35.5 21.5 -86.5 21.5 l-153 0 l-58 -217 Z" /><glyph glyph-name="afii10093" unicode="&#x44b;" d="M25 0 l137 510 l49 0 l-55 -205 l145 0 q92 0 136 -44 q33 -33 33 -86 q0 -83 -65.5 -129 q-65.5 -46 -179.5 -46 l-200 0 ZM86 44 l135 0 q95 0 146 33.5 q51 33.5 51 95.5 q0 45 -35.5 66.5 q-35.5 21.5 -86.5 21.5 l-152 0 l-58 -217 ZM522 0 l137 510 l49 0 l-137 -510 l-49 0 Z" /><glyph glyph-name="afii10094" unicode="&#x44c;" d="M25 0 l137 510 l49 0 l-55 -205 l146 0 q92 0 136 -44 q33 -33 33 -86 q0 -83 -65.5 -129 q-65.5 -46 -179.5 -46 l-201 0 ZM86 44 l136 0 q95 0 146 33.5 q51 33.5 51 95.5 q0 45 -35.5 66.5 q-35.5 21.5 -86.5 21.5 l-153 0 l-58 -217 Z" /><glyph glyph-name="afii10095" unicode="&#x44d;" d="M210 -12 q-73 0 -123.5 35 q-50.5 35 -76.5 88 l41 23 q57 -100 162 -100 q82 0 149 59 q67 59 88 146 l-256 0 l11 44 l251 0 q1 5 1 16 q0 82 -50.5 129.5 q-50.5 47.5 -121.5 47.5 q-84 0 -158 -67 l-29 36 q86 77 190 77 q89 0 155.5 -60 q66.5 -60 66.5 -160 q0 -126 -89.5 -220 q-89.5 -94 -210.5 -94 Z" /><glyph glyph-name="afii10096" unicode="&#x44e;" d="M471 -12 q-96 0 -153.5 60.5 q-57.5 60.5 -57.5 154.5 q0 20 1 31 l-125 0 l-62 -234 l-49 0 l136 510 l49 0 l-62 -231 l120 0 q23 103 101 173 q78 70 182 70 q97 0 154 -61 q57 -61 57 -155 q0 -128 -84.5 -223 q-84.5 -95 -206.5 -95 ZM476 34 q97 0 165 80.5 q68 80.5 68 189.5 q0 79 -43.5 125.5 q-43.5 46.5 -119.5 46.5 q-98 0 -165.5 -81 q-67.5 -81 -67.5 -189 q0 -79 43 -125.5 q43 -46.5 120 -46.5 Z" /><glyph glyph-name="afii10097" unicode="&#x44f;" d="M-10 0 l212 204 q-111 24 -111 130 q0 83 66 129.5 q66 46.5 179 46.5 l209 0 l-136 -510 l-49 0 l53 199 l-156 0 l-203 -199 l-64 0 ZM260 243 l165 0 l60 223 l-150 0 q-96 0 -147.5 -34.5 q-51.5 -34.5 -51.5 -98.5 q0 -43 32 -66.5 q32 -23.5 92 -23.5 Z" /><glyph glyph-name="afii10071" unicode="&#x451;" d="M272 -12 q-98 0 -160 60 q-62 60 -62 154 q0 123 87 221.5 q87 98.5 208 98.5 q92 0 142.5 -56 q50.5 -56 50.5 -139 q0 -49 -14 -89 l-419 0 q-2 -22 -2 -34 q0 -77 47 -123.5 q47 -46.5 122 -46.5 q91 0 174 68 l29 -35 q-95 -79 -203 -79 ZM114 282 l370 0 q4 18 4 42 q0 66 -36.5 109.5 q-36.5 43.5 -107.5 43.5 q-82 0 -144.5 -56 q-62.5 -56 -85.5 -139 ZM252 595 l22 80 l69 0 l-22 -80 l-69 0 ZM415 595 l22 80 l69 0 l-22 -80 l-69 0 Z" /><glyph glyph-name="afii10099" unicode="&#x452;" d="M279 -12 q-63 0 -101 23 l25 42 q34 -19 82 -19 q130 0 172 151 l30 107 q8 30 8 63 q0 57 -35 90 q-35 33 -96 33 q-67 0 -129 -54 q-62 -54 -84 -136 l-77 -288 l-49 0 l156 581 l-84 0 l12 44 l84 0 l28 105 l49 0 l-28 -105 l228 0 l-12 -44 l-228 0 l-45 -166 q89 107 193 107 q76 0 121.5 -44.5 q45.5 -44.5 45.5 -117.5 q0 -28 -11 -72 l-30 -112 q-26 -95 -78.5 -141.5 q-52.5 -46.5 -146.5 -46.5 Z" /><glyph glyph-name="afii10100" unicode="&#x453;" d="M25 0 l137 510 l337 0 l-12 -44 l-288 0 l-125 -466 l-49 0 ZM277 595 l124 133 l62 -30 l-135 -103 l-51 0 Z" /><glyph glyph-name="afii10101" unicode="&#x454;" d="M272 -12 q-89 0 -155.5 60 q-66.5 60 -66.5 160 q0 126 89.5 220 q89.5 94 210.5 94 q129 0 192 -108 l-42 -24 q-56 86 -153 86 q-79 0 -145 -55.5 q-66 -55.5 -89 -137.5 l262 0 l-11 -44 l-260 0 q-1 -10 -1 -28 q0 -82 50.5 -129.5 q50.5 -47.5 121.5 -47.5 q95 0 174 74 l33 -32 q-92 -88 -210 -88 Z" /><glyph glyph-name="afii10102" unicode="&#x455;" d="M217 -11 q-128 0 -216 88 l35 35 q81 -78 187 -78 q51 0 91.5 28.5 q40.5 28.5 40.5 72.5 q0 31 -23.5 54 q-23.5 23 -87.5 47 q-76 28 -109.5 58.5 q-33.5 30.5 -33.5 78.5 q0 62 52.5 105 q52.5 43 136.5 43 q103 0 184 -68 l-32 -37 q-73 60 -157 60 q-61 0 -96.5 -28 q-35.5 -28 -35.5 -67 q0 -31 23 -52 q23 -21 92 -48 q76 -30 107.5 -61 q31.5 -31 31.5 -77 q0 -66 -56 -110 q-56 -44 -134 -44 Z" /><glyph glyph-name="afii10103" unicode="&#x456;" d="M32 0 l137 510 l49 0 l-137 -510 l-49 0 ZM199 643 l18 67 l61 0 l-18 -67 l-61 0 Z" /><glyph glyph-name="afii10104" unicode="&#x457;" d="M92 595 l22 80 l69 0 l-22 -80 l-69 0 ZM255 595 l22 80 l69 0 l-22 -80 l-69 0 ZM32 0 l137 510 l49 0 l-137 -510 l-49 0 Z" /><glyph glyph-name="afii10105" unicode="&#x458;" d="M-52 -163 q-33 0 -63 10 l12 44 q28 -8 47 -8 q56 0 75 69 l150 558 l49 0 l-151 -562 q-14 -53 -45 -82 q-31 -29 -74 -29 ZM199 643 l18 67 l61 0 l-18 -67 l-61 0 Z" /><glyph glyph-name="afii10106" unicode="&#x459;" d="M-3 -8 q-42 0 -60 9 l20 44 q14 -7 36 -7 q30 0 51 12 q21 12 50 54 q29 42 62 135.5 q33 93.5 74 243.5 l8 27 l344 0 l-55 -205 l146 0 q92 0 136 -44 q33 -33 33 -86 q0 -83 -65.5 -129 q-65.5 -46 -179.5 -46 l-201 0 l125 466 l-248 0 l-4 -14 q-34 -124 -63.5 -209.5 q-29.5 -85.5 -54 -135 q-24.5 -49.5 -51.5 -75.5 q-27 -26 -49 -33 q-22 -7 -54 -7 ZM457 44 l136 0 q95 0 146 33.5 q51 33.5 51 95.5 q0 45 -35.5 66.5 q-35.5 21.5 -86.5 21.5 l-153 0 l-58 -217 Z" /><glyph glyph-name="afii10107" unicode="&#x45a;" d="M25 0 l137 510 l49 0 l-58 -218 l331 0 l58 218 l49 0 l-58 -218 l149 0 q78 0 123.5 -33 q45.5 -33 45.5 -94 q0 -76 -66 -120.5 q-66 -44.5 -179 -44.5 l-201 0 l67 248 l-331 0 l-67 -248 l-49 0 ZM466 44 l136 0 q94 0 145.5 32 q51.5 32 51.5 87 q0 43 -35.5 64 q-35.5 21 -86.5 21 l-156 0 l-55 -204 Z" /><glyph glyph-name="afii10108" unicode="&#x45b;" d="M25 0 l156 581 l-84 0 l12 44 l84 0 l28 105 l49 0 l-28 -105 l228 0 l-12 -44 l-228 0 l-45 -166 q89 107 193 107 q76 0 121.5 -44.5 q45.5 -44.5 45.5 -117.5 q0 -28 -11 -72 l-76 -288 l-49 0 l78 292 q8 30 8 63 q0 57 -35 90 q-35 33 -96 33 q-67 0 -129 -54 q-62 -54 -84 -136 l-77 -288 l-49 0 Z" /><glyph glyph-name="afii10109" unicode="&#x45c;" d="M25 0 l137 510 l49 0 l-86 -321 l396 321 l71 0 l-284 -228 l152 -282 l-57 0 l-136 252 l-160 -128 l-33 -124 l-49 0 ZM297 595 l124 133 l62 -30 l-135 -103 l-51 0 Z" /><glyph glyph-name="afii10110" unicode="&#x45e;" d="M20 -163 q-58 0 -108 35 l27 40 q36 -29 87 -29 q40 0 78.5 27.5 q38.5 27.5 84.5 92.5 l-104 507 l52 0 l89 -456 l307 456 l59 0 l-363 -528 q-54 -78 -103.5 -111.5 q-49.5 -33.5 -105.5 -33.5 ZM442 626.5 q-42 -31.5 -94 -31.5 q-52 0 -84 31.5 q-32 31.5 -34 81.5 l42 9 q5 -36 22.5 -54.5 q17.5 -18.5 54.5 -18.5 q39 0 68 19.5 q29 19.5 43 53.5 l40 -9 q-16 -50 -58 -81.5 Z" /><glyph glyph-name="afii10193" unicode="&#x45f;" d="M174 -144 l39 144 l-187 0 l136 510 l49 0 l-124 -466 l318 0 l124 466 l49 0 l-136 -510 l-179 0 l-39 -144 l-50 0 Z" /><glyph glyph-name="afii10050" unicode="&#x490;" d="M36 0 l188 700 l383 0 l43 160 l44 0 l-46 -208 l-385 0 l-175 -652 l-52 0 Z" /><glyph glyph-name="afii10098" unicode="&#x491;" d="M25 0 l137 510 l286 0 l39 144 l40 0 l-40 -188 l-288 0 l-125 -466 l-49 0 Z" /><glyph glyph-name="endash" unicode="&#x2013;" d="M74 271 l14 52 l388 0 l-14 -52 l-388 0 Z" /><glyph glyph-name="emdash" unicode="&#x2014;" d="M74 271 l14 52 l758 0 l-14 -52 l-758 0 Z" /><glyph glyph-name="quoteleft" unicode="&#x2018;" d="M147 513 l20 74 q14 52 39.5 77.5 q25.5 25.5 75.5 39.5 l7 -24 q-69 -24 -80 -82 l27 0 l-23 -85 l-66 0 Z" /><glyph glyph-name="quoteright" unicode="&#x2019;" d="M138 509 l-7 24 q69 24 80 82 l-27 0 l23 85 l66 0 l-20 -74 q-15 -52 -40 -77.5 q-25 -25.5 -75 -39.5 Z" /><glyph glyph-name="quotesinglbase" unicode="&#x201a;" d="M-32 -106 l-7 24 q69 24 80 82 l-27 0 l23 85 l66 0 l-20 -74 q-15 -52 -40 -77.5 q-25 -25.5 -75 -39.5 Z" /><glyph glyph-name="quotedblleft" unicode="&#x201c;" d="M146 513 l20 74 q14 52 39.5 77.5 q25.5 25.5 75.5 39.5 l7 -24 q-69 -24 -80 -82 l27 0 l-23 -85 l-66 0 ZM326 513 l20 74 q14 52 39.5 77.5 q25.5 25.5 75.5 39.5 l7 -24 q-69 -24 -80 -82 l27 0 l-23 -85 l-66 0 Z" /><glyph glyph-name="quotedblright" unicode="&#x201d;" d="M127 509 l-7 24 q69 24 80 82 l-27 0 l23 85 l66 0 l-20 -74 q-15 -52 -40 -77.5 q-25 -25.5 -75 -39.5 ZM307 509 l-7 24 q69 24 80 82 l-27 0 l23 85 l66 0 l-20 -74 q-15 -52 -40 -77.5 q-25 -25.5 -75 -39.5 Z" /><glyph glyph-name="quotedblbase" unicode="&#x201e;" d="M-32 -106 l-7 24 q69 24 80 82 l-27 0 l23 85 l66 0 l-20 -74 q-15 -52 -40 -77.5 q-25 -25.5 -75 -39.5 ZM149 -106 l-7 24 q69 24 80 82 l-27 0 l23 85 l66 0 l-20 -74 q-15 -52 -40 -77.5 q-25 -25.5 -75 -39.5 Z" /><glyph glyph-name="dagger" unicode="&#x2020;" d="M160 238 l81 286 l-126 -7 l12 45 l122 -7 l32 145 l50 0 l-46 -145 l126 7 l-12 -45 l-124 7 l-71 -286 l-44 0 Z" /><glyph glyph-name="daggerdbl" unicode="&#x2021;" d="M103 0 l46 145 l-126 -7 l12 45 l123 -7 l42 174 l51 174 l-126 -7 l12 45 l122 -7 l32 145 l50 0 l-46 -145 l126 7 l-12 -45 l-124 7 l-41 -174 l-52 -174 l127 7 l-12 -45 l-122 7 l-32 -145 l-50 0 Z" /><glyph glyph-name="bullet" unicode="&#x2022;" d="M232 222 q-46 0 -75.5 29.5 q-29.5 29.5 -29.5 79.5 q0 61 42.5 106 q42.5 45 100.5 45 q46 0 75.5 -29.5 q29.5 -29.5 29.5 -79.5 q0 -61 -42.5 -106 q-42.5 -45 -100.5 -45 Z" /><glyph glyph-name="ellipsis" unicode="&#x2026;" d="M14 0 l23 85 l66 0 l-23 -85 l-66 0 ZM240 0 l23 85 l66 0 l-23 -85 l-66 0 ZM466 0 l23 85 l66 0 l-23 -85 l-66 0 Z" /><glyph glyph-name="perthousand" unicode="&#x2030;" d="M65 0 l682 700 l60 0 l-682 -700 l-60 0 ZM588 -7 q-60 0 -98.5 41.5 q-38.5 41.5 -38.5 101.5 q0 86 56 152.5 q56 66.5 135 66.5 q60 0 98.5 -41.5 q38.5 -41.5 38.5 -101.5 q0 -86 -56 -152.5 q-56 -66.5 -135 -66.5 ZM592 36 q56 0 97 53.5 q41 53.5 41 117.5 q0 48 -24 76.5 q-24 28.5 -68 28.5 q-56 0 -97 -53.5 q-41 -53.5 -41 -117.5 q0 -48 24 -76.5 q24 -28.5 68 -28.5 ZM970 -7 q-60 0 -98.5 41.5 q-38.5 41.5 -38.5 101.5 q0 86 56 152.5 q56 66.5 135 66.5 q60 0 98.5 -41.5 q38.5 -41.5 38.5 -101.5 q0 -86 -56 -152.5 q-56 -66.5 -135 -66.5 ZM974 36 q56 0 97 53.5 q41 53.5 41 117.5 q0 48 -24 76.5 q-24 28.5 -68 28.5 q-56 0 -97 -53.5 q-41 -53.5 -41 -117.5 q0 -48 24 -76.5 q24 -28.5 68 -28.5 ZM230 346 q-60 0 -98.5 41.5 q-38.5 41.5 -38.5 101.5 q0 86 56 152.5 q56 66.5 135 66.5 q60 0 98.5 -41.5 q38.5 -41.5 38.5 -101.5 q0 -86 -56 -152.5 q-56 -66.5 -135 -66.5 ZM234 389 q56 0 97 53.5 q41 53.5 41 117.5 q0 48 -24 76.5 q-24 28.5 -68 28.5 q-56 0 -97 -53.5 q-41 -53.5 -41 -117.5 q0 -48 24 -76.5 q24 -28.5 68 -28.5 Z" /><glyph glyph-name="guilsinglleft" unicode="&#x2039;" d="M149 42 l-104 209 l2 8 l216 209 l36 -28 l-192 -192 l83 -184 l-41 -22 Z" /><glyph glyph-name="guilsinglright" unicode="&#x203a;" d="M47 41 l-36 28 l192 192 l-83 184 l41 22 l104 -209 l-2 -8 l-216 -209 Z" /><glyph glyph-name="fraction" unicode="&#x2044;" d="M-83 -98 l697 856 l59 0 l-697 -856 l-59 0 Z" /><glyph glyph-name="Euro" unicode="&#x20ac;" d="M372 -12 q-103 0 -170.5 69.5 q-67.5 69.5 -72.5 187.5 l-92 0 l13 48 l80 0 q3 65 21 123 l-69 0 l13 48 l73 0 q45 111 130.5 179.5 q85.5 68.5 194.5 68.5 q83 0 139 -44 q56 -44 80 -115 l-45 -18 q-27 64 -69.5 97 q-42.5 33 -113.5 33 q-82 0 -151.5 -55 q-69.5 -55 -109.5 -146 l301 0 l-13 -48 l-306 0 q-19 -62 -22 -123 l296 0 l-13 -48 l-283 0 q5 -95 55 -152.5 q50 -57.5 135 -57.5 q113 0 201 98 l35 -30 q-103 -115 -237 -115 Z" /><glyph glyph-name="afii61352" unicode="&#x2116;" d="M36 0 l188 700 l53 0 l242 -611 l164 611 l52 0 l-187 -700 l-44 0 l-248 626 l-168 -626 l-52 0 ZM681 174 l11 40 l238 0 l-11 -40 l-238 0 ZM854 292 q-52 0 -84.5 34 q-32.5 34 -32.5 83 q0 59 43.5 103 q43.5 44 101.5 44 q53 0 84.5 -33.5 q31.5 -33.5 31.5 -82.5 q0 -60 -42.5 -104 q-42.5 -44 -101.5 -44 ZM855 331 q42 0 71 32 q29 32 29 77 q0 34 -20.5 55.5 q-20.5 21.5 -53.5 21.5 q-41 0 -71 -32 q-30 -32 -30 -76 q0 -34 21 -56 q21 -22 54 -22 Z" /><glyph glyph-name="published" unicode="&#x2117;" d="M696 95 q-106 -107 -257 -107 q-151 0 -256 106 q-105 106 -105 255 q0 149 106 256 q106 107 257 107 q151 0 256 -106 q105 -106 105 -255 q0 -149 -106 -256 ZM203 113 q95 -97 236 -97 q141 0 237 98 q96 98 96 237 q0 139 -95 236 q-95 97 -236 97 q-141 0 -237 -98 q-96 -98 -96 -237 q0 -139 95 -236 ZM321 175 l0 366 l141 0 q66 0 104.5 -30.5 q38.5 -30.5 38.5 -85.5 q0 -59 -43 -90.5 q-43 -31.5 -107 -31.5 l-90 0 l0 -128 l-44 0 ZM365 344 l91 0 q48 0 76 20.5 q28 20.5 28 58.5 q0 77 -101 77 l-94 0 l0 -156 Z" /><glyph glyph-name="trademark" unicode="&#x2122;" d="M154 392 l78 274 l-101 0 l10 34 l237 0 l-10 -34 l-101 0 l-78 -274 l-35 0 ZM360 392 l88 308 l32 0 l72 -183 l168 183 l41 0 l-88 -308 l-35 0 l71 246 l-167 -178 l-5 0 l-71 178 l-71 -246 l-35 0 Z" /><glyph glyph-name="partialdiff" unicode="&#x2202;" d="M0 0 l0 700 l500 0 l0 -700 l-500 0 ZM81 49 l339 0 l-170 255 l-169 -255 ZM49 96 l171 254 l-171 254 l0 -508 ZM450 96 l0 508 l-171 -254 l171 -254 ZM250 395 l170 255 l-339 0 l169 -255 Z" /><glyph glyph-name="Delta" unicode="&#x2206;" d="M-10 0 l504 705 l50 0 l128 -705 l-682 0 ZM81 48 l529 0 l-103 600 l-426 -600 Z" /><glyph glyph-name="product" unicode="&#x220f;" d="M0 0 l0 700 l500 0 l0 -700 l-500 0 ZM81 49 l339 0 l-170 255 l-169 -255 ZM49 96 l171 254 l-171 254 l0 -508 ZM450 96 l0 508 l-171 -254 l171 -254 ZM250 395 l170 255 l-339 0 l169 -255 Z" /><glyph glyph-name="summation" unicode="&#x2211;" d="M0 0 l0 700 l500 0 l0 -700 l-500 0 ZM81 49 l339 0 l-170 255 l-169 -255 ZM49 96 l171 254 l-171 254 l0 -508 ZM450 96 l0 508 l-171 -254 l171 -254 ZM250 395 l170 255 l-339 0 l169 -255 Z" /><glyph glyph-name="minus" unicode="&#x2212;" d="M123 328 l14 51 l454 0 l-14 -51 l-454 0 Z" /><glyph glyph-name="radical" unicode="&#x221a;" d="M624 786 l-478 -1000 l-55 0 l-75 346 l-51 -22 l-8 40 l99 43 l74 -346 l445 939 l49 0 Z" /><glyph glyph-name="infinity" unicode="&#x221e;" d="M200 217 q-59 0 -95.5 39 q-36.5 39 -36.5 98 q0 59 36 100 q36 41 94 41 q16 0 31.5 -3 q15.5 -3 31.5 -11.5 q16 -8.5 27.5 -14.5 q11.5 -6 28.5 -19.5 q17 -13.5 24.5 -20 q7.5 -6.5 25.5 -23 q18 -16.5 23 -20.5 q11 9 40 36 q29 27 44.5 39 q15.5 12 44 24.5 q28.5 12.5 56.5 12.5 q59 0 97 -40.5 q38 -40.5 38 -100.5 q0 -61 -35.5 -99 q-35.5 -38 -96.5 -38 q-50 0 -93.5 28 q-43.5 28 -94.5 77 q-5 -4 -32.5 -27.5 q-27.5 -23.5 -38 -31 q-10.5 -7.5 -33.5 -22 q-23 -14.5 -43 -19.5 q-20 -5 -43 -5 ZM201 265 q61 0 155 89 q-7 6 -33 27 q-26 21 -41 32.5 q-15 11.5 -39.5 22.5 q-24.5 11 -44.5 11 q-37 0 -59.5 -27.5 q-22.5 -27.5 -22.5 -65.5 q0 -40 23 -64.5 q23 -24.5 62 -24.5 ZM580 265 q38 0 60 25.5 q22 25.5 22 63.5 q0 41 -22 67 q-22 26 -63 26 q-56 0 -154 -93 q2 -2 18.5 -16.5 q16.5 -14.5 21.5 -18.5 q5 -4 20 -15.5 q15 -11.5 23.5 -16 q8.5 -4.5 22 -11 q13.5 -6.5 26 -9 q12.5 -2.5 25.5 -2.5 Z" /><glyph glyph-name="integral" unicode="&#x222b;" d="M0 0 l0 700 l500 0 l0 -700 l-500 0 ZM81 49 l339 0 l-170 255 l-169 -255 ZM49 96 l171 254 l-171 254 l0 -508 ZM450 96 l0 508 l-171 -254 l171 -254 ZM250 395 l170 255 l-339 0 l169 -255 Z" /><glyph glyph-name="approxequal" unicode="&#x2248;" d="M642 500 q-20 -55 -59.5 -92 q-39.5 -37 -92.5 -37 q-46 0 -136.5 37 q-90.5 37 -126.5 37 q-34 0 -63 -24 q-29 -24 -43 -59 l-38 0 q57 131 154 131 q45 0 135.5 -37 q90.5 -37 128.5 -37 q35 0 62 22.5 q27 22.5 42 58.5 l37 0 ZM599 339 q-20 -54 -60 -91.5 q-40 -37.5 -92 -37.5 q-47 0 -136.5 37 q-89.5 37 -126.5 37 q-34 0 -63 -24 q-29 -24 -43 -59 l-38 0 q57 131 153 131 q46 0 136.5 -37 q90.5 -37 128.5 -37 q35 0 62 22.5 q27 22.5 42 58.5 l37 0 Z" /><glyph glyph-name="notequal" unicode="&#x2260;" d="M141 439 l14 51 l269 0 l100 124 l36 -22 l-82 -102 l131 0 l-14 -51 l-158 0 l-139 -174 l251 0 l-14 -51 l-279 0 l-94 -117 l-35 23 l75 94 l-121 0 l14 51 l149 0 l139 174 l-242 0 Z" /><glyph glyph-name="lessequal" unicode="&#x2264;" d="M502 97 l-445 193 l15 54 l548 193 l-14 -57 l-476 -166 l387 -166 l-15 -51 ZM478 5 l-497 0 l13 48 l497 0 l-13 -48 Z" /><glyph glyph-name="greaterequal" unicode="&#x2265;" d="M567 290 l-549 -193 l15 58 l474 166 l-385 166 l14 50 l446 -193 l-15 -54 ZM491 5 l-497 0 l13 48 l497 0 l-13 -48 Z" /><glyph glyph-name="lozenge" unicode="&#x25ca;" d="M554 356 l-169 -391 l-53 0 l-167 391 l167 391 l53 0 l169 -391 ZM501 356 l-142 335 l-140 -335 l140 -335 l142 335 Z" /><glyph glyph-name="cyrBreve" unicode="&#xf6d1;" d="M442 626.5 q-42 -31.5 -94 -31.5 q-52 0 -84 31.5 q-32 31.5 -34 81.5 l42 9 q5 -36 22.5 -54.5 q17.5 -18.5 54.5 -18.5 q39 0 68 19.5 q29 19.5 43 53.5 l40 -9 q-16 -50 -58 -81.5 Z" /><glyph glyph-name="cyrbreve" unicode="&#xf6d4;" d="M442 626.5 q-42 -31.5 -94 -31.5 q-52 0 -84 31.5 q-32 31.5 -34 81.5 l42 9 q5 -36 22.5 -54.5 q17.5 -18.5 54.5 -18.5 q39 0 68 19.5 q29 19.5 43 53.5 l40 -9 q-16 -50 -58 -81.5 Z" /><glyph glyph-name="apple" unicode="&#xf8ff;" d="M0 0 l0 700 l500 0 l0 -700 l-500 0 ZM81 49 l339 0 l-170 255 l-169 -255 ZM49 96 l171 254 l-171 254 l0 -508 ZM450 96 l0 508 l-171 -254 l171 -254 ZM250 395 l170 255 l-339 0 l169 -255 Z" /><glyph glyph-name="ff" unicode="&#xfb00;" d="M55 0 l125 465 l-74 0 l12 45 l74 0 l20 74 q39 146 163 146 q57 0 102 -24 l-12 -44 q-51 24 -92 24 q-86 0 -115 -113 l-17 -63 l184 0 l-12 -45 l-184 0 l-125 -465 l-49 0 ZM417 0 l125 465 l-74 0 l12 45 l74 0 l20 74 q39 146 163 146 q57 0 102 -24 l-12 -44 q-51 24 -92 24 q-85 0 -115 -113 l-17 -63 l184 0 l-12 -45 l-184 0 l-125 -465 l-49 0 Z" /><glyph glyph-name="fi" unicode="&#xfb01;" d="M55 0 l125 465 l-74 0 l12 45 l74 0 l20 74 q39 146 163 146 q57 0 102 -24 l-12 -44 q-51 24 -92 24 q-86 0 -115 -113 l-17 -63 l184 0 l-12 -45 l-184 0 l-125 -465 l-49 0 ZM394 0 l137 510 l49 0 l-137 -510 l-49 0 ZM561 643 l18 67 l61 0 l-18 -67 l-61 0 Z" /><glyph glyph-name="fl" unicode="&#xfb02;" d="M55 0 l125 465 l-74 0 l12 45 l74 0 l20 74 q39 146 163 146 q57 0 102 -24 l-12 -44 q-51 24 -92 24 q-86 0 -115 -113 l-17 -63 l184 0 l-12 -45 l-184 0 l-125 -465 l-49 0 ZM394 0 l196 730 l49 0 l-196 -730 l-49 0 Z" /><glyph glyph-name="ffi" unicode="&#xfb03;" d="M55 0 l125 465 l-74 0 l12 45 l74 0 l20 74 q39 146 163 146 q57 0 102 -24 l-12 -44 q-51 24 -92 24 q-86 0 -115 -113 l-17 -63 l184 0 l-12 -45 l-184 0 l-125 -465 l-49 0 ZM417 0 l125 465 l-74 0 l12 45 l74 0 l20 74 q39 146 163 146 q57 0 102 -24 l-12 -44 q-51 24 -92 24 q-85 0 -115 -113 l-17 -63 l184 0 l-12 -45 l-184 0 l-125 -465 l-49 0 ZM756 0 l137 510 l49 0 l-137 -510 l-49 0 ZM923 643 l18 67 l61 0 l-18 -67 l-61 0 Z" /><glyph glyph-name="ffl" unicode="&#xfb04;" d="M55 0 l125 465 l-74 0 l12 45 l74 0 l20 74 q39 146 163 146 q57 0 102 -24 l-12 -44 q-51 24 -92 24 q-86 0 -115 -113 l-17 -63 l184 0 l-12 -45 l-184 0 l-125 -465 l-49 0 ZM417 0 l125 465 l-74 0 l12 45 l74 0 l20 74 q39 146 163 146 q57 0 102 -24 l-12 -44 q-51 24 -92 24 q-85 0 -115 -113 l-17 -63 l184 0 l-12 -45 l-184 0 l-125 -465 l-49 0 ZM756 0 l196 730 l49 0 l-196 -730 l-49 0 Z" /></font>
</defs>
</svg>
