<svg aria-hidden="true" style="position:absolute;width:0;height:0" xmlns="http://www.w3.org/2000/svg" overflow="hidden"><defs><symbol id="icon-copy" viewBox="0 0 32 32"><path d="M27 7h-1V4a1 1 0 00-1-1H6a1 1 0 00-1 1v21a1 1 0 001 1h3v2a1 1 0 001 1h17a1 1 0 001-1V8a1 1 0 00-1-1zM7 24V5h17v2H10a1 1 0 00-1 1v16zm16 0h-9a1 1 0 010-2h9a1 1 0 010 2zm0-5h-9a1 1 0 010-2h9a1 1 0 010 2zm0-5h-9a1 1 0 010-2h9a1 1 0 010 2z" fill="#fff"/></symbol><symbol id="icon-clear" viewBox="0 0 48 48"><path d="M39.76 6.75h-9.57a6.22 6.22 0 00-12.38 0H8.24a1.85 1.85 0 000 3.7h31.52a1.85 1.85 0 000-3.7zM24 3.59a3.78 3.78 0 013.72 3.16h-7.44A3.78 3.78 0 0124 3.59zm13.58 9.07H10.42a1.54 1.54 0 00-1.54 1.66l2.42 31.13a1.54 1.54 0 001.53 1.43h22.34a1.54 1.54 0 001.53-1.43l2.42-31.13a1.54 1.54 0 00-1.54-1.66zM18.25 42.8h-.08a1.11 1.11 0 01-1.11-1l-1.74-23.89a1.09 1.09 0 011-1.18 1.11 1.11 0 011.19 1l1.75 23.87a1.11 1.11 0 01-1.01 1.2zm7.12-1.09a1.11 1.11 0 11-2.22 0V17.82a1.11 1.11 0 012.22 0zm6.1.07a1.11 1.11 0 01-1.1 1h-.09a1.09 1.09 0 01-1-1.18L31 17.75a1.11 1.11 0 012.21.16z" fill="#fff"/></symbol><symbol id="icon-check" viewBox="0 0 90 69"><path fill="#fff" d="M0 38l10-13 26 22L78 0l12 11-53 58z"/></symbol></defs></svg>