<svg xmlns="http://www.w3.org/2000/svg" viewBox="0 0 498.46 200"><defs><style>.cls-1{opacity:.2}.cls-2{fill:#1d19a6}.cls-3{fill:#1d1cb0}.cls-4{fill:#1e1c9d}.cls-5{fill:#2921ad}.cls-6{fill:#1b1669}.cls-7{fill:#1b1891}.cls-8{fill:#1b1eb4}.cls-9{fill:#2a2dbe}.cls-10{fill:#1315a6}.cls-11{fill:#3434b6}.cls-12{fill:#2423b0}.cls-13{fill:#2b31c8}.cls-14{fill:#2229bf}.cls-15{fill:#2e2ab8}.cls-16{fill:#1a158e}.cls-17{fill:#0f0c51}.cls-18{fill:#17199b}.cls-19{fill:#201dab}.cls-20{fill:#342acf}.cls-21{fill:#13104b}.cls-22{fill:#0d087b}.cls-23{fill:#100242}.cls-24{fill:#1727bf}.cls-25{fill:#150d3c}.cls-26{fill:#150b3e}.cls-27{fill:#2522b4}.cls-28{fill:#0c062f}.cls-29{fill:#22219f}.cls-30{fill:#0c094e}.cls-31{fill:#02011d}.cls-32{fill:#1e091a}.cls-33{fill:#605cc6}.cls-34{fill:#0b0836}.cls-35{fill:#4d57c1}.cls-36{fill:#14135c}.cls-37{fill:#0d0b69}.cls-38{fill:#5850c6}.cls-39{fill:#08051e}.cls-40{fill:#7b7dec}.cls-41{fill:#0e0b53}.cls-42{fill:#2b26ba}.cls-43{fill:#271d99}.cls-44{fill:#1e1b99}.cls-45{fill:#2220ae}.cls-46{fill:#2621ac}.cls-47{fill:#3837bd}.cls-48{fill:#1c18a2}.cls-49{fill:#4b46c4}.cls-50{fill:#1c18a3}.cls-51{fill:#3a38ba}.cls-52{fill:#221dbd}.cls-53{fill:#615dbb}.cls-54{fill:#3031ac}.cls-55{fill:#2422b9}.cls-56{fill:#4740ba}.cls-57{fill:#2520ae}.cls-58{fill:#3c35c0}.cls-59{fill:#1e1c98}.cls-60{fill:#2828a5}.cls-61{fill:#5c55ba}.cls-62{fill:#574fc0}.cls-63{fill:#2b2dbb}.cls-64{fill:#3532ba}.cls-65{fill:#201ca0}.cls-66{fill:#121173}.cls-67{fill:#8587d2}.cls-68{fill:#1c19ab}.cls-69{fill:#5046c7}.cls-70{fill:#2a25b6}.cls-71{fill:#171584}.cls-72{fill:#3331b6}.cls-73{fill:#1a102d}.cls-74{fill:#bfbee2}.cls-75{fill:#0f0d5d}.cls-76{fill:#4237be}.cls-77{fill:#3934ca}.cls-78{fill:#222087}.cls-79{fill:#8582c9}.cls-80{fill:#aaacd5}.cls-81{fill:#c5c7df}.cls-82{fill:#0d0c8a}.cls-83{fill:#979bda}.cls-84{fill:#7b6cd3}.cls-85{fill:#8d84c7}.cls-86{fill:#5d62a8}.cls-87{fill:#8984ce}.cls-88{fill:#3529b9}.cls-89{fill:#1f1cb7}.cls-90{fill:#6355e0}.cls-91{fill:#4b4db8}.cls-92{fill:#404bc5}.cls-93{fill:#625ecc}.cls-94{fill:#231baf}.cls-95{fill:#8a7ed8}.cls-96{fill:#271ead}.cls-97{fill:#4845cb}.cls-98{fill:#96a3e8}.cls-99{fill:#9693e3}.cls-100{fill:#5656c4}.cls-101{fill:#cad0ea}.cls-102{fill:#6a4fbe}.cls-103{fill:#3f41c0}.cls-104{fill:#321639}.cls-105{fill:#010142}.cls-106{fill:#160c47}.cls-107{fill:#5a56c0}.cls-108{fill:#161135}</style></defs><title>signature</title><g id="Слой_2" data-name="Слой 2"><g class="cls-1" id="контент"><path class="cls-2" d="M176.35 133.06c2.61-.22 4.76-1.76 7.19-2.52 3.09-1 6.08-2.22 9.11-3.35 1.17-.67 2.31-1.44 3.77-1.2l6.43-2.15c1-.12.79.47.43.89-.52.63-1.37.82-2 1.26-1.36.69-3 .8-4.23 1.69-4.13 2.29-8.76 3.32-13.05 5.23-4.06 1.8-8.36 3.08-12.55 4.58a3.19 3.19 0 0 0-2.66 1c-3.5.3-6.47 2.34-9.76 3.34a77.26 77.26 0 0 0-9 3.83 27.94 27.94 0 0 1-6.24 1.7c-.57.11-.59 1.79-1.53.53-1.11-.27-2.23-.57-2.62 1-.41 1.43-2.45 1.63-2.81 1.6-2.3-.15-3.65 1.87-5.74 2.11-1.39.16-2.71 1-4.06 1.59-1.29-1.32.59-2.18.48-3.32 1.66-1.22 4-.9 5.53-2.46a13.28 13.28 0 0 1 4.51-1.63c7.77-2.75 15.55-5.48 23.31-8.26 3.24-1.16 6.44-2.41 9.66-3.62a10.12 10.12 0 0 1 5.83-1.84z"/><path class="cls-3" d="M79.37 150.05c-1.58 4.88-8.73 10.6-13.42 10.72-.24.38-.52.39-.82.07 0-.42-.22-.81.42-1.05 2.75-1.05 5-3 7.51-4.46 2-1.14 3-3.05 4-4.94.28-.51.49-1.06-.15-1.37-1.67-.81-3.17-2.56-5.3-1.3-.81.47-1.57 1-2.46.55-.2-.1.29-.8.07-1.54-.32-1.1 1.49.1 2.06-.81-.51-.24-1.08-.76-1.56-.69a55 55 0 0 0-12.48 3.22 95.15 95.15 0 0 0-11.78 6.27c-8 4.68-15.68 9.75-23.24 15.1-6.22 4.41-11.69 9.65-17.61 14.38a2.38 2.38 0 0 1-1.26.58c1.1-2.48 3.11-4.28 5.06-6 11-9.59 23.12-17.63 35.61-25.08 6.86-4.1 14-7.94 22-9.39 2.16-.39 4.31-1 6.58-.69a6.32 6.32 0 0 0 4.75-1.62c.85-.68 1.59-.51 2.34-.79.38.45.16 1 .26 1.49a4.23 4.23 0 0 1-1 1.8 1.18 1.18 0 0 1-.65.31c-.27 0-.53-.13-.79-.14-1 0 .07.23 0 .33 2.14 1.11 2.29 3 1.86 5.05z"/><path class="cls-4" d="M127.44 150.92c.73 1.24-1 2.12-.48 3.32-5.52 1.84-10.9 4-16.4 5.94-4.81 1.65-9.6 3.62-14.35 5.54a28.69 28.69 0 0 1-6.48 2.28 7.58 7.58 0 0 1-1.88.3c-.89-.22-.67-.9-.61-1.51 3.93-1.81 8-3.36 12-5s7.89-3 11.77-4.62a108.06 108.06 0 0 1 12.14-4.58 2.33 2.33 0 0 0 3.18-1.16c.21-.43.67-.38 1.11-.51z"/><path class="cls-5" d="M196.57 48.53l2-.92a1.15 1.15 0 0 1 .35.69c-.38 1.72-1.87 2.38-3.17 3.11a176.11 176.11 0 0 0-25 16.64c-4.62 3.74-9.27 7.49-13.57 11.64-.89.86-1.69 2-3.19 1.73a.94.94 0 0 1-.57-.53c-.12-2.23 1.87-3 3.1-4.12a227.3 227.3 0 0 1 25.21-19.73c4.81-3.1 9.9-5.68 14.84-8.51z"/><path class="cls-6" d="M18.29 193.53c7.16-3.84 15.07-5.89 22.42-9.27.87-.4 1.75-.78 2.62-1.17a1.43 1.43 0 0 1 1 1.73q-.19.39-.36.79l-2.7 1.19a11 11 0 0 0-6.55 3c-3.83 2.34-8.25 3.16-12.37 4.79-1.64.64-3.4 1-4.82 2.12a1.2 1.2 0 0 1-1.69.11c-.81-.76-.24-1.12.4-1.52s1.88-.6 2.05-1.77z"/><path class="cls-7" d="M43.93 184.74l-.6-1.65 15.18-9.74a2.1 2.1 0 0 1 1.95-.33c.94.87.06 1.3-.5 1.59-2.31 1.2-4.14 3.12-6.12 4A32.45 32.45 0 0 1 64 175l2.61-.69c.68-.12 1.44-.45 1.84.44.27.6-.2 1-.61 1.31-1.08.93-2.47.9-3.75 1.22a6.44 6.44 0 0 0-3.47 1.54l-8.56 3.26a11.93 11.93 0 0 0-4.89 1.84 5 5 0 0 1-3.24.82z"/><path class="cls-8" d="M153.47 80.9l.69.21c.34 1.51-.69 2.4-1.62 3.19a178.62 178.62 0 0 0-17.09 17.32 4.8 4.8 0 0 1-2.88 1.89 1 1 0 0 1-.81-.79c.84-2.1 2.55-3.6 4-5.15 5.33-5.61 10.87-11 16.33-16.48.45-.42.85-.7 1.38-.19z"/><path class="cls-9" d="M86.25 137.47c2.43-2 5.4-3.13 8.09-4.71 1 .41 1.39-.31 1.74-1 1.71-.93 3.28-2.17 5.27-2.52a1.13 1.13 0 0 1 .82.77c-.27 1.87-2.11 2-3.25 2.85-.91.72-2.17.85-3.23 2.06a3.72 3.72 0 0 1 3.76-1.1A2.1 2.1 0 0 1 101 135c-3.47 2.35-7.45 3-11.48 3.53-1.05-.4-2.39-.03-3.27-1.06z"/><path class="cls-10" d="M131.76 102.72l.67.68c.32 1.6-.87 2.44-1.78 3.37a141.38 141.38 0 0 0-10 10.81 6.22 6.22 0 0 0-2.48 3.85 1.66 1.66 0 0 1-1.17.19c-.71-.27-1.24-.67-1.15-1.53a100.56 100.56 0 0 1 9.92-11.33c2.01-2.05 3.28-4.76 5.99-6.04z"/><path class="cls-11" d="M18.29 193.53c.31.59.81 1-.28 1.59-.75.39-2.2.22-2.18 1.7-.75.31-2.09-.7-2.22 1-1.53 1-2.87 2.35-4.94 2.2-1.27-.09-2.08-.42-1.11-1.71 1.3-1.72.1-1.83-1.09-1.75a6 6 0 0 1-4.57-1.46c5.88.9 11.29 1.03 16.39-1.57z"/><path class="cls-12" d="M218.69 118.54a25.51 25.51 0 0 0 6.55-2.84c1.51-1.53 3.65-1.35 5.48-2 2 .13 3.49-1.33 5.36-1.54.49.37.84.79.52 1.46-1.1 1.4-2.9 1.51-4.32 2.34-1.48 0-2.63 1.35-4.19 1.06-1.33.28-2.8.14-3.85 1.27l-5.53 1.9a1.14 1.14 0 0 1-.02-1.65z"/><path class="cls-13" d="M102.15 130l-.8-.83c2.34-2.43 5.52-3.55 8.33-5.22 1.65-1 3.36-1.89 5-2.89.56 1.5-.6 2.37-1.35 3.26-1.84 2.18-3.06 5.08-6.26 5.8-.92-1.39.21-2 .88-2.67-1.8.83-3.22 3.01-5.8 2.55z"/><path class="cls-14" d="M60.78 173.33h-2.27c4.18-2.83 7.72-6.48 12-9.21a18.86 18.86 0 0 0 3.14-2.8 1.79 1.79 0 0 1 1.82-.73c.39.49 0 .95 0 1.42l-14.25 11.14q-.01.59-.44.18z"/><path class="cls-15" d="M45.38 163.09c-1.46 1.08-.52 1.48.53 1.77 3.12.87 6.13 0 9.16-.65.45-.09.94-.83 1.35 0s-.31 1-.86 1.32c-3.34 1.79-6.92 1.72-10.46 1.1-2.86-.5-2.06-2.72-1.69-4.61 1.07-.38 1.48.41 1.97 1.07z"/><path class="cls-16" d="M87.24 166.79c.71.3.17.73.11 1.1-1 1.23-2.67 1.28-3.72 2.37-2.25.12-3.79 2.06-6 2.34-.6-.38-1.17.12-1.75.07-.85-.07-1.61-.29-1.09-1.43z"/><path class="cls-17" d="M74.82 171.25c.19 2 2.3.05 2.83 1.36l-9.78 3.45c.8-1.44-.09-1.68-1.23-1.75z"/><path class="cls-18" d="M86.25 137.47c1.1.2 2.32-.33 3.32.52a17.26 17.26 0 0 1-9.75 4.6c-.73-.4-.14-.91-.12-1.38 1.56-2.32 4.35-2.51 6.55-3.74z"/><path class="cls-19" d="M89 150.4c-1.12 0-1.45 1-2.11 1.6a1.19 1.19 0 0 1-1.41-.37c.32-.78 1.23-1.66-.74-1.56a8.06 8.06 0 0 1-4.45-.59c-1.13-.7-.75-1.34.07-2 2.34-.31 4.57.4 6.85.69.7 0-1.06 1.1.39.92a1.2 1.2 0 0 1 1.4 1.31z"/><path class="cls-20" d="M200.79 125.6c.35-1 2.32-.08 2.06-1.76l2.25-.85a12.85 12.85 0 0 1 2.75-1.18c1.19-.34 2.63.61 3.61-.73 1.37.93-.33 1.25-.37 1.89l-8 2.62a2.1 2.1 0 0 1-2.3.01z"/><path class="cls-21" d="M106.86 130c3.45-2.25 5.78-5.49 7.84-9 .33-.43.46-1.09 1.21-1l1.45 1.18a.85.85 0 0 1-.16.76c-3.07 2.49-5.27 5.8-8.13 8.48a2.76 2.76 0 0 1-1.38.78 1 1 0 0 1-1-.51 1 1 0 0 1 .17-.69z"/><path class="cls-22" d="M211.09 123c-.74-.8 1.1-1.1.37-1.89a21.35 21.35 0 0 1 7.23-2.54v1.6z"/><path class="cls-23" d="M75.4 162c-.51-.49.17-.94 0-1.42a13.19 13.19 0 0 1 5.64-4.78.64.64 0 0 1 .85.18z"/><path class="cls-24" d="M1.66 191.83c-.76 1.44.83 1.69 1.41 2.8-1.66-.44-3.34-.71-3-2.72.24-1.62-.34-4.06 2.57-4.12.6 1.57-.64 2.7-.98 4.04z"/><path class="cls-25" d="M80.24 147.93c-.4.54-.12 1 .1 1.54l-1 .59c-.19-.3-.6-.65-.55-.89.69-3-1.58-3.54-3.76-4.38 1.24-1 2.33-1.2 3.5-.12a1.38 1.38 0 0 1 1.15.8 3.5 3.5 0 0 1 .56 2.46z"/><path class="cls-26" d="M81.93 156l-.85-.18c.72-2.21 2.75-3 4.44-4.21l1.41.37a.55.55 0 0 0-.12.24c-.81.85-1.27 2.13-2.7 2.25z"/><path class="cls-27" d="M48.83 157.64c2.1-2.11 4.82-3.1 7.56-4.06-2.26 1.83-4.57 3.55-7.56 4.06z"/><path class="cls-28" d="M43.93 184.74c2.19-.34 3.91-1.81 5.91-2.61.9-.36 1.52 0 2.25 0a53.55 53.55 0 0 1-8.15 3.53z"/><path class="cls-29" d="M45.38 163.09c-.87 0-1.25-.84-2-1.11 1-2.15 1.42-2.4 3.73-2-.91.91-1.79 1.77-1.73 3.11z"/><path class="cls-30" d="M83.63 170.26a4.46 4.46 0 0 1 3.72-2.37l2.38.11a24 24 0 0 1-6.1 2.26z"/><path class="cls-31" d="M34.71 189.79a6.69 6.69 0 0 1 6.54-3z"/><path class="cls-32" d="M1.66 191.83c-.45-1.53.5-2.72.95-4 1.11.23 1.25.28 1 .9-.42 1.13-.38 2.64-1.95 3.1z"/><path class="cls-33" d="M63.46 150.36a6.58 6.58 0 0 1-5.46 2.37 13.9 13.9 0 0 1 5.46-2.37z"/><path class="cls-34" d="M200.79 125.6H203c-1.79 1.31-4 1.53-6 2.09.85-1.48 2.79-.93 3.79-2.09z"/><path class="cls-35" d="M65.13 160.84l.82-.07c.7 2-1.09 1.71-2 2.15-.12.06-.56-.21-.56-.34a1.44 1.44 0 0 1 .23-1c.38-.4 1.18-.09 1.51-.74z"/><path class="cls-36" d="M139.57 148.94c.07-2.39 1.25-2 2.62-1-.67.83-1.98.06-2.62 1z"/><path class="cls-37" d="M224.24 118.24c.89-1.61 2.33-1.55 3.85-1.27a9 9 0 0 1-3.85 1.27z"/><path class="cls-38" d="M168.76 138.53c.36-1.7 1.33-1.84 2.66-1a3.76 3.76 0 0 1-2.66 1z"/><path class="cls-39" d="M60.66 178.82c.85-1.21 1.79-2.22 3.47-1.54a9.61 9.61 0 0 1-3.47 1.54z"/><path class="cls-40" d="M96.08 131.72c1.35.94-.12 1.16-.47 1.49-.53.52-1.26.86-1.28-.45z"/><path class="cls-41" d="M13.58 197.79l-1.2-.9c1.28-.29 2.37-.82 3.42-.1z"/><path class="cls-42" d="M196.9 94.41c2.2-1.09 5.08-.29 7-2.46-.9-.33-1.83.43-2.54-.19 3.84-2.51 8.45-3.25 12.5-5.33a8.57 8.57 0 0 0 4.9-1.63c2.11-1.82 4.89-1.58 7.34-2.22 3.18-.84 6-3.15 9.48-2.7 4.49-1.23 9-2.45 13.45-3.72a8.84 8.84 0 0 0 1.77-1 16.72 16.72 0 0 1 5.9-1.87 15 15 0 0 0 4.93-2.54 13 13 0 0 1 4.94-2.6 40 40 0 0 0 10.94-10c4-5 7-10.67 10.21-16.14 1.73.89 1.78 2.25 1 3.81-1.16-.61-1.7.28-2.11 1a117.16 117.16 0 0 1-8.55 13.12c-.65 1.19-1 2.68-2.54 3.11a58 58 0 0 1-17.74 12 2.77 2.77 0 0 1-2.23 1c-2.85.49-5.36 2-8.1 2.8a7 7 0 0 1-5.45 1.33 14.44 14.44 0 0 0-5 1.49c-3.28 1.72-7 2-10.44 3.11-3.78.38-7.2 1.95-10.67 3.32-2.91 2.06-6.49 2.44-9.25 3.8 3.27-1 6.93-2.13 10.84-1.37.78.64 1.51.25 2.24-.12a1.23 1.23 0 0 1 0 1.69c-5.74 1.58-11.64 2.4-17.48 3.53-1.64.32-3.26 1.27-5 .44a1.21 1.21 0 0 1-.34-1.66z"/><path class="cls-43" d="M289.82 42.87c1 .44.31 1.7 1.06 2.26 3 7.07 8.12 12.37 13.89 17.18 2.11 1.75 4.3 3.61 5.05 6.28a6.65 6.65 0 0 1-2.08 6.82c-2.1 2-3.88 4.37-6.55 5.71-.74-1.29-.39-2.07 1.08-2.34 2-1.7 4.17-3.2 5-6 .94-3 .6-5.32-1.74-7.45-3.64-3.3-7.58-6.32-10.84-10a39.8 39.8 0 0 1-6-9.58 8.28 8.28 0 0 0-1-3.81 26.66 26.66 0 0 1-1.11-8.4 22.78 22.78 0 0 1 5.95-14.55c2.64-1.47 4-4.26 6.22-6.15 3.68-3.11 7.27-6.32 11.66-8.44a1.37 1.37 0 0 1 .39 1.5c-.8 1.49-2.23 2.32-3.53 3.25A62.9 62.9 0 0 0 295.4 20.1a6.92 6.92 0 0 1-2 1.75c-1.86 1-2.16 2.82-2.49 4.64-.34 1.25-.33 2.61-1.19 3.69-.62 2.61-.17 5.25-.13 7.87a5.44 5.44 0 0 1 .19.74 4.36 4.36 0 0 1 .08 1.12c-.12.98-1.19 1.97-.04 2.96z"/><path class="cls-44" d="M107.42 131.13a.79.79 0 0 0 .15.38c-.31.58-.52 1.16 0 1.73-.21.64-.82.45-1.27.6a10 10 0 0 0-3.56 3.43c-.45.7 0 .91.35 1.25 3.62-.39 7.15-.5 10.69.93a3 3 0 0 1 2.12 2.64 3.07 3.07 0 0 1-1.54 3c-2.43 1.52-5.21 2.07-7.74 3.28-1.37.66-.9-2-2.43-1.17 2.9-1.32 6.05-1.72 8.3-4 .36-.37 1.46.12 1.4-.84s-.94-1.08-1.57-1.3a20.47 20.47 0 0 0-8-1c-2.39.13-5 .28-7.08 1.87-.58.21-1 .73-1.7.73a6.17 6.17 0 0 0-2.95.11c-1 .2-2 .26-2.69-.73-.45-1.55.79-1.75 1.75-2.13a28.77 28.77 0 0 1 4.15-.91 8.2 8.2 0 0 0 5.06-4.08l-1.63-.67c-.07-.86.62-1 1.19-1.18a9.65 9.65 0 0 0 5-2.86c.42-.5.92-.44 1.38 0z"/><path class="cls-45" d="M196.9 94.41a1.8 1.8 0 0 0 .77 1.41c.33.36.83.49 1.18.82 1 1.17.22 1.76-.77 2.28-4.51-2.9-8.79-.37-13.06.68a85.24 85.24 0 0 0-16.28 5.32 28.81 28.81 0 0 1-5.42 2.21c-.79-1.21-1.77.75-2.71-.36a70 70 0 0 1 11.49-5c8.12-2.96 16.49-5.09 24.8-7.36z"/><path class="cls-46" d="M157.22 126.14c1-1.36 2.57-.94 3.9-1.32a4.84 4.84 0 0 0 2.92-1.4c-8.89-.06-17.28 1.51-25.68 3.09-1.84-1.79.47-1.48 1-2.05 4.16-.71 8.33-1.38 12.48-2.14a40.8 40.8 0 0 1 15.65.23c-1.56 3.38-7.03 5.29-10.27 3.59z"/><path class="cls-47" d="M301.68 25.48c-2 1.91-3.08 4.6-5.3 6.33a1.43 1.43 0 0 1-.56-1 3.71 3.71 0 0 1 1-2.45A168.5 168.5 0 0 1 309.24 13c2.52-2.73 4.53-5.87 7.15-8.49.88-3.84 1.75-4.51 4.84-3.61-.58 4.19-3.94 6.42-6.5 9.2-2.85 3.1-6 5.92-8.22 9.57a32.26 32.26 0 0 0-4.83 5.81z"/><path class="cls-48" d="M127.55 128.36c-1.87 1.45-4.37.53-6.55 1.92 5.22 1.05 10.16-.85 15.13-.38.41-.26 1-.38 1.11.12.24.79-.66.61-1 .9-2.85.62-5.58 1.56-8.64 1.3a55.59 55.59 0 0 0-8.57.42 10.86 10.86 0 0 1-4.5-.62c-1.19-.65-1.27-1.46-.36-2.42a5 5 0 0 1 3.61-.74l9.52-1.76c.33-.15.65-.14.78.24s-.26.73-.53 1.02z"/><path class="cls-49" d="M373.42 74c-11.33 3.12-22.65 6.28-34 9.31-1 .27-2.2 1.72-3.35.11a.41.41 0 0 1-.21-.39q0-.23.1-.23c12.04-3.67 24.23-6.8 36.45-9.88 1.17-.42 1.42.01 1.01 1.08z"/><path class="cls-50" d="M184.57 111.48a3 3 0 0 1-2.21 1.13 1.47 1.47 0 0 0-2.17.39l-14.14 1.64c-.68-.53-.21-1.58-.95-2.08-.19-.11-.38-.21-.58-.31-.49-.25-1.09-.31-1.37-.89a48.31 48.31 0 0 1 11-2.49 1 1 0 0 1 .22 1.12c-.92 1.83-2.82 1.28-4.91 1.8 5-.68 9.32-1.36 13.71-1.7a1.74 1.74 0 0 1 1.4 1.39z"/><path class="cls-50" d="M139.46 118a78.36 78.36 0 0 1 10.07-2.84c1.55-.28 3-1 4.55-1.28 1.2-.19-.3-1 .07-1.39 1.22-1.42 2.45-2.83 3.74-4.19.11-.11.65.19 1 .3-1.55.49.09 1.62-.46 2.31.12.4-.64 1.39.72 1a2.15 2.15 0 0 1 1.57 0c.82 1.25 1.66 2.21 2.91.39a.87.87 0 0 1 1.37-.3c-.1.94 1.46 1.53.55 2.64-2.58 0-5.15 0-7.73-.16-2.26-.12-4.59 1.24-6.9 1.89-3.43 1-7.1 1-10.35 2.68-.56.44-1 .25-1.29-.31a.82.82 0 0 1 .18-.74z"/><path class="cls-51" d="M301 94.54a26.56 26.56 0 0 0-9.56 2.8 27.88 27.88 0 0 1-7 2.28c-1.68-.53-2.89.84-4.39 1.06-1.31-.56-1.24-1.17-.05-1.81 2.25-.06 3.91-1.68 6.07-2.17 5.12-1.16 10.13-2.8 15.18-4.24a1 1 0 0 1 1.16-.1 1.45 1.45 0 0 1 .29 1.19c-.26.9-1.03.86-1.7.99z"/><path class="cls-52" d="M174.18 109.73v-.85a45.69 45.69 0 0 1 14.55-2.82c3.15-.19 6.11-1.72 9.31-1.08.76.35 1.93.45 1.46 1.72-.64 1.72-2.05.81-3.2.79a47.58 47.58 0 0 0-9.65 1 18.89 18.89 0 0 1-3.21.41c-1.57 0-3.17-.21-4.53.88-1.6.61-3.18 1.3-4.73-.05z"/><path class="cls-53" d="M435.86 57.73c.42-.44.69-1 1.48-1 4.86-.2 9.49-1.81 14.28-2.51 4.2-.62 8.32-1.81 12.48-2.75a7.52 7.52 0 0 1 3.19-.28c.57-.23 1.16-.51 1.1.54l-21.25 4.57c-3.58.77-7.27 1-10.78 2.13-.37.12-.54-.36-.47-.76z"/><path class="cls-54" d="M247.41 108.75c.79-1.72 3.17-.66 4-2.28 2.73 2 4.89-1.36 7.36-.81 1.32.29 1.39-.87 2.09-1.09 1.33-.41 2.71-1.61 4.14-.16-.26 1.85-2 1.54-3.11 1.92-4.27 1.5-8.63 2.72-13 4a1.66 1.66 0 0 1-.54 0c-1.15.04-1.07-.76-.94-1.58z"/><path class="cls-55" d="M138.76 129.32c3.41-1.2 7.07-.73 10.54-1.59 2.49-.61 5-1.08 7.54-1.61.85.88.43 2.2-.33 2.07-2.64-.45-4.44 1.72-7 1.74-3.38 0-6.76.64-10.14 1a2 2 0 0 1-.61-1.61z"/><path class="cls-56" d="M417.9 62.52l-24.54 6.26c-.52.13-1.06.24-1.59.33s-.94.29-1-.38.38-.67.85-.8c8-2.12 15.82-4.57 24-6 .76.07 1.8-.85 2.28.59z"/><path class="cls-57" d="M139.46 118l-.09.73c-.3 1.48-1.48 1.44-2.59 1.51-5.63 1.17-10.86 3.55-16.3 5.3.7-.5-1.64-1.08.15-1.72a151.09 151.09 0 0 1 18.83-5.82z"/><path class="cls-58" d="M323.6 87.77l-7.75 2.46a6 6 0 0 1-4.85 1.32 1.15 1.15 0 0 0-1.13.45 4.85 4.85 0 0 1-2.65.95c-.93-.21-2-.27-2.35-1.4a.46.46 0 0 1 .64-.31c2.31-.21 4.32-1.39 6.51-2 .88-.41 1.62-1.31 2.76-.75a1 1 0 0 0 1.07-.37c1.26-.44 2.38-1.43 3.86-.95 1.29 0 2.4-1 3.74-.69a1.05 1.05 0 0 1 .15 1.29z"/><path class="cls-59" d="M198.64 96.91l13-.49a.92.92 0 0 1 .1 1.36c-4.46 1.44-9.07 1.12-13.65 1.14.23-.66 1.29-1.09.55-2.01z"/><path class="cls-60" d="M280 98.87a1 1 0 0 0 .05 1.81 7.31 7.31 0 0 0-3.24 1.07c-2 .63-3.79 1.8-6 1.78-1.87-.21-3.36 2-5.37.86.27-1.58 1.58-1.85 2.8-2.08a5.25 5.25 0 0 0 3.11-1.22c.6 0 1.26.22 1.7-.43a.75.75 0 0 1 1-.16c2.1-.19 3.71-1.99 5.95-1.63z"/><path class="cls-61" d="M417.9 62.52c-.65-.75-1.58-.3-2.34-.56 5.42-1.79 11.05-2.65 16.61-3.83 1.19-.25 2.35-1.3 3.69-.41v-.05c-.46.37-.62 1-1.39 1.12-5.47 1.21-11.04 2.48-16.57 3.73z"/><path class="cls-62" d="M373.42 74a1 1 0 0 0-1-1.07c5.94-1.48 11.76-3.5 17.92-4.11-5.43 2.48-11.22 3.66-16.92 5.18z"/><path class="cls-63" d="M114.62 129.84c-1.16.67-.5 1.43-.11 2.18-2.51-.74-4.54 1.22-6.92 1.21-1.68-.56-.6-1.15 0-1.73 1.68-.62 4 .32 4.67-2.66.48-2 4-2.91 5.88-2.07-.24.67-1.28.17-1.44 1-.33 1.05-1.57 1.23-2.08 2.07z"/><path class="cls-64" d="M241 109.85c1.11.1 2.22.63 3.31-.07.84.06.83.53.54 1.13-1.38 1-2.69 2.49-4.54 2-1.45-.37-2.24 1.9-3.69.64l-.53-1.46c1.33-1.36 3.16-1.68 4.91-2.24z"/><path class="cls-65" d="M127.55 128.36c.07-.45.5-1-.27-1.25a65.92 65.92 0 0 1 12.11-2.65c.11.91-2.1.65-1 2z"/><path class="cls-66" d="M95.37 142.36l1.85-.46-6.13 6.46c.12.59 1.51.78.52 1.7l-2.61.34a2.46 2.46 0 0 0-1.71-1c-1.54-.26.13-.62 0-1a57.7 57.7 0 0 0 5.3-4.88c.8-.69 1.49-1.63 2.78-1.16z"/><path class="cls-67" d="M468.38 51.71a1.16 1.16 0 0 0-1.1-.54c4-1.81 8.3-2 12.53-2.68a2.84 2.84 0 0 1 .81 0c.83.11 2-1.39 2.34 0 .26 1-1.41.78-2.15.94-4.13.8-8.28 1.51-12.43 2.28z"/><path class="cls-68" d="M91.61 150.06c.84-.88-2.05-.61-.52-1.7a25.31 25.31 0 0 0 5.06-.39 9.52 9.52 0 0 1 6.49.76 51 51 0 0 1-11.03 1.33z"/><path class="cls-69" d="M323.6 87.77l-.13-1.28c3.12-1.61 6.7-1.76 9.88-3.18a.4.4 0 0 1 .62.06c.31.79-.26 1.13-.75 1.52-2.98 1.7-6.36 2.11-9.62 2.88z"/><path class="cls-70" d="M221.71 94.2c-.16-1.16 1.24-1.11 1.64-2-1.24-.49-2.49.46-3.56-.3v-1.49c1.83-.3 3.68-1.09 5.43.27 1.18 2.44.09 3.54-3.51 3.52z"/><path class="cls-71" d="M196.56 107.12c.73-.73 1.69.9 2.38-.24s-.6-1.27-.93-1.89c1-.18 2-.14 2.25 1.14a1.71 1.71 0 0 1-1.47 1.94c-2.1.41-3.78 2.34-6.15 1.69a1.8 1.8 0 0 1-.41-.63c.42-2.91 2.72-1.72 4.33-2.01z"/><path class="cls-72" d="M192.65 109.19v.55a5.59 5.59 0 0 0-4.2 1.49c-1.31 1.37-2.64-.42-3.89.24l-1.15-1a3.49 3.49 0 0 1 4.23-1.35c1.25.52.87-1.37 2-.92.98.36 2.11.32 3.01.99z"/><path class="cls-73" d="M206.72 45.8a6.48 6.48 0 0 1-5.26 1.55c-.44-.32-1-.48-1.22-1.08a7.79 7.79 0 0 1 3.61-1.82c1.68-.56 2.2.3 2.87 1.35z"/><path class="cls-74" d="M484.23 49c2.19-2.63 5.4-2.29 8.18-3.15.55-.17 1.36-.19 1.41.74 0 .51-.4.8-.89.81a30.38 30.38 0 0 0-8.7 1.6z"/><path class="cls-75" d="M221.71 94.2c1.18-1.16 4.77.07 3.51-3.52 1.82.94 1.77 1.92.11 3a15.15 15.15 0 0 1-7.74 2.53c1.05-1.34 2.63-1.58 4.12-2.01z"/><path class="cls-76" d="M211.73 97.78l-.1-1.36c1.72-1.28 4-.38 5.8-1.89-.06.91-1 1-.79 1.74-1.19 1.96-3.3.9-4.91 1.51z"/><path class="cls-77" d="M165 112c-1.55-.44-.5 1.81-2.22 1.94-2 .15-2.48-.11-2.13-2 0-1.42 1.26-.6 1.85-1l.69.36c.6.22 1.34.04 1.81.7z"/><path class="cls-78" d="M244.82 110.91a1.15 1.15 0 0 0-.54-1.13c.9-.78 2.09-.67 3.12-1 .6.36 0 1.47 1 1.6a3.56 3.56 0 0 1-3.58.53z"/><path class="cls-79" d="M297 82.75c1.49-.34 2.17-2.68 4.2-1.69l-5.3 4c-.05-1.49.9-1.66 1.1-2.31z"/><path class="cls-2" d="M126.32 151.46c.38 1.31-.41 1.72-1.46 2.08s-1.59.22-1.72-.91c.72-1.31 2.16-.63 3.18-1.17z"/><path class="cls-80" d="M202.94 55.67c-.06-2.13 1.76-3.08 2.84-4.49-.37 1.82-.61 3.82-2.84 4.49z"/><path class="cls-81" d="M498.46 45.63a36.64 36.64 0 0 1-3.87 1.18c.94-1.4 2.09-2.19 3.87-1.18z"/><path class="cls-82" d="M138.76 129.32a1.43 1.43 0 0 1 .65 1.61c-1.06 0-2.13.42-3.19 0 0-.34 1.64-.85-.1-1 .7-1.07 1.77-.4 2.64-.61z"/><path class="cls-83" d="M258.34 102.75c.43.48 1.43-.1 1.55.64s-.88 1.15-1.28 1c-1.25-.57-1.83 1.75-3.08.59.61-1.2 2.47-.79 2.81-2.23z"/><path class="cls-84" d="M194.28 67l-2.52 2.12a4.67 4.67 0 0 1 2.58-3.8z"/><path class="cls-85" d="M270.3 99.6c-1.31-.45-2.19.56-3.24 1-.13-1.69 1.57-2 2.42-2.51 1.03-.61.71.85.82 1.51z"/><path class="cls-86" d="M200.24 46.27c.63.11 1.12.37 1.22 1.08-1.16-.12-1.66 1.3-2.81 1.22v-1c.55-.34.66-1.32 1.59-1.3z"/><path class="cls-87" d="M194.8 64.86a7.54 7.54 0 0 1 2.75-3.06c.34 2.14-.93 2.85-2.75 3.06z"/><path class="cls-88" d="M333.82 83.37c.5-.31 1.32.08 1.6-.72l.54.13.12.63c-.34 1.67-1.74 1.3-2.85 1.49z"/><path class="cls-77" d="M165.52 114.65c.26-1-2-1.42-.55-2.64 2.81-.12.55 1.83 1.08 2.64h-.27z"/><path class="cls-72" d="M180.19 113c-.17-.46-.57-1.23.17-1.19s1.87-.7 2 .79a2.5 2.5 0 0 1-2.17.4z"/><path class="cls-89" d="M78.6 144.34c2.94-.91 5.87-1.84 8.81-2.73a2.13 2.13 0 0 1 2.28.24.94.94 0 0 1-.45 1.37c-3.23 1-6.35 2.5-9.87 2.15l-.81-.71a.73.73 0 0 0 .04-.32z"/><path class="cls-90" d="M121 118.94c-.88.75-1.47 1.86-2.69 2.19-1.36-2.12.79-2.61 1.7-3.67l1.56.1c1.48 1.14.06 1.09-.57 1.38z"/><path class="cls-91" d="M141 107.06a60.09 60.09 0 0 1 6.44-4.42c3.63-1.88 6.74-4.54 10.34-6.42.32-.14.64-.28 1 0a1 1 0 0 1-.2 1.24c-5.38 3.51-10.66 7.21-16.34 10.23-.39-.36-1.03-.1-1.24-.63z"/><path class="cls-92" d="M141 107.06a1.35 1.35 0 0 1 1.19.62c-3.76 2.2-7.52 4.4-11.26 6.62a7.9 7.9 0 0 1-3.26 1c-.58.26-1.17 1.51-1.72 0 4.96-2.79 9.69-6.07 15.05-8.24z"/><path class="cls-93" d="M162.25 93.24c2.47-1.55 4.38-3.88 7.06-5.14a5.39 5.39 0 0 1 .06 1.65c-1.92 1.46-4 2.8-5.73 4.43-1.33 1.23-.79-.6-1.29-.6l-.23-.13z"/><path class="cls-94" d="M125.93 115.3c.56.91 1.15 0 1.72 0-1.71 2.1-4.09 3-6.61 3.61.16-.47 1.41-.5.57-1.38z"/><path class="cls-95" d="M174.08 84.18c1.28-2 3.46-2.72 5.28-4-.75 2.4-2.6 3.61-4.67 4.61-.28-.14-.62-.19-.61-.61z"/><path class="cls-96" d="M158.72 96.21h-1a17.55 17.55 0 0 1 4.49-3l-.08.21.18.14c-.49 1.85-1.54 2.95-3.59 2.65z"/><path class="cls-97" d="M174.08 84.18l.61.61c-.77 1.27-2.18 1.82-3.18 2.83-1.1.11-.53-.68-.6-1.13z"/><path class="cls-98" d="M184.55 76.29c-.2 1.28-1.17 1.58-2.11 1.81-.39.1-.63-.36-.55-.72a2.91 2.91 0 0 1 2-1.92c.44-.18.67.43.66.83z"/><path class="cls-99" d="M170.9 86.49c.67.12 0 .94.6 1.13a5.87 5.87 0 0 1-2.13 2.14 1.74 1.74 0 0 1-.06-1.65 3.64 3.64 0 0 1 1.59-1.62z"/><path class="cls-100" d="M186.59 73.33c.06-.38 0-.67.11-.7.89-.37 1-1.69 2.07-1.75.13 0 .43.57.41.58-.78.65-1.08 1.93-2.59 1.87z"/><path class="cls-101" d="M321.23.9c-2.17 0-4.51-.18-3.72 3.25 0 .2-.38.51-.59.77-1.48 0-3 .9-4.46 0-.57-.24-1.21-.39-1.5-1 1.91-1.69 4.41-2.24 6.63-3.33 1.12-.59 2.55-1.06 3.64.31z"/><path class="cls-102" d="M311 3.87c.54.32 1.37-.1 1.74.67-.22 1.27-.75 2.11-2.23 1.64l-.05-1.72z"/><path class="cls-103" d="M296.28 30.46l.1 1.35-6 8.46a1.08 1.08 0 0 1-1.08-.55l.11-1a69.55 69.55 0 0 1 4.26-6.23c.68-.82 1.21-2 2.61-2.03z"/><path class="cls-104" d="M289.27 39.72l1.08.55-.53 2.6c-2.34-.67-.33-2.11-.55-3.15z"/><path class="cls-105" d="M289.22 29.93l.05 8.79a15.89 15.89 0 0 1-.05-8.79z"/><path class="cls-106" d="M293.38 21.36l-3 5.05c.21-2.15.36-4.33 3-5.05z"/><path class="cls-107" d="M302.28 92.26c.75-.9 2 0 2.79-.77l2.19 1a10.32 10.32 0 0 1-4.83 1.25z"/><path class="cls-108" d="M183.73 108.2c-1.58 1-3.6.36-5.2 1.34 1.35-1.94 3.4-1.13 5.2-1.34z"/></g></g></svg>