<svg xmlns="http://www.w3.org/2000/svg" viewBox="0 0 31.66 36.37"><defs><style>.cls-1{fill:#fff}</style></defs><title>favicon</title><g id="Слой_2" data-name="Слой 2"><g id="контент"><path class="cls-1" d="M15.83 36.37a.62.62 0 0 1-.31-.08l-3.72-2.15a.62.62 0 1 1 .62-1.07l3.41 2 14.6-8.43V9.4a.62.62 0 0 1 1.23 0V27a.62.62 0 0 1-.31.53l-15.21 8.76a.62.62 0 0 1-.31.08z"/><path class="cls-1" d="M6.25 30.84a.62.62 0 0 1-.32-.09L.31 27.5A.62.62 0 0 1 0 27V9.4a.62.62 0 0 1 .31-.53L15.52.08a.62.62 0 0 1 .62 0l9.36 5.4a.62.62 0 1 1-.62 1.07l-9-5.22L1.23 9.76v16.85l4.4 2.54v-16.5a.62.62 0 0 1 1.14-.32l8.43 13.86v-8a.62.62 0 1 1 1.23 0v10.2a.62.62 0 0 1-1.14.32L6.87 14.86v15.36a.62.62 0 0 1-.62.62z"/><path class="cls-1" d="M21.43 26.4a.62.62 0 0 1-.62-.62V15a.62.62 0 0 1 1.19-.37l3.78 6.06 4.69-11.52a.62.62 0 1 1 1.14.47l-5.2 12.63a.62.62 0 0 1-1.09.09L22 17.11v8.68a.62.62 0 0 1-.57.61z"/></g></g></svg>