<svg xmlns="http://www.w3.org/2000/svg" viewBox="0 0 348.4 71.7"><defs><style>.cls-1{fill:#8b7c72}</style></defs><title>Ресурс 3</title><g id="Слой_2" data-name="Слой 2"><g id="Слой_2-2" data-name="Слой 2"><path class="cls-1" d="M130.33 45c-3.37 0-5.09-2.57-5.09-6.06s1.76-6 5.09-6 5.09 2.61 5.09 6-1.72 6-5.09 6.06m0-16.56c-6.7 0-10.55 4.53-10.55 10.51s3.73 10.55 10.55 10.55 10.55-4.5 10.55-10.6-3.81-10.51-10.55-10.51M162.73 28.83h-6l-6.83 8.37v-8.37h-6.41s1 2.25 1 9.14v10.91h5.41V40l6.22 8.88h6.42L155 38.33zM35.81 66.25c-16.68 0-30.2-12.47-30.2-30.36S19.13 5.45 35.81 5.45 66 17.93 66 35.89 52.45 66.25 35.81 66.25m0-66.25C16.08 0 0 14.92 0 35.89S16.08 71.7 35.81 71.7s35.81-14.92 35.81-35.81S55.54 0 35.81 0"/><path class="cls-1" d="M49.41 22.3h-5.5a21.07 21.07 0 0 1 2 7.86c0 5.05-3.81 10.23-3.81 15.32a12.24 12.24 0 0 0 .72 4.33h5.49a12.24 12.24 0 0 1-.72-4.33c0-5.09 3.81-10.27 3.81-15.32a21.08 21.08 0 0 0-2-7.86M27.43 22.3h-5.49a21.07 21.07 0 0 1 2 7.86c0 5.05-3.81 10.23-3.81 15.32a12.21 12.21 0 0 0 .72 4.33h5.49a12.22 12.22 0 0 1-.72-4.33c0-5.09 3.81-10.27 3.81-15.32a21.07 21.07 0 0 0-2-7.86M38.42 22.3h-5.5a21.07 21.07 0 0 1 2 7.86c0 5.05-3.81 10.23-3.81 15.32a12.22 12.22 0 0 0 .72 4.33h5.49a12.22 12.22 0 0 1-.72-4.33c0-5.09 3.81-10.27 3.81-15.32a21.07 21.07 0 0 0-2-7.86M110.68 44.19h-6V22.82h-5.51v21.37h-6V22.82h-7.23c1.12 1.72 1.72 4.41 1.72 9.18v16.88h28.51V22.82h-5.49zM286.29 40.85V28.83h-5.42v20.05h5.42l8.02-12.05v12.05h5.41V28.83h-5.41l-8.02 12.02zM324.58 44.27h-2.41V28.83h-5.41v15.44h-7.62V28.83h-5.41v20.05h15.44c.25 3.42 1 4.61 1 4.61h5.41s-1.44-2.25-1-9.22M271.45 36.41h-8v-7.58H257s1 2.25 1 9.22v10.83h5.41V41h8v7.86h5.41V28.83h-5.41zM336.21 45.07c-3.09 0-5-2.41-5-6s1.81-6.26 5-6.3c3.65 0 5.45 2.45 5.45 6.06s-2.17 6.22-5.45 6.22m12.19 3.81c-1-1.73-1.24-3.69-1.24-10.27v-9.76h-5.41v1.62a8.74 8.74 0 0 0-6.13-2.06c-6.14 0-9.83 4.85-9.83 10.87 0 6.58 4.21 10.19 9.3 10.19a9.06 9.06 0 0 0 6.91-3.13 6 6 0 0 0 1 2.57zM173.24 45c-3.37 0-5.09-2.57-5.09-6.06s1.76-6 5.09-6 5.09 2.61 5.09 6-1.72 6-5.09 6.06m0-16.56c-6.7 0-10.55 4.53-10.55 10.51s3.73 10.55 10.55 10.55 10.55-4.5 10.55-10.6-3.79-10.51-10.55-10.51M188.84 41.55c0 2.21-.84 3.13-2.37 3.13a3.32 3.32 0 0 1-1.28-.24v4.49a6 6 0 0 0 2.57.52c5.17 0 6.34-4.09 6.34-7.82v-8.18h4.81v15.43h5.41V28.83h-15.44zM218.35 45.07c-3.09 0-5-2.41-5-6s1.81-6.25 5-6.3c3.65 0 5.45 2.45 5.45 6.06s-2.17 6.22-5.45 6.22m10.95-16.22h-5.41v1.62a8.74 8.74 0 0 0-6.14-2.06c-6.14 0-9.83 4.85-9.83 10.87 0 6.58 4.21 10.19 9.3 10.19a9.06 9.06 0 0 0 6.92-3.13 6 6 0 0 0 1 2.57h5.41c-1-1.73-1.24-3.69-1.24-10.27zM243.46 45c-3.09 0-5.13-2-5.13-5.73 0-3.17 1.68-5.9 5.29-5.9 3.37 0 5.13 2.57 5.13 5.61 0 3.45-1.93 6-5.29 6m-.84-23.9a13.21 13.21 0 0 0-8.22 2.57v4.61a13.17 13.17 0 0 1 7.86-2.57c4.42 0 6.55 2.29 6.68 5.34a8.68 8.68 0 0 0-6.12-2.17c-6.34 0-9.94 4.65-9.94 10.43s3.53 10.19 10.19 10.19c6.82 0 11.31-4.37 11.31-13.63v-.56c0-9.59-4.25-14.2-11.75-14.2"/></g></g></svg>