<svg xmlns="http://www.w3.org/2000/svg" viewBox="0 0 370.69 511.08"><defs><style>.cls-1{fill:#4aafaf}</style></defs><title>btc</title><g id="Слой_2" data-name="Слой 2"><path class="cls-1" d="M271.33 511.08v-68.74a157.83 157.83 0 0 0 28.8-8q33.71-13.46 52.13-39.26t18.43-56.35c0-17.12-4-32.56-12.11-46.44a85.72 85.72 0 0 0-32.79-32.41q-14.3-8.27-41.31-15.17c16.79-5.74 30.29-12.89 40.53-21.64a92.09 92.09 0 0 0 23.56-30.16 82.84 82.84 0 0 0 8.09-36.13 81.92 81.92 0 0 0-15.37-48.11Q325.85 86.69 297.22 75c-7.38-3-16.21-5.28-25.81-7.15V0h-65.08v63.23h-41.87V0H99.33v63.23H0v53.22h15.17q15.13 0 20.53 2.76a16.15 16.15 0 0 1 7.58 7.43q2.2 4.7 2.2 21.77v214.46c0 11.17-.73 18.43-2.2 21.62a15.2 15.2 0 0 1-7.58 7.43c-3.59 1.72-10.44 2.63-20.53 2.63H0v53.19h99.33V511h65.13v-63.25h37c1.67 0 3.19-.05 4.8-.05V511h65.05v.08zM140.57 125.35h42.15c24.68 0 41.72 1.52 51.27 4.55s16.86 8.14 21.92 15.3 7.58 15.8 7.58 25.91a43.18 43.18 0 0 1-8 25.79c-5.33 7.46-13.22 13-23.79 16.66s-26.87 5.54-49 5.54h-42.11v-93.75zm51.12 261h-28.06q-14 0-17.22-1.57a8.75 8.75 0 0 1-4.53-5.36c-.73-2-1.19-8.95-1.37-20.66v-83.21h49.79c21.82 0 38 2 48.69 6s18.56 10 23.87 17.92 8 17.55 8 29q0 20.14-11.28 34.46t-27.36 18.89c-10.67 3.02-24.22 4.57-40.53 4.57z" id="Capa_1" data-name="Capa 1"/></g></svg>