<svg xmlns="http://www.w3.org/2000/svg" viewBox="0 0 18.94 22"><defs><style>.cls-1{fill:#4aafaf}</style></defs><title>copyLink</title><g id="Слой_2" data-name="Слой 2"><g id="контент"><path class="cls-1" d="M16.28 22H6.83a2.67 2.67 0 0 1-2.67-2.67V6.83a2.67 2.67 0 0 1 2.67-2.66h9.44a2.67 2.67 0 0 1 2.67 2.67v12.5A2.67 2.67 0 0 1 16.28 22zM6.83 6.17a.67.67 0 0 0-.67.67v12.5a.67.67 0 0 0 .67.67h9.44a.67.67 0 0 0 .67-.67V6.83a.67.67 0 0 0-.67-.67z"/><path class="cls-1" d="M3.2 17.83h-.53A2.67 2.67 0 0 1 0 15.17V2.67A2.67 2.67 0 0 1 2.67 0h9.44a2.67 2.67 0 0 1 2.67 2.67v.49h-2v-.49a.67.67 0 0 0-.67-.67H2.67a.67.67 0 0 0-.67.67v12.5a.67.67 0 0 0 .67.67h.53z"/></g></g></svg>