<svg xmlns="http://www.w3.org/2000/svg" viewBox="0 0 52.59 60.41"><defs><style>.cls-1{fill:#4aafaf}</style></defs><title>cyan-logo</title><g id="Слой_2" data-name="Слой 2"><g id="контент"><path class="cls-1" d="M10.39 51.23a1 1 0 0 0 1-1V24.68l14 23a1 1 0 0 0 1.9-.53v-17a1 1 0 1 0-2.05 0v13.3l-14-23a1 1 0 0 0-1.9.53v27.45l-7.29-4.22v-28l24.25-14 15 8.68a1 1 0 0 0 1-1.78L26.81.14a1 1 0 0 0-1 0L.51 14.73a1 1 0 0 0-.51.89V44.8a1 1 0 0 0 .51.89l9.37 5.41a1 1 0 0 0 .51.13z"/><path class="cls-1" d="M52.59 15.52v-.08a1 1 0 0 0-.09-.28v-.05a1 1 0 0 0-.23-.2h-.72a1 1 0 0 0-.28.09h-.05a1 1 0 0 0-.21.25v.13l-8.26 18.98-6.28-10.07a1 1 0 0 0-1.9.54v18a1 1 0 0 0 2.05 0V28.42l5.45 8.72a1 1 0 0 0 1.82-.14l6.65-16.2v23.4l-24.24 14-5.67-3.27a1 1 0 1 0-1 1.78l6.18 3.57a1 1 0 0 0 1 0l25.27-14.59a1 1 0 0 0 .51-.89V15.52z"/></g></g></svg>