<svg xmlns="http://www.w3.org/2000/svg" viewBox="0 0 15 15"><defs><style>.cls-1{fill:#bbb3bf}</style></defs><title>iconSkype</title><g id="Слой_2" data-name="Слой 2"><path class="cls-1" d="M11.25 15A3.73 3.73 0 0 1 9 14.22a7.24 7.24 0 0 1-1.47.16A6.87 6.87 0 0 1 .63 7.5 7.21 7.21 0 0 1 .78 6 3.75 3.75 0 0 1 6 .78 7.24 7.24 0 0 1 7.5.63a6.87 6.87 0 0 1 6.88 6.87 7.21 7.21 0 0 1-.16 1.5 3.75 3.75 0 0 1-3 6zM8.42 6.53l-1-.23c-.74-.18-1.3-.3-1.3-.87s.55-.75 1.41-.75C9 4.68 9.07 5.8 10 5.8a1 1 0 0 0 1-1.06c0-1.12-1.87-1.86-3.71-1.86-1.69 0-3.65.73-3.65 2.71 0 1.64 1.09 2.23 2.52 2.57l1.43.35c.87.21 1.41.31 1.41.94s-.56.88-1.42.88c-1.81 0-1.9-1.5-2.95-1.5a.94.94 0 0 0-1 1c0 1.2 1.84 2.18 4 2.18 1.84 0 3.75-.92 3.75-2.9.08-1.68-1.58-2.26-2.96-2.58z" id="контент"/></g></svg>