<svg xmlns="http://www.w3.org/2000/svg" viewBox="0 0 15 15"><defs><style>.cls-1{fill:#bbb3bf}</style></defs><title>iconTelegram</title><g id="Слой_2" data-name="Слой 2"><path class="cls-1" d="M15 .63l-2.15 12.85a.54.54 0 0 1-.27.38.54.54 0 0 1-.26.07.57.57 0 0 1-.2 0l-4.41-1.8-2.49 2.69a.51.51 0 0 1-.39.18.49.49 0 0 1-.19 0 .54.54 0 0 1-.34-.5v-3.82l-4-1.62a.53.53 0 0 1-.07-1L14.2.08a.52.52 0 0 1 .57 0 .54.54 0 0 1 .23.55zm-1.24.94l-12 6.92 2.8 1.14 7.22-5.35L7.79 11l4.12 1.68z" id="контент"/></g></svg>