<svg xmlns="http://www.w3.org/2000/svg" viewBox="0 0 12.58 12.93"><defs><style>.cls-1{fill:#4aafaf}</style></defs><title>id</title><g id="Слой_2" data-name="Слой 2"><path class="cls-1" d="M0 0h1.8v1.76H0zm0 3.6h1.78v9.11H0zm8-.22a3.23 3.23 0 0 1 2.83 1.49 5.14 5.14 0 0 1 0-.61V0h1.73v12.71h-1.63v-.92a3.24 3.24 0 0 1 .05-.61 3.32 3.32 0 0 1-3 1.75c-2.45 0-4-1.94-4-4.77S5.62 3.38 8 3.38zm.23 8c1.35 0 2.63-1 2.63-3.28 0-1.64-.85-3.22-2.59-3.22-1.42 0-2.61 1.17-2.61 3.24s1.09 3.3 2.6 3.3z" id="контент"/></g></svg>