<svg xmlns="http://www.w3.org/2000/svg" viewBox="0 0 10 10"><defs><style>.cls-1{opacity:.5}.cls-2{fill:#fff}</style></defs><title>inf-icon-hover</title><g id="Слой_2" data-name="Слой 2"><g class="cls-1" id="контент"><path class="cls-2" d="M5 10a5 5 0 1 1 5-5 5 5 0 0 1-5 5zm1.67-2.92a.21.21 0 0 0-.21-.21h-.63V3.54a.21.21 0 0 0-.21-.21H3.54a.21.21 0 0 0-.21.21v1a.21.21 0 0 0 .21.21h.62v2.13h-.62a.21.21 0 0 0-.21.21v1a.21.21 0 0 0 .21.21h2.92a.21.21 0 0 0 .21-.21zm-.84-5.83A.21.21 0 0 0 5.62 1H4.38a.21.21 0 0 0-.21.21v1a.21.21 0 0 0 .21.21h1.24a.21.21 0 0 0 .21-.21z"/></g></g></svg>