<svg xmlns="http://www.w3.org/2000/svg" viewBox="0 0 15 15"><defs><style>.cls-1{fill:#4aafaf}</style></defs><title>inf-icon-hover</title><g id="Слой_2" data-name="Слой 2"><path class="cls-1" d="M7.5 15A7.5 7.5 0 1 1 15 7.5 7.5 7.5 0 0 1 7.5 15zm2.5-4.37a.31.31 0 0 0-.31-.31h-.94v-5A.31.31 0 0 0 8.44 5H5.31a.31.31 0 0 0-.31.31v1.57a.31.31 0 0 0 .31.31h.94v3.13h-.94a.31.31 0 0 0-.31.31v1.56a.31.31 0 0 0 .31.31h4.38a.31.31 0 0 0 .31-.31zM8.75 1.88a.31.31 0 0 0-.31-.31H6.56a.31.31 0 0 0-.31.31v1.56a.31.31 0 0 0 .31.31h1.88a.31.31 0 0 0 .31-.31z" id="контент"/></g></svg>