<svg xmlns="http://www.w3.org/2000/svg" viewBox="0 0 64.79 74.42"><defs><style>.cls-1{fill:#fff}</style></defs><title>logo</title><g id="Слой_2" data-name="Слой 2"><g id="контент"><path class="cls-1" d="M32.39 74.42a1.26 1.26 0 0 1-.63-.17l-7.62-4.4a1.26 1.26 0 1 1 1.26-2.19l7 4 29.86-17.21V19.24a1.26 1.26 0 1 1 2.53 0v35.94a1.26 1.26 0 0 1-.63 1.09L33 74.25a1.26 1.26 0 0 1-.61.17z"/><path class="cls-1" d="M12.79 63.1a1.26 1.26 0 0 1-.64-.18L.63 56.28a1.26 1.26 0 0 1-.63-1.1V19.24a1.26 1.26 0 0 1 .63-1.09L31.76.17a1.26 1.26 0 0 1 1.24 0l19.17 11.05a1.26 1.26 0 1 1-1.26 2.19L32.39 2.72 2.53 20v34.45l9 5.2V25.89a1.26 1.26 0 0 1 2.34-.66l17.26 28.36V37.21a1.26 1.26 0 0 1 2.53 0V58.1a1.26 1.26 0 0 1-2.34.66L14.06 30.4v31.44a1.26 1.26 0 0 1-1.26 1.26z"/><path class="cls-1" d="M43.85 54a1.26 1.26 0 0 1-1.26-1.26V30.59a1.26 1.26 0 0 1 2.33-.67l7.74 12.4 9.69-23.57a1.26 1.26 0 1 1 2.34 1L54.06 45.56a1.26 1.26 0 0 1-2.24.19L45.11 35v17.75A1.26 1.26 0 0 1 43.85 54z"/></g></g></svg>