<svg xmlns="http://www.w3.org/2000/svg" viewBox="0 0 8.01 47"><defs><style>.cls-1{fill:#1d032b}.cls-2{fill:#bbb3bf}</style></defs><title>sortArrows</title><g id="Слой_2" data-name="Слой 2"><g id="контент"><path class="cls-1" d="M7.83 21.13a.3.3 0 0 1 .07.22.37.37 0 0 1-.12.28.43.43 0 0 1-.3.11H.42a.43.43 0 0 1-.3-.11.36.36 0 0 1-.12-.28.3.3 0 0 1 .07-.22l3.36-3.85A.66.66 0 0 1 4 17a.66.66 0 0 1 .47.22l3.36 3.85z"/><path class="cls-2" d="M.07 25.87a.3.3 0 0 1-.07-.22.36.36 0 0 1 .12-.28.43.43 0 0 1 .3-.11h7.07a.43.43 0 0 1 .3.11.37.37 0 0 1 .12.28.27.27 0 0 1-.07.2v.07l-3.42 3.86A.66.66 0 0 1 4 30a.66.66 0 0 1-.47-.22L.12 25.92zM7.94 4.13a.3.3 0 0 1 .06.22.37.37 0 0 1-.12.28.43.43 0 0 1-.3.11H.53a.43.43 0 0 1-.3-.11.36.36 0 0 1-.12-.28.3.3 0 0 1 .07-.22L3.59.22A.66.66 0 0 1 4.06 0a.66.66 0 0 1 .47.22l3.36 3.86zM.18 8.87a.3.3 0 0 1-.07-.22.36.36 0 0 1 .12-.28.43.43 0 0 1 .3-.11h7.06a.43.43 0 0 1 .3.11.37.37 0 0 1 .11.28.27.27 0 0 1-.07.2v.07l-3.4 3.86a.66.66 0 0 1-.47.22.66.66 0 0 1-.47-.22L.23 8.92z"/><path class="cls-1" d="M7.78 42.92l-3.36 3.86A.66.66 0 0 1 4 47a.66.66 0 0 1-.47-.22L.12 42.92a.3.3 0 0 1-.12-.27.36.36 0 0 1 .12-.28.43.43 0 0 1 .3-.11h7.07a.43.43 0 0 1 .3.11.37.37 0 0 1 .12.28.3.3 0 0 1-.07.22z"/><path class="cls-2" d="M.12 38.08l3.36-3.85A.66.66 0 0 1 4 34a.66.66 0 0 1 .47.22l3.36 3.85v.07a.27.27 0 0 1 .07.2.37.37 0 0 1-.12.28.43.43 0 0 1-.3.11H.42a.43.43 0 0 1-.3-.11.36.36 0 0 1-.12-.27.3.3 0 0 1 .07-.22z"/></g></g></svg>