<svg xmlns="http://www.w3.org/2000/svg" viewBox="0 0 20.96 20.96"><defs><style>.cls-1{fill:#fff}</style></defs><title>update</title><g id="Слой_2" data-name="Слой 2"><path class="cls-1" d="M20.6 12.76a10.39 10.39 0 0 1-17.35 5.3l-1.76 1.76a.87.87 0 0 1-.61.26.88.88 0 0 1-.88-.87V13.1a.88.88 0 0 1 .87-.87H7a.88.88 0 0 1 .87.87.87.87 0 0 1-.26.61l-1.88 1.87a7 7 0 0 0 10.7-1.45 11 11 0 0 0 .72-1.6.42.42 0 0 1 .41-.31h2.62a.44.44 0 0 1 .44.44.23.23 0 0 1-.02.1zm.4-4.9a.88.88 0 0 1-.87.87H14a.88.88 0 0 1-.87-.87.87.87 0 0 1 .26-.61l1.88-1.88A7 7 0 0 0 4.53 6.82a11 11 0 0 0-.72 1.6.42.42 0 0 1-.41.31H.68a.44.44 0 0 1-.44-.44V8.2A10.41 10.41 0 0 1 10.48 0a10.59 10.59 0 0 1 7.22 2.89l1.77-1.76a.87.87 0 0 1 .61-.26.88.88 0 0 1 .87.87z" id="контент"/></g></svg>