<svg xmlns="http://www.w3.org/2000/svg" viewBox="0 0 54.97 53.98"><defs><style>.cls-1{fill:#fff}</style></defs><title>1</title><g id="Слой_2" data-name="Слой 2"><g id="контент"><path class="cls-1" d="M27.31 0c15-.1 27.63 12.06 27.69 26.6A27.35 27.35 0 0 1 28 54C12.69 54.25-.23 42.27 0 26.55.22 11.76 12.15.11 27.31 0zm3.82 39.38c6.1.09 8.92-4.55 7.72-7.9-1.07-3-1.17-4.89.52-7.59 1.44-2.29.08-4.92-2.84-6.38-2.1-1-3.17-2.15-2.13-4.5a2.19 2.19 0 0 0 .1-.7c.08-1-.64-1.33-1.45-1.54s-1.31.26-1.49 1.06c-.1.46-.22.92-.35 1.38a11.54 11.54 0 0 1-.37 1.12c-.36.9-1.1.75-1.8.6s-.72-.75-.61-1.31a10.86 10.86 0 0 1 .49-1.82c.47-1.21.15-1.9-1.14-2.3s-1.6.35-1.91 1.36c-1 3.19-1 3.18-4.25 2.4-.23-.06-.46-.12-.69-.17-1-.19-2-.65-2.45.88s.21 2 1.5 2.34c1.46.37 2 1.2 1.5 2.82-1 3.4-1.94 6.83-2.7 10.3-.4 1.82-.73 3.14-3.11 2.73-1.6-.27-1.75 1.36-2.1 2.4s.69.9 1.22 1c1.24.26 2.56.3 3.59 1.09 1.49 1.14 0 2.46 0 3.72.06.92.21 1.53 1.14 1.76a1.5 1.5 0 0 0 2-1.19 20.46 20.46 0 0 0 .57-2.05c.18-.89.62-1.17 1.51-.93s1.08.77.85 1.6-.36 1.54-.58 2.3c-.33 1.1.4 1.35 1.2 1.62s1.55.14 1.8-.87a11.5 11.5 0 0 0 .34-1.38c.21-1.77 1-2.59 2.87-2a3.22 3.22 0 0 0 1.06.15z"/><path class="cls-1" d="M32.85 31.93c0 2-2.09 3.42-4.68 3.16-5-.48-5.15-.87-3.72-5.69.52-1.74 1.15-2.35 3-1.62a19 19 0 0 1 3.68 1.51 3.06 3.06 0 0 1 1.72 2.64zm-2.79-6.76c-1.07-.7-3.92.82-3.83-2 0-1.5-.39-4.17 2.21-4.51s5.47 1.85 5.29 3.67-1.26 3.02-3.67 2.84z"/></g></g></svg>