<svg xmlns="http://www.w3.org/2000/svg" viewBox="0 0 55.23 54.09"><defs><style>.cls-1,.cls-2{fill:#fff}.cls-2{opacity:.6}</style></defs><title>10</title><g id="Слой_2" data-name="Слой 2"><g id="контент"><path class="cls-1" d="M45.16 13.45l-7.39 7.22c-2.71 2.64-5.6 5.12-8.08 8-1.81 2.08-3 1.19-4.38-.18Q18.66 21.88 12 15.3a3.38 3.38 0 0 0-2.14-1.44v4.32c0 5.14-.05 10.28 0 15.41 0 1.67-.49 2.36-2.17 2.15a17.39 17.39 0 0 0-2.13 0c-4.52 0-4.52 0-5.27-4.56C-2.09 16.42 8.87 2 23.92.22c11.48-1.39 22.5 3.93 28 13.91a27 27 0 0 1 2.63 19.3 2.58 2.58 0 0 1-2.93 2.35c-6.23 0-6.23 0-6.24-6.21V16.29c-.05-.76-.14-1.51-.22-2.84z"/><path class="cls-2" d="M16.16 27.17c2.43 2.37 4.86 4.68 7.22 7.07 4.27 4.3 4.24 4.31 8.55-.06 2-2 4-4 6.06-6 .33-.33.69-.81 1.19-.6s.39.8.39 1.27c0 3.4.11 6.8 0 10.19-.08 1.65.5 2.06 2 2 2.53-.08 5.06 0 7.59 0 .51 0 1.18-.27 1.47.4.22.5-.21.88-.49 1.25a27.87 27.87 0 0 1-45 0c-.83-1.15-.75-1.69.79-1.69 2.61 0 5.22-.06 7.82 0 1.48.05 1.92-.53 1.89-1.94-.08-3.16-.05-6.32 0-9.48-.01-.69-.31-1.52.52-2.41z"/></g></g></svg>