<svg xmlns="http://www.w3.org/2000/svg" viewBox="0 0 53.91 53.97"><defs><style>.cls-1,.cls-2{fill:#fff}.cls-1{opacity:.6}</style></defs><title>11</title><g id="Слой_2" data-name="Слой 2"><g id="контент"><path class="cls-1" d="M53.91 27.15A27 27 0 1 1 0 26.83C.13 12 12.37-.16 27 0a27.08 27.08 0 0 1 26.91 27.15zm-51.37 0A24.41 24.41 0 1 0 26.82 2.56 24.42 24.42 0 0 0 2.55 27.13z"/><path class="cls-1" d="M37 17.37c2.69 0 5.37.07 8.06 0 1.65-.06 2 .7 2 2.15s-.32 2.41-2.11 2.37c-3.79-.09-7.59.14-11.37-.13-2-.14-2.48 1-2.29 2.26a65.25 65.25 0 0 1 .18 6.83c0 1.15.22 1.71 1.56 1.66 2.68-.1 5.37-.1 8.06 0 1.38.05 1.51-.6 1.53-1.71s-.33-1.73-1.61-1.65c-1.57.1-3.16 0-4.74.07-1.78 0-1.45-1.27-1.5-2.33s0-2 1.58-2c3 .07 6 .05 9 0 1.22 0 1.69.48 1.67 1.69q-.06 4.27 0 8.53c0 1.26-.58 1.63-1.74 1.62H28.69c-1.4 0-1.72-.58-1.71-1.85C27 29.62 27 24.33 27 19c0-1.36.45-1.78 1.77-1.74 2.76.08 5.53 0 8.29 0zm-14.8 1.71c-.08-2.48 1.8-1.63 3-1.73 1.46-.11 1.59.94 1.58 2.06 0 5.13-.06 10.27 0 15.4 0 1.45-.5 2-1.91 1.95-5.45-.06-10.9-.09-16.35 0-1.48 0-1.95-.54-1.91-1.93.07-2.68.1-5.37 0-8.06 0-1.51.64-1.86 2-1.83 3.63.08 7.27-.08 10.89.1 2.11.1 3.07-.45 2.68-2.66a11.75 11.75 0 0 1 0-1.89q.03-.73.02-1.41zm-5.7 13.38a37.71 37.71 0 0 1 4 0c1.4.15 1.73-.39 1.76-1.69s-.38-1.65-1.61-1.61c-2.6.07-5.21.09-7.8 0-1.35-.06-1.74.36-1.76 1.71s.63 1.69 1.85 1.61 2.38-.02 3.56-.02z"/><path class="cls-2" d="M22.2 19.08v1.37c-.49.63-.17 1.38-.3 2.06a1.72 1.72 0 0 1-1.9 1.65H8.64c-1.13 0-1.52-.52-1.54-1.58-.08-5.82-.41-5 4.74-5.13 2.67-.06 5.33.54 8 0 1.33-.16 1.82.75 2.36 1.63z"/></g></g></svg>