<svg xmlns="http://www.w3.org/2000/svg" viewBox="0 0 39.64 63.22"><defs><style>.cls-1{fill:#fff;opacity:.6}</style></defs><title>12</title><g id="Слой_2" data-name="Слой 2"><path class="cls-1" d="M0 0l13.78 12c1 .88 2 1.82 3 2.63a4 4 0 0 1 1.66 3.46q-.05 8.18 0 16.37A2.42 2.42 0 0 1 17 37c-1.28.58-1.71-.38-2.34-1-4.41-4.29-8.78-8.62-13.22-12.88A4.17 4.17 0 0 1 0 19.83C.06 13.45 0 7.07 0 0zm0 26.31l10.51 10.17c.74.71 1.47 1.43 2.23 2.12a1.62 1.62 0 0 1 .45 2.11c-.39.8-.69 1.51-1.84 1.48-3.24-.07-6.48-.05-9.72 0C.56 42.2 0 41.85 0 40.7V26.31zm21.33 30.84v-4.49a2.24 2.24 0 0 1 1.54-2.34 2 2 0 0 1 2.46.67c2.12 2.12 4.24 4.24 6.44 6.28 1 .92 1.09 1.48-.1 2.34A21.69 21.69 0 0 1 23 63.15c-1.26.25-1.76-.25-1.72-1.5v-4.5zm12.18-11.98h3.31c3.08 0 3.09 0 2.55 3.17a4.59 4.59 0 0 1-.25 1.15c-1 2.27-1.54 5.55-3.81 6.21-1.69.49-3.18-2.55-4.79-4-.82-.73-1.59-1.51-2.38-2.28s-2-1.68-1.27-3.21c.61-1.33 1.81-1 2.86-1h3.78zM18.47 56.88a36.91 36.91 0 0 0 0 3.79c.22 2.08-.61 2.75-2.58 2.23a21.93 21.93 0 0 1-7.58-3.22c-1.05-.78-1.31-1.34-.2-2.34 2.22-2 4.36-4.13 6.47-6.26a2.28 2.28 0 0 1 2.77-.53c1.2.45 1.14 1.33 1.12 2.31v4zM6 45.19h5.07c1.12 0 1.64.56 2.09 1.53s0 1.63-.66 2.25c-2.2 2.16-4.43 4.28-6.58 6.48-.71.73-1.19.83-1.87 0a18.23 18.23 0 0 1-3.84-9.26c-.18-1.13.7-1.06 1.4-1a20.25 20.25 0 0 0 4.39 0zm15.47-15.01v-2.37c0-4.42-.22-3.81 3.85-2.93a19.35 19.35 0 0 1 6.19 2.89c1.08.68 1.17 1.39.27 2.26-2.27 2.19-4.54 4.38-6.79 6.58a1.68 1.68 0 0 1-2.1.47 1.93 1.93 0 0 1-1.42-1.93c.02-1.65 0-3.31 0-4.97zM33.39 42.2H28.9a2 2 0 0 1-2.17-1.37c-.47-1.09-.09-1.7.69-2.43 2.25-2.06 4.45-4.21 6.58-6.4.69-.69 1.2-.89 1.88 0a16.39 16.39 0 0 1 3.6 8.59c.09 1.1-.23 1.61-1.41 1.56-1.57-.07-3.15 0-4.73 0z" id="контент"/></g></svg>