<svg xmlns="http://www.w3.org/2000/svg" viewBox="0 0 56.12 55.62"><defs><style>.cls-1{fill:#fff}</style></defs><title>13</title><g id="Слой_2" data-name="Слой 2"><path class="cls-1" d="M0 27.48C.13 12.1 12.86-.15 28.57 0a28.12 28.12 0 0 1 27.55 28.11A28.06 28.06 0 0 1 0 27.48zm9.63-.82c0 4.2 0 4.2 4.06 7.92 2.23 2 7.88 2.18 10.09.09 3.62-3.41 7.1-7 10.71-10.37 2-1.89 3.93-1.94 5.68-.35a3.83 3.83 0 0 1 .74 4.93c-1.32 1.94-3.29 2.47-5.59 1.23-1.36-.73-2.24-.45-3.38.44-2.72 2.1-1.79 5-1.91 7.66-.07 1.6.7 2.3 2.3 2.26s3 .13 3-2c0-1.76 1-2.27 2.57-2.4 5.87-.51 9-4.17 9-10 0-3.06-1.84-4.7-3.73-6.48-2.86-2.7-8.62-2.67-11.39.07L22 29.24a4.17 4.17 0 0 1-3.8 1.48A3.92 3.92 0 0 1 15 26c.53-2.29 2.76-3.27 5.43-2.39 2.32.76 4.41.16 4.89-1.75s-1.35-3-2.71-3.6c-5.91-2.47-13.66 1.91-12.98 8.39z" id="контент"/></g></svg>