<svg xmlns="http://www.w3.org/2000/svg" viewBox="0 0 58.6 57.77"><defs><style>.cls-1{fill:#fff;opacity:.6}</style></defs><title>14</title><g id="Слой_2" data-name="Слой 2"><path class="cls-1" d="M0 28.79C-.39 13.42 12.7.12 28.81 0 45.52-.12 58.6 12.72 58.6 28.84a29.11 29.11 0 0 1-29 28.93C13 57.73 0 45 0 28.79zm26-5.72c0-3.35 2.75-5.35 6-5.15a29.33 29.33 0 0 1 6.25 1.31c.9.26 2.09 1.18 2.44-.52.25-1.22 1.29-2.91-1-3.45-2.64-.63-5.07-1.31-4.35-5 .18-.9-.84-1.31-1.66-1.3s-.72.86-.76 1.44 0 1.42-.05 2.13-.32 1-1 1-1.26-.2-1.34-1a7.28 7.28 0 0 1 0-1.42c.14-1.37-.22-2.47-1.8-2.4s-1 1.46-1 2.22c.18 2.25-.49 3.48-2.76 4.45-3.39 1.44-4.77 4.49-4.48 8.15.27 3.45 2.4 5.32 5.57 6.28a33.43 33.43 0 0 1 5.55 2c2.92 1.5 3.14 4 .78 6.35A7 7 0 0 1 29 40a19.55 19.55 0 0 1-9.15-.36c-1.12-.28-2.31-.94-2.77 1-.41 1.64 0 2.62 1.71 2.93s3.2.88 2.71 3.19c-.21 1 .6 1.46 1.41 1.57 1.15.15.89-.84.93-1.47.06-1.05 0-2.06 1.54-2.08s1.33 1 1.31 1.91.45 1.54 1.38 1.55c1.13 0 .93-1 .87-1.58-.18-1.7.59-2.4 2.19-2.71a10.92 10.92 0 0 0 5.66-2.8c3.59-3.45 3.28-9.9-.64-12.31a28.16 28.16 0 0 0-5.91-2.39c-2.06-.69-4.1-1.45-4.24-3.38z" id="контент"/></g></svg>