<svg xmlns="http://www.w3.org/2000/svg" viewBox="0 0 54.72 53.92"><defs><style>.cls-1{fill:#fff}</style></defs><title>15</title><g id="Слой_2" data-name="Слой 2"><g id="контент"><path class="cls-1" d="M48.61 18a6 6 0 0 1 1.75 3.76C52.7 35 45.9 45.81 33.6 49.31c-5.43 1.55-10.58.89-15.74-1.07-1.68-.64-1.91-1.65-1.45-3.1 1.24-3.91 2.3-7.9 3.82-11.71 1.3-3.27-.62-5.8-1.29-8.63a.87.87 0 0 0-1.15-.56c-.45.14-.5.48-.59.9-1.5 7.09-4.2 13.86-6.12 20.8-.18.63-.24 1.7-1.18 1.48-1.13-.27-.63-1.28-.41-2 2-6.47 4-13 6.14-19.39.62-1.87 1-3.8 1.51-5.67.56-2.27-.68-4.59-1.8-6.63-.66-1.21-1.26-.26-1.52.56-1.6 5-3.16 10.09-4.77 15.13-.76 2.39-1.61 4.77-2.58 7.65a12.13 12.13 0 0 1-2.16-5.42C2.39 20.51 7.35 10.74 17.55 6a23.48 23.48 0 0 1 19.09-.4c1.62.63 2.48 1.58 1.76 3.64-1.5 4.31-2.58 8.77-4.08 13.08-1 3 1.05 5.27 1.29 7.95a.75.75 0 0 0 .92.56c.61-.18.77-.77.93-1.28 1.21-3.83 2.35-7.69 3.61-11.51A118.26 118.26 0 0 1 45 6.48a1.88 1.88 0 0 1 .71 2.37C43.53 15.58 41.3 22.3 39.18 29c-1.12 3.57-2.71 7.17-.49 10.93.33.57.08 1.62 1 1.65s1.12-1 1.35-1.7c1.2-3.59 2.22-7.26 3.55-10.8s2.17-7.49 4.02-11.08zm-22.84-7.6c-2.69-.09-2.91.23-2.13 2.74q3.54 11.38 7.09 22.77c.68 2.18 1.27 4.39 2.09 6.51s2.87 1.89 4.47 1.52.55-1.86.3-2.73c-1.14-4.08-2.41-8.12-3.67-12.16-1.68-5.42-3.4-10.82-5.08-16.23-.5-1.66-1.4-2.69-3.06-2.46zm-7.43-.06c-2.23 0-2.54.53-1.83 2.73 1.5 4.6 2.92 9.23 4.37 13.85 1.63 5.08 3.22 10.21 4.87 15.32.48 1.47 2.84 2.41 4.68 1.75 2-.71.45-2 .18-2.9-2.8-9.29-5.7-18.54-8.57-27.81-.56-1.85-1.58-3.08-3.69-2.98z"/><path class="cls-1" d="M27.61 53.89a28.08 28.08 0 0 1-10.77-2c-1-.39-2.06-.87-1.42-2.21s1.57-.52 2.42-.18c8.29 3.28 16.23 2.5 23.6-2.5 9.13-6.14 11.85-15 10.17-25.49a25.6 25.6 0 0 0-1.51-4.46 13.75 13.75 0 0 1-.6-1.28c-.22-.93-.48-2.16.53-2.52.73-.26 1.48.72 1.86 1.5a28 28 0 0 1 2.8 11.17c.58 12.9-7.42 22.73-18.15 26.54a23.11 23.11 0 0 1-8.93 1.43zM27.51 0c3.75-.12 7.21 1 10.62 2.25 1 .37 2.39.86 1.71 2.3s-1.71.33-2.6 0a25.64 25.64 0 0 0-16.46-1C11.84 6.08 6.07 11.87 3.47 20.63a22.93 22.93 0 0 0 1.41 16.61c.13.28.32.54.45.83.52 1.14.9 2.63-.33 3.17s-1.45-1.11-1.86-1.95c-5-10.2-4-19.81 2.81-28.89C11.36 3.16 18.94.57 27.51 0z"/></g></g></svg>