<svg xmlns="http://www.w3.org/2000/svg" viewBox="0 0 56.63 57.91"><defs><style>.cls-1{fill:#fff;opacity:.6}</style></defs><title>16</title><g id="Слой_2" data-name="Слой 2"><path class="cls-1" d="M28.38 57.84c-.09-1.68.61-3.22 1.06-4.77a16.35 16.35 0 0 0-1.25-12.37c-3.36-6.78-6.54-13.7-9.64-20.57-3.3-7.34-1.19-13 4.58-17.8 1.11-.93 2.19-2.82 3.55-2.21 1.07.48.07 2.46-.08 3.71-.65 5.23.72 9.94 3 14.56 3.28 6.55 6.55 13.1 9.18 20 1.75 4.58 1 8.19-2 11.81a58.38 58.38 0 0 1-6.9 7.13c-.34.32-.75.76-1.5.51zm17.8-47.63A17 17 0 0 0 48 19.13c2.68 5.45 5.42 10.86 7.72 16.5 1.64 4 1.16 7.46-1.79 10.68a56.55 56.55 0 0 1-4.8 4.89c-.43.37-.93 1.09-1.61.62s-.09-1 0-1.53c.29-1.23.62-2.45 1-3.66a10.28 10.28 0 0 0-.82-7.34c-2.77-5.93-5.92-11.69-8.19-17.85S39.37 9.56 45 6.35c1-.59 1.46-.38 1.38.8-.02 1.02-.12 2.04-.2 3.06zM8.32 7.71c-2 6.7 2.06 12.09 4.69 17.84 1.57 3.44 3.29 6.82 4.64 10.36s1.09 6.73-1.49 9.69a41.23 41.23 0 0 1-5.24 5.4c-.45.36-.87 1.15-1.57.67s-.07-1 0-1.52c.3-1.31.62-2.61.93-3.91a10.42 10.42 0 0 0-.84-7.13c-2.59-5.41-5.24-10.79-7.6-16.3-1.41-3.29-3-6.74-.73-10.38a23.54 23.54 0 0 1 5.41-5.91c.41-.33.84-.88 1.48-.52s.24.94.32 1.71z" id="контент"/></g></svg>