<svg xmlns="http://www.w3.org/2000/svg" viewBox="0 0 56.24 62.98"><defs><style>.cls-1,.cls-2{fill:#fff}.cls-2{opacity:.6}</style></defs><title>17</title><g id="Слой_2" data-name="Слой 2"><g id="контент"><path class="cls-1" d="M.32 15.68c2.76-2.53 6.21-4 9.39-5.84 5.17-3 10.54-5.7 15.56-9a4 4 0 0 1 4.87-.05c8 4.66 16.24 9.05 24.38 13.53.82.45 1.73.74 1.72 2q-.08 15.06-.09 30.11c-3.88-1.33-7.07-3.95-10.7-5.75 0-5.12 0-10.24.12-15.36.05-2.06-.38-3.52-2.34-4.62-4.31-2.42-8.52-5-12.7-7.64a3.12 3.12 0 0 0-3.66-.1c-5.22 3-10.49 5.95-15.74 8.91z"/><path class="cls-2" d="M45.45 40.67c3.63 1.8 6.82 4.41 10.7 5.75-.59 2.53-3.08 2.76-4.81 3.75C44 54.4 36.45 58.38 29 62.55a2 2 0 0 1-2.33.1Q14.37 55.59 2 48.61a3.29 3.29 0 0 1-2-3.32c.11-9.29.06-18.5.09-27.76a15.17 15.17 0 0 1 .23-1.85l10.81 6.18c0 6 0 12-.17 18 0 1.53 1 2.05 2 2.55A116.41 116.41 0 0 1 24.61 49c1.86 1.2 4 1.92 6.19.62 3.32-2 6.7-3.83 10-5.87 1.56-.96 3.44-1.52 4.65-3.08z"/></g></g></svg>