<svg xmlns="http://www.w3.org/2000/svg" viewBox="0 0 52.6 51.92"><defs><style>.cls-1,.cls-2{fill:#fff}.cls-2{opacity:.6}</style></defs><title>18</title><g id="Слой_2" data-name="Слой 2"><g id="контент"><path class="cls-1" d="M52.59 26.06c.38 13.68-12 26.24-26.92 25.85C12.12 51.56-.11 40.63 0 26 .12 10.81 11.46.28 26 0c14.87-.28 26.89 11.6 26.59 26.06zm-30.45 16.4v.12H25c.68 0 1.5-.16 1.45-.88-.16-2.65 1.41-5.14.46-7.88s-.25-3.59 2.62-3.56c2.32 0 4.76 0 6.62-1.38C40 26.11 40.5 22 39.65 17.63c-.68-3.46-3.12-5.39-6.36-6.26-4.4-1.19-8.91-.71-13.4-.74-2 0-2.5.66-2.49 2.42 0 8.93.12 17.86 0 26.79 0 2.47 1 3.05 3.1 2.78.5-.07 1.09-.11 1.64-.16z"/><path class="cls-2" d="M29.77 16.6a9.89 9.89 0 0 1 3.66 6.08 2.86 2.86 0 0 1-.68 2.65c-.77.75-1.78.49-2.67.12a4.29 4.29 0 0 1-2.88-3.73c-.1-1.18-.08-2.37-.07-3.55 0-4.44-.38-3.78 3.9-3 4.63.86 6.95 4.82 5.33 8.5a10.54 10.54 0 0 1-.87 1.22 9.32 9.32 0 0 0-5.72-8.29z"/></g></g></svg>