<svg xmlns="http://www.w3.org/2000/svg" viewBox="0 0 59.04 57.99"><defs><style>.cls-1{fill:#fff;opacity:.6}</style></defs><title>19</title><g id="Слой_2" data-name="Слой 2"><path class="cls-1" d="M46.27 58h-6.64c-13.9-.16-23.08-13-18.23-26 2-5.39 1.09-9.34-3.24-13-3.36-2.85-6.34-6.16-9.45-9.31A5.1 5.1 0 0 0 4.72 8C1.82 8-.07 6.29 0 3.89A4.16 4.16 0 0 1 4 0c2.47 0 4.15 1.84 4.19 4.72a4 4 0 0 0 .94 3.08C13.07 11.69 17 15.6 21 19.44c3.22 3.11 6.9 3.38 11 1.7a18.75 18.75 0 0 1 16.07.5c7.39 3.66 10.87 9.83 11 18 .08 4.59 0 9.18 0 13.76 0 3.29-1.4 4.58-4.65 4.62h-8zm-3.66-7.59h4.79c2.57-.08 3.77-1.21 3.81-3.8 0-3-.08-6-.08-9a9.26 9.26 0 0 0-2.13-5.7 12.08 12.08 0 0 0-13-4.26 11.67 11.67 0 0 0-8.36 10.42c-.26 5.08 2.52 9.25 7.28 11.4 2.65 1.17 5.31.79 7.69.91z" id="контент"/></g></svg>