<svg xmlns="http://www.w3.org/2000/svg" viewBox="0 0 57.23 56.68"><defs><style>.cls-1,.cls-2{fill:#fff}.cls-1{opacity:.6}</style></defs><title>2</title><g id="Слой_2" data-name="Слой 2"><g id="контент"><path class="cls-1" d="M40.87 53.7l-.66.22a5.09 5.09 0 0 0-2.67 1.2 28.57 28.57 0 0 1-32.3-10c-10.13-13.71-5-34 10.51-41.24a2.8 2.8 0 0 1 .89-.09l.77-.66c.36-.2.7-.45 1.14-.25A2 2 0 0 0 20 2.37l.38-.1a44 44 0 0 1 9.16-.82c10.69.6 18.81 5.78 23.51 15.09s4 19.11-2.08 28.05c-2.63 3.85-6.32 6.53-10.1 9.11zM23.51 26.53h.08v8.27c0 5.55 0 5.55 5.69 5.53 4.08 0 6.29-1.45 7.5-4.87A7.6 7.6 0 0 0 34 26.65c-1.42-1-1.44-1.58-.37-2.81 1.94-2.22 1.61-6.18-.2-8.5-2.16-2.77-5-2.49-8-2.43-1.54 0-2 .76-2 2.24.13 3.79.08 7.58.08 11.38zm-7-13.47c4.29 4.14 2.75 9.08 2.76 13.56s1.67 9.5-2.48 13.38c4.58.76 4.77.57 4.76-3.75 0-6.95 0-13.89.09-20.84 0-1.82-.59-2.67-2.45-2.5-.77.09-1.54.09-2.69.15zm21.12 25.48A5 5 0 0 0 41.51 34c.35-3.24-.9-5.59-3.71-6.6 1.92 3.81 2.04 7.49-.17 11.14zm-1.51-14c2.71-1.85 3.57-3.8 3.07-6.33-.44-2.21-1.79-3.44-4.49-4.28 2.84 3.47 2.64 6.82 1.42 10.6z"/><path class="cls-2" d="M40.87 53.7c3.78-2.58 7.47-5.26 10.1-9.11 6.13-8.94 6.85-18.59 2.09-28.05S40.24 2.05 29.55 1.45a44 44 0 0 0-9.16.82C23-.48 26.41 0 29.66 0a24.42 24.42 0 0 1 12.17 3.44c4.85 2.78 9.1 6.28 11.76 11.56 1.91 3.79 3.49 7.58 3.63 11.84.32 10-3 18.32-11.1 24.55a9.07 9.07 0 0 1-5.25 2.31zm-3.33 1.42a5.09 5.09 0 0 1 2.67-1.2c-.37 1.55-1.65 1.08-2.67 1.2zM20 2.37a2 2 0 0 1-1.44.49A1 1 0 0 1 20 2.37zm-2.59.73l-.77.66c.07-.44.36-.57.77-.66z"/><path class="cls-2" d="M23.51 26.53V15.15c0-1.48.46-2.21 2-2.24 2.93-.06 5.82-.33 8 2.43 1.81 2.32 2.14 6.28.2 8.5-1.07 1.23-1.05 1.79.37 2.81a7.6 7.6 0 0 1 2.75 8.84c-1.21 3.42-3.42 4.85-7.5 4.87-5.68 0-5.68 0-5.69-5.53v-8.27zm2 3.94a23.23 23.23 0 0 0 .29 4.83c.19 2.31 1.42 3.16 3.55 3.25a4.89 4.89 0 0 0 5.14-3c1.07-2.47.43-5.85-1.31-7.24-2-1.64-4.55-1.5-6.8-1-1.67.32-.6 2.31-.87 3.16zm0-9.9a18 18 0 0 1 0 2.37c-.3 2.21 1 2.69 2.7 2.31 1.9-.43 3.61-1.18 4.32-3.41a5.41 5.41 0 0 0-1-5.51 4.05 4.05 0 0 0-4.27-1.43c-1.76.52-1.57 2.16-1.68 3.55-.11.69-.06 1.4-.06 2.11zm-9.01-7.51c1.15-.06 1.92-.08 2.68-.15 1.86-.17 2.47.68 2.45 2.5-.09 6.94-.1 13.89-.09 20.84 0 4.32-.18 4.51-4.76 3.75 4.15-3.88 2.49-8.85 2.48-13.38s1.53-9.42-2.76-13.56zm21.13 25.48c2.21-3.65 2.08-7.33.16-11.14 2.81 1 4.06 3.36 3.71 6.6a5 5 0 0 1-3.87 4.54z"/><path class="cls-2" d="M36.12 24.53c1.22-3.78 1.42-7.13-1.41-10.61 2.7.84 4.05 2.08 4.49 4.28.5 2.53-.37 4.48-3.08 6.33z"/><path class="cls-1" d="M25.51 30.47c.27-.85-.8-2.83.86-3.19 2.25-.49 4.76-.63 6.8 1 1.74 1.39 2.38 4.77 1.31 7.24a4.89 4.89 0 0 1-5.14 3c-2.13-.08-3.35-.94-3.55-3.25a23.23 23.23 0 0 1-.28-4.8zm.01-9.91v-2.13c.11-1.39-.08-3 1.68-3.55a4.05 4.05 0 0 1 4.27 1.43 5.41 5.41 0 0 1 1 5.51c-.71 2.24-2.42 3-4.32 3.41-1.69.38-3-.1-2.7-2.31a18 18 0 0 0 0-2.37z"/></g></g></svg>