<svg xmlns="http://www.w3.org/2000/svg" viewBox="0 0 49.04 55.52"><defs><style>.cls-1,.cls-2{fill:#fff}.cls-2{opacity:.6}</style></defs><title>20</title><g id="Слой_2" data-name="Слой 2"><g id="контент"><path class="cls-1" d="M.06 40.24V15.35a2.67 2.67 0 0 1 1.51-2.66Q12.27 6.67 22.94.52a2.85 2.85 0 0 1 3.26 0q10.64 6.16 21.36 12.21A2.5 2.5 0 0 1 49 15.17v26.07c-2-.3-3.61-1.55-5.23-2.67q.07-10.67.15-21.33c0-1.06-.7-1.47-1.48-1.92C37 12.22 31.58 9.14 26.21 6a2.75 2.75 0 0 0-3.23 0c-5.31 3.07-10.68 6.1-16.06 9.1a3.19 3.19 0 0 0-1.86 3.2c.09 6.64 0 13.28 0 19.93-1.64.67-2.62 3.1-5 2.01z"/><path class="cls-2" d="M.06 40.24c2.39 1.1 3.36-1.34 5-2a3.21 3.21 0 0 0 .64.69c5.94 3.45 11.9 6.86 17.84 10.32a1.92 1.92 0 0 0 2.18-.18l18-10.49c1.63 1.12 3.19 2.36 5.23 2.67-.12 1-1 1.13-1.66 1.51C40.22 46.85 33.1 50.93 26 55a2.6 2.6 0 0 1-3 0c-7.15-4.16-14.34-8.28-21.54-12.38C.45 42-.2 41.46.06 40.24z"/><path class="cls-1" d="M9 34.94C9 30 9.06 25 9 20a2.63 2.63 0 0 1 1.63-2.59c4.15-2.3 8.28-4.62 12.37-7a2.73 2.73 0 0 1 3.08 0c4.17 2.42 8.34 4.83 12.55 7.18a2.73 2.73 0 0 1 1.46 2.71v11.38a5.49 5.49 0 0 0-2.87.55c-2 .88-3.72 2.22-5.88 2.66v-.44q-7.85-4.48-15.72-8.93c-1-.55-1 .19-1 .86 0 2.19.07 4.38.11 6.58-2 .6-3.52 2.17-5.73 1.98zm8.62-15.14l8.49 4.75 8.24 4.57c1-7 .9-7.12-4.63-10.31-1.32-.81-2.72-1.51-4.08-2.3a1.79 1.79 0 0 0-2-.19c-1.86 1.11-3.75 2.19-5.97 3.49z"/><path class="cls-2" d="M31.28 34.85c2.16-.44 3.92-1.78 5.88-2.66a5.49 5.49 0 0 1 2.84-.54c.59 3.11-.46 5.09-3.5 6.48a112.19 112.19 0 0 0-10.3 5.82 3.08 3.08 0 0 1-3.49 0c-4.08-2.39-8.24-4.65-12.36-7-.77-.43-1.5-.93-1.33-2 2.16.18 3.68-1.38 5.54-2 1.08.66 2.14 1.35 3.23 2 2.19 1.24 4.42 3.43 6.61 3.4s4.6-2.26 6.88-3.5z"/></g></g></svg>