<svg xmlns="http://www.w3.org/2000/svg" viewBox="0 0 55.62 54.72"><defs><style>.cls-1{fill:#fff;opacity:.6}</style></defs><title>21</title><g id="Слой_2" data-name="Слой 2"><path class="cls-1" d="M28.12 54.72C12.43 54.75 0 42.72 0 27.42A27.43 27.43 0 0 1 27.72 0a27.53 27.53 0 0 1 27.9 27.27 27.58 27.58 0 0 1-27.5 27.45zM11.48 24.81a2 2 0 0 0 2.15 1.42h2.84c1.54 0 1.39 1.27 1.48 2.24.11 1.12-.77 1.07-1.57 1.26-1.17.28-3.33-.86-3.31.79s2.23.69 3.47.89c.81.13 1.78-.2 1.92 1.15.11 1.16-.57 2.66 1.12 3.26a8.58 8.58 0 0 0 3.75.28 1.94 1.94 0 0 0 2-2.29 34.83 34.83 0 0 0-2.27-11.79c-1.55-4.07-4.55-5.7-8.54-4.92-1.23.24-1.84.57-.62 1.73A11.47 11.47 0 0 1 16.57 23c.41 1 .13 1.45-1 1.49-1.31.08-2.66-.23-4.09.32zm31.9 8a22.44 22.44 0 0 0-.75-5.89 32.87 32.87 0 0 0-1.28-4.3c-1.77-4.52-4.45-6.25-8.38-5.5-.52.1-1.23.25-1.46.62-.36.57.4.91.75 1.29a13.61 13.61 0 0 1 2.83 5.13 32.53 32.53 0 0 1 1.49 9.31c0 .85-.14 1.88.82 2.3a6.62 6.62 0 0 0 5.3 0c1.44-.65.49-2.16.68-2.97zm-11.77 3.35c1.09-.17 3.11.29 3-2.18-.21-4.28-.71-8.54-2.59-12.46s-4.59-5.25-8.43-4.33c-.65.16-1.77.23-.81 1.22 4 4.14 4.62 9.43 4.88 14.73.11 2.72 1.41 3.15 3.95 3.02z" id="контент"/></g></svg>