<svg xmlns="http://www.w3.org/2000/svg" viewBox="0 0 57.4 56.47"><defs><style>.cls-1,.cls-2{fill:#fff}.cls-2{opacity:.6}</style></defs><title>22</title><g id="Слой_2" data-name="Слой 2"><g id="контент"><path class="cls-1" d="M28.84 0c15.7 0 28.62 12.75 28.56 28.18a28.54 28.54 0 0 1-29 28.28A28.47 28.47 0 0 1 0 28.11C0 12.49 12.79 0 28.84 0zm8.64 16a21.57 21.57 0 0 0-2.56-1.15c-5.85-1.77-11.86-1.15-17.81-1.33A3.88 3.88 0 0 0 14 15.33c-1.6 2-2 4.48-3.16 6.55-2.07 3.6-1.89 7.23-.92 11 .51 2 1.21 3.82 3.42 4.69 1.11.43 1.3 1.74 1.41 2.82a17.21 17.21 0 0 1-.09 3.07c-.1 1.31.42 1.86 1.76 1.84 4.58-.07 9.16 0 13.73-.11A15 15 0 0 0 41 40.21c6-6.26 5.66-18.41-2.23-23.72.59-1.08 1.22-2.14 1.76-3.25.34-.69.76-1.58-.19-2a2.72 2.72 0 0 0-3 .7c-1.2 1.15.49.73.79 1.09A.7.7 0 0 1 38 14a2.74 2.74 0 0 0-.52 2z"/><path class="cls-2" d="M38.77 16.49L37.48 16a2.74 2.74 0 0 1 .52-2 .7.7 0 0 0 .07-1c-.3-.36-2 .06-.79-1.09a2.72 2.72 0 0 1 3-.7c1 .47.53 1.36.19 2-.47 1.14-1.11 2.2-1.7 3.28z"/><path class="cls-1" d="M30.44 20.16a8.81 8.81 0 0 1 5.73 9.9 10.75 10.75 0 0 0-.17 1.17c-.34 4.39-2.33 6.67-6.57 7.36-1.71.28-3.63.87-5.13.36-1.89-.65-.34-3-1-4.4a5.69 5.69 0 0 1-.37-2.08c-.07-1.26.41-2 1.84-1.67.84.17 1.72.14 2.58.23 1.89.2 3-.29 2.93-2.54s-.88-2.87-2.86-2.65a4.29 4.29 0 0 1-.47 0c-3.91 0-3.86 0-3.81-4 0-1.37.41-2.4 1.83-1.87 1.25.47 2-1.44 3.18-.33-.14.35-.18.83-.44 1-.71.56-.8 1.13-.18 1.73a1.53 1.53 0 0 0 1.93.1 1.89 1.89 0 0 0 .98-2.31z"/><path class="cls-2" d="M30.44 20.16a1.89 1.89 0 0 1-1 2.35 1.53 1.53 0 0 1-1.93-.1c-.62-.61-.52-1.17.18-1.73.26-.2.3-.68.44-1z"/></g></g></svg>