<svg xmlns="http://www.w3.org/2000/svg" viewBox="0 0 58.11 57.24"><defs><style>.cls-1{fill:#fff;opacity:.6}</style></defs><title>3</title><g id="Слой_2" data-name="Слой 2"><g id="контент"><path class="cls-1" d="M29.15 57.24C12.83 57.19 0 44.55 0 28.57 0 12.82 13.12 0 29.11 0a28.62 28.62 0 1 1 0 57.24zm0-7.72c11.93-.2 21.34-9.58 21.15-21.07A21.19 21.19 0 0 0 7.89 29a21.06 21.06 0 0 0 21.22 20.52z"/><path class="cls-1" d="M11.54 55H3.62c-.72 0-1.25-.22-1.25-1a74.79 74.79 0 0 1 .27-8c2.85 3.14 5.6 6.18 9.13 8.41zm35.12-.07c3.11-2.93 6.09-5.66 9-8.94v8.29c0 .44-.44.64-.86.65-2.7.01-5.42 0-8.14 0zM2.37 11.31V3.42a1 1 0 0 1 1-1 70.6 70.6 0 0 1 8.1.3A47.3 47.3 0 0 0 3 11.52zm52.73.2C52.79 8 49.73 5.29 46.53 2.36h8.09c.79 0 1.09.46 1.09 1.2v7.69z"/></g></g></svg>