<svg xmlns="http://www.w3.org/2000/svg" viewBox="0 0 54.2 53.47"><defs><style>.cls-1{fill:#fff;opacity:.6}</style></defs><title>4</title><g id="Слой_2" data-name="Слой 2"><g id="контент"><path class="cls-1" d="M54.2 26.69A26.94 26.94 0 0 1 27 53.47C12.37 53.53 0 41.4 0 26.94A27.1 27.1 0 0 1 27.11 0C42.08.11 54.19 12 54.2 26.69zm-2.58.23a24.4 24.4 0 0 0-48.8-.12 24.21 24.21 0 0 0 24.46 24.09c13.42-.03 24.37-10.82 24.34-23.97z"/><path class="cls-1" d="M28.09 4.39a22.55 22.55 0 0 1 22 23.4 22.79 22.79 0 0 1-24.6 21.59C12.95 48.52 3.4 37.56 4.39 25.31 5.39 12.87 16 3.46 28.09 4.39zM24 34.73c-2.83.08-3-.19-1.94-2.2q2.15-4.09 4.33-8.16c1.47-2.73 1.46-2.61-1.55-3.36-2.11-.52-3.49-.36-4.51 1.93-1.47 3.31-3.36 6.44-5.07 9.64-1.88 3.53-1.89 3.53 2.06 4.25 1.32.24 3 .05 3.88.8 1.21 1-.06 2.62-.12 4 0 .74 0 1.22.85 1.39s1.15-.24 1.27-1c.2-1.17.41-2.33.62-3.5s1.13-1.23 2-1.13c1.13.13.73 1 .63 1.65-.18 1.17-.38 2.34-.63 3.49-.15.69.08 1 .75 1.19s1.24.09 1.39-.75a36.92 36.92 0 0 0 .69-4 2.85 2.85 0 0 1 2.51-2.89 15.83 15.83 0 0 0 7.24-4.28c6.37-6.32 4.75-13-3.81-15.47-1.47-.42-1.7-1.06-1.42-2.34s.38-2.34.56-3.51c.1-.66.1-1.29-.73-1.49-1-.25-1.18.5-1.32 1.21-.26 1.32-.54 2.63-.75 4-.14.92-.42 1.46-1.52 1.23s-1.24-.8-1.07-1.72c.21-1.09.41-2.18.54-3.27.1-.88.6-2.09-.86-2.25-1.28-.19-1.1 1.1-1.28 1.81-1.1 4.76-1.08 4.76-5.86 3.84a7.88 7.88 0 0 1-.88-.14 3.39 3.39 0 0 0-4.23 1.55c-.3.44-1 .74-.84 1.34.18.83 1 .55 1.59.66 4.74.87 9.5 1.63 14.22 2.57 4.35.87 5.85 4.11 3.78 7.93A12.85 12.85 0 0 1 24 34.73z"/></g></g></svg>