<svg xmlns="http://www.w3.org/2000/svg" viewBox="0 0 57.69 56.8"><defs><style>.cls-1{fill:#fff;opacity:.6}</style></defs><title>5</title><g id="Слой_2" data-name="Слой 2"><g id="контент"><path class="cls-1" d="M57.68 28.49C57.64 44 44.63 56.82 28.91 56.8A28.71 28.71 0 0 1 0 28.16C0 12.66 13.1-.05 28.89 0a28.61 28.61 0 0 1 28.79 28.49zm-21.3 1.76c-4-5.71-7.62-10.94-11.18-16.24a3.28 3.28 0 0 0-3-1.8c-2.94 0-4.31 1-5.19 4.15-2 7.22-4.09 14.44-6.08 21.67-.25.91-1.23 2-.21 2.83s2.27.42 3.42.07a4.05 4.05 0 0 0 2.81-3c.68-2.35 1.25-4.75 2.06-7.05.61-1.73.56-3.7 1.84-5.43 3.66 5.31 7.26 10.39 10.71 15.59 1.1 1.65 2.34 2.44 4.3 2.16a4.65 4.65 0 0 0 3.92-3.34c.32-.89.48-1.83.74-2.74q2.85-10 5.7-20.06c.71-2.5 0-3.26-2.49-2.78a4.58 4.58 0 0 0-3.76 3.51c-1.16 3.97-2.28 7.9-3.59 12.46z"/><path class="cls-1" d="M22.72 17.49c1.67 1.46 2.48 3.29 3.62 4.86 2.58 3.58 5 7.29 7.57 10.86A3.78 3.78 0 0 1 34 38c-4-5.77-7.88-11.36-11.71-17-.77-1.16.04-2.24.43-3.51z"/></g></g></svg>