<svg xmlns="http://www.w3.org/2000/svg" viewBox="0 0 54.4 60.05"><defs><style>.cls-1{fill:#fff;opacity:.6}</style></defs><title>6</title><g id="Слой_2" data-name="Слой 2"><g id="контент"><path class="cls-1" d="M54.2 17.33a4.61 4.61 0 0 1-1.72 3.75 3.2 3.2 0 0 0-1.2 2.9v9.49c0 2.34-.22 4.56 1.94 6.45 1.63 1.42 1.45 3.62.05 5.4s-3.19 2.75-5.39 1.91a3.58 3.58 0 0 0-3.5.43c-3.46 2.06-7 4-10.51 6A3.56 3.56 0 0 0 32 56.08a4.84 4.84 0 0 1-4.92 4C24.7 60 23 58.55 22.25 55.89a2.91 2.91 0 0 0-1.44-2Q14.91 50.58 9 47.22a2.49 2.49 0 0 0-2.24-.17 4.83 4.83 0 0 1-6-1.91A4.51 4.51 0 0 1 1.77 39 3.76 3.76 0 0 0 3 35.84V23.98a3.46 3.46 0 0 0-1.22-2.89 4.74 4.74 0 0 1-1.11-6 4.8 4.8 0 0 1 6.13-2.14 2.64 2.64 0 0 0 2.43-.22C13.13 10.5 17 8.27 21 6.1c.89-.49 1-1.28 1.28-2.12.76-2.63 2.45-4 4.94-4a4.67 4.67 0 0 1 4.73 3.88 4 4 0 0 0 2.29 2.76c3 1.67 6 3.42 9.06 5.14 1.57.9 3 1.6 5 1 2.91-.92 5.86 1.62 5.9 4.57zm-28.58-2.45v4.27c0 3.39-4.25 5.85-7.26 4.19-2.42-1.33-4.78-2.78-7.23-4.05a4.09 4.09 0 0 1-2.44-2.9 3.74 3.74 0 0 0-4.6-2.68 3.88 3.88 0 0 0-3 4.22 3.7 3.7 0 0 0 4.4 3.3 6.51 6.51 0 0 1 4.82 1c1.54.81 3 1.67 4.59 2.46 1.12.57 1.22 1.23.49 2.25a6.7 6.7 0 0 0-.66 7c.22.51.64 1.16 0 1.44-3 1.23-5.15 4.53-9.11 3.43-1.94-.54-4 1.08-4.45 3A3.92 3.92 0 0 0 4 46.32a3.69 3.69 0 0 0 4.7-2.5 4.52 4.52 0 0 1 2.76-3.25c1.61-.85 3.17-1.78 4.74-2.69a2.53 2.53 0 0 1 2.22-.53 11.53 11.53 0 0 0 4.68.4c1.61-.06 2.66.64 2.59 2.56-.1 3.16 0 6.33 0 9.49a2.87 2.87 0 0 1-.95 2.29c-1.85 1.76-2 4.09-.48 5.63a4.05 4.05 0 0 0 5.74.11c1.55-1.54 1.47-3.93-.29-5.69a2.66 2.66 0 0 1-1-2v-9.73c0-.9.21-1.54 1.18-1.75a20.63 20.63 0 0 1 8.77-.1c2.56.62 6.64 1.32 6.77 5.69 0 .26.31.54.53.76a4.37 4.37 0 0 0 5.64.67 3.53 3.53 0 0 0 1.34-4.58C52 39 50.26 38.33 47.76 39c-1.22.32-7.14-2.37-7.66-3.48A.73.73 0 0 1 40 35c.95-3-1-4.95-2.48-7.05-.86-1.23-.59-2 .67-2.61 2-1 3.9-2.09 5.78-3.25 1.5-.93 2.8-1.65 4.78-.9s3.92-1 4.37-3a3.87 3.87 0 0 0-2.7-4.43c-1.93-.61-4.36.37-4.8 2.31a4.92 4.92 0 0 1-2.9 3.4c-2.22 1.2-4.41 2.47-6.59 3.74-.67.39-1.23.6-1.93 0a9.64 9.64 0 0 0-4.49-2c-.48-.09-1-.31-1-.86 0-3.79 0-7.58.07-11.37 0-.41.68-.81 1.06-1.21a4 4 0 0 0 0-5.73 3.91 3.91 0 0 0-5.54.16 3.67 3.67 0 0 0 .21 5.45 3.38 3.38 0 0 1 1.14 2.93c-.08 1.42-.03 2.88-.03 4.3z"/><path class="cls-1" d="M16.58 30.69a5.09 5.09 0 0 1 4.51-5 6.35 6.35 0 0 0 3-1.16 6.81 6.81 0 0 1 10.65 3.25 6.49 6.49 0 0 0 1.65 2.54 3.41 3.41 0 0 1 .92 4.28c-.83 1.77-2.34 2.08-4.12 2.14-3.9.13-7.73-.59-11.6-.78a5.27 5.27 0 0 1-5.01-5.27zM27.11 3.82c.56.1 1.11.32 1.11 1a1 1 0 0 1-1.16 1.15 1.05 1.05 0 0 1-1-1.1c-.06-.67.42-.98 1.05-1.05zm1.15 51.13c-.1.76-.42 1.24-1.16 1.26a1 1 0 0 1 0-2.06 1 1 0 0 1 1.16.8zm21.08-36.4c-.6-.13-1.15-.32-1.18-1s.42-1.1 1.17-1.06 1.05.31 1 1a1.09 1.09 0 0 1-.99 1.06zm-44.16-.02c-.59-.09-1.12-.22-1.22-.89S4.27 16.5 5 16.49s1.09.23 1.06.92-.24 1.05-.88 1.12zm45.15 24.13a1 1 0 0 1-1 1 1.06 1.06 0 0 1-1.09-1c-.07-.78.49-1.12 1.17-1.1s.86.44.92 1.1zM5 43.64c-.65-.09-1.14-.33-1.12-1a1.09 1.09 0 0 1 1.23-1.12 1 1 0 0 1 .94 1.11c.01.65-.5.87-1.05 1.01z"/></g></g></svg>