<svg xmlns="http://www.w3.org/2000/svg" viewBox="0 0 52.78 52.67"><defs><style>.cls-1{fill:#fff;opacity:.6}</style></defs><title>7</title><g id="Слой_2" data-name="Слой 2"><path class="cls-1" d="M26.6 52.67a26.34 26.34 0 1 1 26.18-26.5 26.27 26.27 0 0 1-26.18 26.5zm2.65-36.47H18.33A3.76 3.76 0 0 0 15 20.39c.27 1.79 1.89.87 2.9.88 5.61.09 11.23.14 16.84.07 1.51 0 1.59.44 1.17 1.65-.84 2.39-1.69 4.78-2.33 7.22-.38 1.46-1.13 1.8-2.52 1.78-5.54-.08-11.07 0-16.61 0-3.5 0-3.43 0-4.46 3.4-.45 1.47 0 1.81 1.36 1.81 7.28 0 14.56.08 21.83-.08a7.63 7.63 0 0 0 7.35-5.41q1.82-5 3.33-10.13c1-3.32-.51-5.28-3.95-5.32s-7.1-.05-10.66-.05zm-12.46 8.09a21.52 21.52 0 0 1-3.79 0c-2.56-.47-3.26 1.06-3.82 3.06-.41 1.46.1 1.81 1.46 1.78 3-.06 6 0 9 0a3.6 3.6 0 0 0 3.11-3.89c-.24-1.68-1.74-.71-2.66-.84a23.82 23.82 0 0 0-3.3-.11z" id="контент"/></g></svg>