<svg xmlns="http://www.w3.org/2000/svg" viewBox="0 0 34.14 53.4"><defs><style>.cls-1{fill:#fff;opacity:.6}</style></defs><title>8</title><g id="Слой_2" data-name="Слой 2"><g id="контент"><path class="cls-1" d="M17 0a2 2 0 0 1 1.41 1.12C23.53 9.53 28.67 18 33.86 26.35c.63 1 .13 1.4-.63 1.84L18.09 37a2.16 2.16 0 0 1-2.42-.15C10.76 34 5.87 31.11.92 28.31c-1.15-.65-1.11-1.13-.47-2.18C5.56 17.88 10.59 9.59 15.67 1.31 16 .81 16.18.12 17 0z"/><path class="cls-1" d="M.93 30.95c4.9 2.19 9.33 5.21 14 7.89a3.09 3.09 0 0 0 3.65 0C22.31 36.5 26.14 34.3 30 32.1a8.37 8.37 0 0 1 3-1.41c.31 1-.36 1.6-.78 2.18q-7 9.8-14.12 19.57c-.51.7-.86 1.61-1.82.27-5-7.06-10.12-14.08-15.17-21.12-.11-.16-.11-.44-.11-.66z"/></g></g></svg>