<svg xmlns="http://www.w3.org/2000/svg" viewBox="0 0 54.61 53.72"><defs><style>.cls-1{fill:#fff;opacity:.6}</style></defs><title>9</title><g id="Слой_2" data-name="Слой 2"><path class="cls-1" d="M0 27.06C-.37 12.82 11.74.48 26.57 0s27.58 11.3 28 25.79A27 27 0 0 1 28.3 53.71C12.67 54.14.43 42.6 0 27.06zm12.58-14.85h-3.2c-3.22 0-3.27 0-1.78 2.87q9.26 17.76 18.58 35.5c.28.53.4 1.4 1.16 1.27.38-.07.69-.78.94-1.25Q33.65 40.45 39 30.27c2.79-5.32 5.53-10.66 8.34-16 .77-1.46.66-2.16-1.21-2.09a55.12 55.12 0 0 1-6.16 0 3.27 3.27 0 0 0-3.64 2.23c-2.56 5.44-5.29 10.79-8 16.16-.27.54-.35 1.38-1.07 1.42s-.86-.84-1.12-1.37c-2.35-4.66-4.92-9.23-6.89-14-1.44-3.62-3.38-5.37-6.67-4.41zm30 26.47a3 3 0 0 0 3.15-3.18 2.81 2.81 0 0 0-3.06-2.88 2.94 2.94 0 0 0-3.06 3.14c.06 1.95 1.33 2.69 2.96 2.92zM30.24 20.53c0-2.07-1.07-3.22-2.88-3.27a2.79 2.79 0 0 0-3.12 3 2.78 2.78 0 0 0 3 2.92 2.75 2.75 0 0 0 3-2.65z" id="контент"/></g></svg>