<?xml version="1.0" encoding="utf-8"?>
<!-- Generator: Adobe Illustrator 17.1.0, SVG Export Plug-In . SVG Version: 6.00 Build 0)  -->
<!DOCTYPE svg PUBLIC "-//W3C//DTD SVG 1.1//EN" "http://www.w3.org/Graphics/SVG/1.1/DTD/svg11.dtd" [
	<!ENTITY ns_flows "http://ns.adobe.com/Flows/1.0/">
	<!ENTITY ns_extend "http://ns.adobe.com/Extensibility/1.0/">
	<!ENTITY ns_ai "http://ns.adobe.com/AdobeIllustrator/10.0/">
	<!ENTITY ns_graphs "http://ns.adobe.com/Graphs/1.0/">
	<!ENTITY ns_vars "http://ns.adobe.com/Variables/1.0/">
	<!ENTITY ns_imrep "http://ns.adobe.com/ImageReplacement/1.0/">
	<!ENTITY ns_sfw "http://ns.adobe.com/SaveForWeb/1.0/">
	<!ENTITY ns_custom "http://ns.adobe.com/GenericCustomNamespace/1.0/">
	<!ENTITY ns_adobe_xpath "http://ns.adobe.com/XPath/1.0/">
]>
<svg version="1.1" id="Layer_1" xmlns:x="&ns_extend;" xmlns:i="&ns_ai;" xmlns:graph="&ns_graphs;"
	 xmlns="http://www.w3.org/2000/svg" xmlns:xlink="http://www.w3.org/1999/xlink" xmlns:a="http://ns.adobe.com/AdobeSVGViewerExtensions/3.0/"
	 x="0px" y="0px" viewBox="0 0 200 200" enable-background="new 0 0 200 200" xml:space="preserve">
<metadata>
	<sfw  xmlns="&ns_sfw;">
		<slices></slices>
		<sliceSourceBounds  width="1020" height="810" x="10" y="-820" bottomLeftOrigin="true"></sliceSourceBounds>
	</sfw>
</metadata>
<g>
	<path opacity="0.4" fill="#FFFFFF" d="M108.9158401,127.2362137c-5.389183,0.0847931-5.3889542,0.0848389-6.4542999,5.3202438
		c-0.0605698,0.2976227-0.1388245,0.5917816-0.1938019,0.8903351c-1.0139084,5.5064087-1.009201,5.4741821-6.6819763,4.7335663
		c-1.2130432-0.158371-1.5275955-0.5076752-1.2714386-1.7547913c0.5377655-2.6181183,0.877533-5.2769623,1.2961197-7.9194641
		c0.0589523-0.3721466,0.2848206-0.8706894,0.1271057-1.1003036c-1.3293991-1.9352188-3.5029144-0.8413544-5.2505264-1.3452377
		c-0.9792252-0.282341-1.6955872,0.2855072-1.8672943,1.4613342c-0.3971634,2.7198029-0.9479599,5.4176941-1.3206863,8.1403046
		c-0.1714706,1.2525482-0.6247253,1.6740417-1.9341583,1.556778c-5.5784073-0.4995575-5.58255-0.4617767-4.7363205-6.0410614
		c0.2062912-1.3601074,0.3060532-2.7493134,0.6577225-4.0711517c0.4475403-1.6821213-0.2445602-2.1982422-1.7911682-2.3280182
		c-4.0336075-0.3384399-8.0552826-0.8315659-12.0922318-1.11129c-1.5837631-0.1097412-1.8132172-0.6102829-1.232605-1.9719772
		c0.7470322-1.7519913,0.9415741-3.9540482,2.1455612-5.2399216c1.3636475-1.4563904,3.5959702-0.0263672,5.460289-0.1184311
		c2.5161057-0.1242523,3.6630554-0.8616943,4.0857925-3.3820419c1.5931931-9.4986343,3.1727295-18.9997864,4.6923904-28.5103912
		c0.5762405-3.6062622-0.387825-4.8837128-4.0061646-5.5321808c-1.2726593-0.2280807-2.5824966-0.2629547-3.8779526-0.3454361
		c-1.2379303-0.0788193-1.6507874-0.48983-1.4332428-1.887764c0.8049927-5.1729507,0.7348099-5.170845,5.9058075-4.6631165
		c2.966713,0.2912979,5.9534912,0.4242706,8.9021988,0.8362656c1.8693695,0.2612076,2.4562454-0.5217819,2.6741791-2.1758347
		c0.329361-2.4997177,0.8321838-4.9762344,1.1831512-7.4735909c0.1751709-1.2463913,0.6945343-1.7669449,1.9855194-1.4779243
		c0.7392883,0.1655121,1.5147247,0.1760101,2.2753372,0.2387886c3.4453888,0.284359,3.4420395,0.281517,2.8478928,3.8039665
		c-0.3302917,1.9582367-0.6498871,3.9182968-0.9660492,5.8788681c-0.0603104,0.3739548-0.2604752,0.8887634-0.0934067,1.1102448
		c1.4032593,1.8601761,3.5280762,0.7504349,5.2929611,1.1868362c1.1310196,0.2796707,1.6199265-0.3842621,1.7883987-1.4999542
		c0.3994293-2.6452866,0.9579849-5.2672501,1.3274765-7.9160538c0.1632309-1.1701241,0.5976944-1.4926186,1.777504-1.4481277
		c5.7282257,0.2159843,5.7285461,0.1795654,4.8625946,5.7028046c-0.1894379,1.2082825-0.2121811,2.4690628-0.5854416,3.6166229
		c-0.7479477,2.2995148,0.3785934,2.936203,2.368042,3.3264618c4.2184448,0.8275146,8.3817139,1.921257,11.6091537,5.0290222
		c5.0116882,4.8258591,3.8231049,13.6566849-2.223259,17.1202698c-0.884285,0.5065613-2.4413376,0.6626129-2.4180832,1.7783966
		c0.0245895,1.1804123,1.6362305,1.1512222,2.5408936,1.6113434c7.2631531,3.6941757,7.3257141,10.4720001,4.2798462,16.7594223
		c-3.8598328,7.9676819-11.2358322,8.6997375-18.7385788,9.2095261
		C109.5286865,127.2542419,109.2216492,127.2362137,108.9158401,127.2362137z"/>
	<path fill="#FFFFFF" d="M98.3136292,118.7488251c-1.3427658-0.123909-3.6956863-0.3778305-6.0547867-0.543869
		c-1.258728-0.0886078-1.7935944-0.5904083-1.576767-1.8925858c0.7014999-4.2129593,1.3568878-8.4335632,2.0455627-12.6486893
		c0.1769638-1.0830917,0.8588257-1.5912704,1.9478302-1.4765244c4.5442352,0.4788284,9.1331253,0.6730881,13.5284042,2.1125946
		c1.3876648,0.4544754,2.7257919,1.0225677,3.9136276,1.8719025c4.2865601,3.0649719,3.616066,8.8183594-1.342598,11.0578232
		C107.1386414,118.871727,103.2358093,118.9404144,98.3136292,118.7488251z"/>
	<path fill="#FFFFFF" d="M101.790535,96.2390213c-1.9162292-0.1292496-3.8209839-0.247818-5.7239914-0.389801
		c-1.1557617-0.0862198-1.8238144-0.4942627-1.5705872-1.888588c0.6819458-3.7551117,1.2684937-7.5277481,1.8704147-11.29702
		c0.1277847-0.8001785,0.5289383-1.3048477,1.3372421-1.2727203c4.6627731,0.1854019,9.3114929,0.5172806,13.5653229,2.705719
		c2.2699356,1.167778,3.6720963,2.939743,3.4638901,5.6728058c-0.2061081,2.7056885-1.936821,4.2390213-4.1687241,5.2904434
		C107.7779617,96.3723679,104.7567368,96.1671295,101.790535,96.2390213z"/>
	<path fill="#FFFFFF" d="M151.3545685,27.517458c-4.6302032-6.1352177-10.0840454-11.4440651-16.0552063-16.2641201
		c-2.110733-1.7037973-1.962326-1.7979012-3.2571411,0.5109882c-6.7262955,11.9940605-15.5024261,21.8792133-28.242485,27.8130512
		c-12.9376526,6.0258102-26.1109848,11.6220703-37.8950653,19.8543739
		c-9.2435722,6.4575996-18.1443024,13.3610649-24.6393433,22.7243538
		c-8.342968,12.0271912-10.6807232,25.471489-8.101429,39.7532501c2.1530762,11.9219284,7.4731865,22.0853043,17.5332375,29.3164749
		c1.1601028,0.8338776,0.8805084,1.5218201,0.4263,2.4815826c-1.3052444,2.7581635-2.6342468,5.5079193-3.8356895,8.3116608
		c-2.6465759,6.176239-5.417469,12.3049622-7.2177811,18.8116608c-0.5843811,2.1122131-0.0718536,3.6195068,1.6613693,5.0034943
		c3.3779449,2.697464,7.2406197,3.8153992,11.4560318,4.1142426c2.7839241,0.1972961,3.1791725-0.0631104,3.7006683-2.7401733
		c1.8601418-9.5491486,4.3424454-18.8969116,8.8860435-27.5868378c0.6304779-1.2058716,1.2213364-1.9468842,2.80233-1.5000153
		c5.2065659,1.4718781,10.5512009,1.6184998,15.2400208,1.3897095c17.8338165-0.0450592,31.4065552-4.5596008,43.308754-11.5094757
		C169.4805298,123.2698593,180.879364,66.6394424,151.3545685,27.517458z M128.5716858,118.0240097
		c-3.8598404,7.9676971-11.2358398,8.6997375-18.7385941,9.209549c-0.3043976,0.0206833-0.6114273,0.0026398-0.9172516,0.0026398
		c-5.3891678,0.0848007-5.3889465,0.0848541-6.4542999,5.3202286c-0.0605621,0.2976074-0.1388321,0.5917969-0.1937866,0.8903656
		c-1.0139313,5.5063629-1.0092239,5.4741974-6.6819916,4.7335815c-1.2130432-0.1584015-1.5275803-0.5076904-1.2714386-1.7548065
		c0.5377731-2.6181641,0.8775406-5.2769623,1.2961273-7.9194946c0.0589371-0.3721619,0.2848129-0.8706512,0.1270905-1.1002731
		c-1.3293991-1.9352188-3.5029068-0.8413391-5.2505035-1.3452072c-0.9792404-0.2823715-1.69561,0.2855072-1.8673172,1.4612808
		c-0.3971558,2.7198257-0.9479599,5.4176865-1.3206787,8.1403275c-0.1714783,1.2525482-0.6247101,1.6740265-1.9341583,1.556778
		c-5.5784073-0.4995575-5.58255-0.4617767-4.7363129-6.0411072c0.2062836-1.3600616,0.3060455-2.7492523,0.6577148-4.0710907
		c0.4475479-1.682106-0.2445602-2.1982498-1.7911758-2.3280029c-4.0335922-0.3384705-8.055275-0.8316345-12.0922241-1.1113129
		c-1.5837708-0.1097412-1.8132019-0.6103058-1.232605-1.9719849c0.7470322-1.7519989,0.9415741-3.9540634,2.1455688-5.2399139
		c1.3636398-1.456398,3.5959702-0.0263367,5.460289-0.1184845c2.516098-0.1241989,3.6630554-0.8616791,4.0858002-3.3820343
		c1.5931854-9.4985886,3.1727219-18.9997559,4.6923752-28.5103989c0.5762558-3.6062241-0.387825-4.883667-4.0061569-5.5321426
		c-1.2726517-0.2281113-2.5825119-0.2629776-3.8779449-0.3454208c-1.2379303-0.0788574-1.6508026-0.4897995-1.4332581-1.8877487
		c0.804985-5.1729813,0.7348175-5.1708527,5.9058151-4.6631775c2.9667206,0.2913437,5.9534836,0.4242859,8.9021835,0.8362961
		c1.8693924,0.2612381,2.4562683-0.5217514,2.6741791-2.1758347c0.3293686-2.499733,0.8321991-4.9762573,1.1831741-7.4735832
		c0.175148-1.2463913,0.6945114-1.766964,1.9855194-1.4779243c0.7392731,0.1655083,1.5147171,0.1759911,2.2753143,0.2387657
		c3.4453964,0.2843857,3.4420395,0.2815247,2.8479004,3.8039665c-0.3302841,1.958252-0.6498718,3.9182968-0.9660416,5.8788528
		c-0.0603027,0.3739471-0.2604752,0.8888016-0.093399,1.1103058c1.4032364,1.8601151,3.5280685,0.7503662,5.2929611,1.1868134
		c1.131012,0.2796783,1.6199188-0.3842697,1.7883987-1.4999542c0.3994217-2.6452866,0.9579697-5.2672577,1.3274612-7.9160233
		c0.1632385-1.170166,0.5976944-1.4926643,1.777504-1.4481621c5.7282257,0.2160072,5.7285614,0.1795769,4.8625946,5.7028084
		c-0.1894455,1.2082748-0.2121735,2.4690704-0.5854492,3.6165924c-0.7479324,2.29953,0.3786011,2.9362335,2.3680496,3.3264923
		c4.2184372,0.8275528,8.3817215,1.9212646,11.6091537,5.029007c5.0117035,4.825882,3.8231049,13.6567154-2.2232513,17.1202469
		c-0.8842926,0.5065613-2.44133,0.6626511-2.4180984,1.7783966c0.0246048,1.180481,1.6362305,1.1512222,2.5409012,1.6113739
		C131.5549774,104.9587631,131.6175537,111.7365646,128.5716858,118.0240097z"/>
</g>
</svg>
