<?xml version="1.0" encoding="utf-8"?>
<!-- Generator: Adobe Illustrator 17.1.0, SVG Export Plug-In . SVG Version: 6.00 Build 0)  -->
<!DOCTYPE svg PUBLIC "-//W3C//DTD SVG 1.1//EN" "http://www.w3.org/Graphics/SVG/1.1/DTD/svg11.dtd" [
	<!ENTITY ns_flows "http://ns.adobe.com/Flows/1.0/">
	<!ENTITY ns_extend "http://ns.adobe.com/Extensibility/1.0/">
	<!ENTITY ns_ai "http://ns.adobe.com/AdobeIllustrator/10.0/">
	<!ENTITY ns_graphs "http://ns.adobe.com/Graphs/1.0/">
	<!ENTITY ns_vars "http://ns.adobe.com/Variables/1.0/">
	<!ENTITY ns_imrep "http://ns.adobe.com/ImageReplacement/1.0/">
	<!ENTITY ns_sfw "http://ns.adobe.com/SaveForWeb/1.0/">
	<!ENTITY ns_custom "http://ns.adobe.com/GenericCustomNamespace/1.0/">
	<!ENTITY ns_adobe_xpath "http://ns.adobe.com/XPath/1.0/">
]>
<svg version="1.1" id="Layer_1" xmlns:x="&ns_extend;" xmlns:i="&ns_ai;" xmlns:graph="&ns_graphs;"
	 xmlns="http://www.w3.org/2000/svg" xmlns:xlink="http://www.w3.org/1999/xlink" xmlns:a="http://ns.adobe.com/AdobeSVGViewerExtensions/3.0/"
	 x="0px" y="0px" viewBox="0 0 200 200" enable-background="new 0 0 200 200" xml:space="preserve">
<metadata>
	<sfw  xmlns="&ns_sfw;">
		<slices></slices>
		<sliceSourceBounds  width="1020" height="810" x="10" y="-820" bottomLeftOrigin="true"></sliceSourceBounds>
	</sfw>
</metadata>
<g>
	<path fill="#FFFFFF" d="M190,99.6399994c0,0.0800018,0,0.159996,0,0.2399979
		c-0.216507,0.0423431-0.2321167,0.2543335-0.3139801,0.3969421c-13.114563,22.8467865-26.2233582,45.6968613-39.3352051,68.5452194
		c-1.619873,2.8227539-3.2549133,5.6367798-4.8829193,8.4548645c-2.7772217,0.0001526-5.5544586-0.0005951-8.3316956,0.0006256
		c-9.5315628,0.0041656-19.0631332,0.007431-28.5947037,0.0142059c-6.1543655,0.0043793-12.3087234,0.0136108-18.4630814,0.0245667
		c-0.2136688,0.0003815-0.4415741-0.0631409-0.6384125,0.0835724c-10.6800003,0-21.3600006,0-32.0400009,0
		c-0.1181145-0.2566681,0.1179352-0.3897095,0.2149658-0.5560303c14.8159714-25.397644,29.6369934-50.7923431,44.4713593-76.1792374
		c0.2733307-0.4677505,0.2951431-0.8003464,0.0205765-1.2811356C88.3784027,75.3432922,74.6630096,51.2955246,60.9528008,27.2447891
		c-0.8780251-1.5402508-1.82024-3.0454159-2.5928001-4.6447887c3.5200005,0,7.0400009,0,10.5599976,0
		c0.1746368,0.145031,0.3830795,0.0829926,0.5762329,0.083746c5.2528,0.0205021,10.5056,0.0406151,15.7584152,0.0517464
		c1.596817,0.0033855,3.1936951-0.019907,4.7905502-0.0309811c8.9587555,0.0339394,17.9175034,0.072155,26.8762817,0.1006317
		c9.2592926,0.0294304,18.518631,0.0536823,27.7779541,0.0609646c0.4667511,0.0003662,0.7012329,0.1480999,0.9301147,0.5419903
		c13.5787354,23.3690243,27.1676025,46.7321548,40.7584839,70.0941238
		C187.5817413,95.5541153,188.7955322,97.5943527,190,99.6399994z M102.5984879,151.5090332
		c4.2051239,0,8.2637482-0.0084991,12.322319,0.002182c4.9785919,0.0130768,9.9572067,0.0348206,14.9355927,0.0773468
		c0.4334412,0.0037079,0.5822601-0.2140656,0.7585144-0.5170441c9.8524017-16.9372711,19.7073364-33.8730621,29.5721588-50.8030777
		c0.207016-0.3552628,0.2086334-0.6077652-0.0011902-0.9635086c-9.9447632-16.8605957-19.8800507-33.7267914-29.8071594-50.5977898
		c-0.1944275-0.3304214-0.3855896-0.4656677-0.7879639-0.4619751c-8.3366852,0.0764732-16.6735382,0.1346588-25.0103607,0.1954918
		c-0.5643005,0.0041161-1.1286697,0.0005341-1.7963333,0.0005341c0.1698227,0.3099976,0.2610855,0.4830627,0.3581238,0.6528282
		c9.5747986,16.7507133,19.1487503,33.5019264,28.7329483,50.2472572c0.2300415,0.4019318,0.2639008,0.6977844,0.0191345,1.1235657
		c-8.8395691,15.3764572-17.6640625,30.7615814-26.4902573,46.1457062
		C104.492485,148.1993561,103.5832672,149.7894745,102.5984879,151.5090332z"/>
	<path opacity="0.6" fill="#FFFFFF" d="M10,99.5199966c1.2559385-2.1580658,2.5202665-4.3113022,3.766449-6.4749832
		c7.8610287-13.6487198,15.7178497-27.2998505,23.576458-40.9499588
		c4.1586952-7.2234955,8.3181419-14.4465561,12.4774475-21.6697006c0.1790314-0.3109093,0.3600845-0.620657,0.5910454-1.0185432
		c0.3470573,0.6056519,0.6646652,1.1485348,0.9716568,1.6973534c4.50811,8.0592308,9.0116425,16.1210327,13.5313416,24.1737595
		c0.2227936,0.3969498,0.1596985,0.6713409-0.0489883,1.0333862C56.6700859,70.5287476,48.4857826,84.752533,40.2886086,98.9689102
		c-0.2152672,0.3733215-0.2307014,0.6394882-0.0122337,1.0226974c6.5533905,11.4952545,13.0930443,22.9983292,19.6347694,34.5002289
		c1.5415421,2.7104187,3.0771332,5.4242401,4.6315804,8.1272278c0.1857758,0.3230438,0.1668701,0.5594635-0.0149918,0.8710632
		c-4.8465767,8.3036346-9.6840591,16.6125641-14.524086,24.9200287c-0.0484314,0.0831146-0.110218,0.1584473-0.2248993,0.3214722
		c-0.4505081-0.77565-0.8687897-1.4897766-1.2814293-2.2071381c-9.9364014-17.2744141-19.8723164-34.5490723-29.8080177-51.8238602
		c-2.7903337-4.8514404-5.5795059-9.7035522-8.3704844-14.5546112C10.2194805,99.9733582,10.1065807,99.8084946,10,99.6399994
		C10,99.6000061,10,99.5599976,10,99.5199966z"/>
	<path fill="#FFFFFF" d="M145.4678955,177.2770233c0.0040283,0.0409851,0.0080566,0.0819855,0.0121002,0.1229706
		c-18.6800003,0-37.359993,0-56.0399933,0c0.1968384-0.1467133,0.4247437-0.0831909,0.6384125-0.0835724
		c6.1543579-0.0109558,12.3087158-0.0201874,18.4630814-0.0245667c9.5315704-0.0067749,19.0631409-0.0100403,28.5947037-0.0142059
		C139.9134369,177.2764282,142.6906738,177.2771759,145.4678955,177.2770233z"/>
	<path fill="#FFFFFF" d="M90.0400009,22.6000004c-0.0050583,0.0351963-0.003273,0.0700417,0.0052795,0.1045227
		c-1.5969391,0.0110626-3.1938171,0.0343552-4.7906342,0.0309696c-5.2528152-0.0111313-10.5056152-0.0312443-15.7584152-0.0517464
		c-0.1931534-0.0007534-0.4015961,0.061285-0.5762329-0.083746C75.9599991,22.6000004,83,22.6000004,90.0400009,22.6000004z"/>
</g>
</svg>
