<?xml version="1.0" encoding="utf-8"?>
<!-- Generator: Adobe Illustrator 17.1.0, SVG Export Plug-In . SVG Version: 6.00 Build 0)  -->
<!DOCTYPE svg PUBLIC "-//W3C//DTD SVG 1.1//EN" "http://www.w3.org/Graphics/SVG/1.1/DTD/svg11.dtd" [
	<!ENTITY ns_flows "http://ns.adobe.com/Flows/1.0/">
	<!ENTITY ns_extend "http://ns.adobe.com/Extensibility/1.0/">
	<!ENTITY ns_ai "http://ns.adobe.com/AdobeIllustrator/10.0/">
	<!ENTITY ns_graphs "http://ns.adobe.com/Graphs/1.0/">
	<!ENTITY ns_vars "http://ns.adobe.com/Variables/1.0/">
	<!ENTITY ns_imrep "http://ns.adobe.com/ImageReplacement/1.0/">
	<!ENTITY ns_sfw "http://ns.adobe.com/SaveForWeb/1.0/">
	<!ENTITY ns_custom "http://ns.adobe.com/GenericCustomNamespace/1.0/">
	<!ENTITY ns_adobe_xpath "http://ns.adobe.com/XPath/1.0/">
]>
<svg version="1.1" id="Layer_1" xmlns:x="&ns_extend;" xmlns:i="&ns_ai;" xmlns:graph="&ns_graphs;"
	 xmlns="http://www.w3.org/2000/svg" xmlns:xlink="http://www.w3.org/1999/xlink" xmlns:a="http://ns.adobe.com/AdobeSVGViewerExtensions/3.0/"
	 x="0px" y="0px" viewBox="0 0 200 200" enable-background="new 0 0 200 200" xml:space="preserve">
<metadata>
	<sfw  xmlns="&ns_sfw;">
		<slices></slices>
		<sliceSourceBounds  width="1020" height="810" x="10" y="-820" bottomLeftOrigin="true"></sliceSourceBounds>
	</sfw>
</metadata>
<g>
	<path opacity="0.7" fill="#FFFFFF" d="M183.8122711,86.6469803c0.0016022-1.4988937-0.4810638-2.6212845-1.4793243-3.7302551
		c-5.0964966-5.6615448-10.1112213-11.3965988-15.1838837-17.0797501c-1.0276947-1.1514282-2.047287-2.3563499-3.8471527-2.346302
		c-12.100708,0.0673828-24.2015533,0.1091156-36.3023682,0.1591797c-0.9799652-0.0636711-1.9599228-0.182415-2.939888-0.1826553
		c-12.4252701-0.0027771-24.8510208,0.0698891-37.2754135-0.0301476c-2.3564682-0.0189781-4.0509949,0.6753693-5.5832748,2.4079208
		c-4.7852325,5.4106903-9.5684814,10.8290176-14.5400543,16.0663223c-2.2941818,2.4167938-2.1702499,5.1764069-1.9366302,8.0182266
		c0.1211853,1.473793,1.1284256,2.1870956,2.7475204,2.1592712c4.2775574-0.0735092,8.5576477-0.043602,12.8360519,0.0045547
		c0.9872055,0.0111084,1.7263641-0.265152,2.3723373-1.0052795c1.8345184-2.1018753,3.8667755-4.053833,5.5093384-6.2935181
		c1.3600311-1.8544083,2.848793-2.559166,5.1600876-2.5404205c11.1865158,0.0907364,22.3744812-0.0002441,33.5619659-0.0269241
		c7.897728,0.0297241,15.8051834,0.3079453,23.6896896-0.0000839c5.0845642-0.1986542,9.4377747,0.3351593,12.0938873,5.2952042
		c0.2603302,0.4861374,0.7537231,0.878273,1.207489,1.2241211c1.2910461,0.9840088,1.6228638,2.2423706,1.6193542,3.8500824
		c-0.0488892,22.5431671-0.0504456,45.0865173-0.0005646,67.6296844c0.0040131,1.8161621-0.3466034,3.2072754-1.6499023,4.6069489
		c-1.45047,1.5578003-3.0596619,3.0177155-4.2928925,4.7361755c-1.0193939,1.4205627-2.1686554,1.6663208-3.7439575,1.6585846
		c-7.9798737-0.0390472-15.9601898,0.0170898-23.9403381,0.0398407c-11.7617569-0.0278778-23.538002-0.4064178-35.2786102,0.0782166
		c-5.134613,0.2119598-8.407074-1.6863556-11.1153641-5.4416809c-0.8805313-1.2209778-2.0261612-2.1365204-2.9716339-3.2619019
		c-0.7446518-0.886322-1.72229-1.2234497-2.8399124-1.2236938c-3.9489136-0.0007324-7.8981018-0.0171356-11.8466187,0.0240173
		c-1.1806335,0.0123138-2.2736053,0.3363342-2.8850327,1.5248566c-0.8995132,1.7485046-0.236908,6.3906555,1.1265335,7.9118805
		c4.2175369,4.7055054,8.4454269,9.4020996,12.6353226,14.1321716c4.3775253,4.9419098,4.3602982,4.9572449,10.9794464,4.9629669
		c1.974472,0.0017548,3.9489441,0.0081482,5.9233856,0.0039215c12.0908585-0.026062,24.1817169-0.0546112,36.2725754-0.0823212
		c10.6208649,0.0249939,21.2418823,0.0290375,31.8624268,0.1036987c1.2095947,0.0084381,1.9795685-0.4517975,2.7264557-1.2943115
		c5.2730255-5.9475555,10.5490265-11.8928223,15.878479-17.7897339c1.0017853-1.108429,1.446579-2.266037,1.4453735-3.7441101
		C183.7855377,140.3301697,183.7835388,113.4885559,183.8122711,86.6469803z"/>
	<path fill="#FFFFFF" d="M115.2915268,136.2033997c1.2140045,0.0072327,1.9997253-0.5347748,2.7379837-1.352066
		c4.9459839-5.4753876,9.8069916-11.0318375,14.8895264-16.3776245c2.2153015-2.3300323,2.694397-4.9075089,2.4248505-7.8688202
		c-0.1640778-1.8021393-0.8569183-2.811615-2.9177246-2.7440796c-3.7846527,0.1240845-7.5831146,0.1791534-11.3620453-0.0109558
		c-2.1091156-0.1060944-3.5915375,0.5396957-4.8830948,2.1242981c-1.555748,1.9086838-3.367363,3.6208038-4.8091965,5.6061707
		c-0.9922485,1.3662796-2.0531693,1.8237457-3.6941681,1.8175278c-9.5526733-0.0360641-19.1057053,0.0323486-28.6586761,0.065361
		c-0.9838562-0.0495453-1.9677429-0.1420364-2.9516602-0.1422501c-10.71064-0.0022049-21.4213142,0.0117722-32.131958,0.0171127
		c-2.7051506,0.0013275-9.3547478-6.3986588-9.4655838-9.1243286c-0.0401649-0.9869614-0.0228119-1.9775772,0.0021706-2.9656601
		c0.1248398-4.9371414,0.3506775-9.873497,0.3762665-14.8110046c0.0772171-14.9120941,0.3346786-29.8306503-0.0161743-44.7339973
		c-0.142189-6.0394402,0.803524-10.970005,5.6738586-15.022419c1.5365562-1.2785244,2.7413292-1.9087181,4.6332092-1.9051571
		c12.9323463,0.0243816,25.8648109-0.0270977,38.797245-0.0541363c7.9900436,0.0226631,15.9802933,0.0814457,23.9699173,0.0347023
		c1.4413223-0.008419,2.4660645,0.3756008,3.4153061,1.4613304c2.0556183,2.3512154,4.2528458,4.5782013,6.3296738,6.9116135
		c0.8298416,0.9323463,1.7820358,1.4124756,3.0034714,1.4139824c3.954071,0.0048904,7.9084167,0.036274,11.86203-0.005249
		c1.2408752-0.0130043,2.4120483-0.2187767,3.0072784-1.6460686c0.866745-2.0783958,0.2962646-6.2209167-1.217392-7.8856907
		c-5.4058685-5.9455929-10.8317947-11.8731403-16.1926422-17.8590164c-0.7410583-0.8274546-1.4775314-1.1490088-2.5464859-1.1440001
		c-10.5435867,0.0493078-21.0873566,0.064456-31.6310349,0.0892611
		c-15.8967972-0.0237789-31.7935638-0.0381727-47.6902428-0.0922184c-1.0712433-0.0036507-1.6585579,0.5985699-2.2590294,1.2650957
		c-4.5095196,5.0056419-9.1279144,9.9210281-13.4446106,15.0882339c-1.5000458,1.7955875-3.8687954,3.1371498-3.8671646,6.0421238
		c0.0149364,27.0149651,0.1709461,54.0311432-0.48526,81.0419693c-0.0271282,1.1165695,0.1638851,2.1440048,0.9043732,2.9782715
		c5.5087051,6.2064056,11.0447788,12.3885193,16.5447044,18.6026154c0.7864151,0.888504,1.7031898,1.1670532,2.8355103,1.1554718
		c2.8829765-0.0295105,5.7665596,0.0079651,8.649868,0.0005646c11.2826271-0.0289307,22.5652542-0.0649109,33.8478851-0.0982513
		C91.0788803,136.1110535,103.1853409,136.131424,115.2915268,136.2033997z"/>
</g>
</svg>
