<?xml version="1.0" encoding="utf-8"?>
<!-- Generator: Adobe Illustrator 17.1.0, SVG Export Plug-In . SVG Version: 6.00 Build 0)  -->
<!DOCTYPE svg PUBLIC "-//W3C//DTD SVG 1.1//EN" "http://www.w3.org/Graphics/SVG/1.1/DTD/svg11.dtd" [
	<!ENTITY ns_flows "http://ns.adobe.com/Flows/1.0/">
	<!ENTITY ns_extend "http://ns.adobe.com/Extensibility/1.0/">
	<!ENTITY ns_ai "http://ns.adobe.com/AdobeIllustrator/10.0/">
	<!ENTITY ns_graphs "http://ns.adobe.com/Graphs/1.0/">
	<!ENTITY ns_vars "http://ns.adobe.com/Variables/1.0/">
	<!ENTITY ns_imrep "http://ns.adobe.com/ImageReplacement/1.0/">
	<!ENTITY ns_sfw "http://ns.adobe.com/SaveForWeb/1.0/">
	<!ENTITY ns_custom "http://ns.adobe.com/GenericCustomNamespace/1.0/">
	<!ENTITY ns_adobe_xpath "http://ns.adobe.com/XPath/1.0/">
]>
<svg version="1.1" id="Layer_1" xmlns:x="&ns_extend;" xmlns:i="&ns_ai;" xmlns:graph="&ns_graphs;"
	 xmlns="http://www.w3.org/2000/svg" xmlns:xlink="http://www.w3.org/1999/xlink" xmlns:a="http://ns.adobe.com/AdobeSVGViewerExtensions/3.0/"
	 x="0px" y="0px" viewBox="0 0 200 200" enable-background="new 0 0 200 200" xml:space="preserve">
<metadata>
	<sfw  xmlns="&ns_sfw;">
		<slices></slices>
		<sliceSourceBounds  width="1020" height="810" x="10" y="-820" bottomLeftOrigin="true"></sliceSourceBounds>
	</sfw>
</metadata>
<g>
	<path fill="#FFFFFF" d="M100,10c-49.7056274,0-90,40.2943726-90,90s40.2943726,90,90,90s90-40.2943726,90-90S149.7056274,10,100,10
		z M71.5228882,135.0067749c-1.6859741,0.8644409-3.0068359,1.541626-4.5053101,2.3098755
		c-10.6273193-17.2849121-21.2088623-34.4953003-31.9358521-51.9422607
		c3.989502,1.6608887,7.6207886,3.3421021,11.3699341,4.6968994c6.9780884,2.5216064,14.1165161,4.1781616,21.6432495,3.3162231
		c4.0511475-0.4639282,7.6235962-2.022644,10.8684692-4.4004517c7.4624634-5.4685059,12.807312-12.7767944,17.6762695-20.4854736
		c1.1616211-1.8392334,2.2337036-3.7351074,3.473999-5.8182983c0.8908691,1.5158081,1.7514038,2.8659668,2.4754028,4.2857666
		c0.2005615,0.3933105,0.1771851,1.1017456-0.0499268,1.4830933c-6.4226685,10.7841187-13.9770508,20.546875-25.1275635,26.8895874
		c-6.8673096,3.90625-14.2678223,3.6499634-21.7144775,2.2694702c-2.7883301-0.5169678-5.5261841-1.3058472-8.6456909-2.0571289
		C55.2807007,108.8213501,63.34375,121.8204956,71.5228882,135.0067749z M133.3511963,137.0922241
		c-3.4198608-1.3740234-6.6745605-2.9213257-10.0768433-4.005249c-11.7890015-3.7556763-23.8544312-4.2818604-36.0128174-2.3860474
		c-2.1806641,0.3400269-3.3143311-0.06073-4.0240479-2.0491333c-0.2436523-0.6828003-0.6618042-1.3032837-1.1374512-2.215271
		c16.9076538-3.0165405,33.2156372-2.4061279,49.2583618,4.2907104
		c7.1963501-11.6010742,14.4075928-23.2261963,21.6188354-34.8513184c0.0186768-0.2032471,0.0373535-0.4064331,0.0560303-0.6096802
		c-17.385376,6.536377-32.1657104,3.4171753-43.8651123-11.4153442c0.725647-1.2192993,1.5229492-2.55896,2.5117188-4.2202759
		c0.4442749,0.5921021,0.7589722,1.0303955,1.0927734,1.4536133c9.423645,11.9470825,21.4815063,15.2163086,35.7662354,10.6300659
		c5.4997559-1.7658081,10.8641968-3.953064,16.3793945-5.980957
		C154.4494019,102.7658691,143.8952637,119.9372559,133.3511963,137.0922241z"/>
	<path opacity="0.5" fill="#FFFFFF" d="M148.5388794,91.7142944c-14.284729,4.5862427-26.3425903,1.3170166-35.7662354-10.6300659
		c-0.3338013-0.4232178-0.6484985-0.8615112-1.0927734-1.4536133c-0.9887695,1.6613159-1.7860718,3.0009766-2.5117188,4.2202759
		c11.6994019,14.8325195,26.4797363,17.9517212,43.8651123,11.4153442
		c-0.0186768,0.2032471-0.0373535,0.4064331-0.0560303,0.6096802
		c-7.2112427,11.6251221-14.4224854,23.2502441-21.6188354,34.8513184
		c-16.0427246-6.6968384-32.350708-7.307251-49.2583618-4.2907104c0.475647,0.9119873,0.8937988,1.5324707,1.1374512,2.215271
		c0.7097168,1.9884033,1.8433838,2.3891602,4.0240479,2.0491333c12.1583862-1.895813,24.2238159-1.3696289,36.0128174,2.3860474
		c3.4022827,1.0839233,6.6569824,2.6312256,10.0768433,4.005249c10.5440674-17.1549683,21.0982056-34.326355,31.5670776-51.3588867
		C159.4030762,87.7612305,154.0386353,89.9484863,148.5388794,91.7142944z"/>
	<path opacity="0.5" fill="#FFFFFF" d="M77.4115601,95.3417358c11.1505127-6.3427124,18.704895-16.1054688,25.1275635-26.8895874
		c0.2271118-0.3813477,0.2504883-1.0897827,0.0499268-1.4830933c-0.723999-1.4197998-1.5845337-2.7699585-2.4754028-4.2857666
		c-1.2402954,2.0831909-2.3123779,3.9790649-3.473999,5.8182983c-4.8689575,7.7086792-10.2138062,15.0169678-17.6762695,20.4854736
		c-3.244873,2.3778076-6.8173218,3.9365234-10.8684692,4.4004517c-7.5267334,0.8619385-14.6651611-0.7946167-21.6432495-3.3162231
		c-3.7491455-1.3547974-7.3804321-3.0360107-11.3699341-4.6968994
		c10.7269897,17.4469604,21.3085327,34.6573486,31.9358521,51.9422607c1.4984741-0.7682495,2.8193359-1.4454346,4.5053101-2.3098755
		c-8.1791382-13.1862793-16.2421875-26.1854248-24.4714966-39.4526978c3.1195068,0.7512817,5.8573608,1.5401611,8.6456909,2.0571289
		C63.1437378,98.9916992,70.5442505,99.2479858,77.4115601,95.3417358z"/>
</g>
</svg>
