<?xml version="1.0" encoding="utf-8"?>
<!-- Generator: Adobe Illustrator 17.1.0, SVG Export Plug-In . SVG Version: 6.00 Build 0)  -->
<!DOCTYPE svg PUBLIC "-//W3C//DTD SVG 1.1//EN" "http://www.w3.org/Graphics/SVG/1.1/DTD/svg11.dtd" [
	<!ENTITY ns_flows "http://ns.adobe.com/Flows/1.0/">
	<!ENTITY ns_extend "http://ns.adobe.com/Extensibility/1.0/">
	<!ENTITY ns_ai "http://ns.adobe.com/AdobeIllustrator/10.0/">
	<!ENTITY ns_graphs "http://ns.adobe.com/Graphs/1.0/">
	<!ENTITY ns_vars "http://ns.adobe.com/Variables/1.0/">
	<!ENTITY ns_imrep "http://ns.adobe.com/ImageReplacement/1.0/">
	<!ENTITY ns_sfw "http://ns.adobe.com/SaveForWeb/1.0/">
	<!ENTITY ns_custom "http://ns.adobe.com/GenericCustomNamespace/1.0/">
	<!ENTITY ns_adobe_xpath "http://ns.adobe.com/XPath/1.0/">
]>
<svg version="1.1" id="Layer_1" xmlns:x="&ns_extend;" xmlns:i="&ns_ai;" xmlns:graph="&ns_graphs;"
	 xmlns="http://www.w3.org/2000/svg" xmlns:xlink="http://www.w3.org/1999/xlink" xmlns:a="http://ns.adobe.com/AdobeSVGViewerExtensions/3.0/"
	 x="0px" y="0px" viewBox="0 0 200 200" enable-background="new 0 0 200 200" xml:space="preserve">
<metadata>
	<sfw  xmlns="&ns_sfw;">
		<slices></slices>
		<sliceSourceBounds  width="1020" height="810" x="10" y="-820" bottomLeftOrigin="true"></sliceSourceBounds>
	</sfw>
</metadata>
<g>
	<path fill="#FFFFFF" d="M150.9265442,74.1455765c-36.8962631,0-73.3546219,0-110.4029312,0
		c1.9696732-5.8384171,3.748085-11.1338348,5.5426903-16.4237633c2.7000122-7.9587364,2.704834-7.9571075,11.014637-7.9571075
		c37.8069382,0.0000038,75.6138687-0.0029221,113.4207993,0.0015106
		c14.5413513,0.0017014,22.7478943,10.6819572,18.2796021,24.5789833
		c-5.5334473,17.2097931-11.3749084,34.3342361-17.6295319,51.2941132
		c-4.9023285,13.2930298-22.0739594,24.7203827-35.9833679,24.5959167
		c-38.8688049-0.3478546-77.7427597-0.1210327-116.6146774-0.1210327c-1.2252312,0-2.4504623,0-4.2911434,0
		c2.8128662-8.1603394,5.3170948-15.6905518,8.1057434-23.1139069c0.2856159-0.7602844,2.2729473-1.239502,3.4731178-1.2444458
		c18.6369362-0.0768661,37.274292-0.0537262,55.9115486-0.0539246c16.1877518-0.0001678,32.3757019-0.0391083,48.5630417,0.0432587
		c2.2652435,0.0115204,3.4470825-0.6799622,4.1937256-2.8807983c5.1602631-15.2106018,10.4360809-30.3819962,15.6569519-45.5720978
		C150.4615326,76.4346466,150.5991211,75.522995,150.9265442,74.1455765z"/>
	<path opacity="0.6" fill="#FFFFFF" d="M82.9506073,89.0705795c-1.9105988,5.3184967-3.7789001,10.6012115-5.7059326,15.8624191
		c-2.3180389,6.3287277-2.3396683,6.3208237-8.9996414,6.320816c-18.0966187-0.0000153-36.1932411-0.0000381-54.2898636-0.000061
		c-1.1340275,0-2.2680531,0-3.9551678,0c2.7262011-7.4842987,5.2192974-14.4598694,7.8671665-21.3761826
		c0.2403316-0.627739,1.4747639-1.2423477,2.2492847-1.2445145c20.5443153-0.057579,41.0888557-0.0350342,61.6333427-0.0103073
		C82.0318527,88.6230927,82.3136749,88.8258896,82.9506073,89.0705795z"/>
</g>
</svg>
