<?xml version="1.0" encoding="utf-8"?>
<!-- Generator: Adobe Illustrator 17.1.0, SVG Export Plug-In . SVG Version: 6.00 Build 0)  -->
<!DOCTYPE svg PUBLIC "-//W3C//DTD SVG 1.1//EN" "http://www.w3.org/Graphics/SVG/1.1/DTD/svg11.dtd" [
	<!ENTITY ns_flows "http://ns.adobe.com/Flows/1.0/">
	<!ENTITY ns_extend "http://ns.adobe.com/Extensibility/1.0/">
	<!ENTITY ns_ai "http://ns.adobe.com/AdobeIllustrator/10.0/">
	<!ENTITY ns_graphs "http://ns.adobe.com/Graphs/1.0/">
	<!ENTITY ns_vars "http://ns.adobe.com/Variables/1.0/">
	<!ENTITY ns_imrep "http://ns.adobe.com/ImageReplacement/1.0/">
	<!ENTITY ns_sfw "http://ns.adobe.com/SaveForWeb/1.0/">
	<!ENTITY ns_custom "http://ns.adobe.com/GenericCustomNamespace/1.0/">
	<!ENTITY ns_adobe_xpath "http://ns.adobe.com/XPath/1.0/">
]>
<svg version="1.1" id="Layer_1" xmlns:x="&ns_extend;" xmlns:i="&ns_ai;" xmlns:graph="&ns_graphs;"
	 xmlns="http://www.w3.org/2000/svg" xmlns:xlink="http://www.w3.org/1999/xlink" xmlns:a="http://ns.adobe.com/AdobeSVGViewerExtensions/3.0/"
	 x="0px" y="0px" viewBox="0 0 200 200" enable-background="new 0 0 200 200" xml:space="preserve">
<metadata>
	<sfw  xmlns="&ns_sfw;">
		<slices></slices>
		<sliceSourceBounds  width="1020" height="810" x="10" y="-820" bottomLeftOrigin="true"></sliceSourceBounds>
	</sfw>
</metadata>
<g>
	<path fill="#FFFFFF" d="M104.5703049,190c-3.046875,0-6.09375,0-9.140625,0
		c-3.1837769-0.385498-6.3861008-0.6576996-9.548233-1.1753693c-17.2849731-2.8297424-32.5926476-9.9454956-45.6370697-21.6491394
		c-16.1853104-14.5216522-25.968771-32.5821838-29.2191048-54.1222305c-0.4075031-2.7005463-0.686657-5.4204559-1.025281-8.1313858
		c0-3.3984375,0-6.796875,0-10.1953125c0.1087437-0.4450226,0.2855864-0.8853989,0.3163109-1.3357391
		c0.8606501-12.6148987,4.1553564-24.5799866,10.2798653-35.6185684
		c14.5537128-26.2310352,36.66996-41.9016037,66.3441162-46.7485313C89.5225449,10.6019411,92.1305237,10.3375168,94.7265549,10
		c3.3984375,0,6.796875,0,10.1953125,0c3.1257935,0.3861246,6.2706146,0.6583147,9.3742447,1.1770468
		c18.7759705,3.1381645,35.0769806,11.266118,48.6479187,24.6322708
		c14.4299927,14.2122383,23.1368713,31.3921967,26.0411682,51.467186c0.3920593,2.7099533,0.6791077,5.4350815,1.0147858,8.153183
		c0,3.046875,0,6.09375,0,9.140625c-0.1152039,0.6268616-0.2682953,1.2494812-0.3390045,1.8813324
		c-0.2798004,2.5008469-0.4105225,5.0247955-0.8169403,7.5040512
		c-3.1347504,19.1227646-11.4155121,35.6887741-25.1048889,49.4146652
		c-14.1789093,14.2167511-31.2685699,22.793869-51.1847076,25.6321411
		C109.8995972,189.3808441,107.2320023,189.6697083,104.5703049,190z M113.3563919,66.1315079
		c0-0.435173,0.0546112-0.7855759-0.0080872-1.1135483c-1.1636047-6.0863686-2.3145981-12.1755486-3.5672531-18.2436981
		c-0.0981369-0.4753876-0.8851471-1.0719986-1.4213638-1.1529922c-5.7073669-0.8620872-11.4213791-0.8431969-17.1376419,0.0194969
		c-1.0593796,0.1598778-1.4261627,0.6198196-1.588974,1.6497536c-0.5841141,3.6951675-1.2879562,7.3712654-1.9283905,11.0577202
		c-0.4450684,2.5618935-0.8603973,5.1289558-1.3039856,7.783268
		C95.5313644,66.1315079,104.4061432,66.1315079,113.3563919,66.1315079z M66.1524124,86.6092834
		c-0.4496613,0-0.7445145-0.0459213-1.0205612,0.0067596c-6.139801,1.1715775-12.2820091,2.3320618-18.406311,3.5802917
		c-0.4420433,0.0900955-1.0084457,0.7955322-1.0821037,1.2808685c-0.8832169,5.819809-0.8993111,11.644371,0.0491295,17.4683914
		c0.1507835,0.9259338,0.5707741,1.2097092,1.4572945,1.3528442c3.8639641,0.6238632,7.71175,1.3472443,11.5684433,2.0170288
		c2.4367943,0.4232254,4.878933,0.8156586,7.4341087,1.2411346C66.1524124,104.4226608,66.1524124,95.605835,66.1524124,86.6092834z
		 M113.5826721,133.8939362c-9.1732788,0-18.0855865,0-27.1723328,0c1.2489471,6.4215698,2.5090485,12.6660614,3.6404724,18.9337616
		c0.203804,1.1290131,0.7312241,1.5382233,1.6836929,1.5617371c4.7297516,0.1167908,9.4734039,0.4449463,14.1870728,0.2052765
		c4.1027069-0.2085876,4.1244659-0.492691,4.8446045-4.4898376
		C111.7297516,144.756546,112.6297531,139.3967743,113.5826721,133.8939362z M133.8469086,86.3722305
		c0,9.1815872,0,18.061409,0,27.0665131c0.6197052-0.0668945,1.1394348-0.0854721,1.6438446-0.1831665
		c5.7403259-1.1119919,11.4699707-2.2824478,17.2239227-3.3181076c1.1653137-0.2097549,1.6696625-0.7098846,1.6902618-1.7704544
		c0.0929871-4.786499,0.3808136-9.584137,0.1577148-14.3571701c-0.1806335-3.8646469-0.4522705-3.8900146-4.1660309-4.5586243
		C144.9354858,88.268013,139.4633179,87.3460922,133.8469086,86.3722305z M129.6565704,87.2661438
		c-8.4267273,4.2542267-16.6438751,8.4026489-25.204422,12.7244339c8.6439133,4.3532486,16.8440857,8.4830246,25.204422,12.6934586
		C129.6565704,104.0803146,129.6565704,95.8140869,129.6565704,87.2661438z M112.7035217,129.6664581
		c-4.290184-8.4982834-8.4263306-16.6914139-12.7272415-25.2109451
		c-4.3477783,8.6262665-8.4820099,16.8288345-12.7067261,25.2109451
		C95.8587265,129.6664581,104.1242218,129.6664581,112.7035217,129.6664581z M87.2525253,70.2778702
		c4.2533569,8.4287338,8.4065094,16.6588974,12.7359619,25.2384186c4.3528976-8.6416016,8.4899445-16.8546982,12.712944-25.2384186
		C104.1025238,70.2778702,95.827179,70.2778702,87.2525253,70.2778702z M70.290329,87.2635422
		c0,8.6001892,0,16.8764191,0,25.4386063c8.4373169-4.2572861,16.666214-8.4094238,25.2197113-12.7253418
		C86.8821869,95.6275024,78.6996384,91.5026779,70.290329,87.2635422z M105.1682663,104.8498535
		c-0.1105881,0.0967102-0.2211761,0.1934052-0.3317719,0.2901077c3.8748703,7.6805115,7.7497406,15.3610229,11.5221481,22.8384399
		c3.9083099-3.9122086,7.7264404-7.7341385,11.6128922-11.6244583
		C120.4708099,112.5698853,112.8195419,108.7098694,105.1682663,104.8498535z M71.8467102,116.4271164
		c3.9836273,3.986702,7.781311,7.787323,11.6928558,11.7018814c3.8495865-7.6416016,7.7290497-15.3424911,11.6085129-23.0433884
		c-0.1159058-0.0797729-0.2318039-0.1595535-0.3477097-0.2393188
		C87.1467896,108.707756,79.4932098,112.5692139,71.8467102,116.4271164z M116.4635468,71.7629318
		c-3.9183807,7.7770615-7.7821655,15.4457626-11.6459579,23.1144638c0.1072083,0.0851135,0.2144165,0.1702347,0.3216248,0.2553482
		c7.682785-3.8777618,15.3655853-7.7555237,23.0443649-11.6312637
		C124.2350464,79.5466995,120.4382706,75.7439346,116.4635468,71.7629318z M94.8530884,95.1436615
		c0.0927277-0.1085358,0.185463-0.2170792,0.2781906-0.3256149c-3.8781433-7.6802292-7.7562866-15.360466-11.599968-22.9724579
		c-3.973587,3.9762878-7.7709732,7.7762451-11.6847763,11.6927032
		C79.4754715,87.3866119,87.1642838,91.2651367,94.8530884,95.1436615z M46.8942757,86.0270233
		c6.2604561-1.2144394,12.3034058-2.3866882,18.4898567-3.5867767c-2.3605881-5.9405136-4.6220131-11.635849-6.8924866-17.3275681
		c-0.0811882-0.2035217-0.2517509-0.3713837-0.3859787-0.5634918
		C53.8655968,68.4653244,48.0311165,79.5695801,46.8942757,86.0270233z M117.5097656,65.3943253
		c6.1540451-2.4518585,12.0431976-4.7981796,18.1941681-7.2488136c-6.5217743-5.4628525-13.5540237-9.2087135-21.7849274-11.3636436
		C115.1396942,53.1092453,116.2966843,59.1064034,117.5097656,65.3943253z M134.5771637,117.5184402
		c2.4429779,6.1335831,4.7846222,12.0127487,7.2351685,18.1653214c5.4893341-6.5050354,9.1963959-13.5514679,11.3721924-21.7693405
		C146.8383942,115.1435928,140.802536,116.3126602,134.5771637,117.5184402z M86.0493393,153.1950073
		c-1.2282181-6.3281403-2.4061813-12.3973694-3.6140823-18.6208038c-6.1820297,2.4666901-12.0531158,4.8093109-18.1690979,7.249649
		C70.8107681,147.3070374,77.8487015,151.0132294,86.0493393,153.1950073z M153.0969238,85.646637
		c-2.2306671-8.0501709-5.8816376-14.9836807-11.2913971-21.3772583c-2.4640656,6.1549835-4.8167725,12.0318222-7.2555847,18.123703
		C140.7506561,83.4808197,146.7618103,84.5353088,153.0969238,85.646637z M46.8681488,114.3250046
		c2.2166519,8.0411301,5.8936882,14.976387,11.2851982,21.3864517c2.4569626-6.1471252,4.8190689-12.0569382,7.2543297-18.1497803
		C59.1058197,116.4614792,53.0910072,115.4114075,46.8681488,114.3250046z M82.4032974,65.4154663
		c1.0996399-6.3089828,2.1480255-12.3239059,3.2094803-18.4138145c-6.3936768,1.2108345-17.1391678,6.8962135-21.1799927,11.2186737
		C70.3911896,60.6059875,76.2725983,62.9608231,82.4032974,65.4154663z M117.5672455,134.5467377
		c-1.0952911,6.2555084-2.1475677,12.2653351-3.2449875,18.5329895c8.0541382-2.1991577,14.9778976-5.8799286,21.3815994-11.2718506
		C129.5456696,139.342392,123.7137833,137.0075531,117.5672455,134.5467377z M79.9970932,68.7817688
		c-6.0528183-2.4131927-12.1248474-4.834053-18.6742897-7.4452438c2.6398964,6.637207,5.0623741,12.7277832,7.4412117,18.7086334
		C72.5226822,76.2763443,76.2142487,72.5748138,79.9970932,68.7817688z M61.5329018,138.126358
		c0.1219025,0.0986786,0.2438011,0.1973724,0.3656998,0.296051c6.0845985-2.4236603,12.1691933-4.8473358,18.0397606-7.1857452
		c-3.7728195-3.7726059-7.467308-7.4668961-11.185524-11.1848984
		C66.3929291,125.9596329,63.9629173,132.042984,61.5329018,138.126358z M138.1030884,138.4288635
		c0.1104126-0.1038513,0.2208252-0.2077026,0.3312378-0.3115387c-2.4211884-6.0933075-4.8424072-12.1865997-7.126236-17.9341507
		c-3.6958771,3.7032166-7.4087448,7.4234695-11.0795441,11.1015549
		C125.9921188,133.5883179,132.0476074,136.0085907,138.1030884,138.4288635z M131.1958618,79.9695969
		c2.4043121-6.0293427,4.8253021-12.1004715,7.4363251-18.6481819c-6.6261292,2.6342621-12.7216492,5.0575752-18.6806717,7.4266167
		C123.6818771,72.4708405,127.3787537,76.1602173,131.1958618,79.9695969z"/>
</g>
</svg>
