<?xml version="1.0" encoding="utf-8"?>
<!-- Generator: Adobe Illustrator 17.1.0, SVG Export Plug-In . SVG Version: 6.00 Build 0)  -->
<!DOCTYPE svg PUBLIC "-//W3C//DTD SVG 1.1//EN" "http://www.w3.org/Graphics/SVG/1.1/DTD/svg11.dtd" [
	<!ENTITY ns_flows "http://ns.adobe.com/Flows/1.0/">
	<!ENTITY ns_extend "http://ns.adobe.com/Extensibility/1.0/">
	<!ENTITY ns_ai "http://ns.adobe.com/AdobeIllustrator/10.0/">
	<!ENTITY ns_graphs "http://ns.adobe.com/Graphs/1.0/">
	<!ENTITY ns_vars "http://ns.adobe.com/Variables/1.0/">
	<!ENTITY ns_imrep "http://ns.adobe.com/ImageReplacement/1.0/">
	<!ENTITY ns_sfw "http://ns.adobe.com/SaveForWeb/1.0/">
	<!ENTITY ns_custom "http://ns.adobe.com/GenericCustomNamespace/1.0/">
	<!ENTITY ns_adobe_xpath "http://ns.adobe.com/XPath/1.0/">
]>
<svg version="1.1" id="Layer_1" xmlns:x="&ns_extend;" xmlns:i="&ns_ai;" xmlns:graph="&ns_graphs;"
	 xmlns="http://www.w3.org/2000/svg" xmlns:xlink="http://www.w3.org/1999/xlink" xmlns:a="http://ns.adobe.com/AdobeSVGViewerExtensions/3.0/"
	 x="0px" y="0px" viewBox="0 0 200 200" enable-background="new 0 0 200 200" xml:space="preserve">
<metadata>
	<sfw  xmlns="&ns_sfw;">
		<slices></slices>
		<sliceSourceBounds  width="1020" height="810" x="10" y="-820" bottomLeftOrigin="true"></sliceSourceBounds>
	</sfw>
</metadata>
<g>
	<path fill="#FFFFFF" d="M99.3007584,18.2169437c2.6360855,1.7405338,3.5355682,4.1982536,3.4833069,7.3220844
		c-0.1254425,7.497406,0.0610733,15.0004616-0.096283,22.4966621c-0.0530472,2.5275192,0.8008194,3.1396217,3.209198,3.1491051
		c8.5492783,0.0336609,8.5389328,0.1205635,8.5597763-8.5749168c0.0038834-1.6189079-0.0892944-3.2821388,0.2374954-4.8465385
		c0.5893784-2.8213196,2.587265-4.3560486,5.4112244-4.1500359c2.7870865,0.2033195,4.6639099,1.8681564,4.7873306,4.8237724
		c0.1407166,3.3691788,0.1382751,6.7498169,0.0438385,10.1211586c-0.0519791,1.8563004,0.3558578,2.8530197,2.4060974,3.4437904
		c10.1473083,2.9239159,16.3985138,9.6579857,18.467041,20.02808c0.4539642,2.2758484,1.6720276,2.3470001,3.4208984,2.3364868
		c6.9992828-0.0420761,13.9992065-0.0507278,20.9984283-0.0025558c4.1602478,0.0286407,6.365387,1.9028168,6.3547821,5.2198486
		c-0.0102692,3.2147369-2.3737335,5.2414474-6.396286,5.2745438c-6.9990845,0.0575943-13.9998474,0.0795288-20.9979401-0.0206985
		c-2.0362701-0.0291672-2.7789001,0.4782791-2.8389893,2.6808319c-0.2470245,9.0575867-0.3301086,9.0553207,8.8367157,9.078804
		c5.6650085,0.0145111,8.3440399,1.6945648,8.3866272,5.2593689c0.0431213,3.6083679-2.6559601,5.3609314-8.2709503,5.3705215
		c-0.1249847,0.0002136-0.2499695-0.0000381-0.3749695,0.0000381c-8.6907501,0.0056915-8.6014862,0.0054245-8.5760498,8.5697708
		c0.0071259,2.4020615,0.6208649,3.215538,3.1204224,3.1786575c9.372345-0.1382294,18.7479706-0.0552292,28.122345-0.0546875
		c0.874939,0.0000458,1.7524414-0.0394745,2.6243744,0.0124893c3.6598663,0.2181473,6.0358582,2.3563385,6.0144958,5.3775406
		c-0.0214844,3.0387192-2.3730164,5.0978699-6.1231995,5.1184082c-9.4990997,0.052002-19.0044708,0.2113953-28.4952087-0.0744934
		c-3.83815-0.1156464-5.45578,0.8095398-6.452179,4.8225708c-2.2444,9.0391846-8.4162598,14.8460388-17.3168488,17.5182495
		c-2.1660156,0.6502991-3.0865402,1.4667053-2.9311905,3.8057861c0.2065887,3.1105652,0.063652,6.2461853,0.02742,9.3705292
		c-0.0385284,3.3237-1.9480209,5.2543182-5.0615692,5.3655853c-3.1948776,0.1141357-5.1314774-1.9556732-5.3508606-5.1210785
		c-0.2241974-3.2348022-0.140007-6.497818-0.0520172-9.7447357c0.0493088-1.8197021-0.3851929-2.6142273-2.4587631-2.7189026
		c-9.2794037-0.4683685-9.2756271-0.5427856-9.2756653,8.6833801c-0.0000076,4.3747101-0.1094284,8.7530823,0.0366592,13.1229095
		c0.1044846,3.1250153-0.8535004,5.5780182-3.4795074,7.3237762c-1.2505035,0-2.5010071,0-3.7515106,0
		c-2.6180115-1.7534637-3.5339661-4.2036133-3.4652176-7.330658c0.1401062-6.3717346,0.0226898-12.7488251,0.053566-19.1235046
		c0.0074844-1.5453644-0.1874771-2.8948364-2.1684265-2.5937042c-3.1611633,0.4805603-6.6358185-1.3498688-9.4636765,1.1907959
		c-0.3808594,0.3421936-0.0766907,1.4431305-0.0956802,2.1925659c-0.0442581,1.7469025,0.115097,3.5302887-0.1854019,5.2322845
		c-0.4952927,2.8052979-2.4039536,4.5435638-5.2198029,4.4282532c-2.9197845-0.1195831-4.8827515-1.8258667-5.0585022-4.9783936
		c-0.0972824-1.7449493-0.1787338-3.5120697-0.0138931-5.2450714c0.2135315-2.2449951-0.5916824-3.1798401-2.8378525-3.8602142
		c-9.7904892-2.9655457-15.9239807-9.5685577-17.9840775-19.6093903c-0.4844475-2.3612061-1.5076485-2.6942139-3.5065079-2.6683502
		c-6.2487755,0.0808716-12.4995155,0.0609436-18.7490349,0.0162201c-4.1454964-0.0296631-6.3634014-1.9034195-6.3439445-5.2070847
		c0.0189667-3.220314,2.3485031-5.2129288,6.4089794-5.2850494c4.3735161-0.0776978,8.7494602-0.0191116,13.1243458-0.0192642
		c8.633873-0.0002823,8.6337395-0.0000763,8.4128571-8.6534958c-0.0063744-0.249855-0.0286522-0.5029449-0.0000343-0.7494736
		c0.2152481-1.8540344-0.7201385-2.350174-2.4269867-2.316864c-3.2466087,0.0633545-6.5072136,0.122757-9.7415581-0.1057205
		c-3.0405807-0.2148056-4.9054012-2.1631775-4.9166775-5.1521072c-0.0112114-2.9705582,1.7634678-4.8657913,4.8495274-5.1993027
		c1.2379723-0.1337891,2.4936562-0.1368179,3.7414742-0.1409683c8.6676712-0.0288467,8.575592-0.023674,8.5527115-8.6230774
		c-0.006443-2.4217606-0.6483994-3.2112732-3.1312866-3.1620178c-7.6217995,0.1511841-15.2521229-0.082756-22.8716564,0.1175156
		c-3.3930302,0.08918-6.3260918-0.4825287-8.7463017-2.944252c0-1.5006104,0-3.0012131,0-4.5018234
		c1.8872604-2.4456024,4.3191071-3.2695618,7.4357014-3.2011414c8.2294483,0.1806793,16.4659595,0.0136642,24.6985683,0.0954132
		c1.9521942,0.0193939,2.7498398-0.5045624,3.1815987-2.5835724c2.1124458-10.1719437,8.3005371-16.8225594,18.2453117-19.747406
		c2.1832962-0.6421318,2.6911469-1.6203308,2.6076355-3.6553917c-0.1328659-3.2374611-0.0836487-6.4868774,0.0086212-9.7278175
		c0.0892715-3.1353989,1.9806976-4.9168358,4.9331436-5.0646629c3.0023193-0.1503258,4.9159546,1.6466446,5.4037933,4.6300812
		c0.2389603,1.4613686,0.1239014,2.9847336,0.1256561,4.4800949c0.0101318,8.6162567,0.0052795,8.5161285,8.6255798,8.4768524
		c2.4986038-0.0113869,3.1867905-0.7871437,3.1430359-3.2088203c-0.1352158-7.4824791,0.0398788-14.9705124-0.0910568-22.4531422
		c-0.0546265-3.1214466,0.8475266-5.567791,3.4654694-7.3144417C96.7997513,18.2169437,98.0502548,18.2169437,99.3007584,18.2169437
		z M137.8735199,101.9483337c0-8.1273499,0.0614319-16.2552795-0.0149994-24.3819046
		c-0.1040039-11.0582962-7.090744-18.0526772-18.0740509-18.0880852
		c-14.879158-0.0479698-29.7586746-0.0452309-44.6378479-0.0007095c-11.031868,0.0330124-18.0740623,6.9807167-18.131176,18.0174065
		c-0.0841141,16.2542877-0.0809898,32.5096054-0.0021324,48.7639389
		c0.0537186,11.0734329,7.0638962,18.0218124,18.062706,18.0474319c14.8792191,0.0346222,29.7586365,0.0323334,44.6378784,0.0007782
		c11.028717-0.0233765,18.0270538-6.9362335,18.1424408-17.9769821
		C137.9412842,118.2037354,137.8730164,110.0756836,137.8735199,101.9483337z"/>
	<path fill="#FFFFFF" d="M121.515419,102.3276672c0,6.8728409,0.0276871,13.7458191-0.0079803,20.6184616
		c-0.0340118,6.5541458-2.1185226,8.9481888-8.6705551,9.0466385c-11.9930573,0.1802063-23.9909821,0.0135193-35.9863129,0.0858612
		c-2.2949753,0.013855-2.3129501-0.7209778-1.7311478-2.6561127c2.8463287-9.4671783,2.7852783-9.4853516,12.5922318-9.4855881
		c6.2480316-0.0001602,12.4961014-0.0114822,18.7440872,0.0058823c1.5839615,0.0043945,3.0562897,0.0588608,2.9460297-2.2415085
		c-0.1050415-2.1910706-1.6600571-1.7901382-2.9632034-1.7954559c-8.247139-0.0336761-16.4944992-0.0189285-24.7416-0.0581741
		c-5.6592636-0.0269241-8.0109329-1.8201981-8.1672974-7.3963547c-0.2800064-9.9851685-0.1964722-19.9870453,0.0113678-29.9761887
		c0.0841751-4.0459366,2.3172836-6.1510925,6.407486-6.3967743c11.4811859-0.6896591,22.981781-0.3635025,34.4698105-0.1820984
		c4.4332199,0.0699997,6.6768265,2.3028336,6.8420105,6.8294144c0.2867584,7.8577042,0.0796738,15.7334366,0.0796738,23.6016083
		C121.3984833,102.3274078,121.456955,102.3275375,121.515419,102.3276672z M97.2587662,103.8325882
		c3.2378998,0,6.4795685-0.0941086,9.7123032,0.0350113c1.9645767,0.0784683,2.6046219-0.6292572,2.5646667-2.568161
		c-0.1025925-4.9792709-0.0786667-9.9626465-0.0116577-14.9431152c0.0235062-1.7480392-0.6044388-2.4311218-2.3877411-2.4130325
		c-6.4751129,0.0657272-12.9517593,0.0677948-19.4268112-0.0009155c-1.8105698-0.0192032-2.3838577,0.7146225-2.3622818,2.4368515
		c0.0639648,5.1051102,0.0599213,10.2119293,0.0030594,15.3171997c-0.0179062,1.6076431,0.5934601,2.1981583,2.1953812,2.1580734
		C90.7815552,103.7735367,94.020874,103.8303604,97.2587662,103.8325882z"/>
</g>
</svg>
