<?xml version="1.0" encoding="utf-8"?>
<!-- Generator: Adobe Illustrator 17.1.0, SVG Export Plug-In . SVG Version: 6.00 Build 0)  -->
<!DOCTYPE svg PUBLIC "-//W3C//DTD SVG 1.1//EN" "http://www.w3.org/Graphics/SVG/1.1/DTD/svg11.dtd" [
	<!ENTITY ns_flows "http://ns.adobe.com/Flows/1.0/">
	<!ENTITY ns_extend "http://ns.adobe.com/Extensibility/1.0/">
	<!ENTITY ns_ai "http://ns.adobe.com/AdobeIllustrator/10.0/">
	<!ENTITY ns_graphs "http://ns.adobe.com/Graphs/1.0/">
	<!ENTITY ns_vars "http://ns.adobe.com/Variables/1.0/">
	<!ENTITY ns_imrep "http://ns.adobe.com/ImageReplacement/1.0/">
	<!ENTITY ns_sfw "http://ns.adobe.com/SaveForWeb/1.0/">
	<!ENTITY ns_custom "http://ns.adobe.com/GenericCustomNamespace/1.0/">
	<!ENTITY ns_adobe_xpath "http://ns.adobe.com/XPath/1.0/">
]>
<svg version="1.1" id="Layer_1" xmlns:x="&ns_extend;" xmlns:i="&ns_ai;" xmlns:graph="&ns_graphs;"
	 xmlns="http://www.w3.org/2000/svg" xmlns:xlink="http://www.w3.org/1999/xlink" xmlns:a="http://ns.adobe.com/AdobeSVGViewerExtensions/3.0/"
	 x="0px" y="0px" viewBox="0 0 200 200" enable-background="new 0 0 200 200" xml:space="preserve">
<metadata>
	<sfw  xmlns="&ns_sfw;">
		<slices></slices>
		<sliceSourceBounds  width="1020" height="810" x="10" y="-820" bottomLeftOrigin="true"></sliceSourceBounds>
	</sfw>
</metadata>
<path fill="#FFFFFF" d="M180.8609467,136.4527435c-3.5808563,0.1145325-7.1622009,0.1699066-10.7431488-0.002594
	c-2.8246765-0.1361084-5.6327362-0.3956909-8.3961945-1.040329c-2.7567749-0.6430664-5.3363953-1.7057343-7.6955414-3.2639313
	c-3.3167877-2.1906891-6.4193878-4.6410446-8.9696655-7.724968c-3.339035-4.0377502-5.4659576-8.6665421-6.6587524-13.7436676
	c-0.7565002-3.2199554-1.0951996-6.4874802-1.048645-9.79422c0.0062561-0.4443436,0.0562897-0.8879013,0.0762787-1.3322678
	c0.0100861-0.2238693,0.1160431-0.317337,0.3348083-0.3110886c0.2001038,0.0056992,0.400528-0.0010529,0.6007996-0.0010529
	c6.3201141,0.0000153,12.640213,0.0001678,18.9603119,0.0003052c0.155777,0,0.311554,0.000473,0.4673309-0.0001068
	c0.7247772-0.0026779,0.7272186-0.0027847,0.7272949-0.7224655c0.0006256-7.1879959,0.0004425-14.3760147,0.0003052-21.564003
	c0-0.7897644,0.0409088-0.7243271-0.71875-0.7243958c-6.8986969-0.0005569-13.7974091-0.0001831-20.696106-0.0001297
	c-0.9042664,0-0.8964996-0.0009842-0.9875183-0.8687363c-0.7140198-6.8064651,0.6961975-13.2232628,3.5600281-19.3702736
	c1.3671875-2.9345856,3.0555725-5.6789207,5.009903-8.2570457c3.5519714-4.6857033,8.2384949-7.7171898,13.8292694-9.4050903
	c2.9310608-0.8849106,5.9360352-1.3509102,8.9922485-1.4928551c5.3729706-0.2495461,10.6585236,0.3242378,15.8594055,1.6909714
	c0.0857697,0.0225487,0.1730347,0.042244,0.2608795,0.0526009c0.0407562,0.0048218,0.0845337-0.0160294,0.1302795-0.025959
	c0.1038055-0.2098656,0.0571289-0.4361992,0.0572205-0.654911c0.0026703-7.121233,0.002182-14.2424831,0.0022125-21.3637161
	c0-0.0890217,0.0023041-0.1781139-0.0005951-0.2670345c-0.0155945-0.4755564-0.0157013-0.4907017-0.4844055-0.5019588
	c-1.2678528-0.0304098-2.5359344-0.0581036-3.8040771-0.066288c-2.892868-0.0186596-5.7851105,0.0087109-8.674057,0.1830883
	c-7.3295288,0.4424305-14.5494843,1.5000725-21.5338745,3.8624744c-5.3098297,1.7960072-10.2419434,4.2987766-14.6156616,7.8432789
	c-2.7827606,2.2551785-5.1973572,4.859129-7.3433838,7.718008c-0.9081955,1.2098618-1.8119049,2.4236946-2.6901093,3.6553574
	c-1.353508,1.8982391-2.2814789,4.016716-3.1136856,6.1790504c-1.6007385,4.1591721-2.7449951,8.4526176-3.7271805,12.7922287
	c-0.8101044,3.579361-1.4727707,7.1868782-1.9676208,10.8229332c-0.3059616,2.2480927-0.5591278,4.5037155-0.5780945,6.7777176
	c-0.0007248,0.0889893-0.0118179,0.1784592-0.005722,0.2668533c0.0208511,0.3018036-0.0901947,0.4662476-0.4183655,0.4316788
	c-0.1100082-0.0115814-0.2223434-0.0011902-0.3336105-0.0011673c-4.250473,0.0003357-8.5009766,0.0006256-12.7514648,0.0009155
	c-0.1112595,0-0.2240067-0.0120926-0.3335419,0.0016479c-0.3671036,0.0459976-0.4666061-0.141098-0.4408646-0.468544
	c0.0156403-0.1990509,0.002533-0.4003448,0.002533-0.6006317c-0.0000229-20.2955284,0.0006409-40.5910721-0.0019226-60.8866043
	c-0.0001373-1.0607662,0.128418-0.9148293-0.9243393-0.9153214c-7.0767288-0.003294-14.1534729-0.0001698-21.2302017,0.0008993
	c-0.1112671,0.0000172-0.2226028-0.0023603-0.3338013,0.0005941c-0.4983063,0.0132608-0.4986496,0.0138044-0.5125046,0.5321836
	c-0.0023727,0.0889549-0.0005569,0.1780281-0.0005569,0.2670336c-0.0000153,20.5403366-0.0000534,41.080658,0.000267,61.6209793
	c0,0.1332169,0.0045853,0.2664413,0.0070114,0.3996582c-0.2878647,0.0140076-0.5759048,0.0404129-0.8639374,0.0405807
	c-6.0068436,0.0036163-12.0136719,0.0067062-18.0205193,0.0032578c-1.0940819-0.0006256-0.9555283,0.1445618-0.9556847-0.9530487
	c-0.002697-21.4466438-0.0018997-42.8932686-0.0030556-64.3399124C58.162159,10.6218166,58.1464005,10.3109083,58.1379814,10
	c-7.6557961,0-15.3115692,0-22.9673653,0c-0.0023918,0.3113499-0.0068588,0.6226997-0.0068741,0.9340668
	c-0.0003242,21.2862892,0.0004387,42.5725784-0.005146,63.8588715c-0.0001183,0.4580688,0.1995583,1.0324249-0.1152916,1.3449173
	c-0.2886124,0.2864532-0.8488121,0.0923615-1.2877274,0.0929947c-7.0954247,0.0101166-14.1908665,0.0123215-21.2862892,0.0154114
	c-0.222208,0.0000916-0.444417-0.0096588-0.6666088-0.014801c0,7.655777,0,15.3115692,0,22.9673462
	c0.2888527,0.0075912,0.5777054,0.0215988,0.8665571,0.0218201c7.208744,0.005394,14.4175053,0.0089417,21.6262512,0.0139847
	c0.9714546,0.0006638,0.8667603-0.0608826,0.8668098,0.8563919c0.0013924,29.6582184,0.0011406,59.3164368,0.0014458,88.9746552
	c0.0000153,0.3114319,0.0044823,0.6228943,0.0068741,0.9343414c7.6557961,0,15.3115692,0,22.9673653,0
	c0.008419-0.3109131,0.0241776-0.6217957,0.0241928-0.9327087c0.0011215-29.6108704,0.0010376-59.2217102,0.0011902-88.8325806
	c0-0.2224426,0.0062294-0.4449768,0.0020218-0.6673355c-0.0042801-0.2263489,0.1103821-0.3213348,0.3260345-0.3209229
	c0.1779442,0.0003204,0.3558884-0.0039063,0.5338326-0.003891c3.2258339,0.000473,6.4516525,0.0021591,9.6774826,0.0003738
	c0.2656097-0.0001526,0.5341721,0.0330429,0.7965927-0.0402756v0.0000153
	c1.4456711,0.009819,2.8913422,0.0227203,4.3370285,0.0284958c1.2238693,0.0048904,2.4478073-0.0037384,3.6716232,0.0046158
	c0.4708862,0.003212,0.472641,0.0169754,0.4888229,0.4956436c0.0060043,0.1778259,0.0012512,0.3560028,0.0012512,0.5340347
	c0.0000229,15.3986893-0.0005264,30.7973862,0.0012054,46.1960678c0.0001221,1.0574646-0.0964584,0.9104614,0.9357834,0.9111786
	c7.0540314,0.0048981,14.1080551,0.0052643,21.1620712,0.0032806c1.0154648-0.0002899,0.9027252,0.1140289,0.9028549-0.8744507
	c0.0020218-15.4654541,0.0008698-30.9308929,0.0028076-46.396347c0.0001144-0.9515228-0.1147308-0.8672714,0.8439026-0.8677444
	c4.0944443-0.0020065,8.1888962-0.0004272,12.2833557-0.0001221c0.1335068,0,0.2680511,0.0114288,0.400322-0.0012207
	c0.2889709-0.0276413,0.3899155,0.1153107,0.4117355,0.3846817c0.061058,0.7536163,0.1260147,1.5072403,0.2095032,2.2586441
	c0.8282547,7.4544907,2.2826691,14.758194,5.2061539,21.7116394c2.3076096,5.4885788,5.5294037,10.3915176,9.4516983,14.8512039
	c1.5584106,1.7719116,3.1769714,3.4874725,4.8582153,5.1420898c2.6877441,2.6451569,5.8862,4.5015259,9.3329926,5.9629974
	c3.6171875,1.5337524,7.3840179,2.566803,11.2297058,3.3284302c4.3480682,0.861145,8.7409821,1.3572693,13.1632233,1.6354675
	c5.2918243,0.3329468,10.5834351,0.316452,15.8765869,0.07341c1.3099213-0.0601654,2.6181488-0.1573334,3.9271545-0.2374878
	c0-6.053421,0-12.1068268,0-18.1602478C185.7518921,136.2762451,183.3067322,136.374527,180.8609467,136.4527435z
	 M77.2955017,76.3626404c0.071312,0.0028687,0.143425,0.0072327,0.2147217,0.006897
	c0.1426086-0.000679,0.2820587-0.0201721,0.4057388-0.1081238c-0.123642,0.0879669-0.263092,0.10746-0.4057388,0.1081238
	C77.4389267,76.369873,77.3668137,76.365509,77.2955017,76.3626404z M77.9440079,76.2365036
	c0.0207367-0.0169449,0.0416718-0.0330734,0.0613632-0.0545044l0,0
	C77.9856796,76.2034454,77.9647446,76.2195435,77.9440079,76.2365036z"/>
</svg>
