<?xml version="1.0" encoding="utf-8"?>
<!-- Generator: Adobe Illustrator 17.1.0, SVG Export Plug-In . SVG Version: 6.00 Build 0)  -->
<!DOCTYPE svg PUBLIC "-//W3C//DTD SVG 1.1//EN" "http://www.w3.org/Graphics/SVG/1.1/DTD/svg11.dtd" [
	<!ENTITY ns_flows "http://ns.adobe.com/Flows/1.0/">
	<!ENTITY ns_extend "http://ns.adobe.com/Extensibility/1.0/">
	<!ENTITY ns_ai "http://ns.adobe.com/AdobeIllustrator/10.0/">
	<!ENTITY ns_graphs "http://ns.adobe.com/Graphs/1.0/">
	<!ENTITY ns_vars "http://ns.adobe.com/Variables/1.0/">
	<!ENTITY ns_imrep "http://ns.adobe.com/ImageReplacement/1.0/">
	<!ENTITY ns_sfw "http://ns.adobe.com/SaveForWeb/1.0/">
	<!ENTITY ns_custom "http://ns.adobe.com/GenericCustomNamespace/1.0/">
	<!ENTITY ns_adobe_xpath "http://ns.adobe.com/XPath/1.0/">
]>
<svg version="1.1" id="Layer_1" xmlns:x="&ns_extend;" xmlns:i="&ns_ai;" xmlns:graph="&ns_graphs;"
	 xmlns="http://www.w3.org/2000/svg" xmlns:xlink="http://www.w3.org/1999/xlink" xmlns:a="http://ns.adobe.com/AdobeSVGViewerExtensions/3.0/"
	 x="0px" y="0px" viewBox="0 0 200 200" enable-background="new 0 0 200 200" xml:space="preserve">
<metadata>
	<sfw  xmlns="&ns_sfw;">
		<slices></slices>
		<sliceSourceBounds  width="1020" height="810" x="10" y="-820" bottomLeftOrigin="true"></sliceSourceBounds>
	</sfw>
</metadata>
<g>
	<circle opacity="0.6" fill="#FFFFFF" cx="110.0505981" cy="97.5429382" r="22.1622105"/>
	<path fill="#FFFFFF" d="M183.7163696,128.6634827c4.1695251-9.8578949,6.2836609-20.3283005,6.2836609-31.1205292
		s-2.1141357-21.2626801-6.2836609-31.120575c-3.6506348-8.6310005-8.7292786-16.4642754-15.1165924-23.3228569
		c1.6995239-3.1334076,2.664856-6.7230301,2.664856-10.5381699c0-12.2249241-9.9102631-22.1351814-22.1351929-22.1351814
		c-7.6831512,0-14.4511414,3.9151154-18.4201813,9.8584719c-6.6948624-1.7882652-13.6080246-2.6911011-20.658638-2.6911011
		c-10.7922287,0-21.2626801,2.1140957-31.1205292,6.283617c-9.5205688,4.0268745-18.0704689,9.7912292-25.4122543,17.1330147
		c-7.3417397,7.3417435-13.1060944,15.8916817-17.1329689,25.4122047
		c-1.9179001,4.5344315-3.3996811,9.1987381-4.4420967,13.9640808c-12.1361275,0.1035538-21.9427376,9.972168-21.9427376,22.1327515
		c0,12.2249222,9.9102554,22.1351852,22.1351891,22.1351852c0.8883476,0,1.7639999-0.053894,2.6249962-0.1556396
		c0.5018692,1.3995209,1.0424767,2.7882996,1.624649,4.1647263c4.0268745,9.5204773,9.7912292,18.0704651,17.1329689,25.4122162
		c7.3417854,7.3417358,15.8916855,13.1060944,25.4122543,17.1329193c9.8578491,4.1695709,20.3283005,6.2837067,31.1205292,6.2837067
		c6.0109482,0,11.9218674-0.656723,17.68293-1.9582672c3.2318726,8.2205963,11.2401581,14.0397644,20.6078033,14.0397644
		c12.2249146,0,22.1351776-9.9102478,22.1351776-22.1351776c0-4.8684692-1.5729828-9.3688812-4.2367096-13.0234222
		c0.1145172-0.1131744,0.2296295-0.2255859,0.3435822-0.3395233
		C173.9251404,146.7339478,179.6894989,138.18396,183.7163696,128.6634827z M110.050621,173.4422913
		c-32.6856537,0-60.6117973-20.7682037-71.2758942-49.8016129c8.9808807-2.8203583,15.4956856-11.2098389,15.4956856-21.1214676
		c0-10.8959961-7.8728447-19.9529419-18.2403145-21.7933426c7.6718826-33.7854118,37.9470406-59.0822906,74.0205231-59.0822906
		c6.4414063,0,12.697525,0.8077278,18.6735611,2.3251839c-1.1138916,2.6419926-1.7299271,5.5453186-1.7299271,8.5925922
		c0,12.2249336,9.9102707,22.1351891,22.1351852,22.1351891c6.901825,0,13.0653076-3.1592484,17.1247559-8.1099815
		c12.232605,13.4797935,19.6958008,31.3628426,19.6958008,50.9563942c0,21.0055542-8.5780334,40.0447693-22.4141846,53.8005829
		c-3.9645233-3.7440186-9.3110962-6.0400848-15.194458-6.0400848c-12.2249298,0-22.1351929,9.9102631-22.1351929,22.1351929
		c0,1.4307404,0.1373901,2.8291931,0.396698,4.1843414C121.272995,172.8130646,115.7340088,173.4422913,110.050621,173.4422913z"/>
</g>
</svg>
