<?xml version="1.0" encoding="utf-8"?>
<!-- Generator: Adobe Illustrator 17.1.0, SVG Export Plug-In . SVG Version: 6.00 Build 0)  -->
<!DOCTYPE svg PUBLIC "-//W3C//DTD SVG 1.1//EN" "http://www.w3.org/Graphics/SVG/1.1/DTD/svg11.dtd" [
	<!ENTITY ns_flows "http://ns.adobe.com/Flows/1.0/">
	<!ENTITY ns_extend "http://ns.adobe.com/Extensibility/1.0/">
	<!ENTITY ns_ai "http://ns.adobe.com/AdobeIllustrator/10.0/">
	<!ENTITY ns_graphs "http://ns.adobe.com/Graphs/1.0/">
	<!ENTITY ns_vars "http://ns.adobe.com/Variables/1.0/">
	<!ENTITY ns_imrep "http://ns.adobe.com/ImageReplacement/1.0/">
	<!ENTITY ns_sfw "http://ns.adobe.com/SaveForWeb/1.0/">
	<!ENTITY ns_custom "http://ns.adobe.com/GenericCustomNamespace/1.0/">
	<!ENTITY ns_adobe_xpath "http://ns.adobe.com/XPath/1.0/">
]>
<svg version="1.1" id="Layer_1" xmlns:x="&ns_extend;" xmlns:i="&ns_ai;" xmlns:graph="&ns_graphs;"
	 xmlns="http://www.w3.org/2000/svg" xmlns:xlink="http://www.w3.org/1999/xlink" xmlns:a="http://ns.adobe.com/AdobeSVGViewerExtensions/3.0/"
	 x="0px" y="0px" viewBox="0 0 200 200" enable-background="new 0 0 200 200" xml:space="preserve">
<metadata>
	<sfw  xmlns="&ns_sfw;">
		<slices></slices>
		<sliceSourceBounds  width="1020" height="810" x="10" y="-820" bottomLeftOrigin="true"></sliceSourceBounds>
	</sfw>
</metadata>
<g>
	<path fill="#FFFFFF" d="M189.7749176,100.0407715C189.7736511,149.7051849,149.5863342,189.9819641,100.0155182,190
		c-49.6661644,0.0180511-89.8035965-40.3148651-89.7904358-90.2277298
		c0.013051-49.5005341,40.3250465-89.8017273,89.7963104-89.7722549
		C149.6324005,10.0295715,189.7761841,50.3018341,189.7749176,100.0407715z M53.8434219,127.0842438
		c0.0624161-0.1355972,0.1137657-0.2776871,0.1888161-0.4058914c10.5191536-17.9693832,21.0416069-35.936821,31.5507393-53.9120483
		c0.2380066-0.4070816,0.5005035-0.53302,0.9507065-0.5277557c1.9053574,0.0223007,3.8117828,0.0380783,5.7163162-0.0071564
		c0.6166382-0.0146408,0.923439,0.195282,1.2046356,0.7292023c5.2410431,9.9515686,10.5015335,19.8928986,15.7615585,29.8344574
		c0.1197052,0.2262192,0.1921082,0.4964981,0.4361725,0.6625977c0.0742722-0.0937881,0.1280136-0.1467438,0.1643982-0.2097473
		c2.105629-3.6456528,4.2035751-7.295784,6.3240509-10.9327621c0.2038345-0.3496246,0.1025162-0.5941772-0.0370407-0.8964615
		c-5.2080917-11.280365-10.411644-22.5628357-15.6194611-33.8433418c-0.1024475-0.2219276-0.159668-0.4832764-0.4072647-0.6126671
		c-0.2178955-0.2541771-0.5135727-0.1511002-0.7755432-0.1513138c-6.9591751-0.0055428-13.9183655-0.0055389-20.8775406-0.0000038
		c-0.2620544,0.000206-0.5575562-0.1026649-0.7760239,0.1504478c-0.4419174,0.1001701-0.5188828,0.5182648-0.6930084,0.8319397
		c-15.2057114,27.3913422-30.4054375,54.7860107-45.6050873,82.1807175
		c-0.4572849,0.824173-0.9094028,1.6512146-1.3913097,2.5266418c21.5090504,0,42.926239,0,64.4286423,0
		C89.7604141,132.6494446,85.1686401,122.8722687,80.5322037,113c-0.2190933,0.3373413-0.3569794,0.5428085-0.4880753,0.7525253
		c-2.6843796,4.2941513-5.3661652,8.5899277-8.0569077,12.8800888c-0.1390686,0.2217331-0.19664,0.526619-0.5045471,0.6161499
		c-0.2418594-0.2710114-0.5631943-0.1521454-0.8477097-0.1526337
		C65.037796,127.0867004,59.440609,127.0863953,53.8434219,127.0842438z M106.1048508,56.9941673
		c0.0536804,0.1635513,0.0907822,0.3348846,0.1634064,0.4895401c4.443985,9.4628105,8.8905334,18.9244118,13.33992,28.3846703
		c0.0909195,0.1933136,0.1238937,0.4287109,0.3733826,0.5836945c0.1386871-0.2105408,0.2761536-0.4100876,0.4044724-0.6153488
		c2.7066727-4.3296509,5.4109268-8.66082,8.1225891-12.9873505c0.1248322-0.199173,0.1672058-0.4837799,0.4608917-0.5463257
		c0.2438965,0.2668915,0.5644684,0.14814,0.8490753,0.1487045c5.5957642,0.0111618,11.1915436,0.0130692,16.7873077,0.016861
		c-0.1004791,0.1999588-0.1901703,0.4062271-0.3029633,0.5989838
		c-10.1965332,17.4250031-20.3933411,34.8498383-30.5988617,52.2695694c-0.3749619,0.6399918-0.66819,1.3356171-1.1850891,1.8880386
		c-0.1308289-0.1528931-0.3101501-0.1330719-0.4824448-0.1331177c-2.0361404-0.0005875-4.0722885-0.0005569-6.108429,0.000061
		c-0.1725006,0.0000458-0.3519592-0.0178909-0.4775467,0.1421738c-0.2654266-0.1082916-0.2995453-0.3857346-0.4103241-0.5950012
		c-5.2605133-9.9377213-10.5137634-19.8792877-15.7682724-29.8201828c-0.1327972-0.251236-0.2701797-0.5000381-0.4530487-0.8379974
		c-2.231987,3.8695679-4.3926773,7.6245499-6.5690231,11.3704376c-0.1623383,0.2794037-0.0481186,0.4736404,0.052948,0.6926193
		c5.3093414,11.5046005,10.6207428,23.0082626,15.9319305,34.5120163c0.1667633,0.2815094,0.4451065,0.1805725,0.6796722,0.1807251
		c7.1692886,0.0049896,14.3385849,0.0049591,21.5078735,0.0000763c0.2330322-0.0001678,0.5161133,0.1023407,0.664772-0.2018127
		c0.0674438-0.133316,0.1305161-0.2690582,0.2029648-0.3995972c12.96138-23.3563156,25.9249573-46.7114029,38.8842468-70.0688782
		c2.7813416-5.0130386,5.547287-10.034626,8.3203125-15.052269c-0.1475525-0.3059235-0.4312592-0.2027931-0.664093-0.2028389
		c-21.0157166-0.004303-42.0314255-0.0043259-63.047142,0.0000496
		C106.5490875,56.811718,106.2699661,56.7098846,106.1048508,56.9941673z"/>
	<path opacity="0.3" fill="#FFFFFF" d="M128.9695129,72.3030472c-0.2936859,0.0625458-0.3360596,0.3471527-0.4608917,0.5463257
		c-2.7116623,4.3265305-5.4159164,8.6576996-8.1225891,12.9873505c-0.1283188,0.2052612-0.2657852,0.404808-0.4044724,0.6153488
		c-0.2494888-0.1549835-0.2824631-0.3903809-0.3733826-0.5836945c-4.4493866-9.4602585-8.8959351-18.9218597-13.33992-28.3846703
		c-0.0726242-0.1546555-0.109726-0.3259888-0.1634064-0.4895325c21.2378845-0.0005341,42.4757614-0.0011368,63.7136459-0.0006943
		c0.2253723,0.0000038,0.4507599,0.0136833,0.6761169,0.020977c-2.7730255,5.017643-5.5389709,10.0392303-8.3203125,15.052269
		c-12.9592896,23.3574753-25.9228668,46.7125626-38.8842468,70.0688782
		c-0.0724487,0.1305389-0.1355209,0.2662811-0.2029495,0.3995972c-0.1750336,0.0083008-0.3500595,0.0239258-0.5250854,0.0239258
		c-7.4424133-0.0001068-14.8848343-0.0015869-22.3272476-0.0029144
		c-5.3111877-11.5037537-10.6225891-23.0074158-15.9319305-34.5120163c-0.1010666-0.2189789-0.2152863-0.4132156-0.052948-0.6926193
		c2.1763458-3.7458878,4.3370361-7.5008698,6.5690231-11.3704376c0.182869,0.3379593,0.3202515,0.5867615,0.4530487,0.8379974
		c5.254509,9.9408951,10.5077591,19.8824615,15.7682724,29.8201828c0.1107788,0.2092667,0.1448975,0.4867096,0.4103241,0.5950012
		c0.9141846,0.1448441,1.8349533,0.0651016,2.7512665,0.0570908c1.4389572-0.0125732,2.8806076,0.101799,4.3171539-0.0662079
		c0.5168991-0.5524216,0.8101273-1.2480469,1.1850891-1.8880386c10.2055206-17.4197311,20.4023285-34.8445663,30.5988617-52.2695694
		c0.112793-0.1927567,0.2024841-0.399025,0.3029633-0.5989761c0.01828-0.0170288,0.0394745-0.0319443,0.053894-0.0517731
		c0.01091-0.0149841,0.0240021-0.0466766,0.0177002-0.053215c-0.2061462-0.2141418-0.4695435-0.102478-0.703064-0.1027985
		c-5.4459686-0.0073853-10.8919373-0.006279-16.3379059-0.0036926
		C129.4141693,72.2572479,129.1918488,72.2870712,128.9695129,72.3030472z"/>
	<path opacity="0.6" fill="#FFFFFF" d="M100.0770493,56.9626694c0.2475967,0.1293907,0.3048172,0.3907394,0.4072647,0.6126671
		c5.2078171,11.2805061,10.4113693,22.5629768,15.6194611,33.8433418c0.1395569,0.3022842,0.2408752,0.5468369,0.0370407,0.8964615
		c-2.1204758,3.6369781-4.2184219,7.2871094-6.3240509,10.9327621c-0.0363846,0.0630035-0.090126,0.1159592-0.1643982,0.2097473
		c-0.2440643-0.1660995-0.3164673-0.4363785-0.4361725-0.6625977c-5.260025-9.9415588-10.5205154-19.8828888-15.7615585-29.8344574
		C93.173439,72.4266739,92.8666382,72.2167511,92.25,72.2313919c-1.9045334,0.0452347-3.8109589,0.0294571-5.7163162,0.0071564
		c-0.4502029-0.0052643-0.7126999,0.1206741-0.9507065,0.5277557
		c-10.5091324,17.9752274-21.0315857,35.9426651-31.5507393,53.9120483c-0.0750504,0.1282043-0.1264,0.2702942-0.1887932,0.4058914
		c0.1292648,0.389122,0.4586678,0.1995468,0.6827812,0.2000961c5.4540024,0.0133057,10.9080544,0.0108337,16.3620949,0.0083847
		c0.1981201-0.0000763,0.3962326-0.028656,0.5943527-0.0439606c0.3079071-0.0895309,0.3654785-0.3944168,0.5045471-0.6161499
		c2.6907425-4.2901611,5.3725281-8.5859375,8.0569077-12.8800888c0.1310959-0.2097168,0.2689819-0.415184,0.4880753-0.7525253
		c4.6364365,9.8722687,9.2282104,19.6494446,13.8549728,29.5010986c-21.5024033,0-42.91959,0-64.4286423,0
		c0.4819069-0.8754272,0.9340248-1.7024689,1.3913097-2.5266418c15.1996498-27.3947067,30.3993759-54.7893753,45.6050873-82.1807175
		c0.1741257-0.3136749,0.251091-0.7317696,0.6930084-0.8319397c3.6506348,0.0096245,7.3012695,0.0268364,10.9519043,0.0268059
		C92.4255753,56.9885788,96.2513199,56.9720078,100.0770493,56.9626694z"/>
	<path fill="#FFFFFF" d="M170.4946136,57.0144577c-0.2253571-0.0072937-0.4507446-0.0209732-0.6761169-0.020977
		c-21.2378845-0.0004425-42.4757614,0.0001602-63.7136459,0.0006943c0.1651154-0.2842903,0.4442368-0.182457,0.6785278-0.1825066
		c21.0157166-0.0043755,42.0314255-0.0043526,63.047142-0.0000496
		C170.0633545,56.8116646,170.3470612,56.7085342,170.4946136,57.0144577z"/>
	<path fill="#FFFFFF" d="M100.2347717,142.5562134c7.4424133,0.0013275,14.8848343,0.0028076,22.3272476,0.0029144
		c0.1750259,0,0.3500519-0.015625,0.5250702-0.023941c-0.1486588,0.3041687-0.4317398,0.2016602-0.664772,0.201828
		c-7.1692886,0.0048828-14.3385849,0.0049133-21.5078735-0.0000763
		C100.6798782,142.7367859,100.401535,142.8377228,100.2347717,142.5562134z"/>
	<path fill="#FFFFFF" d="M100.0770493,56.9626694c-3.8257294,0.0093384-7.651474,0.0259094-11.4772034,0.0259361
		c-3.6506348,0.0000305-7.3012695-0.0171814-10.9519043-0.0268059c0.2184677-0.2531128,0.5139694-0.1502419,0.7760239-0.1504478
		c6.9591751-0.0055351,13.9183655-0.0055389,20.8775406,0.0000038
		C99.5634766,56.8115692,99.8591537,56.7084923,100.0770493,56.9626694z"/>
	<path fill="#FFFFFF" d="M128.9695129,72.3030472c0.2223358-0.015976,0.4446564-0.0457993,0.6670074-0.0459061
		c5.4459686-0.0025864,10.8919373-0.0036926,16.3379059,0.0036926c0.2335205,0.0003204,0.4969177-0.1113434,0.703064,0.1027985
		c0.0063019,0.0065384-0.0067902,0.0382309-0.0177002,0.053215c-0.0144196,0.0198288-0.035614,0.0347443-0.053894,0.0517731
		c-5.5957642-0.0037994-11.1915436-0.0057068-16.7873077-0.0168686
		C129.5339813,72.4511871,129.2134094,72.5699387,128.9695129,72.3030472z"/>
	<path fill="#FFFFFF" d="M71.4826736,127.248764c-0.1981201,0.0153046-0.3962326,0.0438843-0.5943527,0.0439606
		c-5.4540405,0.002449-10.9080925,0.004921-16.3620949-0.0083847c-0.2241135-0.0005493-0.5535164,0.1890259-0.6827812-0.2000961
		c5.5971642,0.0021515,11.1943512,0.0024567,16.7915192,0.0118866
		C70.9194794,127.0966187,71.2408142,126.9777527,71.4826736,127.248764z"/>
	<path fill="#FFFFFF" d="M114.5189819,127.2252045c-1.4365463,0.1680069-2.8781967,0.0536346-4.3171539,0.0662079
		c-0.9163132,0.0080109-1.8370819,0.0877533-2.7512665-0.0570908c0.1255875-0.1600647,0.3050461-0.142128,0.4775467-0.1421738
		c2.0361404-0.000618,4.0722885-0.0006485,6.108429-0.000061
		C114.2088318,127.0921326,114.3881531,127.0723114,114.5189819,127.2252045z"/>
</g>
</svg>
