<?xml version="1.0" encoding="utf-8"?>
<!-- Generator: Adobe Illustrator 17.1.0, SVG Export Plug-In . SVG Version: 6.00 Build 0)  -->
<!DOCTYPE svg PUBLIC "-//W3C//DTD SVG 1.1//EN" "http://www.w3.org/Graphics/SVG/1.1/DTD/svg11.dtd" [
	<!ENTITY ns_flows "http://ns.adobe.com/Flows/1.0/">
	<!ENTITY ns_extend "http://ns.adobe.com/Extensibility/1.0/">
	<!ENTITY ns_ai "http://ns.adobe.com/AdobeIllustrator/10.0/">
	<!ENTITY ns_graphs "http://ns.adobe.com/Graphs/1.0/">
	<!ENTITY ns_vars "http://ns.adobe.com/Variables/1.0/">
	<!ENTITY ns_imrep "http://ns.adobe.com/ImageReplacement/1.0/">
	<!ENTITY ns_sfw "http://ns.adobe.com/SaveForWeb/1.0/">
	<!ENTITY ns_custom "http://ns.adobe.com/GenericCustomNamespace/1.0/">
	<!ENTITY ns_adobe_xpath "http://ns.adobe.com/XPath/1.0/">
]>
<svg version="1.1" id="Layer_1" xmlns:x="&ns_extend;" xmlns:i="&ns_ai;" xmlns:graph="&ns_graphs;"
	 xmlns="http://www.w3.org/2000/svg" xmlns:xlink="http://www.w3.org/1999/xlink" xmlns:a="http://ns.adobe.com/AdobeSVGViewerExtensions/3.0/"
	 x="0px" y="0px" viewBox="0 0 200 200" enable-background="new 0 0 200 200" xml:space="preserve">
<metadata>
	<sfw  xmlns="&ns_sfw;">
		<slices></slices>
		<sliceSourceBounds  width="1020" height="810" x="10" y="-820" bottomLeftOrigin="true"></sliceSourceBounds>
	</sfw>
</metadata>
<g>
	<path fill="#FFFFFF" d="M100,10c-49.7056274,0-90,40.2943726-90,90s40.2943726,90,90,90s90-40.2943726,90-90S149.7056274,10,100,10
		z M124.5766602,110.7236938l-5.7832642,27.6004639l-4.7697144,22.7629395H85.9763794l-4.7697144-22.7629395l-5.7833252-27.6004639
		c-13.9318848-2.2212524-26.5256958-6.3560181-34.7756958-12.2736816l5.538269-9.5924683
		c5.0999146,4.0009155,14.3391724,7.9256592,26.8251953,10.3538208l-1.671936-7.979248l-0.0842285-0.4020996
		c-8.4418945-2.0422974-15.6660767-4.9871826-21.237915-8.6082153l5.4694214-9.4732666
		c3.3690186,2.2271729,7.8443604,4.2772827,13.2265015,5.9500732l-2.5338745-12.0928345l-1.9028931-9.0814819l10.7452393-18.6114502
		l1.6815186,7.3983154l1.5460815,6.8027344l2.4319458,10.7001343l4.1594238,18.3013306
		c4.7536011,0.6082153,9.8323364,0.9501343,15.15979,0.9501343c5.3273315,0,10.4060059-0.3419189,15.1594238-0.9501343
		l4.1594849-18.3013306l2.4318848-10.7001343l1.5461426-6.8027954l1.6814575-7.3982544l10.7453613,18.6115723l-4.4367676,21.1740723
		v0.0001221c5.381958-1.6727905,9.8574829-3.7227783,13.2264404-5.9500732l5.4693604,9.4732666
		c-5.5718994,3.6210327-12.7960205,6.565979-21.237854,8.6083374l-1.7561646,8.3812256
		c12.4860229-2.4281616,21.7252808-6.3529663,26.8250732-10.3540039l5.538269,9.5926514
		C151.102356,104.3677979,138.508667,108.5024414,124.5766602,110.7236938z"/>
	<path opacity="0.4" fill="#FFFFFF" d="M126.9889526,99.2113647l1.7561646-8.3812256
		c8.4418335-2.0423584,15.6659546-4.9873047,21.237854-8.6083374l-5.4693604-9.4732666
		c-3.3689575,2.2272949-7.8444824,4.2772827-13.2264404,5.9500732v-0.0001221l4.4367676-21.1740723l-10.7453613-18.6115723
		l-1.6814575,7.3982544l-1.5461426,6.8027954l-2.4318848,10.7001343l-4.1594849,18.3013306
		c-4.753418,0.6082153-9.8320923,0.9501343-15.1594238,0.9501343c-5.3274536,0-10.406189-0.3419189-15.15979-0.9501343
		l-4.1594238-18.3013306l-2.4319458-10.7001343l-1.5460815-6.8027344l-1.6815186-7.3983154L64.2761841,57.524292
		l1.9028931,9.0814819l2.5338745,12.0928345c-5.3821411-1.6727905-9.8574829-3.7229004-13.2265015-5.9500732l-5.4694214,9.4732666
		c5.5718384,3.6210327,12.7960205,6.565918,21.237915,8.6082153l0.0842285,0.4020996l1.671936,7.979248
		c-12.4860229-2.4281616-21.7252808-6.3529053-26.8251953-10.3538208l-5.538269,9.5924683
		c8.25,5.9176636,20.843811,10.0524292,34.7756958,12.2736816l5.7833252,27.6004639l4.7697144,22.7629395h28.0473022
		l4.7697144-22.7629395l5.7832642-27.6004639c13.9320068-2.2212524,26.5256958-6.355896,34.7756348-12.2736816l-5.538269-9.5926514
		C148.7142334,92.8583984,139.4749756,96.7832031,126.9889526,99.2113647z M103.7888794,138.3241577
		c0.5253296,0.7481689,0.8348999,1.657959,0.8348999,2.6420898c0,2.5536499-2.0701294,4.6237183-4.6237793,4.6237183
		c-2.5535889,0-4.6236572-2.0700684-4.6236572-4.6237183c0-0.9841309,0.3095093-1.8939209,0.8348389-2.6420898
		c0.3118896-0.4442139,0.699585-0.831604,1.1444092-1.1431274l-5.6281128-24.7629395h0.0001221
		c2.7580566,0.1424561,5.5220337,0.2214355,8.272583,0.2214355c2.7504272,0,5.5143433-0.0789795,8.2723389-0.2214355
		l-5.6280518,24.7629395C103.0893555,137.4925537,103.4770508,137.8799438,103.7888794,138.3241577z M110.8015747,101.2903442
		c-3.453064,0.2389526-7.0510254,0.3741455-10.8013916,0.3741455c-3.7506104,0-7.3485718-0.1351929-10.8016968-0.3741455
		l-1.7775879-7.8214111c4.0422974,0.3735352,8.2443848,0.5715942,12.5792847,0.5715942
		c4.3347168,0,8.5368042-0.1980591,12.5790405-0.5715942L110.8015747,101.2903442z"/>
	<path fill="#FFFFFF" d="M100.0001831,112.6395264c-2.7505493,0-5.5145264-0.0789795-8.272583-0.2214355H91.727478
		l5.6281128,24.7629395c-0.4448242,0.3115234-0.8325195,0.6989136-1.1444092,1.1431274
		c-0.5253296,0.7481689-0.8348389,1.657959-0.8348389,2.6420898c0,2.5536499,2.0700684,4.6237183,4.6236572,4.6237183
		c2.5536499,0,4.6237793-2.0700684,4.6237793-4.6237183c0-0.9841309-0.3095703-1.8939209-0.8348999-2.6420898
		c-0.3118286-0.4442139-0.6995239-0.831604-1.1444092-1.1431274l5.6280518-24.7629395
		C105.5145264,112.5605469,102.7506104,112.6395264,100.0001831,112.6395264z"/>
	<path fill="#FFFFFF" d="M87.4208984,93.4689331l1.7775879,7.8214111c3.453125,0.2389526,7.0510864,0.3741455,10.8016968,0.3741455
		c3.7503662,0,7.3483276-0.1351929,10.8013916-0.3741455l1.7776489-7.8214111
		c-4.0422363,0.3735352-8.2443237,0.5715942-12.5790405,0.5715942
		C95.6652832,94.0405273,91.4631958,93.8424683,87.4208984,93.4689331z"/>
</g>
</svg>
