<?xml version="1.0" encoding="utf-8"?>
<!-- Generator: Adobe Illustrator 17.1.0, SVG Export Plug-In . SVG Version: 6.00 Build 0)  -->
<!DOCTYPE svg PUBLIC "-//W3C//DTD SVG 1.1//EN" "http://www.w3.org/Graphics/SVG/1.1/DTD/svg11.dtd" [
	<!ENTITY ns_flows "http://ns.adobe.com/Flows/1.0/">
	<!ENTITY ns_extend "http://ns.adobe.com/Extensibility/1.0/">
	<!ENTITY ns_ai "http://ns.adobe.com/AdobeIllustrator/10.0/">
	<!ENTITY ns_graphs "http://ns.adobe.com/Graphs/1.0/">
	<!ENTITY ns_vars "http://ns.adobe.com/Variables/1.0/">
	<!ENTITY ns_imrep "http://ns.adobe.com/ImageReplacement/1.0/">
	<!ENTITY ns_sfw "http://ns.adobe.com/SaveForWeb/1.0/">
	<!ENTITY ns_custom "http://ns.adobe.com/GenericCustomNamespace/1.0/">
	<!ENTITY ns_adobe_xpath "http://ns.adobe.com/XPath/1.0/">
]>
<svg version="1.1" id="Layer_1" xmlns:x="&ns_extend;" xmlns:i="&ns_ai;" xmlns:graph="&ns_graphs;"
	 xmlns="http://www.w3.org/2000/svg" xmlns:xlink="http://www.w3.org/1999/xlink" xmlns:a="http://ns.adobe.com/AdobeSVGViewerExtensions/3.0/"
	 x="0px" y="0px" viewBox="0 0 200 200" enable-background="new 0 0 200 200" xml:space="preserve">
<metadata>
	<sfw  xmlns="&ns_sfw;">
		<slices></slices>
		<sliceSourceBounds  width="1020" height="810" x="10" y="-820" bottomLeftOrigin="true"></sliceSourceBounds>
	</sfw>
</metadata>
<g>
	<path fill="#FFFFFF" d="M189.9786224,99.8200836c0.3737793,49.2739258-39.8135834,89.6281128-88.8572006,90.1742096
		c-50.5154266,0.5624695-90.8474808-40.493927-91.1014099-89.471199
		C9.7610922,50.5873108,50.7250443,9.4896708,101.0283432,10.0047903
		C149.9147339,10.5054007,190.1803894,50.7197609,189.9786224,99.8200836z M52.8682175,113.4861298
		c-0.0020981,0-0.0042,0-0.0062981,0c0,14.8587799,0.0203667,29.7176208-0.031395,44.5762177
		c-0.005188,1.4903717,0.3595467,1.9702148,1.8956757,1.8325043c2.9132576-0.2611237,5.7376366-0.8401489,8.3739471-2.0789642
		c10.1486397-4.7689056,15.493763-12.8390198,15.5676918-24.0082703c0.132103-19.9571838-0.022995-39.9163055-0.0698242-59.8745804
		c-0.0064392-2.7396011,0.5093002-5.3767853,1.4733658-7.92276c6.9573975-18.3738632,30.9993973-22.5595436,43.6853638-6.746727
		c0.699585,0.8719902,1.4721222,1.5015182,2.4611206,1.945755c2.4375153,1.094902,4.963623,1.7840996,7.6568451,1.7830276
		c5.7294464-0.0022621,11.4594421-0.0371628,17.187912,0.0390854c1.4694061,0.0195389,1.6614838-0.369442,1.2269135-1.7008476
		c-4.5068359-13.8077316-12.65242-24.6537743-25.8083344-31.2380905
		c-12.9485855-6.4805489-26.4665146-8.0477791-40.2332916-3.049057
		C65.416893,34.6071663,52.9059067,52.7908554,52.8718147,74.9540482
		C52.852047,87.7980499,52.8682175,100.6421127,52.8682175,113.4861298z M83.0373917,89.4593887
		c-0.1017303,0.3569717-0.1651154,0.4759216-0.1653748,0.5950012c-0.0221634,10.2610245-0.0232468,20.5221558-0.0835876,30.7829437
		c-0.0056992,0.9685974,0.5167694,1.1401672,1.1990662,1.3589401c3.0561371,0.9798737,6.152153,1.8076401,9.3064117,2.399559
		c8.58181,1.6104431,17.1352844,1.7802429,25.5959625-0.7137985c10.073204-2.9693604,17.9769363-9.0123062,24.2660751-17.3038635
		c4.3285217-5.706749,7.5811615-11.9781113,9.8028412-18.7816544c0.2159119-0.6611786,0.8860931-1.647728-0.7186127-1.635231
		c-7.0492706,0.0549164-14.1020508-0.0328598-21.1466675,0.1703568c-2.9710388,0.0856934-5.4251633,1.4936981-7.3446274,3.9810104
		c-4.4913406,5.8200531-10.4949875,9.1239471-17.8368454,9.6882477
		C96.4574661,100.7275848,88.9601593,96.9530487,83.0373917,89.4593887z"/>
	<path opacity="0.5" fill="#FFFFFF" d="M52.8682175,113.4861298c0-12.844017-0.0161705-25.6880798,0.0035973-38.5320816
		c0.0340919-22.1631927,12.5450783-40.3468819,33.3760948-47.9106255c13.766777-4.9987221,27.2847061-3.4314919,40.2332916,3.049057
		c13.1559143,6.5843163,21.3014984,17.4303589,25.8083344,31.2380905c0.4345703,1.3314056,0.2424927,1.7203865-1.2269135,1.7008476
		c-5.7284698-0.0762482-11.4584656-0.0413475-17.187912-0.0390854c-2.693222,0.0010719-5.2193298-0.6881256-7.6568451-1.7830276
		c-0.9889984-0.4442368-1.7615356-1.0737648-2.4611206-1.945755c-12.6859665-15.8128166-36.7279663-11.6271362-43.6853638,6.746727
		c-0.9640656,2.5459747-1.479805,5.1831589-1.4733658,7.92276c0.0468292,19.9582748,0.2019272,39.9173965,0.0698242,59.8745804
		c-0.0739288,11.1692505-5.4190521,19.2393646-15.5676918,24.0082703c-2.6363106,1.2388153-5.4606895,1.8178406-8.3739471,2.0789642
		c-1.536129,0.1377106-1.9008636-0.3421326-1.8956757-1.8325043c0.0517616-14.8585968,0.031395-29.7174377,0.031395-44.5762177
		C52.8640175,113.4861298,52.8661194,113.4861298,52.8682175,113.4861298z"/>
	<path opacity="0.5" fill="#FFFFFF" d="M83.0373917,89.4593887c5.9227676,7.49366,13.4200745,11.2681961,22.8746414,10.5415115
		c7.3418579-0.5643005,13.3455048-3.8681946,17.8368454-9.6882477c1.9194641-2.4873123,4.3735886-3.8953171,7.3446274-3.9810104
		c7.0446167-0.2032166,14.0973969-0.1154404,21.1466675-0.1703568c1.6047058-0.0124969,0.9345245,0.9740524,0.7186127,1.635231
		c-2.2216797,6.8035431-5.4743195,13.0749054-9.8028412,18.7816544
		c-6.2891388,8.2915573-14.1928711,14.3345032-24.2660751,17.3038635
		c-8.4606781,2.4940414-17.0141525,2.3242416-25.5959625,0.7137985c-3.1542587-0.5919189-6.2502747-1.4196854-9.3064117-2.399559
		c-0.6822968-0.2187729-1.2047653-0.3903427-1.1990662-1.3589401c0.0603409-10.260788,0.0614243-20.5219193,0.0835876-30.7829437
		C82.8722763,89.9353104,82.9356613,89.8163605,83.0373917,89.4593887z"/>
</g>
</svg>
