<?xml version="1.0" encoding="utf-8"?>
<!-- Generator: Adobe Illustrator 17.1.0, SVG Export Plug-In . SVG Version: 6.00 Build 0)  -->
<!DOCTYPE svg PUBLIC "-//W3C//DTD SVG 1.1//EN" "http://www.w3.org/Graphics/SVG/1.1/DTD/svg11.dtd" [
	<!ENTITY ns_flows "http://ns.adobe.com/Flows/1.0/">
	<!ENTITY ns_extend "http://ns.adobe.com/Extensibility/1.0/">
	<!ENTITY ns_ai "http://ns.adobe.com/AdobeIllustrator/10.0/">
	<!ENTITY ns_graphs "http://ns.adobe.com/Graphs/1.0/">
	<!ENTITY ns_vars "http://ns.adobe.com/Variables/1.0/">
	<!ENTITY ns_imrep "http://ns.adobe.com/ImageReplacement/1.0/">
	<!ENTITY ns_sfw "http://ns.adobe.com/SaveForWeb/1.0/">
	<!ENTITY ns_custom "http://ns.adobe.com/GenericCustomNamespace/1.0/">
	<!ENTITY ns_adobe_xpath "http://ns.adobe.com/XPath/1.0/">
]>
<svg version="1.1" id="Layer_1" xmlns:x="&ns_extend;" xmlns:i="&ns_ai;" xmlns:graph="&ns_graphs;"
	 xmlns="http://www.w3.org/2000/svg" xmlns:xlink="http://www.w3.org/1999/xlink" xmlns:a="http://ns.adobe.com/AdobeSVGViewerExtensions/3.0/"
	 x="0px" y="0px" viewBox="0 0 200 200" enable-background="new 0 0 200 200" xml:space="preserve">
<metadata>
	<sfw  xmlns="&ns_sfw;">
		<slices></slices>
		<sliceSourceBounds  width="1020" height="810" x="10" y="-820" bottomLeftOrigin="true"></sliceSourceBounds>
	</sfw>
</metadata>
<g>
	<path opacity="0.5" fill="#FFFFFF" d="M189.8990936,65.5108185c0.0497742-15.439949,0.1008911-31.4059105,0.1008911-43.0525742
		h-22.0413055c0,11.6112385-0.0511169,27.5588131-0.1008911,42.98172
		c-0.0282593,8.7844925-0.0553284,17.240181-0.0708618,24.3279724l22.0498962-3.5874481
		C189.8527374,79.9200439,189.8754883,72.8302307,189.8990936,65.5108185z"/>
	<path opacity="0.7" fill="#FFFFFF" d="M32.2265015,100.120491c0-15.6462326,12.7291794-28.375412,28.3754082-28.375412
		s28.3754082,12.7291794,28.3754082,28.375412c0,0.8389587-0.0438919,1.6674881-0.1155853,2.4881744l0.1935577-0.0314484
		c-0.0473709-0.8935547-0.0739365-1.7925491-0.0739365-2.6977081c0-11.8127518,4.0942917-22.6807709,10.9239044-31.2842102
		c-9.2481766-11.5068703-23.4258957-18.8915291-39.3033485-18.8915291c-27.8000679,0-50.4167175,22.6166496-50.4167175,50.4167213
		c0,4.093895-0.0103703,9.3561325-0.0261774,15.2927475l22.0503922-3.5874557
		C32.219944,107.35672,32.2265015,103.3679733,32.2265015,100.120491z"/>
	<path opacity="0.8" fill="#FFFFFF" d="M10.1008863,134.4891815c-0.0497751,15.4399567-0.1008968,31.4059143-0.1008968,43.0525818
		h22.0413132c0-11.6112518,0.0511208-27.5588226,0.1008949-42.9817352
		c0.0127258-3.9528656,0.0251694-7.8362198,0.0364914-11.5633087l-22.052578,3.5878448
		C10.1179829,129.1706238,10.109519,131.813736,10.1008863,134.4891815z"/>
	<path opacity="0.8" fill="#FFFFFF" d="M85.1162109,114.3840332c-4.924736,8.431076-14.0658417,14.1118622-24.5143013,14.1118622
		c-3.1403656,0-9.7013702-1.3079605-12.6359062-2.307518l-0.2295952,11.6944199v10.9866943
		c4.1834183,1.1021271,8.4951973,1.6677094,12.8655014,1.6677094c15.9873161,0,30.24963-7.4885864,39.4928093-19.1324921
		c-4.2057266-5.2329254-7.3851624-11.318367-9.2427368-17.9538651L85.1162109,114.3840332z"/>
	<path opacity="0.5" fill="#FFFFFF" d="M139.3980713,49.4627953c-15.9873199,0-30.2496262,7.4885826-39.4928131,19.1325035
		c-6.8296127,8.6034393-10.9239044,19.4714584-10.9239044,31.2842102c0,0.905159,0.0265656,1.8041534,0.0739365,2.6977081
		l21.9350891-3.5687866l0.0545959-0.0088501c0.4676514-15.2397842,13.0019379-27.4954758,28.353096-27.4954758
		c3.1403656,0,9.7013702,1.3079071,12.63591,2.3074646l0.229599-11.6943703V51.1305122
		C148.0801544,50.0283775,143.7683716,49.4627953,139.3980713,49.4627953z"/>
	<path fill="#FFFFFF" d="M167.7465668,100.9404449c-0.5608215,15.1559219-13.0580444,27.3144684-28.3484955,27.3144684
		c-12.1299057,0-22.5019073-7.6529846-26.5533218-18.3822174l-2.8686676,0.4667053l-19.1240997,3.1114426
		c1.8575745,6.635498,5.0370102,12.7209396,9.2427368,17.9538651c9.2481766,11.5068665,23.4259033,18.8915253,39.3033524,18.8915253
		c27.8000641,0,50.4167175-22.6166534,50.4167175-50.4167252c0-0.7962418,0.0005035-1.6487656,0.001236-2.5296555
		L167.7465668,100.9404449z"/>
</g>
</svg>
