<?xml version="1.0" encoding="utf-8"?>
<!-- Generator: Adobe Illustrator 17.1.0, SVG Export Plug-In . SVG Version: 6.00 Build 0)  -->
<!DOCTYPE svg PUBLIC "-//W3C//DTD SVG 1.1//EN" "http://www.w3.org/Graphics/SVG/1.1/DTD/svg11.dtd" [
	<!ENTITY ns_flows "http://ns.adobe.com/Flows/1.0/">
	<!ENTITY ns_extend "http://ns.adobe.com/Extensibility/1.0/">
	<!ENTITY ns_ai "http://ns.adobe.com/AdobeIllustrator/10.0/">
	<!ENTITY ns_graphs "http://ns.adobe.com/Graphs/1.0/">
	<!ENTITY ns_vars "http://ns.adobe.com/Variables/1.0/">
	<!ENTITY ns_imrep "http://ns.adobe.com/ImageReplacement/1.0/">
	<!ENTITY ns_sfw "http://ns.adobe.com/SaveForWeb/1.0/">
	<!ENTITY ns_custom "http://ns.adobe.com/GenericCustomNamespace/1.0/">
	<!ENTITY ns_adobe_xpath "http://ns.adobe.com/XPath/1.0/">
]>
<svg version="1.1" id="Layer_1" xmlns:x="&ns_extend;" xmlns:i="&ns_ai;" xmlns:graph="&ns_graphs;"
	 xmlns="http://www.w3.org/2000/svg" xmlns:xlink="http://www.w3.org/1999/xlink" xmlns:a="http://ns.adobe.com/AdobeSVGViewerExtensions/3.0/"
	 x="0px" y="0px" viewBox="0 0 200 200" enable-background="new 0 0 200 200" xml:space="preserve">
<metadata>
	<sfw  xmlns="&ns_sfw;">
		<slices></slices>
		<sliceSourceBounds  width="1020" height="810" x="10" y="-820" bottomLeftOrigin="true"></sliceSourceBounds>
	</sfw>
</metadata>
<g>
	<path fill="#FFFFFF" d="M81.0915146,125.1495056c5.4050217,3.0894928,10.7796402,5.9695892,15.9377518,9.1958618
		c2.3634644,1.478302,4.1241379,1.3040771,6.4230957-0.058136c11.2032852-6.6383286,22.4812622-13.1518631,33.7871857-19.6144333
		c1.7515106-1.0011826,2.3001404-2.2186737,2.2904663-4.1476288c-0.0663452-13.2489319,0.0296478-26.4992752-0.150528-39.7461243
		c-0.0184784-1.3589554-1.1819611-3.2547913-2.3719788-3.9596863
		c-11.5751343-6.8563309-23.2439423-13.5568886-34.9738617-20.1454811c-1.0235062-0.574894-2.9481659-0.5269623-3.9878922,0.0590782
		c-11.5325089,6.5003204-22.9477234,13.2084618-34.4617958,19.7420502c-2.0318756,1.1529846-2.788063,2.4586105-2.7837448,4.8297501
		c0.0605164,33.174736,0.029953,66.3497238-0.0817757,99.5243149c-0.0039558,1.1764374-0.7575111,2.8804169-1.6972237,3.4413147
		c-8.9609489,5.3488159-18.0368233,10.5051727-27.0886402,15.7011871c-0.1430359,0.0821075-0.3992481-0.0329285-1.0072231-0.1017609
		c0-1.2054138-0.0006008-2.452774,0.0000839-3.7001343c0.0245228-44.5947418,0.0748291-89.1895294,0.0094528-133.7841492
		c-0.0038853-2.6509438,0.915554-4.0454483,3.1232834-5.3120689c21.0949936-12.1027412,42.1154289-24.3356094,63.2403755-36.3854294
		c1.3108368-0.7477016,3.7149353-0.9621143,4.9463272-0.260005c21.4076462,12.2061758,42.6946716,24.6236191,64.0639191,36.8976936
		c2.0648193,1.1860008,2.7636566,2.5472527,2.7566071,4.8701782c-0.0738983,24.3440399-0.0842285,48.6885452,0.0094147,73.0324402
		c0.0095367,2.4812775-0.7798004,3.8970718-2.9076538,5.1154556
		c-21.1997833,12.1386414-42.3639908,24.3396759-63.4923859,36.6021118
		c-1.8983765,1.1017761-3.3768005,1.2543488-5.286911,0.0765076c-4.9445648-3.0490723-10.0383606-5.8561249-14.9838028-8.9038391
		c-0.8364334-0.5154572-1.7414932-1.7414398-1.7519379-2.6490479c-0.1114426-9.6918182-0.0516205-19.3856659-0.0207062-29.0788803
		C80.632309,126.1091003,80.83255,125.828186,81.0915146,125.1495056z"/>
</g>
</svg>
