<?xml version="1.0" encoding="utf-8"?>
<!-- Generator: Adobe Illustrator 17.1.0, SVG Export Plug-In . SVG Version: 6.00 Build 0)  -->
<!DOCTYPE svg PUBLIC "-//W3C//DTD SVG 1.1//EN" "http://www.w3.org/Graphics/SVG/1.1/DTD/svg11.dtd" [
	<!ENTITY ns_flows "http://ns.adobe.com/Flows/1.0/">
	<!ENTITY ns_extend "http://ns.adobe.com/Extensibility/1.0/">
	<!ENTITY ns_ai "http://ns.adobe.com/AdobeIllustrator/10.0/">
	<!ENTITY ns_graphs "http://ns.adobe.com/Graphs/1.0/">
	<!ENTITY ns_vars "http://ns.adobe.com/Variables/1.0/">
	<!ENTITY ns_imrep "http://ns.adobe.com/ImageReplacement/1.0/">
	<!ENTITY ns_sfw "http://ns.adobe.com/SaveForWeb/1.0/">
	<!ENTITY ns_custom "http://ns.adobe.com/GenericCustomNamespace/1.0/">
	<!ENTITY ns_adobe_xpath "http://ns.adobe.com/XPath/1.0/">
]>
<svg version="1.1" id="Layer_1" xmlns:x="&ns_extend;" xmlns:i="&ns_ai;" xmlns:graph="&ns_graphs;"
	 xmlns="http://www.w3.org/2000/svg" xmlns:xlink="http://www.w3.org/1999/xlink" xmlns:a="http://ns.adobe.com/AdobeSVGViewerExtensions/3.0/"
	 x="0px" y="0px" viewBox="0 0 200 200" enable-background="new 0 0 200 200" xml:space="preserve">
<metadata>
	<sfw  xmlns="&ns_sfw;">
		<slices></slices>
		<sliceSourceBounds  width="1020" height="810" x="10" y="-820" bottomLeftOrigin="true"></sliceSourceBounds>
	</sfw>
</metadata>
<g>
	<path opacity="0.6" fill="#FFFFFF" d="M99.9762268,10c8.3247757,1.6949415,16.655365,3.3619146,24.9730835,5.090848
		c15.6317596,3.2492437,31.2516785,6.5556345,46.8911133,9.7671919c1.3726349,0.2818718,1.7186432,0.791357,1.7171021,2.136734
		c-0.0379028,33.3811798-0.0328369,66.7624207-0.026825,100.1436462c0.0010223,5.7877426-2.1100311,10.8785629-5.1762695,15.6301804
		c-4.8490143,7.5143433-11.3215637,13.4912872-18.3403473,18.8908386
		c-14.9371643,11.4911499-31.3917923,20.358551-48.6373978,27.8256073
		c-0.5506897,0.2384491-1.1336136,0.8516998-1.8419037,0.2748413c0.6159973-0.4210815,0.4648209-1.0691986,0.4663086-1.6553802
		c0.0062714-2.480423-0.0068665-4.9609222-0.0129166-7.4413757c16.8598633-6.8060303,32.9701843-15.0055695,47.6275787-25.8549347
		c6.1765594-4.5718994,11.9066315-9.6392975,16.151413-16.1559448c2.3789673-3.6522064,3.9142761-7.5788422,3.9115601-12.0380325
		c-0.0192261-31.4207764-0.0175018-62.8415947,0.0197144-94.2623444c0.0014648-1.2366028-0.3638611-1.6723061-1.5676575-1.862072
		c-15.5322723-2.4484825-31.0588989-4.9330311-46.5827866-7.4343491
		c-6.5194092-1.0504551-13.0289993-2.1619167-19.5430527-3.2456436C99.9953766,16.5398731,99.9858017,13.2699366,99.9762268,10z"/>
	<path fill="#FFFFFF" d="M99.9881744,180.6631317c0.0060501,2.4804535,0.0191879,4.9609528,0.0129166,7.4413757
		c-0.0014877,0.5861816,0.1496887,1.2342987-0.4663086,1.6553802c-5.8206253-2.2790985-11.30793-5.2520905-16.7950974-8.2046814
		c-12.8366547-6.9073029-25.4406433-14.1967316-36.7388954-23.5101776
		c-5.3126755-4.3794098-10.1706009-9.1984406-14.0301018-14.9486084
		c-3.6765423-5.4775696-5.5500126-11.4125214-5.5280285-18.1102829c0.1067429-32.520134,0.0658092-65.0408401,0.0005474-97.5611877
		c-0.003582-1.7846813,0.5058651-2.3088722,2.2123222-2.6598778c23.5439453-4.8427906,47.0688972-9.7778873,70.5992126-14.6869831
		c0.2356491-0.0491629,0.4807663-0.0529518,0.7214737-0.0780048c0.0095901,3.2698545,0.019165,6.5397911,0.0287704,9.8097229
		c-1.6110382,0.6323833-3.3419724,0.6278954-5.0159378,0.8994408c-20.1830139,3.2740421-40.370121,6.5233765-60.5671997,9.7092113
		c-1.5484848,0.2442532-2.0852661,0.6657734-2.081974,2.3446312c0.0603561,30.8224258,0.0854607,61.6451225,0.0032845,92.467453
		c-0.0136261,5.1118851,1.3957138,9.6334915,4.1915092,13.8124619c3.6203041,5.4113922,8.2808723,9.8340302,13.3704643,13.8061676
		C65.1395264,164.7387848,82.1974106,173.3656464,99.9881744,180.6631317z"/>
	<path opacity="0.6" fill="#FFFFFF" d="M49.2393494,35.6247101c5.1232452-0.8664169,10.2417946-1.7617683,15.3706894-2.5933113
		c11.2346802-1.8214626,22.4785461-3.5865936,33.7092896-5.4317513c2.4459-0.4018478,4.7490158,0.268322,7.0876465,0.639349
		c18.1904373,2.8859177,36.3712997,5.8323307,54.5642776,8.7019901c1.2417145,0.1958618,1.5779114,0.6205673,1.5765228,1.838501
		c-0.0323792,28.5427933-0.0246124,57.0856247-0.0270233,85.6284485c-0.0003052,3.7256546-1.1618042,7.0805283-3.2749023,10.125206
		c-1.5274963-0.022934-3.0426788-0.2437744-4.5589142-0.341507c-5.9078217-0.3808136-11.7542267-1.1434174-17.5731964-2.2273254
		c-16.0697861-2.9933014-31.0210495-8.6784592-44.440094-18.1578827c-1.380806-0.9754181-2.5466995-2.28479-4.2060318-2.8529129
		c-0.0211334-0.9780045,0.0472031-1.9681625-0.08358-2.9312744c-0.2170715-1.5986252,0.472168-1.8937607,1.9451828-1.8790359
		c7.4124298,0.0740814,14.8267288,0.0989151,22.2390442,0.0187759c15.2818527-0.1652145,26.2647781-9.4150848,28.266243-24.4969254
		c2.542572-19.1591606-9.4067535-32.5969353-27.5246506-33.1092148c-11.4476395-0.3236771-22.9116516-0.0575714-34.3681793-0.096653
		c-1.084549-0.0037003-1.5490036,0.2325554-1.4776993,1.4172363c0.099205,1.6482124,0.1666336,3.3223419-0.0122223,4.9569397
		c-0.2031631,1.8566971,0.5188522,2.1786537,2.2281876,2.1610756c10.6590271-0.1096573,21.3197327-0.1736488,31.9790115-0.1091347
		c10.8767242,0.0658112,18.2163696,6.1223793,19.668396,16.4742928c0.9884796,7.0472336-0.0834351,13.7427063-5.4873581,19.0198593
		c-4.1476974,4.0503922-9.3432846,5.4023132-14.9758759,5.4128799c-9.3736572,0.0175858-18.7473679,0.004715-28.1210556,0.0046844
		c-3.4445877-0.0000153-3.4443893,0.0000153-3.7382507,3.4421921c-0.0050812,0.0594635-0.0359879,0.1167374-0.0548325,0.1750259
		c-3.7533493-3.1981888-6.5174942-7.2286301-9.2902374-11.2268448
		c-7.5993729-10.9581375-12.672039-23.0744858-16.0214233-35.9240837
		C51.0437241,48.1458092,49.5386124,41.9890671,49.2393494,35.6247101z M88.0483551,81.1538925
		c5.5150146,0,11.0305634-0.041626,16.5446396,0.0303497c1.3174362,0.0172043,1.7036209-0.3928452,1.6177216-1.663063
		c-0.1031265-1.5249786-0.0704498-3.0641251-0.0078049-4.5934982c0.0385361-0.9408417-0.2647858-1.3036194-1.236084-1.3017426
		c-11.1525421,0.0215912-22.3051453,0.0214996-33.4576797-0.0000458c-0.9657059-0.0018692-1.283165,0.3490601-1.2419281,1.2958832
		c0.0639191,1.4678802,0.1065674,2.9477158-0.0090866,4.4092484c-0.1119461,1.4146576,0.2945099,1.8883057,1.7973709,1.8608398
		C77.384903,81.0944519,82.7171707,81.1538773,88.0483551,81.1538925z"/>
	<path fill="#FFFFFF" d="M49.2393494,35.6247101c0.299263,6.364357,1.8043747,12.5210991,3.3989639,18.6385994
		c3.3493843,12.8495979,8.4220505,24.9659462,16.0214233,35.9240837c2.7727432,3.9982147,5.5368881,8.028656,9.2902222,11.2267532
		c0.0475159,0.7906342,0.13591,1.5813065,0.1364517,2.3720474c0.0086746,12.6096573,0.0350037,25.2194519-0.030838,37.8287811
		c-0.0081329,1.5582428,0.4448853,1.9916534,1.9429092,1.8799744c1.7653351-0.1315918,3.5560913-0.1360016,5.3207626-0.000061
		c1.6298676,0.1255493,2.1413651-0.3264923,2.1290207-2.0628662c-0.0721588-10.1589508-0.0024719-20.3188934,0.0193481-30.478508
		c1.6593323,0.5681229,2.8252258,1.8774948,4.2060318,2.8529129c13.4190445,9.4794235,28.3703079,15.1645813,44.440094,18.1578827
		c5.8189697,1.0839081,11.6653748,1.8465118,17.5731964,2.2273254c1.5162354,0.0977325,3.0314178,0.318573,4.5589142,0.341507
		c-2.2046051,3.969101-5.3566437,7.1408691-8.6950378,10.1206818c-9.3950653,8.3859406-20.1776886,14.6607819-31.3168945,20.3739319
		c-5.5002823,2.8210297-11.1177368,5.3912201-16.8437424,7.7228394c-0.7429199,0.3025208-1.4182205,0.5468597-2.2740707,0.1893768
		c-16.5531998-6.9140625-32.4505463-14.9825897-46.4444351-26.3898315
		c-3.6180725-2.949295-6.9106941-6.2386475-9.6605186-10.0370026c-2.9905052-4.1307983-4.552124-8.6184235-4.5307503-13.8455124
		c0.1137276-27.8161697,0.0681076-55.6330872,0.0157204-83.4496307c-0.0030136-1.5997887,0.3916512-2.2317467,2.0307884-2.3723488
		C43.4465027,36.5952148,46.2980347,35.7796898,49.2393494,35.6247101z"/>
</g>
</svg>
