<?xml version="1.0" encoding="utf-8"?>
<!-- Generator: Adobe Illustrator 17.1.0, SVG Export Plug-In . SVG Version: 6.00 Build 0)  -->
<!DOCTYPE svg PUBLIC "-//W3C//DTD SVG 1.1//EN" "http://www.w3.org/Graphics/SVG/1.1/DTD/svg11.dtd" [
	<!ENTITY ns_flows "http://ns.adobe.com/Flows/1.0/">
	<!ENTITY ns_extend "http://ns.adobe.com/Extensibility/1.0/">
	<!ENTITY ns_ai "http://ns.adobe.com/AdobeIllustrator/10.0/">
	<!ENTITY ns_graphs "http://ns.adobe.com/Graphs/1.0/">
	<!ENTITY ns_vars "http://ns.adobe.com/Variables/1.0/">
	<!ENTITY ns_imrep "http://ns.adobe.com/ImageReplacement/1.0/">
	<!ENTITY ns_sfw "http://ns.adobe.com/SaveForWeb/1.0/">
	<!ENTITY ns_custom "http://ns.adobe.com/GenericCustomNamespace/1.0/">
	<!ENTITY ns_adobe_xpath "http://ns.adobe.com/XPath/1.0/">
]>
<svg version="1.1" id="Layer_1" xmlns:x="&ns_extend;" xmlns:i="&ns_ai;" xmlns:graph="&ns_graphs;"
	 xmlns="http://www.w3.org/2000/svg" xmlns:xlink="http://www.w3.org/1999/xlink" xmlns:a="http://ns.adobe.com/AdobeSVGViewerExtensions/3.0/"
	 x="0px" y="0px" viewBox="0 0 200 200" enable-background="new 0 0 200 200" xml:space="preserve">
<metadata>
	<sfw  xmlns="&ns_sfw;">
		<slices></slices>
		<sliceSourceBounds  width="1020" height="810" x="10" y="-820" bottomLeftOrigin="true"></sliceSourceBounds>
	</sfw>
</metadata>
<g>
	<path fill="#FFFFFF" d="M100,10c-49.7056274,0-90,40.2943726-90,90s40.2943726,90,90,90s90-40.2943726,90-90S149.7056274,10,100,10
		z M42.8483276,76.2154541c-0.0584717-0.5792236-0.0076294-1.1694336-0.0076294-2.0755005c2.0980225,0,3.9439697,0,5.789917,0
		c10.1808472,0,20.3616943-0.012146,30.5424805,0.0036621c9.0653687,0.0140991,16.77948,6.6654053,18.1381836,15.6265869
		c0.1201172,0.7922974,0.1027832,1.6054077,0.1549683,2.5065308c-0.5552368,0.0897827-0.977417,0.2175903-1.3996582,0.2177124
		c-11.8898926,0.0020142-23.7808838,0.0900269-35.6691895-0.0498657
		C51.4161377,92.3388672,43.7459106,85.105835,42.8483276,76.2154541z M155.5794678,95.2810059
		c-3.8206787,14.6271362-14.298584,22.3035278-28.5951538,25.1937256c-4.3461304,0.87854-8.8508301,1.1928101-13.2953491,1.3157349
		c-7.5117798,0.2077637-15.0335083,0.0570679-22.5510254,0.0570679c-0.7938232,0-1.5875854,0-2.6208496,0
		c0,5.0179443,0.0130615,9.7619019-0.0027466,14.5057983c-0.0314941,9.4351807-6.5514526,16.9717407-15.8925171,18.3699951
		c-0.7145996,0.1069336-1.4474487,0.0917969-2.47052,0.1506348c0-0.973938,0-1.7679443,0-2.5619507
		c0-10.1970825-0.0032959-20.394104,0.0009155-30.5911865c0.0040283-9.7930908,6.5116577-16.4267578,16.3302612-16.5036621
		c9.3033447-0.072937,18.6089478,0.0701294,27.9108276-0.065918c3.0263062-0.0442505,6.1065063-0.3974609,9.0549316-1.0753174
		c12.0280151-2.7651978,17.0515747-11.4086914,16.1324463-22.9439697
		c-0.9118652-11.4449463-7.6490479-17.8766479-19.8681641-18.9783936
		c-6.6505737-0.5996704-13.3756104-0.4036255-20.0679932-0.4995117c-4.5393677-0.0650024-9.0818481,0.0595093-13.6204224-0.0297852
		c-8.6271362-0.1696777-16.0775146-7.890686-15.7128906-16.4143677c0.6778564-0.03479,1.1888428-0.0842285,1.699707-0.0838623
		c14.7371826,0.0112305,29.4747314-0.03125,44.2112427,0.0697632c6.5101929,0.0446167,12.8981934,1.0750122,19.0008545,3.456543
		c13.9960327,5.4619751,21.1662598,15.9898682,21.8879395,30.7362061
		C157.3690186,84.6619873,156.9105835,90.1851807,155.5794678,95.2810059z"/>
	<path opacity="0.4" fill="#FFFFFF" d="M135.2230225,48.6523438c-6.1026611-2.3815308-12.4906616-3.4119263-19.0008545-3.456543
		c-14.7365112-0.1010132-29.4740601-0.0585327-44.2112427-0.0697632c-0.5108643-0.0003662-1.0218506,0.0490723-1.699707,0.0838623
		c-0.364624,8.5236816,7.0857544,16.2446899,15.7128906,16.4143677c4.5385742,0.0892944,9.0810547-0.0352173,13.6204224,0.0297852
		c6.6923828,0.0958862,13.4174194-0.1001587,20.0679932,0.4995117c12.2191162,1.1017456,18.9562988,7.5334473,19.8681641,18.9783936
		c0.9191284,11.5352783-4.1044312,20.178772-16.1324463,22.9439697c-2.9484253,0.6778564-6.0286255,1.0310669-9.0549316,1.0753174
		c-9.3018799,0.1360474-18.6074829-0.007019-27.9108276,0.065918c-9.8186035,0.0769043-16.3262329,6.7105713-16.3302612,16.5036621
		c-0.0042114,10.1970825-0.0009155,20.394104-0.0009155,30.5911865c0,0.7940063,0,1.5880127,0,2.5619507
		c1.0230713-0.0588379,1.7559204-0.0437012,2.47052-0.1506348c9.3410645-1.3982544,15.8610229-8.9348145,15.8925171-18.3699951
		c0.0158081-4.7438965,0.0027466-9.487854,0.0027466-14.5057983c1.0332642,0,1.8270264,0,2.6208496,0
		c7.5175171,0,15.0392456,0.1506958,22.5510254-0.0570679c4.444519-0.1229248,8.9492188-0.4371948,13.2953491-1.3157349
		c14.2965698-2.8901978,24.7744751-10.5665894,28.5951538-25.1937256
		c1.3311157-5.0958252,1.7895508-10.6190186,1.5314941-15.8924561
		C156.3892822,64.6422119,149.2190552,54.1143188,135.2230225,48.6523438z"/>
	<path opacity="0.4" fill="#FFFFFF" d="M96.0665894,92.4944458c0.4222412-0.0001221,0.8444214-0.1279297,1.3996582-0.2177124
		c-0.0521851-0.901123-0.0348511-1.7142334-0.1549683-2.5065308c-1.3587036-8.9611816-9.0728149-15.6124878-18.1381836-15.6265869
		c-10.1807861-0.0158081-20.3616333-0.0036621-30.5424805-0.0036621c-1.8459473,0-3.6918945,0-5.789917,0
		c0,0.9060669-0.0508423,1.4962769,0.0076294,2.0755005c0.897583,8.8903809,8.5678101,16.1234131,17.5490723,16.229126
		C72.2857056,92.5844727,84.1766968,92.49646,96.0665894,92.4944458z"/>
</g>
</svg>
