<?xml version="1.0" encoding="utf-8"?>
<!-- Generator: Adobe Illustrator 17.1.0, SVG Export Plug-In . SVG Version: 6.00 Build 0)  -->
<!DOCTYPE svg PUBLIC "-//W3C//DTD SVG 1.1//EN" "http://www.w3.org/Graphics/SVG/1.1/DTD/svg11.dtd" [
	<!ENTITY ns_flows "http://ns.adobe.com/Flows/1.0/">
	<!ENTITY ns_extend "http://ns.adobe.com/Extensibility/1.0/">
	<!ENTITY ns_ai "http://ns.adobe.com/AdobeIllustrator/10.0/">
	<!ENTITY ns_graphs "http://ns.adobe.com/Graphs/1.0/">
	<!ENTITY ns_vars "http://ns.adobe.com/Variables/1.0/">
	<!ENTITY ns_imrep "http://ns.adobe.com/ImageReplacement/1.0/">
	<!ENTITY ns_sfw "http://ns.adobe.com/SaveForWeb/1.0/">
	<!ENTITY ns_custom "http://ns.adobe.com/GenericCustomNamespace/1.0/">
	<!ENTITY ns_adobe_xpath "http://ns.adobe.com/XPath/1.0/">
]>
<svg version="1.1" id="Layer_1" xmlns:x="&ns_extend;" xmlns:i="&ns_ai;" xmlns:graph="&ns_graphs;"
	 xmlns="http://www.w3.org/2000/svg" xmlns:xlink="http://www.w3.org/1999/xlink" xmlns:a="http://ns.adobe.com/AdobeSVGViewerExtensions/3.0/"
	 x="0px" y="0px" viewBox="0 0 200 200" enable-background="new 0 0 200 200" xml:space="preserve">
<metadata>
	<sfw  xmlns="&ns_sfw;">
		<slices></slices>
		<sliceSourceBounds  width="1020" height="810" x="10" y="-820" bottomLeftOrigin="true"></sliceSourceBounds>
	</sfw>
</metadata>
<g>
	<path fill="#FFFFFF" d="M113.7656631,26.0761337c-0.0692978-4.50247-0.0342712-9.0098629-0.246582-13.5055761
		c-0.1296387-2.7449503,1.0999374-2.775176,3.2862473-2.4016895c37.8384094,6.4639082,69.7106781,41.5320663,72.7139587,80.0300903
		c0.5040283,6.4610291,0.4145508,12.8968964-0.1071625,19.3494186c-0.1906433,2.3577347-0.9613647,3.4956894-3.5679169,3.358963
		c-4.4943085-0.235733-9.0045166-0.1687012-13.5078583-0.2287216c-0.0825653-8.1865158,1.3021698-16.3976517-0.0821838-24.5557861
		c-3.4807434-20.5122147-13.0552979-37.517231-30.00914-49.824028
		C133.7608795,32.1401634,124.7151184,26.7472019,113.7656631,26.0761337z"/>
	<path fill="#FFFFFF" d="M108.3244553,173.2783203c0.0758057,4.2024841,0.0255051,8.412384,0.2721329,12.6048126
		c0.1621552,2.7564545-0.8885574,3.5892487-3.5765381,3.7133942c-26.2814636,1.2138062-49.1497536-6.9356232-68.2826767-25.0160828
		c-13.8372765-13.0761261-22.5256577-29.1029358-26.3865776-47.7785568
		c-0.5404806-2.6143494-0.1262188-3.5813293,2.6529684-3.4216766c3.7437153,0.2150574,7.5017147,0.1814194,11.2535477,0.2545319
		c0.9729424,5.0216599,2.5741501,9.8682861,4.6563702,14.5074997c9.6249619,21.4445648,25.5850677,35.697464,48.1984177,42.5563507
		C87.3902588,173.8160706,97.8544922,173.2444916,108.3244553,173.2783203z"/>
	<path fill="#FFFFFF" d="M24.2393684,84.6829147c-3.7563648,0.0671005-7.5195827,0.0181427-11.2668419,0.2394409
		c-2.7998848,0.1653519-3.1027098-0.805336-2.6344595-3.4070053c6.2753153-34.8666725,36.7915382-65.4035034,71.3755875-71.3294754
		c2.1365356-0.3660946,3.4831848-0.4356422,3.3285751,2.3930035c-0.2294388,4.1981287-0.1892471,8.4109945-0.2638321,12.6176558
		c-1.1962128,0.0475616-2.4494247-0.1222706-3.5803146,0.1743011
		C52.2731934,32.9563065,30.3833542,53.7581329,24.2393684,84.6829147z"/>
	<path opacity="0.7" fill="#FFFFFF" d="M108.3244553,173.2783203c-10.4699631-0.0338287-20.9341965,0.5377502-31.2123566-2.5797272
		c-22.6133499-6.8588867-38.5734558-21.1117859-48.1984177-42.5563507
		c-2.0822201-4.6392136-3.6834278-9.4858398-4.6563702-14.5074997c0.2939529-0.060112,0.5877743-0.1719894,0.8817959-0.1725159
		c4.2030373-0.0075073,8.8111115-1.0806503,12.4978142,0.3010406c3.8603172,1.4467468,3.308567,6.8650589,4.9103279,10.4389114
		c10.6734009,23.8144836,34.4845047,38.2231445,61.3254089,36.5469513c3.7952194-0.2370148,5.1703262,0.6274414,4.7175369,4.4490967
		C108.2742844,167.8646698,108.3974304,170.5830994,108.3244553,173.2783203z"/>
	<path opacity="0.7" fill="#FFFFFF" d="M113.7656631,26.0761337c10.9494553,0.6710682,19.9952164,6.0640297,28.4793625,12.2226715
		c16.9538422,12.306797,26.5283966,29.3118134,30.00914,49.824028c1.3843536,8.1581345-0.0003815,16.3692703,0.0821838,24.5557861
		c-3.8978424-0.0064468-8.8499908,1.4240952-11.3864441-0.4372482c-2.3746643-1.7426071,0.1835785-6.8326035,0.3568268-10.4652481
		c1.3021698-27.3054199-16.3652954-52.9726639-42.7521362-61.355114c-4.1161423-1.3075981-5.6252594-3.0401459-5.047226-7.148243
		C113.8400269,30.9085808,113.6954346,28.4772434,113.7656631,26.0761337z"/>
	<path fill="#FFFFFF" d="M175.0263062,182.9581604c-23.5718536-12.964798-47.1441803-25.9287262-70.7030792-38.9170074
		c-0.9811249-0.5408936-2.3786621-0.7735748-2.4638748-2.3213196c1.2293396-1.0720673,2.5057678-2.094986,3.679924-3.2242432
		c5.1531677-4.9560852,10.2767563-9.9429474,15.4110641-14.9186478
		c13.8151627,13.7097855,27.6370468,27.4128189,41.4424362,41.1324387c2.9334869,2.9152527,5.8545074,5.8431091,8.77771,8.7687378
		c1.620285,1.6216278,3.2412415,3.242569,4.8653717,4.8603058"/>
	<path opacity="0.7" fill="#FFFFFF" d="M24.2393684,84.6829147c6.1439857-30.9247818,28.0338249-51.7266083,56.9587135-59.3120804
		c1.1308899-0.2965717,2.3841019-0.1267395,3.5803223-0.1743011c0.0324783,0.1466713,0.0922089,0.2931805,0.0934525,0.4401855
		c0.0330734,3.9038315,0.9820709,8.1047306-0.1546936,11.6333447c-1.3017044,4.0405846-6.4954376,3.300396-9.8681335,4.8651123
		C57.6746559,50.102993,45.8890953,62.8089371,40.2079201,80.8863678c-1.0141029,3.2268753-2.3913956,4.3332062-5.6200676,4.0488815
		C31.1575508,84.6331711,27.6904182,84.7493744,24.2393684,84.6829147z"/>
	<path opacity="0.7" fill="#FFFFFF" d="M120.9503403,123.5769424c-5.1343079,4.9757004-10.2578964,9.9625626-15.4110641,14.9186478
		c-1.1741562,1.1292572-2.4505844,2.1521759-3.679924,3.2242432c-1.6349335-13.6888733-3.2760315-27.3772354-4.8868942-41.0691528
		c-0.0812836-0.6909409,0.4206772-1.0499878,1.1331558-1.0204239c5.2525864,6.74366,11.8980179,12.1446991,17.6983337,18.3602982
		C117.5313034,119.8415909,119.2355194,121.7142029,120.9503403,123.5769424z"/>
	<polygon fill="#FFFFFF" points="170.6570435,180.5401306 187.5116577,190 187.3917389,189.7837524 174.4478455,176.7697601 	"/>
	<path opacity="0.4" fill="#FFFFFF" d="M187.3917236,189.7837524l-9.2489014-16.6891479l-0.012146,0.012085
		c-3.3798828-6.1357422-6.7678223-12.2670288-10.1481934-18.4025269
		c-8.6130371-15.6329346-17.1929932-31.2841187-25.8675537-46.8828125
		c-0.8883057-1.5974121-1.3723755-3.7703247-3.8260498-4.0223389c-13.3959351-1.3757935-26.7892456-2.7765503-40.1835327-4.1687012
		c5.2528687,6.7435913,11.8982544,12.1446533,17.6986084,18.3602295c1.727356,1.8510132,3.4315796,3.7236328,5.1463623,5.5863647
		c13.8129272,13.7075195,43.2149658,43.0152588,57.0232544,56.7377319L187.3917236,189.7837524z"/>
</g>
</svg>
