<?xml version="1.0" encoding="utf-8"?>
<!-- Generator: Adobe Illustrator 17.1.0, SVG Export Plug-In . SVG Version: 6.00 Build 0)  -->
<!DOCTYPE svg PUBLIC "-//W3C//DTD SVG 1.1//EN" "http://www.w3.org/Graphics/SVG/1.1/DTD/svg11.dtd" [
	<!ENTITY ns_flows "http://ns.adobe.com/Flows/1.0/">
	<!ENTITY ns_extend "http://ns.adobe.com/Extensibility/1.0/">
	<!ENTITY ns_ai "http://ns.adobe.com/AdobeIllustrator/10.0/">
	<!ENTITY ns_graphs "http://ns.adobe.com/Graphs/1.0/">
	<!ENTITY ns_vars "http://ns.adobe.com/Variables/1.0/">
	<!ENTITY ns_imrep "http://ns.adobe.com/ImageReplacement/1.0/">
	<!ENTITY ns_sfw "http://ns.adobe.com/SaveForWeb/1.0/">
	<!ENTITY ns_custom "http://ns.adobe.com/GenericCustomNamespace/1.0/">
	<!ENTITY ns_adobe_xpath "http://ns.adobe.com/XPath/1.0/">
]>
<svg version="1.1" id="Layer_1" xmlns:x="&ns_extend;" xmlns:i="&ns_ai;" xmlns:graph="&ns_graphs;"
	 xmlns="http://www.w3.org/2000/svg" xmlns:xlink="http://www.w3.org/1999/xlink" xmlns:a="http://ns.adobe.com/AdobeSVGViewerExtensions/3.0/"
	 x="0px" y="0px" viewBox="0 0 200 200" enable-background="new 0 0 200 200" xml:space="preserve">
<metadata>
	<sfw  xmlns="&ns_sfw;">
		<slices></slices>
		<sliceSourceBounds  width="1020" height="810" x="10" y="-820" bottomLeftOrigin="true"></sliceSourceBounds>
	</sfw>
</metadata>
<g>
	<path fill="#FFFFFF" d="M178.4781952,99.7740631c0,14.3517075-0.0338898,28.703598,0.0456848,43.0548706
		c0.0092316,1.6689301-0.5490417,2.5077667-1.9411163,3.3117371c-24.9542999,14.4120636-49.883049,28.868454-74.7973175,43.3496552
		c-1.1040268,0.6417084-1.9063873,0.703064-3.0621338,0.0374756c-25.1540604-14.4863586-50.3327141-28.930069-75.5258331-43.3484192
		c-1.1467209-0.6562805-1.5009899-1.4404907-1.5021667-2.7217255c-0.0264893-28.9165192-0.0519409-57.8332443-0.2192097-86.749115
		c-0.0159264-2.7545471,2.0529823-3.142746,3.5286293-3.9163017c5.3346767-2.7964973,10.4473381-5.9672318,15.6712112-8.9461594
		c7.8403435-4.4709854,15.6049538-9.0746193,23.4111519-13.6056652c11.233429-6.5203514,22.483139-13.0127354,33.7030182-19.556284
		c1.3105545-0.7643261,2.225708-1.0069485,3.7878113-0.1054153c25.1382523,14.5079079,50.3422089,28.9020805,75.5534973,43.2830391
		c1.0714722,0.6112022,1.2040558,1.3742676,1.2024841,2.4323654c-0.0212097,14.4932823-0.0143127,28.9866219-0.0143127,43.4799385
		C178.3724518,99.7740631,178.4253387,99.7740631,178.4781952,99.7740631z M173.0671539,99.8475494
		c-0.0450745-0.0000076-0.0901489-0.0000076-0.1352234-0.0000153c0-13.4262695-0.0105896-26.852562,0.0179596-40.2787704
		c0.0025787-1.2142601-0.1745605-2.0408134-1.3969116-2.7398872c-23.5262451-13.4549637-47.0222626-26.962883-70.5066986-40.4907951
		c-0.9336243-0.5377932-1.5961609-0.4663811-2.4951859,0.0556812
		c-23.2551804,13.5042477-46.522007,26.9885159-69.8126526,40.4314728c-1.329649,0.7674484-1.8236961,1.6137238-1.8178272,3.1719551
		c0.1011238,26.8519249,0.1490116,53.7040901,0.1482487,80.5561981c-0.0000381,1.3517456,0.4928894,2.0003815,1.5817146,2.6233063
		c23.4635315,13.4234467,46.9133377,26.8709106,70.3459854,40.3481903c0.9218674,0.5302124,1.5552063,0.530014,2.4750748-0.0044861
		c23.2504425-13.5093536,46.5156784-26.9933319,69.8042221-40.4369049c1.3285828-0.7669525,1.8374176-1.6087341,1.8296051-3.1708374
		C173.0386353,126.5578918,173.0671539,113.2026443,173.0671539,99.8475494z"/>
	<path opacity="0.6" fill="#FFFFFF" d="M173.0671539,99.8475494c0,13.3550949-0.0285187,26.7103424,0.0383148,40.0651093
		c0.0078125,1.5621033-0.5010223,2.4038849-1.8296051,3.1708374c-23.2885437,13.443573-46.5537796,26.9275513-69.8042221,40.4369049
		c-0.9198685,0.5345001-1.5532074,0.5346985-2.4750748,0.0044861
		c-23.4326477-13.4772797-46.8824539-26.9247437-70.3459854-40.3481903
		c-1.0888252-0.6229248-1.5817528-1.2715607-1.5817146-2.6233063c0.0007629-26.8521118-0.0471249-53.704277-0.1482487-80.5561981
		c-0.0058689-1.5582314,0.4881783-2.4045067,1.8178272-3.1719551c23.2906418-13.442955,46.5574684-26.9272232,69.8126526-40.4314728
		c0.899025-0.5220623,1.5615616-0.5934744,2.4951859-0.0556812c23.484436,13.5279121,46.9804535,27.0358315,70.5066986,40.4907951
		c1.2223511,0.6990738,1.3994904,1.5256271,1.3969116,2.7398872c-0.0285492,13.4262085-0.0179596,26.8525009-0.0179596,40.2787704
		C172.977005,99.8475418,173.0220795,99.8475418,173.0671539,99.8475494z M93.3204193,74.302887
		c0.1064453-0.1743774,0.2128906-0.3487473,0.3193359-0.5231247c0.4914703,0,0.9829407,0,1.474411,0
		c10.1579895-0.0000305,20.3166046-0.0573502,30.4734421,0.0501099c1.9430466,0.0205536,2.3588715-0.5607605,2.3067017-2.3861542
		c-0.1318436-4.6135101-0.1225433-9.2353363-0.0029678-13.8495102c0.0445938-1.7205658-0.3380737-2.3255272-2.1829987-2.2700882
		c-4.6840744,0.1407623-9.3752747,0.0606232-14.0634766,0.0393867c-1.6905136-0.0076561-3.9155731,0.5368767-4.9325104-0.3177986
		c-1.2101059-1.0170364-0.2641144-3.3295135-0.4215698-5.0716667c-0.0191116-0.2114105-0.026062-0.4288177,0.0001297-0.638607
		c0.1427231-1.143055-0.4152145-1.4922562-1.4858704-1.4640465c-1.8455887,0.0486298-3.6934357,0.0104408-5.5403366,0.0102844
		c-5.5593872-0.0004692-5.5593872-0.0001678-5.5755463,5.446373c-0.000206,0.0710335-0.0112305,0.144207,0.0017548,0.2127914
		c0.3126526,1.6507339-0.4466476,1.978508-1.9890671,1.9607506c-7.1025543-0.0817871-14.2075043,0.0256042-21.3094025-0.0802612
		c-1.7382889-0.0259132-2.1169739,0.5271034-2.0844421,2.1485863c0.0983124,4.8993073,0.0833206,9.8026085,0.0052414,14.7026482
		c-0.0223312,1.4014893,0.4330063,2.3800049,1.412323,3.3479385c7.2235413,7.139679,14.3730698,14.3544235,21.6225357,21.4674149
		c1.1087112,1.0878448,1.0224152,1.5981903-0.0281448,2.6336746c-7.4856644,7.3782349-14.8961182,14.8327255-22.3458939,22.2475128
		c-0.7820206,0.7783661-1.2940216,1.5410233-1.2815323,2.753418c0.0651398,6.3214264,0.073967,12.6444244-0.002449,18.9656219
		c-0.01754,1.4508667,0.4739456,1.7623444,1.8273315,1.7472687c6.0371933-0.0673218,12.0758972-0.0634918,18.1133041-0.0071411
		c1.6749649,0.015625,3.8346481-0.7682037,4.8850861,0.3851929c0.795166,0.8730774,0.3334808,2.9700928,0.2752075,4.5165405
		c-0.0481339,1.2771149,0.348877,1.7958221,1.68013,1.730896c1.8425217-0.089859,3.6927185-0.0220947,5.5396347-0.0220795
		c4.9727097,0.0000916,5.0388947-0.0002747,5.0157776-4.9101715c-0.0072174-1.5328369,0.485878-1.8838043,1.9358597-1.8683777
		c6.6765289,0.0709686,13.3547211-0.0110016,20.0311432,0.064682c1.4255219,0.0161591,1.8084106-0.4213715,1.7877502-1.7971344
		c-0.0714569-4.7582703-0.0975647-9.5198669,0.0106354-14.2767487c0.0379181-1.6670074-0.4173737-2.1266861-2.1175919-2.1310425
		c-11.2218552-0.0289001-22.4434662-0.1761017-33.664772-0.3155594c-0.6239548-0.0077591-1.4146042,0.3765793-1.8435974-0.3503723
		c8.6058884-8.6543808,17.142952-17.2908173,25.7600021-25.8467026c1.2107544-1.2021408,1.1608505-1.8409119-0.0287247-2.9894409
		c-4.4449463-4.2915649-8.7754364-8.7014923-13.1630707-13.0526962
		C100.2737579,81.1335602,96.79245,77.7229004,93.3204193,74.302887z"/>
	<path fill="#FFFFFF" d="M93.3204193,74.302887c3.4720306,3.4200134,6.9533386,6.8306732,10.4137726,10.2623672
		c4.3876343,4.3512039,8.7181244,8.7611313,13.1630707,13.0526962c1.1895752,1.1485291,1.2394791,1.7873001,0.0287247,2.9894409
		c-8.6170502,8.5558853-17.1541138,17.1923218-25.7600021,25.8467026c0.4289932,0.7269516,1.2196426,0.3426132,1.8435974,0.3503723
		c11.2213058,0.1394577,22.4429169,0.2866592,33.664772,0.3155594c1.7002182,0.0043564,2.1555099,0.464035,2.1175919,2.1310425
		c-0.1082001,4.7568817-0.0820923,9.5184784-0.0106354,14.2767487c0.0206604,1.3757629-0.3622284,1.8132935-1.7877502,1.7971344
		c-6.6764221-0.0756836-13.3546143,0.0062866-20.0311432-0.064682c-1.4499817-0.0154266-1.9430771,0.3355408-1.9358597,1.8683777
		c0.0231171,4.9098969-0.0430679,4.9102631-5.0157776,4.9101715c-1.8469162-0.0000153-3.697113-0.0677795-5.5396347,0.0220795
		c-1.3312531,0.0649261-1.7282639-0.4537811-1.68013-1.730896c0.0582733-1.5464478,0.5199585-3.6434631-0.2752075-4.5165405
		c-1.0504379-1.1533966-3.2101212-0.3695679-4.8850861-0.3851929c-6.0374069-0.0563507-12.0761108-0.0601807-18.1133041,0.0071411
		c-1.3533859,0.0150757-1.8448715-0.296402-1.8273315-1.7472687c0.076416-6.3211975,0.0675888-12.6441956,0.002449-18.9656219
		c-0.0124893-1.2123947,0.4995117-1.9750519,1.2815323-2.753418c7.4497757-7.4147873,14.8602295-14.869278,22.3458939-22.2475128
		c1.05056-1.0354843,1.1368561-1.5458298,0.0281448-2.6336746c-7.2494659-7.1129913-14.3989944-14.3277359-21.6225357-21.4674149
		c-0.9793167-0.9679337-1.4346542-1.9464493-1.412323-3.3479385c0.0780792-4.9000397,0.093071-9.8033409-0.0052414-14.7026482
		c-0.0325317-1.6214828,0.3461533-2.1744995,2.0844421-2.1485863c7.1018982,0.1058655,14.2068481-0.0015259,21.3094025,0.0802612
		c1.5424194,0.0177574,2.3017197-0.3100166,1.9890671-1.9607506c-0.0129852-0.0685844-0.0019608-0.141758-0.0017548-0.2127914
		c0.0161591-5.4465408,0.0161591-5.4468422,5.5755463-5.446373c1.8469009,0.0001564,3.6947479,0.0383453,5.5403366-0.0102844
		c1.0706558-0.0282097,1.6285934,0.3209915,1.4858704,1.4640465c-0.0261917,0.2097893-0.0192413,0.4271965-0.0001297,0.638607
		c0.1574554,1.7421532-0.7885361,4.0546303,0.4215698,5.0716667c1.0169373,0.8546753,3.2419968,0.3101425,4.9325104,0.3177986
		c4.6882019,0.0212364,9.3794022,0.1013756,14.0634766-0.0393867c1.8449249-0.055439,2.2275925,0.5495224,2.1829987,2.2700882
		c-0.1195755,4.6141739-0.1288757,9.2360001,0.0029678,13.8495102c0.0521698,1.8253937-0.3636551,2.4067078-2.3067017,2.3861542
		c-10.1568375-0.10746-20.3154526-0.0501404-30.4734421-0.0501099c-0.4914703,0-0.9829407,0-1.474411,0
		C93.5333099,73.9541397,93.4268646,74.1285095,93.3204193,74.302887z"/>
</g>
</svg>
