<?xml version="1.0" encoding="utf-8"?>
<!-- Generator: Adobe Illustrator 17.1.0, SVG Export Plug-In . SVG Version: 6.00 Build 0)  -->
<!DOCTYPE svg PUBLIC "-//W3C//DTD SVG 1.1//EN" "http://www.w3.org/Graphics/SVG/1.1/DTD/svg11.dtd" [
	<!ENTITY ns_flows "http://ns.adobe.com/Flows/1.0/">
	<!ENTITY ns_extend "http://ns.adobe.com/Extensibility/1.0/">
	<!ENTITY ns_ai "http://ns.adobe.com/AdobeIllustrator/10.0/">
	<!ENTITY ns_graphs "http://ns.adobe.com/Graphs/1.0/">
	<!ENTITY ns_vars "http://ns.adobe.com/Variables/1.0/">
	<!ENTITY ns_imrep "http://ns.adobe.com/ImageReplacement/1.0/">
	<!ENTITY ns_sfw "http://ns.adobe.com/SaveForWeb/1.0/">
	<!ENTITY ns_custom "http://ns.adobe.com/GenericCustomNamespace/1.0/">
	<!ENTITY ns_adobe_xpath "http://ns.adobe.com/XPath/1.0/">
]>
<svg version="1.1" id="Layer_1" xmlns:x="&ns_extend;" xmlns:i="&ns_ai;" xmlns:graph="&ns_graphs;"
	 xmlns="http://www.w3.org/2000/svg" xmlns:xlink="http://www.w3.org/1999/xlink" xmlns:a="http://ns.adobe.com/AdobeSVGViewerExtensions/3.0/"
	 x="0px" y="0px" viewBox="0 0 200 200" enable-background="new 0 0 200 200" xml:space="preserve">
<metadata>
	<sfw  xmlns="&ns_sfw;">
		<slices></slices>
		<sliceSourceBounds  width="1020" height="810" x="10" y="-820" bottomLeftOrigin="true"></sliceSourceBounds>
	</sfw>
</metadata>
<g>
	<path fill="#FFFFFF" d="M11.5815067,118.1696167c0.5142956-0.1153717,0.7328568,0.1920395,0.9814482,0.3940582
		c11.47363,9.3239365,24.6598625,15.1655884,38.8086548,19.0131683c10.2897835,2.798172,20.7727242,4.2614746,31.4482079,4.0940552
		c11.0935745-0.1739655,21.751358-2.3300629,31.7092896-7.3884277c4.7342911-2.404892,8.9671478-5.4600983,11.7875061-10.094101
		c3.3277359-5.4676437,3.108757-11.1094131,0.5209732-16.7644577c-2.5579376-5.589798-6.6844177-9.9431458-11.240509-13.9341736
		c-0.9007263-0.789032-1.8336258-1.5413284-2.9248047-2.4556198c2.3235397-0.5349579,4.4745407-0.3465424,6.5823669,0.0195465
		c7.9689255,1.384079,14.5259552,5.2653961,19.7997437,11.3760223c4.6363373,5.3720474,5.2251282,11.2683563,2.363678,17.6346359
		c-2.8688354,6.3827591-7.6087189,11.1568985-13.1325378,15.2540054
		c-8.8336716,6.5521088-18.8065796,10.1334229-29.6534958,11.5983429
		c-22.1135025,2.9865112-43.1222229-0.493927-63.0073662-10.5984192
		c-8.6010418-4.3705444-16.3224525-9.9924545-23.1065521-16.8727875
		C12.167448,119.0898285,11.6966658,118.8094559,11.5815067,118.1696167z"/>
	<path fill="#FFFFFF" d="M189.3887787,68.1976852c-2.7193604-1.1422729-5.4150085-2.3453217-8.1618805-3.4170532
		c-19.2236481-7.5004044-39.1569061-10.9352188-59.7760773-10.1522865
		c-10.1249466,0.3844566-20.0986786,1.8227196-29.6663971,5.3698006c-3.6843719,1.3659248-7.160614,3.1366425-10.2079391,5.6566849
		c-6.4575272,5.3401642-8.368454,12.3405457-5.5641632,20.2376862c1.2924728,3.6397018,3.2522125,6.9042892,5.5341492,9.9932861
		c0.2504349,0.3389969,0.4963074,0.6813736,0.7526398,1.0336533c-0.3850937,0.3264542-0.6939163,0.0813522-0.9915161,0.0036621
		c-4.5905762-1.1984024-9.0533066-2.7246552-13.0452042-5.3644943c-3.1218643-2.0644913-5.6843529-4.6121979-6.5707893-8.4183884
		c-0.7969437-3.4219055,0.107914-6.5680313,1.8098526-9.5112305c3.0299263-5.2397385,7.566494-8.9419098,12.5894585-12.1241341
		c7.2922363-4.6198921,15.3708344-7.0594254,23.8344269-8.1331596c28.6215515-3.6310806,56.2543335,0.2511177,82.8820038,11.3150787
		c2.1368256,0.8878708,4.1721344,2.0202332,6.2520905,3.0440903c0.1460876,0.0719147,0.2711487,0.1864853,0.4059906,0.2812195
		C189.4398651,68.073967,189.4143219,68.1358261,189.3887787,68.1976852z"/>
	<path opacity="0.6" fill="#FFFFFF" d="M142.063797,134.9351807c3.7541656-1.9701233,7.0240479-4.1599579,9.8543854-6.9564362
		c7.2641449-7.1772232,8.9288788-15.6094208,4.9106598-25.0020523c-4.1144562-9.617569-11.4909668-15.8823929-20.8517914-20.0215378
		c-6.1982117-2.7406998-12.6922913-4.2404633-19.5068741-4.1425018c-1.8529358,0.0266418-3.6887589,0.2420197-5.4684601,0.7767029
		c-0.694519,0.2086411-1.3879547,0.47258-2.0225067,0.8198395c-2.3215027,1.2703934-2.8024368,3.1177139-1.4523621,5.3877792
		c0.2081299,0.349968,0.4180145,0.6988907,0.5213776,1.1230698c-1.7184067-1.2246933-3.2683258-2.5890045-4.1953049-4.5167542
		c-0.9221802-1.9177475-0.4972992-3.6168365,1.2425079-4.8775558c2.0486679-1.4845428,4.445488-2.0523758,6.8905563-2.2976151
		c11.707222-1.174263,22.7503891,1.1017303,33.0587692,6.7313461c6.4929962,3.5459671,12.0594025,8.2151108,16.2197876,14.4170914
		c2.5302582,3.7719193,4.2396851,7.8680344,4.5213013,12.4475784c0.404892,6.5839539-2.2331085,11.9655762-6.8119049,16.4859161
		c-4.4449005,4.3881454-9.8271332,7.2956009-15.5755463,9.592598
		C143.0102692,135.0577393,142.6594696,135.0148926,142.063797,134.9351807z"/>
	<path opacity="0.6" fill="#FFFFFF" d="M70.488678,59.5620995c-2.9790878,1.4521446-5.628418,2.9401512-8.0664711,4.7768822
		c-4.2466812,3.199295-7.8545113,6.9559326-10.0334892,11.8793793c-3.4114113,7.7081757-1.8516998,14.699646,3.3645935,21.0095367
		c6.4108124,7.7548447,14.8946838,11.3411026,24.7751694,11.9466934c1.3301468,0.0815277,2.6623688-0.1044006,3.9508896-0.4770203
		c2.8432693-0.8222122,3.8289566-2.7391815,2.8599854-5.5295105c-0.0929794-0.2677307-0.1989365-0.5309372-0.3019791-0.8045044
		c0.1303101-0.0343094,0.2502899-0.0959549,0.2763901-0.0684738c1.7742386,1.8688507,3.1277161,3.9783936,3.5257416,6.5729904
		c0.3020782,1.9692688-0.5272598,3.4266357-2.2403793,4.3893509c-1.7359009,0.9755096-3.6678619,1.3477478-5.594986,1.2782135
		c-13.1882629-0.4758911-24.624733-5.0182571-33.2352753-15.2838898
		c-6.7793541-8.0824432-6.7384262-17.0808487-0.2453918-25.4634399
		c5.2882957-6.8272629,12.4129562-11.1166725,20.3352509-14.2213669
		C69.9578629,59.5280952,70.0855331,59.5620995,70.488678,59.5620995z"/>
	<path fill="#FFFFFF" d="M10,116.5093307c0.6366158,0.4102173,1.2748852,0.8173294,1.7224588,1.5013962
		C10.8875561,117.8934479,10.7970924,117.8186798,10,116.5093307z"/>
	<path fill="#FFFFFF" d="M189.9472198,68.5456161c0.0194092-0.0747833,0.0457916-0.1454468,0.0526428-0.2179565
		c0.0027466-0.028862-0.0377197-0.0618134-0.0585327-0.0929108c-0.0197906,0.0711975-0.0474091,0.14151-0.055481,0.2140045
		C189.8827057,68.477066,189.9235077,68.5102768,189.9472198,68.5456161z"/>
</g>
</svg>
