<svg xmlns="http://www.w3.org/2000/svg" xmlns:xlink="http://www.w3.org/1999/xlink" width="18" height="18" viewBox="0 0 18 18"><defs><path id="a" d="M1642.007 642.56a1.766 1.766 0 0 1-.163.601 1.33 1.33 0 0 1-.322.428c-.13.112-.293.206-.486.282-.193.075-.396.13-.608.166a6.377 6.377 0 0 1-.728.072v1.226h-.771v-1.207c-.267 0-.47-.001-.61-.005v1.212h-.772v-1.226l-.27-.003-.275-.002H1636l.156-.88h.555c.167 0 .264-.082.29-.246v-1.933h.08a.54.54 0 0 0-.08-.005v-1.38c-.043-.219-.191-.328-.445-.328H1636v-.789l1.062.005c.213 0 .375-.001.485-.005v-1.212h.771v1.188c.274-.006.477-.01.61-.01v-1.178h.772v1.212c.263.023.497.059.7.109.204.05.393.121.566.216.174.095.311.22.413.375.102.156.163.34.183.55.06.585-.159.998-.656 1.242.39.09.682.255.876.495.194.24.269.584.225 1.03zm-3.674-3.175v1.477l.173.002a5.685 5.685 0 0 0 .483-.01c.11-.004.202-.013.275-.026.074-.013.16-.03.258-.053a.867.867 0 0 0 .243-.089c.063-.036.125-.08.185-.13a.464.464 0 0 0 .135-.185.646.646 0 0 0 .045-.245c0-.106-.02-.2-.063-.282a.673.673 0 0 0-.152-.202.755.755 0 0 0-.24-.134 1.755 1.755 0 0 0-.276-.08 2.854 2.854 0 0 0-.307-.038 3.013 3.013 0 0 0-.29-.012 43.99 43.99 0 0 1-.469.007zm2.152 3.03a.621.621 0 0 0-.075-.307.728.728 0 0 0-.185-.222.966.966 0 0 0-.288-.146 2.512 2.512 0 0 0-.328-.09 3.195 3.195 0 0 0-.37-.043 5.568 5.568 0 0 0-.668-.01l-.238.006v1.626l.185.002.24.002a6.88 6.88 0 0 0 .558-.026c.083-.008.178-.022.286-.041.109-.02.201-.042.278-.067.076-.026.156-.06.238-.101a.696.696 0 0 0 .197-.145.68.68 0 0 0 .123-.192.615.615 0 0 0 .047-.245z"/><path id="b" d="M1639 632a9 9 0 1 1 0 18 9 9 0 0 1 0-18z"/><mask id="d" width="2" height="2" x="-1" y="-1"><path fill="#fff" d="M1636 637h6v9h-6z"/><use xlink:href="#a"/></mask><filter id="c" width="32.5" height="35.9" x="1623" y="624" filterUnits="userSpaceOnUse"><feOffset dx=".5" dy=".9" in="SourceGraphic" result="FeOffset1123Out"/><feGaussianBlur in="FeOffset1123Out" result="FeGaussianBlur1124Out" stdDeviation="1.2 1.2"/></filter><clipPath id="e"><use fill="#fff" xlink:href="#b"/></clipPath></defs><g transform="translate(-1630 -632)"><g filter="url(#c)"><use fill="none" stroke-opacity=".25" stroke-width="0" mask="url(&quot;#d&quot;)" xlink:href="#a"/><use fill-opacity=".25" xlink:href="#a"/></g><use fill="#b58c0e" xlink:href="#a"/><use fill="#b58c0e" xlink:href="#a"/></g><use fill="#fff" fill-opacity="0" stroke="#b58c0e" stroke-miterlimit="50" stroke-width="4" clip-path="url(&quot;#e&quot;)" xlink:href="#b" transform="translate(-1630 -632)"/></svg>