<?xml version="1.0" standalone="no"?><!DOCTYPE svg PUBLIC "-//W3C//DTD SVG 1.1//EN" "http://www.w3.org/Graphics/SVG/1.1/DTD/svg11.dtd" ><svg xmlns="http://www.w3.org/2000/svg"><metadata></metadata><defs><font id="CommercialType: Yandex Sans Text Regular: 2015" horiz-adv-x="1161"><font-face font-family="Yandex Sans Text Regular" font-weight="400" font-stretch="normal" units-per-em="1000" panose-1="0 0 0 0 0 0 0 0 0 0" ascent="950" descent="-250" x-height="0" bbox="-316 -228 1135 974" underline-thickness="75" underline-position="-3" unicode-range="U+0000-feff" /><missing-glyph horiz-adv-x="196"  /><glyph glyph-name=".null" unicode="" d="" /><glyph glyph-name="nonmarkingreturn" unicode="" d="" /><glyph glyph-name="space" unicode=" " d="" /><glyph glyph-name="exclam" unicode="!" d="M188 716 l-10 -525 l-71 0 l-8 525 l89 0 ZM142 -6 q-27 0 -44.5 17.5 q-17.5 17.5 -17.5 43.5 q0 26 17.5 43.5 q17.5 17.5 44.5 17.5 q27 0 44.5 -17.5 q17.5 -17.5 17.5 -43.5 q0 -26 -17.5 -43.5 q-17.5 -17.5 -44.5 -17.5 Z" /><glyph glyph-name="numbersign" unicode="#" d="M437 459 l-150 0 l-37 -182 l150 0 l37 182 ZM385 207 l-150 0 l-42 -207 l-80 0 l42 207 l-110 0 l0 70 l125 0 l37 182 l-135 0 l0 70 l150 0 l38 187 l80 0 l-38 -187 l150 0 l38 187 l80 0 l-38 -187 l111 0 l0 -70 l-126 0 l-37 -182 l136 0 l0 -70 l-151 0 l-42 -207 l-80 0 l42 207 Z" /><glyph glyph-name="dollar" unicode="$" d="M138 534 q0 -24 7.5 -42 q7.5 -18 21 -31.5 q13.5 -13.5 31.5 -23 q18 -9.5 40 -16.5 l0 221 q-58 -9 -79 -37.5 q-21 -28.5 -21 -70.5 ZM415 192 q0 50 -24.5 74.5 q-24.5 24.5 -77.5 41.5 l0 -234 q49 10 75.5 38.5 q26.5 28.5 26.5 79.5 ZM238 -140 l0 131 q-38 2 -69 10 q-31 8 -55 18.5 q-24 10.5 -41 21.5 q-17 11 -26 20 l17 78 q26 -20 68.5 -41.5 q42.5 -21.5 105.5 -26.5 l0 258 q-37 10 -71 24.5 q-34 14.5 -60 37 q-26 22.5 -41.5 56 q-15.5 33.5 -15.5 83.5 q0 81 48.5 131 q48.5 50 139.5 62 l0 123 l75 0 l0 -120 q60 -3 96.5 -17 q36.5 -14 59.5 -28 l-14 -82 q-33 20 -66.5 32 q-33.5 12 -75.5 14 l0 -243 q37 -10 71.5 -24 q34.5 -14 61.5 -37 q27 -23 43.5 -58 q16.5 -35 16.5 -87 q0 -49 -15 -85 q-15 -36 -41.5 -60.5 q-26.5 -24.5 -61.5 -38.5 q-35 -14 -75 -19 l0 -133 l-75 0 Z" /><glyph glyph-name="percent" unicode="%" d="M65 -10 l461 736 l78 0 l-461 -736 l-78 0 ZM297 539 q0 -48 -11 -83 q-11 -35 -30 -57.5 q-19 -22.5 -44 -33.5 q-25 -11 -53 -11 q-28 0 -52.5 10.5 q-24.5 10.5 -43 32 q-18.5 21.5 -29.5 56 q-11 34.5 -11 82.5 q0 48 11 83 q11 35 29.5 58.5 q18.5 23.5 43 34.5 q24.5 11 52.5 11 q28 0 53 -10.5 q25 -10.5 44 -33 q19 -22.5 30 -57 q11 -34.5 11 -82.5 ZM99 537 q0 -66 15 -92.5 q15 -26.5 45 -26.5 q31 0 46 26.5 q15 26.5 15 92.5 q0 66 -15 93 q-15 27 -46 27 q-30 0 -45 -27 q-15 -27 -15 -93 ZM647 179 q0 -48 -11 -82.5 q-11 -34.5 -29.5 -57.5 q-18.5 -23 -44 -34 q-25.5 -11 -53.5 -11 q-28 0 -52.5 10.5 q-24.5 10.5 -43 32 q-18.5 21.5 -29.5 56 q-11 34.5 -11 82.5 q0 48 11 83 q11 35 29.5 58.5 q18.5 23.5 43 34.5 q24.5 11 52.5 11 q28 0 53.5 -10.5 q25.5 -10.5 44 -33 q18.5 -22.5 29.5 -57 q11 -34.5 11 -82.5 ZM449 177 q0 -66 15 -92.5 q15 -26.5 45 -26.5 q32 0 46.5 26.5 q14.5 26.5 14.5 92.5 q0 66 -14.5 93 q-14.5 27 -46.5 27 q-30 0 -45 -27 q-15 -27 -15 -93 Z" /><glyph glyph-name="ampersand" unicode="&amp;" d="M679 9 q-44 0 -83 17 q-39 17 -81 48 q-41 -38 -94.5 -61 q-53.5 -23 -123.5 -23 q-63 0 -110.5 15.5 q-47.5 15.5 -79 43 q-31.5 27.5 -47 64.5 q-15.5 37 -15.5 81 q0 37 10.5 66 q10.5 29 29 51.5 q18.5 22.5 43.5 40 q25 17.5 54 30.5 q-75 82 -75 167 q0 36 13 68.5 q13 32.5 38 56.5 q25 24 62.5 38 q37.5 14 85.5 14 q48 0 86 -13.5 q38 -13.5 63.5 -37.5 q25.5 -24 39 -56 q13.5 -32 13.5 -68 q0 -42 -15 -72.5 q-15 -30.5 -39 -53 q-24 -22.5 -55.5 -38.5 q-31.5 -16 -64.5 -29 l128 -122 l47 -43 q32 50 49 106 q17 56 25 104 l80 -22 q-11 -60 -33 -123 q-22 -63 -59 -119 q29 -23 59 -37 q30 -14 65 -14 q25 0 43 5 q10 2 18 5 l0 -74 q-10 -4 -21 -8 q-10 -3 -24.5 -5 q-14.5 -2 -31.5 -2 ZM301 69 q47 0 84.5 15.5 q37.5 15.5 66.5 41.5 q-17 15 -35.5 32 q-18.5 17 -38.5 35 l-141 135 q-47 -20 -75 -51 q-28 -31 -28 -80 q0 -59 42 -93.5 q42 -34.5 125 -34.5 ZM198 549 q0 -39 23.5 -72 q23.5 -33 55.5 -64 q31 12 57 25.5 q26 13.5 45 30 q19 16.5 30 36.5 q11 20 11 46 q0 45 -30.5 70.5 q-30.5 25.5 -82.5 25.5 q-53 0 -81 -26.5 q-28 -26.5 -28 -71.5 Z" /><glyph glyph-name="quotesingle" unicode="&#39;" d="M82 716 l96 0 l-10 -237 l-76 0 l-10 237 Z" /><glyph glyph-name="parenleft" unicode="(" d="M188 -139 q-76 89 -109 198.5 q-33 109.5 -33 247.5 q0 138 33 253 q33 115 109 196 l88 0 q-81 -80 -113 -194 q-32 -114 -32 -252 q0 -138 32 -248 q32 -110 113 -201 l-88 0 Z" /><glyph glyph-name="asterisk" unicode="*" d="M227 494 l-71 -125 l-67 49 l96 106 l-140 30 l25 78 l131 -59 l-14 143 l81 0 l-15 -144 l130 60 l26 -78 l-140 -30 l96 -106 l-66 -49 l-72 125 Z" /><glyph glyph-name="hyphen" unicode="-" d="M65 345 l240 0 l0 -80 l-240 0 l0 80 Z" /><glyph glyph-name="slash" unicode="/" d="M5 -120 l317 876 l80 0 l-316 -876 l-81 0 Z" /><glyph glyph-name="zero" unicode="0" d="M280 -10 q-51 0 -94.5 21.5 q-43.5 21.5 -75 67 q-31.5 45.5 -49 115 q-17.5 69.5 -17.5 165.5 q0 96 17.5 165.5 q17.5 69.5 49 114 q31.5 44.5 75 66 q43.5 21.5 94.5 21.5 q51 0 94 -21 q43 -21 74 -65.5 q31 -44.5 48.5 -113.5 q17.5 -69 17.5 -165 q0 -96 -17.5 -165.5 q-17.5 -69.5 -48.5 -115.5 q-31 -46 -74 -68 q-43 -22 -94 -22 ZM279 69 q34 0 60 15 q26 15 44 49 q18 34 27.5 89.5 q9.5 55.5 9.5 135.5 q0 80 -9 135.5 q-9 55.5 -27 89.5 q-18 34 -44 49 q-26 15 -60 15 q-34 0 -60.5 -15 q-26.5 -15 -45 -49 q-18.5 -34 -28 -89.5 q-9.5 -55.5 -9.5 -135.5 q0 -80 9.5 -135.5 q9.5 -55.5 27.5 -89.5 q18 -34 44.5 -49 q26.5 -15 60.5 -15 Z" /><glyph glyph-name="one" unicode="1" d="M284 0 l0 603 l-198 -151 l0 101 l213 163 l77 0 l0 -716 l-92 0 Z" /><glyph glyph-name="two" unicode="2" d="M52 0 l0 93 q92 73 158.5 130.5 q66.5 57.5 110 105.5 q43.5 48 64.5 91.5 q21 43.5 21 90.5 q0 61 -38.5 97.5 q-38.5 36.5 -113.5 36.5 q-49 0 -94 -18 q-45 -18 -80 -47 l-11 94 q34 25 83.5 38.5 q49.5 13.5 110.5 13.5 q58 0 102 -15 q44 -15 74 -42 q30 -27 45.5 -65 q15.5 -38 15.5 -84 q0 -60 -24.5 -113.5 q-24.5 -53.5 -69.5 -105 q-45 -51.5 -110 -104.5 q-65 -53 -146 -112 l356 0 l0 -85 l-454 0 Z" /><glyph glyph-name="three" unicode="3" d="M238 -10 q-60 0 -109 14.5 q-49 14.5 -79 40.5 l24 88 q27 -23 66.5 -42.5 q39.5 -19.5 95.5 -19.5 q84 0 125 34.5 q41 34.5 41 98.5 q0 60 -36.5 94 q-36.5 34 -115.5 34 l-100 0 l0 82 l104 0 q55 0 89.5 31 q34.5 31 34.5 88 q0 52 -34.5 82 q-34.5 30 -107.5 30 q-49 0 -91 -17.5 q-42 -17.5 -68 -39.5 l-14 89 q70 49 178 49 q54 0 96 -14 q42 -14 71 -38.5 q29 -24.5 44 -59 q15 -34.5 15 -76.5 q0 -33 -10 -60 q-10 -27 -26.5 -47 q-16.5 -20 -39 -32.5 q-22.5 -12.5 -47.5 -18.5 q30 -5 57.5 -19.5 q27.5 -14.5 48.5 -37 q21 -22.5 33.5 -54 q12.5 -31.5 12.5 -70.5 q0 -46 -18.5 -84.5 q-18.5 -38.5 -52.5 -66 q-34 -27.5 -81.5 -43 q-47.5 -15.5 -105.5 -15.5 Z" /><glyph glyph-name="four" unicode="4" d="M341 620 l-220 -374 l220 0 l0 374 ZM428 170 l0 -170 l-87 0 l0 170 l-311 0 l0 62 l281 484 l117 0 l0 -470 l97 0 l0 -76 l-97 0 Z" /><glyph glyph-name="five" unicode="5" d="M244 -10 q-59 0 -109 12 q-50 12 -79 32 l23 89 q29 -20 68.5 -36 q39.5 -16 96.5 -16 q75 0 116.5 43.5 q41.5 43.5 41.5 114.5 q0 75 -37.5 109 q-37.5 34 -96.5 34 q-48 0 -76.5 -14 q-28.5 -14 -42.5 -30 l-72 0 l0 388 l380 0 l0 -85 l-299 0 l0 -216 q20 15 49.5 26 q29.5 11 72.5 11 q46 0 85.5 -14 q39.5 -14 68.5 -42 q29 -28 46 -69.5 q17 -41.5 17 -95.5 q0 -54 -17 -98.5 q-17 -44.5 -49.5 -76 q-32.5 -31.5 -79.5 -49 q-47 -17.5 -107 -17.5 Z" /><glyph glyph-name="six" unicode="6" d="M286 -14 q-57 0 -103.5 18.5 q-46.5 18.5 -79.5 54 q-33 35.5 -50.5 87 q-17.5 51.5 -17.5 116.5 q0 92 31.5 165.5 q31.5 73.5 77.5 129.5 q46 56 98.5 94.5 q52.5 38.5 94.5 60.5 l136 0 l0 -9 q-134 -69 -220 -149.5 q-86 -80.5 -112 -180.5 q29 42 69 63.5 q40 21.5 100 21.5 q45 0 84 -14.5 q39 -14.5 68.5 -43.5 q29.5 -29 46 -72.5 q16.5 -43.5 16.5 -102.5 q0 -54 -17.5 -98 q-17.5 -44 -49.5 -75.5 q-32 -31.5 -76 -48.5 q-44 -17 -96 -17 ZM283 64 q32 0 59 9.5 q27 9.5 47 29 q20 19.5 31 49.5 q11 30 11 71 q0 81 -37.5 119.5 q-37.5 38.5 -102.5 38.5 q-31 0 -54.5 -7.5 q-23.5 -7.5 -43 -21 q-19.5 -13.5 -35 -31.5 q-15.5 -18 -29.5 -40 l0 -19 q0 -55 12 -93 q12 -38 32.5 -61 q20.5 -23 48.5 -33.5 q28 -10.5 61 -10.5 Z" /><glyph glyph-name="seven" unicode="7" d="M108 0 l305 631 l-365 0 l0 85 l462 0 l0 -80 l-305 -636 l-97 0 Z" /><glyph glyph-name="eight" unicode="8" d="M280 -10 q-52 0 -96 13.5 q-44 13.5 -76 40 q-32 26.5 -50 64 q-18 37.5 -18 85.5 q0 69 36.5 117 q36.5 48 97.5 71 q-50 20 -79.5 60.5 q-29.5 40.5 -29.5 101.5 q0 44 16.5 78 q16.5 34 45 57.5 q28.5 23.5 68 35.5 q39.5 12 85.5 12 q45 0 83.5 -11.5 q38.5 -11.5 67.5 -34.5 q29 -23 45.5 -56.5 q16.5 -33.5 16.5 -78.5 q0 -61 -30 -102.5 q-30 -41.5 -79 -61.5 q60 -21 96.5 -68 q36.5 -47 36.5 -117 q0 -48 -18 -86.5 q-18 -38.5 -50 -65 q-32 -26.5 -75 -40.5 q-43 -14 -94 -14 ZM280 416 q54 0 88 31 q34 31 34 85 q0 54 -34 84.5 q-34 30.5 -88 30.5 q-53 0 -88.5 -30.5 q-35.5 -30.5 -35.5 -84.5 q0 -54 35.5 -85 q35.5 -31 88.5 -31 ZM280 69 q31 0 57.5 9.5 q26.5 9.5 46 27 q19.5 17.5 30.5 43.5 q11 26 11 59 q0 33 -11 59 q-11 26 -30.5 43.5 q-19.5 17.5 -46 27 q-26.5 9.5 -57.5 9.5 q-32 0 -59.5 -9.5 q-27.5 -9.5 -47.5 -27 q-20 -17.5 -31 -43.5 q-11 -26 -11 -59 q0 -33 11 -59 q11 -26 31 -43.5 q20 -17.5 47.5 -27 q27.5 -9.5 59.5 -9.5 Z" /><glyph glyph-name="nine" unicode="9" d="M271 727 q57 0 103.5 -18.5 q46.5 -18.5 79.5 -54 q33 -35.5 50.5 -87 q17.5 -51.5 17.5 -116.5 q0 -92 -29.5 -166 q-29.5 -74 -72.5 -130 q-43 -56 -92 -94.5 q-49 -38.5 -87 -60.5 l-137 0 l0 9 q126 69 206.5 149.5 q80.5 80.5 106.5 180.5 q-29 -42 -69.5 -63 q-40.5 -21 -99.5 -21 q-45 0 -84.5 14 q-39.5 14 -69 43 q-29.5 29 -46 73 q-16.5 44 -16.5 103 q0 53 17.5 97 q17.5 44 49.5 75.5 q32 31.5 75.5 49 q43.5 17.5 96.5 17.5 ZM275 648 q-65 0 -107 -38.5 q-42 -38.5 -42 -119.5 q0 -82 38 -120.5 q38 -38.5 102 -38.5 q31 0 55 7.5 q24 7.5 43 21 q19 13.5 34.5 31.5 q15.5 18 29.5 40 l0 20 q0 55 -12 92.5 q-12 37.5 -32.5 60.5 q-20.5 23 -48.5 33.5 q-28 10.5 -60 10.5 Z" /><glyph glyph-name="question" unicode="?" d="M435 530 q0 -36 -7.5 -63.5 q-7.5 -27.5 -21 -49 q-13.5 -21.5 -32.5 -39.5 q-19 -18 -42 -34 q-21 -14 -43 -27.5 q-22 -13.5 -41 -29 q-19 -15.5 -31 -34.5 q-12 -19 -12 -44 l0 -18 l-75 0 l0 17 q0 43 12.5 73 q12.5 30 33 52 q20.5 22 45 38 q24.5 16 48.5 31 q32 21 54 49.5 q22 28.5 22 79.5 q0 53 -33 84.5 q-33 31.5 -109 31.5 q-53 0 -88 -12 q-35 -12 -50 -22 l-21 75 q7 4 19.5 10.5 q12.5 6.5 31.5 12.5 q19 6 44.5 10.5 q25.5 4.5 60.5 4.5 q60 0 104 -14.5 q44 -14.5 73.5 -40.5 q29.5 -26 43.5 -62 q14 -36 14 -79 ZM171 -6 q-27 0 -44.5 17.5 q-17.5 17.5 -17.5 43.5 q0 26 17.5 43.5 q17.5 17.5 44.5 17.5 q27 0 44.5 -17.5 q17.5 -17.5 17.5 -43.5 q0 -26 -17.5 -43.5 q-17.5 -17.5 -44.5 -17.5 Z" /><glyph glyph-name="at" unicode="@" d="M542 -199 q-103 0 -192.5 28 q-89.5 28 -156 83 q-66.5 55 -104.5 136.5 q-38 81.5 -38 188.5 q0 109 37.5 199 q37.5 90 105 154.5 q67.5 64.5 161 100 q93.5 35.5 206.5 35.5 q94 0 178 -25.5 q84 -25.5 147 -75 q63 -49.5 100 -122.5 q37 -73 37 -167 q0 -61 -15.5 -117.5 q-15.5 -56.5 -46 -100 q-30.5 -43.5 -75.5 -69.5 q-45 -26 -104 -26 q-34 0 -59 8 q-25 8 -43 22.5 q-18 14.5 -29 33.5 q-11 19 -17 41 q-28 -52 -71.5 -78.5 q-43.5 -26.5 -96.5 -26.5 q-33 0 -65 11.5 q-32 11.5 -57 36.5 q-25 25 -40 65 q-15 40 -15 97 q0 56 16.5 104.5 q16.5 48.5 46 84.5 q29.5 36 70.5 56.5 q41 20.5 89 20.5 q53 0 91 -26 q38 -26 55 -83 l39 79 l57 0 l-46 -250 q-3 -20 -1.5 -42 q1.5 -22 10.5 -40.5 q9 -18.5 26.5 -30.5 q17.5 -12 47.5 -12 q32 0 60 16.5 q28 16.5 48.5 47 q20.5 30.5 32.5 72.5 q12 42 12 93 q0 80 -30.5 142 q-30.5 62 -83.5 105 q-53 43 -123.5 65 q-70.5 22 -149.5 22 q-92 0 -170 -29.5 q-78 -29.5 -135 -84 q-57 -54.5 -89 -131 q-32 -76.5 -32 -170.5 q0 -96 32 -166 q32 -70 87.5 -115.5 q55.5 -45.5 131.5 -68 q76 -22.5 164 -22.5 q83 0 137 15.5 q54 15.5 80 27.5 l15 -65 q-14 -9 -38.5 -17.5 q-24.5 -8.5 -55.5 -15 q-31 -6.5 -67.5 -10.5 q-36.5 -4 -73.5 -4 ZM375 229 q0 -40 10 -66.5 q10 -26.5 26.5 -42 q16.5 -15.5 36.5 -22 q20 -6.5 41 -6.5 q34 0 61.5 17 q27.5 17 46.5 44.5 q19 27.5 29.5 63.5 q10.5 36 10.5 75 q0 38 -10 64 q-10 26 -26 41.5 q-16 15.5 -36 22.5 q-20 7 -40 7 q-35 0 -63 -16.5 q-28 -16.5 -47.5 -43.5 q-19.5 -27 -29.5 -63 q-10 -36 -10 -75 Z" /><glyph glyph-name="A" unicode="a" d="M324 641 l-116 -353 l233 0 l-117 353 ZM468 205 l-287 0 l-68 -205 l-88 0 l235 716 l140 0 l236 -716 l-100 0 l-68 205 Z" /><glyph glyph-name="B" unicode="b" d="M184 631 l0 -220 l99 0 q69 0 111.5 30 q42.5 30 42.5 96 q0 55 -38.5 74.5 q-38.5 19.5 -107.5 19.5 l-107 0 ZM184 326 l0 -241 l115 0 q38 0 69 6 q31 6 53.5 20 q22.5 14 35 37 q12.5 23 12.5 57 q0 68 -43 94.5 q-43 26.5 -137 26.5 l-105 0 ZM89 716 l202 0 q117 0 179 -39.5 q62 -39.5 62 -134.5 q0 -76 -38 -115.5 q-38 -39.5 -102 -53.5 q87 -9 131.5 -47.5 q44.5 -38.5 44.5 -118.5 q0 -56 -20 -95.5 q-20 -39.5 -56 -64 q-36 -24.5 -85.5 -36 q-49.5 -11.5 -107.5 -11.5 l-210 0 l0 716 Z" /><glyph glyph-name="C" unicode="c" d="M397 -10 q-75 0 -139 25 q-64 25 -111 72.5 q-47 47.5 -73.5 116 q-26.5 68.5 -26.5 154.5 q0 87 24.5 155 q24.5 68 70 115.5 q45.5 47.5 110 72.5 q64.5 25 143.5 25 q70 0 122.5 -16 q52.5 -16 85.5 -36 l-15 -92 q-39 28 -88 43.5 q-49 15.5 -106 15.5 q-116 0 -180.5 -70.5 q-64.5 -70.5 -64.5 -212.5 q0 -142 69.5 -212.5 q69.5 -70.5 186.5 -70.5 q51 0 92 15 q41 15 80 40 l26 -79 q-29 -23 -81.5 -42 q-52.5 -19 -124.5 -19 Z" /><glyph glyph-name="D" unicode="d" d="M184 631 l0 -546 l136 0 q55 0 100.5 17 q45.5 17 78.5 52.5 q33 35.5 51 90.5 q18 55 18 131 q0 75 -18 124.5 q-18 49.5 -49.5 78.5 q-31.5 29 -75.5 40.5 q-44 11.5 -95 11.5 l-146 0 ZM89 716 l241 0 q72 0 134 -16.5 q62 -16.5 108 -55.5 q46 -39 72 -103 q26 -64 26 -159 q0 -95 -26.5 -166.5 q-26.5 -71.5 -73 -119.5 q-46.5 -48 -110.5 -72 q-64 -24 -140 -24 l-231 0 l0 716 Z" /><glyph glyph-name="E" unicode="e" d="M89 716 l413 0 l0 -85 l-318 0 l0 -217 l276 0 l0 -85 l-276 0 l0 -244 l323 0 l0 -85 l-418 0 l0 716 Z" /><glyph glyph-name="F" unicode="f" d="M184 308 l0 -308 l-95 0 l0 716 l407 0 l0 -85 l-312 0 l0 -238 l281 0 l0 -85 l-281 0 Z" /><glyph glyph-name="G" unicode="g" d="M695 281 q0 -63 -18.5 -116 q-18.5 -53 -56.5 -92 q-38 -39 -95.5 -61 q-57.5 -22 -135.5 -22 q-76 0 -139 26.5 q-63 26.5 -108 74.5 q-45 48 -70 116 q-25 68 -25 151 q0 83 24 151 q24 68 70.5 116 q46.5 48 115.5 74.5 q69 26.5 159 26.5 q78 0 135.5 -18 q57.5 -18 95.5 -41 l-15 -92 q-45 32 -100.5 49 q-55.5 17 -118.5 17 q-68 0 -117.5 -19 q-49.5 -19 -82 -55.5 q-32.5 -36.5 -48.5 -89 q-16 -52.5 -16 -119.5 q0 -134 63.5 -208.5 q63.5 -74.5 176.5 -74.5 q56 0 96 14.5 q40 14.5 65 40 q25 25.5 36.5 61 q11.5 35.5 11.5 77.5 l0 20 l-231 0 l0 85 l328 0 l0 -92 l0 0 Z" /><glyph glyph-name="H" unicode="h" d="M552 313 l-368 0 l0 -313 l-95 0 l0 716 l95 0 l0 -318 l368 0 l0 318 l94 0 l0 -716 l-94 0 l0 313 Z" /><glyph glyph-name="I" unicode="i" d="M184 716 l0 -716 l-95 0 l0 716 l95 0 Z" /><glyph glyph-name="J" unicode="j" d="M298 716 l0 -583 q0 -27 -10 -53 q-10 -26 -30.5 -46 q-20.5 -20 -52 -32 q-31.5 -12 -74.5 -12 q-26 0 -52.5 4.5 q-26.5 4.5 -48.5 12.5 l12 85 q11 -5 23 -9 q11 -3 24.5 -5.5 q13.5 -2.5 29.5 -2.5 q84 0 84 86 l0 555 l95 0 Z" /><glyph glyph-name="K" unicode="k" d="M247 312 l-63 0 l0 -312 l-95 0 l0 716 l95 0 l0 -319 l59 0 l256 319 l106 0 l-283 -352 l293 -364 l-116 0 l-252 312 Z" /><glyph glyph-name="L" unicode="l" d="M89 716 l95 0 l0 -631 l327 0 l0 -85 l-422 0 l0 716 Z" /><glyph glyph-name="M" unicode="m" d="M395 110 l-217 476 l0 -586 l-89 0 l0 716 l132 0 l222 -502 l233 502 l122 0 l0 -716 l-95 0 l0 576 l-221 -467 l-88 0 l1 1 Z" /><glyph glyph-name="N" unicode="n" d="M178 601 l0 -601 l-89 0 l0 716 l127 0 l360 -601 l0 601 l90 0 l0 -716 l-128 0 l-360 601 Z" /><glyph glyph-name="O" unicode="o" d="M390 -10 q-72 0 -135 24.5 q-63 24.5 -109 71.5 q-46 47 -72.5 116 q-26.5 69 -26.5 159 q0 90 26.5 158.5 q26.5 68.5 72.5 114 q46 45.5 109 69 q63 23.5 135 23.5 q74 0 137 -23.5 q63 -23.5 108.5 -69.5 q45.5 -46 71.5 -114.5 q26 -68.5 26 -158.5 q0 -89 -26 -158 q-26 -69 -71.5 -116 q-45.5 -47 -108.5 -71.5 q-63 -24.5 -137 -24.5 ZM390 75 q52 0 96 15.5 q44 15.5 76.5 49 q32.5 33.5 51 87.5 q18.5 54 18.5 131 q0 77 -18.5 131 q-18.5 54 -51 87.5 q-32.5 33.5 -76.5 49 q-44 15.5 -96 15.5 q-51 0 -95.5 -15.5 q-44.5 -15.5 -77 -49 q-32.5 -33.5 -51 -87.5 q-18.5 -54 -18.5 -131 q0 -77 18.5 -131 q18.5 -54 51 -87.5 q32.5 -33.5 77 -49 q44.5 -15.5 95.5 -15.5 Z" /><glyph glyph-name="P" unicode="p" d="M184 631 l0 -267 l106 0 q38 0 69 8 q31 8 53.5 25 q22.5 17 35 44.5 q12.5 27.5 12.5 66.5 q0 65 -42 94 q-42 29 -120 29 l-114 0 ZM184 279 l0 -279 l-95 0 l0 716 l209 0 q122 0 189.5 -50.5 q67.5 -50.5 67.5 -156.5 q0 -61 -19.5 -104.5 q-19.5 -43.5 -54.5 -71.5 q-35 -28 -84 -41 q-49 -13 -107 -13 l-106 0 Z" /><glyph glyph-name="Q" unicode="q" d="M708 -135 q-80 16 -144.5 34.5 q-64.5 18.5 -117.5 37.5 q-53 19 -97.5 37 q-44.5 18 -83.5 33 q-48 19 -88 48.5 q-40 29.5 -69 71.5 q-29 42 -45 98.5 q-16 56.5 -16 129.5 q0 90 26 159 q26 69 72 116 q46 47 108.5 71.5 q62.5 24.5 135.5 24.5 q72 0 135 -23.5 q63 -23.5 109.5 -69 q46.5 -45.5 73 -114 q26.5 -68.5 26.5 -158.5 q0 -65 -13.5 -121.5 q-13.5 -56.5 -44.5 -102 q-31 -45.5 -80 -78.5 q-49 -33 -121 -51 q60 -18 125 -32 q65 -14 143 -23 l-34 -88 ZM390 75 q52 0 96 15.5 q44 15.5 76.5 49 q32.5 33.5 51 87.5 q18.5 54 18.5 131 q0 77 -18.5 131 q-18.5 54 -51 87.5 q-32.5 33.5 -76.5 49 q-44 15.5 -96 15.5 q-51 0 -95.5 -15.5 q-44.5 -15.5 -77 -49 q-32.5 -33.5 -51 -87.5 q-18.5 -54 -18.5 -131 q0 -77 18.5 -131 q18.5 -54 51 -87.5 q32.5 -33.5 77 -49 q44.5 -15.5 95.5 -15.5 Z" /><glyph glyph-name="R" unicode="r" d="M184 0 l-95 0 l0 716 l219 0 q127 0 193.5 -49 q66.5 -49 66.5 -155 q0 -94 -45 -144 q-45 -50 -120 -67 l196 -301 l-106 0 l-188 291 l-121 0 l0 -291 ZM184 631 l0 -255 l116 0 q38 0 69 7 q31 7 53.5 23 q22.5 16 35 42.5 q12.5 26.5 12.5 65.5 q0 64 -42 90.5 q-42 26.5 -120 26.5 l-124 0 Z" /><glyph glyph-name="S" unicode="s" d="M283 -10 q-41 0 -78 6.5 q-37 6.5 -68 16 q-31 9.5 -55 22 q-24 12.5 -39 24.5 l15 90 q15 -12 38.5 -25 q23.5 -13 52.5 -24 q29 -11 63 -18 q34 -7 71 -7 q78 0 124.5 29.5 q46.5 29.5 46.5 89.5 q0 30 -11 49.5 q-11 19.5 -32 33 q-21 13.5 -52.5 23 q-31.5 9.5 -73.5 20.5 q-42 11 -84 25 q-42 14 -75.5 37 q-33.5 23 -54 58 q-20.5 35 -20.5 89 q0 92 64 144.5 q64 52.5 194 52.5 q41 0 73 -4.5 q32 -4.5 56 -11 q24 -6.5 42 -14.5 q18 -8 31 -15 l-12 -91 q-35 23 -83 37 q-48 14 -107 14 q-46 0 -77.5 -7.5 q-31.5 -7.5 -51 -21.5 q-19.5 -14 -28 -34 q-8.5 -20 -8.5 -45 q0 -30 13.5 -50 q13.5 -20 36 -33.5 q22.5 -13.5 51.5 -22.5 q29 -9 61 -16 q42 -11 86 -23.5 q44 -12.5 79 -35.5 q35 -23 57.5 -59.5 q22.5 -36.5 22.5 -94.5 q0 -57 -22.5 -96.5 q-22.5 -39.5 -59.5 -64.5 q-37 -25 -85.5 -36 q-48.5 -11 -100.5 -11 Z" /><glyph glyph-name="T" unicode="t" d="M341 630 l0 -630 l-96 0 l0 630 l-210 0 l0 86 l517 0 l0 -86 l-211 0 Z" /><glyph glyph-name="U" unicode="u" d="M72 716 l95 0 l0 -471 q0 -87 49.5 -129 q49.5 -42 136.5 -42 q41 0 76.5 10.5 q35.5 10.5 61.5 32 q26 21.5 40.5 53.5 q14.5 32 14.5 75 l0 471 l90 0 l0 -468 q0 -62 -22 -110 q-22 -48 -60 -81 q-38 -33 -90.5 -50 q-52.5 -17 -112.5 -17 q-60 0 -111 16 q-51 16 -88.5 48 q-37.5 32 -58.5 79.5 q-21 47.5 -21 110.5 l0 472 Z" /><glyph glyph-name="V" unicode="v" d="M16 716 l98 0 l208 -654 l209 654 l90 0 l-228 -716 l-148 0 l-229 716 Z" /><glyph glyph-name="W" unicode="w" d="M26 716 l98 0 l135 -630 l165 630 l106 0 l160 -618 l135 618 l90 0 l-157 -716 l-138 0 l-147 589 l-150 -589 l-138 0 l-159 716 Z" /><glyph glyph-name="X" unicode="x" d="M322 307 l-209 -307 l-100 0 l262 377 l-228 339 l112 0 l184 -273 l175 273 l100 0 l-229 -341 l254 -375 l-113 0 l-208 307 Z" /><glyph glyph-name="Y" unicode="y" d="M259 0 l0 307 l-246 409 l109 0 l188 -326 l192 326 l96 0 l-243 -404 l0 -312 l-96 0 Z" /><glyph glyph-name="Z" unicode="z" d="M48 0 l0 68 l382 563 l-371 0 l0 85 l485 0 l0 -68 l-383 -563 l384 0 l0 -85 l-497 0 Z" /><glyph glyph-name="bracketleft" unicode="[" d="M46 756 l215 0 l0 -75 l-130 0 l0 -745 l130 0 l0 -75 l-215 0 l0 895 Z" /><glyph glyph-name="backslash" unicode="\" d="M5 756 l81 0 l316 -876 l-80 0 l-317 876 Z" /><glyph glyph-name="asciicircum" unicode="^" d="M231 644 l-121 -186 l-75 0 l145 258 l100 0 l145 -258 l-74 0 l-120 186 Z" /><glyph glyph-name="underscore" unicode="_" d="M-5 -40 l410 0 l0 -75 l-410 0 l0 75 Z" /><glyph glyph-name="grave" unicode="`" d="M240 588 l-113 158 l112 0 l76 -158 l-75 0 Z" /><glyph glyph-name="a" unicode="a" d="M219 69 q28 0 51.5 8 q23.5 8 42 21 q18.5 13 33 28 q14.5 15 24.5 30 l0 86 l-68 0 q-94 0 -132 -24.5 q-38 -24.5 -38 -69.5 q0 -35 21 -57 q21 -22 66 -22 ZM375 86 q-11 -17 -26.5 -34.5 q-15.5 -17.5 -37 -31 q-21.5 -13.5 -49.5 -22 q-28 -8.5 -62 -8.5 q-70 0 -113 39.5 q-43 39.5 -43 113.5 q0 169 250 169 l76 0 l0 39 q0 54 -28.5 77 q-28.5 23 -94.5 23 q-51 0 -90.5 -13 q-39.5 -13 -68.5 -30 l-21 73 q27 17 75 32.5 q48 15.5 111 15.5 q100 0 152.5 -41 q52.5 -41 52.5 -126 l0 -278 q0 -9 0.5 -20.5 q0.5 -11.5 1 -23.5 q0.5 -12 1.5 -22.5 q1 -10.5 2 -17.5 l-81 0 q-2 14 -4.5 39.5 q-2.5 25.5 -2.5 44.5 l0 2 Z" /><glyph glyph-name="b" unicode="b" d="M338 -10 q-60 0 -104.5 28.5 q-44.5 28.5 -70.5 79.5 l-3 -98 l-83 0 l0 716 l88 0 l0 -294 q26 49 70 78 q44 29 107 29 q45 0 86.5 -16.5 q41.5 -16.5 73 -50 q31.5 -33.5 50 -84 q18.5 -50.5 18.5 -118.5 q0 -69 -19 -119.5 q-19 -50.5 -51 -84 q-32 -33.5 -74 -50 q-42 -16.5 -88 -16.5 ZM325 69 q69 0 111.5 47.5 q42.5 47.5 42.5 143.5 q0 94 -42.5 142.5 q-42.5 48.5 -111.5 48.5 q-34 0 -63.5 -12 q-29.5 -12 -51 -35.5 q-21.5 -23.5 -34 -59.5 q-12.5 -36 -12.5 -84 q0 -48 12.5 -84 q12.5 -36 34 -60 q21.5 -24 51 -35.5 q29.5 -11.5 63.5 -11.5 Z" /><glyph glyph-name="c" unicode="c" d="M300 -10 q-57 0 -105 18 q-48 18 -82.5 52.5 q-34.5 34.5 -53.5 84 q-19 49.5 -19 113.5 q0 63 19.5 113.5 q19.5 50.5 54.5 85.5 q35 35 82.5 53.5 q47.5 18.5 103.5 18.5 q47 0 87.5 -10 q40.5 -10 67.5 -30 l-22 -76 q-25 14 -57 26 q-32 12 -75 12 q-78 0 -124.5 -48 q-46.5 -48 -46.5 -145 q0 -91 46 -140 q46 -49 124 -49 q38 0 69 10 q31 10 59 26 l21 -73 q-28 -20 -64 -31 q-36 -11 -85 -11 Z" /><glyph glyph-name="d" unicode="d" d="M289 69 q33 0 62 11.5 q29 11.5 50.5 35.5 q21.5 24 34 60 q12.5 36 12.5 84 q0 48 -12.5 84 q-12.5 36 -34 60 q-21.5 24 -50.5 35.5 q-29 11.5 -62 11.5 q-69 0 -113 -48.5 q-44 -48.5 -44 -142.5 q0 -96 44 -143.5 q44 -47.5 113 -47.5 ZM451 101 q-24 -50 -67 -80.5 q-43 -30.5 -109 -30.5 q-47 0 -89 16.5 q-42 16.5 -74 50 q-32 33.5 -51 84 q-19 50.5 -19 119.5 q0 68 19 118.5 q19 50.5 51 84 q32 33.5 74.5 50 q42.5 16.5 89.5 16.5 q59 0 102 -24.5 q43 -24.5 69 -69.5 l0 281 l88 0 l0 -716 l-77 0 l-7 101 Z" /><glyph glyph-name="e" unicode="e" d="M285 451 q-58 0 -99 -35 q-41 -35 -52 -106 l279 0 q2 36 -7 62.5 q-9 26.5 -26 44 q-17 17.5 -41.5 26 q-24.5 8.5 -53.5 8.5 ZM492 44 q-11 -8 -27.5 -17 q-16.5 -9 -39.5 -17.5 q-23 -8.5 -52.5 -14 q-29.5 -5.5 -65.5 -5.5 q-131 0 -199 71 q-68 71 -68 199 q0 63 18.5 113 q18.5 50 51.5 84.5 q33 34.5 78.5 53 q45.5 18.5 98.5 18.5 q55 0 99 -19 q44 -19 72.5 -56 q28.5 -37 39 -91.5 q10.5 -54.5 -0.5 -126.5 l-366 0 q5 -84 51 -125.5 q46 -41.5 130 -41.5 q55 0 93 17.5 q38 17.5 64 35.5 l23 -78 Z" /><glyph glyph-name="f" unicode="f" d="M196 444 l0 -444 l-88 0 l0 444 l-63 0 l0 75 l63 0 l0 13 q0 92 49 143 q49 51 134 51 q42 0 71 -10 l-16 -79 q-7 3 -21 6.5 q-14 3.5 -30 3.5 q-46 0 -72.5 -28 q-26.5 -28 -26.5 -87 l0 -13 l150 0 l0 -75 l-150 0 Z" /><glyph glyph-name="g" unicode="g" d="M288 100 q32 0 59.5 10.5 q27.5 10.5 48 32.5 q20.5 22 32 54.5 q11.5 32.5 11.5 76.5 q0 45 -11.5 78 q-11.5 33 -32 55 q-20.5 22 -48 33 q-27.5 11 -60.5 11 q-33 0 -61.5 -11 q-28.5 -11 -49.5 -33 q-21 -22 -33 -55.5 q-12 -33.5 -12 -77.5 q0 -44 12 -76.5 q12 -32.5 33 -54 q21 -21.5 49.5 -32.5 q28.5 -11 62.5 -11 ZM259 -179 q-73 0 -119 12 q-46 12 -68 25 l18 81 q25 -13 65 -26 q40 -13 105 -13 q97 0 137.5 39 q40.5 39 40.5 109 l0 75 q-23 -46 -64.5 -74 q-41.5 -28 -102.5 -28 q-46 0 -87.5 16 q-41.5 16 -73 47.5 q-31.5 31.5 -50 79 q-18.5 47.5 -18.5 110.5 q0 64 18.5 111.5 q18.5 47.5 50 79.5 q31.5 32 73.5 48 q42 16 89 16 q62 0 104.5 -28 q42.5 -28 66.5 -76 l1 11 q0 18 2 43.5 q2 25.5 5 39.5 l79 0 q-2 -14 -3.5 -40 q-1.5 -26 -1.5 -43 l0 -387 q0 -50 -15 -92 q-15 -42 -47.5 -72 q-32.5 -30 -83 -47 q-50.5 -17 -121.5 -17 Z" /><glyph glyph-name="h" unicode="h" d="M323 451 q-60 0 -97.5 -27.5 q-37.5 -27.5 -60.5 -70.5 l0 -353 l-88 0 l0 716 l88 0 l0 -197 l-2 -93 l2 0 q21 43 66 73 q45 30 114 30 q77 0 122.5 -40.5 q45.5 -40.5 45.5 -124.5 l0 -364 l-88 0 l0 355 q0 54 -27 75 q-27 21 -75 21 Z" /><glyph glyph-name="i" unicode="i" d="M122 595 q-26 0 -42.5 16.5 q-16.5 16.5 -16.5 40.5 q0 23 16.5 40.5 q16.5 17.5 42.5 17.5 q26 0 41 -17.5 q15 -17.5 15 -40.5 q0 -24 -15 -40.5 q-15 -16.5 -41 -16.5 ZM165 519 l0 -519 l-88 0 l0 519 l88 0 Z" /><glyph glyph-name="j" unicode="j" d="M132 595 q-26 0 -42 16.5 q-16 16.5 -16 40.5 q0 23 16 40.5 q16 17.5 42 17.5 q26 0 42 -17.5 q16 -17.5 16 -40.5 q0 -24 -16 -40.5 q-16 -16.5 -42 -16.5 ZM-16 -107 q31 3 51.5 12.5 q20.5 9.5 32.5 24 q12 14.5 16.5 32.5 q4.5 18 4.5 39 l0 518 l87 0 l0 -512 q0 -81 -41.5 -132 q-41.5 -51 -136.5 -61 l-14 79 Z" /><glyph glyph-name="k" unicode="k" d="M211 221 l-46 0 l0 -221 l-88 0 l0 716 l88 0 l0 -420 l50 0 l182 223 l100 0 l-213 -256 l217 -263 l-107 0 l-183 221 Z" /><glyph glyph-name="l" unicode="l" d="M165 716 l0 -716 l-88 0 l0 716 l88 0 Z" /><glyph glyph-name="m" unicode="m" d="M165 0 l-88 0 l0 519 l78 0 l8 -93 l2 0 q21 43 63 73 q42 30 110 30 q59 0 98.5 -28 q39.5 -28 51.5 -86 q22 53 67.5 83.5 q45.5 30.5 110.5 30.5 q72 0 114 -40.5 q42 -40.5 42 -124.5 l0 -364 l-89 0 l0 353 q0 51 -25 74.5 q-25 23.5 -68 23.5 q-29 0 -51 -8.5 q-22 -8.5 -39 -23.5 q-17 -15 -31 -35 q-14 -20 -26 -42 l0 -342 l-88 0 l0 363 q0 50 -25 69 q-25 19 -68 19 q-28 0 -50 -7 q-22 -7 -39.5 -20 q-17.5 -13 -31.5 -31.5 q-14 -18.5 -26 -40.5 l0 -352 Z" /><glyph glyph-name="n" unicode="n" d="M323 451 q-60 0 -97.5 -27.5 q-37.5 -27.5 -60.5 -70.5 l0 -353 l-88 0 l0 519 l83 0 l3 -93 l2 0 q21 45 66 74 q45 29 114 29 q77 0 122.5 -40.5 q45.5 -40.5 45.5 -124.5 l0 -364 l-88 0 l0 355 q0 54 -27 75 q-27 21 -75 21 Z" /><glyph glyph-name="o" unicode="o" d="M290 -10 q-53 0 -99 18 q-46 18 -79.5 52.5 q-33.5 34.5 -52.5 84.5 q-19 50 -19 115 q0 64 19 114.5 q19 50.5 52.5 84.5 q33.5 34 79.5 52 q46 18 99 18 q54 0 100 -18 q46 -18 79.5 -52 q33.5 -34 53 -84.5 q19.5 -50.5 19.5 -114.5 q0 -65 -19.5 -115 q-19.5 -50 -53 -84.5 q-33.5 -34.5 -79.5 -52.5 q-46 -18 -100 -18 ZM290 69 q35 0 65 11.5 q30 11.5 51.5 35 q21.5 23.5 34 59.5 q12.5 36 12.5 85 q0 49 -12.5 85 q-12.5 36 -34 59.5 q-21.5 23.5 -51.5 35 q-30 11.5 -65 11.5 q-35 0 -64 -11.5 q-29 -11.5 -50.5 -35 q-21.5 -23.5 -33.5 -59.5 q-12 -36 -12 -85 q0 -49 12 -85 q12 -36 33.5 -59.5 q21.5 -23.5 50.5 -35 q29 -11.5 64 -11.5 Z" /><glyph glyph-name="p" unicode="p" d="M325 69 q69 0 111.5 47.5 q42.5 47.5 42.5 143.5 q0 94 -42.5 142.5 q-42.5 48.5 -111.5 48.5 q-34 0 -63.5 -12 q-29.5 -12 -51 -35.5 q-21.5 -23.5 -34 -59.5 q-12.5 -36 -12.5 -84 q0 -48 12.5 -84 q12.5 -36 34 -60 q21.5 -24 51 -35.5 q29.5 -11.5 63.5 -11.5 ZM338 -10 q-60 0 -103.5 28 q-43.5 28 -69.5 77 l0 -272 l-88 0 l0 696 l78 0 l8 -102 q26 51 70 81.5 q44 30.5 109 30.5 q45 0 86.5 -16.5 q41.5 -16.5 73 -50 q31.5 -33.5 50 -84 q18.5 -50.5 18.5 -118.5 q0 -69 -19 -119.5 q-19 -50.5 -51 -84 q-32 -33.5 -74 -50 q-42 -16.5 -88 -16.5 Z" /><glyph glyph-name="q" unicode="q" d="M447 -177 l0 270 q-24 -47 -66.5 -75 q-42.5 -28 -105.5 -28 q-47 0 -89 16.5 q-42 16.5 -74 50 q-32 33.5 -51 84 q-19 50.5 -19 119.5 q0 68 19 118.5 q19 50.5 51 84 q32 33.5 74.5 50 q42.5 16.5 89.5 16.5 q62 0 106.5 -27 q44.5 -27 69.5 -76 l1 10 q0 18 2 43.5 q2 25.5 4 39.5 l81 0 q-2 -14 -3.5 -40 q-1.5 -26 -1.5 -43 l0 -613 l-88 0 ZM289 69 q33 0 62 11.5 q29 11.5 50.5 35.5 q21.5 24 34 60 q12.5 36 12.5 84 q0 48 -12.5 84 q-12.5 36 -34 59.5 q-21.5 23.5 -50.5 35.5 q-29 12 -62 12 q-69 0 -113 -48.5 q-44 -48.5 -44 -142.5 q0 -96 44 -143.5 q44 -47.5 113 -47.5 Z" /><glyph glyph-name="r" unicode="r" d="M334 431 q-56 -5 -101.5 -28.5 q-45.5 -23.5 -67.5 -72.5 l0 -330 l-88 0 l0 519 l78 0 l8 -113 l2 0 q22 46 63.5 80.5 q41.5 34.5 105.5 42.5 l0 -98 l0 0 Z" /><glyph glyph-name="s" unicode="s" d="M243 -10 q-71 0 -118 13.5 q-47 13.5 -78 33.5 l21 77 q28 -20 73 -35 q45 -15 105 -15 q49 0 82 19 q33 19 33 62 q0 23 -9.5 36.5 q-9.5 13.5 -26 22 q-16.5 8.5 -39.5 13 q-23 4.5 -49 9.5 q-32 7 -64 16.5 q-32 9.5 -57.5 26.5 q-25.5 17 -41.5 43 q-16 26 -16 66 q0 70 53.5 110.5 q53.5 40.5 149.5 40.5 q54 0 94.5 -10 q40.5 -10 72.5 -26 l-21 -75 q-16 9 -31.5 16 q-15.5 7 -32.5 11.5 q-17 4.5 -37.5 7 q-20.5 2.5 -45.5 2.5 q-54 0 -84.5 -16.5 q-30.5 -16.5 -30.5 -58.5 q0 -17 8 -28.5 q8 -11.5 22.5 -19.5 q14.5 -8 35 -13.5 q20.5 -5.5 45.5 -11.5 q34 -7 68.5 -15.5 q34.5 -8.5 62 -25 q27.5 -16.5 45 -44.5 q17.5 -28 17.5 -75 q0 -45 -18.5 -75 q-18.5 -30 -48 -48.5 q-29.5 -18.5 -66 -26 q-36.5 -7.5 -73.5 -7.5 Z" /><glyph glyph-name="t" unicode="t" d="M344 14 q-16 -10 -46 -17 q-30 -7 -59 -7 q-38 0 -65 11 q-27 11 -44 29.5 q-17 18.5 -25 42 q-8 23.5 -8 48.5 l0 323 l-62 0 l0 75 l62 0 l0 109 l89 0 l0 -109 l150 0 l0 -75 l-150 0 l0 -312 q0 -33 16.5 -48 q16.5 -15 48.5 -15 q20 0 40.5 5.5 q20.5 5.5 37.5 15.5 l15 -76 l0 0 Z" /><glyph glyph-name="u" unicode="u" d="M410 93 q-21 -44 -64.5 -73.5 q-43.5 -29.5 -113.5 -29.5 q-72 0 -116.5 40.5 q-44.5 40.5 -44.5 125.5 l0 363 l89 0 l0 -363 q0 -26 7.5 -42.5 q7.5 -16.5 20.5 -26.5 q13 -10 30.5 -14 q17.5 -4 38.5 -4 q58 0 93 26 q35 26 60 71 l0 353 l88 0 l0 -519 l-77 0 l-9 93 l-2 0 l0 0 Z" /><glyph glyph-name="v" unicode="v" d="M26 519 l95 0 l137 -468 l146 468 l89 0 l-168 -519 l-143 0 l-156 519 Z" /><glyph glyph-name="w" unicode="w" d="M35 519 l93 0 l94 -450 l121 450 l99 0 l118 -445 l93 445 l86 0 l-112 -519 l-135 0 l-106 398 l-107 -398 l-131 0 l-113 519 Z" /><glyph glyph-name="x" unicode="x" d="M251 205 l-141 -205 l-89 0 l187 269 l-168 250 l105 0 l125 -185 l119 185 l91 0 l-168 -247 l181 -272 l-104 0 l-138 205 Z" /><glyph glyph-name="y" unicode="y" d="M111 -187 q-17 0 -31.5 2 q-14.5 2 -23.5 6 l11 77 q5 -2 15 -4 q10 -2 27 -2 q37 0 61 17.5 q24 17.5 45 55.5 l-200 554 l95 0 l153 -440 l156 440 l86 0 l-183 -513 q-34 -94 -82.5 -143.5 q-48.5 -49.5 -128.5 -49.5 Z" /><glyph glyph-name="z" unicode="z" d="M40 0 l0 57 l264 387 l-256 0 l0 75 l364 0 l0 -57 l-262 -387 l263 0 l0 -75 l-373 0 Z" /><glyph glyph-name="braceleft" unicode="{" d="M273 -136 q-22 -3 -41 -3 q-61 -1 -99 33 q-38 34 -38 108 q0 22 4 40.5 q4 18.5 8.5 36.5 q4.5 18 8.5 36.5 q4 18.5 4 39.5 q0 25 -3 45 q-3 20 -13 34.5 q-10 14.5 -28 23.5 q-18 9 -49 12 l0 75 q31 3 49 12 q18 9 28 23.5 q10 14.5 13 34.5 q3 20 3 45 q0 21 -4 39.5 q-4 18.5 -8.5 36.5 q-4.5 18 -8.5 36.5 q-4 18.5 -4 40.5 q0 36 9.5 65.5 q9.5 29.5 31 48.5 q21.5 19 46 24 q24.5 5 42.5 5 q23 0 49 -5 l0 -71 q-52 9 -70.5 -11.5 q-18.5 -20.5 -18.5 -60.5 q0 -22 3 -41 q3 -19 6.5 -37 q3.5 -18 6.5 -36.5 q3 -18.5 3 -39.5 q0 -21 -4 -42 q-4 -21 -15 -40.5 q-11 -19.5 -31.5 -36 q-20.5 -16.5 -53.5 -28.5 q33 -12 53.5 -28.5 q20.5 -16.5 31.5 -35.5 q11 -19 15 -40 q4 -21 4 -42 q0 -21 -3 -40 q-3 -19 -6.5 -37 q-3.5 -18 -6.5 -36.5 q-3 -18.5 -3 -40.5 q0 -41 17.5 -60.5 q17.5 -19.5 71.5 -11.5 l0 -71 l0 0 Z" /><glyph glyph-name="bar" unicode="|" d="M190 756 l0 -876 l-85 0 l0 876 l85 0 Z" /><glyph glyph-name="asciitilde" unicode="~" d="M57 247 q-5 33 0.5 64 q5.5 31 22.5 55 q17 24 45.5 39 q28.5 15 70.5 15 q40 0 72 -13.5 q32 -13.5 58.5 -30 q26.5 -16.5 49.5 -30 q23 -13.5 46 -13.5 q33 0 47.5 22 q14.5 22 12.5 71 l79 0 q5 -32 -0.5 -63 q-5.5 -31 -22.5 -55.5 q-17 -24.5 -46 -39.5 q-29 -15 -70 -15 q-41 0 -72.5 13.5 q-31.5 13.5 -58 30 q-26.5 16.5 -49.5 30 q-23 13.5 -45 13.5 q-32 0 -47.5 -22 q-15.5 -22 -13.5 -71 l-79 0 l0 0 Z" /><glyph glyph-name="nonbreakingspace" unicode=" " d="" /><glyph glyph-name="cent" unicode="¢" d="M357 649 l0 -121 q29 -3 55 -9 q41 -10 68 -30 l-22 -72 q-25 14 -57 26 q-20 7 -44 10 l0 -387 q19 3 37 9 q31 10 59 26 l21 -69 q-28 -20 -64 -31 q-24 -7 -53 -10 l0 -131 l-73 0 l0 133 q-34 4 -64 15 q-48 18 -82.5 52.5 q-34.5 34.5 -53.5 84 q-19 49.5 -19 113.5 q0 63 19.5 113.5 q19.5 50.5 54.5 85.5 q35 35 82 53 q30 12 63 16 l0 123 l73 0 ZM201 405 q-46 -50 -46 -147 q0 -91 46 -142 q33 -37 83 -47 l0 382 q-50 -11 -83 -46 Z" /><glyph glyph-name="sterling" unicode="£" d="M518 0 l-469 0 l0 51 q28 21 47.5 40.5 q19.5 19.5 30.5 40 q11 20.5 16 43 q5 22.5 5 48.5 q0 24 -4 45.5 q-4 21.5 -10 41.5 l-92 0 l0 73 l66 0 q-11 30 -19.5 62 q-8.5 32 -8.5 70 q0 96 61.5 153.5 q61.5 57.5 178.5 57.5 q60 0 100.5 -11.5 q40.5 -11.5 64.5 -27.5 l-18 -81 q-25 15 -62.5 27 q-37.5 12 -83.5 12 q-80 0 -115 -38.5 q-35 -38.5 -34 -99.5 q1 -38 10.5 -66.5 q9.5 -28.5 20.5 -57.5 l182 0 l0 -73 l-158 0 q6 -27 6 -59 q0 -47 -13 -87.5 q-13 -40.5 -56 -83.5 l354 0 l0 -80 Z" /><glyph glyph-name="currency" unicode="¤" d="M409 174 q-26 -17 -56.5 -27.5 q-30.5 -10.5 -63.5 -10.5 q-35 0 -65.5 10.5 q-30.5 10.5 -56.5 27.5 l-73 -73 l-49 48 l74 74 q-18 26 -28.5 56 q-10.5 30 -10.5 65 q0 35 10.5 65.5 q10.5 30.5 28.5 56.5 l-74 73 l49 49 l73 -74 q26 18 56.5 28.5 q30.5 10.5 65.5 10.5 q33 0 64 -10.5 q31 -10.5 57 -28.5 l73 74 l49 -49 l-73 -73 q17 -26 27.5 -56.5 q10.5 -30.5 10.5 -65.5 q0 -35 -10.5 -65 q-10.5 -30 -27.5 -56 l73 -74 l-50 -48 l-73 73 ZM290 482 q-26 0 -48.5 -9 q-22.5 -9 -40 -27 q-17.5 -18 -27.5 -43.5 q-10 -25.5 -10 -58.5 q0 -33 10 -58.5 q10 -25.5 27.5 -43 q17.5 -17.5 40 -27 q22.5 -9.5 48.5 -9.5 q25 0 48 9.5 q23 9.5 39.5 27 q16.5 17.5 26.5 43 q10 25.5 10 58.5 q0 33 -10 58.5 q-10 25.5 -26.5 43.5 q-16.5 18 -39.5 27 q-23 9 -48 9 Z" /><glyph glyph-name="yen" unicode="¥" d="M324 149 l0 -149 l-89 0 l0 149 l-159 0 l0 70 l159 0 l0 80 l-159 0 l0 70 l137 0 l-202 347 l102 0 l169 -306 l174 306 l91 0 l-202 -347 l139 0 l0 -70 l-160 0 l0 -80 l160 0 l0 -70 l-160 0 Z" /><glyph glyph-name="brokenbar" unicode="¦" d="M190 756 l0 -400 l-85 0 l0 400 l85 0 ZM190 280 l0 -400 l-85 0 l0 400 l85 0 Z" /><glyph glyph-name="section" unicode="§" d="M312 172 q66 0 104 26 q38 26 38 74 q0 96 -162 96 q-77 0 -116.5 -23.5 q-39.5 -23.5 -39.5 -71.5 q0 -29 15.5 -48.5 q15.5 -19.5 41 -31 q25.5 -11.5 56.5 -16.5 q31 -5 63 -5 ZM264 -187 q-45 0 -80.5 5.5 q-35.5 5.5 -62.5 14.5 q-27 9 -45.5 19.5 q-18.5 10.5 -29.5 20.5 l16 76 q12 -11 32.5 -22 q20.5 -11 47 -20 q26.5 -9 57.5 -15 q31 -6 65 -6 q71 0 113.5 25 q42.5 25 42.5 76 q0 26 -10 43 q-10 17 -29.5 29 q-19.5 12 -48.5 20 q-29 8 -67 17 q-44 10 -83 22.5 q-39 12.5 -68 31.5 q-29 19 -45.5 47 q-16.5 28 -16.5 70 q0 57 34 94.5 q34 37.5 96 54.5 q-49 25 -72.5 59.5 q-23.5 34.5 -23.5 83.5 q0 76 59 121.5 q59 45.5 181 45.5 q36 0 63.5 -3.5 q27.5 -3.5 49 -9.5 q21.5 -6 37.5 -12.5 q16 -6.5 29 -12.5 l-17 -76 q-69 42 -162 42 q-87 0 -121.5 -25 q-34.5 -25 -34.5 -67 q0 -26 12.5 -44 q12.5 -18 33 -30 q20.5 -12 47.5 -19.5 q27 -7.5 56 -12.5 q40 -8 79.5 -19.5 q39.5 -11.5 71 -32 q31.5 -20.5 51.5 -51.5 q20 -31 20 -77 q0 -108 -123 -146 q89 -46 89 -140 q0 -47 -20.5 -80.5 q-20.5 -33.5 -54 -55 q-33.5 -21.5 -77.5 -31.5 q-44 -10 -91 -10 Z" /><glyph glyph-name="dieresis" unicode="¨" d="M338 595 q-26 0 -41.5 16 q-15.5 16 -15.5 39 q0 25 15.5 41.5 q15.5 16.5 41.5 16.5 q26 0 41.5 -16.5 q15.5 -16.5 15.5 -41.5 q0 -23 -15.5 -39 q-15.5 -16 -41.5 -16 ZM122 595 q-25 0 -41 16 q-16 16 -16 39 q0 25 16 41.5 q16 16.5 41 16.5 q26 0 41.5 -16.5 q15.5 -16.5 15.5 -41.5 q0 -23 -15.5 -39 q-15.5 -16 -41.5 -16 Z" /><glyph glyph-name="copyright" unicode="©" d="M456 -96 q-87 0 -162 30.5 q-75 30.5 -130.5 85.5 q-55.5 55 -87 130.5 q-31.5 75.5 -31.5 165.5 q0 90 31.5 165 q31.5 75 87 129.5 q55.5 54.5 130.5 85 q75 30.5 162 30.5 q87 0 162.5 -30.5 q75.5 -30.5 130.5 -85 q55 -54.5 86.5 -129.5 q31.5 -75 31.5 -165 q0 -90 -31.5 -165.5 q-31.5 -75.5 -86.5 -130.5 q-55 -55 -130.5 -85.5 q-75.5 -30.5 -162.5 -30.5 ZM456 -34 q76 0 139.5 26 q63.5 26 109 72.5 q45.5 46.5 70.5 111 q25 64.5 25 140.5 q0 76 -25 140 q-25 64 -70.5 110.5 q-45.5 46.5 -109 72 q-63.5 25.5 -139.5 25.5 q-76 0 -139 -25.5 q-63 -25.5 -108.5 -72 q-45.5 -46.5 -71 -110.5 q-25.5 -64 -25.5 -140 q0 -76 25.5 -140.5 q25.5 -64.5 71 -111 q45.5 -46.5 108.5 -72.5 q63 -26 139 -26 ZM478 100 q-98 0 -156 56.5 q-58 56.5 -58 155.5 q0 51 15.5 91.5 q15.5 40.5 44 68.5 q28.5 28 67.5 42.5 q39 14.5 86 14.5 q38 0 68 -8.5 q30 -8.5 47 -19.5 l-20 -68 q-19 14 -44 20.5 q-25 6.5 -52 6.5 q-59 0 -95.5 -36 q-36.5 -36 -36.5 -111 q0 -73 35.5 -108.5 q35.5 -35.5 94.5 -35.5 q32 0 54.5 7.5 q22.5 7.5 42.5 24.5 l21 -68 q-15 -13 -44 -23 q-29 -10 -70 -10 Z" /><glyph glyph-name="ordfeminine" unicode="ª" d="M199 383 q35 0 59.5 15 q24.5 15 39.5 34.5 q15 19.5 22 38 q7 18.5 7 26.5 l0 32 l-74 0 q-68 0 -98.5 -19.5 q-30.5 -19.5 -30.5 -57.5 q0 -31 18.5 -50 q18.5 -19 56.5 -19 ZM330 408 q-8 -16 -20 -33 q-12 -17 -30 -30.5 q-18 -13.5 -42.5 -22 q-24.5 -8.5 -57.5 -8.5 q-60 0 -98 34.5 q-38 34.5 -38 98.5 q0 74 52.5 108.5 q52.5 34.5 148.5 34.5 l82 0 l0 36 q0 47 -23.5 66 q-23.5 19 -72.5 19 q-45 0 -78.5 -12.5 q-33.5 -12.5 -62.5 -29.5 l-16 70 q24 15 65.5 29 q41.5 14 92.5 14 q85 0 130 -35.5 q45 -35.5 45 -109.5 l0 -242 q0 -7 0.5 -17 q0.5 -10 1 -20 q0.5 -10 1 -19.5 q0.5 -9.5 1.5 -15.5 l-73 0 q-2 12 -4.5 34 q-2.5 22 -2.5 38 l-1 13 Z" /><glyph glyph-name="guillemotleft" unicode="«" d="M177 69 l-126 195 l126 195 l93 0 l-126 -195 l126 -195 l-93 0 ZM388 69 l-128 195 l128 195 l92 0 l-126 -195 l126 -195 l-92 0 Z" /><glyph glyph-name="logicalnot" unicode="¬" d="M456 102 l0 200 l-400 0 l0 70 l482 0 l0 -270 l-82 0 Z" /><glyph glyph-name="registered" unicode="®" d="M456 -96 q-87 0 -162 30.5 q-75 30.5 -130.5 85.5 q-55.5 55 -87 130.5 q-31.5 75.5 -31.5 165.5 q0 90 31.5 165 q31.5 75 87 129.5 q55.5 54.5 130.5 85 q75 30.5 162 30.5 q87 0 162.5 -30.5 q75.5 -30.5 130.5 -85 q55 -54.5 86.5 -129.5 q31.5 -75 31.5 -165 q0 -90 -31.5 -165.5 q-31.5 -75.5 -86.5 -130.5 q-55 -55 -130.5 -85.5 q-75.5 -30.5 -162.5 -30.5 ZM456 -34 q76 0 139.5 26 q63.5 26 109 72.5 q45.5 46.5 70.5 111 q25 64.5 25 140.5 q0 76 -25 140 q-25 64 -70.5 110.5 q-45.5 46.5 -109 72 q-63.5 25.5 -139.5 25.5 q-76 0 -139 -25.5 q-63 -25.5 -108.5 -72 q-45.5 -46.5 -71 -110.5 q-25.5 -64 -25.5 -140 q0 -76 25.5 -140.5 q25.5 -64.5 71 -111 q45.5 -46.5 108.5 -72.5 q63 -26 139 -26 ZM389 454 l0 -126 l65 0 q39 0 61.5 14.5 q22.5 14.5 22.5 51.5 q0 34 -21.5 47 q-21.5 13 -60.5 13 l-67 0 ZM458 258 l-69 0 l0 -151 l-79 0 l0 417 l146 0 q79 0 121 -30 q42 -30 42 -96 q0 -50 -22 -80.5 q-22 -30.5 -60 -44.5 l97 -166 l-88 0 l-88 151 Z" /><glyph glyph-name="macron" unicode="¯" d="M86 687 l289 0 l0 -71 l-289 0 l0 71 Z" /><glyph glyph-name="degree" unicode="°" d="M257 362 q-39 0 -72.5 13.5 q-33.5 13.5 -57.5 38 q-24 24.5 -38 58 q-14 33.5 -14 72.5 q0 40 14 73.5 q14 33.5 38 57.5 q24 24 57.5 37.5 q33.5 13.5 72.5 13.5 q39 0 72.5 -13.5 q33.5 -13.5 58 -37.5 q24.5 -24 38 -57.5 q13.5 -33.5 13.5 -73.5 q0 -39 -13.5 -72.5 q-13.5 -33.5 -38 -58 q-24.5 -24.5 -58 -38 q-33.5 -13.5 -72.5 -13.5 ZM257 423 q53 0 84 33 q31 33 31 88 q0 54 -31 87.5 q-31 33.5 -84 33.5 q-52 0 -83.5 -33.5 q-31.5 -33.5 -31.5 -87.5 q0 -55 31.5 -88 q31.5 -33 83.5 -33 Z" /><glyph glyph-name="acute" unicode="´" d="M222 746 l112 0 l-113 -158 l-76 0 l77 158 Z" /><glyph glyph-name="paragraph" unicode="¶" d="M557 -187 l-85 0 l0 903 l85 0 l0 -903 ZM306 -187 l0 466 l-6 0 q-57 0 -103.5 14 q-46.5 14 -80.5 41 q-34 27 -52.5 68 q-18.5 41 -18.5 95 q0 109 64.5 164 q64.5 55 182.5 55 l100 0 l0 -903 l-86 0 Z" /><glyph glyph-name="cedilla" unicode="¸" d="M291 20 l-56 -196 l-104 0 l85 196 l75 0 Z" /><glyph glyph-name="ordmasculine" unicode="º" d="M254 314 q-47 0 -87 15.5 q-40 15.5 -69.5 45.5 q-29.5 30 -46 74 q-16.5 44 -16.5 100 q0 56 16.5 99.5 q16.5 43.5 46 73 q29.5 29.5 69.5 45 q40 15.5 87 15.5 q46 0 86.5 -15.5 q40.5 -15.5 69.5 -45 q29 -29.5 46 -73 q17 -43.5 17 -99.5 q0 -56 -17 -100 q-17 -44 -46 -74 q-29 -30 -69.5 -45.5 q-40.5 -15.5 -86.5 -15.5 ZM254 385 q29 0 54 10 q25 10 43.5 30 q18.5 20 29 51 q10.5 31 10.5 73 q0 42 -10.5 72.5 q-10.5 30.5 -29 50.5 q-18.5 20 -43.5 29.5 q-25 9.5 -54 9.5 q-59 0 -97.5 -39 q-38.5 -39 -38.5 -123 q0 -84 38.5 -124 q38.5 -40 97.5 -40 Z" /><glyph glyph-name="guillemotright" unicode="»" d="M166 264 l-126 195 l93 0 l127 -195 l-127 -195 l-93 0 l126 195 ZM377 264 l-126 195 l92 0 l127 -195 l-127 -195 l-92 0 l126 195 Z" /><glyph glyph-name="AE" unicode="æ" d="M474 642 l-195 -343 l195 0 l0 343 ZM474 214 l-243 0 l-122 -214 l-95 0 l407 716 l487 0 l0 -85 l-339 0 l0 -217 l287 0 l0 -85 l-287 0 l0 -244 l344 0 l0 -85 l-439 0 l0 214 Z" /><glyph glyph-name="Ccedilla" unicode="ç" d="M258 15 q-64 25 -111 72.5 q-47 47.5 -73.5 116 q-26.5 68.5 -26.5 154.5 q0 87 24.5 155 q24.5 68 70 115.5 q45.5 47.5 110 72.5 q64.5 25 143.5 25 q70 0 122.5 -16 q52.5 -16 85.5 -36 l-15 -92 q-39 28 -88 43.5 q-49 15.5 -106 15.5 q-116 0 -180.5 -70.5 q-64.5 -70.5 -64.5 -212.5 q0 -142 69.5 -212.5 q69.5 -70.5 186.5 -70.5 q51 0 92 15 q41 15 80 40 l26 -79 q-29 -23 -82 -42 q-49 -18 -116 -19 l-50 -176 l-104 0 l78 182 q-37 5 -71 19 Z" /><glyph glyph-name="Idieresis" unicode="ï" d="M236 788 q-26 0 -42 16.5 q-16 16.5 -16 39.5 q0 24 16 40.5 q16 16.5 42 16.5 q26 0 41.5 -16.5 q15.5 -16.5 15.5 -40.5 q0 -23 -15.5 -39.5 q-15.5 -16.5 -41.5 -16.5 ZM41 788 q-26 0 -41 16.5 q-15 16.5 -15 39.5 q0 24 15 40.5 q15 16.5 41 16.5 q26 0 41.5 -16.5 q15.5 -16.5 15.5 -40.5 q0 -23 -15.5 -39.5 q-15.5 -16.5 -41.5 -16.5 ZM184 716 l0 -716 l-95 0 l0 716 l95 0 Z" /><glyph glyph-name="Eth" unicode="ð" d="M210 329 l0 -244 l136 0 q56 0 102 17 q46 17 79 52.5 q33 35.5 51 90.5 q18 55 18 131 q0 75 -18 124.5 q-18 49.5 -49.5 78.5 q-31.5 29 -75.5 40.5 q-44 11.5 -95 11.5 l-148 0 l0 -227 l213 0 l0 -75 l-213 0 ZM115 329 l-89 0 l0 75 l89 0 l0 312 l243 0 q72 0 134 -16.5 q62 -16.5 107.5 -55.5 q45.5 -39 72 -103 q26.5 -64 26.5 -159 q0 -95 -26.5 -166.5 q-26.5 -71.5 -73.5 -119.5 q-47 -48 -111.5 -72 q-64.5 -24 -140.5 -24 l-231 0 l0 329 Z" /><glyph glyph-name="Oslash" unicode="ø" d="M390 -10 q-72 0 -135 24 l-11 4 l-50 -88 l-90 0 l72 128 q-16 13 -30 28 q-46 47 -72.5 116 q-26.5 69 -26.5 159 q0 90 26.5 158.5 q26.5 68.5 72.5 114 q46 45.5 109 69 q63 23.5 135 23.5 q74 0 137 -24 q5 -2 11 -4 l50 88 l89 0 l-72 -127 q16 -12 30 -26 q46 -46 72 -114.5 q26 -68.5 26 -158.5 q0 -89 -26 -158 q-26 -69 -71.5 -116 q-45.5 -47 -108.5 -71.5 q-63 -24.5 -137 -24.5 ZM486 625 q-44 16 -96 16 q-51 0 -95.5 -15.5 q-44.5 -15.5 -77 -49 q-32.5 -33.5 -51 -87.5 q-18.5 -54 -18.5 -131 q0 -77 18.5 -131 q18.5 -54 50.5 -88 l3 -3 l275 486 q-5 2 -9 3 ZM390 75 q52 0 96 15.5 q44 15.5 76.5 49 q32.5 33.5 51 87.5 q18.5 54 18.5 131 q0 77 -18.5 131 q-18.5 54 -51.5 87 l-2 3 l-274 -486 q4 -1 8 -3 q45 -15 96 -15 Z" /><glyph glyph-name="Thorn" unicode="þ" d="M184 485 l0 -255 l126 0 q38 0 69 7.5 q31 7.5 53.5 24 q22.5 16.5 35 42.5 q12.5 26 12.5 64 q0 61 -41.5 89 q-41.5 28 -119.5 28 l-135 0 ZM184 145 l0 -145 l-95 0 l0 716 l95 0 l0 -146 l135 0 q60 0 107.5 -11.5 q47.5 -11.5 80.5 -36 q33 -24.5 50.5 -62.5 q17.5 -38 17.5 -92 q0 -57 -19.5 -99 q-19.5 -42 -54.5 -69.5 q-35 -27.5 -83.5 -41 q-48.5 -13.5 -107.5 -13.5 l-126 0 Z" /><glyph glyph-name="germandbls" unicode="ß" d="M401 -10 q-91 0 -141 33 l17 75 q24 -16 52.5 -25 q28.5 -9 66.5 -9 q51 0 77.5 20.5 q26.5 20.5 26.5 56.5 q0 19 -8 32 q-8 13 -21.5 22.5 q-13.5 9.5 -31 16.5 q-17.5 7 -36.5 14 q-22 7 -44 16.5 q-22 9.5 -40 23.5 q-18 14 -29 34.5 q-11 20.5 -11 51.5 q0 29 10.5 48 q10.5 19 26 32.5 q15.5 13.5 34 24 q18.5 10.5 34 23 q15.5 12.5 26 29.5 q10.5 17 10.5 44 q0 25 -10 42.5 q-10 17.5 -26.5 29 q-16.5 11.5 -38 17 q-21.5 5.5 -45.5 5.5 q-68 0 -101.5 -41.5 q-33.5 -41.5 -33.5 -120.5 l0 -485 l-88 0 l0 485 q0 111 57.5 176 q57.5 65 165.5 65 q48 0 86 -12.5 q38 -12.5 64.5 -35 q26.5 -22.5 41 -54 q14.5 -31.5 14.5 -69.5 q0 -33 -10.5 -56 q-10.5 -23 -26 -39 q-15.5 -16 -33.5 -27.5 q-18 -11.5 -33.5 -22.5 q-15.5 -11 -26 -23 q-10.5 -12 -10.5 -29 q0 -14 7 -23.5 q7 -9.5 19 -17 q12 -7.5 27.5 -13 q15.5 -5.5 32.5 -11.5 q23 -9 47.5 -19.5 q24.5 -10.5 44.5 -27 q20 -16.5 32.5 -42 q12.5 -25.5 12.5 -62.5 q0 -44 -16 -73.5 q-16 -29.5 -42.5 -47 q-26.5 -17.5 -60.5 -24.5 q-34 -7 -69 -7 Z" /><glyph glyph-name="ae" unicode="æ" d="M612 451 q-56 0 -94.5 -35 q-38.5 -35 -49.5 -106 l265 0 q2 36 -6.5 62.5 q-8.5 26.5 -24.5 44 q-16 17.5 -39 26 q-23 8.5 -51 8.5 ZM221 69 q31 0 56.5 10 q25.5 10 44.5 25 q19 15 32 32.5 q13 17.5 21 32.5 l0 69 l-94 0 q-78 0 -113.5 -22.5 q-35.5 -22.5 -35.5 -67.5 q0 -35 21.5 -57 q21.5 -22 67.5 -22 ZM821 44 q-11 -8 -27.5 -17 q-16.5 -9 -40 -17.5 q-23.5 -8.5 -53.5 -14 q-30 -5.5 -67 -5.5 q-83 0 -137.5 31 q-54.5 31 -82.5 88 q-9 -19 -25.5 -40 q-16.5 -21 -41.5 -38.5 q-25 -17.5 -58.5 -29 q-33.5 -11.5 -78.5 -11.5 q-77 0 -121 39.5 q-44 39.5 -44 113.5 q0 85 59.5 125 q59.5 40 169.5 40 l102 0 l0 29 q0 57 -29.5 85.5 q-29.5 28.5 -98.5 28.5 q-48 0 -89 -13 q-41 -13 -70 -30 l-21 73 q32 20 79.5 34 q47.5 14 106.5 14 q69 0 115 -21 q46 -21 68 -67 q29 43 73 65.5 q44 22.5 103 22.5 q54 0 97 -19 q43 -19 70.5 -56 q27.5 -37 37.5 -91.5 q10 -54.5 -1 -126.5 l-351 0 q11 -167 176 -167 q54 0 92.5 17.5 q38.5 17.5 64.5 35.5 l23 -78 Z" /><glyph glyph-name="ccedilla" unicode="ç" d="M195 8 q-48 18 -82.5 52.5 q-34.5 34.5 -53.5 84 q-19 49.5 -19 113.5 q0 63 19.5 113.5 q19.5 50.5 54.5 85.5 q35 35 82.5 53.5 q47.5 18.5 103.5 18.5 q47 0 87.5 -10 q40.5 -10 67.5 -30 l-22 -76 q-25 14 -57 26 q-32 12 -75 12 q-78 0 -124.5 -48 q-46.5 -48 -46.5 -145 q0 -91 46 -140 q46 -49 124 -49 q38 0 69 10 q31 10 59 26 l21 -73 q-28 -20 -64 -31 q-28 -8 -64 -10 l-47 -167 l-104 0 l74 171 q-26 4 -49 13 Z" /><glyph glyph-name="idieresis" unicode="ï" d="M208 595 q-26 0 -41 16 q-15 16 -15 39 q0 25 15 41.5 q15 16.5 41 16.5 q26 0 41.5 -16.5 q15.5 -16.5 15.5 -41.5 q0 -23 -15.5 -39 q-15.5 -16 -41.5 -16 ZM33 595 q-25 0 -41 16 q-16 16 -16 39 q0 25 16 41.5 q16 16.5 41 16.5 q26 0 42 -16.5 q16 -16.5 16 -41.5 q0 -23 -16 -39 q-16 -16 -42 -16 ZM165 519 l0 -519 l-88 0 l0 519 l88 0 Z" /><glyph glyph-name="eth" unicode="ð" d="M290 -10 q-53 0 -99 18 q-46 18 -79.5 52.5 q-33.5 34.5 -52.5 84.5 q-19 50 -19 115 q0 64 19 113.5 q19 49.5 51.5 83.5 q32.5 34 75 51 q42.5 17 90.5 17 q42 0 77 -12.5 q35 -12.5 65 -47.5 q-18 40 -43.5 74.5 q-25.5 34.5 -57.5 63.5 l-168 -54 l-18 57 l130 42 q-26 18 -54.5 33 q-28.5 15 -58.5 28 l0 7 l128 0 q18 -8 36 -17.5 q18 -9.5 37 -23.5 l105 34 l17 -57 l-68 -22 q30 -29 56 -65 q26 -36 45.5 -78 q19.5 -42 31 -89.5 q11.5 -47.5 11.5 -99.5 q0 -75 -19 -132.5 q-19 -57.5 -53.5 -96.5 q-34.5 -39 -81.5 -59 q-47 -20 -103 -20 ZM290 69 q35 0 65 12 q30 12 51.5 39 q21.5 27 34 71 q12.5 44 12.5 107 q0 47 -11 94 q-27 33 -63 46 q-36 13 -89 13 q-35 0 -64 -11.5 q-29 -11.5 -50.5 -35 q-21.5 -23.5 -33.5 -59.5 q-12 -36 -12 -85 q0 -49 12 -85 q12 -36 33.5 -59.5 q21.5 -23.5 50.5 -35 q29 -11.5 64 -11.5 Z" /><glyph glyph-name="divide" unicode="÷" d="M297 65 q-28 0 -46.5 18.5 q-18.5 18.5 -18.5 44.5 q0 28 18.5 46 q18.5 18 46.5 18 q28 0 46 -18 q18 -18 18 -46 q0 -26 -18 -44.5 q-18 -18.5 -46 -18.5 ZM297 482 q-28 0 -46.5 18.5 q-18.5 18.5 -18.5 44.5 q0 28 18.5 46 q18.5 18 46.5 18 q28 0 46 -18 q18 -18 18 -46 q0 -26 -18 -44.5 q-18 -18.5 -46 -18.5 ZM56 302 l0 70 l482 0 l0 -70 l-482 0 Z" /><glyph glyph-name="oslash" unicode="ø" d="M130 260 q0 -52 13.5 -89 q13.5 -37 36.5 -60 l159 334 q-24 6 -49 6 q-35 0 -64 -11.5 q-29 -11.5 -50.5 -35 q-21.5 -23.5 -33.5 -59.5 q-12 -36 -12 -85 ZM290 69 q35 0 65 11.5 q30 11.5 51.5 35 q21.5 23.5 34 59.5 q12.5 36 12.5 85 q0 51 -13.5 88 q-13.5 37 -36.5 60 l-159 -333 q21 -6 46 -6 ZM290 -10 q-44 0 -81 12 l-39 -82 l-81 0 l54 114 q-48 33 -75.5 90 q-27.5 57 -27.5 136 q0 64 19 114.5 q19 50.5 52.5 84.5 q33.5 34 79.5 52 q46 18 99 18 q44 0 83 -12 l39 82 l82 0 l-55 -114 q48 -34 75.5 -90.5 q27.5 -56.5 27.5 -134.5 q0 -65 -19.5 -115 q-19.5 -50 -53 -84.5 q-33.5 -34.5 -79.5 -52.5 q-46 -18 -100 -18 Z" /><glyph glyph-name="thorn" unicode="þ" d="M325 69 q69 0 111.5 47.5 q42.5 47.5 42.5 143.5 q0 94 -42.5 142.5 q-42.5 48.5 -111.5 48.5 q-34 0 -63.5 -12 q-29.5 -12 -51 -35.5 q-21.5 -23.5 -34 -59.5 q-12.5 -36 -12.5 -84 q0 -48 12.5 -84 q12.5 -36 34 -60 q21.5 -24 51 -35.5 q29.5 -11.5 63.5 -11.5 ZM338 -10 q-60 0 -103.5 28 q-43.5 28 -69.5 77 l0 -272 l-88 0 l0 893 l88 0 l0 -287 q26 47 68.5 73.5 q42.5 26.5 103.5 26.5 q47 0 89.5 -16.5 q42.5 -16.5 74.5 -50 q32 -33.5 50.5 -84 q18.5 -50.5 18.5 -118.5 q0 -69 -19 -119.5 q-19 -50.5 -51 -84 q-32 -33.5 -74 -50 q-42 -16.5 -88 -16.5 Z" /><glyph glyph-name="dotlessi" unicode="&#x131;" d="M165 519 l0 -519 l-88 0 l0 519 l88 0 Z" /><glyph glyph-name="Lslash" unicode="&#x141;" d="M28 288 l87 42 l0 386 l95 0 l0 -339 l249 121 l0 -90 l-249 -121 l0 -202 l327 0 l0 -85 l-422 0 l0 240 l-87 -42 l0 90 Z" /><glyph glyph-name="lslash" unicode="&#x142;" d="M18 323 l79 63 l0 330 l88 0 l0 -260 l84 67 l0 -80 l-84 -67 l0 -376 l-88 0 l0 306 l-79 -63 l0 80 Z" /><glyph glyph-name="OE" unicode="&#x152;" d="M479 85 l0 546 l-61 0 q-58 0 -107.5 -12 q-49.5 -12 -85.5 -42 q-36 -30 -56 -81.5 q-20 -51.5 -20 -129.5 q0 -74 20 -127 q20 -53 57 -87 q37 -34 88.5 -50.5 q51.5 -16.5 113.5 -16.5 l51 0 ZM408 0 q-78 0 -144.5 23.5 q-66.5 23.5 -114.5 69.5 q-48 46 -75 114.5 q-27 68.5 -27 159.5 q0 99 28.5 166 q28.5 67 78.5 107.5 q50 40.5 117.5 58 q67.5 17.5 146.5 17.5 l477 0 l0 -85 l-321 0 l0 -217 l279 0 l0 -85 l-279 0 l0 -244 l326 0 l0 -85 l-492 0 Z" /><glyph glyph-name="oe" unicode="&#x153;" d="M696 451 q-57 0 -98 -35 q-41 -35 -52 -106 l279 0 q4 72 -33 106.5 q-37 34.5 -96 34.5 ZM290 69 q35 0 65 11.5 q30 11.5 51.5 35 q21.5 23.5 34 59.5 q12.5 36 12.5 85 q0 49 -12.5 85 q-12.5 36 -34 59.5 q-21.5 23.5 -51.5 35 q-30 11.5 -65 11.5 q-35 0 -64 -11.5 q-29 -11.5 -50.5 -35 q-21.5 -23.5 -33.5 -59.5 q-12 -36 -12 -85 q0 -49 12 -85 q12 -36 33.5 -59.5 q21.5 -23.5 50.5 -35 q29 -11.5 64 -11.5 ZM902 44 q-11 -8 -27 -17 q-16 -9 -38.5 -17.5 q-22.5 -8.5 -51.5 -14 q-29 -5.5 -65 -5.5 q-85 0 -140 29.5 q-55 29.5 -84 86.5 q-30 -57 -83.5 -86.5 q-53.5 -29.5 -122.5 -29.5 q-53 0 -99 18 q-46 18 -79.5 52.5 q-33.5 34.5 -52.5 84.5 q-19 50 -19 115 q0 64 19 114.5 q19 50.5 52.5 84.5 q33.5 34 79.5 52 q46 18 99 18 q70 0 123.5 -30 q53.5 -30 83.5 -87 q29 57 80.5 87 q51.5 30 120.5 30 q56 0 100 -19 q44 -19 72.5 -56 q28.5 -37 39 -91.5 q10.5 -54.5 -0.5 -126.5 l-366 0 q5 -84 49.5 -125.5 q44.5 -41.5 134.5 -41.5 q60 0 103 17 q43 17 72 37 l0 -79 Z" /><glyph glyph-name="circumflex" unicode="&#x2c6;" d="M231 672 l-80 -84 l-76 0 l105 148 l100 0 l106 -148 l-76 0 l-79 84 Z" /><glyph glyph-name="caron" unicode="&#x2c7;" d="M75 736 l76 0 l80 -84 l79 84 l76 0 l-106 -148 l-100 0 l-105 148 Z" /><glyph glyph-name="breve" unicode="&#x2d8;" d="M230 588 q-38 0 -65 11 q-27 11 -45 30 q-18 19 -27.5 44.5 q-9.5 25.5 -10.5 55.5 l80 0 q2 -38 19 -54.5 q17 -16.5 49 -16.5 q33 0 49 16.5 q16 16.5 18 54.5 l80 0 q-1 -30 -10 -55.5 q-9 -25.5 -27 -44.5 q-18 -19 -45.5 -30 q-27.5 -11 -64.5 -11 Z" /><glyph glyph-name="dotaccent" unicode="&#x2d9;" d="M230 595 q-26 0 -41.5 16 q-15.5 16 -15.5 39 q0 25 15.5 41.5 q15.5 16.5 41.5 16.5 q26 0 42 -16.5 q16 -16.5 16 -41.5 q0 -23 -16 -39 q-16 -16 -42 -16 Z" /><glyph glyph-name="ring" unicode="&#x2da;" d="M230 571 q-48 0 -79 30.5 q-31 30.5 -31 78.5 q0 48 31 78.5 q31 30.5 79 30.5 q48 0 79.5 -30.5 q31.5 -30.5 31.5 -78.5 q0 -24 -8.5 -44 q-8.5 -20 -23.5 -34.5 q-15 -14.5 -35 -22.5 q-20 -8 -44 -8 ZM230 626 q23 0 39 15 q16 15 16 39 q0 24 -16 39.5 q-16 15.5 -39 15.5 q-23 0 -38 -15.5 q-15 -15.5 -15 -39.5 q0 -24 15 -39 q15 -15 38 -15 Z" /><glyph glyph-name="ogonek" unicode="&#x2db;" d="M254 -188 q-57 0 -87.5 24.5 q-30.5 24.5 -30.5 63.5 q0 21 7 37.5 q7 16.5 18.5 28.5 q11.5 12 25 20 q13.5 8 27.5 14 l79 0 q-13 -7 -25.5 -16 q-12.5 -9 -23 -19.5 q-10.5 -10.5 -17 -22 q-6.5 -11.5 -6.5 -23.5 q0 -17 10.5 -27.5 q10.5 -10.5 33.5 -10.5 q13 0 24 2.5 q11 2.5 22 6.5 l12 -63 q-10 -5 -28 -10 q-18 -5 -41 -5 Z" /><glyph glyph-name="tilde" unicode="&#x2dc;" d="M68 598 q-3 22 0.5 45 q3.5 23 14.5 41 q11 18 30.5 29.5 q19.5 11.5 46.5 11.5 q24 0 43 -7.5 q19 -7.5 35 -16.5 q16 -9 29.5 -16.5 q13.5 -7.5 27.5 -7.5 q20 0 28 14.5 q8 14.5 6 37.5 l63 0 q3 -23 -0.5 -45.5 q-3.5 -22.5 -15 -40.5 q-11.5 -18 -30.5 -29.5 q-19 -11.5 -46 -11.5 q-24 0 -43 7.5 q-19 7.5 -35 16.5 q-16 9 -30 16.5 q-14 7.5 -27 7.5 q-19 0 -27.5 -14.5 q-8.5 -14.5 -6.5 -37.5 l-63 0 l0 0 Z" /><glyph glyph-name="hungarumlaut" unicode="&#x2dd;" d="M256 588 l58 158 l99 0 l-87 -158 l-70 0 ZM86 588 l57 158 l99 0 l-86 -158 l-70 0 Z" /><glyph glyph-name="endash" unicode="&#x2013;" d="M65 341 l450 0 l0 -75 l-450 0 l0 75 Z" /><glyph glyph-name="emdash" unicode="&#x2014;" d="M65 341 l821 0 l0 -75 l-821 0 l0 75 Z" /><glyph glyph-name="quoteleft" unicode="&#x2018;" d="M129 506 q-27 0 -45 18 q-18 18 -18 53 q0 20 6 40.5 q6 20.5 16 38.5 q10 18 21 33.5 q11 15.5 22 26.5 l65 0 q-15 -17 -28.5 -40.5 q-13.5 -23.5 -21.5 -52.5 q20 -5 32 -21 q12 -16 12 -37 q0 -26 -16.5 -42.5 q-16.5 -16.5 -44.5 -16.5 Z" /><glyph glyph-name="quoteright" unicode="&#x2019;" d="M66 519 q15 17 28.5 40.5 q13.5 23.5 21.5 52.5 q-20 5 -32 21 q-12 16 -12 37 q0 26 16.5 42.5 q16.5 16.5 44.5 16.5 q27 0 45 -18 q18 -18 18 -52 q0 -21 -6 -41 q-6 -20 -16 -38.5 q-10 -18.5 -21.5 -34 q-11.5 -15.5 -21.5 -26.5 l-65 0 Z" /><glyph glyph-name="quotesinglbase" unicode="&#x201a;" d="M66 -90 q15 17 28.5 40.5 q13.5 23.5 22.5 53.5 q-21 5 -33 21 q-12 16 -12 37 q0 26 16.5 42.5 q16.5 16.5 44.5 16.5 q27 0 45 -18 q18 -18 18 -52 q0 -21 -6 -41 q-6 -20 -16 -38.5 q-10 -18.5 -21.5 -34.5 q-11.5 -16 -21.5 -27 l-65 0 Z" /><glyph glyph-name="quotedblleft" unicode="&#x201c;" d="M129 506 q-27 0 -45 18 q-18 18 -18 53 q0 20 6 40.5 q6 20.5 16 38.5 q10 18 21 33.5 q11 15.5 22 26.5 l65 0 q-15 -17 -28.5 -40.5 q-13.5 -23.5 -21.5 -52.5 q20 -5 32 -21 q12 -16 12 -37 q0 -26 -16.5 -42.5 q-16.5 -16.5 -44.5 -16.5 ZM305 506 q-27 0 -45 18 q-18 18 -18 53 q0 20 6 40.5 q6 20.5 16 38.5 q10 18 21 33.5 q11 15.5 22 26.5 l65 0 q-15 -17 -28.5 -40.5 q-13.5 -23.5 -21.5 -52.5 q21 -5 33 -21 q12 -16 12 -37 q0 -26 -17 -42.5 q-17 -16.5 -45 -16.5 Z" /><glyph glyph-name="quotedblright" unicode="&#x201d;" d="M242 519 q16 17 29.5 40.5 q13.5 23.5 21.5 52.5 q-21 5 -33 20.5 q-12 15.5 -12 37.5 q0 26 16.5 42.5 q16.5 16.5 44.5 16.5 q27 0 45 -18 q18 -18 18 -52 q0 -21 -6 -41 q-6 -20 -16 -38.5 q-10 -18.5 -21.5 -34 q-11.5 -15.5 -21.5 -26.5 l-65 0 ZM66 519 q15 17 28.5 40.5 q13.5 23.5 21.5 52.5 q-20 5 -32 21 q-12 16 -12 37 q0 26 16.5 42.5 q16.5 16.5 44.5 16.5 q27 0 45 -18 q18 -18 18 -52 q0 -21 -6 -41 q-6 -20 -16 -38.5 q-10 -18.5 -21.5 -34 q-11.5 -15.5 -21.5 -26.5 l-65 0 Z" /><glyph glyph-name="quotedblbase" unicode="&#x201e;" d="M242 -91 q16 17 29.5 40.5 q13.5 23.5 22.5 53.5 q-22 5 -34 20.5 q-12 15.5 -12 37.5 q0 26 16.5 42.5 q16.5 16.5 44.5 16.5 q27 0 45 -18 q18 -18 18 -53 q0 -20 -6 -40.5 q-6 -20.5 -16 -38.5 q-10 -18 -21.5 -34 q-11.5 -16 -21.5 -27 l-65 0 ZM66 -91 q15 17 28.5 40.5 q13.5 23.5 22.5 53.5 q-21 5 -33 21 q-12 16 -12 37 q0 26 16.5 42.5 q16.5 16.5 44.5 16.5 q27 0 45 -18 q18 -18 18 -53 q0 -20 -6 -40.5 q-6 -20.5 -16 -38.5 q-10 -18 -21.5 -34 q-11.5 -16 -21.5 -27 l-65 0 Z" /><glyph glyph-name="dagger" unicode="&#x2020;" d="M295 423 l0 -503 l-85 0 l0 503 l-165 0 l0 75 l165 0 l0 218 l85 0 l0 -218 l165 0 l0 -75 l-165 0 Z" /><glyph glyph-name="daggerdbl" unicode="&#x2021;" d="M295 138 l0 -218 l-85 0 l0 218 l-165 0 l0 75 l165 0 l0 210 l-165 0 l0 75 l165 0 l0 218 l85 0 l0 -218 l165 0 l0 -75 l-165 0 l0 -210 l165 0 l0 -75 l-165 0 Z" /><glyph glyph-name="bullet" unicode="&#x2022;" d="M138 187 q-43 0 -71 27.5 q-28 27.5 -28 68.5 q0 43 28 70.5 q28 27.5 71 27.5 q43 0 71 -27.5 q28 -27.5 28 -70.5 q0 -41 -28 -68.5 q-28 -27.5 -71 -27.5 Z" /><glyph glyph-name="perthousand" unicode="&#x2030;" d="M82 -10 l461 736 l79 0 l-461 -736 l-79 0 ZM304 539 q0 -48 -11 -83 q-11 -35 -30 -57.5 q-19 -22.5 -44 -33.5 q-25 -11 -53 -11 q-28 0 -52.5 10.5 q-24.5 10.5 -43 32 q-18.5 21.5 -29.5 56 q-11 34.5 -11 82.5 q0 48 11 83 q11 35 29.5 58.5 q18.5 23.5 43 34.5 q24.5 11 52.5 11 q28 0 53 -10.5 q25 -10.5 44 -33 q19 -22.5 30 -57 q11 -34.5 11 -82.5 ZM106 537 q0 -66 15 -92.5 q15 -26.5 45 -26.5 q31 0 46 26.5 q15 26.5 15 92.5 q0 66 -15 93 q-15 27 -46 27 q-30 0 -45 -27 q-15 -27 -15 -93 ZM1011 179 q0 -48 -11 -82.5 q-11 -34.5 -30 -57.5 q-19 -23 -44 -34 q-25 -11 -53 -11 q-28 0 -52.5 10.5 q-24.5 10.5 -43 32 q-18.5 21.5 -29.5 56 q-11 34.5 -11 82.5 q0 48 11 83 q11 35 29.5 58.5 q18.5 23.5 43 34.5 q24.5 11 52.5 11 q28 0 53 -10.5 q25 -10.5 44 -33 q19 -22.5 30 -57 q11 -34.5 11 -82.5 ZM675 179 q0 -48 -11 -82.5 q-11 -34.5 -30 -57.5 q-19 -23 -44 -34 q-25 -11 -53 -11 q-28 0 -52.5 10.5 q-24.5 10.5 -43 32 q-18.5 21.5 -29.5 56 q-11 34.5 -11 82.5 q0 48 11 83 q11 35 29.5 58.5 q18.5 23.5 43 34.5 q24.5 11 52.5 11 q28 0 53 -10.5 q25 -10.5 44 -33 q19 -22.5 30 -57 q11 -34.5 11 -82.5 ZM813 177 q0 -66 15 -92.5 q15 -26.5 45 -26.5 q31 0 46 26.5 q15 26.5 15 92.5 q0 66 -15 93 q-15 27 -46 27 q-30 0 -45 -27 q-15 -27 -15 -93 ZM477 177 q0 -66 15 -92.5 q15 -26.5 45 -26.5 q31 0 46 26.5 q15 26.5 15 92.5 q0 66 -15 93 q-15 27 -46 27 q-30 0 -45 -27 q-15 -27 -15 -93 Z" /><glyph glyph-name="guilsinglleft" unicode="&#x2039;" d="M177 69 l-126 195 l126 195 l93 0 l-126 -195 l126 -195 l-93 0 Z" /><glyph glyph-name="guilsinglright" unicode="&#x203a;" d="M166 264 l-126 195 l93 0 l127 -195 l-127 -195 l-93 0 l126 195 Z" /><glyph glyph-name="fraction" unicode="&#x2044;" d="M-95 0 l581 716 l79 0 l-579 -716 l-81 0 Z" /><glyph glyph-name="Euro" unicode="&#x20ac;" d="M541 25 q-23 -13 -62.5 -24 q-39.5 -11 -96.5 -11 q-124 0 -197 67.5 q-73 67.5 -94 191.5 l-81 0 l0 70 l73 0 q-1 10 -1 19.5 q0 9.5 0 19.5 q0 11 0 21 q0 10 1 20 l-73 0 l0 70 l82 0 q25 123 103 190 q78 67 199 67 q48 0 82.5 -8.5 q34.5 -8.5 64.5 -24.5 l-17 -79 q-34 17 -63.5 25 q-29.5 8 -68.5 8 q-89 0 -140 -44 q-51 -44 -69 -134 l188 0 l0 -70 l-196 0 q-1 -10 -1 -20 q0 -10 0 -21 q0 -10 0 -20 q0 -10 1 -19 l196 0 l0 -70 l-189 0 q15 -91 63 -135.5 q48 -44.5 139 -44.5 q49 0 84 11.5 q35 11.5 58 23.5 l15 -79 l0 0 Z" /><glyph glyph-name="trademark" unicode="&#x2122;" d="M227 650 l0 -328 l-71 0 l0 328 l-131 0 l0 66 l332 0 l0 -66 l-130 0 ZM487 640 l0 -318 l-69 0 l0 394 l116 0 l101 -255 l103 255 l110 0 l0 -394 l-72 0 l0 314 l-105 -254 l-79 0 l-105 258 Z" /><glyph glyph-name="Eng" unicode="&#x14a;" d="M499 -200 q-55 0 -101 16 l21 78 q18 -7 38.5 -10 q20.5 -3 40.5 -3 q78 0 78 90 l0 29 l-38 0 l-360 601 l0 -601 l-89 0 l0 716 l127 0 l360 -601 l0 601 l90 0 l0 -753 q0 -34 -10 -64 q-10 -30 -30.5 -52 q-20.5 -22 -52 -34.5 q-31.5 -12.5 -74.5 -12.5 Z" /><glyph glyph-name="IJ" unicode="&#x132;" d="M184 716 l0 -716 l-95 0 l0 716 l95 0 ZM518 716 l0 -583 q0 -27 -10 -53 q-10 -26 -30.5 -46 q-20.5 -20 -52 -32 q-31.5 -12 -74.5 -12 q-27 0 -53.5 4.5 q-26.5 4.5 -48.5 12.5 l0 81 q20 -7 40 -10 q20 -3 40 -3 q49 0 71.5 20.5 q22.5 20.5 22.5 65.5 l0 555 l95 0 Z" /><glyph glyph-name="dcroat" unicode="&#x111;" d="M451 101 q-24 -50 -67 -80.5 q-43 -30.5 -109 -30.5 q-47 0 -89 16.5 q-42 16.5 -74 50 q-32 33.5 -51 84 q-19 50.5 -19 119.5 q0 68 19 118.5 q19 50.5 51 84 q32 33.5 74.5 50 q42.5 16.5 89.5 16.5 q59 0 102 -24.5 q43 -24.5 69 -69.5 l0 141 l-152 0 l0 65 l152 0 l0 75 l88 0 l0 -75 l78 0 l0 -65 l-78 0 l0 -576 l-77 0 l-7 101 ZM289 69 q33 0 62 11.5 q29 11.5 50.5 35.5 q21.5 24 34 60 q12.5 36 12.5 84 q0 48 -12.5 84 q-12.5 36 -34 60 q-21.5 24 -50.5 35.5 q-29 11.5 -62 11.5 q-69 0 -113 -48.5 q-44 -48.5 -44 -142.5 q0 -96 44 -143.5 q44 -47.5 113 -47.5 Z" /><glyph glyph-name="eng" unicode="&#x14b;" d="M513 7 q0 -81 -41.5 -132 q-41.5 -51 -136.5 -61 l-14 79 q31 3 51 12.5 q20 9.5 32 24 q12 14.5 16.5 32.5 q4.5 18 4.5 39 l0 354 q0 54 -27 75 q-27 21 -75 21 q-60 0 -97.5 -27.5 q-37.5 -27.5 -60.5 -70.5 l0 -353 l-88 0 l0 519 l83 0 l3 -93 l2 0 q21 43 66 73 q45 30 114 30 q77 0 122.5 -40.5 q45.5 -40.5 45.5 -124.5 l0 -357 l0 0 Z" /><glyph glyph-name="Aogonek" unicode="&#x104;" d="M592 -188 q-57 0 -87.5 24.5 q-30.5 24.5 -30.5 63.5 q0 37 20 59 q20 22 44 35 l-70 211 l-287 0 l-68 -205 l-88 0 l235 716 l140 0 l235 -714 q-29 -17 -52.5 -38 q-23.5 -21 -23.5 -45 q0 -17 10.5 -27.5 q10.5 -10.5 33.5 -10.5 q14 0 24.5 2.5 q10.5 2.5 21.5 6.5 l0 -67 q-7 -4 -22 -7.5 q-15 -3.5 -35 -3.5 ZM324 641 l-116 -353 l233 0 l-117 353 Z" /><glyph glyph-name="Hbar" unicode="&#x126;" d="M552 313 l-368 0 l0 -313 l-95 0 l0 511 l-100 0 l0 75 l100 0 l0 130 l95 0 l0 -130 l368 0 l0 130 l94 0 l0 -130 l100 0 l0 -75 l-100 0 l0 -511 l-94 0 l0 313 ZM552 398 l0 113 l-368 0 l0 -113 l368 0 Z" /><glyph glyph-name="Iogonek" unicode="&#x12e;" d="M141 -188 q-57 0 -87 24.5 q-30 24.5 -30 63.5 q0 37 20.5 59 q20.5 22 44.5 35 l0 722 l95 0 l0 -715 q-27 -17 -51.5 -37.5 q-24.5 -20.5 -24.5 -44.5 q0 -17 11 -27.5 q11 -10.5 34 -10.5 q13 0 24 2.5 q11 2.5 22 6.5 l11 -63 q-9 -5 -27.5 -10 q-18.5 -5 -41.5 -5 Z" /><glyph glyph-name="Scedilla" unicode="&#x15e;" d="M205 -3 q-37 6 -68 15.5 q-31 9.5 -55 22 q-24 12.5 -39 24.5 l15 90 q15 -12 38.5 -25 q23.5 -13 52.5 -24 q29 -11 63 -18 q34 -7 71 -7 q78 0 124.5 29.5 q46.5 29.5 46.5 89.5 q0 30 -11 49.5 q-11 19.5 -32 33 q-21 13.5 -52.5 23 q-31.5 9.5 -73.5 20.5 q-42 11 -84 25 q-42 14 -75.5 37 q-33.5 23 -54 58 q-20.5 35 -20.5 89 q0 92 64 144.5 q64 52.5 194 52.5 q41 0 73 -4.5 q32 -4.5 56 -11 q24 -6.5 42 -14.5 q18 -8 31 -15 l-12 -91 q-35 23 -83 37 q-48 14 -107 14 q-46 0 -77.5 -7.5 q-31.5 -7.5 -51 -21.5 q-19.5 -14 -28 -34 q-8.5 -20 -8.5 -45 q0 -30 13.5 -50 q13.5 -20 36 -33.5 q22.5 -13.5 51.5 -22.5 q29 -9 61 -16 q42 -11 86 -23.5 q44 -12.5 79 -35.5 q35 -23 57.5 -59.5 q22.5 -36.5 22.5 -94.5 q0 -57 -22.5 -96.5 q-22.5 -39.5 -59.5 -64.5 q-37 -25 -86 -36 q-22 -5 -46 -8 l-48 -169 l-104 0 l72 167 q-27 1 -52 6 Z" /><glyph glyph-name="Tbar" unicode="&#x166;" d="M75 431 l170 0 l0 199 l-210 0 l0 86 l517 0 l0 -86 l-211 0 l0 -199 l170 0 l0 -75 l-170 0 l0 -356 l-96 0 l0 356 l-170 0 l0 75 Z" /><glyph glyph-name="Uogonek" unicode="&#x172;" d="M385 -81 q0 -17 10.5 -27.5 q10.5 -10.5 33.5 -10.5 q13 0 24 2.5 q11 2.5 22 6.5 l12 -63 q-10 -5 -28 -10 q-18 -5 -41 -5 q-57 0 -87.5 24.5 q-30.5 24.5 -30.5 63.5 q0 35 17.5 56 q17.5 21 40.5 34 l-7 0 q-60 0 -111 16 q-51 16 -88.5 48 q-37.5 32 -58.5 79.5 q-21 47.5 -21 110.5 l0 472 l95 0 l0 -471 q0 -87 49.5 -129 q49.5 -42 136.5 -42 q41 0 76.5 10.5 q35.5 10.5 61.5 32 q26 21.5 40.5 53.5 q14.5 32 14.5 75 l0 471 l90 0 l0 -468 q0 -87 -41 -144.5 q-41 -57.5 -107 -91.5 q-49 -24 -76 -44.5 q-27 -20.5 -27 -48.5 Z" /><glyph glyph-name="aogonek" unicode="&#x105;" d="M424 -188 q-57 0 -87.5 24.5 q-30.5 24.5 -30.5 63.5 q0 21 7 37.5 q7 16.5 18 28.5 q11 12 24.5 20.5 q13.5 8.5 26.5 13.5 q-2 14 -4.5 39.5 q-2.5 25.5 -2.5 44.5 l0 2 q-11 -17 -26.5 -34.5 q-15.5 -17.5 -37 -31 q-21.5 -13.5 -49.5 -22 q-28 -8.5 -62 -8.5 q-70 0 -113 39.5 q-43 39.5 -43 113.5 q0 169 250 169 l76 0 l0 39 q0 54 -28.5 77 q-28.5 23 -94.5 23 q-51 0 -90.5 -13 q-39.5 -13 -68.5 -30 l-21 73 q27 17 75 32.5 q48 15.5 111 15.5 q100 0 152.5 -41 q52.5 -41 52.5 -126 l0 -278 q0 -9 0.5 -20.5 q0.5 -11.5 1 -23.5 q0.5 -12 1.5 -22.5 q1 -10.5 2 -17.5 q-13 -7 -25.5 -16 q-12.5 -9 -23 -19.5 q-10.5 -10.5 -17 -22 q-6.5 -11.5 -6.5 -23.5 q0 -17 10.5 -27.5 q10.5 -10.5 33.5 -10.5 q14 0 24.5 2.5 q10.5 2.5 21.5 6.5 l12 -63 q-10 -5 -28 -10 q-18 -5 -41 -5 ZM219 69 q28 0 51.5 8 q23.5 8 42 21 q18.5 13 33 28 q14.5 15 24.5 30 l0 86 l-68 0 q-94 0 -132 -24.5 q-38 -24.5 -38 -69.5 q0 -35 21 -57 q21 -22 66 -22 Z" /><glyph glyph-name="eogonek" unicode="&#x119;" d="M339 -81 q0 -17 10.5 -27.5 q10.5 -10.5 33.5 -10.5 q14 0 25 2.5 q11 2.5 22 6.5 l11 -63 q-9 -5 -27.5 -10 q-18.5 -5 -41.5 -5 q-57 0 -87 24.5 q-30 24.5 -30 63.5 q0 35 17 56 q17 21 40 34 l-5 0 q-131 0 -199 71 q-68 71 -68 199 q0 63 18.5 113 q18.5 50 51.5 84.5 q33 34.5 78.5 53 q45.5 18.5 98.5 18.5 q55 0 99 -19 q44 -19 72.5 -56 q28.5 -37 39 -91.5 q10.5 -54.5 -0.5 -126.5 l-366 0 q5 -84 50 -125.5 q45 -41.5 134 -41.5 q54 0 91 17.5 q37 17.5 63 35.5 l23 -78 q-16 -10 -33.5 -19.5 q-17.5 -9.5 -37.5 -20.5 q-33 -17 -57.5 -38 q-24.5 -21 -24.5 -47 ZM285 451 q-59 0 -99.5 -35 q-40.5 -35 -51.5 -106 l279 0 q2 36 -7 62.5 q-9 26.5 -26 44 q-17 17.5 -41.5 26 q-24.5 8.5 -53.5 8.5 Z" /><glyph glyph-name="hbar" unicode="&#x127;" d="M333 451 q-60 0 -97.5 -27.5 q-37.5 -27.5 -60.5 -70.5 l0 -353 l-88 0 l0 576 l-80 0 l0 65 l80 0 l0 75 l88 0 l0 -75 l151 0 l0 -65 l-151 0 l0 -57 l-2 -93 l2 0 q21 43 66 73 q45 30 114 30 q77 0 122.5 -40.5 q45.5 -40.5 45.5 -124.5 l0 -364 l-88 0 l0 355 q0 54 -27 75 q-27 21 -75 21 Z" /><glyph glyph-name="imacron" unicode="&#x12b;" d="M6 687 l228 0 l0 -71 l-228 0 l0 71 ZM165 519 l0 -519 l-88 0 l0 519 l88 0 Z" /><glyph glyph-name="iogonek" unicode="&#x12f;" d="M122 595 q-26 0 -42.5 16.5 q-16.5 16.5 -16.5 40.5 q0 23 16.5 40.5 q16.5 17.5 42.5 17.5 q26 0 41 -17.5 q15 -17.5 15 -40.5 q0 -24 -15 -40.5 q-15 -16.5 -41 -16.5 ZM126 -188 q-57 0 -87.5 24.5 q-30.5 24.5 -30.5 63.5 q0 39 21.5 61 q21.5 22 47.5 35 l0 523 l88 0 l0 -519 q-13 -7 -25.5 -16 q-12.5 -9 -23 -19.5 q-10.5 -10.5 -17 -22 q-6.5 -11.5 -6.5 -23.5 q0 -17 10.5 -27.5 q10.5 -10.5 33.5 -10.5 q14 0 25 2.5 q11 2.5 22 6.5 l11 -63 q-10 -5 -28 -10 q-18 -5 -41 -5 Z" /><glyph glyph-name="scedilla" unicode="&#x15f;" d="M125 3 q-47 14 -78 34 l21 77 q28 -20 73 -35 q45 -15 105 -15 q49 0 82 19 q33 19 33 62 q0 23 -9.5 36.5 q-9.5 13.5 -26 22 q-16.5 8.5 -39.5 13 q-23 4.5 -49 9.5 q-32 7 -64 16.5 q-32 9.5 -57.5 26.5 q-25.5 17 -41.5 43 q-16 26 -16 66 q0 70 53.5 110.5 q53.5 40.5 149.5 40.5 q54 0 94.5 -10 q40.5 -10 72.5 -26 l-21 -75 q-16 9 -31.5 16 q-15.5 7 -32.5 11.5 q-17 4.5 -37.5 7 q-20.5 2.5 -45.5 2.5 q-54 0 -84.5 -16.5 q-30.5 -16.5 -30.5 -58.5 q0 -17 8 -28.5 q8 -11.5 22.5 -19.5 q14.5 -8 35 -13.5 q20.5 -5.5 45.5 -11.5 q34 -7 68.5 -15.5 q34.5 -8.5 62 -25 q27.5 -16.5 45 -44.5 q17.5 -28 17.5 -75 q0 -45 -18.5 -75 q-18.5 -30 -48 -48.5 q-29.5 -18.5 -66.5 -25.5 q-16 -4 -32 -6 l-48 -168 l-104 0 l72 167 q-46 3 -79 12 Z" /><glyph glyph-name="tbar" unicode="&#x167;" d="M345 14 q-16 -10 -46 -17 q-30 -7 -59 -7 q-38 0 -65 11 q-27 11 -44 29.5 q-17 18.5 -25 42 q-8 23.5 -8 48.5 l0 157 l-62 0 l0 75 l62 0 l0 91 l-62 0 l0 75 l62 0 l0 109 l89 0 l0 -109 l150 0 l0 -75 l-150 0 l0 -91 l150 0 l0 -75 l-150 0 l0 -146 q0 -33 16.5 -48 q16.5 -15 48.5 -15 q20 0 40.5 5.5 q20.5 5.5 37.5 15.5 l15 -76 Z" /><glyph glyph-name="uogonek" unicode="&#x173;" d="M426 -81 q0 -17 10.5 -27.5 q10.5 -10.5 33.5 -10.5 q14 0 24.5 2.5 q10.5 2.5 21.5 6.5 l12 -63 q-10 -5 -28 -10 q-18 -5 -41 -5 q-57 0 -87.5 24.5 q-30.5 24.5 -30.5 63.5 q0 21 7 37.5 q7 16.5 18.5 28.5 q11.5 12 25.5 20 q14 8 28 14 l-8 93 l-2 0 q-21 -44 -64.5 -73.5 q-43.5 -29.5 -113.5 -29.5 q-72 0 -116.5 40.5 q-44.5 40.5 -44.5 125.5 l0 363 l89 0 l0 -363 q0 -26 7.5 -42.5 q7.5 -16.5 20.5 -26.5 q13 -10 30.5 -14 q17.5 -4 38.5 -4 q58 0 93 26 q35 26 60 71 l0 353 l88 0 l0 -519 q-13 -7 -25.5 -16 q-12.5 -9 -23 -19.5 q-10.5 -10.5 -17 -22 q-6.5 -11.5 -6.5 -23.5 Z" /><glyph glyph-name="f_f" unicode="&#xfb00;" d="M527 444 l0 -444 l-88 0 l0 444 l-243 0 l0 -444 l-88 0 l0 444 l-63 0 l0 75 l63 0 l0 13 q0 92 49 139 q49 47 134 47 q22 0 41 -3.5 q19 -3.5 33 -8.5 l-19 -77 q-8 4 -25 7 q-17 3 -36 3 q-42 0 -65.5 -24 q-23.5 -24 -23.5 -83 l0 -13 l243 0 l0 13 q0 92 49 143 q49 51 134 51 q42 0 71 -10 l-16 -79 q-7 3 -21 6.5 q-14 3.5 -30 3.5 q-46 0 -72.5 -28 q-26.5 -28 -26.5 -87 l0 -13 l150 0 l0 -75 l-150 0 Z" /><glyph glyph-name="uni2032" unicode="&#x2032;" d="M105 716 l100 0 l-70 -246 l-70 0 l40 246 Z" /><glyph glyph-name="uni24C5" unicode="&#x24c5;" d="M456 -96 q-87 0 -162 30.5 q-75 30.5 -130.5 85.5 q-55.5 55 -87 130.5 q-31.5 75.5 -31.5 165.5 q0 90 31.5 165 q31.5 75 87 129.5 q55.5 54.5 130.5 85 q75 30.5 162 30.5 q87 0 162.5 -30.5 q75.5 -30.5 130.5 -85 q55 -54.5 86.5 -129.5 q31.5 -75 31.5 -165 q0 -90 -31.5 -165.5 q-31.5 -75.5 -86.5 -130.5 q-55 -55 -130.5 -85.5 q-75.5 -30.5 -162.5 -30.5 ZM456 -34 q76 0 139.5 26 q63.5 26 109 72.5 q45.5 46.5 70.5 111 q25 64.5 25 140.5 q0 76 -25 140 q-25 64 -70.5 110.5 q-45.5 46.5 -109 72.5 q-63.5 26 -139.5 26 q-76 0 -139 -26 q-63 -26 -108.5 -72.5 q-45.5 -46.5 -71 -110.5 q-25.5 -64 -25.5 -140 q0 -76 25.5 -140.5 q25.5 -64.5 71 -111 q45.5 -46.5 108.5 -72.5 q63 -26 139 -26 ZM401 454 l0 -132 l65 0 q40 0 62.5 16 q22.5 16 22.5 53 q0 34 -21.5 48.5 q-21.5 14.5 -61.5 14.5 l-67 0 ZM401 252 l0 -145 l-78 0 l0 417 l145 0 q79 0 121.5 -32 q42.5 -32 42.5 -97 q0 -30 -9 -56.5 q-9 -26.5 -28.5 -45.5 q-19.5 -19 -51 -30 q-31.5 -11 -76.5 -11 l-66 0 Z" /><glyph glyph-name="zero.den" unicode="&#xe402;" d="M242 -6 q-40 0 -75.5 14.5 q-35.5 14.5 -62.5 44 q-27 29.5 -43 73 q-16 43.5 -16 100.5 q0 57 16 100.5 q16 43.5 43 72.5 q27 29 62.5 43.5 q35.5 14.5 75.5 14.5 q40 0 75.5 -14.5 q35.5 -14.5 62.5 -43 q27 -28.5 42.5 -72 q15.5 -43.5 15.5 -100.5 q0 -57 -15.5 -100.5 q-15.5 -43.5 -42.5 -73 q-27 -29.5 -62.5 -44.5 q-35.5 -15 -75.5 -15 ZM242 58 q23 0 43.5 9 q20.5 9 36 29 q15.5 20 24.5 52 q9 32 9 78 q0 46 -9 77.5 q-9 31.5 -24.5 51.5 q-15.5 20 -36 29 q-20.5 9 -43.5 9 q-23 0 -43.5 -9 q-20.5 -9 -36 -29 q-15.5 -20 -24.5 -51.5 q-9 -31.5 -9 -77.5 q0 -46 9 -78 q9 -32 24.5 -52 q15.5 -20 36 -29 q20.5 -9 43.5 -9 Z" /><glyph glyph-name="one.den" unicode="&#xe403;" d="M156 0 l0 361 l-100 -93 l0 80 l111 103 l71 0 l0 -451 l-82 0 Z" /><glyph glyph-name="two.den" unicode="&#xe404;" d="M40 0 l0 76 q59 43 100.5 77.5 q41.5 34.5 68 63 q26.5 28.5 38.5 53.5 q12 25 12 49 q0 35 -22.5 54 q-22.5 19 -66.5 19 q-32 0 -59.5 -9 q-27.5 -9 -45.5 -21 l-10 65 q17 12 49 21 q32 9 70 9 q81 0 124.5 -35.5 q43.5 -35.5 43.5 -103.5 q0 -60 -54 -118.5 q-54 -58.5 -162 -131.5 l219 0 l0 -68 l-305 0 Z" /><glyph glyph-name="three.den" unicode="&#xe405;" d="M167 -6 q-43 0 -78 9 q-35 9 -55 21 l10 66 q17 -11 45.5 -21 q28.5 -10 67.5 -10 q56 0 78 18.5 q22 18.5 22 52.5 q0 72 -86 72 l-63 0 l0 67 l66 0 q30 0 49 16 q19 16 19 48 q0 28 -19 44 q-19 16 -65 16 q-30 0 -54.5 -9 q-24.5 -9 -42.5 -21 l-10 65 q20 12 50 20.5 q30 8.5 68 8.5 q75 0 114.5 -32.5 q39.5 -32.5 39.5 -86.5 q0 -42 -21 -67 q-21 -25 -51 -32 q37 -6 63.5 -34.5 q26.5 -28.5 26.5 -76.5 q0 -60 -45.5 -97 q-45.5 -37 -128.5 -37 Z" /><glyph glyph-name="four.den" unicode="&#xe406;" d="M248 360 l-138 -195 l138 0 l0 195 ZM328 100 l0 -100 l-80 0 l0 100 l-217 0 l0 59 l209 292 l88 0 l0 -286 l65 0 l0 -65 l-65 0 Z" /><glyph glyph-name="five.den" unicode="&#xe407;" d="M166 -6 q-38 0 -69.5 7 q-31.5 7 -51.5 19 l11 67 q15 -10 40.5 -19 q25.5 -9 59.5 -9 q53 0 80 22.5 q27 22.5 27 61.5 q0 42 -23.5 60.5 q-23.5 18.5 -55.5 18.5 q-32 0 -48 -8 q-16 -8 -21 -13 l-61 0 l0 250 l273 0 l0 -68 l-202 0 l0 -112 q13 8 31 13 q18 5 42 5 q69 0 109 -37.5 q40 -37.5 40 -105.5 q0 -75 -49.5 -113.5 q-49.5 -38.5 -131.5 -38.5 Z" /><glyph glyph-name="six.den" unicode="&#xe408;" d="M392 152 q0 -39 -14.5 -68.5 q-14.5 -29.5 -38 -49.5 q-23.5 -20 -54 -30 q-30.5 -10 -61.5 -10 q-31 0 -62.5 9 q-31.5 9 -57.5 30 q-26 21 -42.5 55.5 q-16.5 34.5 -16.5 85.5 q0 48 16.5 90 q16.5 42 45 77.5 q28.5 35.5 66 63.5 q37.5 28 79.5 46 l107 0 l0 -10 q-83 -39 -138 -81.5 q-55 -42.5 -85 -104.5 q23 24 49.5 34.5 q26.5 10.5 54.5 10.5 q28 0 55.5 -8.5 q27.5 -8.5 49 -26.5 q21.5 -18 34.5 -46 q13 -28 13 -67 ZM128 174 q0 -32 8 -54 q8 -22 21 -36 q13 -14 30 -20 q17 -6 35 -6 q35 0 60.5 21.5 q25.5 21.5 25.5 69.5 q0 45 -24 67 q-24 22 -66 22 q-28 0 -51.5 -11 q-23.5 -11 -37.5 -29 q-1 -5 -1 -11.5 q0 -6.5 0 -12.5 Z" /><glyph glyph-name="seven.den" unicode="&#xe409;" d="M73 0 l176 383 l-214 0 l0 68 l305 0 l0 -50 l-181 -401 l-86 0 Z" /><glyph glyph-name="eight.den" unicode="&#xe40a;" d="M203 -6 q-35 0 -65 8.5 q-30 8.5 -52 24.5 q-22 16 -34 39.5 q-12 23.5 -12 53.5 q0 45 26 74.5 q26 29.5 71 42.5 q-38 11 -59.5 36.5 q-21.5 25.5 -21.5 66.5 q0 28 11.5 50 q11.5 22 31 37 q19.5 15 46.5 22.5 q27 7.5 58 7.5 q63 0 104.5 -29 q41.5 -29 41.5 -86 q0 -42 -21.5 -68 q-21.5 -26 -58.5 -37 q44 -12 69.5 -41 q25.5 -29 25.5 -74 q0 -30 -12 -54 q-12 -24 -34 -40.5 q-22 -16.5 -51.5 -25 q-29.5 -8.5 -63.5 -8.5 ZM203 267 q29 0 47.5 16.5 q18.5 16.5 18.5 46.5 q0 30 -18.5 46.5 q-18.5 16.5 -47.5 16.5 q-29 0 -48 -16.5 q-19 -16.5 -19 -46.5 q0 -30 19 -46.5 q19 -16.5 48 -16.5 ZM203 58 q36 0 57.5 19.5 q21.5 19.5 21.5 55.5 q0 35 -21.5 54.5 q-21.5 19.5 -57.5 19.5 q-35 0 -57.5 -19.5 q-22.5 -19.5 -22.5 -54.5 q0 -36 22.5 -55.5 q22.5 -19.5 57.5 -19.5 Z" /><glyph glyph-name="nine.den" unicode="&#xe40b;" d="M214 457 q32 0 63 -10.5 q31 -10.5 55.5 -33 q24.5 -22.5 39.5 -56.5 q15 -34 15 -81 q0 -48 -16 -91 q-16 -43 -42.5 -78.5 q-26.5 -35.5 -60.5 -63 q-34 -27.5 -71 -43.5 l-107 0 l0 9 q78 36 130 82.5 q52 46.5 76 104.5 q-23 -24 -49.5 -34.5 q-26.5 -10.5 -54.5 -10.5 q-29 0 -56 8.5 q-27 8.5 -48.5 26.5 q-21.5 18 -34.5 45.5 q-13 27.5 -13 65.5 q0 39 15 69 q15 30 39.5 50.5 q24.5 20.5 56 30.5 q31.5 10 63.5 10 ZM304 276 q0 64 -28 90.5 q-28 26.5 -65 26.5 q-35 0 -61 -22 q-26 -22 -26 -72 q0 -44 24 -65.5 q24 -21.5 66 -21.5 q28 0 51 11.5 q23 11.5 38 29.5 q1 5 1 11 q0 6 0 12 Z" /><glyph glyph-name="plus.sub" unicode="&#x208a;" d="M234 124 l0 -123 l-73 0 l0 123 l-116 0 l0 64 l116 0 l0 122 l73 0 l0 -122 l117 0 l0 -64 l-117 0 Z" /><glyph glyph-name="minus.sub" unicode="&#x208b;" d="M45 134 l0 64 l306 0 l0 -64 l-306 0 Z" /><glyph glyph-name="florin" unicode="&#x192;" d="M53 -187 q-26 0 -47 3.5 q-21 3.5 -37 8.5 l19 71 q8 -4 28 -8 q20 -4 38 -4 q48 0 73.5 32.5 q25.5 32.5 37.5 105.5 l57 341 l-90 0 l16 71 l86 0 l15 89 q17 107 67 155 q50 48 130 48 q25 0 42 -2.5 q17 -2.5 29 -5.5 l-13 -77 q-8 4 -26 6.5 q-18 2.5 -35 2.5 q-24 0 -42 -6.5 q-18 -6.5 -30.5 -21 q-12.5 -14.5 -21 -39 q-8.5 -24.5 -14.5 -60.5 l-15 -89 l143 0 l-15 -71 l-140 0 l-58 -347 q-34 -203 -197 -203 Z" /><glyph glyph-name="uni0237" unicode="&#x237;" d="M-16 -107 q31 3 51.5 12.5 q20.5 9.5 32.5 24 q12 14.5 16.5 32.5 q4.5 18 4.5 39 l0 518 l87 0 l0 -512 q0 -81 -41.5 -132 q-41.5 -51 -136.5 -61 l-14 79 Z" /><glyph glyph-name="uni0402" unicode="&#x402;" d="M341 630 l0 -221 q24 18 65 30 q43 13 92 13 q61 0 110.5 -17.5 q49.5 -17.5 84 -52 q34.5 -34.5 53 -84.5 q18.5 -50 18.5 -114 q0 -138 -68 -210 q-68 -72 -185 -72 l-13 88 q89 0 130 49 q41 49 41 143 q0 88 -42.5 136.5 q-42.5 48.5 -130.5 48.5 q-47 0 -86.5 -11 q-39.5 -11 -68.5 -33 l0 -323 l-96 0 l0 630 l-210 0 l0 86 l517 0 l0 -86 l-211 0 Z" /><glyph glyph-name="uni0404" unicode="&#x404;" d="M601 51 q-29 -23 -81.5 -42 q-52.5 -19 -124.5 -19 q-75 0 -139 25 q-64 25 -110.5 72.5 q-46.5 47.5 -72.5 116 q-26 68.5 -26 154.5 q0 87 24 155 q24 68 69 115.5 q45 47.5 109 72.5 q64 25 144 25 q70 0 122.5 -16 q52.5 -16 85.5 -36 l-15 -92 q-39 28 -88 43.5 q-49 15.5 -106 15.5 q-106 0 -168 -59 q-62 -59 -73 -178 l325 0 l0 -84 l-326 0 q10 -124 77 -184.5 q67 -60.5 176 -60.5 q51 0 91 14 q40 14 80 42 l27 -80 l0 0 Z" /><glyph glyph-name="uni0407" unicode="&#x407;" d="M238 786 q-26 0 -42 16.5 q-16 16.5 -16 39.5 q0 24 16 40.5 q16 16.5 42 16.5 q26 0 41.5 -16.5 q15.5 -16.5 15.5 -40.5 q0 -23 -15.5 -39.5 q-15.5 -16.5 -41.5 -16.5 ZM33 786 q-26 0 -41.5 16.5 q-15.5 16.5 -15.5 39.5 q0 24 15.5 40.5 q15.5 16.5 41.5 16.5 q26 0 41.5 -16.5 q15.5 -16.5 15.5 -40.5 q0 -23 -15.5 -39.5 q-15.5 -16.5 -41.5 -16.5 ZM184 716 l0 -716 l-95 0 l0 716 l95 0 Z" /><glyph glyph-name="uni0409" unicode="&#x409;" d="M222 197 q-9 -42 -22.5 -79.5 q-13.5 -37.5 -36 -65.5 q-22.5 -28 -55 -43.5 q-32.5 -15.5 -78.5 -12.5 l-11 95 q26 -3 45 5.5 q19 8.5 32.5 25 q13.5 16.5 22 41 q8.5 24.5 14.5 53.5 q16 75 20.5 199.5 q4.5 124.5 6.5 300.5 l422 0 l0 -277 l131 0 q120 0 184 -50 q64 -50 64 -162 q0 -62 -19 -105 q-19 -43 -53.5 -70 q-34.5 -27 -82.5 -39.5 q-48 -12.5 -106 -12.5 l-212 0 l0 631 l-239 0 q-3 -146 -8 -252.5 q-5 -106.5 -19 -181.5 ZM582 355 l0 -270 l118 0 q36 0 65.5 7 q29.5 7 51 23 q21.5 16 33.5 42.5 q12 26.5 12 65.5 q0 66 -39 99 q-39 33 -113 33 l-128 0 Z" /><glyph glyph-name="uni040A" unicode="&#x40a;" d="M646 334 l0 -249 l118 0 q36 0 65.5 6.5 q29.5 6.5 51 21 q21.5 14.5 33.5 39 q12 24.5 12 60.5 q0 62 -39 92 q-39 30 -113 30 l-128 0 ZM552 334 l-368 0 l0 -334 l-95 0 l0 716 l95 0 l0 -297 l368 0 l0 297 l94 0 l0 -297 l131 0 q119 0 183.5 -48 q64.5 -48 64.5 -155 q0 -59 -19 -100 q-19 -41 -53.5 -66.5 q-34.5 -25.5 -82.5 -37.5 q-48 -12 -106 -12 l-212 0 l0 334 Z" /><glyph glyph-name="uni040B" unicode="&#x40b;" d="M341 630 l0 -221 q23 15 63 29 q42 14 103 14 q50 0 91.5 -13.5 q41.5 -13.5 71.5 -42.5 q30 -29 47 -75 q17 -46 17 -111 l0 -210 l-96 0 l0 205 q0 47 -10.5 78 q-10.5 31 -28.5 50 q-18 19 -43 26.5 q-25 7.5 -54 7.5 q-47 0 -87.5 -10.5 q-40.5 -10.5 -73.5 -33.5 l0 -323 l-96 0 l0 630 l-210 0 l0 86 l517 0 l0 -86 l-211 0 Z" /><glyph glyph-name="uni040E" unicode="&#x40e;" d="M331 756 q-42 0 -73.5 11.5 q-31.5 11.5 -52.5 31 q-21 19.5 -31 46 q-10 26.5 -10 57.5 l88 0 q0 -44 20.5 -62.5 q20.5 -18.5 58.5 -18.5 q36 0 57 18.5 q21 18.5 21 62.5 l88 0 q0 -31 -10 -57.5 q-10 -26.5 -31 -46 q-21 -19.5 -52 -31 q-31 -11.5 -73 -11.5 ZM164 -2 q-8 0 -16 0.5 q-8 0.5 -13 1.5 l-9 93 q9 -2 19 -2.5 q10 -0.5 18 -0.5 q48 0 77 24.5 q29 24.5 50 62.5 l-266 539 l107 0 l207 -431 l178 431 l97 0 l-226 -522 q-21 -47 -42 -83.5 q-21 -36.5 -47 -61.5 q-26 -25 -58.5 -38 q-32.5 -13 -75.5 -13 Z" /><glyph glyph-name="uni040F" unicode="&#x40f;" d="M414 0 l-4 -170 l-85 0 l-3 170 l-233 0 l0 716 l95 0 l0 -631 l368 0 l0 631 l94 0 l0 -716 l-232 0 Z" /><glyph glyph-name="uni0411" unicode="&#x411;" d="M184 344 l0 -259 l117 0 q36 0 65.5 6.5 q29.5 6.5 51 22.5 q21.5 16 33.5 41 q12 25 12 63 q0 64 -39 95 q-39 31 -113 31 l-127 0 ZM89 716 l426 0 l0 -85 l-331 0 l0 -202 l130 0 q120 0 184 -49 q64 -49 64 -158 q0 -60 -19 -102 q-19 -42 -53.5 -69 q-34.5 -27 -82.5 -39 q-48 -12 -106 -12 l-212 0 l0 716 Z" /><glyph glyph-name="uni0413" unicode="&#x413;" d="M184 631 l0 -631 l-95 0 l0 716 l398 0 l0 -85 l-303 0 Z" /><glyph glyph-name="uni0414" unicode="&#x414;" d="M527 631 l-254 0 q-3 -115 -9 -202.5 q-6 -87.5 -16.5 -153 q-10.5 -65.5 -27 -112 q-16.5 -46.5 -39.5 -78.5 l346 0 l0 546 ZM616 0 l-494 0 l-11 -170 l-84 0 l0 255 l48 0 q34 31 54.5 83.5 q20.5 52.5 32 129.5 q11.5 77 16.5 180.5 q5 103.5 8 237.5 l436 0 l0 -631 l91 0 l0 -255 l-86 0 l-11 170 Z" /><glyph glyph-name="uni0416" unicode="&#x416;" d="M428 315 l-43 0 l-250 -315 l-112 0 l291 365 l-278 351 l102 0 l250 -322 l40 0 l0 322 l95 0 l0 -322 l43 0 l249 322 l104 0 l-281 -353 l293 -363 l-115 0 l-252 315 l-41 0 l0 -315 l-95 0 l0 315 Z" /><glyph glyph-name="uni0417" unicode="&#x417;" d="M261 -10 q-38 0 -71.5 6.5 q-33.5 6.5 -61.5 16.5 q-28 10 -49 22 q-21 12 -34 23 l27 82 q42 -29 88 -47 q46 -18 106 -18 q32 0 61.5 6.5 q29.5 6.5 52 21.5 q22.5 15 36 40 q13.5 25 13.5 62 q0 68 -41 95.5 q-41 27.5 -121 27.5 l-93 0 l0 80 l91 0 q70 0 106 32.5 q36 32.5 36 89.5 q0 62 -38 87 q-38 25 -101 25 q-55 0 -98.5 -14 q-43.5 -14 -78.5 -36 l-30 80 q32 20 85 37 q53 17 123 17 q54 0 97 -11.5 q43 -11.5 73.5 -35 q30.5 -23.5 47 -59 q16.5 -35.5 16.5 -84.5 q0 -63 -35.5 -104 q-35.5 -41 -104.5 -57 q81 -11 123 -52 q42 -41 42 -116 q0 -57 -21 -98.5 q-21 -41.5 -57.5 -67.5 q-36.5 -26 -85 -38.5 q-48.5 -12.5 -103.5 -12.5 Z" /><glyph glyph-name="uni0418" unicode="&#x418;" d="M89 716 l95 0 l0 -590 l393 590 l102 0 l0 -716 l-96 0 l0 588 l-392 -588 l-102 0 l0 716 Z" /><glyph glyph-name="uni0419" unicode="&#x419;" d="M375 756 q-42 0 -73.5 11.5 q-31.5 11.5 -52.5 31 q-21 19.5 -31 46 q-10 26.5 -10 57.5 l88 0 q0 -44 21 -62.5 q21 -18.5 58 -18.5 q37 0 58 18.5 q21 18.5 21 62.5 l87 0 q0 -31 -10 -57.5 q-10 -26.5 -30.5 -46 q-20.5 -19.5 -52 -31 q-31.5 -11.5 -73.5 -11.5 ZM89 716 l95 0 l0 -590 l393 590 l102 0 l0 -716 l-96 0 l0 588 l-392 -588 l-102 0 l0 716 Z" /><glyph glyph-name="uni041B" unicode="&#x41b;" d="M222 197 q-9 -42 -22.5 -79.5 q-13.5 -37.5 -36 -65.5 q-22.5 -28 -55 -43.5 q-32.5 -15.5 -78.5 -12.5 l-11 89 q52 -1 77.5 35.5 q25.5 36.5 36.5 95.5 q16 75 20.5 199.5 q4.5 124.5 6.5 300.5 l421 0 l0 -716 l-94 0 l0 631 l-238 0 q-3 -146 -8 -252.5 q-5 -106.5 -19 -181.5 Z" /><glyph glyph-name="uni041F" unicode="&#x41f;" d="M533 631 l-349 0 l0 -631 l-95 0 l0 716 l539 0 l0 -716 l-95 0 l0 631 Z" /><glyph glyph-name="uni0423" unicode="&#x423;" d="M164 -2 q-8 0 -16 0.5 q-8 0.5 -13 1.5 l-9 93 q9 -2 19 -2.5 q10 -0.5 18 -0.5 q48 0 77 24.5 q29 24.5 50 62.5 l-266 539 l107 0 l207 -431 l178 431 l97 0 l-226 -522 q-21 -47 -42 -83.5 q-21 -36.5 -47 -61.5 q-26 -25 -58.5 -38 q-32.5 -13 -75.5 -13 Z" /><glyph glyph-name="uni0424" unicode="&#x424;" d="M367 73 q-68 1 -126.5 19.5 q-58.5 18.5 -101.5 54 q-43 35.5 -67.5 88 q-24.5 52.5 -24.5 121.5 q0 70 24.5 122.5 q24.5 52.5 67.5 88.5 q43 36 101.5 55 q58.5 19 126.5 21 l0 82 l95 0 l0 -82 q68 -2 126.5 -20 q58.5 -18 101.5 -53.5 q43 -35.5 67.5 -87.5 q24.5 -52 24.5 -122 q0 -69 -24.5 -122 q-24.5 -53 -67.5 -89 q-43 -36 -101.5 -55 q-58.5 -19 -126.5 -21 l0 -83 l-95 0 l0 83 ZM683 357 q0 57 -17 96.5 q-17 39.5 -46.5 64 q-29.5 24.5 -70 36 q-40.5 11.5 -87.5 13.5 l0 -420 q47 3 87.5 14.5 q40.5 11.5 70 36.5 q29.5 25 46.5 63.5 q17 38.5 17 95.5 ZM367 568 q-47 -2 -87.5 -13.5 q-40.5 -11.5 -70 -36 q-29.5 -24.5 -46.5 -63.5 q-17 -39 -17 -96 q0 -57 17 -96.5 q17 -39.5 46.5 -64 q29.5 -24.5 70 -36.5 q40.5 -12 87.5 -14 l0 420 Z" /><glyph glyph-name="uni0426" unicode="&#x426;" d="M634 -170 l-10 170 l-535 0 l0 716 l95 0 l0 -631 l349 0 l0 631 l95 0 l0 -631 l94 0 l0 -255 l-88 0 Z" /><glyph glyph-name="uni0427" unicode="&#x427;" d="M505 0 l0 340 q-39 -37 -88.5 -57 q-49.5 -20 -109.5 -20 q-52 0 -96 14.5 q-44 14.5 -75.5 45.5 q-31.5 31 -49 79.5 q-17.5 48.5 -17.5 115.5 l0 198 l95 0 l0 -193 q0 -92 38.5 -136 q38.5 -44 104.5 -44 q67 0 115 22.5 q48 22.5 83 70.5 l0 280 l95 0 l0 -716 l-95 0 Z" /><glyph glyph-name="uni0428" unicode="&#x428;" d="M89 716 l95 0 l0 -631 l247 0 l0 631 l97 0 l0 -631 l249 0 l0 631 l95 0 l0 -716 l-783 0 l0 716 Z" /><glyph glyph-name="uni0429" unicode="&#x429;" d="M876 -170 l-11 170 l-776 0 l0 716 l95 0 l0 -631 l247 0 l0 631 l97 0 l0 -631 l249 0 l0 631 l95 0 l0 -631 l90 0 l0 -255 l-86 0 Z" /><glyph glyph-name="uni042A" unicode="&#x42a;" d="M310 439 l132 0 q119 0 183 -50 q64 -50 64 -162 q0 -62 -19.5 -105 q-19.5 -43 -54 -70 q-34.5 -27 -82.5 -39.5 q-48 -12.5 -105 -12.5 l-213 0 l0 631 l-180 0 l0 85 l275 0 l0 -277 ZM310 355 l0 -270 l118 0 q36 0 65.5 7 q29.5 7 51 23 q21.5 16 33.5 42.5 q12 26.5 12 65.5 q0 66 -39 99 q-39 33 -113 33 l-128 0 Z" /><glyph glyph-name="uni042B" unicode="&#x42b;" d="M763 715 l0 -715 l-95 0 l0 715 l95 0 ZM184 355 l0 -270 l117 0 q36 0 65.5 7 q29.5 7 51 23 q21.5 16 33.5 42.5 q12 26.5 12 65.5 q0 66 -39 99 q-39 33 -113 33 l-127 0 ZM89 716 l95 0 l0 -277 l130 0 q120 0 184 -50 q64 -50 64 -162 q0 -62 -19 -105 q-19 -43 -53.5 -70 q-34.5 -27 -82.5 -39.5 q-48 -12.5 -106 -12.5 l-212 0 l0 716 Z" /><glyph glyph-name="uni042C" unicode="&#x42c;" d="M184 355 l0 -270 l117 0 q36 0 65.5 7 q29.5 7 51 23 q21.5 16 33.5 42.5 q12 26.5 12 65.5 q0 66 -39 99 q-39 33 -113 33 l-127 0 ZM89 716 l95 0 l0 -277 l130 0 q120 0 184 -50 q64 -50 64 -162 q0 -62 -19 -105 q-19 -43 -53.5 -70 q-34.5 -27 -82.5 -39.5 q-48 -12.5 -106 -12.5 l-212 0 l0 716 Z" /><glyph glyph-name="uni042D" unicode="&#x42d;" d="M264 -10 q-72 0 -126 15.5 q-54 15.5 -87 35.5 l15 89 q39 -24 89.5 -40 q50.5 -16 109.5 -16 q114 0 173 59.5 q59 59.5 67 179.5 l-316 0 l0 85 l317 0 q-9 121 -72.5 181.5 q-63.5 60.5 -179.5 60.5 q-54 0 -94.5 -14.5 q-40.5 -14.5 -81.5 -44.5 l-27 85 q29 22 82.5 41 q53.5 19 128.5 19 q78 0 142 -25 q64 -25 109.5 -72.5 q45.5 -47.5 70.5 -116 q25 -68.5 25 -154.5 q0 -87 -22.5 -155 q-22.5 -68 -66.5 -115.5 q-44 -47.5 -108.5 -72.5 q-64.5 -25 -147.5 -25 Z" /><glyph glyph-name="uni042E" unicode="&#x42e;" d="M610 -10 q-65 0 -121 20.5 q-56 20.5 -98.5 61 q-42.5 40.5 -69 101 q-26.5 60.5 -32.5 140.5 l-105 0 l0 -313 l-95 0 l0 716 l95 0 l0 -318 l106 0 q6 79 32 140.5 q26 61.5 68.5 103 q42.5 41.5 98.5 63 q56 21.5 121 21.5 q68 0 127 -23.5 q59 -23.5 102.5 -69 q43.5 -45.5 68.5 -114 q25 -68.5 25 -158.5 q0 -90 -25 -159 q-25 -69 -68.5 -116 q-43.5 -47 -102.5 -71.5 q-59 -24.5 -127 -24.5 ZM610 75 q48 0 88.5 15.5 q40.5 15.5 70 49 q29.5 33.5 46.5 87.5 q17 54 17 131 q0 77 -17 131 q-17 54 -46.5 87.5 q-29.5 33.5 -70 49 q-40.5 15.5 -88.5 15.5 q-48 0 -88.5 -15.5 q-40.5 -15.5 -70 -49 q-29.5 -33.5 -46 -87.5 q-16.5 -54 -16.5 -131 q0 -77 16.5 -131 q16.5 -54 46 -87.5 q29.5 -33.5 70 -49 q40.5 -15.5 88.5 -15.5 Z" /><glyph glyph-name="uni042F" unicode="&#x42f;" d="M459 372 l0 259 l-118 0 q-36 0 -65.5 -6.5 q-29.5 -6.5 -51 -21.5 q-21.5 -15 -33.5 -39.5 q-12 -24.5 -12 -60.5 q0 -68 39 -99.5 q39 -31.5 113 -31.5 l128 0 ZM459 287 l-120 0 l-198 -287 l-115 0 l217 304 q-79 17 -121 65.5 q-42 48.5 -42 133.5 q0 57 19 97 q19 40 53.5 66 q34.5 26 82.5 38 q48 12 106 12 l213 0 l0 -716 l-95 0 l0 287 Z" /><glyph glyph-name="uni0431" unicode="&#x431;" d="M312 -10 q-56 0 -102.5 18.5 q-46.5 18.5 -80.5 56.5 q-34 38 -53 96 q-19 58 -19 137 q0 65 4 124 q4 59 17.5 109 q13.5 50 40.5 90.5 q27 40.5 72 68.5 q51 29 106.5 34 q55.5 5 109.5 7 q39 3 63 10 q24 7 44 19 l14 -82 q-20 -14 -49 -19 q-29 -5 -63 -9 q-29 -2 -55 -3 q-26 -1 -49.5 -3.5 q-23.5 -2.5 -45 -7.5 q-21.5 -5 -40.5 -15 q-51 -28 -71 -82.5 q-20 -54.5 -25 -129.5 q26 57 75 87 q49 30 121 30 q49 0 91.5 -17.5 q42.5 -17.5 74 -51.5 q31.5 -34 49.5 -83.5 q18 -49.5 18 -113.5 q0 -65 -19 -115 q-19 -50 -52 -84.5 q-33 -34.5 -78 -52.5 q-45 -18 -98 -18 ZM310 69 q34 0 63 11.5 q29 11.5 50 35 q21 23.5 33 59.5 q12 36 12 85 q0 49 -12 85 q-12 36 -33.5 59.5 q-21.5 23.5 -51.5 35 q-30 11.5 -65 11.5 q-69 0 -114.5 -46 q-45.5 -46 -45.5 -142 q0 -50 12.5 -86.5 q12.5 -36.5 34 -60.5 q21.5 -24 51.5 -35.5 q30 -11.5 66 -11.5 Z" /><glyph glyph-name="uni0432" unicode="&#x432;" d="M165 444 l0 -141 l98 0 q50 0 80.5 18 q30.5 18 30.5 52 q0 41 -27 56 q-27 15 -77 15 l-105 0 ZM165 233 l0 -158 l103 0 q28 0 50.5 3.5 q22.5 3.5 39 12.5 q16.5 9 25.5 24 q9 15 9 37 q0 45 -30.5 63 q-30.5 18 -93.5 18 l-103 0 ZM77 519 l194 0 q94 0 142 -32.5 q48 -32.5 48 -101.5 q0 -46 -23 -73.5 q-23 -27.5 -67 -39.5 q111 -18 111 -123 q0 -40 -16 -68.5 q-16 -28.5 -44 -46.5 q-28 -18 -67.5 -26 q-39.5 -8 -85.5 -8 l-192 0 l0 519 Z" /><glyph glyph-name="uni0433" unicode="&#x433;" d="M165 444 l0 -444 l-88 0 l0 519 l320 0 l0 -75 l-232 0 Z" /><glyph glyph-name="uni0434" unicode="&#x434;" d="M406 444 l-189 0 q-3 -74 -8 -133 q-5 -59 -12.5 -104 q-7.5 -45 -19.5 -77.5 q-12 -32.5 -29 -54.5 l258 0 l0 369 ZM484 0 l-386 0 l-9 -148 l-79 0 l0 223 l39 0 q28 17 44 53 q16 36 25 91 q9 55 12.5 130 q3.5 75 6.5 170 l357 0 l0 -444 l78 0 l0 -223 l-77 0 l-11 148 Z" /><glyph glyph-name="uni0436" unicode="&#x436;" d="M336 519 l88 0 l0 -223 l47 0 l165 223 l97 0 l-193 -254 l200 -265 l-107 0 l-166 221 l-43 0 l0 -221 l-88 0 l0 221 l-44 0 l-168 -221 l-104 0 l200 261 l-193 258 l101 0 l162 -223 l46 0 l0 223 Z" /><glyph glyph-name="uni0437" unicode="&#x437;" d="M205 -10 q-57 0 -99.5 12.5 q-42.5 12.5 -67.5 30.5 l27 76 q26 -16 60 -28 q34 -12 78 -12 q27 0 50 4.5 q23 4.5 40.5 14 q17.5 9.5 27.5 25 q10 15.5 10 38.5 q0 44 -29.5 62.5 q-29.5 18.5 -92.5 18.5 l-69 0 l0 71 l72 0 q103 0 103 77 q0 20 -8.5 33.5 q-8.5 13.5 -23 22 q-14.5 8.5 -33.5 12 q-19 3.5 -40 3.5 q-44 0 -77.5 -12 q-33.5 -12 -62.5 -29 l-21 73 q25 17 66.5 31.5 q41.5 14.5 97.5 14.5 q91 0 137 -36 q46 -36 46 -104 q0 -52 -28 -81 q-28 -29 -76 -38 q124 -15 124 -119 q0 -44 -17.5 -74.5 q-17.5 -30.5 -47 -50 q-29.5 -19.5 -67.5 -28 q-38 -8.5 -79 -8.5 Z" /><glyph glyph-name="uni0438" unicode="&#x438;" d="M77 519 l88 0 l0 -399 l277 399 l89 0 l0 -519 l-88 0 l0 398 l-276 -398 l-90 0 l0 519 Z" /><glyph glyph-name="uni0439" unicode="&#x439;" d="M306 588 q-40 0 -69.5 10.5 q-29.5 10.5 -49 29 q-19.5 18.5 -29 43 q-9.5 24.5 -9.5 53.5 l88 0 q0 -38 18.5 -55 q18.5 -17 50.5 -17 q32 0 50 17 q18 17 18 55 l88 0 q0 -57 -38.5 -96.5 q-38.5 -39.5 -117.5 -39.5 ZM77 519 l88 0 l0 -399 l277 399 l89 0 l0 -519 l-88 0 l0 398 l-276 -398 l-90 0 l0 519 Z" /><glyph glyph-name="uni043A" unicode="&#x43a;" d="M211 221 l-46 0 l0 -221 l-88 0 l0 519 l88 0 l0 -223 l50 0 l182 223 l100 0 l-213 -256 l217 -263 l-107 0 l-183 221 Z" /><glyph glyph-name="uni043B" unicode="&#x43b;" d="M198 134 q-17 -71 -54.5 -104.5 q-37.5 -33.5 -104.5 -31.5 l-13 80 q69 -3 89 74 q15 58 19.5 146.5 q4.5 88.5 4.5 220.5 l338 0 l0 -519 l-88 0 l0 444 l-167 0 q-1 -99 -5.5 -176 q-4.5 -77 -18.5 -134 Z" /><glyph glyph-name="uni043C" unicode="&#x43c;" d="M158 434 l0 -434 l-81 0 l0 519 l135 0 l156 -349 l162 349 l129 0 l0 -519 l-87 0 l0 434 l-176 -376 l-70 0 l-168 376 Z" /><glyph glyph-name="uni043D" unicode="&#x43d;" d="M416 230 l-251 0 l0 -230 l-88 0 l0 519 l88 0 l0 -214 l251 0 l0 214 l88 0 l0 -519 l-88 0 l0 230 Z" /><glyph glyph-name="uni043F" unicode="&#x43f;" d="M405 444 l-240 0 l0 -444 l-88 0 l0 519 l416 0 l0 -519 l-88 0 l0 444 Z" /><glyph glyph-name="uni0442" unicode="&#x442;" d="M281 444 l0 -444 l-88 0 l0 444 l-158 0 l0 75 l407 0 l0 -75 l-161 0 Z" /><glyph glyph-name="uni0444" unicode="&#x444;" d="M320 -177 l0 169 q-59 2 -110 20 q-51 18 -88.5 51.5 q-37.5 33.5 -59.5 82.5 q-22 49 -22 114 q0 64 22 113.5 q22 49.5 60 83 q38 33.5 89 51 q51 17.5 109 19.5 l0 200 l87 0 l0 -200 q58 -2 108.5 -20 q50.5 -18 88.5 -51.5 q38 -33.5 60 -82.5 q22 -49 22 -113 q0 -65 -22 -114 q-22 -49 -60 -83 q-38 -34 -89 -51.5 q-51 -17.5 -108 -19.5 l0 -169 l-87 0 ZM130 260 q0 -48 14.5 -83 q14.5 -35 40 -58.5 q25.5 -23.5 60.5 -35.5 q35 -12 75 -14 l0 382 q-41 -2 -75.5 -14.5 q-34.5 -12.5 -60 -36 q-25.5 -23.5 -40 -58.5 q-14.5 -35 -14.5 -82 ZM595 260 q0 48 -14.5 83 q-14.5 35 -40 58 q-25.5 23 -59.5 35.5 q-34 12.5 -74 14.5 l0 -382 q40 2 74.5 14.5 q34.5 12.5 59.5 35.5 q25 23 39.5 58 q14.5 35 14.5 83 Z" /><glyph glyph-name="uni0446" unicode="&#x446;" d="M496 -148 l-11 148 l-408 0 l0 519 l88 0 l0 -444 l240 0 l0 444 l88 0 l0 -444 l78 0 l0 -223 l-75 0 Z" /><glyph glyph-name="uni0447" unicode="&#x447;" d="M391 0 l0 231 q-26 -21 -62.5 -34 q-36.5 -13 -84.5 -13 q-83 0 -130 44 q-47 44 -47 136 l0 155 l89 0 l0 -153 q0 -61 27 -85 q27 -24 72 -24 q46 0 82 17 q36 17 54 43 l0 202 l88 0 l0 -519 l-88 0 Z" /><glyph glyph-name="uni0448" unicode="&#x448;" d="M77 519 l88 0 l0 -444 l192 0 l0 444 l88 0 l0 -444 l192 0 l0 444 l88 0 l0 -519 l-648 0 l0 519 Z" /><glyph glyph-name="uni0449" unicode="&#x449;" d="M728 -148 l-11 148 l-640 0 l0 519 l88 0 l0 -444 l192 0 l0 444 l88 0 l0 -444 l192 0 l0 444 l88 0 l0 -444 l78 0 l0 -223 l-75 0 Z" /><glyph glyph-name="uni044A" unicode="&#x44a;" d="M256 263 l0 -188 l83 0 q57 0 92.5 21.5 q35.5 21.5 35.5 71.5 q0 51 -32 73 q-32 22 -90 22 l-89 0 ZM167 444 l-132 0 l0 75 l221 0 l0 -181 l89 0 q99 0 155 -39 q56 -39 56 -126 q0 -45 -16 -78 q-16 -33 -45 -54 q-29 -21 -69 -31 q-40 -10 -87 -10 l-172 0 l0 444 Z" /><glyph glyph-name="uni044B" unicode="&#x44b;" d="M624 0 l-88 0 l0 519 l88 0 l0 -519 ZM165 263 l0 -188 l79 0 q57 0 92.5 21.5 q35.5 21.5 35.5 71.5 q0 51 -32 73 q-32 22 -89 22 l-86 0 ZM77 519 l88 0 l0 -181 l86 0 q98 0 154 -39 q56 -39 56 -126 q0 -45 -16 -78 q-16 -33 -45 -54 q-29 -21 -69 -31 q-40 -10 -87 -10 l-167 0 l0 519 Z" /><glyph glyph-name="uni044C" unicode="&#x44c;" d="M162 263 l0 -188 l84 0 q57 0 92.5 21.5 q35.5 21.5 35.5 71.5 q0 51 -32 73 q-32 22 -89 22 l-91 0 ZM74 519 l88 0 l0 -181 l91 0 q99 0 154.5 -39 q55.5 -39 55.5 -126 q0 -45 -16 -78 q-16 -33 -45 -54 q-29 -21 -69 -31 q-40 -10 -87 -10 l-172 0 l0 519 Z" /><glyph glyph-name="uni044D" unicode="&#x44d;" d="M194 -10 q-45 0 -83 11 q-38 11 -64 31 l20 77 q53 -41 126 -41 q153 0 165 161 l-209 0 l0 75 l207 0 q-9 69 -48.5 107 q-39.5 38 -109.5 38 q-41 0 -74.5 -9.5 q-33.5 -9.5 -61.5 -26.5 l-22 74 q28 17 67.5 29.5 q39.5 12.5 90.5 12.5 q117 0 183.5 -71 q66.5 -71 66.5 -199 q0 -63 -17.5 -113 q-17.5 -50 -50.5 -84.5 q-33 -34.5 -80 -53 q-47 -18.5 -106 -18.5 Z" /><glyph glyph-name="uni044E" unicode="&#x44e;" d="M490 -10 q-48 0 -89.5 16 q-41.5 16 -73 46.5 q-31.5 30.5 -51.5 75.5 q-20 45 -24 102 l-87 0 l0 -230 l-88 0 l0 519 l88 0 l0 -214 l89 0 q6 54 26 95.5 q20 41.5 51.5 70 q31.5 28.5 71.5 43.5 q40 15 87 15 q52 0 96 -18 q44 -18 76.5 -52 q32.5 -34 51 -84.5 q18.5 -50.5 18.5 -114.5 q0 -65 -18.5 -115 q-18.5 -50 -51 -84.5 q-32.5 -34.5 -76.5 -52.5 q-44 -18 -96 -18 ZM490 69 q33 0 60.5 11.5 q27.5 11.5 47.5 35 q20 23.5 31.5 59.5 q11.5 36 11.5 85 q0 49 -11.5 85 q-11.5 36 -31.5 59.5 q-20 23.5 -47.5 35 q-27.5 11.5 -60.5 11.5 q-32 0 -59.5 -11.5 q-27.5 -11.5 -47.5 -35 q-20 -23.5 -31.5 -59.5 q-11.5 -36 -11.5 -85 q0 -49 11.5 -85 q11.5 -36 31.5 -59.5 q20 -23.5 47.5 -35 q27.5 -11.5 59.5 -11.5 Z" /><glyph glyph-name="uni044F" unicode="&#x44f;" d="M359 263 l0 181 l-69 0 q-56 0 -92 -21 q-36 -21 -36 -68 q0 -49 32 -70.5 q32 -21.5 91 -21.5 l74 0 ZM359 188 l-89 0 l-133 -188 l-101 0 l150 210 q-54 16 -83.5 49 q-29.5 33 -29.5 92 q0 44 16 75.5 q16 31.5 45 52 q29 20.5 69 30.5 q40 10 87 10 l156 0 l0 -519 l-87 0 l0 188 Z" /><glyph glyph-name="uni0452" unicode="&#x452;" d="M524 7 q0 -81 -41.5 -132 q-41.5 -51 -137.5 -61 l-14 79 q31 3 51.5 12.5 q20.5 9.5 32.5 24 q12 14.5 16.5 32.5 q4.5 18 4.5 39 l-1 354 q0 54 -27 75 q-27 21 -75 21 q-60 0 -97.5 -27.5 q-37.5 -27.5 -60.5 -70.5 l0 -353 l-87 0 l0 576 l-81 0 l0 65 l81 0 l0 75 l87 0 l0 -75 l151 0 l0 -65 l-151 0 l0 -57 l-2 -93 l2 0 q21 43 66.5 73 q45.5 30 114.5 30 q77 0 122.5 -40.5 q45.5 -40.5 45.5 -124.5 l0 -357 l0 0 Z" /><glyph glyph-name="uni0454" unicode="&#x454;" d="M448 32 q-28 -17 -67 -29.5 q-39 -12.5 -90 -12.5 q-58 0 -104.5 18.5 q-46.5 18.5 -79 53 q-32.5 34.5 -50 84.5 q-17.5 50 -17.5 114 q0 63 17.5 113 q17.5 50 50.5 84.5 q33 34.5 80.5 53 q47.5 18.5 106.5 18.5 q45 0 82.5 -11 q37.5 -11 63.5 -31 l-19 -79 q-26 20 -58.5 31.5 q-32.5 11.5 -67.5 11.5 q-146 0 -164 -147 l217 0 l0 -75 l-218 0 q7 -77 47 -118.5 q40 -41.5 113 -41.5 q40 0 74 12 q34 12 62 28 l21 -77 l0 0 Z" /><glyph glyph-name="uni0457" unicode="&#x457;" d="M208 595 q-26 0 -41 16 q-15 16 -15 39 q0 25 15 41.5 q15 16.5 41 16.5 q26 0 41.5 -16.5 q15.5 -16.5 15.5 -41.5 q0 -23 -15.5 -39 q-15.5 -16 -41.5 -16 ZM33 595 q-25 0 -41 16 q-16 16 -16 39 q0 25 16 41.5 q16 16.5 41 16.5 q26 0 42 -16.5 q16 -16.5 16 -41.5 q0 -23 -16 -39 q-16 -16 -42 -16 ZM165 519 l0 -519 l-88 0 l0 519 l88 0 Z" /><glyph glyph-name="uni0459" unicode="&#x459;" d="M198 134 q-17 -71 -54.5 -104.5 q-37.5 -33.5 -104.5 -31.5 l-13 80 q69 -3 89 74 q15 58 19.5 146.5 q4.5 88.5 4.5 220.5 l338 0 l0 -181 l100 0 q99 0 155.5 -39 q56.5 -39 56.5 -126 q0 -45 -16.5 -78 q-16.5 -33 -45.5 -54 q-29 -21 -69 -31 q-40 -10 -87 -10 l-182 0 l0 444 l-167 0 q-1 -99 -5.5 -176 q-4.5 -77 -18.5 -134 ZM571 75 q57 0 92.5 21.5 q35.5 21.5 35.5 71.5 q0 51 -31.5 73 q-31.5 22 -90.5 22 l-100 0 l0 -188 l94 0 Z" /><glyph glyph-name="uni045A" unicode="&#x45a;" d="M504 251 l0 -176 l85 0 q56 0 91.5 20.5 q35.5 20.5 35.5 67.5 q0 46 -32 67 q-32 21 -90 21 l-90 0 ZM416 251 l-251 0 l0 -251 l-88 0 l0 519 l88 0 l0 -193 l251 0 l0 193 l88 0 l0 -193 l90 0 q99 0 155 -37.5 q56 -37.5 56 -120.5 q0 -44 -16 -76 q-16 -32 -45 -52.5 q-29 -20.5 -68.5 -30 q-39.5 -9.5 -86.5 -9.5 l-173 0 l0 251 Z" /><glyph glyph-name="uni045B" unicode="&#x45b;" d="M333 451 q-60 0 -97.5 -27.5 q-37.5 -27.5 -60.5 -70.5 l0 -353 l-88 0 l0 576 l-80 0 l0 65 l80 0 l0 75 l88 0 l0 -75 l151 0 l0 -65 l-151 0 l0 -57 l-2 -93 l2 0 q21 43 66 73 q45 30 114 30 q77 0 122.5 -40.5 q45.5 -40.5 45.5 -124.5 l0 -364 l-88 0 l0 355 q0 54 -27 75 q-27 21 -75 21 Z" /><glyph glyph-name="uni045E" unicode="&#x45e;" d="M269 588 q-40 0 -69.5 10.5 q-29.5 10.5 -49 29 q-19.5 18.5 -29.5 43 q-10 24.5 -10 53.5 l89 0 q0 -38 18.5 -55 q18.5 -17 50.5 -17 q32 0 50 17 q18 17 18 55 l88 0 q0 -57 -39 -96.5 q-39 -39.5 -117 -39.5 ZM111 -187 q-17 0 -31.5 2 q-14.5 2 -23.5 6 l11 77 q5 -2 15 -4 q10 -2 27 -2 q37 0 61 17.5 q24 17.5 45 55.5 l-200 554 l95 0 l153 -440 l156 440 l86 0 l-183 -513 q-34 -94 -82.5 -143.5 q-48.5 -49.5 -128.5 -49.5 Z" /><glyph glyph-name="uni045F" unicode="&#x45f;" d="M335 0 l-5 -148 l-74 0 l-6 148 l-173 0 l0 519 l88 0 l0 -444 l256 0 l0 444 l87 0 l0 -519 l-173 0 Z" /><glyph glyph-name="uni0490" unicode="&#x490;" d="M184 631 l0 -631 l-95 0 l0 716 l301 0 l11 169 l86 0 l0 -254 l-303 0 Z" /><glyph glyph-name="uni0491" unicode="&#x491;" d="M165 444 l0 -444 l-88 0 l0 519 l234 0 l11 148 l75 0 l0 -223 l-232 0 Z" /><glyph glyph-name="uni0492" unicode="&#x492;" d="M28 398 l99 0 l0 318 l398 0 l0 -85 l-303 0 l0 -233 l192 0 l0 -74 l-192 0 l0 -324 l-95 0 l0 324 l-99 0 l0 74 Z" /><glyph glyph-name="uni0493" unicode="&#x493;" d="M28 295 l77 0 l0 224 l320 0 l0 -75 l-232 0 l0 -149 l136 0 l0 -64 l-136 0 l0 -231 l-88 0 l0 231 l-77 0 l0 64 Z" /><glyph glyph-name="uni049A" unicode="&#x49a;" d="M247 312 l-63 0 l0 -312 l-95 0 l0 716 l95 0 l0 -319 l59 0 l256 319 l106 0 l-283 -352 l224 -279 l96 0 l0 -255 l-87 0 l-11 170 l-45 0 l-252 312 Z" /><glyph glyph-name="uni049B" unicode="&#x49b;" d="M211 221 l-46 0 l0 -221 l-88 0 l0 519 l88 0 l0 -223 l50 0 l182 223 l100 0 l-213 -256 l155 -188 l82 0 l0 -223 l-76 0 l-11 148 l-40 0 l-183 221 Z" /><glyph glyph-name="uni04A2" unicode="&#x4a2;" d="M552 313 l-368 0 l0 -313 l-95 0 l0 716 l95 0 l0 -318 l368 0 l0 318 l94 0 l0 -631 l93 0 l0 -255 l-87 0 l-11 170 l-89 0 l0 313 Z" /><glyph glyph-name="uni04A3" unicode="&#x4a3;" d="M416 230 l-251 0 l0 -230 l-88 0 l0 519 l88 0 l0 -214 l251 0 l0 214 l88 0 l0 -444 l78 0 l0 -223 l-75 0 l-11 148 l-80 0 l0 230 Z" /><glyph glyph-name="uni04AF" unicode="&#x4af;" d="M216 -177 l0 177 l-201 519 l95 0 l154 -408 l152 408 l89 0 l-201 -519 l0 -177 l-88 0 Z" /><glyph glyph-name="uni04B0" unicode="&#x4b0;" d="M259 0 l0 252 l-175 0 l0 74 l163 0 l-234 390 l109 0 l188 -326 l192 326 l96 0 l-235 -390 l167 0 l0 -74 l-175 0 l0 -252 l-96 0 Z" /><glyph glyph-name="uni04B1" unicode="&#x4b1;" d="M216 -177 l0 107 l-150 0 l0 70 l150 0 l-201 519 l95 0 l154 -408 l152 408 l89 0 l-201 -519 l151 0 l0 -70 l-151 0 l0 -107 l-88 0 Z" /><glyph glyph-name="uni04D8" unicode="&#x4d8;" d="M355 -10 q-311 0 -311 361 l0 47 l536 0 q-8 116 -66 179.5 q-58 63.5 -179 63.5 q-66 0 -118.5 -12 q-52.5 -12 -101.5 -47 l-27 84 q41 30 106.5 45 q65.5 15 141.5 15 q87 0 152 -26.5 q65 -26.5 108.5 -74.5 q43.5 -48 65 -116 q21.5 -68 21.5 -151 q0 -83 -23 -151 q-23 -68 -65.5 -116 q-42.5 -48 -103 -74.5 q-60.5 -26.5 -136.5 -26.5 ZM355 75 q103 0 159 62 q56 62 65 176 l-437 0 q3 -64 17 -109.5 q14 -45.5 40 -74 q26 -28.5 64.5 -41.5 q38.5 -13 91.5 -13 Z" /><glyph glyph-name="uni04E8" unicode="&#x4e8;" d="M390 -10 q-72 0 -135 24.5 q-63 24.5 -109 71.5 q-46 47 -72.5 116 q-26.5 69 -26.5 159 q0 90 26.5 158.5 q26.5 68.5 72.5 114 q46 45.5 109 69 q63 23.5 135 23.5 q74 0 137 -23.5 q63 -23.5 108.5 -69.5 q45.5 -46 71.5 -114.5 q26 -68.5 26 -158.5 q0 -89 -26 -158 q-26 -69 -71.5 -116 q-45.5 -47 -108.5 -71.5 q-63 -24.5 -137 -24.5 ZM390 641 q-47 0 -89 -13 q-42 -13 -74.5 -41.5 q-32.5 -28.5 -53.5 -73 q-21 -44.5 -27 -108.5 l488 0 q-6 64 -27 108.5 q-21 44.5 -53.5 73 q-32.5 28.5 -74 41.5 q-41.5 13 -89.5 13 ZM390 75 q48 0 90.5 13.5 q42.5 13.5 75.5 43 q33 29.5 53.5 76.5 q20.5 47 25.5 113 l-490 0 q5 -67 26 -113.5 q21 -46.5 53.5 -76 q32.5 -29.5 75 -43 q42.5 -13.5 90.5 -13.5 Z" /><glyph glyph-name="uni04E9" unicode="&#x4e9;" d="M290 -10 q-53 0 -99 18 q-46 18 -79.5 52.5 q-33.5 34.5 -52.5 84.5 q-19 50 -19 115 q0 64 19 114.5 q19 50.5 52.5 84.5 q33.5 34 79.5 52 q46 18 99 18 q54 0 100 -18 q46 -18 79.5 -52 q33.5 -34 53 -84.5 q19.5 -50.5 19.5 -114.5 q0 -65 -19.5 -115 q-19.5 -50 -53 -84.5 q-33.5 -34.5 -79.5 -52.5 q-46 -18 -100 -18 ZM290 451 q-61 0 -105.5 -35.5 q-44.5 -35.5 -55.5 -111.5 l325 0 q-6 38 -20.5 65.5 q-14.5 27.5 -36.5 45.5 q-22 18 -49 27 q-27 9 -58 9 ZM290 69 q64 0 110.5 38.5 q46.5 38.5 54.5 121.5 l-328 0 q4 -41 18 -71.5 q14 -30.5 36 -50 q22 -19.5 49.5 -29 q27.5 -9.5 59.5 -9.5 Z" /><glyph glyph-name="uni2009" unicode="&#x2009;" d="" /><glyph glyph-name="uni20B4" unicode="&#x20b4;" d="M489 51 q-9 -10 -26.5 -20.5 q-17.5 -10.5 -42.5 -19.5 q-25 -9 -57 -15 q-32 -6 -71 -6 q-42 0 -81 9 q-39 9 -69 31.5 q-30 22.5 -48.5 59 q-18.5 36.5 -18.5 92.5 q0 45 15 78 l-59 0 l0 69 l113 0 q28 23 62 38.5 q34 15.5 67 27.5 q9 3 17.5 6.5 q8.5 3.5 16.5 7.5 l-276 0 l0 70 l352 0 q14 28 14 62 q0 53 -29 79.5 q-29 26.5 -92 26.5 q-46 0 -86 -11 q-40 -11 -63 -28 l-17 78 q17 11 56.5 25.5 q39.5 14.5 105.5 14.5 q105 0 158 -46 q53 -46 53 -127 q0 -40 -13 -74 l57 0 l0 -70 l-105 0 q-27 -25 -61 -42 q-34 -17 -69 -30 l-19 -8 l254 0 l0 -69 l-347 0 q-21 -32 -21 -74 q0 -63 36.5 -90 q36.5 -27 96.5 -27 q30 0 57 5.5 q27 5.5 50.5 14 q23.5 8.5 41 18.5 q17.5 10 27.5 19 l21 -75 l0 0 Z" /><glyph glyph-name="uni20B8" unicode="&#x20b8;" d="M42 716 l475 0 l0 -70 l-475 0 l0 70 ZM327 479 l0 -479 l-96 0 l0 479 l-189 0 l0 87 l475 0 l0 -87 l-190 0 Z" /><glyph glyph-name="uni20BD" unicode="&#x20bd;" d="M211 636 l0 -241 l67 0 q73 0 111 30.5 q38 30.5 38 94.5 q0 59 -33.5 87.5 q-33.5 28.5 -108.5 28.5 l-74 0 ZM211 170 l0 -170 l-95 0 l0 170 l-82 0 l0 70 l82 0 l0 85 l-82 0 l0 70 l82 0 l0 321 l169 0 q112 0 174.5 -49 q62.5 -49 62.5 -147 q0 -51 -17.5 -88 q-17.5 -37 -49.5 -61 q-32 -24 -77 -35 q-45 -11 -100 -11 l-67 0 l0 -85 l208 0 l0 -70 l-208 0 Z" /><glyph glyph-name="uni2116" unicode="&#x2116;" d="M1062 543 q0 -39 -13.5 -72.5 q-13.5 -33.5 -38 -58 q-24.5 -24.5 -58 -38 q-33.5 -13.5 -73.5 -13.5 q-39 0 -72 13.5 q-33 13.5 -57.5 38 q-24.5 24.5 -38 58 q-13.5 33.5 -13.5 72.5 q0 40 13.5 73.5 q13.5 33.5 38 57.5 q24.5 24 57.5 37.5 q33 13.5 72 13.5 q40 0 73.5 -13.5 q33.5 -13.5 58 -37.5 q24.5 -24 38 -57.5 q13.5 -33.5 13.5 -73.5 ZM775 543 q0 -51 28 -84 q28 -33 76 -33 q48 0 77 33 q29 33 29 84 q0 51 -29 84 q-29 33 -77 33 q-48 0 -76 -33 q-28 -33 -28 -84 ZM178 589 l0 -589 l-89 0 l0 716 l121 0 l319 -589 l0 589 l90 0 l0 -716 l-122 0 l-319 589 Z" /><glyph glyph-name="uni2000" unicode="&#x2000;" d="" /><glyph glyph-name="uni2001" unicode="&#x2001;" d="" /><glyph glyph-name="uni2002" unicode="&#x2002;" d="" /><glyph glyph-name="uni2003" unicode="&#x2003;" d="" /><glyph glyph-name="uni2004" unicode="&#x2004;" d="" /><glyph glyph-name="uni2005" unicode="&#x2005;" d="" /><glyph glyph-name="uni2006" unicode="&#x2006;" d="" /><glyph glyph-name="uni2007" unicode="&#x2007;" d="" /><glyph glyph-name="uni2008" unicode="&#x2008;" d="" /><glyph glyph-name="uni200A" unicode="&#x200a;" d="" /><glyph glyph-name="uni200B" unicode="&#x200b;" d="" /><glyph glyph-name="uni202F" unicode="&#x202f;" d="" /><glyph glyph-name="uni205F" unicode="&#x205f;" d="" /><glyph glyph-name="uniFEFF" unicode="&#xfeff;" d="" /></font>
</defs>
</svg>
