<?xml version="1.0" standalone="no"?><!DOCTYPE svg PUBLIC "-//W3C//DTD SVG 1.1//EN" "http://www.w3.org/Graphics/SVG/1.1/DTD/svg11.dtd" ><svg xmlns="http://www.w3.org/2000/svg"><metadata></metadata><defs><font id="CommercialType: Yandex Sans Text Light: 2015" horiz-adv-x="1160"><font-face font-family="Yandex Sans Text Light" font-weight="300" font-stretch="normal" units-per-em="1000" panose-1="2 0 0 0 0 0 0 0 0 0" ascent="950" descent="-250" x-height="0" bbox="-297 -213 1126 971" underline-thickness="75" underline-position="-3" unicode-range="U+0000-feff" /><missing-glyph horiz-adv-x="196"  /><glyph glyph-name=".null" unicode="" d="" /><glyph glyph-name="nonmarkingreturn" unicode="" d="" /><glyph glyph-name="space" unicode=" " d="" /><glyph glyph-name="exclam" unicode="!" d="M166 708 l-7 -533 l-48 0 l-6 533 l61 0 ZM134 -5 q-22 0 -35.5 14 q-13.5 14 -13.5 34 q0 21 13.5 34.5 q13.5 13.5 35.5 13.5 q22 0 35 -13.5 q13 -13.5 13 -34.5 q0 -20 -13 -34 q-13 -14 -35 -14 Z" /><glyph glyph-name="numbersign" unicode="#" d="M439 470 l-173 0 l-30 -203 l173 0 l30 203 ZM402 219 l-173 0 l-33 -219 l-53 0 l33 219 l-133 0 l0 48 l140 0 l30 203 l-143 0 l0 47 l150 0 l30 199 l53 0 l-30 -199 l173 0 l30 199 l53 0 l-30 -199 l132 0 l0 -47 l-139 0 l-30 -203 l142 0 l0 -48 l-149 0 l-33 -219 l-53 0 l33 219 Z" /><glyph glyph-name="dollar" unicode="$" d="M113 540 q0 -30 10.5 -52 q10.5 -22 28.5 -37.5 q18 -15.5 43 -26.5 q25 -11 54 -20 l0 267 q-66 -8 -101 -39.5 q-35 -31.5 -35 -91.5 ZM443 185 q0 32 -9.5 55 q-9.5 23 -27.5 39 q-18 16 -44.5 27.5 q-26.5 11.5 -61.5 21.5 l0 -283 q30 3 56.5 12.5 q26.5 9.5 45.5 26 q19 16.5 30 41.5 q11 25 11 60 ZM249 -140 l0 130 q-41 1 -73.5 9 q-32.5 8 -57 17.5 q-24.5 9.5 -41 20 q-16.5 10.5 -25.5 18.5 l11 54 q11 -9 28.5 -19.5 q17.5 -10.5 40.5 -20.5 q23 -10 52.5 -17.5 q29.5 -7.5 64.5 -8.5 l0 299 q-37 10 -72 24.5 q-35 14.5 -62.5 36.5 q-27.5 22 -44 54.5 q-16.5 32.5 -16.5 80.5 q0 84 52 130.5 q52 46.5 143 55.5 l0 114 l52 0 l0 -112 q64 -2 101.5 -14.5 q37.5 -12.5 63.5 -26.5 l-9 -55 q-30 17 -67.5 29 q-37.5 12 -88.5 14 l0 -284 q36 -10 72 -23 q36 -13 65.5 -35 q29.5 -22 47.5 -57 q18 -35 18 -88 q0 -50 -16.5 -85 q-16.5 -35 -44.5 -58 q-28 -23 -65 -35.5 q-37 -12.5 -78 -15.5 l0 -132 l-51 0 Z" /><glyph glyph-name="percent" unicode="%" d="M67 -10 l481 736 l55 0 l-481 -736 l-55 0 ZM306 546 q0 -45 -11 -78.5 q-11 -33.5 -29.5 -56 q-18.5 -22.5 -43.5 -34 q-25 -11.5 -53 -11.5 q-28 0 -53 11 q-25 11 -43.5 32.5 q-18.5 21.5 -29 54.5 q-10.5 33 -10.5 77 q0 45 10.5 79 q10.5 34 29 57 q18.5 23 43.5 34.5 q25 11.5 53 11.5 q28 0 53 -11 q25 -11 43.5 -33 q18.5 -22 29.5 -55.5 q11 -33.5 11 -77.5 ZM86 543 q0 -68 22.5 -100 q22.5 -32 60.5 -32 q38 0 61 32 q23 32 23 100 q0 69 -23 101.5 q-23 32.5 -61 32.5 q-38 0 -60.5 -32.5 q-22.5 -32.5 -22.5 -101.5 ZM637 174 q0 -44 -11 -78 q-11 -34 -29.5 -56.5 q-18.5 -22.5 -43.5 -34 q-25 -11.5 -53 -11.5 q-28 0 -53 11 q-25 11 -43.5 33 q-18.5 22 -29 55 q-10.5 33 -10.5 77 q0 44 10.5 78 q10.5 34 29 57 q18.5 23 43.5 34.5 q25 11.5 53 11.5 q28 0 53 -11 q25 -11 43.5 -33 q18.5 -22 29.5 -55.5 q11 -33.5 11 -77.5 ZM417 172 q0 -68 22.5 -100 q22.5 -32 60.5 -32 q39 0 61 32 q22 32 22 100 q0 69 -22 101 q-22 32 -61 32 q-38 0 -60.5 -32 q-22.5 -32 -22.5 -101 Z" /><glyph glyph-name="ampersand" unicode="&amp;" d="M679 13 q-48 0 -87.5 18.5 q-39.5 18.5 -80.5 50.5 q-43 -42 -99 -67 q-56 -25 -129 -25 q-62 0 -106.5 15.5 q-44.5 15.5 -73.5 42.5 q-29 27 -42.5 62.5 q-13.5 35.5 -13.5 74.5 q0 38 12 68 q12 30 32 53 q20 23 47.5 40.5 q27.5 17.5 59.5 30.5 q-35 37 -61 81 q-26 44 -26 98 q0 34 11.5 65 q11.5 31 35 54 q23.5 23 57.5 37 q34 14 79 14 q45 0 79.5 -13 q34.5 -13 58 -35.5 q23.5 -22.5 35 -53 q11.5 -30.5 11.5 -64.5 q0 -41 -15 -72 q-15 -31 -40.5 -54 q-25.5 -23 -58 -41 q-32.5 -18 -66.5 -33 l140 -135 l69 -65 q41 54 64.5 118 q23.5 64 31.5 120 l53 -15 q-5 -30 -14 -63 q-9 -33 -22.5 -67 q-13.5 -34 -31 -66.5 q-17.5 -32.5 -40.5 -62.5 q32 -26 65.5 -42 q33.5 -16 71.5 -16 q20 0 36 4 q16 4 22 6 l0 -51 q-5 -2 -21.5 -7 q-16.5 -5 -42.5 -5 ZM287 43 q57 0 102 20 q45 20 80 54 q-39 35 -82 76 l-150 146 q-29 -11 -52.5 -25 q-23.5 -14 -41 -32.5 q-17.5 -18.5 -27 -42 q-9.5 -23.5 -9.5 -53.5 q0 -29 10.5 -55 q10.5 -26 32.5 -45.5 q22 -19.5 56 -31 q34 -11.5 81 -11.5 ZM172 556 q0 -25 8 -47 q8 -22 20.5 -41.5 q12.5 -19.5 28.5 -37 q16 -17.5 31 -32.5 q36 16 65.5 32 q29.5 16 50 35 q20.5 19 31.5 42 q11 23 11 53 q0 47 -30.5 80 q-30.5 33 -93.5 33 q-31 0 -54 -10 q-23 -10 -38 -26 q-15 -16 -22.5 -37.5 q-7.5 -21.5 -7.5 -43.5 Z" /><glyph glyph-name="quotesingle" unicode="&#39;" d="M76 716 l66 0 l-7 -214 l-52 0 l-7 214 Z" /><glyph glyph-name="parenleft" unicode="(" d="M215 -139 q-82 81 -121.5 193 q-39.5 112 -39.5 253 q0 141 39.5 258 q39.5 117 121.5 191 l61 0 q-42 -36 -73 -84 q-31 -48 -51.5 -105 q-20.5 -57 -30.5 -122 q-10 -65 -10 -135 q0 -141 40.5 -253.5 q40.5 -112.5 124.5 -195.5 l-61 0 Z" /><glyph glyph-name="asterisk" unicode="*" d="M214 507 l-78 -125 l-45 33 l93 113 l-139 36 l18 53 l132 -55 l-9 146 l55 0 l-9 -146 l131 55 l18 -53 l-139 -36 l94 -113 l-45 -33 l-77 125 Z" /><glyph glyph-name="hyphen" unicode="-" d="M63 330 l240 0 l0 -56 l-240 0 l0 56 Z" /><glyph glyph-name="slash" unicode="/" d="M3 -120 l316 876 l56 0 l-316 -876 l-56 0 Z" /><glyph glyph-name="zero" unicode="0" d="M280 -10 q-53 0 -96.5 23 q-43.5 23 -74.5 68.5 q-31 45.5 -48 115 q-17 69.5 -17 162.5 q0 93 17 162 q17 69 48 114.5 q31 45.5 74.5 68 q43.5 22.5 96.5 22.5 q53 0 96.5 -22 q43.5 -22 74 -67.5 q30.5 -45.5 47 -114 q16.5 -68.5 16.5 -161.5 q0 -93 -16.5 -162.5 q-16.5 -69.5 -47 -116 q-30.5 -46.5 -74 -69.5 q-43.5 -23 -96.5 -23 ZM279 43 q82 0 127 74 q45 74 45 241 q0 84 -11.5 143.5 q-11.5 59.5 -33 98 q-21.5 38.5 -53.5 56 q-32 17.5 -73 17.5 q-41 0 -73.5 -17.5 q-32.5 -17.5 -55 -56 q-22.5 -38.5 -34 -98 q-11.5 -59.5 -11.5 -143.5 q0 -167 45.5 -241 q45.5 -74 127.5 -74 Z" /><glyph glyph-name="one" unicode="1" d="M307 0 l0 640 l-217 -162 l0 68 l229 170 l50 0 l0 -716 l-62 0 Z" /><glyph glyph-name="two" unicode="2" d="M56 0 l0 66 q107 85 179.5 148.5 q72.5 63.5 116.5 114.5 q44 51 63 95 q19 44 19 90 q0 33 -10.5 62 q-10.5 29 -32 50 q-21.5 21 -55.5 33.5 q-34 12.5 -80 12.5 q-52 0 -96.5 -17 q-44.5 -17 -76.5 -42 l-7 61 q29 22 76 37 q47 15 109 15 q60 0 104 -15.5 q44 -15.5 73 -43.5 q29 -28 43.5 -66 q14.5 -38 14.5 -83 q0 -54 -21 -104 q-21 -50 -66 -103.5 q-45 -53.5 -116 -115 q-71 -61.5 -171 -138.5 l381 0 l0 -57 l-447 0 Z" /><glyph glyph-name="three" unicode="3" d="M245 -10 q-63 0 -113 16 q-50 16 -79 37 l17 59 q27 -22 71.5 -40 q44.5 -18 102.5 -18 q99 0 146 43.5 q47 43.5 47 111.5 q0 69 -44 109.5 q-44 40.5 -129 40.5 l-98 0 l0 54 l103 0 q66 0 104.5 36.5 q38.5 36.5 38.5 99.5 q0 28 -9 52 q-9 24 -29.5 42 q-20.5 18 -52.5 28.5 q-32 10.5 -77 10.5 q-55 0 -95.5 -15.5 q-40.5 -15.5 -66.5 -35.5 l-10 59 q31 21 74.5 33.5 q43.5 12.5 99.5 12.5 q55 0 97 -13.5 q42 -13.5 70.5 -38 q28.5 -24.5 43 -58.5 q14.5 -34 14.5 -74 q0 -35 -10 -62.5 q-10 -27.5 -27.5 -47.5 q-17.5 -20 -40 -33 q-22.5 -13 -46.5 -19 q30 -6 57.5 -20.5 q27.5 -14.5 48.5 -37.5 q21 -23 33.5 -54.5 q12.5 -31.5 12.5 -71.5 q0 -45 -18 -83 q-18 -38 -51 -65.5 q-33 -27.5 -80 -42.5 q-47 -15 -105 -15 Z" /><glyph glyph-name="four" unicode="4" d="M368 651 l-274 -421 l274 0 l0 421 ZM426 178 l0 -178 l-58 0 l0 178 l-338 0 l0 44 l321 494 l75 0 l0 -486 l100 0 l0 -52 l-100 0 Z" /><glyph glyph-name="five" unicode="5" d="M242 -10 q-56 0 -107 13 q-51 13 -78 33 l15 59 q29 -20 72 -35.5 q43 -15.5 98 -15.5 q48 0 83.5 14 q35.5 14 59.5 38.5 q24 24.5 36 58 q12 33.5 12 72.5 q0 43 -12.5 74.5 q-12.5 31.5 -34.5 51.5 q-22 20 -52.5 29.5 q-30.5 9.5 -66.5 9.5 q-51 0 -84 -14.5 q-33 -14.5 -51 -29.5 l-47 0 l0 368 l378 0 l0 -56 l-323 0 l0 -253 q21 14 54 26 q33 12 81 12 q46 0 86 -13.5 q40 -13.5 70 -40.5 q30 -27 47 -68 q17 -41 17 -96 q0 -52 -16.5 -95.5 q-16.5 -43.5 -49 -75 q-32.5 -31.5 -79.5 -49 q-47 -17.5 -108 -17.5 Z" /><glyph glyph-name="six" unicode="6" d="M283 -12 q-49 0 -93 17 q-44 17 -77 50.5 q-33 33.5 -52 85 q-19 51.5 -19 120.5 q0 85 30 157 q30 72 75.5 129.5 q45.5 57.5 101 99.5 q55.5 42 106.5 67 l92 0 l0 -7 q-65 -32 -120 -70 q-55 -38 -98 -81.5 q-43 -43.5 -72.5 -92.5 q-29.5 -49 -42.5 -102 q32 45 77 72 q45 27 110 27 q46 0 85.5 -15 q39.5 -15 69 -44.5 q29.5 -29.5 46 -73 q16.5 -43.5 16.5 -100.5 q0 -54 -17.5 -98.5 q-17.5 -44.5 -49 -75.5 q-31.5 -31 -74.5 -48 q-43 -17 -94 -17 ZM282 40 q37 0 69 12 q32 12 55.5 35.5 q23.5 23.5 36.5 58 q13 34.5 13 80.5 q0 90 -45 136 q-45 46 -120 46 q-62 0 -106.5 -30 q-44.5 -30 -79.5 -86 l0 -31 q0 -59 13.5 -100.5 q13.5 -41.5 37.5 -68.5 q24 -27 56.5 -39.5 q32.5 -12.5 69.5 -12.5 Z" /><glyph glyph-name="seven" unicode="7" d="M119 0 l322 660 l-385 0 l0 56 l450 0 l0 -52 l-321 -664 l-66 0 Z" /><glyph glyph-name="eight" unicode="8" d="M279 -10 q-51 0 -94 14 q-43 14 -74.5 40 q-31.5 26 -49.5 63.5 q-18 37.5 -18 85.5 q0 73 40.5 121 q40.5 48 106.5 68 q-54 17 -88 57.5 q-34 40.5 -34 103.5 q0 44 16 78 q16 34 44.5 57.5 q28.5 23.5 67.5 35.5 q39 12 85 12 q44 0 82 -11.5 q38 -11.5 66.5 -34.5 q28.5 -23 45 -56.5 q16.5 -33.5 16.5 -78.5 q0 -63 -33.5 -104 q-33.5 -41 -87.5 -59 q65 -19 104.5 -65.5 q39.5 -46.5 39.5 -120.5 q0 -48 -18 -86.5 q-18 -38.5 -49.5 -65 q-31.5 -26.5 -74.5 -40.5 q-43 -14 -93 -14 ZM281 406 q31 0 58 8.5 q27 8.5 47.5 25.5 q20.5 17 32.5 41.5 q12 24.5 12 56.5 q0 33 -11.5 58 q-11.5 25 -31.5 42 q-20 17 -47.5 26 q-27.5 9 -59.5 9 q-32 0 -60 -9 q-28 -9 -48.5 -26 q-20.5 -17 -32.5 -42 q-12 -25 -12 -58 q0 -32 12.5 -56.5 q12.5 -24.5 33.5 -41.5 q21 -17 48.5 -25.5 q27.5 -8.5 58.5 -8.5 ZM279 43 q38 0 70 11 q32 11 55.5 32 q23.5 21 36.5 50.5 q13 29.5 13 65.5 q0 37 -13.5 66 q-13.5 29 -36.5 49 q-23 20 -55 30.5 q-32 10.5 -68 10.5 q-38 0 -70.5 -10.5 q-32.5 -10.5 -56.5 -30.5 q-24 -20 -37.5 -49 q-13.5 -29 -13.5 -66 q0 -36 13 -65.5 q13 -29.5 36.5 -50.5 q23.5 -21 56 -32 q32.5 -11 70.5 -11 Z" /><glyph glyph-name="nine" unicode="9" d="M274 727 q49 0 93 -17 q44 -17 77 -50.5 q33 -33.5 52.5 -85 q19.5 -51.5 19.5 -120.5 q0 -85 -28.5 -157 q-28.5 -72 -73 -129.5 q-44.5 -57.5 -98.5 -99.5 q-54 -42 -104 -68 l-92 0 l0 7 q62 31 115.5 69.5 q53.5 38.5 95.5 83 q42 44.5 71 93 q29 48.5 42 101.5 q-32 -45 -77 -71.5 q-45 -26.5 -110 -26.5 q-46 0 -86 15 q-40 15 -69 44.5 q-29 29.5 -46 73 q-17 43.5 -17 100.5 q0 54 18.5 97.5 q18.5 43.5 50 75 q31.5 31.5 74.5 48.5 q43 17 92 17 ZM276 674 q-36 0 -67.5 -11.5 q-31.5 -11.5 -55.5 -35 q-24 -23.5 -37.5 -58 q-13.5 -34.5 -13.5 -79.5 q0 -91 45 -137 q45 -46 119 -46 q63 0 107 29.5 q44 29.5 79 86.5 q1 10 1 17 q0 7 0 14 q0 58 -13.5 100 q-13.5 42 -37.5 68.5 q-24 26.5 -56.5 39 q-32.5 12.5 -69.5 12.5 Z" /><glyph glyph-name="question" unicode="?" d="M430 533 q0 -35 -8 -62 q-8 -27 -21.5 -48.5 q-13.5 -21.5 -32 -38.5 q-18.5 -17 -39.5 -32 q-23 -15 -47 -30 q-24 -15 -44 -33 q-20 -18 -32.5 -41 q-12.5 -23 -12.5 -55 l0 -18 l-50 0 l0 17 q0 44 13 74.5 q13 30.5 34 52.5 q21 22 46.5 38.5 q25.5 16.5 50.5 33.5 q17 12 32 25 q15 13 26.5 30 q11.5 17 18 38 q6.5 21 6.5 49 q0 29 -8.5 54.5 q-8.5 25.5 -27.5 44.5 q-19 19 -48.5 30 q-29.5 11 -72.5 11 q-47 0 -83.5 -11.5 q-36.5 -11.5 -58.5 -23.5 l-14 51 q23 13 60.5 25 q37.5 12 93.5 12 q110 0 164.5 -53 q54.5 -53 54.5 -140 ZM170 -5 q-22 0 -35 14 q-13 14 -13 34 q0 21 13 34.5 q13 13.5 35 13.5 q22 0 35.5 -13.5 q13.5 -13.5 13.5 -34.5 q0 -20 -13.5 -34 q-13.5 -14 -35.5 -14 Z" /><glyph glyph-name="at" unicode="@" d="M529 -180 q-100 0 -187.5 27.5 q-87.5 27.5 -152 81.5 q-64.5 54 -101.5 134 q-37 80 -37 185 q0 106 36.5 194 q36.5 88 102.5 151 q66 63 157 98 q91 35 199 35 q93 0 175 -26 q82 -26 143.5 -75.5 q61.5 -49.5 97 -122 q35.5 -72.5 35.5 -165.5 q0 -59 -14.5 -112 q-14.5 -53 -43 -92.5 q-28.5 -39.5 -70.5 -63 q-42 -23.5 -96 -23.5 q-65 0 -97.5 32 q-32.5 32 -40.5 77 q-26 -54 -70.5 -81.5 q-44.5 -27.5 -98.5 -27.5 q-33 0 -64 11 q-31 11 -55 35 q-24 24 -38.5 61.5 q-14.5 37.5 -14.5 91.5 q0 53 15 99.5 q15 46.5 43 81.5 q28 35 67.5 55.5 q39.5 20.5 88.5 20.5 q58 0 96 -30 q38 -30 52 -90 l29 92 l41 0 l-39 -240 q-3 -23 -1.5 -47.5 q1.5 -24.5 11.5 -44.5 q10 -20 29 -33.5 q19 -13.5 52 -13.5 q34 0 63.5 16.5 q29.5 16.5 52 47 q22.5 30.5 35.5 74 q13 43.5 13 97.5 q0 83 -32 148 q-32 65 -86.5 109.5 q-54.5 44.5 -127 67.5 q-72.5 23 -153.5 23 q-93 0 -173.5 -31 q-80.5 -31 -139 -87 q-58.5 -56 -92 -134.5 q-33.5 -78.5 -33.5 -173.5 q0 -97 33 -169 q33 -72 90.5 -120 q57.5 -48 135 -71.5 q77.5 -23.5 167.5 -23.5 q83 0 141 15 q58 15 84 28 l11 -45 q-14 -8 -38.5 -16.5 q-24.5 -8.5 -56 -15 q-31.5 -6.5 -68 -10.5 q-36.5 -4 -75.5 -4 ZM352 242 q0 -42 11 -70.5 q11 -28.5 29 -45.5 q18 -17 41 -24.5 q23 -7.5 46 -7.5 q39 0 68.5 17.5 q29.5 17.5 50 46.5 q20.5 29 31 66.5 q10.5 37.5 10.5 78.5 q0 77 -36 113.5 q-36 36.5 -88 36.5 q-40 0 -70.5 -18 q-30.5 -18 -51 -47.5 q-20.5 -29.5 -31 -67.5 q-10.5 -38 -10.5 -78 Z" /><glyph glyph-name="A" unicode="a" d="M316 665 l-136 -387 l273 0 l-137 387 ZM473 222 l-313 0 l-78 -222 l-59 0 l252 716 l90 0 l253 -716 l-66 0 l-79 222 Z" /><glyph glyph-name="B" unicode="b" d="M156 660 l0 -263 l122 0 q81 0 130.5 33.5 q49.5 33.5 49.5 109.5 q0 65 -42.5 92.5 q-42.5 27.5 -124.5 27.5 l-135 0 ZM156 341 l0 -284 l142 0 q44 0 79.5 7.5 q35.5 7.5 61 24.5 q25.5 17 39.5 44.5 q14 27.5 14 67.5 q0 74 -46.5 107 q-46.5 33 -143.5 33 l-146 0 ZM92 716 l199 0 q112 0 171.5 -40.5 q59.5 -40.5 59.5 -132.5 q0 -75 -37.5 -114.5 q-37.5 -39.5 -100.5 -54.5 q87 -11 130 -52 q43 -41 43 -119 q0 -55 -20 -93.5 q-20 -38.5 -54.5 -63 q-34.5 -24.5 -82 -35.5 q-47.5 -11 -102.5 -11 l-206 0 l0 716 Z" /><glyph glyph-name="C" unicode="c" d="M394 -10 q-77 0 -140.5 25.5 q-63.5 25.5 -108.5 73 q-45 47.5 -69.5 115.5 q-24.5 68 -24.5 154 q0 87 23.5 155 q23.5 68 68 115.5 q44.5 47.5 107.5 72.5 q63 25 142 25 q76 0 129.5 -18.5 q53.5 -18.5 85.5 -43.5 l-13 -62 q-37 30 -88 48.5 q-51 18.5 -114 18.5 q-131 0 -202.5 -80 q-71.5 -80 -71.5 -231 q0 -151 74 -231 q74 -80 206 -80 q60 0 106.5 17.5 q46.5 17.5 84.5 46.5 l18 -54 q-30 -26 -83 -46.5 q-53 -20.5 -130 -20.5 Z" /><glyph glyph-name="D" unicode="d" d="M156 659 l0 -602 l163 0 q59 0 109.5 19.5 q50.5 19.5 87 59 q36.5 39.5 57.5 99.5 q21 60 21 141 q0 81 -20.5 135.5 q-20.5 54.5 -56.5 87 q-36 32.5 -84 46.5 q-48 14 -103 14 l-174 0 ZM92 716 l237 0 q69 0 129.5 -17.5 q60.5 -17.5 105.5 -57 q45 -39.5 71 -104 q26 -64.5 26 -158.5 q0 -94 -26 -165 q-26 -71 -72 -118.5 q-46 -47.5 -109 -71.5 q-63 -24 -136 -24 l-226 0 l0 716 Z" /><glyph glyph-name="E" unicode="e" d="M92 716 l413 0 l0 -57 l-349 0 l0 -258 l302 0 l0 -57 l-302 0 l0 -287 l354 0 l0 -57 l-418 0 l0 716 Z" /><glyph glyph-name="F" unicode="f" d="M156 323 l0 -323 l-64 0 l0 716 l408 0 l0 -57 l-344 0 l0 -279 l302 0 l0 -57 l-302 0 Z" /><glyph glyph-name="G" unicode="g" d="M692 279 q0 -63 -19.5 -116 q-19.5 -53 -57.5 -91.5 q-38 -38.5 -94.5 -60 q-56.5 -21.5 -129.5 -21.5 q-73 0 -135.5 25.5 q-62.5 25.5 -108 73 q-45.5 47.5 -71 115.5 q-25.5 68 -25.5 154 q0 86 24.5 154 q24.5 68 71 115.5 q46.5 47.5 113 73 q66.5 25.5 150.5 25.5 q81 0 139 -20 q58 -20 94 -46 l-13 -61 q-42 32 -97 51 q-55 19 -124 19 q-143 0 -217 -81 q-74 -81 -74 -230 q0 -74 20 -132 q20 -58 56.5 -98 q36.5 -40 86.5 -60.5 q50 -20.5 110 -20.5 q59 0 103.5 17 q44.5 17 74.5 47 q30 30 45 72 q15 42 15 92 l0 33 l-259 0 l0 57 l322 0 l0 -86 l0 0 Z" /><glyph glyph-name="H" unicode="h" d="M575 327 l-419 0 l0 -327 l-64 0 l0 716 l64 0 l0 -332 l419 0 l0 332 l63 0 l0 -716 l-63 0 l0 327 Z" /><glyph glyph-name="I" unicode="i" d="M156 716 l0 -716 l-64 0 l0 716 l64 0 Z" /><glyph glyph-name="J" unicode="j" d="M280 716 l0 -580 q0 -30 -8.5 -57 q-8.5 -27 -26.5 -46.5 q-18 -19.5 -46.5 -31 q-28.5 -11.5 -68.5 -11.5 q-55 0 -95 19 l12 58 q7 -5 28 -12.5 q21 -7.5 49 -7.5 q52 0 72.5 26 q20.5 26 20.5 77 l0 566 l63 0 Z" /><glyph glyph-name="K" unicode="k" d="M237 331 l-81 0 l0 -331 l-64 0 l0 716 l64 0 l0 -328 l80 0 l274 328 l72 0 l-293 -352 l306 -364 l-78 0 l-280 331 Z" /><glyph glyph-name="L" unicode="l" d="M92 716 l64 0 l0 -659 l351 0 l0 -57 l-415 0 l0 716 Z" /><glyph glyph-name="M" unicode="m" d="M151 632 l0 -632 l-59 0 l0 716 l87 0 l256 -545 l261 545 l82 0 l0 -716 l-63 0 l0 627 l-251 -518 l-64 0 l-249 523 Z" /><glyph glyph-name="N" unicode="n" d="M151 645 l0 -645 l-59 0 l0 716 l86 0 l414 -649 l0 649 l59 0 l0 -716 l-88 0 l-412 645 Z" /><glyph glyph-name="O" unicode="o" d="M388 -10 q-72 0 -133.5 25 q-61.5 25 -107 72.5 q-45.5 47.5 -71 116 q-25.5 68.5 -25.5 155.5 q0 89 25.5 157.5 q25.5 68.5 71 115 q45.5 46.5 107 70.5 q61.5 24 133.5 24 q73 0 134.5 -24 q61.5 -24 106.5 -70.5 q45 -46.5 70.5 -115 q25.5 -68.5 25.5 -157.5 q0 -87 -25.5 -155.5 q-25.5 -68.5 -70.5 -116 q-45 -47.5 -106.5 -72.5 q-61.5 -25 -134.5 -25 ZM388 47 q59 0 108.5 19 q49.5 19 85.5 57.5 q36 38.5 56.5 97 q20.5 58.5 20.5 137.5 q0 79 -20.5 137.5 q-20.5 58.5 -56.5 97 q-36 38.5 -85.5 57.5 q-49.5 19 -108.5 19 q-59 0 -108.5 -19 q-49.5 -19 -85.5 -57.5 q-36 -38.5 -56 -97 q-20 -58.5 -20 -137.5 q0 -79 20 -137.5 q20 -58.5 56 -97 q36 -38.5 85.5 -57.5 q49.5 -19 108.5 -19 Z" /><glyph glyph-name="P" unicode="p" d="M156 659 l0 -304 l132 0 q88 0 136.5 37 q48.5 37 48.5 124 q0 74 -44.5 108.5 q-44.5 34.5 -131.5 34.5 l-141 0 ZM156 298 l0 -298 l-64 0 l0 716 l205 0 q113 0 176 -48.5 q63 -48.5 63 -150.5 q0 -58 -17.5 -99.5 q-17.5 -41.5 -50 -68 q-32.5 -26.5 -78 -39 q-45.5 -12.5 -102.5 -12.5 l-132 0 Z" /><glyph glyph-name="Q" unicode="q" d="M708 -128 q-79 15 -142.5 32.5 q-63.5 17.5 -115 35.5 q-51.5 18 -94.5 35.5 q-43 17.5 -82 31.5 q-50 18 -91 48.5 q-41 30.5 -70 74 q-29 43.5 -45.5 100.5 q-16.5 57 -16.5 128 q0 88 25.5 156.5 q25.5 68.5 70.5 115.5 q45 47 107 71.5 q62 24.5 134 24.5 q72 0 133.5 -24 q61.5 -24 107 -70.5 q45.5 -46.5 71 -114.5 q25.5 -68 25.5 -156 q0 -73 -17.5 -134.5 q-17.5 -61.5 -53.5 -108 q-36 -46.5 -91 -77.5 q-55 -31 -130 -42 q64 -23 134 -39.5 q70 -16.5 162 -28.5 l-21 -59 ZM388 47 q59 0 108.5 19 q49.5 19 85.5 57.5 q36 38.5 56.5 97 q20.5 58.5 20.5 137.5 q0 79 -20.5 137.5 q-20.5 58.5 -56.5 97 q-36 38.5 -85.5 57.5 q-49.5 19 -108.5 19 q-59 0 -108.5 -19 q-49.5 -19 -85.5 -57.5 q-36 -38.5 -56 -97 q-20 -58.5 -20 -137.5 q0 -79 20 -137.5 q20 -58.5 56 -97 q36 -38.5 85.5 -57.5 q49.5 -19 108.5 -19 Z" /><glyph glyph-name="R" unicode="r" d="M156 0 l-64 0 l0 716 l215 0 q116 0 178.5 -47 q62.5 -47 62.5 -148 q0 -47 -12.5 -82.5 q-12.5 -35.5 -35.5 -60.5 q-23 -25 -55.5 -40.5 q-32.5 -15.5 -72.5 -22.5 l201 -315 l-70 0 l-197 309 l-150 0 l0 -309 ZM156 660 l0 -294 l138 0 q42 0 77 8 q35 8 60 26.5 q25 18.5 38.5 48 q13.5 29.5 13.5 72.5 q0 73 -44.5 106 q-44.5 33 -131.5 33 l-151 0 Z" /><glyph glyph-name="S" unicode="s" d="M272 -10 q-41 0 -76 6 q-35 6 -64.5 15 q-29.5 9 -51.5 20.5 q-22 11.5 -36 22.5 l14 60 q15 -11 37 -23 q22 -12 49.5 -22 q27.5 -10 59.5 -16 q32 -6 68 -6 q39 0 73.5 8 q34.5 8 60.5 25 q26 17 41 43 q15 26 15 63 q0 36 -13 60 q-13 24 -37 41 q-24 17 -58.5 28.5 q-34.5 11.5 -77.5 22.5 q-40 10 -80 24 q-40 14 -71.5 36.5 q-31.5 22.5 -51 56.5 q-19.5 34 -19.5 84 q0 93 65 140 q65 47 180 47 q37 0 66 -4 q29 -4 51.5 -10 q22.5 -6 39.5 -13 q17 -7 31 -14 l-11 -60 q-30 18 -74.5 31 q-44.5 13 -102.5 13 q-88 0 -135 -31.5 q-47 -31.5 -47 -96.5 q0 -33 14 -56 q14 -23 37.5 -39 q23.5 -16 54.5 -27 q31 -11 65 -20 q39 -11 81 -23.5 q42 -12.5 77.5 -35 q35.5 -22.5 58 -58.5 q22.5 -36 22.5 -93 q0 -55 -21.5 -93 q-21.5 -38 -57.5 -61.5 q-36 -23.5 -82 -34 q-46 -10.5 -94 -10.5 Z" /><glyph glyph-name="T" unicode="t" d="M313 659 l0 -659 l-64 0 l0 659 l-225 0 l0 57 l514 0 l0 -57 l-225 0 Z" /><glyph glyph-name="U" unicode="u" d="M76 716 l64 0 l0 -469 q0 -51 14.5 -88.5 q14.5 -37.5 41.5 -62.5 q27 -25 64.5 -37 q37.5 -12 83.5 -12 q45 0 84 12.5 q39 12.5 67.5 37 q28.5 24.5 45 62.5 q16.5 38 16.5 89 l0 468 l60 0 l0 -466 q0 -63 -21 -111.5 q-21 -48.5 -58 -81.5 q-37 -33 -87 -50 q-50 -17 -108 -17 q-57 0 -106 16 q-49 16 -85 48 q-36 32 -56 80 q-20 48 -20 112 l0 470 Z" /><glyph glyph-name="V" unicode="v" d="M18 716 l65 0 l228 -668 l230 668 l60 0 l-244 -716 l-94 0 l-245 716 Z" /><glyph glyph-name="W" unicode="w" d="M26 716 l65 0 l159 -652 l180 652 l72 0 l179 -649 l159 649 l59 0 l-175 -716 l-89 0 l-172 635 l-171 -635 l-89 0 l-177 716 Z" /><glyph glyph-name="X" unicode="x" d="M312 323 l-218 -323 l-67 0 l252 370 l-235 346 l74 0 l206 -302 l202 302 l67 0 l-238 -348 l252 -368 l-75 0 l-220 323 Z" /><glyph glyph-name="Y" unicode="y" d="M268 0 l0 311 l-251 405 l71 0 l215 -350 l215 350 l64 0 l-250 -404 l0 -312 l-64 0 Z" /><glyph glyph-name="Z" unicode="z" d="M50 0 l0 47 l416 612 l-406 0 l0 57 l483 0 l0 -47 l-419 -612 l420 0 l0 -57 l-494 0 Z" /><glyph glyph-name="bracketleft" unicode="[" d="M61 756 l202 0 l0 -51 l-145 0 l0 -793 l145 0 l0 -51 l-202 0 l0 895 Z" /><glyph glyph-name="backslash" unicode="\" d="M3 756 l56 0 l316 -876 l-56 0 l-316 876 Z" /><glyph glyph-name="asciicircum" unicode="^" d="M228 672 l-142 -214 l-53 0 l157 258 l76 0 l157 -258 l-53 0 l-142 214 Z" /><glyph glyph-name="underscore" unicode="_" d="M-8 -64 l391 0 l0 -51 l-391 0 l0 51 Z" /><glyph glyph-name="grave" unicode="`" d="M249 593 l-114 153 l79 0 l87 -153 l-52 0 Z" /><glyph glyph-name="a" unicode="a" d="M220 43 q34 0 61.5 10.5 q27.5 10.5 49 27 q21.5 16.5 36 35.5 q14.5 19 23.5 36 l0 108 l-99 0 q-100 0 -143.5 -29.5 q-43.5 -29.5 -43.5 -83.5 q0 -50 31 -77 q31 -27 85 -27 ZM399 0 q-3 15 -5 40 q-2 25 -2 54 q-11 -18 -26.5 -36.5 q-15.5 -18.5 -38 -33.5 q-22.5 -15 -51.5 -24.5 q-29 -9.5 -66 -9.5 q-76 0 -120.5 41 q-44.5 41 -44.5 114 q0 82 61.5 123 q61.5 41 179.5 41 l104 0 l0 45 q0 69 -37 96 q-37 27 -102 27 q-54 0 -96 -14 q-42 -14 -68 -31 l-16 49 q26 18 73 33 q47 15 110 15 q88 0 141.5 -40 q53.5 -40 53.5 -128 l0 -267 q0 -26 1 -52 q1 -26 4 -42 l-55 0 Z" /><glyph glyph-name="b" unicode="b" d="M332 -10 q-67 0 -116.5 33 q-49.5 33 -76.5 92 l-2 -115 l-56 0 l0 716 l59 0 l0 -311 q26 58 75.5 91 q49.5 33 118.5 33 q49 0 92 -17.5 q43 -17.5 75 -51 q32 -33.5 50.5 -84 q18.5 -50.5 18.5 -116.5 q0 -66 -19 -116.5 q-19 -50.5 -51 -84.5 q-32 -34 -75.5 -51.5 q-43.5 -17.5 -92.5 -17.5 ZM326 43 q40 0 73.5 14 q33.5 14 58 41.5 q24.5 27.5 38.5 68 q14 40.5 14 93.5 q0 53 -14 93.5 q-14 40.5 -38.5 68 q-24.5 27.5 -58 41.5 q-33.5 14 -73.5 14 q-40 0 -74.5 -14 q-34.5 -14 -59.5 -41.5 q-25 -27.5 -39 -68 q-14 -40.5 -14 -93.5 q0 -53 14 -93.5 q14 -40.5 39 -68 q25 -27.5 59.5 -41.5 q34.5 -14 74.5 -14 Z" /><glyph glyph-name="c" unicode="c" d="M301 -10 q-56 0 -103.5 18 q-47.5 18 -82 52.5 q-34.5 34.5 -53.5 84.5 q-19 50 -19 114 q0 63 19 113.5 q19 50.5 53.5 85 q34.5 34.5 82.5 53 q48 18.5 105 18.5 q44 0 83.5 -9.5 q39.5 -9.5 68.5 -27.5 l-15 -52 q-26 15 -61 26 q-35 11 -76 11 q-92 0 -146 -56.5 q-54 -56.5 -54 -161.5 q0 -51 14.5 -91 q14.5 -40 40.5 -68 q26 -28 62.5 -42.5 q36.5 -14.5 80.5 -14.5 q42 0 75.5 10 q33.5 10 61.5 28 l15 -50 q-26 -19 -63.5 -30 q-37.5 -11 -88.5 -11 Z" /><glyph glyph-name="d" unicode="d" d="M289 43 q40 0 74 14 q34 14 59 41.5 q25 27.5 39 68 q14 40.5 14 93.5 q0 54 -14 94.5 q-14 40.5 -39 67.5 q-25 27 -59 41 q-34 14 -74 14 q-40 0 -74 -14 q-34 -14 -58.5 -41.5 q-24.5 -27.5 -38.5 -68 q-14 -40.5 -14 -93.5 q0 -53 14 -93.5 q14 -40.5 38.5 -68 q24.5 -27.5 58.5 -41.5 q34 -14 74 -14 ZM476 118 q-26 -60 -74.5 -94 q-48.5 -34 -119.5 -34 q-49 0 -92.5 17.5 q-43.5 17.5 -75.5 51.5 q-32 34 -51 84.5 q-19 50.5 -19 116.5 q0 66 19 116.5 q19 50.5 51 84 q32 33.5 75.5 51 q43.5 17.5 93.5 17.5 q66 0 115.5 -30 q49.5 -30 75.5 -87 l0 304 l59 0 l0 -716 l-52 0 l-5 118 Z" /><glyph glyph-name="e" unicode="e" d="M284 477 q-69 0 -118.5 -44.5 q-49.5 -44.5 -60.5 -132.5 l333 0 q3 45 -8 78.5 q-11 33.5 -32 55.5 q-21 22 -50.5 32.5 q-29.5 10.5 -63.5 10.5 ZM484 45 q-25 -18 -68.5 -36.5 q-43.5 -18.5 -112.5 -18.5 q-125 0 -192.5 71 q-67.5 71 -67.5 199 q0 63 18.5 113 q18.5 50 51.5 84.5 q33 34.5 77 53 q44 18.5 95 18.5 q52 0 94.5 -17.5 q42.5 -17.5 71 -53 q28.5 -35.5 40 -88 q11.5 -52.5 1.5 -121.5 l-389 0 q3 -101 56 -153.5 q53 -52.5 147 -52.5 q57 0 96 17 q39 17 66 37 l16 -52 Z" /><glyph glyph-name="f" unicode="f" d="M174 468 l0 -468 l-59 0 l0 468 l-68 0 l0 51 l68 0 l0 23 q0 86 43 134 q43 48 124 48 q35 0 61 -9 l-10 -52 q-8 3 -21 5.5 q-13 2.5 -28 2.5 q-54 0 -82 -32.5 q-28 -32.5 -28 -96.5 l0 -23 l154 0 l0 -51 l-154 0 Z" /><glyph glyph-name="g" unicode="g" d="M289 74 q39 0 72 13 q33 13 57.5 38 q24.5 25 38 62.5 q13.5 37.5 13.5 87.5 q0 50 -13.5 87.5 q-13.5 37.5 -38 63 q-24.5 25.5 -58 38.5 q-33.5 13 -72.5 13 q-39 0 -73 -13 q-34 -13 -59 -38.5 q-25 -25.5 -39 -63 q-14 -37.5 -14 -87.5 q0 -50 14 -87.5 q14 -37.5 39 -62.5 q25 -25 59 -38 q34 -13 74 -13 ZM267 -179 q-44 0 -76.5 5.5 q-32.5 5.5 -55.5 13 q-23 7.5 -37 15 q-14 7.5 -19 10.5 l12 54 q6 -3 20 -10.5 q14 -7.5 36 -15 q22 -7.5 52 -13.5 q30 -6 69 -6 q105 0 153 42.5 q48 42.5 48 128.5 l0 94 q-26 -55 -73.5 -86.5 q-47.5 -31.5 -115.5 -31.5 q-49 0 -92 16.5 q-43 16.5 -75 48.5 q-32 32 -50.5 79.5 q-18.5 47.5 -18.5 109.5 q0 62 18.5 109.5 q18.5 47.5 51 79.5 q32.5 32 75.5 48.5 q43 16.5 92 16.5 q69 0 117.5 -32 q48.5 -32 74.5 -90 l0 1 q0 39 2 68 q2 29 5 43 l54 0 q-2 -14 -3.5 -43.5 q-1.5 -29.5 -1.5 -67.5 l0 -363 q0 -105 -64 -164.5 q-64 -59.5 -198 -59.5 Z" /><glyph glyph-name="h" unicode="h" d="M322 477 q-38 0 -66.5 -10.5 q-28.5 -10.5 -50.5 -27.5 q-22 -17 -37.5 -40.5 q-15.5 -23.5 -27.5 -48.5 l0 -350 l-59 0 l0 716 l59 0 l0 -203 l-1 -102 l3 0 q10 23 26.5 44 q16.5 21 40 37.5 q23.5 16.5 55 26.5 q31.5 10 71.5 10 q80 0 126.5 -41.5 q46.5 -41.5 46.5 -123.5 l0 -364 l-60 0 l0 359 q0 64 -34.5 91 q-34.5 27 -91.5 27 Z" /><glyph glyph-name="i" unicode="i" d="M111 619 q-20 0 -31.5 13 q-11.5 13 -11.5 30 q0 17 11.5 30 q11.5 13 31.5 13 q20 0 31 -13 q11 -13 11 -30 q0 -17 -11 -30 q-11 -13 -31 -13 ZM140 519 l0 -519 l-59 0 l0 519 l59 0 Z" /><glyph glyph-name="j" unicode="j" d="M119 619 q-20 0 -31.5 13 q-11.5 13 -11.5 30 q0 17 11.5 30 q11.5 13 31.5 13 q20 0 31.5 -13 q11.5 -13 11.5 -30 q0 -17 -11.5 -30 q-11.5 -13 -31.5 -13 ZM-8 -134 q54 4 76 30.5 q22 26.5 22 71.5 l0 551 l58 0 l0 -548 q0 -66 -34.5 -109.5 q-34.5 -43.5 -111.5 -48.5 l-10 53 Z" /><glyph glyph-name="k" unicode="k" d="M203 238 l-62 0 l0 -238 l-60 0 l0 716 l60 0 l0 -427 l66 0 l196 230 l68 0 l-219 -254 l216 -265 l-72 0 l-193 238 Z" /><glyph glyph-name="l" unicode="l" d="M140 716 l0 -716 l-59 0 l0 716 l59 0 Z" /><glyph glyph-name="m" unicode="m" d="M140 0 l-59 0 l0 519 l53 0 l5 -109 l2 0 q10 23 26 44.5 q16 21.5 38 38 q22 16.5 51 26.5 q29 10 67 10 q63 0 104 -31.5 q41 -31.5 50 -94.5 q11 27 28 50 q17 23 39.5 40 q22.5 17 52 26.5 q29.5 9.5 66.5 9.5 q74 0 116.5 -41.5 q42.5 -41.5 42.5 -123.5 l0 -364 l-60 0 l0 358 q0 63 -31 91 q-31 28 -82 28 q-35 0 -61.5 -11 q-26.5 -11 -46 -29.5 q-19.5 -18.5 -34 -42 q-14.5 -23.5 -26.5 -48.5 l0 -346 l-59 0 l0 363 q0 62 -31.5 88 q-31.5 26 -82.5 26 q-35 0 -61 -10.5 q-26 -10.5 -45.5 -27.5 q-19.5 -17 -34.5 -40.5 q-15 -23.5 -27 -48.5 l0 -350 Z" /><glyph glyph-name="n" unicode="n" d="M322 477 q-38 0 -66.5 -10.5 q-28.5 -10.5 -50.5 -27.5 q-22 -17 -37.5 -40.5 q-15.5 -23.5 -27.5 -48.5 l0 -350 l-59 0 l0 519 l56 0 l2 -109 l2 0 q10 23 26.5 44.5 q16.5 21.5 40.5 38 q24 16.5 55.5 26.5 q31.5 10 71.5 10 q80 0 126.5 -41.5 q46.5 -41.5 46.5 -123.5 l0 -364 l-59 0 l0 359 q0 64 -34.5 91 q-34.5 27 -92.5 27 Z" /><glyph glyph-name="o" unicode="o" d="M289 -10 q-53 0 -98 18 q-45 18 -78 52.5 q-33 34.5 -51.5 85 q-18.5 50.5 -18.5 114.5 q0 64 18.5 114 q18.5 50 51.5 84.5 q33 34.5 78 52.5 q45 18 98 18 q53 0 98.5 -18 q45.5 -18 78.5 -52.5 q33 -34.5 52 -84.5 q19 -50 19 -114 q0 -64 -19 -114.5 q-19 -50.5 -52 -85 q-33 -34.5 -78.5 -52.5 q-45.5 -18 -98.5 -18 ZM289 43 q40 0 74.5 14 q34.5 14 59.5 41 q25 27 39.5 67.5 q14.5 40.5 14.5 94.5 q0 54 -14.5 94.5 q-14.5 40.5 -39.5 68 q-25 27.5 -59.5 41 q-34.5 13.5 -74.5 13.5 q-40 0 -74 -13.5 q-34 -13.5 -59 -41 q-25 -27.5 -39 -68 q-14 -40.5 -14 -94.5 q0 -54 14 -94.5 q14 -40.5 39 -67.5 q25 -27 59 -41 q34 -14 74 -14 Z" /><glyph glyph-name="p" unicode="p" d="M326 43 q40 0 73.5 14 q33.5 14 58 41.5 q24.5 27.5 38.5 68 q14 40.5 14 93.5 q0 53 -14 93.5 q-14 40.5 -38.5 68 q-24.5 27.5 -58 41.5 q-33.5 14 -73.5 14 q-40 0 -74.5 -14 q-34.5 -14 -59.5 -41.5 q-25 -27.5 -39 -68 q-14 -40.5 -14 -93.5 q0 -53 14 -93.5 q14 -40.5 39 -68 q25 -27.5 59.5 -41.5 q34.5 -14 74.5 -14 ZM332 -10 q-67 0 -116 32.5 q-49 32.5 -76 91.5 l0 -291 l-59 0 l0 696 l53 0 l5 -114 l0 -2 q26 60 75.5 93 q49.5 33 119.5 33 q49 0 92 -17.5 q43 -17.5 75 -51 q32 -33.5 50.5 -84 q18.5 -50.5 18.5 -116.5 q0 -66 -19 -116.5 q-19 -50.5 -51 -84.5 q-32 -34 -75.5 -51.5 q-43.5 -17.5 -92.5 -17.5 Z" /><glyph glyph-name="q" unicode="q" d="M474 -177 l0 291 q-26 -58 -74.5 -91 q-48.5 -33 -117.5 -33 q-49 0 -92.5 17.5 q-43.5 17.5 -75.5 51.5 q-32 34 -51 84.5 q-19 50.5 -19 116.5 q0 66 19 116.5 q19 50.5 51 84 q32 33.5 75.5 51 q43.5 17.5 93.5 17.5 q69 0 118.5 -32 q49.5 -32 75.5 -91 l0 2 q0 39 2 68 q2 29 4 43 l55 0 q-2 -14 -3.5 -43.5 q-1.5 -29.5 -1.5 -67.5 l0 -585 l-59 0 ZM289 43 q40 0 74 14 q34 14 59 41.5 q25 27.5 39 68 q14 40.5 14 93.5 q0 53 -14 93.5 q-14 40.5 -39 68 q-25 27.5 -59 41.5 q-34 14 -74 14 q-40 0 -74 -14 q-34 -14 -58.5 -41.5 q-24.5 -27.5 -38.5 -68 q-14 -40.5 -14 -93.5 q0 -53 14 -93.5 q14 -40.5 38.5 -68 q24.5 -27.5 58.5 -41.5 q34 -14 74 -14 Z" /><glyph glyph-name="r" unicode="r" d="M320 466 q-62 -5 -109.5 -36.5 q-47.5 -31.5 -70.5 -95.5 l0 -334 l-59 0 l0 519 l53 0 l5 -124 l2 0 q9 24 24.5 46.5 q15.5 22.5 37.5 40.5 q22 18 51 30.5 q29 12.5 66 16.5 l0 -63 l0 0 Z" /><glyph glyph-name="s" unicode="s" d="M234 -10 q-74 0 -120 16.5 q-46 16.5 -70 32.5 l14 53 q24 -18 69 -35 q45 -17 108 -17 q27 0 52 5.5 q25 5.5 43.5 17.5 q18.5 12 30 31 q11.5 19 11.5 46 q0 27 -10.5 44 q-10.5 17 -29 28 q-18.5 11 -45 17.5 q-26.5 6.5 -58.5 13.5 q-36 7 -68 17 q-32 10 -56 26 q-24 16 -38 40.5 q-14 24.5 -14 60.5 q0 70 52.5 106 q52.5 36 138.5 36 q58 0 97 -10.5 q39 -10.5 65 -24.5 l-15 -51 q-26 14 -60 25 q-34 11 -87 11 q-58 0 -95.5 -20 q-37.5 -20 -37.5 -71 q0 -22 9 -36.5 q9 -14.5 26.5 -24.5 q17.5 -10 41.5 -17 q24 -7 54 -13 q36 -8 70.5 -17 q34.5 -9 60.5 -25.5 q26 -16.5 42 -43.5 q16 -27 16 -70 q0 -42 -16.5 -70.5 q-16.5 -28.5 -43.5 -46.5 q-27 -18 -62.5 -26 q-35.5 -8 -74.5 -8 Z" /><glyph glyph-name="t" unicode="t" d="M320 8 q-14 -8 -37.5 -13 q-23.5 -5 -48.5 -5 q-35 0 -60 10 q-25 10 -41 26.5 q-16 16.5 -23.5 39 q-7.5 22.5 -7.5 48.5 l0 354 l-68 0 l0 51 l68 0 l0 109 l60 0 l0 -109 l150 0 l0 -51 l-150 0 l0 -347 q0 -36 18 -57 q18 -21 60 -21 q20 0 37.5 4.5 q17.5 4.5 31.5 11.5 l11 -51 l0 0 Z" /><glyph glyph-name="u" unicode="u" d="M429 107 q-10 -24 -26 -45 q-16 -21 -39 -37 q-23 -16 -53.5 -25.5 q-30.5 -9.5 -68.5 -9.5 q-77 0 -121.5 43 q-44.5 43 -44.5 128 l0 358 l59 0 l0 -358 q0 -65 34 -91.5 q34 -26.5 87 -26.5 q35 0 62 9.5 q27 9.5 48 26 q21 16.5 36.5 39 q15.5 22.5 27.5 49.5 l0 352 l59 0 l0 -519 l-53 0 l-5 107 l-2 0 l0 0 Z" /><glyph glyph-name="v" unicode="v" d="M25 519 l63 0 l163 -484 l167 484 l60 0 l-183 -519 l-94 0 l-176 519 Z" /><glyph glyph-name="w" unicode="w" d="M32 519 l62 0 l111 -472 l131 472 l70 0 l129 -472 l111 472 l58 0 l-124 -519 l-91 0 l-122 439 l-122 -439 l-88 0 l-125 519 Z" /><glyph glyph-name="x" unicode="x" d="M238 224 l-156 -224 l-60 0 l186 269 l-175 250 l71 0 l144 -206 l140 206 l62 0 l-171 -249 l187 -270 l-70 0 l-158 224 Z" /><glyph glyph-name="y" unicode="y" d="M102 -187 q-29 0 -46 7 l7 51 q6 -2 15 -3.5 q9 -1.5 23 -1.5 q41 0 67 28.5 q26 28.5 52 88.5 l-201 536 l64 0 l169 -460 l174 460 l58 0 l-193 -512 q-18 -47 -36.5 -83.5 q-18.5 -36.5 -40.5 -61 q-22 -24.5 -49 -37 q-27 -12.5 -63 -12.5 Z" /><glyph glyph-name="z" unicode="z" d="M37 0 l0 39 l302 429 l-294 0 l0 51 l369 0 l0 -38 l-302 -430 l303 0 l0 -51 l-378 0 Z" /><glyph glyph-name="braceleft" unicode="{" d="M269 -137 q-86 -10 -131.5 24.5 q-45.5 34.5 -45.5 106.5 q0 25 5.5 47 q5.5 22 12.5 43.5 q7 21.5 12 44.5 q5 23 5 49 q0 19 -3.5 36.5 q-3.5 17.5 -14 32 q-10.5 14.5 -30 24 q-19.5 9.5 -52.5 12.5 l0 51 q33 3 52.5 12.5 q19.5 9.5 30 24 q10.5 14.5 14 33 q3.5 18.5 3.5 38.5 q0 25 -5.5 47.5 q-5.5 22.5 -12 44 q-6.5 21.5 -12 42.5 q-5.5 21 -5.5 45 q0 72 44.5 108.5 q44.5 36.5 132.5 25.5 l0 -48 q-63 5 -90 -17 q-27 -22 -27 -70 q0 -24 5 -45 q5 -21 10.5 -42 q5.5 -21 10.5 -43 q5 -22 5 -48 q0 -21 -4 -40.5 q-4 -19.5 -14.5 -37 q-10.5 -17.5 -29 -31.5 q-18.5 -14 -48.5 -24 q30 -10 48.5 -24.5 q18.5 -14.5 29 -31.5 q10.5 -17 14.5 -36 q4 -19 4 -39 q0 -27 -5 -49.5 q-5 -22.5 -10.5 -43.5 q-5.5 -21 -10.5 -42.5 q-5 -21.5 -5 -46.5 q0 -48 27 -69.5 q27 -21.5 90 -15.5 l0 -48 l0 0 Z" /><glyph glyph-name="bar" unicode="|" d="M159 756 l0 -876 l-56 0 l0 876 l56 0 Z" /><glyph glyph-name="asciitilde" unicode="~" d="M51 252 q-3 30 2.5 59 q5.5 29 21 51.5 q15.5 22.5 42 36.5 q26.5 14 64.5 14 q42 0 72.5 -16 q30.5 -16 56.5 -35 q26 -19 50.5 -35 q24.5 -16 54.5 -16 q41 0 60.5 25.5 q19.5 25.5 17.5 82.5 l52 0 q3 -30 -2.5 -59 q-5.5 -29 -21 -51.5 q-15.5 -22.5 -42 -36.5 q-26.5 -14 -64.5 -14 q-42 0 -72.5 16 q-30.5 16 -56.5 35 q-26 19 -50.5 35 q-24.5 16 -54.5 16 q-39 0 -59 -25.5 q-20 -25.5 -18 -82.5 l-53 0 l0 0 Z" /><glyph glyph-name="nonbreakingspace" unicode=" " d="" /><glyph glyph-name="cent" unicode="¢" d="M323 642 l0 -113 q35 -2 66 -10 q40 -9 69 -27 l-15 -52 q-26 15 -61 26 q-28 8 -59 10 l0 -433 q31 2 56 10 q34 10 62 28 l15 -50 q-26 -19 -64 -30 q-30 -9 -69 -10 l0 -131 l-51 0 l0 132 q-38 3 -72 16 q-47 18 -81.5 52.5 q-34.5 34.5 -53.5 84.5 q-19 50 -19 114 q0 63 19 113.5 q19 50.5 53.5 85 q34.5 34.5 82.5 52.5 q33 13 71 17 l0 115 l51 0 ZM160 420 q-54 -56 -54 -161 q0 -51 14.5 -91 q14.5 -40 40.5 -68 q26 -28 62 -43 q23 -9 49 -13 l0 431 q-69 -9 -112 -55 Z" /><glyph glyph-name="sterling" unicode="£" d="M518 0 l-469 0 l0 36 q51 42 77.5 85.5 q26.5 43.5 26.5 102.5 q0 25 -4 48 q-4 23 -11 46 l-93 0 l0 50 l77 0 q-12 35 -22 71 q-10 36 -10 77 q0 95 57.5 152.5 q57.5 57.5 172.5 57.5 q64 0 104 -15 q40 -15 62 -33 l-12 -56 q-23 20 -62.5 35 q-39.5 15 -90.5 15 q-48 0 -80.5 -13 q-32.5 -13 -52.5 -34.5 q-20 -21.5 -28.5 -50.5 q-8.5 -29 -8.5 -62 q1 -41 11.5 -75 q10.5 -34 21.5 -69 l194 0 l0 -50 l-178 0 q5 -18 7.5 -37 q2.5 -19 2.5 -39 q0 -56 -19 -100 q-19 -44 -63 -88 l390 0 l0 -54 Z" /><glyph glyph-name="currency" unicode="¤" d="M278 496 q-30 0 -57 -11 q-27 -11 -46.5 -31 q-19.5 -20 -31 -48.5 q-11.5 -28.5 -11.5 -63.5 q0 -35 11.5 -63 q11.5 -28 31 -48 q19.5 -20 46.5 -31 q27 -11 57 -11 q30 0 56.5 11 q26.5 11 46 31 q19.5 20 31 48 q11.5 28 11.5 63 q0 35 -11.5 63.5 q-11.5 28.5 -31 48.5 q-19.5 20 -46 31 q-26.5 11 -56.5 11 ZM402 183 q-26 -20 -58 -31.5 q-32 -11.5 -67 -11.5 q-36 0 -67.5 11 q-31.5 11 -57.5 31 l-68 -68 l-35 35 l68 68 q-20 26 -31 57.5 q-11 31.5 -11 67.5 q0 37 11 68.5 q11 31.5 31 57.5 l-68 68 l35 35 l68 -68 q26 20 57.5 31 q31.5 11 67.5 11 q72 0 125 -42 l68 69 l35 -36 l-68 -68 q20 -26 31.5 -57.5 q11.5 -31.5 11.5 -68.5 q0 -36 -11.5 -67.5 q-11.5 -31.5 -31.5 -57.5 l68 -68 l-35 -34 l-68 68 Z" /><glyph glyph-name="yen" unicode="¥" d="M309 165 l0 -165 l-60 0 l0 165 l-177 0 l0 48 l177 0 l0 102 l-177 0 l0 48 l164 0 l-211 353 l69 0 l187 -321 l189 321 l63 0 l-211 -353 l165 0 l0 -48 l-178 0 l0 -102 l178 0 l0 -48 l-178 0 Z" /><glyph glyph-name="brokenbar" unicode="¦" d="M159 756 l0 -400 l-56 0 l0 400 l56 0 ZM159 280 l0 -400 l-56 0 l0 400 l56 0 Z" /><glyph glyph-name="section" unicode="§" d="M299 163 q34 0 63.5 6.5 q29.5 6.5 51 20 q21.5 13.5 34 33.5 q12.5 20 12.5 48 q0 57 -49.5 86.5 q-49.5 29.5 -140.5 29.5 q-78 0 -121.5 -26.5 q-43.5 -26.5 -43.5 -82.5 q0 -33 17.5 -55 q17.5 -22 45.5 -35.5 q28 -13.5 62.5 -19 q34.5 -5.5 68.5 -5.5 ZM253 -187 q-44 0 -79 6.5 q-35 6.5 -60.5 15.5 q-25.5 9 -43 19.5 q-17.5 10.5 -26.5 18.5 l10 52 q11 -9 29.5 -19.5 q18.5 -10.5 44 -20 q25.5 -9.5 57 -16 q31.5 -6.5 67.5 -6.5 q33 0 63.5 6.5 q30.5 6.5 53 20.5 q22.5 14 36 36 q13.5 22 13.5 54 q0 31 -11.5 52 q-11.5 21 -34 36 q-22.5 15 -54.5 25.5 q-32 10.5 -74 18.5 q-36 7 -71 18 q-35 11 -62.5 29 q-27.5 18 -45 46 q-17.5 28 -17.5 70 q0 59 38 98 q38 39 108 50 q-51 23 -77.5 57 q-26.5 34 -26.5 87 q0 78 58 118.5 q58 40.5 164 40.5 q34 0 60 -3.5 q26 -3.5 46 -9 q20 -5.5 36 -12 q16 -6.5 29 -13.5 l-11 -52 q-30 18 -69.5 29 q-39.5 11 -91.5 11 q-81 0 -122.5 -25 q-41.5 -25 -41.5 -82 q0 -30 12 -50.5 q12 -20.5 33 -34.5 q21 -14 50 -23 q29 -9 63 -15 q34 -7 72 -17 q38 -10 69.5 -28.5 q31.5 -18.5 52 -48.5 q20.5 -30 20.5 -77 q0 -60 -38 -96 q-38 -36 -105 -50 q48 -21 74 -56.5 q26 -35.5 26 -91.5 q0 -47 -19 -79.5 q-19 -32.5 -50.5 -52 q-31.5 -19.5 -71.5 -28 q-40 -8.5 -82 -8.5 Z" /><glyph glyph-name="dieresis" unicode="¨" d="M328 619 q-20 0 -31 12.5 q-11 12.5 -11 29.5 q0 17 11 30 q11 13 31 13 q20 0 31 -13 q11 -13 11 -30 q0 -17 -11 -29.5 q-11 -12.5 -31 -12.5 ZM127 619 q-20 0 -31 12.5 q-11 12.5 -11 29.5 q0 17 11 30 q11 13 31 13 q20 0 31.5 -13 q11.5 -13 11.5 -30 q0 -17 -11.5 -29.5 q-11.5 -12.5 -31.5 -12.5 Z" /><glyph glyph-name="copyright" unicode="©" d="M454 -96 q-87 0 -162 30.5 q-75 30.5 -130.5 85.5 q-55.5 55 -87 130.5 q-31.5 75.5 -31.5 165.5 q0 90 31.5 165 q31.5 75 87 129.5 q55.5 54.5 130.5 85 q75 30.5 162 30.5 q87 0 162 -30.5 q75 -30.5 130.5 -85 q55.5 -54.5 87 -129.5 q31.5 -75 31.5 -165 q0 -90 -31.5 -165.5 q-31.5 -75.5 -87 -130.5 q-55.5 -55 -130.5 -85.5 q-75 -30.5 -162 -30.5 ZM454 -52 q81 0 147.5 27.5 q66.5 27.5 114 76.5 q47.5 49 74 116.5 q26.5 67.5 26.5 147.5 q0 79 -26.5 146.5 q-26.5 67.5 -74 116 q-47.5 48.5 -114 76 q-66.5 27.5 -147.5 27.5 q-80 0 -147 -27.5 q-67 -27.5 -115 -76 q-48 -48.5 -74.5 -116 q-26.5 -67.5 -26.5 -146.5 q0 -80 26.5 -147.5 q26.5 -67.5 74.5 -116.5 q48 -49 115 -76.5 q67 -27.5 147 -27.5 ZM469 100 q-96 0 -151 56.5 q-55 56.5 -55 156.5 q0 102 56 159 q56 57 149 57 q43 0 73.5 -10.5 q30.5 -10.5 48.5 -24.5 l-14 -48 q-19 17 -48 26 q-29 9 -61 9 q-69 0 -109 -43 q-40 -43 -40 -124 q0 -81 39.5 -123.5 q39.5 -42.5 109.5 -42.5 q34 0 61.5 10.5 q27.5 10.5 46.5 27.5 l15 -47 q-17 -15 -47 -27 q-30 -12 -74 -12 Z" /><glyph glyph-name="ordfeminine" unicode="ª" d="M199 362 q40 0 67.5 16.5 q27.5 16.5 45 38 q17.5 21.5 25 42.5 q7.5 21 7.5 29 l0 58 l-93 0 q-79 0 -115.5 -24.5 q-36.5 -24.5 -36.5 -69.5 q0 -44 26.5 -67 q26.5 -23 73.5 -23 ZM345 415 q-7 -17 -19.5 -35 q-12.5 -18 -31 -32.5 q-18.5 -14.5 -45 -24 q-26.5 -9.5 -61.5 -9.5 q-65 0 -104 36 q-39 36 -39 99 q0 71 52.5 105.5 q52.5 34.5 148.5 34.5 l98 0 l0 41 q0 104 -113 104 q-48 0 -84.5 -14 q-36.5 -14 -62.5 -31 l-11 48 q22 15 63.5 30 q41.5 15 95.5 15 q77 0 121.5 -34.5 q44.5 -34.5 44.5 -106.5 l0 -237 q0 -22 1 -44.5 q1 -22.5 3 -36.5 l-49 0 q-3 14 -5 35.5 q-2 21.5 -2 45.5 l-1 11 Z" /><glyph glyph-name="guillemotleft" unicode="«" d="M194 69 l-143 195 l143 195 l64 0 l-144 -195 l144 -195 l-64 0 ZM397 69 l-145 195 l145 195 l63 0 l-144 -195 l144 -195 l-63 0 Z" /><glyph glyph-name="logicalnot" unicode="¬" d="M477 112 l0 212 l-426 0 l0 48 l482 0 l0 -260 l-56 0 Z" /><glyph glyph-name="registered" unicode="®" d="M454 -96 q-87 0 -162 30.5 q-75 30.5 -130.5 85.5 q-55.5 55 -87 130.5 q-31.5 75.5 -31.5 165.5 q0 90 31.5 165 q31.5 75 87 129.5 q55.5 54.5 130.5 85 q75 30.5 162 30.5 q87 0 162 -30.5 q75 -30.5 130.5 -85 q55.5 -54.5 87 -129.5 q31.5 -75 31.5 -165 q0 -90 -31.5 -165.5 q-31.5 -75.5 -87 -130.5 q-55.5 -55 -130.5 -85.5 q-75 -30.5 -162 -30.5 ZM454 -52 q81 0 147.5 27.5 q66.5 27.5 114 76.5 q47.5 49 74 116.5 q26.5 67.5 26.5 147.5 q0 79 -26.5 146.5 q-26.5 67.5 -74 116 q-47.5 48.5 -114 76 q-66.5 27.5 -147.5 27.5 q-80 0 -147 -27.5 q-67 -27.5 -115 -76 q-48 -48.5 -74.5 -116 q-26.5 -67.5 -26.5 -146.5 q0 -80 26.5 -147.5 q26.5 -67.5 74.5 -116.5 q48 -49 115 -76.5 q67 -27.5 147 -27.5 ZM379 476 l0 -150 l79 0 q45 0 71.5 18 q26.5 18 26.5 60 q0 38 -23 55 q-23 17 -68 17 l-86 0 ZM460 278 l-81 0 l0 -171 l-54 0 l0 417 l140 0 q71 0 109 -28.5 q38 -28.5 38 -88.5 q0 -53 -25.5 -82 q-25.5 -29 -70.5 -39 l108 -179 l-62 0 l-102 171 Z" /><glyph glyph-name="macron" unicode="¯" d="M97 677 l262 0 l0 -50 l-262 0 l0 50 Z" /><glyph glyph-name="degree" unicode="°" d="M255 362 q-39 0 -72.5 13.5 q-33.5 13.5 -58 38 q-24.5 24.5 -38 58 q-13.5 33.5 -13.5 72.5 q0 40 13.5 73.5 q13.5 33.5 38 57.5 q24.5 24 58 37.5 q33.5 13.5 72.5 13.5 q39 0 72.5 -13.5 q33.5 -13.5 58 -37.5 q24.5 -24 38 -57.5 q13.5 -33.5 13.5 -73.5 q0 -39 -13.5 -72.5 q-13.5 -33.5 -38 -58 q-24.5 -24.5 -58 -38 q-33.5 -13.5 -72.5 -13.5 ZM255 406 q61 0 97 37.5 q36 37.5 36 100.5 q0 63 -36 100.5 q-36 37.5 -97 37.5 q-61 0 -97.5 -37.5 q-36.5 -37.5 -36.5 -100.5 q0 -63 36.5 -100.5 q36.5 -37.5 97.5 -37.5 Z" /><glyph glyph-name="acute" unicode="´" d="M246 746 l79 0 l-114 -153 l-53 0 l88 153 Z" /><glyph glyph-name="paragraph" unicode="¶" d="M531 -187 l-56 0 l0 903 l56 0 l0 -903 ZM328 -187 l0 466 l-30 0 q-57 0 -103.5 14 q-46.5 14 -80.5 41 q-34 27 -52.5 68 q-18.5 41 -18.5 95 q0 109 64.5 164 q64.5 55 182.5 55 l95 0 l0 -903 l-57 0 Z" /><glyph glyph-name="cedilla" unicode="¸" d="M272 14 l-59 -185 l-69 0 l75 185 l53 0 Z" /><glyph glyph-name="ordmasculine" unicode="º" d="M249 314 q-46 0 -85 16 q-39 16 -67.5 46 q-28.5 30 -45 73.5 q-16.5 43.5 -16.5 99.5 q0 55 16.5 98.5 q16.5 43.5 45 73.5 q28.5 30 67.5 45.5 q39 15.5 85 15.5 q46 0 85.5 -15.5 q39.5 -15.5 68.5 -45.5 q29 -30 45.5 -73.5 q16.5 -43.5 16.5 -98.5 q0 -56 -16.5 -99.5 q-16.5 -43.5 -45.5 -73.5 q-29 -30 -68.5 -46 q-39.5 -16 -85.5 -16 ZM249 363 q34 0 63.5 12 q29.5 12 51.5 35 q22 23 34 58 q12 35 12 81 q0 46 -12 80.5 q-12 34.5 -34 58 q-22 23.5 -51.5 35 q-29.5 11.5 -63.5 11.5 q-69 0 -114 -46.5 q-45 -46.5 -45 -138.5 q0 -93 45 -139.5 q45 -46.5 114 -46.5 Z" /><glyph glyph-name="guillemotright" unicode="»" d="M189 264 l-143 195 l63 0 l144 -195 l-144 -195 l-63 0 l143 195 ZM391 264 l-143 195 l63 0 l144 -195 l-144 -195 l-63 0 l143 195 Z" /><glyph glyph-name="AE" unicode="æ" d="M473 672 l-228 -389 l228 0 l0 389 ZM473 226 l-261 0 l-133 -226 l-64 0 l420 716 l462 0 l0 -57 l-360 0 l0 -258 l307 0 l0 -57 l-307 0 l0 -287 l365 0 l0 -57 l-429 0 l0 226 Z" /><glyph glyph-name="Ccedilla" unicode="ç" d="M253 15 q-63 26 -108 73.5 q-45 47.5 -69.5 115.5 q-24.5 68 -24.5 154 q0 87 23.5 155 q23.5 68 68 115.5 q44.5 47.5 107.5 72.5 q63 25 142 25 q76 0 129.5 -18.5 q53.5 -18.5 85.5 -43.5 l-13 -62 q-37 30 -88 48.5 q-51 18.5 -114 18.5 q-131 0 -202.5 -80 q-71.5 -80 -71.5 -231 q0 -151 74 -231 q74 -80 206 -80 q60 0 106.5 17.5 q46.5 17.5 84.5 46.5 l18 -54 q-30 -26 -83 -46.5 q-53 -20.5 -129 -20.5 l-53 -166 l-69 0 l68 169 q-46 6 -88 22 Z" /><glyph glyph-name="Idieresis" unicode="ï" d="M219 801 q-20 0 -31.5 12.5 q-11.5 12.5 -11.5 29.5 q0 17 11.5 30 q11.5 13 31.5 13 q20 0 31 -13 q11 -13 11 -30 q0 -17 -11 -29.5 q-11 -12.5 -31 -12.5 ZM31 801 q-20 0 -31.5 12.5 q-11.5 12.5 -11.5 29.5 q0 17 11.5 30 q11.5 13 31.5 13 q20 0 31 -13 q11 -13 11 -30 q0 -17 -11 -29.5 q-11 -12.5 -31 -12.5 ZM156 716 l0 -716 l-64 0 l0 716 l64 0 Z" /><glyph glyph-name="Eth" unicode="ð" d="M190 340 l0 -283 l164 0 q60 0 110.5 19.5 q50.5 19.5 87 59 q36.5 39.5 57.5 99.5 q21 60 21 141 q0 81 -20.5 135.5 q-20.5 54.5 -56.5 87 q-36 32.5 -84.5 46.5 q-48.5 14 -103.5 14 l-175 0 l0 -267 l228 0 l0 -52 l-228 0 ZM126 340 l-105 0 l0 52 l105 0 l0 324 l239 0 q69 0 129.5 -17.5 q60.5 -17.5 105.5 -57 q45 -39.5 71 -104 q26 -64.5 26 -158.5 q0 -94 -26 -165 q-26 -71 -72.5 -118.5 q-46.5 -47.5 -109.5 -71.5 q-63 -24 -136 -24 l-227 0 l0 340 Z" /><glyph glyph-name="Oslash" unicode="ø" d="M388 -10 q-72 0 -134 25 q-11 4 -22 10 l-54 -95 l-62 0 l69 123 q-20 16 -38 34 q-45 48 -70.5 116.5 q-25.5 68.5 -25.5 155.5 q0 89 25.5 157.5 q25.5 68.5 71 115 q45.5 46.5 107 70.5 q61.5 24 133.5 24 q73 0 134 -24 q12 -5 24 -10 l53 94 l62 0 l-69 -122 q20 -15 37 -33 q45 -46 70.5 -114.5 q25.5 -68.5 25.5 -157.5 q0 -87 -25.5 -155.5 q-25.5 -68.5 -70.5 -116 q-45 -47.5 -106.5 -72.5 q-61.5 -25 -134.5 -25 ZM496 650 q-49 19 -108 19 q-59 0 -108.5 -19 q-49.5 -19 -85.5 -57.5 q-36 -38.5 -56 -97 q-20 -58.5 -20 -137.5 q0 -79 20 -137.5 q20 -58.5 56 -97.5 q9 -10 20 -19 l303 537 q-10 5 -21 9 ZM388 47 q59 0 108.5 19 q49.5 19 85.5 57.5 q36 38.5 56.5 97 q20.5 58.5 20.5 137.5 q0 79 -20.5 137.5 q-20.5 58.5 -56.5 96.5 q-9 10 -20 19 l-303 -537 q10 -4 20 -8 q50 -19 109 -19 Z" /><glyph glyph-name="Thorn" unicode="þ" d="M156 507 l0 -298 l152 0 q88 0 136.5 36 q48.5 36 48.5 122 q0 72 -44 106 q-44 34 -131 34 l-162 0 ZM156 152 l0 -152 l-64 0 l0 716 l64 0 l0 -152 l162 0 q113 0 175.5 -47 q62.5 -47 62.5 -150 q0 -56 -17.5 -97 q-17.5 -41 -50 -67 q-32.5 -26 -78 -38.5 q-45.5 -12.5 -102.5 -12.5 l-152 0 Z" /><glyph glyph-name="germandbls" unicode="ß" d="M375 -10 q-47 0 -80 8.5 q-33 8.5 -56 22.5 l12 51 q24 -14 53.5 -23 q29.5 -9 69.5 -9 q54 0 84 25 q30 25 30 69 q0 21 -8.5 37 q-8.5 16 -23 28 q-14.5 12 -33 21 q-18.5 9 -38.5 18 q-21 9 -42.5 19 q-21.5 10 -38 23.5 q-16.5 13.5 -27 32.5 q-10.5 19 -10.5 45 q0 26 11 44.5 q11 18.5 28 33.5 q17 15 36.5 28 q19.5 13 36.5 28.5 q17 15.5 28 34.5 q11 19 11 46 q0 50 -36 75 q-36 25 -93 25 q-71 0 -110 -41 q-39 -41 -39 -121 l0 -511 l-59 0 l0 511 q0 100 54 157.5 q54 57.5 154 57.5 q91 0 139 -42.5 q48 -42.5 48 -108.5 q0 -32 -11.5 -55 q-11.5 -23 -28 -41 q-16.5 -18 -36.5 -32.5 q-20 -14.5 -36.5 -27.5 q-16.5 -13 -28 -27 q-11.5 -14 -11.5 -31 q0 -14 7.5 -24.5 q7.5 -10.5 20.5 -19 q13 -8.5 29 -16.5 q16 -8 34 -15 q23 -11 47 -23 q24 -12 43 -29 q19 -17 31 -41 q12 -24 12 -57 q0 -38 -13 -65.5 q-13 -27.5 -36.5 -45.5 q-23.5 -18 -55 -26.5 q-31.5 -8.5 -68.5 -8.5 Z" /><glyph glyph-name="ae" unicode="æ" d="M629 482 q-33 0 -62.5 -11.5 q-29.5 -11.5 -53 -33.5 q-23.5 -22 -39 -55.5 q-15.5 -33.5 -20.5 -76.5 l326 0 q3 45 -8 78.5 q-11 33.5 -32 55.5 q-21 22 -49.5 32.5 q-28.5 10.5 -61.5 10.5 ZM221 43 q40 0 69.5 13.5 q29.5 13.5 50 33.5 q20.5 20 33 42 q12.5 22 18.5 39 l0 87 l-112 0 q-92 0 -134 -28.5 q-42 -28.5 -42 -82.5 q0 -50 31.5 -77 q31.5 -27 85.5 -27 ZM648 -5 q-85 0 -142.5 35 q-57.5 35 -84.5 101 q-7 -20 -22 -44.5 q-15 -24.5 -39.5 -46 q-24.5 -21.5 -60 -36 q-35.5 -14.5 -84.5 -14.5 q-80 0 -125 41 q-45 41 -45 114 q0 82 60 122 q60 40 171 40 l116 0 l0 40 q0 63 -33.5 96.5 q-33.5 33.5 -105.5 33.5 q-52 0 -95 -16 q-43 -16 -70 -34 l-16 51 q27 19 74 35 q47 16 110 16 q70 0 116.5 -25.5 q46.5 -25.5 63.5 -80.5 q30 54 80 82.5 q50 28.5 114 28.5 q51 0 93 -17.5 q42 -17.5 70 -53 q28 -35.5 39.5 -88 q11.5 -52.5 0.5 -121.5 l-381 0 q3 -100 54.5 -153 q51.5 -53 145.5 -53 q56 0 98 18.5 q42 18.5 64 35.5 l16 -52 q-9 -8 -25 -17.5 q-16 -9.5 -39 -17.5 q-23 -8 -52.5 -14 q-29.5 -6 -65.5 -6 Z" /><glyph glyph-name="ccedilla" unicode="ç" d="M197 8 q-47 18 -81.5 52.5 q-34.5 34.5 -53.5 84.5 q-19 50 -19 114 q0 63 19 113.5 q19 50.5 53.5 85 q34.5 34.5 82.5 53 q48 18.5 105 18.5 q44 0 83.5 -9.5 q39.5 -9.5 68.5 -27.5 l-15 -52 q-26 15 -61 26 q-35 11 -76 11 q-92 0 -146 -56.5 q-54 -56.5 -54 -161.5 q0 -51 14.5 -91 q14.5 -40 40.5 -68 q26 -28 62.5 -42.5 q36.5 -14.5 80.5 -14.5 q42 0 75.5 10 q33.5 10 61.5 28 l15 -50 q-26 -19 -64 -30 q-33 -10 -78 -11 l-51 -161 l-69 0 l66 164 q-31 4 -60 15 Z" /><glyph glyph-name="idieresis" unicode="ï" d="M188 619 q-20 0 -31 12.5 q-11 12.5 -11 29.5 q0 17 11 30 q11 13 31 13 q20 0 31 -13 q11 -13 11 -30 q0 -17 -11 -29.5 q-11 -12.5 -31 -12.5 ZM33 619 q-20 0 -31.5 12.5 q-11.5 12.5 -11.5 29.5 q0 17 11.5 30 q11.5 13 31.5 13 q20 0 32 -13 q12 -13 12 -30 q0 -17 -12 -29.5 q-12 -12.5 -32 -12.5 ZM140 519 l0 -519 l-59 0 l0 519 l59 0 Z" /><glyph glyph-name="eth" unicode="ð" d="M289 -10 q-53 0 -98 18.5 q-45 18.5 -78 53 q-33 34.5 -51.5 84.5 q-18.5 50 -18.5 114 q0 64 18.5 113.5 q18.5 49.5 51 83 q32.5 33.5 76.5 50.5 q44 17 95 17 q52 0 91.5 -17 q39.5 -17 69.5 -54 q-23 48 -56 87.5 q-33 39.5 -75 71.5 l-164 -53 l-12 40 l133 43 q-35 22 -71 38.5 q-36 16.5 -72 27.5 l0 8 l86 0 q27 -8 56.5 -21.5 q29.5 -13.5 59.5 -32.5 l120 39 l12 -40 l-91 -30 q34 -28 65 -63.5 q31 -35.5 54.5 -78 q23.5 -42.5 37 -93 q13.5 -50.5 13.5 -107.5 q0 -75 -19.5 -131 q-19.5 -56 -53 -93.5 q-33.5 -37.5 -79.5 -56 q-46 -18.5 -100 -18.5 ZM288 43 q40 0 75 14 q35 14 60 43 q25 29 39.5 73.5 q14.5 44.5 14.5 105.5 q0 31 -3.5 60 q-3.5 29 -11.5 52 q-24 36 -65 59 q-41 23 -106 23 q-41 0 -75.5 -13 q-34.5 -13 -59.5 -39.5 q-25 -26.5 -39 -66.5 q-14 -40 -14 -94 q0 -54 14 -94.5 q14 -40.5 38.5 -67.5 q24.5 -27 58.5 -41 q34 -14 74 -14 Z" /><glyph glyph-name="divide" unicode="÷" d="M292 91 q-23 0 -36.5 14.5 q-13.5 14.5 -13.5 34.5 q0 22 13.5 36 q13.5 14 36.5 14 q22 0 35.5 -14 q13.5 -14 13.5 -36 q0 -20 -13.5 -34.5 q-13.5 -14.5 -35.5 -14.5 ZM292 485 q-23 0 -36.5 14.5 q-13.5 14.5 -13.5 34.5 q0 22 13.5 36 q13.5 14 36.5 14 q22 0 35.5 -14 q13.5 -14 13.5 -36 q0 -20 -13.5 -34.5 q-13.5 -14.5 -35.5 -14.5 ZM64 313 l0 49 l456 0 l0 -49 l-456 0 Z" /><glyph glyph-name="oslash" unicode="ø" d="M103 260 q0 -63 19.5 -108.5 q19.5 -45.5 52.5 -71.5 l183 385 q-32 12 -69 12 q-40 0 -74 -13.5 q-34 -13.5 -59 -41 q-25 -27.5 -39 -68 q-14 -40.5 -14 -94.5 ZM289 43 q40 0 74.5 14 q34.5 14 59.5 41 q25 27 39.5 67.5 q14.5 40.5 14.5 94.5 q0 64 -19.5 109 q-19.5 45 -54.5 72 l-184 -386 q33 -12 70 -12 ZM289 -10 q-47 0 -93 16 l-41 -86 l-56 0 l52 109 q-50 33 -79 91.5 q-29 58.5 -29 139.5 q0 64 18.5 114 q18.5 50 51.5 84.5 q33 34.5 78 52.5 q45 18 98 18 q51 0 92 -16 l41 86 l57 0 l-52 -109 q51 -32 80.5 -90.5 q29.5 -58.5 29.5 -139.5 q0 -64 -19 -114.5 q-19 -50.5 -52 -85 q-33 -34.5 -78.5 -52.5 q-45.5 -18 -98.5 -18 Z" /><glyph glyph-name="thorn" unicode="þ" d="M326 43 q40 0 73.5 14 q33.5 14 58 41.5 q24.5 27.5 38.5 68 q14 40.5 14 93.5 q0 53 -14 93.5 q-14 40.5 -38.5 68 q-24.5 27.5 -58 41.5 q-33.5 14 -73.5 14 q-40 0 -74.5 -14 q-34.5 -14 -59.5 -41.5 q-25 -27.5 -39 -68 q-14 -40.5 -14 -93.5 q0 -53 14 -93.5 q14 -40.5 39 -68 q25 -27.5 59.5 -41.5 q34.5 -14 74.5 -14 ZM332 -10 q-67 0 -116 32.5 q-49 32.5 -76 91.5 l0 -291 l-59 0 l0 893 l59 0 l1 -306 q26 57 74.5 88 q48.5 31 116.5 31 q49 0 92.5 -17.5 q43.5 -17.5 76 -51 q32.5 -33.5 51 -84 q18.5 -50.5 18.5 -116.5 q0 -66 -19 -116.5 q-19 -50.5 -51 -84.5 q-32 -34 -75.5 -51.5 q-43.5 -17.5 -92.5 -17.5 Z" /><glyph glyph-name="dotlessi" unicode="&#x131;" d="M140 519 l0 -519 l-59 0 l0 519 l59 0 Z" /><glyph glyph-name="Lslash" unicode="&#x141;" d="M22 267 l92 51 l0 398 l64 0 l0 -363 l239 134 l0 -62 l-239 -134 l0 -234 l351 0 l0 -57 l-415 0 l0 256 l-92 -51 l0 62 Z" /><glyph glyph-name="lslash" unicode="&#x142;" d="M17 297 l95 77 l0 342 l59 0 l0 -294 l97 80 l0 -58 l-97 -80 l0 -364 l-59 0 l0 316 l-95 -77 l0 58 Z" /><glyph glyph-name="OE" unicode="&#x152;" d="M500 57 l0 602 l-97 0 q-60 0 -112 -14.5 q-52 -14.5 -90.5 -48.5 q-38.5 -34 -60.5 -91 q-22 -57 -22 -141 q0 -78 22 -135.5 q22 -57.5 60.5 -96 q38.5 -38.5 92 -57 q53.5 -18.5 116.5 -18.5 l91 0 ZM400 0 q-75 0 -139 23 q-64 23 -110.5 68.5 q-46.5 45.5 -73 114 q-26.5 68.5 -26.5 158.5 q0 99 27.5 166 q27.5 67 75 108.5 q47.5 41.5 112 59.5 q64.5 18 138.5 18 l510 0 l0 -57 l-351 0 l0 -258 l303 0 l0 -57 l-303 0 l0 -287 l356 0 l0 -57 l-519 0 Z" /><glyph glyph-name="oe" unicode="&#x153;" d="M718 477 q-69 0 -118.5 -44.5 q-49.5 -44.5 -60.5 -132.5 l333 0 q3 45 -8 78.5 q-11 33.5 -32 55.5 q-21 22 -50.5 32.5 q-29.5 10.5 -63.5 10.5 ZM289 43 q40 0 74.5 14 q34.5 14 59.5 41 q25 27 39.5 67.5 q14.5 40.5 14.5 94.5 q0 54 -14.5 94.5 q-14.5 40.5 -39.5 68 q-25 27.5 -59.5 41 q-34.5 13.5 -74.5 13.5 q-40 0 -74 -13.5 q-34 -13.5 -59 -41 q-25 -27.5 -39 -68 q-14 -40.5 -14 -94.5 q0 -54 14 -94.5 q14 -40.5 39 -67.5 q25 -27 59 -41 q34 -14 74 -14 ZM917 45 q-25 -18 -68 -36.5 q-43 -18.5 -111 -18.5 q-89 0 -147.5 36.5 q-58.5 36.5 -84.5 104.5 q-29 -69 -85.5 -105 q-56.5 -36 -131.5 -36 q-53 0 -98 18 q-45 18 -78 52.5 q-33 34.5 -51.5 85 q-18.5 50.5 -18.5 114.5 q0 64 18.5 114 q18.5 50 51.5 84.5 q33 34.5 78 52.5 q45 18 98 18 q76 0 132.5 -36.5 q56.5 -36.5 85.5 -105.5 q27 69 83 105.5 q56 36.5 129 36.5 q52 0 94.5 -17.5 q42.5 -17.5 71 -53 q28.5 -35.5 40 -88 q11.5 -52.5 1.5 -121.5 l-389 0 q3 -101 55 -153.5 q52 -52.5 149 -52.5 q60 0 101.5 17 q41.5 17 69.5 38 l5 -53 Z" /><glyph glyph-name="circumflex" unicode="&#x2c6;" d="M229 691 l-93 -98 l-53 0 l110 143 l70 0 l111 -143 l-53 0 l-92 98 Z" /><glyph glyph-name="caron" unicode="&#x2c7;" d="M83 736 l53 0 l93 -98 l92 98 l53 0 l-111 -143 l-70 0 l-110 143 Z" /><glyph glyph-name="breve" unicode="&#x2d8;" d="M228 594 q-69 0 -103.5 38 q-34.5 38 -36.5 98 l54 0 q2 -43 23 -65.5 q21 -22.5 63 -22.5 q43 0 63 22.5 q20 22.5 22 65.5 l54 0 q-2 -60 -36 -98 q-34 -38 -103 -38 Z" /><glyph glyph-name="dotaccent" unicode="&#x2d9;" d="M228 619 q-20 0 -31.5 12.5 q-11.5 12.5 -11.5 29.5 q0 17 11.5 30 q11.5 13 31.5 13 q20 0 31.5 -13 q11.5 -13 11.5 -30 q0 -17 -11.5 -29.5 q-11.5 -12.5 -31.5 -12.5 Z" /><glyph glyph-name="ring" unicode="&#x2da;" d="M228 584 q-45 0 -75 29 q-30 29 -30 75 q0 45 30 74 q30 29 75 29 q22 0 41 -7.5 q19 -7.5 33.5 -21.5 q14.5 -14 22.5 -33 q8 -19 8 -41 q0 -46 -30 -75 q-30 -29 -75 -29 ZM228 625 q27 0 45 17 q18 17 18 46 q0 29 -18 46 q-18 17 -45 17 q-27 0 -44.5 -17 q-17.5 -17 -17.5 -46 q0 -29 17 -46 q17 -17 45 -17 Z" /><glyph glyph-name="ogonek" unicode="&#x2db;" d="M247 -185 q-48 0 -74.5 22 q-26.5 22 -26.5 59 q0 38 24 64 q24 26 53 40 l59 0 q-35 -20 -56.5 -44 q-21.5 -24 -21.5 -50 q0 -20 12 -32 q12 -12 37 -12 q24 0 44 9 l10 -43 q-10 -5 -25 -9 q-15 -4 -35 -4 Z" /><glyph glyph-name="tilde" unicode="&#x2dc;" d="M75 602 q-2 22 2 42 q4 20 14.5 36 q10.5 16 27.5 25.5 q17 9.5 40 9.5 q22 0 41 -9 q19 -9 35.5 -20.5 q16.5 -11.5 31.5 -20.5 q15 -9 29 -9 q38 0 40 62 l45 0 q1 -21 -3 -41.5 q-4 -20.5 -14.5 -36.5 q-10.5 -16 -27 -25.5 q-16.5 -9.5 -39.5 -9.5 q-22 0 -41 9 q-19 9 -35.5 20 q-16.5 11 -31.5 20 q-15 9 -29 9 q-40 0 -40 -61 l-45 0 l0 0 Z" /><glyph glyph-name="hungarumlaut" unicode="&#x2dd;" d="M254 593 l60 153 l69 0 l-80 -153 l-49 0 ZM103 593 l59 153 l69 0 l-79 -153 l-49 0 Z" /><glyph glyph-name="endash" unicode="&#x2013;" d="M63 325 l450 0 l0 -51 l-450 0 l0 51 Z" /><glyph glyph-name="emdash" unicode="&#x2014;" d="M63 325 l820 0 l0 -51 l-820 0 l0 51 Z" /><glyph glyph-name="quoteleft" unicode="&#x2018;" d="M168 716 q-14 -17 -26 -39.5 q-12 -22.5 -18 -52.5 q17 -2 27.5 -14.5 q10.5 -12.5 10.5 -29.5 q0 -19 -12.5 -32 q-12.5 -13 -33.5 -13 q-21 0 -34.5 14 q-13.5 14 -13.5 41 q0 17 5 35 q5 18 13 35 q8 17 17.5 31.5 q9.5 14.5 17.5 24.5 l47 0 Z" /><glyph glyph-name="quoteright" unicode="&#x2019;" d="M68 542 q14 17 26 39.5 q12 22.5 18 52.5 q-17 2 -27.5 14.5 q-10.5 12.5 -10.5 29.5 q0 19 12.5 32 q12.5 13 33.5 13 q21 0 34.5 -14 q13.5 -14 13.5 -41 q0 -17 -5 -35 q-5 -18 -13 -35 q-8 -17 -17.5 -31.5 q-9.5 -14.5 -17.5 -24.5 l-47 0 Z" /><glyph glyph-name="quotesinglbase" unicode="&#x201a;" d="M68 -96 q14 17 26 39.5 q12 22.5 18 52.5 q-17 2 -27.5 14.5 q-10.5 12.5 -10.5 29.5 q0 19 12.5 32 q12.5 13 33.5 13 q21 0 34.5 -14 q13.5 -14 13.5 -41 q0 -17 -5 -35 q-5 -18 -13 -35 q-8 -17 -17.5 -31.5 q-9.5 -14.5 -17.5 -24.5 l-47 0 Z" /><glyph glyph-name="quotedblleft" unicode="&#x201c;" d="M168 716 q-14 -17 -26 -39.5 q-12 -22.5 -18 -52.5 q17 -2 27.5 -14.5 q10.5 -12.5 10.5 -29.5 q0 -19 -12.5 -32 q-12.5 -13 -33.5 -13 q-21 0 -34.5 14 q-13.5 14 -13.5 41 q0 17 5 35 q5 18 13 35 q8 17 17.5 31.5 q9.5 14.5 17.5 24.5 l47 0 ZM306 716 q-14 -17 -26 -39.5 q-12 -22.5 -18 -52.5 q17 -2 27.5 -14.5 q10.5 -12.5 10.5 -29.5 q0 -19 -12.5 -32 q-12.5 -13 -33.5 -13 q-21 0 -34.5 14 q-13.5 14 -13.5 41 q0 17 5 35 q5 18 13 35 q8 17 17.5 31.5 q9.5 14.5 17.5 24.5 l47 0 Z" /><glyph glyph-name="quotedblright" unicode="&#x201d;" d="M68 542 q14 17 26 39.5 q12 22.5 18 52.5 q-17 2 -27.5 14.5 q-10.5 12.5 -10.5 29.5 q0 19 12.5 32 q12.5 13 33.5 13 q21 0 34.5 -14 q13.5 -14 13.5 -41 q0 -17 -5 -35 q-5 -18 -13 -35 q-8 -17 -17.5 -31.5 q-9.5 -14.5 -17.5 -24.5 l-47 0 ZM212 542 q14 17 26 39.5 q12 22.5 18 52.5 q-17 2 -27.5 14.5 q-10.5 12.5 -10.5 29.5 q0 19 12.5 32 q12.5 13 33.5 13 q21 0 34.5 -14 q13.5 -14 13.5 -41 q0 -17 -5 -35 q-5 -18 -13 -35 q-8 -17 -17.5 -31.5 q-9.5 -14.5 -17.5 -24.5 l-47 0 Z" /><glyph glyph-name="quotedblbase" unicode="&#x201e;" d="M68 -96 q14 17 26 39.5 q12 22.5 18 52.5 q-17 2 -27.5 14.5 q-10.5 12.5 -10.5 29.5 q0 19 12.5 32 q12.5 13 33.5 13 q21 0 34.5 -14 q13.5 -14 13.5 -41 q0 -17 -5 -35 q-5 -18 -13 -35 q-8 -17 -17.5 -31.5 q-9.5 -14.5 -17.5 -24.5 l-47 0 ZM212 -96 q14 17 26 39.5 q12 22.5 18 52.5 q-17 2 -27.5 14.5 q-10.5 12.5 -10.5 29.5 q0 19 12.5 32 q12.5 13 33.5 13 q21 0 34.5 -14 q13.5 -14 13.5 -41 q0 -17 -5 -35 q-5 -18 -13 -35 q-8 -17 -17.5 -31.5 q-9.5 -14.5 -17.5 -24.5 l-47 0 Z" /><glyph glyph-name="dagger" unicode="&#x2020;" d="M275 437 l0 -517 l-57 0 l0 517 l-175 0 l0 51 l175 0 l0 228 l57 0 l0 -228 l175 0 l0 -51 l-175 0 Z" /><glyph glyph-name="daggerdbl" unicode="&#x2021;" d="M275 148 l0 -228 l-57 0 l0 228 l-175 0 l0 51 l175 0 l0 238 l-175 0 l0 51 l175 0 l0 228 l57 0 l0 -228 l175 0 l0 -51 l-175 0 l0 -238 l175 0 l0 -51 l-175 0 Z" /><glyph glyph-name="bullet" unicode="&#x2022;" d="M118 200 q-38 0 -61.5 24 q-23.5 24 -23.5 59 q0 38 23.5 62 q23.5 24 61.5 24 q38 0 62 -24 q24 -24 24 -62 q0 -35 -24 -59 q-24 -24 -62 -24 Z" /><glyph glyph-name="perthousand" unicode="&#x2030;" d="M78 -10 l481 736 l56 0 l-481 -736 l-56 0 ZM315 546 q0 -45 -11.5 -78.5 q-11.5 -33.5 -31 -56 q-19.5 -22.5 -45.5 -34 q-26 -11.5 -55 -11.5 q-29 0 -54.5 11 q-25.5 11 -44.5 32.5 q-19 21.5 -30 54.5 q-11 33 -11 77 q0 45 11 79 q11 34 30 57 q19 23 44.5 34.5 q25.5 11.5 54.5 11.5 q29 0 55 -11 q26 -11 45.5 -33 q19.5 -22 31 -55.5 q11.5 -33.5 11.5 -77.5 ZM85 543 q0 -68 23 -100 q23 -32 64 -32 q42 0 65.5 32 q23.5 32 23.5 100 q0 69 -23.5 101.5 q-23.5 32.5 -65.5 32.5 q-41 0 -64 -32.5 q-23 -32.5 -23 -101.5 ZM1005 174 q0 -44 -11.5 -78 q-11.5 -34 -31 -56.5 q-19.5 -22.5 -45.5 -34 q-26 -11.5 -55 -11.5 q-29 0 -54.5 11 q-25.5 11 -45 33 q-19.5 22 -30.5 55 q-11 33 -11 77 q0 44 11 78 q11 34 30.5 57 q19.5 23 45 34.5 q25.5 11.5 54.5 11.5 q29 0 55 -11 q26 -11 45.5 -33 q19.5 -22 31 -55.5 q11.5 -33.5 11.5 -77.5 ZM661 174 q0 -44 -11.5 -78 q-11.5 -34 -31 -56.5 q-19.5 -22.5 -45 -34 q-25.5 -11.5 -54.5 -11.5 q-29 0 -54.5 11 q-25.5 11 -45 33 q-19.5 22 -30.5 55 q-11 33 -11 77 q0 44 11 78 q11 34 30.5 57 q19.5 23 45 34.5 q25.5 11.5 54.5 11.5 q29 0 54.5 -11 q25.5 -11 45 -33 q19.5 -22 31 -55.5 q11.5 -33.5 11.5 -77.5 ZM774 172 q0 -68 23 -100 q23 -32 65 -32 q42 0 65.5 32 q23.5 32 23.5 100 q0 69 -23.5 101 q-23.5 32 -65.5 32 q-42 0 -65 -32 q-23 -32 -23 -101 ZM431 172 q0 -68 23 -100 q23 -32 65 -32 q42 0 65 32 q23 32 23 100 q0 69 -23 101 q-23 32 -65 32 q-42 0 -65 -32 q-23 -32 -23 -101 Z" /><glyph glyph-name="guilsinglleft" unicode="&#x2039;" d="M194 69 l-143 195 l143 195 l64 0 l-144 -195 l144 -195 l-64 0 Z" /><glyph glyph-name="guilsinglright" unicode="&#x203a;" d="M189 264 l-143 195 l63 0 l144 -195 l-144 -195 l-63 0 l143 195 Z" /><glyph glyph-name="fraction" unicode="&#x2044;" d="M-98 0 l584 716 l57 0 l-582 -716 l-59 0 Z" /><glyph glyph-name="Euro" unicode="&#x20ac;" d="M536 42 q-23 -20 -62.5 -36 q-39.5 -16 -101.5 -16 q-116 0 -186 72 q-70 72 -89 201 l-81 0 l0 48 l76 0 q-1 11 -1 23 q0 12 0 24 q0 14 0.5 27.5 q0.5 13.5 1.5 26.5 l-77 0 l0 48 l83 0 q21 126 93 196 q72 70 186 70 q58 0 95 -15 q37 -15 65 -35 l-13 -54 q-32 23 -67.5 37 q-35.5 14 -80.5 14 q-92 0 -146.5 -53.5 q-54.5 -53.5 -71.5 -159.5 l222 0 l0 -48 l-227 0 q-1 -13 -1.5 -26.5 q-0.5 -13.5 -0.5 -27.5 q0 -12 0 -24 q0 -12 1 -23 l228 0 l0 -48 l-223 0 q15 -109 67.5 -164.5 q52.5 -55.5 147.5 -55.5 q51 0 89 15 q38 15 64 38 l10 -54 l0 0 Z" /><glyph glyph-name="trademark" unicode="&#x2122;" d="M204 670 l0 -348 l-50 0 l0 348 l-131 0 l0 46 l311 0 l0 -46 l-130 0 ZM458 664 l0 -342 l-48 0 l0 394 l81 0 l117 -280 l119 280 l78 0 l0 -394 l-51 0 l0 338 l-120 -278 l-57 0 l-119 282 Z" /><glyph glyph-name="Eng" unicode="&#x14a;" d="M501 -200 q-27 0 -51.5 5.5 q-24.5 5.5 -43.5 13.5 l16 52 q16 -7 36.5 -11.5 q20.5 -4.5 42.5 -4.5 q50 0 70.5 27 q20.5 27 20.5 78 l0 40 l-29 0 l-412 645 l0 -645 l-59 0 l0 716 l86 0 l414 -649 l0 649 l59 0 l0 -760 q0 -34 -8.5 -62.5 q-8.5 -28.5 -26.5 -49.5 q-18 -21 -46.5 -32.5 q-28.5 -11.5 -68.5 -11.5 Z" /><glyph glyph-name="IJ" unicode="&#x132;" d="M156 716 l0 -716 l-64 0 l0 716 l64 0 ZM495 716 l0 -580 q0 -30 -8.5 -57 q-8.5 -27 -26.5 -46.5 q-18 -19.5 -46.5 -31 q-28.5 -11.5 -68.5 -11.5 q-55 0 -95 19 l5 55 q17 -8 37 -12.5 q20 -4.5 42 -4.5 q55 0 76.5 26 q21.5 26 21.5 77 l0 566 l63 0 Z" /><glyph glyph-name="dcroat" unicode="&#x111;" d="M476 118 q-26 -60 -74.5 -94 q-48.5 -34 -119.5 -34 q-49 0 -92.5 17.5 q-43.5 17.5 -75.5 51.5 q-32 34 -51 84.5 q-19 50.5 -19 116.5 q0 66 19 116.5 q19 50.5 51 84 q32 33.5 75.5 51 q43.5 17.5 93.5 17.5 q66 0 115.5 -30 q49.5 -30 75.5 -87 l0 174 l-181 0 l0 46 l181 0 l0 84 l59 0 l0 -84 l78 0 l0 -46 l-78 0 l0 -586 l-52 0 l-5 118 ZM289 43 q40 0 74 14 q34 14 59 41.5 q25 27.5 39 68 q14 40.5 14 93.5 q0 54 -14 94.5 q-14 40.5 -39 67.5 q-25 27 -59 41 q-34 14 -74 14 q-40 0 -74 -14 q-34 -14 -58.5 -41.5 q-24.5 -27.5 -38.5 -68 q-14 -40.5 -14 -93.5 q0 -53 14 -93.5 q14 -40.5 38.5 -68 q24.5 -27.5 58.5 -41.5 q34 -14 74 -14 Z" /><glyph glyph-name="eng" unicode="&#x14b;" d="M508 -29 q0 -66 -34.5 -109.5 q-34.5 -43.5 -111.5 -48.5 l-10 53 q53 4 75 30.5 q22 26.5 22 71.5 l0 391 q0 64 -34.5 91 q-34.5 27 -92.5 27 q-38 0 -66.5 -10.5 q-28.5 -10.5 -50.5 -27.5 q-22 -17 -37.5 -40.5 q-15.5 -23.5 -27.5 -48.5 l0 -350 l-59 0 l0 519 l56 0 l2 -109 l2 0 q10 23 26.5 44.5 q16.5 21.5 40.5 38 q24 16.5 55.5 26.5 q31.5 10 71.5 10 q80 0 126.5 -41.5 q46.5 -41.5 46.5 -123.5 l0 -393 l0 0 Z" /><glyph glyph-name="Aogonek" unicode="&#x104;" d="M581 -185 q-48 0 -74.5 22 q-26.5 22 -26.5 59 q0 35 22 60 q22 25 51 41 l-80 225 l-313 0 l-78 -222 l-59 0 l252 716 l90 0 l253 -715 q-38 -21 -59 -45 q-21 -24 -21 -50 q0 -20 12 -32 q12 -12 37 -12 q24 0 44 9 l4 -45 q-8 -4 -22.5 -7.5 q-14.5 -3.5 -31.5 -3.5 ZM316 665 l-136 -387 l273 0 l-137 387 Z" /><glyph glyph-name="Hbar" unicode="&#x126;" d="M575 327 l-419 0 l0 -327 l-64 0 l0 524 l-106 0 l0 52 l106 0 l0 140 l64 0 l0 -140 l419 0 l0 140 l63 0 l0 -140 l106 0 l0 -52 l-106 0 l0 -524 l-63 0 l0 327 ZM575 384 l0 140 l-419 0 l0 -140 l419 0 Z" /><glyph glyph-name="Iogonek" unicode="&#x12e;" d="M75 -85 q0 -18 12.5 -31 q12.5 -13 39.5 -13 q14 0 28.5 3 q14.5 3 27.5 8 l9 -56 q-9 -6 -27 -11 q-18 -5 -41 -5 q-51 0 -80 24.5 q-29 24.5 -29 66.5 q0 33 15 54.5 q15 21.5 36 35.5 l35 0 l0 725 l62 0 l0 -714 q-16 -11 -31.5 -21 q-15.5 -10 -28 -20.5 q-12.5 -10.5 -20.5 -21.5 q-8 -11 -8 -24 Z" /><glyph glyph-name="Scedilla" unicode="&#x15e;" d="M196 -4 q-35 6 -64.5 15 q-29.5 9 -51.5 20.5 q-22 11.5 -36 22.5 l14 60 q15 -11 37 -23 q22 -12 49.5 -22 q27.5 -10 59.5 -16 q32 -6 68 -6 q39 0 73.5 8 q34.5 8 60.5 25 q26 17 41 43 q15 26 15 63 q0 36 -13 60 q-13 24 -37 41 q-24 17 -58.5 28.5 q-34.5 11.5 -77.5 22.5 q-40 10 -80 24 q-40 14 -71.5 36.5 q-31.5 22.5 -51 56.5 q-19.5 34 -19.5 84 q0 93 65 140 q65 47 180 47 q37 0 66 -4 q29 -4 51.5 -10 q22.5 -6 39.5 -13 q17 -7 31 -14 l-11 -60 q-30 18 -74.5 31 q-44.5 13 -102.5 13 q-88 0 -135 -31.5 q-47 -31.5 -47 -96.5 q0 -33 14 -56 q14 -23 37.5 -39 q23.5 -16 54.5 -27 q31 -11 65 -20 q39 -11 81 -23.5 q42 -12.5 77.5 -35 q35.5 -22.5 58 -58.5 q22.5 -36 22.5 -93 q0 -55 -21.5 -93 q-21.5 -38 -57.5 -61.5 q-36 -23.5 -82 -34.5 q-27 -5 -54 -8 l-52 -163 l-69 0 l65 161 q-32 1 -60 6 Z" /><glyph glyph-name="Tbar" unicode="&#x166;" d="M63 418 l186 0 l0 241 l-225 0 l0 57 l514 0 l0 -57 l-225 0 l0 -241 l186 0 l0 -52 l-186 0 l0 -366 l-64 0 l0 366 l-186 0 l0 52 Z" /><glyph glyph-name="Uogonek" unicode="&#x172;" d="M360 -94 q0 -20 12 -32 q12 -12 37 -12 q24 0 44 9 l10 -43 q-10 -5 -25.5 -9 q-15.5 -4 -34.5 -4 q-48 0 -74.5 22 q-26.5 22 -26.5 59 q0 32 17 55.5 q17 23.5 42 38.5 l-18 0 q-57 0 -106 16 q-49 16 -85 48 q-36 32 -56 80 q-20 48 -20 112 l0 470 l64 0 l0 -469 q0 -51 14.5 -88.5 q14.5 -37.5 41.5 -62.5 q27 -25 64.5 -37 q37.5 -12 83.5 -12 q45 0 84 12.5 q39 12.5 67.5 37 q28.5 24.5 45 62.5 q16.5 38 16.5 89 l0 468 l60 0 l0 -466 q0 -96 -45.5 -156 q-45.5 -60 -118.5 -88 q-47 -25 -70 -48.5 q-23 -23.5 -23 -51.5 Z" /><glyph glyph-name="aogonek" unicode="&#x105;" d="M423 -185 q-48 0 -74.5 22 q-26.5 22 -26.5 59 q0 38 24 64 q24 26 53 40 q-3 14 -5 38 q-2 24 -2 56 q-11 -18 -26.5 -36.5 q-15.5 -18.5 -38 -33.5 q-22.5 -15 -51.5 -24.5 q-29 -9.5 -66 -9.5 q-76 0 -120.5 41 q-44.5 41 -44.5 114 q0 82 61.5 123 q61.5 41 179.5 41 l104 0 l0 45 q0 123 -137 123 q-54 0 -96.5 -16 q-42.5 -16 -68.5 -33 l-16 50 q24 17 72 34 q48 17 112 17 q90 0 141.5 -40 q51.5 -40 51.5 -123 l0 -272 q0 -26 1 -52 q1 -26 4 -42 q-33 -19 -53.5 -43.5 q-20.5 -24.5 -20.5 -50.5 q0 -20 12 -32 q12 -12 38 -12 q23 0 44 9 l9 -43 q-9 -5 -24.5 -9 q-15.5 -4 -35.5 -4 ZM220 43 q34 0 61.5 10.5 q27.5 10.5 49 27 q21.5 16.5 36 35.5 q14.5 19 23.5 36 l0 108 l-99 0 q-100 0 -143.5 -29.5 q-43.5 -29.5 -43.5 -83.5 q0 -50 31 -77 q31 -27 85 -27 Z" /><glyph glyph-name="eogonek" unicode="&#x119;" d="M324 -94 q0 -20 12 -32 q12 -12 37 -12 q24 0 45 9 l9 -43 q-9 -5 -25 -9 q-16 -4 -35 -4 q-48 0 -74.5 22 q-26.5 22 -26.5 59 q0 32 17.5 56 q17.5 24 43.5 39 q-5 -1 -11.5 -1 q-6.5 0 -12.5 0 q-125 0 -192.5 71 q-67.5 71 -67.5 199 q0 63 18.5 113 q18.5 50 51.5 84.5 q33 34.5 77 53 q44 18.5 95 18.5 q52 0 94.5 -17.5 q42.5 -17.5 71 -53 q28.5 -35.5 40 -88 q11.5 -52.5 1.5 -121.5 l-389 0 q3 -102 55.5 -154 q52.5 -52 148.5 -52 q57 0 95 17 q38 17 65 37 l17 -52 q-14 -10 -31 -19 q-17 -9 -36 -19 q-45 -22 -69 -47 q-24 -25 -24 -54 ZM284 477 q-34 0 -64.5 -11.5 q-30.5 -11.5 -54.5 -34 q-24 -22.5 -39.5 -55.5 q-15.5 -33 -20.5 -76 l332 0 q4 45 -7 78.5 q-11 33.5 -32.5 55 q-21.5 21.5 -51 32.5 q-29.5 11 -62.5 11 Z" /><glyph glyph-name="hbar" unicode="&#x127;" d="M327 477 q-38 0 -66.5 -10.5 q-28.5 -10.5 -50.5 -27.5 q-22 -17 -37.5 -40.5 q-15.5 -23.5 -27.5 -48.5 l0 -350 l-59 0 l0 586 l-87 0 l0 46 l87 0 l0 84 l59 0 l0 -84 l173 0 l0 -46 l-173 0 l0 -73 l-1 -102 l3 0 q10 23 26.5 44 q16.5 21 40 37.5 q23.5 16.5 55 26.5 q31.5 10 71.5 10 q80 0 126.5 -41.5 q46.5 -41.5 46.5 -123.5 l0 -364 l-60 0 l0 359 q0 64 -34.5 91 q-34.5 27 -91.5 27 Z" /><glyph glyph-name="imacron" unicode="&#x12b;" d="M5 677 l211 0 l0 -50 l-211 0 l0 50 ZM140 519 l0 -519 l-59 0 l0 519 l59 0 Z" /><glyph glyph-name="iogonek" unicode="&#x12f;" d="M116 609 q-20 0 -31 11.5 q-11 11.5 -11 28.5 q0 17 11 30 q11 13 31 13 q20 0 28.5 -13 q8.5 -13 8.5 -30 q0 -17 -8.5 -28.5 q-8.5 -11.5 -28.5 -11.5 ZM108 -190 q-51 0 -81 24.5 q-30 24.5 -30 66.5 q0 37 17 58 q17 21 40 35 l33 0 l0 525 l55 0 l0 -519 q-15 -8 -30 -17 q-15 -9 -26.5 -20 q-11.5 -11 -19 -23 q-7.5 -12 -7.5 -25 q0 -18 12 -31 q12 -13 39 -13 q16 0 29.5 3 q13.5 3 27.5 8 l9 -56 q-10 -6 -27.5 -11 q-17.5 -5 -40.5 -5 Z" /><glyph glyph-name="scedilla" unicode="&#x15f;" d="M114 6 q-46 17 -70 33 l14 53 q24 -18 69 -35 q45 -17 108 -17 q27 0 52 5.5 q25 5.5 43.5 17.5 q18.5 12 30 31 q11.5 19 11.5 46 q0 27 -10.5 44 q-10.5 17 -29 28 q-18.5 11 -45 17.5 q-26.5 6.5 -58.5 13.5 q-36 7 -68 17 q-32 10 -56 26 q-24 16 -38 40.5 q-14 24.5 -14 60.5 q0 70 52.5 106 q52.5 36 138.5 36 q58 0 97 -10.5 q39 -10.5 65 -24.5 l-15 -51 q-26 14 -60 25 q-34 11 -87 11 q-58 0 -95.5 -20 q-37.5 -20 -37.5 -71 q0 -22 9 -36.5 q9 -14.5 26.5 -24.5 q17.5 -10 41.5 -17 q24 -7 54 -13 q36 -8 70.5 -17 q34.5 -9 60.5 -25.5 q26 -16.5 42 -43.5 q16 -27 16 -70 q0 -42 -16.5 -70.5 q-16.5 -28.5 -43.5 -46.5 q-27 -18 -63 -26 q-22 -5 -46 -7 l-52 -163 l-69 0 l66 163 q-56 2 -93 15 Z" /><glyph glyph-name="tbar" unicode="&#x167;" d="M321 8 q-14 -8 -37.5 -13 q-23.5 -5 -48.5 -5 q-35 0 -60 10 q-25 10 -41 26.5 q-16 16.5 -23.5 39 q-7.5 22.5 -7.5 48.5 l0 175 l-68 0 l0 51 l68 0 l0 128 l-68 0 l0 51 l68 0 l0 109 l60 0 l0 -109 l150 0 l0 -51 l-150 0 l0 -128 l150 0 l0 -51 l-150 0 l0 -168 q0 -36 18 -57 q18 -21 60 -21 q20 0 37.5 4.5 q17.5 4.5 31.5 11.5 l11 -51 Z" /><glyph glyph-name="uogonek" unicode="&#x173;" d="M413 -94 q0 -20 12 -32 q12 -12 37 -12 q23 0 44 9 l10 -43 q-10 -5 -25.5 -9 q-15.5 -4 -34.5 -4 q-48 0 -74.5 22 q-26.5 22 -26.5 59 q0 38 24.5 64 q24.5 26 56.5 40 l-5 107 l-2 0 q-10 -24 -26 -45 q-16 -21 -39 -37 q-23 -16 -53.5 -25.5 q-30.5 -9.5 -68.5 -9.5 q-77 0 -121.5 43 q-44.5 43 -44.5 128 l0 358 l59 0 l0 -358 q0 -65 34 -91.5 q34 -26.5 87 -26.5 q35 0 62 9.5 q27 9.5 48 26 q21 16.5 36.5 39 q15.5 22.5 27.5 49.5 l0 352 l59 0 l0 -519 q-35 -19 -55.5 -43.5 q-20.5 -24.5 -20.5 -50.5 Z" /><glyph glyph-name="f_f" unicode="&#xfb00;" d="M485 468 l0 -468 l-59 0 l0 468 l-252 0 l0 -468 l-59 0 l0 468 l-68 0 l0 51 l68 0 l0 19 q0 86 43 132.5 q43 46.5 124 46.5 q16 0 32.5 -2.5 q16.5 -2.5 29.5 -7.5 l-13 -51 q-8 4 -23 6 q-15 2 -29 2 q-51 0 -78 -30.5 q-27 -30.5 -27 -95.5 l0 -19 l252 0 l0 23 q0 86 43 134 q43 48 124 48 q35 0 61 -9 l-10 -52 q-8 3 -21 5.5 q-13 2.5 -28 2.5 q-54 0 -82 -32.5 q-28 -32.5 -28 -96.5 l0 -23 l154 0 l0 -51 l-154 0 Z" /><glyph glyph-name="uni2032" unicode="&#x2032;" d="M96 716 l68 0 l-60 -219 l-49 0 l41 219 Z" /><glyph glyph-name="uni24C5" unicode="&#x24c5;" d="M454 -96 q-87 0 -162 30.5 q-75 30.5 -130.5 85.5 q-55.5 55 -87 130.5 q-31.5 75.5 -31.5 165.5 q0 90 31.5 165 q31.5 75 87 129.5 q55.5 54.5 130.5 85 q75 30.5 162 30.5 q87 0 162 -30.5 q75 -30.5 130.5 -85 q55.5 -54.5 87 -129.5 q31.5 -75 31.5 -165 q0 -90 -31.5 -165.5 q-31.5 -75.5 -87 -130.5 q-55.5 -55 -130.5 -85.5 q-75 -30.5 -162 -30.5 ZM454 -52 q81 0 147.5 27.5 q66.5 27.5 114 76.5 q47.5 49 74 116.5 q26.5 67.5 26.5 147.5 q0 79 -26.5 146.5 q-26.5 67.5 -74 116 q-47.5 48.5 -114 76 q-66.5 27.5 -147.5 27.5 q-80 0 -147 -27.5 q-67 -27.5 -115 -76 q-48 -48.5 -74.5 -116 q-26.5 -67.5 -26.5 -146.5 q0 -80 26.5 -147.5 q26.5 -67.5 74.5 -116.5 q48 -49 115 -76.5 q67 -27.5 147 -27.5 ZM385 476 l0 -157 l79 0 q45 0 72 18.5 q27 18.5 27 63.5 q0 39 -23.5 57 q-23.5 18 -68.5 18 l-86 0 ZM385 271 l0 -164 l-54 0 l0 417 l140 0 q71 0 109 -30.5 q38 -30.5 38 -90.5 q0 -62 -37.5 -97 q-37.5 -35 -115.5 -35 l-80 0 Z" /><glyph glyph-name="zero.den" unicode="&#xe402;" d="M225 -6 q-39 0 -72.5 14.5 q-33.5 14.5 -59 44 q-25.5 29.5 -40 73 q-14.5 43.5 -14.5 100.5 q0 57 14.5 100.5 q14.5 43.5 40 72.5 q25.5 29 59 43.5 q33.5 14.5 72.5 14.5 q39 0 73 -14.5 q34 -14.5 59 -43 q25 -28.5 39.5 -72 q14.5 -43.5 14.5 -100.5 q0 -57 -14.5 -100.5 q-14.5 -43.5 -39.5 -73 q-25 -29.5 -59 -44.5 q-34 -15 -73 -15 ZM225 38 q27 0 50.5 11 q23.5 11 41 33.5 q17.5 22.5 27.5 58 q10 35.5 10 85.5 q0 50 -10 85.5 q-10 35.5 -27 58 q-17 22.5 -41 33 q-24 10.5 -51 10.5 q-27 0 -50.5 -10.5 q-23.5 -10.5 -41.5 -33 q-18 -22.5 -28 -58 q-10 -35.5 -10 -85.5 q0 -50 10 -85.5 q10 -35.5 27.5 -58 q17.5 -22.5 41.5 -33.5 q24 -11 51 -11 Z" /><glyph glyph-name="one.den" unicode="&#xe403;" d="M143 0 l0 388 l-102 -90 l0 56 l110 97 l47 0 l0 -451 l-55 0 Z" /><glyph glyph-name="two.den" unicode="&#xe404;" d="M37 0 l0 54 q66 51 110.5 89.5 q44.5 38.5 72 69 q27.5 30.5 39 56.5 q11.5 26 11.5 53 q0 39 -25.5 64.5 q-25.5 25.5 -79.5 25.5 q-32 0 -59.5 -9 q-27.5 -9 -45.5 -22 l-9 45 q17 12 47.5 22 q30.5 10 69.5 10 q79 0 118.5 -37 q39.5 -37 39.5 -99 q0 -31 -13 -61 q-13 -30 -41 -62.5 q-28 -32.5 -72 -69.5 q-44 -37 -106 -82 l235 0 l0 -47 l-292 0 Z" /><glyph glyph-name="three.den" unicode="&#xe405;" d="M155 -6 q-42 0 -75.5 9.5 q-33.5 9.5 -52.5 22.5 l7 46 q17 -12 47 -22.5 q30 -10.5 69 -10.5 q63 0 89.5 24.5 q26.5 24.5 26.5 63.5 q0 42 -26 64.5 q-26 22.5 -76 22.5 l-62 0 l0 46 l65 0 q38 0 60.5 20 q22.5 20 22.5 58 q0 32 -22 53.5 q-22 21.5 -78 21.5 q-32 0 -57 -8.5 q-25 -8.5 -43 -20.5 l-7 45 q19 12 48 20 q29 8 65 8 q72 0 110.5 -32 q38.5 -32 38.5 -84 q0 -44 -23 -68.5 q-23 -24.5 -53 -32.5 q38 -8 65.5 -36.5 q27.5 -28.5 27.5 -78.5 q0 -58 -44.5 -94.5 q-44.5 -36.5 -122.5 -36.5 Z" /><glyph glyph-name="four.den" unicode="&#xe406;" d="M250 390 l-170 -237 l170 0 l0 237 ZM303 108 l0 -108 l-53 0 l0 108 l-225 0 l0 40 l218 303 l60 0 l0 -298 l67 0 l0 -45 l-67 0 Z" /><glyph glyph-name="five.den" unicode="&#xe407;" d="M157 -6 q-36 0 -67.5 8 q-31.5 8 -50.5 20 l7 46 q17 -11 44 -20 q27 -9 61 -9 q62 0 92 29 q30 29 30 75 q0 51 -28.5 73 q-28.5 22 -70.5 22 q-33 0 -52 -8.5 q-19 -8.5 -27 -16.5 l-42 0 l0 238 l257 0 l0 -47 l-208 0 l0 -141 q13 8 33 14.5 q20 6.5 49 6.5 q64 0 104.5 -35.5 q40.5 -35.5 40.5 -104.5 q0 -69 -45.5 -109.5 q-45.5 -40.5 -126.5 -40.5 Z" /><glyph glyph-name="six.den" unicode="&#xe408;" d="M366 148 q0 -36 -13 -65 q-13 -29 -35 -48.5 q-22 -19.5 -51.5 -30 q-29.5 -10.5 -61.5 -10.5 q-30 0 -59.5 9.5 q-29.5 9.5 -53.5 30.5 q-24 21 -38.5 54.5 q-14.5 33.5 -14.5 81.5 q0 49 17.5 92.5 q17.5 43.5 46.5 79.5 q29 36 66 63.5 q37 27.5 76 45.5 l74 0 l0 -6 q-81 -38 -138 -89 q-57 -51 -80 -119 q22 28 51 43 q29 15 66 15 q29 0 56 -9 q27 -9 47.5 -27.5 q20.5 -18.5 32.5 -46 q12 -27.5 12 -64.5 ZM95 170 q0 -35 8.5 -60 q8.5 -25 23.5 -41 q15 -16 34.5 -23.5 q19.5 -7.5 42.5 -7.5 q45 0 75 27 q30 27 30 81 q0 53 -28 79.5 q-28 26.5 -76 26.5 q-71 0 -109 -61 q-1 -5 -1 -10.5 q0 -5.5 0 -10.5 Z" /><glyph glyph-name="seven.den" unicode="&#xe409;" d="M74 0 l191 404 l-231 0 l0 47 l292 0 l0 -36 l-194 -415 l-58 0 Z" /><glyph glyph-name="eight.den" unicode="&#xe40a;" d="M192 -6 q-34 0 -63 8.5 q-29 8.5 -50 25 q-21 16.5 -32.5 40 q-11.5 23.5 -11.5 53.5 q0 46 26.5 76 q26.5 30 71.5 42 q-37 11 -59.5 37 q-22.5 26 -22.5 67 q0 56 40.5 85 q40.5 29 100.5 29 q60 0 100 -28 q40 -28 40 -85 q0 -42 -22.5 -68 q-22.5 -26 -58.5 -37 q44 -11 70 -40 q26 -29 26 -76 q0 -30 -12 -54 q-12 -24 -32.5 -40.5 q-20.5 -16.5 -49 -25.5 q-28.5 -9 -61.5 -9 ZM192 260 q36 0 61 19.5 q25 19.5 25 57.5 q0 37 -24.5 56.5 q-24.5 19.5 -61.5 19.5 q-37 0 -62 -19.5 q-25 -19.5 -25 -56.5 q0 -38 25.5 -57.5 q25.5 -19.5 61.5 -19.5 ZM192 38 q45 0 72.5 24.5 q27.5 24.5 27.5 66.5 q0 42 -28 65.5 q-28 23.5 -72 23.5 q-44 0 -72.5 -23.5 q-28.5 -23.5 -28.5 -65.5 q0 -42 28 -66.5 q28 -24.5 73 -24.5 Z" /><glyph glyph-name="nine.den" unicode="&#xe40b;" d="M198 458 q31 0 60 -10.5 q29 -10.5 52 -32 q23 -21.5 37 -54.5 q14 -33 14 -79 q0 -50 -16.5 -93.5 q-16.5 -43.5 -43 -80 q-26.5 -36.5 -61 -64 q-34.5 -27.5 -70.5 -44.5 l-75 0 l0 7 q80 38 132.5 90 q52.5 52 71.5 118 q-22 -28 -51.5 -43.5 q-29.5 -15.5 -65.5 -15.5 q-30 0 -56.5 9 q-26.5 9 -47 27.5 q-20.5 18.5 -32.5 46 q-12 27.5 -12 63.5 q0 37 13.5 66 q13.5 29 36 49 q22.5 20 52 30.5 q29.5 10.5 62.5 10.5 ZM305 282 q0 70 -32 100.5 q-32 30.5 -77 30.5 q-44 0 -74.5 -27 q-30.5 -27 -30.5 -82 q0 -52 28 -78.5 q28 -26.5 76 -26.5 q70 0 109 62 q1 5 1 10.5 q0 5.5 0 10.5 Z" /><glyph glyph-name="plus.sub" unicode="&#x208a;" d="M220 133 l0 -129 l-50 0 l0 129 l-125 0 l0 45 l125 0 l0 130 l50 0 l0 -130 l126 0 l0 -45 l-126 0 Z" /><glyph glyph-name="minus.sub" unicode="&#x208b;" d="M45 138 l0 45 l301 0 l0 -45 l-301 0 Z" /><glyph glyph-name="florin" unicode="&#x192;" d="M56 -187 q-26 0 -44.5 4 q-18.5 4 -32.5 9 l12 49 q9 -4 27 -8.5 q18 -4.5 38 -4.5 q30 0 51 10 q21 10 35.5 29 q14.5 19 24 46.5 q9.5 27.5 15.5 63.5 l65 362 l-95 0 l11 49 l93 0 l19 109 q17 94 59 144.5 q42 50.5 124 50.5 q25 0 41.5 -3 q16.5 -3 27.5 -8 l-9 -51 q-8 4 -24.5 7.5 q-16.5 3.5 -36.5 3.5 q-30 0 -50.5 -9 q-20.5 -9 -35 -27 q-14.5 -18 -23.5 -45 q-9 -27 -15 -63 l-20 -109 l143 0 l-10 -49 l-141 0 l-66 -365 q-16 -92 -58.5 -143.5 q-42.5 -51.5 -124.5 -51.5 Z" /><glyph glyph-name="uni0237" unicode="&#x237;" d="M-8 -134 q54 4 76 30.5 q22 26.5 22 71.5 l0 551 l58 0 l0 -548 q0 -66 -34.5 -109.5 q-34.5 -43.5 -111.5 -48.5 l-10 53 Z" /><glyph glyph-name="uni0402" unicode="&#x402;" d="M313 659 l0 -258 q25 20 66.5 32 q41.5 12 92.5 12 q60 0 108.5 -18 q48.5 -18 82.5 -52.5 q34 -34.5 52.5 -85.5 q18.5 -51 18.5 -117 q0 -138 -69.5 -211 q-69.5 -73 -189.5 -73 l-7 57 q105 0 154 60 q49 60 49 166 q0 103 -49 160 q-49 57 -152 57 q-95 0 -157 -44 l0 -344 l-64 0 l0 659 l-225 0 l0 57 l514 0 l0 -57 l-225 0 Z" /><glyph glyph-name="uni0404" unicode="&#x404;" d="M606 57 q-30 -26 -83 -46.5 q-53 -20.5 -130 -20.5 q-77 0 -140 25.5 q-63 25.5 -108 73 q-45 47.5 -69.5 115.5 q-24.5 68 -24.5 154 q0 87 23.5 155 q23.5 68 67.5 115.5 q44 47.5 107 72.5 q63 25 142 25 q76 0 129.5 -18.5 q53.5 -18.5 85.5 -43.5 l-13 -62 q-37 31 -89.5 49 q-52.5 18 -112.5 18 q-123 0 -193.5 -71 q-70.5 -71 -78.5 -206 l360 0 l0 -56 l-361 0 q6 -140 79 -214.5 q73 -74.5 200 -74.5 q60 0 106.5 17.5 q46.5 17.5 83.5 49.5 l19 -57 l0 0 Z" /><glyph glyph-name="uni0407" unicode="&#x407;" d="M213 800 q-20 0 -31.5 12.5 q-11.5 12.5 -11.5 29.5 q0 17 11.5 30 q11.5 13 31.5 13 q20 0 31 -13 q11 -13 11 -30 q0 -17 -11 -29.5 q-11 -12.5 -31 -12.5 ZM34 800 q-20 0 -31.5 12.5 q-11.5 12.5 -11.5 29.5 q0 17 11.5 30 q11.5 13 31.5 13 q20 0 31 -13 q11 -13 11 -30 q0 -17 -11 -29.5 q-11 -12.5 -31 -12.5 ZM156 716 l0 -716 l-64 0 l0 716 l64 0 Z" /><glyph glyph-name="uni0409" unicode="&#x409;" d="M198 196 q-8 -47 -21 -84.5 q-13 -37.5 -33 -64 q-20 -26.5 -48 -40 q-28 -13.5 -67 -11.5 l-8 64 q52 -5 78.5 34.5 q26.5 39.5 38.5 113.5 q14 78 20.5 208.5 q6.5 130.5 9.5 299.5 l405 0 l0 -291 l153 0 q114 0 175.5 -49 q61.5 -49 61.5 -156 q0 -59 -17.5 -100.5 q-17.5 -41.5 -50 -68 q-32.5 -26.5 -78.5 -39 q-46 -12.5 -103 -12.5 l-204 0 l0 659 l-283 0 q-4 -150 -10 -268.5 q-6 -118.5 -19 -194.5 ZM573 368 l0 -311 l141 0 q43 0 77.5 8.5 q34.5 8.5 57.5 27.5 q23 19 35.5 50 q12.5 31 12.5 75 q0 150 -173 150 l-151 0 Z" /><glyph glyph-name="uni040A" unicode="&#x40a;" d="M638 348 l0 -291 l148 0 q86 0 133.5 34 q47.5 34 47.5 116 q0 141 -171 141 l-158 0 ZM575 348 l-419 0 l0 -348 l-64 0 l0 716 l64 0 l0 -311 l419 0 l0 311 l63 0 l0 -311 l160 0 q113 0 173.5 -46.5 q60.5 -46.5 60.5 -148.5 q0 -56 -17.5 -96 q-17.5 -40 -49.5 -65.5 q-32 -25.5 -77.5 -37 q-45.5 -11.5 -101.5 -11.5 l-211 0 l0 348 Z" /><glyph glyph-name="uni040B" unicode="&#x40b;" d="M313 659 l0 -262 q27 18 70 33 q43 15 103 15 q108 0 168.5 -54.5 q60.5 -54.5 60.5 -170.5 l0 -220 l-64 0 l0 218 q0 47 -12 79.5 q-12 32.5 -33.5 52.5 q-21.5 20 -52.5 29 q-31 9 -69 9 q-51 0 -93.5 -12.5 q-42.5 -12.5 -77.5 -36.5 l0 -339 l-64 0 l0 659 l-225 0 l0 57 l514 0 l0 -57 l-225 0 Z" /><glyph glyph-name="uni040E" unicode="&#x40e;" d="M316 759 q-39 0 -67.5 11 q-28.5 11 -47 29.5 q-18.5 18.5 -28 43.5 q-9.5 25 -9.5 53 l60 0 q0 -46 24 -68.5 q24 -22.5 68 -22.5 q43 0 66.5 22.5 q23.5 22.5 23.5 68.5 l60 0 q0 -28 -9 -53 q-9 -25 -28 -43.5 q-19 -18.5 -47 -29.5 q-28 -11 -66 -11 ZM155 -3 q-9 0 -16 1 q-7 1 -12 2 l-7 63 q7 -2 16 -2.5 q9 -0.5 18 -0.5 q48 0 78 31.5 q30 31.5 58 92.5 l-260 532 l72 0 l221 -459 l191 459 l65 0 l-223 -523 q-21 -49 -41.5 -86 q-20.5 -37 -44 -61.5 q-23.5 -24.5 -51.5 -36.5 q-28 -12 -64 -12 Z" /><glyph glyph-name="uni040F" unicode="&#x40f;" d="M397 0 l-4 -170 l-56 0 l-3 170 l-242 0 l0 716 l64 0 l0 -659 l411 0 l0 659 l63 0 l0 -716 l-233 0 Z" /><glyph glyph-name="uni0411" unicode="&#x411;" d="M156 358 l0 -301 l145 0 q88 0 137 35 q49 35 49 121 q0 145 -176 145 l-155 0 ZM92 716 l411 0 l0 -57 l-347 0 l0 -244 l157 0 q115 0 177 -48 q62 -48 62 -152 q0 -57 -17.5 -98 q-17.5 -41 -50.5 -67 q-33 -26 -79.5 -38 q-46.5 -12 -103.5 -12 l-209 0 l0 716 Z" /><glyph glyph-name="uni0413" unicode="&#x413;" d="M156 659 l0 -659 l-64 0 l0 716 l384 0 l0 -57 l-320 0 Z" /><glyph glyph-name="uni0414" unicode="&#x414;" d="M549 659 l-296 0 q-5 -128 -11 -227 q-6 -99 -17 -172 q-11 -73 -28.5 -123 q-17.5 -50 -44.5 -80 l397 0 l0 602 ZM635 0 l-547 0 l-9 -170 l-55 0 l0 227 l50 0 q36 25 57.5 77.5 q21.5 52.5 33.5 134 q12 81.5 18 193 q6 111.5 12 254.5 l418 0 l0 -659 l87 0 l0 -227 l-58 0 l-7 170 Z" /><glyph glyph-name="uni0416" unicode="&#x416;" d="M434 332 l-76 0 l-260 -332 l-75 0 l286 364 l-272 353 l70 -1 l253 -330 l74 0 l0 330 l63 0 l0 -330 l75 0 l253 330 l70 0 l-272 -352 l287 -364 l-77 0 l-261 332 l-75 0 l0 -332 l-63 0 l0 332 Z" /><glyph glyph-name="uni0417" unicode="&#x417;" d="M269 -10 q-83 0 -137.5 23 q-54.5 23 -82.5 47 l18 58 q38 -31 87 -51 q49 -20 117 -20 q39 0 72 9 q33 9 57 28 q24 19 38 48 q14 29 14 69 q0 72 -43.5 106 q-43.5 34 -131.5 34 l-98 0 l0 55 l85 0 q75 0 118 34.5 q43 34.5 43 106.5 q0 66 -40 99.5 q-40 33.5 -112 33.5 q-58 0 -104.5 -18 q-46.5 -18 -80.5 -42 l-20 55 q31 21 82 41 q51 20 123 20 q98 0 157 -46.5 q59 -46.5 59 -139.5 q0 -68 -35 -109.5 q-35 -41.5 -99 -57.5 q80 -11 121 -54 q41 -43 41 -117 q0 -57 -21 -97 q-21 -40 -55.5 -65.5 q-34.5 -25.5 -79 -37.5 q-44.5 -12 -92.5 -12 Z" /><glyph glyph-name="uni0418" unicode="&#x418;" d="M92 0 l0 716 l64 0 l0 -630 l431 630 l67 0 l0 -716 l-64 0 l0 630 l-431 -630 l-67 0 Z" /><glyph glyph-name="uni0419" unicode="&#x419;" d="M370 759 q-77 0 -114.5 39.5 q-37.5 39.5 -37.5 97.5 l60 0 q0 -48 24.5 -69.5 q24.5 -21.5 67.5 -21.5 q43 0 67 21.5 q24 21.5 24 69.5 l59 0 q0 -29 -9 -54 q-9 -25 -28 -43.5 q-19 -18.5 -47 -29 q-28 -10.5 -66 -10.5 ZM92 0 l0 716 l64 0 l0 -630 l431 630 l67 0 l0 -716 l-64 0 l0 630 l-431 -630 l-67 0 Z" /><glyph glyph-name="uni041B" unicode="&#x41b;" d="M198 196 q-8 -47 -21 -84.5 q-13 -37.5 -33 -64 q-20 -26.5 -48 -40 q-28 -13.5 -67 -11.5 l-8 61 q53 -2 79 37.5 q26 39.5 38 113.5 q14 78 20.5 208.5 q6.5 130.5 9.5 299.5 l405 0 l0 -716 l-63 0 l0 659 l-283 0 q-4 -150 -10 -268.5 q-6 -118.5 -19 -194.5 Z" /><glyph glyph-name="uni041F" unicode="&#x41f;" d="M558 659 l-402 0 l0 -659 l-64 0 l0 716 l529 0 l0 -716 l-63 0 l0 659 Z" /><glyph glyph-name="uni0423" unicode="&#x423;" d="M155 -3 q-9 0 -16 1 q-7 1 -12 2 l-7 63 q7 -2 16 -2.5 q9 -0.5 18 -0.5 q48 0 78 31.5 q30 31.5 58 92.5 l-260 532 l72 0 l221 -459 l191 459 l65 0 l-223 -523 q-21 -49 -41.5 -86 q-20.5 -37 -44 -61.5 q-23.5 -24.5 -51.5 -36.5 q-28 -12 -64 -12 Z" /><glyph glyph-name="uni0424" unicode="&#x424;" d="M370 79 q-68 1 -127 19 q-59 18 -102.5 52.5 q-43.5 34.5 -68 85.5 q-24.5 51 -24.5 120 q0 69 24.5 120.5 q24.5 51.5 68 87 q43.5 35.5 102.5 54 q59 18.5 127 21.5 l0 86 l63 0 l0 -86 q69 -2 127.5 -19.5 q58.5 -17.5 102 -52 q43.5 -34.5 68 -85.5 q24.5 -51 24.5 -120 q0 -68 -24.5 -120 q-24.5 -52 -68 -87.5 q-43.5 -35.5 -102 -54.5 q-58.5 -19 -127.5 -21 l0 -89 l-63 0 l0 89 ZM370 587 q-54 -3 -101 -16.5 q-47 -13.5 -81.5 -40.5 q-34.5 -27 -54.5 -69.5 q-20 -42.5 -20 -103.5 q0 -59 20 -101 q20 -42 54.5 -69 q34.5 -27 81.5 -40.5 q47 -13.5 101 -15.5 l0 456 ZM689 360 q0 60 -19.5 102 q-19.5 42 -54 69 q-34.5 27 -81.5 40 q-47 13 -101 15 l0 -456 q54 3 101 16.5 q47 13.5 81.5 41 q34.5 27.5 54 70 q19.5 42.5 19.5 102.5 Z" /><glyph glyph-name="uni0426" unicode="&#x426;" d="M651 -170 l-7 170 l-552 0 l0 716 l64 0 l0 -659 l402 0 l0 659 l63 0 l0 -659 l88 0 l0 -227 l-58 0 Z" /><glyph glyph-name="uni0427" unicode="&#x427;" d="M503 0 l0 354 q-39 -39 -89.5 -60 q-50.5 -21 -113.5 -21 q-51 0 -93 14 q-42 14 -72.5 44.5 q-30.5 30.5 -47.5 78 q-17 47.5 -17 114.5 l0 192 l63 0 l0 -190 q0 -52 12 -89.5 q12 -37.5 34 -62 q22 -24.5 52.5 -36 q30.5 -11.5 67.5 -11.5 q63 0 114.5 21 q51.5 21 89.5 72 l0 296 l63 0 l0 -716 l-63 0 Z" /><glyph glyph-name="uni0428" unicode="&#x428;" d="M92 716 l64 0 l0 -659 l280 0 l0 659 l65 0 l0 -659 l282 0 l0 659 l64 0 l0 -716 l-755 0 l0 716 Z" /><glyph glyph-name="uni0429" unicode="&#x429;" d="M875 -170 l-8 170 l-775 0 l0 716 l64 0 l0 -659 l280 0 l0 659 l65 0 l0 -659 l282 0 l0 659 l64 0 l0 -659 l85 0 l0 -227 l-57 0 Z" /><glyph glyph-name="uni042A" unicode="&#x42a;" d="M273 363 l0 -306 l148 0 q85 0 133 36 q48 36 48 122 q0 148 -171 148 l-158 0 ZM209 659 l-185 0 l0 57 l249 0 l0 -296 l160 0 q112 0 173 -48.5 q61 -48.5 61 -153.5 q0 -59 -17.5 -100 q-17.5 -41 -49.5 -67.5 q-32 -26.5 -77.5 -38.5 q-45.5 -12 -101.5 -12 l-212 0 l0 659 Z" /><glyph glyph-name="uni042B" unicode="&#x42b;" d="M725 716 l0 -716 l-63 0 l0 716 l63 0 ZM156 363 l0 -306 l142 0 q86 0 133.5 36 q47.5 36 47.5 122 q0 148 -170 148 l-153 0 ZM92 716 l64 0 l0 -296 l154 0 q112 0 173.5 -48.5 q61.5 -48.5 61.5 -153.5 q0 -59 -17.5 -100 q-17.5 -41 -50 -67.5 q-32.5 -26.5 -78 -38.5 q-45.5 -12 -101.5 -12 l-206 0 l0 716 Z" /><glyph glyph-name="uni042C" unicode="&#x42c;" d="M156 368 l0 -311 l140 0 q43 0 77.5 8.5 q34.5 8.5 57.5 27.5 q23 19 35.5 50 q12.5 31 12.5 75 q0 150 -173 150 l-150 0 ZM92 716 l64 0 l0 -291 l152 0 q114 0 175.5 -49 q61.5 -49 61.5 -156 q0 -59 -17.5 -100.5 q-17.5 -41.5 -50 -68 q-32.5 -26.5 -78.5 -39 q-46 -12.5 -103 -12.5 l-204 0 l0 716 Z" /><glyph glyph-name="uni042D" unicode="&#x42d;" d="M270 -10 q-77 0 -131 19 q-54 19 -86 43 l13 61 q36 -29 88 -47.5 q52 -18.5 116 -18.5 q128 0 196.5 72 q68.5 72 75.5 208 l-345 0 l0 57 l345 0 q-6 139 -77 212 q-71 73 -200 73 q-60 0 -107.5 -18 q-47.5 -18 -85.5 -50 l-19 59 q30 26 84 46 q54 20 132 20 q79 0 142 -25 q63 -25 107 -72.5 q44 -47.5 68 -115.5 q24 -68 24 -155 q0 -86 -22.5 -154.5 q-22.5 -68.5 -66 -116 q-43.5 -47.5 -107 -72.5 q-63.5 -25 -144.5 -25 Z" /><glyph glyph-name="uni042E" unicode="&#x42e;" d="M601 -10 q-65 0 -121 22.5 q-56 22.5 -98 65 q-42 42.5 -67.5 105.5 q-25.5 63 -29.5 144 l-129 0 l0 -327 l-64 0 l0 716 l64 0 l0 -332 l129 0 q3 82 28.5 146 q25.5 64 67.5 107.5 q42 43.5 98 66 q56 22.5 122 22.5 q67 0 125 -24 q58 -24 101 -70.5 q43 -46.5 67 -114.5 q24 -68 24 -156 q0 -88 -24 -157 q-24 -69 -67 -116.5 q-43 -47.5 -101 -72.5 q-58 -25 -125 -25 ZM601 47 q54 0 100 19 q46 19 79.5 57.5 q33.5 38.5 52 97 q18.5 58.5 18.5 137.5 q0 79 -18.5 137.5 q-18.5 58.5 -52 97 q-33.5 38.5 -79.5 57.5 q-46 19 -100 19 q-54 0 -100 -19 q-46 -19 -79.5 -57.5 q-33.5 -38.5 -52 -97 q-18.5 -58.5 -18.5 -137.5 q0 -79 18.5 -137.5 q18.5 -58.5 52 -97 q33.5 -38.5 79.5 -57.5 q46 -19 100 -19 Z" /><glyph glyph-name="uni042F" unicode="&#x42f;" d="M108 0 l-77 0 l229 311 q-84 14 -129 61.5 q-45 47.5 -45 138.5 q0 54 17.5 92.5 q17.5 38.5 49.5 63.5 q32 25 77.5 37 q45.5 12 101.5 12 l202 0 l0 -716 l-64 0 l0 302 l-143 0 l-219 -302 ZM470 359 l0 300 l-138 0 q-86 0 -133 -35 q-47 -35 -47 -114 q0 -80 45 -115.5 q45 -35.5 136 -35.5 l137 0 Z" /><glyph glyph-name="uni0431" unicode="&#x431;" d="M305 -10 q-54 0 -99.5 18 q-45.5 18 -78.5 54.5 q-33 36.5 -51.5 92.5 q-18.5 56 -18.5 131 q0 57 2 116 q2 59 14 112.5 q12 53.5 39.5 98 q27.5 44.5 78.5 73.5 q22 12 45.5 19.5 q23.5 7.5 50 12 q26.5 4.5 56.5 6 q30 1.5 65 2.5 q36 2 58 7 q22 5 38 15 l9 -56 q-16 -11 -40 -15.5 q-24 -4.5 -60 -6.5 q-70 -2 -116 -7 q-46 -5 -84 -25 q-29 -17 -48.5 -41.5 q-19.5 -24.5 -32 -56.5 q-12.5 -32 -19 -71 q-6.5 -39 -9.5 -84 q26 68 80 103 q54 35 131 35 q50 0 93 -18 q43 -18 74.5 -51.5 q31.5 -33.5 49.5 -83 q18 -49.5 18 -112.5 q0 -63 -18.5 -113 q-18.5 -50 -51.5 -84.5 q-33 -34.5 -78 -52.5 q-45 -18 -97 -18 ZM304 43 q40 0 74 13.5 q34 13.5 59 40.5 q25 27 39 67.5 q14 40.5 14 93.5 q0 53 -14 93 q-14 40 -38.5 67 q-24.5 27 -58.5 40.5 q-34 13.5 -74 13.5 q-41 0 -75.5 -13.5 q-34.5 -13.5 -60 -40 q-25.5 -26.5 -39.5 -66.5 q-14 -40 -14 -93 q0 -54 14 -94.5 q14 -40.5 39 -67.5 q25 -27 59.5 -40.5 q34.5 -13.5 75.5 -13.5 Z" /><glyph glyph-name="uni0432" unicode="&#x432;" d="M140 468 l0 -174 l123 0 q54 0 87 22.5 q33 22.5 33 67.5 q0 48 -31 66 q-31 18 -88 18 l-124 0 ZM140 246 l0 -195 l128 0 q31 0 56.5 5 q25.5 5 44 16.5 q18.5 11.5 28.5 30 q10 18.5 10 46.5 q0 54 -35 75.5 q-35 21.5 -105 21.5 l-127 0 ZM81 519 l180 0 q89 0 135 -31 q46 -31 46 -98 q0 -46 -23.5 -75.5 q-23.5 -29.5 -65.5 -41.5 q56 -8 85.5 -40 q29.5 -32 29.5 -83 q0 -41 -14.5 -69.5 q-14.5 -28.5 -41.5 -46.5 q-27 -18 -64.5 -26 q-37.5 -8 -83.5 -8 l-183 0 l0 519 Z" /><glyph glyph-name="uni0433" unicode="&#x433;" d="M140 468 l0 -468 l-59 0 l0 519 l309 0 l0 -51 l-250 0 Z" /><glyph glyph-name="uni0434" unicode="&#x434;" d="M418 468 l-225 0 q-3 -84 -7 -151.5 q-4 -67.5 -11.5 -119 q-7.5 -51.5 -20 -88 q-12.5 -36.5 -32.5 -58.5 l296 0 l0 417 ZM495 0 l-423 0 l-7 -148 l-52 0 l0 199 l36 0 q29 14 45.5 50.5 q16.5 36.5 25.5 95 q9 58.5 12.5 139.5 q3.5 81 6.5 183 l338 0 l0 -468 l77 0 l0 -199 l-51 0 l-8 148 Z" /><glyph glyph-name="uni0436" unicode="&#x436;" d="M342 235 l-61 0 l-180 -235 l-70 0 l201 261 l-205 258 l70 0 l181 -233 l64 0 l0 233 l60 0 l0 -233 l64 0 l183 233 l67 0 l-204 -255 l202 -264 l-72 0 l-179 235 l-61 0 l0 -235 l-60 0 l0 235 Z" /><glyph glyph-name="uni0437" unicode="&#x437;" d="M205 -10 q-51 0 -93.5 11.5 q-42.5 11.5 -69.5 28.5 l18 51 q28 -16 65.5 -27 q37.5 -11 79.5 -11 q31 0 58.5 5.5 q27.5 5.5 47.5 18 q20 12.5 31.5 32.5 q11.5 20 11.5 49 q0 52 -33.5 73.5 q-33.5 21.5 -101.5 21.5 l-79 0 l0 48 l79 0 q54 0 85 24 q31 24 31 72 q0 48 -35.5 69 q-35.5 21 -87.5 21 q-43 0 -77 -11 q-34 -11 -63 -28 l-13 50 q25 15 62.5 28 q37.5 13 92.5 13 q86 0 131.5 -35.5 q45.5 -35.5 45.5 -102.5 q0 -51 -26 -81 q-26 -30 -70 -40 q58 -8 88 -39.5 q30 -31.5 30 -80.5 q0 -44 -16 -74.5 q-16 -30.5 -44.5 -49.5 q-28.5 -19 -66.5 -27.5 q-38 -8.5 -81 -8.5 Z" /><glyph glyph-name="uni0438" unicode="&#x438;" d="M81 519 l59 0 l0 -434 l317 434 l57 0 l0 -519 l-59 0 l0 435 l-316 -435 l-58 0 l0 519 Z" /><glyph glyph-name="uni0439" unicode="&#x439;" d="M299 586 q-36 0 -62.5 10 q-26.5 10 -44.5 27 q-18 17 -26.5 40 q-8.5 23 -8.5 49 l60 0 q0 -42 22 -61.5 q22 -19.5 60 -19.5 q38 0 59 19.5 q21 19.5 21 61.5 l60 0 q0 -26 -8.5 -49 q-8.5 -23 -26 -40 q-17.5 -17 -44 -27 q-26.5 -10 -61.5 -10 ZM81 519 l59 0 l0 -434 l317 434 l57 0 l0 -519 l-59 0 l0 435 l-316 -435 l-58 0 l0 519 Z" /><glyph glyph-name="uni043A" unicode="&#x43a;" d="M204 235 l-63 0 l0 -235 l-60 0 l0 519 l60 0 l0 -233 l66 0 l196 233 l68 0 l-218 -256 l215 -263 l-72 0 l-192 235 Z" /><glyph glyph-name="uni043B" unicode="&#x43b;" d="M163 105 q-17 -56 -48.5 -82 q-31.5 -26 -84.5 -24 l-10 55 q65 -4 87 66 q19 57 23 155 q4 98 5 244 l323 0 l0 -519 l-59 0 l0 468 l-208 0 q-1 -122 -5.5 -212.5 q-4.5 -90.5 -22.5 -150.5 Z" /><glyph glyph-name="uni043C" unicode="&#x43c;" d="M136 461 l0 -461 l-55 0 l0 519 l91 0 l180 -377 l185 377 l88 0 l0 -519 l-59 0 l0 460 l-194 -394 l-46 0 l-190 395 Z" /><glyph glyph-name="uni043D" unicode="&#x43d;" d="M436 244 l-296 0 l0 -244 l-59 0 l0 519 l59 0 l0 -224 l296 0 l0 224 l60 0 l0 -519 l-60 0 l0 244 Z" /><glyph glyph-name="uni043F" unicode="&#x43f;" d="M426 468 l-286 0 l0 -468 l-59 0 l0 519 l404 0 l0 -519 l-59 0 l0 468 Z" /><glyph glyph-name="uni0442" unicode="&#x442;" d="M264 468 l0 -468 l-60 0 l0 468 l-172 0 l0 51 l405 0 l0 -51 l-173 0 Z" /><glyph glyph-name="uni0444" unicode="&#x444;" d="M321 -177 l0 169 q-57 2 -107.5 19 q-50.5 17 -88.5 50.5 q-38 33.5 -60 83 q-22 49.5 -22 115.5 q0 66 22 115.5 q22 49.5 60 82.5 q38 33 88.5 50 q50.5 17 107.5 19 l0 200 l58 0 l0 -200 q57 -2 107.5 -19 q50.5 -17 88.5 -50 q38 -33 60 -82.5 q22 -49.5 22 -115.5 q0 -66 -22.5 -115.5 q-22.5 -49.5 -60.5 -83 q-38 -33.5 -88.5 -50.5 q-50.5 -17 -106.5 -19 l0 -169 l-58 0 ZM103 260 q0 -56 17 -95.5 q17 -39.5 47 -65.5 q30 -26 69.5 -39 q39.5 -13 84.5 -15 l0 431 q-45 -2 -85 -15 q-40 -13 -69.5 -39 q-29.5 -26 -46.5 -66 q-17 -40 -17 -96 ZM596 260 q0 56 -17 95.5 q-17 39.5 -46.5 65.5 q-29.5 26 -69 39 q-39.5 13 -84.5 16 l0 -431 q45 2 84.5 15 q39.5 13 69 38.5 q29.5 25.5 46.5 65.5 q17 40 17 96 Z" /><glyph glyph-name="uni0446" unicode="&#x446;" d="M512 -148 l-8 148 l-423 0 l0 519 l59 0 l0 -468 l286 0 l0 468 l59 0 l0 -468 l77 0 l0 -199 l-50 0 Z" /><glyph glyph-name="uni0447" unicode="&#x447;" d="M389 0 l0 254 q-25 -27 -64 -44 q-39 -17 -90 -17 q-78 0 -123.5 41.5 q-45.5 41.5 -45.5 130.5 l0 154 l60 0 l0 -153 q0 -68 31.5 -95.5 q31.5 -27.5 82.5 -27.5 q48 0 87.5 19.5 q39.5 19.5 61.5 57.5 l0 199 l60 0 l0 -519 l-60 0 Z" /><glyph glyph-name="uni0448" unicode="&#x448;" d="M81 519 l59 0 l0 -468 l222 0 l0 468 l59 0 l0 -468 l222 0 l0 468 l59 0 l0 -519 l-621 0 l0 519 Z" /><glyph glyph-name="uni0449" unicode="&#x449;" d="M729 -148 l-8 148 l-640 0 l0 519 l59 0 l0 -468 l222 0 l0 468 l59 0 l0 -468 l222 0 l0 468 l59 0 l0 -468 l77 0 l0 -199 l-50 0 Z" /><glyph glyph-name="uni044A" unicode="&#x44a;" d="M234 275 l0 -224 l91 0 q64 0 104.5 26.5 q40.5 26.5 40.5 86.5 q0 59 -36 85 q-36 26 -101 26 l-99 0 ZM174 468 l-142 0 l0 51 l202 0 l0 -193 l99 0 q92 0 144 -37.5 q52 -37.5 52 -121.5 q0 -43 -15 -74.5 q-15 -31.5 -42 -52 q-27 -20.5 -64.5 -30.5 q-37.5 -10 -82.5 -10 l-151 0 l0 468 Z" /><glyph glyph-name="uni044B" unicode="&#x44b;" d="M585 0 l-60 0 l0 519 l60 0 l0 -519 ZM140 275 l0 -224 l90 0 q64 0 104 26.5 q40 26.5 40 86.5 q0 59 -36 85 q-36 26 -100 26 l-98 0 ZM81 519 l59 0 l0 -193 l98 0 q92 0 144 -37.5 q52 -37.5 52 -121.5 q0 -43 -15.5 -74.5 q-15.5 -31.5 -42.5 -52 q-27 -20.5 -64.5 -30.5 q-37.5 -10 -81.5 -10 l-149 0 l0 519 Z" /><glyph glyph-name="uni044C" unicode="&#x44c;" d="M139 275 l0 -224 l92 0 q64 0 104 26.5 q40 26.5 40 86.5 q0 59 -36 85 q-36 26 -100 26 l-100 0 ZM80 519 l59 0 l0 -193 l100 0 q92 0 144 -37.5 q52 -37.5 52 -121.5 q0 -43 -15.5 -74.5 q-15.5 -31.5 -42.5 -52 q-27 -20.5 -64.5 -30.5 q-37.5 -10 -81.5 -10 l-151 0 l0 519 Z" /><glyph glyph-name="uni044D" unicode="&#x44d;" d="M198 -10 q-49 0 -85 10.5 q-36 10.5 -65 29.5 l14 53 q58 -41 136 -41 q89 0 141 51.5 q52 51.5 57 148.5 l-242 0 l0 50 l240 0 q-8 88 -58.5 136 q-50.5 48 -136.5 48 q-40 0 -75.5 -9.5 q-35.5 -9.5 -63.5 -26.5 l-14 50 q29 16 68 27.5 q39 11.5 85 11.5 q58 0 105.5 -18.5 q47.5 -18.5 81.5 -53 q34 -34.5 52 -84.5 q18 -50 18 -114 q0 -63 -18.5 -113 q-18.5 -50 -52.5 -84.5 q-34 -34.5 -81.5 -53 q-47.5 -18.5 -105.5 -18.5 Z" /><glyph glyph-name="uni044E" unicode="&#x44e;" d="M489 -10 q-49 0 -91 17 q-42 17 -73.5 49.5 q-31.5 32.5 -50 80 q-18.5 47.5 -21.5 107.5 l-113 0 l0 -244 l-59 0 l0 519 l59 0 l0 -224 l115 0 q5 56 24.5 99.5 q19.5 43.5 50.5 73.5 q31 30 71.5 45.5 q40.5 15.5 87.5 15.5 q51 0 94.5 -18 q43.5 -18 75.5 -52.5 q32 -34.5 50 -84.5 q18 -50 18 -114 q0 -64 -18 -114.5 q-18 -50.5 -50 -85 q-32 -34.5 -75.5 -52.5 q-43.5 -18 -94.5 -18 ZM489 43 q38 0 70.5 14 q32.5 14 56 41 q23.5 27 37 67.5 q13.5 40.5 13.5 94.5 q0 54 -13.5 94.5 q-13.5 40.5 -37 68 q-23.5 27.5 -56 41 q-32.5 13.5 -70.5 13.5 q-38 0 -70 -13.5 q-32 -13.5 -55.5 -41 q-23.5 -27.5 -37 -68 q-13.5 -40.5 -13.5 -94.5 q0 -54 13.5 -94.5 q13.5 -40.5 37 -67.5 q23.5 -27 55.5 -41 q32 -14 70 -14 Z" /><glyph glyph-name="uni044F" unicode="&#x44f;" d="M368 257 l0 211 l-94 0 q-63 0 -103.5 -25 q-40.5 -25 -40.5 -81 q0 -56 36 -80.5 q36 -24.5 101 -24.5 l101 0 ZM368 206 l-114 0 l-146 -206 l-69 0 l156 218 q-59 12 -92 46 q-33 34 -33 95 q0 42 15 72 q15 30 42 49.5 q27 19.5 64.5 29 q37.5 9.5 82.5 9.5 l153 0 l0 -519 l-59 0 l0 206 Z" /><glyph glyph-name="uni0452" unicode="&#x452;" d="M513 -29 q0 -66 -34.5 -109.5 q-34.5 -43.5 -111.5 -48.5 l-10 53 q53 4 75 30.5 q22 26.5 22 71.5 l-1 391 q0 64 -34.5 91 q-34.5 27 -91.5 27 q-38 0 -66.5 -10.5 q-28.5 -10.5 -50.5 -27.5 q-22 -17 -37.5 -40.5 q-15.5 -23.5 -27.5 -48.5 l0 -350 l-58 0 l0 586 l-88 0 l0 46 l88 0 l0 84 l58 0 l0 -84 l173 0 l0 -46 l-173 0 l0 -73 l-1 -103 l2 0 q10 23 26.5 44.5 q16.5 21.5 40.5 38 q24 16.5 55.5 26.5 q31.5 10 71.5 10 q81 0 127 -41.5 q46 -41.5 46 -123.5 l0 -393 l0 0 Z" /><glyph glyph-name="uni0454" unicode="&#x454;" d="M452 30 q-30 -17 -66.5 -28.5 q-36.5 -11.5 -88.5 -11.5 q-57 0 -104 18.5 q-47 18.5 -80 53 q-33 34.5 -51.5 84.5 q-18.5 50 -18.5 114 q0 63 18 113 q18 50 52 84.5 q34 34.5 81 53 q47 18.5 106 18.5 q43 0 81.5 -11 q38.5 -11 66.5 -28 l-14 -53 q-27 19 -62 29.5 q-35 10.5 -71 10.5 q-88 0 -138.5 -47.5 q-50.5 -47.5 -58.5 -137.5 l246 0 l0 -51 l-246 0 q5 -94 56 -146 q51 -52 137 -52 q41 0 76.5 11 q35.5 11 64.5 29 l14 -53 l0 0 Z" /><glyph glyph-name="uni0457" unicode="&#x457;" d="M188 619 q-20 0 -31 12.5 q-11 12.5 -11 29.5 q0 17 11 30 q11 13 31 13 q20 0 31 -13 q11 -13 11 -30 q0 -17 -11 -29.5 q-11 -12.5 -31 -12.5 ZM33 619 q-20 0 -31.5 12.5 q-11.5 12.5 -11.5 29.5 q0 17 11.5 30 q11.5 13 31.5 13 q20 0 32 -13 q12 -13 12 -30 q0 -17 -12 -29.5 q-12 -12.5 -32 -12.5 ZM140 519 l0 -519 l-59 0 l0 519 l59 0 Z" /><glyph glyph-name="uni0459" unicode="&#x459;" d="M163 105 q-17 -56 -48.5 -82 q-31.5 -26 -84.5 -24 l-10 55 q65 -4 87 66 q19 57 23 155 q4 98 5 244 l323 0 l0 -193 l105 0 q91 0 144 -38 q53 -38 53 -121 q0 -43 -15.5 -74.5 q-15.5 -31.5 -42.5 -52 q-27 -20.5 -64.5 -30.5 q-37.5 -10 -82.5 -10 l-156 0 l0 468 l-208 0 q-1 -122 -5.5 -212.5 q-4.5 -90.5 -22.5 -150.5 ZM555 51 q64 0 104.5 26.5 q40.5 26.5 40.5 86.5 q0 59 -36 85 q-36 26 -101 26 l-105 0 l0 -224 l97 0 Z" /><glyph glyph-name="uni045A" unicode="&#x45a;" d="M436 260 l-296 0 l0 -260 l-59 0 l0 519 l59 0 l0 -208 l296 0 l0 208 l60 0 l0 -209 l100 0 q92 0 144 -36 q52 -36 52 -114 q0 -42 -15.5 -72 q-15.5 -30 -42.5 -49.5 q-27 -19.5 -64.5 -29 q-37.5 -9.5 -81.5 -9.5 l-152 0 l0 260 ZM496 259 l0 -208 l92 0 q63 0 103.5 24.5 q40.5 24.5 40.5 80.5 q0 54 -36 78.5 q-36 24.5 -101 24.5 l-99 0 Z" /><glyph glyph-name="uni045B" unicode="&#x45b;" d="M327 477 q-38 0 -66.5 -10.5 q-28.5 -10.5 -50.5 -27.5 q-22 -17 -37.5 -40.5 q-15.5 -23.5 -27.5 -48.5 l0 -350 l-59 0 l0 586 l-87 0 l0 46 l87 0 l0 84 l59 0 l0 -84 l173 0 l0 -46 l-173 0 l0 -73 l-1 -102 l3 0 q10 23 26.5 44 q16.5 21 40 37.5 q23.5 16.5 55 26.5 q31.5 10 71.5 10 q80 0 126.5 -41.5 q46.5 -41.5 46.5 -123.5 l0 -364 l-60 0 l0 359 q0 64 -34.5 91 q-34.5 27 -91.5 27 Z" /><glyph glyph-name="uni045E" unicode="&#x45e;" d="M258 585 q-36 0 -62.5 10 q-26.5 10 -44 27 q-17.5 17 -26 40 q-8.5 23 -8.5 50 l60 0 q0 -42 21.5 -61.5 q21.5 -19.5 59.5 -19.5 q38 0 59.5 19.5 q21.5 19.5 21.5 61.5 l60 0 q0 -27 -9 -50 q-9 -23 -26.5 -40 q-17.5 -17 -44 -27 q-26.5 -10 -61.5 -10 ZM102 -187 q-29 0 -46 7 l7 51 q6 -2 15 -3.5 q9 -1.5 23 -1.5 q41 0 67 28.5 q26 28.5 52 88.5 l-201 536 l64 0 l169 -460 l174 460 l58 0 l-193 -512 q-18 -47 -36.5 -83.5 q-18.5 -36.5 -40.5 -61 q-22 -24.5 -49 -37 q-27 -12.5 -63 -12.5 Z" /><glyph glyph-name="uni045F" unicode="&#x45f;" d="M316 0 l-4 -148 l-49 0 l-4 148 l-178 0 l0 519 l59 0 l0 -468 l294 0 l0 468 l59 0 l0 -519 l-177 0 Z" /><glyph glyph-name="uni0490" unicode="&#x490;" d="M156 659 l0 -659 l-64 0 l0 716 l319 0 l8 169 l57 0 l0 -226 l-320 0 Z" /><glyph glyph-name="uni0491" unicode="&#x491;" d="M140 468 l0 -468 l-59 0 l0 519 l256 0 l8 148 l50 0 l0 -199 l-255 0 Z" /><glyph glyph-name="uni0492" unicode="&#x492;" d="M25 384 l107 0 l0 332 l384 0 l0 -57 l-320 0 l0 -275 l199 0 l0 -52 l-199 0 l0 -332 l-64 0 l0 332 l-107 0 l0 52 Z" /><glyph glyph-name="uni0493" unicode="&#x493;" d="M19 286 l90 0 l0 233 l309 0 l0 -51 l-250 0 l0 -182 l161 0 l0 -46 l-161 0 l0 -240 l-59 0 l0 240 l-90 0 l0 46 Z" /><glyph glyph-name="uni049A" unicode="&#x49a;" d="M237 331 l-81 0 l0 -331 l-64 0 l0 716 l64 0 l0 -328 l80 0 l274 328 l72 0 l-293 -352 l258 -307 l81 0 l0 -227 l-57 0 l-9 170 l-45 0 l-280 331 Z" /><glyph glyph-name="uni049B" unicode="&#x49b;" d="M204 235 l-63 0 l0 -235 l-60 0 l0 519 l60 0 l0 -233 l66 0 l196 233 l68 0 l-218 -256 l173 -212 l64 0 l0 -199 l-50 0 l-8 148 l-36 0 l-192 235 Z" /><glyph glyph-name="uni04A2" unicode="&#x4a2;" d="M575 327 l-419 0 l0 -327 l-64 0 l0 716 l64 0 l0 -332 l419 0 l0 332 l63 0 l0 -659 l87 0 l0 -227 l-58 0 l-8 170 l-84 0 l0 327 Z" /><glyph glyph-name="uni04A3" unicode="&#x4a3;" d="M436 244 l-296 0 l0 -244 l-59 0 l0 519 l59 0 l0 -224 l296 0 l0 224 l60 0 l0 -468 l76 0 l0 -199 l-50 0 l-8 148 l-78 0 l0 244 Z" /><glyph glyph-name="uni04AF" unicode="&#x4af;" d="M227 -177 l0 175 l-208 521 l64 0 l176 -444 l176 444 l59 0 l-208 -520 l0 -176 l-59 0 Z" /><glyph glyph-name="uni04B0" unicode="&#x4b0;" d="M268 0 l0 271 l-164 0 l0 51 l157 0 l-244 394 l71 0 l215 -350 l215 350 l64 0 l-244 -394 l159 0 l0 -51 l-165 0 l0 -271 l-64 0 Z" /><glyph glyph-name="uni04B1" unicode="&#x4b1;" d="M227 -177 l0 128 l-142 0 l0 49 l141 0 l-207 519 l64 0 l176 -444 l176 444 l59 0 l-208 -519 l142 0 l0 -49 l-142 0 l0 -128 l-59 0 Z" /><glyph glyph-name="uni04D8" unicode="&#x4d8;" d="M351 -10 q-301 0 -301 358 l0 36 l551 0 q-5 135 -72.5 210 q-67.5 75 -199.5 75 q-67 0 -123 -16.5 q-56 -16.5 -98 -50.5 l-18 58 q38 29 98.5 47.5 q60.5 18.5 141.5 18.5 q82 0 145.5 -25.5 q63.5 -25.5 106.5 -73.5 q43 -48 65 -116 q22 -68 22 -153 q0 -84 -21.5 -152 q-21.5 -68 -62.5 -116 q-41 -48 -100 -74 q-59 -26 -134 -26 ZM351 47 q117 0 180 73.5 q63 73.5 70 206.5 l-487 0 q4 -147 62 -213.5 q58 -66.5 175 -66.5 Z" /><glyph glyph-name="uni04E8" unicode="&#x4e8;" d="M388 -10 q-72 0 -133.5 25 q-61.5 25 -107 72.5 q-45.5 47.5 -71 116.5 q-25.5 69 -25.5 157 q0 88 25.5 156 q25.5 68 71 114.5 q45.5 46.5 107 70.5 q61.5 24 133.5 24 q73 0 134.5 -24 q61.5 -24 106.5 -70.5 q45 -46.5 70.5 -114.5 q25.5 -68 25.5 -156 q0 -88 -25.5 -157 q-25.5 -69 -70.5 -116.5 q-45 -47.5 -106.5 -72.5 q-61.5 -25 -134.5 -25 ZM388 669 q-56 0 -104 -17.5 q-48 -17.5 -84 -52.5 q-36 -35 -57.5 -88 q-21.5 -53 -25.5 -124 l543 0 q-4 71 -26 124 q-22 53 -58 88 q-36 35 -84 52.5 q-48 17.5 -104 17.5 ZM388 47 q56 0 104.5 17.5 q48.5 17.5 84.5 52.5 q36 35 58 88.5 q22 53.5 25 125.5 l-543 0 q3 -72 25 -125.5 q22 -53.5 58 -88.5 q36 -35 84 -52.5 q48 -17.5 104 -17.5 Z" /><glyph glyph-name="uni04E9" unicode="&#x4e9;" d="M289 -10 q-53 0 -98 18 q-45 18 -78 52.5 q-33 34.5 -51.5 85 q-18.5 50.5 -18.5 114.5 q0 64 18.5 114 q18.5 50 51.5 84.5 q33 34.5 78 52.5 q45 18 98 18 q53 0 98.5 -18 q45.5 -18 78.5 -52.5 q33 -34.5 52 -84.5 q19 -50 19 -114 q0 -64 -19 -114.5 q-19 -50.5 -52 -85 q-33 -34.5 -78.5 -52.5 q-45.5 -18 -98.5 -18 ZM289 477 q-37 0 -69 -11.5 q-32 -11.5 -56.5 -34 q-24.5 -22.5 -40.5 -57 q-16 -34.5 -20 -79.5 l374 0 q-5 45 -21 79.5 q-16 34.5 -41 57 q-25 22.5 -57 34 q-32 11.5 -69 11.5 ZM289 43 q39 0 72.5 12.5 q33.5 12.5 59 38 q25.5 25.5 41 63 q15.5 37.5 17.5 87.5 l-378 0 q5 -100 57.5 -150.5 q52.5 -50.5 130.5 -50.5 Z" /><glyph glyph-name="uni2009" unicode="&#x2009;" d="" /><glyph glyph-name="uni20B4" unicode="&#x20b4;" d="M485 50 q-8 -8 -25 -18.5 q-17 -10.5 -41.5 -19.5 q-24.5 -9 -57.5 -15.5 q-33 -6.5 -73 -6.5 q-40 0 -78 9 q-38 9 -68 30 q-30 21 -48.5 57 q-18.5 36 -18.5 90 q0 53 22 92 l-63 0 l0 47 l101 0 q31 27 69 43 q38 16 72 29 q18 7 35 14.5 q17 7.5 31 16.5 l-308 0 l0 48 l364 0 q12 17 18.5 36.5 q6.5 19.5 6.5 45.5 q0 66 -37.5 95 q-37.5 29 -102.5 29 q-54 0 -96.5 -11.5 q-42.5 -11.5 -68.5 -27.5 l-11 54 q24 13 66 26 q42 13 108 13 q94 0 147.5 -42.5 q53.5 -42.5 53.5 -128.5 q0 -26 -5.5 -48.5 q-5.5 -22.5 -15.5 -40.5 l63 0 l0 -48 l-101 0 q-26 -24 -59.5 -40.5 q-33.5 -16.5 -66.5 -28.5 q-21 -8 -40 -16.5 q-19 -8.5 -35 -17.5 l302 0 l0 -47 l-361 0 q-29 -35 -29 -90 q0 -38 12 -63.5 q12 -25.5 33 -41 q21 -15.5 49 -22.5 q28 -7 60 -7 q33 0 62 6 q29 6 52.5 15 q23.5 9 40.5 19 q17 10 27 18 l15 -52 l0 0 Z" /><glyph glyph-name="uni20B8" unicode="&#x20b8;" d="M43 716 l473 0 l0 -49 l-473 0 l0 49 ZM311 506 l0 -506 l-64 0 l0 506 l-204 0 l0 58 l473 0 l0 -58 l-205 0 Z" /><glyph glyph-name="uni20BD" unicode="&#x20bd;" d="M186 663 l0 -278 l100 0 q87 0 130.5 34 q43.5 34 43.5 110 q0 68 -40 101 q-40 33 -125 33 l-109 0 ZM186 184 l0 -184 l-63 0 l0 184 l-90 0 l0 48 l90 0 l0 104 l-90 0 l0 49 l90 0 l0 331 l172 0 q109 0 168 -46 q59 -46 59 -140 q0 -51 -16.5 -88 q-16.5 -37 -47 -60.5 q-30.5 -23.5 -74.5 -34.5 q-44 -11 -98 -11 l-100 0 l0 -104 l231 0 l0 -48 l-231 0 Z" /><glyph glyph-name="uni2116" unicode="&#x2116;" d="M1060 548 q0 -40 -13.5 -73 q-13.5 -33 -37 -56.5 q-23.5 -23.5 -55.5 -36.5 q-32 -13 -69 -13 q-37 0 -68.5 12.5 q-31.5 12.5 -55 35.5 q-23.5 23 -37 55.5 q-13.5 32.5 -13.5 72.5 q0 40 13.5 73.5 q13.5 33.5 37 56.5 q23.5 23 55 36 q31.5 13 68.5 13 q37 0 69 -12.5 q32 -12.5 55.5 -35.5 q23.5 -23 37 -55.5 q13.5 -32.5 13.5 -72.5 ZM765 546 q0 -60 32.5 -95.5 q32.5 -35.5 87.5 -35.5 q55 0 88 35.5 q33 35.5 33 95.5 q0 61 -33 96.5 q-33 35.5 -88 35.5 q-55 0 -87.5 -35.5 q-32.5 -35.5 -32.5 -96.5 ZM151 642 l0 -642 l-59 0 l0 716 l83 0 l393 -644 l0 644 l60 0 l0 -716 l-85 0 l-392 642 Z" /><glyph glyph-name="uni2000" unicode="&#x2000;" d="" /><glyph glyph-name="uni2001" unicode="&#x2001;" d="" /><glyph glyph-name="uni2002" unicode="&#x2002;" d="" /><glyph glyph-name="uni2003" unicode="&#x2003;" d="" /><glyph glyph-name="uni2004" unicode="&#x2004;" d="" /><glyph glyph-name="uni2005" unicode="&#x2005;" d="" /><glyph glyph-name="uni2006" unicode="&#x2006;" d="" /><glyph glyph-name="uni2007" unicode="&#x2007;" d="" /><glyph glyph-name="uni2008" unicode="&#x2008;" d="" /><glyph glyph-name="uni200A" unicode="&#x200a;" d="" /><glyph glyph-name="uni200B" unicode="&#x200b;" d="" /><glyph glyph-name="uni202F" unicode="&#x202f;" d="" /><glyph glyph-name="uni205F" unicode="&#x205f;" d="" /><glyph glyph-name="uniFEFF" unicode="&#xfeff;" d="" /></font>
</defs>
</svg>
