<svg xmlns="http://www.w3.org/2000/svg" xmlns:xlink="http://www.w3.org/1999/xlink" width="310.063" height="208.574" viewBox="0 0 310.06284 208.57419"><defs><style>.cls-1{fill:url(#linear-gradient)}.cls-2{fill:url(#linear-gradient-2)}.cls-3{fill:#fff}.cls-4{fill:url(#linear-gradient-3)}.cls-5{fill:url(#linear-gradient-4)}.cls-6{fill:url(#linear-gradient-5)}.cls-7{fill:url(#linear-gradient-6)}.cls-8{fill:url(#linear-gradient-7)}.cls-9{fill:url(#linear-gradient-8)}.cls-10{fill:url(#linear-gradient-9)}.cls-11{fill:url(#linear-gradient-10)}.cls-12{fill:url(#linear-gradient-11)}</style><linearGradient id="linear-gradient" x1="205.522" y1="69.184" x2="214.689" y2="58.184" gradientUnits="userSpaceOnUse"><stop offset="0" stop-color="#fff"/><stop offset=".465" stop-color="#fff" stop-opacity=".602"/><stop offset=".831" stop-color="#fff" stop-opacity=".313"/><stop offset="1" stop-color="#fff" stop-opacity=".2"/></linearGradient><linearGradient id="linear-gradient-2" x1="121.319" y1="17.621" x2="239.923" y2="17.621" gradientUnits="userSpaceOnUse"><stop offset="0" stop-color="#fff" stop-opacity=".3"/><stop offset=".111" stop-color="#fff" stop-opacity=".336"/><stop offset=".293" stop-color="#fff" stop-opacity=".434"/><stop offset=".525" stop-color="#fff" stop-opacity=".594"/><stop offset=".794" stop-color="#fff" stop-opacity=".813"/><stop offset="1" stop-color="#fff"/></linearGradient><linearGradient id="linear-gradient-3" x1="241.119" y1="73.088" x2="309.063" y2="73.088" gradientUnits="userSpaceOnUse"><stop offset="0" stop-color="#fff"/><stop offset="1" stop-color="#fff" stop-opacity=".1"/></linearGradient><linearGradient id="linear-gradient-4" x1="252.213" y1="64.779" x2="278.263" y2="64.779" xlink:href="#linear-gradient-3"/><linearGradient id="linear-gradient-5" x1="239.153" y1="31.489" x2="277.713" y2="31.489" xlink:href="#linear-gradient-3"/><linearGradient id="linear-gradient-6" x1="142.383" y1="170.197" x2="238.603" y2="170.197" gradientUnits="userSpaceOnUse"><stop offset="0" stop-color="#fff"/><stop offset=".17" stop-color="#fff" stop-opacity=".776"/><stop offset=".397" stop-color="#fff" stop-opacity=".504"/><stop offset=".602" stop-color="#fff" stop-opacity=".287"/><stop offset=".777" stop-color="#fff" stop-opacity=".131"/><stop offset=".915" stop-color="#fff" stop-opacity=".035"/><stop offset="1" stop-color="#fff" stop-opacity="0"/></linearGradient><linearGradient id="linear-gradient-7" x1="127.757" y1="93.993" x2="136.423" y2="76.493" xlink:href="#linear-gradient-6"/><linearGradient id="linear-gradient-8" x1="119.54" y1="89.924" x2="128.206" y2="72.424" xlink:href="#linear-gradient-6"/><linearGradient id="linear-gradient-9" x1="105.357" y1="101.839" x2="126.663" y2="101.839" gradientUnits="userSpaceOnUse"><stop offset="0" stop-color="#fff"/><stop offset=".11" stop-color="#fff" stop-opacity=".849"/><stop offset=".273" stop-color="#fff" stop-opacity=".653"/><stop offset=".433" stop-color="#fff" stop-opacity=".49"/><stop offset=".589" stop-color="#fff" stop-opacity=".364"/><stop offset=".738" stop-color="#fff" stop-opacity=".273"/><stop offset=".878" stop-color="#fff" stop-opacity=".219"/><stop offset="1" stop-color="#fff" stop-opacity=".2"/></linearGradient><linearGradient id="linear-gradient-10" x1="105.616" y1="73.614" x2="147.913" y2="73.614" xlink:href="#linear-gradient-6"/><linearGradient id="linear-gradient-11" x1="3.783" y1="111.725" x2="93.628" y2="59.88" xlink:href="#linear-gradient-6"/></defs><title>excavator icon</title><g id="Layer_2" data-name="Layer 2"><g id="Layer_3_copy" data-name="Layer 3 copy"><path class="cls-1" d="M214.383 69.894c.05.97.11 2.06.12 3.24a8.173 8.173 0 0 1-3.54-1.11l-6.3-3.59c-1.45-.82-2.49-1.42-2.49-4.81v-2.3a6.197 6.197 0 0 1 .79-3.77 4.886 4.886 0 0 1 1.5-1.36l4.8-3.09v6.5a.509.509 0 0 0 .26.44l5.87 3.16c-1.3 1.54-1.18 3.75-1.01 6.69z"/><g id="_Group_" data-name="&lt;Group&gt;"><path class="cls-2" d="M232.943 30.684l6.98 1.95a16.467 16.467 0 0 0-1.38 1.61l-7.68-2.21-1.27-.36-8.12-2.34h-.01l-1.33-.39-85.88-24.73a5.593 5.593 0 0 0-6.71 3.21 3.786 3.786 0 0 0 .01 2.99l-2.21-1.02v-4.9a.5.5 0 1 0-1 0v4.45l-1-.46a3.476 3.476 0 0 1-2.01-3.46 4.413 4.413 0 0 1 1.91-3.06 4.451 4.451 0 0 1 3.47-.89l95.54 26.63 1.34.38 8.06 2.25h.01z"/><path class="cls-3" d="M310.063 52.664v8.32c0 5.07-2.63 6.65-3.75 7.33l-.24.14-47.78 27.67a10.168 10.168 0 0 1-4.2 1.01.504.504 0 0 0 .38-.48c0-.17 0-.34-.01-.51a9.822 9.822 0 0 0 3.37-.91l47.96-27.78c1.06-.64 3.27-1.96 3.27-6.47v-7.45l.75-.44a.484.484 0 0 0 .25-.43zm0-.94v.94a.475.475 0 0 0-.07-.25.493.493 0 0 0-.68-.18l-.25.15v-.66c0-1.3-.23-1.59-.3-1.65a.448.448 0 0 0 .2.04.499.499 0 0 0 .44-.27.509.509 0 0 0-.17-.66c.57.32.83 1.1.83 2.54z"/><path class="cls-3" d="M309.993 52.414a.475.475 0 0 1 .07.25.484.484 0 0 1-.25.43l-.75.44v-1.15l.25-.15a.493.493 0 0 1 .68.18zm-.76-3.23a.509.509 0 0 1 .17.66.499.499 0 0 1-.44.27.448.448 0 0 1-.2-.04v-.01c-.01 0-.01 0-.02-.01h-.01l-.02-.01-1.15-.61a1.8 1.8 0 0 1 1.54-.31l.09.04h.01c.01.01.02.01.03.02z"/><path class="cls-3" d="M306.593 47.804l2.51 1.32a1.8 1.8 0 0 0-1.54.31l-.97-.51zm2.47 4.58v1.15l-48.39 28.15c-6.45 3.65-6.4 5.68-6.25 11.69.02.85.04 1.76.04 2.77-.34.01-.67.01-1-.01 0-1-.02-1.9-.04-2.73-.15-6.11-.21-8.64 6.76-12.59z"/><path class="cls-4" d="M309.063 51.724v.66l-48.88 28.43c-6.97 3.95-6.91 6.48-6.76 12.59.02.83.04 1.73.04 2.73a8.132 8.132 0 0 1-3.54-1.11l-6.31-3.58c-1.44-.83-2.49-1.42-2.49-4.82v-2.29c-.06-2.9.65-3.8 1.65-4.75l1.12-1.03 7.96 4.28a.533.533 0 0 0 .24.06.553.553 0 0 0 .25-.07l54-31.49.01-.01a.127.127 0 0 0 .06-.04l.04-.03.89-.51c.11-.07.22-.14.34-.21a2.882 2.882 0 0 1 1.03-.49l.02.01h.01c.01.01.01.01.02.01v.01c.07.06.3.35.3 1.65z"/><path class="cls-3" d="M308.713 50.044a2.882 2.882 0 0 0-1.03.49c-.12.07-.23.14-.34.21l-.89.51a.543.543 0 0 0 .14-.36v-.88l.56-.33c.13-.08.27-.16.41-.25z"/><path class="cls-3" d="M307.563 49.434c-.14.09-.28.17-.41.25l-.56.33v-1.09zm-.97.58v.88a.543.543 0 0 1-.14.36l-.04.03a.127.127 0 0 1-.06.04h-.01a.497.497 0 1 1-.5-.86z"/><path class="cls-3" d="M306.593 48.924v1.09l-.75.45a.497.497 0 1 0 .5.86h.01l-.01.01-54 31.49a.553.553 0 0 1-.25.07.533.533 0 0 1-.24-.06l-7.96-4.28.27-.25a.492.492 0 0 0 .03-.7.27.27 0 0 0-.08-.07l6.03 3.24 1.94 1.04 53.51-31.2v-2.51a.499.499 0 0 0 .27.44z"/><path class="cls-3" d="M306.593 47.804v1.12l-.73-.38a.499.499 0 0 1-.27-.44.465.465 0 0 1 .06-.23.49.49 0 0 1 .67-.21z"/><path class="cls-3" d="M306.593 38.934v8.87l-.27-.14a.49.49 0 0 0-.67.21.465.465 0 0 0-.06.23v-9.17a5.653 5.653 0 0 0-2.67-4.82l-.81-.42a5.641 5.641 0 0 0-4.89.24l-17.96 9.64v8.15a.442.442 0 0 0-.07-.24.497.497 0 0 0-.68-.19l-.25.14v-22.39l-10.48 5.98v-.29a.495.495 0 0 0-.5-.5.448.448 0 0 0-.2.04l10.63-6.06.82.42a.496.496 0 0 0 .67-.22.465.465 0 0 0 .06-.23v14.25l17.49-9.39a6.707 6.707 0 0 1 2.61-.77l-41.4-21.54a5.13 5.13 0 0 0-4.98.13l-28.18 16.52h-.01l-1.35-.38 29.04-17.01a6.123 6.123 0 0 1 5.94-.15l44.11 22.94a6.925 6.925 0 0 1 .81.42 6.637 6.637 0 0 1 3.25 5.73z"/><path class="cls-3" d="M300.363 38.854a.503.503 0 0 1-.19.68l-15.5 8.67a.542.542 0 0 1-.25.06.495.495 0 0 1-.43-.25.506.506 0 0 1 .19-.69l15.5-8.66a.497.497 0 0 1 .68.19zm0 4a.503.503 0 0 1-.19.68l-15.5 8.67a.542.542 0 0 1-.25.06.496.496 0 0 1-.24-.93l15.5-8.67a.505.505 0 0 1 .68.19zm0 4.01a.505.505 0 0 1-.19.68l-15.5 8.66a.451.451 0 0 1-.25.07.505.505 0 0 1-.43-.26.494.494 0 0 1 .19-.68l15.5-8.67a.5.5 0 0 1 .68.2zm-21.1 4.86v10a.504.504 0 0 1-.25.43l-27.03 16.12a.42.42 0 0 0 .17-.18.497.497 0 0 0-.19-.68l-.75-.42v-9.93a.475.475 0 0 0 .07.25.5.5 0 0 0 .44.25.442.442 0 0 0 .24-.07l.25-.14v9.62l26.05-15.53v-8.86l.74-.42a.509.509 0 0 0 .26-.44zm-.02-23.67a.585.585 0 0 1 .02.13.465.465 0 0 1-.06.23.496.496 0 0 1-.67.22l-.82-.42.8-.46a.5.5 0 0 1 .38-.05l.09.04c.01 0 .01.01.02.01l.09.06c.01.01.02.02.02.03a.393.393 0 0 1 .13.21z"/><path class="cls-3" d="M279.193 51.484a.442.442 0 0 1 .07.24.509.509 0 0 1-.26.44l-.74.42v-1.15l.25-.14a.497.497 0 0 1 .68.19zm-.3-23.78a.5.5 0 0 0-.38.05l-.8.46-16.06-8.2-12.18 7.29a.484.484 0 0 0 .19-.21.49.49 0 0 0-.24-.66l-.25-.11 12.2-7.31a.502.502 0 0 1 .49-.01z"/><path class="cls-5" d="M278.263 52.584v8.86l-26.05 15.53v-9.62l15.27-8.66a.405.405 0 0 0 .09-.05z"/><path class="cls-3" d="M278.263 51.434v1.15l-10.69 6.06a.493.493 0 0 0 .21-.41v-.86z"/><path class="cls-6" d="M277.713 28.214l-10.63 6.06a.405.405 0 0 0-.09.05l-3.91 2.23c-3.49 1.98-6.4 3.65-8.47 6.41l-15.46-7.87a14.483 14.483 0 0 1 2.04-2.31.01.01 0 0 0 .01-.01l.01-.01a32.35 32.35 0 0 1 6.22-4.23l2.04-1.23 12.18-7.29z"/><path class="cls-3" d="M267.783 57.374v.86a.493.493 0 0 1-.21.41.405.405 0 0 1-.09.05.448.448 0 0 1-.2.04.495.495 0 0 1-.5-.5v-.29zm0-22.35v22.35l-1 .57v-22.35l1-.57z"/><path class="cls-3" d="M267.783 34.734v.29l-1 .57v-.86a.493.493 0 0 1 .21-.41.405.405 0 0 1 .09-.05.448.448 0 0 1 .2-.04.495.495 0 0 1 .5.5zm-.3 23.96l-15.27 8.66v-1.15l14.57-8.26v.29a.495.495 0 0 0 .5.5.448.448 0 0 0 .2-.04z"/><path class="cls-3" d="M263.083 36.554l3.91-2.23a.493.493 0 0 0-.21.41v.86l-3.21 1.83c-3.55 2.02-6.4 3.64-8.36 6.41h-.01a.502.502 0 0 0-.22-.68l-.37-.19c2.07-2.76 4.98-4.43 8.47-6.41z"/><path class="cls-3" d="M254.983 43.154a.502.502 0 0 1-.23.95.585.585 0 0 1-.22-.05l-.5-.25c.19-.29.38-.57.58-.84z"/><path class="cls-3" d="M255.203 43.834h.01c-1.94 2.75-3 6.61-3 13.13v9.24l-.74.42a.509.509 0 0 0-.26.44v-10.1c0-6.33 1.02-10.31 2.82-13.16l.5.25a.585.585 0 0 0 .22.05.502.502 0 0 0 .45-.27zm-.59-.87c-.2.27-.39.55-.58.84l-15.43-7.86a8.243 8.243 0 0 1 .55-.85zm-.15 53.18c.01.17.01.34.01.51a.504.504 0 0 1-.38.48c-.01.01-.01.01-.02.01s-.02.01-.03 0h-.18a.502.502 0 0 1-.39-.49c0-.18 0-.35-.01-.52.33.02.66.02 1 .01z"/><path class="cls-3" d="M254.043 97.144a.17.17 0 0 1-.07.01.308.308 0 0 1-.1-.01h.17zm-.57-.49a.502.502 0 0 0 .39.49 9.15 9.15 0 0 1-4.44-1.25l-6.3-3.58c-1.54-.88-3-1.71-3-5.69v-2.25c-.06-3.01.64-4.26 1.97-5.52l.87-.8.93.5-1.12 1.03c-1 .95-1.71 1.85-1.65 4.75v2.29c0 3.4 1.05 3.99 2.49 4.82l6.31 3.58a8.132 8.132 0 0 0 3.54 1.11c.01.17.01.34.01.52zm-1.26-30.45v1.15l-.25.14a.442.442 0 0 1-.24.07.5.5 0 0 1-.44-.25.475.475 0 0 1-.07-.25.509.509 0 0 1 .26-.44zm-.25 11.21a.497.497 0 0 1 .19.68.42.42 0 0 1-.17.18l-.01.01a.462.462 0 0 1-.26.07.55.55 0 0 1-.24-.07.481.481 0 0 1-.26-.43v-.86z"/><path class="cls-3" d="M251.473 78.284a.55.55 0 0 0 .24.07.533.533 0 0 1-.24-.06l-16.33-9.11a.71.71 0 0 0 .2.04.495.495 0 0 0 .43-.25.478.478 0 0 0 0-.49l.07-.05 15.37 8.56v.86a.481.481 0 0 0 .26.43zm-2.05-51.85a.49.49 0 0 1 .24.66.517.517 0 0 1-.66.25l-.85-.4 1.02-.62z"/><path class="cls-3" d="M249.473 27.304l-2.04 1.23a32.35 32.35 0 0 0-6.22 4.23.438.438 0 0 0 .16-.25.496.496 0 0 0-.35-.61l-.26-.07a33.43 33.43 0 0 1 6.17-4.17l1.2-.72h.02l.85.4a.488.488 0 0 0 .47-.04z"/><path class="cls-3" d="M249.173 26.324l-1.02.62h-.02l-5.54-2.52-8.53 5.54-1.29-.36 9.51-6.17a.51.51 0 0 1 .48-.04z"/><path class="cls-3" d="M248.133 26.944l-1.2.72a33.43 33.43 0 0 0-6.17 4.17h-.01l-6.69-1.87 8.53-5.54zm-3.94 50.66a.492.492 0 0 1-.03.7l-.27.25-.93-.5.52-.48a.508.508 0 0 1 .52-.11.413.413 0 0 1 .11.07.27.27 0 0 1 .08.07z"/><path class="cls-3" d="M244.003 77.464a.508.508 0 0 0-.52.11l-.52.48-16.65-8.97.24-.14a.505.505 0 0 0 .18-.69.47.47 0 0 0-.13-.15zm-2.98-45.56a.496.496 0 0 1 .35.61.438.438 0 0 1-.16.25l-.01.01a.01.01 0 0 1-.01.01.519.519 0 0 1-.44.08l-.83-.23c.27-.28.54-.54.83-.8h.01z"/><path class="cls-3" d="M240.753 32.864a.519.519 0 0 0 .44-.08 14.483 14.483 0 0 0-2.04 2.31l-.29-.14v-.01a.3.3 0 0 0 .04-.08.49.49 0 0 0-.34-.61l-.02-.01a16.467 16.467 0 0 1 1.38-1.61zm-6.69-2.9l6.69 1.87c-.29.26-.56.52-.83.8l-6.98-1.95zm5.61 129.87c.11 7.07.13 8.16-2.98 9.97l-58.44 34.14a34.097 34.097 0 0 1-34.12.11l-139.45-80.2c-4.88-2.81-4.81-5.71-4.62-13.45.03-1.44.07-3.04.08-4.85a9.78 9.78 0 0 0 .95 3.48l-.03 1.39c-.18 7.52-.24 10.05 4.12 12.56l139.45 80.2a33.084 33.084 0 0 0 33.11-.1l58.44-34.14c2.61-1.52 2.6-2.09 2.49-9.09-.02-.87-.03-1.84-.05-2.91a5.767 5.767 0 0 0 .98-2.87c.01 2.29.04 4.18.07 5.76zm-.07-6.3a.757.757 0 0 1 .01.15.615.615 0 0 1-.01.14z"/><path class="cls-3" d="M239.603 153.824v.25a5.767 5.767 0 0 1-.98 2.87c-.01-.9-.02-1.87-.02-2.93v-.2a.57.57 0 0 0 .01-.13.22.22 0 0 0-.01-.08v-.12h1v.34zm0-.34h-1a4.834 4.834 0 0 0-2.41-4.03l-11.97-7.02.26-.15-.51-.86.13-.22 12.6 7.39a5.832 5.832 0 0 1 2.9 4.89zm-.74-118.53l.29.14a8.243 8.243 0 0 0-.55.85l-.41-.21a.508.508 0 0 1-.24-.61l.33.09a.5.5 0 0 0 .58-.26zm-.3-.7a.49.49 0 0 1 .34.61.3.3 0 0 1-.04.08l-.21-.1a.513.513 0 0 0-.58.08c.15-.23.31-.46.47-.68z"/><path class="cls-3" d="M238.863 34.944v.01a.5.5 0 0 1-.58.26l-.33-.09v-.01a.99.99 0 0 1 .11-.17l.01-.02a.513.513 0 0 1 .58-.08zm-.26 118.66a.22.22 0 0 1 .01.08.57.57 0 0 1-.01.13zm0 .41c0 1.06.01 2.03.02 2.93a5.912 5.912 0 0 1-1.93 1.82l-63.03 36.81a24.93 24.93 0 0 1-24.93.08l-7.22-4.15.13-.22.74-.44 6.85 3.94a23.904 23.904 0 0 0 23.93-.07l63.02-36.82a4.835 4.835 0 0 0 2.42-3.88z"/><path class="cls-7" d="M238.603 153.484v.53a4.835 4.835 0 0 1-2.42 3.88l-63.02 36.82a23.904 23.904 0 0 1-23.93.07l-6.85-3.94 81.84-48.41 11.97 7.02a4.834 4.834 0 0 1 2.41 4.03zm-44.91 21.4c4.38.04 7.69-2.26 6.84-4.94-.78-2.48-4.77-3.91-8.51-3.41-3.31.44-5.56 2.31-5.34 4.32.23 2.14 3.19 3.99 7.01 4.03z"/><path class="cls-3" d="M238.193 35.734l.41.21c-1.79 2.95-2.76 6.96-2.76 13.13v11.19a.503.503 0 0 0-.29-.45l-.71-.32v-10.42c0-6.58 1.12-10.84 3.11-13.95a.508.508 0 0 0 .24.61zm.35-1.49c-.16.22-.32.45-.47.68l-.01.02a.378.378 0 0 0-.09.12c-.01.02-.01.03-.02.05l-7.61-2.19v-.55l.52-.34z"/><path class="cls-3" d="M238.063 34.944a.99.99 0 0 0-.11.17c.01-.02.01-.03.02-.05a.378.378 0 0 1 .09-.12zm-2.22 25.32v8.17l-.07.05a.469.469 0 0 0-.18-.19l-.75-.43v-7.27l.29.13a.537.537 0 0 0 .21.05.486.486 0 0 0 .45-.3.537.537 0 0 0 .05-.21z"/><path class="cls-3" d="M235.843 60.264a.537.537 0 0 1-.05.21.486.486 0 0 1-.45.3.537.537 0 0 1-.21-.05l-.29-.13v-1.1l.71.32a.503.503 0 0 1 .29.45zm-.07 8.22a.478.478 0 0 1 0 .49.495.495 0 0 1-.43.25.71.71 0 0 1-.2-.04h-.01c-.01-.01-.01-.01-.02-.01s-.01-.01-.02-.01a.52.52 0 0 1-.25-.44v-.86l.75.43a.469.469 0 0 1 .18.19z"/><path class="cls-3" d="M235.093 69.164l-5.5-3.13a.492.492 0 0 1-.25-.43v-7.53l1 .46v6.78l4.5 2.55v.86a.52.52 0 0 0 .25.44z"/><path class="cls-3" d="M234.843 60.594v7.27l-4.5-2.55v-6.78l4.5 2.06zm0-1.1v1.1l-4.5-2.06v-1.1l4.5 2.06zm-.78-29.53l-1.12.72-1.28-.35 1.11-.73 1.29.36z"/><path class="cls-3" d="M232.773 29.604l-1.11.73h-.01l-8.06-2.25 1.2-.7h.01l7.97 2.22zm-1.91 2.43l-.52.34v.55l-1-.28v-.54a.504.504 0 0 1 .23-.42l.02-.01zm-.52 25.4v1.1l-1-.46v-1.1l1 .46z"/><path class="cls-3" d="M229.593 31.674l-.02.01a.504.504 0 0 0-.23.42v.54l-9.07-2.62 1.19-.69h.01zm-.25 25.3v1.1l-19.08-8.73v-.32a.37.37 0 0 0 .13-.17.51.51 0 0 0-.13-.58v-.03zm-2.61 11.28a.505.505 0 0 1-.18.69l-.24.14-1.02-.56.76-.45a.506.506 0 0 1 .38-.05.16.16 0 0 1 .08.03.25.25 0 0 1 .07.04c.01 0 .01.01.02.01a.47.47 0 0 1 .13.15z"/><path class="cls-3" d="M226.433 68.024a.506.506 0 0 0-.38.05l-.76.45h-.02l-8.96-4.83a1.666 1.666 0 0 1 .23-.23.515.515 0 0 0 .06-.71.5.5 0 0 0-.08-.07zm-.12 1.06l-6.97 4.04a10.615 10.615 0 0 1-4.21 1.01.504.504 0 0 0 .38-.49v-.5a9.822 9.822 0 0 0 3.37-.91l6.39-3.71h.02zm-1.52-41.7l-1.2.7-1.34-.38 1.19-.7 1.35.38zm-.82 114.04l.51.86-.26.15-.98-.58.73-.43z"/><path class="cls-3" d="M224.223 142.434l-81.84 48.41-.99-.57 81.85-48.42.98.58z"/><path class="cls-3" d="M224.103 141.204l-.13.22-.73.43-74.83-43.89v-1.16l75.69 44.4zm-.66-114.2l-1.19.7-95.54-26.63a4.451 4.451 0 0 0-3.47.89 4.413 4.413 0 0 0-1.91 3.06 3.476 3.476 0 0 0 2.01 3.46l1 .46v1.1l-1.42-.65a4.497 4.497 0 0 1-2.59-4.45 5.412 5.412 0 0 1 2.32-3.78 5.416 5.416 0 0 1 4.3-1.06zm-1.98 2.33l-1.19.69-1.33-.38 1.19-.7 1.33.39z"/><path class="cls-3" d="M220.133 28.944l-1.19.7-84.96-24.47a4.586 4.586 0 0 0-5.51 2.64 2.816 2.816 0 0 0 1.38 3.65l-2.3-1.05a3.786 3.786 0 0 1-.01-2.99 5.593 5.593 0 0 1 6.71-3.21zm-3.53 33.81a.515.515 0 0 1-.06.71 1.666 1.666 0 0 0-.23.23l-.92-.49a3.935 3.935 0 0 1 .5-.5.508.508 0 0 1 .54-.08.47.47 0 0 1 .09.06.5.5 0 0 1 .08.07z"/><path class="cls-3" d="M210.263 59.304l6.17 3.32a.508.508 0 0 0-.54.08 3.935 3.935 0 0 0-.5.5l-5.87-3.16a.509.509 0 0 1-.26-.44v-6.5l.77-.5a.506.506 0 0 0 .23-.42zm5.13 3.9l.92.49c-1.22 1.23-1.1 3.22-.93 6.14.05.99.11 2.1.13 3.31-.34.01-.68.01-1.01-.01-.01-1.18-.07-2.27-.12-3.24-.17-2.94-.29-5.15 1.01-6.69z"/><path class="cls-3" d="M215.513 73.144v.5a.504.504 0 0 1-.38.49h-.23a.504.504 0 0 1-.39-.49c0-.17 0-.34-.01-.51.33.02.67.02 1.01.01zm-.42.99a.195.195 0 0 1-.08.01.34.34 0 0 1-.1-.01h.18z"/><path class="cls-3" d="M214.513 73.644a.504.504 0 0 0 .39.49 9.07 9.07 0 0 1-4.43-1.24l-6.3-3.59c-1.55-.88-3-1.71-3-5.68v-2.26a7.12 7.12 0 0 1 .96-4.37 5.786 5.786 0 0 1 1.8-1.65l5.33-3.43v1.19l-4.8 3.09a4.885 4.885 0 0 0-1.5 1.36 6.197 6.197 0 0 0-.79 3.77v2.3c0 3.39 1.04 3.99 2.49 4.81l6.3 3.59a8.173 8.173 0 0 0 3.54 1.11c.01.17.01.34.01.51zm-4.25-25.37a.51.51 0 0 1 .13.58.37.37 0 0 1-.13.17zm0 1.07v2.84a.53.53 0 0 0-.08-.27.51.51 0 0 0-.69-.15l-.23.15v-3.02l.47.21a.3.3 0 0 0 .1.04z"/><path class="cls-3" d="M210.263 49.024v.32l-.43-.2c.03 0 .06.01.1.01a.46.46 0 0 0 .33-.13z"/><path class="cls-3" d="M210.263 48.274v.75a.46.46 0 0 1-.33.13c-.04 0-.07-.01-.1-.01a.3.3 0 0 1-.1-.04l-.47-.21v-1.1l.88.4a.36.36 0 0 1 .12.08z"/><path class="cls-3" d="M210.263 48.244v.03a.36.36 0 0 0-.12-.08zm-.08 3.67a.53.53 0 0 1 .08.27.506.506 0 0 1-.23.42l-.77.5v-1.19l.23-.15a.51.51 0 0 1 .69.15zm-.92-4.12v1.1l-79.82-36.52a3.795 3.795 0 0 1-1.89-1.96l2.3 1.05h.01l50.07 22.91z"/><path class="cls-3" d="M209.263 47.784v.01l-29.33-13.42 29.33 13.41zm-8.73 122.16c.85 2.68-2.46 4.98-6.84 4.94-3.82-.04-6.78-1.89-7.01-4.03-.22-2.01 2.03-3.88 5.34-4.32 3.74-.5 7.73.93 8.51 3.41zm-52.12-71.98v10.53l-21.13 12.66-.12-.21v-.88l9.92-5.95v.28h1v-.88l9.33-5.59v-10.55l1 .59zm0-1.16v1.16l-1-.59v-1.16l1 .59z"/><path class="cls-3" d="M148.413 83.154v13.65l-1-.59v-12.6l.76-.46h.24zm0-.71v.71h-.24l-.26-.42-.26-.43-.22.14-20.77-12.53-1.32.78v-.49l1.32-.79 21.75 13.03z"/><path class="cls-3" d="M147.913 82.734l.26.42-.76.46v-.57l.5-.31zm-.26-.43l.26.43-.48-.29.22-.14z"/><path class="cls-3" d="M147.913 82.734l-.5.31v-.03l-.46-.28.48-.29.48.29z"/><path class="cls-3" d="M147.433 82.444l-.48.29-20.29-12.16-1.32.79v-.67l1.32-.78 20.77 12.53zm-.02 13.77v1.16l-9.33-5.47v-1.16l9.33 5.47zm0-13.17v.57l-9.33 5.71v-.28l-.17-.2 9.5-5.8z"/><path class="cls-3" d="M147.413 83.014v.03l-9.5 5.8-.32-.39 9.36-5.72.46.28z"/><path class="cls-8" d="M146.953 82.734l-9.36 5.72-12.26-14.75v-.01a.09.09 0 0 0 .01-.05v-2.28l1.32-.79z"/><path class="cls-3" d="M142.383 190.844l-.74.44-.51-.86.26-.15.99.57z"/><path class="cls-3" d="M141.133 190.424l.51.86-.13.22-136.83-78.7a9.166 9.166 0 0 1-3.59-3.77l.03-1.41v-.26a2.437 2.437 0 0 0 .01-.27c.01-.49.01-1 .01-1.53a8.009 8.009 0 0 0 4.04 6.37l10.55 6.07-.25.15.51.86.74-.44 124.66 71.7zm-3.05-76.91v.88h-1v-.28l1-.6zm0-21.61v21.61l-1 .6v-22.8l1 .59zm0-1.16v1.16l-1-.59v-1.16l1 .59zm0-1.42v1.42l-1-.59v-.22l1-.61zm0-.28v.28l-1 .61v-.52l-.03-.04.86-.53.17.2zm-.49-.59l.32.39-.86.53-.32-.39.86-.53z"/><path class="cls-3" d="M125.333 73.704l12.26 14.75-.86.53-12.11-14.58-9.2 3.04-.11-.06 3.54-2.12 5.49-1.83v.21a.495.495 0 0 0 .5.5.482.482 0 0 0 .49-.44zm11.75 16.45v1.16l-1.15-.67.97-.6.18.11zm0-.74v.52l-.18.11-.48-.28.63-.39.03.04z"/><path class="cls-3" d="M136.733 88.984l.32.39-.63.39-.49-.29.8-.49zm.17 1.06l-.97.6-.49-.29.98-.59.48.28z"/><path class="cls-9" d="M124.623 74.404l12.11 14.58-.8.49-.97.59-8.3 5.08-20.29-12.41 7.96-4.77.58-.35.51-.17 9.2-3.04z"/><path class="cls-3" d="M136.423 89.764l-.98.59-.48-.29.97-.59.49.29zm-.49.88l-8.77 5.36v-.28h-.5l8.78-5.37.49.29z"/><path class="cls-3" d="M135.443 90.354l-8.78 5.37-.32-.2-.04-.03-20.04-12.69.11-.07 20.29 12.41 8.3-5.08.48.29zm-6-77.98l-4.1-1.87v-1.11l2.21 1.02a3.795 3.795 0 0 0 1.89 1.96z"/><path class="cls-3" d="M127.163 120.944l.12.21-.62.37-21.75-13.03v-26.05l8.44-5.05.35.2-7.98 4.74-.05-.03-.05.09-.27.43-.2.33.2.12.26 24.91 20.55 12.46v.3h1z"/><path class="cls-3" d="M127.163 120.064v.88h-.5v-.58l.5-.3z"/><path class="cls-3" d="M127.163 96.004v24.06l-.5.3v-24.05l.5-.31z"/><path class="cls-3" d="M127.163 95.724v.28l-.5.31v-.59h.5zm-.5 24.64v.58l-.5-.3v-.58l.5.3z"/><path class="cls-3" d="M126.663 96.314v24.05l-.5-.3v-24.06l.5.31z"/><path class="cls-3" d="M126.663 95.724v.59l-.5-.31v-.28h.5z"/><path class="cls-3" d="M126.663 95.724h-.5v.28l-20.25-12.39v-.45l20.39 12.33.04.03.32.2zm0 25.22h-.5v-.3l.5.3z"/><path class="cls-3" d="M126.303 95.494l-20.39-12.33v-.15l.35-.21 20.04 12.69zm-.14 24.57v.58l-20.55-12.46-.26-24.91.56.34v24.31l20.25 12.14z"/><path class="cls-10" d="M126.163 96.004v24.06l-20.25-12.14v-24.31l20.25 12.39z"/><path class="cls-3" d="M125.343 71.364v2.28a.09.09 0 0 1-.01.05l-.38-.46-.61.2v-1.47zm0-.66v.66l-1 .6v-.67l1-.59z"/><path class="cls-3" d="M125.343 70.694v.01l-1 .59v-.49l1-.6v.49zm0-60.19v59.7l-1 .6v-60.76l1 .46zm0-1.11v1.11l-1-.46v-1.1l1 .45zm0-4.9v4.9l-1-.45v-4.45a.5.5 0 1 1 1 0zm-.01 69.2v.01a.482.482 0 0 1-.49.44.495.495 0 0 1-.5-.5v-.21l.61-.2z"/><path class="cls-11" d="M124.343 71.964v1.47l-5.49 1.83 5.49-3.3z"/><path class="cls-3" d="M124.343 71.294v.67l-5.49 3.3-2.74.9 8.23-4.87zm0-.49v.49l-8.23 4.87-1.56.52.1.31-.33-.19 10.02-6z"/><path class="cls-3" d="M118.853 75.264l-3.54 2.12-.63-.37 1.43-.85 2.74-.9z"/><path class="cls-3" d="M116.113 76.164l-1.43.85-.03-.02-.1-.31 1.56-.52zm-.69 1.28l-.51.17.4-.23.11.06z"/><path class="cls-3" d="M115.313 77.384l-.4.23-.05.02-.2-.61.02-.01.63.37z"/><path class="cls-3" d="M114.913 77.614l-.58.35-.63-.37.96-.57.2.61.05-.02zm-.23-.6l-.02.01-.01-.03.03.02z"/><path class="cls-3" d="M114.653 76.994l.01.03-.96.57-.35-.2.97-.59.33.19zm-.32.97l-7.96 4.77-.65-.4 7.98-4.74.63.37zm-.01-1.16l-.97.59-13.55-7.95.25-.15-.51-.86.13-.22 14.65 8.59zm-7.95 5.93l-.11.07-.64-.41.1-.06.65.4z"/><path class="cls-3" d="M106.263 82.804l-.35.21v.15l-.56-.34.27-.43.64.41zm-.35.36v.45l-.56-.34v-.45l.56.34z"/><path class="cls-3" d="M105.723 82.334l-.1.06.05-.09.05.03zm-.37.49v.45l-.2-.12.2-.33zm-5.81-14.39l.51.86-.25.15-.99-.58.73-.43zm.26 1.01l-83.07 49.13-1-.57 83.08-49.14.99.58zm-.13-1.23l-.13.22-.73.43-5.06-2.97c-10.77-6.32-23.51-5.99-34.94.91l-53.78 31.21a7.97 7.97 0 0 0-3.88 6.4h-1a8.994 8.994 0 0 1 4.37-7.26l53.78-31.21c11.75-7.09 24.86-7.42 35.96-.91z"/><path class="cls-12" d="M98.813 68.864l-83.08 49.14-10.55-6.07a8.009 8.009 0 0 1-4.04-6.37.03.03 0 0 0 0-.04c.01-.01.01-.01 0-.02v-.01c.01-.01.01-.01 0-.01v-.01c.01-.01.01-.01 0-.01v-.01l.01-.01s0-.02-.01-.02c.01-.01.01-.01 0-.01a.244.244 0 0 0 0-.12c.01-.29.01-.58.01-.88a7.97 7.97 0 0 1 3.88-6.4l53.78-31.21c11.43-6.9 24.17-7.23 34.94-.91z"/><path class="cls-3" d="M16.733 118.574l-.74.44-.51-.86.25-.15 1 .57zm-15.58-14.16c0 .3 0 .59-.01.88 0-.09-.01-.18-.01-.28 0-.2 0-.4.02-.6z"/><path class="cls-3" d="M1.143 105.294a.244.244 0 0 1 0 .12v.01c.01 0 .01.02.01.02h-.01v.06c.01.01.01.01 0 .02a.03.03 0 0 1 0 .04c0 .53 0 1.04-.01 1.53a2.437 2.437 0 0 1-.01.27v.26l-.03 1.41a9.78 9.78 0 0 1-.95-3.48.045.045 0 0 0 0-.05.019.019 0 0 0 0-.03c.01-.01.01-.01 0-.02.01-.01.01-.01 0-.02.01-.01.01-.01 0-.01v-.01c.01-.01.01-.01 0-.02.01-.01.01-.01 0-.01v-.01c.01-.01.01-.01 0-.02.01-.01.01-.01 0-.02.01-.01.01-.01 0-.02v-.03c.01-.28.01-.57.01-.87h1c-.02.2-.02.4-.02.6 0 .1.01.19.01.28z"/><path class="cls-3" d="M1.143 105.414c.01 0 .01 0 0 .01zm.01.03l-.01.01v-.01zm-.01.02c.01 0 .01 0 0 .01zm0 .02c.01 0 .01 0 0 .01zm-.99-1.07c0 .3 0 .59-.01.87a2.175 2.175 0 0 1-.01-.26c0-.2 0-.41.02-.61zm-.01.97c.01 0 .01 0 0 .01zm0 .04c.01 0 .01 0 0 .01z"/></g></g></g></svg>