<svg xmlns="http://www.w3.org/2000/svg" viewBox="0 0 100 100"><path d="M50 95c-17.926 0-32.51-14.584-32.51-32.51a32.395 32.395 0 0 1 5.161-17.583L47.384 6.429a3.109 3.109 0 0 1 5.232 0L77.35 44.911l.028.045a32.394 32.394 0 0 1 5.13 17.535C82.51 80.416 67.926 95 50 95zm0-81.138L27.882 48.274a26.196 26.196 0 0 0-4.171 14.216c0 14.497 11.793 26.29 26.289 26.29 14.496 0 26.289-11.793 26.289-26.289 0-5.062-1.441-9.975-4.167-14.209l-.03-.047L50 13.862z"/><path d="M50 81.314c-10.404 0-18.868-8.464-18.868-18.868a2.073 2.073 0 1 1 4.146 0c0 8.118 6.604 14.722 14.721 14.722A2.073 2.073 0 0 1 50 81.314z"/></svg>