<svg xmlns="http://www.w3.org/2000/svg" viewBox="0 0 100 100"><path style="text-indent:0;text-transform:none;block-progression:tb" d="M36 30c-1.645 0-3 1.355-3 3v34c0 1.645 1.355 3 3 3h56c1.645 0 3-1.355 3-3V33c0-1.645-1.355-3-3-3H36zm.75 2h54.5L64 55.656 36.75 32zM35 33.125l18.906 16.438L35 66.656V33.125zm58 0v33.531L74.094 49.563 93 33.125zM6 37a1 1 0 1 0 0 2h20a1 1 0 1 0 0-2H6zm4 12a1 1 0 1 0 0 2h16a1 1 0 1 0 0-2H10zm45.406 1.844l7.938 6.906a1 1 0 0 0 1.312 0l7.938-6.906L91.563 68H36.437l18.97-17.156zM14 61a1 1 0 1 0 0 2h12a1 1 0 1 0 0-2H14z" overflow="visible" color="#000"/></svg>