<svg xmlns="http://www.w3.org/2000/svg" xmlns:xlink="http://www.w3.org/1999/xlink" width="222.567" height="237.316" viewBox="0 0 222.567 237.31599"><defs><style>.cls-1{fill:url(#linear-gradient)}.cls-2{fill:url(#linear-gradient-2)}.cls-3{fill:none}.cls-3,.cls-4,.cls-5{stroke:#fff;stroke-linecap:round;stroke-linejoin:round;stroke-width:1.2px}.cls-4{fill:url(#linear-gradient-3)}.cls-5{fill:url(#linear-gradient-4)}.cls-6{fill:url(#linear-gradient-5)}.cls-7{fill:url(#linear-gradient-6)}.cls-8{fill:url(#linear-gradient-7)}.cls-9{fill:url(#linear-gradient-8)}.cls-10{fill:url(#linear-gradient-9)}.cls-11{fill:url(#linear-gradient-10)}</style><linearGradient id="linear-gradient" x1="178.234" y1="199.991" x2="79.561" y2="104.576" gradientTransform="matrix(1 0 0 -1 0 240)" gradientUnits="userSpaceOnUse"><stop offset="0" stop-color="#fff"/><stop offset=".106" stop-color="#fff" stop-opacity=".807"/><stop offset=".236" stop-color="#fff" stop-opacity=".596"/><stop offset=".369" stop-color="#fff" stop-opacity=".413"/><stop offset=".5" stop-color="#fff" stop-opacity=".264"/><stop offset=".629" stop-color="#fff" stop-opacity=".149"/><stop offset=".757" stop-color="#fff" stop-opacity=".066"/><stop offset=".881" stop-color="#fff" stop-opacity=".017"/><stop offset="1" stop-color="#fff" stop-opacity="0"/></linearGradient><linearGradient id="linear-gradient-2" x1="4.097" y1="27.317" x2="35.93" y2="59.65" gradientTransform="matrix(1 0 0 -1 0 240)" gradientUnits="userSpaceOnUse"><stop offset="0" stop-color="#fff" stop-opacity=".05"/><stop offset=".135" stop-color="#fff" stop-opacity=".065"/><stop offset=".265" stop-color="#fff" stop-opacity=".11"/><stop offset=".392" stop-color="#fff" stop-opacity=".186"/><stop offset=".518" stop-color="#fff" stop-opacity=".292"/><stop offset=".643" stop-color="#fff" stop-opacity=".43"/><stop offset=".767" stop-color="#fff" stop-opacity=".598"/><stop offset=".888" stop-color="#fff" stop-opacity=".793"/><stop offset="1" stop-color="#fff"/></linearGradient><linearGradient id="linear-gradient-3" x1="54.388" y1="183.658" x2="91.915" y2="183.658" gradientUnits="userSpaceOnUse"><stop offset="0" stop-color="#fff" stop-opacity="0"/><stop offset=".064" stop-color="#fff" stop-opacity=".093"/><stop offset=".265" stop-color="#fff" stop-opacity=".365"/><stop offset=".455" stop-color="#fff" stop-opacity=".591"/><stop offset=".629" stop-color="#fff" stop-opacity=".768"/><stop offset=".783" stop-color="#fff" stop-opacity=".895"/><stop offset=".912" stop-color="#fff" stop-opacity=".972"/><stop offset="1" stop-color="#fff"/></linearGradient><linearGradient id="linear-gradient-4" x1="33.989" y1="164.552" x2="69.66" y2="164.552" xlink:href="#linear-gradient-3"/><linearGradient id="linear-gradient-5" x1="15.59" y1="143.248" x2="49.894" y2="143.248" xlink:href="#linear-gradient-3"/><linearGradient id="linear-gradient-6" x1="128.278" y1="88.127" x2="148.675" y2="67.73" gradientUnits="userSpaceOnUse"><stop offset="0" stop-color="#fff" stop-opacity=".1"/><stop offset=".251" stop-color="#fff" stop-opacity=".352"/><stop offset=".618" stop-color="#fff" stop-opacity=".698"/><stop offset=".876" stop-color="#fff" stop-opacity=".916"/><stop offset="1" stop-color="#fff"/></linearGradient><linearGradient id="linear-gradient-7" x1="105.853" y1="25.674" x2="91.236" y2="11.539" gradientTransform="matrix(1 0 0 -1 0 240)" gradientUnits="userSpaceOnUse"><stop offset="0" stop-color="#fff" stop-opacity=".9"/><stop offset=".162" stop-color="#fff" stop-opacity=".802"/><stop offset=".552" stop-color="#fff" stop-opacity=".586"/><stop offset=".843" stop-color="#fff" stop-opacity=".451"/><stop offset="1" stop-color="#fff" stop-opacity=".4"/></linearGradient><linearGradient id="linear-gradient-8" x1="33.24" y1="192.354" x2="9.43" y2="169.33" xlink:href="#linear-gradient-7"/><linearGradient id="linear-gradient-9" x1="199.072" y1="97.466" x2="166.867" y2="66.325" xlink:href="#linear-gradient-7"/><linearGradient id="linear-gradient-10" x1="237.338" y1="261.237" x2="220.084" y2="244.554" gradientTransform="scale(1 -1) rotate(-1.736 -8560.46 579.196)" xlink:href="#linear-gradient-7"/></defs><title>Rocket Start</title><g id="Layer_2" data-name="Layer 2"><g id="Layer_1-2" data-name="Layer 1"><g id="Layer_2-2" data-name="Layer 2"><circle class="cls-1" cx="116.743" cy="99.47" r="86.571" id="Layer_3" data-name="Layer 3"/><g id="_Group_" data-name="Group"><path class="cls-2" d="M42.34 176.895l3.77 3.78s-3.8 9.9-15.16 19.19C19.62 209.135.6 216.395 0 216.615c.21-.6 7.27-19.83 16.54-31.16 9.29-11.36 19.19-15.16 19.19-15.16l3.74 3.73c-.37.47-.73.93-1.07 1.38l-4.13 5.22a1.025 1.025 0 0 0 .75 1.73 1.078 1.078 0 0 0 .69-.26l5.28-4.16c.44-.33.89-.68 1.35-1.04z"/><path class="cls-3" d="M44.85 174.855s5.88-.96 9.41 1.7a5.424 5.424 0 0 1 1.08 1.01c3.79 4.56 5.63 13.15 5.63 13.15"/><path class="cls-4" d="M81.5 172.905a105.06 105.06 0 0 1 10.15-6.38.18.18 0 0 1 .21.29l-4.36 4.36-28.9 28.9a2.457 2.457 0 0 1-3.52-3.43l5.99-5.83 2.08-2.02a152.474 152.474 0 0 1 18.35-15.89z"/><path class="cls-5" d="M44.85 174.855a96.176 96.176 0 0 0 13.18-13.12l11.55-14.4a.36.36 0 0 0-.5-.51l-14.43 11.54a97.338 97.338 0 0 0-13.29 13.33 108.301 108.301 0 0 0-2.96 3.71l-4.13 5.22a1.025 1.025 0 0 0 .75 1.73 1.078 1.078 0 0 0 .69-.26l5.28-4.16c.44-.33.89-.68 1.35-1.04.81-.64 1.65-1.32 2.51-2.04z"/><path class="cls-3" d="M54.27 176.545l-.01.01-3.6 3.6-2.02-2.02-2.53 2.54-3.77-3.78m5.42.36l.88.88m78.82-67.98c-18.47 26.07-44.33 40.6-48.33 50.41-1.06 2.61-1.33 7.4 2.36 12.32m56-79.29c-.88 1.64-1.79 3.28-2.7 4.88-.82 1.45-1.65 2.88-2.48 4.26-.27.45-.54.89-.81 1.33-1.29 2.1-2.64 4.13-4.03 6.09m-83.95 24.76c4.91 3.69 9.71 3.42 12.32 2.36 9.8-4 24.33-29.85 50.38-48.32q2.94-2.085 6.09-4.04a184.658 184.658 0 0 1 5.61-3.3c1.62-.92 3.28-1.84 4.94-2.74m-81.5 92.82s1.12-6-1.51-9.55a5.732 5.732 0 0 0-1.01-1.08c-4.57-3.79-13.15-5.63-13.15-5.63"/><path class="cls-6" d="M49.8 124.51a.173.173 0 0 1 .07.24 102.191 102.191 0 0 1-6.38 10.14 153.317 153.317 0 0 1-15.88 18.36l-2.02 2.08-5.83 5.98a2.454 2.454 0 1 1-3.43-3.51l28.9-28.91 4.36-4.36a.18.18 0 0 1 .21-.02z"/><path class="cls-3" d="M43.49 134.89a102.191 102.191 0 0 0 6.38-10.14.173.173 0 0 0-.07-.24.18.18 0 0 0-.21.02l-4.36 4.36-28.9 28.91a2.454 2.454 0 1 0 3.43 3.51l5.83-5.98 2.02-2.08a153.317 153.317 0 0 0 15.88-18.36zm-3.63 27.245l-.01.01-3.6 3.6 2.01 2.01-2.53 2.54 3.74 3.73m-.33-5.39l-.88-.88"/><path class="cls-7" d="M151.69 64.74a.195.195 0 0 1 0 .15c-1.14 2.54-7.22 15.84-14.19 28.7h-.01c-5.71-1.15-13.46-8.56-14.63-14.72v-.01c12.83-6.96 26.07-13.05 28.6-14.21a.191.191 0 0 1 .23.09z"/><path class="cls-3" d="M122.86 78.86c12.83-6.96 26.07-13.05 28.6-14.21a.191.191 0 0 1 .23.09.195.195 0 0 1 0 .15c-1.14 2.54-7.22 15.84-14.19 28.7"/><path class="cls-3" d="M122.86 78.86v.01c1.17 6.16 8.92 13.57 14.63 14.72h.01m-19.58-11.975c1.28 6.6 10.31 15.52 16.87 16.86m-22.48-13.56c1.82 7.14 12.1 17.26 19.19 19.15h.01m-25.29-15.11c2.28 7.61 13.67 18.84 21.24 21.2h.01"/></g><g id="Layer_5" data-name="Layer 5"><path class="cls-8" d="M82.599 224.609l10.018 12.707 13.196-6.353.981-15.884-16.864-1.954-7.331 11.484z"/><path class="cls-9" d="M.796 58.483l4.5 20.01 21.94-1.39 9.851-8.615-3.541-20.885-20.75-4.75-12 15.63z"/><path class="cls-10" d="M156.885 149.08l1.97 32.673 27.445 7.378 22.74-23.592-11.762-25.346-26.399-2.091-13.994 10.978z"/><path class="cls-11" d="M201.781 11.446L217.176 0l5.391 3.716-.405 13.363-10.665 12.843-8.925-3.196-.791-15.28z"/></g></g></g></g></svg>