<svg xmlns="http://www.w3.org/2000/svg" viewBox="0 0 44.52 52"><defs><style>.cls-1{fill:#232323;}</style></defs><title>Ресурс 12</title><g id="Слой_2" data-name="Слой 2"><g id="контент"><path class="cls-1" d="M40.47,26a10.55,10.55,0,0,1,3.26,3.67,7,7,0,0,1,.54,5.07,6.09,6.09,0,0,1-3.16,3.88L17.69,51.15a6.51,6.51,0,0,1-5,.59,6.72,6.72,0,0,1-4-3.25,10.68,10.68,0,0,1-1.16-4.8l1-23.53L2.25,8.53.79,9.32,0,7.85l1.46-.79,1.46-.79.79,1.46L4.5,9.21,8.89,6.85l.79,1.46L5.28,10.67,6.85,13.6,9.78,12l.79,1.46L7.64,15.07,9.21,18l4.39-2.36.79,1.46L10,19.46l.15.27v.46l-.15,3,4.48-2.4.79,1.46L10,25.13,9.11,43.73q.12,4.18,2.91,5.86a4.84,4.84,0,0,0,4.88.09L40.32,37.12a4.59,4.59,0,0,0,2.67-4,5.19,5.19,0,0,0-.73-2.67,8.3,8.3,0,0,0-2.69-3L19.4,15.24,18.93,15,12.5,3l-.79-1.46L13.18.79,14.64,0l.79,1.46L14,2.25l6.23,11.62ZM10.61,42.57l.75-14.42,14-7.51L37.79,28a6.39,6.39,0,0,1,2.53,2.53q1.78,3.76-2.25,5.92L17.4,47.53q-4.21,2.26-6.17-1.4A6.31,6.31,0,0,1,10.61,42.57Zm14.71-20L13,29.17l-.68,13.44a5,5,0,0,0,.4,2.73,2.54,2.54,0,0,0,1.43,1.35,3.61,3.61,0,0,0,2.49-.63L37.29,35a3.77,3.77,0,0,0,1.76-1.77,2.53,2.53,0,0,0-.24-2,4.84,4.84,0,0,0-1.91-1.8Z"/></g></g></svg>