<svg xmlns="http://www.w3.org/2000/svg" viewBox="0 0 56 24"><defs><style>.cls-1{fill:#232323;}</style></defs><title>Ресурс 14</title><g id="Слой_2" data-name="Слой 2"><g id="контент"><path class="cls-1" d="M52.38,3.5a11.78,11.78,0,0,1,0,17A12.42,12.42,0,0,1,43.63,24,12.27,12.27,0,0,1,35,20.5L19.25,5.13a9.49,9.49,0,0,0-7-2.75A9.33,9.33,0,0,0,5.38,5.13,9.38,9.38,0,0,0,2.5,12a9.38,9.38,0,0,0,2.88,6.88,9.32,9.32,0,0,0,6.88,2.75,9.48,9.48,0,0,0,7-2.75l5.38-5.25,1.63,1.75L21,20.5A12.42,12.42,0,0,1,12.25,24a12.27,12.27,0,0,1-8.62-3.5A11.63,11.63,0,0,1,0,12,11.64,11.64,0,0,1,3.63,3.5,12.28,12.28,0,0,1,12.25,0,12.43,12.43,0,0,1,21,3.5L36.75,18.88a9.32,9.32,0,0,0,6.88,2.75,9.48,9.48,0,0,0,7-2.75A9.38,9.38,0,0,0,53.5,12a9.39,9.39,0,0,0-2.87-6.87,9.49,9.49,0,0,0-7-2.75,9.33,9.33,0,0,0-6.87,2.75l-5.37,5.25L29.75,8.63,35,3.5A12.42,12.42,0,0,1,43.75,0,12.28,12.28,0,0,1,52.38,3.5Z"/></g></g></svg>