<svg xmlns="http://www.w3.org/2000/svg" viewBox="0 0 64.16 55"><defs><style>.cls-1{fill:#e58700;}</style></defs><title>Ресурс 2</title><g id="Слой_2" data-name="Слой 2"><g id="контент"><path class="cls-1" d="M61,10.9A3.61,3.61,0,0,1,63.35,12a2.79,2.79,0,0,1,.79,2.29L62.14,52A3.33,3.33,0,0,1,61,54.26a3.11,3.11,0,0,1-2.43.72L11.33,52.69a3.94,3.94,0,0,1-2.36-1,2.58,2.58,0,0,1-.79-2.29l.29-6.58L6.32,43a2.81,2.81,0,0,1-2.22-.64A2.93,2.93,0,0,1,3,40.38L0,6.61A2.6,2.6,0,0,1,.67,4.53,3.05,3.05,0,0,1,2.74,3.46L45.1,0a2.82,2.82,0,0,1,2.22.64A3,3,0,0,1,48.4,2.6l.72,7.73Zm-50.81.86a3.61,3.61,0,0,1,1.07-2.22,3.2,3.2,0,0,1,2.36-.93L45,10.18l-.29-4.44h-.14V5.6A1.35,1.35,0,0,0,43.1,4.46L5.75,7.61q-1.43,0-1.43,1.29V9L6.61,34.51l2.58-3.58ZM58,45.53,59.42,17.2v-.14q0-1.43-1.57-1.43l-8.3-.43-4.15-.29-29.2-1.29a1.55,1.55,0,0,0-1.72,1.29V15l-.43,9L13,42.39v1l.86-1,14.6-15.6a2.74,2.74,0,0,1,2-.86,2.33,2.33,0,0,1,2,1l6.15,7,.43.43a1.94,1.94,0,0,0,1.43.57,3.3,3.3,0,0,0,1.29-.43l2.43-1.72a2.47,2.47,0,0,1,1.57-.57,1.68,1.68,0,0,1,1.57.72l3.86,4.72ZM48.83,28.36a4.89,4.89,0,0,1-5-5,4.74,4.74,0,0,1,1.5-3.58,4.93,4.93,0,0,1,3.51-1.43,4.74,4.74,0,0,1,3.58,1.5,4.93,4.93,0,0,1,1.43,3.51,5.14,5.14,0,0,1-5,5Z"/></g></g></svg>