<svg xmlns="http://www.w3.org/2000/svg" viewBox="0 0 51.86 66"><defs><style>.cls-1{fill:#e58700;}</style></defs><title>Ресурс 4</title><g id="Слой_2" data-name="Слой 2"><g id="контент"><path class="cls-1" d="M47.88,4.71a3.83,3.83,0,0,1,2.8,1.18,4,4,0,0,1,1.18,2.95v53a4,4,0,0,1-1.18,2.95A3.83,3.83,0,0,1,47.88,66H4.13a4.07,4.07,0,0,1-2.87-1.18A3.88,3.88,0,0,1,0,61.88v-53A3.88,3.88,0,0,1,1.25,5.89,4.07,4.07,0,0,1,4.13,4.71H14.88V6.63a2.77,2.77,0,0,1-2.8,2.8H6.63q-1.77,0-1.77,1.92V59.52q0,1.77,1.62,1.77h39q1.62,0,1.62-1.77V11.34q0-1.91-1.77-1.92H39.92a3,3,0,0,1-2.06-.81,2.59,2.59,0,0,1-.88-2V4.71ZM9.43,28.29V23.57h16.5v4.71Zm0,9.43V33H40.07v4.71Zm0,9.43V42.43h19v4.71Zm0,9.43V51.86H33v4.71Zm2.36-37.71Q12.23,14,15.91,13l.15-.15q3.09-.74,3.09-2.95V6.78a6.53,6.53,0,0,1,2-4.79,6.76,6.76,0,0,1,9.58,0,6.53,6.53,0,0,1,2,4.79V9.87q0,2.36,3.09,3.09h.29q3.54,1,4,5.89ZM25.93,4.71Q24,4.71,24,6.78t1.92,2.06A1.82,1.82,0,0,0,28,6.78,1.82,1.82,0,0,0,25.93,4.71Z"/></g></g></svg>