<svg xmlns="http://www.w3.org/2000/svg" viewBox="0 0 70.78 58"><defs><style>.cls-1{fill:#e58700;}</style></defs><title>Ресурс 5</title><g id="Слой_2" data-name="Слой 2"><g id="контент"><path class="cls-1" d="M56.27.15a3.85,3.85,0,0,1,4.82,2.8l9.54,35.91a3.85,3.85,0,0,1-2.8,4.82L14.52,57.85a3.85,3.85,0,0,1-4.82-2.8L.15,19.14a3.85,3.85,0,0,1,2.8-4.82ZM6.42,18.06a1.74,1.74,0,0,0-1.33,2.1l.72,2.72L58,9l-.72-2.72a1.74,1.74,0,0,0-2.2-1.16ZM64.37,39.94a1.74,1.74,0,0,0,1.33-2.1L61.51,22.06,9.28,35.94l4.19,15.78a1.74,1.74,0,0,0,2.2,1.16ZM15.94,43.49l-.58-2.18,26.12-6.94.58,2.18Zm1.16,4.35-.58-2.18,13.06-3.47.58,2.18Zm34.82-9.25-1.73-6.53,8.71-2.31,1.73,6.53Z"/></g></g></svg>