<svg xmlns="http://www.w3.org/2000/svg" viewBox="0 0 40 40"><defs><style>.cls-1{fill:#232323;}</style></defs><title>Ресурс 7</title><g id="Слой_2" data-name="Слой 2"><g id="контент"><path class="cls-1" d="M30.56,9.31a8.88,8.88,0,0,1,6.67,2.92A9.73,9.73,0,0,1,40,19.17a9.52,9.52,0,0,1-1.74,5.56,9.85,9.85,0,0,1-4.51,3.61L26.11,39.44A1.6,1.6,0,0,1,25,40a1,1,0,0,1-1.11-1.11,2.12,2.12,0,0,1,.28-.83l6.39-9.17H25.69L21.39,35a1.52,1.52,0,0,1-1,.56q-1.25,0-1.25-1.11a2.42,2.42,0,0,1,.28-.69l3.47-4.86H17.78L10.42,39.44a1.52,1.52,0,0,1-1,.56q-1.25,0-1.25-1.11l.42-.83L15,28.89H10L5.56,35a1.52,1.52,0,0,1-1,.56,1,1,0,0,1-1.11-1.11,2.12,2.12,0,0,1,.28-.83l3.47-4.72a7.13,7.13,0,0,1-5.14-2.43A7.7,7.7,0,0,1,0,21.11a8.74,8.74,0,0,1,2.08-5.62,6.58,6.58,0,0,1,4.86-2.71,2.32,2.32,0,0,0-.07-.56,2.22,2.22,0,0,1-.07-.56A11.71,11.71,0,0,1,9.93,3.33,10.79,10.79,0,0,1,18.19,0a10.65,10.65,0,0,1,7.43,2.71,12.2,12.2,0,0,1,3.82,6.74A2.24,2.24,0,0,0,30,9.38,2.3,2.3,0,0,1,30.56,9.31Zm0,17.08a6.93,6.93,0,0,0,5.07-2.15,6.94,6.94,0,0,0,2.15-5.07A7.4,7.4,0,0,0,35.63,14a6.74,6.74,0,0,0-5.07-2.29h-.83l-2.08.28-.42-2.08A9.2,9.2,0,0,0,24,4.31a8.67,8.67,0,0,0-5.69-1.94,8.71,8.71,0,0,0-6.46,2.78,9,9,0,0,0-2.71,6.53v3.06a6.51,6.51,0,0,0-1.25.14L7.22,15a5.13,5.13,0,0,0-3.47,2.08A6.25,6.25,0,0,0,2.36,21a5.09,5.09,0,0,0,1.53,3.75A5,5,0,0,0,7.5,26.39H30.56Z"/></g></g></svg>