<svg xmlns="http://www.w3.org/2000/svg" viewBox="0 0 44.33 38"><defs><style>.cls-1{fill:#232323;}</style></defs><title>Ресурс 8</title><g id="Слой_2" data-name="Слой 2"><g id="контент"><path class="cls-1" d="M6.48,6.48A21.37,21.37,0,0,1,22.17,0,21.37,21.37,0,0,1,37.85,6.48a21.37,21.37,0,0,1,6.48,15.68,21.57,21.57,0,0,1-5.54,14.65q-.2.2-.54.59T37.7,38l-1-1-.1-.2a22.28,22.28,0,0,0-6.43-4.26,20.46,20.46,0,0,0-8-1.58,20.45,20.45,0,0,0-8,1.58,22.26,22.26,0,0,0-6.43,4.26l-.1.2-1,1q-.2-.2-.54-.59t-.54-.59A21.57,21.57,0,0,1,0,22.17,21.36,21.36,0,0,1,6.48,6.48Zm34.68,23.7A21.07,21.07,0,0,0,42.75,23H39.58V21.38h3.17a21.08,21.08,0,0,0-1.58-7.22,20.24,20.24,0,0,0-3.86-5.94l-2.67,2.67L34,10.29l-.49-.49h-.1l2.67-2.67a20.32,20.32,0,0,0-5.94-4,21.3,21.3,0,0,0-7.32-1.58V5.34H21.28V1.58A20.18,20.18,0,0,0,8.11,7.13L10.79,9.8l-.59.59-.49.49L7,8.21a20.24,20.24,0,0,0-3.86,5.94,21.25,21.25,0,0,0-1.58,7.32H4.75v1.58H1.58a20.8,20.8,0,0,0,1.58,7.13,22.66,22.66,0,0,0,3.46,5.54,21.13,21.13,0,0,1,15.54-6.33A21.13,21.13,0,0,1,37.7,35.72,22.7,22.7,0,0,0,41.17,30.18ZM33.25,11l.2.1L26,19.4a4.49,4.49,0,0,1,.89,2.77,4.73,4.73,0,0,1-4.75,4.75A5,5,0,0,1,19.49,26l-1.29,1.19-1.09-1.09,1.19-1.19a4.49,4.49,0,0,1-.89-2.77,4.73,4.73,0,0,1,4.75-4.75,5,5,0,0,1,2.67.79ZM19.89,24.44A3.35,3.35,0,1,0,19,22.17,3.08,3.08,0,0,0,19.89,24.44Z"/></g></g></svg>