<svg xmlns="http://www.w3.org/2000/svg" viewBox="0 0 44 44"><defs><style>.cls-1{fill:#232323;}</style></defs><title>Ресурс 9</title><g id="Слой_2" data-name="Слой 2"><g id="контент"><path class="cls-1" d="M37.55,6.45A21.2,21.2,0,0,1,44,22a21.19,21.19,0,0,1-6.45,15.55A21.19,21.19,0,0,1,22,44,21.19,21.19,0,0,1,6.45,37.55,21.19,21.19,0,0,1,0,22,21.19,21.19,0,0,1,6.45,6.45,21.19,21.19,0,0,1,22,0,21.2,21.2,0,0,1,37.55,6.45ZM11.42,21.15a45,45,0,0,1,1.16-9.31A27.5,27.5,0,0,1,6.35,9.2a19.56,19.56,0,0,0-4.55,12Zm0,1.69H1.8a19.56,19.56,0,0,0,4.55,12,32.58,32.58,0,0,1,6.24-2.64A45,45,0,0,1,11.42,22.85ZM17.24,2.33a18.72,18.72,0,0,0-9.63,5.5A34.28,34.28,0,0,0,13.12,10,19.37,19.37,0,0,1,17.24,2.33ZM7.62,36.17a19.89,19.89,0,0,0,9.63,5.5A19.54,19.54,0,0,1,13,33.85,35.34,35.34,0,0,0,7.62,36.17ZM21.15,13.12a40.47,40.47,0,0,1-6.87-.85,38.12,38.12,0,0,0-1.16,8.88h8Zm-8,9.73a38.1,38.1,0,0,0,1.16,8.88,42.67,42.67,0,0,1,6.88-1V22.85Zm8-20.94q-3.81,1-6.35,8.67a34.64,34.64,0,0,0,6.35.85Zm0,30.67a34.74,34.74,0,0,0-6.35.85q2.54,7.72,6.35,8.67Zm1.69-21.15a33,33,0,0,0,6.35-.85,17.87,17.87,0,0,0-2.8-5.87,7.37,7.37,0,0,0-3.54-2.8Zm0,1.69v8h7.93a38.25,38.25,0,0,0-1.16-8.88A40,40,0,0,1,22.85,13.12Zm0,17.66a32,32,0,0,1,6.77,1,38.23,38.23,0,0,0,1.16-8.88H22.85Zm0,11.32a7.36,7.36,0,0,0,3.54-2.8,17.84,17.84,0,0,0,2.8-5.87,33.08,33.08,0,0,0-6.35-.85ZM36.38,7.83a19.91,19.91,0,0,0-9.62-5.5,20.19,20.19,0,0,1,4.13,7.83A32.21,32.21,0,0,0,36.38,7.83ZM26.76,41.67a19.9,19.9,0,0,0,9.63-5.5,32.31,32.31,0,0,0-5.5-2.33A20.18,20.18,0,0,1,26.76,41.67Zm5.82-18.83a45.08,45.08,0,0,1-1.27,9.31,37.24,37.24,0,0,1,6.35,2.64,19.57,19.57,0,0,0,4.55-12Zm0-1.69H42.2a19.57,19.57,0,0,0-4.55-12,32.57,32.57,0,0,1-6.24,2.64A45.09,45.09,0,0,1,32.58,21.15Z"/></g></g></svg>