<svg xmlns="http://www.w3.org/2000/svg" viewBox="0 0 41 41"><defs><style>.cls-1{fill:#232323;}</style></defs><title>Ресурс 10</title><g id="Слой_2" data-name="Слой 2"><g id="контент"><path class="cls-1" d="M40.27,2.93a.65.65,0,0,1,.73.73V40.27a.65.65,0,0,1-.73.73H.73A.65.65,0,0,1,0,40.27V3.66a.65.65,0,0,1,.73-.73H5.86V6.68A3.13,3.13,0,0,0,7.18,9.2a4.79,4.79,0,0,0,3.07,1.05A4.79,4.79,0,0,0,13.32,9.2a3.13,3.13,0,0,0,1.33-2.52V2.93H26.36V6.68A3.1,3.1,0,0,0,27.73,9.2a5,5,0,0,0,3.11,1.05,4.66,4.66,0,0,0,3-1.05,3.13,3.13,0,0,0,1.33-2.52V2.93ZM36.61,36.61V13.18H4.39V36.61ZM12.35,8a2.85,2.85,0,0,1-2.1.82A2.82,2.82,0,0,1,7.32,5.86V2.93A2.82,2.82,0,0,1,10.25,0a2.82,2.82,0,0,1,2.93,2.93V5.86A2.85,2.85,0,0,1,12.35,8Zm20.5,0a2.93,2.93,0,0,1-5-2.1V2.93a2.93,2.93,0,1,1,5.86,0V5.86A2.85,2.85,0,0,1,32.85,8Z"/></g></g></svg>