<svg width="198" height="113" fill="none" xmlns="http://www.w3.org/2000/svg"><path d="M123.011 48.823c-1.519 7.12-12.094 12.628-24.911 12.628-6.65 0-12.694-1.48-17.185-3.898C76.045 54.925 73 51.196 73 47.056v-8.905c0 4.14 3.045 7.869 7.915 10.496 4.491 2.419 10.535 3.899 17.185 3.899 13.86 0 25.1-6.441 25.1-14.395v8.905a8.462 8.462 0 0 1-.189 1.767z" fill="url(#paint0_linear)"/><path d="M122.646 35.132a8.7 8.7 0 0 1 .554 3.019c0 7.953-11.24 14.395-25.1 14.395-6.65 0-12.694-1.48-17.185-3.899C76.045 46.02 73 42.291 73 38.151a8.705 8.705 0 0 1 .756-3.527c2.745-6.246 12.602-10.868 24.344-10.868 1.763 0 3.524.106 5.274.32L98.1 34.838v3.69l24.546-3.397z" fill="url(#paint1_linear)"/><path fill-rule="evenodd" clip-rule="evenodd" d="M119.141 23.749A30.257 30.257 0 0 0 105.366 20l-1.995 4.075-5.274 10.763h-.001l4.733-.73 23.516-3.618c-1.122-2.516-3.827-4.89-7.204-6.741z" fill="url(#paint2_linear)"/><path fill-rule="evenodd" clip-rule="evenodd" d="M126.351 34.622V30.49l-23.516 3.618-4.733.73v3.691l24.545-3.397 3.704-.509zm-.001 13.307V34.623l-3.703.509a8.67 8.67 0 0 1 .554 3.018v8.906c0 .594-.064 1.186-.189 1.766l3.338-.893z" fill="url(#paint3_linear)"/><path d="M196.187 67.95a2.885 2.885 0 0 1 1.361 2.507 2.882 2.882 0 0 1-1.462 2.449l-57.03 32.186a7.027 7.027 0 0 1-7.166-.152l-31.867-18.874a2.875 2.875 0 0 1-1.37-2.482 2.637 2.637 0 0 1 .297-1.37c.323-.5.772-.907 1.302-1.18-.602.403-1.21 1.318 1.603 2.997l30.074 17.625a7.057 7.057 0 0 0 3.562 1.051 7.059 7.059 0 0 0 3.603-.899l56.172-31.719c1.478-.93 1.402-1.715.709-2.27l.212.131z" fill="url(#paint4_linear)"/><path d="M195.982 67.82c.693.555.769 1.34-.71 2.27L139.1 101.81a7.059 7.059 0 0 1-3.603.899 7.06 7.06 0 0 1-3.562-1.051l-30.073-17.625c-2.813-1.68-2.205-2.594-1.603-2.996.043-.025.077-.05.111-.067l57.995-31.013a7.422 7.422 0 0 1 7.565.165l30.052 17.7zm-3.025 1.85a1.296 1.296 0 0 0-.044-2.141l-.397-.27-27.964-15.884c-1.999-1.243-5.056-.32-7.1.826l-48.483 25.25a.759.759 0 0 0-.293 1.025.765.765 0 0 0 .269.28l30.115 17.771c2.661 1.558 2.628 2.19 6.218.132l45.942-25.831c.782-.511 1.341-.872 1.737-1.157z" fill="#E9E9E9"/><path d="M192.912 67.529a1.29 1.29 0 0 1 .588 1.06 1.298 1.298 0 0 1-.545 1.082c-.396.285-.955.645-1.737 1.157l-45.942 25.831c-3.59 2.057-3.557 1.426-6.218-.132l-30.115-17.77a.765.765 0 0 1-.269-.282.766.766 0 0 1 .014-.752.758.758 0 0 1 .279-.271l49.285-26.017c2.044-1.145 4.657-1.337 6.656-.093l27.606 15.918.398.269z" fill="url(#paint5_linear)"/><path d="M120.473 88.188c1.552.018 2.798.783 2.787 1.722-.011.93-1.274 1.674-2.827 1.656-1.552-.018-2.797-.792-2.787-1.722.011-.938 1.274-1.674 2.827-1.656z" fill="#24313E"/><path d="M28.083 45.122v22.886l-14.024 9.065V53.672l14.024-8.55z" fill="url(#paint6_linear)"/><path d="M28.087 45.122l-14.025 8.55L.004 45.715 13.834 37l14.253 8.122z" fill="url(#paint7_linear)"/><path d="M0 45.715L.034 68.98l14.024 8.093V53.672L0 45.715z" fill="url(#paint8_linear)"/><path d="M47.659 8.32v71.462l-14.024 9.065V16.87l14.024-8.55z" fill="url(#paint9_linear)"/><path d="M47.66 8.32l-14.024 8.55-14.058-7.957L33.408.198 47.661 8.32z" fill="url(#paint10_linear)"/><path d="M19.576 8.913l.034 71.841 14.025 8.093V16.87L19.576 8.913z" fill="url(#paint11_linear)"/><path d="M66.731 50.122v41.462l-14.024 9.065V58.671l14.024-8.55z" fill="url(#paint12_linear)"/><path d="M66.733 50.122l-14.024 8.55-14.059-7.957L52.48 42l14.253 8.122z" fill="url(#paint13_linear)"/><path d="M38.648 50.715l.034 41.841 14.025 8.093V58.672l-14.059-7.957z" fill="url(#paint14_linear)"/><path d="M86.731 87.122v16.229l-14.024 9.066V95.672l14.024-8.55z" fill="url(#paint15_linear)"/><path d="M86.735 87.122l-14.024 8.55-14.059-7.957L72.482 79l14.253 8.122z" fill="url(#paint16_linear)"/><path d="M58.648 87.715l.034 16.609 14.025 8.093V95.672l-14.059-7.957z" fill="url(#paint17_linear)"/><defs><linearGradient id="paint0_linear" x1="74.6" y1="49.599" x2="124.199" y2="49.599" gradientUnits="userSpaceOnUse"><stop stop-color="#C5C5C5"/><stop offset=".229" stop-color="#DDD"/><stop offset=".672" stop-color="#B7B7B7"/><stop offset="1" stop-color="#797979"/></linearGradient><linearGradient id="paint1_linear" x1="98.026" y1="23.748" x2="89" y2="50.399" gradientUnits="userSpaceOnUse"><stop stop-color="#D2D2D2"/><stop offset="1" stop-color="#E2E2E2"/></linearGradient><linearGradient id="paint2_linear" x1="108.884" y1="14.067" x2="97.796" y2="34.399" gradientUnits="userSpaceOnUse"><stop stop-color="#C44036"/><stop offset="1" stop-color="#FF7062"/></linearGradient><linearGradient id="paint3_linear" x1="125.801" y1="47.999" x2="102.601" y2="34.399" gradientUnits="userSpaceOnUse"><stop stop-color="#8D2D26"/><stop offset="1" stop-color="#E85F53"/></linearGradient><linearGradient id="paint4_linear" x1="109.049" y1="76.5" x2="177.049" y2="84" gradientUnits="userSpaceOnUse"><stop stop-color="#283645"/><stop offset="1" stop-color="#A0A6AB"/></linearGradient><linearGradient id="paint5_linear" x1="165.549" y1="86.5" x2="124.049" y2="68" gradientUnits="userSpaceOnUse"><stop stop-color="#2D4359"/><stop offset="1" stop-color="#222D38"/></linearGradient><linearGradient id="paint6_linear" x1="21.071" y1="22.871" x2="21.071" y2="77.073" gradientUnits="userSpaceOnUse"><stop stop-color="#CCC"/><stop offset="1" stop-color="#AFAFAF"/></linearGradient><linearGradient id="paint7_linear" x1="17.623" y1="38.516" x2="6.256" y2="48.746" gradientUnits="userSpaceOnUse"><stop stop-color="#D6D6D6"/><stop offset="1" stop-color="#E4E4E4"/></linearGradient><linearGradient id="paint8_linear" x1="7.046" y1="21.871" x2="7.046" y2="77.073" gradientUnits="userSpaceOnUse"><stop stop-color="#F2F2F2"/><stop offset=".944" stop-color="#D0D0D0"/></linearGradient><linearGradient id="paint9_linear" x1="41" y1="16" x2="40.647" y2="88.847" gradientUnits="userSpaceOnUse"><stop stop-color="#34414E"/><stop offset="1" stop-color="#28323D"/></linearGradient><linearGradient id="paint10_linear" x1="37.197" y1="1.714" x2="25.83" y2="11.944" gradientUnits="userSpaceOnUse"><stop stop-color="#384756"/><stop offset="1" stop-color="#4A5A69"/></linearGradient><linearGradient id="paint11_linear" x1="27" y1="14.5" x2="26.622" y2="88.847" gradientUnits="userSpaceOnUse"><stop stop-color="#596775"/><stop offset=".016" stop-color="#596775"/><stop offset=".944" stop-color="#2E445A"/></linearGradient><linearGradient id="paint12_linear" x1="59.719" y1="53.858" x2="59.719" y2="100.649" gradientUnits="userSpaceOnUse"><stop stop-color="#34414E"/><stop offset="1" stop-color="#28323D"/></linearGradient><linearGradient id="paint13_linear" x1="56.27" y1="43.516" x2="44.902" y2="53.746" gradientUnits="userSpaceOnUse"><stop stop-color="#384756"/><stop offset="1" stop-color="#4A5A69"/></linearGradient><linearGradient id="paint14_linear" x1="46.079" y1="53.239" x2="45.695" y2="100.649" gradientUnits="userSpaceOnUse"><stop stop-color="#596775"/><stop offset=".944" stop-color="#2E445A"/></linearGradient><linearGradient id="paint15_linear" x1="75.5" y1="94" x2="72.272" y2="110.208" gradientUnits="userSpaceOnUse"><stop stop-color="#C6C5C5"/><stop offset="1" stop-color="#C0BEBE"/></linearGradient><linearGradient id="paint16_linear" x1="76.272" y1="80.516" x2="64.904" y2="90.746" gradientUnits="userSpaceOnUse"><stop stop-color="#C8C8C8"/><stop offset="1" stop-color="#DADADA"/></linearGradient><linearGradient id="paint17_linear" x1="66" y1="88" x2="65.695" y2="112.417" gradientUnits="userSpaceOnUse"><stop stop-color="#EFEFEF"/><stop offset="1" stop-color="#D0D0D0"/></linearGradient></defs></svg>