<svg width="158" height="125" fill="none" xmlns="http://www.w3.org/2000/svg"><path d="M54.493 46.364l-4.817 3.285-.98-2.962 5.76-3.62.024-.013.013 3.31z" fill="#5C5C5C"/><path d="M58.077 57.475c-3.091 1.817-8.143 1.058-8.143 1.058v-3.571s4.37.796 7.597-.76c3.327-1.605 4.022-3.857 4.022-5.462l.298 2.9s.57 3.284-3.774 5.835z" fill="url(#paint0_linear)"/><path d="M13.004 73.812V70.64l1.862 4.044-.757.448-1.105-1.319z" fill="#444"/><path d="M13.004 73.812L6.127 72.68v-3.248l6.877 1.207v3.173z" fill="#7B7B7B"/><path d="M22.564 74.907s-.435 4.044-3.377 5.338C15.041 82.062 8.81 81.626 8.81 81.626l-.05-3.322s5.711.423 9.87-1.331c4.406-1.842 3.686-5.823 3.686-5.823l27.62-16.189v3.572L22.564 74.906z" fill="url(#paint1_linear)"/><path fill-rule="evenodd" clip-rule="evenodd" d="M41.79 53.58L17.685 66.659 3.793 68.213.069 73.016s-.807-3.57 3.103-5.935c4.606-2.775 11.383-1.53 11.383-1.53l26.69-15.243s.41-4.765 3.724-6.221c3.302-1.444 9.508-1.033 9.508-1.033l-.024.012c-.093.044-.487.237-1.066.52-2.07 1.01-6.495 3.17-7.872 3.773-3.315 1.456-3.724 6.222-3.724 6.222zm15.743.623c-3.227 1.555-7.597.759-7.597.759L22.316 71.15s.72 3.982-3.687 5.823c-4.158 1.755-9.869 1.332-9.869 1.332l5.35-3.173.758-.448-1.862-4.044-6.877-1.207L.07 73.016l3.724-4.803 13.89-1.555 24.108-13.077s.41-4.766 3.724-6.222c1.377-.602 5.799-2.761 7.87-3.772.58-.284.975-.477 1.068-.52l-5.76 3.62.98 2.962.05.149 5.374.933 6.108-3.944a5.38 5.38 0 0 1 .347 1.933l.001.008v.012c0 1.605-.695 3.858-4.022 5.463zm3.934-6.295v-.001l-5.809 6.084 5.81-6.083z" fill="url(#paint2_linear)"/><path d="M6.128 72.68L.07 76.226v-3.21l6.058-3.584v3.248z" fill="#989898"/><path d="M123.171 110.206l.01 1.796a.795.795 0 0 1-.404.697l-18.283 10.187 18.37-12.091a.716.716 0 0 0 .307-.589z" fill="#13171E"/><path d="M123.171 110.176l.001.03a.718.718 0 0 1-.308.589l-18.37 12.091-64.09-36.704 17.584-10.31a4.868 4.868 0 0 1 4.841-.006l59.985 33.72a.695.695 0 0 1 .357.59z" fill="#29303A"/><path d="M104.493 122.886l-1.06.593a6.826 6.826 0 0 1-6.712-.033L39.905 90.142c-1.422-.808-3.331-1.847-.005-3.671l.504-.29 64.089 36.705z" fill="#48515B"/><path d="M59.371 94.72c.002-.015-.014-.027-.028-.04a.194.194 0 0 1-.056-.16.097.097 0 0 1 .057-.078l.073-.043 1.612-.96c.019-.01.037-.022.056-.033a.438.438 0 0 1 .237-.047c.12.005.236.037.342.093.03.014.054.03.08.046l14.245 8.158c.062.034.12.074.174.12.029.024.05.055.064.09.026.076-.003.136-.086.185-.325.191-.646.383-.968.575l-.682.406-.074.044a.278.278 0 0 1-.147.035.768.768 0 0 1-.273-.035.137.137 0 0 0-.056-.011L59.37 94.72zm-7.434-12.458c.016.01.035.014.053.012a.91.91 0 0 1 .107-.014.569.569 0 0 1 .201.017.792.792 0 0 1 .235.09l.034.02 4.068 2.33c.058.032.113.07.163.112a.171.171 0 0 1 .069.174.18.18 0 0 1-.097.109c-.364.214-.727.43-1.088.646-.197.117-.394.233-.589.351a.362.362 0 0 1-.147.05.671.671 0 0 1-.339-.039 1.293 1.293 0 0 1-.172-.081l-1.458-.836-2.564-1.468c-.038-.022-.075-.044-.114-.065a.44.44 0 0 1-.077-.058c-.09-.08-.124-.158-.072-.236.01-.015 0-.027-.02-.04l1.807-1.074zm-5.01 2.983a.09.09 0 0 0 .054.013l.093-.013a.59.59 0 0 1 .27.031.869.869 0 0 1 .18.075l.08.046 3.985 2.282.08.046a.419.419 0 0 1 .177.17.13.13 0 0 1-.059.183l-.064.038-1.593.948-.046.028a.57.57 0 0 1-.445.028.212.212 0 0 0-.07-.015l-4.377-2.508a.078.078 0 0 0-.008-.025c-.014-.022-.031-.044-.047-.066a.089.089 0 0 1-.017-.084c.008-.023.018-.047.025-.07.004-.012-.01-.023-.024-.032l1.806-1.075zm7.517-4.475c.016.01.035.014.054.012a.87.87 0 0 1 .107-.015.565.565 0 0 1 .201.018.95.95 0 0 1 .236.09c.184.108.371.214.557.32l2.429 1.39c.058.033.113.071.164.114a.24.24 0 0 1 .083.132.107.107 0 0 1-.054.113c-.02.014-.042.026-.064.04l-1.658.987c-.013.007-.026.014-.037.022a.412.412 0 0 1-.207.05.275.275 0 0 1-.058-.003.922.922 0 0 1-.3-.093l-.069-.04-2.952-1.69-.068-.04a.424.424 0 0 1-.078-.057c-.09-.08-.124-.158-.073-.236.01-.015 0-.027-.019-.04l1.806-1.075zm-5.011 2.984c.016.01.035.015.054.012a.703.703 0 0 1 .279-.003.96.96 0 0 1 .276.103c.37.214.743.426 1.115.64l1.401.801c.075.04.14.097.187.167a.12.12 0 0 1-.012.153.387.387 0 0 1-.108.087c-.528.313-1.056.627-1.583.942a.797.797 0 0 1-.147.065.49.49 0 0 1-.26.008.948.948 0 0 1-.29-.106c-.359-.208-.72-.414-1.081-.62l-1.436-.822a.555.555 0 0 1-.17-.142.132.132 0 0 1-.023-.157.19.19 0 0 0 .015-.022c.004-.012-.009-.022-.023-.031l1.806-1.075zm31.301 23.202c-.003-.008-.002-.018-.01-.024a.215.215 0 0 1-.058-.092c-.031-.07.006-.125.069-.174a.473.473 0 0 1 .036-.022l1.62-.964a.552.552 0 0 1 .427-.063.92.92 0 0 1 .26.099c.318.184.638.366.956.548l1.56.894c.076.039.14.096.188.167a.119.119 0 0 1-.013.152.387.387 0 0 1-.107.087c-.535.317-1.069.635-1.602.953a.527.527 0 0 1-.359.068.772.772 0 0 1-.157-.034.09.09 0 0 0-.028-.001l-2.782-1.594zM56.952 79.278c.016.01.035.015.053.013a.703.703 0 0 1 .28-.004.96.96 0 0 1 .275.103l1.73.991.25.144a.7.7 0 0 1 .11.078c.1.084.115.164.063.243a.098.098 0 0 1-.028.026l-.073.044-1.61.96a.521.521 0 0 1-.383.071.38.38 0 0 1-.086-.02 1.218 1.218 0 0 1-.192-.08c-.127-.075-.257-.148-.386-.222l-1.607-.92a.522.522 0 0 1-.187-.166.096.096 0 0 1-.019-.076.164.164 0 0 1 .026-.079c.009-.01-.008-.022-.022-.031l1.806-1.075zM53.35 91.273c.002-.012-.007-.022-.018-.033a.159.159 0 0 1-.04-.205.119.119 0 0 1 .046-.047l.055-.033 1.621-.965.046-.027a.461.461 0 0 1 .266-.048.958.958 0 0 1 .364.115c.66.38 1.321.758 1.983 1.136.056.03.105.071.147.119.086.1.064.184-.042.253l-.027.017-1.621.965a.523.523 0 0 1-.359.069.814.814 0 0 1-.158-.035c-.009-.002-.019-.002-.028-.002l-2.234-1.28zm-3.009-1.723c.003-.016-.014-.028-.027-.041a.194.194 0 0 1-.05-.093.155.155 0 0 1 .084-.163l.055-.033 1.585-.943a.49.49 0 0 1 .318-.086.953.953 0 0 1 .378.117c.655.377 1.312.753 1.97 1.13a.51.51 0 0 1 .188.166.115.115 0 0 1 .008.132.28.28 0 0 1-.1.09l-.976.581-.663.395a.514.514 0 0 1-.35.063.805.805 0 0 1-.157-.034.108.108 0 0 0-.029-.002l-2.234-1.28zm6.02 3.446c.003-.015-.015-.027-.027-.04a.158.158 0 0 1-.024-.212.103.103 0 0 1 .029-.026c.02-.014.042-.026.064-.039l1.62-.965.047-.027a.46.46 0 0 1 .265-.049.962.962 0 0 1 .364.115c.652.375 1.306.749 1.96 1.123a.57.57 0 0 1 .206.181.113.113 0 0 1-.003.131.217.217 0 0 1-.091.084c-.014.007-.025.015-.037.022l-1.566.933a.818.818 0 0 1-.155.07.484.484 0 0 1-.232.015.763.763 0 0 1-.157-.034.112.112 0 0 0-.028-.002l-2.235-1.28zm21.389 12.25a.091.091 0 0 0-.013-.025c-.015-.019-.035-.038-.05-.057a.12.12 0 0 1-.036-.093.13.13 0 0 1 .012-.05.14.14 0 0 1 .03-.041.415.415 0 0 1 .084-.068l1.612-.959a.59.59 0 0 1 .389-.067c.097.019.191.053.279.099l.057.033 1.902 1.089c.051.028.1.061.145.098.097.084.114.164.063.243a.082.082 0 0 1-.028.026c-.023.016-.048.03-.072.045l-1.612.959c-.022.013-.042.026-.065.038a.415.415 0 0 1-.213.042.72.72 0 0 1-.23-.04.303.303 0 0 0-.043-.006l-2.211-1.266zm-3.01-1.724a.094.094 0 0 0-.011-.025l-.05-.057a.135.135 0 0 1-.023-.149.063.063 0 0 1 .025-.027.82.82 0 0 1 .07-.045l1.676-.997.056-.033a.369.369 0 0 1 .19-.035.659.659 0 0 1 .216.039 1.3 1.3 0 0 1 .189.084c.651.375 1.304.749 1.957 1.122.041.02.079.047.111.078a.201.201 0 0 1 .102.181.122.122 0 0 1-.062.094c-.02.014-.042.026-.064.039l-1.63.969-.074.044a.23.23 0 0 1-.108.028.843.843 0 0 1-.274-.024.22.22 0 0 0-.084-.02l-2.211-1.266zm9.55 5.472a.047.047 0 0 0-.007-.019.036.036 0 0 0-.013-.014.194.194 0 0 1-.066-.159.094.094 0 0 1 .058-.086l.055-.033 1.64-.976c.019-.011.036-.023.056-.033a.436.436 0 0 1 .213-.043.812.812 0 0 1 .357.095c.025.012.046.026.069.039l1.915 1.096a.938.938 0 0 1 .16.114c.022.018.04.04.052.065a.307.307 0 0 1 .019.102.092.092 0 0 1-.054.079l-.064.038a1333.637 1333.637 0 0 1-1.716 1.019.562.562 0 0 1-.351.01.36.36 0 0 0-.112-.028l-2.211-1.266zm3.012 1.723a.05.05 0 0 0-.007-.018.037.037 0 0 0-.013-.014.194.194 0 0 1-.066-.159.094.094 0 0 1 .058-.086l.064-.039 1.63-.97c.025-.015.049-.03.075-.043a.179.179 0 0 1 .054-.022.696.696 0 0 1 .353.024c.066.021.13.049.19.083.651.375 1.305.75 1.959 1.123a.848.848 0 0 1 .147.109.17.17 0 0 1 .047.065c.01.027.016.056.017.085a.096.096 0 0 1-.013.052.098.098 0 0 1-.039.036l-.073.044-1.63.97-.075.044a.23.23 0 0 1-.109.028.818.818 0 0 1-.274-.025.266.266 0 0 0-.084-.02l-2.211-1.267zm15.553.003h-.142a.715.715 0 0 1-.29-.077c-.02-.01-.038-.021-.057-.032l-1.982-1.135a.621.621 0 0 1-.146-.108.192.192 0 0 1-.051-.176.101.101 0 0 1 .016-.033.11.11 0 0 1 .029-.023l.073-.044 1.63-.969.074-.044a.228.228 0 0 1 .108-.03.759.759 0 0 1 .34.048c.051.021.1.044.148.069l1.959 1.122a.984.984 0 0 1 .148.108c.026.021.045.05.054.083a.28.28 0 0 1 .006.1l-1.917 1.141zm-2.506 1.492c-.047 0-.094.002-.142 0a.714.714 0 0 1-.29-.077c-.02-.009-.038-.021-.057-.032l-1.982-1.135a.591.591 0 0 1-.146-.108.19.19 0 0 1-.051-.176.079.079 0 0 1 .016-.032.077.077 0 0 1 .03-.023l.072-.044 1.63-.97.074-.044a.224.224 0 0 1 .108-.029.746.746 0 0 1 .34.047c.051.021.1.044.148.07l1.959 1.121c.053.032.102.068.148.108.026.022.045.05.055.083a.306.306 0 0 1 .005.1l-1.917 1.141zm-2.509 1.492h-.143a.715.715 0 0 1-.29-.077c-.02-.01-.038-.021-.057-.032l-1.982-1.135a.592.592 0 0 1-.145-.108.189.189 0 0 1-.052-.176.088.088 0 0 1 .017-.033.086.086 0 0 1 .028-.022l.074-.045 1.629-.969c.025-.015.049-.03.075-.043a.18.18 0 0 1 .054-.022.706.706 0 0 1 .353.024c.066.022.129.05.189.084.651.375 1.304.749 1.959 1.122a1 1 0 0 1 .147.108c.026.021.046.05.055.083a.305.305 0 0 1 .005.1l-1.916 1.141zm-5.091.182a.122.122 0 0 0-.021-.032.376.376 0 0 1-.058-.083.109.109 0 0 1-.002-.107.122.122 0 0 1 .05-.055l.073-.044 1.621-.965c.028-.016.055-.033.085-.048a.244.244 0 0 1 .07-.022.799.799 0 0 1 .482.092l.045.026 1.938 1.109c.047.028.09.058.133.092a.194.194 0 0 1 .089.173l-.001.033-1.917 1.141c-.01-.002-.019-.002-.028-.002a.63.63 0 0 1-.237-.019.382.382 0 0 0-.11-.022l-2.212-1.267zm12.614-4.658a1.645 1.645 0 0 1-.172-.001.45.45 0 0 1-.115-.022 1.088 1.088 0 0 1-.181-.073l-.057-.033-1.936-1.108a.634.634 0 0 1-.156-.116.183.183 0 0 1-.051-.175.101.101 0 0 1 .016-.033.11.11 0 0 1 .029-.023l.073-.044 1.63-.969.074-.044a.216.216 0 0 1 .108-.029.745.745 0 0 1 .34.048c.051.02.1.043.148.069l1.959 1.121c.052.032.102.068.148.109.026.021.045.05.054.082a.337.337 0 0 1 .006.1l-1.917 1.141zm1.572 3.583c-.047 0-.094.002-.142 0a.715.715 0 0 1-.29-.077c-.02-.009-.038-.021-.057-.032l-1.982-1.135a.594.594 0 0 1-.146-.108.186.186 0 0 1-.051-.176.076.076 0 0 1 .017-.032.07.07 0 0 1 .028-.023l.073-.044 1.63-.97.074-.044a.227.227 0 0 1 .108-.029.732.732 0 0 1 .34.048c.051.02.1.043.148.069l1.959 1.121a.99.99 0 0 1 .148.109c.026.021.045.05.055.082a.306.306 0 0 1 .005.1l-1.917 1.141zm-2.504 1.492c-.047 0-.094.002-.142 0a.715.715 0 0 1-.29-.077c-.02-.01-.038-.021-.057-.032l-1.982-1.135a.594.594 0 0 1-.146-.108.192.192 0 0 1-.051-.176.101.101 0 0 1 .016-.033.09.09 0 0 1 .029-.022l.073-.045 1.63-.969.074-.044a.216.216 0 0 1 .108-.029.745.745 0 0 1 .34.047c.051.021.1.044.148.069l1.959 1.122a.984.984 0 0 1 .148.108.17.17 0 0 1 .055.083.305.305 0 0 1 .005.1l-1.917 1.141zm-2.507 1.491c-.048.001-.095.002-.143.001a.72.72 0 0 1-.29-.077c-.02-.01-.038-.021-.057-.032l-1.982-1.135a.598.598 0 0 1-.145-.109.186.186 0 0 1-.052-.175.088.088 0 0 1 .017-.033.104.104 0 0 1 .028-.023l.073-.044 1.63-.97c.024-.014.048-.029.075-.043a.178.178 0 0 1 .054-.021.704.704 0 0 1 .353.024c.066.022.129.05.189.084l1.958 1.122a.92.92 0 0 1 .148.108.17.17 0 0 1 .055.083.303.303 0 0 1 .005.1l-1.916 1.14zm-5.092.183a.148.148 0 0 0-.02-.033.348.348 0 0 1-.058-.082.11.11 0 0 1-.015-.054.11.11 0 0 1 .013-.053.122.122 0 0 1 .05-.055l.073-.044 1.621-.965c.028-.016.055-.034.085-.048a.246.246 0 0 1 .07-.022.706.706 0 0 1 .3.019.844.844 0 0 1 .181.072l.046.027 1.938 1.109c.046.028.091.058.133.092a.186.186 0 0 1 .067.075c.016.03.023.064.022.098l-.001.033-1.917 1.14-.028-.001a.63.63 0 0 1-.237-.019.382.382 0 0 0-.11-.022l-2.213-1.267zm12.615-4.658a1.409 1.409 0 0 1-.172-.001.45.45 0 0 1-.115-.022 1.088 1.088 0 0 1-.181-.073l-.057-.033-1.936-1.108a.63.63 0 0 1-.156-.115.192.192 0 0 1-.049-.082.176.176 0 0 1-.002-.094.101.101 0 0 1 .016-.033.09.09 0 0 1 .029-.022l.073-.045 1.63-.969.074-.044a.216.216 0 0 1 .108-.029.745.745 0 0 1 .34.048c.051.02.1.043.148.069l1.959 1.121c.052.032.102.068.148.109.026.021.045.05.054.082a.337.337 0 0 1 .006.1l-1.917 1.141zm1.57 3.583c-.047 0-.094.002-.142 0a.715.715 0 0 1-.29-.077c-.02-.01-.038-.021-.057-.032l-1.982-1.135a.594.594 0 0 1-.146-.108.192.192 0 0 1-.051-.176.087.087 0 0 1 .045-.055l.073-.045 1.63-.969.074-.044a.216.216 0 0 1 .108-.029.745.745 0 0 1 .34.047c.051.021.1.044.148.07l1.96 1.121c.052.032.101.068.147.108.026.022.045.05.055.083a.306.306 0 0 1 .005.1l-1.917 1.141zm-2.502 1.491c-.047.001-.094.002-.142.001a.715.715 0 0 1-.29-.077c-.02-.01-.038-.021-.057-.032l-1.982-1.135a.598.598 0 0 1-.146-.109.187.187 0 0 1-.051-.175.101.101 0 0 1 .016-.033.11.11 0 0 1 .029-.023l.073-.044 1.63-.97.074-.043a.228.228 0 0 1 .108-.03.759.759 0 0 1 .34.048c.051.02.1.043.148.069l1.959 1.122a.92.92 0 0 1 .148.108.17.17 0 0 1 .055.083.303.303 0 0 1 .005.1l-1.917 1.14zm-2.507 1.492c-.048 0-.095.002-.143.001a.736.736 0 0 1-.29-.077c-.02-.01-.038-.022-.057-.032l-1.982-1.135a.575.575 0 0 1-.145-.109.187.187 0 0 1-.052-.175.087.087 0 0 1 .017-.033.079.079 0 0 1 .028-.023l.073-.044 1.63-.97c.024-.014.048-.029.075-.043a.178.178 0 0 1 .054-.021.693.693 0 0 1 .353.024c.066.022.129.05.189.084.651.374 1.304.748 1.958 1.121a.99.99 0 0 1 .148.109c.026.021.045.05.055.082a.306.306 0 0 1 .005.1l-1.916 1.141zm-5.095.183a.185.185 0 0 0-.021-.033.368.368 0 0 1-.058-.082.112.112 0 0 1-.015-.054.1.1 0 0 1 .013-.053.12.12 0 0 1 .05-.055l.073-.044 1.622-.965c.027-.016.054-.034.084-.048a.248.248 0 0 1 .07-.022.708.708 0 0 1 .3.019.815.815 0 0 1 .182.073l.045.026 1.938 1.109c.047.028.091.058.133.092a.186.186 0 0 1 .067.075c.016.03.023.064.022.098l-.001.033-1.917 1.141c-.01-.002-.019-.002-.028-.002a.63.63 0 0 1-.237-.019.384.384 0 0 0-.111-.022l-2.211-1.267zm12.618-4.658a1.409 1.409 0 0 1-.172-.001.41.41 0 0 1-.115-.022 1.088 1.088 0 0 1-.181-.073l-.057-.033-1.936-1.108a.63.63 0 0 1-.156-.115.18.18 0 0 1-.051-.176.101.101 0 0 1 .016-.033.09.09 0 0 1 .029-.022l.073-.045 1.63-.969.074-.044a.216.216 0 0 1 .108-.029.745.745 0 0 1 .34.048c.051.02.1.043.148.069l1.959 1.121c.052.032.102.068.148.109.026.021.045.05.054.082a.306.306 0 0 1 .005.1l-1.916 1.141zM69.067 82.297c0 .01.002.018.006.026.015.023.033.045.049.068a.117.117 0 0 1 .005.142.262.262 0 0 1-.085.08c-.398.236-.795.471-1.19.708a.617.617 0 0 1-.473.02.715.715 0 0 1-.143-.06c-.007-.006-.016-.01-.023-.014l-1.88-1.077a.535.535 0 0 1-.14-.104.444.444 0 0 1-.065-.093.11.11 0 0 1 .017-.124c.012-.014 0-.027-.019-.04l1.305-.777a.113.113 0 0 0 .07.01.685.685 0 0 1 .359.01.283.283 0 0 0 .102.02l2.105 1.205zm-6.502-3.953c0 .008.002.017.006.025.015.023.033.045.049.068a.118.118 0 0 1 .006.143.261.261 0 0 1-.086.08 362.4 362.4 0 0 0-1.19.707.617.617 0 0 1-.473.021.715.715 0 0 1-.143-.061l-.023-.014-1.88-1.076a.446.446 0 0 1-.204-.198.11.11 0 0 1 .016-.124c.012-.014 0-.027-.019-.04l1.305-.776c.022.01.046.014.07.009a.684.684 0 0 1 .359.011.282.282 0 0 0 .102.019l2.105 1.206zm39.733 22.744c-.003.012.008.022.018.033.02.025.038.051.056.076a.11.11 0 0 1 .006.127.275.275 0 0 1-.101.102l-1.162.692a.55.55 0 0 1-.308.06.772.772 0 0 1-.32-.096l-.059-.033-1.823-1.045-.07-.04c-.098-.06-.16-.127-.164-.204a.145.145 0 0 1 .081-.143c.08-.046.158-.093.236-.14l.945-.562a.496.496 0 0 1 .14-.06.572.572 0 0 1 .273 0l.103.024a.3.3 0 0 0 .044.003l2.105 1.206zm-5.802-3.323c-.003.012.008.022.017.034.021.024.039.05.056.076a.11.11 0 0 1 .006.126.271.271 0 0 1-.1.102l-1.144.68a.726.726 0 0 1-.158.062.365.365 0 0 1-.11.012.777.777 0 0 1-.368-.092l-.082-.046-1.8-1.031-.082-.047c-.097-.06-.16-.128-.163-.204a.145.145 0 0 1 .082-.143c.077-.044.152-.09.227-.135l.926-.551.067-.04a.52.52 0 0 1 .374-.036c.034.007.068.017.103.024a.303.303 0 0 0 .043.003l2.106 1.206zm8.701 4.984c-.003.012.006.023.018.033a.301.301 0 0 1 .061.085c.042.082.012.148-.069.202l-.019.011-1.162.692a.504.504 0 0 1-.145.057.463.463 0 0 1-.17.011.785.785 0 0 1-.321-.094c-.031-.019-.063-.036-.094-.054l-1.765-1.011c-.035-.02-.071-.039-.104-.06a.296.296 0 0 1-.156-.188.158.158 0 0 1 .079-.152.465.465 0 0 1 .056-.034l1.115-.664a.525.525 0 0 1 .379-.072l.133.026a.144.144 0 0 0 .058.006l2.106 1.206zm5.48 3.142c-.002.012.007.023.019.034a.293.293 0 0 1 .06.084c.043.082.012.148-.069.202l-.019.012-1.161.691a.506.506 0 0 1-.316.068.79.79 0 0 1-.321-.094 1587.042 1587.042 0 0 0-1.858-1.064c-.035-.021-.072-.04-.105-.061a.319.319 0 0 1-.098-.077.309.309 0 0 1-.057-.111.155.155 0 0 1 .017-.087.15.15 0 0 1 .062-.065 409.509 409.509 0 0 1 1.228-.731c.1-.047.213-.06.321-.038.045.007.089.016.134.025.018.006.038.008.058.006l2.105 1.206zm4.031 2.037c-.002.012.007.023.019.034a.268.268 0 0 1 .06.085c.043.082.013.147-.069.202l-.018.011-1.162.692a.534.534 0 0 1-.315.067.79.79 0 0 1-.322-.094l-.093-.053-1.765-1.011c-.035-.02-.071-.04-.105-.061a.3.3 0 0 1-.155-.187.162.162 0 0 1 .079-.153 653.377 653.377 0 0 0 1.228-.731.522.522 0 0 1 .321-.038c.045.007.09.016.134.026a.188.188 0 0 0 .058.006l2.105 1.205zm4.035 2.037c-.002.012.007.023.019.034a.297.297 0 0 1 .061.084c.042.082.012.148-.069.202l-.019.012-1.162.692a.534.534 0 0 1-.315.067.794.794 0 0 1-.322-.094 2.8 2.8 0 0 0-.093-.053l-1.765-1.011c-.035-.02-.071-.04-.104-.061a.294.294 0 0 1-.156-.187.162.162 0 0 1 .079-.153 653.377 653.377 0 0 0 1.228-.731.525.525 0 0 1 .322-.038c.044.007.089.016.133.026.019.005.039.007.058.005l2.105 1.206zM74.868 85.62a.06.06 0 0 0 .007.026c.013.02.029.04.044.06a.139.139 0 0 1-.037.207c-.017.012-.037.023-.056.034l-1.153.686-.067.04a.214.214 0 0 1-.084.025.785.785 0 0 1-.481-.093l-.059-.033-1.824-1.045a.6.6 0 0 1-.184-.142.132.132 0 0 1 .006-.211c.023-.017.049-.031.074-.046l1.153-.686.067-.04a.289.289 0 0 1 .15-.035.8.8 0 0 1 .281.038.13.13 0 0 0 .058.01l2.105 1.205zm24.527 13.806c-.003.012.006.023.018.034a.205.205 0 0 1 .07.163.097.097 0 0 1-.057.089l-.066.04-1.153.686a.427.427 0 0 0-.047.028.355.355 0 0 1-.21.052.593.593 0 0 1-.06-.003.952.952 0 0 1-.308-.096l-.082-.046-1.79-1.025-.08-.047c-.124-.074-.176-.158-.165-.247a.124.124 0 0 1 .066-.087 7.63 7.63 0 0 1 .056-.034l1.144-.68.038-.023a.519.519 0 0 1 .374-.037l.103.025a.32.32 0 0 0 .044.003l2.105 1.205zM71.968 83.959c0 .008.002.017.006.025.013.02.03.04.044.06a.14.14 0 0 1-.005.182.085.085 0 0 1-.023.02l-.056.034-1.163.692a.382.382 0 0 1-.142.059.322.322 0 0 1-.038.008c-.08.006-.16 0-.238-.016a.733.733 0 0 1-.204-.075l-.058-.033-1.836-1.051a.609.609 0 0 1-.154-.11l-.043-.05a.14.14 0 0 1-.023-.153.068.068 0 0 1 .027-.028 3455.93 3455.93 0 0 1 1.264-.755l.038-.022a.35.35 0 0 1 .205-.041c.085 0 .17.014.25.042a.2.2 0 0 0 .044.006l2.105 1.206zm5.779 3.309a.093.093 0 0 0 .011.026c.016.02.035.038.052.058a.145.145 0 0 1 .01.192.087.087 0 0 1-.02.02.477.477 0 0 1-1.423.8.805.805 0 0 1-.426-.093l-.06-.034-1.834-1.05a.607.607 0 0 1-.154-.11l-.042-.05a.14.14 0 0 1-.023-.153.065.065 0 0 1 .027-.028 1.64 1.64 0 0 1 .082-.052l1.172-.697.067-.039a.242.242 0 0 1 .112-.029.87.87 0 0 1 .282.028.206.206 0 0 0 .085.019l2.082 1.192zm13.625 7.645c-.003.012.006.023.018.034a.204.204 0 0 1 .07.163.098.098 0 0 1-.057.089l-.066.04-1.153.685c-.019.012-.04.022-.056.034a.297.297 0 0 1-.172.044.565.565 0 0 1-.089-.001.931.931 0 0 1-.307-.094l-.083-.047-1.788-1.024-.081-.047c-.124-.074-.177-.157-.166-.247a.125.125 0 0 1 .064-.088c.019-.01.037-.022.056-.033l1.153-.687.029-.016a.523.523 0 0 1 .388-.035c.038.008.076.022.114.032l.044.006 2.082 1.192zm-2.904-1.661c-.003.027.028.051.047.076.025.032.04.072.04.113a.103.103 0 0 1-.058.097l-.066.04-1.153.686c-.019.01-.038.022-.056.033a.316.316 0 0 1-.12.038.542.542 0 0 1-.218-.01.99.99 0 0 1-.269-.102l-.992-.569-.877-.502a.799.799 0 0 1-.1-.063.26.26 0 0 1-.11-.168.135.135 0 0 1 .069-.13c.017-.012.037-.022.056-.034l1.143-.68.038-.022a.518.518 0 0 1 .375-.037c.034.008.068.018.102.025a.318.318 0 0 0 .044.003l2.105 1.206zm-5.801-3.322c0 .008.002.017.006.025.015.023.035.045.05.068a.136.136 0 0 1-.051.205l-.037.023-1.162.691a.44.44 0 0 1-.195.07.818.818 0 0 1-.415-.084l-.047-.027c-.627-.36-1.255-.718-1.882-1.077a.617.617 0 0 1-.14-.104c-.01-.011-.017-.023-.028-.034a.131.131 0 0 1-.016-.176.096.096 0 0 1 .028-.027l.074-.045c.384-.23.769-.458 1.153-.686.022-.013.045-.026.066-.04a.314.314 0 0 1 .166-.036.81.81 0 0 1 .193.022.436.436 0 0 0 .131.026l2.106 1.206zm2.903 1.66c-.004.025.025.046.04.069a.27.27 0 0 1 .044.086.13.13 0 0 1-.076.143l-.056.034-1.134.675-.076.045a.219.219 0 0 1-.096.028.806.806 0 0 1-.492-.104c-.134-.08-.272-.157-.408-.235l-1.473-.843a.612.612 0 0 1-.149-.112.19.19 0 0 1-.051-.18.089.089 0 0 1 .047-.056l.056-.034 1.172-.697a.455.455 0 0 1 .114-.055.574.574 0 0 1 .258-.003c.044.008.087.02.132.03a.209.209 0 0 0 .043.004l2.106 1.206zm11.508 16.189l-2.036 1.211-.112.066a.291.291 0 0 1-.119.034c-.032.003-.065.004-.098.006a.45.45 0 0 1-.115-.009l-.03-.006a.825.825 0 0 1-.262-.097c-.324-.188-.652-.375-.978-.562l-1.377-.791a.79.79 0 0 1-.148-.097.344.344 0 0 0-.064-.041.217.217 0 0 1-.111-.136.145.145 0 0 1 .01-.096.144.144 0 0 1 .068-.069l.046-.028 1.844-1.095a.465.465 0 0 1 .132-.063.193.193 0 0 0 .04-.02l.276-.165a.067.067 0 0 0 .02-.02c.008-.01.006-.022-.007-.032a.366.366 0 0 0-.052-.035l-.319-.183-.558-.32-.09-.052a.279.279 0 0 1-.148-.174.12.12 0 0 1 .007-.107.315.315 0 0 1 .093-.093l.037-.022 1.492-.889a.522.522 0 0 1 .16-.066.746.746 0 0 1 .534.074l.09.053 3.739 2.14.102.059c.146.088.2.208.133.303a.124.124 0 0 1-.036.032c-.035.023-.072.045-.109.067l-2.054 1.223zm2.057-4.577l2.416 1.384c.031.018.06.036.092.052a.464.464 0 0 1 .186.168.11.11 0 0 1 .017.089.136.136 0 0 1-.018.043.148.148 0 0 1-.034.032 2426.188 2426.188 0 0 0-1.721 1.026c-.013.008-.026.014-.037.022a.393.393 0 0 1-.235.05.847.847 0 0 1-.354-.106l-.08-.045-4.901-2.808-.08-.046a.428.428 0 0 1-.177-.17.098.098 0 0 1-.017-.053c0-.019.004-.038.014-.054a.25.25 0 0 1 .092-.093l1.66-.987a.494.494 0 0 1 .368-.053.892.892 0 0 1 .279.099c.115.069.235.135.352.203l2.178 1.247zm-12.358 4.288l-2.04-1.168a.642.642 0 0 1-.157-.115.19.19 0 0 1-.051-.176.088.088 0 0 1 .016-.033.101.101 0 0 1 .029-.023l.073-.044 1.63-.97.074-.044a.246.246 0 0 1 .122-.03.687.687 0 0 1 .326.051c.065.021.126.05.183.088l2.996 1.716 1.05.6c.057.033.111.071.161.114.028.02.048.049.06.082.007.024.011.05.013.076a.09.09 0 0 1-.013.051.086.086 0 0 1-.04.036l-.073.045-1.63.97-.046.027a.351.351 0 0 1-.163.05.464.464 0 0 1-.158-.009.917.917 0 0 1-.278-.1c-.12-.071-.242-.139-.364-.209l-1.72-.985zm-10.409-7.255l.774-.46.074-.044a.514.514 0 0 1 .379-.034c.087.02.171.051.249.095.66.379 1.321.758 1.983 1.136a.51.51 0 0 1 .186.168.108.108 0 0 1 .023.06.112.112 0 0 1-.015.063.195.195 0 0 1-.087.087c-.01.004-.018.01-.028.016l-1.612.96a.516.516 0 0 1-.356.073.835.835 0 0 1-.284-.09l-.069-.039-1.926-1.104-.068-.039c-.096-.059-.157-.124-.16-.199a.143.143 0 0 1 .08-.139l.304-.181.553-.329zM73.334 98.5l.792-.472.056-.032a.517.517 0 0 1 .391-.033c.087.02.17.052.248.096l1.55.888c.144.083.287.166.433.248a.47.47 0 0 1 .182.169.112.112 0 0 1 .002.123.28.28 0 0 1-.099.09l-.959.571c-.227.135-.455.27-.68.406a.518.518 0 0 1-.337.065.842.842 0 0 1-.285-.089c-.02-.01-.038-.021-.057-.032l-1.961-1.123a.624.624 0 0 1-.157-.115.155.155 0 0 1-.016-.22.184.184 0 0 1 .05-.035l.294-.176.553-.329zM61.81 83.122c-.27.16-.542.321-.81.483a.506.506 0 0 1-.378.06.964.964 0 0 1-.291-.105c-.656-.378-1.314-.754-1.972-1.13a.893.893 0 0 1-.13-.093c-.103-.085-.102-.165-.048-.242a.111.111 0 0 1 .031-.025l.073-.044 1.595-.949.046-.027a.522.522 0 0 1 .347-.048.433.433 0 0 1 .1.024c.065.023.128.05.19.083.659.38 1.32.758 1.982 1.136a.5.5 0 0 1 .185.168.11.11 0 0 1 .006.124.272.272 0 0 1-.096.092c-.278.163-.554.328-.83.493zM73.037 98.33l-.793.472a.588.588 0 0 0-.055.033.596.596 0 0 1-.436.023.87.87 0 0 1-.166-.07c-.2-.116-.403-.23-.604-.346l-1.39-.796a.741.741 0 0 1-.134-.092.345.345 0 0 1-.066-.08c-.05-.085-.015-.15.065-.206a.51.51 0 0 1 .046-.028l1.603-.954a.498.498 0 0 1 .397-.068.945.945 0 0 1 .278.1l1.995 1.143a.453.453 0 0 1 .18.17.131.131 0 0 1-.012.15.129.129 0 0 1-.042.033c-.023.016-.049.03-.073.045l-.793.471zM52.138 86.35l.783-.465a.673.673 0 0 0 .064-.039.616.616 0 0 1 .465-.008c.06.023.118.05.174.08l1.961 1.123c.079.04.146.1.195.175a.125.125 0 0 1-.012.145.44.44 0 0 1-.108.087l-1.585.943a.786.786 0 0 1-.157.07.473.473 0 0 1-.235.008.95.95 0 0 1-.304-.109c-.474-.273-.949-.545-1.425-.817-.194-.11-.387-.222-.581-.333a.608.608 0 0 1-.1-.071.205.205 0 0 1-.079-.175.118.118 0 0 1 .06-.086c.023-.016.048-.03.073-.045l.81-.482zm38.14 16.018l-.765.455a.73.73 0 0 0-.073.044.62.62 0 0 1-.466.008 1.842 1.842 0 0 1-.173-.081l-1.96-1.123a.532.532 0 0 1-.19-.166.117.117 0 0 1-.007-.14.247.247 0 0 1 .083-.078c.158-.092.314-.186.47-.279l1.18-.702a.52.52 0 0 1 .377-.06c.101.019.2.054.29.105.656.377 1.314.753 1.972 1.129a.68.68 0 0 1 .147.108c.058.06.087.122.055.182a.226.226 0 0 1-.092.093c-.127.074-.252.15-.378.225l-.47.28zm-9.807-2.709l.793-.472.055-.033a.538.538 0 0 1 .363-.044.39.39 0 0 1 .085.022c.065.024.128.052.189.084.66.38 1.32.758 1.983 1.136a.557.557 0 0 1 .147.119.154.154 0 0 1 .046.15.242.242 0 0 1-.088.103.76.76 0 0 1-1.765 1.033.621.621 0 0 1-.259.015.996.996 0 0 1-.304-.11 363.07 363.07 0 0 0-2.005-1.15.554.554 0 0 1-.083-.056.226.226 0 0 1-.094-.182.122.122 0 0 1 .063-.094c.022-.016.048-.03.073-.044l.801-.477zM71.105 88.43l.774-.46c.024-.014.048-.03.074-.043.1-.05.214-.065.323-.043a.819.819 0 0 1 .27.089l.045.026 1.961 1.122c.076.04.14.097.19.166a.115.115 0 0 1 .007.14.25.25 0 0 1-.083.078c-.152.089-.302.18-.452.269l-1.189.707a.508.508 0 0 1-.386.066.967.967 0 0 1-.29-.105l-1.972-1.13a.735.735 0 0 1-.14-.1.18.18 0 0 1-.071-.166.17.17 0 0 1 .09-.111c.285-.167.566-.336.849-.504zm-2.649 4.345l.792-.471c.022-.013.046-.025.064-.039a.613.613 0 0 1 .454-.009c.06.023.118.05.174.08l1.972 1.13c.076.039.14.096.188.167a.12.12 0 0 1-.013.152.385.385 0 0 1-.108.087l-1.585.943a.674.674 0 0 1-.21.078.641.641 0 0 1-.285-.027.825.825 0 0 1-.18-.075c-.181-.105-.365-.209-.547-.313l-1.448-.83a.631.631 0 0 1-.156-.115.177.177 0 0 1-.049-.16.118.118 0 0 1 .062-.076l.073-.044.802-.478zm-1.911-4.028l.783-.466a.717.717 0 0 0 .064-.039.612.612 0 0 1 .465-.008c.054.024.112.045.162.074.66.379 1.322.757 1.984 1.135.074.04.138.098.183.169a.118.118 0 0 1-.012.145.369.369 0 0 1-.106.087l-1.595.949a.592.592 0 0 1-.354.077.921.921 0 0 1-.3-.095l-.022-.013-2.007-1.149a.594.594 0 0 1-.134-.102.181.181 0 0 1-.054-.16.115.115 0 0 1 .059-.077l.073-.044.81-.483zm24.027 13.767l.783-.466.065-.038a.528.528 0 0 1 .364-.042.825.825 0 0 1 .226.081c.017.008.031.017.046.026l1.973 1.129a.51.51 0 0 1 .187.167.12.12 0 0 1-.012.153.38.38 0 0 1-.107.086c-.53.314-1.058.629-1.585.943a.682.682 0 0 1-.136.061.598.598 0 0 1-.26.014.924.924 0 0 1-.291-.104l-2.006-1.149a.568.568 0 0 1-.16-.133.167.167 0 0 1-.019-.124.156.156 0 0 1 .028-.057.104.104 0 0 1 .03-.026l.073-.044.801-.477zm-11.773-5.452c-.33-.19-.66-.379-.992-.567a.532.532 0 0 1-.17-.15.153.153 0 0 1-.01-.12.157.157 0 0 1 .03-.052c.01-.01.02-.018.033-.024l.073-.044 1.585-.944.055-.032a.539.539 0 0 1 .363-.044.39.39 0 0 1 .085.022c.065.023.128.051.189.084.66.379 1.32.758 1.983 1.136a.482.482 0 0 1 .182.168.119.119 0 0 1-.014.145.378.378 0 0 1-.107.087c-.53.314-1.058.628-1.585.943a.747.747 0 0 1-.135.061.615.615 0 0 1-.26.016.949.949 0 0 1-.291-.104l-1.014-.581z" fill="#EFEFEF"/><path d="M92.2 106.388l-.81.483a.492.492 0 0 1-.127.054.643.643 0 0 1-.35-.017 1.31 1.31 0 0 1-.188-.084c-.656-.377-1.313-.754-1.972-1.129a.68.68 0 0 1-.147-.109c-.055-.057-.083-.116-.057-.174a.188.188 0 0 1 .087-.095l.01-.005 1.657-.988a.539.539 0 0 1 .383-.05c.097.02.19.055.276.103.656.377 1.313.753 1.972 1.129a.53.53 0 0 1 .188.167.116.116 0 0 1 .008.132.268.268 0 0 1-.1.09l-.83.493zm-14.732-8.456c.273-.163.547-.325.819-.489a.508.508 0 0 1 .367-.055c.103.02.2.055.291.105.66.38 1.321.758 1.983 1.136.075.04.138.097.184.168a.107.107 0 0 1 .008.116.247.247 0 0 1-.092.093l-.572.34-1.077.642a.461.461 0 0 1-.165.062.62.62 0 0 1-.325-.028 1.233 1.233 0 0 1-.187-.086l-1.96-1.123a.922.922 0 0 1-.123-.084.26.26 0 0 1-.087-.123c-.022-.064.015-.114.07-.159a5670.061 5670.061 0 0 1 .865-.516zm-6.655-9.65l-.783.466a.694.694 0 0 0-.064.039.617.617 0 0 1-.466.007 1.874 1.874 0 0 1-.173-.08c-.653-.375-1.306-.75-1.96-1.123a.526.526 0 0 1-.195-.175.125.125 0 0 1 .013-.145.45.45 0 0 1 .107-.087l1.595-.949a.791.791 0 0 1 .113-.052.61.61 0 0 1 .227-.026.98.98 0 0 1 .29.084c.028.013.053.03.08.045l1.926 1.103c.058.032.112.07.163.113a.168.168 0 0 1 .067.166.17.17 0 0 1-.091.11c-.285.167-.566.336-.849.504zm12.026 6.878l-.792.471c-.022.013-.046.025-.065.039a.62.62 0 0 1-.466.005c-.059-.026-.119-.05-.172-.08l-1.96-1.123a.587.587 0 0 1-.16-.125.157.157 0 0 1-.046-.15.245.245 0 0 1 .089-.104.751.751 0 0 1 1.764-1.032.632.632 0 0 1 .26-.015.953.953 0 0 1 .292.103c.66.38 1.32.758 1.983 1.136a.966.966 0 0 1 .13.093.169.169 0 0 1 .073.181.173.173 0 0 1-.09.102c-.282.165-.56.332-.84.498zm-14.66-2.541l-.82.488a.514.514 0 0 1-.335.066.84.84 0 0 1-.285-.088l-.058-.032-1.948-1.116a.69.69 0 0 1-.151-.107c-.065-.066-.095-.133-.058-.197a.26.26 0 0 1 .098-.091l.683-.405c.319-.19.639-.38.957-.571a.504.504 0 0 1 .378-.059c.102.02.2.055.29.106l1.971 1.13a.51.51 0 0 1 .188.166.116.116 0 0 1 .009.132.275.275 0 0 1-.099.09l-.82.488zm26.675 9.424l-.792.471c-.022.013-.045.025-.064.039a.612.612 0 0 1-.454.008 1.42 1.42 0 0 1-.174-.079c-.656-.377-1.314-.753-1.972-1.129a.504.504 0 0 1-.192-.176.114.114 0 0 1 .01-.137.378.378 0 0 1 .114-.094c.416-.246.83-.493 1.245-.74l.35-.208a.566.566 0 0 1 .385-.07.99.99 0 0 1 .292.104c.66.379 1.32.758 1.983 1.136a.832.832 0 0 1 .147.109.154.154 0 0 1 .058.15.165.165 0 0 1-.087.112c-.285.167-.566.335-.849.504zM66.261 88.595l-.819.488a.51.51 0 0 1-.322.065.85.85 0 0 1-.287-.084 1.04 1.04 0 0 1-.08-.046l-1.926-1.103a.796.796 0 0 1-.145-.098.354.354 0 0 1-.065-.08c-.048-.081-.015-.145.058-.2a.608.608 0 0 1 .055-.033l1.603-.954a.495.495 0 0 1 .158-.068.563.563 0 0 1 .239 0 .945.945 0 0 1 .278.1c.664.382 1.328.763 1.994 1.143.074.04.136.098.18.17a.108.108 0 0 1 .004.115.278.278 0 0 1-.104.097c-.275.162-.547.325-.82.488zm12.016 6.882l-.819.488a.511.511 0 0 1-.336.064.84.84 0 0 1-.285-.089c-.02-.01-.038-.021-.057-.032l-1.948-1.116a.555.555 0 0 1-.14-.1l-.036-.04c-.08-.096-.052-.173.044-.238a11333.855 11333.855 0 0 0 1.648-.982.498.498 0 0 1 .398-.067.943.943 0 0 1 .278.1c.663.382 1.328.762 1.993 1.142.074.04.136.099.18.17a.108.108 0 0 1 .005.115.276.276 0 0 1-.104.098c-.275.162-.547.325-.82.487z" fill="#EFEFEF"/><path d="M85.842 96.886l-.819.488a.519.519 0 0 1-.367.056.957.957 0 0 1-.29-.104c-.66-.38-1.322-.758-1.984-1.136a1.219 1.219 0 0 1-.147-.108c-.049-.065-.082-.13-.04-.19a.194.194 0 0 1 .083-.078.502.502 0 0 1 2.038-1.041c.097.019.19.053.277.1.66.38 1.321.758 1.983 1.136.075.04.138.098.185.168a.113.113 0 0 1 .007.124.282.282 0 0 1-.105.097c-.275.162-.547.325-.82.488z" fill="#EFEFEF"/><path d="M62.456 89.339l.792-.471a.776.776 0 0 0 .074-.044.47.47 0 0 1 .263-.048.932.932 0 0 1 .3.092c.02.01.038.022.057.033l1.937 1.11c.055.03.106.065.153.105.035.027.06.065.07.107l.007.034c.01.048-.02.085-.064.119a.582.582 0 0 1-.055.033l-1.64.976a.4.4 0 0 1-.187.07.816.816 0 0 1-.44-.098c-.086-.051-.175-.1-.262-.15l-1.744-.999a.58.58 0 0 1-.185-.158.14.14 0 0 1-.012-.14c.003-.01.015-.02.026-.027.03-.02.06-.038.09-.056l.82-.488zm-3.31-1.884l-.792.471-.074.044a.446.446 0 0 1-.339.028.917.917 0 0 1-.26-.1c-.55-.316-1.1-.632-1.652-.947-.118-.067-.234-.136-.354-.202a.409.409 0 0 1-.128-.104c-.07-.091-.075-.175.032-.24l.064-.039a8267.7 8267.7 0 0 1 1.584-.943l.065-.038a.446.446 0 0 1 .249-.05.833.833 0 0 1 .33.09l.046.026 1.983 1.135a.52.52 0 0 1 .185.168.132.132 0 0 1 0 .131c-.002.008-.011.014-.02.02l-.09.056-.829.494zm1.394-2.14c.266-.16.533-.318.8-.477l.074-.044a.438.438 0 0 1 .326-.03.887.887 0 0 1 .263.098c.66.379 1.32.757 1.983 1.135a.995.995 0 0 1 .146.109.142.142 0 0 1 .05.074c.005.017.007.034.011.051.01.048-.018.086-.062.119-.017.012-.037.022-.055.033l-1.64.976a.392.392 0 0 1-.186.07.795.795 0 0 1-.441-.096l-.478-.275-1.54-.88a.513.513 0 0 1-.183-.168.131.131 0 0 1 0-.132.052.052 0 0 1 .022-.02l.09-.055.82-.488z" fill="#BBB"/><path d="M86.484 103.105l.802-.477c.021-.013.045-.025.064-.039a.383.383 0 0 1 .178-.05.469.469 0 0 1 .13.007c.102.019.2.054.291.104.66.379 1.32.758 1.983 1.136a.985.985 0 0 1 .147.108.145.145 0 0 1 .05.075l.01.051a.117.117 0 0 1-.062.118c-.019.014-.041.026-.063.039l-1.621.965-.055.033a.428.428 0 0 1-.226.044.763.763 0 0 1-.355-.097l-.034-.019-1.972-1.129a.543.543 0 0 1-.196-.174.136.136 0 0 1 0-.132c.002-.007.011-.014.02-.019a315.426 315.426 0 0 1 .91-.544zm-22.236-9.8l.81-.482c.022-.013.045-.025.064-.038a.398.398 0 0 1 .207-.051.93.93 0 0 1 .393.114c.66.379 1.32.757 1.983 1.135.052.031.1.068.146.109a.139.139 0 0 1 .05.074l.01.051c.01.048-.02.085-.064.118a14118.258 14118.258 0 0 0-1.694 1.01.395.395 0 0 1-.187.07.861.861 0 0 1-.231-.018.717.717 0 0 1-.198-.073l-.057-.033-1.948-1.115a.558.558 0 0 1-.15-.108.693.693 0 0 1-.061-.082.124.124 0 0 1 .005-.123c.004-.01.018-.018.03-.025.03-.02.06-.037.09-.056l.802-.477zm17.863 10.227l-.792.472c-.024.014-.051.027-.073.044a.358.358 0 0 1-.207.047.282.282 0 0 1-.059-.003.901.901 0 0 1-.298-.095l-.023-.013-2.017-1.154a.546.546 0 0 1-.123-.096.178.178 0 0 1-.056-.159.117.117 0 0 1 .058-.078c.023-.016.048-.03.073-.045l1.612-.959a.438.438 0 0 1 .279-.08.81.81 0 0 1 .356.095l.058.032 1.948 1.116c.052.026.099.06.14.1l.042.048a.124.124 0 0 1-.025.196l-.082.05-.81.482zm3.024 1.739l-.792.472-.074.043a.437.437 0 0 1-.325.031.857.857 0 0 1-.262-.098l-2.005-1.149a.597.597 0 0 1-.094-.062.227.227 0 0 1-.094-.183.125.125 0 0 1 .063-.093c.02-.014.042-.026.063-.039l1.621-.965.056-.033a.449.449 0 0 1 .225-.045c.12.005.237.036.344.091.02.009.039.021.058.032l1.96 1.122a.62.62 0 0 1 .138.101c.015.016.027.032.041.049a.12.12 0 0 1 .007.162.083.083 0 0 1-.028.026 315.476 315.476 0 0 1-.901.538zm3.704-6.675l-.792.472c-.025.014-.051.028-.073.044a.42.42 0 0 1-.207.05.28.28 0 0 1-.058-.002.932.932 0 0 1-.3-.093c-.024-.012-.046-.026-.069-.039l-1.925-1.103c-.023-.013-.046-.025-.068-.039-.12-.072-.172-.153-.162-.24a.12.12 0 0 1 .063-.085l.064-.04 1.621-.964c.022-.012.042-.026.065-.038a.423.423 0 0 1 .202-.039c.13.001.256.035.37.098l.045.026 1.948 1.116a.576.576 0 0 1 .15.107l.04.048a.122.122 0 0 1-.022.189l-.082.05-.81.482zM72.548 92.2l.81-.482.075-.044a.319.319 0 0 1 .116-.036.542.542 0 0 1 .228.012c.086.02.17.053.247.096a287.051 287.051 0 0 0 1.959 1.123c.054.03.105.066.151.107.032.026.055.06.068.098.022.073-.007.13-.087.177-.247.145-.492.292-.737.438l-.94.56a.402.402 0 0 1-.179.063.798.798 0 0 1-.405-.081c-.02-.01-.038-.021-.057-.032l-1.983-1.135a.567.567 0 0 1-.183-.159.136.136 0 0 1-.01-.14c.003-.01.016-.019.027-.026.029-.02.06-.038.09-.057l.81-.482zm-5.26 2.838l.802-.477c.021-.013.045-.025.064-.039a.37.37 0 0 1 .178-.05.423.423 0 0 1 .13.008.94.94 0 0 1 .29.103c.66.38 1.322.758 1.984 1.136a.994.994 0 0 1 .146.108.144.144 0 0 1 .05.075c.005.017.008.034.011.05.011.049-.017.086-.061.12-.014.01-.03.018-.046.027-.552.33-1.105.658-1.657.987a.372.372 0 0 1-.14.058.4.4 0 0 1-.051.008.782.782 0 0 1-.416-.09l-.057-.033-1.948-1.115a.567.567 0 0 1-.15-.107.719.719 0 0 1-.063-.083.128.128 0 0 1 .004-.123.05.05 0 0 1 .02-.02l.09-.055.82-.488zm7.182 1.185l.801-.477c.022-.013.045-.024.064-.038a.371.371 0 0 1 .178-.05.427.427 0 0 1 .13.007c.102.019.2.054.291.104.66.379 1.321.757 1.983 1.135a.982.982 0 0 1 .147.109.143.143 0 0 1 .05.074c.005.017.007.034.011.051.01.048-.018.086-.062.119-.014.01-.03.019-.045.028-.553.329-1.106.657-1.658.987a.372.372 0 0 1-.139.057.261.261 0 0 1-.038.008.849.849 0 0 1-.232-.017.718.718 0 0 1-.197-.073l-.058-.032-1.948-1.116a.565.565 0 0 1-.15-.107.707.707 0 0 1-.062-.082.128.128 0 0 1 .004-.123c.002-.008.012-.014.02-.02l.09-.056.82-.488zm10.1 2.856l.792-.472c.024-.014.05-.028.073-.044a.4.4 0 0 1 .207-.05.427.427 0 0 1 .101.009.95.95 0 0 1 .292.103c.66.38 1.32.758 1.982 1.136a.985.985 0 0 1 .147.108.143.143 0 0 1 .05.075l.01.05c.011.049-.018.086-.062.119-.02.014-.042.026-.064.039l-1.62.964c-.022.013-.042.027-.066.038a.411.411 0 0 1-.201.04.774.774 0 0 1-.381-.104l-2.016-1.154a.467.467 0 0 1-.179-.17.083.083 0 0 1-.013-.05.148.148 0 0 1 .082-.122c.064-.035.123-.073.184-.11l.682-.405zm-7.75-7.364l-.8.477c-.022.012-.045.024-.065.038a.395.395 0 0 1-.25.046.888.888 0 0 1-.35-.112 314.18 314.18 0 0 0-1.959-1.122.84.84 0 0 1-.152-.106.2.2 0 0 1-.068-.098l-.007-.034c-.013-.055.019-.097.073-.132.02-.014.043-.026.064-.039l1.602-.953c.025-.015.048-.03.075-.044a.448.448 0 0 1 .202-.038.817.817 0 0 1 .357.093c.025.011.046.025.07.038l1.935 1.11c.052.026.1.06.142.098a.283.283 0 0 1 .078.125.107.107 0 0 1-.046.115.73.73 0 0 1-.081.05l-.82.488zM57.875 89.65l-.801.476-.074.043a.293.293 0 0 1-.103.035.557.557 0 0 1-.24-.01.972.972 0 0 1-.247-.097 412.69 412.69 0 0 0-1.378-.79l-.626-.359a.611.611 0 0 1-.092-.063.226.226 0 0 1-.091-.183.1.1 0 0 1 .057-.086l.073-.044 1.611-.959c.025-.015.048-.03.075-.043a.446.446 0 0 1 .202-.04.82.82 0 0 1 .358.094c.024.011.046.025.069.038l1.913 1.096a1 1 0 0 1 .163.113c.03.023.052.055.063.09a.42.42 0 0 1 .011.06.1.1 0 0 1-.06.102l-.073.044-.81.482zm6.935-4.82l-.8.477c-.022.013-.046.025-.065.039a.389.389 0 0 1-.234.05.901.901 0 0 1-.354-.104c-.242-.14-.486-.278-.729-.418l-1.253-.717a.918.918 0 0 1-.15-.107.207.207 0 0 1-.063-.09c-.026-.076.004-.135.088-.185.376-.221.75-.445 1.124-.668l.552-.328a.414.414 0 0 1 .08-.04.658.658 0 0 1 .4.019c.065.023.127.052.186.087l1.947 1.115a.625.625 0 0 1 .148.108.25.25 0 0 1 .066.117.11.11 0 0 1-.051.113c-.025.018-.054.034-.082.05l-.81.483zm-3.898 6.552l-.811.483-.084.048a.208.208 0 0 1-.083.025.767.767 0 0 1-.468-.091l-.034-.02-1.973-1.13a.584.584 0 0 1-.154-.115.18.18 0 0 1-.044-.176.083.083 0 0 1 .041-.048l.064-.039 1.65-.982.075-.043a.152.152 0 0 1 .044-.016.704.704 0 0 1 .354.024c.065.021.129.05.189.083.652.375 1.305.75 1.96 1.123a.89.89 0 0 1 .147.109c.02.018.037.04.047.066.01.027.016.055.017.084a.093.093 0 0 1-.053.088l-.083.05-.801.477zm3.026 1.741l-.802.477-.083.049a.217.217 0 0 1-.095.027.8.8 0 0 1-.48-.104l-.82-.47-1.174-.672a.607.607 0 0 1-.136-.102.192.192 0 0 1-.057-.175.091.091 0 0 1 .051-.063c.023-.012.043-.026.065-.038l1.64-.977a.833.833 0 0 1 .075-.042.249.249 0 0 1 .07-.022.71.71 0 0 1 .3.018.833.833 0 0 1 .181.073l.057.032 1.927 1.103c.054.03.104.067.15.107.03.023.053.055.064.09a.42.42 0 0 1 .011.06.102.102 0 0 1-.06.102l-.073.044-.81.483z" fill="#EFEFEF"/><path d="M62.166 89.172l-.811.483-.084.049a.208.208 0 0 1-.082.024.767.767 0 0 1-.47-.09c-.014-.01-.03-.018-.045-.027l-1.95-1.116a.668.668 0 0 1-.158-.115.194.194 0 0 1-.054-.175.095.095 0 0 1 .052-.063l.064-.038 1.631-.97c.025-.015.049-.03.075-.044a.192.192 0 0 1 .054-.022.7.7 0 0 1 .354.024c.065.021.129.05.189.084.652.375 1.305.749 1.96 1.123a.903.903 0 0 1 .147.108c.021.018.037.04.048.066.01.027.016.055.016.085a.093.093 0 0 1-.052.087l-.083.05-.801.477z" fill="#BBB"/><path d="M71.457 94.5l.82-.487c.025-.015.049-.03.075-.043a.2.2 0 0 1 .056-.02.697.697 0 0 1 .326.017.824.824 0 0 1 .192.08c.048.03.099.058.148.086l1.813 1.037c.057.034.11.072.16.115a.16.16 0 0 1 .058.082c.006.022.01.045.011.068a.099.099 0 0 1-.056.095l-.074.044-1.622.965-.074.044a.217.217 0 0 1-.093.028.776.776 0 0 1-.468-.095l-.034-.02c-.654-.373-1.308-.748-1.961-1.122a.638.638 0 0 1-.157-.115.186.186 0 0 1-.05-.176.09.09 0 0 1 .046-.055l.074-.044.81-.483zm-3.639-7.946l-.82.488c-.025.015-.049.03-.076.043a.206.206 0 0 1-.056.02.696.696 0 0 1-.326-.019.915.915 0 0 1-.192-.08c-.147-.086-.296-.17-.444-.255l-1.54-.882a.614.614 0 0 1-.146-.108.19.19 0 0 1-.053-.175.083.083 0 0 1 .044-.057l.064-.038 1.65-.982.064-.038a.233.233 0 0 1 .108-.03.792.792 0 0 1 .43.084l.046.026 1.962 1.123c.053.03.103.067.15.107.027.021.048.05.059.082.007.025.011.05.013.077a.094.094 0 0 1-.053.087l-.073.044-.811.483zm18.374 16.385l-.81.482-.075.044a.275.275 0 0 1-.135.032.784.784 0 0 1-.426-.099l-.034-.019-1.961-1.123a.614.614 0 0 1-.157-.116.184.184 0 0 1-.05-.175.095.095 0 0 1 .018-.033.107.107 0 0 1 .03-.023l.063-.038 1.64-.976c.025-.015.049-.03.075-.043a.19.19 0 0 1 .056-.021.694.694 0 0 1 .326.019.793.793 0 0 1 .192.08c.056.034.114.065.171.098l1.79 1.025c.057.033.11.071.16.114.028.021.048.05.057.082.006.023.01.045.012.068a.096.096 0 0 1-.014.056.098.098 0 0 1-.043.039l-.074.044-.81.483zm-1.918-4.024l-.81.483-.075.043a.212.212 0 0 1-.095.028.8.8 0 0 1-.479-.104c-.36-.208-.72-.415-1.082-.62l-.912-.523a.684.684 0 0 1-.104-.07.23.23 0 0 1-.094-.182.1.1 0 0 1 .056-.087l.064-.039 1.64-.976a.823.823 0 0 1 .075-.043.257.257 0 0 1 .07-.022.719.719 0 0 1 .3.019.932.932 0 0 1 .17.066c.02.01.038.021.057.032l1.938 1.11c.054.03.105.066.151.107.03.023.052.054.064.09.005.02.008.04.01.06a.1.1 0 0 1-.06.102l-.073.044-.81.482zM60.248 85.146l-.81.483c-.028.016-.057.032-.084.049a.206.206 0 0 1-.083.025.765.765 0 0 1-.468-.091l-.08-.046-1.88-1.077-.092-.053c-.124-.075-.171-.159-.159-.25a.096.096 0 0 1 .055-.07c.02-.01.037-.021.055-.032l1.659-.987c.021-.013.043-.026.066-.038a.158.158 0 0 1 .044-.016.703.703 0 0 1 .354.023c.065.022.128.05.188.084.653.375 1.306.75 1.96 1.123a.998.998 0 0 1 .148.108.142.142 0 0 1 .051.075.39.39 0 0 1 .013.076.094.094 0 0 1-.053.088l-.073.044-.81.482zm9.296 5.329l.81-.483.085-.049a.197.197 0 0 1 .056-.02.697.697 0 0 1 .327.02c.067.02.13.046.192.08a3060.284 3060.284 0 0 0 1.96 1.123.91.91 0 0 1 .152.107c.032.025.055.06.066.099a.491.491 0 0 1 .01.05.1.1 0 0 1-.06.103l-.063.039-1.631.97-.075.044a.213.213 0 0 1-.094.028.791.791 0 0 1-.48-.102 3150.323 3150.323 0 0 1-1.982-1.137.955.955 0 0 1-.107-.068.23.23 0 0 1-.104-.19.1.1 0 0 1 .054-.088l.073-.044.81-.482zm21.093 17.935l.81-.482a1.72 1.72 0 0 1 .085-.049.219.219 0 0 1 .056-.02.707.707 0 0 1 .327.019.97.97 0 0 1 .191.081c.15.088.304.174.456.262l1.505.861c.057.033.11.072.16.114a.155.155 0 0 1 .053.074.418.418 0 0 1 .014.077.098.098 0 0 1-.058.094l-.064.039-1.631.97-.075.044a.223.223 0 0 1-.094.028.768.768 0 0 1-.48-.103c-.195-.114-.394-.226-.591-.339l-1.403-.803a.608.608 0 0 1-.144-.109.187.187 0 0 1-.049-.176.085.085 0 0 1 .018-.032.08.08 0 0 1 .03-.023l.082-.05.802-.477zm-10.81-14.972l-.802.477c-.027.016-.054.033-.083.048a.188.188 0 0 1-.054.022.694.694 0 0 1-.354-.023 1.018 1.018 0 0 1-.189-.083c-.66-.38-1.32-.758-1.982-1.136a.668.668 0 0 1-.103-.07.223.223 0 0 1-.088-.184.092.092 0 0 1 .052-.08l.073-.044 1.63-.97c.025-.015.05-.03.075-.043a.195.195 0 0 1 .056-.021.7.7 0 0 1 .34.022c.067.019.13.047.19.083l.022.013 1.927 1.102a.9.9 0 0 1 .16.115c.022.017.039.04.05.065a.303.303 0 0 1 .019.101.091.091 0 0 1-.055.079l-.082.05-.802.477zm9.304 5.325l.82-.488c.025-.014.049-.03.075-.043a.199.199 0 0 1 .056-.02.698.698 0 0 1 .327.02.77.77 0 0 1 .18.074l.045.026 1.927 1.103c.057.033.11.071.16.114.027.02.047.05.056.083.006.022.01.045.012.067a.099.099 0 0 1-.058.095l-.065.039-1.63.97-.075.044a.257.257 0 0 1-.121.031.746.746 0 0 1-.327-.05c-.05-.02-.1-.043-.148-.069l-1.961-1.122a.91.91 0 0 1-.147-.109.17.17 0 0 1-.047-.066.264.264 0 0 1-.016-.084.093.093 0 0 1 .053-.088l.073-.044.811-.483z" fill="#EFEFEF"/><path d="M99.534 81.33c-.018-.477-.015-1.12-.018-1.626.333 4.508 6.628 8.565 14.671 9.277 8.527.753 15.784-2.548 16.215-7.373 0 0 .076 1.735.016 2.45-.43 4.825-7.687 8.126-16.215 7.374-8.528-.753-14.514-5.26-14.67-10.102z" fill="#29303A"/><path d="M115.736 71.507c8.527.752 15.092 5.27 14.669 10.101-.431 4.825-7.688 8.126-16.215 7.373-8.043-.712-14.338-4.769-14.671-9.277-.004-.47.001-.824.001-.824.43-4.825 7.688-8.126 16.216-7.373z" fill="#48515B"/><path d="M99.518 78.88s-.005.354-.002.824a4.475 4.475 0 0 1 .002-.824z" fill="#48515B"/><path d="M118.627 83.766l-8.666-5.246V58.926l8.666 4.786v20.054z" fill="#29303A"/><path d="M118.629 83.766l1.755-.14V64.682l-1.755-.97" fill="#1E2228"/><path d="M79.277 1.831C81.514.206 84.001-.623 86.671.551l67.264 37.733a7.45 7.45 0 0 1 4.062 6.636v39.227c0 4.708-2.777 7.314-5.381 7.824" fill="url(#paint3_linear)"/><path d="M81.219 1.812l69.115 38.678a7.45 7.45 0 0 1 4.062 6.636V90a1.974 1.974 0 0 1-1.949 1.978 1.98 1.98 0 0 1-.985-.247L80.834 51.123a5.15 5.15 0 0 1-2.66-4.508V3.676a2.094 2.094 0 0 1 3.045-1.864z" fill="url(#paint4_linear)"/><path d="M84.125 6.72l63.711 36.1a6.36 6.36 0 0 1 3.471 5.668v36.86a1.694 1.694 0 0 1-1.666 1.69 1.688 1.688 0 0 1-.841-.211l-65.004-37.49a4.4 4.4 0 0 1-2.273-3.851V8.312a1.788 1.788 0 0 1 2.602-1.592z" fill="url(#paint5_linear)"/><path opacity=".5" d="M93.368 16.287l-5.178-2.816a.12.12 0 0 0-.18.103l-.008.494a.361.361 0 0 0 .19.322l5.238 2.849a.098.098 0 0 0 .146-.083l.008-.503a.411.411 0 0 0-.216-.366z" fill="#FCFCFC"/><path opacity=".3" d="M105.729 25.433l-17.564-9.465a.12.12 0 0 0-.181.103l-.007.494a.362.362 0 0 0 .19.322l17.624 9.497a.097.097 0 0 0 .132-.035.092.092 0 0 0 .014-.048l.008-.503a.418.418 0 0 0-.216-.365zm29.249 14.519l-8.836-4.773a.487.487 0 0 0-.656.173.488.488 0 0 0-.068.238l-.029 1.27a1.447 1.447 0 0 0 .759 1.285l9.079 4.905a.391.391 0 0 0 .585-.332l.03-1.302a1.642 1.642 0 0 0-.864-1.464z" fill="#FCFCFC"/><g opacity=".1"><path opacity=".4" d="M139.978 50.363l-14.349-7.804a.337.337 0 0 0-.454.12.331.331 0 0 0-.047.165l-.021 1.37a1.008 1.008 0 0 0 .526.89l14.518 7.897a.272.272 0 0 0 .268 0 .272.272 0 0 0 .136-.23l.021-1.394a1.143 1.143 0 0 0-.598-1.014z" fill="#E5E5E5"/></g><path d="M135.44 53.261l-9.893-5.327a.337.337 0 0 0-.454.12.331.331 0 0 0-.047.165l-.01.166a1.006 1.006 0 0 0 .525.89l10.062 5.42a.272.272 0 0 0 .367-.098.261.261 0 0 0 .037-.133l.011-.189a1.143 1.143 0 0 0-.598-1.014zm8.698 10.009l-18.592-9.86a.337.337 0 0 0-.454.12.331.331 0 0 0-.047.165l-.01.166c-.001.182.04.733.132.89.093.157.226.285.386.372l18.761 9.953a.272.272 0 0 0 .367-.097c.024-.04.044-.459.045-.506l.01-.189a1.143 1.143 0 0 0-.598-1.013z" fill="#EC5649"/><path opacity=".5" d="M130.392 61.344l-5.006-2.66a.332.332 0 0 0-.453.12.331.331 0 0 0-.047.165l-.021 1.37a1.002 1.002 0 0 0 .526.89l5.173 2.752a.27.27 0 0 0 .405-.23l.02-1.393a1.133 1.133 0 0 0-.597-1.014z" fill="#FCFCFC"/><g opacity=".1"><path opacity=".8" d="M139.654 71.863l-14.35-7.804a.332.332 0 0 0-.453.12.331.331 0 0 0-.047.165l-.021.66a1 1 0 0 0 .526.89l14.518 7.896a.265.265 0 0 0 .267 0 .27.27 0 0 0 .137-.23l.021-.683a1.143 1.143 0 0 0-.598-1.014z" fill="#FCFCFC"/></g><path opacity=".3" d="M93.269 24.424l-5.179-2.816a.12.12 0 0 0-.18.103l-.008.494a.362.362 0 0 0 .19.322l5.239 2.849a.098.098 0 0 0 .146-.083l.007-.503a.411.411 0 0 0-.215-.366z" fill="#FCFCFC"/><path opacity=".7" d="M97.278 28.4l-7.713-4.221a.086.086 0 0 0-.116.03.086.086 0 0 0-.012.043l-.005.35a.255.255 0 0 0 .134.228l7.757 4.245a.068.068 0 0 0 .068 0 .07.07 0 0 0 .035-.059l.005-.356a.291.291 0 0 0-.153-.26z" fill="#FCFCFC"/><path opacity=".6" d="M97.357 23.316l-7.714-4.221a.085.085 0 0 0-.085 0 .085.085 0 0 0-.043.072l-.005.35a.256.256 0 0 0 .134.229l7.757 4.245a.07.07 0 0 0 .068 0 .068.068 0 0 0 .035-.06l.005-.356a.292.292 0 0 0-.152-.259z" fill="#FCFCFC"/><path opacity=".1" d="M99.798 26.284l-7.714-4.221a.085.085 0 0 0-.084 0 .085.085 0 0 0-.044.072l-.005.35a.256.256 0 0 0 .135.229l7.756 4.245a.069.069 0 0 0 .104-.06l.005-.355a.292.292 0 0 0-.153-.26z" fill="#FCFCFC"/><g opacity=".2"><path opacity=".5" d="M106.95 35.341l-15.135-8.307a.086.086 0 0 0-.085 0 .085.085 0 0 0-.043.073l-.005.35a.256.256 0 0 0 .134.228l15.178 8.33c.01.007.022.01.034.01a.067.067 0 0 0 .034-.01.063.063 0 0 0 .025-.024.06.06 0 0 0 .01-.034l.005-.357a.286.286 0 0 0-.152-.259z" fill="#FCFCFC"/></g><path opacity=".4" d="M93.188 29.695L88.01 26.88a.12.12 0 0 0-.18.103l-.008.495a.362.362 0 0 0 .19.321l5.239 2.85a.098.098 0 0 0 .146-.084l.007-.503a.412.412 0 0 0-.216-.366z" fill="#FCFCFC"/><path d="M96.586 40.487l-8.709-4.769a.121.121 0 0 0-.163.044.12.12 0 0 0-.017.06l-.008.494a.361.361 0 0 0 .19.321l8.77 4.802a.098.098 0 0 0 .145-.084l.008-.502a.411.411 0 0 0-.216-.366z" fill="#FCFCFC" opacity=".1"/><path opacity=".7" d="M92.913 47.987l-5.178-2.816a.12.12 0 0 0-.18.103l-.008.494a.362.362 0 0 0 .19.322l5.238 2.849a.098.098 0 0 0 .146-.083l.008-.503a.412.412 0 0 0-.216-.366z" fill="#FCFCFC"/><g opacity=".5"><path opacity=".2" d="M90.708 49.363L87.7 47.72a.12.12 0 0 0-.18.103l-.008.494a.362.362 0 0 0 .19.322l3.069 1.675a.097.097 0 0 0 .132-.035.096.096 0 0 0 .013-.048l.008-.503a.411.411 0 0 0-.216-.365z" fill="#FCFCFC"/></g><g opacity=".2"><path opacity=".4" d="M95.118 41.45l-5.762-3.16a.086.086 0 0 0-.116.03.086.086 0 0 0-.012.042l-.005.35a.255.255 0 0 0 .134.228l5.805 3.185a.07.07 0 0 0 .094-.025.07.07 0 0 0 .01-.034l.005-.356a.29.29 0 0 0-.153-.26z" fill="#FCFCFC"/></g><path opacity=".3" d="M97.189 34.593l-7.714-4.221a.086.086 0 0 0-.116.03.085.085 0 0 0-.012.043l-.005.35a.257.257 0 0 0 .134.228l7.757 4.245a.069.069 0 0 0 .103-.059l.005-.356a.291.291 0 0 0-.152-.26z" fill="#FCFCFC"/><path d="M99.628 37.561l-7.713-4.221a.085.085 0 0 0-.085 0 .085.085 0 0 0-.043.072l-.006.351a.255.255 0 0 0 .135.228l7.756 4.245a.07.07 0 0 0 .094-.025.07.07 0 0 0 .01-.034l.005-.356a.292.292 0 0 0-.153-.26z" fill="#FCFCFC" opacity=".2"/><path opacity=".4" d="M102.095 40.595l-7.714-4.222a.085.085 0 0 0-.116.03.086.086 0 0 0-.012.043l-.005.35a.255.255 0 0 0 .134.228l7.757 4.245c.01.006.022.01.034.01a.074.074 0 0 0 .035-.01.067.067 0 0 0 .034-.059l.006-.356a.297.297 0 0 0-.153-.26z" fill="#FCFCFC"/><path opacity=".05" d="M99.316 45.367l-7.714-4.222a.086.086 0 0 0-.085 0 .085.085 0 0 0-.043.073l-.005.35a.256.256 0 0 0 .134.228l7.757 4.245a.07.07 0 0 0 .094-.025.07.07 0 0 0 .01-.034l.005-.356a.292.292 0 0 0-.153-.26z" fill="#FCFCFC"/><g opacity=".2"><path opacity=".7" d="M97.01 46.184l-7.713-4.221a.085.085 0 0 0-.116.03.086.086 0 0 0-.012.042l-.005.351a.255.255 0 0 0 .134.228l7.757 4.245a.069.069 0 0 0 .094-.025.07.07 0 0 0 .01-.034l.005-.356a.292.292 0 0 0-.153-.26z" fill="#FCFCFC"/></g><path opacity=".6" d="M99.257 49.04l-7.714-4.222a.086.086 0 0 0-.116.03.086.086 0 0 0-.012.043l-.005.35a.255.255 0 0 0 .135.228l7.756 4.245a.068.068 0 0 0 .069 0 .068.068 0 0 0 .035-.059l.005-.356a.292.292 0 0 0-.153-.26z" fill="#FCFCFC"/><path opacity=".4" d="M108.454 54.269l-7.713-4.222a.087.087 0 0 0-.043-.011.084.084 0 0 0-.042.01.08.08 0 0 0-.031.032.08.08 0 0 0-.012.042l-.006.35a.258.258 0 0 0 .135.228l7.756 4.245c.011.006.023.01.035.01a.07.07 0 0 0 .034-.01.07.07 0 0 0 .035-.059l.005-.356a.286.286 0 0 0-.153-.26z" fill="#FCFCFC"/><path opacity=".1" d="M120.837 64.767l-.706-.344.483-32.176.705.354-.482 32.166z" fill="#FCFCFC"/><defs><linearGradient id="paint0_linear" x1="62.238" y1="52.064" x2="50.153" y2="58.106" gradientUnits="userSpaceOnUse"><stop stop-color="#757575"/><stop offset="1" stop-color="silver"/></linearGradient><linearGradient id="paint1_linear" x1="50.155" y1="57.2" x2="9.972" y2="79.557" gradientUnits="userSpaceOnUse"><stop stop-color="#989898"/><stop offset=".786" stop-color="#AFAFAF"/><stop offset="1" stop-color="#CDCDCD"/></linearGradient><linearGradient id="paint2_linear" x1="59.52" y1="44.209" x2="6.95" y2="74.12" gradientUnits="userSpaceOnUse"><stop offset="0" stop-color="#C7C7C7"/><stop offset="1" stop-color="#E0E0E0"/></linearGradient><linearGradient id="paint3_linear" x1="118.18" y1="16.385" x2="118.18" y2="85.592" gradientUnits="userSpaceOnUse"><stop stop-color="#48515B"/><stop offset="1" stop-color="#29303A"/></linearGradient><linearGradient id="paint4_linear" x1="116.284" y1="21.126" x2="116.284" y2="69.002" gradientUnits="userSpaceOnUse"><stop stop-color="#22262C"/><stop offset="1" stop-color="#1B2026"/></linearGradient><linearGradient id="paint5_linear" x1="75.517" y1="50.989" x2="88.315" y2="14.015" gradientUnits="userSpaceOnUse"><stop stop-color="#263340"/><stop offset="1" stop-color="#2F455B"/></linearGradient></defs></svg>