<svg width="188" height="125" fill="none" xmlns="http://www.w3.org/2000/svg"><path d="M103.454 1.273c-.299-1.79-2.02-1.536-4.121-.207L37.747 36.434a3.488 3.488 0 0 0-1.698 3.6l8.03 47.472a1.35 1.35 0 0 0 1.297 1.125l1.479.044 56.599-87.402z" fill="url(#paint0_linear)"/><path d="M152 73.168v2.88a.805.805 0 0 1-.384.686L87.715 114.4a4.378 4.378 0 0 1-4.385.024L46.11 93.053a.392.392 0 0 1-.21-.349V89.51a.237.237 0 0 0 .117.186l37.313 21.51a4.328 4.328 0 0 0 4.385-.023l64.111-37.701a.346.346 0 0 0 .174-.314z" fill="url(#paint1_linear)"/><path d="M151.826 72.878a.325.325 0 0 1 .174.29.346.346 0 0 1-.174.314l-64.111 37.701a4.327 4.327 0 0 1-4.385.023l-37.313-21.51a.237.237 0 0 1-.117-.186v-.023a.215.215 0 0 1 .117-.198l.337-.197 63.879-37.574a4.505 4.505 0 0 1 4.513-.023l37.08 21.383zm-22.925-4.797a.352.352 0 0 0 0-.616l-17.459-10.128a1.779 1.779 0 0 0-1.814-.011L58.183 86.804a.775.775 0 0 0 0 1.347l17.563 10.024a2.291 2.291 0 0 0 2.315-.024l50.84-30.07z" fill="#E9E9E9"/><path d="M128.901 67.465a.345.345 0 0 1 .183.308.352.352 0 0 1-.183.308l-50.84 30.07a2.292 2.292 0 0 1-2.314.024L58.184 88.15a.776.776 0 0 1 0-1.347l51.444-29.478a1.784 1.784 0 0 1 1.815.011l17.458 10.128z" fill="url(#paint2_linear)"/><path d="M46.178 88.091l-8.045-47.563a3.482 3.482 0 0 1 1.698-3.6L102.516.838a.631.631 0 0 1 .937.435l8.603 47.746a1.905 1.905 0 0 1-.91 1.982l-63.92 37.578a.633.633 0 0 1-.372.096.725.725 0 0 1-.676-.584z" fill="#D5D5D5"/><path d="M48.224 85.991a.964.964 0 0 1-1.437-.67l-7.458-44.094a3.26 3.26 0 0 1 1.59-3.371l60.977-34.872a.597.597 0 0 1 .545-.024.592.592 0 0 1 .333.431l8.054 44.7a1.788 1.788 0 0 1-.852 1.855L48.224 85.99z" fill="url(#paint3_linear)"/><path d="M96.5 90.622l8.753 5.115a1.37 1.37 0 0 0 1.378-.01l14.769-8.759a.212.212 0 0 0 .077-.079.221.221 0 0 0 0-.214.214.214 0 0 0-.079-.078l-9.416-5.381a1.082 1.082 0 0 0-1.085-.003l-14.398 8.605a.463.463 0 0 0 0 .804z" fill="url(#paint4_linear)"/><path d="M121.398 86.597l-9.416-5.381a1.088 1.088 0 0 0-1.086-.003l-14.398 8.605" stroke="#747474" stroke-width=".25"/><path d="M67.381 88.456c0 .012.086.044-.07.125l-2.244 1.312a.588.588 0 0 1-.512.047l-2.059-1.185c0-.012.023-.058.105-.105l2.256-1.312a.602.602 0 0 1 .5-.046l2.024 1.164zm39.803-9.643l-15.12 8.955a.518.518 0 0 1-.466.046l-2-1.161c-.117-.058-.082-.186.058-.267l15.143-8.944a.536.536 0 0 1 .454-.035l1.989 1.139c.105.07.081.186-.058.267zm10.339-12.66l-2.64 1.533a.48.48 0 0 1-.454-.012l-2.663-1.544a.215.215 0 0 0-.082-.024c-.034.012-.069.012-.093.024l-1.046.615a.591.591 0 0 1-.535.035l-1.827-1.057c-.139-.081-.116-.22.047-.314l3.978-2.322a.65.65 0 0 1 .547-.035l4.815 2.787c.128.082.105.22-.047.314zM64.171 87.07l-2.07 1.209a.543.543 0 0 1-.477.035l-1.43-.813c-.105-.07-.082-.186.069-.28l2.082-1.196a.545.545 0 0 1 .477-.046l1.419.813c.116.07.081.186-.07.279zm3.083-1.788l-2.058 1.197a.547.547 0 0 1-.477.046l-1.42-.825c-.116-.058-.08-.185.07-.267l2.07-1.196a.544.544 0 0 1 .478-.046l1.407.813c.116.07.082.185-.07.278zm9.176-5.319l-2.047 1.184a.557.557 0 0 1-.465.035l-1.407-.813c-.117-.058-.082-.186.07-.267l2.035-1.185a.54.54 0 0 1 .477-.035l1.395.802c.117.07.082.186-.058.279zm19.738-8.119l-2.163 1.254a.49.49 0 0 1-.454.035l-1.989-1.138c-.116-.07-.081-.186.058-.267l2.164-1.255a.491.491 0 0 1 .453-.034l1.99 1.138c.104.07.08.186-.059.267zm3.129-1.824l-2.14 1.243a.523.523 0 0 1-.465.047l-1.977-1.15c-.117-.058-.082-.186.058-.267l2.151-1.243a.492.492 0 0 1 .454-.035l1.977 1.138c.117.058.082.186-.058.267zM80.013 91.473l-2.222 1.312a.52.52 0 0 1-.465.047l-2.024-1.162c-.116-.07-.081-.186.059-.278l2.233-1.313a.515.515 0 0 1 .465-.035l2.024 1.162c.105.058.081.186-.07.267zm1.406 2.601l-4.537 2.695a.538.538 0 0 1-.476.035l-2.024-1.162c-.117-.058-.082-.185.07-.278l4.547-2.683a.514.514 0 0 1 .466-.035l2.023 1.161c.117.058.082.186-.07.267zm6.446-3.809l-2.198 1.3a.516.516 0 0 1-.466.036l-2.023-1.15c-.105-.07-.082-.186.07-.279l2.198-1.3a.54.54 0 0 1 .477-.036l2 1.15c.116.07.093.186-.058.279zm-17.541-6.771l-2.06 1.196a.52.52 0 0 1-.464.046l-1.42-.813c-.104-.07-.08-.186.07-.278l2.06-1.197a.54.54 0 0 1 .476-.035l1.407.814c.117.058.082.185-.07.267zm3.059-1.766l-2.047 1.185a.545.545 0 0 1-.477.046l-1.407-.813c-.116-.07-.081-.186.07-.279l2.047-1.184a.54.54 0 0 1 .477-.035l1.407.801c.105.07.081.186-.07.279zm6.072-3.531l-2.024 1.185a.583.583 0 0 1-.477.035l-1.396-.813c-.116-.058-.081-.186.058-.267l2.036-1.173a.523.523 0 0 1 .465-.047l1.407.813c.105.058.082.186-.07.267zm3.023-1.753l-2.024 1.173a.523.523 0 0 1-.465.046l-1.407-.813c-.105-.058-.082-.186.07-.267l2.023-1.173a.516.516 0 0 1 .466-.035l1.395.801c.117.07.082.186-.058.267zm3.002-1.743l-2.013 1.173a.552.552 0 0 1-.465.035l-1.396-.801c-.116-.07-.081-.186.07-.267l2.012-1.173a.514.514 0 0 1 .466-.035l1.395.801c.105.058.082.186-.07.267zm3-1.731l-2.012 1.162a.552.552 0 0 1-.465.035l-1.396-.801c-.105-.07-.081-.186.07-.267l2.012-1.162a.497.497 0 0 1 .454-.046l1.395.801c.117.07.082.186-.058.279zm2.977-1.73l-2 1.162a.555.555 0 0 1-.466.034l-1.395-.801c-.105-.07-.082-.186.07-.267l2-1.162a.555.555 0 0 1 .465-.034l1.384.801c.105.058.082.186-.058.267zm2.967-1.719l-1.989 1.15a.514.514 0 0 1-.465.035l-1.384-.802c-.117-.058-.082-.185.058-.267l1.989-1.15a.516.516 0 0 1 .465-.034l1.384.8c.105.059.082.175-.058.268zm2.954-1.719l-1.989 1.15a.53.53 0 0 1-.453.035l-1.385-.801c-.104-.059-.081-.175.058-.268l1.99-1.138a.497.497 0 0 1 .453-.046l1.384.801c.105.07.082.186-.058.267zm2.943-1.707l-1.977 1.138a.497.497 0 0 1-.453.046l-1.385-.8c-.104-.07-.08-.187.059-.268l1.977-1.138a.493.493 0 0 1 .454-.035l1.384.79c.104.07.081.185-.059.267zm2.93-1.707l-1.965 1.15a.534.534 0 0 1-.454.034l-1.384-.801c-.105-.058-.081-.174.058-.267l1.966-1.139a.528.528 0 0 1 .453-.034l1.384.801c.105.058.082.174-.058.255zm2.909-1.685l-1.954 1.127a.495.495 0 0 1-.454.035l-1.372-.79c-.105-.058-.082-.174.058-.267l1.965-1.127a.533.533 0 0 1 .454-.035l1.361.79c.116.07.093.186-.058.267zm2.907-1.683l-1.954 1.126a.502.502 0 0 1-.442.035l-1.372-.79c-.117-.07-.082-.186.058-.267l1.942-1.127a.525.525 0 0 1 .454-.035l1.372.79c.105.07.082.186-.058.267zm2.895-1.685l-1.942 1.127a.526.526 0 0 1-.454.034l-1.372-.79c-.105-.057-.081-.185.058-.266l1.943-1.115a.49.49 0 0 1 .453-.035l1.373.79c.104.058.081.174-.059.255zM70.568 86.757l-2.234 1.301a.511.511 0 0 1-.477.047l-2.035-1.162c-.105-.07-.081-.186.07-.279l2.245-1.3a.54.54 0 0 1 .477-.035l2.023 1.161c.105.058.082.186-.07.267zm3.246-1.893l-2.222 1.301a.541.541 0 0 1-.477.035l-2.023-1.162c-.105-.058-.082-.185.07-.267l2.233-1.3a.54.54 0 0 1 .476-.035l2.013 1.161c.116.058.081.186-.07.267zm3.244-1.881l-2.222 1.289a.517.517 0 0 1-.465.034l-2.024-1.15c-.104-.069-.081-.185.07-.278l2.222-1.29a.517.517 0 0 1 .465-.034l2.012 1.15c.117.07.082.186-.058.279zm3.222-1.882l-2.21 1.29a.517.517 0 0 1-.464.034l-2.012-1.15c-.117-.07-.082-.186.058-.279l2.21-1.277a.522.522 0 0 1 .465-.047l2.012 1.162c.116.058.081.186-.058.267zm3.198-1.87L81.28 80.51a.52.52 0 0 1-.465.046l-2-1.161c-.117-.058-.082-.186.057-.268l2.199-1.277a.54.54 0 0 1 .477-.035l2 1.15c.105.07.081.186-.07.267zm3.2-1.858L84.49 78.65a.517.517 0 0 1-.465.035l-2-1.15c-.117-.07-.082-.185.057-.267l2.187-1.277a.517.517 0 0 1 .465-.035l2 1.15c.117.058.082.185-.057.267zm3.174-1.847l-2.175 1.266a.516.516 0 0 1-.466.035l-2-1.15c-.105-.058-.082-.186.07-.267l2.174-1.266a.516.516 0 0 1 .466-.035l1.989 1.15c.116.058.081.174-.058.267zm3.164-1.847l-2.164 1.266a.556.556 0 0 1-.465.035l-1.989-1.15c-.116-.058-.081-.186.058-.267l2.175-1.255a.498.498 0 0 1 .454-.046l1.989 1.15c.116.058.081.186-.058.267zm9.397-5.482l-2.129 1.243a.518.518 0 0 1-.465.046l-1.977-1.15c-.105-.058-.082-.174.07-.267l2.14-1.243a.524.524 0 0 1 .453-.034l1.966 1.138c.116.07.093.186-.058.267zm3.107-1.812l-2.117 1.243a.51.51 0 0 1-.465.035l-1.966-1.139c-.116-.058-.081-.174.059-.267l2.128-1.23a.493.493 0 0 1 .454-.036l1.965 1.138c.117.058.093.175-.058.256zm6.224-3.624l-5.246 3.055a.487.487 0 0 1-.454.035l-1.965-1.127c-.105-.07-.082-.186.058-.267l5.257-3.054a.506.506 0 0 1 .442-.035l1.966 1.138c.105.058.081.174-.058.255zm3.057-1.777l-2.094 1.22a.524.524 0 0 1-.454.035l-1.954-1.139c-.104-.058-.081-.174.059-.255l2.105-1.22a.503.503 0 0 1 .442-.035l1.954 1.127c.116.07.081.186-.058.267zM74.534 87.85l-2.222 1.312a.538.538 0 0 1-.477.034l-2.024-1.161c-.116-.07-.081-.186.07-.279l2.233-1.3a.518.518 0 0 1 .466-.035l2.023 1.161c.117.058.082.186-.07.267zm3.246-1.894l-2.222 1.3a.516.516 0 0 1-.465.035L73.07 86.13c-.116-.058-.081-.186.07-.267l2.222-1.301a.515.515 0 0 1 .465-.035l2.024 1.162c.104.058.081.186-.07.267zm3.221-1.882l-2.21 1.29a.515.515 0 0 1-.465.034l-2.012-1.15c-.116-.07-.081-.185.058-.278l2.21-1.29a.539.539 0 0 1 .477-.034l2.012 1.15c.105.07.082.185-.07.278zm3.211-1.881l-2.199 1.289a.517.517 0 0 1-.465.035l-2.012-1.15c-.116-.07-.081-.186.07-.279l2.198-1.278a.523.523 0 0 1 .465-.046l2.013 1.161c.104.059.08.186-.07.268zm3.198-1.87L85.223 81.6a.523.523 0 0 1-.465.046l-2.012-1.162c-.105-.058-.081-.185.07-.267l2.186-1.277a.517.517 0 0 1 .466-.035l2 1.15c.116.058.082.186-.058.267zm3.176-1.858l-2.175 1.277a.556.556 0 0 1-.465.035l-2.001-1.15c-.116-.07-.081-.186.058-.267l2.187-1.278a.515.515 0 0 1 .465-.034l1.989 1.15c.116.057.093.185-.058.267zm3.164-1.859l-2.163 1.278a.554.554 0 0 1-.466.035l-1.989-1.15c-.116-.058-.08-.186.059-.267l2.175-1.266a.49.49 0 0 1 .453-.035l2 1.138c.106.07.082.186-.069.267zm3.153-1.836l-2.152 1.255a.522.522 0 0 1-.466.047l-1.988-1.15c-.117-.07-.082-.186.058-.267l2.163-1.266a.556.556 0 0 1 .465-.035l1.978 1.15c.116.058.093.174-.058.267zm3.139-1.834L97.89 74.19a.528.528 0 0 1-.453.035l-1.99-1.138c-.104-.07-.08-.186.059-.267l2.152-1.266a.557.557 0 0 1 .465-.035l1.977 1.15c.117.058.082.174-.058.267zm3.118-1.836l-2.129 1.255a.516.516 0 0 1-.465.035l-1.978-1.138c-.104-.07-.08-.186.059-.267l2.14-1.255a.55.55 0 0 1 .465-.035l1.977 1.139c.105.07.082.185-.069.267zm3.116-1.811l-2.129 1.242a.527.527 0 0 1-.453.035l-1.977-1.138c-.117-.07-.082-.186.058-.267l2.128-1.243a.493.493 0 0 1 .454-.035l1.977 1.139c.105.058.081.174-.058.267zm3.095-1.812l-2.117 1.231a.505.505 0 0 1-.454.047l-1.977-1.139c-.105-.07-.082-.185.058-.267l2.129-1.243a.524.524 0 0 1 .453-.034l1.966 1.138c.104.058.081.186-.058.267zM79.013 88.65l-2.222 1.301a.516.516 0 0 1-.465.035l-2.024-1.161c-.116-.058-.081-.186.059-.267l2.233-1.301a.519.519 0 0 1 .465-.047l2.012 1.162c.117.07.093.186-.058.278zm3.223-1.893l-2.21 1.29a.522.522 0 0 1-.465.046l-2.024-1.162c-.105-.07-.082-.185.07-.278l2.21-1.29a.587.587 0 0 1 .477-.046l2.012 1.161c.104.07.081.186-.07.28zm3.209-1.893l-2.198 1.29a.523.523 0 0 1-.466.046l-2.012-1.162c-.116-.058-.081-.185.058-.267l2.21-1.289a.52.52 0 0 1 .466-.046l2.012 1.161c.104.058.081.186-.07.267zm3.197-1.87l-2.186 1.278a.523.523 0 0 1-.466.046l-2.012-1.161c-.104-.058-.081-.186.07-.267l2.187-1.29a.555.555 0 0 1 .465-.034l2 1.15c.117.07.082.185-.058.278zm3.176-1.87l-2.175 1.278a.515.515 0 0 1-.465.035l-2-1.15c-.117-.058-.082-.186.058-.267l2.186-1.278a.517.517 0 0 1 .466-.046l2 1.15c.105.07.081.185-.07.278zm3.165-1.87l-2.164 1.278a.556.556 0 0 1-.465.046l-1.99-1.15c-.115-.07-.08-.185.06-.278l2.174-1.266a.491.491 0 0 1 .454-.035l2 1.138c.105.07.082.186-.07.267zm3.153-1.847l-2.152 1.267a.521.521 0 0 1-.465.046l-1.99-1.15c-.104-.07-.08-.186.059-.267l2.163-1.266a.521.521 0 0 1 .466-.047l1.989 1.15c.104.058.081.186-.07.267zm3.139-1.847l-2.152 1.267a.492.492 0 0 1-.454.035l-1.989-1.139c-.104-.07-.081-.186.058-.267l2.152-1.266a.515.515 0 0 1 .466-.035l1.977 1.139c.116.07.081.185-.058.267zm3.127-1.834l-2.14 1.266a.534.534 0 0 1-.454.034l-1.989-1.15c-.105-.058-.082-.174.058-.267l2.152-1.254a.524.524 0 0 1 .454-.035l1.977 1.138c.105.07.081.186-.058.268zm3.106-1.824l-2.128 1.254a.531.531 0 0 1-.454.035l-1.977-1.138c-.116-.07-.081-.186.058-.267l2.129-1.255a.527.527 0 0 1 .453-.034l1.978 1.138c.104.07.081.186-.059.267zm3.095-1.823l-2.117 1.254a.527.527 0 0 1-.453.035l-1.978-1.138c-.104-.07-.081-.186.058-.267l2.129-1.243a.49.49 0 0 1 .454-.035l1.965 1.138c.116.058.082.174-.058.256z" fill="#FCFCFC"/><path d="M113.686 68.278l-2.105 1.231a.493.493 0 0 1-.454.035l-1.966-1.126c-.116-.07-.093-.186.059-.267l2.105-1.243a.527.527 0 0 1 .453-.035l1.966 1.138c.105.058.082.174-.058.267zM83.268 89.557l-2.21 1.3a.51.51 0 0 1-.477.047l-2.012-1.161c-.116-.059-.081-.186.07-.268l2.21-1.312a.516.516 0 0 1 .465-.035l2.012 1.162c.117.057.082.185-.058.267zm3.236-1.906l-2.199 1.301a.517.517 0 0 1-.465.035l-2.012-1.161c-.117-.058-.082-.186.058-.267l2.21-1.301a.515.515 0 0 1 .465-.035l2.012 1.15c.105.07.082.186-.07.278zm3.232-1.904l-2.199 1.289a.518.518 0 0 1-.465.046l-2-1.161c-.117-.058-.093-.186.058-.267l2.198-1.29a.517.517 0 0 1 .465-.046l2 1.162c.105.058.082.185-.057.267zm3.198-1.893l-2.175 1.289a.516.516 0 0 1-.466.035l-2-1.15c-.117-.07-.082-.186.058-.279l2.186-1.278a.513.513 0 0 1 .466-.034l2 1.15c.105.058.082.185-.07.267zm3.2-1.882L93.97 83.25a.515.515 0 0 1-.465.035l-2-1.15c-.105-.058-.082-.186.058-.267l2.175-1.278a.52.52 0 0 1 .465-.047l1.989 1.15c.116.07.093.186-.058.28zm3.176-1.882l-2.151 1.278a.516.516 0 0 1-.465.035l-1.99-1.15c-.115-.058-.08-.186.059-.267l2.163-1.266a.518.518 0 0 1 .466-.047l1.989 1.15c.104.058.08.186-.07.267zm3.162-1.87l-2.14 1.278a.56.56 0 0 1-.465.035l-1.99-1.15c-.104-.058-.08-.186.059-.267l2.151-1.266a.521.521 0 0 1 .466-.035l1.989 1.138c.104.07.081.186-.07.267zm3.153-1.858l-2.128 1.266a.515.515 0 0 1-.465.035l-1.978-1.138c-.116-.07-.081-.186.059-.267l2.14-1.266a.527.527 0 0 1 .453-.035l1.989 1.138c.105.07.082.186-.07.267zm3.141-1.847l-2.129 1.255a.488.488 0 0 1-.453.035l-1.978-1.139c-.116-.058-.093-.185.059-.267l2.128-1.254a.525.525 0 0 1 .454-.035l1.977 1.138c.105.07.081.186-.058.267zm3.129-1.846l-2.129 1.254a.487.487 0 0 1-.453.035l-1.966-1.138c-.116-.058-.093-.186.058-.267l2.117-1.243a.493.493 0 0 1 .454-.035l1.977 1.127c.105.07.081.185-.058.267zM84.653 92.17l-2.21 1.3a.51.51 0 0 1-.476.047l-2.013-1.161c-.116-.058-.093-.186.059-.28l2.21-1.3a.546.546 0 0 1 .476-.046l2.013 1.161c.116.07.081.186-.059.279zm-7.91 1.242l-2.815 1.661a.541.541 0 0 1-.477.035l-2.024-1.161c-.116-.07-.08-.186.059-.279l2.826-1.66a.54.54 0 0 1 .477-.036l2.024 1.162c.104.058.081.186-.07.278zm-1.209-2.717l-4.559 2.671a.51.51 0 0 1-.477.046l-2.035-1.16c-.105-.07-.082-.198.07-.28l4.57-2.671a.49.49 0 0 1 .466-.047l2.024 1.162c.116.07.081.186-.059.279zm-4.152-.999L68.01 91.67a.523.523 0 0 1-.465.047l-2.035-1.173c-.117-.058-.082-.186.07-.267l3.373-1.975a.54.54 0 0 1 .476-.035l2.024 1.162c.105.058.082.186-.07.267zm46.27-27.074l-2.093 1.231a.51.51 0 0 1-.442.035l-1.966-1.138c-.105-.058-.081-.175.058-.256l2.094-1.22a.49.49 0 0 1 .453-.034l1.954 1.127c.105.058.082.174-.058.255zm2.848 1.649l-2.094 1.231a.5.5 0 0 1-.442.035l-1.965-1.138c-.105-.058-.082-.174.058-.256l2.093-1.23a.535.535 0 0 1 .454-.036l1.954 1.127c.105.07.081.186-.058.267zm2.84 1.639l-2.082 1.23a.471.471 0 0 1-.442.035l-1.966-1.127c-.104-.058-.081-.174.058-.255l2.094-1.231a.466.466 0 0 1 .442-.035l1.954 1.126c.105.059.081.175-.058.256zm2.847 1.648l-2.081 1.231a.51.51 0 0 1-.442.035l-1.966-1.127c-.105-.07-.082-.185.058-.267l2.082-1.23a.527.527 0 0 1 .454-.036l1.954 1.127c.104.07.081.186-.059.267zm-5.919.174l-2.094 1.232a.524.524 0 0 1-.454.034l-1.954-1.138c-.104-.058-.081-.174.058-.255l2.094-1.231a.487.487 0 0 1 .454-.035l1.954 1.126c.104.058.081.174-.058.267zm2.874 1.627L121.06 70.6a.525.525 0 0 1-.453.035l-1.954-1.138c-.117-.058-.093-.174.046-.256L120.793 68a.527.527 0 0 1 .453-.035l1.954 1.126c.105.07.082.186-.058.268zm-3.05 1.811l-2.105 1.243a.502.502 0 0 1-.442.035l-1.966-1.138c-.116-.058-.093-.174.059-.256l2.093-1.243a.493.493 0 0 1 .454-.034l1.965 1.126c.105.07.082.186-.058.267zm-2.906-1.626l-4.303 2.544a.529.529 0 0 1-.454.035l-1.966-1.139c-.104-.058-.081-.185.059-.267l4.315-2.532a.467.467 0 0 1 .442-.035l1.965 1.127c.105.07.082.186-.058.267zm-3.791 5.598l-2.129 1.255a.526.526 0 0 1-.453.035l-1.966-1.139c-.116-.07-.093-.185.058-.267l2.117-1.254a.492.492 0 0 1 .454-.035l1.977 1.138c.105.058.081.175-.058.267zm-3.107 1.836l-2.129 1.254a.495.495 0 0 1-.453.046l-1.978-1.15c-.116-.057-.081-.174.058-.266l2.129-1.255a.488.488 0 0 1 .453-.035l1.978 1.139c.116.058.081.185-.058.267zm6.735-3.996l-2.664 1.58a.465.465 0 0 1-.442.035l-1.977-1.138c-.105-.058-.081-.175.058-.267l2.664-1.568a.49.49 0 0 1 .453-.035l1.966 1.126c.116.07.081.186-.058.267zM91.062 88.36l-2.186 1.3a.523.523 0 0 1-.466.047l-2.012-1.161c-.116-.058-.081-.186.058-.267l2.199-1.301a.517.517 0 0 1 .465-.035l2.012 1.15c.105.07.081.186-.07.267z" fill="#FCFCFC"/><path d="M59.162 117.763a6.7 6.7 0 0 0-1 2.2h-.01l-54.73-31.87c.02-.12.05-.24.07-.35a5.377 5.377 0 0 1 .98-1.99l54.69 32.01z" fill="#464E5A"/><path d="M3.422 88.093l54.73 31.87h.01a4.062 4.062 0 0 0-.01 2.32s-45.46-26.24-54.65-31.96a5.489 5.489 0 0 1-.08-2.23z" fill="#20242B"/><path d="M59.162 117.763a5.37 5.37 0 0 1 1.74-1.65 3.583 3.583 0 0 1 1.56-.5l3.47 4.8a2.735 2.735 0 0 0-2.02 2.89l-5.76-1.02a4.064 4.064 0 0 1 .01-2.32 6.702 6.702 0 0 1 1-2.2z" fill="#D6D6D6"/><path d="M65.932 120.413l2.7 3.73-4.72-.84a2.73 2.73 0 0 1 2.02-2.89z" fill="#191919"/><path d="M59.163 117.763l-54.69-32.01a5.631 5.631 0 0 1 1.65-1.4l54.78 31.75v.01a5.368 5.368 0 0 0-1.74 1.65z" fill="#343A44"/><path d="M7.853 83.923c9.48 5.3 54.61 31.69 54.61 31.69a3.583 3.583 0 0 0-1.56.5v-.01l-54.78-31.75a2.94 2.94 0 0 1 1.73-.43z" fill="#282D33"/><path d="M6.493 83.173a4.068 4.068 0 0 0-3.24 1.87 4.748 4.748 0 0 0-.98 4.5 11.95 11.95 0 0 1-1.82-1.29c-1.63-2.23 1.49-6.68 3.84-6.22a22.02 22.02 0 0 1 2.2 1.14z" fill="#C62C2C"/><path d="M4.473 85.753a5.378 5.378 0 0 0-.98 1.99c-.02.11-.05.23-.07.35-.126.741-.099 1.5.08 2.23-.46-.28-.87-.54-1.23-.78a4.748 4.748 0 0 1 .98-4.5 4.068 4.068 0 0 1 3.24-1.87c.36.2.92.51 1.36.75a2.94 2.94 0 0 0-1.73.43 5.63 5.63 0 0 0-1.65 1.4z" fill="#D6D6D6"/><path d="M179.215 73l-.725.42-2.478 1.487-.706.42-2.517 1.506-.705.42-2.536 1.506h-.02l-.686.42-2.517 1.505-.725.439-2.517 1.506-.705.42-2.517 1.506-.706.42-2.536 1.506h-.019l-.686.42-2.517 1.506-.725.439-2.517 1.506-.724.42-2.498 1.506-.706.42-2.536 1.506-.705.42-2.517 1.506-.725.438-2.517 1.507-.705.42-2.536 1.505-.706.42-2.536 1.525-.706.42-2.498 1.487-.705.42-2.536 1.525-.706.42-2.517 1.487-.724.439-8.352 4.995 8.409 4.748L187.5 77.773 179.215 73zm-60.331 41.645c-1.392 0-2.536-.534-2.536-1.182 0-.668 1.144-1.202 2.536-1.202 1.392 0 2.536.534 2.536 1.202 0 .648-1.144 1.182-2.536 1.182z" fill="url(#paint5_linear)"/><path d="M177.233 75.555l-.706.438-1.22-.667.705-.42 1.221.649zm.325 3.87l-.705.42-4.767-2.593.705-.42 4.767 2.594zm-6.805 0l-.706.4-1.201-.648.686-.42h.019l1.202.668zm.323 3.833l-.725.42-4.747-2.555.724-.439 4.748 2.575zm-6.807 0l-.687.439-1.201-.649.705-.42 1.183.63zm.301 3.832l-.725.42-4.691-2.536.706-.42 4.71 2.537zm-6.789.039l-.706.4-1.163-.629.687-.42h.019l1.163.649zm.27 3.814l-.705.419-4.672-2.517.724-.439 4.653 2.537zm-6.747.019l-.705.438-1.163-.629.724-.42 1.144.61zm.264 3.813l-.725.439-4.614-2.517.705-.42 4.634 2.498zm-6.751.038l-.706.42-1.125-.61.706-.42 1.125.61zm.251 3.814l-.725.42-4.595-2.48.725-.438 4.595 2.498zm-6.735.038l-.706.439-1.106-.61.706-.42 1.106.591zm.23 3.795l-.724.419-4.558-2.46.706-.419 4.576 2.46zm-6.711.076l-.724.42-1.087-.591.706-.42 1.105.591zm.209 3.756l-.706.439-4.519-2.46.705-.419 4.52 2.44zm-6.692.077l-.705.419-1.068-.572.705-.419 1.068.572zm.192 3.775l-.725.42-2.345-1.278-2.078-1.106-.058-.038.725-.439 4.481 2.441z" fill="#fff"/><path d="M153.722 58.373c.028-4.1 2.192-7.623-7.343-11.29a72.235 72.235 0 0 0-12.129-2.855c-.195.32-.28.696-.241 1.069l.115 1.107a1.277 1.277 0 0 0 .625.964l18.261 10.83c.216.125.463.186.712.175z" fill="url(#paint6_linear)"/><path d="M154.347 58.187c1.945-1.206 7.634-4.713 9.393-5.798a1.042 1.042 0 0 0 .488-.839c.23-5.332.23-7.102-5.842-9.876-3.908-1.786-10.55-2.701-14.156-2.663a4.26 4.26 0 0 0-2.187.427l-7.196 4.204a1.7 1.7 0 0 0-.597.586 72.304 72.304 0 0 1 12.128 2.855c9.536 3.667 7.371 7.19 7.344 11.29a1.28 1.28 0 0 0 .625-.186z" fill="url(#paint7_linear)"/><path d="M145.753 41.471a1.808 1.808 0 0 0-2.264-.585l-.758.545a1.466 1.466 0 0 1 1.503-.111c1.027.39 1.123 1.838 1.123 1.838l.876-.577a2.9 2.9 0 0 0-.48-1.11z" fill="url(#paint8_linear)"/><path d="M142.143 42.392c.754.076 2.573.61 3.213.767 0 0-.096-1.45-1.123-1.839a1.467 1.467 0 0 0-1.503.111c-.292.25-.497.587-.587.96z" fill="url(#paint9_linear)"/><defs><linearGradient id="paint0_linear" x1="40.071" y1="62.719" x2="103.398" y2="16.175" gradientUnits="userSpaceOnUse"><stop stop-color="#283645"/><stop offset="1" stop-color="#A0A6AB"/></linearGradient><linearGradient id="paint1_linear" x1="83.107" y1="113.243" x2="147.03" y2="74.835" gradientUnits="userSpaceOnUse"><stop stop-color="#273544"/><stop offset="1" stop-color="#9FA5AB"/></linearGradient><linearGradient id="paint2_linear" x1="118.582" y1="62.139" x2="68.028" y2="94.144" gradientUnits="userSpaceOnUse"><stop stop-color="#B4B4B4"/><stop offset="1" stop-color="#D4D4D4"/></linearGradient><linearGradient id="paint3_linear" x1="105.206" y1="32.521" x2="42.436" y2="65.115" gradientUnits="userSpaceOnUse"><stop stop-color="#2E445A"/><stop offset="1" stop-color="#25323F"/></linearGradient><linearGradient id="paint4_linear" x1="98.5" y1="92" x2="127.999" y2="90.475" gradientUnits="userSpaceOnUse"><stop stop-color="#D0D0D0"/><stop offset="1" stop-color="#DBDBDB" stop-opacity="0"/></linearGradient><linearGradient id="paint5_linear" x1="178.5" y1="38.773" x2="178.5" y2="117.886" gradientUnits="userSpaceOnUse"><stop stop-color="#DC655A"/><stop offset="1" stop-color="#B34037"/></linearGradient><linearGradient id="paint6_linear" x1="150.932" y1="49.724" x2="148.071" y2="58.879" gradientUnits="userSpaceOnUse"><stop stop-color="#575B61"/><stop offset="1" stop-color="#212225"/></linearGradient><linearGradient id="paint7_linear" x1="148.071" y1="35.42" x2="158.37" y2="54.873" gradientUnits="userSpaceOnUse"><stop stop-color="#343A44"/><stop offset=".701" stop-color="#838B97"/><stop offset="1" stop-color="#56595C"/></linearGradient><linearGradient id="paint8_linear" x1="143.953" y1="40.581" x2="145.85" y2="42.722" gradientUnits="userSpaceOnUse"><stop stop-color="#C3C3C3"/><stop offset=".667" stop-color="#E6E6E6"/><stop offset="1" stop-color="#8B8B8B"/></linearGradient><linearGradient id="paint9_linear" x1="142.382" y1="42.431" x2="145.187" y2="41.628" gradientUnits="userSpaceOnUse"><stop stop-color="#E3E3E3"/><stop offset="1" stop-color="#fff"/></linearGradient></defs></svg>