<svg aria-hidden="true" style="position:absolute;width:0;height:0" xmlns="http://www.w3.org/2000/svg" overflow="hidden">
    <defs>
        <symbol id="icon-Arrow_footer_left" viewBox="0 0 72 32">
            <path d="M1.398 13.004L22.598.398c1.864-1.117 4.271.239 4.271 2.553v2.633c0 1.596 1.243 2.872 2.796 2.872h9.862c.072 0 .143.003.213.008h28.208a4 4 0 0 1 4 4v6.192a4 4 0 0 1-4 4H39.634a3.748 3.748 0 0 1-.107.002h-9.94c-1.553 0-2.796 1.277-2.796 2.872v2.633c0 2.234-2.33 3.59-4.193 2.473L1.398 18.03c-1.864-1.117-1.864-3.909 0-5.027z"/>
        </symbol>
        <symbol id="icon-Video_Project-page" viewBox="0 0 49 32">
            <path d="M47.589 3.645a1.755 1.755 0 0 1 1.679 1.752v21.034a1.746 1.746 0 0 1-.83 1.498 1.766 1.766 0 0 1-1.715.08l-11.524-5.753v4.175c0 1.395-.556 2.732-1.545 3.718s-2.331 1.54-3.73 1.54H5.304c-1.399 0-2.741-.554-3.73-1.54S.029 27.825.029 26.431V5.397c0-1.395.556-2.732 1.545-3.718S3.905.139 5.304.139h24.62c1.399 0 2.741.554 3.73 1.54s1.545 2.324 1.545 3.718v4.175l11.524-5.744c.268-.134.566-.197.866-.183z"/>
        </symbol>
        <symbol id="icon-Arrow_footer_right" viewBox="0 0 72 32">
            <path d="M70.602 18.032l-21.2 12.606c-1.864 1.117-4.271-.239-4.271-2.553v-2.633c0-1.596-1.243-2.872-2.796-2.872h-9.862c-.072 0-.143-.003-.213-.008H4.052a4 4 0 0 1-4-4V12.38a4 4 0 0 1 4-4h28.314l.107-.002h9.94c1.553 0 2.796-1.277 2.796-2.872V2.873c0-2.234 2.33-3.59 4.193-2.473l21.2 12.606c1.864 1.117 1.864 3.91 0 5.026z"/>
        </symbol>
        <symbol id="icon-arrow-left2" viewBox="0 0 32 32">
            <path d="M12.586 27.414l-10-10a2 2 0 0 1 0-2.828l10-10a2 2 0 1 1 2.828 2.828L8.828 14H28a2 2 0 1 1 0 4H8.828l6.586 6.586c.39.39.586.902.586 1.414s-.195 1.024-.586 1.414a2 2 0 0 1-2.828 0z"/>
        </symbol>
        <symbol id="icon-arrow-right2" viewBox="0 0 32 32">
            <path d="M19.414 27.414l10-10a2 2 0 0 0 0-2.828l-10-10a2 2 0 1 0-2.828 2.828L23.172 14H4a2 2 0 1 0 0 4h19.172l-6.586 6.586c-.39.39-.586.902-.586 1.414s.195 1.024.586 1.414a2 2 0 0 0 2.828 0z"/>
        </symbol>
        <symbol id="icon-Link_Project-page" viewBox="0 0 32 32">
            <path d="M29.385 2.629C27.696.933 25.454 0 23.07 0s-4.627.933-6.314 2.629L10.799 8.61a8.981 8.981 0 0 0-2.614 6.361 8.939 8.939 0 0 0 2.616 6.332l.726.73a.989.989 0 0 0 1.403 0l1.403-1.41a1 1 0 0 0 0-1.41l-.726-.73c-1.903-1.913-1.929-5.049-.058-6.995l6.012-6.04a4.916 4.916 0 0 1 3.509-1.461 4.915 4.915 0 0 1 3.507 1.461 5 5 0 0 1 .001 7.049l-.308.308c.482 1.295.767 2.683.768 4.144 0 .265-.036.52-.053.779l2.398-2.411c3.489-3.505 3.486-9.188 0-12.689z"/>
            <path d="M2.615 29.371A8.853 8.853 0 0 0 8.93 32a8.848 8.848 0 0 0 6.314-2.629s5.634-5.658 5.957-5.98a8.981 8.981 0 0 0 2.614-6.361 8.939 8.939 0 0 0-2.616-6.332l-.726-.73a.989.989 0 0 0-1.403 0l-1.403 1.41a1 1 0 0 0 0 1.41l.726.73c1.903 1.913 1.929 5.049.058 6.995l-6.012 6.04a4.916 4.916 0 0 1-3.509 1.461 4.915 4.915 0 0 1-3.506-1.459l-.001-.002a5 5 0 0 1-.001-7.049l.308-.308a11.859 11.859 0 0 1-.768-4.144c0-.265.036-.52.053-.779l-2.398 2.411c-3.489 3.505-3.486 9.188 0 12.689z"/>
        </symbol>
        <symbol id="icon-Page_Contact-us" viewBox="0 0 39 32">
            <path d="M19.3 0C8.654 0 0 6.257 0 13.978c0 3.454 1.707 6.745 4.835 9.264-.528 1.178-1.3 2.763-2.235 4.063-.65.894-.691 2.113-.041 3.007a2.574 2.574 0 0 0 2.154 1.138c.244 0 .447-.041.691-.081 3.494-.935 6.664-2.6 8.899-3.901 1.625.325 3.332.488 5.038.488 10.646 0 19.3-6.257 19.3-13.978S29.946 0 19.3 0zm0 25.233c-1.707 0-3.373-.163-4.998-.528-.325-.081-.691 0-1.016.163-1.625 1.016-4.876 2.844-8.37 3.819 1.341-1.91 2.316-4.185 2.804-5.404.244-.569.041-1.219-.488-1.585-2.966-2.113-4.591-4.876-4.591-7.72 0-6.217 7.436-11.255 16.578-11.255s16.578 5.038 16.578 11.255c0 6.217-7.355 11.255-16.497 11.255z"/>
            <path d="M13.409 13.612a3.047 3.047 0 1 1-6.094 0 3.047 3.047 0 0 1 6.094 0zm8.939 0a3.047 3.047 0 1 1-6.094 0 3.047 3.047 0 0 1 6.094 0zm8.939 0a3.047 3.047 0 1 1-6.094 0 3.047 3.047 0 0 1 6.094 0z"/>
        </symbol>
        <symbol id="icon-Mail_icon-concise" viewBox="0 0 37 37">
            <path d="M.42 16c-.572-.295-.562-.735.044-.992L35.743.088c.597-.252.948.059.79.674l-7.841 30.579c-.16.624-.724.848-1.28.486l-8.745-5.697c-.547-.356-1.312-.227-1.702.279l-3.263 4.233c-.393.51-.883.422-1.093-.193l-2.993-8.778c-.21-.617-.856-1.362-1.416-1.651L.419 16.001zm13.055 11.068l1.181-3.555c.207-.622.731-1.5 1.176-1.974L29.605 6.865c.44-.469.379-.551-.147-.172L11.885 19.35c-.528.38-.817 1.193-.651 1.819l1.568 5.881c.166.623.468.633.673.017z"/>
        </symbol>
        <symbol id="icon-linkedin2" viewBox="0 0 32 32">
            <path d="M12 12h5.535v2.837h.079c.77-1.381 2.655-2.837 5.464-2.837C28.92 12 30 15.637 30 20.367V30h-5.769v-8.54c0-2.037-.042-4.657-3.001-4.657-3.005 0-3.463 2.218-3.463 4.509V30H12V12zM2 12h6v18H2V12zm6-5a3 3 0 1 1-6 0 3 3 0 0 1 6 0z"/>
        </symbol>
        <symbol id="icon-behance" viewBox="0 0 570 470">
            <path d="M232 237.2c31.8-15.2 48.4-38.2 48.4-74 0-70.6-52.6-87.8-113.3-87.8H0v354.4h171.8c64.4 0 124.9-30.9 124.9-102.9 0-44.5-21.1-77.4-64.7-89.7zM77.9 135.9H151c28.1 0 53.4 7.9 53.4 40.5 0 30.1-19.7 42.2-47.5 42.2h-79v-82.7zm83.3 233.7H77.9V272h84.9c34.3 0 56 14.3 56 50.6 0 35.8-25.9 47-57.6 47zm358.5-240.7H376V94h143.7v34.9zM576 305.2c0-75.9-44.4-139.2-124.9-139.2-78.2 0-131.3 58.8-131.3 135.8 0 79.9 50.3 134.7 131.3 134.7 61.3 0 101-27.6 120.1-86.3H509c-6.7 21.9-34.3 33.5-55.7 33.5-41.3 0-63-24.2-63-65.3h185.1c.3-4.2.6-8.7.6-13.2zM390.4 274c2.3-33.7 24.7-54.8 58.5-54.8 35.4 0 53.2 20.8 56.2 54.8H390.4z"/>
        </symbol>
        <symbol id="icon-email" viewBox="0 3 26 11">
            <path d="M8 12c-2.206 0-4-1.794-4-4s1.794-4 4-4 4 1.794 4 4-1.794 4-4 4zm0-6c-1.103 0-2 .897-2 2s.897 2 2 2 2-.897 2-2-.897-2-2-2zm0 10c-4.411 0-8-3.589-8-8s3.589-8 8-8 8 3.589 8 8c0 .543-.055 1.086-.163 1.612-.344 1.64-1.939 2.685-3.555 2.345a2.976 2.976 0 0 1-1.897-1.293 2.979 2.979 0 0 1-.427-2.256.999.999 0 1 1 1.957.408c-.054.262-.004.528.143.752s.371.377.632.432a1.009 1.009 0 0 0 1.184-.775A6.001 6.001 0 0 0 8 2C4.691 2 2 4.691 2 8a6.006 6.006 0 0 0 8.064 5.636 1 1 0 1 1 .685 1.879A7.98 7.98 0 0 1 8 16z"/>
        </symbol>
        <symbol id="icon-inform" viewBox="10 10 75 75">
            <circle cx="50" cy="35.7" r="1.7"/>
            <path d="M52.999 60.7H51.5V43.2a1.5 1.5 0 0 0-1.5-1.5h-3.002a1.5 1.5 0 1 0 0 3H48.5v16h-1.501a1.5 1.5 0 1 0 0 3h6a1.5 1.5 0 0 0 0-3z"/>
            <path d="M50 18c17.645 0 32 14.355 32 32S67.645 82 50 82 18 67.645 18 50s14.355-32 32-32m0-3c-19.329 0-35 15.67-35 35s15.671 35 35 35c19.33 0 35-15.67 35-35S69.33 15 50 15z"/>
        </symbol>
    </defs>
</svg>