<?xml version="1.0" encoding="utf-8"?>
<!-- Generator: Adobe Illustrator 17.1.0, SVG Export Plug-In . SVG Version: 6.00 Build 0)  -->
<!DOCTYPE svg PUBLIC "-//W3C//DTD SVG 1.1//EN" "http://www.w3.org/Graphics/SVG/1.1/DTD/svg11.dtd" [
	<!ENTITY ns_flows "http://ns.adobe.com/Flows/1.0/">
	<!ENTITY ns_extend "http://ns.adobe.com/Extensibility/1.0/">
	<!ENTITY ns_ai "http://ns.adobe.com/AdobeIllustrator/10.0/">
	<!ENTITY ns_graphs "http://ns.adobe.com/Graphs/1.0/">
	<!ENTITY ns_vars "http://ns.adobe.com/Variables/1.0/">
	<!ENTITY ns_imrep "http://ns.adobe.com/ImageReplacement/1.0/">
	<!ENTITY ns_sfw "http://ns.adobe.com/SaveForWeb/1.0/">
	<!ENTITY ns_custom "http://ns.adobe.com/GenericCustomNamespace/1.0/">
	<!ENTITY ns_adobe_xpath "http://ns.adobe.com/XPath/1.0/">
]>
<svg version="1.1" id="Layer_1" xmlns:x="&ns_extend;" xmlns:i="&ns_ai;" xmlns:graph="&ns_graphs;"
	 xmlns="http://www.w3.org/2000/svg" xmlns:xlink="http://www.w3.org/1999/xlink" xmlns:a="http://ns.adobe.com/AdobeSVGViewerExtensions/3.0/"
	 x="0px" y="0px" viewBox="0 0 600 600" enable-background="new 0 0 600 600" xml:space="preserve">
<metadata>
	<sfw  xmlns="&ns_sfw;">
		<slices></slices>
		<sliceSourceBounds  width="2974.6374512" height="7714.9975586" x="-166.0068359" y="-7810.9975586" bottomLeftOrigin="true">
			</sliceSourceBounds>
	</sfw>
</metadata>
<pattern  x="-660" y="-6344" width="18" height="18" patternUnits="userSpaceOnUse" id="New_Pattern" viewBox="60.7666016 -78.7661133 18 18" overflow="visible">
	<g>
		<polygon fill="none" points="60.7666016,-78.7661133 78.7666016,-78.7661133 78.7666016,-60.7661133 60.7666016,-60.7661133 		"/>
		<line fill="none" stroke="#810C74" stroke-miterlimit="10" x1="72.3538437" y1="-0.3533517" x2="139.1793671" y2="-67.1788712"/>
		<line fill="none" stroke="#810C74" stroke-miterlimit="10" x1="54.3538399" y1="-0.3533517" x2="121.1793594" y2="-67.1788712"/>
		<line fill="none" stroke="#810C74" stroke-miterlimit="10" x1="36.3538399" y1="-0.3533517" x2="103.1793594" y2="-67.1788712"/>
		<line fill="none" stroke="#810C74" stroke-miterlimit="10" x1="18.3538399" y1="-0.3533517" x2="85.1793594" y2="-67.1788712"/>
		<line fill="none" stroke="#810C74" stroke-miterlimit="10" x1="0.35384" y1="-0.3533517" x2="67.1793594" y2="-67.1788712"/>
		<line fill="none" stroke="#810C74" stroke-miterlimit="10" x1="72.3538437" y1="-18.3533516" x2="139.1793671" y2="-85.1788712"/>
		<line fill="none" stroke="#810C74" stroke-miterlimit="10" x1="54.3538399" y1="-18.3533516" x2="121.1793594" y2="-85.1788712"/>
		<line fill="none" stroke="#810C74" stroke-miterlimit="10" x1="36.3538399" y1="-18.3533516" x2="103.1793594" y2="-85.1788712"/>
		<line fill="none" stroke="#810C74" stroke-miterlimit="10" x1="18.3538399" y1="-18.3533516" x2="85.1793594" y2="-85.1788712"/>
		<line fill="none" stroke="#810C74" stroke-miterlimit="10" x1="0.35384" y1="-18.3533516" x2="67.1793594" y2="-85.1788712"/>
		
			<line fill="none" stroke="#810C74" stroke-miterlimit="10" x1="72.3538437" y1="-36.3533516" x2="139.1793671" y2="-103.1788712"/>
		
			<line fill="none" stroke="#810C74" stroke-miterlimit="10" x1="54.3538399" y1="-36.3533516" x2="121.1793594" y2="-103.1788712"/>
		
			<line fill="none" stroke="#810C74" stroke-miterlimit="10" x1="36.3538399" y1="-36.3533516" x2="103.1793594" y2="-103.1788712"/>
		<line fill="none" stroke="#810C74" stroke-miterlimit="10" x1="18.3538399" y1="-36.3533516" x2="85.1793594" y2="-103.1788712"/>
		<line fill="none" stroke="#810C74" stroke-miterlimit="10" x1="0.35384" y1="-36.3533516" x2="67.1793594" y2="-103.1788712"/>
		
			<line fill="none" stroke="#810C74" stroke-miterlimit="10" x1="72.3538437" y1="-54.3533516" x2="139.1793671" y2="-121.1788712"/>
		
			<line fill="none" stroke="#810C74" stroke-miterlimit="10" x1="54.3538399" y1="-54.3533516" x2="121.1793594" y2="-121.1788712"/>
		
			<line fill="none" stroke="#810C74" stroke-miterlimit="10" x1="36.3538399" y1="-54.3533516" x2="103.1793594" y2="-121.1788712"/>
		<line fill="none" stroke="#810C74" stroke-miterlimit="10" x1="18.3538399" y1="-54.3533516" x2="85.1793594" y2="-121.1788712"/>
		<line fill="none" stroke="#810C74" stroke-miterlimit="10" x1="0.35384" y1="-54.3533516" x2="67.1793594" y2="-121.1788712"/>
		
			<line fill="none" stroke="#810C74" stroke-miterlimit="10" x1="72.3538437" y1="-72.3533554" x2="139.1793671" y2="-139.1788788"/>
		
			<line fill="none" stroke="#810C74" stroke-miterlimit="10" x1="54.3538399" y1="-72.3533554" x2="121.1793594" y2="-139.1788788"/>
		
			<line fill="none" stroke="#810C74" stroke-miterlimit="10" x1="36.3538399" y1="-72.3533554" x2="103.1793594" y2="-139.1788788"/>
		<line fill="none" stroke="#810C74" stroke-miterlimit="10" x1="18.3538399" y1="-72.3533554" x2="85.1793594" y2="-139.1788788"/>
		<line fill="none" stroke="#810C74" stroke-miterlimit="10" x1="0.35384" y1="-72.3533554" x2="67.1793594" y2="-139.1788788"/>
	</g>
</pattern>
<g>
	<circle fill="#EBEDEB" cx="300" cy="300" r="298"/>
</g>
<g>
	<defs>
		<circle id="SVGID_29_" cx="300" cy="300" r="298"/>
	</defs>
	<clipPath id="SVGID_2_">
		<use xlink:href="#SVGID_29_"  overflow="visible"/>
	</clipPath>
	<g clip-path="url(#SVGID_2_)">
		<g>
			<g>
				<path fill="#A34E9A" d="M469.0820007,529.9033203c77.2804871-77.2804565,77.2804871-202.5769348,0.0001221-279.8572998
					L189.2246704,529.9034424C266.5050354,607.1838379,391.8016357,607.1837158,469.0820007,529.9033203z"/>
			</g>
			
				<text transform="matrix(1 0 0 1 371.4590454 479.6157227)" fill="#FFFFFF" font-family="'GothamPro-Bold'" font-size="93.7368622">2</text>
			<g>
				<path fill="#FFDCAE" d="M200.4208069,261.3495178c-71.0211182,71.0211182-71.0211182,186.1691589-0.0001068,257.190155
					l257.1902466-257.1902466C386.5899658,190.3284149,271.441803,190.3285217,200.4208069,261.3495178z"/>
			</g>
			<g opacity="0.13"  a:adobe-blending-mode="luminosity">
				
					<pattern  id="SVGID_4_" xlink:href="#New_Pattern" patternTransform="matrix(0.9190045 0 0 0.9190045 -523.2879639 267.9603271)"  opacity="0.13">
				</pattern>
				<path fill="url(#SVGID_4_)"  a:adobe-blending-mode="normal" d="M200.4208069,261.3495178
					c-71.0211182,71.0211182-71.0211182,186.1691589-0.0001068,257.190155l257.1902466-257.1902466
					C386.5899658,190.3284149,271.441803,190.3285217,200.4208069,261.3495178z"/>
			</g>
			<g>
				<text transform="matrix(1 0 0 1 251.1133575 353.0961914)" fill="#585B58" font-family="'GothamPro'" font-size="93.7368622">1</text>
			</g>
			<g opacity="0.75">
				<g>
					<path fill="#FFFFFF" d="M469.0403137,529.9033203c77.2804871-77.2804565,77.2804871-202.5769348,0.0001221-279.8572998
						L189.1829987,529.9034424C266.4633484,607.1838379,391.7599487,607.1837158,469.0403137,529.9033203z"/>
				</g>
				<g>
					<path fill="#FFFFFF" d="M200.3791504,261.3495178c-71.0211182,71.0211182-71.0211182,186.1691589-0.0001221,257.190155
						l257.1902771-257.1902466C386.5482788,190.3284149,271.4001465,190.3285217,200.3791504,261.3495178z"/>
				</g>
			</g>
		</g>
		<g>
			<polygon fill="#FFFFFF" points="432.6957397,327.6740417 381.3384399,216.5708923 178.7360992,310.0569458 
				230.093399,421.1600952 230.0180511,421.1948853 300.9386597,574.8934937 503.6323547,481.3652649 432.7117615,327.6666565 			
				"/>
			
				<rect x="208.2042542" y="321.5090637" transform="matrix(0.9079981 -0.4189743 0.4189743 0.9079981 -107.5569229 158.9824371)" fill="#C3CED3" width="200.0365448" height="5.7758117"/>
			<text transform="matrix(0.9079972 -0.4189762 0.4189762 0.9079972 225.3453674 340.4425049)"><tspan x="0" y="0" font-family="'GothamPro-Bold'" font-size="31.0980473">До</tspan><tspan x="50.3781738" y="0" font-family="'GothamPro-Bold'" font-size="31.0980473">г</tspan><tspan x="68.041748" y="0" font-family="'GothamPro-Bold'" font-size="31.0980473">овор</tspan></text>
			
				<rect x="217.5115051" y="341.6794739" transform="matrix(0.9079981 -0.4189743 0.4189743 0.9079981 -115.1515198 164.7376556)" fill="#C3CED3" width="200.0365448" height="5.7758117"/>
			
				<rect x="226.8187561" y="361.8503723" transform="matrix(0.9079981 -0.4189743 0.4189743 0.9079981 -122.7463226 170.4929199)" fill="#C3CED3" width="200.0365448" height="5.7758117"/>
			
				<rect x="236.1260071" y="382.0207825" transform="matrix(0.9079981 -0.4189743 0.4189743 0.9079981 -130.3409271 176.2481232)" fill="#C3CED3" width="200.0365448" height="5.7758117"/>
			
				<rect x="245.4332581" y="402.1916809" transform="matrix(0.9079981 -0.4189743 0.4189743 0.9079981 -137.93573 182.0033875)" fill="#C3CED3" width="200.0365448" height="5.7758117"/>
			
				<rect x="254.740509" y="422.3620911" transform="matrix(0.9079981 -0.4189743 0.4189743 0.9079981 -145.5303192 187.758606)" fill="#C3CED3" width="200.0365448" height="5.7758117"/>
			
				<rect x="264.04776" y="442.5325012" transform="matrix(0.9079981 -0.4189743 0.4189743 0.9079981 -153.1249237 193.5138245)" fill="#C3CED3" width="200.0365448" height="5.7758117"/>
			
				<rect x="273.355011" y="462.7033997" transform="matrix(0.9079981 -0.4189743 0.4189743 0.9079981 -160.7197266 199.2690735)" fill="#C3CED3" width="200.0365448" height="5.7758117"/>
			
				<rect x="298.3794556" y="532.2356567" transform="matrix(0.9079981 -0.4189743 0.4189743 0.9079981 -193.9596252 186.9598846)" fill="#C3CED3" width="60.6919937" height="5.7758117"/>
			
				<rect x="424.9041138" y="473.8537903" transform="matrix(0.9079981 -0.4189743 0.4189743 0.9079981 -157.8586273 234.5992126)" fill="#C3CED3" width="60.6919937" height="5.7758117"/>
		</g>
		<g opacity="0.1">
			<path fill="#232323" d="M354.0563049,142.1420441c0,0,0.1572571-0.0310211,0.4341736-0.0771942
				c0.1383667-0.0239258,0.3065491-0.0531464,0.499939-0.0814514c0.1934509-0.02948,0.4116821-0.0627136,0.6497498-0.098999
				c0.2387085-0.0317993,0.497345-0.0662384,0.7708435-0.1026764c0.1369019-0.0180206,0.2775269-0.0365295,0.4212646-0.0554504
				c0.1440125-0.0161896,0.2911377-0.0327454,0.4407349-0.0495605c0.299469-0.0336761,0.6089172-0.0684662,0.9233398-0.1038055
				c0.3150635-0.029068,0.6351318-0.058609,0.9552002-0.0881348c0.320282-0.0281067,0.640625-0.0599213,0.9562988-0.0845184
				c0.315918-0.0212555,0.6268005-0.0421753,0.9276733-0.0624237c0.3011169-0.0202332,0.5922241-0.0397949,0.8682556-0.0583496
				c0.2761536-0.0181885,0.5374146-0.0247192,0.7786255-0.0364532c0.9655457-0.0411072,1.6092529-0.068512,1.6092529-0.068512
				l-0.0086975,0.8334351c0,0-0.638092-0.0246735-1.5952148-0.0616608c-0.2394104-0.0078278-0.4990234-0.0224915-0.773468-0.0267181
				c-0.2745361-0.0038757-0.5640259-0.0079346-0.8635559-0.0121613c-0.2997437-0.0042267-0.6094971-0.0085907-0.9242249-0.013031
				c-0.3147278-0.0010834-0.6342773,0.0046234-0.9541931,0.0066376c-0.3199463,0.003418-0.6399231,0.0068665-0.954895,0.0102539
				c-0.3148193,0.0096588-0.6246643,0.0191956-0.92453,0.0284119c-0.1500244,0.0046082-0.2975769,0.0091553-0.4419861,0.0135803
				c-0.1442261,0.0071716-0.2853394,0.0141907-0.422699,0.0210266c-0.2749329,0.0140686-0.5348511,0.0273895-0.7747803,0.0396729
				c-0.2396545,0.0167847-0.4593506,0.032196-0.6540833,0.0458374c-0.1950073,0.0125122-0.3643799,0.0279388-0.5040283,0.0405426
				C354.2157593,142.1238708,354.0563049,142.1420441,354.0563049,142.1420441z"/>
			<path fill="#232323" d="M368.8132324,141.1499329c0,0,0.3303833,0.0100555,0.9085999,0.0276794
				c0.289093,0.0088043,0.6401367,0.0194855,1.0427856,0.0317841c0.1006775,0.0030518,0.2045898,0.0062103,0.3115234,0.0094757
				c0.1079102,0.0059204,0.2188721,0.0119934,0.3327942,0.0182495c0.2280273,0.0126648,0.4677734,0.0260162,0.7179565,0.039917
				c0.2504272,0.0139618,0.511261,0.0285034,0.7812195,0.0435638c0.2696533,0.0168304,0.5506897,0.0262451,0.8352051,0.0529633
				c0.5712585,0.0467987,1.1736755,0.0961151,1.796875,0.1471558c0.1559448,0.0128021,0.3131714,0.0256958,0.4715576,0.0386963
				c0.1578979,0.0172272,0.3168945,0.0345459,0.4768982,0.052002c0.3201599,0.0351105,0.6441956,0.0706177,0.9708557,0.1064301
				c0.3268738,0.0358734,0.6563721,0.0720367,0.9871826,0.1083527c0.3312073,0.0347137,0.6607971,0.088623,0.9921875,0.1321716
				c0.6624451,0.0927734,1.3248901,0.1855621,1.9769897,0.2769012c0.6496277,0.1105042,1.2889099,0.2192688,1.9075928,0.3245239
				c0.3093567,0.0538788,0.6147156,0.1020508,0.9118042,0.1580353c0.2962646,0.0601654,0.5861511,0.1190338,0.8683167,0.1763306
				c0.5649414,0.1148682,1.0990601,0.2234802,1.5921326,0.3237305c0.1232605,0.0254669,0.2439575,0.0503998,0.3619385,0.0747681
				c0.1171265,0.0278931,0.2315369,0.0551453,0.3430786,0.0817108c0.2232056,0.0531769,0.434906,0.1036224,0.6338501,0.1510315
				c0.3982239,0.0949554,0.7453613,0.1777496,1.03125,0.2459259c0.5722656,0.1365967,0.899292,0.2146606,0.899292,0.2146606
				l-0.8374634,2.7935028c0,0-0.3088989-0.1007233-0.8494873-0.2769775
				c-0.2705078-0.0882416-0.598999-0.1953888-0.9758301-0.3183289c-0.1885376-0.0615234-0.3891602-0.1269989-0.6006775-0.1960297
				c-0.1058044-0.0345459-0.214325-0.0699615-0.3254089-0.1062164c-0.1116028-0.0345001-0.2267761-0.0662231-0.3439026-0.1006012
				c-0.4692383-0.1358337-0.9776001-0.282959-1.5152893-0.4385986c-0.2691345-0.0779419-0.5456238-0.1580048-0.8282471-0.2398682
				c-0.2836914-0.0777588-0.5757446-0.1483154-0.8717041-0.2250366c-0.5929871-0.1513214-1.2057495-0.3076935-1.8283997-0.4665985
				c-0.6275024-0.1405182-1.2649841-0.2832947-1.9024658-0.4260559c-0.3194885-0.0687103-0.6373596-0.1478729-0.9573364-0.2078705
				c-0.3198547-0.0616455-0.6384583-0.1230621-0.9545288-0.1839905c-0.3163452-0.0610046-0.630188-0.1215363-0.9402466-0.1813049
				c-0.1551514-0.0298615-0.3093567-0.0595245-0.4624634-0.0889893c-0.1537476-0.0252686-0.3063965-0.050354-0.4577942-0.0752411
				c-0.6061401-0.0996704-1.1921082-0.1960144-1.7477112-0.287384c-0.2781677-0.0492249-0.5481873-0.0800323-0.8098145-0.1178741
				c-0.2617188-0.0361023-0.5145569-0.0709381-0.7572937-0.1044159c-0.2429504-0.0335236-0.4757996-0.0656433-0.6972351-0.0962067
				c-0.1108398-0.0151978-0.2188416-0.0300446-0.323822-0.0444489c-0.1063232-0.0119324-0.2096252-0.0235138-0.3097229-0.0347443
				c-0.4003296-0.0449066-0.7493591-0.0840607-1.0368042-0.1163025c-0.5748291-0.0644684-0.9033203-0.1013184-0.9033203-0.1013184
				L368.8132324,141.1499329z"/>
			<path fill="#232323" d="M394.3851624,145.2484283c0,0,0.3139038,0.1035767,0.8632507,0.2848511
				c0.2746582,0.0906372,0.6081848,0.2006989,0.9907532,0.3269348c0.1922302,0.065094,0.3927612,0.1259003,0.6114807,0.2055206
				c0.2189026,0.0798492,0.4490662,0.1638336,0.689209,0.2514648c0.4809875,0.1758881,1.0020447,0.3664246,1.5531921,0.5679779
				c0.5437317,0.2109222,1.1091614,0.4429932,1.6991577,0.6784058c0.2943726,0.118866,0.5936279,0.2397461,0.8965759,0.3620911
				c0.2991028,0.1315155,0.6018372,0.2646332,0.9070129,0.3988037c0.3054199,0.1344147,0.6132507,0.2698975,0.9223022,0.405899
				c0.3091431,0.1361542,0.6211548,0.2699738,0.9247742,0.4209595c0.6118774,0.29422,1.2237549,0.5884247,1.8260803,0.8780365
				c0.303772,0.140686,0.5945435,0.3001556,0.8855591,0.4511108c0.2905273,0.1522369,0.5774841,0.3026428,0.8597717,0.4505768
				c0.2824707,0.1481781,0.5602722,0.2938843,0.8321533,0.4364929c0.0679321,0.0358124,0.135498,0.0714264,0.2026672,0.106842
				c0.065918,0.0375671,0.1315002,0.0749054,0.1966248,0.1120148c0.1303406,0.0742798,0.2590942,0.147644,0.3861389,0.220047
				c0.5084839,0.2900391,0.9892273,0.5642853,1.4329834,0.8174286c0.4480591,0.2472992,0.8415222,0.5014191,1.1956482,0.7188416
				c0.353363,0.2189636,0.661438,0.4098511,0.9151306,0.5670624c0.507782,0.3149414,0.7979126,0.4949036,0.7979126,0.4949036
				l-2.8740845,4.0903931c0,0-0.2572327-0.1897888-0.7073669-0.5219421c-0.2252502-0.1663361-0.4987488-0.3683167-0.8125-0.6000061
				c-0.3147583-0.2305298-0.6641235-0.4998932-1.0647888-0.7646942c-0.3968811-0.2713165-0.8268738-0.5652313-1.2816467-0.8761139
				c-0.1138-0.0778503-0.229126-0.1567688-0.3459167-0.2366486c-0.0583801-0.0399628-0.117157-0.0801697-0.176239-0.1206207
				c-0.0603943-0.0383148-0.1211243-0.0768738-0.1822205-0.1156464c-0.2446899-0.1547241-0.4946899-0.3128204-0.7489319-0.473587
				c-0.254425-0.1610107-0.513092-0.324707-0.7749634-0.4904022c-0.2626038-0.1646881-0.5247498-0.3382416-0.8002014-0.4935608
				c-0.5465393-0.3198242-1.1017151-0.6447144-1.6569214-0.9696198c-0.2757263-0.1668243-0.5603333-0.316864-0.8424377-0.4694061
				c-0.2822571-0.1526337-0.563385-0.3046722-0.8423157-0.4555054c-0.2791748-0.1510773-0.5561218-0.3009491-0.8297729-0.4490204
				c-0.2781372-0.1394196-0.552887-0.2771606-0.8231201-0.4126282c-0.5413513-0.268631-1.0645752-0.5352478-1.5620728-0.7766113
				c-0.4989929-0.2300262-0.9707642-0.4474945-1.40625-0.6482544c-0.2180786-0.1006927-0.427063-0.1971893-0.625824-0.2889557
				c-0.1990356-0.0918121-0.4030457-0.1725159-0.5865479-0.2518005c-0.3710632-0.1568756-0.6945496-0.2936401-0.9609375-0.4062653
				c-0.5328369-0.2252502-0.8372803-0.3539886-0.8372803-0.3539886L394.3851624,145.2484283z"/>
			<path fill="#232323" d="M417.8319092,157.063446c0,0,0.2637329,0.1992645,0.7253113,0.5479279
				c0.2307739,0.1743469,0.5110168,0.3860474,0.8324585,0.6288757c0.0803528,0.0607147,0.1632996,0.1233673,0.2486877,0.1878662
				c0.0856628,0.0652924,0.1721497,0.1278229,0.2656555,0.2055511c0.1850586,0.1497803,0.3795776,0.307251,0.5825806,0.4715729
				c0.406311,0.3296967,0.8464661,0.6868744,1.3120117,1.0646515c0.4524536,0.3829803,0.9170227,0.7915955,1.4048157,1.2126465
				c0.2424622,0.211441,0.4918213,0.4237213,0.7391663,0.6439819c0.2429199,0.2249451,0.4888,0.4526367,0.7366028,0.6821136
				c0.2479553,0.2298584,0.4978638,0.4615326,0.7487793,0.6941223c0.1254883,0.1164246,0.2512207,0.233078,0.3771057,0.349823
				c0.1270142,0.1157684,0.2452393,0.2400055,0.3683777,0.359726c0.4881897,0.4838715,0.9763794,0.9677429,1.4569397,1.4440613
				c0.2441711,0.2352295,0.4685974,0.4842987,0.6976929,0.7241364c0.2276611,0.2412872,0.4525452,0.4796448,0.6737671,0.7141113
				c0.221283,0.234787,0.4389038,0.4656525,0.651886,0.6916351c0.1080017,0.1118317,0.2095337,0.2268066,0.3093262,0.3408356
				c0.1003113,0.113678,0.1993713,0.2259369,0.2970886,0.3367004c0.3911133,0.4437256,0.7608948,0.8632507,1.1022034,1.2504883
				c0.3469849,0.3835297,0.6402283,0.7540283,0.9084167,1.0765228c0.2666931,0.3238831,0.499176,0.6062469,0.6906433,0.8387756
				c0.3830261,0.4656525,0.6018982,0.7317505,0.6018982,0.7317505l-5.7095947,4.1899261
				c0,0-0.1807861-0.2598267-0.4971924-0.7145386c-0.1582336-0.2276611-0.3503723-0.5040894-0.5708008-0.821167
				c-0.2219543-0.3160858-0.463501-0.6803589-0.7531433-1.0565186c-0.2843933-0.3810272-0.5924683-0.793808-0.918335-1.2303772
				c-0.0815125-0.109314-0.1641235-0.2200928-0.2477417-0.3322601c-0.0831604-0.1126251-0.1678772-0.2261963-0.258667-0.3364716
				c-0.178772-0.2232513-0.3613892-0.4513397-0.5471191-0.6832886c-0.1858215-0.2322693-0.3747253-0.468399-0.5659485-0.7074432
				c-0.1927185-0.2378387-0.3806458-0.4855194-0.5874939-0.7189789c-0.4066467-0.4745178-0.8197327-0.9565735-1.2328491-1.4386292
				c-0.1044312-0.1195526-0.2041321-0.2438965-0.3124084-0.3595734c-0.1072083-0.116806-0.2142944-0.2335052-0.321167-0.3499756
				c-0.2138367-0.2331848-0.4268188-0.4654694-0.6381531-0.6959229c-0.2114258-0.2308044-0.4212036-0.4597626-0.6284485-0.6859894
				c-0.2117004-0.2217255-0.4258423-0.4357147-0.6338501-0.6491852c-0.4176331-0.4239502-0.8200684-0.8413391-1.2046814-1.225174
				c-0.3877869-0.3710175-0.7544556-0.7218323-1.092926-1.0456543c-0.1693726-0.1624298-0.3316956-0.3181-0.486084-0.466156
				c-0.0740967-0.0736389-0.1602783-0.147522-0.2393188-0.2186127c-0.079895-0.071228-0.1574707-0.1403961-0.2326355-0.207428
				c-0.3006592-0.2681122-0.5628052-0.5018616-0.7786865-0.6943512c-0.4317322-0.3849792-0.6784668-0.6049652-0.6784668-0.6049652
				L417.8319092,157.063446z"/>
			<path fill="#232323" d="M436.4071045,176.0392914c0,0,0.1888733,0.271286,0.5193787,0.7460327
				c0.1652527,0.2373657,0.3659363,0.5256042,0.5961304,0.8562317c0.0575256,0.0826569,0.1169434,0.1679688,0.1780701,0.2557831
				c0.0611267,0.0878296,0.1236877,0.1759491,0.1898804,0.2793274c0.1314087,0.2007599,0.2695618,0.4118347,0.4137268,0.6320801
				c0.2882385,0.4414673,0.6004944,0.9197083,0.9307861,1.4255676c0.3112488,0.5038757,0.6394653,1.0352478,0.9790039,1.5849457
				c0.1683655,0.2755127,0.3436279,0.5537415,0.5135803,0.8391876c0.1665649,0.2872314,0.335144,0.5779724,0.5050659,0.8710022
				c0.1699219,0.2933502,0.341217,0.589035,0.5131836,0.8858643c0.085968,0.1485443,0.1721191,0.2973633,0.2583313,0.4463348
				l0.265686,0.4853973c0.3171082,0.5800781,0.6342468,1.1601563,0.9464111,1.7311707
				c0.1556091,0.2762299,0.3121033,0.5917664,0.4659729,0.8903351c0.1539307,0.3009644,0.3059998,0.5982819,0.4555664,0.8907013
				c0.1495056,0.2928619,0.2964783,0.5808105,0.4403687,0.8626862c0.0359802,0.0705109,0.0717468,0.1406555,0.1072693,0.2103729
				c0.0333862,0.0690918,0.0665588,0.1377258,0.0995178,0.2059631c0.0656128,0.1364288,0.1304321,0.2711792,0.1943665,0.404129
				c0.2557678,0.5322723,0.4975891,1.0354767,0.7207947,1.5c0.2276917,0.4632568,0.41745,0.8947601,0.5899963,1.2758942
				c0.1720886,0.3814545,0.3220825,0.7140198,0.4456177,0.9878693c0.2470703,0.5481873,0.3882446,0.8614197,0.3882446,0.8614197
				l-8.5354004,3.3379364c0,0-0.1066589-0.299057-0.293396-0.822403c-0.0933228-0.2618866-0.206665-0.579895-0.3366699-0.9446716
				c-0.1304626-0.3647003-0.2729492-0.7787018-0.4479675-1.2209015c-0.1707458-0.4446564-0.3557129-0.9263458-0.5513306-1.4358521
				c-0.0489197-0.1274872-0.0984802-0.2567139-0.1486511-0.3875427c-0.049469-0.1324615-0.1017151-0.2616882-0.1555786-0.3899841
				c-0.1066895-0.2589417-0.2156982-0.5235291-0.3265381-0.792572c-0.1107483-0.2694702-0.2233887-0.543396-0.3373718-0.8207092
				c-0.1156921-0.2789612-0.222168-0.5526733-0.3616943-0.8560028c-0.264801-0.5944519-0.5338135-1.1983643-0.8028259-1.8022766
				l-0.1777039-0.4002533c-0.0679321-0.1427765-0.1358032-0.2853851-0.2035522-0.4277344
				c-0.1354675-0.2848969-0.2704163-0.5686646-0.4042969-0.8502197c-0.1338806-0.2818451-0.2666931-0.5614471-0.3979187-0.8377228
				c-0.134491-0.2744293-0.2743225-0.5414124-0.4080505-0.8064728c-0.2696228-0.5286713-0.5302429-1.0397186-0.7774048-1.5243378
				c-0.2536011-0.4678345-0.4934082-0.9101715-0.7147522-1.3184662c-0.1106262-0.2046356-0.2166138-0.4007263-0.3174438-0.5872345
				c-0.0477905-0.091568-0.1050415-0.187973-0.158844-0.2804718c-0.0538025-0.092514-0.1060791-0.1823273-0.1567383-0.2693787
				c-0.2025757-0.3482208-0.3792114-0.6517944-0.5246582-0.9017944c-0.2908936-0.5-0.4571533-0.7857208-0.4571533-0.7857208
				L436.4071045,176.0392914z"/>
			<path fill="#232323" d="M448.9264526,199.5177612c0,0,0.1185303,0.3085632,0.3259583,0.8485565
				c0.1036987,0.2700043,0.2296448,0.5978394,0.3740845,0.9739075c0.0722351,0.1883698,0.1490784,0.3888092,0.2301025,0.6001282
				c0.08078,0.2242432,0.1656799,0.460022,0.254303,0.7060394c0.1770325,0.492691,0.3688354,1.0264435,0.5716858,1.5909882
				c0.1046143,0.2843628,0.1966858,0.5678558,0.2970276,0.8612366c0.0990906,0.2927704,0.2003784,0.5918884,0.3033447,0.8960724
				c0.1029358,0.3043823,0.2076111,0.6138306,0.3135376,0.927063c0.1056213,0.3134155,0.2029114,0.6328278,0.3062439,0.9537354
				c0.2029419,0.6425934,0.4142761,1.294754,0.6160583,1.9492188c0.195343,0.6560974,0.3907166,1.3121796,0.5830383,1.9580383
				c0.0480652,0.1615906,0.0959167,0.3225098,0.1435547,0.4826508c0.0450439,0.1606445,0.0898438,0.3204956,0.1343994,0.4793701
				c0.088562,0.3180084,0.1760559,0.6321106,0.2621155,0.9410706c0.1697998,0.6184998,0.3444519,1.2149658,0.4875183,1.7845154
				c0.1478271,0.5690155,0.2875977,1.1070099,0.4165955,1.6036072c0.1320496,0.4963531,0.2419128,0.9532013,0.3391418,1.3582611
				c0.0979004,0.4050598,0.1832886,0.7582092,0.2536011,1.0490265c0.140564,0.5819397,0.2208557,0.9144745,0.2208557,0.9144745
				l-11.0462036,2.1194c0,0-0.0495605-0.3151093-0.136322-0.8665924c-0.043335-0.2758789-0.0959778-0.6108856-0.1563416-0.9951477
				c-0.0596313-0.3845825-0.1270447-0.8185425-0.2123718-1.2889404c-0.0823059-0.4714508-0.1714478-0.9821625-0.2657471-1.5223541
				c-0.0895691-0.5418243-0.2070618-1.1066895-0.3178711-1.694519c-0.056488-0.2936554-0.1139526-0.5922241-0.1721191-0.894455
				c-0.0292969-0.1511078-0.0588074-0.3031311-0.0884094-0.4559174c-0.032135-0.1520386-0.0644226-0.3048553-0.0968628-0.4582825
				c-0.1296082-0.6141357-0.261261-1.2380371-0.3929443-1.8619385c-0.1377258-0.6222229-0.2845764-1.241806-0.4241028-1.8537292
				c-0.0715332-0.3053589-0.1374512-0.6101685-0.211731-0.9081726c-0.0745544-0.2979889-0.1481934-0.5923615-0.2206421-0.881897
				c-0.0724182-0.2897339-0.1436157-0.5746155-0.2133179-0.8534851c-0.0703125-0.27771-0.1359863-0.5557709-0.207489-0.8111115
				c-0.1395874-0.5179291-0.2715149-1.0076141-0.3933411-1.45961c-0.060791-0.2263031-0.1190796-0.4431763-0.1744995-0.6494751
				c-0.0634155-0.216507-0.1235657-0.4218903-0.1800842-0.6149139c-0.1134644-0.3865662-0.2123718-0.7235413-0.2938232-1.0010529
				c-0.1629333-0.5550537-0.2560425-0.8722229-0.2560425-0.8722229L448.9264526,199.5177612z"/>
			<path fill="#232323" d="M456.3651733,225.0168762c0,0,0.2477112,1.2987823,0.6192932,3.2469635
				c0.0928955,0.4870605,0.193512,1.0146942,0.2999573,1.5727539c0.0559387,0.2723999,0.101593,0.581192,0.1514282,0.8890839
				c0.0493774,0.30896,0.099823,0.6246338,0.151123,0.9456329c0.102356,0.6426544,0.2080994,1.3067169,0.3155518,1.9814758
				c0.105835,0.6744843,0.2191467,1.3633423,0.3213196,2.0467987c0.1772766,1.353714,0.3545532,2.7074127,0.520752,3.9765167
				c0.0414429,0.3175964,0.0822144,0.6298981,0.1221008,0.9355774c0.0196533,0.1528931,0.0391235,0.3041382,0.0583496,0.4535522
				c0.0155334,0.1495514,0.0308838,0.297287,0.04599,0.4430237c0.0604248,0.5832062,0.1175537,1.134613,0.1702881,1.6435852
				c0.2102966,2.0379333,0.3504639,3.3965454,0.3504639,3.3965454l-13.3135986,0.6715393
				c0,0-0.0278931-1.278244-0.0697632-3.1956329c-0.0102844-0.4798431-0.0214539-0.9996796-0.0332336-1.5495148
				c-0.0029602-0.1375122-0.0059204-0.2769012-0.0089417-0.4180145c-0.0066528-0.1406708-0.0133972-0.2830658-0.0202332-0.427002
				c-0.0141296-0.2879028-0.028595-0.5820465-0.0432739-0.8811646c-0.0583496-1.1978149-0.1206055-2.4754486-0.1828308-3.7530823
				c-0.0426025-0.6295929-0.0944214-1.2516632-0.1400452-1.8687592c-0.0466919-0.6165466-0.0926208-1.2232819-0.137085-1.8104553
				c-0.0220947-0.2938995-0.0437927-0.582901-0.0650635-0.8657837c-0.0219116-0.2838135-0.0379944-0.5550537-0.0729065-0.8431549
				c-0.0608215-0.5648804-0.1183167-1.0989532-0.1713867-1.5919189c-0.2122498-1.9719238-0.3537598-3.2865448-0.3537598-3.2865448
				L456.3651733,225.0168762z"/>
			<path fill="#232323" d="M459.8590393,251.2541504c0,0,0.0755005,1.3200989,0.1886902,3.3002167
				c0.0283203,0.4950409,0.0589905,1.0313263,0.0914001,1.5985565c0.0071106,0.1438293,0.0185547,0.2809143,0.0224304,0.4356384
				c0.0048828,0.1526184,0.0098267,0.3070984,0.0148621,0.4632568c0.0099487,0.312439,0.0201111,0.6316223,0.0304565,0.9562378
				c0.039917,1.2997742,0.0825195,2.6861877,0.1250916,4.0726013c0.0108948,1.3651123,0.0218201,2.7302246,0.0320129,4.0100098
				c0.0024414,0.3202209,0.0048523,0.6351013,0.0072021,0.9432983c0.0011292,0.1541443,0.0022888,0.3066101,0.003418,0.4572449
				c-0.0021973,0.1504211-0.004364,0.2990112-0.0065002,0.4456177c-0.0089417,0.5865173-0.017395,1.1410522-0.0252075,1.6529236
				c-0.0319824,2.0492249-0.0532837,3.4153442-0.0532837,3.4153442l-15.3794861-1.0213013
				c0,0,0.1233215-1.2722168,0.3083191-3.1805115c0.0464172-0.477478,0.0967407-0.994751,0.1499634-1.5419006
				c0.0132751-0.1368103,0.0267029-0.2755127,0.0403137-0.4159241c0.0103149-0.1404724,0.0206909-0.2826843,0.0312195-0.4264221
				c0.0211182-0.2875977,0.0426636-0.5813599,0.0645752-0.880127c0.0881042-1.1961365,0.1820679-2.4720459,0.2760315-3.7479248
				c0.0639343-1.2557983,0.1278381-2.5115662,0.1877747-3.6888733c0.0151367-0.2946777,0.0299988-0.5844421,0.0445557-0.868042
				c0.0072937-0.1418457,0.0145264-0.2821655,0.0216675-0.4208374c0.0082703-0.1365051,0.0083008-0.2871094,0.0127869-0.4270325
				c0.0137024-0.5679779,0.0266724-1.1049805,0.0386353-1.6006927c0.0478516-1.9827881,0.0797424-3.304657,0.0797424-3.304657
				L459.8590393,251.2541504z"/>
			<path fill="#232323" d="M460.1116638,277.7299194c0,0-0.0741272,1.3200989-0.1853027,3.300293
				c-0.027771,0.4950562-0.0578918,1.0313416-0.0897522,1.5986023c-0.008667,0.1431274-0.0143738,0.2826233-0.0258179,0.434021
				c-0.012146,0.1525879-0.0244141,0.3070374-0.0368042,0.4631958c-0.0249023,0.3123779-0.0503235,0.6315613-0.0761719,0.9560852
				c-0.1046448,1.2995911-0.2162781,2.6858215-0.3278809,4.072052c-0.1389771,1.3612976-0.2779541,2.7225952-0.4082336,3.9988098
				c-0.0327148,0.3193054-0.0649109,0.6332703-0.096405,0.9405823c-0.0157471,0.1536865-0.0313416,0.3057251-0.0467529,0.4559021
				c-0.01828,0.1497803-0.0363464,0.2977295-0.0541382,0.4436951c-0.0726318,0.5838318-0.1412659,1.1358032-0.2046509,1.6453247
				c-0.2544861,2.0396118-0.4241333,3.399353-0.4241333,3.399353l-17.2313232-3.0329285c0,0,0.2595825-1.247406,0.6489258-3.1184998
				c0.0975952-0.4681396,0.2033386-0.9753113,0.315155-1.5117188c0.0276794-0.1342163,0.0557251-0.2702332,0.084137-0.4079285
				c0.0255432-0.1381836,0.0513916-0.2780151,0.0775452-0.4194031c0.0523071-0.2828064,0.1057739-0.5717468,0.1601257-0.8655701
				c0.2180481-1.1762695,0.450592-2.4309387,0.6831665-3.6856079c0.2021179-1.2373047,0.4042358-2.4746094,0.593689-3.634613
				c0.0476379-0.2903442,0.0944824-0.5758362,0.1403198-0.8552551c0.0229492-0.1397705,0.0456543-0.2780457,0.0680847-0.4146423
				c0.0220642-0.1379089,0.0402527-0.2851868,0.0601807-0.4244385c0.0777588-0.5628052,0.1513062-1.0948792,0.2191467-1.5860596
				c0.2715149-1.9646301,0.4525146-3.2743835,0.4525146-3.2743835L460.1116638,277.7299194z"/>
			<path fill="#232323" d="M457.4455872,304.1439209c0,0-0.215332,1.3045654-0.5383301,3.2614441
				c-0.0807495,0.4891968-0.1682129,1.0191956-0.2607422,1.5797424c-0.0234375,0.140625-0.0471802,0.2831116-0.071228,0.4273987
				c-0.028656,0.1514282-0.0576782,0.304718-0.0870056,0.4596558c-0.0587769,0.3099976-0.1188354,0.626709-0.1798706,0.9487915
				c-0.2456665,1.2895508-0.5076904,2.6651001-0.7697449,4.0406494c-0.2869263,1.3459473-0.573822,2.691925-0.842804,3.9537659
				c-0.0675049,0.3156128-0.1338501,0.625946-0.198822,0.929718c-0.0643311,0.3039856-0.1276245,0.6013489-0.1985168,0.8887024
				c-0.1367798,0.5760498-0.2660828,1.1206665-0.3854675,1.6234131c-0.4788208,2.0123596-0.7980347,3.3539429-0.7980347,3.3539429
				l-18.7947998-5.4858093c0,0,0.391571-1.2033081,0.9789429-3.0082397c0.1471558-0.4515991,0.3066101-0.9408264,0.4752502-1.458252
				c0.0868835-0.2580261,0.1669006-0.5259705,0.2483521-0.7999573c0.0821228-0.2738647,0.1660461-0.5536194,0.2514038-0.8381348
				c0.3418579-1.1387939,0.7065125-2.3535156,1.071167-3.5682373c0.3317566-1.1991272,0.6635132-2.3982544,0.9745178-3.5224304
				c0.078125-0.2813721,0.1549072-0.558075,0.2301025-0.8288879c0.0376587-0.135437,0.0748901-0.2694092,0.1116638-0.4017944
				c0.0354004-0.1408386,0.0704041-0.2799683,0.1049194-0.4172363c0.1376953-0.5512085,0.2678833-1.0723267,0.388092-1.5533752
				c0.4806824-1.9242249,0.801178-3.2070007,0.801178-3.2070007L457.4455872,304.1439209z"/>
			<path fill="#232323" d="M451.8936462,330.26651c0,0-0.3601074,1.2722168-0.9002991,3.180542
				c-0.1350098,0.4770813-0.281311,0.993927-0.4360657,1.5405884c-0.0386658,0.1366577-0.0778809,0.275177-0.1175842,0.4154358
				c-0.0462952,0.1488647-0.0931396,0.2995911-0.1405334,0.4519653c-0.0951233,0.3051147-0.1923218,0.6168518-0.2911682,0.9338684
				c-0.3973999,1.2691956-0.8212891,2.6229858-1.2451782,3.9768066c-0.4476318,1.3167725-0.8952332,2.6335449-1.3148804,3.8680115
				c-0.1053162,0.3086548-0.2088623,0.6121521-0.3102112,0.9092102c-0.1014404,0.2970886-0.1985168,0.5884705-0.3053894,0.8683167
				c-0.2078552,0.5617065-0.4043579,1.0927734-0.5857544,1.5829773c-0.7276001,1.9622192-1.2126465,3.2703857-1.2126465,3.2703857
				l-19.8943481-8.5704041c0,0,0.5275574-1.1323242,1.3189087-2.8308105
				c0.1983643-0.4249573,0.4132385-0.8853149,0.6405029-1.3722229c0.1166382-0.2421265,0.2245483-0.4967651,0.3370361-0.7559814
				c0.1125183-0.2593079,0.227478-0.5242004,0.3443604-0.7936096c0.467926-1.0780945,0.967041-2.2280884,1.466156-3.3780518
				c0.4607544-1.1359253,0.9214783-2.2718506,1.3534241-3.336792c0.1085205-0.2664795,0.2151794-0.5285645,0.3196106-0.7850647
				c0.0522766-0.12854,0.1039734-0.2556458,0.1550598-0.3812256c0.0509644-0.1365662,0.1012573-0.2714539,0.1509094-0.404541
				c0.1985779-0.5322876,0.3863525-1.035553,0.5596619-1.5000916c0.6932373-1.8581848,1.1553955-3.0969543,1.1553955-3.0969543
				L451.8936462,330.26651z"/>
			<path fill="#232323" d="M443.2020264,355.8227844c0,0-1.0092163,2.3589478-2.0184021,4.7178955
				c-1.1891785,2.5506897-2.3783264,5.1014099-2.3783264,5.1014099l-20.180603-10.7390137
				c0,0,1.1506042-2.0115051,2.3012085-4.0230103c1.1972656-2.2692261,2.3945313-4.5384827,2.3945313-4.5384827
				L443.2020264,355.8227844z"/>
			<g>
				<polygon fill="#232323" points="415.5201721,345.4092407 413.9651794,382.853363 447.1725769,365.4824829 				"/>
			</g>
		</g>
		<g>
			<path fill="#640657" d="M362.6930542,143.2097931c0,0,0.1514282-0.0525818,0.4192505-0.136795
				c0.1336975-0.042923,0.2961731-0.0952454,0.4837646-0.1501465c0.1874695-0.056076,0.3989563-0.119339,0.6296692-0.1883392
				c0.2319641-0.0646667,0.4833069-0.1347198,0.749115-0.2088165c0.1330566-0.0368805,0.2697449-0.0747528,0.4094543-0.1134644
				c0.1403503-0.0360565,0.2837524-0.0728912,0.4295654-0.1103516c0.2918701-0.0749512,0.5934753-0.1524048,0.8999329-0.2311249
				c0.3079834-0.0725708,0.6208496-0.1463013,0.9337158-0.2200317c0.3132324-0.0723419,0.6260681-0.1483765,0.9352417-0.2166138
				c0.309906-0.0649567,0.6148682-0.1288757,0.9100037-0.1907501c0.2953796-0.0619049,0.5809326-0.1217194,0.8517151-0.1784515
				c0.2709351-0.0564117,0.5287476-0.0991821,0.7659912-0.1443176c0.95047-0.1749115,1.5841064-0.2915344,1.5841064-0.2915344
				l0.1072388,0.8265686c0,0-0.6353149,0.0642548-1.5882874,0.1606445c-0.2381897,0.025528-0.4973145,0.0470734-0.7696838,0.0810547
				c-0.2723999,0.034317-0.5596619,0.0705261-0.856842,0.1079712c-0.2974548,0.0374756-0.6047974,0.0762024-0.9171143,0.1155701
				c-0.3117981,0.0426636-0.6274719,0.0927124-0.9439697,0.1391754c-0.3164063,0.0478668-0.632782,0.0957336-0.9442139,0.142868
				c-0.3104248,0.0533295-0.6159363,0.105835-0.9115906,0.1566315c-0.1479492,0.0254364-0.2934265,0.0504303-0.4358215,0.0748901
				c-0.1418457,0.0271454-0.2806396,0.0537109-0.4157104,0.0795593c-0.2702942,0.0521545-0.5258179,0.1014709-0.7617188,0.1469879
				c-0.2350159,0.0499268-0.4504089,0.0957184-0.6413574,0.1362915c-0.1914063,0.039505-0.3569946,0.0783234-0.4935303,0.110199
				C362.8484497,143.1696167,362.6930542,143.2097931,362.6930542,143.2097931z"/>
			<path fill="#640657" d="M377.1688538,140.1762848c0,0,0.3285828-0.035965,0.9036255-0.098877
				c0.2875061-0.0314484,0.6366272-0.0696564,1.0371094-0.1134644c0.1001282-0.0109711,0.2034607-0.0222626,0.3098145-0.033905
				c0.107666-0.00914,0.2184143-0.0185394,0.3320923-0.028183c0.2275696-0.0191345,0.4668579-0.0392609,0.7165527-0.060257
				c0.2499084-0.0209656,0.5102539-0.0428314,0.7796936-0.0654449c0.2693787-0.020813,0.5489807-0.0505371,0.8344421-0.0636292
				c0.5722046-0.0330658,1.1756592-0.0679321,1.7998657-0.1040039c0.1562195-0.0090027,0.3137207-0.0180817,0.4723816-0.0272369
				c0.1587524-0.0048828,0.318634-0.0098114,0.4794922-0.0147705c0.3219299-0.0097351,0.6477661-0.0196075,0.9762268-0.029541
				c0.3287048-0.009903,0.6600342-0.0198822,0.9926758-0.0299072c0.3327942-0.0116577,0.666687-0.0040741,1.0009155-0.007019
				c0.6689148-0.0001831,1.3378296-0.0003815,1.9962769-0.0005493c0.6586609,0.0191345,1.3068848,0.0379944,1.9342041,0.0562439
				c0.3138123,0.0103455,0.6229248,0.0156097,0.9248962,0.0297699c0.3017883,0.0184021,0.5970154,0.0364075,0.8843994,0.0539398
				c0.5754395,0.0352325,1.1194763,0.0685577,1.6216736,0.0993042c0.1256104,0.0080719,0.2485962,0.0159912,0.3688354,0.0237274
				c0.119873,0.0113525,0.236969,0.0224304,0.3511047,0.0332336c0.2284241,0.021637,0.4450989,0.0421753,0.6487122,0.0614777
				c0.4075317,0.038681,0.7628174,0.0724182,1.0553894,0.1001892c0.5856934,0.0557404,0.9203796,0.0876007,0.9203796,0.0876007
				l-0.4410706,2.882782c0,0-0.3198853-0.0568085-0.8797302-0.1562195
				c-0.2801514-0.0497894-0.6203613-0.1102448-1.0105896-0.1796112c-0.1952515-0.034729-0.4030457-0.0716705-0.6221008-0.1106415
				c-0.1095886-0.0195007-0.2219849-0.0394897-0.3370361-0.059967c-0.1152954-0.0186615-0.2337646-0.0340424-0.3545227-0.0518188
				c-0.4835815-0.0692902-1.0074463-0.1443329-1.5615234-0.2237396c-0.2773743-0.0397797-0.5623169-0.0806427-0.8535461-0.1224213
				c-0.291748-0.0375824-0.5907898-0.066864-0.8945313-0.1016998c-0.6082764-0.0674286-1.2368164-0.1371155-1.8754883-0.2079315
				c-0.6409912-0.0519562-1.2921143-0.1047363-1.9432373-0.1575165c-0.3259583-0.0236511-0.6517334-0.0578461-0.9769592-0.0727844
				c-0.3253174-0.0166016-0.6493225-0.0331421-0.9707947-0.04953c-0.3217773-0.016449-0.6409912-0.0327759-0.9563599-0.0488892
				c-0.1577759-0.0079956-0.3146057-0.0159454-0.4703064-0.0238342c-0.1557922-0.0036469-0.3104553-0.0072937-0.4638062-0.0108795
				c-0.6141357-0.0144653-1.2077942-0.0284424-1.7707214-0.0417023c-0.2823181-0.0100708-0.5539856-0.0030518-0.8183289-0.0041656
				c-0.2641907,0.0006256-0.5194092,0.0012665-0.7644348,0.0018463c-0.2452698,0.0005798-0.4803162,0.0011292-0.7038574,0.0016479
				c-0.1118774,0.0003357-0.2208862,0.0006561-0.3268433,0.0009766c-0.1069641,0.0029755-0.2108765,0.0058441-0.311554,0.0086365
				c-0.40271,0.0111847-0.7537842,0.0209198-1.0429077,0.0289459c-0.5782166,0.016037-0.9086609,0.0252075-0.9086609,0.0252075
				L377.1688538,140.1762848z"/>
			<path fill="#640657" d="M403.0622253,140.6808167c0,0,0.3252869,0.05896,0.8944702,0.1621246
				c0.2846069,0.05159,0.630188,0.114212,1.0265808,0.1860657c0.1994019,0.037735,0.4064636,0.0700836,0.6341248,0.1185303
				c0.2278748,0.0486603,0.4674683,0.0998383,0.7174683,0.1532288c0.5007629,0.1073303,1.0432434,0.2236023,1.6170654,0.3465881
				c0.567749,0.133316,1.1599731,0.2845459,1.776947,0.4356689c0.3080139,0.0768127,0.6211853,0.1549072,0.9382019,0.233963
				c0.3144836,0.0886688,0.632782,0.178421,0.9536438,0.2688751c0.321106,0.0906525,0.6448059,0.1820374,0.9697571,0.2737732
				c0.3250732,0.0918579,0.6526489,0.1809998,0.9743042,0.2883453c0.6468201,0.2063141,1.2936707,0.4126129,1.9303894,0.6157074
				c0.3204041,0.0970917,0.6304932,0.2145996,0.9396667,0.3236389c0.3088379,0.1103973,0.6139526,0.2194519,0.9140625,0.3267212
				c0.3003235,0.1074677,0.5956421,0.2131653,0.8847046,0.3166046c0.0722656,0.026001,0.144104,0.0518799,0.2155762,0.0776215
				c0.0705261,0.0280304,0.140625,0.0559082,0.2102966,0.0836029c0.1394043,0.0554352,0.2770996,0.110199,0.4129639,0.1642303
				c0.5438538,0.216568,1.0580444,0.4213257,1.5326843,0.6103363c0.4780579,0.1826172,0.9030457,0.3795776,1.2839661,0.5456848
				c0.3803711,0.1677246,0.7119751,0.3139496,0.9850769,0.4343719c0.5466003,0.2413025,0.8589478,0.3792114,0.8589478,0.3792114
				l-2.27771,4.4501495c0,0-0.2810974-0.1522217-0.7730408-0.4185638c-0.2461853-0.1334229-0.545105-0.2954254-0.8880005-0.4812622
				c-0.34375-0.1845551-0.7271423-0.4027252-1.1607361-0.6092834c-0.4307556-0.2135162-0.8973999-0.4448242-1.3909607-0.6894836
				c-0.1235352-0.0612793-0.2487183-0.1233826-0.3754578-0.186264c-0.063385-0.0314636-0.1271667-0.0631104-0.1913147-0.0949402
				c-0.0651245-0.0295715-0.1306458-0.0593109-0.1965027-0.0892181c-0.2638245-0.1192169-0.5333862-0.2410278-0.8074951-0.3648987
				c-0.2743225-0.1240845-0.5532532-0.2502289-0.8356018-0.3779297c-0.282959-0.1265869-0.5666504-0.2620239-0.8610229-0.3775482
				c-0.5856934-0.2407532-1.1806641-0.4853363-1.7756348-0.7299194c-0.2962036-0.1268921-0.598938-0.2359161-0.8995056-0.3477631
				c-0.3006897-0.1119232-0.6002502-0.2234192-0.8974304-0.3340149c-0.2974548-0.1108093-0.5925598-0.2207336-0.8841248-0.3293457
				c-0.2947998-0.099411-0.5860291-0.1976013-0.8724976-0.29422c-0.5733948-0.1907654-1.1286011-0.3820801-1.6548157-0.5519562
				c-0.526123-0.158432-1.0235596-0.3082275-1.4827271-0.4465027c-0.2299194-0.0694122-0.4502869-0.1359253-0.6598816-0.199173
				c-0.2098999-0.0632477-0.4231262-0.1148224-0.6158752-0.1678467c-0.3892517-0.103775-0.7286072-0.1942444-1.0080872-0.2687531
				c-0.55896-0.1490173-0.8783569-0.2341766-0.8783569-0.2341766L403.0622253,140.6808167z"/>
			<path fill="#640657" d="M427.9235535,149.1223907c0,0,0.2888794,0.1606598,0.7944336,0.441803
				c0.2527466,0.140564,0.5596924,0.311264,0.9117737,0.5070496c0.0880127,0.0489655,0.1788635,0.099472,0.2723694,0.1514893
				c0.0939331,0.0527496,0.1882629,0.1026611,0.291687,0.1666412c0.2040405,0.1226044,0.4185791,0.2515106,0.6424561,0.3860321
				c0.4481812,0.2700043,0.9337158,0.5625458,1.4472351,0.8719482c0.5013123,0.3163757,1.0181274,0.6564636,1.5597534,1.0056152
				c0.2694702,0.175705,0.5458984,0.3512726,0.8214722,0.5349884c0.2718201,0.1890259,0.546936,0.3803406,0.8242493,0.5731506
				c0.2774963,0.1931458,0.5571899,0.3878326,0.8379822,0.5832977c0.1404724,0.0978546,0.281189,0.1959076,0.4220581,0.2940216
				c0.1418762,0.0969849,0.2762451,0.2035828,0.4148254,0.3050385c0.5507202,0.4113007,1.1014099,0.8226471,1.6435242,1.2275391
				c0.2744751,0.1990051,0.531311,0.4144745,0.7915344,0.6201324c0.2589722,0.2073059,0.5148315,0.4121094,0.7664795,0.6135559
				c0.25177,0.2017212,0.4993591,0.400116,0.7416992,0.5942993c0.1224976,0.0957336,0.2390137,0.1954803,0.3536987,0.2945404
				c0.1151123,0.0986328,0.2288208,0.1960297,0.3410034,0.2921448c0.4489746,0.3850555,0.8734741,0.749115,1.2653198,1.0851593
				c0.3969116,0.3315735,0.7387695,0.6577301,1.0492249,0.9398193c0.309082,0.2836609,0.5785828,0.5309601,0.8005066,0.7346344
				c0.4440308,0.4078979,0.6977539,0.6409912,0.6977539,0.6409912l-5.0718384,4.9428253c0,0-0.2151489-0.2321777-0.5916748-0.638504
				c-0.1883545-0.2034607-0.4170532-0.4504852-0.6794128-0.7338715c-0.2637329-0.2821503-0.5535583-0.609314-0.8926697-0.9415741
				c-0.3345642-0.3377991-0.697052-0.7037506-1.0804138-1.0908051c-0.0959167-0.0969238-0.1931152-0.1951447-0.2915344-0.2946014
				c-0.0979919-0.0999756-0.1976624-0.2006683-0.3029175-0.2972565c-0.2080383-0.196228-0.4205933-0.3967133-0.6367798-0.6006012
				c-0.2162781-0.2041931-0.4361877-0.4117737-0.658783-0.6219177c-0.2239075-0.2087555-0.444397-0.4279022-0.6817322-0.6303558
				c-0.4686279-0.4133759-0.9447021-0.8333435-1.4208069-1.2533112c-0.1200256-0.1038818-0.2360535-0.2131653-0.359375-0.3126678
				c-0.1223755-0.100769-0.2446594-0.2014618-0.3666687-0.3019409c-0.2441711-0.2012024-0.4873657-0.4016266-0.7286987-0.6004791
				c-0.2414551-0.199173-0.4809875-0.3967438-0.7176819-0.5919647c-0.2404785-0.1901703-0.4822693-0.3722992-0.717926-0.5547943
				c-0.4725037-0.3617859-0.9290466-0.7191925-1.3632507-1.0458527c-0.4356079-0.3135223-0.8475037-0.6099701-1.2276611-0.883606
				c-0.1903076-0.1373291-0.3726807-0.2689056-0.5461426-0.3940735c-0.0836182-0.0626221-0.1792603-0.1237946-0.2674255-0.1832275
				c-0.0889893-0.059433-0.175415-0.117157-0.2591858-0.1730804c-0.335022-0.2237091-0.6271057-0.4187469-0.8676147-0.5793915
				c-0.4810791-0.321228-0.7559509-0.5047913-0.7559509-0.5047913L427.9235535,149.1223907z"/>
			<path fill="#640657" d="M448.9558411,165.3323517c0,0,0.224762,0.2424011,0.618042,0.6665955
				c0.1966553,0.2120819,0.4354553,0.4696503,0.7093506,0.7650604c0.0684509,0.0738678,0.1391296,0.1500854,0.2118835,0.2285614
				s0.1469421,0.1570282,0.2268677,0.2502289c0.15802,0.180542,0.3241882,0.3703613,0.4975586,0.5684357
				c0.3468018,0.3971252,0.7225037,0.827301,1.119873,1.2823639c0.3782654,0.4557343,0.7771606,0.9363251,1.1898193,1.4334869
				c0.2050171,0.2494354,0.4172363,0.5006104,0.6252136,0.7596588c0.2048645,0.2613068,0.4122314,0.5257721,0.6212158,0.7923737
				c0.2090759,0.266861,0.4197998,0.5358887,0.6313171,0.8059235c0.1058044,0.1351471,0.211792,0.2705688,0.3179016,0.4060974
				l0.3305664,0.4437561c0.3946533,0.5303802,0.7893066,1.0607452,1.1778259,1.58284
				c0.1924744,0.2519073,0.3912964,0.5426483,0.5851746,0.816925c0.1942749,0.2766418,0.3862,0.549942,0.5749512,0.8187408
				c0.1887512,0.2692413,0.3743286,0.5339508,0.5559998,0.7930908c0.0454102,0.0648346,0.0905762,0.1293335,0.135498,0.1934357
				c0.0426331,0.0637665,0.085022,0.1271362,0.1271667,0.1901398c0.0839233,0.1259766,0.1668396,0.2504272,0.2486267,0.3731842
				c0.3272705,0.4915466,0.6366577,0.9562683,0.9222717,1.3852539c0.2898865,0.4271088,0.5377502,0.828064,0.7616272,1.1815033
				c0.2234192,0.3538513,0.4182129,0.6623383,0.5785828,0.9163666c0.3208618,0.5085297,0.5041809,0.7990875,0.5041809,0.7990875
				l-7.9885864,4.4918518c0,0-0.1472168-0.2813263-0.4048767-0.7736511
				c-0.1288147-0.2463684-0.2852478-0.5455322-0.4646912-0.8887024c-0.1798706-0.3430176-0.37854-0.7332153-0.6133118-1.1467896
				c-0.230896-0.4166107-0.4810181-0.8679199-0.7455444-1.3452911c-0.0661621-0.1194458-0.1332092-0.2405243-0.2010803-0.3631134
				c-0.0674133-0.1243134-0.137085-0.2450104-0.208252-0.3645935c-0.1416321-0.2415924-0.286377-0.4884644-0.4335327-0.7394867
				c-0.1471558-0.2514496-0.2967224-0.5070801-0.4481812-0.7658539c-0.1533203-0.2601776-0.296814-0.5164337-0.4771423-0.7974091
				c-0.3448486-0.5518951-0.6951904-1.1125488-1.0455322-1.6732025l-0.2315979-0.3716888
				c-0.0871277-0.1319427-0.1741638-0.2637482-0.2610474-0.3952789c-0.1737366-0.2633209-0.3468018-0.5255737-0.5185242-0.7857819
				c-0.1717529-0.260498-0.3421631-0.5189362-0.510498-0.7742767c-0.1713257-0.2530823-0.3469238-0.4980316-0.5161743-0.7419434
				c-0.3404846-0.4860687-0.6695862-0.9559326-0.98172-1.4014893c-0.3161621-0.4280396-0.6151123-0.8327484-0.8910522-1.2063293
				c-0.1380005-0.1872711-0.2702332-0.3667297-0.3959961-0.5374146c-0.0600586-0.0840302-0.130127-0.1715546-0.1962891-0.255661
				c-0.0661316-0.084137-0.1304016-0.1658173-0.1926575-0.2449951c-0.2490234-0.3166809-0.466095-0.5927582-0.6448975-0.8201294
				c-0.3575745-0.4546967-0.5619202-0.7145386-0.5619202-0.7145386L448.9558411,165.3323517z"/>
			<path fill="#640657" d="M464.6168823,186.8428955c0,0,0.1602783,0.2891083,0.4407349,0.7950287
				c0.1402283,0.2529755,0.3105164,0.5601349,0.5058289,0.9124756c0.0976868,0.1764832,0.2016602,0.3643036,0.3112793,0.5623016
				c0.111145,0.2108459,0.2280273,0.4325409,0.3499451,0.6638641c0.2438049,0.4632874,0.5079346,0.9651947,0.7872925,1.4960632
				c0.1431274,0.2670746,0.2736816,0.5350189,0.4138489,0.8115997c0.1388245,0.2761688,0.2806702,0.5583038,0.4249268,0.8452148
				c0.1442566,0.2871246,0.2908936,0.57901,0.4393616,0.8744965c0.1481323,0.2956848,0.2888794,0.5984802,0.435791,0.9019012
				c0.2903137,0.6081543,0.5902405,1.2246246,0.881012,1.8446808c0.284668,0.6225739,0.5693054,1.2451477,0.8495483,1.8580017
				c0.0700378,0.1533356,0.139801,0.3060608,0.2092285,0.4580231c0.066925,0.152832,0.1335144,0.3048859,0.199707,0.4560394
				c0.1319275,0.302597,0.262207,0.6014862,0.3903809,0.8954926c0.2540894,0.5888977,0.5099792,1.155304,0.7308044,1.6994476
				c0.2254639,0.5429382,0.4386597,1.0562897,0.635437,1.5301208c0.1997375,0.4732056,0.3720703,0.9103394,0.5246277,1.2979431
				c0.1532593,0.3875275,0.2868958,0.7253876,0.3969421,1.0036011c0.2200623,0.5567627,0.3458252,0.8748932,0.3458252,0.8748932
				l-10.6444397,3.6341248c0,0-0.092865-0.3051605-0.2554321-0.8392334
				c-0.0812683-0.2671814-0.1799622-0.591629-0.2931519-0.9637604c-0.1124878-0.3725586-0.2395935-0.7929382-0.3894348-1.2469177
				c-0.1470337-0.4554291-0.3063049-0.9487915-0.474762-1.4706421c-0.1640015-0.5241241-0.3588562-1.0671692-0.550293-1.6338959
				c-0.0967712-0.2829437-0.1951904-0.5706329-0.2947998-0.8618469c-0.0500183-0.1455536-0.1003418-0.2920227-0.1509094-0.4391937
				c-0.052948-0.1461029-0.1061707-0.2929382-0.1596069-0.4403839c-0.2137146-0.5901642-0.4307861-1.1896973-0.6478882-1.7892456
				c-0.2228699-0.5970612-0.4544373-1.1901855-0.6776428-1.7768097c-0.1132813-0.2924347-0.2209473-0.5851288-0.335907-0.8699188
				c-0.1152649-0.284729-0.2290955-0.5660095-0.3410645-0.8426666c-0.1119995-0.2768707-0.2221069-0.5490875-0.329895-0.8155518
				c-0.1082153-0.2652435-0.2119141-0.5314789-0.3182068-0.7744141c-0.2102051-0.4934845-0.4089355-0.960083-0.5923767-1.3907623
				c-0.0916748-0.2156525-0.1795349-0.4223328-0.263092-0.6189117c-0.092865-0.2055969-0.1809998-0.4006348-0.2637939-0.5839233
				c-0.1661072-0.3670349-0.3108826-0.6869965-0.4301147-0.9505157c-0.2384949-0.5270081-0.3747559-0.8281555-0.3747559-0.8281555
				L464.6168823,186.8428955z"/>
			<path fill="#640657" d="M475.5274658,211.0606537c0,0,0.4258118,1.2517548,1.0645447,3.129364
				c0.1596985,0.4694214,0.3327026,0.977951,0.515686,1.5158081c0.0932312,0.2619781,0.181366,0.5614166,0.2734985,0.8594055
				c0.0918274,0.2991028,0.1856995,0.6046906,0.2810974,0.9154358c0.1906738,0.6221924,0.3876953,1.2651215,0.5878906,1.9184113
				c0.1985474,0.6532135,0.4064941,1.3196259,0.6026917,1.982254c0.363678,1.3159332,0.7273865,2.6318512,1.0683594,3.8655548
				c0.0851746,0.3087463,0.1689453,0.6123657,0.250946,0.9095154c0.040741,0.1486816,0.0810242,0.2957458,0.1208496,0.44104
				c0.0361328,0.1459503,0.0718689,0.2901154,0.1071167,0.4323425c0.1408997,0.5691528,0.2741089,1.107254,0.3970642,1.6039581
				c0.4914856,1.9889374,0.8191223,3.3148804,0.8191223,3.3148804l-13.0910339,2.5154266
				c0,0-0.2052917-1.2619629-0.5132446-3.1549072c-0.0768738-0.4737701-0.1601868-0.9869995-0.248291-1.5298615
				c-0.0220032-0.1357727-0.0443115-0.273407-0.066925-0.4127197c-0.0261536-0.138382-0.0526428-0.2784424-0.0794067-0.4200287
				c-0.0540161-0.2831726-0.1091919-0.5724335-0.1653137-0.8666229c-0.2242737-1.1780701-0.4634705-2.4346466-0.7026978-3.6912384
				c-0.1296692-0.6175537-0.2674561-1.2263947-0.398407-1.8311615c-0.1319275-0.6040649-0.2617493-1.1985168-0.3873901-1.773819
				c-0.0627136-0.2879791-0.1243896-0.5711517-0.1847534-0.8483429c-0.0611267-0.2780151-0.1147766-0.5443726-0.1893921-0.8248291
				c-0.1387329-0.5509491-0.2698975-1.0718384-0.3909607-1.5526428c-0.4842834-1.9232941-0.8071289-3.2054901-0.8071289-3.2054901
				L475.5274658,211.0606537z"/>
			<path fill="#640657" d="M482.6340637,236.557663c0,0,0.2582397,1.2967834,0.6455688,3.2419586
				c0.0968323,0.4862976,0.2017212,1.0131226,0.3126831,1.5703278c0.0270081,0.1414642,0.0574036,0.2756195,0.0827332,0.4283295
				c0.026062,0.1504517,0.0524292,0.3027344,0.0791016,0.4566803c0.0532837,0.3080139,0.1076965,0.6226959,0.1630554,0.9427185
				c0.2202148,1.281601,0.4550781,2.6486206,0.6899414,4.0156708c0.200531,1.3503571,0.401062,2.7007141,0.5890503,3.9666595
				c0.046936,0.3167725,0.0930786,0.6282654,0.1382141,0.933136c0.022583,0.1524811,0.0448914,0.3033142,0.0669556,0.4523315
				c0.0187378,0.1492767,0.0372314,0.2967224,0.055481,0.4421844c0.0726929,0.582077,0.1413879,1.1324158,0.2048035,1.6404114
				c0.2531433,2.0337524,0.4219055,3.3895874,0.4219055,3.3895874l-15.3721619,1.1261597
				c0,0-0.054718-1.2770081-0.1367493-3.1924896c-0.0203552-0.4793091-0.0424194-0.9985504-0.0657654-1.5477753
				c-0.0058899-0.1373444-0.0118408-0.2765656-0.0178833-0.417511c-0.0093384-0.1405334-0.0187988-0.2828217-0.0283508-0.4266205
				c-0.0190735-0.2877045-0.0385742-0.5816345-0.0584106-0.8805695c-0.07901-1.1967621-0.163269-2.4733276-0.2475281-3.7498932
				c-0.1112366-1.2524872-0.2224731-2.5049744-0.3267822-3.679184c-0.0259705-0.2938995-0.0515137-0.5829163-0.0765076-0.8657837
				c-0.0124817-0.14151-0.0248108-0.2814789-0.0370178-0.4197693c-0.0108032-0.1363373-0.0316772-0.2854614-0.0466919-0.4246826
				c-0.0653687-0.5643616-0.1271667-1.0979614-0.1842346-1.5905151c-0.2281799-1.9701843-0.3803406-3.2836609-0.3803406-3.2836609
				L482.6340637,236.557663z"/>
			<path fill="#640657" d="M486.5640259,262.741333c0,0,0.1100769,1.317627,0.2752075,3.2940369
				c0.0412903,0.4941101,0.0859985,1.0293884,0.1333008,1.5955505c0.0112915,0.1429443,0.0250244,0.2818909,0.034729,0.4333801
				c0.0091858,0.1528015,0.0185242,0.3074951,0.0279541,0.4638367c0.0187683,0.3128357,0.0379333,0.6324158,0.0574341,0.9573975
				c0.0769958,1.3015137,0.1591492,2.6898193,0.241272,4.0780945c0.0515747,1.3674011,0.1031494,2.7348022,0.1515198,4.0167542
				c0.0119629,0.3207397,0.0237427,0.6361084,0.0352783,0.9448242c0.0057373,0.1543884,0.0114441,0.3070984,0.0170288,0.4579773
				c0.0027161,0.1508789,0.0054016,0.2998962,0.0080566,0.4469299c0.0092468,0.5882263,0.0179443,1.1444092,0.026001,1.6578064
				c0.0314941,2.0551758,0.0524597,3.4253235,0.0524597,3.4253235l-17.4856262-0.6085815
				c0,0,0.0837097-1.2713623,0.2092285-3.1784363c0.0315857-0.4771729,0.0657959-0.9940796,0.1019897-1.5408325
				c0.008728-0.1367493,0.0176086-0.2753601,0.0266113-0.4156799c0.006073-0.1403809,0.0122681-0.2824402,0.0184937-0.4260864
				c0.0125122-0.2873535,0.0252991-0.5809021,0.0382996-0.879425c0.0523987-1.1951599,0.1083374-2.4700012,0.1642761-3.7447815
				c0.0281677-1.253418,0.0563354-2.5068054,0.0827332-3.6818542c0.0068359-0.2941589,0.0135498-0.583374,0.0201111-0.8664856
				c0.0032959-0.1416016,0.0065613-0.2816772,0.0097961-0.4200745c0.002655-0.1396179,0.0002136-0.2880249,0.0005798-0.4286804
				c-0.0011902-0.5681458-0.0023193-1.1052856-0.0033875-1.6011353c-0.0041809-1.9832764-0.0069885-3.305481-0.0069885-3.305481
				L486.5640259,262.741333z"/>
			<path fill="#640657" d="M487.5950317,289.2695313c0,0-0.0319214,1.3218384-0.0798035,3.3045959
				c-0.0119629,0.495697-0.0249329,1.0326843-0.0386353,1.6006775c-0.0036621,0.1424866-0.0073853,0.2869263-0.0111389,0.433136
				c-0.0073547,0.1539307-0.0147705,0.3097839-0.0223083,0.4672852c-0.0151062,0.3151855-0.0305481,0.637146-0.0462341,0.9645996
				c-0.0640564,1.3111877-0.1323547,2.7097778-0.2006836,4.1083984c-0.0970459,1.3727722-0.1941223,2.7455444-0.2850952,4.0325317
				c-0.0229797,0.3219299-0.0455627,0.6384888-0.0676575,0.9483337c-0.0214539,0.309967-0.0428162,0.6132507-0.0730896,0.9076538
				c-0.0553894,0.5894775-0.1077271,1.1467896-0.1560669,1.6612549c-0.1944885,2.0593872-0.3241577,3.4322815-0.3241577,3.4322815
				l-19.3748169-2.820343c0,0,0.22052-1.2460022,0.5513-3.1150818c0.0829773-0.4676514,0.1728821-0.9743042,0.2679749-1.5101624
				c0.0501709-0.2675781,0.0921631-0.5440369,0.1347351-0.8266907c0.0433044-0.2826233,0.0875244-0.5713501,0.1325073-0.8649597
				c0.1802368-1.1752625,0.3725281-2.428833,0.5648193-3.6824646c0.1618652-1.2335815,0.3237305-2.4672241,0.4754944-3.6237183
				c0.0382385-0.2894897,0.0758362-0.5741577,0.1126709-0.8527832c0.0184326-0.1393738,0.0366821-0.2772217,0.054718-0.4134216
				c0.0155029-0.1444092,0.0307922-0.2870483,0.0458984-0.4277649c0.0597534-0.5650024,0.116272-1.0991821,0.1684265-1.5922546
				c0.2085876-1.9723511,0.3476868-3.2872009,0.3476868-3.2872009L487.5950317,289.2695313z"/>
			<path fill="#640657" d="M485.7276611,315.9102478c0,0-0.1797791,1.309906-0.4494629,3.2747803
				c-0.0674438,0.4912109-0.1404724,1.0233765-0.2177429,1.5862427c-0.0192871,0.1407166-0.0388794,0.2833557-0.0586853,0.4277344
				c-0.0251465,0.1538696-0.0506287,0.3096313-0.076355,0.4671021c-0.0518188,0.3153992-0.1047363,0.6376343-0.1585693,0.9653015
				c-0.2171326,1.3121033-0.448761,2.7116699-0.6803589,4.1112671c-0.2602539,1.3662109-0.5205078,2.7324219-0.7645264,4.0132446
				c-0.0614014,0.320282-0.1217346,0.6352234-0.1808167,0.9434814c-0.0591431,0.3083191-0.1148071,0.6103516-0.1817627,0.9023438
				c-0.1277466,0.585144-0.2485352,1.1383667-0.3600159,1.6490173c-0.4478149,2.0443115-0.7463684,3.4071655-0.7463684,3.4071655
				l-20.8924255-5.7221375c0,0,0.3650818-1.1946716,0.9126892-2.9866638c0.1373596-0.4483948,0.2861633-0.9341431,0.443573-1.447937
				c0.0818176-0.2559814,0.1532898-0.5231323,0.2286682-0.7954712c0.0753784-0.2724304,0.1524048-0.5507507,0.2307129-0.8337708
				c0.3135376-1.1326904,0.6479797-2.3408508,0.9823914-3.5490417c0.2984009-1.1889343,0.5968018-2.3778687,0.8765564-3.4924927
				c0.0704041-0.2789917,0.1396179-0.5533447,0.2073669-0.8218994c0.033905-0.1345215,0.0674438-0.2676086,0.1005859-0.3990784
				c0.0314636-0.1423035,0.062561-0.2828674,0.0932312-0.4215698c0.1226807-0.554718,0.2386475-1.0791931,0.3457031-1.5632935
				c0.4282532-1.9365234,0.7137451-3.2275085,0.7137451-3.2275085L485.7276611,315.9102478z"/>
			<path fill="#640657" d="M480.6723938,342.4265137c0,0-0.6715088,2.4762878-1.3430481,4.9526062
				c-0.8231506,2.6912231-1.6462402,5.3824463-1.6462402,5.3824463l-21.4773254-7.8299561
				c0,0,0.8598633-2.151886,1.7197266-4.303772c0.8702698-2.4136353,1.7405396-4.82724,1.7405396-4.82724L480.6723938,342.4265137z"
				/>
			<g>
				<polygon fill="#640657" points="451.8118591,335.9614258 455.4762268,373.2582397 485.9470215,351.4405823 				"/>
			</g>
		</g>
		<g>
			<path opacity="0.1" fill="#232323" d="M182.8585358,147.1118622l-13.6178741,1.7408142l0.2433777,1.9036102l-0.3576813,0.0973969
				l0.6971588,2.5587311l5.3209534,41.6235657c-3.7494507,2.3309174-7.080246,4.7020569-9.4968414,6.9659729
				c-1.4116669,0.1896667-2.7867584,0.4205017-4.1156464,0.7007446
				c-17.9660034,3.7896271-21.2336426,7.8573761-38.5957794,18.2762299l-0.8450623-4.0061493
				c-0.8091583-3.8365631-4.5755005-6.287735-8.4113312-5.4785767l-20.4215698,4.307373
				c-1.1024475-1.2619171-2.5180359-1.9195251-3.8881302-1.6305389L-29.4881802,239.157959l3.3505344,47.1552734
				l9.6758862,45.8735962l125.1730042-26.3188477c1.4610291-0.308197,2.5342865-1.6222534,2.990036-3.3865662l20.2683868-4.2751465
				c3.8358765-0.8091125,6.2911377-4.5739136,5.4827576-8.4067688l-1.6278687-7.7171021
				c9.6865997-2.4069824,17.9486389-4.1782837,22.9346008-4.6764832
				c20.8691254-2.0856323,70.3583832-4.6488647,78.2236633-9.0873413
				c6.5112762-3.6745911,18.5679016-24.7102661,22.6691284-37.3930511c0.3519897-1.0882721,0.6438599-2.1134186,0.8701172-3.0624237
				l107.7781372-13.7782135l-2.9989624-23.4597473l-9.2722778-64.9584732L182.8585358,147.1118622z"/>
			<path fill="#E9C4AC" d="M200.6745148,171.1880035c0,0-44.8579407,18.4617615-47.0459747,29.4237061
				c-2.1878662,10.9621429,27.1074371,18.2834778,27.1074371,18.2834778s21.8451843-3.1076813,23.2421265-7.1524353
				C205.3752441,207.697876,200.6745148,171.1880035,200.6745148,171.1880035z"/>
			<g>
				
					<rect x="166.09198" y="129.4104614" transform="matrix(0.9919285 -0.1267987 0.1267987 0.9919285 -20.0075951 34.4617538)" fill="#FFFFFF" width="189.1810303" height="89.9476471"/>
				<g>
					<path fill="none" d="M342.2083435,147.3210144c-9.8557739,1.2588501-18.8659363-5.708374-20.1257629-15.5640259
						c-0.0303345-0.2366028-0.0333557-0.4704437-0.054657-0.7061462l-131.4476929,16.8030243
						c0.0370026,0.2198944,0.0887909,0.433609,0.1178589,0.6575928c1.2591095,9.8557281-5.707901,18.8653107-15.5625763,20.1256104
						c-0.1354218,0.0174255-0.2688751,0.0149994-0.402359,0.0312195l4.2386017,33.1550293
						c0.1333008-0.019928,0.2619629-0.0529022,0.3968964-0.0698242c9.8549194-1.2597504,18.8645325,5.7071381,20.1248016,15.5616608
						c0.0163269,0.1282806,0.0161743,0.2512054,0.0294495,0.3786469l131.4140778-16.7992096
						c-0.0158691-0.1120148-0.0444641-0.2209473-0.0592651-0.3330536
						c-1.259613-9.8540039,5.7088318-18.864151,15.5642395-20.1241302c0.0774536-0.0099182,0.1539612-0.0090637,0.2307129-0.0185547
						l-4.2371216-33.139389C342.3598938,147.2909851,342.2866516,147.3113403,342.2083435,147.3210144z"/>
					<path fill="#AAC9CA" d="M322.5949097,124.6398087l-134.1624451,17.1500626l-23.0965881,2.9529572l2.9984131,23.4533081
						l4.5625916,35.6934204l2.9623413,23.1687164l23.1999054-2.9665527L332.98349,206.9714203l23.0454712-2.9457245
						l-2.9638367-23.1888123l-4.5471191-35.5701141l-3.012085-23.5557251L322.5949097,124.6398087z M346.6726685,180.4188538
						c-0.0767517,0.009491-0.1532593,0.0086365-0.2307129,0.0185547
						c-9.8554077,1.2599792-16.8238525,10.2701263-15.5642395,20.1241302
						c0.014801,0.1121063,0.043396,0.2210388,0.0592651,0.3330536l-131.4140778,16.7992096
						c-0.0132751-0.1274414-0.0131226-0.2503662-0.0294495-0.3786469
						c-1.2602692-9.8545227-10.2698822-16.8214111-20.1248016-15.5616608
						c-0.1349335,0.016922-0.2635956,0.0498962-0.3968964,0.0698242l-4.2386017-33.1550293
						c0.1334839-0.0162201,0.2669373-0.0137939,0.402359-0.0312195
						c9.8546753-1.2602997,16.8216858-10.2698822,15.5625763-20.1256104
						c-0.029068-0.2239838-0.0808563-0.4376984-0.1178589-0.6575928l131.4476929-16.8030243
						c0.0213013,0.2357025,0.0243225,0.4695435,0.054657,0.7061462c1.2598267,9.8556519,10.269989,16.822876,20.1257629,15.5640259
						c0.0783081-0.0096741,0.1515503-0.0300293,0.2272034-0.0415497L346.6726685,180.4188538z"/>
				</g>
				<g>
					<circle fill="#AAC9CA" cx="260.6826172" cy="174.3837891" r="29.1272106"/>
					<path fill="#FFFFFF" d="M263.1539917,179.4135437c2.6757202-0.3573456,4.898468-0.9915009,6.6063232-1.884201
						c1.7347717-0.9062805,3.197937-2.1298523,4.3494568-3.6359863c0.9353333-1.2236481,1.6194763-2.6373901,2.0337524-4.2030945
						c0.4136353-1.5637512,0.5083313-3.2167053,0.2816162-4.9141846c-0.3045654-2.2805023-0.981781-4.1383209-2.0126953-5.5222626
						c-1.0235596-1.3711853-2.3663025-2.4755096-3.9909973-3.2823181c-1.3703613-0.6821289-2.901123-1.115448-4.5491333-1.2876434
						c-1.6100464-0.1685028-3.5563965-0.102829-5.7850342,0.1947937l-9.7909088,1.3075714
						c-0.5207214,0.0695343-0.8862457,0.548111-0.8167572,1.0685272l2.3516388,17.6087799l-2.4584656,0.3283234
						c-0.5207214,0.0695496-0.8862457,0.548111-0.8167572,1.0685272l0.5505219,4.1222076
						c0.0695038,0.5204163,0.5478058,0.8862915,1.0685272,0.8167419l2.4584656-0.3283234l0.1955566,1.4642792l-2.4584656,0.3283234
						c-0.5207214,0.0695496-0.886261,0.548111-0.8167572,1.0685272l0.5505981,4.122818
						c0.0695038,0.5204163,0.5478058,0.8862915,1.0685272,0.8167419l2.4584656-0.3283234l0.6654968,4.9832153
						c0.0695038,0.5204163,0.5478058,0.8862915,1.0685272,0.8167572l4.7923431-0.6400146
						c0.5207214-0.0695496,0.886261-0.548111,0.8167725-1.0685272l-0.6654968-4.9832153l15.8048096-2.1107178
						c0.5207214-0.0695496,0.886261-0.548111,0.8167419-1.0685272l-0.5505676-4.122818
						c-0.069519-0.520401-0.547821-0.8862915-1.0685425-0.8167419l-15.8048401,2.1107178l-0.2024231-1.5158386
						L263.1539917,179.4135437z M260.631897,160.9211578c1.4348145-0.1916199,2.644928-0.2464142,3.597168-0.1624451
						c0.9168091,0.0805664,1.7651978,0.2895813,2.4776611,0.6010742c0.7922668,0.3970184,1.4115906,0.9464569,1.8925171,1.6780243
						c0.4892273,0.744812,0.8106079,1.6732178,0.9558411,2.7606812c0.1270447,0.9512329,0.1047974,1.8324585-0.0656738,2.6210327
						c-0.1620178,0.7512207-0.5447998,1.5075531-1.1516418,2.2650909c-0.5545349,0.726181-1.3448181,1.3239441-2.3492126,1.7778931
						c-1.0648499,0.4807587-2.5461731,0.8503723-4.4028931,1.0983276l-3.0767822,0.4109039l-1.6751404-12.543335
						L260.631897,160.9211578z"/>
				</g>
			</g>
			<g>
				<path fill="#FDD6B7" d="M108.5144501,217.601532c23.1526184-13.2216339,24.9715271-17.7745361,44.9294586-21.9841614
					c19.9579773-4.2096252,50.074707,2.4087677,65.7153168,1.8889465
					c15.6403503-0.5194397,34.7564697-8.7204132,38.911087-10.9864807
					c4.1543884-2.2659912,24.7668457-3.3711853,26.0799866,11.6387634
					c0.8022156,9.1708221-15.2753906,16.1951141-31.4621582,21.4454346c0,0-20.3522797,5.2337494-25.6502533,8.6673889
					c-5.2978973,3.4336243-21.6590118,11.5171814-32.466156,15.1860809c0,0,24.8121796-7.5495911,33.0274506-12.5249786
					c6.1428528-3.7203522,15.6659698-7.3760529,23.9647522-7.0924225
					c-4.1012421,12.6828308-16.1578522,33.7184601-22.6690674,37.3929596
					c-7.8653259,4.4384766-57.3546448,7.0018616-78.2236633,9.0873718
					c-10.9135742,1.0906677-37.5174484,8.2781372-60.4164124,14.8872681l-11.9946899-56.8671417
					C89.2325592,225.7635498,100.3497772,222.2641296,108.5144501,217.601532z"/>
			</g>
			<path fill="#E9C4AC" d="M227.5991821,230.9325256c-8.215271,4.9753876-33.0274506,12.5249786-33.0274506,12.5249786
				c10.8071442-3.6688995,27.1682587-11.7524567,32.466156-15.1860809
				c5.2979736-3.4336395,25.6502533-8.6673889,25.6502533-8.6673889c-0.23909,1.255249-0.6219177,2.6831512-1.1242065,4.2360687
				C243.265152,223.5564728,233.7420349,227.2121735,227.5991821,230.9325256z"/>
			<g>
				<g>
					<g>
						<path fill="#C0DFDA" d="M121.6833191,246.298172l7.6810303,36.4159698
							c0.8084259,3.8327942-1.6468811,7.5976563-5.4826965,8.4067383l-27.7235718,5.8475647
							c-3.8366394,0.8092651-7.6025085-1.6434326-8.4109116-5.4761047l-7.6810532-36.4160767l9.4618988-1.9957581
							L121.6833191,246.298172z"/>
						<path fill="#FFFFFF" d="M114.0031662,209.8873138l7.6801529,36.4108582l-32.155304,6.7823334l-9.4618988,1.9957581
							l-7.6799316-36.4107666c-0.8092422-3.8366547,1.6455231-7.5999451,5.4821625-8.4091797l27.7234421-5.8475647
							C109.4276047,203.5996857,113.1939468,206.0507965,114.0031662,209.8873138z"/>
					</g>
					
						<ellipse transform="matrix(-0.2063837 -0.9784712 0.9784712 -0.2063837 -93.0290909 359.0461731)" fill="#640657" cx="99.0926514" cy="217.25" rx="6.885684" ry="6.8925991"/>
				</g>
				<g>
					<path fill="#FF9600" d="M-18.2556553,323.7739258l118.8788528-24.9913025
						c2.4104691-0.5084534,3.7688751-3.7527466,3.0321884-7.2453613l-8.3367386-39.5247345l-123.2501831,25.8877716
						L-18.2556553,323.7739258z"/>
					<path fill="#FFB74F" d="M95.3186493,252.0125275l-8.3367386-39.5247192
						c-0.7364578-3.4915619-3.2893906-5.9105835-5.6998672-5.4021606l-118.8583069,24.986969l9.6652756,45.823349
						L95.3186493,252.0125275z"/>
				</g>
			</g>
		</g>
	</g>
</g>
</svg>
