<?xml version="1.0" encoding="utf-8"?>
<!-- Generator: Adobe Illustrator 17.1.0, SVG Export Plug-In . SVG Version: 6.00 Build 0)  -->
<!DOCTYPE svg PUBLIC "-//W3C//DTD SVG 1.1//EN" "http://www.w3.org/Graphics/SVG/1.1/DTD/svg11.dtd" [
	<!ENTITY ns_flows "http://ns.adobe.com/Flows/1.0/">
	<!ENTITY ns_extend "http://ns.adobe.com/Extensibility/1.0/">
	<!ENTITY ns_ai "http://ns.adobe.com/AdobeIllustrator/10.0/">
	<!ENTITY ns_graphs "http://ns.adobe.com/Graphs/1.0/">
	<!ENTITY ns_vars "http://ns.adobe.com/Variables/1.0/">
	<!ENTITY ns_imrep "http://ns.adobe.com/ImageReplacement/1.0/">
	<!ENTITY ns_sfw "http://ns.adobe.com/SaveForWeb/1.0/">
	<!ENTITY ns_custom "http://ns.adobe.com/GenericCustomNamespace/1.0/">
	<!ENTITY ns_adobe_xpath "http://ns.adobe.com/XPath/1.0/">
]>
<svg version="1.1" id="Layer_1" xmlns:x="&ns_extend;" xmlns:i="&ns_ai;" xmlns:graph="&ns_graphs;"
	 xmlns="http://www.w3.org/2000/svg" xmlns:xlink="http://www.w3.org/1999/xlink" xmlns:a="http://ns.adobe.com/AdobeSVGViewerExtensions/3.0/"
	 x="0px" y="0px" viewBox="0 0 600 600" enable-background="new 0 0 600 600" xml:space="preserve">
<metadata>
	<sfw  xmlns="&ns_sfw;">
		<slices></slices>
		<sliceSourceBounds  width="2974.6374512" height="7714.9975586" x="-166.0068359" y="-7810.9975586" bottomLeftOrigin="true">
			</sliceSourceBounds>
	</sfw>
</metadata>
<g>
	<defs>
		<circle id="SVGID_46_" cx="300" cy="300" r="298"/>
	</defs>
	<clipPath id="SVGID_2_">
		<use xlink:href="#SVGID_46_"  overflow="visible"/>
	</clipPath>
	<g clip-path="url(#SVGID_2_)">
		<radialGradient id="SVGID_4_" cx="317.4719849" cy="-1672.2503662" r="2257.3154297" gradientUnits="userSpaceOnUse">
			<stop  offset="0" style="stop-color:#CAFFFF"/>
			<stop  offset="0.994739" style="stop-color:#9ACAEE"/>
			<a:midPointStop  offset="0" style="stop-color:#CAFFFF"/>
			<a:midPointStop  offset="0.5" style="stop-color:#CAFFFF"/>
			<a:midPointStop  offset="0.994739" style="stop-color:#9ACAEE"/>
		</radialGradient>
		<rect x="-22.2660217" y="-17.2501373" fill="url(#SVGID_4_)" width="644.5320435" height="413.8576965"/>
		<radialGradient id="SVGID_6_" cx="317.4719849" cy="-1266.0216064" r="2257.3154297" gradientUnits="userSpaceOnUse">
			<stop  offset="0" style="stop-color:#C4FFA7"/>
			<stop  offset="0.994739" style="stop-color:#91C547"/>
			<a:midPointStop  offset="0" style="stop-color:#C4FFA7"/>
			<a:midPointStop  offset="0.5" style="stop-color:#C4FFA7"/>
			<a:midPointStop  offset="0.994739" style="stop-color:#91C547"/>
		</radialGradient>
		<rect x="-22.2660217" y="388.9788818" fill="url(#SVGID_6_)" width="644.5320435" height="413.8576965"/>
		<g>
			<path fill="#8BC53F" d="M71.6265717,240.5418091c3.9594116-3.7854156,6.4367752-9.1070709,6.4367752-15.0155945
				c0-11.4782257-9.3065948-20.7848206-20.7870827-20.7848206c-7.5239449,0-14.0933876,4.0113678-17.7423782,9.9977112
				c-1.9624939-1.2398071-4.2836189-1.969101-6.7772293-1.969101c-7.0206261,0-12.7135429,5.6914215-12.7135429,12.7150421
				c0,2.2610321,0.5978222,4.381134,1.633007,6.2225342c-9.5127325,3.0048828-16.4116611,11.8963623-16.4116611,22.4032593
				c0,3.11203,0.6184068,6.0742493,1.7166944,8.7930603C0.2596632,267.9937439-4.103138,276.0370789-4.103138,285.1192017
				c0,1.7709351,0.182709,3.4980164,0.4982226,5.1763916c-10.1225872,1.5097961-17.8959389,10.2164917-17.8959389,20.7598877
				c0,9.6706543,6.5380411,17.7916565,15.4280109,20.2420044c-0.0360584,0.591217-0.0902967,1.1766968-0.0902967,1.7752686
				c0,7.276062,2.6681929,13.9182129,7.0589395,19.0418701c-0.0470265,0.6087646-0.092539,1.2192383-0.092539,1.8412476
				c0,12.8221436,10.3931541,23.2145691,23.2145748,23.2145691c1.8993912,0,3.7377949-0.2524109,5.5051098-0.6851196
				c1.7737865,7.1702881,8.2318974,12.4934387,15.949522,12.4934387c9.082119,0,16.4462051-7.3625793,16.4462051-16.446228
				c0-2.1040039-0.4094162-4.1082764-1.1290855-5.9568787c6.3304024-4.6101074,10.4621315-12.06073,10.4621315-20.4898987
				c0-5.5842896-1.8259277-10.7285156-4.8822021-14.9174805c6.9297485-5.224762,11.4304581-13.5014343,11.4304581-22.8491821
				c0-8.8958435-4.0561523-16.8437805-10.4203491-22.0964661c2.8472748-3.803009,4.5535965-8.5100098,4.5535965-13.627655
				c0-0.5369568-0.043251-1.0637207-0.0799255-1.59198c3.7912827-3.9101257,6.135231-9.231781,6.135231-15.1079865
				C77.9885254,249.8997955,75.5580215,244.4710083,71.6265717,240.5418091z"/>
			<g>
				<defs>
					<rect id="SVGID_50_" x="61.7233353" y="241.5827942" width="241.0251312" height="153.0697479"/>
				</defs>
				<clipPath id="SVGID_8_">
					<use xlink:href="#SVGID_50_"  overflow="visible"/>
				</clipPath>
				<g clip-path="url(#SVGID_8_)">
					<rect x="55.8353806" y="382.0563049" fill="#F1D085" width="248.3407135" height="9.9274082"/>
					<rect x="55.8353806" y="379.4124451" fill="#D1B062" width="248.3407135" height="2.6438534"/>
					<rect x="55.8353806" y="369.4850159" fill="#F1D085" width="248.3407135" height="9.9274082"/>
					<rect x="55.8353806" y="366.8428955" fill="#D1B062" width="248.3407135" height="2.6423509"/>
					<rect x="55.8353806" y="356.914032" fill="#F1D085" width="248.3407135" height="9.9287605"/>
					<rect x="55.8353806" y="354.2715149" fill="#D1B062" width="248.3407135" height="2.6425011"/>
					<rect x="55.8353806" y="344.3443909" fill="#F1D085" width="248.3407135" height="9.9274082"/>
					<rect x="55.8353806" y="341.700531" fill="#D1B062" width="248.3407135" height="2.6438534"/>
					<rect x="55.8353806" y="331.7731934" fill="#F1D085" width="248.3407135" height="9.9272585"/>
					<rect x="55.8353806" y="329.1291809" fill="#D1B062" width="248.3407135" height="2.6440036"/>
					<rect x="55.8353806" y="319.2019043" fill="#F1D085" width="248.3407135" height="9.9272585"/>
					<rect x="55.8353806" y="316.5591125" fill="#D1B062" width="248.3407135" height="2.6425011"/>
					<rect x="55.8353806" y="306.6320801" fill="#F1D085" width="248.3407135" height="9.9272585"/>
					<rect x="55.8353806" y="303.9880676" fill="#D1B062" width="248.3407135" height="2.6440036"/>
					<rect x="55.8353806" y="294.060791" fill="#F1D085" width="248.3407135" height="9.9272585"/>
					<rect x="55.8353806" y="291.4167786" fill="#D1B062" width="248.3407135" height="2.6440036"/>
					<rect x="55.8353806" y="281.489502" fill="#F1D085" width="248.3407135" height="9.9272585"/>
					<rect x="55.8353806" y="278.8471985" fill="#D1B062" width="248.3407135" height="2.6425011"/>
					<rect x="55.8353806" y="268.9196777" fill="#F1D085" width="248.3407135" height="9.9272585"/>
					<rect x="55.8353806" y="266.2756653" fill="#D1B062" width="248.3407135" height="2.6440036"/>
					<rect x="55.8353806" y="256.3483887" fill="#F1D085" width="248.3407135" height="9.9272585"/>
					<rect x="55.8353806" y="253.704361" fill="#D1B062" width="248.3407135" height="2.6440036"/>
					<rect x="55.8353806" y="243.7770996" fill="#F1D085" width="248.3407135" height="9.9272585"/>
					<rect x="55.8353806" y="241.1330719" fill="#D1B062" width="248.3407135" height="2.6440036"/>
					<rect x="55.8353806" y="231.2058105" fill="#F1D085" width="248.3407135" height="9.9272585"/>
					<rect x="55.8353806" y="228.5635223" fill="#D1B062" width="248.3407135" height="2.6425011"/>
					<rect x="55.8353806" y="218.6364746" fill="#F1D085" width="248.3407135" height="9.9272585"/>
					<rect x="55.8353806" y="215.9924469" fill="#D1B062" width="248.3407135" height="2.6440036"/>
					<rect x="55.8353806" y="206.0651855" fill="#F1D085" width="248.3407135" height="9.9272585"/>
					<rect x="55.8353806" y="203.4211578" fill="#D1B062" width="248.3407135" height="2.6440036"/>
					<rect x="55.8353806" y="193.4938965" fill="#F1D085" width="248.3407135" height="9.9272585"/>
					<rect x="55.8353806" y="190.85112" fill="#D1B062" width="248.3407135" height="2.6425011"/>
					<rect x="55.8353806" y="180.9240723" fill="#F1D085" width="248.3407135" height="9.9272585"/>
					<rect x="55.8353806" y="178.2800446" fill="#D1B062" width="248.3407135" height="2.6440036"/>
					<rect x="55.8353806" y="168.3527832" fill="#F1D085" width="248.3407135" height="9.9272585"/>
					<rect x="55.8353806" y="165.7088318" fill="#D1B062" width="248.3407135" height="2.6438534"/>
					<rect x="55.8353806" y="155.7814178" fill="#F1D085" width="248.3407135" height="9.9274082"/>
					<rect x="55.8353806" y="153.139267" fill="#D1B062" width="248.3407135" height="2.6423509"/>
					<rect x="55.8353806" y="143.2104187" fill="#F1D085" width="248.3407135" height="9.9287605"/>
					<rect x="55.8353806" y="140.5679169" fill="#D1B062" width="248.3407135" height="2.6425011"/>
					<rect x="55.8353806" y="130.6403046" fill="#F1D085" width="248.3407135" height="9.9274082"/>
				</g>
			</g>
			<rect x="61.7233353" y="241.5827942" opacity="0.17" fill="#1A1A1A" width="241.0251312" height="153.0697479"/>
			<rect x="61.7233124" y="179.0597534" fill="#A62227" width="260.9255676" height="62.5230675"/>
			<g>
				<path fill="#4D4D4D" d="M55.8353691,394.6525879v-5.6840515c0-2.6908569,2.3959503-4.8727112,5.3539658-4.8727112h226.169281
					c2.9565125,0,5.3539734,2.1818542,5.3539734,4.8727112v5.6840515H55.8353691z"/>
				<rect x="55.8353882" y="392.5444336" fill="#1A1A1A" width="236.8771973" height="2.1083817"/>
			</g>
			<rect x="100.7282867" y="269.5375061" fill="#A62227" width="122.7514267" height="15.6398563"/>
			<rect x="100.7282867" y="285.1774292" fill="#C0272D" width="122.7514267" height="15.6392555"/>
			<rect x="100.7282867" y="300.8165894" fill="#A62227" width="122.7514267" height="15.6392555"/>
			<rect x="100.7282867" y="316.4558716" fill="#C0272D" width="122.7514267" height="15.640007"/>
			<rect x="100.7282867" y="332.0958862" fill="#A62227" width="122.7514267" height="15.6392555"/>
			<rect x="100.7282867" y="347.7351379" fill="#C0272D" width="122.7514267" height="15.6391048"/>
			<rect x="100.7282867" y="363.3739624" fill="#A62227" width="122.7514267" height="15.6407576"/>
			<rect x="100.7282867" y="379.0146179" fill="#C0272D" width="122.7514267" height="15.6377535"/>
			<polygon fill="#42210B" points="556.1959229,153.3186493 568.6865234,396.6076965 543.7038574,396.6076965 			"/>
			<g>
				<circle fill="#8BC53F" cx="570.5095215" cy="249.84375" r="16.4469051"/>
				<circle fill="#8BC53F" cx="520.8018799" cy="241.184082" r="23.21451"/>
				<circle fill="#8BC53F" cx="542.6767578" cy="258.9755859" r="25.3596268"/>
				<circle fill="#8BC53F" cx="566.6535645" cy="208.2827148" r="29.2984371"/>
				<circle fill="#8BC53F" cx="496.2998047" cy="223.9467773" r="21.017334"/>
				<circle fill="#8BC53F" cx="566.6542969" cy="313.0063477" r="21.0166473"/>
				<circle fill="#8BC53F" cx="556.3939209" cy="328.4799805" r="11.8610554"/>
				<circle fill="#8BC53F" cx="584.09021" cy="331.7944336" r="11.8618069"/>
				<circle fill="#8BC53F" cx="587.6710205" cy="309.0053711" r="11.8610554"/>
				<circle fill="#8BC53F" cx="544.5322266" cy="309.0053711" r="11.8618069"/>
				<circle fill="#8BC53F" cx="516.8278809" cy="220.6572266" r="20.5273113"/>
				<circle fill="#8BC53F" cx="520.5620117" cy="198.0107422" r="27.8810215"/>
				<circle fill="#8BC53F" cx="531.3461914" cy="171.9086914" r="18.5905838"/>
				<circle fill="#8BC53F" cx="525.5461426" cy="167.0019531" r="23.4969692"/>
				<circle fill="#8BC53F" cx="529.5407715" cy="138.375" r="12.7135429"/>
				<circle fill="#8BC53F" cx="553.0582275" cy="168.7861328" r="21.7142429"/>
				<circle fill="#8BC53F" cx="554.0610352" cy="138.4174805" r="20.7862568"/>
				<circle fill="#8BC53F" cx="545.9194336" cy="185.4848633" r="22.7978821"/>
				<circle fill="#8BC53F" cx="545.9509277" cy="221.2089844" r="28.6337547"/>
			</g>
			<g>
				<g>
					<g>
						<polygon fill="#E5E5E5" points="520.6536255,402.5345764 520.6536255,331.8550415 527.3178711,322.9329224 
							533.9776611,331.8550415 533.9776611,402.5345764 						"/>
						<polygon fill="#E5E5E5" points="547.3528442,402.5345764 547.3528442,331.8550415 554.0140991,322.9329224 
							560.6768188,331.8550415 560.6768188,402.5345764 						"/>
						<polygon fill="#E5E5E5" points="574.0491943,402.5345764 574.0491943,331.8550415 580.7133179,322.9329224 
							587.3731689,331.8550415 587.3731689,402.5345764 						"/>
					</g>
					<g>
						<rect x="503.416687" y="345.2757263" fill="#F1F1F1" width="101.1934814" height="13.325489"/>
						<rect x="503.416687" y="358.6014709" fill="#CBCBCB" width="101.1934814" height="1.9220785"/>
						<rect x="503.416687" y="376.2327576" fill="#F1F1F1" width="101.1934814" height="13.325489"/>
						<rect x="503.416687" y="389.5585022" fill="#CBCBCB" width="101.1934814" height="1.9220785"/>
					</g>
				</g>
			</g>
			<g>
				<g>
					<defs>
						<polygon id="SVGID_52_" points="515.4523315,242.0884399 402.8129578,131.903595 290.1743164,242.0884399 
							290.1743164,391.9764404 515.4523315,391.9764404 						"/>
					</defs>
					<clipPath id="SVGID_10_">
						<use xlink:href="#SVGID_52_"  overflow="visible"/>
					</clipPath>
					<rect x="289.9513855" y="382.0489807" clip-path="url(#SVGID_10_)" fill="#F1D085" width="225.7239532" height="9.9274082"/>
					<rect x="289.9513855" y="379.4051208" clip-path="url(#SVGID_10_)" fill="#D1B062" width="225.7239532" height="2.6438534"/>
					<rect x="289.9513855" y="369.4776917" clip-path="url(#SVGID_10_)" fill="#F1D085" width="225.7239532" height="9.9274082"/>
					<rect x="289.9513855" y="366.8355713" clip-path="url(#SVGID_10_)" fill="#D1B062" width="225.7239532" height="2.6423509"/>
					<rect x="289.9513855" y="356.9067078" clip-path="url(#SVGID_10_)" fill="#F1D085" width="225.7239532" height="9.9287605"/>
					<rect x="289.9513855" y="354.2641907" clip-path="url(#SVGID_10_)" fill="#D1B062" width="225.7239532" height="2.6425011"/>
					<rect x="289.9513855" y="344.3365784" clip-path="url(#SVGID_10_)" fill="#F1D085" width="225.7239532" height="9.9274082"/>
					<rect x="289.9513855" y="341.6927185" clip-path="url(#SVGID_10_)" fill="#D1B062" width="225.7239532" height="2.6438534"/>
					<rect x="289.9513855" y="331.7658691" clip-path="url(#SVGID_10_)" fill="#F1D085" width="225.7239532" height="9.9272585"/>
					<rect x="289.9513855" y="329.1218567" clip-path="url(#SVGID_10_)" fill="#D1B062" width="225.7239532" height="2.6440036"/>
					<rect x="289.9513855" y="319.1945801" clip-path="url(#SVGID_10_)" fill="#F1D085" width="225.7239532" height="9.9272585"/>
					<rect x="289.9513855" y="316.5517883" clip-path="url(#SVGID_10_)" fill="#D1B062" width="225.7239532" height="2.6425011"/>
					<rect x="289.9513855" y="306.6247559" clip-path="url(#SVGID_10_)" fill="#F1D085" width="225.7239532" height="9.9272585"/>
					<rect x="289.9513855" y="303.9807434" clip-path="url(#SVGID_10_)" fill="#D1B062" width="225.7239532" height="2.6440036"/>
					<rect x="289.9513855" y="294.0534668" clip-path="url(#SVGID_10_)" fill="#F1D085" width="225.7239532" height="9.9272585"/>
					<rect x="289.9513855" y="291.4094543" clip-path="url(#SVGID_10_)" fill="#D1B062" width="225.7239532" height="2.6440036"/>
					<rect x="289.9513855" y="281.4821777" clip-path="url(#SVGID_10_)" fill="#F1D085" width="225.7239532" height="9.9272585"/>
					<rect x="289.9513855" y="278.839386" clip-path="url(#SVGID_10_)" fill="#D1B062" width="225.7239532" height="2.6425011"/>
					<rect x="289.9513855" y="268.9123535" clip-path="url(#SVGID_10_)" fill="#F1D085" width="225.7239532" height="9.9272585"/>
					<rect x="289.9513855" y="266.2683411" clip-path="url(#SVGID_10_)" fill="#D1B062" width="225.7239532" height="2.6440036"/>
					<rect x="289.9513855" y="256.3410645" clip-path="url(#SVGID_10_)" fill="#F1D085" width="225.7239532" height="9.9272585"/>
					<rect x="289.9513855" y="253.6970367" clip-path="url(#SVGID_10_)" fill="#D1B062" width="225.7239532" height="2.6440036"/>
					<rect x="289.9513855" y="243.7697754" clip-path="url(#SVGID_10_)" fill="#F1D085" width="225.7239532" height="9.9272585"/>
					<rect x="289.9513855" y="241.1257477" clip-path="url(#SVGID_10_)" fill="#D1B062" width="225.7239532" height="2.6440036"/>
					<rect x="289.9513855" y="231.1984863" clip-path="url(#SVGID_10_)" fill="#F1D085" width="225.7239532" height="9.9272585"/>
					<rect x="289.9513855" y="228.5561981" clip-path="url(#SVGID_10_)" fill="#D1B062" width="225.7239532" height="2.6425011"/>
					<rect x="289.9513855" y="218.6286621" clip-path="url(#SVGID_10_)" fill="#F1D085" width="225.7239532" height="9.9272585"/>
					<rect x="289.9513855" y="215.9846344" clip-path="url(#SVGID_10_)" fill="#D1B062" width="225.7239532" height="2.6440036"/>
					<rect x="289.9513855" y="206.057373" clip-path="url(#SVGID_10_)" fill="#F1D085" width="225.7239532" height="9.9272585"/>
					<rect x="289.9513855" y="203.4133453" clip-path="url(#SVGID_10_)" fill="#D1B062" width="225.7239532" height="2.6440036"/>
					<rect x="289.9513855" y="193.486084" clip-path="url(#SVGID_10_)" fill="#F1D085" width="225.7239532" height="9.9272585"/>
					<rect x="289.9513855" y="190.8437958" clip-path="url(#SVGID_10_)" fill="#D1B062" width="225.7239532" height="2.6425011"/>
					<rect x="289.9513855" y="180.916748" clip-path="url(#SVGID_10_)" fill="#F1D085" width="225.7239532" height="9.9272585"/>
					<rect x="289.9513855" y="178.2727203" clip-path="url(#SVGID_10_)" fill="#D1B062" width="225.7239532" height="2.6440036"/>
					<rect x="289.9513855" y="168.345459" clip-path="url(#SVGID_10_)" fill="#F1D085" width="225.7239532" height="9.9272585"/>
					<rect x="289.9513855" y="165.7015076" clip-path="url(#SVGID_10_)" fill="#D1B062" width="225.7239532" height="2.6438534"/>
					<rect x="289.9513855" y="155.7740936" clip-path="url(#SVGID_10_)" fill="#F1D085" width="225.7239532" height="9.9274082"/>
					<rect x="289.9513855" y="153.1314545" clip-path="url(#SVGID_10_)" fill="#D1B062" width="225.7239532" height="2.6423509"/>
					<rect x="289.9513855" y="143.2030945" clip-path="url(#SVGID_10_)" fill="#F1D085" width="225.7239532" height="9.9287605"/>
					<rect x="289.9513855" y="140.5605927" clip-path="url(#SVGID_10_)" fill="#D1B062" width="225.7239532" height="2.6425011"/>
					<rect x="289.9513855" y="130.6329803" clip-path="url(#SVGID_10_)" fill="#F1D085" width="225.7239532" height="9.9274082"/>
					<rect x="289.9513855" y="127.9891052" clip-path="url(#SVGID_10_)" fill="#D1B062" width="225.7239532" height="2.6438534"/>
				</g>
				<rect x="319.6165161" y="150.1925659" fill="#1A1A1A" width="23.054575" height="40.5425911"/>
				<polygon opacity="0.5" fill="#B2B2B2"  a:adobe-blending-mode="multiply" points="515.4523315,254.8870239 
					515.4523315,242.0884399 402.8129578,131.903595 290.1743164,242.0884399 290.1743164,254.8870239 402.8129578,144.394165 				
					"/>
				<g>
					<path fill="#4D4D4D" d="M521.2523804,402.5345764v-5.6840515c0-2.6923828-2.3961182-4.8740845-5.3539429-4.8740845H289.728241
						c-2.9571228,0-5.3532104,2.1817017-5.3532104,4.8740845v5.6840515H521.2523804z"/>
					<rect x="284.375061" y="400.4262695" fill="#1A1A1A" width="236.8773499" height="2.1083817"/>
				</g>
				<g>
					<g>
						<rect x="379.2815552" y="272.4231873" fill="#C0272D" width="47.2860146" height="119.5530396"/>
						<polygon fill="#4D4D4D" points="376.6051941,269.7457581 376.6051941,394.6526184 381.9621582,394.6526184 
							381.9621582,389.3001404 381.9591675,389.3001404 381.9591675,275.0995789 423.8912048,275.0995789 423.8912048,389.3001404 
							423.861908,389.3001404 423.861908,394.6526184 429.2451782,394.6526184 429.2451782,269.7457581 						"/>
					</g>
					<rect x="372.8139038" y="391.9763184" fill="#1A1A1A" width="60.2225227" height="10.558135"/>
					<g  a:adobe-blending-mode="multiply">
						<path fill="#C0272D"  a:adobe-blending-mode="normal" d="M418.7617798,321.9761047l-15.8365784,0.2587891
							l-15.8364258,0.1585693l-0.4137878,0.0041504l-0.00354-0.4215088l-0.0860901-9.980835l-0.0298767-9.9807129
							l-0.059967-19.9615479l-0.0018005-0.5950928l0.5950623,0.0018311l31.6728516,0.0986328l0.4990234,0.0015869
							l-0.0044861,0.493042l-0.182251,19.9615479l-0.1394348,9.980835L418.7617798,321.9761047z M418.7617798,321.9761047
							l-0.1728516-9.9807129l-0.1394043-9.980835l-0.182251-19.9615479l0.4943542,0.4942627l-31.6728516,0.0987549
							l0.5930481-0.5930176l-0.0599365,19.9615479l-0.0299072,9.9807129l-0.0860596,9.980835l-0.4171448-0.4172363
							l15.8364258,0.1585693L418.7617798,321.9761047z"/>
					</g>
					<g  a:adobe-blending-mode="multiply">
						<path fill="#C0272D"  a:adobe-blending-mode="normal" d="M418.7617798,382.0489807l-15.8365784,0.2587891
							l-15.8364258,0.1585693l-0.4137878,0.0041504l-0.00354-0.4215088l-0.0860901-9.9804688l-0.0298767-9.9804688
							l-0.059967-19.9608154l-0.0018005-0.5950928l0.5950623,0.0018311l31.6728516,0.0987549l0.4990234,0.0014648
							l-0.0044861,0.493042l-0.182251,19.9609375l-0.1394348,9.9804688L418.7617798,382.0489807z M418.7617798,382.0489807
							l-0.1728516-9.9803467l-0.1394043-9.9804688l-0.182251-19.9609375l0.4943542,0.4942627l-31.6728516,0.0987549
							l0.5930481-0.5930176l-0.0599365,19.9608154l-0.0299072,9.9804688l-0.0860596,9.9804688l-0.4171448-0.4172363
							l15.8364258,0.1585693L418.7617798,382.0489807z"/>
					</g>
					<circle fill="#1A1A1A" cx="417.6481934" cy="334.0234375" r="2.6439283"/>
				</g>
				<polygon fill="#C0272D" points="402.8129578,105.5830002 264.078186,244.318512 289.8155212,244.318512 402.8129578,134.579895 
					515.8118896,244.318512 541.548584,244.318512 				"/>
				<path fill="#C0272D" d="M348.6149292,149.3005524c0,2.9565125-2.3960876,5.3539734-5.3532104,5.3539734h-24.2358093
					c-2.9570923,0-5.3532104-2.3974609-5.3532104-5.3539734v-8.9221191c0-2.9565125,2.3961182-5.3524628,5.3532104-5.3524628
					h24.2358093c2.9571228,0,5.3532104,2.3959503,5.3532104,5.3524628V149.3005524z"/>
				<g>
					<circle fill="#9FD6ED" cx="402.8122559" cy="217.2993164" r="32.0758591"/>
					<g>
						<rect x="400.1368103" y="185.222702" fill="#4D4D4D" width="5.3538141" height="64.1532211"/>
					</g>
					<g>
						<rect x="370.7363586" y="214.6218414" fill="#4D4D4D" width="64.1547241" height="5.3539643"/>
					</g>
					<path fill="#1A1A1A" d="M368.0600281,217.2994385c0-19.1633911,15.5908813-34.7527618,34.7529297-34.7527618
						c19.1635437,0,34.7528992,15.5893707,34.7528992,34.7527618c0,19.1635437-15.5893555,34.7529144-34.7528992,34.7529144
						C383.6509094,252.0523529,368.0600281,236.4629822,368.0600281,217.2994385z M373.4132385,217.2994385
						c0,16.2115326,13.1896667,29.4004517,29.3997192,29.4004517c16.2113647,0,29.3989563-13.1889191,29.3989563-29.4004517
						c0-16.21138-13.1875916-29.3988037-29.3989563-29.3988037
						C386.6029053,187.9006348,373.4132385,201.0880585,373.4132385,217.2994385z"/>
				</g>
				<g>
					<g>
						<g>
							<g>
								<rect x="314.3454895" y="290.2061462" fill="#9FD6ED" width="40.3614082" height="55.3425789"/>
								<path fill="#4D4D4D" d="M308.9922791,284.8522339v66.0505066h51.067688v-66.0505066H308.9922791z M354.7069092,345.5487976
									H314.34552v-55.3425903h40.3613892V345.5487976z"/>
							</g>
							<polygon opacity="0.3" fill="#F1F1F1" points="354.7069092,291.5986633 314.34552,322.6276245 314.34552,331.5850525 
								354.7069092,300.5531006 							"/>
							<polygon opacity="0.3" fill="#F1F1F1" points="354.7069092,305.5609131 314.34552,336.5927124 314.34552,345.5487976 
								354.7069092,314.5183411 							"/>
						</g>
						<rect x="304.1760559" y="333.3513794" fill="#1A1A1A" width="60.7001495" height="17.5511169"/>
					</g>
					<g>
						<g>
							<g>
								<rect x="450.9205322" y="290.2061462" fill="#9FD6ED" width="40.3606262" height="55.3425789"/>
								<path fill="#4D4D4D" d="M445.5666809,284.8522339v66.0505066h51.0684204v-66.0505066H445.5666809z M491.2811584,345.5487976
									h-40.3606262v-55.3425903h40.3606262V345.5487976z"/>
							</g>
							<polygon opacity="0.3" fill="#F1F1F1" points="491.2811584,291.5986633 450.9205322,322.6276245 450.9205322,331.5850525 
								491.2811584,300.5531006 							"/>
							<polygon opacity="0.3" fill="#F1F1F1" points="491.2811584,305.5609131 450.9205322,336.5927124 450.9205322,345.5487976 
								491.2811584,314.5183411 							"/>
						</g>
						<rect x="440.7512512" y="333.3513794" fill="#1A1A1A" width="60.699398" height="17.5511169"/>
					</g>
				</g>
				<g>
					<polygon fill="#A57C52" points="432.4393616,391.9764404 452.3702087,391.9764404 457.7226868,381.9024048 
						427.0854187,381.9024048 					"/>
					<path fill="#8BC53F" d="M430.8708191,370.6867981c-0.0234375-0.1951599-0.0366516-0.3931885-0.0366516-0.5927124
						c0-2.6880188,2.1246033-4.9328308,4.963623-5.4962463c0.7850342-0.9448853,2.0365601-1.5655518,3.4596863-1.5655518
						c1.8487549,0,3.4128113,1.0387878,4.0202332,2.4898682c1.3029175-1.5098267,3.3540649-2.4898682,5.6636353-2.4898682
						c3.9380493,0,7.1320801,2.8303223,7.1320801,6.3194275c0,0.8039856-0.1774292,1.5727844-0.4885864,2.2814636
						c1.4482117,0.6822815,2.4444885,2.0144958,2.4444885,3.5698242c0,0.6338806-0.1804504,1.2280884-0.473877,1.7635803h-4.9959412
						h-2.9081116h-0.3051453h-5.1323547h-0.856842h-0.5781555h-3.3995972h-0.0953979h-4.3399658h-2.5281677h-4.7831726
						c-0.5326233-0.6558228-0.8538513-1.454071-0.8538513-2.3211365
						C426.7787476,372.5648499,428.5789795,370.8776245,430.8708191,370.6867981z"/>
					<rect x="424.8948669" y="376.846344" fill="#C59B6D" width="35.0183983" height="6.0700302"/>
				</g>
				<g>
					<polygon fill="#A57C52" points="353.2572021,391.9764404 373.1880188,391.9764404 378.5412292,381.9024048 
						347.9039917,381.9024048 					"/>
					<path fill="#8BC53F" d="M351.6887817,370.6867981c-0.0228271-0.1951599-0.0366516-0.3931885-0.0366516-0.5927124
						c0-2.6880188,2.1237183-4.9328308,4.9642334-5.4962463c0.7842712-0.9448853,2.0350647-1.5655518,3.4590759-1.5655518
						c1.8487549,0,3.4135437,1.0387878,4.0202637,2.4898682c1.3036499-1.5098267,3.3540344-2.4898682,5.6634521-2.4898682
						c3.9380493,0,7.1322632,2.8303223,7.1322632,6.3194275c0,0.8039856-0.1783447,1.5727844-0.487854,2.2814636
						c1.4474487,0.6822815,2.4443359,2.0144958,2.4443359,3.5698242c0,0.6338806-0.1812134,1.2280884-0.473877,1.7635803h-4.9959412
						h-2.9079895h-0.3052673h-5.1338806h-0.8553467h-0.578125h-3.400177h-0.0954285h-4.3393555h-2.5279846h-4.7839661
						c-0.5326233-0.6558228-0.8532104-1.454071-0.8532104-2.3211365
						C347.5973511,372.5648499,349.3969727,370.8776245,351.6887817,370.6867981z"/>
					<rect x="345.7134094" y="376.846344" fill="#C59B6D" width="35.0176468" height="6.0700302"/>
				</g>
			</g>
			<g>
				<g>
					<polygon fill="#E5E5E5" points="-5.0783834,402.5345764 -5.0783834,331.8550415 1.5821077,322.9329224 8.2454529,331.8550415 
						8.2454529,402.5345764 					"/>
					<polygon fill="#E5E5E5" points="21.6178188,402.5345764 21.6178188,331.8550415 28.2813148,322.9329224 
						34.9418068,331.8550415 34.9418068,402.5345764 					"/>
					<polygon fill="#E5E5E5" points="48.3170242,402.5345764 48.3170242,331.8550415 54.9775162,322.9329224 
						61.6410141,331.8550415 61.6410141,402.5345764 					"/>
				</g>
				<g>
					<rect x="-22.3154869" y="345.2757263" fill="#F1F1F1" width="101.1934738" height="13.325489"/>
					<rect x="-22.3154869" y="358.6014709" fill="#CBCBCB" width="101.1934738" height="1.9220785"/>
					<rect x="-22.3154869" y="376.2327576" fill="#F1F1F1" width="101.1934738" height="13.325489"/>
					<rect x="-22.3154869" y="389.5585022" fill="#CBCBCB" width="101.1934738" height="1.9220785"/>
				</g>
			</g>
		</g>
		<g>
			<polygon fill="#FFCC88" points="209.9444885,139.696167 216.6725464,116.5437469 205.4685059,137.9169769 
				182.2359009,131.3903809 203.6092072,142.5944824 197.0825806,165.8270874 208.2866821,144.4537659 231.5192719,150.9803619 			
				"/>
			<polygon fill="#FFCC88" points="523.121582,365.6742859 531.4437866,355.3782654 521.232666,363.8230896 510.8532715,355.585907 
				519.2980957,365.7970581 511.0609436,376.1764221 521.2720947,367.7315674 531.6514282,375.96875 			"/>
			<polygon fill="#FFCC88" points="534.5601807,235.858902 529.3731079,219.9757385 531.3027344,236.5877533 
				515.4523315,241.9214935 532.0643921,239.9918671 537.3981323,255.8422852 535.4685059,239.2302094 551.3189087,233.8964539 			
				"/>
			<polygon fill="#FFCC88" points="70.8244858,195.3188477 77.655983,167.9814606 65.518219,193.4393311 38.0961151,186.8466644 
				63.5540848,198.9844971 56.9613838,226.406601 69.099205,200.9486084 96.5213089,207.541275 			"/>
			<polygon fill="#FFCC88" points="341.0931091,141.982132 334.3423462,128.5936279 338.3019409,143.0694733 
				324.9623413,149.9458923 339.4382629,145.9862976 346.3146667,159.3259277 342.3550415,144.8500061 355.6946716,137.973587 			
				"/>
			<polygon fill="#FFCC88" points="218.5657654,159.6529846 218.2909851,153.963623 214.1853333,157.9117737 
				208.4960632,158.1865234 212.4441681,162.292099 212.7189484,167.9814606 216.8246002,164.0332947 222.5138702,163.7585449 			
				"/>
			<polygon fill="#FFCC88" points="51.485714,344.2453003 46.9406662,339.3812866 46.2648315,346.0039063 41.4009094,350.5488586 
				48.0234146,351.2246704 52.5684624,356.0886536 53.244297,349.4660339 58.108223,344.9210815 			"/>
			<polygon fill="#FFCC88" points="499.772583,157.0170441 497.9608154,150.6113129 494.3261414,156.1884918 
				487.9205017,158.0002136 493.4976196,161.6348114 495.3093872,168.0405426 498.9440613,162.4633484 505.3497009,160.6516418 			
				"/>
			<polygon fill="#FFCC88" points="83.7073669,219.0981903 80.9528046,213.0378113 78.1982498,219.0981903 72.1379623,221.8526764 
				78.1982498,224.6071625 80.9528046,230.6675568 83.7073669,224.6071625 89.7676544,221.8526764 			"/>
			<polygon fill="#FFCC88" points="394.4759521,287.4517212 391.7213745,281.3913269 388.9668274,287.4517212 
				382.9065247,290.2062073 388.9668274,292.9606934 391.7213745,299.0210876 394.4759521,292.9606934 400.5362244,290.2062073 			
				"/>
		</g>
		<g>
			
				<radialGradient id="SVGID_12_" cx="424.8795776" cy="422.7881775" r="19.0106258" gradientTransform="matrix(-1 0 0 -0.879532 849.7591553 794.6438599)" gradientUnits="userSpaceOnUse">
				<stop  offset="0" style="stop-color:#00636C;stop-opacity:0.1"/>
				<stop  offset="0.981545" style="stop-color:#004C65;stop-opacity:0.1"/>
				<a:midPointStop  offset="0" style="stop-color:#00636C;stop-opacity:0.1"/>
				<a:midPointStop  offset="0.5" style="stop-color:#00636C;stop-opacity:0.1"/>
				<a:midPointStop  offset="0.981545" style="stop-color:#004C65;stop-opacity:0.1"/>
			</radialGradient>
			<path fill="url(#SVGID_12_)" d="M403.1372375,416.7819824c0,0,18.9455261,10.4065857,22.5195923,15.24646
				c3.5745544,4.8391113,19.6308289,3.6582031,22.9833984-8.9772644
				c3.3518372-12.6354675-17.657196-11.0889282-25.6071472-11.5545349
				C415.0823669,411.0315552,393.6516113,408.9991455,403.1372375,416.7819824z"/>
			
				<radialGradient id="SVGID_14_" cx="385.2763672" cy="416.6193542" r="13.709878" gradientTransform="matrix(-1 0 0 -0.879532 770.5527344 783.0493774)" gradientUnits="userSpaceOnUse">
				<stop  offset="0" style="stop-color:#00636C;stop-opacity:0.1"/>
				<stop  offset="0.981545" style="stop-color:#004C65;stop-opacity:0.1"/>
				<a:midPointStop  offset="0" style="stop-color:#00636C;stop-opacity:0.1"/>
				<a:midPointStop  offset="0.5" style="stop-color:#00636C;stop-opacity:0.1"/>
				<a:midPointStop  offset="0.981545" style="stop-color:#004C65;stop-opacity:0.1"/>
			</radialGradient>
			<path fill="url(#SVGID_14_)" d="M368.8506775,418.9126282c0,0,23.4710083,7.4971008,31.4681091,4.4217834
				c7.9975586-3.07547-1.846283-13.6584167-16.6092834-14.148407
				C368.9465332,408.695282,364.786499,416.4438782,368.8506775,418.9126282z"/>
			
				<radialGradient id="SVGID_16_" cx="384.9595032" cy="439.6517944" r="22.8789768" gradientTransform="matrix(-1 0 0 -0.879532 769.9190063 826.3395996)" gradientUnits="userSpaceOnUse">
				<stop  offset="0" style="stop-color:#00636C;stop-opacity:0.1"/>
				<stop  offset="0.981545" style="stop-color:#004C65;stop-opacity:0.1"/>
				<a:midPointStop  offset="0" style="stop-color:#00636C;stop-opacity:0.1"/>
				<a:midPointStop  offset="0.5" style="stop-color:#00636C;stop-opacity:0.1"/>
				<a:midPointStop  offset="0.981545" style="stop-color:#004C65;stop-opacity:0.1"/>
			</radialGradient>
			<path fill="url(#SVGID_16_)" d="M397.0376892,448.3502197c0,0-28.9749756,9.6271057-37.2484131,0.8153381
				c-8.2734375-8.8124084-6.8153992-24.6203308,22.5982971-22.5598145
				C411.8019104,428.6648865,429.6416321,437.2771606,397.0376892,448.3502197z"/>
			
				<radialGradient id="SVGID_18_" cx="430.3201599" cy="447.2806702" r="12.8683233" gradientTransform="matrix(-1 0 0 -0.879532 860.6403198 840.6783447)" gradientUnits="userSpaceOnUse">
				<stop  offset="0" style="stop-color:#00636C;stop-opacity:0.1"/>
				<stop  offset="0.981545" style="stop-color:#004C65;stop-opacity:0.1"/>
				<a:midPointStop  offset="0" style="stop-color:#00636C;stop-opacity:0.1"/>
				<a:midPointStop  offset="0.5" style="stop-color:#00636C;stop-opacity:0.1"/>
				<a:midPointStop  offset="0.981545" style="stop-color:#004C65;stop-opacity:0.1"/>
			</radialGradient>
			<path fill="url(#SVGID_18_)" d="M418.3287048,451.6476746c0,0,24.0441284,8.4884338,27.8286743-1.095459
				c3.784668-9.5832214-11.5947571-12.0434875-20.2064514-10.8130493
				C417.3387451,440.9689941,408.2468567,446.9476624,418.3287048,451.6476746z"/>
			
				<radialGradient id="SVGID_20_" cx="406.0722351" cy="464.651062" r="36.3570671" gradientTransform="matrix(-1 0 0 -0.879532 812.1444702 873.3265381)" gradientUnits="userSpaceOnUse">
				<stop  offset="0" style="stop-color:#00636C;stop-opacity:0.1"/>
				<stop  offset="0.981545" style="stop-color:#004C65;stop-opacity:0.1"/>
				<a:midPointStop  offset="0" style="stop-color:#00636C;stop-opacity:0.1"/>
				<a:midPointStop  offset="0.5" style="stop-color:#00636C;stop-opacity:0.1"/>
				<a:midPointStop  offset="0.981545" style="stop-color:#004C65;stop-opacity:0.1"/>
			</radialGradient>
			<path fill="url(#SVGID_20_)" d="M369.5611267,475.0076904c0,0,81.794342,6.6299133,86.1117554-6.2204285
				c4.3162537-12.848938-29.2513428-9.3097534-43.8404541-15.0778198
				C397.2433167,447.9406128,327.1152344,465.780304,369.5611267,475.0076904z"/>
			
				<radialGradient id="SVGID_22_" cx="424.8795776" cy="420.3275452" r="19.0107117" gradientTransform="matrix(-1 0 0 -0.879532 849.7591553 790.019104)" gradientUnits="userSpaceOnUse">
				<stop  offset="0" style="stop-color:#FFFFFF"/>
				<stop  offset="0.989637" style="stop-color:#F0F1F1"/>
				<a:midPointStop  offset="0" style="stop-color:#FFFFFF"/>
				<a:midPointStop  offset="0.5" style="stop-color:#FFFFFF"/>
				<a:midPointStop  offset="0.989637" style="stop-color:#F0F1F1"/>
			</radialGradient>
			<path fill="url(#SVGID_22_)" d="M403.1372375,414.3212585c0,0,18.9455261,10.407074,22.5195923,15.2463074
				c3.5745544,4.8398743,19.6308289,3.6589355,22.9833984-8.976532c3.3518372-12.635437-17.657196-11.0888977-25.6071472-11.5552673
				C415.0823669,408.5701599,393.6516113,406.539032,403.1372375,414.3212585z"/>
			
				<radialGradient id="SVGID_24_" cx="385.2763672" cy="414.1586609" r="13.7099133" gradientTransform="matrix(-1 0 0 -0.879532 770.5527344 778.4244385)" gradientUnits="userSpaceOnUse">
				<stop  offset="0" style="stop-color:#FFFFFF"/>
				<stop  offset="0.989637" style="stop-color:#F0F1F1"/>
				<a:midPointStop  offset="0" style="stop-color:#FFFFFF"/>
				<a:midPointStop  offset="0.5" style="stop-color:#FFFFFF"/>
				<a:midPointStop  offset="0.989637" style="stop-color:#F0F1F1"/>
			</radialGradient>
			<path fill="url(#SVGID_24_)" d="M368.8506775,416.4523926c0,0,23.4710083,7.4972229,31.4681091,4.4211426
				c7.9975586-3.0759583-1.846283-13.6582947-16.6092834-14.1483765
				C368.9465332,406.2350464,364.786499,413.9830017,368.8506775,416.4523926z"/>
			
				<radialGradient id="SVGID_26_" cx="384.9595032" cy="437.1913147" r="22.8790493" gradientTransform="matrix(-1 0 0 -0.879532 769.9190063 821.7150269)" gradientUnits="userSpaceOnUse">
				<stop  offset="0" style="stop-color:#FFFFFF"/>
				<stop  offset="0.989637" style="stop-color:#F0F1F1"/>
				<a:midPointStop  offset="0" style="stop-color:#FFFFFF"/>
				<a:midPointStop  offset="0.5" style="stop-color:#FFFFFF"/>
				<a:midPointStop  offset="0.989637" style="stop-color:#F0F1F1"/>
			</radialGradient>
			<path fill="url(#SVGID_26_)" d="M397.0376892,445.8899841c0,0-28.9749756,9.6271057-37.2484131,0.8153076
				c-8.2734375-8.8122864-6.8153992-24.6202087,22.5982971-22.5604248
				C411.8019104,426.2047424,429.6416321,434.816925,397.0376892,445.8899841z"/>
			
				<radialGradient id="SVGID_28_" cx="430.3201599" cy="444.8196716" r="12.8683481" gradientTransform="matrix(-1 0 0 -0.879532 860.6403198 836.0527954)" gradientUnits="userSpaceOnUse">
				<stop  offset="0" style="stop-color:#FFFFFF"/>
				<stop  offset="0.989637" style="stop-color:#F0F1F1"/>
				<a:midPointStop  offset="0" style="stop-color:#FFFFFF"/>
				<a:midPointStop  offset="0.5" style="stop-color:#FFFFFF"/>
				<a:midPointStop  offset="0.989637" style="stop-color:#F0F1F1"/>
			</radialGradient>
			<path fill="url(#SVGID_28_)" d="M418.3287048,449.187561c0,0,24.0441284,8.48703,27.8286743-1.0961914
				c3.784668-9.5826416-11.5947571-12.043396-20.2064514-10.8135681
				C417.3387451,438.508728,408.2468567,444.4867859,418.3287048,449.187561z"/>
			
				<radialGradient id="SVGID_30_" cx="406.0722351" cy="462.1902161" r="36.3570976" gradientTransform="matrix(-1 0 0 -0.879532 812.1444702 868.7012939)" gradientUnits="userSpaceOnUse">
				<stop  offset="0" style="stop-color:#FFFFFF"/>
				<stop  offset="0.989637" style="stop-color:#F0F1F1"/>
				<a:midPointStop  offset="0" style="stop-color:#FFFFFF"/>
				<a:midPointStop  offset="0.5" style="stop-color:#FFFFFF"/>
				<a:midPointStop  offset="0.989637" style="stop-color:#F0F1F1"/>
			</radialGradient>
			<path fill="url(#SVGID_30_)" d="M369.5611267,472.546936c0,0,81.794342,6.6299133,86.1117554-6.2197876
				c4.3162537-12.8503113-29.2513428-9.3103943-43.8404541-15.0791931
				C397.2433167,445.4804993,327.1152344,463.3200684,369.5611267,472.546936z"/>
		</g>
		<g>
			
				<radialGradient id="SVGID_32_" cx="434.2926636" cy="501.2043152" r="25.7987137" gradientTransform="matrix(-1 0 0 -0.879532 868.5853271 942.029541)" gradientUnits="userSpaceOnUse">
				<stop  offset="0" style="stop-color:#00636C;stop-opacity:0.1"/>
				<stop  offset="0.981545" style="stop-color:#004C65;stop-opacity:0.1"/>
				<a:midPointStop  offset="0" style="stop-color:#00636C;stop-opacity:0.1"/>
				<a:midPointStop  offset="0.5" style="stop-color:#00636C;stop-opacity:0.1"/>
				<a:midPointStop  offset="0.981545" style="stop-color:#004C65;stop-opacity:0.1"/>
			</radialGradient>
			<path fill="url(#SVGID_32_)" d="M404.7868347,493.0535583c0,0,25.7103271,14.1224365,30.5606079,20.6904602
				c4.8508911,6.5670166,26.6403809,4.9644165,31.190033-12.1827698
				c4.5486755-17.1471863-23.9620056-15.0484314-34.7506409-15.6802673
				C420.9971924,485.2497864,391.9141846,482.4916992,404.7868347,493.0535583z"/>
			
				<radialGradient id="SVGID_34_" cx="380.5484009" cy="492.8328247" r="18.605238" gradientTransform="matrix(-1 0 0 -0.879532 761.0968018 926.2950439)" gradientUnits="userSpaceOnUse">
				<stop  offset="0" style="stop-color:#00636C;stop-opacity:0.1"/>
				<stop  offset="0.981545" style="stop-color:#004C65;stop-opacity:0.1"/>
				<a:midPointStop  offset="0" style="stop-color:#00636C;stop-opacity:0.1"/>
				<a:midPointStop  offset="0.5" style="stop-color:#00636C;stop-opacity:0.1"/>
				<a:midPointStop  offset="0.981545" style="stop-color:#004C65;stop-opacity:0.1"/>
			</radialGradient>
			<path fill="url(#SVGID_34_)" d="M358.2575989,495.9449768c0,0,31.8517761,10.1740723,42.7043762,6.0006409
				c10.853241-4.1736145-2.5055237-18.5354004-22.539917-19.2003174
				C358.3876953,482.0793457,352.7422485,492.594696,358.2575989,495.9449768z"/>
			
				<radialGradient id="SVGID_35_" cx="380.1184082" cy="524.0894165" r="31.0483284" gradientTransform="matrix(-1 0 0 -0.879532 760.2368164 985.0428467)" gradientUnits="userSpaceOnUse">
				<stop  offset="0" style="stop-color:#00636C;stop-opacity:0.1"/>
				<stop  offset="0.981545" style="stop-color:#004C65;stop-opacity:0.1"/>
				<a:midPointStop  offset="0" style="stop-color:#00636C;stop-opacity:0.1"/>
				<a:midPointStop  offset="0.5" style="stop-color:#00636C;stop-opacity:0.1"/>
				<a:midPointStop  offset="0.981545" style="stop-color:#004C65;stop-opacity:0.1"/>
			</radialGradient>
			<path fill="url(#SVGID_35_)" d="M396.5093079,535.8937988c0,0-39.3210144,13.0646362-50.548645,1.1064453
				c-11.2276306-11.9590454-9.2489319-33.4114685,30.66745-30.6152344
				C416.5453796,509.1794128,440.7550659,520.8668823,396.5093079,535.8937988z"/>
			
				<radialGradient id="SVGID_36_" cx="441.6758728" cy="534.4423218" r="17.4631901" gradientTransform="matrix(-1 0 0 -0.879532 883.3517456 1004.5014648)" gradientUnits="userSpaceOnUse">
				<stop  offset="0" style="stop-color:#00636C;stop-opacity:0.1"/>
				<stop  offset="0.981545" style="stop-color:#004C65;stop-opacity:0.1"/>
				<a:midPointStop  offset="0" style="stop-color:#00636C;stop-opacity:0.1"/>
				<a:midPointStop  offset="0.5" style="stop-color:#00636C;stop-opacity:0.1"/>
				<a:midPointStop  offset="0.981545" style="stop-color:#004C65;stop-opacity:0.1"/>
			</radialGradient>
			<path fill="url(#SVGID_36_)" d="M425.4026794,540.3686523c0,0,32.6294861,11.5193481,37.7653809-1.4866333
				c5.1360779-13.0050659-15.7348633-16.343811-27.4215088-14.6740112
				C424.0592346,525.8769531,411.7209167,533.9904175,425.4026794,540.3686523z"/>
			
				<radialGradient id="SVGID_38_" cx="408.7698059" cy="558.0151367" r="49.339016" gradientTransform="matrix(-1 0 0 -0.879532 817.5396118 1048.807251)" gradientUnits="userSpaceOnUse">
				<stop  offset="0" style="stop-color:#00636C;stop-opacity:0.1"/>
				<stop  offset="0.981545" style="stop-color:#004C65;stop-opacity:0.1"/>
				<a:midPointStop  offset="0" style="stop-color:#00636C;stop-opacity:0.1"/>
				<a:midPointStop  offset="0.5" style="stop-color:#00636C;stop-opacity:0.1"/>
				<a:midPointStop  offset="0.981545" style="stop-color:#004C65;stop-opacity:0.1"/>
			</radialGradient>
			<path fill="url(#SVGID_38_)" d="M359.2217407,572.0697632c0,0,111.0005188,8.9972534,116.8594971-8.4415283
				c5.8574829-17.4368896-39.6960449-12.6339722-59.4944763-20.4616089
				C396.7883606,535.3378906,301.6197815,559.5476074,359.2217407,572.0697632z"/>
			
				<radialGradient id="SVGID_40_" cx="434.2926636" cy="497.8651123" r="25.79883" gradientTransform="matrix(-1 0 0 -0.879532 868.5853271 935.753418)" gradientUnits="userSpaceOnUse">
				<stop  offset="0" style="stop-color:#FFFFFF"/>
				<stop  offset="0.989637" style="stop-color:#F0F1F1"/>
				<a:midPointStop  offset="0" style="stop-color:#FFFFFF"/>
				<a:midPointStop  offset="0.5" style="stop-color:#FFFFFF"/>
				<a:midPointStop  offset="0.989637" style="stop-color:#F0F1F1"/>
			</radialGradient>
			<path fill="url(#SVGID_40_)" d="M404.7868347,489.7141418c0,0,25.7103271,14.1231079,30.5606079,20.6903076
				c4.8508911,6.5680237,26.6403809,4.9654236,31.190033-12.1817627
				c4.5486755-17.1471863-23.9620056-15.0484314-34.7506409-15.6813049
				C420.9971924,481.9095459,391.9141846,479.1531372,404.7868347,489.7141418z"/>
			
				<radialGradient id="SVGID_41_" cx="380.5484009" cy="489.4934998" r="18.6052856" gradientTransform="matrix(-1 0 0 -0.879532 761.0968018 920.0186768)" gradientUnits="userSpaceOnUse">
				<stop  offset="0" style="stop-color:#FFFFFF"/>
				<stop  offset="0.989637" style="stop-color:#F0F1F1"/>
				<a:midPointStop  offset="0" style="stop-color:#FFFFFF"/>
				<a:midPointStop  offset="0.5" style="stop-color:#FFFFFF"/>
				<a:midPointStop  offset="0.989637" style="stop-color:#F0F1F1"/>
			</radialGradient>
			<path fill="url(#SVGID_41_)" d="M358.2575989,492.6062317c0,0,31.8517761,10.1742554,42.7043762,5.9998169
				c10.853241-4.1743164-2.5055237-18.5352478-22.539917-19.2003174
				C358.3876953,478.7406311,352.7422485,489.255127,358.2575989,492.6062317z"/>
			
				<radialGradient id="SVGID_43_" cx="380.1184082" cy="520.7503662" r="31.0484276" gradientTransform="matrix(-1 0 0 -0.879532 760.2368164 978.7669678)" gradientUnits="userSpaceOnUse">
				<stop  offset="0" style="stop-color:#FFFFFF"/>
				<stop  offset="0.989637" style="stop-color:#F0F1F1"/>
				<a:midPointStop  offset="0" style="stop-color:#FFFFFF"/>
				<a:midPointStop  offset="0.5" style="stop-color:#FFFFFF"/>
				<a:midPointStop  offset="0.989637" style="stop-color:#F0F1F1"/>
			</radialGradient>
			<path fill="url(#SVGID_43_)" d="M396.5093079,532.5550537c0,0-39.3210144,13.0646362-50.548645,1.1064453
				c-11.2276306-11.9588623-9.2489319-33.4112854,30.66745-30.6160583
				C416.5453796,505.8408813,440.7550659,517.5281982,396.5093079,532.5550537z"/>
			
				<radialGradient id="SVGID_45_" cx="441.6758728" cy="531.1025391" r="17.4632244" gradientTransform="matrix(-1 0 0 -0.879532 883.3517456 998.2242432)" gradientUnits="userSpaceOnUse">
				<stop  offset="0" style="stop-color:#FFFFFF"/>
				<stop  offset="0.989637" style="stop-color:#F0F1F1"/>
				<a:midPointStop  offset="0" style="stop-color:#FFFFFF"/>
				<a:midPointStop  offset="0.5" style="stop-color:#FFFFFF"/>
				<a:midPointStop  offset="0.989637" style="stop-color:#F0F1F1"/>
			</radialGradient>
			<path fill="url(#SVGID_45_)" d="M425.4026794,537.0300903c0,0,32.6294861,11.5175171,37.7653809-1.4876099
				c5.1360779-13.0042725-15.7348633-16.343689-27.4215088-14.6747437
				C424.0592346,522.538208,411.7209167,530.6508179,425.4026794,537.0300903z"/>
			
				<radialGradient id="SVGID_47_" cx="408.7698059" cy="554.6755981" r="49.3390541" gradientTransform="matrix(-1 0 0 -0.879532 817.5396118 1042.5305176)" gradientUnits="userSpaceOnUse">
				<stop  offset="0" style="stop-color:#FFFFFF"/>
				<stop  offset="0.989637" style="stop-color:#F0F1F1"/>
				<a:midPointStop  offset="0" style="stop-color:#FFFFFF"/>
				<a:midPointStop  offset="0.5" style="stop-color:#FFFFFF"/>
				<a:midPointStop  offset="0.989637" style="stop-color:#F0F1F1"/>
			</radialGradient>
			<path fill="url(#SVGID_47_)" d="M359.2217407,568.7304077c0,0,111.0005188,8.9971924,116.8594971-8.4407349
				c5.8574829-17.4387207-39.6960449-12.6348267-59.4944763-20.463501
				C396.7883606,531.9993896,301.6197815,556.2088623,359.2217407,568.7304077z"/>
		</g>
		<g>
			<path fill="#F2CBB1" d="M163.4535217,503.9239197l36.0974731,17.9959412c0,0-0.2912598-50.663147,19.2046661-50.1365662
				c21.7290039,0.5868835,38.7404633-11.809082,38.7404633-11.809082l0.0299988-76.576355h-75.7055969L163.4535217,503.9239197z"/>
			<path fill="#FDD6B7" d="M277.848938,445.9295654c-0.2617493-4.902832-4.4111023-8.2516785-9.5989075-7.9746704
				l-40.3360291,2.1535645c-5.1877747,0.276947-9.9243927,4.1002502-9.6626129,9.0030823l0.2788086,5.2219849
				c0.261795,4.902832,5.4190826,8.9591064,10.606842,8.6821594l40.3360748-2.1536255
				c5.1877441-0.276947,8.9163818-4.8076782,8.6546326-9.7105408L277.848938,445.9295654z"/>
			<path fill="#F2CBB1" d="M139.0740509,493.420929l16.8499908-69.8268738c0,0,1.9220581-42.0898438,16.3183289-57.1356201
				c9.5593262-9.9906311,14.234314-17.8182678,14.234314-17.8182678s2.2370453-5.190094,5.0197754-8.0316772l2.9004669-17.1522827
				c0,0-2.9163513-3.3151855,0.9472046-7.1039734v-25.1007996c0,0,15.3744507-5.2095947,21.5970001,9.4720154
				c2.2324066,5.2671814,1.6316528,32.8127441,2.0823975,51.3855286c7.157547,12.6552124,7.7837982,58.2790527-4.9169617,71.4850769
				c-5.4516144,5.1225586-14.2164154,16.8832703-24.094574,19.2470093l-26.5584717,61.0828552L139.0740509,493.420929z"/>
			<path fill="#FDD6B7" d="M282.3453064,420.754303c-0.2797852-5.2395325-4.9790039-8.7894897-10.8381042-8.4767151
				l-45.5557861,2.4322815c-5.8591309,0.3128357-11.0544434,4.3910828-10.7747192,9.6306458l0.2979736,5.5806274
				c0.2797546,5.2395935,5.93396,9.7559509,11.7930298,9.4430847l45.5557861-2.432251
				c5.8591614-0.3128052,10.0995178-5.3574524,9.8197937-10.5970154L282.3453064,420.754303z"/>
			<path fill="#FDD6B7" d="M280.021698,369.940979c-0.2797852-5.2395325-4.9352417-9.2505798-10.3982849-8.9589233
				l-42.3562317,2.2614746c-5.463028,0.2916565-9.6649323,4.7756042-9.3851776,10.0151672l0.2928619,5.486145
				c0.2797852,5.2395325,4.9352722,9.2506104,10.3983002,8.9588928l42.3562164-2.2614136
				c5.4630127-0.2916565,9.664978-4.7756042,9.3852234-10.0152283L280.021698,369.940979z"/>
			<path fill="#FDD6B7" d="M283.7049561,395.1710815c-0.2794495-5.239563-5.7127075-9.3268433-11.8282166-8.9999695
				l-47.5489197,2.5413818c-6.1154327,0.3268127-10.8070831,4.9552612-10.5276642,10.1948547l0.2976074,5.580658
				c0.2794495,5.239563,5.4398193,9.3999023,11.5552826,9.0730286l47.5489502-2.5413818
				c6.115448-0.3268738,11.0799866-5.0282898,10.8005371-10.2678833L283.7049561,395.1710815z"/>
			<g>
				<path fill="#FFFFFF" d="M146.6977997,450.6592102c-4.2277374-2.1067505-7.3991089-3.4960938-10.3115997,1.9811707
					l-10.5183411,19.6729126l42.3782501,22.4519043l13.6989746-25.8123474L146.6977997,450.6592102z"/>
				<path fill="#C0DFDA" d="M218.8022156,488.2479553l-36.9211884-19.3241882l-13.5497131,25.4988403l44.2456512,23.4954834
					l11.383316-20.8994446C226.8727417,491.5414734,223.0299225,490.3547363,218.8022156,488.2479553z"/>
			</g>
			<g>
				<path fill="#FFB74F" d="M127.914444,471.786377c-4.2277451-2.10672-7.4833221-3.9177551-10.3957672,1.5594482
					L31.942646,634.1029053l-0.0000114,117.1049805l137.0176392-257.6462402L127.914444,471.786377z"/>
				<path fill="#FF9600" d="M210.0046692,515.3615112l-41.0219269-21.782959L31.9426346,751.2078857v67.7895508
					l24.7811508-0.6633301l158.0585632-293.7172241C217.6947937,519.1396484,214.2323761,517.4683228,210.0046692,515.3615112z"/>
			</g>
			<circle fill="#640657" cx="143.9669189" cy="465.4091797" r="8.4652128"/>
		</g>
	</g>
</g>
</svg>
