<?xml version="1.0" encoding="utf-8"?>
<!-- Generator: Adobe Illustrator 17.1.0, SVG Export Plug-In . SVG Version: 6.00 Build 0)  -->
<!DOCTYPE svg PUBLIC "-//W3C//DTD SVG 1.1//EN" "http://www.w3.org/Graphics/SVG/1.1/DTD/svg11.dtd" [
	<!ENTITY ns_flows "http://ns.adobe.com/Flows/1.0/">
	<!ENTITY ns_extend "http://ns.adobe.com/Extensibility/1.0/">
	<!ENTITY ns_ai "http://ns.adobe.com/AdobeIllustrator/10.0/">
	<!ENTITY ns_graphs "http://ns.adobe.com/Graphs/1.0/">
	<!ENTITY ns_vars "http://ns.adobe.com/Variables/1.0/">
	<!ENTITY ns_imrep "http://ns.adobe.com/ImageReplacement/1.0/">
	<!ENTITY ns_sfw "http://ns.adobe.com/SaveForWeb/1.0/">
	<!ENTITY ns_custom "http://ns.adobe.com/GenericCustomNamespace/1.0/">
	<!ENTITY ns_adobe_xpath "http://ns.adobe.com/XPath/1.0/">
]>
<svg version="1.1" id="Layer_1" xmlns:x="&ns_extend;" xmlns:i="&ns_ai;" xmlns:graph="&ns_graphs;"
	 xmlns="http://www.w3.org/2000/svg" xmlns:xlink="http://www.w3.org/1999/xlink" xmlns:a="http://ns.adobe.com/AdobeSVGViewerExtensions/3.0/"
	 x="0px" y="0px" viewBox="0 0 600 600" enable-background="new 0 0 600 600" xml:space="preserve">
<metadata>
	<sfw  xmlns="&ns_sfw;">
		<slices></slices>
		<sliceSourceBounds  width="2974.6374512" height="7714.9975586" x="-166.0068359" y="-7810.9975586" bottomLeftOrigin="true">
			</sliceSourceBounds>
	</sfw>
</metadata>
<pattern  x="-660" y="-2965" width="18" height="18" patternUnits="userSpaceOnUse" id="New_Pattern" viewBox="60.7666016 -78.7661133 18 18" overflow="visible">
	<g>
		<polygon fill="none" points="60.7666016,-78.7661133 78.7666016,-78.7661133 78.7666016,-60.7661133 60.7666016,-60.7661133 		"/>
		<line fill="none" stroke="#810C74" stroke-miterlimit="10" x1="72.3538437" y1="-0.3533517" x2="139.1793671" y2="-67.1788712"/>
		<line fill="none" stroke="#810C74" stroke-miterlimit="10" x1="54.3538399" y1="-0.3533517" x2="121.1793594" y2="-67.1788712"/>
		<line fill="none" stroke="#810C74" stroke-miterlimit="10" x1="36.3538399" y1="-0.3533517" x2="103.1793594" y2="-67.1788712"/>
		<line fill="none" stroke="#810C74" stroke-miterlimit="10" x1="18.3538399" y1="-0.3533517" x2="85.1793594" y2="-67.1788712"/>
		<line fill="none" stroke="#810C74" stroke-miterlimit="10" x1="0.35384" y1="-0.3533517" x2="67.1793594" y2="-67.1788712"/>
		<line fill="none" stroke="#810C74" stroke-miterlimit="10" x1="72.3538437" y1="-18.3533516" x2="139.1793671" y2="-85.1788712"/>
		<line fill="none" stroke="#810C74" stroke-miterlimit="10" x1="54.3538399" y1="-18.3533516" x2="121.1793594" y2="-85.1788712"/>
		<line fill="none" stroke="#810C74" stroke-miterlimit="10" x1="36.3538399" y1="-18.3533516" x2="103.1793594" y2="-85.1788712"/>
		<line fill="none" stroke="#810C74" stroke-miterlimit="10" x1="18.3538399" y1="-18.3533516" x2="85.1793594" y2="-85.1788712"/>
		<line fill="none" stroke="#810C74" stroke-miterlimit="10" x1="0.35384" y1="-18.3533516" x2="67.1793594" y2="-85.1788712"/>
		
			<line fill="none" stroke="#810C74" stroke-miterlimit="10" x1="72.3538437" y1="-36.3533516" x2="139.1793671" y2="-103.1788712"/>
		
			<line fill="none" stroke="#810C74" stroke-miterlimit="10" x1="54.3538399" y1="-36.3533516" x2="121.1793594" y2="-103.1788712"/>
		
			<line fill="none" stroke="#810C74" stroke-miterlimit="10" x1="36.3538399" y1="-36.3533516" x2="103.1793594" y2="-103.1788712"/>
		<line fill="none" stroke="#810C74" stroke-miterlimit="10" x1="18.3538399" y1="-36.3533516" x2="85.1793594" y2="-103.1788712"/>
		<line fill="none" stroke="#810C74" stroke-miterlimit="10" x1="0.35384" y1="-36.3533516" x2="67.1793594" y2="-103.1788712"/>
		
			<line fill="none" stroke="#810C74" stroke-miterlimit="10" x1="72.3538437" y1="-54.3533516" x2="139.1793671" y2="-121.1788712"/>
		
			<line fill="none" stroke="#810C74" stroke-miterlimit="10" x1="54.3538399" y1="-54.3533516" x2="121.1793594" y2="-121.1788712"/>
		
			<line fill="none" stroke="#810C74" stroke-miterlimit="10" x1="36.3538399" y1="-54.3533516" x2="103.1793594" y2="-121.1788712"/>
		<line fill="none" stroke="#810C74" stroke-miterlimit="10" x1="18.3538399" y1="-54.3533516" x2="85.1793594" y2="-121.1788712"/>
		<line fill="none" stroke="#810C74" stroke-miterlimit="10" x1="0.35384" y1="-54.3533516" x2="67.1793594" y2="-121.1788712"/>
		
			<line fill="none" stroke="#810C74" stroke-miterlimit="10" x1="72.3538437" y1="-72.3533554" x2="139.1793671" y2="-139.1788788"/>
		
			<line fill="none" stroke="#810C74" stroke-miterlimit="10" x1="54.3538399" y1="-72.3533554" x2="121.1793594" y2="-139.1788788"/>
		
			<line fill="none" stroke="#810C74" stroke-miterlimit="10" x1="36.3538399" y1="-72.3533554" x2="103.1793594" y2="-139.1788788"/>
		<line fill="none" stroke="#810C74" stroke-miterlimit="10" x1="18.3538399" y1="-72.3533554" x2="85.1793594" y2="-139.1788788"/>
		<line fill="none" stroke="#810C74" stroke-miterlimit="10" x1="0.35384" y1="-72.3533554" x2="67.1793594" y2="-139.1788788"/>
	</g>
</pattern>
<g>
	<circle fill="#EBEDEB" cx="300" cy="300" r="298"/>
</g>
<g>
	<defs>
		<circle id="SVGID_27_" cx="300" cy="300" r="298"/>
	</defs>
	<clipPath id="SVGID_2_">
		<use xlink:href="#SVGID_27_"  overflow="visible"/>
	</clipPath>
	<g clip-path="url(#SVGID_2_)">
		<g>
			<polygon fill="#FFFFFF" points="181.3865509,365.5664978 137.349823,308.9353027 34.0578308,389.1434021 78.0945587,445.7746277 
				78.0561523,445.8044434 138.9037933,524.1640015 242.2423553,443.9197388 181.3947144,365.5601501 			"/>
			
				<rect x="51.2652779" y="378.4885559" transform="matrix(0.7898341 -0.6133205 0.6133205 0.7898341 -210.0786438 147.2964172)" fill="#C3CED3" width="117.2412949" height="3.3851995"/>
			<text transform="matrix(0.78983 -0.6133201 0.6133201 0.78983 64.6928635 400.3179321)"><tspan x="0" y="0" font-family="'GothamPro-Bold'" font-size="18.2266102">До</tspan><tspan x="29.5267334" y="0" font-family="'GothamPro-Bold'" font-size="18.2266102">г</tspan><tspan x="39.8793335" y="0" font-family="'GothamPro-Bold'" font-size="18.2266102">овор</tspan></text>
			
				<rect x="59.2506294" y="388.7720032" transform="matrix(0.7898341 -0.6133205 0.6133205 0.7898341 -214.7074432 154.3552246)" fill="#C3CED3" width="117.2412949" height="3.3851995"/>
			
				<rect x="67.2359161" y="399.0554504" transform="matrix(0.7898341 -0.6133205 0.6133205 0.7898341 -219.3362579 161.4140015)" fill="#C3CED3" width="117.2412949" height="3.3851995"/>
			
				<rect x="75.2212677" y="409.3391418" transform="matrix(0.7898341 -0.6133205 0.6133205 0.7898341 -223.96521 168.4728546)" fill="#C3CED3" width="117.2412949" height="3.3851995"/>
			
				<rect x="83.2065582" y="419.6225891" transform="matrix(0.7898341 -0.6133205 0.6133205 0.7898341 -228.5940247 175.5316315)" fill="#C3CED3" width="117.2412949" height="3.3851995"/>
			
				<rect x="91.1919098" y="429.9060364" transform="matrix(0.7898341 -0.6133205 0.6133205 0.7898341 -233.2228241 182.5904388)" fill="#C3CED3" width="117.2412949" height="3.3851995"/>
			
				<rect x="99.1772614" y="440.1894836" transform="matrix(0.7898341 -0.6133205 0.6133205 0.7898341 -237.8516235 189.6492462)" fill="#C3CED3" width="117.2412949" height="3.3851995"/>
			
				<rect x="107.1625519" y="450.4729309" transform="matrix(0.7898341 -0.6133205 0.6133205 0.7898341 -242.4804382 196.7080231)" fill="#C3CED3" width="117.2412949" height="3.3851995"/>
			
				<rect x="131.715332" y="496.0849915" transform="matrix(0.7898341 -0.6133205 0.6133205 0.7898341 -273.8771973 196.3079681)" fill="#C3CED3" width="35.5715408" height="3.3851995"/>
			
				<rect x="196.2208862" y="445.9951477" transform="matrix(0.7898341 -0.6133205 0.6133205 0.7898341 -229.5991974 225.3433838)" fill="#C3CED3" width="35.5715408" height="3.3851995"/>
		</g>
		<g>
			<g>
				<path fill="#A34E9A" d="M469.0820007,529.9032593c77.2804871-77.2804871,77.2804871-202.5769653,0.0001221-279.8573303
					L189.2246704,529.9033813C266.5050354,607.1837158,391.8016357,607.1835938,469.0820007,529.9032593z"/>
			</g>
			
				<text transform="matrix(1 0 0 1 371.4590454 479.6156006)" fill="#FFFFFF" font-family="'GothamPro-Bold'" font-size="93.7368622">2</text>
			<g>
				<path fill="#FFDCAE" d="M200.4208069,261.3494263c-71.0211182,71.0211182-71.0211182,186.1691589-0.0001068,257.1901855
					l257.1902466-257.1902771C386.5899658,190.3283234,271.441803,190.3284302,200.4208069,261.3494263z"/>
			</g>
			<g opacity="0.13"  a:adobe-blending-mode="luminosity">
				
					<pattern  id="SVGID_4_" xlink:href="#New_Pattern" patternTransform="matrix(0.9190045 0 0 0.9190045 -523.2879639 -10.1387711)"  opacity="0.13">
				</pattern>
				<path fill="url(#SVGID_4_)"  a:adobe-blending-mode="normal" d="M200.4208069,261.3494263
					c-71.0211182,71.0211182-71.0211182,186.1691589-0.0001068,257.1901855l257.1902466-257.1902771
					C386.5899658,190.3283234,271.441803,190.3284302,200.4208069,261.3494263z"/>
			</g>
			<g>
				<text transform="matrix(1 0 0 1 251.1133575 353.0960693)" fill="#585B58" font-family="'GothamPro'" font-size="93.7368622">1</text>
			</g>
		</g>
		<g opacity="0.1">
			<path fill="#232323" d="M351.7123718,105.966629c0,0,0.1174622-0.0581741,0.3261719-0.1539536
				c0.1040649-0.0485229,0.2305603-0.1076202,0.3771667-0.1713943c0.1463623-0.0647049,0.3114929-0.1376953,0.4916382-0.2173386
				c0.1816101-0.0762329,0.3783875-0.1588287,0.5864868-0.2461853c0.104187-0.0435486,0.2112122-0.088295,0.3206177-0.1340179
				c0.110199-0.0436325,0.2227783-0.0882111,0.3372803-0.1335449c0.2291565-0.0907211,0.4659424-0.1844788,0.7065735-0.2797394
				c0.2424622-0.0904465,0.4887695-0.1823273,0.7351074-0.2742081c0.2467957-0.0907974,0.4928284-0.1845322,0.7367249-0.2715759
				c0.244812-0.0844574,0.4857178-0.1675797,0.7188721-0.2480087c0.2333679-0.0804901,0.4589539-0.158287,0.6728516-0.2320709
				c0.2140808-0.0735245,0.4189148-0.1346512,0.606781-0.1955719c0.7533264-0.2393112,1.2555542-0.3988495,1.2555542-0.3988495
				l0.1716919,0.6597366c0,0-0.5089417,0.117218-1.2723694,0.2930603c-0.1906738,0.0451202-0.3987122,0.0891571-0.6162415,0.1446228
				c-0.2175293,0.0557556-0.4469299,0.114563-0.6842346,0.1753998c-0.2375183,0.0608826-0.4829407,0.1237869-0.7323303,0.1877213
				c-0.2486572,0.0665665-0.4996643,0.1395264-0.7517395,0.2096481c-0.2518311,0.0712509-0.5036621,0.1425095-0.7515564,0.2126617
				c-0.2464294,0.0750809-0.4889526,0.1489792-0.7236633,0.2204895c-0.1174622,0.0357895-0.2329407,0.0709839-0.3459778,0.1054153
				c-0.1123047,0.0365601-0.2221985,0.0723343-0.3291626,0.1071472c-0.2139893,0.0700073-0.4162903,0.1362-0.6030579,0.1973038
				c-0.1855774,0.0645981-0.3556824,0.1238174-0.5064392,0.1763077c-0.1512756,0.051651-0.2816467,0.1001205-0.3891907,0.1399765
				C351.8343201,105.9181213,351.7123718,105.966629,351.7123718,105.966629z"/>
			<path fill="#232323" d="M363.1479797,102.0221024c0,0,0.2629395-0.0628357,0.723114-0.1727982
				c0.2301025-0.054985,0.5094604-0.1217499,0.8299561-0.1983185c0.0801086-0.0191574,0.1627808-0.0389099,0.2479248-0.0592499
				c0.0864258-0.0184479,0.1753235-0.0374222,0.266571-0.0568924c0.1827087-0.0388489,0.3748169-0.0796814,0.5752563-0.1223068
				c0.2006531-0.0426178,0.409668-0.0870209,0.6260071-0.1329727c0.2164307-0.044487,0.4402771-0.0972519,0.6705933-0.1371231
				c0.4609375-0.0854416,0.9470215-0.1755676,1.4498596-0.2687836c0.125824-0.0233002,0.2527161-0.046814,0.3804932-0.070488
				c0.1283264-0.0202332,0.2575684-0.0406189,0.3875732-0.0611191c0.2602539-0.0408783,0.5236206-0.0822678,0.7891235-0.1239777
				c0.2657166-0.0417099,0.5335693-0.0837555,0.8024597-0.1259613c0.2688599-0.0435486,0.5405579-0.0716019,0.8114624-0.1082306
				c0.5427856-0.0686798,1.0855408-0.1373672,1.6198425-0.2049637c0.536438-0.0519485,1.0643616-0.1030502,1.5752563-0.1525116
				c0.2557068-0.0237427,0.5070801-0.0511398,0.7535706-0.0705948c0.2467651-0.015976,0.4881592-0.0316162,0.723175-0.0468369
				c0.4705505-0.0303497,0.9154053-0.0590515,1.3260803-0.0855484c0.1027527-0.0063095,0.2033691-0.0124893,0.3017273-0.0185318
				c0.0984192-0.003067,0.1945801-0.0060654,0.2882996-0.0089951c0.187561-0.0058365,0.3654785-0.0113754,0.5326843-0.0165787
				c0.3346558-0.0103531,0.6264038-0.0193787,0.8666687-0.0268097c0.4809875-0.0147781,0.7558289-0.0232162,0.7558289-0.0232162
				l-0.0625916,2.3844299c0,0-0.2653809-0.0133286-0.7298584-0.036644c-0.2324219-0.0116959-0.514679-0.0259018-0.8384399-0.0422211
				c-0.1620178-0.0081635-0.3343811-0.0168686-0.5161438-0.0260468c-0.0909119-0.0045929-0.1841736-0.0093002-0.2796326-0.0141296
				c-0.095459-0.0033188-0.1931763-0.0036774-0.2929688-0.0057297c-0.3995056-0.0066833-0.8322754-0.013916-1.2900391-0.0215683
				c-0.2291565-0.0038757-0.4645386-0.007843-0.7051392-0.0119019c-0.2406006-0.000618-0.4862366,0.0062714-0.7362976,0.0091171
				c-0.5004883,0.0075912-1.0176697,0.0154343-1.5431824,0.0233994c-0.5254211,0.0235138-1.0592041,0.0473862-1.5929565,0.0712662
				c-0.2669373,0.0142059-0.53479,0.0198135-0.8002014,0.0410156c-0.265686,0.0198593-0.530304,0.0396347-0.7928467,0.0592575
				c-0.2627869,0.0196152-0.523468,0.0390778-0.7810364,0.0583115c-0.1288452,0.0096741-0.2569275,0.0192947-0.3840942,0.0288391
				c-0.12677,0.0129929-0.252655,0.0258942-0.3774719,0.038681c-0.4998169,0.0511856-0.9829712,0.1006622-1.4411011,0.1475754
				c-0.2301331,0.0207443-0.4498291,0.0542679-0.6644897,0.080452c-0.2142944,0.0275726-0.4213257,0.0542297-0.6200867,0.0798111
				c-0.1989746,0.0255814-0.3896484,0.0501099-0.5709839,0.0734329c-0.0907593,0.0117416-0.1791687,0.0231705-0.2651062,0.0342865
				c-0.0865173,0.0133591-0.1705322,0.0263519-0.2519226,0.0389252c-0.3256226,0.0503235-0.6095276,0.0941925-0.8432922,0.1303177
				c-0.4675903,0.072258-0.7347717,0.1135559-0.7347717,0.1135559L363.1479797,102.0221024z"/>
			<path fill="#232323" d="M384.2108765,99.7788544c0,0,0.2699585,0.0145111,0.7424011,0.039917
				c0.2362366,0.0127029,0.5230713,0.0281219,0.8521118,0.0458145c0.1656494,0.0102005,0.3369751,0.0152359,0.5266724,0.0312195
				c0.1898804,0.0161362,0.3895569,0.0331192,0.5979004,0.0508423c0.4173279,0.0357895,0.8694458,0.0745621,1.3476563,0.1155777
				c0.4743652,0.0500031,0.9704285,0.1120529,1.4865417,0.1714783c0.2578125,0.0307693,0.519928,0.0620728,0.7852783,0.0937347
				c0.2642822,0.0397339,0.5317383,0.0799484,0.8013611,0.1204834c0.2698975,0.0406647,0.5419006,0.0816574,0.8149719,0.1228027
				c0.2731934,0.0412369,0.5481262,0.0800247,0.8201599,0.1341629c0.54599,0.1011429,1.0920105,0.2022934,1.6294861,0.301857
				c0.269928,0.0459747,0.5335999,0.1095581,0.7956543,0.1663589c0.2619019,0.0579376,0.5206604,0.1151733,0.7751465,0.1714706
				c0.2547302,0.0564423,0.5052185,0.1119461,0.7503662,0.1662674c0.0613098,0.0137177,0.1222534,0.0273514,0.1828613,0.0409164
				c0.0600891,0.0155182,0.1198425,0.0309525,0.1792297,0.0462952c0.1187744,0.0307007,0.236145,0.0610275,0.3518982,0.0909576
				c0.463501,0.120018,0.9017334,0.23349,1.3062439,0.3382339c0.4066467,0.0992203,0.7716675,0.2155075,1.0977783,0.311264
				c0.3258362,0.0971375,0.6098938,0.1818161,0.8438416,0.2515564c0.4682617,0.1398163,0.7358398,0.2197113,0.7358398,0.2197113
				l-1.392334,3.8444214c0,0-0.2437134-0.0947113-0.670166-0.2604523c-0.2134399-0.0830383-0.4725952-0.183876-0.7698975-0.2995377
				c-0.297821-0.1145477-0.6312866-0.2523117-1.0042725-0.3754959c-0.3714294-0.1291275-0.7737732-0.2690201-1.1993408-0.4169846
				c-0.1065063-0.0370712-0.2144775-0.074646-0.323761-0.1126938c-0.054657-0.0190201-0.1096497-0.0381775-0.1649475-0.0574341
				c-0.0558777-0.0173187-0.1120911-0.0347366-0.1686096-0.0522537c-0.2262878-0.0697174-0.457489-0.1409454-0.692627-0.2133789
				c-0.235321-0.0725784-0.4745789-0.1463699-0.7167664-0.2210617c-0.2425537-0.0737381-0.4866638-0.1545792-0.7373657-0.2181625
				c-0.4999084-0.1353607-1.0077515-0.2728729-1.5155945-0.4103928c-0.2533569-0.0726089-0.5101624-0.1300659-0.7655334-0.1900406
				c-0.2554932-0.0600052-0.5099487-0.1197891-0.7624207-0.1791c-0.2527466-0.0594406-0.5034485-0.1184006-0.7511597-0.1766586
				c-0.2494202-0.0504684-0.4958191-0.1003189-0.7381592-0.1493607c-0.4848328-0.0960617-0.9549561-0.1944275-1.399353-0.2783585
				c-0.4431458-0.0746689-0.8621216-0.1452637-1.2488708-0.2104263c-0.1937256-0.0327606-0.379364-0.0641556-0.5559082-0.094017
				c-0.1767883-0.0298233-0.355072-0.0498276-0.5169067-0.0730972c-0.3265076-0.0443344-0.611145-0.0829849-0.8455505-0.1148071
				c-0.4688416-0.0636597-0.7367554-0.1000443-0.7367554-0.1000443L384.2108765,99.7788544z"/>
			<path fill="#232323" d="M405.2493896,104.0818405c0,0,0.250885,0.1007767,0.6899109,0.2771149
				c0.2195129,0.0881729,0.4860535,0.1952362,0.7918091,0.3180466c0.0764465,0.0307007,0.1553345,0.0623932,0.2365417,0.0950165
				c0.081604,0.0331802,0.163269,0.0640106,0.2537537,0.1053391c0.1781311,0.0785828,0.3654175,0.1612015,0.5608826,0.2474213
				c0.3913269,0.1731949,0.8152771,0.3608322,1.2636719,0.559288c0.439209,0.2053757,0.8934326,0.4283905,1.3686829,0.6562271
				c0.2366638,0.1149597,0.4789734,0.2291031,0.721405,0.3499603c0.2399292,0.1255264,0.4827881,0.2525787,0.7275391,0.3806305
				c0.2449646,0.1283035,0.4918823,0.2576294,0.7397461,0.3874664c0.1239929,0.0650177,0.2482605,0.1301651,0.3725891,0.1953506
				c0.125061,0.0641632,0.2450256,0.1368942,0.3678589,0.2050171c0.4890137,0.2773514,0.9780273,0.5547104,1.4593811,0.8277359
				c0.2431335,0.1333542,0.4736328,0.2818832,0.7058411,0.4221191c0.2313843,0.1416779,0.4599915,0.2816467,0.6848145,0.4193344
				c0.2249756,0.1379089,0.4461975,0.2735214,0.6627197,0.4062653c0.1092224,0.0651398,0.2139893,0.13414,0.3171997,0.202774
				c0.1035156,0.0682373,0.20578,0.1356277,0.3066406,0.2021255c0.4037781,0.2664566,0.7855225,0.5183868,1.1379089,0.7509232
				c0.3560486,0.2284012,0.6668701,0.4580307,0.9476624,0.6551285c0.2798767,0.1985168,0.5238953,0.3715897,0.7248535,0.514122
				c0.4020691,0.2854996,0.6318359,0.4486465,0.6318359,0.4486465l-3.6091614,4.5304413
				c0,0-0.1983643-0.1663666-0.5455322-0.4575043c-0.1736755-0.1457901-0.384552-0.3228226-0.6264648-0.5258865
				c-0.2429199-0.2019501-0.5116272-0.4377289-0.8208313-0.6725998c-0.3060913-0.23983-0.6377258-0.499649-0.9884644-0.7744446
				c-0.087738-0.0688248-0.1766968-0.1385727-0.2667236-0.209198c-0.0897827-0.0710831-0.1809692-0.1425781-0.2762756-0.2101669
				c-0.1889343-0.1379242-0.3819275-0.2788315-0.5782471-0.4221268c-0.1964111-0.1435394-0.3961182-0.2894592-0.5982666-0.4371719
				c-0.203064-0.1464539-0.4044495-0.3016968-0.6177673-0.441658c-0.4226074-0.2874374-0.8519592-0.5794373-1.281311-0.8714447
				c-0.1080322-0.0719986-0.2134094-0.1487885-0.3236389-0.2168961c-0.1096497-0.0692368-0.2191772-0.1384125-0.3284912-0.2074432
				c-0.2187195-0.1382523-0.436615-0.2759781-0.6528015-0.4126129c-0.2163391-0.136879-0.4309692-0.2726669-0.6430359-0.4068298
				c-0.2145996-0.1296692-0.4294739-0.2526932-0.6393738-0.3766479c-0.4204712-0.2451553-0.8275452-0.4884033-1.2133484-0.7089844
				c-0.3856201-0.2097855-0.7501831-0.4081421-1.086731-0.5912323c-0.1684875-0.0919342-0.3299561-0.1800308-0.4835205-0.2638245
				c-0.0742798-0.0422516-0.1581421-0.0820999-0.2357788-0.1212845c-0.0782776-0.0391083-0.1543579-0.0770874-0.2280273-0.1138916
				c-0.2947998-0.1472168-0.5517883-0.2755661-0.7633972-0.3812561c-0.4232788-0.2113876-0.6651611-0.3321838-0.6651611-0.3321838
				L405.2493896,104.0818405z"/>
			<path fill="#232323" d="M423.9767151,115.0807571c0,0,0.2072144,0.1736679,0.5697937,0.4776001
				c0.1812744,0.1519547,0.4014282,0.3364868,0.6539612,0.5481491c0.0631409,0.0529099,0.1282959,0.1075287,0.1953735,0.1637421
				c0.0670471,0.0562286,0.1353149,0.112381,0.2097168,0.1798096c0.1467285,0.1303101,0.3009949,0.2673264,0.4619751,0.4102859
				c0.322113,0.2867126,0.6710205,0.5973129,1.0401001,0.9258499c0.3536377,0.3310547,0.726532,0.6801605,1.1123352,1.0413208
				c0.1918945,0.1813965,0.3898621,0.363472,0.585144,0.5523682c0.1930237,0.1910477,0.3883667,0.3844147,0.5852661,0.5793152
				c0.196991,0.1951523,0.3955383,0.3918533,0.5948486,0.5893097c0.0997009,0.0988388,0.199585,0.1978531,0.2995605,0.2969666
				l0.3136902,0.3262177c0.3745728,0.389946,0.749176,0.7798767,1.1178894,1.1637268
				c0.1820374,0.1847,0.3731384,0.4002457,0.5585632,0.602951c0.1859741,0.2045822,0.3696899,0.4066849,0.550415,0.6054611
				c0.1807251,0.1991425,0.3584595,0.3949356,0.5324097,0.5866013c0.0434875,0.0479584,0.0867615,0.0956726,0.1297607,0.1430817
				c0.0411377,0.0473785,0.0820007,0.0944595,0.1226501,0.1412582c0.0810242,0.0936279,0.1610718,0.1861115,0.2400208,0.2773514
				c0.315918,0.3653412,0.614563,0.7107391,0.8902893,1.0295868c0.2789612,0.3168793,0.5211792,0.6168442,0.7390442,0.8807068
				c0.2175598,0.2642365,0.407196,0.4945984,0.563385,0.6843033c0.312439,0.379776,0.4909973,0.5967789,0.4909973,0.5967789
				l-6.0222168,4.4633026c0,0-0.1482849-0.2131958-0.4077759-0.5863037
				c-0.1297607-0.1867065-0.2873535-0.4134521-0.4681396-0.6735229c-0.1810913-0.2599335-0.3822632-0.5561981-0.6151428-0.8677368
				c-0.2300415-0.3144073-0.4792175-0.6549988-0.7427979-1.0152588c-0.065918-0.0901489-0.1327209-0.1815338-0.2003479-0.2740479
				c-0.0674438-0.0939636-0.1363525-0.1847839-0.2063599-0.2745056c-0.139679-0.1815338-0.2824097-0.3670349-0.4275208-0.5556488
				c-0.1451721-0.1889725-0.2927551-0.3810654-0.4421387-0.5755386c-0.151062-0.1954193-0.2937622-0.3886566-0.4688721-0.5981903
				c-0.3363953-0.4124985-0.6781006-0.8315506-1.0198059-1.2506104l-0.2260132-0.2778702
				c-0.0842285-0.0981369-0.1683655-0.196167-0.2523193-0.294014c-0.1679688-0.1958618-0.3352661-0.3909454-0.5012512-0.5845032
				c-0.1660767-0.1937866-0.3308105-0.3860321-0.4935913-0.5759888c-0.1649475-0.1878052-0.332489-0.3685913-0.4948425-0.5491638
				c-0.3260803-0.3595428-0.6412964-0.7070923-0.9401855-1.0366745c-0.300415-0.3149414-0.5844727-0.6127243-0.8466492-0.8875809
				c-0.1311646-0.137825-0.2568359-0.2698975-0.3763733-0.3955231c-0.0573425-0.0620346-0.1231689-0.1258774-0.1854553-0.187355
				c-0.0623169-0.0614929-0.1228027-0.1212006-0.181427-0.1790619c-0.2345276-0.2314606-0.4389648-0.4332352-0.6073608-0.5994186
				c-0.336731-0.3323441-0.5291443-0.5222626-0.5291443-0.5222626L423.9767151,115.0807571z"/>
			<path fill="#232323" d="M438.8885498,130.9311066c0,0,0.1596375,0.2181702,0.4390564,0.5999756
				c0.1397095,0.1909027,0.3093567,0.422699,0.5039368,0.6885986c0.0973511,0.1332092,0.2009583,0.2749634,0.3101807,0.4243927
				c0.1117859,0.1597137,0.2293396,0.3276367,0.3519897,0.5028381c0.2453003,0.3509674,0.5110474,0.7311859,0.7921143,1.1333466
				c0.1434937,0.2020416,0.276886,0.4060822,0.4189453,0.6161652c0.1409607,0.2098694,0.2849731,0.4242859,0.4313965,0.6423187
				c0.1464844,0.2182159,0.2953796,0.4400482,0.446106,0.6645966c0.1505127,0.224762,0.2957458,0.4560394,0.4460449,0.6872101
				c0.2978516,0.4637604,0.6044006,0.9332428,0.9038696,1.4066162c0.2947693,0.4760284,0.5895081,0.9520416,0.8796997,1.420639
				c0.0725403,0.1172485,0.1448059,0.234024,0.2167053,0.3502197c0.0699768,0.117157,0.1395874,0.2337341,0.2087708,0.3495941
				c0.1380615,0.2320404,0.2743835,0.4612274,0.4085083,0.6866608c0.2665405,0.4518433,0.5321655,0.8852386,0.7671204,1.3041534
				c0.2385864,0.4174652,0.4641724,0.8121796,0.6723938,1.1765289c0.2105408,0.3635101,0.3951416,0.7005768,0.5586548,0.9994812
				c0.1640625,0.2987518,0.3071289,0.5592041,0.4249268,0.7736969c0.2355957,0.4292297,0.3702393,0.6744995,0.3702393,0.6744995
				l-8.2651062,4.0393829c0,0-0.1066589-0.2381134-0.2932739-0.6548309
				c-0.0933228-0.2084656-0.2066345-0.4616241-0.3366089-0.7519989c-0.1294556-0.290802-0.2756348-0.6188965-0.4437561-0.9719238
				c-0.1659546-0.3544922-0.3457336-0.7385254-0.5358887-1.1447144c-0.1867981-0.408493-0.4005432-0.8291931-0.6139221-1.2694397
				c-0.1075134-0.219696-0.2168579-0.4430542-0.3275146-0.6691589c-0.055481-0.1129913-0.1113281-0.2266846-0.16745-0.3409271
				c-0.0579529-0.1131287-0.1161804-0.2268372-0.1746521-0.3410034c-0.2338562-0.4569855-0.4714355-0.9212494-0.7090149-1.3855133
				c-0.2420349-0.4616394-0.4906616-0.91922-0.7319031-1.372345c-0.1218872-0.225708-0.2392273-0.4521942-0.3616943-0.6714935
				c-0.1226807-0.2192535-0.243866-0.4358368-0.3630676-0.6488495c-0.1192627-0.2131805-0.2364807-0.4228058-0.3512573-0.6279907
				c-0.1149902-0.2041321-0.2263794-0.4095459-0.3375549-0.5957794c-0.2210999-0.3789215-0.4301758-0.7371826-0.6231384-1.0678558
				c-0.0964661-0.1656036-0.1889343-0.3243103-0.276886-0.4752655c-0.0964355-0.1573334-0.1879272-0.3065643-0.2738953-0.4468079
				c-0.1723633-0.2808228-0.3226318-0.5256195-0.4463806-0.7272186c-0.2475281-0.4032288-0.3889465-0.6336365-0.3889465-0.6336365
				L438.8885498,130.9311066z"/>
			<path fill="#232323" d="M450.2229309,149.4648743c0,0,0.4737549,0.9721222,1.1844177,2.4302826
				c0.1776733,0.3645477,0.3701477,0.7594604,0.5737305,1.1771698c0.102478,0.2030182,0.2046814,0.4369812,0.309967,0.669342
				c0.1051941,0.2332916,0.212616,0.4716492,0.3218994,0.714035c0.2184448,0.4853516,0.4441833,0.9868622,0.6735535,1.49646
				c0.2280273,0.5097198,0.4650574,1.0291748,0.6921387,1.5467682c0.4299316,1.0305634,0.8598633,2.0611115,1.2629395,3.0272522
				c0.1007385,0.241806,0.1998291,0.479599,0.2967834,0.712326c0.0483093,0.1164703,0.0960693,0.2316895,0.1432495,0.3455048
				c0.0443115,0.1147156,0.0880737,0.2280426,0.1312256,0.3398438c0.1726379,0.447403,0.3358459,0.8704071,0.4865112,1.260849
				c0.6025696,1.5635834,1.0042725,2.605957,1.0042725,2.605957l-10.3650513,3.3822632c0,0-0.2958374-1.0029907-0.7396545-2.5074921
				c-0.1109314-0.3765411-0.2311096-0.7844849-0.3582153-1.2159576c-0.0317688-0.1079102-0.0639648-0.2173004-0.0965881-0.3280334
				c-0.0354004-0.1096191-0.071228-0.2205658-0.1074524-0.3327179c-0.0728455-0.2242279-0.1472473-0.4533081-0.2229309-0.686264
				c-0.3026733-0.9329834-0.6255188-1.9281311-0.9483643-2.9232788c-0.1684875-0.4878387-0.3426514-0.9677582-0.5108948-1.4450836
				c-0.1689148-0.4766541-0.335144-0.9457245-0.4960327-1.3996887c-0.0804138-0.2272491-0.1594543-0.4507141-0.2368469-0.6694489
				c-0.0780945-0.2193451-0.1488953-0.4299774-0.2381897-0.6499023c-0.1690063-0.4328613-0.3287964-0.8421021-0.4762878-1.2198639
				c-0.5899963-1.5110321-0.9833374-2.5183868-0.9833374-2.5183868L450.2229309,149.4648743z"/>
			<path fill="#232323" d="M458.6016541,169.4264069c0,0,0.3423767,1.0258331,0.8559265,2.5645599
				c0.128418,0.3846893,0.2675171,0.8014374,0.4146118,1.2422028c0.036438,0.11203,0.0748291,0.2177734,0.1110229,0.3390961
				c0.0365601,0.1194153,0.0735779,0.2402802,0.1109924,0.3624573c0.0747986,0.2444916,0.1511841,0.4942627,0.2288818,0.7482758
				c0.309967,1.0174103,0.6405945,2.1026154,0.9712219,3.1878357c0.3010864,1.0752106,0.6021423,2.1504059,0.8843689,3.1584015
				c0.0705261,0.252243,0.1398621,0.5002747,0.2077332,0.743042c0.0339355,0.1214294,0.0675049,0.2415314,0.1006775,0.3601837
				c0.0304871,0.1192017,0.0606079,0.2369537,0.090332,0.3531189c0.1185913,0.4648895,0.2307129,0.9044189,0.3342285,1.3101349
				c0.4137573,1.6243744,0.6896057,2.7072754,0.6896057,2.7072754l-12.3583984,2.4886322
				c0,0-0.1752014-1.0306244-0.4379883-2.5765533c-0.0656433-0.3868408-0.1367493-0.8059387-0.2119446-1.2492065
				c-0.0188599-0.1108398-0.0379639-0.2232056-0.0572815-0.3369446c-0.0219727-0.1130981-0.04422-0.2275696-0.0667114-0.343277
				c-0.0449524-0.2315216-0.0908813-0.4680328-0.1376038-0.7085571c-0.1867065-0.963028-0.3858643-1.9902649-0.585022-3.0175018
				c-0.2185669-1.0049286-0.4371643-2.0098724-0.6420593-2.9519958c-0.0512085-0.2358246-0.101532-0.4677277-0.1508179-0.6947021
				c-0.0245972-0.1135406-0.0489502-0.2258606-0.0730286-0.3368378c-0.0227051-0.1095276-0.0549622-0.2283936-0.0813904-0.3398285
				c-0.1108704-0.4512482-0.2156677-0.8778992-0.312439-1.2717438c-0.3869934-1.5753326-0.6450195-2.6255646-0.6450195-2.6255646
				L458.6016541,169.4264069z"/>
			<path fill="#232323" d="M464.4730225,190.2705688c0,0,0.2243042,1.0578918,0.5607605,2.6447449
				c0.0841064,0.3967285,0.1752319,0.8264923,0.271637,1.2810516c0.0237732,0.1148376,0.0491638,0.226181,0.0725708,0.3481293
				c0.0231018,0.1230469,0.0465088,0.2475891,0.0701904,0.3735046c0.0472717,0.2519073,0.0955811,0.5092773,0.1446838,0.7709961
				c0.1958313,1.048233,0.4046936,2.1663513,0.6135559,3.2844543c0.1819458,1.1043091,0.3638916,2.2085876,0.5344543,3.2438812
				c0.042572,0.2590332,0.0844421,0.5137329,0.1254272,0.7630615c0.0204773,0.1246948,0.040741,0.2480316,0.0607605,0.3698883
				c0.0176392,0.1221313,0.0350952,0.2427979,0.0523071,0.3618164c0.067749,0.4763947,0.1318054,0.9268036,0.1909485,1.3425598
				c0.2360535,1.6644592,0.3934631,2.7740936,0.3934631,2.7740936l-14.2510681,1.2975159
				c0,0-0.0623474-1.0402222-0.1558533-2.6005707c-0.0232544-0.3904419-0.0484619-0.8134003-0.0751038-1.2607727
				c-0.006897-0.1118622-0.013916-0.2252502-0.0209961-0.3400116c-0.0094299-0.1145477-0.0189819-0.2304535-0.0286255-0.3476563
				c-0.0192871-0.234436-0.0389709-0.4739685-0.059021-0.7175293c-0.079895-0.9751892-0.1651306-2.0153656-0.2503357-3.0555573
				c-0.1055298-1.0199585-0.2110901-2.0399017-0.3100281-2.996109c-0.0245972-0.2393799-0.0487976-0.474762-0.0724792-0.7051544
				c-0.0118103-0.1152496-0.0234985-0.229248-0.0350647-0.3418732c-0.012146-0.1135864-0.0293274-0.2337341-0.043457-0.3479156
				c-0.0591736-0.460907-0.1151123-0.8966522-0.1667786-1.2988892c-0.2065735-1.6089172-0.3442993-2.6815338-0.3442993-2.6815338
				L464.4730225,190.2705688z"/>
			<path fill="#232323" d="M468.0272827,211.6912689c0,0,0.1095276,1.075882,0.2738037,2.689682
				c0.0410767,0.4034729,0.0855713,0.8405457,0.1326294,1.3028259c0.0116272,0.1160126,0.023407,0.2335815,0.0353394,0.3526154
				c0.0097961,0.1256714,0.0197449,0.2528839,0.0297852,0.3814697c0.0200195,0.2572937,0.0404663,0.5201416,0.0612793,0.7874451
				c0.0823669,1.0705414,0.1702271,2.2124329,0.2580566,3.3543396c0.0618896,1.1238861,0.1237488,2.247757,0.1817627,3.3014069
				c0.0143433,0.2635803,0.0284729,0.5227661,0.0422668,0.7764587c0.0143433,0.2537231,0.0280762,0.5019989,0.0336609,0.7440033
				c0.0154724,0.4839935,0.0300598,0.9415894,0.0435486,1.3639984c0.0531616,1.6910248,0.0885925,2.8183594,0.0885925,2.8183594
				l-16.0106506-0.3037109c0,0,0.0513-1.0336761,0.1282349-2.5842285c0.0194092-0.3879852,0.0404663-0.8083038,0.0627441-1.2528687
				c0.0133057-0.2222748,0.019043-0.4509125,0.0246582-0.6846313c0.0061646-0.2337494,0.0124512-0.4725647,0.0188904-0.7154236
				c0.0258484-0.9721375,0.0534668-2.0090637,0.0810852-3.0460052c0.0049744-1.0175934,0.0099182-2.0351868,0.0145874-2.9891815
				c0.0013733-0.2388306,0.0027161-0.4736938,0.0040588-0.7035522c0.0007019-0.114975,0.0013733-0.228714,0.0020447-0.3410797
				c-0.0021973-0.1187592-0.0043945-0.2360687-0.0065613-0.3518066c-0.0093994-0.4645844-0.0182495-0.9038239-0.0264587-1.3092804
				c-0.0327759-1.6218262-0.0546265-2.7030334-0.0546265-2.7030334L468.0272827,211.6912689z"/>
			<path fill="#232323" d="M469.241272,233.5001831c0,0-0.0117188,1.0813599-0.0292664,2.7033844
				c-0.004364,0.4055023-0.0091248,0.8448029-0.0141602,1.3094635c-0.0012512,0.1161499-0.002533,0.233902-0.0038147,0.3531036
				c-0.0046387,0.1274414-0.0093384,0.2564392-0.0140991,0.3868561c-0.0097351,0.2612305-0.0196838,0.5281219-0.0297852,0.79953
				c-0.0417786,1.0869446-0.0863342,2.2463531-0.1308899,3.405777c-0.071228,1.1352844-0.1424561,2.2705536-0.2092285,3.3348694
				c-0.0169983,0.2661896-0.0337219,0.5279388-0.0500793,0.7841339c-0.0164185,0.2562408-0.0306396,0.507019-0.0550537,0.7508087
				c-0.0437012,0.487915-0.0850525,0.9492035-0.1231995,1.375c-0.1539612,1.7047272-0.2565918,2.841217-0.2565918,2.841217
				l-17.5393677-2.5029297c0,0,0.1738281-1.0068054,0.4346008-2.5170135
				c0.0655518-0.3779297,0.1365356-0.7873383,0.2116089-1.2203674c0.0401917-0.2161102,0.0708008-0.4402008,0.1040649-0.6689301
				c0.0332947-0.228775,0.0672607-0.4624939,0.1018066-0.7001801c0.1383667-0.9512329,0.2859802-1.9658813,0.4335938-2.9805298
				c0.1203308-0.9953308,0.2406616-1.9906616,0.3534851-2.9237823c0.0285339-0.2336121,0.0565796-0.4633179,0.0840759-0.6881714
				c0.0137329-0.1126404,0.0273132-0.2240601,0.040741-0.334137c0.0109558-0.1186981,0.021759-0.2359467,0.0324402-0.3516235
				c0.0427246-0.4627075,0.0830994-0.9001617,0.1203918-1.3039856c0.1491089-1.6152496,0.2485046-2.6920624,0.2485046-2.6920624
				L469.241272,233.5001831z"/>
			<path fill="#232323" d="M467.8556213,255.5347137c0,0-0.2912292,2.0782013-0.5824585,4.1563873
				c-0.3922119,2.2681274-0.7844238,4.5362549-0.7844238,4.5362549l-18.2299194-4.1533508
				c0,0,0.4772644-1.834259,0.9545593-3.6685181c0.4589233-2.0476685,0.9178162-4.0953522,0.9178162-4.0953522
				L467.8556213,255.5347137z"/>
			<g>
				<polygon fill="#232323" points="443.7744141,253.2452698 450.5687256,283.1343994 473.0591736,262.3088379 				"/>
			</g>
		</g>
		<g>
			<path fill="#640657" d="M358.7584229,104.9591675c0,0,0.1082458-0.0739441,0.3016052-0.1977997
				c0.0963135-0.0625153,0.2133789-0.1386185,0.3496704-0.2221451c0.1359558-0.0844193,0.2893372-0.1796646,0.4566956-0.2835617
				c0.1692505-0.1007385,0.3526001-0.209877,0.5465393-0.3253098c0.0971375-0.0576172,0.1969299-0.1167908,0.2989197-0.1772842
				c0.1030579-0.0585251,0.2083435-0.1183243,0.3153992-0.1791229c0.2143555-0.1216965,0.4358215-0.2474518,0.6608582-0.3752289
				c0.2275391-0.1232681,0.4587097-0.248497,0.6898499-0.3737183c0.231781-0.1242065,0.4624023-0.2512436,0.6918335-0.3713379
				c0.2307129-0.1176682,0.4577332-0.2334518,0.6774292-0.34552c0.2199097-0.1121368,0.4324951-0.2205353,0.6340637-0.3233261
				c0.2017822-0.1025696,0.3961182-0.1915588,0.5737-0.2780075c0.7127991-0.3416977,1.1879578-0.5694885,1.1879578-0.5694885
				l0.2617188,0.6294708c0,0-0.4877319,0.186821-1.2192993,0.4670639c-0.1825256,0.0711746-0.3824463,0.1436996-0.5901489,0.2288589
				c-0.2076721,0.0854568-0.4266663,0.1755753-0.6532288,0.2687988c-0.2267456,0.0932999-0.4610596,0.1897202-0.6991272,0.2876892
				c-0.2369995,0.1004791-0.4754333,0.2076111-0.7153015,0.3120956c-0.239502,0.1055603-0.4789734,0.2111282-0.7146912,0.3150482
				c-0.2336121,0.1086044-0.4635315,0.2154999-0.6860046,0.3189316c-0.1113281,0.0517654-0.2208252,0.1026688-0.3279724,0.1524811
				c-0.1061401,0.0518188-0.2099915,0.1025085-0.3110657,0.1518555c-0.202179,0.0990677-0.3933411,0.1927338-0.5697937,0.2791977
				c-0.1747742,0.0897675-0.3349915,0.1720581-0.4770203,0.2449951c-0.1426392,0.0721741-0.2650146,0.1382904-0.3659668,0.1927032
				C358.8724365,104.8941727,358.7584229,104.9591675,358.7584229,104.9591675z"/>
			<path fill="#640657" d="M369.53479,99.4635162c0,0,0.2516785-0.0987701,0.6920776-0.2716217
				c0.2202148-0.0864258,0.4876099-0.1913757,0.794342-0.3117447c0.0766602-0.0301056,0.1558228-0.0611572,0.2372742-0.093132
				c0.0830383-0.0302811,0.1684265-0.0614319,0.2561035-0.0933914c0.1755371-0.0638657,0.3601074-0.1310043,0.5526733-0.2010803
				c0.1927795-0.0700912,0.3935852-0.1431122,0.6014404-0.2186813c0.2081604-0.0741425,0.4224854-0.1575012,0.6450195-0.2289886
				c0.4445801-0.1486893,0.9134216-0.3054962,1.398407-0.4676895c0.1213989-0.0405731,0.2437744-0.0814896,0.3670349-0.1226959
				c0.1242676-0.0378723,0.2494202-0.0760117,0.3753052-0.1143875c0.2520447-0.0766525,0.5071106-0.1542435,0.7642517-0.2324524
				c0.2573547-0.0782394,0.5167236-0.1571045,0.7771606-0.2362747c0.2601929-0.0804901,0.5253601-0.1460419,0.7885437-0.2199631
				c0.5279541-0.1434555,1.0559082-0.286911,1.5756226-0.4281082c0.5240173-0.1259918,1.0397034-0.2499847,1.5387878-0.3699722
				c0.2499084-0.0590591,0.4950562-0.1211243,0.7364197-0.1746521c0.242157-0.0501175,0.4790344-0.0991516,0.7096558-0.1468887
				c0.4617615-0.095459,0.8983459-0.1857147,1.3013306-0.2690201c0.1008606-0.0205383,0.199646-0.0406418,0.2962036-0.0602951
				c0.0970459-0.016716,0.191864-0.0330505,0.2842712-0.0489731c0.1849365-0.0318604,0.3603516-0.0620651,0.5252075-0.0904541
				c0.3299561-0.0567703,0.6176453-0.1062622,0.8545227-0.1470184c0.4742737-0.0814743,0.7452698-0.1280289,0.7452698-0.1280289
				l0.2694397,2.3699799c0,0-0.264679,0.0236969-0.7278748,0.065155c-0.2318115,0.0207214-0.5133057,0.0458832-0.8361816,0.0747223
				c-0.1615601,0.0144272-0.3334961,0.0297775-0.5147705,0.0459442c-0.0906677,0.0080872-0.1836548,0.0163803-0.2788696,0.0248718
				c-0.0950012,0.0099716-0.191803,0.023201-0.2909241,0.0350418c-0.3965454,0.048912-0.8261414,0.1018982-1.2805176,0.1579361
				c-0.227478,0.0280228-0.4611206,0.0568085-0.6999512,0.0862198c-0.2383423,0.0328369-0.4806519,0.0737915-0.7278748,0.1113663
				c-0.4945984,0.0770874-1.0056458,0.1567307-1.5249634,0.2376556c-0.5170593,0.0963135-1.0423279,0.1941376-1.5675964,0.2919769
				c-0.2623291,0.0511627-0.526825,0.093956-0.7867432,0.1518402c-0.2603149,0.0565872-0.5196228,0.1129456-0.776886,0.1688766
				c-0.2575073,0.0559464-0.51297,0.1114426-0.7653503,0.1662979c-0.1262817,0.0274887-0.25177,0.0548172-0.3763733,0.0819397
				c-0.1237183,0.0304871-0.246582,0.0607529-0.3684082,0.0907745c-0.487854,0.1201477-0.9594421,0.2362976-1.4066467,0.3464355
				c-0.2249756,0.0525284-0.4378967,0.1162567-0.6468201,0.17202c-0.208374,0.0570908-0.409729,0.1122742-0.6029968,0.1652222
				c-0.1934814,0.0530014-0.3788757,0.1037827-0.5552063,0.152092c-0.0882568,0.024231-0.1742249,0.0478363-0.2578125,0.0707932
				c-0.0837708,0.0252609-0.1651917,0.0497894-0.2440491,0.0735626c-0.3154602,0.0950928-0.5905151,0.1779938-0.8169861,0.2462616
				c-0.4530029,0.1365433-0.711853,0.2145691-0.711853,0.2145691L369.53479,99.4635162z"/>
			<path fill="#640657" d="M390.0814819,94.3145752c0,0,0.2693481-0.0231552,0.7407532-0.0636597
				c0.2356873-0.0202484,0.5218811-0.0448456,0.8501892-0.0730515c0.1654663-0.0129318,0.3358459-0.0317535,0.5259094-0.0422974
				c0.1902771-0.0103989,0.3903809-0.0213318,0.5991516-0.0327454c0.4182739-0.0225601,0.8713989-0.0470123,1.350647-0.0728531
				c0.4767151-0.0164032,0.976593-0.0239029,1.4959717-0.0367966c0.2595825-0.0053558,0.5234985-0.0107956,0.7906799-0.0163116
				c0.2672119,0.0026169,0.5376892,0.0052643,0.8103333,0.0079269c0.2728882,0.0027618,0.5479736,0.0055542,0.8240967,0.0083466
				c0.2763062,0.002861,0.5539551,0.0030594,0.8308411,0.0188751c0.5547791,0.0242767,1.1095276,0.0485382,1.6556396,0.0724411
				c0.2737122,0.0080109,0.5436401,0.0343246,0.8110352,0.0541611c0.2674561,0.0209732,0.5316467,0.0416946,0.7915039,0.0620728
				c0.2600708,0.0204926,0.5158386,0.0406418,0.7661743,0.0603638c0.0625916,0.0050507,0.1248474,0.0100861,0.1867676,0.0150909
				c0.061676,0.0070267,0.1229858,0.0140076,0.1838989,0.0209427c0.1219177,0.0139008,0.2423401,0.0276184,0.361145,0.0411682
				c0.4756775,0.0544281,0.9254456,0.105896,1.3405762,0.1533966c0.4164734,0.0417404,0.7941284,0.106163,1.1303711,0.1556702
				c0.3361816,0.0509033,0.6292725,0.0952835,0.8706055,0.1318283c0.4831543,0.0733719,0.7592468,0.1153107,0.7592468,0.1153107
				l-0.8445129,4.000618c0,0-0.2544861-0.0599213-0.6998291-0.164772c-0.2229004-0.0525742-0.4935913-0.1164169-0.8040466-0.1896362
				c-0.3108826-0.0720367-0.6602478-0.1621094-1.0467529-0.2322617c-0.3857422-0.0762558-0.8036194-0.1588593-1.245636-0.2462463
				c-0.1106262-0.021904-0.2227478-0.0441132-0.3362732-0.066597c-0.0567627-0.0112457-0.1138916-0.0225677-0.1713257-0.0339508
				c-0.0577698-0.0093842-0.1158447-0.0188217-0.1742249-0.0283203c-0.2337952-0.0375824-0.4726563-0.0759811-0.7155457-0.1150436
				c-0.2431335-0.0391617-0.4903259-0.0789871-0.7405701-0.1192932c-0.2504578-0.039299-0.503418-0.085434-0.7605286-0.1135559
				c-0.513855-0.0645676-1.0358887-0.1301651-1.5579224-0.1957626c-0.2609863-0.0366974-0.5232849-0.0578995-0.7845154-0.0817947
				c-0.261322-0.0239258-0.5216675-0.0477524-0.7799377-0.0713882c-0.2585144-0.023735-0.5150146-0.047287-0.7684326-0.0705566
				c-0.2539978-0.0153122-0.5049133-0.0304337-0.751709-0.0453186c-0.4934998-0.0277405-0.9727173-0.0598068-1.424469-0.0811615
				c-0.4492188-0.0123444-0.8739319-0.024025-1.2660217-0.0348053c-0.1963501-0.0055161-0.384552-0.0108109-0.5635376-0.0158386
				c-0.1792297-0.0049591-0.3585815,0.0000076-0.5220642-0.0005493c-0.3294983,0.0014801-0.6167603,0.0027771-0.853302,0.00383
				c-0.4731445,0.002121-0.7434998,0.0033264-0.7434998,0.0033264L390.0814819,94.3145752z"/>
			<path fill="#640657" d="M411.513855,95.6517181c0,0,0.2624512,0.0649261,0.7217407,0.1785431
				c0.2296143,0.0568008,0.5084534,0.1257782,0.8283081,0.204895c0.0799866,0.019783,0.1625061,0.0401993,0.247467,0.0612183
				c0.0854187,0.0215225,0.1705933,0.0407028,0.2659302,0.0690536c0.1873169,0.0530624,0.3842773,0.1088486,0.5898132,0.1670685
				c0.4116211,0.1171188,0.8575134,0.2440109,1.3291626,0.3782196c0.4634705,0.142334,0.9442749,0.3000488,1.4465942,0.4596176
				c0.2503357,0.0809631,0.5061646,0.1603317,0.763031,0.2463074c0.2550659,0.0909576,0.5132141,0.1830292,0.773407,0.2758179
				c0.2604065,0.0930176,0.5228882,0.1867676,0.7864075,0.280899c0.1318359,0.047142,0.263916,0.0943909,0.3961487,0.1416702
				c0.1327515,0.0461578,0.2616272,0.1015091,0.3927917,0.1519012c0.5227966,0.2066803,1.0455933,0.4133835,1.5602417,0.6168442
				c0.2593079,0.0982819,0.5081787,0.2133331,0.7576599,0.3199234c0.2488098,0.1081543,0.4946594,0.2149963,0.7364502,0.3200912
				c0.2419434,0.1053009,0.4798584,0.2088547,0.7127686,0.3102112c0.1171875,0.0493317,0.2305298,0.103096,0.3422546,0.1567154
				c0.11203,0.0531921,0.2226257,0.1057205,0.3317871,0.1575546c0.4368896,0.2077484,0.8499451,0.4041748,1.2312317,0.5854797
				c0.3843384,0.1766968,0.7240601,0.3609009,1.0295105,0.5170593c0.3047485,0.1576843,0.5704651,0.2951584,0.7892456,0.4083786
				c0.4378967,0.2268448,0.6881104,0.3564758,0.6881104,0.3564758l-2.9444885,4.9880981
				c0,0-0.2195435-0.1371689-0.6038208-0.3772354c-0.1922302-0.1202469-0.4256897-0.266243-0.6934814-0.4337234
				c-0.2686157-0.166214-0.5674744-0.3623581-0.9063416-0.5519791c-0.3364563-0.1949615-0.7009583-0.4061661-1.0864868-0.6295471
				c-0.0964966-0.0559616-0.1942444-0.1126633-0.2932434-0.1700897c-0.0987854-0.0579147-0.1990051-0.1160431-0.3027649-0.1697311
				c-0.2062683-0.110321-0.4170227-0.2230453-0.6313171-0.3376694c-0.2144775-0.1148376-0.4325256-0.2315826-0.6532288-0.3497696
				c-0.2214661-0.116806-0.4424744-0.2425537-0.6731567-0.3515167c-0.4584656-0.2258987-0.9242249-0.4553986-1.3899841-0.6848907
				c-0.1170349-0.0562897-0.2320251-0.1176834-0.3506775-0.1698151c-0.1181946-0.0533295-0.2362671-0.1066055-0.3540955-0.1597748
				c-0.2358398-0.1065063-0.4707642-0.2126083-0.7038269-0.3178787c-0.2332764-0.1054764-0.4646912-0.2101135-0.6933289-0.3135071
				c-0.2305603-0.0985794-0.4604492-0.1905441-0.6855469-0.284111c-0.45047-0.1843491-0.8873901-0.3686523-1.3001099-0.5334778
				c-0.4110107-0.1541519-0.7996216-0.2999115-1.1583557-0.4344559c-0.1796265-0.0676193-0.3517761-0.1324234-0.5155029-0.1940536
				c-0.0794067-0.0315247-0.1679993-0.0593185-0.2503052-0.0873413c-0.0829773-0.0278473-0.1635742-0.0548859-0.2416687-0.0810928
				c-0.3123779-0.1048126-0.5847168-0.1961899-0.8089905-0.2714539c-0.4485474-0.1505051-0.704834-0.2365112-0.704834-0.2365112
				L411.513855,95.6517181z"/>
			<path fill="#640657" d="M431.5881348,103.9410248c0,0,0.2293091,0.1431885,0.6306458,0.3937683
				c0.2006531,0.1252823,0.4443054,0.2774277,0.7237854,0.4519348c0.0698853,0.0436249,0.1419983,0.0886536,0.2162476,0.1350098
				c0.0742188,0.0463486,0.1496277,0.0924683,0.232666,0.1489182c0.1634216,0.1086426,0.3352356,0.2228851,0.5145264,0.3420868
				c0.3588257,0.2391663,0.7475281,0.4982452,1.1586914,0.7723007c0.3961792,0.2786865,0.8139954,0.5725861,1.2462463,0.8766098
				c0.215271,0.1529694,0.4365845,0.3057632,0.65625,0.465683c0.2176819,0.1623688,0.4380188,0.3267059,0.6600952,0.4923553
				c0.2221985,0.1658707,0.446167,0.3330688,0.67099,0.5009079c0.1124573,0.0840149,0.2251282,0.16819,0.3379211,0.252449
				l0.3559875,0.2794495c0.4251404,0.3340988,0.8502808,0.66819,1.2687988,0.9970627
				c0.2059021,0.157608,0.4251404,0.3444977,0.6369324,0.5194626c0.2125854,0.1767502,0.4226379,0.3513565,0.6292114,0.5230942
				c0.206665,0.172081,0.4098816,0.3412704,0.6087952,0.506897c0.0497131,0.0414505,0.0991821,0.0826874,0.1483765,0.1236649
				c0.0473022,0.0411987,0.0943604,0.0821381,0.1411133,0.1228409c0.0932312,0.0814514,0.1853333,0.1619186,0.2762146,0.2413025
				c0.3636169,0.3178787,0.7073975,0.6184235,1.0247192,0.8958435c0.320343,0.275032,0.6018677,0.5384216,0.8543091,0.7694473
				c0.2521667,0.2314377,0.4719849,0.4332047,0.6530151,0.5993576c0.3622131,0.3326645,0.5691528,0.5227432,0.5691528,0.5227432
				l-5.3433838,5.2569962c0,0-0.1764832-0.1905212-0.485321-0.5239334c-0.1544495-0.1668701-0.342041-0.3694992-0.5571899-0.6019363
				c-0.2154846-0.2322235-0.4558716-0.4976578-0.7297974-0.7738037c-0.2714844-0.2793808-0.5656128-0.5820389-0.8766785-0.9021683
				c-0.0778198-0.0801163-0.1566772-0.1613235-0.2365112-0.2435379c-0.079834-0.0836868-0.1607056-0.1640396-0.2424927-0.2431717
				c-0.1635742-0.1603622-0.3306885-0.3242188-0.5006104-0.4908295c-0.1700439-0.166954-0.342865-0.3366852-0.5178223-0.5085068
				c-0.1767883-0.1725159-0.3449707-0.3440475-0.5474854-0.5271988c-0.3904419-0.3617554-0.7870789-0.7292404-1.1837158-1.0967407
				l-0.2624512-0.2437668c-0.0970459-0.0854797-0.1939697-0.1708679-0.2907104-0.2560883
				c-0.193573-0.1706238-0.3863525-0.3405533-0.5776672-0.5091629c-0.1913757-0.1688232-0.3812256-0.3363037-0.5688171-0.5017929
				c-0.1894531-0.163063-0.3805237-0.3188019-0.5663757-0.4750595c-0.3728943-0.31073-0.7333374-0.6110992-1.0751648-0.8959351
				c-0.3412476-0.270134-0.6639404-0.5255432-0.9617615-0.7612991c-0.1490479-0.1182556-0.2918701-0.2315826-0.4277039-0.3393631
				c-0.0654297-0.0534668-0.1394653-0.1075439-0.2097168-0.1597672c-0.0702209-0.0522308-0.1384583-0.102951-0.2045593-0.1521072
				c-0.2644043-0.1966171-0.4949036-0.3680191-0.6847534-0.5091934c-0.3796387-0.2823105-0.5965881-0.443634-0.5965881-0.443634
				L431.5881348,103.9410248z"/>
			<path fill="#640657" d="M448.558197,117.5649796c0,0,0.188446,0.1938705,0.518219,0.5331345
				c0.1648865,0.1696243,0.3650818,0.3756027,0.5947571,0.6118698c0.1148987,0.1183853,0.2372131,0.2443619,0.3661499,0.3771667
				c0.1329041,0.1426163,0.272644,0.292572,0.418457,0.4490433c0.291687,0.3134613,0.6076965,0.6530457,0.9419556,1.0122375
				c0.170166,0.1801529,0.3306274,0.3636703,0.5005188,0.5519714c0.1687317,0.1882401,0.341156,0.3805542,0.5164795,0.5761261
				c0.1753845,0.1957245,0.3536682,0.3947067,0.5341492,0.596138c0.1802673,0.2016602,0.3562622,0.4105072,0.5372009,0.6185379
				c0.359436,0.4178543,0.728241,0.8401947,1.0906067,1.267334c0.3580627,0.4304428,0.7161255,0.860878,1.0686035,1.2845917
				c0.0881653,0.1060257,0.1759338,0.2116318,0.2633057,0.3167038c0.0855408,0.1063004,0.1706848,0.212059,0.2553101,0.3171844
				c0.1689758,0.2105942,0.3358459,0.4186096,0.5,0.6232224c0.3267212,0.4104004,0.6500549,0.8026657,0.940918,1.1848679
				c0.2943115,0.3802567,0.5725403,0.7397842,0.8294067,1.0716476c0.2590027,0.3307343,0.488678,0.638855,0.6921387,0.9121246
				c0.20401,0.273056,0.3818665,0.5111084,0.5283203,0.7071381c0.2929993,0.392334,0.4604187,0.6165009,0.4604187,0.6165009
				l-7.6235046,5.1489258c0,0-0.1386719-0.2209778-0.3814087-0.6077118
				c-0.1213989-0.1934814-0.2687988-0.4284363-0.4378357-0.6979218c-0.1686401-0.2699738-0.3590088-0.5745697-0.5745544-0.9008179
				c-0.213623-0.3279877-0.4450378-0.6833038-0.6898193-1.0591125c-0.2417297-0.3785706-0.5118713-0.7654877-0.7843933-1.1717987
				c-0.1369934-0.2026215-0.2763062-0.4086151-0.4173279-0.6171417c-0.0706482-0.104187-0.1417542-0.2089996-0.2131958-0.3143463
				c-0.0731201-0.1039734-0.1465759-0.2084808-0.2203369-0.3134155c-0.295105-0.4200592-0.5949097-0.8467865-0.8947144-1.2735138
				c-0.303833-0.4235382-0.613678-0.8421021-0.9155273-1.2573242c-0.1520691-0.2065659-0.2997742-0.4145355-0.4515076-0.6147079
				c-0.1519775-0.200058-0.3020935-0.3976898-0.4497681-0.5920792c-0.1477051-0.1945419-0.2929382-0.3858261-0.4350891-0.5730667
				c-0.1422729-0.1861801-0.2811279-0.3741074-0.4170837-0.5430984c-0.271637-0.3444977-0.5284729-0.6702194-0.7655334-0.970871
				c-0.1185608-0.1505966-0.2321777-0.2949142-0.340271-0.4321747c-0.1173401-0.1423874-0.2286682-0.2774658-0.333313-0.4043961
				c-0.2097473-0.2541351-0.3925476-0.4756775-0.5431213-0.6581268c-0.3011475-0.3648987-0.4732361-0.5734177-0.4732361-0.5734177
				L448.558197,117.5649796z"/>
			<path fill="#640657" d="M462.358551,134.3435364c0,0,0.6042786,0.8968353,1.5107117,2.2420654
				c0.2266235,0.336319,0.4721069,0.7006531,0.7317505,1.0860138c0.1297302,0.1867981,0.2634583,0.4042816,0.3999939,0.6197662
				c0.1365967,0.2164154,0.276123,0.4375153,0.4180298,0.6623535c0.283783,0.4502869,0.5770264,0.9155579,0.875,1.3883362
				c0.2966614,0.473053,0.6035767,0.9545441,0.9003906,1.4355469c0.5690002,0.9608002,1.1380005,1.9215851,1.6714172,2.8223419
				c0.1333923,0.2254639,0.2645569,0.4471588,0.3929443,0.6641541c0.0639954,0.1086273,0.1273193,0.2160797,0.1898804,0.3222504
				c0.0597839,0.1074371,0.118866,0.2135925,0.1771545,0.3183136c0.2331543,0.4190521,0.4535828,0.8152618,0.6570435,1.1809845
				c0.8140564,1.4646454,1.35672,2.4410706,1.35672,2.4410706l-9.794342,4.7900543c0,0-0.4324036-0.9521332-1.0809937-2.3803406
				c-0.1622009-0.3574829-0.3378906-0.7447662-0.5237427-1.1543732c-0.0464478-0.1024628-0.0935669-0.2063141-0.1412354-0.3114471
				c-0.050293-0.1036224-0.1011963-0.2085114-0.1526794-0.3145294c-0.103302-0.2119446-0.2088013-0.4284515-0.3161316-0.6486359
				c-0.4294128-0.8818512-0.8874207-1.822464-1.3454285-2.763092c-0.2346802-0.459671-0.4738464-0.9107361-0.7067871-1.3600464
				c-0.233551-0.4485474-0.4633789-0.8899689-0.685791-1.3171539c-0.1112061-0.2138824-0.2205505-0.4241791-0.3275757-0.6300354
				c-0.1078186-0.2063599-0.2072144-0.4051208-0.3262024-0.6105042c-0.2275391-0.4051666-0.442688-0.7882233-0.6412354-1.1417999
				c-0.794281-1.4143829-1.323822-2.3572998-1.323822-2.3572998L462.358551,134.3435364z"/>
			<path fill="#640657" d="M473.4303284,152.9467926c0,0,0.4816589,0.968277,1.2041016,2.4207001
				c0.180603,0.3631134,0.3762817,0.7564697,0.5832214,1.1725311c0.0516357,0.1058655,0.1043701,0.2052612,0.157074,0.3203583
				c0.0527954,0.1131744,0.1062622,0.2277222,0.1602783,0.3435211c0.1080627,0.23172,0.2184143,0.4684448,0.330658,0.709198
				c0.4483948,0.964447,0.9266357,1.9931641,1.4048767,3.0219116c0.4475708,1.0229187,0.8951721,2.0458527,1.3147583,3.004837
				c0.1048889,0.239975,0.2080383,0.4759674,0.309021,0.706955c0.0504761,0.115509,0.1004028,0.2297821,0.1497498,0.3426971
				c0.0467529,0.1138,0.092926,0.2262268,0.1385193,0.3371429c0.1820679,0.4438782,0.354187,0.8635559,0.5130615,1.250946
				c0.6355286,1.5511017,1.0592041,2.5851593,1.0592041,2.5851593l-11.8925476,4.1821289
				c0,0-0.3167725-0.9962616-0.7918701-2.4906616c-0.1187744-0.3739624-0.247406-0.7790985-0.3835144-1.2076263
				c-0.0340576-0.1071472-0.0686035-0.2157593-0.1035461-0.3257294c-0.0374756-0.1089325-0.0754395-0.2192078-0.1137695-0.3306732
				c-0.0766907-0.2230072-0.1550598-0.4508362-0.2347412-0.6825409c-0.3187561-0.9277344-0.6587524-1.9173126-0.9987488-2.9069061
				c-0.3561401-0.964798-0.7122498-1.9295959-1.0461426-2.8341064c-0.0834656-0.2264099-0.1655273-0.4490662-0.2458801-0.6669922
				c-0.0401611-0.109024-0.079895-0.2168732-0.1191406-0.32341c-0.0377197-0.1053162-0.0861511-0.2185516-0.1278381-0.3252106
				c-0.1724854-0.4314728-0.3356018-0.8394165-0.486145-1.2159882c-0.6022034-1.5062561-1.0036926-2.510437-1.0036926-2.510437
				L473.4303284,152.9467926z"/>
			<path fill="#640657" d="M482.1417847,172.7725983c0,0,0.3691711,1.016449,0.9229126,2.5411377
				c0.1384277,0.3811798,0.2884216,0.7940979,0.447052,1.2308655c0.0395203,0.1104126,0.0801392,0.2171326,0.1202393,0.3346558
				c0.0400085,0.1186371,0.0805054,0.2387238,0.1214294,0.3601227c0.0818176,0.2429047,0.1654358,0.4910583,0.2504578,0.7434082
				c0.3395996,1.0108337,0.7018433,2.0890808,1.0640869,3.1672974c0.3336792,1.0682983,0.6672974,2.1365814,0.9801331,3.1381226
				c0.0781555,0.2505951,0.1549988,0.4970093,0.2302551,0.7382202c0.0375977,0.120636,0.0747986,0.2399597,0.1115723,0.3578491
				c0.0344543,0.1184998,0.068512,0.2355652,0.1020813,0.3510437c0.1333008,0.4623413,0.2593384,0.8994904,0.3757019,1.3029785
				c0.4651184,1.6154938,0.7752075,2.6925049,0.7752075,2.6925049l-13.9324341,3.2656097
				c0,0-0.2062683-1.0214539-0.5157471-2.5536652c-0.077301-0.3834076-0.1610413-0.7987671-0.2496033-1.2380829
				c-0.0223999-0.1098175-0.045105-0.2211304-0.0680542-0.3338165c-0.0252686-0.1121063-0.0508118-0.2255859-0.0766907-0.3402863
				c-0.0516663-0.2294922-0.1044617-0.4639587-0.1581726-0.7023773c-0.2146606-0.9546051-0.443634-1.9728546-0.6725769-2.9910889
				c-0.2462769-0.9953918-0.4925537-1.9907684-0.7234497-2.9239502c-0.0576172-0.2336426-0.1142883-0.4633636-0.1697693-0.6882324
				c-0.0277405-0.1124878-0.0551453-0.2237549-0.0822449-0.3336945c-0.027832-0.1107788-0.061554-0.2273865-0.0914001-0.3384857
				c-0.1226501-0.4481964-0.2386169-0.8719482-0.3456726-1.2631073c-0.4281921-1.5645905-0.7136536-2.6076508-0.7136536-2.6076508
				L482.1417847,172.7725983z"/>
			<path fill="#640657" d="M488.6387634,193.491394c0,0,0.2579956,1.0502014,0.644989,2.6255188
				c0.0967407,0.3938446,0.2015381,0.8204956,0.3124084,1.271759c0.0276489,0.1132507,0.0556335,0.2280579,0.0839844,0.3442688
				c0.0271912,0.1230927,0.054718,0.2476807,0.0825195,0.373642c0.055603,0.2519989,0.1123962,0.5094452,0.1701355,0.7712708
				c0.2303467,1.0487061,0.4760742,2.1672974,0.7217712,3.2859192c0.2174683,1.1043701,0.4349365,2.2087402,0.638855,3.2440948
				c0.0508423,0.2590332,0.1008301,0.5137482,0.1497498,0.7630615c0.049469,0.2492523,0.0975952,0.4932251,0.1367798,0.7321014
				c0.08255,0.4771423,0.160614,0.9282837,0.232666,1.3447113c0.2876892,1.6672058,0.4794617,2.7786713,0.4794617,2.7786713
				l-15.8974609,1.92453c0,0-0.092865-1.030777-0.2321777-2.5769653c-0.0346985-0.3869324-0.0722656-0.8060913-0.11203-1.2494354
				c-0.0177002-0.2219696-0.0437927-0.449173-0.0707397-0.6814117c-0.0263672-0.2323608-0.0533142-0.4697266-0.080719-0.7111206
				c-0.1094971-0.9662933-0.2262573-1.996994-0.3430481-3.0276947c-0.1365051-1.0084229-0.2730408-2.0168304-0.401001-2.962204
				c-0.0318298-0.2367096-0.0631409-0.4694672-0.09375-0.6972809c-0.0153198-0.1139679-0.030426-0.2266846-0.0453796-0.3380585
				c-0.0187073-0.1173096-0.0372009-0.2331696-0.0554199-0.3474731c-0.0738831-0.458786-0.1437073-0.8925323-0.2081604-1.2929077
				c-0.2579041-1.601532-0.4297791-2.6692047-0.4297791-2.6692047L488.6387634,193.491394z"/>
			<path fill="#640657" d="M492.8721008,214.9199219c0,0,0.1387329,1.0724792,0.3467712,2.6811981
				c0.0520325,0.4021759,0.1083679,0.8378754,0.1679688,1.2987213c0.0149231,0.1152039,0.0300293,0.2319794,0.0453186,0.3502045
				c0.013092,0.1268463,0.0263672,0.255249,0.0397949,0.3850555c0.0266724,0.2600555,0.0539246,0.5257263,0.0816345,0.7959137
				c0.1097107,1.0822144,0.2267151,2.236557,0.34375,3.3909149c0.0872498,1.1341705,0.1744995,2.2683258,0.2562866,3.3315887
				c0.0201416,0.2659607,0.039978,0.5274963,0.0593872,0.7834778c0.0193481,0.2560272,0.0401611,0.5063629,0.0498657,0.7511749
				c0.0245056,0.4892426,0.047699,0.9518127,0.0690613,1.3787689c0.0845032,1.7095795,0.1408081,2.8493042,0.1408081,2.8493042
				l-17.7170105-0.0408783c0,0,0.0322266-1.0212097,0.0805664-2.5529938
				c0.0123596-0.3833618,0.0257568-0.7986755,0.039917-1.2379456c0.0097656-0.219574,0.0089417-0.4457703,0.0101013-0.6768799
				c0.0011597-0.2311859,0.0023193-0.4673767,0.003479-0.70755c0.0048523-0.9612427,0.0099792-1.9865417,0.0151367-3.0118561
				c-0.019165-1.0023956-0.0383301-2.0047913-0.0563049-2.9445343c-0.0042114-0.2353058-0.0083618-0.4666901-0.0123901-0.6931763
				c-0.0020752-0.1134644-0.0041199-0.2256927-0.0061035-0.3365479c-0.0056458-0.1190796-0.0112305-0.2366943-0.0167236-0.3527374
				c-0.0220337-0.4641418-0.0428162-0.9029694-0.0620422-1.3080444c-0.0768127-1.6203003-0.1280518-2.7004852-0.1280518-2.7004852
				L492.8721008,214.9199219z"/>
			<path fill="#640657" d="M494.562439,236.9331665c0,0,0.0004578,2.0984955,0.000885,4.196991
				c-0.0731812,2.3006287-0.1463318,4.6012573-0.1463318,4.6012573l-18.630249-1.5793304
				c0,0,0.2177124-1.882782,0.4354248-3.7655487c0.1698608-2.0916138,0.3396912-4.183197,0.3396912-4.183197L494.562439,236.9331665
				z"/>
			<g>
				<polygon fill="#640657" points="470.396759,238.0129089 481.2793274,266.6676331 500.6569824,242.9183044 				"/>
			</g>
		</g>
		<g>
			<path opacity="0.1" fill="#232323" d="M336.5900269,104.7236786l-153.7314911,42.388092l-13.6178741,1.7408295
				l0.2433777,1.903595l-0.3576813,0.0974121l0.6971588,2.5587158l5.3209534,41.6235657
				c-3.7494507,2.3309174-7.080246,4.7020569-9.4968414,6.9659729c-1.4116669,0.1896667-2.7867584,0.4205017-4.1156464,0.7007446
				c-17.9660034,3.7896271-21.2336426,7.8573914-38.5957794,18.2762299l-0.8450623-4.0061493
				c-0.8091583-3.8365631-4.5755005-6.287735-8.4113312-5.4785767l-20.4215698,4.307373
				c-1.1024475-1.2619171-2.5180359-1.9195251-3.8881302-1.6305389l-118.8582916,24.9869232l3.3505344,47.1552734
				l9.6758862,45.8735962l125.1730042-26.3188477c1.4610291-0.308197,2.5342865-1.6222534,2.990036-3.3865662l20.2683868-4.2751465
				c3.8358765-0.8091125,6.2911377-4.5739136,5.4827576-8.4067688l-1.6278687-7.7171021
				c9.6865997-2.4069824,17.9486389-4.1782837,22.9346008-4.6764832
				c20.8691254-2.0856323,70.3583832-4.6488647,78.2236633-9.0873413
				c6.5112762-3.6745911,18.5679016-24.7102509,22.6691284-37.3930511c0.3519897-1.0882721,0.6438599-2.1134186,0.8701172-3.0624237
				l107.7781372-13.7782135l-2.9989624-23.4597473l13.6092224-4.2676697l-5.4973145-20.1747284l11.8320007-6.7026672
				l-26.3173218-46.4575119l-3.6642456-13.4476547l-3.4194946,0.9428864L336.5900269,104.7236786z"/>
			<path fill="#E9C4AC" d="M200.6745148,171.187912c0,0-44.8579407,18.4617615-47.0459747,29.4237213
				c-2.1878662,10.9621277,27.1074371,18.2834625,27.1074371,18.2834625s21.8451843-3.107666,23.2421265-7.1524353
				C205.3752441,207.6977844,200.6745148,171.187912,200.6745148,171.187912z"/>
			<g>
				
					<rect x="169.5346985" y="117.3183975" transform="matrix(0.9648234 -0.2628989 0.2628989 0.9648234 -33.3754158 75.1471176)" fill="#FFFFFF" width="189.1811066" height="89.9476776"/>
				<g>
					<path fill="none" d="M341.1192627,124.2035751c-9.5863342,2.6112976-19.4745483-3.0416336-22.0865173-12.6279678
						c-0.0629272-0.2303314-0.0985107-0.4613342-0.1520691-0.6917038L191.0248871,145.722641
						c0.0671692,0.2122803,0.1481323,0.416748,0.2080536,0.6344299c2.6112823,9.5865479-3.0413666,19.4741364-12.6266327,22.0861511
						c-0.1316223,0.036087-0.2642212,0.0523224-0.3943481,0.0869446l8.7881012,32.249115
						c0.1286621-0.0380249,0.2515259-0.0886841,0.3831329-0.1242371
						c9.5854187-2.6121674,19.4729767,3.0405731,22.0850983,12.6257172
						c0.0340729,0.1249542,0.0509644,0.2467499,0.0817261,0.3712616L337.37323,178.8216858
						c-0.03125-0.1088257-0.074585-0.2125092-0.1048584-0.3216858c-2.6116333-9.5846558,3.0420532-19.4724884,12.6285095-22.0852203
						c0.0754089-0.0202026,0.151001-0.0300446,0.225769-0.0501709l-8.7838135-32.2336349
						C341.2651062,124.1529617,341.1954041,124.1830215,341.1192627,124.2035751z"/>
					<path fill="#AAC9CA" d="M318.5548401,104.4560242l-130.49617,35.5580444l-22.4656067,6.121994l6.2163696,22.8121796
						l9.4601135,34.7180939l6.1410217,22.5358276l22.5658722-6.149704l130.26474-35.4958191l22.4159851-6.1075745
						l-6.145752-22.5553589l-9.4273987-34.5979767l-6.2441711-22.9119492L318.5548401,104.4560242z M350.1226501,156.3646088
						c-0.0747681,0.0201263-0.1503601,0.0299683-0.225769,0.0501709
						c-9.5864563,2.6127319-15.2401428,12.5005646-12.6285095,22.0852203
						c0.0302734,0.1091766,0.0736084,0.2128601,0.1048584,0.3216858l-127.8232117,34.8303375
						c-0.0307617-0.1245117-0.0476532-0.2463074-0.0817261-0.3712616
						c-2.6121216-9.585144-12.4996796-15.2378845-22.0850983-12.6257172
						c-0.1316071,0.035553-0.2544708,0.0862122-0.3831329,0.1242371l-8.7881012-32.249115
						c0.130127-0.0346222,0.2627258-0.0508575,0.3943481-0.0869446c9.5852661-2.6120148,15.237915-12.4996033,12.6266327-22.0861511
						c-0.0599213-0.2176819-0.1408844-0.4221497-0.2080536-0.6344299l127.8557892-34.8387375
						c0.0535583,0.2303696,0.0891418,0.4613724,0.1520691,0.6917038
						c2.611969,9.5863342,12.5001831,15.2392654,22.0865173,12.6279678c0.0761414-0.0205536,0.1458435-0.0506134,0.219574-0.0726013
						L350.1226501,156.3646088z"/>
				</g>
				<g>
					<circle fill="#60BA78" cx="264.125061" cy="162.2919922" r="29.1272755"/>
					<g>
						<g>
							<path fill="#FFFFFF" d="M267.2727356,185.1506042l-1.4014587-5.1408539
								c-3.6683655,0.8247223-7.4512329,0.8103027-9.831665,0.1802673l-0.1015625-6.7727203
								c2.6116943,0.6274719,6.1147156,0.8924103,9.6306152-0.0662994c3.0845642-0.8394928,4.8690186-2.6072388,4.2795105-4.7725067
								c-0.5602722-2.0552979-2.6446533-2.8811951-7.0173645-3.1439819
								c-6.3204346-0.3696442-11.0089111-1.9987946-12.4393616-7.2485657
								c-1.2970886-4.7602234,1.0418091-9.4077148,6.5212708-12.1229706l-1.4007263-5.1408844l5.3026123-1.4442291
								l1.2983704,4.7621765c3.6694641-0.8264923,6.3097534-0.7315826,8.331665-0.3535767l0.0977173,6.5429993
								c-1.5686035-0.2116241-4.3982239-0.7786407-8.2941895,0.2841797
								c-3.5159302,0.9580383-4.2395935,2.7829285-3.8272705,4.2978668c0.4858704,1.7842865,2.6902466,2.4041443,7.761261,2.8838806
								c7.0581665,0.5174561,10.4654846,2.7845917,11.7937622,7.6557465
								c1.3119507,4.8160095-0.9762573,9.8581085-6.9039307,12.6365356l1.5028687,5.5176697L267.2727356,185.1506042z"/>
						</g>
					</g>
				</g>
			</g>
			<g>
				
					<rect x="166.09198" y="129.4102173" transform="matrix(0.9919285 -0.1267987 0.1267987 0.9919285 -20.0075645 34.46175)" fill="#FFFFFF" width="189.1810303" height="89.9476471"/>
				<g>
					<path fill="none" d="M342.2083435,147.3209229c-9.8557739,1.2588501-18.8659363-5.708374-20.1257629-15.5640259
						c-0.0303345-0.2366028-0.0333557-0.4704437-0.054657-0.7061462L190.5802307,147.853775
						c0.0370026,0.2199097,0.0887909,0.433609,0.1178589,0.6575928c1.2591095,9.8557281-5.707901,18.8653107-15.5625763,20.1256104
						c-0.1354218,0.0174255-0.2688751,0.0149994-0.402359,0.0312195l4.2386017,33.1550293
						c0.1333008-0.019928,0.2619629-0.0529022,0.3968964-0.0698242c9.8549194-1.2597504,18.8645325,5.7071381,20.1248016,15.561676
						c0.0163269,0.1282654,0.0161743,0.2511902,0.0294495,0.3786469l131.4140778-16.7992249
						c-0.0158691-0.1120148-0.0444641-0.220932-0.0592651-0.3330536c-1.259613-9.8540039,5.7088318-18.864151,15.5642395-20.1241302
						c0.0774536-0.009903,0.1539612-0.0090637,0.2307129-0.0185547l-4.2371216-33.139389
						C342.3598938,147.2908936,342.2866516,147.3112488,342.2083435,147.3209229z"/>
					<path fill="#AAC9CA" d="M322.5949097,124.6397247l-134.1624451,17.1500549l-23.0965881,2.9529572l2.9984131,23.4533081
						l4.5625916,35.6934204l2.9623413,23.1687164l23.1999054-2.9665527L332.98349,206.9713287l23.0454712-2.9457245
						l-2.9638367-23.1888123l-4.5471191-35.5701141l-3.012085-23.5557175L322.5949097,124.6397247z M346.6726685,180.4187622
						c-0.0767517,0.009491-0.1532593,0.0086517-0.2307129,0.0185547
						c-9.8554077,1.2599792-16.8238525,10.2701263-15.5642395,20.1241302
						c0.014801,0.1121216,0.043396,0.2210388,0.0592651,0.3330536l-131.4140778,16.7992249
						c-0.0132751-0.1274567-0.0131226-0.2503815-0.0294495-0.3786469
						c-1.2602692-9.854538-10.2698822-16.8214264-20.1248016-15.561676
						c-0.1349335,0.016922-0.2635956,0.0498962-0.3968964,0.0698242l-4.2386017-33.1550293
						c0.1334839-0.0162201,0.2669373-0.0137939,0.402359-0.0312195
						c9.8546753-1.2602997,16.8216858-10.2698822,15.5625763-20.1256104
						c-0.029068-0.2239838-0.0808563-0.4376831-0.1178589-0.6575928l131.4476929-16.8030243
						c0.0213013,0.2357025,0.0243225,0.4695435,0.054657,0.7061462c1.2598267,9.8556519,10.269989,16.822876,20.1257629,15.5640259
						c0.0783081-0.0096741,0.1515503-0.0300293,0.2272034-0.0415497L346.6726685,180.4187622z"/>
				</g>
				<g>
					<circle fill="#AAC9CA" cx="260.6826172" cy="174.3837891" r="29.1272106"/>
					<path fill="#FFFFFF" d="M263.1539917,179.4134521c2.6757202-0.3573456,4.898468-0.9914856,6.6063232-1.8841858
						c1.7347717-0.9062958,3.197937-2.1298676,4.3494568-3.6360016c0.9353333-1.2236481,1.6194763-2.6373749,2.0337524-4.2030945
						c0.4136353-1.5637512,0.5083313-3.2167053,0.2816162-4.9141846c-0.3045654-2.2805023-0.981781-4.1383057-2.0126953-5.5222626
						c-1.0235596-1.3711853-2.3663025-2.4755096-3.9909973-3.2823181c-1.3703613-0.6821136-2.901123-1.115448-4.5491333-1.2876282
						c-1.6100464-0.1685181-3.5563965-0.1028442-5.7850342,0.1947784l-9.7909088,1.3075714
						c-0.5207214,0.0695343-0.8862457,0.548111-0.8167572,1.0685272l2.3516388,17.6087799l-2.4584656,0.3283386
						c-0.5207214,0.0695343-0.8862457,0.548111-0.8167572,1.068512l0.5505219,4.1222076
						c0.0695038,0.5204163,0.5478058,0.8862915,1.0685272,0.8167419l2.4584656-0.3283234l0.1955566,1.4642792l-2.4584656,0.3283234
						c-0.5207214,0.0695496-0.886261,0.548111-0.8167572,1.0685272l0.5505981,4.122818
						c0.0695038,0.5204163,0.5478058,0.8862915,1.0685272,0.8167419l2.4584656-0.3283234l0.6654968,4.9832153
						c0.0695038,0.5204163,0.5478058,0.8862915,1.0685272,0.8167572l4.7923431-0.6400146
						c0.5207214-0.0695496,0.886261-0.548111,0.8167725-1.0685272l-0.6654968-4.9832153l15.8048096-2.1107178
						c0.5207214-0.0695343,0.886261-0.548111,0.8167419-1.0685272l-0.5505676-4.1228027
						c-0.069519-0.5204163-0.547821-0.8862915-1.0685425-0.8167572l-15.8048401,2.1107178l-0.2024231-1.5158234
						L263.1539917,179.4134521z M260.631897,160.9210663c1.4348145-0.1916199,2.644928-0.2464142,3.597168-0.1624451
						c0.9168091,0.0805664,1.7651978,0.2895813,2.4776611,0.6010742c0.7922668,0.3970337,1.4115906,0.9464569,1.8925171,1.6780243
						c0.4892273,0.7448273,0.8106079,1.6732178,0.9558411,2.7606964c0.1270447,0.9512177,0.1047974,1.8324432-0.0656738,2.6210175
						c-0.1620178,0.7512207-0.5447998,1.5075531-1.1516418,2.2650909c-0.5545349,0.726181-1.3448181,1.3239441-2.3492126,1.7778931
						c-1.0648499,0.4807587-2.5461731,0.8503723-4.4028931,1.0983429l-3.0767822,0.4108887l-1.6751404-12.543335
						L260.631897,160.9210663z"/>
				</g>
			</g>
			<g>
				<path fill="#FDD6B7" d="M108.5144501,217.6014404c23.1526184-13.2216187,24.9715271-17.7745361,44.9294586-21.9841461
					c19.9579773-4.2096405,50.074707,2.4087524,65.7153168,1.8889313
					c15.6403503-0.5194397,34.7564697-8.7204132,38.911087-10.9864807
					c4.1543884-2.2659912,24.7668457-3.37117,26.0799866,11.6387787
					c0.8022156,9.1708069-15.2753906,16.1950989-31.4621582,21.4454193c0,0-20.3522797,5.2337646-25.6502533,8.6673889
					c-5.2978973,3.4336243-21.6590118,11.5171814-32.466156,15.1860809c0,0,24.8121796-7.5495911,33.0274506-12.5249634
					c6.1428528-3.7203522,15.6659698-7.3760681,23.9647522-7.0924377
					c-4.1012421,12.6828308-16.1578522,33.7184601-22.6690674,37.3929596
					c-7.8653259,4.4385071-57.3546448,7.0018616-78.2236633,9.0873718
					c-10.9135742,1.0906677-37.5174484,8.2781372-60.4164124,14.8872986l-11.9946899-56.867157
					C89.2325592,225.7634583,100.3497772,222.2640381,108.5144501,217.6014404z"/>
			</g>
			<path fill="#E9C4AC" d="M227.5991821,230.9324493c-8.215271,4.9753723-33.0274506,12.5249634-33.0274506,12.5249634
				c10.8071442-3.6688995,27.1682587-11.7524567,32.466156-15.1860809
				c5.2979736-3.4336243,25.6502533-8.6673889,25.6502533-8.6673889c-0.23909,1.255249-0.6219177,2.6831665-1.1242065,4.2360687
				C243.265152,223.5563812,233.7420349,227.2120972,227.5991821,230.9324493z"/>
			<g>
				<g>
					<g>
						<path fill="#C0DFDA" d="M121.6833191,246.2980804l7.6810303,36.4159698
							c0.8084259,3.8327942-1.6468811,7.5976563-5.4826965,8.4067383l-27.7235718,5.8475952
							c-3.8366394,0.8092346-7.6025085-1.6434631-8.4109116-5.4761353l-7.6810532-36.4160767l9.4618988-1.9957428
							L121.6833191,246.2980804z"/>
						<path fill="#FFFFFF" d="M114.0031662,209.8872223l7.6801529,36.4108582l-32.155304,6.7823486l-9.4618988,1.9957428
							l-7.6799316-36.4107666c-0.8092422-3.8366547,1.6455231-7.5999298,5.4821625-8.4091797l27.7234421-5.8475494
							C109.4276047,203.5996094,113.1939468,206.050705,114.0031662,209.8872223z"/>
					</g>
					
						<ellipse transform="matrix(-0.2063837 -0.9784712 0.9784712 -0.2063837 -93.0288544 359.0458679)" fill="#640657" cx="99.0926514" cy="217.2497559" rx="6.885684" ry="6.8925991"/>
				</g>
				<g>
					<path fill="#FF9600" d="M-18.2556553,323.7738342l118.8788528-24.9913025
						c2.4104691-0.5084229,3.7688751-3.7527161,3.0321884-7.2453613l-8.3367386-39.5247345l-123.2501831,25.8877716
						L-18.2556553,323.7738342z"/>
					<path fill="#FFB74F" d="M95.3186493,252.0124359l-8.3367386-39.5247192
						c-0.7364578-3.4915619-3.2893906-5.9105835-5.6998672-5.4021606l-118.8583069,24.9869843l9.6652756,45.8233337
						L95.3186493,252.0124359z"/>
				</g>
			</g>
		</g>
	</g>
</g>
</svg>
