<?xml version="1.0" encoding="utf-8"?>
<!-- Generator: Adobe Illustrator 17.1.0, SVG Export Plug-In . SVG Version: 6.00 Build 0)  -->
<!DOCTYPE svg PUBLIC "-//W3C//DTD SVG 1.1//EN" "http://www.w3.org/Graphics/SVG/1.1/DTD/svg11.dtd" [
	<!ENTITY ns_flows "http://ns.adobe.com/Flows/1.0/">
	<!ENTITY ns_extend "http://ns.adobe.com/Extensibility/1.0/">
	<!ENTITY ns_ai "http://ns.adobe.com/AdobeIllustrator/10.0/">
	<!ENTITY ns_graphs "http://ns.adobe.com/Graphs/1.0/">
	<!ENTITY ns_vars "http://ns.adobe.com/Variables/1.0/">
	<!ENTITY ns_imrep "http://ns.adobe.com/ImageReplacement/1.0/">
	<!ENTITY ns_sfw "http://ns.adobe.com/SaveForWeb/1.0/">
	<!ENTITY ns_custom "http://ns.adobe.com/GenericCustomNamespace/1.0/">
	<!ENTITY ns_adobe_xpath "http://ns.adobe.com/XPath/1.0/">
]>
<svg version="1.1" id="Layer_1" xmlns:x="&ns_extend;" xmlns:i="&ns_ai;" xmlns:graph="&ns_graphs;"
	 xmlns="http://www.w3.org/2000/svg" xmlns:xlink="http://www.w3.org/1999/xlink" xmlns:a="http://ns.adobe.com/AdobeSVGViewerExtensions/3.0/"
	 x="0px" y="0px" viewBox="0 0 600 600" enable-background="new 0 0 600 600" xml:space="preserve">
<metadata>
	<sfw  xmlns="&ns_sfw;">
		<slices></slices>
		<sliceSourceBounds  width="2974.6374512" height="7714.9975586" x="-166.0068359" y="-7810.9975586" bottomLeftOrigin="true">
			</sliceSourceBounds>
	</sfw>
</metadata>
<g>
	<circle fill="#FFFFFF" cx="300" cy="300" r="298"/>
</g>
<g opacity="0.77">
	<radialGradient id="SVGID_2_" cx="300" cy="300" r="298" gradientUnits="userSpaceOnUse">
		<stop  offset="0" style="stop-color:#FF9600"/>
		<stop  offset="0.1335385" style="stop-color:#FA9103"/>
		<stop  offset="0.3002512" style="stop-color:#EA830C"/>
		<stop  offset="0.4846055" style="stop-color:#D16B1A"/>
		<stop  offset="0.681672" style="stop-color:#AD4A2E"/>
		<stop  offset="0.8867089" style="stop-color:#802047"/>
		<stop  offset="1" style="stop-color:#640657"/>
		<a:midPointStop  offset="0" style="stop-color:#FF9600"/>
		<a:midPointStop  offset="0.6604278" style="stop-color:#FF9600"/>
		<a:midPointStop  offset="1" style="stop-color:#640657"/>
	</radialGradient>
	<circle fill="url(#SVGID_2_)" cx="300" cy="300" r="298"/>
</g>
<g>
	<defs>
		<circle id="SVGID_75_" cx="300" cy="300" r="298"/>
	</defs>
	<clipPath id="SVGID_4_">
		<use xlink:href="#SVGID_75_"  overflow="visible"/>
	</clipPath>
	<g clip-path="url(#SVGID_4_)">
		<g>
			<path fill="#FFFFFF" d="M402.760498,105.5830078l138.7357178,138.7353516h-25.7368164l-0.3594971-0.3491211v10.9179688
				v137.0893555h0.446167c2.9577637,0,5.3538818,2.1816406,5.3538818,4.8740234v3.5756836v2.1083984h-88.2159424h-60.2225342
				h-88.4388428v-2.1083984v-3.5756836c0-0.7954102,0.2287598-1.5351563,0.5996094-2.1982422h-61.494873H100.6759033H61.6708984
				H55.782959v-2.1083984V388.96875c0-2.690918,2.395874-4.8730469,5.3538818-4.8730469h0.5340576V241.5830078v-62.5234375
				h257.8931885v-24.4052734h-0.5905762c-2.9571533,0-5.3532715-2.3974609-5.3532715-5.3535156v-8.9223633
				c0-2.956543,2.3961182-5.3525391,5.3532715-5.3525391h24.2358398c2.9570313,0,5.3531494,2.3959961,5.3531494,5.3525391v8.9223633
				c0,2.9560547-2.3961182,5.3535156-5.3531494,5.3535156h-0.5906982v11.0708008L402.760498,105.5830078 M402.760498,97.5830078
				c-2.1217041,0-4.1564941,0.8427734-5.6568604,2.3432617L356.5625,140.4672852v-0.0888672
				c0-7.362793-5.9901123-13.3525391-13.3531494-13.3525391h-24.2358398c-7.3630371,0-13.3532715,5.9897461-13.3532715,13.3525391
				v8.9223633c0,4.6240234,2.3626709,8.706543,5.9438477,11.1044922v10.6542969H61.6708984c-4.418335,0-8,3.581543-8,8v62.5234375
				V378.300293c-3.5498047,2.3164063-5.8879395,6.234375-5.8879395,10.668457v3.5751953v2.1083984c0,4.418457,3.5817871,8,8,8
				h5.8879395h39.0050049h122.7514648h52.8961182c0.0629883,4.3637695,3.6202393,7.8823242,7.9991455,7.8823242h88.4388428
				h60.2225342h88.2159424c4.4182129,0,8-3.581543,8-8v-2.1083984v-3.5756836c0-4.3979492-2.2991943-8.2880859-5.8000488-10.6113281
				V254.887207v-2.5688477h18.0963135c3.2355957,0,6.15271-1.9492188,7.3909912-4.9384766s0.553833-6.4306641-1.7341309-8.7182617
				L408.4173584,99.9262695C406.9171143,98.4257813,404.8823242,97.5830078,402.760498,97.5830078L402.760498,97.5830078z"/>
		</g>
		<g>
			<g>
				<defs>
					<rect id="SVGID_77_" x="61.7233353" y="241.5827942" width="241.0251312" height="153.0697479"/>
				</defs>
				<clipPath id="SVGID_6_">
					<use xlink:href="#SVGID_77_"  overflow="visible"/>
				</clipPath>
				<g clip-path="url(#SVGID_6_)">
					<rect x="55.8353806" y="382.0563049" fill="#F1D085" width="248.3407135" height="9.9274082"/>
					<rect x="55.8353806" y="379.4124451" fill="#D1B062" width="248.3407135" height="2.6438534"/>
					<rect x="55.8353806" y="369.4850159" fill="#F1D085" width="248.3407135" height="9.9274082"/>
					<rect x="55.8353806" y="366.8428955" fill="#D1B062" width="248.3407135" height="2.6423509"/>
					<rect x="55.8353806" y="356.914032" fill="#F1D085" width="248.3407135" height="9.9287605"/>
					<rect x="55.8353806" y="354.2715149" fill="#D1B062" width="248.3407135" height="2.6425011"/>
					<rect x="55.8353806" y="344.3443909" fill="#F1D085" width="248.3407135" height="9.9274082"/>
					<rect x="55.8353806" y="341.700531" fill="#D1B062" width="248.3407135" height="2.6438534"/>
					<rect x="55.8353806" y="331.7731934" fill="#F1D085" width="248.3407135" height="9.9272585"/>
					<rect x="55.8353806" y="329.1291809" fill="#D1B062" width="248.3407135" height="2.6440036"/>
					<rect x="55.8353806" y="319.2019043" fill="#F1D085" width="248.3407135" height="9.9272585"/>
					<rect x="55.8353806" y="316.5591125" fill="#D1B062" width="248.3407135" height="2.6425011"/>
					<rect x="55.8353806" y="306.6320801" fill="#F1D085" width="248.3407135" height="9.9272585"/>
					<rect x="55.8353806" y="303.9880676" fill="#D1B062" width="248.3407135" height="2.6440036"/>
					<rect x="55.8353806" y="294.060791" fill="#F1D085" width="248.3407135" height="9.9272585"/>
					<rect x="55.8353806" y="291.4167786" fill="#D1B062" width="248.3407135" height="2.6440036"/>
					<rect x="55.8353806" y="281.489502" fill="#F1D085" width="248.3407135" height="9.9272585"/>
					<rect x="55.8353806" y="278.8471985" fill="#D1B062" width="248.3407135" height="2.6425011"/>
					<rect x="55.8353806" y="268.9196777" fill="#F1D085" width="248.3407135" height="9.9272585"/>
					<rect x="55.8353806" y="266.2756653" fill="#D1B062" width="248.3407135" height="2.6440036"/>
					<rect x="55.8353806" y="256.3483887" fill="#F1D085" width="248.3407135" height="9.9272585"/>
					<rect x="55.8353806" y="253.704361" fill="#D1B062" width="248.3407135" height="2.6440036"/>
					<rect x="55.8353806" y="243.7770996" fill="#F1D085" width="248.3407135" height="9.9272585"/>
					<rect x="55.8353806" y="241.1330719" fill="#D1B062" width="248.3407135" height="2.6440036"/>
					<rect x="55.8353806" y="231.2058105" fill="#F1D085" width="248.3407135" height="9.9272585"/>
					<rect x="55.8353806" y="228.5635223" fill="#D1B062" width="248.3407135" height="2.6425011"/>
					<rect x="55.8353806" y="218.6364746" fill="#F1D085" width="248.3407135" height="9.9272585"/>
					<rect x="55.8353806" y="215.9924469" fill="#D1B062" width="248.3407135" height="2.6440036"/>
					<rect x="55.8353806" y="206.0651855" fill="#F1D085" width="248.3407135" height="9.9272585"/>
					<rect x="55.8353806" y="203.4211578" fill="#D1B062" width="248.3407135" height="2.6440036"/>
					<rect x="55.8353806" y="193.4938965" fill="#F1D085" width="248.3407135" height="9.9272585"/>
					<rect x="55.8353806" y="190.85112" fill="#D1B062" width="248.3407135" height="2.6425011"/>
					<rect x="55.8353806" y="180.9240723" fill="#F1D085" width="248.3407135" height="9.9272585"/>
					<rect x="55.8353806" y="178.2800446" fill="#D1B062" width="248.3407135" height="2.6440036"/>
					<rect x="55.8353806" y="168.3527832" fill="#F1D085" width="248.3407135" height="9.9272585"/>
					<rect x="55.8353806" y="165.7088318" fill="#D1B062" width="248.3407135" height="2.6438534"/>
					<rect x="55.8353806" y="155.7814178" fill="#F1D085" width="248.3407135" height="9.9274082"/>
					<rect x="55.8353806" y="153.139267" fill="#D1B062" width="248.3407135" height="2.6423509"/>
					<rect x="55.8353806" y="143.2104187" fill="#F1D085" width="248.3407135" height="9.9287605"/>
					<rect x="55.8353806" y="140.5679169" fill="#D1B062" width="248.3407135" height="2.6425011"/>
					<rect x="55.8353806" y="130.6403046" fill="#F1D085" width="248.3407135" height="9.9274082"/>
				</g>
			</g>
			<rect x="61.7233353" y="241.5827942" opacity="0.17" fill="#1A1A1A" width="241.0251312" height="153.0697479"/>
			<rect x="61.7233124" y="179.0597534" fill="#A62227" width="260.9255676" height="62.5230675"/>
			<g>
				<path fill="#4D4D4D" d="M55.8353691,394.6526184v-5.6840515c0-2.6908875,2.3959503-4.8727417,5.3539658-4.8727417h226.169281
					c2.9565125,0,5.3539734,2.1818542,5.3539734,4.8727417v5.6840515H55.8353691z"/>
				<rect x="55.8353882" y="392.5444336" fill="#1A1A1A" width="236.8771973" height="2.1083817"/>
			</g>
			<rect x="100.7282867" y="269.5375061" fill="#A62227" width="122.7514267" height="15.6398563"/>
			<rect x="100.7282867" y="285.1774292" fill="#C0272D" width="122.7514267" height="15.6392555"/>
			<rect x="100.7282867" y="300.8165894" fill="#A62227" width="122.7514267" height="15.6392555"/>
			<rect x="100.7282867" y="316.4558716" fill="#C0272D" width="122.7514267" height="15.640007"/>
			<rect x="100.7282867" y="332.0958862" fill="#A62227" width="122.7514267" height="15.6392555"/>
			<rect x="100.7282867" y="347.7351379" fill="#C0272D" width="122.7514267" height="15.6391048"/>
			<rect x="100.7282867" y="363.3739624" fill="#A62227" width="122.7514267" height="15.6407576"/>
			<rect x="100.7282867" y="379.0146179" fill="#C0272D" width="122.7514267" height="15.6377535"/>
			<g>
				<g>
					<defs>
						<polygon id="SVGID_79_" points="515.4523315,242.0884552 402.8129578,131.9036102 290.1743164,242.0884552 
							290.1743164,391.9764709 515.4523315,391.9764709 						"/>
					</defs>
					<clipPath id="SVGID_8_">
						<use xlink:href="#SVGID_79_"  overflow="visible"/>
					</clipPath>
					<rect x="289.9513855" y="382.0489807" clip-path="url(#SVGID_8_)" fill="#F1D085" width="225.7239532" height="9.9274082"/>
					<rect x="289.9513855" y="379.4051208" clip-path="url(#SVGID_8_)" fill="#D1B062" width="225.7239532" height="2.6438534"/>
					<rect x="289.9513855" y="369.4776917" clip-path="url(#SVGID_8_)" fill="#F1D085" width="225.7239532" height="9.9274082"/>
					<rect x="289.9513855" y="366.8355713" clip-path="url(#SVGID_8_)" fill="#D1B062" width="225.7239532" height="2.6423509"/>
					<rect x="289.9513855" y="356.9067078" clip-path="url(#SVGID_8_)" fill="#F1D085" width="225.7239532" height="9.9287605"/>
					<rect x="289.9513855" y="354.2641907" clip-path="url(#SVGID_8_)" fill="#D1B062" width="225.7239532" height="2.6425011"/>
					<rect x="289.9513855" y="344.3365784" clip-path="url(#SVGID_8_)" fill="#F1D085" width="225.7239532" height="9.9274082"/>
					<rect x="289.9513855" y="341.6927185" clip-path="url(#SVGID_8_)" fill="#D1B062" width="225.7239532" height="2.6438534"/>
					<rect x="289.9513855" y="331.7658691" clip-path="url(#SVGID_8_)" fill="#F1D085" width="225.7239532" height="9.9272585"/>
					<rect x="289.9513855" y="329.1218567" clip-path="url(#SVGID_8_)" fill="#D1B062" width="225.7239532" height="2.6440036"/>
					<rect x="289.9513855" y="319.1945801" clip-path="url(#SVGID_8_)" fill="#F1D085" width="225.7239532" height="9.9272585"/>
					<rect x="289.9513855" y="316.5517883" clip-path="url(#SVGID_8_)" fill="#D1B062" width="225.7239532" height="2.6425011"/>
					<rect x="289.9513855" y="306.6247559" clip-path="url(#SVGID_8_)" fill="#F1D085" width="225.7239532" height="9.9272585"/>
					<rect x="289.9513855" y="303.9807434" clip-path="url(#SVGID_8_)" fill="#D1B062" width="225.7239532" height="2.6440036"/>
					<rect x="289.9513855" y="294.0534668" clip-path="url(#SVGID_8_)" fill="#F1D085" width="225.7239532" height="9.9272585"/>
					<rect x="289.9513855" y="291.4094543" clip-path="url(#SVGID_8_)" fill="#D1B062" width="225.7239532" height="2.6440036"/>
					<rect x="289.9513855" y="281.4821777" clip-path="url(#SVGID_8_)" fill="#F1D085" width="225.7239532" height="9.9272585"/>
					<rect x="289.9513855" y="278.839386" clip-path="url(#SVGID_8_)" fill="#D1B062" width="225.7239532" height="2.6425011"/>
					<rect x="289.9513855" y="268.9123535" clip-path="url(#SVGID_8_)" fill="#F1D085" width="225.7239532" height="9.9272585"/>
					<rect x="289.9513855" y="266.2683411" clip-path="url(#SVGID_8_)" fill="#D1B062" width="225.7239532" height="2.6440036"/>
					<rect x="289.9513855" y="256.3410645" clip-path="url(#SVGID_8_)" fill="#F1D085" width="225.7239532" height="9.9272585"/>
					<rect x="289.9513855" y="253.6970367" clip-path="url(#SVGID_8_)" fill="#D1B062" width="225.7239532" height="2.6440036"/>
					<rect x="289.9513855" y="243.7697754" clip-path="url(#SVGID_8_)" fill="#F1D085" width="225.7239532" height="9.9272585"/>
					<rect x="289.9513855" y="241.1257477" clip-path="url(#SVGID_8_)" fill="#D1B062" width="225.7239532" height="2.6440036"/>
					<rect x="289.9513855" y="231.1984863" clip-path="url(#SVGID_8_)" fill="#F1D085" width="225.7239532" height="9.9272585"/>
					<rect x="289.9513855" y="228.5561981" clip-path="url(#SVGID_8_)" fill="#D1B062" width="225.7239532" height="2.6425011"/>
					<rect x="289.9513855" y="218.6286621" clip-path="url(#SVGID_8_)" fill="#F1D085" width="225.7239532" height="9.9272585"/>
					<rect x="289.9513855" y="215.9846344" clip-path="url(#SVGID_8_)" fill="#D1B062" width="225.7239532" height="2.6440036"/>
					<rect x="289.9513855" y="206.057373" clip-path="url(#SVGID_8_)" fill="#F1D085" width="225.7239532" height="9.9272585"/>
					<rect x="289.9513855" y="203.4133453" clip-path="url(#SVGID_8_)" fill="#D1B062" width="225.7239532" height="2.6440036"/>
					<rect x="289.9513855" y="193.486084" clip-path="url(#SVGID_8_)" fill="#F1D085" width="225.7239532" height="9.9272585"/>
					<rect x="289.9513855" y="190.8437958" clip-path="url(#SVGID_8_)" fill="#D1B062" width="225.7239532" height="2.6425011"/>
					<rect x="289.9513855" y="180.916748" clip-path="url(#SVGID_8_)" fill="#F1D085" width="225.7239532" height="9.9272585"/>
					<rect x="289.9513855" y="178.2727203" clip-path="url(#SVGID_8_)" fill="#D1B062" width="225.7239532" height="2.6440036"/>
					<rect x="289.9513855" y="168.345459" clip-path="url(#SVGID_8_)" fill="#F1D085" width="225.7239532" height="9.9272585"/>
					<rect x="289.9513855" y="165.7015076" clip-path="url(#SVGID_8_)" fill="#D1B062" width="225.7239532" height="2.6438534"/>
					<rect x="289.9513855" y="155.7740936" clip-path="url(#SVGID_8_)" fill="#F1D085" width="225.7239532" height="9.9274082"/>
					<rect x="289.9513855" y="153.1314545" clip-path="url(#SVGID_8_)" fill="#D1B062" width="225.7239532" height="2.6423509"/>
					<rect x="289.9513855" y="143.2030945" clip-path="url(#SVGID_8_)" fill="#F1D085" width="225.7239532" height="9.9287605"/>
					<rect x="289.9513855" y="140.5605927" clip-path="url(#SVGID_8_)" fill="#D1B062" width="225.7239532" height="2.6425011"/>
					<rect x="289.9513855" y="130.6329803" clip-path="url(#SVGID_8_)" fill="#F1D085" width="225.7239532" height="9.9274082"/>
					<rect x="289.9513855" y="127.9891052" clip-path="url(#SVGID_8_)" fill="#D1B062" width="225.7239532" height="2.6438534"/>
				</g>
				<rect x="319.6165161" y="150.1925659" fill="#1A1A1A" width="23.054575" height="40.5425911"/>
				<polygon opacity="0.5" fill="#B2B2B2"  a:adobe-blending-mode="multiply" points="515.4523315,254.8870392 
					515.4523315,242.0884552 402.8129578,131.9036102 290.1743164,242.0884552 290.1743164,254.8870392 402.8129578,144.3941803 
									"/>
				<g>
					<path fill="#4D4D4D" d="M521.2523804,402.5346069v-5.6840515c0-2.6923828-2.3961182-4.8740845-5.3539429-4.8740845H289.728241
						c-2.9571228,0-5.3532104,2.1817017-5.3532104,4.8740845v5.6840515H521.2523804z"/>
					<rect x="284.375061" y="400.4262695" fill="#1A1A1A" width="236.8773499" height="2.1083817"/>
				</g>
				<g>
					<g>
						<rect x="379.2815552" y="272.4231873" fill="#C0272D" width="47.2860146" height="119.5530396"/>
						<polygon fill="#4D4D4D" points="376.6051941,269.7457581 376.6051941,394.6526184 381.9621582,394.6526184 
							381.9621582,389.3001709 381.9591675,389.3001709 381.9591675,275.0995789 423.8912048,275.0995789 423.8912048,389.3001709 
							423.861908,389.3001709 423.861908,394.6526184 429.2451782,394.6526184 429.2451782,269.7457581 						"/>
					</g>
					<rect x="372.8139038" y="391.9763184" fill="#1A1A1A" width="60.2225227" height="10.558135"/>
					<g  a:adobe-blending-mode="multiply">
						<path fill="#C0272D"  a:adobe-blending-mode="normal" d="M418.7617798,321.9761353l-15.8365784,0.2587891
							l-15.8364258,0.1585693l-0.4137878,0.0041504l-0.00354-0.4215088l-0.0860901-9.980835l-0.0298767-9.9807129
							l-0.059967-19.9615479l-0.0018005-0.5950928l0.5950623,0.0018311l31.6728516,0.0986328l0.4990234,0.0015869
							l-0.0044861,0.493042l-0.182251,19.9615479l-0.1394348,9.980835L418.7617798,321.9761353z M418.7617798,321.9761353
							l-0.1728516-9.9807129l-0.1394043-9.980835l-0.182251-19.9615479l0.4943542,0.4942627l-31.6728516,0.0987549
							l0.5930481-0.5930176l-0.0599365,19.9615479l-0.0299072,9.9807129l-0.0860596,9.980835l-0.4171448-0.4172363
							l15.8364258,0.1585693L418.7617798,321.9761353z"/>
					</g>
					<g  a:adobe-blending-mode="multiply">
						<path fill="#C0272D"  a:adobe-blending-mode="normal" d="M418.7617798,382.0490112l-15.8365784,0.2587891
							l-15.8364258,0.1585693l-0.4137878,0.0041504l-0.00354-0.4215088l-0.0860901-9.9804688l-0.0298767-9.9804688
							l-0.059967-19.9608154l-0.0018005-0.5950928l0.5950623,0.0018311l31.6728516,0.0987549l0.4990234,0.0014648
							l-0.0044861,0.493042l-0.182251,19.9609375l-0.1394348,9.9804688L418.7617798,382.0490112z M418.7617798,382.0490112
							l-0.1728516-9.9803467l-0.1394043-9.9804688l-0.182251-19.9609375l0.4943542,0.4942627l-31.6728516,0.0987549
							l0.5930481-0.5930176l-0.0599365,19.9608154l-0.0299072,9.9804688l-0.0860596,9.9804688l-0.4171448-0.4172363
							l15.8364258,0.1585693L418.7617798,382.0490112z"/>
					</g>
					<circle fill="#1A1A1A" cx="417.6481934" cy="334.0239258" r="2.6439283"/>
				</g>
				<polygon fill="#C0272D" points="402.8129578,105.5830154 264.078186,244.3185272 289.8155212,244.3185272 
					402.8129578,134.5799103 515.8118896,244.3185272 541.548584,244.3185272 				"/>
				<path fill="#C0272D" d="M348.6149292,149.3005676c0,2.9565125-2.3960876,5.3539734-5.3532104,5.3539734h-24.2358093
					c-2.9570923,0-5.3532104-2.3974609-5.3532104-5.3539734v-8.9221191c0-2.9565125,2.3961182-5.3524628,5.3532104-5.3524628
					h24.2358093c2.9571228,0,5.3532104,2.3959503,5.3532104,5.3524628V149.3005676z"/>
				<g>
					<circle fill="#9FD6ED" cx="402.8122559" cy="217.2993164" r="32.0758591"/>
					<g>
						<rect x="400.1368103" y="185.222702" fill="#4D4D4D" width="5.3538141" height="64.1532211"/>
					</g>
					<g>
						<rect x="370.7363586" y="214.6218414" fill="#4D4D4D" width="64.1547241" height="5.3539643"/>
					</g>
					<path fill="#1A1A1A" d="M368.0600281,217.2994537c0-19.1633911,15.5908813-34.7527618,34.7529297-34.7527618
						c19.1635437,0,34.7528992,15.5893707,34.7528992,34.7527618c0,19.1635437-15.5893555,34.7529144-34.7528992,34.7529144
						C383.6509094,252.0523682,368.0600281,236.4629974,368.0600281,217.2994537z M373.4132385,217.2994537
						c0,16.2115326,13.1896667,29.4004517,29.3997192,29.4004517c16.2113647,0,29.3989563-13.1889191,29.3989563-29.4004517
						c0-16.2113953-13.1875916-29.3988037-29.3989563-29.3988037
						C386.6029053,187.90065,373.4132385,201.0880585,373.4132385,217.2994537z"/>
				</g>
				<g>
					<g>
						<g>
							<g>
								<rect x="314.3454895" y="290.2061462" fill="#9FD6ED" width="40.3614082" height="55.3425789"/>
								<path fill="#4D4D4D" d="M308.9922791,284.8522644v66.0505066h51.067688v-66.0505066H308.9922791z M354.7069092,345.5487976
									H314.34552v-55.3425903h40.3613892V345.5487976z"/>
							</g>
							<polygon opacity="0.3" fill="#F1F1F1" points="354.7069092,291.5986938 314.34552,322.627655 314.34552,331.585083 
								354.7069092,300.5531006 							"/>
							<polygon opacity="0.3" fill="#F1F1F1" points="354.7069092,305.5609131 314.34552,336.5927124 314.34552,345.5487976 
								354.7069092,314.5183411 							"/>
						</g>
						<rect x="304.1760559" y="333.3518677" fill="#1A1A1A" width="60.7001495" height="17.5511169"/>
					</g>
					<g>
						<g>
							<g>
								<rect x="450.9205322" y="290.2061462" fill="#9FD6ED" width="40.3606262" height="55.3425789"/>
								<path fill="#4D4D4D" d="M445.5666809,284.8522644v66.0505066h51.0684204v-66.0505066H445.5666809z M491.2811584,345.5487976
									h-40.3606262v-55.3425903h40.3606262V345.5487976z"/>
							</g>
							<polygon opacity="0.3" fill="#F1F1F1" points="491.2811584,291.5986938 450.9205322,322.627655 450.9205322,331.585083 
								491.2811584,300.5531006 							"/>
							<polygon opacity="0.3" fill="#F1F1F1" points="491.2811584,305.5609131 450.9205322,336.5927124 450.9205322,345.5487976 
								491.2811584,314.5183411 							"/>
						</g>
						<rect x="440.7512512" y="333.3518677" fill="#1A1A1A" width="60.699398" height="17.5511169"/>
					</g>
				</g>
			</g>
		</g>
		<g>
			<path fill="#DECBB1" d="M206.1392975,494.7174683c0,0,92.3171844,69.0460815,110.4047089,58.3601685
				c18.0875549-10.6859131,25.4847412-34.7306519,25.4847412-34.7306519l-130.3429413-51.0885315L206.1392975,494.7174683z"/>
			<g>
				<path fill="#D6B49D" d="M400.2652283,357.342926c-7.6227417,1.0977478-68.9259949,0.1715698-70.9453735,2.190979
					c-2.0195007,2.0185547-29.9470825,44.3558655-29.9470825,44.3558655s-98.1065521,89.7073975-111.563858,104.9142456
					c-8.1094513,9.1637573,5.0612946,35.3986206,21.5883942,21.0737915
					c16.5271149-14.3239746,40.60672-36.3230896,44.8898315-40.6066589
					c4.2835693-4.2835693,8.3711548-0.2907104,4.4545898,3.0846863
					c-3.9165802,3.3745117-34.7807617,28.9557495-45.7460175,41.4624634
					c-10.9657288,12.508606,11.5204468,35.1928711,22.9587402,24.5015869
					c11.4379272-10.6912231,49.0821686-45.6620483,51.6974335-47.4179077c2.6157227-1.7558289,6.1888733,1.063446,3.556427,3.366394
					c-2.6333008,2.3028564-37.5648499,32.4737549-45.9604034,42.9249268
					c-8.3956604,10.4511108,10.2384796,29.5145874,24.9737091,16.7171021
					c9.9464417-8.6384277,40.4672241-40.0343018,42.9353333-42.2044678c2.4690247-2.1712036,6.23703,1.2565308,2.8111572,4.1688232
					c-2.6279602,2.2335205-23.8534241,22.6040649-31.5259094,31.6965332
					c-7.6720276,9.0925903,6.168457,27.0518799,20.2171326,14.90625
					c14.049469-12.1455688,134.3267822-114.6359558,141.8656311-140.4943542
					c1.9111328-6.5540161,13.0204163-13.0213318,13.0222778-13.0213318l-41.4408569-81.0038757
					C418.1063843,347.9579773,407.8393555,356.2533264,400.2652283,357.342926z"/>
				<g>
					<g>
						<path fill="#FDD6B7" d="M412.943512,470.7665405c-15.5228271-6.1278992-25.6976929,13.5087891-21.2453308,21.9323425
							c3.4367065,6.5016174,10.2796021,13.0203552,19.1897888,15.4198608
							c8.9093018,2.3977661,21.2245483-13.1042786,18.160675-22.0930481
							C426.6499634,478.9915466,419.4550171,473.3384399,412.943512,470.7665405z"/>
						<path fill="#FDD6B7" d="M356.7670898,523.1821289c-15.5228271-6.1278687-25.6977844,13.5078735-21.2462463,21.930542
							c3.4376221,6.5025024,13.9411316,15.9795532,22.8513184,18.3790894
							c8.9092712,2.3977661,21.2254639-13.1052246,18.1615906-22.0921021
							C374.1350708,534.3644409,363.2776794,525.7513428,356.7670898,523.1821289z"/>
						<path fill="#FDD6B7" d="M330.5204773,549.6751099c-12.7946777-5.0499268-21.1803589,11.133728-17.5107117,18.0767212
							c2.8328857,5.3596802,11.4902344,13.1693726,18.8341064,15.1473389
							c7.3430176,1.9770508,17.4944153-10.8014526,14.9676208-18.2085571
							C344.8345337,558.8931274,335.8872681,551.7938843,330.5204773,549.6751099z"/>
						<path fill="#FDD6B7" d="M384.5970764,495.881958c-15.5236511-6.1269531-25.6976929,13.5087891-21.2453613,21.9315186
							c3.4368286,6.5024414,14.9107971,17.2705688,23.8200684,19.6700439
							c8.9092407,2.397644,21.2254333-13.1052856,18.1615601-22.0930176
							C402.9346619,508.3562317,391.1077576,498.4530334,384.5970764,495.881958z"/>
					</g>
				</g>
				<path fill="#FDD6B7" d="M174.5827179,350.7429504l18.732132,11.2184753c0,0,45.9843292-14.2386475,91.1273499-11.1290894
					c37.8812866,2.6098328,44.877655,8.7015686,44.877655,8.7015686s21.166748,13.0980835,30.989624,30.2314148
					c3.2642822,5.692749,1.3026733,20.4472961,6.6253052,32.7879028
					c8.2240601,19.0689087,8.9083252,32.5478516-3.1984863,37.8018494
					c-16.6864929,7.2409668-41.4128113-16.6764832-38.6070251-44.0903931
					c-18.9614868-2.7416382-25.4061584-13.9312439-25.7565002-12.3749084
					c-28.0759583,26.6257324-97.165863,90.4484863-97.165863,90.4484863
					c-34.9852448-27.262207-57.4046936-59.5463867-57.4046936-59.5463867l-13.0212555-8.2475586L174.5827179,350.7429504z"/>
			</g>
			<g>
				<path fill="none" d="M400.2652283,357.342926c-7.6227417,1.0977478-68.9259949,0.1715698-70.9453735,2.190979
					c-2.0195007,2.0185547-29.9470825,44.3558655-29.9470825,44.3558655s-98.1065521,89.7073975-111.563858,104.9142456
					c-8.1094513,9.1637573,5.0612946,35.3986206,21.5883942,21.0737915
					c16.5271149-14.3239746,40.60672-36.3230896,44.8898315-40.6066589
					c4.2835693-4.2835693,8.3711548-0.2907104,4.4545898,3.0846863
					c-3.9165802,3.3745117-34.7807617,28.9557495-45.7460175,41.4624634
					c-10.9657288,12.508606,11.5204468,35.1928711,22.9587402,24.5015869
					c11.4379272-10.6912231,49.0821686-45.6620483,51.6974335-47.4179077c2.6157227-1.7558289,6.1888733,1.063446,3.556427,3.366394
					c-2.6333008,2.3028564-37.5648499,32.4737549-45.9604034,42.9249268
					c-8.3956604,10.4511108,10.2384796,29.5145874,24.9737091,16.7171021
					c9.9464417-8.6384277,40.4672241-40.0343018,42.9353333-42.2044678c2.4690247-2.1712036,6.23703,1.2565308,2.8111572,4.1688232
					c-2.6279602,2.2335205-23.8534241,22.6040649-31.5259094,31.6965332
					c-7.6720276,9.0925903,6.168457,27.0518799,20.2171326,14.90625
					c14.049469-12.1455688,134.3267822-114.6359558,141.8656311-140.4943542
					c1.9111328-6.5540161,13.0204163-13.0213318,13.0222778-13.0213318l-41.4408569-81.0038757
					C418.1063843,347.9579773,407.8393555,356.2533264,400.2652283,357.342926z"/>
				<path fill="none" d="M174.5827179,350.7429504l18.732132,11.2184753c0,0,45.9843292-14.2386475,91.1273499-11.1290894
					c37.8812866,2.6098328,44.877655,8.7015686,44.877655,8.7015686s21.166748,13.0980835,30.989624,30.2314148
					c3.2642822,5.692749,1.3026733,20.4472961,6.6253052,32.7879028
					c8.2240601,19.0689087,8.9083252,32.5478516-3.1984863,37.8018494
					c-16.6864929,7.2409668-41.4128113-16.6764832-38.6070251-44.0903931
					c-18.9614868-2.7416382-25.4061584-13.9312439-25.7565002-12.3749084
					c-28.0759583,26.6257324-97.165863,90.4484863-97.165863,90.4484863
					c-34.9852448-27.262207-57.4046936-59.5463867-57.4046936-59.5463867l-13.0212555-8.2475586L174.5827179,350.7429504z"/>
			</g>
			<g>
				<defs>
					<path id="SVGID_81_" d="M400.2652283,357.342926c-7.6227417,1.0977478-68.9259949,0.1715698-70.9453735,2.190979
						c-2.0195007,2.0185547-29.9470825,44.3558655-29.9470825,44.3558655s-98.1065521,89.7073975-111.563858,104.9142456
						c-8.1094513,9.1637573,5.0612946,35.3986206,21.5883942,21.0737915
						c16.5271149-14.3239746,40.60672-36.3230896,44.8898315-40.6066589
						c4.2835693-4.2835693,8.3711548-0.2907104,4.4545898,3.0846863
						c-3.9165802,3.3745117-34.7807617,28.9557495-45.7460175,41.4624634
						c-10.9657288,12.508606,11.5204468,35.1928711,22.9587402,24.5015869
						c11.4379272-10.6912231,49.0821686-45.6620483,51.6974335-47.4179077
						c2.6157227-1.7558289,6.1888733,1.063446,3.556427,3.366394c-2.6333008,2.3028564-37.5648499,32.4737549-45.9604034,42.9249268
						c-8.3956604,10.4511108,10.2384796,29.5145874,24.9737091,16.7171021
						c9.9464417-8.6384277,40.4672241-40.0343018,42.9353333-42.2044678c2.4690247-2.1712036,6.23703,1.2565308,2.8111572,4.1688232
						c-2.6279602,2.2335205-23.8534241,22.6040649-31.5259094,31.6965332
						c-7.6720276,9.0925903,6.168457,27.0518799,20.2171326,14.90625
						c14.049469-12.1455688,134.3267822-114.6359558,141.8656311-140.4943542
						c1.9111328-6.5540161,13.0204163-13.0213318,13.0222778-13.0213318l-41.4408569-81.0038757
						C418.1063843,347.9579773,407.8393555,356.2533264,400.2652283,357.342926z"/>
				</defs>
				<clipPath id="SVGID_10_">
					<use xlink:href="#SVGID_81_"  overflow="visible"/>
				</clipPath>
				<polygon opacity="0.1" clip-path="url(#SVGID_10_)" fill="#231F20" points="399.4726257,346.9848328 456.0653076,439.9032593 
					476.2399902,427.4054871 422.2220154,335.6904602 				"/>
			</g>
			<g>
				<defs>
					<path id="SVGID_83_" d="M174.5827179,350.7429504l18.732132,11.2184753c0,0,45.9843292-14.2386475,91.1273499-11.1290894
						c37.8812866,2.6098328,44.877655,8.7015686,44.877655,8.7015686s21.166748,13.0980835,30.989624,30.2314148
						c3.2642822,5.692749,1.3026733,20.4472961,6.6253052,32.7879028
						c8.2240601,19.0689087,8.9083252,32.5478516-3.1984863,37.8018494
						c-16.6864929,7.2409668-41.4128113-16.6764832-38.6070251-44.0903931
						c-18.9614868-2.7416382-25.4061584-13.9312439-25.7565002-12.3749084
						c-28.0759583,26.6257324-97.165863,90.4484863-97.165863,90.4484863
						c-34.9852448-27.262207-57.4046936-59.5463867-57.4046936-59.5463867l-13.0212555-8.2475586L174.5827179,350.7429504z"/>
				</defs>
				<clipPath id="SVGID_12_">
					<use xlink:href="#SVGID_83_"  overflow="visible"/>
				</clipPath>
				<polygon opacity="0.1" clip-path="url(#SVGID_12_)" fill="#231F20" points="198.1494598,350.0379028 144.2095795,444.520813 
					123.689621,432.5981445 175.0900269,339.3917542 				"/>
			</g>
			<g>
				<g>
					<g>
						<path fill="#C0DFDA" d="M160.6646881,390.1455383l-26.5645905,44.2769165
							c-2.7959137,4.6601563-8.8462067,6.1705017-13.5100403,3.3723755l-33.7081451-20.2236938
							c-4.6648331-2.7987366-6.1786652-8.8472595-3.3828278-13.5072937l26.5646667-44.2770691l11.5044022,6.9022217
							L160.6646881,390.1455383z"/>
						<path fill="#FFFFFF" d="M187.2253113,345.8746338l-26.5606232,44.2709045l-39.0965347-23.456543l-11.5044022-6.9022217
							l26.5607758-44.2705994c2.7987518-4.664856,8.8469696-6.1740723,13.5118103-3.3753357l33.7079926,20.2235718
							C188.5081635,335.1625366,190.0239716,341.2099304,187.2253113,345.8746338z"/>
					</g>
					
						<ellipse transform="matrix(0.5144732 -0.8575065 0.8575065 0.5144732 -210.7722321 306.3197937)" fill="#640657" cx="165.1151123" cy="339.2861328" rx="9.5530777" ry="9.5626726"/>
				</g>
				<g>
					<path fill="#FF9600" d="M-54.7527618,336.8266602l144.4622192,86.8038635
						c2.930809,1.7583618,7.3743973-0.2580872,9.9221878-4.5046692l28.8323517-48.0567627l-149.7530518-90.0185852
						L-54.7527618,336.8266602z"/>
					<path fill="#FFB74F" d="M128.4639893,371.0690918l28.8323212-48.0567322
						c2.5470123-4.2452698,2.2346802-9.1146545-0.6961212-10.8730469L12.1629601,225.3504639l-33.4270325,55.7150269
						L128.4639893,371.0690918z"/>
				</g>
			</g>
			<g>
				<g>
					<g>
						<path fill="#BFC0C4" d="M435.862793,388.255188l25.5205078,47.4302368
							c3.0268555,5.6254578,5.3459778,9.9369812,9.030426,8.3704224l44.47995-23.9330444
							c9.8672485-5.3091736,15.2444458-14.1777344,12.2175903-19.8031921l-25.5205078-47.4302368L435.862793,388.255188"/>
						<path fill="#D0D2D8" d="M409.2538757,338.802063l26.7167053,49.6534424l65.7279663-35.3658142l-26.7167053-49.6534424
							c-3.0268555-5.6254578-13.2721558-5.8043213-23.1393433-0.4951477l-43.6804504,23.5028687
							C403.8516235,328.7632446,406.2270508,333.1766052,409.2538757,338.802063z"/>
						<path fill="#810C74" d="M639.565979,280.9867554L464.100708,373.840332l29.7902527,55.3656616
							c3.026825,5.6254578,4.5710144,9.7839661,11.8790588,6.3900452l168.2976685-90.4873352L639.565979,280.9867554"/>
						<path fill="#640657" d="M434.3053894,318.4652405l29.9031067,55.5754089l175.3574829-93.053894l-35.8853149-66.6934509
							l-168.4460144,90.6137085C428.8566895,308.3387451,431.2785339,312.8397522,434.3053894,318.4652405z"/>
					</g>
				</g>
				<circle fill="#FF9600" cx="514.2312012" cy="412.934082" r="12.4394388"/>
				<circle fill="#FF9600" cx="540.9261475" cy="398.5703125" r="12.4394455"/>
				<circle fill="#FF9600" cx="567.435791" cy="384.3066406" r="12.4394388"/>
			</g>
		</g>
	</g>
</g>
</svg>
