<svg xmlns="http://www.w3.org/2000/svg" viewBox="0 0 78.32 70"><defs><style>.cls-1{fill:#ffb74f;}</style></defs><title>Ресурс 3</title><g id="Слой_2" data-name="Слой 2"><g id="контент"><path class="cls-1" d="M77.19,55.12c.12,6.62-2.78,11.23-8.42,13.56-6,2.48-11.87,1.47-16.84-2.91-5.23-4.61-7.46-10.67-7.77-17.49C43.2,26.78,54,12,71.38,1.11c2-1.23,4.09-1.87,5.86.39s1.45,3.72-1,5.35c-7.42,4.93-13.81,11-16.53,19.71-1.2,3.88-1.32,8.14-1.63,12.25-.14,1.8.57,3.8,3.1,2.84C68.43,38.93,77.79,46.35,77.19,55.12Z"/><path class="cls-1" d="M33.07,53.66c.14,8.08-2.77,12.69-8.42,15-6,2.48-11.89,1.44-16.86-2.94S.45,55.43.09,48.85C-1.1,27,9.86,12.09,27.48,1c2-1.27,4.16-1.67,5.81.66,1.31,1.85,1.49,3.44-.81,4.93A44.26,44.26,0,0,0,18.16,20.86a29.62,29.62,0,0,0-4.27,17.27c.19,3.57.67,3.94,4.12,3.23C25.83,39.74,33.07,46.5,33.07,53.66Z"/></g></g></svg>