<svg xmlns="http://www.w3.org/2000/svg" viewBox="0 0 80 79.9947357"><g fill="#FFF"><path d="M32.292 63.627c-2.531 0-4.64-.859-6.326-2.577s-2.527-3.835-2.527-6.35c0-2.5.845-4.613 2.54-6.34s3.847-2.59 6.46-2.59c1.497 0 2.754.243 3.775.728 1.02.486 1.99 1.18 2.91 2.085l-2.269 2.614c-.74-.674-1.435-1.164-2.084-1.468-.65-.304-1.436-.456-2.356-.456-1.447 0-2.642.522-3.588 1.566-.946 1.044-1.417 2.331-1.417 3.86 0 1.513.47 2.796 1.417 3.848.946 1.052 2.14 1.578 3.588 1.578.92 0 1.719-.164 2.392-.493.675-.329 1.391-.838 2.147-1.529l2.416 2.589c-.936 1.004-1.953 1.744-3.045 2.22-1.093.477-2.438.715-4.033.715zM42.405 63.331V46.067h7.89c2.188 0 3.866.584 5.033 1.75.986.987 1.48 2.32 1.48 3.997 0 2.647-1.234 4.431-3.7 5.351l4.217 6.166h-4.44l-3.748-5.524h-2.935v5.524h-3.797zm3.797-8.878h3.847c.922 0 1.638-.227 2.147-.678.51-.453.764-1.057.764-1.814 0-.805-.263-1.418-.788-1.837-.528-.42-1.26-.63-2.196-.63h-3.774v4.959zM60.236 63.331V46.067h4.094l4.537 7.3 4.539-7.3H77.5V63.33h-3.773v-11.27l-4.86 7.373h-.097l-4.81-7.3V63.33h-3.724z"/></g><path fill="#FFF" d="M72.357 38.409c-1.229-1.031-2.737-1.73-4.088-2.564-.12-1.283-.175-2.65-.387-3.993-1.47-9.364-10.682-16.403-20.12-15.387-6.208.668-10.958 3.696-14.286 8.955-.305.481-.604.578-1.12.51-3.852-.51-7.305.49-10.361 2.858-2.156 1.67-3.647 3.84-4.595 6.4-.175 0-.32.003-.464 0-6.75-.125-12.427 4.22-14.068 10.77-.128.512-.246 1.027-.368 1.54v3.519c.052.18.123.356.154.54A14.07 14.07 0 0 0 16.571 63.33h4.319a13.524 13.524 0 0 1-.29-2.777c0-.652.063-1.289.152-1.916h-3.666c-4.328-.006-7.75-2.232-9.226-5.965-2.312-5.853 1.816-12.403 8.088-12.746 1.33-.073 2.68.126 4.016.249.564.052.814-.14.985-.672.38-1.182.767-2.37 1.261-3.507 1.387-3.196 5.266-6.493 10.887-5.174.641.15 1.297.235 1.94.376.39.086.627-.007.821-.38.439-.845.922-1.666 1.392-2.494 2.926-5.156 8.787-8.011 14.408-7.02 6.043 1.064 10.707 5.648 11.595 11.651.278 1.884.077 3.844.042 5.767-.009.478.117.695.562.833.908.281 1.804.603 2.7.922a9.594 9.594 0 0 1 2.727 1.516 47.76 47.76 0 0 1 4.969-1.702 17.032 17.032 0 0 0-1.896-1.883z"/></svg>