<svg xmlns="http://www.w3.org/2000/svg" viewBox="0 0 40 40"><circle fill="#FFF" cx="20" cy="22.231" r="3.118"/><path fill="#FFF" d="M37.5 13.24v-1.168c0-4.345-5.365-6.869-11.983-6.869H14.483C7.865 5.203 2.5 7.727 2.5 12.072v2.377a3.288 3.288 0 0 0 3.288 3.289h2.907a3.288 3.288 0 0 0 3.288-3.289v-1.18c0-2.059 1.668-2.997 3.726-2.997h8.582c2.058 0 3.726.938 3.726 2.996v1.181a3.288 3.288 0 0 0 3.288 3.289h2.907a3.288 3.288 0 0 0 3.288-3.289v-1.21z"/><path fill="#FFF" d="M33.157 19.93h-1.852a5.486 5.486 0 0 1-5.48-5.48v-1.182c0-.36-.106-.436-.19-.498-.263-.191-.765-.306-1.344-.306h-8.582c-.579 0-1.081.115-1.343.306-.085.062-.191.139-.191.498v1.181a5.486 5.486 0 0 1-5.48 5.48H6.843l-1.837 8.526a5.626 5.626 0 0 0 5.58 6.342h18.827a5.626 5.626 0 0 0 5.581-6.342l-1.837-8.525zm-6.176 9.282a1.42 1.42 0 0 1-1.008.418c-.364 0-.729-.14-1.007-.418l-1.681-1.681a6.235 6.235 0 1 1 2.015-2.015l1.681 1.681a1.425 1.425 0 0 1 0 2.015z"/></svg>