<svg xmlns="http://www.w3.org/2000/svg" viewBox="0 0 40 40"><path fill="#FFF" d="M34.33 21.39c.646 0 1.17.524 1.17 1.168v10.168a1.17 1.17 0 0 1-1.17 1.169H13.865a1.17 1.17 0 0 1-1.17-1.17V22.559c0-.644.525-1.169 1.17-1.169H34.33m0-2H13.864a3.17 3.17 0 0 0-3.17 3.17v10.167a3.17 3.17 0 0 0 3.17 3.169H34.33a3.17 3.17 0 0 0 3.169-3.17V22.559a3.17 3.17 0 0 0-3.17-3.169z"/><path fill="#FFF" d="M9.225 22.558a4.645 4.645 0 0 1 4.64-4.64h17.2a3.162 3.162 0 0 0 .167-3.398L26.177 5.7a3.17 3.17 0 0 0-4.325-1.174L4.094 14.702a3.17 3.17 0 0 0-1.174 4.325l5.056 8.822c.305.532.745.93 1.249 1.198v-6.489z"/><path fill="#FFF" d="M15.502 24.538h9.767v1.471h-9.767zM15.502 28.747h12.423v1.471H15.502z"/></svg>