<svg xmlns="http://www.w3.org/2000/svg" viewBox="0 0 40 40"><g fill="#FFF"><path d="M36.64 5c.573 0 .86.287.86.86v20.78c0 .574-.287.86-.86.86H3.36c-.575 0-.86-.286-.86-.86V5.86c0-.573.285-.86.86-.86h33.28zM35 25V7.5H5V25h30zM23.594 35h-7.188c-1.824 0-2.709-.182-2.656-.547 0-.103.103-.234.312-.39.207-.157.534-.365.977-.626a9.9 9.9 0 0 0 1.016-.664c.234-.181.351-.351.351-.507l.078-3.516h7.032c.05 2.136.078 3.308.078 3.516 0 .156.117.326.351.507.235.183.572.405 1.016.664.441.261.767.47.977.626.625.468.337.755-.86.859L23.594 35z"/><path d="M17.542 9.708h-7.125a1 1 0 0 0-1 1v3.542a1 1 0 0 0 1 1h7.125a1 1 0 0 0 1-1v-3.542a1 1 0 0 0-1-1zM15.5 14.002h-3.042v-1H15.5v1zm1.541-2.292h-6.125v-1h6.125v1zM29.583 9.708h-7.125a1 1 0 0 0-1 1v3.542a1 1 0 0 0 1 1h7.125a1 1 0 0 0 1-1v-3.542a1 1 0 0 0-1-1zM24.5 10.71h3.041v1h-3.04v-1zm4.583 3.292h-6.125v-1h6.125v1zM17.542 17.25h-7.125a1 1 0 0 0-1 1v3.542a1 1 0 0 0 1 1h7.125a1 1 0 0 0 1-1V18.25a1 1 0 0 0-1-1zm-4.295 4.377h-2.33v-1h2.33v1zm0-2.146h-2.33v-1h2.33v1zm3.795 2.193h-2.313V18.48h2.313v3.193zM29.583 17.25h-7.125a1 1 0 0 0-1 1v3.542a1 1 0 0 0 1 1h7.125a1 1 0 0 0 1-1V18.25a1 1 0 0 0-1-1zm-4.312 4.424h-2.313V18.48h2.313v3.193zm3.812 0h-2.312V18.48h2.312v3.193z"/></g></svg>