<svg xmlns="http://www.w3.org/2000/svg" viewBox="0 0 40 40"><g fill="#FFF"><circle cx="20" cy="13" r="7"/><path d="M27.062 31.192l-1.274 1.273a.91.91 0 0 1-.637.262.91.91 0 0 1-.636-.262l-1.274-1.273-3.39-3.39a.908.908 0 0 1 0-1.273l1.274-1.273a.908.908 0 0 1 1.274 0l2.752 2.762 6.142-6.152c.016-.016.038-.022.055-.036-.945-1.747-2.45-2.997-4.821-2.997-.621 0-2.881 2.534-6.527 2.534-3.645 0-5.906-2.534-6.526-2.534-5.34 0-6.307 6.326-6.307 10.446 0 2.953 1.95 4.721 4.867 4.721h15.933c2.917 0 4.866-1.768 4.866-4.721 0-1.093-.072-2.342-.272-3.587l-5.5 5.5z"/></g></svg>