<svg xmlns="http://www.w3.org/2000/svg" viewBox="0 0 40 40"><path fill="#E58700" d="M33.929 32.857A2.158 2.158 0 0 1 31.786 35H8.214a2.158 2.158 0 0 1-2.143-2.143V7.143C6.071 5.97 7.043 5 8.214 5h23.572c1.171 0 2.143.97 2.143 2.143v25.714zM31.786 8.214a1.08 1.08 0 0 0-1.072-1.071H9.286a1.08 1.08 0 0 0-1.072 1.071V12.5a1.08 1.08 0 0 0 1.072 1.071h21.428a1.08 1.08 0 0 0 1.072-1.071V8.214zm-21.429 7.5c-1.188 0-2.143.955-2.143 2.143S9.17 20 10.357 20s2.143-.954 2.143-2.143-.954-2.143-2.143-2.143zm0 6.429a2.136 2.136 0 0 0-2.143 2.143c0 1.188.955 2.143 2.143 2.143s2.143-.955 2.143-2.143a2.136 2.136 0 0 0-2.143-2.143zm0 6.428a2.136 2.136 0 0 0-2.143 2.143c0 1.189.955 2.143 2.143 2.143s2.143-.954 2.143-2.143a2.136 2.136 0 0 0-2.143-2.143zm6.429-12.857c-1.189 0-2.143.955-2.143 2.143S15.597 20 16.786 20s2.143-.954 2.143-2.143-.955-2.143-2.143-2.143zm0 6.429a2.136 2.136 0 0 0-2.143 2.143c0 1.188.954 2.143 2.143 2.143s2.143-.955 2.143-2.143a2.136 2.136 0 0 0-2.143-2.143zm0 6.428a2.136 2.136 0 0 0-2.143 2.143c0 1.189.954 2.143 2.143 2.143s2.143-.954 2.143-2.143a2.136 2.136 0 0 0-2.143-2.143zm6.428-12.857c-1.188 0-2.143.955-2.143 2.143S22.026 20 23.214 20s2.143-.954 2.143-2.143-.954-2.143-2.143-2.143zm0 6.429a2.136 2.136 0 0 0-2.143 2.143c0 1.188.955 2.143 2.143 2.143s2.143-.955 2.143-2.143a2.136 2.136 0 0 0-2.143-2.143zm0 6.428a2.136 2.136 0 0 0-2.143 2.143c0 1.189.955 2.143 2.143 2.143s2.143-.954 2.143-2.143a2.136 2.136 0 0 0-2.143-2.143zm6.429-12.857c-1.189 0-2.143.955-2.143 2.143S28.454 20 29.643 20c1.188 0 2.143-.954 2.143-2.143s-.955-2.143-2.143-2.143zm2.143 8.572a2.158 2.158 0 0 0-2.143-2.143c-1.171 0-2.143.97-2.143 2.143v6.428c0 1.172.972 2.143 2.143 2.143 1.171 0 2.143-.97 2.143-2.143v-6.428z"/><path fill="#E58700" d="M28.099 10.469a.083.083 0 0 1-.052.027h-.008a.078.078 0 0 1-.052-.017l-1.714-1.43-1.714 1.43a.085.085 0 0 1-.06.017.083.083 0 0 1-.052-.027l-.153-.184a.081.081 0 0 1 .01-.111l1.78-1.484a.305.305 0 0 1 .377 0l.605.505v-.483c0-.044.034-.079.08-.079h.475c.044 0 .08.035.08.08v1.01l.542.451c.032.027.037.08.01.111l-.154.184zm-.399 1.177a.16.16 0 0 1-.159.158h-.95v-.951h-.635v.951h-.951a.16.16 0 0 1-.159-.158v-1.19c0-.005.003-.01.003-.014l1.424-1.175 1.425 1.175c.002.004.002.01.002.014v1.19z"/></svg>