<svg xmlns="http://www.w3.org/2000/svg" viewBox="0 0 80 79.9947357"><g fill="#E58700"><path d="M22.396 50.68l-9.351-5.07c1.598-2.948.498-6.658-2.451-8.257l13.063-24.092c2.95 1.6 6.658.498 8.257-2.45l10.707 5.806c-1.598 2.948-.498 6.657 2.451 8.257L35.93 41.735l4.937-2.716 10.512-19.386a1.533 1.533 0 0 0-.613-2.064L26.673 4.505a1.533 1.533 0 0 0-2.064.613L4.29 42.594a1.533 1.533 0 0 0 .612 2.064l20.176 10.94-2.6-4.724c-.034-.062-.057-.128-.081-.194z"/><path d="M36.533 35.83c2.381-4.391-1.265-9.345-5.071-11.409s-9.947-2.417-12.329 1.975c-2.381 4.392 1.265 9.345 5.071 11.41s9.947 2.416 12.329-1.975zm-15.29-6.938l1.293-2.383 9.369 5.08 1.451-2.677 2.008 1.089-4.355 8.03-2.007-1.088 1.451-2.677L24.43 31l-.022.042c.34.618.4 1.057.568 1.796l-2.546.704-1.187-4.65zM75.707 52.866l-13.211-24.01a1.533 1.533 0 0 0-2.068-.6L40.866 39.018l-4.937 2.716-12.851 7.071a1.53 1.53 0 0 0-.682 1.874c.024.066.047.132.082.194l2.6 4.724 10.611 19.287a1.533 1.533 0 0 0 2.068.6l37.35-20.55a1.533 1.533 0 0 0 .6-2.069zm-8.737 3.07L42.959 69.147c-1.617-2.939-5.334-4.016-8.272-2.4l-4.87-8.852-1.001-1.819c2.617-1.44 3.754-4.546 2.827-7.286a6.067 6.067 0 0 0-.428-.986l2.028-1.115 4.937-2.716 17.046-9.38c1.617 2.94 5.334 4.017 8.272 2.4l5.872 10.672c-2.939 1.616-4.017 5.332-2.4 8.271z"/><path d="M55.762 48.2c-2.087-3.793-7.063-7.409-11.44-5-4.377 2.408-3.986 8.547-1.9 12.34s7.064 7.41 11.441 5c4.377-2.407 3.987-8.546 1.9-12.34zm-7.735 11.208l-1.101-2.001 2.668-1.468-3.303-6.003-.042.023c-.047.705-.234 1.107-.492 1.819l-2.523-.784 1.514-4.553 2.376-1.307 5.137 9.337 2.668-1.468 1.101 2.001-8.003 4.404z"/></g></svg>