<svg xmlns="http://www.w3.org/2000/svg" viewBox="0 0 52.26 45.29"><defs><style>.cls-1{opacity:.7}.cls-2{fill:#fff}</style></defs><title>camera</title><g id="Слой_2" data-name="Слой 2"><g class="cls-1" id="контент"><path class="cls-2" d="M52.26 13.94v24.38a7 7 0 0 1-7 7H7a7 7 0 0 1-7-7V13.94A7 7 0 0 1 7 7h6.1l1.39-3.7A5.45 5.45 0 0 1 19.16 0H33.1a5.45 5.45 0 0 1 4.71 3.27L39.2 7h6.1a7 7 0 0 1 6.96 6.94zM38.32 26.13a12.19 12.19 0 1 0-12.19 12.19 12.21 12.21 0 0 0 12.19-12.19zm-4.36 0a7.84 7.84 0 1 1-7.84-7.84A7.84 7.84 0 0 1 34 26.13z"/></g></g></svg>