<svg xmlns="http://www.w3.org/2000/svg" viewBox="0 0 22.79 13"><defs><style>.cls-1{fill:#4a91f9}</style></defs><title>vk</title><g id="Слой_2" data-name="Слой 2"><path class="cls-1" d="M21 4.43C18.67 7.49 18.42 7.2 20.32 9a10.07 10.07 0 0 1 2.27 2.62s.76 1.33-.84 1.34h-3a2.53 2.53 0 0 1-1.52-.46c-1.14-.78-2.21-2.81-3-2.55 0 0-.85.27-.83 2.1a.91.91 0 0 1-.18.61 1 1 0 0 1-.63.26h-1.44c-3 .19-5.65-2.57-5.65-2.57a31.5 31.5 0 0 1-5.43-9C-.1 1 .08.82.08.82A.86.86 0 0 1 .76.6L4 .57a1.24 1.24 0 0 1 .52.21.87.87 0 0 1 .28.38A23.86 23.86 0 0 0 6 3.7c1.22 2.45 2 2.86 2.49 2.61 0 0 .6-.37.47-3.32a3.51 3.51 0 0 0-.34-1.55 1.58 1.58 0 0 0-1-.51c-.18 0 .12-.45.51-.64A7.42 7.42 0 0 1 11 0a6.3 6.3 0 0 1 1.6.15c1.13.27.75 1.32.75 3.83 0 .81-.15 1.93.43 2.3.25.17.87 0 2.38-2.56a22 22 0 0 0 1.27-2.67.71.71 0 0 1 .3-.37.78.78 0 0 1 .45-.07h3.42c1-.13 1.2.34 1.2.34.13.48-.43 1.62-1.8 3.48z" id="контент"/></g></svg>